<svg width="24" height="24" viewBox="0 0 24 24" fill="none" xmlns="http://www.w3.org/2000/svg">
<path fill-rule="evenodd" clip-rule="evenodd" d="M6 2.75977C4.74764 2.75977 3.75 3.76049 3.75 4.97974V15.8898C3.75 17.109 4.74764 18.1097 6 18.1097H6.75C7.73266 18.1097 8.69436 18.4943 9.39871 19.1978C9.39925 19.1983 9.39979 19.1989 9.40033 19.1994L11.1069 20.8861C11.1069 20.886 11.1069 20.8861 11.1069 20.8861C11.5947 21.3675 12.3949 21.3677 12.8828 20.8864M12.8828 20.8864L14.5897 19.1994C14.5902 19.1988 14.5908 19.1982 14.5914 19.1977C15.2948 18.4952 16.2461 18.1097 17.24 18.1097H18C19.2507 18.1097 20.25 17.1007 20.25 15.8898V4.97974C20.25 3.76049 19.2524 2.75977 18 2.75977H6M2.25 4.97974C2.25 2.91898 3.93236 1.25977 6 1.25977H18C20.0676 1.25977 21.75 2.91898 21.75 4.97974V15.8898C21.75 17.9389 20.0693 19.6097 18 19.6097H17.24C16.6347 19.6097 16.0667 19.8436 15.6503 20.2601L15.6472 20.2632L13.9372 21.9532C12.8651 23.0116 11.1252 23.0119 10.0531 21.9535L8.34278 20.2632L8.33966 20.2601C7.92416 19.8446 7.34659 19.6097 6.75 19.6097H6C3.93236 19.6097 2.25 17.9505 2.25 15.8898V4.97974Z" fill="black"/>
<path fill-rule="evenodd" clip-rule="evenodd" d="M8.69 8.21973C8.17425 8.21973 7.75 8.64397 7.75 9.15979C7.75 9.574 7.41421 9.90979 7 9.90979C6.58579 9.90979 6.25 9.574 6.25 9.15979C6.25 7.81561 7.34575 6.71973 8.69 6.71973C10.0343 6.71973 11.13 7.81561 11.13 9.15979C11.13 10.5358 10.1068 11.2588 9.39566 11.7469C9.36158 11.7703 9.32799 11.7933 9.29488 11.816C8.64348 12.2624 8.17974 12.5802 7.93869 13.0198H10.38C10.7942 13.0198 11.13 13.3556 11.13 13.7698C11.13 14.184 10.7942 14.5198 10.38 14.5198H7.7C6.88237 14.5198 6.10508 13.728 6.40658 12.7984L6.40768 12.795C6.76507 11.7107 7.70133 11.0803 8.36399 10.6341C8.42772 10.5911 8.48893 10.5499 8.54684 10.5102C9.31823 9.98074 9.63 9.66375 9.63 9.15979C9.63 8.64397 9.20575 8.21973 8.69 8.21973Z" fill="black"/>
<path fill-rule="evenodd" clip-rule="evenodd" d="M14.327 7.33713C14.6482 6.8324 15.2604 6.61031 15.822 6.76756C16.4049 6.93077 16.7898 7.46297 16.7898 8.04984V11.5697H16.9998C17.414 11.5697 17.7498 11.9055 17.7498 12.3197C17.7498 12.734 17.414 13.0697 16.9998 13.0697H16.7898V13.7598C16.7898 14.174 16.454 14.5098 16.0398 14.5098C15.6255 14.5098 15.2898 14.174 15.2898 13.7598V13.0697H13.3298C12.8417 13.0697 12.3795 12.8154 12.1307 12.3856C11.8861 11.9631 11.8861 11.4265 12.1307 11.004L12.1327 11.0005C12.813 9.83999 13.5972 8.51294 14.3225 7.34426L14.327 7.33713ZM15.2898 11.5697V8.63393C14.7037 9.59152 14.0924 10.6247 13.5378 11.5697H15.2898Z" fill="black"/>
</svg>
