<svg width="24" height="24" viewBox="0 0 24 24" fill="none" xmlns="http://www.w3.org/2000/svg">
<path fill-rule="evenodd" clip-rule="evenodd" d="M3.90533 3.90533C3.18991 4.62075 2.75 5.67044 2.75 7V9C2.75 9.41421 2.41421 9.75 2 9.75C1.58579 9.75 1.25 9.41421 1.25 9V7C1.25 5.32956 1.81009 3.87925 2.84467 2.84467C3.87925 1.81009 5.32956 1.25 7 1.25H17C18.6704 1.25 20.1207 1.81009 21.1553 2.84467C22.1899 3.87925 22.75 5.32956 22.75 7V9C22.75 9.41421 22.4142 9.75 22 9.75C21.5858 9.75 21.25 9.41421 21.25 9V7C21.25 5.67044 20.8101 4.62075 20.0947 3.90533C19.3793 3.18991 18.3296 2.75 17 2.75H7C5.67044 2.75 4.62075 3.18991 3.90533 3.90533Z" fill="black"/>
<path fill-rule="evenodd" clip-rule="evenodd" d="M2 14.25C2.41421 14.25 2.75 14.5858 2.75 15V17C2.75 18.3296 3.18991 19.3793 3.90533 20.0947C4.62075 20.8101 5.67044 21.25 7 21.25H17C18.3296 21.25 19.3793 20.8101 20.0947 20.0947C20.8101 19.3793 21.25 18.3296 21.25 17V15C21.25 14.5858 21.5858 14.25 22 14.25C22.4142 14.25 22.75 14.5858 22.75 15V17C22.75 18.6704 22.1899 20.1207 21.1553 21.1553C20.1207 22.1899 18.6704 22.75 17 22.75H7C5.32956 22.75 3.87925 22.1899 2.84467 21.1553C1.81009 20.1207 1.25 18.6704 1.25 17V15C1.25 14.5858 1.58579 14.25 2 14.25Z" fill="black"/>
<path fill-rule="evenodd" clip-rule="evenodd" d="M6.05133 8.88397C6.25895 8.52554 6.71782 8.40329 7.07624 8.6109L12.0001 11.463L16.8841 8.63109C17.2424 8.42332 17.7014 8.54536 17.9091 8.9037C18.1169 9.26203 17.9949 9.72095 17.6365 9.92873L12.3765 12.9787C12.144 13.1136 11.857 13.1136 11.6244 12.9789L6.3244 9.90888C5.96597 9.70126 5.84372 9.24239 6.05133 8.88397Z" fill="black"/>
<path fill-rule="evenodd" clip-rule="evenodd" d="M12 11.5703C12.4142 11.5703 12.75 11.9061 12.75 12.3203V17.7703C12.75 18.1845 12.4142 18.5203 12 18.5203C11.5858 18.5203 11.25 18.1845 11.25 17.7703V12.3203C11.25 11.9061 11.5858 11.5703 12 11.5703Z" fill="black"/>
<path fill-rule="evenodd" clip-rule="evenodd" d="M13.6168 5.63527L16.8129 7.41312C17.3242 7.69397 17.7423 8.15786 18.0306 8.64834C18.3194 9.13973 18.5202 9.72996 18.5202 10.3096V13.6996C18.5202 14.2818 18.3152 14.8727 18.026 15.3623C17.7368 15.8518 17.3194 16.3146 16.8148 16.595L13.6148 18.375L13.612 18.3765C13.1291 18.6425 12.5442 18.7546 12.0015 18.7546C11.4595 18.7546 10.875 18.6427 10.3948 18.3745L7.19983 16.5973L7.19761 16.5961C6.68631 16.3153 6.26814 15.8514 5.97988 15.3609C5.69109 14.8695 5.49023 14.2792 5.49023 13.6996V10.3096C5.49023 9.72742 5.69523 9.13651 5.9845 8.64687C6.27368 8.15736 6.69106 7.69461 7.19564 7.41418L10.3917 5.63631C10.8728 5.36184 11.4582 5.24707 12.0015 5.24707C12.5462 5.24707 13.1328 5.36239 13.6168 5.63527ZM12.0015 6.74707C11.644 6.74707 11.3314 6.82656 11.1334 6.94016L11.1248 6.94505L7.92481 8.72502C7.70955 8.84461 7.46671 9.08694 7.27597 9.40982C7.08524 9.73267 6.99023 10.0618 6.99023 10.3096V13.6996C6.99023 13.95 7.08438 14.2797 7.27308 14.6008C7.4619 14.9221 7.70294 15.1626 7.92063 15.2819L7.92481 15.2842L11.1261 17.0649C11.3258 17.1764 11.6412 17.2546 12.0015 17.2546C12.3605 17.2546 12.6801 17.177 12.8872 17.0633L12.8884 17.0626L16.0857 15.2842C16.3009 15.1646 16.5437 14.9222 16.7345 14.5994C16.9252 14.2765 17.0202 13.9474 17.0202 13.6996V10.3096C17.0202 10.0592 16.9261 9.72945 16.7374 9.40835C16.5486 9.08707 16.3075 8.84661 16.0898 8.72733L16.0856 8.72503L12.8812 6.94251C12.6757 6.82638 12.3584 6.74707 12.0015 6.74707Z" fill="black"/>
</svg>
