<svg width="24" height="24" viewBox="0 0 24 24" fill="none" xmlns="http://www.w3.org/2000/svg">
<path fill-rule="evenodd" clip-rule="evenodd" d="M3.09467 3.09467C4.42914 1.7602 6.42603 1.25 9 1.25H15C17.574 1.25 19.5709 1.7602 20.9053 3.09467C22.2398 4.42914 22.75 6.42603 22.75 9V15C22.75 17.574 22.2398 19.5709 20.9053 20.9053C19.5709 22.2398 17.574 22.75 15 22.75H9C6.42603 22.75 4.42914 22.2398 3.09467 20.9053C1.7602 19.5709 1.25 17.574 1.25 15V9C1.25 6.42603 1.7602 4.42914 3.09467 3.09467ZM4.15533 4.15533C3.2398 5.07086 2.75 6.57397 2.75 9V15C2.75 17.426 3.2398 18.9291 4.15533 19.8447C5.07086 20.7602 6.57397 21.25 9 21.25H15C17.426 21.25 18.9291 20.7602 19.8447 19.8447C20.7602 18.9291 21.25 17.426 21.25 15V9C21.25 6.57397 20.7602 5.07086 19.8447 4.15533C18.9291 3.2398 17.426 2.75 15 2.75H9C6.57397 2.75 5.07086 3.2398 4.15533 4.15533Z" fill="black"/>
<path fill-rule="evenodd" clip-rule="evenodd" d="M6.05133 8.88397C6.25895 8.52554 6.71782 8.40329 7.07624 8.6109L12.0001 11.463L16.8841 8.63107C17.2424 8.42329 17.7014 8.54534 17.9091 8.90367C18.1169 9.262 17.9949 9.72093 17.6365 9.9287L12.3765 12.9787C12.144 13.1136 11.857 13.1136 11.6244 12.9789L6.3244 9.90888C5.96597 9.70126 5.84372 9.24239 6.05133 8.88397Z" fill="black"/>
<path fill-rule="evenodd" clip-rule="evenodd" d="M12 11.5703C12.4142 11.5703 12.75 11.9061 12.75 12.3203V17.7703C12.75 18.1845 12.4142 18.5203 12 18.5203C11.5858 18.5203 11.25 18.1845 11.25 17.7703V12.3203C11.25 11.9061 11.5858 11.5703 12 11.5703Z" fill="black"/>
<path fill-rule="evenodd" clip-rule="evenodd" d="M11.9994 5.24611C12.5437 5.2446 13.129 5.35689 13.612 5.62289L13.6148 5.62442L16.8129 7.40335C17.3242 7.68419 17.7423 8.14811 18.0306 8.63861C18.3194 9.13001 18.5202 9.72024 18.5202 10.2999V13.6999C18.5202 14.282 18.3152 14.8729 18.026 15.3626C17.7367 15.8522 17.3192 16.3151 16.8145 16.5955L13.6148 18.3753L13.612 18.3768C13.1291 18.6428 12.5442 18.7549 12.0015 18.7549C11.4595 18.7549 10.875 18.643 10.3948 18.3748L7.19763 16.5964C6.68632 16.3155 6.26815 15.8516 5.97988 15.3611C5.69109 14.8697 5.49023 14.2795 5.49023 13.6999V10.3099C5.49023 9.72768 5.69523 9.13677 5.98451 8.64712C6.27369 8.15762 6.69108 7.69486 7.19566 7.41443L10.3918 5.6366C10.8727 5.36218 11.4576 5.24761 11.9994 5.24611ZM12.0036 6.7461C11.6446 6.7471 11.3316 6.82679 11.1334 6.94045L11.1249 6.94534L7.92482 8.72528C7.70956 8.84487 7.46672 9.0872 7.27597 9.41009C7.08524 9.73294 6.99023 10.062 6.99023 10.3099V13.6999C6.99023 13.9502 7.08438 14.28 7.27309 14.6011C7.46191 14.9224 7.70296 15.1628 7.92064 15.2821L7.92483 15.2844L11.1261 17.0651C11.3258 17.1767 11.6412 17.2549 12.0015 17.2549C12.3606 17.2549 12.6801 17.1772 12.8872 17.0636L12.8884 17.0629L16.0857 15.2844C16.3009 15.1648 16.5438 14.9225 16.7345 14.5996C16.9252 14.2768 17.0202 13.9477 17.0202 13.6999V10.2999C17.0202 10.0495 16.9261 9.7197 16.7374 9.3986C16.5486 9.07731 16.3075 8.83686 16.0899 8.71759L16.0857 8.71529L12.8884 6.93682L12.8872 6.93616C12.6802 6.82252 12.3611 6.74511 12.0036 6.7461Z" fill="black"/>
</svg>
