<svg width="24" height="24" viewBox="0 0 24 24" fill="none" xmlns="http://www.w3.org/2000/svg">
<path fill-rule="evenodd" clip-rule="evenodd" d="M12.0002 6.25C12.2966 6.25 12.5652 6.42455 12.6855 6.6954L16.6855 15.6954C16.8538 16.0739 16.6833 16.5171 16.3048 16.6854C15.9263 16.8536 15.4831 16.6831 15.3148 16.3046L12.0002 8.84666L8.68555 16.3046C8.51732 16.6831 8.0741 16.8536 7.69558 16.6854C7.31707 16.5171 7.1466 16.0739 7.31483 15.6954L11.3148 6.6954C11.4352 6.42455 11.7038 6.25 12.0002 6.25Z" fill="black"/>
<path fill-rule="evenodd" clip-rule="evenodd" d="M7.25 12C7.25 11.5858 7.58579 11.25 8 11.25H12C12.4142 11.25 12.75 11.5858 12.75 12C12.75 12.4142 12.4142 12.75 12 12.75H8C7.58579 12.75 7.25 12.4142 7.25 12Z" fill="black"/>
<path fill-rule="evenodd" clip-rule="evenodd" d="M12 2.75C6.89137 2.75 2.75 6.89137 2.75 12C2.75 17.1086 6.89137 21.25 12 21.25C17.1086 21.25 21.25 17.1086 21.25 12C21.25 6.89137 17.1086 2.75 12 2.75ZM1.25 12C1.25 6.06294 6.06294 1.25 12 1.25C17.9371 1.25 22.75 6.06294 22.75 12C22.75 17.9371 17.9371 22.75 12 22.75C6.06294 22.75 1.25 17.9371 1.25 12Z" fill="black"/>
</svg>
