<svg width="24" height="24" viewBox="0 0 24 24" fill="none" xmlns="http://www.w3.org/2000/svg">
<path d="M2.35156 19.625C2.55868 19.2663 3.01727 19.1435 3.37598 19.3506L8.37598 22.2373C8.73467 22.4444 8.85749 22.903 8.65039 23.2617C8.44328 23.6204 7.98469 23.7432 7.62598 23.5361L2.62598 20.6494C2.26729 20.4423 2.14446 19.9837 2.35156 19.625ZM0.851562 14.625C1.05862 14.2664 1.51728 14.1436 1.87598 14.3506L14.876 21.8506C15.2346 22.0576 15.3573 22.5163 15.1504 22.875C14.9433 23.2336 14.4847 23.3564 14.126 23.1494L1.12598 15.6494C0.767386 15.4424 0.644619 14.9837 0.851562 14.625ZM12.001 2.96973C15.849 2.96979 19.3523 5.23864 21.7432 8.99707C22.2881 9.85141 22.5361 10.9463 22.5361 11.9951C22.5361 13.0438 22.2881 14.138 21.7432 14.9922C20.7438 16.5633 19.6323 17.8384 18.3818 18.7979L19.3652 19.3447C19.7272 19.5459 19.8574 20.0022 19.6562 20.3643C19.455 20.7262 18.9988 20.8564 18.6367 20.6553L16.9551 19.7207C16.1386 20.1574 15.2684 20.478 14.3369 20.6748C13.9384 20.4372 12.4654 19.5 12.501 19.5C13.5592 19.5 14.5475 19.2949 15.4766 18.8994L2.9668 11.9492C2.96666 11.9645 2.96582 11.9798 2.96582 11.9951C2.96587 12.7 3.10821 13.373 3.36328 13.8994C3.41231 14.0005 3.46631 14.097 3.52344 14.1865C3.64176 14.3725 3.76333 14.5545 3.88672 14.7314L1.61035 13.3652C1.51274 12.9156 1.46585 12.4511 1.46582 11.9951C1.46582 11.7136 1.48484 11.429 1.52148 11.1465L0.636719 10.6553C0.274757 10.4541 0.144574 9.99777 0.345703 9.63574C0.54691 9.27378 1.0032 9.1436 1.36523 9.34473L1.91699 9.65137C2.01438 9.42211 2.1277 9.20252 2.25879 8.99707C4.64971 5.23871 8.153 2.96973 12.001 2.96973ZM12.001 4.46973C8.78912 4.46973 5.71251 6.36139 3.52344 9.80273C3.41318 9.9755 3.31964 10.1723 3.24023 10.3857L17.0107 18.0361C18.2746 17.1406 19.4216 15.8474 20.4775 14.1875L20.4785 14.1865C20.833 13.6311 21.0361 12.8357 21.0361 11.9951C21.0361 11.1545 20.833 10.3592 20.4785 9.80371L20.4775 9.80273C18.2885 6.36145 15.2128 4.46979 12.001 4.46973ZM12.001 7.66992C14.3952 7.66996 16.3311 9.60581 16.3311 12C16.331 13.5329 15.5363 14.8762 14.3369 15.6455L12.6572 14.75C13.9049 14.4545 14.831 13.3394 14.8311 12C14.8311 10.4342 13.5667 9.16996 12.001 9.16992C10.4352 9.16992 9.1709 10.4342 9.1709 12C9.17091 12.3471 9.23583 12.6784 9.34961 12.9854L7.67285 12.0918C7.67222 12.0613 7.6709 12.0307 7.6709 12C7.6709 9.60579 9.60676 7.66992 12.001 7.66992Z" fill="black"/>
</svg>
