<svg width="24" height="24" viewBox="0 0 24 24" fill="none" xmlns="http://www.w3.org/2000/svg">
<path fill-rule="evenodd" clip-rule="evenodd" d="M11.2768 7.93049C13.4598 7.41136 15.3784 9.32946 14.8603 11.5123C14.6143 12.5623 13.7667 13.4034 12.7178 13.6589L12.7138 13.6598C10.5304 14.1791 8.61145 12.2601 9.13069 10.0767L9.13215 10.0705C9.3889 9.02998 10.2301 8.18874 11.2707 7.93198L11.2768 7.93049ZM11.627 9.38905C12.7222 9.13084 13.6612 10.0712 13.4007 11.1667L13.4 11.1695C13.2858 11.6582 12.8745 12.076 12.3648 12.201C11.2702 12.4599 10.3312 11.5213 10.5892 10.4268C10.7132 9.92967 11.1299 9.51298 11.627 9.38905Z" fill="black"/>
<path fill-rule="evenodd" clip-rule="evenodd" d="M2.45996 10.79C2.45996 5.52576 6.73574 1.25 12 1.25C17.2636 1.25 21.5399 5.51521 21.5399 10.79C21.5399 13.5368 20.377 16.0023 18.5224 17.7377C18.2199 18.0207 17.7453 18.0049 17.4623 17.7024C17.1793 17.4 17.1951 16.9254 17.4975 16.6424C19.0629 15.1777 20.0399 13.1031 20.0399 10.79C20.0399 6.34475 16.4363 2.75 12 2.75C7.56417 2.75 3.95996 6.35419 3.95996 10.79C3.95996 13.1129 4.94671 15.2058 6.5292 16.6694C6.83329 16.9506 6.85182 17.4251 6.57057 17.7292C6.28933 18.0333 5.81482 18.0518 5.51072 17.7706C3.63321 16.0342 2.45996 13.5471 2.45996 10.79Z" fill="black"/>
<path fill-rule="evenodd" clip-rule="evenodd" d="M11.9998 6.0498C9.38398 6.0498 7.25977 8.17401 7.25977 10.7898C7.25977 12.0502 7.75091 13.1889 8.54658 14.0365C8.83008 14.3385 8.81509 14.8131 8.5131 15.0966C8.21111 15.3801 7.73647 15.3651 7.45297 15.0631C6.40863 13.9507 5.75977 12.4494 5.75977 10.7898C5.75977 7.34558 8.55556 4.5498 11.9998 4.5498C15.444 4.5498 18.2398 7.34558 18.2398 10.7898C18.2398 12.4514 17.5895 13.9408 16.5492 15.0604C16.2672 15.3638 15.7926 15.3812 15.4892 15.0992C15.1858 14.8172 15.1684 14.3427 15.4504 14.0393C16.25 13.1788 16.7398 12.0482 16.7398 10.7898C16.7398 8.17401 14.6156 6.0498 11.9998 6.0498Z" fill="black"/>
<path fill-rule="evenodd" clip-rule="evenodd" d="M14.2763 16.1927L15.7126 17.9783C15.7129 17.9786 15.7132 17.979 15.7135 17.9793C17.2636 19.895 15.8835 22.7403 13.4298 22.7403H10.5598C8.09772 22.7403 6.74407 19.9011 8.27336 17.9828L8.27542 17.9802L9.71459 16.1912C10.8826 14.7294 13.1139 14.7233 14.2763 16.1927ZM13.101 17.1248C12.543 16.4176 11.4575 16.4121 10.886 17.1281L10.8842 17.1304L9.44531 18.919C8.6961 19.8607 9.36238 21.2403 10.5598 21.2403H13.4298C14.6357 21.2403 15.2956 19.8467 14.547 18.9223L14.5454 18.9204L13.101 17.1248Z" fill="black"/>
</svg>
