<svg width="24" height="24" viewBox="0 0 24 24" fill="none" xmlns="http://www.w3.org/2000/svg">
<path fill-rule="evenodd" clip-rule="evenodd" d="M11.1848 1.63895C11.696 1.38337 12.2945 1.38337 12.8056 1.63895L12.812 1.64212C13.3804 1.93307 13.8562 2.42728 14.1881 2.96406C14.5198 3.50043 14.7502 4.14809 14.7502 4.78977V7.62704L20.1842 9.96975C20.6604 10.1706 21.0462 10.5427 21.3099 10.9447C21.5744 11.348 21.7602 11.8488 21.7602 12.3598V13.6498C21.7602 14.2552 21.5261 14.8377 21.01 15.1759C20.495 15.5133 19.8685 15.4964 19.3148 15.2591L19.3129 15.2583L14.7502 13.2883V15.7557C14.7505 15.7579 14.7514 15.7653 14.7543 15.7779C14.7591 15.7987 14.7672 15.8247 14.7786 15.8521C14.7901 15.8796 14.8023 15.9021 14.8124 15.9178C14.8161 15.9236 14.8188 15.9274 14.8204 15.9294C14.8242 15.9331 14.828 15.9368 14.8317 15.9406L17.1006 18.2194C17.1004 18.2192 17.1008 18.2196 17.1006 18.2194C17.3431 18.4622 17.4851 18.778 17.5519 19.0643C17.6183 19.3492 17.6316 19.6937 17.5212 20.0187L17.0793 21.3543C16.7334 22.3574 15.5854 22.8359 14.6348 22.3606C14.5821 22.3342 14.5326 22.3017 14.4874 22.2637L12.1521 20.2992C12.083 20.24 11.9175 20.24 11.8483 20.2992L11.8431 20.3037L9.51303 22.2637C9.46928 22.3005 9.42145 22.3322 9.3705 22.3581C8.41168 22.8463 7.24849 22.3618 6.92629 21.3396L6.48872 20.0169C6.48864 20.0167 6.4888 20.0172 6.48872 20.0169C6.38056 19.6919 6.391 19.3484 6.45886 19.0595C6.52656 18.7713 6.66911 18.4605 6.90938 18.22C6.90921 18.2201 6.90956 18.2198 6.90938 18.22L9.17504 15.9443C9.17669 15.9421 9.18019 15.9372 9.18516 15.9292C9.19609 15.9115 9.20887 15.887 9.22075 15.8578C9.23261 15.8287 9.241 15.8014 9.24595 15.7796C9.24905 15.7659 9.24999 15.758 9.25023 15.7558V13.2883L4.68753 15.2583L4.68567 15.2591C4.13197 15.4964 3.50543 15.5133 2.99046 15.1759C2.47438 14.8377 2.24023 14.2552 2.24023 13.6498V12.3598C2.24023 11.8489 2.42597 11.3478 2.69136 10.9448C2.95462 10.545 3.3411 10.174 3.82031 9.97802L9.24023 7.63716V4.79977C9.24023 4.15863 9.4703 3.50899 9.80137 2.97064C10.1326 2.43203 10.6084 1.93397 11.1785 1.64215L11.1848 1.63895ZM11.8583 2.97929C11.5894 3.11811 11.3019 3.39417 11.0791 3.75639C10.8552 4.12054 10.7402 4.5009 10.7402 4.79977V7.79977C10.7402 8.07163 10.6404 8.31025 10.5271 8.48271C10.4143 8.65456 10.2364 8.83946 9.99085 8.94688L9.98761 8.9483L4.40761 11.3583L4.39071 11.3653C4.25429 11.4204 4.08412 11.5571 3.94411 11.7698C3.8045 11.9818 3.74023 12.2006 3.74023 12.3598V13.6498C3.74023 13.767 3.76221 13.8385 3.77959 13.8755C3.79592 13.9103 3.80984 13.9194 3.8125 13.9212C3.81528 13.923 3.82995 13.9325 3.86974 13.9337C3.91176 13.935 3.98668 13.9266 4.09394 13.8808C4.09366 13.8809 4.09423 13.8806 4.09394 13.8808L8.99929 11.7628C9.36504 11.6009 9.81772 11.5776 10.2045 11.8317C10.5914 12.0858 10.7502 12.5111 10.7502 12.9098V15.7598C10.7502 15.9994 10.6868 16.2351 10.6097 16.4242C10.5332 16.612 10.4132 16.8271 10.2415 16.9991C10.2412 16.9995 10.2409 16.9998 10.2406 17.0001L7.97173 19.2789C7.97177 19.279 7.96347 19.2882 7.95246 19.3096C7.94002 19.3337 7.92778 19.3656 7.91911 19.4025C7.91045 19.4394 7.90707 19.4739 7.90749 19.5021C7.90789 19.5281 7.91138 19.5412 7.91174 19.5426C7.91178 19.5427 7.91178 19.5427 7.91174 19.5426L7.91228 19.5442L8.35666 20.8874C8.39245 21.0028 8.51309 21.0723 8.63529 21.0419L10.8752 19.1577C11.5052 18.6204 12.4953 18.6204 13.1253 19.1577L15.3612 21.0386C15.4794 21.0647 15.6125 21.0015 15.6601 20.8683L16.1002 19.5382C16.1006 19.536 16.1027 19.5257 16.103 19.5062C16.1034 19.4787 16.1001 19.4436 16.0911 19.4052C16.0822 19.3668 16.0695 19.3335 16.0567 19.3084C16.0465 19.2884 16.0392 19.2796 16.0386 19.2788C16.0385 19.2787 16.0386 19.2788 16.0386 19.2788L13.7756 17.0058C13.5964 16.8333 13.4728 16.6179 13.3944 16.43C13.3139 16.2371 13.2502 15.9999 13.2502 15.7598V12.9098C13.2502 12.5176 13.4022 12.0903 13.7937 11.8344C14.1811 11.5813 14.6292 11.61 14.9849 11.7559L14.9976 11.7611L19.9057 13.8804C19.906 13.8805 19.9063 13.8807 19.9066 13.8808C20.0138 13.9266 20.0887 13.935 20.1307 13.9337C20.1705 13.9325 20.1852 13.923 20.188 13.9212C20.1906 13.9194 20.2045 13.9103 20.2209 13.8755C20.2383 13.8385 20.2602 13.767 20.2602 13.6498V12.3598C20.2602 12.2008 20.196 11.9815 20.0556 11.7673C19.915 11.553 19.7422 11.411 19.6002 11.3514L19.5933 11.3485L13.9996 8.93689C13.7541 8.82947 13.5762 8.64456 13.4633 8.47271C13.3501 8.30024 13.2502 8.06163 13.2502 7.78977V4.78977C13.2502 4.49144 13.1357 4.1141 12.9123 3.75298C12.6903 3.3939 12.4028 3.11896 12.1322 2.97929C12.0449 2.93659 11.9456 2.93659 11.8583 2.97929Z" fill="black"/>
<path fill-rule="evenodd" clip-rule="evenodd" d="M11.1848 1.63895C11.696 1.38337 12.2945 1.38337 12.8056 1.63895L12.812 1.64212C13.3804 1.93307 13.8562 2.42728 14.1881 2.96406C14.5198 3.50043 14.7502 4.14809 14.7502 4.78977V7.62704L20.1842 9.96975C20.6604 10.1706 21.0462 10.5427 21.3099 10.9447C21.5744 11.348 21.7602 11.8488 21.7602 12.3598V13.6498C21.7602 14.2552 21.5261 14.8377 21.01 15.1759C20.495 15.5133 19.8685 15.4964 19.3148 15.2591L19.3129 15.2583L14.7502 13.2883V15.7557C14.7505 15.7579 14.7514 15.7653 14.7543 15.7779C14.7591 15.7987 14.7672 15.8247 14.7786 15.8521C14.7901 15.8796 14.8023 15.9021 14.8124 15.9178C14.8161 15.9236 14.8188 15.9274 14.8204 15.9294C14.8242 15.9331 14.828 15.9368 14.8317 15.9406L17.1006 18.2194C17.1004 18.2192 17.1008 18.2196 17.1006 18.2194C17.3431 18.4622 17.4851 18.778 17.5519 19.0643C17.6183 19.3492 17.6316 19.6937 17.5212 20.0187L17.0793 21.3543C16.7334 22.3574 15.5854 22.8359 14.6348 22.3606C14.5821 22.3342 14.5326 22.3017 14.4874 22.2637L12.1521 20.2992C12.083 20.24 11.9175 20.24 11.8483 20.2992L11.8431 20.3037L9.51303 22.2637C9.46928 22.3005 9.42145 22.3322 9.3705 22.3581C8.41168 22.8463 7.24849 22.3618 6.92629 21.3396L6.48872 20.0169C6.48864 20.0167 6.4888 20.0172 6.48872 20.0169C6.38056 19.6919 6.391 19.3484 6.45886 19.0595C6.52656 18.7713 6.66911 18.4605 6.90938 18.22C6.90921 18.2201 6.90956 18.2198 6.90938 18.22L9.17504 15.9443C9.17669 15.9421 9.18019 15.9372 9.18516 15.9292C9.19609 15.9115 9.20887 15.887 9.22075 15.8578C9.23261 15.8287 9.241 15.8014 9.24595 15.7796C9.24905 15.7659 9.24999 15.758 9.25023 15.7558V13.2883L4.68753 15.2583L4.68567 15.2591C4.13197 15.4964 3.50543 15.5133 2.99046 15.1759C2.47438 14.8377 2.24023 14.2552 2.24023 13.6498V12.3598C2.24023 11.8489 2.42597 11.3478 2.69136 10.9448C2.95462 10.545 3.3411 10.174 3.82031 9.97802L9.24023 7.63716V4.79977C9.24023 4.15863 9.4703 3.50899 9.80137 2.97064C10.1326 2.43203 10.6084 1.93397 11.1785 1.64215L11.1848 1.63895ZM11.8583 2.97929C11.5894 3.11811 11.3019 3.39417 11.0791 3.75639C10.8552 4.12054 10.7402 4.5009 10.7402 4.79977V7.79977C10.7402 8.07163 10.6404 8.31025 10.5271 8.48271C10.4143 8.65456 10.2364 8.83946 9.99085 8.94688L9.98761 8.9483L4.40761 11.3583L4.39071 11.3653C4.25429 11.4204 4.08412 11.5571 3.94411 11.7698C3.8045 11.9818 3.74023 12.2006 3.74023 12.3598V13.6498C3.74023 13.767 3.76221 13.8385 3.77959 13.8755C3.79592 13.9103 3.80984 13.9194 3.8125 13.9212C3.81528 13.923 3.82995 13.9325 3.86974 13.9337C3.91176 13.935 3.98668 13.9266 4.09394 13.8808C4.09366 13.8809 4.09423 13.8806 4.09394 13.8808L8.99929 11.7628C9.36504 11.6009 9.81772 11.5776 10.2045 11.8317C10.5914 12.0858 10.7502 12.5111 10.7502 12.9098V15.7598C10.7502 15.9994 10.6868 16.2351 10.6097 16.4242C10.5332 16.612 10.4132 16.8271 10.2415 16.9991C10.2412 16.9995 10.2409 16.9998 10.2406 17.0001L7.97173 19.2789C7.97177 19.279 7.96347 19.2882 7.95246 19.3096C7.94002 19.3337 7.92778 19.3656 7.91911 19.4025C7.91045 19.4394 7.90707 19.4739 7.90749 19.5021C7.90789 19.5281 7.91138 19.5412 7.91174 19.5426C7.91178 19.5427 7.91178 19.5427 7.91174 19.5426L7.91228 19.5442L8.35666 20.8874C8.39245 21.0028 8.51309 21.0723 8.63529 21.0419L10.8752 19.1577C11.5052 18.6204 12.4953 18.6204 13.1253 19.1577L15.3612 21.0386C15.4794 21.0647 15.6125 21.0015 15.6601 20.8683L16.1002 19.5382C16.1006 19.536 16.1027 19.5257 16.103 19.5062C16.1034 19.4787 16.1001 19.4436 16.0911 19.4052C16.0822 19.3668 16.0695 19.3335 16.0567 19.3084C16.0465 19.2884 16.0392 19.2796 16.0386 19.2788C16.0385 19.2787 16.0386 19.2788 16.0386 19.2788L13.7756 17.0058C13.5964 16.8333 13.4728 16.6179 13.3944 16.43C13.3139 16.2371 13.2502 15.9999 13.2502 15.7598V12.9098C13.2502 12.5176 13.4022 12.0903 13.7937 11.8344C14.1811 11.5813 14.6292 11.61 14.9849 11.7559L14.9976 11.7611L19.9057 13.8804C19.906 13.8805 19.9063 13.8807 19.9066 13.8808C20.0138 13.9266 20.0887 13.935 20.1307 13.9337C20.1705 13.9325 20.1852 13.923 20.188 13.9212C20.1906 13.9194 20.2045 13.9103 20.2209 13.8755C20.2383 13.8385 20.2602 13.767 20.2602 13.6498V12.3598C20.2602 12.2008 20.196 11.9815 20.0556 11.7673C19.915 11.553 19.7422 11.411 19.6002 11.3514L19.5933 11.3485L13.9996 8.93689C13.7541 8.82947 13.5762 8.64456 13.4633 8.47271C13.3501 8.30024 13.2502 8.06163 13.2502 7.78977V4.78977C13.2502 4.49144 13.1357 4.1141 12.9123 3.75298C12.6903 3.3939 12.4028 3.11896 12.1322 2.97929C12.0449 2.93659 11.9456 2.93659 11.8583 2.97929Z" fill="black"/>
</svg>
