<svg width="24" height="24" viewBox="0 0 24 24" fill="none" xmlns="http://www.w3.org/2000/svg">
<path fill-rule="evenodd" clip-rule="evenodd" d="M5.78 2.75C4.11422 2.75 2.75 4.11424 2.75 5.78003C2.75 7.44581 4.1142 8.81 5.78 8.81H6.72C7.13421 8.81 7.47 9.14578 7.47 9.56V17.1C7.47 17.7258 7.98421 18.24 8.60999 18.24C9.23577 18.24 9.75 17.7258 9.75 17.1V4.83002C9.75 3.6925 8.81407 2.75 7.67001 2.75H5.78ZM1.25 5.78003C1.25 3.28582 3.28578 1.25 5.78 1.25H7.67001C9.64596 1.25 11.25 2.86754 11.25 4.83002V17.1C11.25 18.5542 10.0642 19.74 8.60999 19.74C7.15576 19.74 5.97 18.5542 5.97 17.1V10.31H5.78C3.28579 10.31 1.25 8.27425 1.25 5.78003Z" fill="black"/>
<path fill-rule="evenodd" clip-rule="evenodd" d="M5.77985 5.58984C5.67406 5.58984 5.58984 5.67406 5.58984 5.77985C5.58984 5.88557 5.674 5.96979 5.77985 5.96979C6.19406 5.96979 6.52985 6.30557 6.52985 6.71979C6.52985 7.134 6.19406 7.46979 5.77985 7.46979C4.8457 7.46979 4.08984 6.71412 4.08984 5.77985C4.08984 4.84563 4.84563 4.08984 5.77985 4.08984C6.19406 4.08984 6.52985 4.42563 6.52985 4.83984C6.52985 5.25406 6.19406 5.58984 5.77985 5.58984Z" fill="black"/>
<path fill-rule="evenodd" clip-rule="evenodd" d="M12.75 4.83002C12.75 2.86754 14.354 1.25 16.33 1.25H18.22C20.7142 1.25 22.75 3.28582 22.75 5.78003C22.75 8.27425 20.7142 10.31 18.22 10.31H18.03V17.1C18.03 18.5542 16.8442 19.74 15.39 19.74C13.9358 19.74 12.75 18.5542 12.75 17.1V4.83002ZM16.33 2.75C15.1859 2.75 14.25 3.6925 14.25 4.83002V17.1C14.25 17.7258 14.7642 18.24 15.39 18.24C16.0158 18.24 16.53 17.7258 16.53 17.1V9.56C16.53 9.14578 16.8658 8.81 17.28 8.81H18.22C19.8858 8.81 21.25 7.44581 21.25 5.78003C21.25 4.11424 19.8858 2.75 18.22 2.75H16.33Z" fill="black"/>
<path fill-rule="evenodd" clip-rule="evenodd" d="M17.4697 4.83984C17.4697 4.42563 17.8055 4.08984 18.2197 4.08984C19.1539 4.08984 19.9097 4.84563 19.9097 5.77985C19.9097 6.71412 19.1539 7.46979 18.2197 7.46979C17.8055 7.46979 17.4697 7.134 17.4697 6.71979C17.4697 6.30557 17.8055 5.96979 18.2197 5.96979C18.3256 5.96979 18.4097 5.88557 18.4097 5.77985C18.4097 5.67406 18.3255 5.58984 18.2197 5.58984C17.8055 5.58984 17.4697 5.25406 17.4697 4.83984Z" fill="black"/>
<path fill-rule="evenodd" clip-rule="evenodd" d="M8.5 18.25C8.91421 18.25 9.25 18.5858 9.25 19V22C9.25 22.4142 8.91421 22.75 8.5 22.75C8.08579 22.75 7.75 22.4142 7.75 22V19C7.75 18.5858 8.08579 18.25 8.5 18.25Z" fill="black"/>
<path fill-rule="evenodd" clip-rule="evenodd" d="M15.5 18.25C15.9142 18.25 16.25 18.5858 16.25 19V22C16.25 22.4142 15.9142 22.75 15.5 22.75C15.0858 22.75 14.75 22.4142 14.75 22V19C14.75 18.5858 15.0858 18.25 15.5 18.25Z" fill="black"/>
</svg>
