<svg width="24" height="24" viewBox="0 0 24 24" fill="none" xmlns="http://www.w3.org/2000/svg">
<path fill-rule="evenodd" clip-rule="evenodd" d="M13.7598 4.34961C14.174 4.34961 14.5098 4.6854 14.5098 5.09961V16.8996C14.5098 17.5647 14.6547 17.8363 14.7924 17.9658C14.9417 18.1063 15.2601 18.2496 15.9898 18.2496H17.0298C17.7595 18.2496 18.0779 18.1063 18.2271 17.9658C18.3649 17.8363 18.5098 17.5647 18.5098 16.8996V5.09961C18.5098 4.6854 18.8456 4.34961 19.2598 4.34961C19.674 4.34961 20.0098 4.6854 20.0098 5.09961V16.8996C20.0098 17.7345 19.8347 18.513 19.2549 19.0584C18.6867 19.593 17.8901 19.7496 17.0298 19.7496H15.9898C15.1294 19.7496 14.3329 19.593 13.7646 19.0584C13.1849 18.513 13.0098 17.7345 13.0098 16.8996V5.09961C13.0098 4.6854 13.3456 4.34961 13.7598 4.34961Z" fill="black"/>
<path fill-rule="evenodd" clip-rule="evenodd" d="M5.25977 4.34961C5.67398 4.34961 6.00977 4.6854 6.00977 5.09961V11.8996C6.00977 12.5647 6.15467 12.8363 6.29242 12.9658C6.44168 13.1063 6.76008 13.2496 7.48977 13.2496H8.52977C9.25945 13.2496 9.57785 13.1063 9.72711 12.9658C9.86486 12.8363 10.0098 12.5647 10.0098 11.8996V5.09961C10.0098 4.6854 10.3456 4.34961 10.7598 4.34961C11.174 4.34961 11.5098 4.6854 11.5098 5.09961V11.8996C11.5098 12.7345 11.3347 13.513 10.7549 14.0584C10.1867 14.593 9.39008 14.7496 8.52977 14.7496H7.48977C6.62945 14.7496 5.83285 14.593 5.26461 14.0584C4.68486 13.513 4.50977 12.7345 4.50977 11.8996V5.09961C4.50977 4.6854 4.84555 4.34961 5.25977 4.34961Z" fill="black"/>
<path fill-rule="evenodd" clip-rule="evenodd" d="M1.25 5C1.25 4.58579 1.58579 4.25 2 4.25H22C22.4142 4.25 22.75 4.58579 22.75 5C22.75 5.41421 22.4142 5.75 22 5.75H2C1.58579 5.75 1.25 5.41421 1.25 5Z" fill="black"/>
</svg>
