<svg width="24" height="24" viewBox="0 0 24 24" fill="none" xmlns="http://www.w3.org/2000/svg">
<path fill-rule="evenodd" clip-rule="evenodd" d="M4.34961 13.75C4.34961 13.3358 4.6854 13 5.09961 13H16.8996C17.7345 13 18.513 13.1751 19.0584 13.7548C19.593 14.3231 19.7496 15.1197 19.7496 15.98V17.02C19.7496 17.8803 19.593 18.6769 19.0584 19.2452C18.513 19.8249 17.7345 20 16.8996 20H5.09961C4.6854 20 4.34961 19.6642 4.34961 19.25C4.34961 18.8358 4.6854 18.5 5.09961 18.5H16.8996C17.5647 18.5 17.8363 18.3551 17.9658 18.2173C18.1063 18.0681 18.2496 17.7497 18.2496 17.02V15.98C18.2496 15.2503 18.1063 14.9319 17.9658 14.7827C17.8363 14.6449 17.5647 14.5 16.8996 14.5H5.09961C4.6854 14.5 4.34961 14.1642 4.34961 13.75Z" fill="black"/>
<path fill-rule="evenodd" clip-rule="evenodd" d="M4.34961 5.25C4.34961 4.83579 4.6854 4.5 5.09961 4.5H11.8996C12.7345 4.5 13.513 4.6751 14.0584 5.25485C14.593 5.82309 14.7496 6.61968 14.7496 7.48V8.52C14.7496 9.38032 14.593 10.1769 14.0584 10.7452C13.513 11.3249 12.7345 11.5 11.8996 11.5H5.09961C4.6854 11.5 4.34961 11.1642 4.34961 10.75C4.34961 10.3358 4.6854 10 5.09961 10H11.8996C12.5647 10 12.8363 9.8551 12.9658 9.71735C13.1063 9.56809 13.2496 9.24969 13.2496 8.52V7.48C13.2496 6.75032 13.1063 6.43191 12.9658 6.28265C12.8363 6.1449 12.5647 6 11.8996 6H5.09961C4.6854 6 4.34961 5.66421 4.34961 5.25Z" fill="black"/>
<path fill-rule="evenodd" clip-rule="evenodd" d="M5 1.24023C5.41421 1.24023 5.75 1.57602 5.75 1.99023V21.9902C5.75 22.4044 5.41421 22.7402 5 22.7402C4.58579 22.7402 4.25 22.4044 4.25 21.9902V1.99023C4.25 1.57602 4.58579 1.24023 5 1.24023Z" fill="black"/>
</svg>
