<svg width="24" height="24" viewBox="0 0 24 24" fill="none" xmlns="http://www.w3.org/2000/svg">
<path fill-rule="evenodd" clip-rule="evenodd" d="M6.03376 14.7827C5.89334 14.9319 5.75 15.2503 5.75 15.98V17.02C5.75 17.7497 5.89334 18.0681 6.03376 18.2173C6.16336 18.3551 6.43486 18.5 7.1 18.5H18.9C19.3142 18.5 19.65 18.8358 19.65 19.25C19.65 19.6642 19.3142 20 18.9 20H7.1C6.26514 20 5.48664 19.8249 4.94124 19.2452C4.40666 18.6769 4.25 17.8803 4.25 17.02V15.98C4.25 15.1197 4.40666 14.3231 4.94124 13.7548C5.48664 13.1751 6.26514 13 7.1 13H18.9C19.3142 13 19.65 13.3358 19.65 13.75C19.65 14.1642 19.3142 14.5 18.9 14.5H7.1C6.43486 14.5 6.16336 14.6449 6.03376 14.7827Z" fill="black"/>
<path fill-rule="evenodd" clip-rule="evenodd" d="M9.94124 5.25485C10.4866 4.6751 11.2651 4.5 12.1 4.5H18.9C19.3142 4.5 19.65 4.83579 19.65 5.25C19.65 5.66421 19.3142 6 18.9 6H12.1C11.4349 6 11.1634 6.1449 11.0338 6.28265C10.8933 6.43191 10.75 6.75032 10.75 7.48V8.52C10.75 9.24969 10.8933 9.56809 11.0338 9.71735C11.1634 9.8551 11.4349 10 12.1 10H18.9C19.3142 10 19.65 10.3358 19.65 10.75C19.65 11.1642 19.3142 11.5 18.9 11.5H12.1C11.2651 11.5 10.4866 11.3249 9.94124 10.7452C9.40666 10.1769 9.25 9.38032 9.25 8.52V7.48C9.25 6.61968 9.40666 5.82309 9.94124 5.25485Z" fill="black"/>
<path fill-rule="evenodd" clip-rule="evenodd" d="M19 1.24023C19.4142 1.24023 19.75 1.57602 19.75 1.99023V21.9902C19.75 22.4044 19.4142 22.7402 19 22.7402C18.5858 22.7402 18.25 22.4044 18.25 21.9902V1.99023C18.25 1.57602 18.5858 1.24023 19 1.24023Z" fill="black"/>
</svg>
