<svg width="24" height="24" viewBox="0 0 24 24" fill="none" xmlns="http://www.w3.org/2000/svg">
<path fill-rule="evenodd" clip-rule="evenodd" d="M8.25 18C8.25 17.5858 8.58579 17.25 9 17.25H11C11.4142 17.25 11.75 17.5858 11.75 18V21C11.75 21.8646 11.0621 22.75 10 22.75C8.93789 22.75 8.25 21.8646 8.25 21V18ZM9.75 18.75V21C9.75 21.0546 9.77419 21.1232 9.82329 21.1758C9.86539 21.2209 9.92063 21.25 10 21.25C10.0794 21.25 10.1346 21.2209 10.1767 21.1758C10.2258 21.1232 10.25 21.0546 10.25 21V18.75H9.75Z" fill="black"/>
<path fill-rule="evenodd" clip-rule="evenodd" d="M12.25 18C12.25 17.5858 12.5858 17.25 13 17.25H15C15.4142 17.25 15.75 17.5858 15.75 18V21C15.75 21.8646 15.0621 22.75 14 22.75C12.9379 22.75 12.25 21.8646 12.25 21V18ZM13.75 18.75V21C13.75 21.0546 13.7742 21.1232 13.8233 21.1758C13.8654 21.2209 13.9206 21.25 14 21.25C14.0794 21.25 14.1346 21.2209 14.1767 21.1758C14.2258 21.1232 14.25 21.0546 14.25 21V18.75H13.75Z" fill="black"/>
<path fill-rule="evenodd" clip-rule="evenodd" d="M9 9.75C8.31421 9.75 7.75 10.3142 7.75 11V16C7.75 16.6858 8.31421 17.25 9 17.25H15C15.6858 17.25 16.25 16.6858 16.25 16V11C16.25 10.3142 15.6858 9.75 15 9.75H9ZM6.25 11C6.25 9.48579 7.48579 8.25 9 8.25H15C16.5142 8.25 17.75 9.48579 17.75 11V16C17.75 17.5142 16.5142 18.75 15 18.75H9C7.48579 18.75 6.25 17.5142 6.25 16V11Z" fill="black"/>
<path fill-rule="evenodd" clip-rule="evenodd" d="M3.80533 10.8053C3.78991 10.8207 3.75 10.8704 3.75 11V15C3.75 15.1296 3.78991 15.1793 3.80533 15.1947C3.82075 15.2101 3.87044 15.25 4 15.25C4.12956 15.25 4.17925 15.2101 4.19467 15.1947C4.21009 15.1793 4.25 15.1296 4.25 15V11C4.25 10.8704 4.21009 10.8207 4.19467 10.8053C4.17925 10.7899 4.12956 10.75 4 10.75C3.87044 10.75 3.82075 10.7899 3.80533 10.8053ZM2.74467 9.74467C3.07925 9.41009 3.52956 9.25 4 9.25C4.47044 9.25 4.92075 9.41009 5.25533 9.74467C5.58991 10.0793 5.75 10.5296 5.75 11V15C5.75 15.4704 5.58991 15.9207 5.25533 16.2553C4.92075 16.5899 4.47044 16.75 4 16.75C3.52956 16.75 3.07925 16.5899 2.74467 16.2553C2.41009 15.9207 2.25 15.4704 2.25 15V11C2.25 10.5296 2.41009 10.0793 2.74467 9.74467Z" fill="black"/>
<path fill-rule="evenodd" clip-rule="evenodd" d="M19.8053 10.8053C19.7899 10.8207 19.75 10.8704 19.75 11V15C19.75 15.1296 19.7899 15.1793 19.8053 15.1947C19.8207 15.2101 19.8704 15.25 20 15.25C20.1296 15.25 20.1793 15.2101 20.1947 15.1947C20.2101 15.1793 20.25 15.1296 20.25 15V11C20.25 10.8704 20.2101 10.8207 20.1947 10.8053C20.1793 10.7899 20.1296 10.75 20 10.75C19.8704 10.75 19.8207 10.7899 19.8053 10.8053ZM18.7447 9.74467C19.0793 9.41009 19.5296 9.25 20 9.25C20.4704 9.25 20.9207 9.41009 21.2553 9.74467C21.5899 10.0793 21.75 10.5296 21.75 11V15C21.75 15.4704 21.5899 15.9207 21.2553 16.2553C20.9207 16.5899 20.4704 16.75 20 16.75C19.5296 16.75 19.0793 16.5899 18.7447 16.2553C18.4101 15.9207 18.25 15.4704 18.25 15V11C18.25 10.5296 18.4101 10.0793 18.7447 9.74467Z" fill="black"/>
<path fill-rule="evenodd" clip-rule="evenodd" d="M10.25 18C10.25 17.5858 10.5858 17.25 11 17.25H13C13.4142 17.25 13.75 17.5858 13.75 18C13.75 18.4142 13.4142 18.75 13 18.75H11C10.5858 18.75 10.25 18.4142 10.25 18Z" fill="black"/>
<path fill-rule="evenodd" clip-rule="evenodd" d="M7.25 5.28571C7.25 2.56393 9.33789 0.25 12 0.25C14.6621 0.25 16.75 2.56393 16.75 5.28571C16.75 6.61464 15.7621 7.75 14.4 7.75H9.6C8.23789 7.75 7.25 6.61464 7.25 5.28571ZM12 1.75C10.2621 1.75 8.75 3.29321 8.75 5.28571C8.75 5.88536 9.16211 6.25 9.6 6.25H14.4C14.8379 6.25 15.25 5.88536 15.25 5.28571C15.25 3.29321 13.7379 1.75 12 1.75Z" fill="black"/>
</svg>
