<svg width="24" height="24" viewBox="0 0 24 24" fill="none" xmlns="http://www.w3.org/2000/svg">
<path fill-rule="evenodd" clip-rule="evenodd" d="M11.6672 1.32768C11.8767 1.22411 12.1225 1.22411 12.332 1.32768L21.232 5.72768C21.4877 5.85411 21.6496 6.1147 21.6496 6.4V9.8C21.6496 10.2142 21.3138 10.55 20.8996 10.55C20.4854 10.55 20.1496 10.2142 20.1496 9.8V6.86586L11.9996 2.83665L3.84961 6.86586V9.8C3.84961 10.2142 3.51382 10.55 3.09961 10.55C2.6854 10.55 2.34961 10.2142 2.34961 9.8V6.4C2.34961 6.1147 2.51148 5.85411 2.76722 5.72768L11.6672 1.32768Z" fill="black"/>
<path fill-rule="evenodd" clip-rule="evenodd" d="M3.09961 13.4502C3.51382 13.4502 3.84961 13.786 3.84961 14.2002V17.1343L11.9996 21.1635L20.1496 17.1343V14.2002C20.1496 13.786 20.4854 13.4502 20.8996 13.4502C21.3138 13.4502 21.6496 13.786 21.6496 14.2002V17.6002C21.6496 17.8855 21.4877 18.1461 21.232 18.2725L12.332 22.6725C12.1225 22.7761 11.8767 22.7761 11.6672 22.6725L2.76722 18.2725C2.51148 18.1461 2.34961 17.8855 2.34961 17.6002V14.2002C2.34961 13.786 2.6854 13.4502 3.09961 13.4502Z" fill="black"/>
<path fill-rule="evenodd" clip-rule="evenodd" d="M12 15.6504C12.4142 15.6504 12.75 15.9862 12.75 16.4004V22.0004C12.75 22.4146 12.4142 22.7504 12 22.7504C11.5858 22.7504 11.25 22.4146 11.25 22.0004V16.4004C11.25 15.9862 11.5858 15.6504 12 15.6504Z" fill="black"/>
<path fill-rule="evenodd" clip-rule="evenodd" d="M11.9996 8.34961C9.98377 8.34961 8.34961 9.98377 8.34961 11.9996C8.34961 14.0154 9.98416 15.6504 12 15.6504C14.0158 15.6504 15.6496 14.0154 15.6496 11.9996C15.6496 9.98377 14.0154 8.34961 11.9996 8.34961ZM6.84961 11.9996C6.84961 9.15534 9.15534 6.84961 11.9996 6.84961C14.8439 6.84961 17.1496 9.15534 17.1496 11.9996C17.1496 14.8439 14.8439 17.1496 11.9996 17.1496C9.15534 17.1496 6.84961 14.8439 6.84961 11.9996Z" fill="black"/>
</svg>
