<svg width="24" height="24" viewBox="0 0 24 24" fill="none" xmlns="http://www.w3.org/2000/svg">
<path fill-rule="evenodd" clip-rule="evenodd" d="M15.3258 1.25377C15.7148 1.21487 16.0684 1.48127 16.1383 1.86588C16.3925 3.26391 15.7551 4.57719 15.1004 5.45004C14.3998 6.38424 13.0719 7.27782 11.6325 7.14697C11.2969 7.11645 11.0228 6.8658 10.9625 6.53421C10.7061 5.12355 11.3584 3.90609 12.0004 3.05004C12.0117 3.03498 12.0236 3.02034 12.036 3.00617C12.8482 2.07793 14.1175 1.3746 15.3258 1.25377ZM13.1831 3.97328C12.7956 4.49468 12.5125 5.03484 12.4304 5.58284C12.993 5.42265 13.5425 5.0273 13.9004 4.55004C14.2636 4.06587 14.5457 3.51095 14.6506 2.9574C14.1067 3.17458 13.5725 3.53587 13.1831 3.97328ZM4.36419 10.0028C5.39218 8.29806 7.12478 7.35005 8.80045 7.35005C9.62289 7.35005 10.3216 7.58308 10.9031 7.77702C10.9146 7.78087 10.9262 7.78471 10.9376 7.78853C11.1047 7.84422 11.2446 7.89394 11.3667 7.93737C11.7558 8.07564 11.9651 8.15004 12.3004 8.15004C12.6782 8.15004 12.9816 8.07979 13.4219 7.90369C13.4355 7.89823 13.4493 7.89318 13.4633 7.88853L13.4756 7.88443C14.0837 7.6817 14.7786 7.45004 15.8004 7.45004C17.3365 7.45004 18.8588 8.16119 19.9004 9.55005C20.0329 9.72661 20.0808 9.95255 20.0315 10.1677C19.9821 10.3828 19.8406 10.5653 19.6444 10.6665C17.1887 11.934 17.4999 15.5053 20.0712 16.5006C20.2626 16.5747 20.4153 16.724 20.4937 16.9138C20.572 17.1035 20.5692 17.3171 20.4858 17.5046C20.065 18.4516 19.7438 18.9858 19.2364 19.7975C19.2271 19.8124 19.2173 19.827 19.207 19.8412C19.1634 19.9011 19.1183 19.9635 19.0718 20.028C18.7114 20.5273 18.2648 21.1461 17.7493 21.6492C17.1645 22.2201 16.3853 22.75 15.4004 22.75C14.685 22.75 14.2729 22.6218 13.7934 22.385C13.755 22.3695 13.7178 22.3544 13.6815 22.3396C13.265 22.17 12.9703 22.05 12.3004 22.05C11.6508 22.05 11.2621 22.2032 10.779 22.3964C10.7475 22.409 10.7152 22.4194 10.6823 22.4277C10.6167 22.4441 10.5491 22.4661 10.4607 22.497C10.4441 22.5028 10.4261 22.5092 10.4069 22.516C10.3328 22.5422 10.2413 22.5746 10.1492 22.6034C9.89511 22.6828 9.59342 22.75 9.20045 22.75C8.28527 22.75 7.53723 22.29 6.94726 21.7562C6.35989 21.2248 5.84323 20.5404 5.40045 19.95C5.39103 19.9375 5.38202 19.9247 5.37341 19.9115C4.25462 18.2067 3.63967 16.3136 3.47862 14.569C3.31952 12.8453 3.5982 11.1891 4.36419 10.0028ZM8.80045 8.85005C7.67985 8.85005 6.41644 9.4978 5.64357 10.7859C5.63894 10.7936 5.63418 10.8012 5.62928 10.8088C5.1009 11.6217 4.83189 12.9103 4.97227 14.4311C5.11063 15.9299 5.64165 17.5791 6.61479 19.0692C7.06674 19.6715 7.49584 20.2297 7.95363 20.6439C8.41366 21.0601 8.81563 21.25 9.20045 21.25C9.40747 21.25 9.55578 21.2173 9.70174 21.1717C9.76464 21.152 9.82113 21.1321 9.89052 21.1075C9.91373 21.0993 9.93837 21.0906 9.96518 21.0812C10.0511 21.0512 10.1526 21.0167 10.2656 20.9862C10.7733 20.7833 11.3767 20.55 12.3004 20.55C13.2658 20.55 13.7819 20.7605 14.2469 20.9502C14.2913 20.9683 14.3352 20.9862 14.379 21.0037C14.3983 21.0114 14.4173 21.0199 14.4359 21.0292C14.7441 21.1834 14.93 21.25 15.4004 21.25C15.8156 21.25 16.2364 21.03 16.7015 20.5759C17.1176 20.1697 17.4844 19.6628 17.8547 19.151C17.8958 19.0941 17.937 19.0372 17.9783 18.9803C18.3228 18.429 18.5624 18.0345 18.8074 17.5483C16.08 15.9259 15.5547 11.9008 18.1494 9.85134C17.4623 9.24525 16.6272 8.95004 15.8004 8.95004C15.0381 8.95004 14.5382 9.11145 13.958 9.30476C13.4068 9.52353 12.9149 9.65004 12.3004 9.65004C11.6822 9.65004 11.1849 9.47007 10.7511 9.31306C10.6521 9.27723 10.5564 9.24259 10.4633 9.21156C9.85155 9.00765 9.36166 8.85005 8.80045 8.85005Z" fill="black"/>
<path fill-rule="evenodd" clip-rule="evenodd" d="M15.3258 1.25377C15.7148 1.21487 16.0684 1.48127 16.1383 1.86588C16.3925 3.26391 15.7551 4.57719 15.1004 5.45004C14.3998 6.38424 13.0719 7.27782 11.6325 7.14697C11.2969 7.11645 11.0228 6.8658 10.9625 6.53421C10.7061 5.12355 11.3584 3.90609 12.0004 3.05004C12.0117 3.03498 12.0236 3.02034 12.036 3.00617C12.8482 2.07793 14.1175 1.3746 15.3258 1.25377ZM13.1831 3.97328C12.7956 4.49468 12.5125 5.03484 12.4304 5.58284C12.993 5.42265 13.5425 5.0273 13.9004 4.55004C14.2636 4.06587 14.5457 3.51095 14.6506 2.9574C14.1067 3.17458 13.5725 3.53587 13.1831 3.97328ZM4.36419 10.0028C5.39218 8.29806 7.12478 7.35005 8.80045 7.35005C9.62289 7.35005 10.3216 7.58308 10.9031 7.77702C10.9146 7.78087 10.9262 7.78471 10.9376 7.78853C11.1047 7.84422 11.2446 7.89394 11.3667 7.93737C11.7558 8.07564 11.9651 8.15004 12.3004 8.15004C12.6782 8.15004 12.9816 8.07979 13.4219 7.90369C13.4355 7.89823 13.4493 7.89318 13.4633 7.88853L13.4756 7.88443C14.0837 7.6817 14.7786 7.45004 15.8004 7.45004C17.3365 7.45004 18.8588 8.16119 19.9004 9.55005C20.0329 9.72661 20.0808 9.95255 20.0315 10.1677C19.9821 10.3828 19.8406 10.5653 19.6444 10.6665C17.1887 11.934 17.4999 15.5053 20.0712 16.5006C20.2626 16.5747 20.4153 16.724 20.4937 16.9138C20.572 17.1035 20.5692 17.3171 20.4858 17.5046C20.065 18.4516 19.7438 18.9858 19.2364 19.7975C19.2271 19.8124 19.2173 19.827 19.207 19.8412C19.1634 19.9011 19.1183 19.9635 19.0718 20.028C18.7114 20.5273 18.2648 21.1461 17.7493 21.6492C17.1645 22.2201 16.3853 22.75 15.4004 22.75C14.685 22.75 14.2729 22.6218 13.7934 22.385C13.755 22.3695 13.7178 22.3544 13.6815 22.3396C13.265 22.17 12.9703 22.05 12.3004 22.05C11.6508 22.05 11.2621 22.2032 10.779 22.3964C10.7475 22.409 10.7152 22.4194 10.6823 22.4277C10.6167 22.4441 10.5491 22.4661 10.4607 22.497C10.4441 22.5028 10.4261 22.5092 10.4069 22.516C10.3328 22.5422 10.2413 22.5746 10.1492 22.6034C9.89511 22.6828 9.59342 22.75 9.20045 22.75C8.28527 22.75 7.53723 22.29 6.94726 21.7562C6.35989 21.2248 5.84323 20.5404 5.40045 19.95C5.39103 19.9375 5.38202 19.9247 5.37341 19.9115C4.25462 18.2067 3.63967 16.3136 3.47862 14.569C3.31952 12.8453 3.5982 11.1891 4.36419 10.0028ZM8.80045 8.85005C7.67985 8.85005 6.41644 9.4978 5.64357 10.7859C5.63894 10.7936 5.63418 10.8012 5.62928 10.8088C5.1009 11.6217 4.83189 12.9103 4.97227 14.4311C5.11063 15.9299 5.64165 17.5791 6.61479 19.0692C7.06674 19.6715 7.49584 20.2297 7.95363 20.6439C8.41366 21.0601 8.81563 21.25 9.20045 21.25C9.40747 21.25 9.55578 21.2173 9.70174 21.1717C9.76464 21.152 9.82113 21.1321 9.89052 21.1075C9.91373 21.0993 9.93837 21.0906 9.96518 21.0812C10.0511 21.0512 10.1526 21.0167 10.2656 20.9862C10.7733 20.7833 11.3767 20.55 12.3004 20.55C13.2658 20.55 13.7819 20.7605 14.2469 20.9502C14.2913 20.9683 14.3352 20.9862 14.379 21.0037C14.3983 21.0114 14.4173 21.0199 14.4359 21.0292C14.7441 21.1834 14.93 21.25 15.4004 21.25C15.8156 21.25 16.2364 21.03 16.7015 20.5759C17.1176 20.1697 17.4844 19.6628 17.8547 19.151C17.8958 19.0941 17.937 19.0372 17.9783 18.9803C18.3228 18.429 18.5624 18.0345 18.8074 17.5483C16.08 15.9259 15.5547 11.9008 18.1494 9.85134C17.4623 9.24525 16.6272 8.95004 15.8004 8.95004C15.0381 8.95004 14.5382 9.11145 13.958 9.30476C13.4068 9.52353 12.9149 9.65004 12.3004 9.65004C11.6822 9.65004 11.1849 9.47007 10.7511 9.31306C10.6521 9.27723 10.5564 9.24259 10.4633 9.21156C9.85155 9.00765 9.36166 8.85005 8.80045 8.85005Z" fill="black"/>
</svg>
