<svg width="24" height="24" viewBox="0 0 24 24" fill="none" xmlns="http://www.w3.org/2000/svg">
<path fill-rule="evenodd" clip-rule="evenodd" d="M22.5303 1.46967C22.8232 1.76256 22.8232 2.23744 22.5303 2.53033L2.53033 22.5303C2.23744 22.8232 1.76256 22.8232 1.46967 22.5303C1.17678 22.2374 1.17678 21.7626 1.46967 21.4697L21.4697 1.46967C21.7626 1.17678 22.2374 1.17678 22.5303 1.46967Z" fill="black"/>
<path fill-rule="evenodd" clip-rule="evenodd" d="M20.6801 7.95996C21.0943 7.95996 21.4301 8.29575 21.4301 8.70996V19.71C21.4301 20.8802 21.0046 21.8974 20.1204 22.4176C19.236 22.938 18.1397 22.8157 17.1152 22.2452C17.1042 22.2391 17.0933 22.2327 17.0826 22.226L10.6026 18.176C10.2513 17.9564 10.1446 17.4937 10.3641 17.1425C10.5836 16.7912 11.0463 16.6844 11.3976 16.904L17.8608 20.9434C18.5877 21.3434 19.0862 21.2858 19.3598 21.1248C19.6356 20.9625 19.9301 20.5498 19.9301 19.71V8.70996C19.9301 8.29575 20.2659 7.95996 20.6801 7.95996Z" fill="black"/>
<path fill-rule="evenodd" clip-rule="evenodd" d="M7.18031 2.75C5.46579 2.75 4.07031 4.15295 4.07031 5.86V19.95C4.07031 20.3642 3.73453 20.7 3.32031 20.7C2.9061 20.7 2.57031 20.3642 2.57031 19.95V5.86C2.57031 3.32705 4.63484 1.25 7.18031 1.25H16.8303C18.2778 1.25 19.5685 1.92114 20.414 2.96906C20.6741 3.29143 20.6236 3.76361 20.3013 4.02371C19.9789 4.2838 19.5067 4.23332 19.2466 3.91094C18.6721 3.19886 17.8028 2.75 16.8303 2.75H7.18031Z" fill="black"/>
</svg>
