<svg width="24" height="24" viewBox="0 0 24 24" fill="none" xmlns="http://www.w3.org/2000/svg">
<path fill-rule="evenodd" clip-rule="evenodd" d="M4.5 9.46973C4.91421 9.46973 5.25 9.80551 5.25 10.2197V18.9997C5.25 19.9865 5.38632 20.4809 5.62693 20.7558C5.84587 21.0061 6.31467 21.2497 7.5 21.2497H16.5C17.6853 21.2497 18.1541 21.0061 18.3731 20.7558C18.6137 20.4809 18.75 19.9865 18.75 18.9997V10.2197C18.75 9.80551 19.0858 9.46973 19.5 9.46973C19.9142 9.46973 20.25 9.80551 20.25 10.2197V18.9997C20.25 20.013 20.1363 21.0186 19.5019 21.7436C18.8459 22.4934 17.8147 22.7497 16.5 22.7497H7.5C6.18533 22.7497 5.15413 22.4934 4.49807 21.7436C3.86368 21.0186 3.75 20.013 3.75 18.9997V10.2197C3.75 9.80551 4.08579 9.46973 4.5 9.46973Z" fill="black"/>
<path fill-rule="evenodd" clip-rule="evenodd" d="M3.28033 3.28033C2.97059 3.59007 2.75 4.11561 2.75 5V7C2.75 7.88439 2.97059 8.40993 3.28033 8.71967C3.59007 9.02941 4.11561 9.25 5 9.25H19C19.8844 9.25 20.4099 9.02941 20.7197 8.71967C21.0294 8.40993 21.25 7.88439 21.25 7V5C21.25 4.11561 21.0294 3.59007 20.7197 3.28033C20.4099 2.97059 19.8844 2.75 19 2.75H5C4.11561 2.75 3.59007 2.97059 3.28033 3.28033ZM2.21967 2.21967C2.90993 1.52941 3.88439 1.25 5 1.25H19C20.1156 1.25 21.0901 1.52941 21.7803 2.21967C22.4706 2.90993 22.75 3.88439 22.75 5V7C22.75 8.11561 22.4706 9.09007 21.7803 9.78033C21.0901 10.4706 20.1156 10.75 19 10.75H5C3.88439 10.75 2.90993 10.4706 2.21967 9.78033C1.52941 9.09007 1.25 8.11561 1.25 7V5C1.25 3.88439 1.52941 2.90993 2.21967 2.21967Z" fill="black"/>
<path fill-rule="evenodd" clip-rule="evenodd" d="M9.42969 14C9.42969 13.5858 9.76547 13.25 10.1797 13.25H13.8197C14.2339 13.25 14.5697 13.5858 14.5697 14C14.5697 14.4142 14.2339 14.75 13.8197 14.75H10.1797C9.76547 14.75 9.42969 14.4142 9.42969 14Z" fill="black"/>
</svg>
