<svg width="24" height="24" viewBox="0 0 24 24" fill="none" xmlns="http://www.w3.org/2000/svg">
<path fill-rule="evenodd" clip-rule="evenodd" d="M2.57031 5.86C2.57031 3.32705 4.63484 1.25 7.18031 1.25H16.8203C19.3665 1.25 21.4284 3.32697 21.4403 5.85646L21.4403 5.86L21.4403 19.95C21.4403 21.0187 21.0533 21.9642 20.2284 22.45C19.4034 22.9359 18.3895 22.8153 17.4562 22.2957M17.4562 22.2957L12.5696 19.582C12.456 19.5174 12.255 19.4625 12.0091 19.4625C11.7638 19.4625 11.5574 19.5171 11.4356 19.585L6.55443 22.2957L6.55207 22.297C5.61779 22.8114 4.60519 22.9272 3.78221 22.4425C2.95864 21.9575 2.57031 21.0157 2.57031 19.95V5.86M7.18031 2.75C5.46579 2.75 4.07031 4.15295 4.07031 5.86V19.95C4.07031 20.6843 4.32698 21.0225 4.54342 21.15C4.7603 21.2777 5.18232 21.3385 5.82737 20.9837L5.82855 20.983L10.705 18.275C11.1032 18.0531 11.577 17.9625 12.0091 17.9625C12.4393 17.9625 12.9117 18.0521 13.3074 18.276L18.1844 20.9843C18.8309 21.3444 19.2525 21.284 19.4672 21.1575C19.6823 21.0308 19.9403 20.6913 19.9403 19.95V5.862C19.9314 4.15219 18.5336 2.75 16.8203 2.75H7.18031Z" fill="black"/>
<path fill-rule="evenodd" clip-rule="evenodd" d="M15.6202 7.96967C15.9131 8.26256 15.9131 8.73744 15.6202 9.03033L11.6202 13.0303C11.3273 13.3232 10.8524 13.3232 10.5595 13.0303L9.05951 11.5303C8.76662 11.2374 8.76662 10.7626 9.05951 10.4697C9.35241 10.1768 9.82728 10.1768 10.1202 10.4697L11.0898 11.4393L14.5595 7.96967C14.8524 7.67678 15.3273 7.67678 15.6202 7.96967Z" fill="black"/>
</svg>
