<svg width="24" height="24" viewBox="0 0 24 24" fill="none" xmlns="http://www.w3.org/2000/svg">
<path fill-rule="evenodd" clip-rule="evenodd" d="M3.09467 3.09467C4.42914 1.7602 6.42603 1.25 9 1.25H15C17.574 1.25 19.5709 1.7602 20.9053 3.09467C22.2398 4.42914 22.75 6.42603 22.75 9V15C22.75 17.574 22.2398 19.5709 20.9053 20.9053C19.5709 22.2398 17.574 22.75 15 22.75H9C6.42603 22.75 4.42914 22.2398 3.09467 20.9053C1.7602 19.5709 1.25 17.574 1.25 15V9C1.25 6.42603 1.7602 4.42914 3.09467 3.09467ZM4.15533 4.15533C3.2398 5.07086 2.75 6.57397 2.75 9V15C2.75 17.426 3.2398 18.9291 4.15533 19.8447C5.07086 20.7602 6.57397 21.25 9 21.25H15C17.426 21.25 18.9291 20.7602 19.8447 19.8447C20.7602 18.9291 21.25 17.426 21.25 15V9C21.25 6.57397 20.7602 5.07086 19.8447 4.15533C18.9291 3.2398 17.426 2.75 15 2.75H9C6.57397 2.75 5.07086 3.2398 4.15533 4.15533Z" fill="black"/>
<path fill-rule="evenodd" clip-rule="evenodd" d="M8 6.5C7.31421 6.5 6.75 7.06421 6.75 7.75V12.0517C7.12542 11.8589 7.55044 11.75 8 11.75H16C16.4496 11.75 16.8746 11.8589 17.25 12.0517V7.75C17.25 7.06421 16.6858 6.5 16 6.5H8ZM18.75 14.5V7.75C18.75 6.23579 17.5142 5 16 5H8C6.48579 5 5.25 6.23579 5.25 7.75V14.5C5.25 14.9142 5.58579 15.25 6 15.25C6.41421 15.25 6.75 14.9142 6.75 14.5C6.75 13.8142 7.31421 13.25 8 13.25H16C16.6858 13.25 17.25 13.8142 17.25 14.5C17.25 14.9142 17.5858 15.25 18 15.25C18.4142 15.25 18.75 14.9142 18.75 14.5Z" fill="black"/>
<path fill-rule="evenodd" clip-rule="evenodd" d="M17.25 15.75C17.25 15.3358 17.5858 15 18 15H19C19.4142 15 19.75 15.3358 19.75 15.75C19.75 16.1642 19.4142 16.5 19 16.5H18C17.5858 16.5 17.25 16.1642 17.25 15.75Z" fill="black"/>
<path fill-rule="evenodd" clip-rule="evenodd" d="M4.25 15.75C4.25 15.3358 4.58579 15 5 15H6C6.41421 15 6.75 15.3358 6.75 15.75C6.75 16.1642 6.41421 16.5 6 16.5H5C4.58579 16.5 4.25 16.1642 4.25 15.75Z" fill="black"/>
<path fill-rule="evenodd" clip-rule="evenodd" d="M5.25 11C5.25 9.48579 6.48579 8.25 8 8.25H16C17.5142 8.25 18.75 9.48579 18.75 11V14C18.75 14.4142 18.4142 14.75 18 14.75C17.5858 14.75 17.25 14.4142 17.25 14V11C17.25 10.3142 16.6858 9.75 16 9.75H8C7.31421 9.75 6.75 10.3142 6.75 11V14C6.75 14.4142 6.41421 14.75 6 14.75C5.58579 14.75 5.25 14.4142 5.25 14V11Z" fill="black"/>
<path fill-rule="evenodd" clip-rule="evenodd" d="M8 13.25C7.31421 13.25 6.75 13.8142 6.75 14.5V15H9.5C9.91421 15 10.25 15.3358 10.25 15.75C10.25 16.7158 11.0342 17.5 12 17.5C12.9658 17.5 13.75 16.7158 13.75 15.75C13.75 15.3358 14.0858 15 14.5 15H17.25V14.5C17.25 13.8142 16.6858 13.25 16 13.25H8ZM5.25 14.5C5.25 12.9858 6.48579 11.75 8 11.75H16C17.5142 11.75 18.75 12.9858 18.75 14.5V15.75C18.75 16.1642 18.4142 16.5 18 16.5H15.1629C14.8241 17.9329 13.5361 19 12 19C10.4639 19 9.17586 17.9329 8.83706 16.5H6C5.58579 16.5 5.25 16.1642 5.25 15.75V14.5Z" fill="black"/>
</svg>
