<svg width="24" height="24" viewBox="0 0 24 24" fill="none" xmlns="http://www.w3.org/2000/svg">
<path fill-rule="evenodd" clip-rule="evenodd" d="M3.09467 3.09467C4.42914 1.7602 6.42603 1.25 9 1.25H15C17.574 1.25 19.5709 1.7602 20.9053 3.09467C22.2398 4.42914 22.75 6.42603 22.75 9V15C22.75 17.574 22.2398 19.5709 20.9053 20.9053C19.5709 22.2398 17.574 22.75 15 22.75H9C6.42603 22.75 4.42914 22.2398 3.09467 20.9053C1.7602 19.5709 1.25 17.574 1.25 15V9C1.25 6.42603 1.7602 4.42914 3.09467 3.09467ZM4.15533 4.15533C3.2398 5.07086 2.75 6.57397 2.75 9V15C2.75 17.426 3.2398 18.9291 4.15533 19.8447C5.07086 20.7602 6.57397 21.25 9 21.25H15C17.426 21.25 18.9291 20.7602 19.8447 19.8447C20.7602 18.9291 21.25 17.426 21.25 15V9C21.25 6.57397 20.7602 5.07086 19.8447 4.15533C18.9291 3.2398 17.426 2.75 15 2.75H9C6.57397 2.75 5.07086 3.2398 4.15533 4.15533Z" fill="black"/>
<path fill-rule="evenodd" clip-rule="evenodd" d="M17.6807 13.29C17.9736 13.5829 17.9736 14.0577 17.6807 14.3506L14.6407 17.3906C14.3478 17.6835 13.8729 17.6835 13.58 17.3906C13.2871 17.0978 13.2871 16.6229 13.58 16.33L16.62 13.29C16.9129 12.9971 17.3878 12.9971 17.6807 13.29Z" fill="black"/>
<path fill-rule="evenodd" clip-rule="evenodd" d="M6.09961 13.8203C6.09961 13.4061 6.4354 13.0703 6.84961 13.0703H17.1496C17.5638 13.0703 17.8996 13.4061 17.8996 13.8203C17.8996 14.2345 17.5638 14.5703 17.1496 14.5703H6.84961C6.4354 14.5703 6.09961 14.2345 6.09961 13.8203Z" fill="black"/>
<path fill-rule="evenodd" clip-rule="evenodd" d="M10.4199 6.60932C10.7128 6.90221 10.7128 7.37709 10.4199 7.66998L7.37994 10.71C7.08705 11.0029 6.61217 11.0029 6.31928 10.71C6.02639 10.4171 6.02639 9.94221 6.31928 9.64932L9.35928 6.60932C9.65217 6.31642 10.127 6.31642 10.4199 6.60932Z" fill="black"/>
<path fill-rule="evenodd" clip-rule="evenodd" d="M6.09961 10.1797C6.09961 9.76547 6.4354 9.42969 6.84961 9.42969H17.1496C17.5638 9.42969 17.8996 9.76547 17.8996 10.1797C17.8996 10.5939 17.5638 10.9297 17.1496 10.9297H6.84961C6.4354 10.9297 6.09961 10.5939 6.09961 10.1797Z" fill="black"/>
</svg>
