<svg width="24" height="24" viewBox="0 0 24 24" fill="none" xmlns="http://www.w3.org/2000/svg">
<path fill-rule="evenodd" clip-rule="evenodd" d="M20.9053 3.09467C22.2398 4.42914 22.75 6.42603 22.75 9V15C22.75 17.574 22.2398 19.5709 20.9053 20.9053C19.5709 22.2398 17.574 22.75 15 22.75H9C6.42603 22.75 4.42914 22.2398 3.09467 20.9053C1.7602 19.5709 1.25 17.574 1.25 15L1.25 9C1.25 6.42603 1.7602 4.42914 3.09467 3.09467C4.42914 1.7602 6.42603 1.25 9 1.25L15 1.25C17.574 1.25 19.5709 1.7602 20.9053 3.09467ZM19.8447 4.15533C18.9291 3.2398 17.426 2.75 15 2.75L9 2.75C6.57397 2.75 5.07086 3.2398 4.15533 4.15533C3.2398 5.07086 2.75 6.57397 2.75 9L2.75 15C2.75 17.426 3.2398 18.9291 4.15533 19.8447C5.07086 20.7602 6.57397 21.25 9 21.25H15C17.426 21.25 18.9291 20.7602 19.8447 19.8447C20.7602 18.9291 21.25 17.426 21.25 15V9C21.25 6.57397 20.7602 5.07086 19.8447 4.15533Z" fill="black"/>
<path fill-rule="evenodd" clip-rule="evenodd" d="M10.71 17.6807C10.4171 17.9736 9.94225 17.9736 9.64936 17.6807L6.60936 14.6407C6.31646 14.3478 6.31646 13.8729 6.60936 13.58C6.90225 13.2871 7.37712 13.2871 7.67002 13.58L10.71 16.62C11.0029 16.9129 11.0029 17.3878 10.71 17.6807Z" fill="black"/>
<path fill-rule="evenodd" clip-rule="evenodd" d="M10.1797 6.09961C10.5939 6.09961 10.9297 6.4354 10.9297 6.84961L10.9297 17.1496C10.9297 17.5638 10.5939 17.8996 10.1797 17.8996C9.76547 17.8996 9.42969 17.5638 9.42969 17.1496L9.42969 6.84961C9.42969 6.4354 9.76547 6.09961 10.1797 6.09961Z" fill="black"/>
<path fill-rule="evenodd" clip-rule="evenodd" d="M17.3907 10.4199C17.0978 10.7128 16.6229 10.7128 16.33 10.4199L13.29 7.37994C12.9971 7.08705 12.9971 6.61217 13.29 6.31928C13.5829 6.02639 14.0578 6.02639 14.3507 6.31928L17.3907 9.35928C17.6836 9.65217 17.6836 10.127 17.3907 10.4199Z" fill="black"/>
<path fill-rule="evenodd" clip-rule="evenodd" d="M13.8203 6.09961C14.2345 6.09961 14.5703 6.4354 14.5703 6.84961L14.5703 17.1496C14.5703 17.5638 14.2345 17.8996 13.8203 17.8996C13.4061 17.8996 13.0703 17.5638 13.0703 17.1496L13.0703 6.84961C13.0703 6.4354 13.4061 6.09961 13.8203 6.09961Z" fill="black"/>
</svg>
