<svg width="24" height="24" viewBox="0 0 24 24" fill="none" xmlns="http://www.w3.org/2000/svg">
<path fill-rule="evenodd" clip-rule="evenodd" d="M10.71 17.6797C10.4171 17.9726 9.94225 17.9726 9.64935 17.6797L6.60938 14.6397C6.31649 14.3468 6.31649 13.8719 6.60938 13.579C6.90228 13.2861 7.37715 13.2862 7.67004 13.579L10.71 16.6191C11.0029 16.912 11.0029 17.3868 10.71 17.6797Z" fill="black"/>
<path fill-rule="evenodd" clip-rule="evenodd" d="M10.1797 6.09961C10.5939 6.09961 10.9297 6.4354 10.9297 6.84961V17.1496C10.9297 17.5638 10.5939 17.8996 10.1797 17.8996C9.76547 17.8996 9.42969 17.5638 9.42969 17.1496V6.84961C9.42969 6.4354 9.76547 6.09961 10.1797 6.09961Z" fill="black"/>
<path fill-rule="evenodd" clip-rule="evenodd" d="M17.3907 10.4199C17.0978 10.7128 16.6229 10.7128 16.33 10.4199L13.29 7.37994C12.9971 7.08704 12.9972 6.61217 13.29 6.31928C13.5829 6.02638 14.0578 6.02639 14.3507 6.31928L17.3907 9.35929C17.6836 9.65219 17.6836 10.1271 17.3907 10.4199Z" fill="black"/>
<path fill-rule="evenodd" clip-rule="evenodd" d="M13.8203 6.09961C14.2345 6.09961 14.5703 6.4354 14.5703 6.84961V17.1496C14.5703 17.5638 14.2345 17.8996 13.8203 17.8996C13.4061 17.8996 13.0703 17.5638 13.0703 17.1496V6.84961C13.0703 6.4354 13.4061 6.09961 13.8203 6.09961Z" fill="black"/>
<path fill-rule="evenodd" clip-rule="evenodd" d="M21.25 12C21.25 6.89137 17.1086 2.75 12 2.75C6.89136 2.75 2.75 6.89137 2.75 12C2.75 17.1086 6.89136 21.25 12 21.25C17.1086 21.25 21.25 17.1086 21.25 12ZM12 1.25C17.9371 1.25 22.75 6.06294 22.75 12C22.75 17.9371 17.9371 22.75 12 22.75C6.06294 22.75 1.25 17.9371 1.25 12C1.25 6.06294 6.06294 1.25 12 1.25Z" fill="black"/>
</svg>
