<svg width="24" height="24" viewBox="0 0 24 24" fill="none" xmlns="http://www.w3.org/2000/svg">
<path fill-rule="evenodd" clip-rule="evenodd" d="M12 2.75C6.89137 2.75 2.75 6.89137 2.75 12C2.75 17.1086 6.89137 21.25 12 21.25C17.1086 21.25 21.25 17.1086 21.25 12C21.25 6.89137 17.1086 2.75 12 2.75ZM1.25 12C1.25 6.06294 6.06294 1.25 12 1.25C17.9371 1.25 22.75 6.06294 22.75 12C22.75 17.9371 17.9371 22.75 12 22.75C6.06294 22.75 1.25 17.9371 1.25 12Z" fill="black"/>
<path fill-rule="evenodd" clip-rule="evenodd" d="M13.7898 7.93864C14.0831 8.23112 14.0838 8.706 13.7913 8.9993L10.7994 11.9997L13.7913 15.0001C14.0838 15.2935 14.0831 15.7683 13.7898 16.0608C13.4965 16.3533 13.0216 16.3526 12.7292 16.0593L9.20915 12.5293C8.91726 12.2366 8.91726 11.7629 9.20915 11.4701L12.7292 7.94015C13.0216 7.64684 13.4965 7.64617 13.7898 7.93864Z" fill="black"/>
</svg>
