<svg width="24" height="24" viewBox="0 0 24 24" fill="none" xmlns="http://www.w3.org/2000/svg">
<path fill-rule="evenodd" clip-rule="evenodd" d="M9.03957 3.45938C9.33275 3.75198 9.33322 4.22685 9.04062 4.52004L4.03062 9.54004C3.73802 9.83322 3.26315 9.83369 2.96996 9.54109C2.67678 9.24849 2.67631 8.77362 2.96891 8.48043L7.97891 3.46043C8.27151 3.16725 8.74638 3.16677 9.03957 3.45938Z" fill="black"/>
<path fill-rule="evenodd" clip-rule="evenodd" d="M21.25 9.00977C21.25 9.42398 20.9142 9.75977 20.5 9.75977L3.5 9.75976C3.08579 9.75976 2.75 9.42398 2.75 9.00976C2.75 8.59555 3.08579 8.25976 3.5 8.25976L20.5 8.25977C20.9142 8.25977 21.25 8.59555 21.25 9.00977Z" fill="black"/>
<path fill-rule="evenodd" clip-rule="evenodd" d="M21.0298 14.4594C21.323 14.752 21.3235 15.2269 21.0309 15.52L16.0209 20.54C15.7283 20.8332 15.2534 20.8337 14.9602 20.5411C14.667 20.2485 14.6665 19.7736 14.9591 19.4804L19.9691 14.4604C20.2617 14.1672 20.7366 14.1668 21.0298 14.4594Z" fill="black"/>
<path fill-rule="evenodd" clip-rule="evenodd" d="M21.25 14.9902C21.25 15.4044 20.9142 15.7402 20.5 15.7402L3.5 15.7402C3.08579 15.7402 2.75 15.4044 2.75 14.9902C2.75 14.576 3.08579 14.2402 3.5 14.2402L20.5 14.2402C20.9142 14.2402 21.25 14.576 21.25 14.9902Z" fill="black"/>
</svg>
