<svg width="24" height="24" viewBox="0 0 24 24" fill="none" xmlns="http://www.w3.org/2000/svg">
<path fill-rule="evenodd" clip-rule="evenodd" d="M12.015 17.2493C11.2827 17.2493 10.399 16.7676 9.64925 15.4713L6.96925 10.8513C6.96919 10.8512 6.96931 10.8514 6.96925 10.8513C6.22014 9.55601 6.24469 8.54978 6.61082 7.91555C6.9771 7.28105 7.83613 6.75684 9.33003 6.75684H14.7C16.1939 6.75684 17.053 7.28105 17.4192 7.91555C17.7853 8.54973 17.8101 9.55555 17.0612 10.8507C17.061 10.8509 17.0613 10.8505 17.0612 10.8507L14.3813 15.4705C13.6315 16.7667 12.7474 17.2493 12.015 17.2493ZM15.6788 16.2232C14.7685 17.7964 13.4674 18.7493 12.015 18.7493C10.5625 18.7493 9.26133 17.7963 8.35107 16.2228C8.35098 16.2227 8.35117 16.223 8.35107 16.2228L5.67128 11.6032C4.76057 10.0286 4.58539 8.42384 5.31174 7.16562C6.03795 5.90762 7.51392 5.25684 9.33003 5.25684H14.7C16.5161 5.25684 17.9921 5.90762 18.7183 7.16562C19.4447 8.42384 19.27 10.0278 18.3593 11.6023L15.6788 16.2232C15.6789 16.2229 15.6786 16.2234 15.6788 16.2232Z" fill="black"/>
<path fill-rule="evenodd" clip-rule="evenodd" d="M12.015 17.2493C11.2827 17.2493 10.399 16.7676 9.64925 15.4713L6.96925 10.8513C6.96919 10.8512 6.96931 10.8514 6.96925 10.8513C6.22014 9.55601 6.24469 8.54978 6.61082 7.91555C6.9771 7.28105 7.83613 6.75684 9.33003 6.75684H14.7C16.1939 6.75684 17.053 7.28105 17.4192 7.91555C17.7853 8.54973 17.8101 9.55555 17.0612 10.8507C17.061 10.8509 17.0613 10.8505 17.0612 10.8507L14.3813 15.4705C13.6315 16.7667 12.7474 17.2493 12.015 17.2493ZM15.6788 16.2232C14.7685 17.7964 13.4674 18.7493 12.015 18.7493C10.5625 18.7493 9.26133 17.7963 8.35107 16.2228C8.35098 16.2227 8.35117 16.223 8.35107 16.2228L5.67128 11.6032C4.76057 10.0286 4.58539 8.42384 5.31174 7.16562C6.03795 5.90762 7.51392 5.25684 9.33003 5.25684H14.7C16.5161 5.25684 17.9921 5.90762 18.7183 7.16562C19.4447 8.42384 19.27 10.0278 18.3593 11.6023L15.6788 16.2232C15.6789 16.2229 15.6786 16.2234 15.6788 16.2232Z" fill="black"/>
</svg>
