<svg width="24" height="24" viewBox="0 0 24 24" fill="none" xmlns="http://www.w3.org/2000/svg">
<path fill-rule="evenodd" clip-rule="evenodd" d="M12 19.25C12.4142 19.25 12.75 19.5858 12.75 20V22C12.75 22.4142 12.4142 22.75 12 22.75C11.5858 22.75 11.25 22.4142 11.25 22V20C11.25 19.5858 11.5858 19.25 12 19.25Z" fill="black"/>
<path fill-rule="evenodd" clip-rule="evenodd" d="M12 15.25C12.4142 15.25 12.75 15.5858 12.75 16V18C12.75 18.4142 12.4142 18.75 12 18.75C11.5858 18.75 11.25 18.4142 11.25 18V16C11.25 15.5858 11.5858 15.25 12 15.25Z" fill="black"/>
<path fill-rule="evenodd" clip-rule="evenodd" d="M19 4.75C15.5442 4.75 12.75 7.54421 12.75 11V14C12.75 14.4142 12.4142 14.75 12 14.75C11.5858 14.75 11.25 14.4142 11.25 14V11C11.25 6.71579 14.7158 3.25 19 3.25H22C22.4142 3.25 22.75 3.58579 22.75 4C22.75 4.41421 22.4142 4.75 22 4.75H19Z" fill="black"/>
<path fill-rule="evenodd" clip-rule="evenodd" d="M1.25 4C1.25 3.58579 1.58579 3.25 2 3.25H5C9.28421 3.25 12.75 6.71579 12.75 11V14C12.75 14.4142 12.4142 14.75 12 14.75C11.5858 14.75 11.25 14.4142 11.25 14V11C11.25 7.54421 8.45579 4.75 5 4.75H2C1.58579 4.75 1.25 4.41421 1.25 4Z" fill="black"/>
<path fill-rule="evenodd" clip-rule="evenodd" d="M4.53033 1.46967C4.82322 1.76256 4.82322 2.23744 4.53033 2.53033L3.06066 4L4.53033 5.46967C4.82322 5.76256 4.82322 6.23744 4.53033 6.53033C4.23744 6.82322 3.76256 6.82322 3.46967 6.53033L1.46967 4.53033C1.17678 4.23744 1.17678 3.76256 1.46967 3.46967L3.46967 1.46967C3.76256 1.17678 4.23744 1.17678 4.53033 1.46967Z" fill="black"/>
<path fill-rule="evenodd" clip-rule="evenodd" d="M19.4697 1.46967C19.7626 1.17678 20.2374 1.17678 20.5303 1.46967L22.5303 3.46967C22.8232 3.76256 22.8232 4.23744 22.5303 4.53033L20.5303 6.53033C20.2374 6.82322 19.7626 6.82322 19.4697 6.53033C19.1768 6.23744 19.1768 5.76256 19.4697 5.46967L20.9393 4L19.4697 2.53033C19.1768 2.23744 19.1768 1.76256 19.4697 1.46967Z" fill="black"/>
</svg>
