<svg width="24" height="24" viewBox="0 0 24 24" fill="none" xmlns="http://www.w3.org/2000/svg">
<path fill-rule="evenodd" clip-rule="evenodd" d="M13.8994 5.39936C14.1923 5.10646 14.6671 5.10646 14.96 5.39936L21.03 11.4694C21.1707 11.61 21.2497 11.8008 21.2497 11.9997C21.2497 12.1986 21.1707 12.3894 21.03 12.53L14.96 18.6C14.6671 18.8929 14.1923 18.8929 13.8994 18.6C13.6065 18.3071 13.6065 17.8322 13.8994 17.5394L19.439 11.9997L13.8994 6.46002C13.6065 6.16712 13.6065 5.69225 13.8994 5.39936Z" fill="black"/>
<path fill-rule="evenodd" clip-rule="evenodd" d="M2.75 12C2.75 11.5858 3.08579 11.25 3.5 11.25H20.33C20.7442 11.25 21.08 11.5858 21.08 12C21.08 12.4142 20.7442 12.75 20.33 12.75H3.5C3.08579 12.75 2.75 12.4142 2.75 12Z" fill="black"/>
</svg>
