<svg width="24" height="24" viewBox="0 0 24 24" fill="none" xmlns="http://www.w3.org/2000/svg">
<path fill-rule="evenodd" clip-rule="evenodd" d="M12.015 6.75781C11.2827 6.75781 10.399 7.23959 9.64925 8.53582L6.96925 13.1558C6.96919 13.1559 6.96931 13.1557 6.96925 13.1558C6.22014 14.4511 6.24469 15.4574 6.61082 16.0916C6.9771 16.7261 7.83613 17.2503 9.33003 17.2503H14.7C16.1939 17.2503 17.053 16.7261 17.4192 16.0916C17.7853 15.4574 17.8101 14.4516 17.0612 13.1565C17.061 13.1562 17.0613 13.1567 17.0612 13.1565L14.3813 8.53664C13.6315 7.24041 12.7474 6.75781 12.015 6.75781ZM15.6788 7.78398C14.7685 6.2107 13.4674 5.25781 12.015 5.25781C10.5625 5.25781 9.26132 6.21084 8.35107 7.78433C8.35098 7.78449 8.35117 7.78418 8.35107 7.78433L5.67128 12.404C4.76057 13.9785 4.58539 15.5833 5.31174 16.8415C6.03795 18.0995 7.51392 18.7503 9.33003 18.7503H14.7C16.5161 18.7503 17.9921 18.0995 18.7183 16.8415C19.4447 15.5833 19.27 13.9793 18.3593 12.4048L15.6788 7.78398C15.6789 7.78426 15.6786 7.78371 15.6788 7.78398Z" fill="black"/>
<path fill-rule="evenodd" clip-rule="evenodd" d="M12.015 6.75781C11.2827 6.75781 10.399 7.23959 9.64925 8.53582L6.96925 13.1558C6.96919 13.1559 6.96931 13.1557 6.96925 13.1558C6.22014 14.4511 6.24469 15.4574 6.61082 16.0916C6.9771 16.7261 7.83613 17.2503 9.33003 17.2503H14.7C16.1939 17.2503 17.053 16.7261 17.4192 16.0916C17.7853 15.4574 17.8101 14.4516 17.0612 13.1565C17.061 13.1562 17.0613 13.1567 17.0612 13.1565L14.3813 8.53664C13.6315 7.24041 12.7474 6.75781 12.015 6.75781ZM15.6788 7.78398C14.7685 6.2107 13.4674 5.25781 12.015 5.25781C10.5625 5.25781 9.26132 6.21084 8.35107 7.78433C8.35098 7.78449 8.35117 7.78418 8.35107 7.78433L5.67128 12.404C4.76057 13.9785 4.58539 15.5833 5.31174 16.8415C6.03795 18.0995 7.51392 18.7503 9.33003 18.7503H14.7C16.5161 18.7503 17.9921 18.0995 18.7183 16.8415C19.4447 15.5833 19.27 13.9793 18.3593 12.4048L15.6788 7.78398C15.6789 7.78426 15.6786 7.78371 15.6788 7.78398Z" fill="black"/>
</svg>
