<svg width="24" height="24" viewBox="0 0 24 24" fill="none" xmlns="http://www.w3.org/2000/svg">
<path fill-rule="evenodd" clip-rule="evenodd" d="M12 2.75C6.89137 2.75 2.75 6.89137 2.75 12C2.75 17.1086 6.89137 21.25 12 21.25C17.1086 21.25 21.25 17.1086 21.25 12C21.25 6.89137 17.1086 2.75 12 2.75ZM1.25 12C1.25 6.06294 6.06294 1.25 12 1.25C17.9371 1.25 22.75 6.06294 22.75 12C22.75 17.9371 17.9371 22.75 12 22.75C6.06294 22.75 1.25 17.9371 1.25 12Z" fill="black"/>
<path fill-rule="evenodd" clip-rule="evenodd" d="M7.93864 10.2107C8.23112 9.91735 8.706 9.91667 8.9993 10.2092L11.9997 13.2011L15.0001 10.2092C15.2935 9.91667 15.7683 9.91735 16.0608 10.2107C16.3533 10.504 16.3526 10.9788 16.0593 11.2713L12.5293 14.7913C12.2366 15.0832 11.7629 15.0832 11.4701 14.7913L7.94015 11.2713C7.64684 10.9788 7.64617 10.504 7.93864 10.2107Z" fill="black"/>
</svg>
