<svg width="24" height="24" viewBox="0 0 24 24" fill="none" xmlns="http://www.w3.org/2000/svg">
<path d="M12.53 2.96967C12.3894 2.82902 12.1986 2.75 11.9997 2.75C11.8008 2.75 11.61 2.82902 11.4694 2.96967L5.39936 9.03967C5.10646 9.33256 5.10646 9.80744 5.39936 10.1003C5.69225 10.3932 6.16712 10.3932 6.46002 10.1003L11.2498 5.31059V20.5C11.2498 20.9142 11.5855 21.25 11.9998 21.25C12.414 21.25 12.7498 20.9142 12.7498 20.5V5.31073L17.5394 10.1003C17.8322 10.3932 18.3071 10.3932 18.6 10.1003C18.8929 9.80744 18.8929 9.33256 18.6 9.03967L12.53 2.96967Z" fill="black"/>
<path d="M12.53 2.96967C12.3894 2.82902 12.1986 2.75 11.9997 2.75C11.8008 2.75 11.61 2.82902 11.4694 2.96967L5.39936 9.03967C5.10646 9.33256 5.10646 9.80744 5.39936 10.1003C5.69225 10.3932 6.16712 10.3932 6.46002 10.1003L11.2498 5.31059V20.5C11.2498 20.9142 11.5855 21.25 11.9998 21.25C12.414 21.25 12.7498 20.9142 12.7498 20.5V5.31073L17.5394 10.1003C17.8322 10.3932 18.3071 10.3932 18.6 10.1003C18.8929 9.80744 18.8929 9.33256 18.6 9.03967L12.53 2.96967Z" fill="black"/>
</svg>
