<svg width="24" height="24" viewBox="0 0 24 24" fill="none" xmlns="http://www.w3.org/2000/svg">
<path fill-rule="evenodd" clip-rule="evenodd" d="M12 2.75C6.89137 2.75 2.75 6.89137 2.75 12C2.75 17.1086 6.89137 21.25 12 21.25C17.1086 21.25 21.25 17.1086 21.25 12C21.25 6.89137 17.1086 2.75 12 2.75ZM1.25 12C1.25 6.06294 6.06294 1.25 12 1.25C17.9371 1.25 22.75 6.06294 22.75 12C22.75 17.9371 17.9371 22.75 12 22.75C6.06294 22.75 1.25 17.9371 1.25 12Z" fill="black"/>
<path fill-rule="evenodd" clip-rule="evenodd" d="M10.2107 7.93864C10.504 7.64617 10.9788 7.64684 11.2713 7.94015L14.7913 11.4701C15.0832 11.7629 15.0832 12.2366 14.7913 12.5293L11.2713 16.0593C10.9788 16.3526 10.504 16.3533 10.2107 16.0608C9.91735 15.7683 9.91667 15.2935 10.2092 15.0001L13.2011 11.9997L10.2092 8.9993C9.91667 8.706 9.91735 8.23112 10.2107 7.93864Z" fill="black"/>
</svg>
