<svg width="24" height="24" viewBox="0 0 24 24" fill="none" xmlns="http://www.w3.org/2000/svg">
<path fill-rule="evenodd" clip-rule="evenodd" d="M6.19941 2.46967C6.4923 2.17678 6.96717 2.17678 7.26006 2.46967L10.9801 6.18964C11.273 6.48253 11.273 6.9574 10.9801 7.2503C10.6872 7.54319 10.2123 7.5432 9.91944 7.25031L6.72974 4.06066L3.5401 7.2503C3.2472 7.54319 2.77233 7.54319 2.47944 7.2503C2.18654 6.95741 2.18654 6.48253 2.47944 6.18964L6.19941 2.46967Z" fill="black"/>
<path fill-rule="evenodd" clip-rule="evenodd" d="M6.73047 2.25C7.14468 2.25 7.48047 2.58579 7.48047 3V21C7.48047 21.4142 7.14468 21.75 6.73047 21.75C6.31626 21.75 5.98047 21.4142 5.98047 21V3C5.98047 2.58579 6.31626 2.25 6.73047 2.25Z" fill="black"/>
<path fill-rule="evenodd" clip-rule="evenodd" d="M13.0195 16.7499C13.3124 16.4571 13.7872 16.457 14.0801 16.7499L17.2698 19.9396L20.4595 16.7499C20.7524 16.4571 21.2272 16.4571 21.5201 16.7499C21.813 17.0428 21.813 17.5177 21.5201 17.8106L17.8002 21.5306C17.5073 21.8235 17.0324 21.8235 16.7395 21.5306L13.0195 17.8106C12.7266 17.5177 12.7266 17.0428 13.0195 16.7499Z" fill="black"/>
<path fill-rule="evenodd" clip-rule="evenodd" d="M17.2695 2.25C17.6837 2.25 18.0195 2.58579 18.0195 3V21C18.0195 21.4142 17.6837 21.75 17.2695 21.75C16.8553 21.75 16.5195 21.4142 16.5195 21V3C16.5195 2.58579 16.8553 2.25 17.2695 2.25Z" fill="black"/>
</svg>
