<svg width="24" height="24" viewBox="0 0 24 24" fill="none" xmlns="http://www.w3.org/2000/svg">
<path fill-rule="evenodd" clip-rule="evenodd" d="M16.7097 9.29004C14.5949 9.29004 12.8896 11.0032 12.8896 13.11V15.0701C12.8896 15.4843 12.5539 15.8201 12.1396 15.8201C11.7254 15.8201 11.3896 15.4843 11.3896 15.0701V13.11C11.3896 10.1769 13.7644 7.79004 16.7097 7.79004H18.6696C19.0838 7.79004 19.4196 8.12583 19.4196 8.54004C19.4196 8.95425 19.0838 9.29004 18.6696 9.29004H16.7097Z" fill="black"/>
<path fill-rule="evenodd" clip-rule="evenodd" d="M4.87012 8.5498C4.87012 8.13559 5.2059 7.7998 5.62012 7.7998H7.58014C10.5133 7.7998 12.9001 10.1745 12.9001 13.1198V17.2498C12.9001 17.664 12.5644 17.9998 12.1501 17.9998C11.7359 17.9998 11.4001 17.664 11.4001 17.2498V13.1198C11.4001 11.0051 9.687 9.2998 7.58014 9.2998H5.62012C5.2059 9.2998 4.87012 8.96402 4.87012 8.5498Z" fill="black"/>
<path fill-rule="evenodd" clip-rule="evenodd" d="M7.67016 6.21967C7.96305 6.51256 7.96306 6.98743 7.67016 7.28033L6.4005 8.55L7.67016 9.81968C7.96306 10.1126 7.96305 10.5874 7.67016 10.8803C7.37726 11.1732 6.90239 11.1732 6.6095 10.8803L4.80951 9.08033C4.51662 8.78744 4.51662 8.31257 4.80951 8.01968L6.6095 6.21967C6.90239 5.92678 7.37726 5.92678 7.67016 6.21967Z" fill="black"/>
<path fill-rule="evenodd" clip-rule="evenodd" d="M16.33 6.21967C16.6229 5.92678 17.0978 5.92678 17.3907 6.21967L19.1907 8.01968C19.4836 8.31257 19.4836 8.78744 19.1907 9.08033L17.3907 10.8803C17.0978 11.1732 16.6229 11.1732 16.33 10.8803C16.0371 10.5874 16.0371 10.1126 16.33 9.81968L17.5997 8.55L16.33 7.28033C16.0371 6.98743 16.0371 6.51256 16.33 6.21967Z" fill="black"/>
<path fill-rule="evenodd" clip-rule="evenodd" d="M3.09467 3.09467C4.42914 1.7602 6.42603 1.25 9 1.25H15C17.574 1.25 19.5709 1.7602 20.9053 3.09467C22.2398 4.42914 22.75 6.42603 22.75 9V15C22.75 17.574 22.2398 19.5709 20.9053 20.9053C19.5709 22.2398 17.574 22.75 15 22.75H9C6.42603 22.75 4.42914 22.2398 3.09467 20.9053C1.7602 19.5709 1.25 17.574 1.25 15V9C1.25 6.42603 1.7602 4.42914 3.09467 3.09467ZM4.15533 4.15533C3.2398 5.07086 2.75 6.57397 2.75 9V15C2.75 17.426 3.2398 18.9291 4.15533 19.8447C5.07086 20.7602 6.57397 21.25 9 21.25H15C17.426 21.25 18.9291 20.7602 19.8447 19.8447C20.7602 18.9291 21.25 17.426 21.25 15V9C21.25 6.57397 20.7602 5.07086 19.8447 4.15533C18.9291 3.2398 17.426 2.75 15 2.75H9C6.57397 2.75 5.07086 3.2398 4.15533 4.15533Z" fill="black"/>
</svg>
