<svg width="24" height="24" viewBox="0 0 24 24" fill="none" xmlns="http://www.w3.org/2000/svg">
<path fill-rule="evenodd" clip-rule="evenodd" d="M16.7499 2.47944C17.0428 2.18654 17.5177 2.18654 17.8106 2.47944L21.5306 6.19941C21.8235 6.4923 21.8235 6.96717 21.5306 7.26006L17.8106 10.9801C17.5177 11.273 17.0428 11.273 16.7499 10.9801C16.4571 10.6872 16.457 10.2123 16.7499 9.91944L19.9396 6.72974L16.7499 3.5401C16.4571 3.2472 16.4571 2.77233 16.7499 2.47944Z" fill="black"/>
<path fill-rule="evenodd" clip-rule="evenodd" d="M2.25 6.73047C2.25 6.31626 2.58579 5.98047 3 5.98047H21C21.4142 5.98047 21.75 6.31626 21.75 6.73047C21.75 7.14468 21.4142 7.48047 21 7.48047H3C2.58579 7.48047 2.25 7.14468 2.25 6.73047Z" fill="black"/>
<path fill-rule="evenodd" clip-rule="evenodd" d="M7.2503 13.0195C7.54319 13.3124 7.5432 13.7872 7.25031 14.0801L4.06066 17.2698L7.2503 20.4595C7.54319 20.7524 7.54319 21.2272 7.2503 21.5201C6.95741 21.813 6.48253 21.813 6.18964 21.5201L2.46967 17.8002C2.17678 17.5073 2.17678 17.0324 2.46967 16.7395L6.18964 13.0195C6.48253 12.7266 6.9574 12.7266 7.2503 13.0195Z" fill="black"/>
<path fill-rule="evenodd" clip-rule="evenodd" d="M2.25 17.2695C2.25 16.8553 2.58579 16.5195 3 16.5195H21C21.4142 16.5195 21.75 16.8553 21.75 17.2695C21.75 17.6837 21.4142 18.0195 21 18.0195H3C2.58579 18.0195 2.25 17.6837 2.25 17.2695Z" fill="black"/>
</svg>
