<svg width="24" height="24" viewBox="0 0 24 24" fill="none" xmlns="http://www.w3.org/2000/svg">
<path fill-rule="evenodd" clip-rule="evenodd" d="M13.1536 6.94057L8.53664 9.61881C7.24041 10.3685 6.75781 11.2527 6.75781 11.9851C6.75781 12.7174 7.23959 13.6011 8.53582 14.3508L13.1558 17.0308C14.4509 17.7796 15.4575 17.7554 16.0916 17.3893C16.7261 17.023 17.2503 16.164 17.2503 14.6701V9.33006C17.2503 7.83115 16.726 6.97125 16.0903 6.60261C15.4541 6.23368 14.4477 6.20651 13.1536 6.94057ZM16.8428 5.30502C18.0996 6.03387 18.7503 7.50897 18.7503 9.33006V14.6701C18.7503 16.4862 18.0995 17.9621 16.8415 18.6884C15.5833 19.4147 13.9793 19.24 12.4048 18.3293L7.7848 15.6493C6.21152 14.739 5.25781 13.4375 5.25781 11.9851C5.25781 10.5326 6.21084 9.23136 7.78433 8.32111C7.78418 8.3212 7.78449 8.32102 7.78433 8.32111L12.4099 5.63787C13.9845 4.74362 15.587 4.57672 16.8428 5.30502Z" fill="black"/>
<path fill-rule="evenodd" clip-rule="evenodd" d="M13.1536 6.94057L8.53664 9.61881C7.24041 10.3685 6.75781 11.2527 6.75781 11.9851C6.75781 12.7174 7.23959 13.6011 8.53582 14.3508L13.1558 17.0308C14.4509 17.7796 15.4575 17.7554 16.0916 17.3893C16.7261 17.023 17.2503 16.164 17.2503 14.6701V9.33006C17.2503 7.83115 16.726 6.97125 16.0903 6.60261C15.4541 6.23368 14.4477 6.20651 13.1536 6.94057ZM16.8428 5.30502C18.0996 6.03387 18.7503 7.50897 18.7503 9.33006V14.6701C18.7503 16.4862 18.0995 17.9621 16.8415 18.6884C15.5833 19.4147 13.9793 19.24 12.4048 18.3293L7.7848 15.6493C6.21152 14.739 5.25781 13.4375 5.25781 11.9851C5.25781 10.5326 6.21084 9.23136 7.78433 8.32111C7.78418 8.3212 7.78449 8.32102 7.78433 8.32111L12.4099 5.63787C13.9845 4.74362 15.587 4.57672 16.8428 5.30502Z" fill="black"/>
</svg>
