<svg width="24" height="24" viewBox="0 0 24 24" fill="none" xmlns="http://www.w3.org/2000/svg">
<path fill-rule="evenodd" clip-rule="evenodd" d="M16.7499 7.71967C17.0428 7.42678 17.5177 7.42678 17.8106 7.71967L21.5306 11.4396C21.8235 11.7325 21.8235 12.2074 21.5306 12.5003L17.8106 16.2203C17.5177 16.5132 17.0428 16.5132 16.7499 16.2203C16.4571 15.9274 16.457 15.4526 16.7499 15.1597L19.9396 11.97L16.7499 8.78033C16.4571 8.48744 16.4571 8.01256 16.7499 7.71967Z" fill="black"/>
<path fill-rule="evenodd" clip-rule="evenodd" d="M2.25 11.9707C2.25 11.5565 2.58579 11.2207 3 11.2207H21C21.4142 11.2207 21.75 11.5565 21.75 11.9707C21.75 12.3849 21.4142 12.7207 21 12.7207H3C2.58579 12.7207 2.25 12.3849 2.25 11.9707Z" fill="black"/>
<path fill-rule="evenodd" clip-rule="evenodd" d="M7.2503 7.71967C7.54319 8.01256 7.5432 8.48743 7.25031 8.78033L4.06066 11.97L7.2503 15.1597C7.54319 15.4526 7.54319 15.9274 7.2503 16.2203C6.95741 16.5132 6.48253 16.5132 6.18964 16.2203L2.46967 12.5004C2.17678 12.2075 2.17678 11.7326 2.46967 11.4397L6.18964 7.71967C6.48253 7.42678 6.9574 7.42677 7.2503 7.71967Z" fill="black"/>
</svg>
