<svg width="24" height="24" viewBox="0 0 24 24" fill="none" xmlns="http://www.w3.org/2000/svg">
<path fill-rule="evenodd" clip-rule="evenodd" d="M5.39936 13.8994C5.69225 13.6065 6.16712 13.6065 6.46002 13.8994L11.9997 19.439L17.5394 13.8994C17.8322 13.6065 18.3071 13.6065 18.6 13.8994C18.8929 14.1923 18.8929 14.6671 18.6 14.96L12.53 21.03C12.3894 21.1707 12.1986 21.2497 11.9997 21.2497C11.8008 21.2497 11.61 21.1707 11.4694 21.03L5.39936 14.96C5.10646 14.6671 5.10646 14.1923 5.39936 13.8994Z" fill="black"/>
<path fill-rule="evenodd" clip-rule="evenodd" d="M12 2.75C12.4142 2.75 12.75 3.08579 12.75 3.5V20.33C12.75 20.7442 12.4142 21.08 12 21.08C11.5858 21.08 11.25 20.7442 11.25 20.33V3.5C11.25 3.08579 11.5858 2.75 12 2.75Z" fill="black"/>
</svg>
