<svg width="24" height="24" viewBox="0 0 24 24" fill="none" xmlns="http://www.w3.org/2000/svg">
<path fill-rule="evenodd" clip-rule="evenodd" d="M9.65123 7.62821C11.5128 5.77851 14.5164 5.77608 16.3702 7.6299L16.3719 7.6316C18.2216 9.49316 18.2241 12.4967 16.3702 14.3506L14.1502 16.5706C13.0773 17.6435 11.3324 17.6435 10.2595 16.5706C9.18663 15.4977 9.18663 13.7528 10.2595 12.6799L11.6696 11.2699C11.9625 10.977 12.4373 10.977 12.7302 11.2699C13.0231 11.5628 13.0231 12.0377 12.7302 12.3306L11.3202 13.7406C10.8331 14.2277 10.8331 15.0228 11.3202 15.5099C11.8073 15.997 12.6024 15.997 13.0895 15.5099L15.3096 13.2899C16.5755 12.024 16.5782 9.96819 15.3087 8.6897C14.0427 7.42465 11.9875 7.42225 10.7093 8.69146L10.7085 8.69226L8.29021 11.1105C7.24311 12.1577 7.24311 13.8528 8.29021 14.8999C8.58311 15.1928 8.58311 15.6677 8.29021 15.9606C7.99732 16.2534 7.52245 16.2534 7.22955 15.9606C5.59666 14.3277 5.59666 11.6828 7.22955 10.0499L9.65123 7.62821Z" fill="black"/>
<path fill-rule="evenodd" clip-rule="evenodd" d="M3.09467 3.09467C4.42914 1.7602 6.42603 1.25 9 1.25H15C17.574 1.25 19.5709 1.7602 20.9053 3.09467C22.2398 4.42914 22.75 6.42603 22.75 9V15C22.75 17.574 22.2398 19.5709 20.9053 20.9053C19.5709 22.2398 17.574 22.75 15 22.75H9C6.42603 22.75 4.42914 22.2398 3.09467 20.9053C1.7602 19.5709 1.25 17.574 1.25 15V9C1.25 6.42603 1.7602 4.42914 3.09467 3.09467ZM4.15533 4.15533C3.2398 5.07086 2.75 6.57397 2.75 9V15C2.75 17.426 3.2398 18.9291 4.15533 19.8447C5.07086 20.7602 6.57397 21.25 9 21.25H15C17.426 21.25 18.9291 20.7602 19.8447 19.8447C20.7602 18.9291 21.25 17.426 21.25 15V9C21.25 6.57397 20.7602 5.07086 19.8447 4.15533C18.9291 3.2398 17.426 2.75 15 2.75H9C6.57397 2.75 5.07086 3.2398 4.15533 4.15533Z" fill="black"/>
</svg>
