<svg width="24" height="24" viewBox="0 0 24 24" fill="none" xmlns="http://www.w3.org/2000/svg">
<path fill-rule="evenodd" clip-rule="evenodd" d="M12 2.75C6.89137 2.75 2.75 6.89137 2.75 12C2.75 17.1086 6.89137 21.25 12 21.25C17.1086 21.25 21.25 17.1086 21.25 12C21.25 6.89137 17.1086 2.75 12 2.75ZM1.25 12C1.25 6.06294 6.06294 1.25 12 1.25C17.9371 1.25 22.75 6.06294 22.75 12C22.75 17.9371 17.9371 22.75 12 22.75C6.06294 22.75 1.25 17.9371 1.25 12Z" fill="black"/>
<path fill-rule="evenodd" clip-rule="evenodd" d="M10.8293 5.66459C10.9564 5.4105 11.2161 5.25 11.5002 5.25H12.5002C12.7842 5.25 13.0439 5.4105 13.171 5.66459L15.671 10.6646C15.8562 11.0351 15.7061 11.4856 15.3356 11.6708C14.9651 11.8561 14.5146 11.7059 14.3293 11.3354L12.0366 6.75H11.9637L9.67098 11.3354C9.48574 11.7059 9.03524 11.8561 8.66475 11.6708C8.29427 11.4856 8.1441 11.0351 8.32934 10.6646L10.8293 5.66459Z" fill="black"/>
<path fill-rule="evenodd" clip-rule="evenodd" d="M8.33552 12.3293C8.706 12.5146 8.85617 12.9651 8.67093 13.3356L7.98153 14.7144L12.0001 17.1255L16.0187 14.7144L15.3293 13.3356C15.144 12.9651 15.2942 12.5146 15.6647 12.3293C16.0352 12.1441 16.4857 12.2943 16.6709 12.6648L17.6709 14.6648C17.8462 15.0153 17.722 15.4417 17.386 15.6433L12.386 18.6433C12.1485 18.7858 11.8518 18.7858 11.6142 18.6433L6.61424 15.6433C6.27819 15.4417 6.15403 15.0153 6.32929 14.6648L7.32929 12.6648C7.51453 12.2943 7.96504 12.1441 8.33552 12.3293Z" fill="black"/>
</svg>
