<svg width="24" height="24" viewBox="0 0 24 24" fill="none" xmlns="http://www.w3.org/2000/svg">
<path fill-rule="evenodd" clip-rule="evenodd" d="M12 2.75C6.89137 2.75 2.75 6.89137 2.75 12C2.75 17.1086 6.89137 21.25 12 21.25C17.1086 21.25 21.25 17.1086 21.25 12C21.25 6.89137 17.1086 2.75 12 2.75ZM1.25 12C1.25 6.06294 6.06294 1.25 12 1.25C17.9371 1.25 22.75 6.06294 22.75 12C22.75 17.9371 17.9371 22.75 12 22.75C6.06294 22.75 1.25 17.9371 1.25 12Z" fill="black"/>
<path fill-rule="evenodd" clip-rule="evenodd" d="M12.0004 5.15039C12.2601 5.15039 12.5014 5.28478 12.6381 5.50562L15.2381 9.70562C15.3813 9.93695 15.388 10.2277 15.2556 10.4654C15.1232 10.7031 14.8725 10.8504 14.6004 10.8504H9.40039C9.12832 10.8504 8.87759 10.7031 8.74519 10.4654C8.61279 10.2277 8.61949 9.93695 8.76269 9.70562L11.3627 5.50562C11.4994 5.28478 11.7407 5.15039 12.0004 5.15039ZM10.7468 9.35039H13.254L12.0004 7.32529L10.7468 9.35039Z" fill="black"/>
<path fill-rule="evenodd" clip-rule="evenodd" d="M8.60652 11.1504C8.86858 11.1527 9.11043 11.2916 9.24447 11.5168L11.7445 15.7168C11.8824 15.9486 11.8853 16.2366 11.752 16.4711C11.6187 16.7055 11.3697 16.8504 11.1 16.8504H6C5.72793 16.8504 5.4772 16.7031 5.3448 16.4654C5.2124 16.2277 5.2191 15.937 5.3623 15.7056L7.9623 11.5056C8.10024 11.2828 8.34447 11.1481 8.60652 11.1504ZM7.34636 15.3504H9.78076L8.58743 13.3456L7.34636 15.3504Z" fill="black"/>
<path fill-rule="evenodd" clip-rule="evenodd" d="M15.3939 11.1504C15.6559 11.1481 15.9002 11.2828 16.0381 11.5056L18.6381 15.7056C18.7813 15.937 18.788 16.2277 18.6556 16.4654C18.5232 16.7031 18.2725 16.8504 18.0004 16.8504H12.9004C12.6307 16.8504 12.3817 16.7055 12.2484 16.4711C12.1151 16.2366 12.118 15.9486 12.2559 15.7168L14.7559 11.5168C14.89 11.2916 15.1318 11.1527 15.3939 11.1504ZM15.413 13.3456L14.2196 15.3504H16.654L15.413 13.3456Z" fill="black"/>
</svg>
