<svg width="24" height="24" viewBox="0 0 24 24" fill="none" xmlns="http://www.w3.org/2000/svg">
<path fill-rule="evenodd" clip-rule="evenodd" d="M12.1283 6.75472L7.0558 15.4504H9.30003C9.59319 15.4504 9.96853 15.2285 10.1569 14.9145L10.1633 14.9039L13.4634 9.60397C13.4675 9.59737 13.4717 9.59084 13.476 9.58437C13.6608 9.30718 13.6582 8.85096 13.3863 8.43208L12.1283 6.75472ZM13.1101 5.56378C12.6076 4.83913 11.5682 4.84599 11.076 5.58437C11.0677 5.59683 11.0597 5.60955 11.0522 5.62249L5.46099 15.2074C5.22472 15.5792 5.2137 16.0298 5.39171 16.3858C5.48385 16.5701 5.64007 16.7534 5.87037 16.8654C6.06428 16.9598 6.27791 16.9869 6.48548 16.9504H9.30003C10.2043 16.9504 11.0269 16.3755 11.4397 15.692L14.7311 10.4057C15.3355 9.48828 15.14 8.35823 14.6241 7.58437C14.6164 7.57282 14.6084 7.56149 14.6 7.55039L13.1101 5.56378Z" fill="black"/>
<path fill-rule="evenodd" clip-rule="evenodd" d="M14.5758 11.9838C15.0727 11.2385 16.127 11.2385 16.6239 11.9838C16.6311 11.9946 16.6381 12.0057 16.6448 12.0169L18.5368 15.2035C19.056 16.0131 18.4741 17.0498 17.4999 17.0498H13.6999C12.7257 17.0498 12.1437 16.0131 12.6629 15.2035L14.555 12.0169C14.5616 12.0057 14.5686 11.9946 14.5758 11.9838ZM15.5999 13.1952L14.2018 15.5498H16.9979L15.5999 13.1952Z" fill="black"/>
<path fill-rule="evenodd" clip-rule="evenodd" d="M12 2.75C6.89137 2.75 2.75 6.89137 2.75 12C2.75 17.1086 6.89137 21.25 12 21.25C17.1086 21.25 21.25 17.1086 21.25 12C21.25 6.89137 17.1086 2.75 12 2.75ZM1.25 12C1.25 6.06294 6.06294 1.25 12 1.25C17.9371 1.25 22.75 6.06294 22.75 12C22.75 17.9371 17.9371 22.75 12 22.75C6.06294 22.75 1.25 17.9371 1.25 12Z" fill="black"/>
</svg>
