<svg width="24" height="24" viewBox="0 0 24 24" fill="none" xmlns="http://www.w3.org/2000/svg">
<path fill-rule="evenodd" clip-rule="evenodd" d="M10.138 10.5938C10.2398 10.2871 10.5267 10.0801 10.8499 10.0801H13.9099C14.3241 10.0801 14.6599 10.4159 14.6599 10.8301C14.6599 11.2443 14.3241 11.5801 13.9099 11.5801H11.3912L11.129 12.3701H12.3799C13.6309 12.3701 14.6599 13.3827 14.6599 14.6501C14.6599 15.9011 13.6472 16.9301 12.3799 16.9301H10.0898C9.67564 16.9301 9.33985 16.5943 9.33985 16.1801C9.33985 15.7658 9.67564 15.4301 10.0898 15.4301H12.3799C12.8125 15.4301 13.1599 15.079 13.1599 14.6501C13.1599 14.2175 12.8088 13.8701 12.3799 13.8701H10.0898C9.84894 13.8701 9.62269 13.7543 9.4817 13.559C9.34071 13.3636 9.30214 13.1125 9.37803 12.8838L10.138 10.5938Z" fill="black"/>
<path fill-rule="evenodd" clip-rule="evenodd" d="M12.4687 1.41484C12.7919 1.67392 12.8438 2.14594 12.5848 2.46913L10.6047 4.9391C10.3457 5.26229 9.87364 5.31426 9.55045 5.05518C9.22727 4.7961 9.17529 4.32408 9.43437 4.00089L11.4144 1.53092C11.6735 1.20773 12.1455 1.15576 12.4687 1.41484Z" fill="black"/>
<path fill-rule="evenodd" clip-rule="evenodd" d="M9.84824 3.72957C10.5349 3.56864 11.2528 3.46973 11.9994 3.46973C17.3236 3.46973 21.6394 7.78553 21.6394 13.1097C21.6394 18.434 17.3236 22.7498 11.9994 22.7498C6.67518 22.7498 2.35938 18.434 2.35938 13.1097C2.35938 10.9332 3.11094 8.94768 4.30939 7.34974C4.55792 7.01837 5.02802 6.95122 5.35939 7.19974C5.69076 7.44827 5.75792 7.91837 5.50939 8.24974C4.48785 9.6118 3.85938 11.2863 3.85938 13.1097C3.85938 17.6055 7.5036 21.2498 11.9994 21.2498C16.4952 21.2498 20.1394 17.6055 20.1394 13.1097C20.1394 8.61396 16.4952 4.96973 11.9994 4.96973C11.386 4.96973 10.7839 5.05092 10.1905 5.18999C9.78724 5.28451 9.38369 5.03421 9.28917 4.63092C9.19465 4.22764 9.44495 3.82409 9.84824 3.72957Z" fill="black"/>
</svg>
