<svg width="24" height="24" viewBox="0 0 24 24" fill="none" xmlns="http://www.w3.org/2000/svg">
<path fill-rule="evenodd" clip-rule="evenodd" d="M21.2502 8.3399C21.2502 7.41729 20.2493 6.84322 19.4525 7.31522L19.4437 7.32041L16.2752 9.13943L16.2737 9.14032L13.1111 10.966C13.0653 10.9937 13.0254 11.0203 12.9902 11.0462V12.9736C13.0254 12.9995 13.0653 13.0261 13.1111 13.0538L16.2737 14.8795L16.2752 14.8804L19.445 16.7003C20.2461 17.1624 21.2502 16.5815 21.2502 15.6599V8.3399ZM18.6928 6.02183C20.4951 4.9589 22.7502 6.26433 22.7502 8.3399V15.6599C22.7502 17.7381 20.495 19.0371 18.6961 17.9999L15.5268 16.1803L15.5253 16.1794L12.3443 14.3431C12.0891 14.19 11.8559 14.0063 11.6581 13.7629C11.5495 13.6292 11.4902 13.4622 11.4902 13.2899V10.7299C11.4902 10.5577 11.5495 10.3907 11.6581 10.257C11.8559 10.0135 12.0892 9.82991 12.3444 9.6768L12.3552 9.67029L15.5268 7.83947L18.6928 6.02183Z" fill="black"/>
<path fill-rule="evenodd" clip-rule="evenodd" d="M11.49 8.3399C11.49 7.41729 10.4891 6.84322 9.69224 7.31522L9.68349 7.32041L6.51501 9.13943L6.51347 9.14032L3.34694 10.9683C2.54057 11.4413 2.54893 12.5911 3.34482 13.0503L6.51348 14.8795L6.51501 14.8804L9.68346 16.6995L9.68482 16.7003C10.4859 17.1624 11.49 16.5815 11.49 15.6599V8.3399ZM8.93254 6.02183C10.7349 4.9589 12.99 6.26433 12.99 8.3399V15.6599C12.99 17.738 10.7349 19.037 8.93608 18L5.76661 16.1803L5.76508 16.1794L2.59524 14.3496C0.791839 13.309 0.799559 10.72 2.59151 9.67244L2.59505 9.67037L5.76662 7.83947L8.93254 6.02183Z" fill="black"/>
</svg>
