<svg width="24" height="24" viewBox="0 0 24 24" fill="none" xmlns="http://www.w3.org/2000/svg">
<path fill-rule="evenodd" clip-rule="evenodd" d="M12.1878 10.5938C12.2896 10.2871 12.5765 10.0801 12.8997 10.0801H15.9597C16.3739 10.0801 16.7097 10.4159 16.7097 10.8301C16.7097 11.2443 16.3739 11.5801 15.9597 11.5801H13.441L13.1788 12.3701H14.4296C15.6806 12.3701 16.7097 13.3827 16.7097 14.6501C16.7097 15.9011 15.697 16.9301 14.4296 16.9301H12.1397C11.7254 16.9301 11.3897 16.5943 11.3897 16.1801C11.3897 15.7658 11.7254 15.4301 12.1397 15.4301H14.4296C14.8623 15.4301 15.2097 15.079 15.2097 14.6501C15.2097 14.2175 14.8586 13.8701 14.4296 13.8701H12.1397C11.8987 13.8701 11.6725 13.7543 11.5315 13.559C11.3905 13.3636 11.3519 13.1125 11.4278 12.8838L12.1878 10.5938Z" fill="black"/>
<path fill-rule="evenodd" clip-rule="evenodd" d="M9.8084 10.1298C10.0985 10.2409 10.29 10.5194 10.29 10.8301V16.1701C10.29 16.5843 9.95426 16.9201 9.54005 16.9201C9.12583 16.9201 8.79005 16.5843 8.79005 16.1701V12.7875L8.59801 13.0013C8.32122 13.3094 7.84703 13.3348 7.53887 13.0581C7.23072 12.7813 7.20529 12.3071 7.48208 11.9989L8.98208 10.3289C9.18968 10.0978 9.51829 10.0186 9.8084 10.1298Z" fill="black"/>
<path fill-rule="evenodd" clip-rule="evenodd" d="M12.4686 1.41484C12.7918 1.67392 12.8438 2.14594 12.5847 2.46913L10.6047 4.9391C10.3457 5.26229 9.87365 5.31426 9.55046 5.05519C9.22727 4.79611 9.17529 4.32409 9.43437 4.0009L11.4144 1.53093C11.6734 1.20774 12.1454 1.15576 12.4686 1.41484Z" fill="black"/>
<path fill-rule="evenodd" clip-rule="evenodd" d="M9.84827 3.72957C10.5349 3.56864 11.2528 3.46973 11.9994 3.46973C17.3236 3.46973 21.6394 7.78553 21.6394 13.1097C21.6394 18.434 17.3236 22.7498 11.9994 22.7498C6.67518 22.7498 2.35938 18.434 2.35938 13.1097C2.35938 10.9332 3.1109 8.94769 4.30936 7.34974C4.55789 7.01837 5.02799 6.95122 5.35936 7.19974C5.69073 7.44827 5.75789 7.91837 5.50936 8.24974C4.48782 9.6118 3.85938 11.2863 3.85938 13.1097C3.85938 17.6055 7.5036 21.2498 11.9994 21.2498C16.4952 21.2498 20.1394 17.6055 20.1394 13.1097C20.1394 8.61396 16.4952 4.96973 11.9994 4.96973C11.386 4.96973 10.7839 5.05092 10.1906 5.18999C9.78727 5.28451 9.38372 5.03421 9.2892 4.63092C9.19468 4.22764 9.44498 3.82409 9.84827 3.72957Z" fill="black"/>
</svg>
