<svg width="24" height="24" viewBox="0 0 24 24" fill="none" xmlns="http://www.w3.org/2000/svg">
<path fill-rule="evenodd" clip-rule="evenodd" d="M9.8084 9.87976C10.0985 9.99092 10.29 10.2694 10.29 10.5801V15.9201C10.29 16.3343 9.95426 16.6701 9.54005 16.6701C9.12583 16.6701 8.79005 16.3343 8.79005 15.9201V12.5375L8.59801 12.7513C8.32122 13.0594 7.84703 13.0848 7.53887 12.8081C7.23072 12.5313 7.20529 12.0571 7.48208 11.7489L8.98208 10.0789C9.18968 9.84781 9.51829 9.7686 9.8084 9.87976Z" fill="black"/>
<path fill-rule="evenodd" clip-rule="evenodd" d="M12.4687 1.41484C12.7919 1.67392 12.8438 2.14594 12.5848 2.46913L10.6047 4.9391C10.3457 5.26229 9.87364 5.31426 9.55045 5.05518C9.22727 4.7961 9.17529 4.32408 9.43437 4.00089L11.4144 1.53092C11.6735 1.20773 12.1455 1.15576 12.4687 1.41484Z" fill="black"/>
<path fill-rule="evenodd" clip-rule="evenodd" d="M9.84824 3.72957C10.5349 3.56864 11.2528 3.46973 11.9994 3.46973C17.3236 3.46973 21.6394 7.78553 21.6394 13.1097C21.6394 18.434 17.3236 22.7498 11.9994 22.7498C6.67518 22.7498 2.35938 18.434 2.35938 13.1097C2.35938 10.9332 3.11094 8.94768 4.30939 7.34974C4.55792 7.01837 5.02802 6.95122 5.35939 7.19974C5.69076 7.44827 5.75792 7.91837 5.50939 8.24974C4.48785 9.6118 3.85938 11.2863 3.85938 13.1097C3.85938 17.6055 7.5036 21.2498 11.9994 21.2498C16.4952 21.2498 20.1394 17.6055 20.1394 13.1097C20.1394 8.61396 16.4952 4.96973 11.9994 4.96973C11.386 4.96973 10.7839 5.05092 10.1905 5.18999C9.78724 5.28451 9.38369 5.03421 9.28917 4.63092C9.19465 4.22764 9.44495 3.82409 9.84824 3.72957Z" fill="black"/>
<path fill-rule="evenodd" clip-rule="evenodd" d="M14 11.3301C13.3118 11.3301 12.75 11.8867 12.75 12.5801V13.9301C12.75 14.6158 13.3142 15.1801 14 15.1801C14.6858 15.1801 15.25 14.6158 15.25 13.9301V12.5801C15.25 11.8943 14.6858 11.3301 14 11.3301ZM11.25 12.5801C11.25 11.0534 12.4882 9.83008 14 9.83008C15.5142 9.83008 16.75 11.0659 16.75 12.5801V13.9301C16.75 15.4443 15.5142 16.6801 14 16.6801C12.4858 16.6801 11.25 15.4443 11.25 13.9301V12.5801Z" fill="black"/>
</svg>
