<svg width="24" height="24" viewBox="0 0 24 24" fill="none" xmlns="http://www.w3.org/2000/svg">
<path fill-rule="evenodd" clip-rule="evenodd" d="M14.2616 3.26158C13.9648 3.55836 13.75 4.09897 13.75 5.14999V7.85001C13.75 8.90103 13.9648 9.44164 14.2616 9.73842C14.5584 10.0352 15.099 10.25 16.15 10.25H18.85C19.901 10.25 20.4416 10.0352 20.7384 9.73842C21.0352 9.44164 21.25 8.90103 21.25 7.85001V5.14999C21.25 4.09897 21.0352 3.55836 20.7384 3.26158C20.4416 2.9648 19.901 2.75 18.85 2.75H16.15C15.099 2.75 14.5584 2.9648 14.2616 3.26158ZM13.2009 2.20092C13.9166 1.4852 14.951 1.25 16.15 1.25H18.85C20.049 1.25 21.0834 1.4852 21.7991 2.20092C22.5148 2.91663 22.75 3.95102 22.75 5.14999V7.85001C22.75 9.04898 22.5148 10.0834 21.7991 10.7991C21.0834 11.5148 20.049 11.75 18.85 11.75H16.15C14.951 11.75 13.9166 11.5148 13.2009 10.7991C12.4852 10.0834 12.25 9.04898 12.25 7.85001V5.14999C12.25 3.95102 12.4852 2.91663 13.2009 2.20092Z" fill="black"/>
<path fill-rule="evenodd" clip-rule="evenodd" d="M3.26158 14.2616C2.9648 14.5584 2.75 15.099 2.75 16.15V18.85C2.75 19.901 2.9648 20.4416 3.26158 20.7384C3.55836 21.0352 4.09897 21.25 5.15 21.25H7.85C8.90103 21.25 9.44164 21.0352 9.73842 20.7384C10.0352 20.4416 10.25 19.901 10.25 18.85V16.15C10.25 15.099 10.0352 14.5584 9.73842 14.2616C9.44164 13.9648 8.90103 13.75 7.85 13.75H5.15C4.09897 13.75 3.55836 13.9648 3.26158 14.2616ZM2.20092 13.2009C2.91664 12.4852 3.95103 12.25 5.15 12.25H7.85C9.04897 12.25 10.0834 12.4852 10.7991 13.2009C11.5148 13.9166 11.75 14.951 11.75 16.15V18.85C11.75 20.049 11.5148 21.0834 10.7991 21.7991C10.0834 22.5148 9.04897 22.75 7.85 22.75H5.15C3.95103 22.75 2.91664 22.5148 2.20092 21.7991C1.4852 21.0834 1.25 20.049 1.25 18.85V16.15C1.25 14.951 1.4852 13.9166 2.20092 13.2009Z" fill="black"/>
<path fill-rule="evenodd" clip-rule="evenodd" d="M8.0217 8.0217C7.62785 8.41555 7.37012 9.10808 7.37012 10.3801V12.2501L7.85 12.25C9.04897 12.25 10.0834 12.4852 10.7991 13.2009C11.5148 13.9166 11.75 14.951 11.75 16.15L11.7501 16.6301H13.6201C14.8922 16.6301 15.5847 16.3724 15.9785 15.9785C16.3724 15.5847 16.6301 14.8922 16.6301 13.6201V11.7501L16.15 11.75C14.951 11.75 13.9166 11.5148 13.2009 10.7991C12.4852 10.0834 12.25 9.04898 12.25 7.85001L12.2501 7.37012H10.3801C9.10807 7.37012 8.41554 7.62785 8.0217 8.0217ZM6.96103 6.96104C7.77468 6.14739 8.96216 5.87012 10.3801 5.87012H13.0001C13.4143 5.87012 13.7501 6.2059 13.7501 6.62012L13.75 7.85001C13.75 8.90103 13.9648 9.44164 14.2616 9.73842C14.5584 10.0352 15.099 10.25 16.15 10.25L17.3801 10.2501C17.7943 10.2501 18.1301 10.5859 18.1301 11.0001V13.6201C18.1301 15.0381 17.8528 16.2255 17.0392 17.0392C16.2255 17.8529 15.0381 18.1301 13.6201 18.1301H11.0001C10.5859 18.1301 10.2501 17.7943 10.2501 17.3801L10.25 16.15C10.25 15.099 10.0352 14.5584 9.73842 14.2616C9.44164 13.9648 8.90103 13.75 7.85 13.75L6.62012 13.7501C6.2059 13.7501 5.87012 13.4143 5.87012 13.0001V10.3801C5.87012 8.96218 6.14738 7.7747 6.96103 6.96104Z" fill="black"/>
</svg>
