<svg width="24" height="24" viewBox="0 0 24 24" fill="none" xmlns="http://www.w3.org/2000/svg">
<path fill-rule="evenodd" clip-rule="evenodd" d="M12 11.75C10.2051 11.75 8.75 13.2051 8.75 15C8.75 16.7949 10.2051 18.25 12 18.25C13.7949 18.25 15.25 16.7949 15.25 15C15.25 13.2051 13.7949 11.75 12 11.75ZM7.25 15C7.25 12.3766 9.37665 10.25 12 10.25C14.6234 10.25 16.75 12.3766 16.75 15C16.75 17.6234 14.6234 19.75 12 19.75C9.37665 19.75 7.25 17.6234 7.25 15Z" fill="black"/>
<path fill-rule="evenodd" clip-rule="evenodd" d="M10.4186 13.4709C10.7108 13.1773 11.1857 13.1762 11.4793 13.4684L13.5993 15.5784C13.8929 15.8706 13.894 16.3455 13.6018 16.6391C13.3096 16.9327 12.8347 16.9338 12.5411 16.6416L10.4211 14.5316C10.1275 14.2394 10.1264 13.7645 10.4186 13.4709Z" fill="black"/>
<path fill-rule="evenodd" clip-rule="evenodd" d="M13.58 13.4892C13.8729 13.7821 13.8729 14.257 13.58 14.5499L11.46 16.6699C11.1671 16.9628 10.6923 16.9628 10.3994 16.6699C10.1065 16.377 10.1065 15.9021 10.3994 15.6092L12.5194 13.4892C12.8123 13.1963 13.2871 13.1963 13.58 13.4892Z" fill="black"/>
<path fill-rule="evenodd" clip-rule="evenodd" d="M3.37339 8.81723C4.2588 7.76457 5.77681 7.25 7.99985 7.25H15.9999C18.2229 7.25 19.7409 7.76457 20.6263 8.81723C21.5046 9.8614 21.5868 11.2337 21.4453 12.5125L21.4441 12.523L20.6949 18.5167C20.5843 19.5429 20.3254 20.6669 19.4095 21.5037C18.4983 22.3361 17.0867 22.75 14.9999 22.75H8.99985C6.913 22.75 5.50138 22.3361 4.59024 21.5037C3.67429 20.6669 3.41539 19.5429 3.30484 18.5166L2.55433 12.5125C2.41282 11.2337 2.49512 9.8614 3.37339 8.81723ZM4.04473 12.3423L4.7957 18.3501C4.89555 19.282 5.1024 19.9399 5.60197 20.3963C6.10832 20.8589 7.0667 21.25 8.99985 21.25H14.9999C16.933 21.25 17.8914 20.8589 18.3977 20.3963C18.8973 19.9399 19.1043 19.282 19.2041 18.3501L19.2055 18.337L19.955 12.3422C20.0825 11.1837 19.9494 10.3428 19.4784 9.78277C19.0138 9.23043 18.0468 8.75 15.9999 8.75H7.99985C5.95289 8.75 4.9859 9.23043 4.52131 9.78277C4.05029 10.3428 3.9172 11.1838 4.04473 12.3423Z" fill="black"/>
<path fill-rule="evenodd" clip-rule="evenodd" d="M15.75 6.50962C15.75 4.31627 13.8655 2.55947 11.6324 2.77612L11.6297 2.77638C9.80824 2.94638 8.25 4.79207 8.25 6.69962V7.66962C8.25 8.08384 7.91421 8.41962 7.5 8.41962C7.08579 8.41962 6.75 8.08384 6.75 7.66962V6.69962C6.75 4.10762 8.81106 1.53374 11.4889 1.283C14.6152 0.980488 17.25 3.44342 17.25 6.50962V7.88962C17.25 8.30384 16.9142 8.63962 16.5 8.63962C16.0858 8.63962 15.75 8.30384 15.75 7.88962V6.50962Z" fill="black"/>
</svg>
