<svg width="24" height="24" viewBox="0 0 24 24" fill="none" xmlns="http://www.w3.org/2000/svg">
<path fill-rule="evenodd" clip-rule="evenodd" d="M10.1093 14.08C10.4022 13.7871 10.8771 13.7871 11.17 14.08L13.92 16.83C14.2129 17.1229 14.2129 17.5978 13.92 17.8907C13.6271 18.1836 13.1522 18.1836 12.8593 17.8907L10.1093 15.1407C9.81643 14.8478 9.81643 14.3729 10.1093 14.08Z" fill="black"/>
<path fill-rule="evenodd" clip-rule="evenodd" d="M13.8907 14.1093C14.1836 14.4022 14.1836 14.8771 13.8907 15.17L11.1407 17.92C10.8478 18.2129 10.3729 18.2129 10.08 17.92C9.78713 17.6271 9.78713 17.1522 10.08 16.8593L12.83 14.1093C13.1229 13.8164 13.5978 13.8164 13.8907 14.1093Z" fill="black"/>
<path fill-rule="evenodd" clip-rule="evenodd" d="M9.34003 1.46894C9.63333 1.76143 9.63398 2.2363 9.34149 2.5296L5.72149 6.1596C5.429 6.4529 4.95413 6.45355 4.66083 6.16106C4.36753 5.86857 4.36688 5.3937 4.65937 5.1004L8.27937 1.4704C8.57186 1.1771 9.04673 1.17645 9.34003 1.46894Z" fill="black"/>
<path fill-rule="evenodd" clip-rule="evenodd" d="M14.6608 1.46894C14.9541 1.17645 15.429 1.17711 15.7215 1.4704L19.3415 5.1004C19.634 5.3937 19.6333 5.86857 19.34 6.16106C19.0467 6.45355 18.5719 6.4529 18.2794 6.1596L14.6594 2.5296C14.3669 2.2363 14.3675 1.76143 14.6608 1.46894Z" fill="black"/>
<path fill-rule="evenodd" clip-rule="evenodd" d="M3.06612 6.779C2.95982 6.85019 2.75 7.04771 2.75 7.84961C2.75 8.84898 2.98342 8.98315 3.02242 9.00558C3.08083 9.03924 3.19013 9.07537 3.40918 9.09147C3.5762 9.10374 3.74829 9.10245 3.96204 9.10085C4.04163 9.10025 4.12698 9.09961 4.22 9.09961H19.78C19.873 9.09961 19.9584 9.10025 20.038 9.10085C20.2517 9.10245 20.4238 9.10374 20.5908 9.09147C20.8099 9.07537 20.9183 9.03971 20.9767 9.00605C21.0158 8.98363 21.25 8.84898 21.25 7.84961C21.25 7.04771 21.0402 6.85019 20.9339 6.779C20.7469 6.65376 20.418 6.59961 19.78 6.59961H4.22C3.58197 6.59961 3.2531 6.65376 3.06612 6.779ZM2.23138 5.53272C2.8469 5.12046 3.62803 5.09961 4.22 5.09961H19.78C20.372 5.09961 21.1531 5.12046 21.7686 5.53272C22.4648 5.99903 22.75 6.8015 22.75 7.84961C22.75 8.99292 22.4918 9.86415 21.7257 10.3057C21.3829 10.5033 21.0133 10.5645 20.7007 10.5874C20.4675 10.6046 20.2081 10.6025 19.9768 10.6007C19.9083 10.6001 19.8422 10.5996 19.78 10.5996H4.22C4.15779 10.5996 4.09171 10.6001 4.02316 10.6007C3.79185 10.6025 3.5325 10.6046 3.29925 10.5874C2.98674 10.5645 2.6171 10.5033 2.27425 10.3057C1.50815 9.86415 1.25 8.99292 1.25 7.84961C1.25 6.8015 1.53518 5.99903 2.23138 5.53272Z" fill="black"/>
<path fill-rule="evenodd" clip-rule="evenodd" d="M20.6414 9.26356C21.0482 9.34158 21.3147 9.7346 21.2367 10.1414L19.5567 18.9012C19.3799 19.8248 19.1488 20.8486 18.4289 21.6029C17.677 22.3909 16.5392 22.7501 14.8901 22.7501H8.86011C7.30829 22.7501 6.17693 22.3625 5.39894 21.5746C4.64211 20.8081 4.33744 19.7766 4.17011 18.7622L2.75991 10.1209C2.69319 9.71213 2.97051 9.32665 3.37932 9.25993C3.78812 9.19322 4.17361 9.47053 4.24032 9.87934L5.65011 18.5181C5.65008 18.5179 5.65015 18.5183 5.65011 18.5181C5.8028 19.4433 6.04322 20.0922 6.46628 20.5207C6.8683 20.9278 7.55194 21.2501 8.86011 21.2501H14.8901C16.3511 21.2501 16.9983 20.9294 17.3438 20.5673C17.7214 20.1716 17.9004 19.5754 18.0835 18.6191L19.7635 9.85888C19.8416 9.45208 20.2346 9.18554 20.6414 9.26356Z" fill="black"/>
</svg>
