<svg width="24" height="24" viewBox="0 0 24 24" fill="none" xmlns="http://www.w3.org/2000/svg">
<path fill-rule="evenodd" clip-rule="evenodd" d="M19.75 9.5C19.75 9.08579 20.0858 8.75 20.5 8.75C21.2564 8.75 21.9868 8.8574 22.4125 9.425C22.6168 9.69744 22.6895 10.0003 22.7208 10.2507C22.7501 10.4853 22.75 10.7446 22.75 10.9739C22.75 10.9826 22.75 10.9913 22.75 11V13C22.75 13.0087 22.75 13.0174 22.75 13.0261C22.75 13.2554 22.7501 13.5147 22.7208 13.7493C22.6895 13.9997 22.6168 14.3026 22.4125 14.575C21.9868 15.1426 21.2564 15.25 20.5 15.25C20.0858 15.25 19.75 14.9142 19.75 14.5C19.75 14.0858 20.0858 13.75 20.5 13.75C20.8433 13.75 21.0426 13.7202 21.1541 13.6872C21.182 13.6789 21.2008 13.6716 21.2129 13.6661C21.2181 13.6483 21.2257 13.6161 21.2324 13.5632C21.2488 13.4318 21.25 13.2644 21.25 13V11C21.25 10.7356 21.2488 10.5682 21.2324 10.4368C21.2257 10.3839 21.2181 10.3517 21.2129 10.3339C21.2008 10.3284 21.182 10.3211 21.1541 10.3128C21.0426 10.2798 20.8433 10.25 20.5 10.25C20.0858 10.25 19.75 9.91421 19.75 9.5Z" fill="black"/>
<path fill-rule="evenodd" clip-rule="evenodd" d="M10.4527 7.40177C10.7831 7.65156 10.8484 8.12192 10.5986 8.45234L8.74452 10.9049C8.67263 11.0683 8.78897 11.25 8.97036 11.25H11.2704C12.6197 11.25 13.4541 12.704 12.7927 13.87C12.769 13.9118 12.7414 13.9513 12.7101 13.9878L10.5701 16.4878C10.3008 16.8024 9.82731 16.8392 9.51264 16.5698C9.19797 16.3004 9.16124 15.827 9.4306 15.5123L11.5085 13.0849C11.5647 12.9224 11.4447 12.75 11.2704 12.75H8.97036C7.62201 12.75 6.78104 11.2929 7.46217 10.1227C7.47729 10.0968 7.49396 10.0717 7.51209 10.0477L9.40209 7.54775C9.65188 7.21733 10.1222 7.15197 10.4527 7.40177Z" fill="black"/>
<path fill-rule="evenodd" clip-rule="evenodd" d="M3.53033 6.53033C3.01884 7.04182 2.75 7.99464 2.75 10V14C2.75 16.0054 3.01884 16.9582 3.53033 17.4697C4.04182 17.9812 4.99464 18.25 7 18.25C7.41421 18.25 7.75 18.5858 7.75 19C7.75 19.4142 7.41421 19.75 7 19.75C5.00536 19.75 3.45818 19.5188 2.46967 18.5303C1.48116 17.5418 1.25 15.9946 1.25 14V10C1.25 8.00536 1.48116 6.45818 2.46967 5.46967C3.45818 4.48116 5.00536 4.25 7 4.25C7.41421 4.25 7.75 4.58579 7.75 5C7.75 5.41421 7.41421 5.75 7 5.75C4.99464 5.75 4.04182 6.01884 3.53033 6.53033Z" fill="black"/>
<path fill-rule="evenodd" clip-rule="evenodd" d="M12.25 5C12.25 4.58579 12.5858 4.25 13 4.25C14.9946 4.25 16.5418 4.48116 17.5303 5.46967C18.5188 6.45818 18.75 8.00536 18.75 10V14C18.75 15.9946 18.5188 17.5418 17.5303 18.5303C16.5418 19.5188 14.9946 19.75 13 19.75C12.5858 19.75 12.25 19.4142 12.25 19C12.25 18.5858 12.5858 18.25 13 18.25C15.0054 18.25 15.9582 17.9812 16.4697 17.4697C16.9812 16.9582 17.25 16.0054 17.25 14V10C17.25 7.99464 16.9812 7.04182 16.4697 6.53033C15.9582 6.01884 15.0054 5.75 13 5.75C12.5858 5.75 12.25 5.41421 12.25 5Z" fill="black"/>
</svg>
