<svg width="24" height="24" viewBox="0 0 24 24" fill="none" xmlns="http://www.w3.org/2000/svg">
<path fill-rule="evenodd" clip-rule="evenodd" d="M19.75 9.5C19.75 9.08579 20.0858 8.75 20.5 8.75C21.2564 8.75 21.9868 8.8574 22.4125 9.425C22.6168 9.69744 22.6895 10.0003 22.7208 10.2507C22.7501 10.4853 22.75 10.7446 22.75 10.9739C22.75 10.9826 22.75 10.9913 22.75 11V13C22.75 13.0087 22.75 13.0174 22.75 13.0261C22.75 13.2554 22.7501 13.5147 22.7208 13.7493C22.6895 13.9997 22.6168 14.3026 22.4125 14.575C21.9868 15.1426 21.2564 15.25 20.5 15.25C20.0858 15.25 19.75 14.9142 19.75 14.5C19.75 14.0858 20.0858 13.75 20.5 13.75C20.8433 13.75 21.0426 13.7202 21.1541 13.6872C21.182 13.6789 21.2008 13.6716 21.2129 13.6661C21.2181 13.6483 21.2257 13.6161 21.2324 13.5632C21.2488 13.4318 21.25 13.2644 21.25 13V11C21.25 10.7356 21.2488 10.5682 21.2324 10.4368C21.2257 10.3839 21.2181 10.3517 21.2129 10.3339C21.2008 10.3284 21.182 10.3211 21.1541 10.3128C21.0426 10.2798 20.8433 10.25 20.5 10.25C20.0858 10.25 19.75 9.91421 19.75 9.5Z" fill="black"/>
<path fill-rule="evenodd" clip-rule="evenodd" d="M16.4006 1.86598C16.7508 2.08717 16.8554 2.55038 16.6342 2.90059L4.63421 21.9006C4.41303 22.2508 3.94982 22.3554 3.5996 22.1342C3.24939 21.913 3.14479 21.4498 3.36598 21.0996L15.366 2.0996C15.5872 1.74939 16.0504 1.64479 16.4006 1.86598Z" fill="black"/>
<path fill-rule="evenodd" clip-rule="evenodd" d="M2.46967 5.46967C3.45818 4.48116 5.00536 4.25 7 4.25C7.41421 4.25 7.75 4.58579 7.75 5C7.75 5.41421 7.41421 5.75 7 5.75C4.99464 5.75 4.04182 6.01884 3.53033 6.53033C3.01884 7.04182 2.75 7.99464 2.75 10V14C2.75 15.6927 2.93959 16.6443 3.31732 17.2095C3.65136 17.7094 4.23043 18.0396 5.47098 18.1744C5.88278 18.2191 6.18034 18.5892 6.13561 19.001C6.09089 19.4128 5.72081 19.7103 5.30902 19.6656C3.87957 19.5104 2.76364 19.0806 2.07018 18.043C1.42041 17.0707 1.25 15.7073 1.25 14V10C1.25 8.00536 1.48116 6.45818 2.46967 5.46967Z" fill="black"/>
<path fill-rule="evenodd" clip-rule="evenodd" d="M13.8845 4.99855C13.9295 4.5868 14.2998 4.28953 14.7116 4.33459C16.1342 4.49028 17.244 4.92423 17.9336 5.96279C18.5793 6.93535 18.75 8.29709 18.75 10.0001V14.0001C18.75 15.9948 18.5188 17.542 17.5303 18.5305C16.5418 19.519 14.9946 19.7501 13 19.7501C12.5858 19.7501 12.25 19.4144 12.25 19.0001C12.25 18.5859 12.5858 18.2501 13 18.2501C15.0054 18.2501 15.9582 17.9813 16.4697 17.4698C16.9812 16.9583 17.25 16.0055 17.25 14.0001V10.0001C17.25 8.3132 17.0607 7.35993 16.6839 6.7925C16.351 6.29106 15.7758 5.96001 14.5484 5.82569C14.1367 5.78063 13.8394 5.41031 13.8845 4.99855Z" fill="black"/>
</svg>
