<svg width="24" height="24" viewBox="0 0 24 24" fill="none" xmlns="http://www.w3.org/2000/svg">
<path fill-rule="evenodd" clip-rule="evenodd" d="M3 5.75C2.30964 5.75 1.75 6.30964 1.75 7C1.75 7.69036 2.30964 8.25 3 8.25C3.69036 8.25 4.25 7.69036 4.25 7C4.25 6.30964 3.69036 5.75 3 5.75ZM0.25 7C0.25 5.48122 1.48122 4.25 3 4.25C4.51878 4.25 5.75 5.48122 5.75 7C5.75 8.51878 4.51878 9.75 3 9.75C1.48122 9.75 0.25 8.51878 0.25 7Z" fill="black"/>
<path fill-rule="evenodd" clip-rule="evenodd" d="M21 5.75C20.3096 5.75 19.75 6.30964 19.75 7C19.75 7.69036 20.3096 8.25 21 8.25C21.6904 8.25 22.25 7.69036 22.25 7C22.25 6.30964 21.6904 5.75 21 5.75ZM18.25 7C18.25 5.48122 19.4812 4.25 21 4.25C22.5188 4.25 23.75 5.48122 23.75 7C23.75 8.51878 22.5188 9.75 21 9.75C19.4812 9.75 18.25 8.51878 18.25 7Z" fill="black"/>
<path fill-rule="evenodd" clip-rule="evenodd" d="M14.25 7C14.25 6.58579 14.5858 6.25 15 6.25H19C19.4142 6.25 19.75 6.58579 19.75 7C19.75 7.41421 19.4142 7.75 19 7.75H15C14.5858 7.75 14.25 7.41421 14.25 7Z" fill="black"/>
<path fill-rule="evenodd" clip-rule="evenodd" d="M4.25 7C4.25 6.58579 4.58579 6.25 5 6.25H9C9.41421 6.25 9.75 6.58579 9.75 7C9.75 7.41421 9.41421 7.75 9 7.75H5C4.58579 7.75 4.25 7.41421 4.25 7Z" fill="black"/>
<path fill-rule="evenodd" clip-rule="evenodd" d="M4 15.75C3.58421 15.75 3.25 16.0842 3.25 16.5V18.5C3.25 18.9158 3.58421 19.25 4 19.25H6C6.09967 19.25 6.19055 19.2288 6.28894 19.1822C6.29846 19.1777 6.30807 19.1734 6.31777 19.1693C6.56332 19.0654 6.75 18.8054 6.75 18.5V16.5C6.75 16.0842 6.41579 15.75 6 15.75H4ZM1.75 16.5C1.75 15.2558 2.75579 14.25 4 14.25H6C7.24421 14.25 8.25 15.2558 8.25 16.5V18.5C8.25 19.4089 7.70351 20.2047 6.91696 20.5444C6.63914 20.6738 6.33466 20.75 6 20.75H4C2.75579 20.75 1.75 19.7442 1.75 18.5V16.5Z" fill="black"/>
<path fill-rule="evenodd" clip-rule="evenodd" d="M18 15.75C17.5842 15.75 17.25 16.0842 17.25 16.5V18.5C17.25 18.8054 17.4367 19.0654 17.6822 19.1693C17.6919 19.1734 17.7015 19.1777 17.7111 19.1822C17.8095 19.2288 17.9003 19.25 18 19.25H20C20.4158 19.25 20.75 18.9158 20.75 18.5V16.5C20.75 16.0842 20.4158 15.75 20 15.75H18ZM15.75 16.5C15.75 15.2558 16.7558 14.25 18 14.25H20C21.2442 14.25 22.25 15.2558 22.25 16.5V18.5C22.25 19.7442 21.2442 20.75 20 20.75H18C17.6653 20.75 17.3609 20.6738 17.083 20.5444C16.2965 20.2047 15.75 19.4089 15.75 18.5V16.5Z" fill="black"/>
<path fill-rule="evenodd" clip-rule="evenodd" d="M10.5 4.75C10.0942 4.75 9.75 5.09421 9.75 5.5V8.5C9.75 8.90579 10.0942 9.25 10.5 9.25H13.5C13.9058 9.25 14.25 8.90579 14.25 8.5V5.5C14.25 5.09421 13.9058 4.75 13.5 4.75H10.5ZM8.25 5.5C8.25 4.26579 9.26579 3.25 10.5 3.25H13.5C14.7342 3.25 15.75 4.26579 15.75 5.5V8.5C15.75 9.73421 14.7342 10.75 13.5 10.75H10.5C9.26579 10.75 8.25 9.73421 8.25 8.5V5.5Z" fill="black"/>
<path fill-rule="evenodd" clip-rule="evenodd" d="M14.331 7.39086C14.5182 7.02132 14.9694 6.87343 15.339 7.06054C17.9706 8.39301 19.7502 11.2377 19.7502 14.4997C19.7502 14.7009 19.7382 14.8902 19.715 15.0873C19.6666 15.4987 19.2939 15.7929 18.8825 15.7445C18.4712 15.6961 18.1769 15.3234 18.2253 14.912C18.2421 14.7691 18.2502 14.6384 18.2502 14.4997C18.2502 11.7817 16.7697 9.46629 14.6614 8.39877C14.2918 8.21166 14.1439 7.7604 14.331 7.39086Z" fill="black"/>
<path fill-rule="evenodd" clip-rule="evenodd" d="M9.66912 7.39086C9.85623 7.7604 9.70834 8.21166 9.33879 8.39877C7.23044 9.46629 5.75 11.7817 5.75 14.4997C5.75 14.6384 5.75805 14.7691 5.77486 14.912C5.82326 15.3234 5.52901 15.6961 5.11763 15.7445C4.70625 15.7929 4.33353 15.4987 4.28514 15.0873C4.26195 14.8902 4.25 14.7009 4.25 14.4997C4.25 11.2377 6.02956 8.39301 8.66121 7.06054C9.03075 6.87343 9.48201 7.02132 9.66912 7.39086Z" fill="black"/>
</svg>
