<svg width="24" height="24" viewBox="0 0 24 24" fill="none" xmlns="http://www.w3.org/2000/svg">
<path fill-rule="evenodd" clip-rule="evenodd" d="M11.4697 1.46967C11.7626 1.17678 12.2374 1.17678 12.5303 1.46967L18.5303 7.46967C18.8232 7.76256 18.8232 8.23744 18.5303 8.53033L16.5303 10.5303C16.2374 10.8232 15.7626 10.8232 15.4697 10.5303L12 7.06066L8.53033 10.5303C8.23744 10.8232 7.76256 10.8232 7.46967 10.5303L5.46967 8.53033C5.17678 8.23744 5.17678 7.76256 5.46967 7.46967L11.4697 1.46967ZM7.06066 8L8 8.93934L11.4697 5.46967C11.7626 5.17678 12.2374 5.17678 12.5303 5.46967L16 8.93934L16.9393 8L12 3.06066L7.06066 8Z" fill="black"/>
<path fill-rule="evenodd" clip-rule="evenodd" d="M7.46967 13.4697C7.76256 13.1768 8.23744 13.1768 8.53033 13.4697L12 16.9393L15.4697 13.4697C15.7626 13.1768 16.2374 13.1768 16.5303 13.4697L18.5303 15.4697C18.8232 15.7626 18.8232 16.2374 18.5303 16.5303L12.5303 22.5303C12.2374 22.8232 11.7626 22.8232 11.4697 22.5303L5.46967 16.5303C5.17678 16.2374 5.17678 15.7626 5.46967 15.4697L7.46967 13.4697ZM7.06066 16L12 20.9393L16.9393 16L16 15.0607L12.5303 18.5303C12.2374 18.8232 11.7626 18.8232 11.4697 18.5303L8 15.0607L7.06066 16Z" fill="black"/>
<path fill-rule="evenodd" clip-rule="evenodd" d="M16.9922 12.4952C16.6993 12.2023 16.6993 11.7274 16.9922 11.4345L19.255 9.1718C19.5478 8.87891 20.0227 8.87891 20.3156 9.1718L22.5783 11.4345C22.8712 11.7274 22.8712 12.2023 22.5783 12.4952L20.3156 14.7579C20.0227 15.0508 19.5478 15.0508 19.255 14.7579L16.9922 12.4952ZM18.5832 11.9648L19.7853 13.1669L20.9874 11.9648L19.7853 10.7628L18.5832 11.9648Z" fill="black"/>
<path fill-rule="evenodd" clip-rule="evenodd" d="M1.49224 12.4952C1.19935 12.2023 1.19935 11.7274 1.49224 11.4345L3.75496 9.1718C4.04785 8.87891 4.52272 8.87891 4.81561 9.1718L7.07833 11.4345C7.37122 11.7274 7.37122 12.2023 7.07833 12.4952L4.81561 14.7579C4.52272 15.0508 4.04785 15.0508 3.75496 14.7579L1.49224 12.4952ZM3.08321 11.9648L4.28528 13.1669L5.48735 11.9648L4.28528 10.7628L3.08321 11.9648Z" fill="black"/>
<path fill-rule="evenodd" clip-rule="evenodd" d="M8.92388 12.5303C8.63099 12.2374 8.63099 11.7626 8.92388 11.4697L11.3987 8.99482C11.6916 8.70193 12.1665 8.70193 12.4594 8.99482L14.9342 11.4697C15.2271 11.7626 15.2271 12.2374 14.9342 12.5303L12.4594 15.0052C12.1665 15.2981 11.6916 15.2981 11.3987 15.0052L8.92388 12.5303ZM10.5149 12L11.9291 13.4142L13.3433 12L11.9291 10.5858L10.5149 12Z" fill="black"/>
</svg>
