<svg width="24" height="24" viewBox="0 0 24 24" fill="none" xmlns="http://www.w3.org/2000/svg">
<path fill-rule="evenodd" clip-rule="evenodd" d="M8.25 8.38086C8.25 7.96665 8.58579 7.63086 9 7.63086H13.6846C15.1607 7.63086 16.3154 8.92503 16.3154 10.2616C16.3154 11.7143 15.1373 12.8924 13.6846 12.8924H9C8.58579 12.8924 8.25 12.5566 8.25 12.1424V8.38086ZM9.75 9.13086V11.3924H13.6846C14.3089 11.3924 14.8154 10.8859 14.8154 10.2616C14.8154 9.70593 14.2855 9.13086 13.6846 9.13086H9.75Z" fill="black"/>
<path fill-rule="evenodd" clip-rule="evenodd" d="M8.25 12.1309C8.25 11.7166 8.58579 11.3809 9 11.3809H14.3539C15.8613 11.3809 17.25 12.4697 17.25 14.0116C17.25 15.5535 15.8613 16.6424 14.3539 16.6424H9C8.58579 16.6424 8.25 16.3066 8.25 15.8924V12.1309ZM9.75 12.8809V15.1424H14.3539C15.2233 15.1424 15.75 14.5467 15.75 14.0116C15.75 13.4766 15.2233 12.8809 14.3539 12.8809H9.75Z" fill="black"/>
<path fill-rule="evenodd" clip-rule="evenodd" d="M12.2773 15.1309C12.6916 15.1309 13.0273 15.4666 13.0273 15.8809V17.7616C13.0273 18.1758 12.6916 18.5116 12.2773 18.5116C11.8631 18.5116 11.5273 18.1758 11.5273 17.7616V15.8809C11.5273 15.4666 11.8631 15.1309 12.2773 15.1309Z" fill="black"/>
<path fill-rule="evenodd" clip-rule="evenodd" d="M9.93457 15.1309C10.3488 15.1309 10.6846 15.4666 10.6846 15.8809V17.7616C10.6846 18.1758 10.3488 18.5116 9.93457 18.5116C9.52036 18.5116 9.18457 18.1758 9.18457 17.7616V15.8809C9.18457 15.4666 9.52036 15.1309 9.93457 15.1309Z" fill="black"/>
<path fill-rule="evenodd" clip-rule="evenodd" d="M12.2773 5.75C12.6916 5.75 13.0273 6.08579 13.0273 6.5V8.38077C13.0273 8.79499 12.6916 9.13077 12.2773 9.13077C11.8631 9.13077 11.5273 8.79499 11.5273 8.38077V6.5C11.5273 6.08579 11.8631 5.75 12.2773 5.75Z" fill="black"/>
<path fill-rule="evenodd" clip-rule="evenodd" d="M9.93457 5.75C10.3488 5.75 10.6846 6.08579 10.6846 6.5V8.38077C10.6846 8.79499 10.3488 9.13077 9.93457 9.13077C9.52036 9.13077 9.18457 8.79499 9.18457 8.38077V6.5C9.18457 6.08579 9.52036 5.75 9.93457 5.75Z" fill="black"/>
<path fill-rule="evenodd" clip-rule="evenodd" d="M6.75 8.38086C6.75 7.96665 7.08579 7.63086 7.5 7.63086H10.7769C11.1911 7.63086 11.5273 7.96656 11.5273 8.38077C11.5273 8.79499 11.1911 9.13086 10.7769 9.13086H7.5C7.08579 9.13086 6.75 8.79507 6.75 8.38086Z" fill="black"/>
<path fill-rule="evenodd" clip-rule="evenodd" d="M6.75 15.8809C6.75 15.4666 7.08579 15.1309 7.5 15.1309H10.7769C11.1911 15.1309 11.5273 15.4666 11.5273 15.8809C11.5273 16.2951 11.1911 16.6309 10.7769 16.6309H7.5C7.08579 16.6309 6.75 16.2951 6.75 15.8809Z" fill="black"/>
<path fill-rule="evenodd" clip-rule="evenodd" d="M12 2.75C6.89137 2.75 2.75 6.89137 2.75 12C2.75 17.1086 6.89137 21.25 12 21.25C17.1086 21.25 21.25 17.1086 21.25 12C21.25 6.89137 17.1086 2.75 12 2.75ZM1.25 12C1.25 6.06294 6.06294 1.25 12 1.25C17.9371 1.25 22.75 6.06294 22.75 12C22.75 17.9371 17.9371 22.75 12 22.75C6.06294 22.75 1.25 17.9371 1.25 12Z" fill="black"/>
</svg>
