<svg width="24" height="24" viewBox="0 0 24 24" fill="none" xmlns="http://www.w3.org/2000/svg">
<path fill-rule="evenodd" clip-rule="evenodd" d="M23 15.2197C23.4142 15.2197 23.75 15.5555 23.75 15.9697C23.75 20.2539 20.2842 23.7197 16 23.7197C15.7298 23.7197 15.4805 23.5744 15.3474 23.3393C15.2142 23.1041 15.2179 22.8156 15.3569 22.5839L16.4069 20.8339C16.62 20.4787 17.0807 20.3635 17.4359 20.5766C17.7911 20.7897 17.9062 21.2504 17.6931 21.6056L17.4218 22.0578C20.1909 21.4154 22.25 18.9363 22.25 15.9697C22.25 15.5555 22.5858 15.2197 23 15.2197Z" fill="black"/>
<path fill-rule="evenodd" clip-rule="evenodd" d="M6.5782 1.88166C3.8091 2.5241 1.75 5.00315 1.75 7.96973C1.75 8.38394 1.41421 8.71973 1 8.71973C0.585786 8.71973 0.25 8.38394 0.25 7.96973C0.25 3.68551 3.71579 0.219727 8 0.219727C8.2702 0.219727 8.51952 0.365071 8.65265 0.600202C8.78578 0.835334 8.78214 1.1239 8.64312 1.3556L7.59312 3.1056C7.38001 3.46078 6.91931 3.57596 6.56413 3.36285C6.20894 3.14974 6.09377 2.68904 6.30688 2.33385L6.5782 1.88166Z" fill="black"/>
<path fill-rule="evenodd" clip-rule="evenodd" d="M5.87012 13.0703C5.87012 12.6561 6.2059 12.3203 6.62012 12.3203H9.43012C10.4854 12.3203 11.3101 13.2375 11.3101 14.2003C11.3101 15.2302 10.4787 16.0803 9.43012 16.0803H6.62012C6.2059 16.0803 5.87012 15.7445 5.87012 15.3303V13.0703ZM7.37012 13.8203V14.5803H9.43012C9.64158 14.5803 9.81012 14.4104 9.81012 14.2003C9.81012 14.0231 9.61483 13.8203 9.43012 13.8203H7.37012Z" fill="black"/>
<path fill-rule="evenodd" clip-rule="evenodd" d="M5.87012 15.3303C5.87012 14.9161 6.2059 14.5801 6.62012 14.5801H9.84012C10.8643 14.5801 11.8801 15.3224 11.8801 16.4601C11.8801 17.5837 10.8688 18.3401 9.84012 18.3401H6.62012C6.2059 18.3401 5.87012 18.0043 5.87012 17.5901V15.3303ZM7.37012 16.0801V16.8401H9.84012C10.0165 16.8401 10.1624 16.7766 10.2568 16.6937C10.3504 16.6117 10.3801 16.5263 10.3801 16.4601C10.3801 16.3867 10.3486 16.3027 10.2586 16.2242C10.1662 16.1437 10.0204 16.0801 9.84012 16.0801H7.37012Z" fill="black"/>
<path fill-rule="evenodd" clip-rule="evenodd" d="M8.41992 16.8301C8.83414 16.8301 9.16992 17.1659 9.16992 17.5801V18.7001C9.16992 19.1143 8.83414 19.4501 8.41992 19.4501C8.00571 19.4501 7.66992 19.1143 7.66992 18.7001V17.5801C7.66992 17.1659 8.00571 16.8301 8.41992 16.8301Z" fill="black"/>
<path fill-rule="evenodd" clip-rule="evenodd" d="M8.41992 11.2002C8.83414 11.2002 9.16992 11.536 9.16992 11.9502V13.0702C9.16992 13.4844 8.83414 13.8202 8.41992 13.8202C8.00571 13.8202 7.66992 13.4844 7.66992 13.0702V11.9502C7.66992 11.536 8.00571 11.2002 8.41992 11.2002Z" fill="black"/>
<path fill-rule="evenodd" clip-rule="evenodd" d="M8.67977 9.91016C5.68399 9.91016 3.25977 12.3344 3.25977 15.3302C3.25977 18.326 5.68398 20.7502 8.67977 20.7502C11.6756 20.7502 14.0998 18.326 14.0998 15.3302C14.0998 15.2588 14.0977 15.19 14.0952 15.1119L14.0948 15.101C14.0928 15.0375 14.0904 14.9653 14.0899 14.8909C13.8762 12.2446 11.7582 10.1326 9.10913 9.92849C9.0944 9.92763 9.08004 9.92677 9.06602 9.92594C8.91281 9.91685 8.79986 9.91016 8.67977 9.91016ZM1.75977 15.3302C1.75977 11.506 4.85555 8.41016 8.67977 8.41016C8.84716 8.41016 9.00554 8.41963 9.15207 8.42839C9.16948 8.42943 9.18673 8.43047 9.20381 8.43147L9.21654 8.43222C12.616 8.69026 15.3296 11.404 15.5876 14.8034C15.589 14.8223 15.5898 14.8412 15.5898 14.8602C15.5898 14.9206 15.5918 14.9827 15.5944 15.0628C15.5968 15.1396 15.5998 15.2316 15.5998 15.3302C15.5998 19.1544 12.504 22.2502 8.67977 22.2502C4.85556 22.2502 1.75977 19.1544 1.75977 15.3302Z" fill="black"/>
<path fill-rule="evenodd" clip-rule="evenodd" d="M9.91275 8.50048C12.7522 9.00849 14.9917 11.248 15.4996 14.0874C18.4168 13.998 20.7502 11.6091 20.7502 8.66998C20.7502 5.6742 18.3259 3.25 15.3302 3.25C12.3911 3.25 10.0021 5.58329 9.91275 8.50048ZM8.41016 8.66998C8.41016 4.84577 11.5059 1.75 15.3302 1.75C19.1544 1.75 22.2502 4.84577 22.2502 8.66998C22.2502 12.4942 19.1544 15.59 15.3302 15.59H14.8402C14.448 15.59 14.122 15.2879 14.0923 14.8968C13.8904 12.2362 11.7639 10.1098 9.10339 9.90782C8.71232 9.87814 8.41016 9.55217 8.41016 9.15997V8.66998Z" fill="black"/>
</svg>
