<svg width="24" height="24" viewBox="0 0 24 24" fill="none" xmlns="http://www.w3.org/2000/svg">
<path fill-rule="evenodd" clip-rule="evenodd" d="M2.72892 8.92969C2.92821 8.9294 3.11942 9.00844 3.26033 9.14936L5.00033 10.8893C5.29322 11.1822 5.29322 11.6571 5.00033 11.95C4.70744 12.2429 4.23257 12.2429 3.93967 11.95L2.73153 10.7419L1.53185 11.9485C1.23981 12.2422 0.764933 12.2436 0.471198 11.9515C0.177463 11.6595 0.176097 11.1846 0.468146 10.8909L2.19815 9.15089C2.33866 9.00956 2.52964 8.92998 2.72892 8.92969Z" fill="black"/>
<path fill-rule="evenodd" clip-rule="evenodd" d="M18.9999 12.0497C19.2928 11.7569 19.7677 11.7569 20.0606 12.0497L21.2703 13.2594L22.4799 12.0497C22.7728 11.7569 23.2477 11.7569 23.5406 12.0498C23.8335 12.3426 23.8335 12.8175 23.5406 13.1104L21.8006 14.8504C21.5077 15.1433 21.0328 15.1433 20.7399 14.8504L18.9999 13.1104C18.7071 12.8175 18.7071 12.3426 18.9999 12.0497Z" fill="black"/>
<path fill-rule="evenodd" clip-rule="evenodd" d="M4.18553 5.73972C6.02087 3.46174 8.84165 1.99023 11.9996 1.99023C17.5232 1.99023 22.0096 6.4655 22.0096 12.0002V14.3203C22.0096 14.7345 21.6738 15.0703 21.2596 15.0703C20.8454 15.0703 20.5096 14.7345 20.5096 14.3203V12.0002C20.5096 7.29498 16.6959 3.49023 11.9996 3.49023C9.31747 3.49023 6.91825 4.73879 5.35358 6.68081C5.09371 7.00336 4.62156 7.05417 4.29901 6.79429C3.97646 6.53442 3.92566 6.06227 4.18553 5.73972Z" fill="black"/>
<path fill-rule="evenodd" clip-rule="evenodd" d="M2.74023 8.92969C3.15445 8.92969 3.49023 9.26547 3.49023 9.67969V11.9997C3.49023 16.705 7.30392 20.5097 12.0002 20.5097C14.6823 20.5097 17.0815 19.2612 18.6462 17.3191C18.9061 16.9966 19.3782 16.9458 19.7008 17.2056C20.0233 17.4655 20.0741 17.9377 19.8143 18.2602C17.9789 20.5382 15.1581 22.0097 12.0002 22.0097C6.47655 22.0097 1.99023 17.5344 1.99023 11.9997V9.67969C1.99023 9.26547 2.32602 8.92969 2.74023 8.92969Z" fill="black"/>
<path fill-rule="evenodd" clip-rule="evenodd" d="M8.25 8.5C8.25 8.08579 8.58579 7.75 9 7.75H13.38C14.7913 7.75 15.88 8.99345 15.88 10.25C15.88 11.6342 14.7642 12.75 13.38 12.75H9C8.58579 12.75 8.25 12.4142 8.25 12V8.5ZM9.75 9.25V11.25H13.38C13.9358 11.25 14.38 10.8058 14.38 10.25C14.38 9.76655 13.9086 9.25 13.38 9.25H9.75Z" fill="black"/>
<path fill-rule="evenodd" clip-rule="evenodd" d="M8.25 12C8.25 11.5858 8.58579 11.25 9 11.25H14C15.4148 11.25 16.75 12.2729 16.75 13.75C16.75 15.2271 15.4148 16.25 14 16.25H9C8.58579 16.25 8.25 15.9142 8.25 15.5V12ZM9.75 12.75V14.75H14C14.7852 14.75 15.25 14.2129 15.25 13.75C15.25 13.2871 14.7852 12.75 14 12.75H9.75Z" fill="black"/>
<path fill-rule="evenodd" clip-rule="evenodd" d="M11.7998 14.75C12.214 14.75 12.5498 15.0858 12.5498 15.5V17.25C12.5498 17.6642 12.214 18 11.7998 18C11.3856 18 11.0498 17.6642 11.0498 17.25V15.5C11.0498 15.0858 11.3856 14.75 11.7998 14.75Z" fill="black"/>
<path fill-rule="evenodd" clip-rule="evenodd" d="M11.7998 6C12.214 6 12.5498 6.33579 12.5498 6.75V8.5C12.5498 8.91421 12.214 9.25 11.7998 9.25C11.3856 9.25 11.0498 8.91421 11.0498 8.5V6.75C11.0498 6.33579 11.3856 6 11.7998 6Z" fill="black"/>
</svg>
