<svg width="24" height="24" viewBox="0 0 24 24" fill="none" xmlns="http://www.w3.org/2000/svg">
<path fill-rule="evenodd" clip-rule="evenodd" d="M9 2.75C5.54421 2.75 2.75 5.54421 2.75 9C2.75 12.169 5.1064 14.7848 8.16756 15.1864C8.17616 15.1875 8.18474 15.1888 8.1933 15.1902C8.44315 15.2318 8.71053 15.25 9 15.25C12.4558 15.25 15.25 12.4558 15.25 9C15.25 8.71054 15.2318 8.44315 15.1902 8.1933C15.1888 8.18474 15.1875 8.17616 15.1864 8.16756C14.7848 5.1064 12.169 2.75 9 2.75ZM1.25 9C1.25 4.71579 4.71579 1.25 9 1.25C12.9266 1.25 16.168 4.16707 16.6719 7.95971C16.7287 8.30558 16.75 8.6538 16.75 9C16.75 13.2842 13.2842 16.75 9 16.75C8.65381 16.75 8.30558 16.7287 7.9597 16.6719C4.16707 16.168 1.25 12.9266 1.25 9Z" fill="black"/>
<path fill-rule="evenodd" clip-rule="evenodd" d="M15.3909 7.54927C15.556 7.37835 15.7923 7.29578 16.0279 7.32669C19.8267 7.82508 22.7503 11.0693 22.7503 15.0003C22.7503 19.2845 19.2845 22.7503 15.0003 22.7503C11.0693 22.7503 7.82508 19.8267 7.32669 16.0279C7.29578 15.7923 7.37835 15.556 7.54927 15.3909C7.72019 15.2258 7.95891 15.1511 8.1933 15.1902C8.44315 15.2318 8.71053 15.25 9 15.25C12.4558 15.25 15.25 12.4558 15.25 9C15.25 8.71054 15.2318 8.44315 15.1902 8.1933C15.1511 7.95891 15.2258 7.72019 15.3909 7.54927ZM16.7503 9.00551C16.7475 13.2856 13.2856 16.7475 9.00551 16.7503C9.75775 19.3523 12.1562 21.2503 15.0003 21.2503C18.4561 21.2503 21.2503 18.4561 21.2503 15.0003C21.2503 12.1562 19.3523 9.75775 16.7503 9.00551Z" fill="black"/>
<path fill-rule="evenodd" clip-rule="evenodd" d="M13.616 13.5939C13.9066 13.2987 14.3815 13.2951 14.6766 13.5857L15.9866 14.8757C16.2818 15.1664 16.2854 15.6412 15.9948 15.9364C15.7042 16.2315 15.2293 16.2351 14.9342 15.9445L13.6242 14.6545C13.329 14.3639 13.3254 13.889 13.616 13.5939Z" fill="black"/>
<path fill-rule="evenodd" clip-rule="evenodd" d="M15.4697 10.4697C15.7626 10.1768 16.2374 10.1768 16.5303 10.4697L17.5303 11.4697C17.8232 11.7626 17.8232 12.2374 17.5303 12.5303C17.2374 12.8232 16.7626 12.8232 16.4697 12.5303L15.4697 11.5303C15.1768 11.2374 15.1768 10.7626 15.4697 10.4697Z" fill="black"/>
<path fill-rule="evenodd" clip-rule="evenodd" d="M10.4697 15.4697C10.7626 15.1768 11.2374 15.1768 11.5303 15.4697L12.5303 16.4697C12.8232 16.7626 12.8232 17.2374 12.5303 17.5303C12.2374 17.8232 11.7626 17.8232 11.4697 17.5303L10.4697 16.5303C10.1768 16.2374 10.1768 15.7626 10.4697 15.4697Z" fill="black"/>
</svg>
