<svg width="24" height="24" viewBox="0 0 24 24" fill="none" xmlns="http://www.w3.org/2000/svg">
<path fill-rule="evenodd" clip-rule="evenodd" d="M13.0935 7.61348C14.1091 8.79071 14.7197 10.3288 14.7197 12C14.7197 13.6712 14.1091 15.2093 13.0935 16.3865C13.918 16.9337 14.9048 17.25 15.9697 17.25C18.8655 17.25 21.2197 14.8958 21.2197 12C21.2197 9.10421 18.8655 6.75 15.9697 6.75C14.9048 6.75 13.918 7.06633 13.0935 7.61348ZM11.4663 6.9841C12.6593 5.90363 14.2371 5.25 15.9697 5.25C19.6939 5.25 22.7197 8.27579 22.7197 12C22.7197 15.7242 19.6939 18.75 15.9697 18.75C14.2371 18.75 12.6593 18.0964 11.4663 17.0159C11.3082 16.8728 11.2186 16.6692 11.2197 16.4559C11.2209 16.2427 11.3127 16.0401 11.4723 15.8987C12.5466 14.9467 13.2197 13.5489 13.2197 12C13.2197 10.4511 12.5466 9.05329 11.4723 8.10131C11.3127 7.9599 11.2209 7.75726 11.2197 7.54405C11.2186 7.33084 11.3082 7.12722 11.4663 6.9841Z" fill="black"/>
<path fill-rule="evenodd" clip-rule="evenodd" d="M7.96973 6.75C5.07394 6.75 2.71973 9.10421 2.71973 12C2.71973 14.8958 5.07394 17.25 7.96973 17.25C9.31711 17.25 10.5393 16.7436 11.4663 15.9041L11.4723 15.8987C12.5466 14.9467 13.2197 13.5489 13.2197 12C13.2197 10.4511 12.5466 9.05329 11.4723 8.10131L11.4662 8.09594C10.5393 7.2564 9.31711 6.75 7.96973 6.75ZM1.21973 12C1.21973 8.27579 4.24551 5.25 7.96973 5.25C9.7009 5.25 11.2776 5.90255 12.4702 6.98141C13.8542 8.20937 14.7197 10.0104 14.7197 12C14.7197 13.9896 13.8542 15.7906 12.4702 17.0186C11.2776 18.0974 9.70091 18.75 7.96973 18.75C4.24551 18.75 1.21973 15.7242 1.21973 12Z" fill="black"/>
</svg>
