<svg width="24" height="24" viewBox="0 0 24 24" fill="none" xmlns="http://www.w3.org/2000/svg">
<path fill-rule="evenodd" clip-rule="evenodd" d="M12.4979 1.38603C13.2272 1.04623 14.0013 1.38327 14.5786 1.8625L14.5799 1.86357L18.4298 5.07344C18.4297 5.0734 18.4298 5.07348 18.4298 5.07344C19.3228 5.81779 19.3364 7.09843 18.4979 7.87113L18.4964 7.8725L13.9938 11.9996L18.4979 16.1281C19.3364 16.9008 19.323 18.1813 18.4299 18.9257C18.4299 18.9257 18.43 18.9256 18.4299 18.9257L14.5799 22.1357L14.5786 22.1367C14.0013 22.6159 13.2272 22.953 12.4979 22.6132C11.7665 22.2724 11.5296 21.4612 11.5296 20.7096V14.2583L6.14643 19.1925C5.84108 19.4724 5.36665 19.4517 5.08677 19.1464C4.80689 18.8411 4.82753 18.3666 5.13288 18.0867L11.5296 12.2235V11.7758L5.13288 5.91248C4.82753 5.6326 4.80689 5.15817 5.08677 4.85282C5.36665 4.54747 5.84108 4.52683 6.14643 4.80671L11.5296 9.74097V3.28962C11.5296 2.53803 11.7665 1.72679 12.4979 1.38603ZM13.0296 13.1507L17.4814 17.2311C17.4812 17.2309 17.4816 17.2313 17.4814 17.2311C17.6622 17.3983 17.6561 17.618 17.4695 17.7735L13.6206 20.9825C13.6204 20.9827 13.6209 20.9823 13.6206 20.9825C13.4268 21.1433 13.2798 21.2128 13.1915 21.2374C13.1649 21.2449 13.1462 21.2478 13.134 21.2487C13.1273 21.2391 13.118 21.2235 13.1073 21.1997C13.0702 21.1174 13.0296 20.9618 13.0296 20.7096V13.1507ZM13.0296 10.8486V3.28962C13.0296 3.03737 13.0702 2.88179 13.1073 2.79953C13.118 2.77568 13.1273 2.76015 13.134 2.75049C13.1462 2.75146 13.1649 2.75434 13.1915 2.76178C13.2798 2.78645 13.4261 2.85537 13.6201 3.01624C13.6199 3.01607 13.6202 3.0164 13.6201 3.01624L17.4694 6.22565C17.656 6.38114 17.6628 6.60036 17.482 6.76754C17.4818 6.76773 17.4822 6.76736 17.482 6.76754L13.0296 10.8486Z" fill="black"/>
<path fill-rule="evenodd" clip-rule="evenodd" d="M12.4979 1.38603C13.2272 1.04623 14.0013 1.38327 14.5786 1.8625L14.5799 1.86357L18.4298 5.07344C18.4297 5.0734 18.4298 5.07348 18.4298 5.07344C19.3228 5.81779 19.3364 7.09843 18.4979 7.87113L18.4964 7.8725L13.9938 11.9996L18.4979 16.1281C19.3364 16.9008 19.323 18.1813 18.4299 18.9257C18.4299 18.9257 18.43 18.9256 18.4299 18.9257L14.5799 22.1357L14.5786 22.1367C14.0013 22.6159 13.2272 22.953 12.4979 22.6132C11.7665 22.2724 11.5296 21.4612 11.5296 20.7096V14.2583L6.14643 19.1925C5.84108 19.4724 5.36665 19.4517 5.08677 19.1464C4.80689 18.8411 4.82753 18.3666 5.13288 18.0867L11.5296 12.2235V11.7758L5.13288 5.91248C4.82753 5.6326 4.80689 5.15817 5.08677 4.85282C5.36665 4.54747 5.84108 4.52683 6.14643 4.80671L11.5296 9.74097V3.28962C11.5296 2.53803 11.7665 1.72679 12.4979 1.38603ZM13.0296 13.1507L17.4814 17.2311C17.4812 17.2309 17.4816 17.2313 17.4814 17.2311C17.6622 17.3983 17.6561 17.618 17.4695 17.7735L13.6206 20.9825C13.6204 20.9827 13.6209 20.9823 13.6206 20.9825C13.4268 21.1433 13.2798 21.2128 13.1915 21.2374C13.1649 21.2449 13.1462 21.2478 13.134 21.2487C13.1273 21.2391 13.118 21.2235 13.1073 21.1997C13.0702 21.1174 13.0296 20.9618 13.0296 20.7096V13.1507ZM13.0296 10.8486V3.28962C13.0296 3.03737 13.0702 2.88179 13.1073 2.79953C13.118 2.77568 13.1273 2.76015 13.134 2.75049C13.1462 2.75146 13.1649 2.75434 13.1915 2.76178C13.2798 2.78645 13.4261 2.85537 13.6201 3.01624C13.6199 3.01607 13.6202 3.0164 13.6201 3.01624L17.4694 6.22565C17.656 6.38114 17.6628 6.60036 17.482 6.76754C17.4818 6.76773 17.4822 6.76736 17.482 6.76754L13.0296 10.8486Z" fill="black"/>
</svg>
