<svg width="24" height="24" viewBox="0 0 24 24" fill="none" xmlns="http://www.w3.org/2000/svg">
<path fill-rule="evenodd" clip-rule="evenodd" d="M11.4979 1.38603C12.2272 1.04623 13.0013 1.38327 13.5786 1.8625L13.5799 1.86357L17.4298 5.07344C18.3228 5.81779 18.3364 7.09843 17.4979 7.87113L17.4964 7.8725L12.9938 11.9996L17.4979 16.1281C18.3364 16.9008 18.323 18.1813 17.4299 18.9257L13.5799 22.1357L13.5786 22.1367C13.0013 22.6159 12.2272 22.953 11.4979 22.6132C10.7665 22.2724 10.5296 21.4612 10.5296 20.7096V14.2583L5.14643 19.1925C4.84108 19.4724 4.36665 19.4517 4.08677 19.1464C3.80689 18.8411 3.82753 18.3666 4.13288 18.0867L10.5296 12.2235V11.7758L4.13288 5.91248C3.82753 5.6326 3.80689 5.15817 4.08677 4.85282C4.36665 4.54747 4.84108 4.52683 5.14643 4.80671L10.5296 9.74097V3.28962C10.5296 2.53803 10.7665 1.72679 11.4979 1.38603ZM12.0296 13.1507L16.4814 17.2311C16.6622 17.3983 16.6561 17.618 16.4695 17.7735L12.6206 20.9825C12.4268 21.1433 12.2798 21.2128 12.1915 21.2374C12.1649 21.2449 12.1462 21.2478 12.134 21.2487C12.1273 21.2391 12.118 21.2235 12.1073 21.1997C12.0702 21.1174 12.0296 20.9618 12.0296 20.7096V13.1507ZM12.0296 10.8486V3.28962C12.0296 3.03737 12.0702 2.88179 12.1073 2.79953C12.118 2.77568 12.1273 2.76015 12.134 2.75049C12.1462 2.75146 12.1649 2.75434 12.1915 2.76178C12.2798 2.78645 12.4261 2.85537 12.6201 3.01624L16.4694 6.22565C16.656 6.38114 16.6628 6.60036 16.482 6.76754L12.0296 10.8486Z" fill="black"/>
<path fill-rule="evenodd" clip-rule="evenodd" d="M5 11.75C4.86193 11.75 4.75 11.8619 4.75 12C4.75 12.1381 4.86193 12.25 5 12.25C5.13807 12.25 5.25 12.1381 5.25 12C5.25 11.8619 5.13807 11.75 5 11.75ZM3.25 12C3.25 11.0335 4.0335 10.25 5 10.25C5.9665 10.25 6.75 11.0335 6.75 12C6.75 12.9665 5.9665 13.75 5 13.75C4.0335 13.75 3.25 12.9665 3.25 12Z" fill="black"/>
<path fill-rule="evenodd" clip-rule="evenodd" d="M19 11.75C18.8619 11.75 18.75 11.8619 18.75 12C18.75 12.1381 18.8619 12.25 19 12.25C19.1381 12.25 19.25 12.1381 19.25 12C19.25 11.8619 19.1381 11.75 19 11.75ZM17.25 12C17.25 11.0335 18.0335 10.25 19 10.25C19.9665 10.25 20.75 11.0335 20.75 12C20.75 12.9665 19.9665 13.75 19 13.75C18.0335 13.75 17.25 12.9665 17.25 12Z" fill="black"/>
</svg>
