<svg width="24" height="24" viewBox="0 0 24 24" fill="none" xmlns="http://www.w3.org/2000/svg">
<path fill-rule="evenodd" clip-rule="evenodd" d="M8.28296 3.28519C7.97158 3.59968 7.75 4.13374 7.75 5.03V12.08C7.75 12.9163 8.03962 13.2861 8.2813 13.4183C8.52921 13.554 9.01657 13.5999 9.75247 13.1579L9.75358 13.1572L11.0741 12.3569C11.366 12.1818 11.7019 12.115 12 12.115C12.2981 12.115 12.634 12.1818 12.9259 12.3569L12.9287 12.3586L14.2464 13.1572L14.2475 13.1579C14.9834 13.5999 15.4708 13.554 15.7187 13.4183C15.9604 13.2861 16.25 12.9163 16.25 12.08V5.03C16.25 4.13374 16.0284 3.59968 15.717 3.28519C15.407 2.97207 14.8825 2.75 14 2.75H10C9.11751 2.75 8.59298 2.97207 8.28296 3.28519ZM7.21704 2.22982C7.90702 1.53293 8.88249 1.25 10 1.25H14C15.1175 1.25 16.093 1.53293 16.783 2.22982C17.4716 2.92532 17.75 3.90626 17.75 5.03V12.08C17.75 13.2337 17.3346 14.2439 16.4388 14.7342C15.5493 15.2209 14.4671 15.04 13.4736 14.4428L13.4713 14.4414L12.1541 13.6431C12.1541 13.6431 12.1494 13.6405 12.1426 13.6378C12.1345 13.6346 12.1231 13.6308 12.1085 13.6272C12.0784 13.6199 12.041 13.615 12 13.615C11.959 13.615 11.9216 13.6199 11.8915 13.6272C11.8769 13.6308 11.8655 13.6346 11.8574 13.6378C11.8506 13.6405 11.8461 13.643 11.8461 13.643L10.5287 14.4414L10.5264 14.4428C9.53295 15.04 8.45066 15.2209 7.5612 14.7342C6.66538 14.2439 6.25 13.2337 6.25 12.08V5.03C6.25 3.90626 6.52842 2.92532 7.21704 2.22982Z" fill="black"/>
<path fill-rule="evenodd" clip-rule="evenodd" d="M16.258 4.85106C16.3182 4.44124 16.6992 4.15782 17.109 4.21802C19.0135 4.49777 20.4774 5.22748 21.4379 6.57307C22.3778 7.88969 22.75 9.68005 22.75 11.9001V14.9301C22.75 17.5275 22.2405 19.5407 20.908 20.8865C19.5736 22.2342 17.5756 22.7501 15 22.7501H9C6.42443 22.7501 4.42637 22.2342 3.09204 20.8865C1.75953 19.5407 1.25 17.5275 1.25 14.9301V11.9001C1.25 9.71588 1.60955 7.95082 2.51436 6.64226C3.43981 5.30384 4.85327 4.5584 6.69635 4.25032C7.10489 4.18203 7.49145 4.45786 7.55974 4.86641C7.62803 5.27495 7.3522 5.66151 6.94365 5.7298C5.37673 5.99172 4.38019 6.58128 3.74814 7.49536C3.09545 8.4393 2.75 9.84424 2.75 11.9001V14.9301C2.75 17.3827 3.24047 18.9045 4.15796 19.8311C5.07363 20.756 6.57557 21.2501 9 21.2501H15C17.4244 21.2501 18.9264 20.756 19.842 19.8311C20.7595 18.9045 21.25 17.3827 21.25 14.9301V11.9001C21.25 9.81007 20.8922 8.39043 20.2171 7.44455C19.5626 6.52764 18.5265 5.94235 16.891 5.7021C16.4812 5.6419 16.1978 5.26088 16.258 4.85106Z" fill="black"/>
</svg>
