<svg width="24" height="24" viewBox="0 0 24 24" fill="none" xmlns="http://www.w3.org/2000/svg">
<path fill-rule="evenodd" clip-rule="evenodd" d="M9 2C9 1.58579 8.66381 1.24783 8.24997 1.26542C6.03577 1.35952 4.29655 1.89279 3.09467 3.09467C1.7602 4.42914 1.25 6.42603 1.25 9V15C1.25 17.574 1.7602 19.5709 3.09467 20.9053C4.42914 22.2398 6.42603 22.75 9 22.75H15C17.574 22.75 19.5709 22.2398 20.9053 20.9053C22.2398 19.5709 22.75 17.574 22.75 15V9C22.75 6.42603 22.2398 4.42914 20.9053 3.09467C19.7034 1.89279 17.9642 1.35952 15.75 1.26542C15.3362 1.24783 15 1.58579 15 2C15 2.41421 15.3366 2.7475 15.7504 2.76688C17.7422 2.86016 19.0275 3.33816 19.8447 4.15533C20.7602 5.07086 21.25 6.57397 21.25 9V15C21.25 17.426 20.7602 18.9291 19.8447 19.8447C18.9291 20.7602 17.426 21.25 15 21.25H9C6.57397 21.25 5.07086 20.7602 4.15533 19.8447C3.2398 18.9291 2.75 17.426 2.75 15V9C2.75 6.57397 3.2398 5.07086 4.15533 4.15533C4.9725 3.33816 6.25778 2.86016 8.24963 2.76688C8.66339 2.7475 9 2.41421 9 2Z" fill="black"/>
<path fill-rule="evenodd" clip-rule="evenodd" d="M4.87012 11.0244C4.87012 9.8236 5.86632 8.91252 7.05915 9.00669L7.06148 9.00688C8.5191 9.12653 10.6647 9.83396 11.8984 10.6089L11.9996 10.6721L12.0536 10.6377C13.2905 9.86741 15.4347 9.13707 16.8988 9.01689C16.9192 9.01521 16.9397 9.01437 16.9601 9.01437H16.9737C18.1481 8.93927 19.1301 9.83068 19.1301 11.0344V15.7244C19.1301 16.7158 18.356 17.6088 17.3566 17.7282L17.1517 17.7575C15.8538 17.9349 13.8034 18.6028 12.6668 19.2331C12.4396 19.3683 12.1891 19.4094 11.9889 19.4094C11.8045 19.4094 11.5863 19.3747 11.3811 19.2744C11.3495 19.2623 11.3188 19.248 11.2891 19.2318C10.1485 18.6054 8.09774 17.9256 6.81309 17.7581C6.8043 17.7569 6.79554 17.7556 6.7868 17.7542L6.62323 17.7269C5.63245 17.6016 4.87012 16.6958 4.87012 15.7244V11.0244ZM6.9401 10.502C6.61343 10.4767 6.37012 10.7055 6.37012 11.0244V15.7244C6.37012 15.966 6.59677 16.2142 6.81561 16.2393C6.82825 16.2407 6.84085 16.2425 6.8534 16.2446L7.02064 16.2725C8.47532 16.4649 10.6535 17.1849 11.956 17.887C11.9647 17.8904 11.9734 17.894 11.982 17.8978C13.2944 17.181 15.4898 16.4711 16.9462 16.2716L16.9485 16.2713L17.1541 16.2419C17.1614 16.2409 17.1687 16.2399 17.176 16.2391C17.4106 16.2126 17.6301 15.9689 17.6301 15.7244V11.0344C17.6301 10.7092 17.3903 10.4859 17.0591 10.512C17.0395 10.5136 17.0198 10.5144 17.0001 10.5144H16.992C15.776 10.622 13.8851 11.2653 12.8496 11.9091L12.7313 11.9845C12.4914 12.1311 12.2224 12.1769 12.0039 12.1769C11.7832 12.1769 11.5204 12.1302 11.2843 11.9935C11.277 11.9892 11.2697 11.9848 11.2625 11.9803L11.1026 11.8803L11.1011 11.8794C10.0751 11.2348 8.16226 10.6026 6.9401 10.502Z" fill="black"/>
<path fill-rule="evenodd" clip-rule="evenodd" d="M12 10.8037C12.4142 10.8037 12.75 11.1395 12.75 11.5537V18.1137C12.75 18.5279 12.4142 18.8637 12 18.8637C11.5858 18.8637 11.25 18.5279 11.25 18.1137V11.5537C11.25 11.1395 11.5858 10.8037 12 10.8037Z" fill="black"/>
<path d="M11.9698 1.00195C12.384 1.00199 12.7198 1.33776 12.7198 1.75195V5.94141L13.4396 5.22168C13.7325 4.92882 14.2072 4.9288 14.5001 5.22168C14.793 5.51457 14.793 5.98934 14.5001 6.28223L12.5001 8.28223L12.4435 8.33398C12.4365 8.33964 12.4281 8.34327 12.421 8.34863C12.4158 8.35258 12.4107 8.35656 12.4054 8.36035C12.3901 8.37129 12.3744 8.38096 12.3585 8.39062C12.3326 8.40643 12.3059 8.42017 12.2784 8.43262C12.2644 8.43897 12.2508 8.44572 12.2364 8.45117C12.1985 8.46562 12.1599 8.47722 12.1202 8.48535C12.1112 8.4872 12.102 8.48775 12.0929 8.48926C12.057 8.49525 12.021 8.49927 11.9845 8.5C11.9724 8.50024 11.9604 8.49937 11.9484 8.49902C11.914 8.49805 11.88 8.49501 11.8458 8.48926C11.8351 8.48746 11.8242 8.48664 11.8136 8.48438C11.7743 8.47598 11.7356 8.46416 11.6974 8.44922C11.6937 8.44777 11.6894 8.4478 11.6857 8.44629L11.6827 8.44531C11.6409 8.42797 11.6018 8.40578 11.5646 8.38184C11.5205 8.35341 11.4782 8.32082 11.4396 8.28223L9.43957 6.28223C9.14668 5.98933 9.14668 5.51457 9.43957 5.22168C9.73246 4.92882 10.2072 4.9288 10.5001 5.22168L11.2198 5.94141V1.75195C11.2198 1.33774 11.5556 1.00195 11.9698 1.00195Z" fill="black"/>
</svg>
