<svg width="24" height="24" viewBox="0 0 24 24" fill="none" xmlns="http://www.w3.org/2000/svg">
<path fill-rule="evenodd" clip-rule="evenodd" d="M1.25 4.65976C1.25 3.03422 2.59168 1.78596 4.22166 1.9223C6.44026 2.10219 9.73026 3.19878 11.6113 4.36989L11.865 4.52213C11.8676 4.52334 11.8782 4.52819 11.8985 4.53326C11.9257 4.54004 11.9609 4.54476 12 4.54476C12.0391 4.54476 12.0743 4.54004 12.1015 4.53326C12.1208 4.52845 12.1313 4.52385 12.1345 4.52235L12.3005 4.41492C14.1818 3.23119 17.4869 2.12271 19.7059 1.9325C19.7273 1.93068 19.7486 1.92976 19.77 1.92976H19.8008C21.4092 1.81303 22.75 3.03797 22.75 4.66976V16.7398C22.75 18.0721 21.6941 19.2963 20.353 19.464L20.3503 19.4643L20.0246 19.5038C17.9391 19.7821 14.6756 20.8601 12.8374 21.8736C12.5663 22.0278 12.2587 22.0823 11.9938 22.0823C11.7305 22.0823 11.4301 22.0286 11.1626 21.8846L11.1346 21.8706C11.1264 21.8665 11.1182 21.8622 11.1101 21.8578C9.27067 20.8518 6.00894 19.7809 3.93065 19.5032L3.92752 19.5027L3.64189 19.4633C2.30319 19.2932 1.25 18.0705 1.25 16.7398V4.65976ZM4.0972 3.41713C3.34769 3.35415 2.75 3.90569 2.75 4.65976V16.7398C2.75 17.3274 3.25414 17.9032 3.83303 17.9756L3.84249 17.9767L4.12935 18.0164L4.13096 18.0166C6.38806 18.3185 9.81571 19.4433 11.8175 20.535L11.8454 20.5489C11.8547 20.5536 11.8639 20.5585 11.8731 20.5635C11.8731 20.5635 11.8827 20.568 11.9039 20.5729C11.9284 20.5785 11.9596 20.5823 11.9938 20.5823C12.028 20.5823 12.0576 20.5784 12.0793 20.5734C12.0906 20.5708 12.0971 20.5685 12.0997 20.5676L12.1074 20.5631C14.1088 19.4581 17.5582 18.3187 19.8311 18.0163L19.8397 18.0152L20.167 17.9756L20.1681 17.9754C20.7465 17.9024 21.25 17.327 21.25 16.7398V4.66976C21.25 3.91292 20.6495 3.36354 19.8928 3.42713C19.8719 3.42888 19.851 3.42976 19.83 3.42976H19.8028C17.8225 3.60749 14.7741 4.63221 13.1033 5.68209L12.9256 5.79711C12.6339 5.97815 12.2953 6.04476 12 6.04476C11.7066 6.04476 11.3705 5.97889 11.0801 5.80049L10.8231 5.64626C9.14349 4.59887 6.07868 3.57754 4.09948 3.41732L4.0972 3.41713Z" fill="black"/>
<path fill-rule="evenodd" clip-rule="evenodd" d="M12 4.74023C12.4142 4.74023 12.75 5.07602 12.75 5.49023V20.4902C12.75 20.9044 12.4142 21.2402 12 21.2402C11.5858 21.2402 11.25 20.9044 11.25 20.4902V5.49023C11.25 5.07602 11.5858 4.74023 12 4.74023Z" fill="black"/>
<path fill-rule="evenodd" clip-rule="evenodd" d="M4.75 8.49023C4.75 8.07602 5.08579 7.74023 5.5 7.74023H7.75C8.16421 7.74023 8.5 8.07602 8.5 8.49023C8.5 8.90445 8.16421 9.24023 7.75 9.24023H5.5C5.08579 9.24023 4.75 8.90445 4.75 8.49023Z" fill="black"/>
<path fill-rule="evenodd" clip-rule="evenodd" d="M4.75 11.4902C4.75 11.076 5.08579 10.7402 5.5 10.7402H8.5C8.91421 10.7402 9.25 11.076 9.25 11.4902C9.25 11.9044 8.91421 12.2402 8.5 12.2402H5.5C5.08579 12.2402 4.75 11.9044 4.75 11.4902Z" fill="black"/>
</svg>
