<svg width="24" height="24" viewBox="0 0 24 24" fill="none" xmlns="http://www.w3.org/2000/svg">
<path fill-rule="evenodd" clip-rule="evenodd" d="M3.09467 3.09467C4.42914 1.7602 6.42603 1.25 9 1.25H15C17.574 1.25 19.5709 1.7602 20.9053 3.09467C22.2398 4.42914 22.75 6.42603 22.75 9V15C22.75 17.574 22.2398 19.5709 20.9053 20.9053C19.5709 22.2398 17.574 22.75 15 22.75H9C6.42603 22.75 4.42914 22.2398 3.09467 20.9053C1.7602 19.5709 1.25 17.574 1.25 15V9C1.25 6.42603 1.7602 4.42914 3.09467 3.09467ZM4.15533 4.15533C3.2398 5.07086 2.75 6.57397 2.75 9V15C2.75 17.426 3.2398 18.9291 4.15533 19.8447C5.07086 20.7602 6.57397 21.25 9 21.25H15C17.426 21.25 18.9291 20.7602 19.8447 19.8447C20.7602 18.9291 21.25 17.426 21.25 15V9C21.25 6.57397 20.7602 5.07086 19.8447 4.15533C18.9291 3.2398 17.426 2.75 15 2.75H9C6.57397 2.75 5.07086 3.2398 4.15533 4.15533Z" fill="black"/>
<path fill-rule="evenodd" clip-rule="evenodd" d="M4.87012 7.57028C4.87012 6.3695 5.86632 5.45842 7.05915 5.55259L7.06148 5.55277C8.5191 5.67243 10.6647 6.37986 11.8984 7.15479L11.9996 7.21802L12.0536 7.18363C13.2905 6.41331 15.4347 5.68297 16.8988 5.56279C16.9192 5.56111 16.9397 5.56027 16.9601 5.56027H16.9737C18.1481 5.48517 19.1301 6.37658 19.1301 7.58026V15.2703C19.1301 16.2617 18.356 17.1547 17.3566 17.2741L17.1517 17.3034C15.8538 17.4808 13.8034 18.1487 12.6668 18.779C12.4396 18.9142 12.1891 18.9553 11.9889 18.9553C11.8045 18.9553 11.5863 18.9206 11.3811 18.8203C11.3495 18.8082 11.3188 18.7939 11.2891 18.7777C10.1485 18.1513 8.09774 17.4715 6.81309 17.304C6.8043 17.3028 6.79554 17.3015 6.7868 17.3001L6.62323 17.2728C5.63245 17.1475 4.87012 16.2417 4.87012 15.2703V7.57028ZM6.9401 7.04786C6.61343 7.02257 6.37012 7.25139 6.37012 7.57028V15.2703C6.37012 15.5119 6.59677 15.7601 6.81561 15.7852C6.82825 15.7866 6.84085 15.7884 6.8534 15.7905L7.02064 15.8184C8.47532 16.0108 10.6535 16.7308 11.956 17.4329C11.9647 17.4363 11.9734 17.4399 11.982 17.4437C13.2944 16.7269 15.4898 16.017 16.9462 15.8175L16.9485 15.8172L17.1541 15.7878C17.1614 15.7868 17.1687 15.7858 17.176 15.785C17.4106 15.7585 17.6301 15.5148 17.6301 15.2703V7.58026C17.6301 7.25506 17.3903 7.0318 17.0591 7.05795C17.0395 7.0595 17.0198 7.06027 17.0001 7.06027H16.992C15.776 7.16792 13.8851 7.81121 12.8496 8.45504L12.7313 8.53036C12.4914 8.67696 12.2224 8.72279 12.0039 8.72279C11.7832 8.72279 11.5204 8.67605 11.2843 8.53936C11.277 8.53511 11.2697 8.53074 11.2625 8.52625L11.1026 8.42624L11.1011 8.42533C10.0751 7.78068 8.16226 7.14853 6.9401 7.04786Z" fill="black"/>
<path fill-rule="evenodd" clip-rule="evenodd" d="M12 7.34961C12.4142 7.34961 12.75 7.6854 12.75 8.09961V17.6596C12.75 18.0738 12.4142 18.4096 12 18.4096C11.5858 18.4096 11.25 18.0738 11.25 17.6596V8.09961C11.25 7.6854 11.5858 7.34961 12 7.34961Z" fill="black"/>
</svg>
