<svg width="24" height="24" viewBox="0 0 24 24" fill="none" xmlns="http://www.w3.org/2000/svg">
<path fill-rule="evenodd" clip-rule="evenodd" d="M3.25 6C3.25 3.88579 4.88579 2.25 7 2.25H17C19.1142 2.25 20.75 3.88579 20.75 6V6.8C20.75 7.54633 20.8447 8.23368 21.0894 8.80456C21.103 8.83643 21.1144 8.86921 21.1236 8.90266C21.3274 9.6502 22.1103 10.25 23 10.25C23.4142 10.25 23.75 10.5858 23.75 11V13C23.75 13.4142 23.4142 13.75 23 13.75C22.1541 13.75 21.4109 14.3146 21.1048 15.1563L21.1023 15.1634C20.8387 15.8661 20.75 16.4749 20.75 17.2V18C20.75 20.1142 19.1142 21.75 17 21.75H7C4.88579 21.75 3.25 20.1142 3.25 18V17.2C3.25 16.4537 3.1553 15.7663 2.91064 15.1954C2.89698 15.1636 2.88555 15.1308 2.87643 15.0973C2.67255 14.3498 1.8897 13.75 1 13.75C0.585786 13.75 0.25 13.4142 0.25 13V11C0.25 10.5858 0.585786 10.25 1 10.25C1.8897 10.25 2.67255 9.6502 2.87643 8.90266C2.88251 8.88034 2.88963 8.85832 2.89775 8.83666C3.16129 8.13388 3.25 7.5251 3.25 6.8V6ZM7 3.75C5.71421 3.75 4.75 4.71421 4.75 6V6.8C4.75 7.66478 4.64126 8.44782 4.31382 9.33227C3.97406 10.5227 2.9466 11.4032 1.75 11.6677V12.3323C2.94107 12.5956 3.96458 13.4692 4.30908 14.6513C4.64861 15.4679 4.75 16.3623 4.75 17.2V18C4.75 19.2858 5.71421 20.25 7 20.25H17C18.2858 20.25 19.25 19.2858 19.25 18V17.2C19.25 16.3262 19.361 15.5359 19.6965 14.64C20.1088 13.5098 21.0495 12.6038 22.25 12.333V11.6677C21.0589 11.4044 20.0354 10.5308 19.6909 9.34873C19.3514 8.53213 19.25 7.63767 19.25 6.8V6C19.25 4.71421 18.2858 3.75 17 3.75H7Z" fill="black"/>
<path fill-rule="evenodd" clip-rule="evenodd" d="M9.0498 7.7998C9.0498 7.38559 9.38559 7.0498 9.7998 7.0498H12.6998C14.314 7.0498 15.5498 8.28559 15.5498 9.8998C15.5498 10.7443 15.2116 11.4852 14.6579 11.9998C15.2116 12.5144 15.5498 13.2553 15.5498 14.0998C15.5498 15.714 14.314 16.9498 12.6998 16.9498H9.7998C9.38559 16.9498 9.0498 16.614 9.0498 16.1998V7.7998ZM10.5498 12.7498H12.6998C13.4856 12.7498 14.0498 13.314 14.0498 14.0998C14.0498 14.8856 13.4856 15.4498 12.6998 15.4498H10.5498V12.7498ZM10.5498 11.2498V8.5498H12.6998C13.4856 8.5498 14.0498 9.11402 14.0498 9.8998C14.0498 10.6856 13.4856 11.2498 12.6998 11.2498H10.5498Z" fill="black"/>
</svg>
