<svg width="24" height="24" viewBox="0 0 24 24" fill="none" xmlns="http://www.w3.org/2000/svg">
<path fill-rule="evenodd" clip-rule="evenodd" d="M2.52091 7.06392C2.72838 6.70541 3.1872 6.58297 3.54571 6.79044L11.9999 11.6829L20.3941 6.82056C20.7525 6.61294 21.2114 6.7352 21.419 7.09362C21.6266 7.45205 21.5044 7.91091 21.1459 8.11853L12.376 13.1985C12.1435 13.3332 11.8569 13.3332 11.6244 13.1987L2.79439 8.08871C2.43588 7.88124 2.31344 7.42243 2.52091 7.06392Z" fill="black"/>
<path fill-rule="evenodd" clip-rule="evenodd" d="M12 11.79C12.4142 11.79 12.75 12.1258 12.75 12.54V21.61C12.75 22.0243 12.4142 22.36 12 22.36C11.5858 22.36 11.25 22.0243 11.25 21.61V12.54C11.25 12.1258 11.5858 11.79 12 11.79Z" fill="black"/>
<path fill-rule="evenodd" clip-rule="evenodd" d="M14.4349 1.82498L14.4368 1.82601L19.7729 4.78389C20.5229 5.19922 21.161 5.89736 21.6094 6.65782C22.0578 7.41831 22.3596 8.31395 22.3596 9.17V12.83C22.3596 13.2442 22.0238 13.58 21.6096 13.58C21.1954 13.58 20.8596 13.2442 20.8596 12.83V9.17C20.8596 8.64606 20.6664 8.0117 20.3173 7.4197C19.9683 6.82777 19.5063 6.35084 19.0463 6.09615L13.7025 3.134C13.2722 2.89242 12.6568 2.75 11.9996 2.75C11.3424 2.75 10.7271 2.89241 10.2968 3.13399L10.2932 3.13597L4.95324 6.09599C4.49328 6.35067 4.03097 6.82777 3.68194 7.4197C3.33287 8.0117 3.13965 8.64606 3.13965 9.17V14.83C3.13965 15.354 3.33287 15.9883 3.68194 16.5803C4.03097 17.1723 4.49298 17.6492 4.95294 17.9039L10.2968 20.866C10.7271 21.1076 11.3424 21.25 11.9996 21.25C12.6569 21.25 13.2722 21.1076 13.7025 20.8661C14.0637 20.6633 14.5209 20.7917 14.7236 21.1529C14.9264 21.5141 14.798 21.9713 14.4368 22.174C13.7271 22.5725 12.8424 22.75 11.9996 22.75C11.1576 22.75 10.2737 22.5728 9.56428 22.175L9.56248 22.174L4.22632 19.2161C3.47641 18.8008 2.83824 18.1027 2.38984 17.3422C1.94142 16.5817 1.63965 15.6861 1.63965 14.83V9.17C1.63965 8.31395 1.94142 7.41831 2.38984 6.65782C2.83824 5.89736 3.47611 5.19939 4.22602 4.78406L9.56432 1.82498C10.2737 1.42729 11.1576 1.25 11.9996 1.25C12.8417 1.25 13.7256 1.42729 14.4349 1.82498Z" fill="black"/>
<path fill-rule="evenodd" clip-rule="evenodd" d="M19.2 15.75C17.8469 15.75 16.75 16.8469 16.75 18.2C16.75 19.5531 17.8469 20.65 19.2 20.65C20.5531 20.65 21.65 19.5531 21.65 18.2C21.65 16.8469 20.5531 15.75 19.2 15.75ZM15.25 18.2C15.25 16.0185 17.0185 14.25 19.2 14.25C21.3815 14.25 23.15 16.0185 23.15 18.2C23.15 20.3815 21.3815 22.15 19.2 22.15C17.0185 22.15 15.25 20.3815 15.25 18.2Z" fill="black"/>
<path fill-rule="evenodd" clip-rule="evenodd" d="M21.4697 20.4697C21.7626 20.1768 22.2374 20.1768 22.5303 20.4697L23.5303 21.4697C23.8232 21.7626 23.8232 22.2374 23.5303 22.5303C23.2374 22.8232 22.7626 22.8232 22.4697 22.5303L21.4697 21.5303C21.1768 21.2374 21.1768 20.7626 21.4697 20.4697Z" fill="black"/>
</svg>
