<svg width="24" height="24" viewBox="0 0 24 24" fill="none" xmlns="http://www.w3.org/2000/svg">
<path fill-rule="evenodd" clip-rule="evenodd" d="M2.52091 7.06392C2.72838 6.70541 3.1872 6.58297 3.54571 6.79044L11.9999 11.6829L20.3941 6.82056C20.7525 6.61294 21.2114 6.7352 21.419 7.09362C21.6266 7.45205 21.5044 7.91091 21.1459 8.11853L12.376 13.1985C12.1435 13.3332 11.8569 13.3332 11.6244 13.1987L2.79439 8.08871C2.43588 7.88124 2.31344 7.42243 2.52091 7.06392Z" fill="black"/>
<path fill-rule="evenodd" clip-rule="evenodd" d="M12 11.79C12.4142 11.79 12.75 12.1258 12.75 12.54V21.61C12.75 22.0243 12.4142 22.36 12 22.36C11.5858 22.36 11.25 22.0243 11.25 21.61V12.54C11.25 12.1258 11.5858 11.79 12 11.79Z" fill="black"/>
<path fill-rule="evenodd" clip-rule="evenodd" d="M12.0006 2.75C11.3434 2.75 10.7281 2.89241 10.2978 3.13399L10.2942 3.13597L4.95422 6.09599C4.49425 6.35067 4.03195 6.82777 3.68292 7.4197C3.33385 8.0117 3.14062 8.64606 3.14062 9.17V14.83C3.14062 15.354 3.33385 15.9883 3.68292 16.5803C4.03195 17.1723 4.49396 17.6492 4.95392 17.9039L10.2978 20.866C10.7281 21.1076 11.3434 21.25 12.0006 21.25C12.6578 21.25 13.2731 21.1076 13.7035 20.8661L13.7082 20.8634L14.8228 20.2483C14.4554 19.5773 14.2506 18.807 14.2506 18C14.2506 16.5059 14.9392 15.1621 16.0334 14.2933C16.8493 13.6431 17.8823 13.25 19.0006 13.25C19.6631 13.25 20.2906 13.3838 20.8606 13.6284V9.17C20.8606 8.64606 20.6674 8.0117 20.3183 7.4197C19.9693 6.82777 19.5073 6.35084 19.0473 6.09615L13.7035 3.134C13.2731 2.89242 12.6578 2.75 12.0006 2.75ZM14.4359 1.82498C13.7266 1.42729 12.8427 1.25 12.0006 1.25C11.1585 1.25 10.2747 1.42729 9.56529 1.82498L4.2273 4.78389C3.47738 5.19922 2.83921 5.89736 2.39081 6.65782C1.94239 7.41831 1.64062 8.31395 1.64062 9.17V14.83C1.64062 15.6861 1.94239 16.5817 2.39081 17.3422C2.83921 18.1027 3.47709 18.8007 4.227 19.216C4.2269 19.2159 4.2271 19.216 4.227 19.216L9.56345 22.174C9.56405 22.1744 9.56466 22.1747 9.56526 22.175C10.2746 22.5727 11.1585 22.75 12.0006 22.75C12.8424 22.75 13.7261 22.5728 14.4354 22.1754C14.4362 22.1749 14.437 22.1745 14.4378 22.174L16.263 21.1667C16.4605 21.0576 16.5985 20.8655 16.6386 20.6435C16.6788 20.4215 16.6169 20.1932 16.47 20.0219C16.3742 19.9101 16.295 19.8002 16.2343 19.6923C16.2294 19.6836 16.2242 19.6749 16.219 19.6663C15.9211 19.1833 15.7506 18.6094 15.7506 18C15.7506 16.9746 16.2216 16.0588 16.9668 15.4675L16.9681 15.4665C17.5322 15.0169 18.2391 14.75 19.0006 14.75C19.8144 14.75 20.5406 15.0411 21.1079 15.5354C21.3095 15.7111 21.5893 15.7661 21.8424 15.6799C22.0955 15.5937 22.2836 15.3793 22.3361 15.1171C22.3609 14.9927 22.3607 14.8886 22.3606 14.8385C22.3606 14.8355 22.3606 14.8326 22.3606 14.83V9.17C22.3606 8.31395 22.0588 7.41831 21.6104 6.65782C21.162 5.89736 20.5241 5.19939 19.7742 4.78406C19.7741 4.784 19.7743 4.78411 19.7742 4.78406L14.4378 1.82601C14.4372 1.82567 14.4365 1.82532 14.4359 1.82498Z" fill="black"/>
<path fill-rule="evenodd" clip-rule="evenodd" d="M19.0006 14.75C18.2391 14.75 17.5322 15.0169 16.9681 15.4665L16.9668 15.4675C16.2216 16.0588 15.7506 16.9746 15.7506 18C15.7506 18.6094 15.9211 19.1833 16.219 19.6663L16.2247 19.6765C16.7845 20.6177 17.8141 21.25 19 21.25C19.8227 21.25 20.5645 20.9499 21.1283 20.4425C21.1348 20.4367 21.1414 20.431 21.148 20.4254C21.391 20.2216 21.6052 19.9684 21.7722 19.6821L21.7816 19.6663C22.0795 19.1833 22.25 18.6094 22.25 18C22.25 16.2042 20.7964 14.75 19.0006 14.75ZM16.0334 14.2933C16.8493 13.6431 17.8823 13.25 19.0006 13.25C21.6248 13.25 23.75 15.3758 23.75 18C23.75 18.8874 23.5023 19.7305 23.0632 20.4459C22.8131 20.8725 22.4925 21.2535 22.122 21.5662C21.2871 22.3134 20.1927 22.75 19 22.75C17.268 22.75 15.7594 21.8246 14.9385 20.4486C14.4983 19.7327 14.2506 18.8885 14.2506 18C14.2506 16.5059 14.9392 15.1621 16.0334 14.2933Z" fill="black"/>
<path fill-rule="evenodd" clip-rule="evenodd" d="M17.4186 16.4006C17.7108 16.107 18.1857 16.1059 18.4793 16.3981L20.5993 18.5081C20.8928 18.8003 20.894 19.2752 20.6018 19.5687C20.3096 19.8623 19.8347 19.8635 19.5411 19.5713L17.4211 17.4613C17.1275 17.1691 17.1264 16.6942 17.4186 16.4006Z" fill="black"/>
<path fill-rule="evenodd" clip-rule="evenodd" d="M20.5813 16.4309C20.8735 16.7245 20.8723 17.1993 20.5788 17.4915L18.4588 19.6015C18.1652 19.8937 17.6903 19.8926 17.3981 19.599C17.1059 19.3054 17.107 18.8306 17.4006 18.5384L19.5206 16.4284C19.8142 16.1362 20.2891 16.1373 20.5813 16.4309Z" fill="black"/>
</svg>
