<svg width="24" height="24" viewBox="0 0 24 24" fill="none" xmlns="http://www.w3.org/2000/svg">
<path fill-rule="evenodd" clip-rule="evenodd" d="M19 14.75C18.2385 14.75 17.5316 15.0169 16.9675 15.4665L16.9662 15.4675C16.221 16.0588 15.75 16.9745 15.75 18C15.75 18.6094 15.9205 19.1833 16.2184 19.6663C16.2237 19.6749 16.2288 19.6835 16.2337 19.6923C16.2944 19.8002 16.3736 19.9101 16.4694 20.0219C16.473 20.026 16.4764 20.0302 16.4799 20.0344C16.4881 20.0427 16.4987 20.0539 16.5096 20.0659C16.5234 20.0812 16.5406 20.1011 16.5591 20.1253C17.1418 20.8116 18.0178 21.25 19 21.25C19.8227 21.25 20.5645 20.9499 21.1283 20.4425C21.1348 20.4367 21.1414 20.431 21.148 20.4254C21.391 20.2216 21.6051 19.9684 21.7722 19.6821L21.7816 19.6663C22.0795 19.1833 22.25 18.6094 22.25 18C22.25 17.1507 21.9194 16.3784 21.3771 15.7868L21.375 15.7845C21.2886 15.6895 21.2152 15.6189 21.15 15.57C21.1353 15.559 21.1211 15.5474 21.1073 15.5354C20.54 15.0411 19.8138 14.75 19 14.75ZM16.0332 14.293C16.849 13.6429 17.8818 13.25 19 13.25C20.1769 13.25 21.2432 13.6722 22.0731 14.3876C22.2373 14.5139 22.3756 14.6553 22.4839 14.7744C23.261 15.6227 23.75 16.7499 23.75 18C23.75 18.8874 23.5023 19.7306 23.0632 20.4459C22.8131 20.8725 22.4925 21.2534 22.122 21.5662C21.2871 22.3134 20.1927 22.75 19 22.75C17.5502 22.75 16.2523 22.0956 15.3949 21.0715C15.3933 21.0696 15.3917 21.0676 15.3901 21.0657C15.3819 21.0573 15.3713 21.0462 15.3604 21.0341C15.3469 21.0193 15.3304 21.0001 15.3124 20.9768C15.1777 20.8176 15.0466 20.639 14.9339 20.4412C14.4966 19.7269 14.25 18.8855 14.25 18C14.25 16.5058 14.9387 15.1617 16.0332 14.293Z" fill="black"/>
<path fill-rule="evenodd" clip-rule="evenodd" d="M16.7598 17.9805C16.7598 17.5663 17.0956 17.2305 17.5098 17.2305H20.4898C20.904 17.2305 21.2398 17.5663 21.2398 17.9805C21.2398 18.3947 20.904 18.7305 20.4898 18.7305H17.5098C17.0956 18.7305 16.7598 18.3947 16.7598 17.9805Z" fill="black"/>
<path fill-rule="evenodd" clip-rule="evenodd" d="M19 15.7695C19.4142 15.7695 19.75 16.1053 19.75 16.5195V19.5095C19.75 19.9237 19.4142 20.2595 19 20.2595C18.5858 20.2595 18.25 19.9237 18.25 19.5095V16.5195C18.25 16.1053 18.5858 15.7695 19 15.7695Z" fill="black"/>
<path fill-rule="evenodd" clip-rule="evenodd" d="M2.52091 7.06392C2.72838 6.70541 3.1872 6.58297 3.54571 6.79044L11.9999 11.6829L20.3941 6.82056C20.7526 6.61294 21.2114 6.7352 21.419 7.09362C21.6267 7.45205 21.5044 7.91091 21.146 8.11853L12.376 13.1985C12.1435 13.3332 11.8569 13.3332 11.6244 13.1987L2.79439 8.08872C2.43588 7.88124 2.31344 7.42243 2.52091 7.06392Z" fill="black"/>
<path fill-rule="evenodd" clip-rule="evenodd" d="M12 11.79C12.4142 11.79 12.75 12.1258 12.75 12.54V21.61C12.75 22.0243 12.4142 22.36 12 22.36C11.5858 22.36 11.25 22.0243 11.25 21.61V12.54C11.25 12.1258 11.5858 11.79 12 11.79Z" fill="black"/>
<path fill-rule="evenodd" clip-rule="evenodd" d="M11.9996 2.75C11.3424 2.75 10.7271 2.89241 10.2968 3.13399L10.2933 3.13597L4.95325 6.09599C4.49329 6.35068 4.03098 6.82777 3.68195 7.41971C3.33287 8.01171 3.13965 8.64606 3.13965 9.17V14.83C3.13965 15.354 3.33287 15.9883 3.68195 16.5803C4.03098 17.1723 4.49299 17.6492 4.95296 17.9039L10.2968 20.866C10.7271 21.1076 11.3424 21.25 11.9996 21.25C12.6569 21.25 13.2722 21.1076 13.7025 20.8661L13.7072 20.8634L14.8218 20.2483C14.4545 19.5773 14.25 18.8069 14.25 18C14.25 16.5058 14.9387 15.1617 16.0332 14.293C16.849 13.6429 17.8818 13.25 19 13.25C19.6625 13.25 20.2896 13.3838 20.8596 13.6284V9.17C20.8596 8.64606 20.6664 8.01171 20.3174 7.41971C19.9683 6.82777 19.5063 6.35084 19.0463 6.09615L13.7025 3.134C13.2722 2.89242 12.6569 2.75 11.9996 2.75ZM14.435 1.82498C13.7256 1.42729 12.8417 1.25 11.9996 1.25C11.1576 1.25 10.2737 1.42729 9.56433 1.82498L4.22633 4.78389C3.47642 5.19922 2.83825 5.89736 2.38985 6.65782C1.94142 7.41831 1.63965 8.31395 1.63965 9.17V14.83C1.63965 15.6861 1.94142 16.5817 2.38985 17.3422C2.83825 18.1027 3.47613 18.8007 4.22604 19.216C4.22594 19.2159 4.22614 19.216 4.22604 19.216L9.56249 22.174C9.56309 22.1744 9.5637 22.1747 9.5643 22.175C10.2737 22.5727 11.1576 22.75 11.9996 22.75C12.8415 22.75 13.7251 22.5728 14.4344 22.1754C14.4352 22.1749 14.436 22.1745 14.4368 22.174L16.2621 21.1667C16.4596 21.0576 16.5975 20.8655 16.6377 20.6435C16.6778 20.4215 16.6163 20.1932 16.4694 20.0219C16.3736 19.9101 16.2944 19.8002 16.2337 19.6923C16.2288 19.6835 16.2237 19.6749 16.2184 19.6663C15.9205 19.1833 15.75 18.6094 15.75 18C15.75 16.9745 16.221 16.0588 16.9662 15.4675L16.9675 15.4665C17.5316 15.0169 18.2385 14.75 19 14.75C19.8138 14.75 20.54 15.0411 21.1073 15.5354C21.3089 15.7111 21.5884 15.7661 21.8415 15.6799C22.0946 15.5937 22.2827 15.3793 22.3351 15.1171C22.36 14.9927 22.3598 14.8887 22.3597 14.8384C22.3597 14.8354 22.3596 14.8326 22.3596 14.83V9.17C22.3596 8.31395 22.0579 7.41831 21.6095 6.65782C21.161 5.89736 20.5232 5.19939 19.7733 4.78406C19.7732 4.784 19.7734 4.78411 19.7733 4.78406L14.4368 1.82601C14.4362 1.82567 14.4356 1.82532 14.435 1.82498Z" fill="black"/>
</svg>
