<svg width="24" height="24" viewBox="0 0 24 24" fill="none" xmlns="http://www.w3.org/2000/svg">
<path fill-rule="evenodd" clip-rule="evenodd" d="M22.2504 17.927C22.2097 16.1309 20.7228 14.7093 18.9271 14.7499L18.9261 14.7499C18.1667 14.7661 17.4673 15.0481 16.9086 15.5076C16.1784 16.117 15.7256 17.0408 15.75 18.0622L15.7501 18.0701C15.7582 18.6733 15.9434 19.2469 16.2507 19.724L16.2583 19.7361C16.8316 20.6646 17.8745 21.2735 19.0613 21.2503C19.8864 21.225 20.6224 20.9075 21.1801 20.3902L21.1884 20.3825C21.4313 20.1639 21.6477 19.8982 21.8045 19.6158L21.8143 19.5989C22.1064 19.1039 22.2665 18.5321 22.2504 17.93L22.2504 17.927ZM23.7499 17.8916C23.6898 15.2686 21.5173 13.1912 18.8937 13.2503C17.7742 13.2742 16.7543 13.6915 15.9534 14.3511L15.95 14.3539C14.8822 15.2437 14.2159 16.5978 14.2503 18.094C14.263 18.9868 14.536 19.8295 14.9858 20.5302C15.8327 21.8973 17.3664 22.7854 19.0956 22.7499L19.1024 22.7497C20.294 22.7143 21.3751 22.2535 22.1961 21.4938C22.5492 21.1752 22.8694 20.7854 23.111 20.3529C23.5356 19.6301 23.7735 18.7855 23.7499 17.8916Z" fill="black"/>
<path fill-rule="evenodd" clip-rule="evenodd" d="M21.0787 16.4485C21.3666 16.7463 21.3585 17.2211 21.0607 17.509L18.9707 19.529C18.6817 19.8083 18.224 19.8102 17.9328 19.5334L16.9228 18.5734C16.6225 18.2881 16.6105 17.8133 16.8958 17.5131C17.1812 17.2129 17.6559 17.2008 17.9561 17.4862L18.4451 17.9509L20.0182 16.4304C20.3161 16.1426 20.7909 16.1507 21.0787 16.4485Z" fill="black"/>
<path fill-rule="evenodd" clip-rule="evenodd" d="M2.52091 7.06392C2.72838 6.70541 3.1872 6.58297 3.54571 6.79044L11.9999 11.6829L20.3941 6.82056C20.7525 6.61294 21.2114 6.7352 21.419 7.09362C21.6266 7.45205 21.5044 7.91091 21.1459 8.11853L12.376 13.1985C12.1435 13.3332 11.8569 13.3332 11.6244 13.1987L2.79439 8.08871C2.43588 7.88124 2.31344 7.42243 2.52091 7.06392Z" fill="black"/>
<path fill-rule="evenodd" clip-rule="evenodd" d="M12 11.79C12.4142 11.79 12.75 12.1258 12.75 12.54V21.61C12.75 22.0243 12.4142 22.36 12 22.36C11.5858 22.36 11.25 22.0243 11.25 21.61V12.54C11.25 12.1258 11.5858 11.79 12 11.79Z" fill="black"/>
<path fill-rule="evenodd" clip-rule="evenodd" d="M11.9996 2.75C11.3424 2.75 10.7271 2.89241 10.2968 3.13399L10.2932 3.13597L4.95324 6.09599C4.49328 6.35067 4.03097 6.82777 3.68194 7.4197C3.33287 8.0117 3.13965 8.64606 3.13965 9.17V14.83C3.13965 15.354 3.33287 15.9883 3.68194 16.5803C4.03097 17.1723 4.49298 17.6492 4.95294 17.9039L10.2968 20.866C10.7271 21.1076 11.3424 21.25 11.9996 21.25C12.6568 21.25 13.2722 21.1076 13.7025 20.8661L13.7072 20.8634L14.8218 20.2483C14.4544 19.5773 14.2496 18.807 14.2496 18C14.2496 16.5059 14.9382 15.1621 16.0324 14.2933C16.8483 13.6431 17.8813 13.25 18.9996 13.25C19.6621 13.25 20.2896 13.3838 20.8596 13.6284V9.17C20.8596 8.64606 20.6664 8.0117 20.3173 7.4197C19.9683 6.82777 19.5063 6.35084 19.0463 6.09615L13.7025 3.134C13.2722 2.89242 12.6568 2.75 11.9996 2.75ZM14.4349 1.82498C13.7256 1.42729 12.8417 1.25 11.9996 1.25C11.1576 1.25 10.2737 1.42729 9.56432 1.82498L4.22632 4.78389C3.47641 5.19922 2.83824 5.89736 2.38984 6.65782C1.94142 7.41831 1.63965 8.31395 1.63965 9.17V14.83C1.63965 15.6861 1.94142 16.5817 2.38984 17.3422C2.83824 18.1027 3.47611 18.8007 4.22602 19.216C4.22592 19.2159 4.22612 19.216 4.22602 19.216L9.56248 22.174C9.56308 22.1744 9.56368 22.1747 9.56428 22.175C10.2737 22.5727 11.1576 22.75 11.9996 22.75C12.8415 22.75 13.7251 22.5728 14.4344 22.1754C14.4352 22.1749 14.436 22.1745 14.4368 22.174L16.262 21.1667C16.4596 21.0576 16.5975 20.8655 16.6377 20.6435C16.6778 20.4215 16.6159 20.1932 16.4691 20.0219C16.3732 19.9101 16.294 19.8002 16.2333 19.6923C16.2284 19.6836 16.2233 19.6749 16.218 19.6663C15.9201 19.1833 15.7496 18.6094 15.7496 18C15.7496 16.9746 16.2206 16.0588 16.9658 15.4675L16.9671 15.4665C17.5312 15.0169 18.2381 14.75 18.9996 14.75C19.8135 14.75 20.5396 15.0411 21.1069 15.5354C21.3085 15.7111 21.5884 15.7661 21.8415 15.6799C22.0946 15.5937 22.2826 15.3793 22.3351 15.1171C22.3599 14.9927 22.3597 14.8886 22.3596 14.8385C22.3596 14.8355 22.3596 14.8326 22.3596 14.83V9.17C22.3596 8.31395 22.0578 7.41831 21.6094 6.65782C21.161 5.89736 20.5232 5.19939 19.7732 4.78406C19.7731 4.784 19.7733 4.78411 19.7732 4.78406L14.4368 1.82601C14.4362 1.82567 14.4356 1.82532 14.4349 1.82498Z" fill="black"/>
</svg>
