<svg width="24" height="24" viewBox="0 0 24 24" fill="none" xmlns="http://www.w3.org/2000/svg">
<path fill-rule="evenodd" clip-rule="evenodd" d="M2.37333 6.81723C3.25874 5.76457 4.77675 5.25 6.99979 5.25H16.9998C19.2228 5.25 20.7408 5.76457 21.6262 6.81723C22.5031 7.85966 22.5865 9.22916 22.4459 10.5061L21.6956 18.5099C21.5854 19.538 21.3273 20.6651 20.4094 21.5037C19.4983 22.3361 18.0866 22.75 15.9998 22.75H7.99979C5.91294 22.75 4.50132 22.3361 3.59017 21.5037C2.67224 20.6651 2.41421 19.538 2.30406 18.5099L2.303 18.5L1.55364 10.5061C1.41311 9.22917 1.49651 7.85967 2.37333 6.81723ZM3.52125 7.78277C3.04952 8.3436 2.91674 9.18629 3.04524 10.3475L3.04662 10.36L3.79604 18.3549C3.89609 19.2843 4.1032 19.9407 4.6019 20.3963C5.10826 20.8589 6.06664 21.25 7.99979 21.25H15.9998C17.9329 21.25 18.8913 20.8589 19.3977 20.3963C19.8964 19.9407 20.1035 19.2843 20.2035 18.3549L20.9542 10.3475C21.0827 9.18628 20.9501 8.3436 20.4783 7.78277C20.0137 7.23043 19.0468 6.75 16.9998 6.75H6.99979C4.95282 6.75 3.98584 7.23043 3.52125 7.78277Z" fill="black"/>
<path fill-rule="evenodd" clip-rule="evenodd" d="M8.79369 4.05038C8.75121 4.37577 8.75 4.74554 8.75 5.2V6C8.75 6.41421 8.41422 6.75 8 6.75C7.58579 6.75 7.25 6.41421 7.25 6L7.25 5.17401C7.24998 4.75048 7.24995 4.28789 7.30631 3.85619C7.36471 3.40889 7.48985 2.93401 7.78302 2.50983C8.39976 1.61749 9.52951 1.25 11.2 1.25H12.8C14.4705 1.25 15.6002 1.61749 16.217 2.50983C16.5102 2.93401 16.6353 3.40889 16.6937 3.85619C16.7501 4.28789 16.75 4.75049 16.75 5.17402L16.75 6C16.75 6.41421 16.4142 6.75 16 6.75C15.5858 6.75 15.25 6.41421 15.25 6V5.2C15.25 4.74554 15.2488 4.37577 15.2063 4.05038C15.1647 3.73174 15.0899 3.51724 14.983 3.36267C14.7998 3.09751 14.3295 2.75 12.8 2.75H11.2C9.67049 2.75 9.20025 3.09751 9.01698 3.36267C8.91015 3.51724 8.83529 3.73174 8.79369 4.05038Z" fill="black"/>
<path fill-rule="evenodd" clip-rule="evenodd" d="M10.7508 12.7508C10.75 12.8222 10.75 12.9036 10.75 13V14.03C10.75 14.3115 10.7525 14.5186 10.7769 14.6943C10.8004 14.8632 10.8378 14.9454 10.8694 14.9901C10.9047 15.0399 11.0806 15.25 12 15.25C12.9236 15.25 13.0974 15.0378 13.1319 14.9885C13.1638 14.9431 13.201 14.8596 13.2241 14.6887C13.2482 14.511 13.25 14.3029 13.25 14.02V13C13.25 12.9036 13.25 12.8222 13.2492 12.7508C13.1778 12.75 13.0965 12.75 13 12.75H11C10.9036 12.75 10.8222 12.75 10.7508 12.7508ZM10.9672 11.25C10.9781 11.25 10.9891 11.25 11 11.25H13C13.0109 11.25 13.0219 11.25 13.0329 11.25C13.254 11.25 13.4781 11.2499 13.661 11.2702C13.8474 11.2909 14.157 11.3463 14.4053 11.5947C14.6537 11.8431 14.7091 12.1527 14.7298 12.3391C14.7501 12.5219 14.7501 12.746 14.75 12.9672C14.75 12.9781 14.75 12.9891 14.75 13V14.0312C14.75 14.291 14.75 14.5983 14.7106 14.8898C14.6696 15.1923 14.58 15.5357 14.3606 15.849C13.8926 16.5172 13.0664 16.75 12 16.75C10.9394 16.75 10.1153 16.5202 9.64562 15.8575C9.42476 15.5458 9.33335 15.2037 9.29123 14.901C9.25005 14.6052 9.25001 14.2935 9.25001 14.03V13C9.25001 12.9891 9.25001 12.9781 9.25 12.9672C9.24995 12.746 9.2499 12.5219 9.27022 12.3391C9.29093 12.1527 9.34631 11.8431 9.59468 11.5947C9.84305 11.3463 10.1527 11.2909 10.3391 11.2702C10.5219 11.2499 10.746 11.25 10.9672 11.25Z" fill="black"/>
<path fill-rule="evenodd" clip-rule="evenodd" d="M22.2566 10.5589C22.5003 10.8939 22.4262 11.363 22.0912 11.6066C19.6751 13.3638 16.9146 14.409 14.0938 14.7642C13.6828 14.8159 13.3077 14.5247 13.256 14.1138C13.2042 13.7028 13.4954 13.3277 13.9064 13.2759C16.4856 12.9511 19.0051 11.9963 21.209 10.3935C21.5439 10.1499 22.013 10.2239 22.2566 10.5589Z" fill="black"/>
<path fill-rule="evenodd" clip-rule="evenodd" d="M2.00128 10.846C2.23523 10.5042 2.70198 10.4167 3.0438 10.6507C5.19269 12.1215 7.61593 13.008 10.0836 13.2843C10.4953 13.3304 10.7916 13.7014 10.7455 14.1131C10.6994 14.5247 10.3284 14.821 9.91673 14.7749C7.20444 14.4713 4.54768 13.4977 2.19658 11.8885C1.85476 11.6546 1.76732 11.1878 2.00128 10.846Z" fill="black"/>
</svg>
