<svg width="24" height="24" viewBox="0 0 24 24" fill="none" xmlns="http://www.w3.org/2000/svg">
<path fill-rule="evenodd" clip-rule="evenodd" d="M12 10.9502C10.2051 10.9502 8.75 12.4053 8.75 14.2002C8.75 15.9951 10.2051 17.4502 12 17.4502C13.7949 17.4502 15.25 15.9951 15.25 14.2002C15.25 12.4053 13.7949 10.9502 12 10.9502ZM7.25 14.2002C7.25 11.5768 9.37665 9.4502 12 9.4502C14.6234 9.4502 16.75 11.5768 16.75 14.2002C16.75 16.8235 14.6234 18.9502 12 18.9502C9.37665 18.9502 7.25 16.8235 7.25 14.2002Z" fill="black"/>
<path fill-rule="evenodd" clip-rule="evenodd" d="M10.4186 12.6711C10.7108 12.3775 11.1857 12.3764 11.4793 12.6686L13.5993 14.7786C13.8929 15.0708 13.894 15.5457 13.6018 15.8393C13.3096 16.1329 12.8347 16.134 12.5411 15.8418L10.4211 13.7318C10.1275 13.4396 10.1264 12.9647 10.4186 12.6711Z" fill="black"/>
<path fill-rule="evenodd" clip-rule="evenodd" d="M13.58 12.6894C13.8729 12.9823 13.8729 13.4572 13.58 13.7501L11.46 15.8701C11.1671 16.1629 10.6923 16.1629 10.3994 15.8701C10.1065 15.5772 10.1065 15.1023 10.3994 14.8094L12.5194 12.6894C12.8123 12.3965 13.2871 12.3965 13.58 12.6894Z" fill="black"/>
<path fill-rule="evenodd" clip-rule="evenodd" d="M2.37333 6.81723C3.25874 5.76457 4.77675 5.25 6.99979 5.25H16.9998C19.2228 5.25 20.7408 5.76457 21.6262 6.81723C22.5031 7.85966 22.5865 9.22916 22.4459 10.5061L21.6956 18.5099C21.5854 19.538 21.3273 20.6651 20.4094 21.5037C19.4983 22.3361 18.0866 22.75 15.9998 22.75H7.99979C5.91294 22.75 4.50132 22.3361 3.59017 21.5037C2.67224 20.6651 2.41421 19.538 2.30406 18.5099L2.303 18.5L1.55364 10.5061C1.41311 9.22917 1.49651 7.85967 2.37333 6.81723ZM3.52125 7.78277C3.04952 8.3436 2.91674 9.18629 3.04524 10.3475L3.04662 10.36L3.79604 18.3549C3.89609 19.2843 4.1032 19.9407 4.6019 20.3963C5.10826 20.8589 6.06664 21.25 7.99979 21.25H15.9998C17.9329 21.25 18.8913 20.8589 19.3977 20.3963C19.8964 19.9407 20.1035 19.2843 20.2035 18.3549L20.9542 10.3475C21.0827 9.18628 20.9501 8.3436 20.4783 7.78277C20.0137 7.23043 19.0468 6.75 16.9998 6.75H6.99979C4.95282 6.75 3.98584 7.23043 3.52125 7.78277Z" fill="black"/>
<path fill-rule="evenodd" clip-rule="evenodd" d="M8.79369 4.05038C8.75121 4.37577 8.75 4.74554 8.75 5.2V6C8.75 6.41421 8.41422 6.75 8 6.75C7.58579 6.75 7.25 6.41421 7.25 6L7.25 5.17401C7.24998 4.75048 7.24995 4.28789 7.30631 3.85619C7.36471 3.40889 7.48985 2.93401 7.78302 2.50983C8.39976 1.61749 9.52951 1.25 11.2 1.25H12.8C14.4705 1.25 15.6002 1.61749 16.217 2.50983C16.5102 2.93401 16.6353 3.40889 16.6937 3.85619C16.7501 4.28789 16.75 4.75049 16.75 5.17402L16.75 6C16.75 6.41421 16.4142 6.75 16 6.75C15.5858 6.75 15.25 6.41421 15.25 6V5.2C15.25 4.74554 15.2488 4.37577 15.2063 4.05038C15.1647 3.73174 15.0899 3.51724 14.983 3.36267C14.7998 3.09751 14.3295 2.75 12.8 2.75H11.2C9.67049 2.75 9.20025 3.09751 9.01698 3.36267C8.91015 3.51724 8.83529 3.73174 8.79369 4.05038Z" fill="black"/>
<path fill-rule="evenodd" clip-rule="evenodd" d="M22.2562 10.5585C22.5 10.8933 22.4263 11.3624 22.0915 11.6063C20.2821 12.9241 18.2739 13.8445 16.1927 14.3674C15.791 14.4684 15.3835 14.2245 15.2826 13.8228C15.1816 13.4211 15.4255 13.0136 15.8272 12.9127C17.726 12.4356 19.5578 11.596 21.2084 10.3938C21.5432 10.1499 22.0123 10.2237 22.2562 10.5585Z" fill="black"/>
<path fill-rule="evenodd" clip-rule="evenodd" d="M2.00075 10.8468C2.23429 10.5047 2.70093 10.4166 3.04304 10.6502C4.63987 11.7402 6.37695 12.5126 8.17755 12.9509C8.58002 13.0488 8.82687 13.4545 8.72892 13.857C8.63096 14.2594 8.22529 14.5063 7.82283 14.4083C5.84343 13.9266 3.94051 13.079 2.19734 11.889C1.85524 11.6555 1.76722 11.1889 2.00075 10.8468Z" fill="black"/>
</svg>
