<svg width="24" height="24" viewBox="0 0 24 24" fill="none" xmlns="http://www.w3.org/2000/svg">
<path fill-rule="evenodd" clip-rule="evenodd" d="M7.66903 3.49901C7.31514 2.9154 6.53724 2.72488 5.94921 3.08145C5.3658 3.43523 5.17521 4.21271 5.53127 4.80065L6.70085 6.71996L8.83926 5.4194L7.66903 3.49901ZM8.9511 2.72036C8.16475 1.42467 6.46314 1.01559 5.17146 1.79884C3.87508 2.58494 3.46559 4.28704 4.24903 5.57902L5.80988 8.14042C6.02529 8.49392 6.48638 8.60604 6.84006 8.39094L10.2601 6.31092C10.4301 6.2075 10.5521 6.04073 10.5991 5.84734C10.6461 5.65396 10.6144 5.4498 10.5108 5.27985L8.95164 2.72125L8.9511 2.72036Z" fill="black"/>
<path fill-rule="evenodd" clip-rule="evenodd" d="M11.4301 8.51932C13.6167 7.18852 16.2925 7.83675 17.7125 9.75373L20.484 13.4958C21.631 15.0553 21.231 17.1895 19.5589 18.2013L19.5578 18.2019L13.1314 22.1098C11.4716 23.1324 9.37898 22.5139 8.52614 20.7698L6.47747 16.5926L6.47689 16.5914C5.42207 14.4566 6.08541 11.7692 8.26983 10.4395L11.4301 8.51932ZM16.5071 10.6465C15.5271 9.32362 13.7031 8.89177 12.2098 9.80076L9.04975 11.7208C7.55479 12.631 7.09777 14.4628 7.82209 15.9277L7.82316 15.9299L9.87316 20.1099C10.34 21.0648 11.4461 21.3872 12.3459 20.8319L12.3501 20.8293L18.7801 16.9193L18.7817 16.9183C19.6884 16.3701 19.9081 15.2456 19.2764 14.3855L19.2756 14.3845L16.5071 10.6465Z" fill="black"/>
<path fill-rule="evenodd" clip-rule="evenodd" d="M4.99164 8.60835C4.77621 8.25457 4.88836 7.79313 5.24214 7.5777L10.3667 4.4571C10.7205 4.24167 11.182 4.35382 11.3974 4.7076L13.4778 8.124C13.6932 8.47778 13.5811 8.93922 13.2273 9.15465L8.10269 12.2752C7.74891 12.4907 7.28747 12.3785 7.07204 12.0247L4.99164 8.60835ZM6.66286 8.46877L7.96311 10.604L11.8066 8.26357L10.5063 6.12832L6.66286 8.46877Z" fill="black"/>
<path fill-rule="evenodd" clip-rule="evenodd" d="M13.9196 16.1691C14.2734 15.9537 14.7349 16.0658 14.9503 16.4196L16.6003 19.1297C16.8157 19.4835 16.7035 19.9449 16.3497 20.1603C15.9959 20.3757 15.5345 20.2635 15.3191 19.9097L13.6691 17.1997C13.4537 16.8459 13.5658 16.3845 13.9196 16.1691Z" fill="black"/>
<path fill-rule="evenodd" clip-rule="evenodd" d="M11.3601 17.7296C11.7139 17.5142 12.1753 17.6264 12.3907 17.9802L14.0407 20.6902C14.2561 21.044 14.1439 21.5054 13.7901 21.7209C13.4363 21.9363 12.9749 21.8241 12.7595 21.4703L11.1095 18.7603C10.8941 18.4065 11.0063 17.945 11.3601 17.7296Z" fill="black"/>
<path fill-rule="evenodd" clip-rule="evenodd" d="M16.4802 14.6095C16.834 14.3941 17.2954 14.5063 17.5108 14.8601L19.1608 17.5701C19.3762 17.9239 19.2641 18.3853 18.9103 18.6007C18.5565 18.8161 18.095 18.704 17.8796 18.3502L16.2296 15.6401C16.0142 15.2863 16.1264 14.8249 16.4802 14.6095Z" fill="black"/>
</svg>
