<svg width="24" height="24" viewBox="0 0 24 24" fill="none" xmlns="http://www.w3.org/2000/svg">
<path fill-rule="evenodd" clip-rule="evenodd" d="M20.2386 2.81003C18.4048 3.54405 16.1983 4.85611 14.1224 6.39491C12.0436 7.9359 10.1429 9.66918 8.90654 11.2167C8.90621 11.2171 8.90588 11.2176 8.90554 11.218L7.54282 12.9389C8.35226 13.1516 9.11769 13.5874 9.75987 14.2296C10.387 14.8567 10.8067 15.5796 11.0165 16.3633L12.7103 15.0048C15.8389 12.4961 19.6212 7.38174 21.1134 3.66073L21.1165 3.65311C21.2249 3.39116 21.1545 3.14042 20.9663 2.95725L20.952 2.94291C20.8004 2.78711 20.5467 2.69791 20.2386 2.81003ZM6.80053 14.3173C6.75254 14.3148 6.70993 14.3123 6.67144 14.3101C6.52634 14.3017 6.43982 14.2966 6.34417 14.3062C6.08858 14.3317 5.83768 14.2247 5.67923 14.0225C5.52078 13.8204 5.47682 13.5512 5.56272 13.3091C5.70174 12.9173 5.91501 12.5501 6.18222 12.2408L7.73156 10.2843L7.73353 10.2818C9.07716 8.59968 11.0861 6.77848 13.2292 5.18988C15.3723 3.60124 17.697 2.21009 19.6913 1.41341L19.7075 1.40716C20.5726 1.08459 21.4524 1.31195 22.02 1.88958C22.5862 2.44597 22.8717 3.32961 22.5043 4.22245C20.9157 8.18109 16.9792 13.5045 13.6487 16.175L11.6788 17.755C11.6687 17.7631 11.6583 17.771 11.6478 17.7785C11.3802 17.9712 11.0705 18.1739 10.7038 18.318C10.4729 18.4087 10.2121 18.3793 10.0072 18.2396C9.80218 18.0999 9.67954 17.8679 9.67954 17.6199C9.67954 17.4644 9.67068 17.306 9.64872 17.1669L9.64589 17.1473C9.55832 16.4786 9.25773 15.8487 8.69921 15.2902C8.1399 14.7309 7.47154 14.4103 6.80053 14.3173Z" fill="black"/>
<path fill-rule="evenodd" clip-rule="evenodd" d="M6.81114 14.3172C6.62996 14.3078 6.46611 14.3014 6.31787 14.3088C6.31054 14.3092 6.30321 14.3095 6.29587 14.3096C4.69175 14.3427 3.21062 15.4951 3.01595 17.2715L2.7453 19.7374C2.64198 20.6157 3.38464 21.351 4.24698 21.2544L4.24859 21.2543L6.70034 20.9852C7.5292 20.8748 8.20178 20.527 8.68842 20.0411C9.33676 19.3837 9.67954 18.5247 9.67954 17.6199C9.67954 17.5174 9.67437 17.4332 9.66671 17.3267C9.66243 17.2673 9.65766 17.2009 9.65315 17.1204C9.56113 16.4617 9.26116 15.8412 8.71008 15.2901L8.70621 15.2862C8.1518 14.7237 7.48659 14.4105 6.81114 14.3172ZM6.25412 12.8102C6.49413 12.7989 6.73577 12.8111 6.91983 12.8208C6.93884 12.8218 6.9578 12.8235 6.97667 12.826C7.99115 12.9573 8.9748 13.4226 9.77266 14.2314C10.553 15.0125 11.0117 15.9419 11.1441 16.9524C11.1466 16.9716 11.1484 16.991 11.1494 17.0104C11.1514 17.0481 11.1547 17.0959 11.1584 17.1498C11.168 17.288 11.1804 17.4666 11.1804 17.6198C11.1804 18.9142 10.6847 20.1544 9.75407 21.0968L9.75075 21.1001C9.01901 21.8319 8.03478 22.3228 6.88806 22.4734L6.87224 22.4753L4.41385 22.7451C4.41355 22.7452 4.41414 22.7451 4.41385 22.7451C2.5976 22.9479 1.04066 21.4053 1.25518 19.5653L1.52488 17.1081C1.52487 17.1081 1.52488 17.108 1.52488 17.1081C1.8098 14.5087 3.98221 12.8621 6.25412 12.8102Z" fill="black"/>
<path fill-rule="evenodd" clip-rule="evenodd" d="M8.75977 9.74023C8.75977 9.32602 9.09555 8.99023 9.50977 8.99023C12.534 8.99023 14.9898 11.446 14.9898 14.4702C14.9898 14.8844 14.654 15.2202 14.2398 15.2202C13.8256 15.2202 13.4898 14.8844 13.4898 14.4702C13.4898 12.2744 11.7056 10.4902 9.50977 10.4902C9.09555 10.4902 8.75977 10.1544 8.75977 9.74023Z" fill="black"/>
</svg>
