<svg width="24" height="24" viewBox="0 0 24 24" fill="none" xmlns="http://www.w3.org/2000/svg">
<path fill-rule="evenodd" clip-rule="evenodd" d="M3.0644 3.09467C4.39887 1.7602 6.39575 1.25 8.96973 1.25H10.9697C11.3839 1.25 11.7197 1.58579 11.7197 2C11.7197 2.41421 11.3839 2.75 10.9697 2.75H8.96973C6.5437 2.75 5.04059 3.2398 4.12506 4.15533C3.20953 5.07086 2.71973 6.57397 2.71973 9V15C2.71973 17.426 3.20953 18.9291 4.12506 19.8447C5.04059 20.7602 6.5437 21.25 8.96973 21.25H14.9697C17.3958 21.25 18.8989 20.7602 19.8144 19.8447C20.7299 18.9291 21.2197 17.426 21.2197 15V13C21.2197 12.5858 21.5555 12.25 21.9697 12.25C22.3839 12.25 22.7197 12.5858 22.7197 13V15C22.7197 17.574 22.2095 19.5709 20.8751 20.9053C19.5406 22.2398 17.5437 22.75 14.9697 22.75H8.96973C6.39575 22.75 4.39887 22.2398 3.0644 20.9053C1.72993 19.5709 1.21973 17.574 1.21973 15V9C1.21973 6.42603 1.72993 4.42914 3.0644 3.09467Z" fill="black"/>
<path fill-rule="evenodd" clip-rule="evenodd" d="M20.6823 2.77824C19.2326 3.36204 17.4799 4.40712 15.8253 5.63551C14.1685 6.86553 12.657 8.24447 11.6751 9.46808C11.6749 9.46836 11.6747 9.46864 11.6744 9.46893L10.7139 10.6735C11.3022 10.8641 11.8574 11.1976 12.3373 11.6768C12.8078 12.1393 13.1339 12.6712 13.3225 13.2417L14.5101 12.2946C14.5104 12.2944 14.5107 12.2941 14.511 12.2939C15.7342 11.3123 17.1079 9.80369 18.3328 8.14844C19.5579 6.49292 20.5997 4.73717 21.1833 3.28064L21.1841 3.27848C21.2212 3.18684 21.2217 3.11139 21.2074 3.04947C21.1922 2.98331 21.1558 2.91658 21.0991 2.85991C21.0037 2.76444 20.8539 2.7144 20.6823 2.77824ZM11.9957 14.1361C11.9273 13.6322 11.7038 13.1567 11.2841 12.7448L11.2791 12.7399C10.8522 12.313 10.3529 12.0788 9.84518 12.0064C9.69224 11.997 9.5858 11.9919 9.48624 11.9981C9.23422 12.0139 8.99118 11.9017 8.83961 11.6998C8.68803 11.4978 8.64826 11.2331 8.73379 10.9955C8.84901 10.6755 9.0198 10.3649 9.25515 10.0968L10.5031 8.53196L10.5045 8.53023C11.5926 7.17404 13.2108 5.70834 14.9311 4.43114C16.6514 3.15398 18.5208 2.03042 20.1297 1.38369L20.1412 1.37909C20.9077 1.08554 21.6761 1.31556 22.1598 1.79925C22.6498 2.28923 22.8889 3.06234 22.5752 3.83959C21.9287 5.45282 20.8107 7.32162 19.5386 9.04071C18.2663 10.7601 16.8054 12.3762 15.4488 13.4646L15.4471 13.466L13.8671 14.726C13.8613 14.7306 13.8554 14.7351 13.8495 14.7396C13.609 14.9199 13.3501 15.0778 13.0428 15.198C12.8119 15.2883 12.5514 15.2588 12.3467 15.119C12.1419 14.9793 12.0195 14.7474 12.0195 14.4996C12.0195 14.3849 12.0119 14.2672 11.9957 14.1361Z" fill="black"/>
<path fill-rule="evenodd" clip-rule="evenodd" d="M9.85592 11.9973C9.70298 11.9878 9.59653 11.9827 9.49698 11.989C9.4862 11.9896 9.47541 11.9901 9.46462 11.9903C8.24123 12.0138 7.13119 12.8856 6.98589 14.2207C6.98586 14.2209 6.98591 14.2205 6.98589 14.2207L6.77597 16.1899L6.77569 16.1925C6.70811 16.8064 7.22586 17.3113 7.81661 17.2451L7.8207 17.2446L9.78294 17.0355C10.4049 16.9553 10.908 16.6911 11.2778 16.3221C11.7682 15.8229 12.0302 15.1728 12.0302 14.4904C12.0302 14.3847 12.0226 14.2571 12.0064 14.1269C11.9386 13.6272 11.717 13.1579 11.2899 12.7308C10.8629 12.3038 10.3637 12.0696 9.85592 11.9973ZM9.9615 10.5009C9.96672 10.5012 9.97188 10.5016 9.97698 10.5019C9.99424 10.503 10.0115 10.5046 10.0286 10.5069C10.8726 10.6186 11.6842 11.0038 12.3505 11.6701C13.0024 12.322 13.3808 13.0916 13.4935 13.9306L13.4944 13.9374C13.518 14.126 13.5302 14.3171 13.5302 14.4904C13.5302 15.5671 13.1129 16.5961 12.3447 17.3766L12.3405 17.3808C11.7319 17.9894 10.9181 18.4038 9.96438 18.5245L9.9497 18.5262L7.98156 18.736C6.43373 18.9082 5.11316 17.5945 5.28455 16.0298C5.2846 16.0293 5.28465 16.0288 5.2847 16.0283L5.49458 14.0595C5.72893 11.9009 7.52942 10.5346 9.42012 10.4909C9.62154 10.4796 9.81504 10.4917 9.9615 10.5009Z" fill="black"/>
<path fill-rule="evenodd" clip-rule="evenodd" d="M11.2803 8.18945C11.2803 7.77524 11.6161 7.43945 12.0303 7.43945C14.5458 7.43945 16.5703 9.47653 16.5703 11.9795C16.5703 12.3937 16.2345 12.7295 15.8203 12.7295C15.4061 12.7295 15.0703 12.3937 15.0703 11.9795C15.0703 10.3024 13.7148 8.93945 12.0303 8.93945C11.6161 8.93945 11.2803 8.60367 11.2803 8.18945Z" fill="black"/>
</svg>
