<svg width="24" height="24" viewBox="0 0 24 24" fill="none" xmlns="http://www.w3.org/2000/svg">
<path fill-rule="evenodd" clip-rule="evenodd" d="M15.59 2.75C13.171 2.75 11.21 4.711 11.21 7.13C11.21 9.54901 13.171 11.51 15.59 11.51C18.009 11.51 19.97 9.54901 19.97 7.13C19.97 4.711 18.009 2.75 15.59 2.75ZM9.70996 7.13C9.70996 3.88257 12.3425 1.25 15.59 1.25C18.8374 1.25 21.47 3.88257 21.47 7.13C21.47 10.3774 18.8374 13.01 15.59 13.01C12.3425 13.01 9.70996 10.3774 9.70996 7.13Z" fill="black"/>
<path fill-rule="evenodd" clip-rule="evenodd" d="M6.36026 14.0303C5.07344 14.0303 4.03027 15.0734 4.03027 16.3603C4.03027 17.6471 5.07344 18.6903 6.36026 18.6903C7.64709 18.6903 8.69028 17.6471 8.69028 16.3603C8.69028 15.0735 7.64709 14.0303 6.36026 14.0303ZM2.53027 16.3603C2.53027 14.245 4.245 12.5303 6.36026 12.5303C8.47551 12.5303 10.1903 14.245 10.1903 16.3603C10.1903 18.4755 8.47551 20.1903 6.36026 20.1903C4.245 20.1903 2.53027 18.4755 2.53027 16.3603Z" fill="black"/>
<path fill-rule="evenodd" clip-rule="evenodd" d="M16.6205 17.6299C15.6209 17.6299 14.8105 18.4402 14.8105 19.4399C14.8105 20.4395 15.6209 21.2499 16.6205 21.2499C17.6202 21.2499 18.4305 20.4395 18.4305 19.4399C18.4305 18.4402 17.6202 17.6299 16.6205 17.6299ZM13.3105 19.4399C13.3105 17.6118 14.7925 16.1299 16.6205 16.1299C18.4486 16.1299 19.9305 17.6118 19.9305 19.4399C19.9305 21.2679 18.4486 22.7499 16.6205 22.7499C14.7925 22.7499 13.3105 21.2679 13.3105 19.4399Z" fill="black"/>
</svg>
