<svg width="24" height="24" viewBox="0 0 24 24" fill="none" xmlns="http://www.w3.org/2000/svg">
<path fill-rule="evenodd" clip-rule="evenodd" d="M10.8303 5.7998C11.0292 5.7998 11.22 5.87882 11.3606 6.01947L16.5506 11.2095C17.1035 11.7624 17.1035 12.6573 16.5506 13.2102L12.3006 17.4602C11.7474 18.0134 11.0954 18.3849 10.3553 18.3849C9.61514 18.3849 8.96313 18.0134 8.40996 17.4602L5.57994 14.6301C5.02678 14.077 4.65527 13.4249 4.65527 12.6848C4.65527 11.9447 5.02678 11.2927 5.57994 10.7395L10.2999 6.01948C10.4406 5.87882 10.6314 5.79981 10.8303 5.7998ZM10.8303 7.61047L6.6406 11.8002C6.25377 12.187 6.15527 12.48 6.15527 12.6848C6.15527 12.8897 6.25377 13.1826 6.6406 13.5695L9.47062 16.3995C9.85745 16.7864 10.1504 16.8849 10.3553 16.8849C10.5601 16.8849 10.8531 16.7864 11.2399 16.3995L15.4296 12.2098L10.8303 7.61047Z" fill="black"/>
<path fill-rule="evenodd" clip-rule="evenodd" d="M9.34676 5.07209C9.6381 4.77765 10.113 4.77514 10.4074 5.06649L11.3574 6.00649C11.6518 6.29783 11.6543 6.7727 11.363 7.06713C11.0716 7.36157 10.5968 7.36408 10.3023 7.07273L9.35236 6.13273C9.05793 5.84139 9.05542 5.36652 9.34676 5.07209Z" fill="black"/>
<path fill-rule="evenodd" clip-rule="evenodd" d="M16.8787 12.137C16.8969 12.5508 16.5762 12.901 16.1624 12.9192L5.47241 13.3892C5.05859 13.4074 4.70838 13.0867 4.69019 12.6728C4.672 12.259 4.99271 11.9088 5.40653 11.8906L16.0965 11.4207C16.5103 11.4025 16.8606 11.7232 16.8787 12.137Z" fill="black"/>
<path fill-rule="evenodd" clip-rule="evenodd" d="M17.8534 14.3041L17.3002 14.8105L16.749 14.302C16.8913 14.1477 17.0918 14.0601 17.3017 14.0605C17.5116 14.0609 17.7117 14.1493 17.8534 14.3041ZM17.2984 16.005C17.2849 16.0238 17.2714 16.0428 17.2579 16.0619C17.1075 16.2748 16.969 16.4964 16.8709 16.7006C16.7659 16.9189 16.7402 17.0499 16.7402 17.1005C16.7402 17.4063 16.9945 17.6605 17.3002 17.6605C17.6043 17.6605 17.8574 17.4092 17.8602 17.1056C17.8585 17.0491 17.8295 16.9163 17.7259 16.7016C17.6268 16.4963 17.4881 16.274 17.3381 16.0608C17.3249 16.042 17.3116 16.0234 17.2984 16.005ZM17.3002 14.8105C16.749 14.302 16.749 14.302 16.749 14.302L16.7468 14.3043L16.7428 14.3088L16.7292 14.3237C16.7178 14.3363 16.7019 14.3541 16.682 14.3766C16.6423 14.4215 16.5867 14.4855 16.5204 14.5646C16.3887 14.722 16.2114 14.9434 16.0326 15.1966C15.8555 15.4474 15.6664 15.744 15.519 16.0507C15.3783 16.3433 15.2402 16.7161 15.2402 17.1005C15.2402 18.2346 16.166 19.1605 17.3002 19.1605C18.4345 19.1605 19.3602 18.2346 19.3602 17.1005L19.3602 17.0918C19.3558 16.7112 19.2176 16.3414 19.0768 16.0497C18.9293 15.7441 18.7411 15.4482 18.5649 15.1977C18.387 14.9448 18.211 14.7237 18.0801 14.5664C18.0144 14.4873 17.9592 14.4234 17.9198 14.3785C17.9001 14.3561 17.8843 14.3383 17.873 14.3258L17.8596 14.3109L17.8556 14.3064L17.8542 14.305C17.8542 14.305 17.8534 14.3041 17.3002 14.8105Z" fill="black"/>
<path fill-rule="evenodd" clip-rule="evenodd" d="M3.09467 3.09467C4.42914 1.7602 6.42603 1.25 9 1.25H15C17.574 1.25 19.5709 1.7602 20.9053 3.09467C22.2398 4.42914 22.75 6.42603 22.75 9V15C22.75 17.574 22.2398 19.5709 20.9053 20.9053C19.5709 22.2398 17.574 22.75 15 22.75H9C6.42603 22.75 4.42914 22.2398 3.09467 20.9053C1.7602 19.5709 1.25 17.574 1.25 15V9C1.25 6.42603 1.7602 4.42914 3.09467 3.09467ZM4.15533 4.15533C3.2398 5.07086 2.75 6.57397 2.75 9V15C2.75 17.426 3.2398 18.9291 4.15533 19.8447C5.07086 20.7602 6.57397 21.25 9 21.25H15C17.426 21.25 18.9291 20.7602 19.8447 19.8447C20.7602 18.9291 21.25 17.426 21.25 15V9C21.25 6.57397 20.7602 5.07086 19.8447 4.15533C18.9291 3.2398 17.426 2.75 15 2.75H9C6.57397 2.75 5.07086 3.2398 4.15533 4.15533Z" fill="black"/>
</svg>
