<svg width="24" height="24" viewBox="0 0 24 24" fill="none" xmlns="http://www.w3.org/2000/svg">
<path fill-rule="evenodd" clip-rule="evenodd" d="M1.25 22C1.25 21.5858 1.58579 21.25 2 21.25H22C22.4142 21.25 22.75 21.5858 22.75 22C22.75 22.4142 22.4142 22.75 22 22.75H2C1.58579 22.75 1.25 22.4142 1.25 22Z" fill="black"/>
<path fill-rule="evenodd" clip-rule="evenodd" d="M9.69182 3.36245C9.27472 3.08231 8.72528 3.08231 8.30818 3.36245L8.3064 3.36364L4.30865 6.03212L4.30766 6.03278C3.96033 6.26691 3.75007 6.65588 3.75 7.06965L3.75951 21.2586L14.2595 21.2411L14.25 7.07036C14.25 6.64979 14.0444 6.2654 13.6965 6.03558L13.6936 6.03363L9.6936 3.36364L9.69182 3.36245ZM10.5272 2.11658C9.60472 1.4976 8.39528 1.4976 7.47283 2.11658L7.47185 2.11724L3.47363 4.78603L3.47138 4.78754C2.71936 5.29344 2.25 6.1441 2.25 7.06986L2.26001 22.0104C2.26014 22.2094 2.33939 22.4002 2.4803 22.5408C2.62121 22.6814 2.81222 22.7602 3.01126 22.7599L15.0113 22.7398C15.4252 22.7392 15.7603 22.4033 15.76 21.9893L15.75 7.06986C15.7498 6.15125 15.2961 5.29533 14.525 4.78512L14.5234 4.78408L10.5282 2.11724L10.5272 2.11658Z" fill="black"/>
<path fill-rule="evenodd" clip-rule="evenodd" d="M19.9805 17.25C20.3947 17.25 20.7305 17.5858 20.7305 18V22.01C20.7305 22.4242 20.3947 22.76 19.9805 22.76C19.5663 22.76 19.2305 22.4242 19.2305 22.01V18C19.2305 17.5858 19.5663 17.25 19.9805 17.25Z" fill="black"/>
<path fill-rule="evenodd" clip-rule="evenodd" d="M17.25 14C17.25 12.4858 18.4858 11.25 20 11.25C21.5142 11.25 22.75 12.4858 22.75 14V16C22.75 17.5142 21.5142 18.75 20 18.75C18.4858 18.75 17.25 17.5142 17.25 16V14ZM20 12.75C19.3142 12.75 18.75 13.3142 18.75 14V16C18.75 16.6858 19.3142 17.25 20 17.25C20.6858 17.25 21.25 16.6858 21.25 16V14C21.25 13.3142 20.6858 12.75 20 12.75Z" fill="black"/>
<path fill-rule="evenodd" clip-rule="evenodd" d="M2.25 14C2.25 13.5858 2.58579 13.25 3 13.25H15C15.4142 13.25 15.75 13.5858 15.75 14C15.75 14.4142 15.4142 14.75 15 14.75H3C2.58579 14.75 2.25 14.4142 2.25 14Z" fill="black"/>
<path fill-rule="evenodd" clip-rule="evenodd" d="M9 17.5C9.41421 17.5 9.75 17.8358 9.75 18.25V22C9.75 22.4142 9.41421 22.75 9 22.75C8.58579 22.75 8.25 22.4142 8.25 22V18.25C8.25 17.8358 8.58579 17.5 9 17.5Z" fill="black"/>
<path fill-rule="evenodd" clip-rule="evenodd" d="M9 8.25C8.58579 8.25 8.25 8.58579 8.25 9C8.25 9.41421 8.58579 9.75 9 9.75C9.41421 9.75 9.75 9.41421 9.75 9C9.75 8.58579 9.41421 8.25 9 8.25ZM6.75 9C6.75 7.75736 7.75736 6.75 9 6.75C10.2426 6.75 11.25 7.75736 11.25 9C11.25 10.2426 10.2426 11.25 9 11.25C7.75736 11.25 6.75 10.2426 6.75 9Z" fill="black"/>
</svg>
