<svg width="24" height="24" viewBox="0 0 24 24" fill="none" xmlns="http://www.w3.org/2000/svg">
<path fill-rule="evenodd" clip-rule="evenodd" d="M3.63353 2.9898C3.13249 3.29489 2.71973 3.96079 2.71973 5.09046V19.9305C2.71973 20.6423 3.31987 21.2505 4.07973 21.2505H11.7497V7.41046C11.7497 7.05485 11.612 6.61435 11.3502 6.19911C11.0888 5.78435 10.7476 5.46447 10.4199 5.30406L5.97997 3.12408C5.97987 3.12403 5.98006 3.12412 5.97997 3.12408C4.93987 2.61499 4.13821 2.6825 3.63353 2.9898ZM2.85342 1.70862C3.9212 1.05845 5.28972 1.11608 6.63949 1.77685L11.0795 3.95686C11.0794 3.95681 11.0796 3.95691 11.0795 3.95686C11.7117 4.26647 12.2457 4.80667 12.6192 5.39931C12.9925 5.99157 13.2497 6.70607 13.2497 7.41046V22.0005C13.2497 22.4147 12.9139 22.7505 12.4997 22.7505H4.07973C2.51958 22.7505 1.21973 21.4986 1.21973 19.9305V5.09046C1.21973 3.60013 1.78197 2.36103 2.85342 1.70862Z" fill="black"/>
<path fill-rule="evenodd" clip-rule="evenodd" d="M12.0281 9.83702C12.204 9.69462 12.4347 9.63925 12.6561 9.68635L13.1343 9.78809L17.6323 10.7977L17.6342 10.7981L19.6609 11.2474C19.6607 11.2473 19.6612 11.2475 19.6609 11.2474C20.3874 11.4071 21.1483 11.6939 21.7351 12.2856C22.3314 12.887 22.6667 13.7194 22.7082 14.8056C22.7203 14.906 22.7201 14.996 22.72 15.0477C22.72 15.0521 22.72 15.0561 22.72 15.0599V18.8399C22.72 20.021 22.4477 21.0429 21.7303 21.7603C21.013 22.4776 19.9911 22.7499 18.81 22.7499L12.4997 22.7505C12.0855 22.7505 11.75 22.4141 11.75 21.9999V10.4199C11.75 10.1936 11.8522 9.97942 12.0281 9.83702ZM13.25 11.3514L17.3058 12.2617L17.3077 12.2622L19.3377 12.7122L19.3391 12.7125C19.9324 12.8428 20.3719 13.0412 20.6699 13.3418C20.9511 13.6254 21.1849 14.0796 21.2104 14.8934C21.2113 14.9246 21.2143 14.9557 21.2191 14.9866C21.2192 14.9877 21.2193 14.9892 21.2193 14.9912C21.2196 14.9967 21.2198 15.0045 21.2199 15.0163L21.22 15.0599V18.8399C21.22 19.8189 20.9923 20.3769 20.6697 20.6996C20.347 21.0223 19.7889 21.2499 18.81 21.2499H13.25V11.3514Z" fill="black"/>
<path fill-rule="evenodd" clip-rule="evenodd" d="M4.75 9C4.75 8.58579 5.08579 8.25 5.5 8.25H8.97C9.38421 8.25 9.72 8.58579 9.72 9C9.72 9.41421 9.38421 9.75 8.97 9.75H5.5C5.08579 9.75 4.75 9.41421 4.75 9Z" fill="black"/>
<path fill-rule="evenodd" clip-rule="evenodd" d="M4.75 13C4.75 12.5858 5.08579 12.25 5.5 12.25H8.97C9.38421 12.25 9.72 12.5858 9.72 13C9.72 13.4142 9.38421 13.75 8.97 13.75H5.5C5.08579 13.75 4.75 13.4142 4.75 13Z" fill="black"/>
<path fill-rule="evenodd" clip-rule="evenodd" d="M12.501 9.93499C12.6789 9.79265 12.912 9.73821 13.1343 9.78809L17.6342 10.7981C17.9767 10.875 18.2197 11.1796 18.2197 11.5305V14.7505C18.2197 16.4047 16.8739 17.7505 15.2197 17.7505C13.5655 17.7505 12.2197 16.4047 12.2197 14.7505V10.5205C12.2197 10.2927 12.3232 10.0773 12.501 9.93499ZM13.7197 11.4575V14.7505C13.7197 15.5763 14.3939 16.2505 15.2197 16.2505C16.0455 16.2505 16.7197 15.5763 16.7197 14.7505V12.1308L13.7197 11.4575Z" fill="black"/>
<path fill-rule="evenodd" clip-rule="evenodd" d="M17.0003 10.9454C17.1776 10.803 17.4103 10.7485 17.6323 10.7977L19.6609 11.2474C19.6607 11.2473 19.6612 11.2475 19.6609 11.2474C20.3874 11.4071 21.1483 11.6939 21.7351 12.2856C22.3388 12.8945 22.6748 13.7406 22.7094 14.8469C22.71 14.8674 22.7098 14.8879 22.7088 14.9084C22.6287 16.4829 21.3235 17.7503 19.7197 17.7503C18.0655 17.7503 16.7197 16.4047 16.7197 14.7505L16.7197 11.5303C16.7197 11.3029 16.8229 11.0877 17.0003 10.9454ZM18.2197 12.4647V14.7505C18.2197 15.5763 18.8939 16.2503 19.7197 16.2503C20.5062 16.2503 21.1547 15.6331 21.209 14.861C21.1783 14.0677 20.9474 13.6215 20.6699 13.3418C20.3719 13.0412 19.9324 12.8428 19.3391 12.7125L19.3377 12.7122L18.2197 12.4647Z" fill="black"/>
</svg>
