<svg width="24" height="24" viewBox="0 0 24 24" fill="none" xmlns="http://www.w3.org/2000/svg">
<path fill-rule="evenodd" clip-rule="evenodd" d="M3.28033 9.28033C2.97059 9.59007 2.75 10.1156 2.75 11V19C2.75 19.8844 2.97059 20.4099 3.28033 20.7197C3.59007 21.0294 4.11561 21.25 5 21.25H9.80035C9.41379 20.6255 9.25 19.8541 9.25 19V8.75H5C4.11561 8.75 3.59007 8.97059 3.28033 9.28033ZM13 21.25C12.1156 21.25 11.5901 21.0294 11.2803 20.7197C10.9706 20.4099 10.75 19.8844 10.75 19V8C10.75 7.58579 10.4142 7.25 10 7.25H5C3.88439 7.25 2.90993 7.52941 2.21967 8.21967C1.52941 8.90993 1.25 9.88439 1.25 11V19C1.25 20.1156 1.52941 21.0901 2.21967 21.7803C2.90993 22.4706 3.88439 22.75 5 22.75H13C13.4142 22.75 13.75 22.4142 13.75 22C13.75 21.5858 13.4142 21.25 13 21.25Z" fill="black"/>
<path fill-rule="evenodd" clip-rule="evenodd" d="M7 4.75C6.31421 4.75 5.75 5.31421 5.75 6V7.25H9.25V5C9.25 4.91637 9.25137 4.83301 9.25445 4.75H7ZM4.25 6C4.25 4.48579 5.48579 3.25 7 3.25H10.11C10.343 3.25 10.5628 3.3583 10.7047 3.54307C10.8467 3.72785 10.8947 3.9681 10.8347 4.19325C10.7774 4.40782 10.75 4.66709 10.75 5V8C10.75 8.41421 10.4142 8.75 10 8.75H5C4.58579 8.75 4.25 8.41421 4.25 8V6Z" fill="black"/>
<path fill-rule="evenodd" clip-rule="evenodd" d="M14 7.25C14.4142 7.25 14.75 7.58579 14.75 8V13C14.75 13.4142 14.4142 13.75 14 13.75C13.5858 13.75 13.25 13.4142 13.25 13V8C13.25 7.58579 13.5858 7.25 14 7.25Z" fill="black"/>
<path fill-rule="evenodd" clip-rule="evenodd" d="M18 7.25C18.4142 7.25 18.75 7.58579 18.75 8V13C18.75 13.4142 18.4142 13.75 18 13.75C17.5858 13.75 17.25 13.4142 17.25 13V8C17.25 7.58579 17.5858 7.25 18 7.25Z" fill="black"/>
<path fill-rule="evenodd" clip-rule="evenodd" d="M13.25 18C13.25 17.0358 14.0358 16.25 15 16.25H17C17.9642 16.25 18.75 17.0358 18.75 18V22C18.75 22.4142 18.4142 22.75 18 22.75H14C13.5858 22.75 13.25 22.4142 13.25 22V18ZM15 17.75C14.8642 17.75 14.75 17.8642 14.75 18V21.25H17.25V18C17.25 17.8642 17.1358 17.75 17 17.75H15Z" fill="black"/>
<path fill-rule="evenodd" clip-rule="evenodd" d="M6 12.25C6.41421 12.25 6.75 12.5858 6.75 13V17C6.75 17.4142 6.41421 17.75 6 17.75C5.58579 17.75 5.25 17.4142 5.25 17V13C5.25 12.5858 5.58579 12.25 6 12.25Z" fill="black"/>
<path fill-rule="evenodd" clip-rule="evenodd" d="M11.2803 3.28033C10.9706 3.59007 10.75 4.11561 10.75 5V19C10.75 19.8844 10.9706 20.4099 11.2803 20.7197C11.5901 21.0294 12.1156 21.25 13 21.25H19C19.8844 21.25 20.4099 21.0294 20.7197 20.7197C21.0294 20.4099 21.25 19.8844 21.25 19V5C21.25 4.11561 21.0294 3.59007 20.7197 3.28033C20.4099 2.97059 19.8844 2.75 19 2.75H13C12.1156 2.75 11.5901 2.97059 11.2803 3.28033ZM10.2197 2.21967C10.9099 1.52941 11.8844 1.25 13 1.25H19C20.1156 1.25 21.0901 1.52941 21.7803 2.21967C22.4706 2.90993 22.75 3.88439 22.75 5V19C22.75 20.1156 22.4706 21.0901 21.7803 21.7803C21.0901 22.4706 20.1156 22.75 19 22.75H13C11.8844 22.75 10.9099 22.4706 10.2197 21.7803C9.52941 21.0901 9.25 20.1156 9.25 19V5C9.25 3.88439 9.52941 2.90993 10.2197 2.21967Z" fill="black"/>
</svg>
