<svg width="24" height="24" viewBox="0 0 24 24" fill="none" xmlns="http://www.w3.org/2000/svg">
<path fill-rule="evenodd" clip-rule="evenodd" d="M3.06909 3.06909C2.89993 3.23825 2.75 3.55196 2.75 4.15002V15.85C2.75 16.448 2.89993 16.7617 3.06909 16.9309C3.23825 17.1001 3.55196 17.25 4.15002 17.25H6.70001C7.11423 17.25 7.45001 17.5858 7.45001 18C7.45001 18.4142 7.11423 18.75 6.70001 18.75H4.15002C3.31809 18.75 2.55678 18.5399 2.00843 17.9916C1.46008 17.4432 1.25 16.6819 1.25 15.85V4.15002C1.25 3.31809 1.46008 2.55678 2.00843 2.00843C2.55678 1.46008 3.31809 1.25 4.15002 1.25H8.45001C9.28195 1.25 10.0432 1.46008 10.5916 2.00844C11.1399 2.5568 11.35 3.3181 11.35 4.15002V6C11.35 6.41421 11.0142 6.75 10.6 6.75C10.1858 6.75 9.84998 6.41421 9.84998 6V4.15002C9.84998 3.55195 9.70005 3.23824 9.5309 3.06908C9.36176 2.89993 9.04807 2.75 8.45001 2.75H4.15002C3.55196 2.75 3.23825 2.89993 3.06909 3.06909Z" fill="black"/>
<path fill-rule="evenodd" clip-rule="evenodd" d="M7.83677 7.13657C7.62269 7.35064 7.4502 7.73176 7.4502 8.41998V19.58C7.4502 20.2682 7.62269 20.6494 7.83677 20.8634C8.05084 21.0775 8.43196 21.25 9.12018 21.25H14.9602C15.6484 21.25 16.0258 21.0775 16.237 20.8651C16.449 20.6518 16.6202 20.2706 16.6202 19.58V8.41998C16.6202 7.72941 16.449 7.34824 16.237 7.13492C16.0258 6.92245 15.6484 6.75 14.9602 6.75H9.12018C8.43196 6.75 8.05084 6.9225 7.83677 7.13657ZM6.77611 6.07591C7.36953 5.48249 8.1984 5.25 9.12018 5.25H14.9602C15.882 5.25 16.7096 5.48254 17.3009 6.07756C17.8914 6.67173 18.1202 7.50055 18.1202 8.41998V19.58C18.1202 20.4994 17.8914 21.3283 17.3009 21.9224C16.7096 22.5175 15.882 22.75 14.9602 22.75H9.12018C8.1984 22.75 7.36953 22.5175 6.77611 21.9241C6.18269 21.3307 5.9502 20.5018 5.9502 19.58V8.41998C5.9502 7.4982 6.18269 6.66933 6.77611 6.07591Z" fill="black"/>
<path fill-rule="evenodd" clip-rule="evenodd" d="M14.4695 3.06908C14.3003 3.23824 14.1504 3.55195 14.1504 4.15002V6C14.1504 6.41421 13.8146 6.75 13.4004 6.75C12.9862 6.75 12.6504 6.41421 12.6504 6V4.15002C12.6504 3.3181 12.8604 2.5568 13.4088 2.00844C13.9571 1.46008 14.7184 1.25 15.5504 1.25H19.8503C20.6823 1.25 21.4436 1.46008 21.9919 2.00843C22.5403 2.55678 22.7504 3.31809 22.7504 4.15002V15.85C22.7504 16.6819 22.5403 17.4432 21.9919 17.9916C21.4436 18.5399 20.6823 18.75 19.8503 18.75H17.3704C16.9561 18.75 16.6204 18.4142 16.6204 18C16.6204 17.5858 16.9561 17.25 17.3704 17.25H19.8503C20.4484 17.25 20.7621 17.1001 20.9313 16.9309C21.1004 16.7617 21.2504 16.448 21.2504 15.85V4.15002C21.2504 3.55196 21.1004 3.23825 20.9313 3.06909C20.7621 2.89993 20.4484 2.75 19.8503 2.75H15.5504C14.9523 2.75 14.6386 2.89993 14.4695 3.06908Z" fill="black"/>
<path fill-rule="evenodd" clip-rule="evenodd" d="M9.25 11C9.25 10.5858 9.58579 10.25 10 10.25H14C14.4142 10.25 14.75 10.5858 14.75 11C14.75 11.4142 14.4142 11.75 14 11.75H10C9.58579 11.75 9.25 11.4142 9.25 11Z" fill="black"/>
<path fill-rule="evenodd" clip-rule="evenodd" d="M9.25 14C9.25 13.5858 9.58579 13.25 10 13.25H14C14.4142 13.25 14.75 13.5858 14.75 14C14.75 14.4142 14.4142 14.75 14 14.75H10C9.58579 14.75 9.25 14.4142 9.25 14Z" fill="black"/>
<path fill-rule="evenodd" clip-rule="evenodd" d="M12 18.25C12.4142 18.25 12.75 18.5858 12.75 19V22C12.75 22.4142 12.4142 22.75 12 22.75C11.5858 22.75 11.25 22.4142 11.25 22V19C11.25 18.5858 11.5858 18.25 12 18.25Z" fill="black"/>
</svg>
