<svg width="24" height="24" viewBox="0 0 24 24" fill="none" xmlns="http://www.w3.org/2000/svg">
<path fill-rule="evenodd" clip-rule="evenodd" d="M0.25 22C0.25 21.5858 0.585786 21.25 1 21.25H23C23.4142 21.25 23.75 21.5858 23.75 22C23.75 22.4142 23.4142 22.75 23 22.75H1C0.585786 22.75 0.25 22.4142 0.25 22Z" fill="black"/>
<path fill-rule="evenodd" clip-rule="evenodd" d="M19.7803 16.7998C20.1945 16.7998 20.5303 17.1356 20.5303 17.5498V22.0098C20.5303 22.424 20.1945 22.7598 19.7803 22.7598C19.3661 22.7598 19.0303 22.424 19.0303 22.0098V17.5498C19.0303 17.1356 19.3661 16.7998 19.7803 16.7998Z" fill="black"/>
<path fill-rule="evenodd" clip-rule="evenodd" d="M16.8496 13.0897C16.8496 11.4554 18.1654 10.1396 19.7996 10.1396C21.4338 10.1396 22.7496 11.4554 22.7496 13.0897V15.3596C22.7496 16.9938 21.4338 18.3096 19.7996 18.3096C18.1654 18.3096 16.8496 16.9938 16.8496 15.3596V13.0897ZM19.7996 11.6396C18.9938 11.6396 18.3496 12.2839 18.3496 13.0897V15.3596C18.3496 16.1654 18.9938 16.8096 19.7996 16.8096C20.6054 16.8096 21.2496 16.1654 21.2496 15.3596V13.0897C21.2496 12.2839 20.6054 11.6396 19.7996 11.6396Z" fill="black"/>
<path fill-rule="evenodd" clip-rule="evenodd" d="M3.38135 4.29371C3.07074 4.60743 2.84961 5.13947 2.84961 6.02979V21.9998C2.84961 22.414 2.51382 22.7498 2.09961 22.7498C1.6854 22.7498 1.34961 22.414 1.34961 21.9998V6.02979C1.34961 4.9101 1.62851 3.93213 2.31542 3.23834C3.00368 2.54319 3.97619 2.25977 5.08966 2.25977H11.3196C12.4331 2.25977 13.4041 2.54323 14.0902 3.23969C14.7742 3.93408 15.0496 4.91199 15.0496 6.02979V21.9998C15.0496 22.414 14.7138 22.7498 14.2996 22.7498C13.8854 22.7498 13.5496 22.414 13.5496 21.9998V6.02979C13.5496 5.13758 13.33 4.60548 13.0216 4.29236C12.7152 3.98131 12.1962 3.75977 11.3196 3.75977H5.08966C4.21313 3.75977 3.69061 3.98135 3.38135 4.29371Z" fill="black"/>
<path fill-rule="evenodd" clip-rule="evenodd" d="M5.0498 8.25C5.0498 7.83579 5.38559 7.5 5.7998 7.5H10.7498C11.164 7.5 11.4998 7.83579 11.4998 8.25C11.4998 8.66421 11.164 9 10.7498 9H5.7998C5.38559 9 5.0498 8.66421 5.0498 8.25Z" fill="black"/>
<path fill-rule="evenodd" clip-rule="evenodd" d="M5.0498 12C5.0498 11.5858 5.38559 11.25 5.7998 11.25H10.7498C11.164 11.25 11.4998 11.5858 11.4998 12C11.4998 12.4142 11.164 12.75 10.7498 12.75H5.7998C5.38559 12.75 5.0498 12.4142 5.0498 12Z" fill="black"/>
<path fill-rule="evenodd" clip-rule="evenodd" d="M8.25 17.5C8.66421 17.5 9 17.8358 9 18.25V22C9 22.4142 8.66421 22.75 8.25 22.75C7.83579 22.75 7.5 22.4142 7.5 22V18.25C7.5 17.8358 7.83579 17.5 8.25 17.5Z" fill="black"/>
</svg>
