<svg width="24" height="24" viewBox="0 0 24 24" fill="none" xmlns="http://www.w3.org/2000/svg">
<path d="M14.6143 19.5C15.0284 19.5001 15.3643 19.8359 15.3643 20.25C15.3643 20.6641 15.0284 20.9999 14.6143 21H9.61426C9.20004 21 8.86426 20.6642 8.86426 20.25C8.86426 19.8358 9.20004 19.5 9.61426 19.5H14.6143ZM12.2012 6.00098C13.3301 6.01798 14.4311 6.36666 15.3652 7.00684C16.3615 7.68967 17.118 8.66896 17.5264 9.80566C17.9348 10.9424 17.9746 12.1791 17.6406 13.3398C17.3067 14.5006 16.6151 15.5266 15.665 16.2725L15.6621 16.2754C15.57 16.3468 15.4949 16.4384 15.4434 16.543C15.3918 16.6477 15.3648 16.7632 15.3643 16.8799V17.252C15.3641 17.5833 15.2323 17.9014 14.998 18.1357C14.7637 18.37 14.4456 18.5019 14.1143 18.502H10.1143C9.78289 18.502 9.46486 18.37 9.23047 18.1357C8.99616 17.9014 8.86439 17.5833 8.86426 17.252V16.877C8.86409 16.762 8.83765 16.6482 8.78711 16.5449C8.73658 16.4418 8.66285 16.3518 8.57227 16.2812L8.57129 16.2803C7.88761 15.7462 7.33343 15.064 6.95117 14.2852C6.56892 13.5063 6.36851 12.6508 6.36426 11.7832V11.7822C6.34782 8.66541 8.85664 6.07424 11.9756 6.00195L12.2012 6.00098ZM12.0107 7.50098C9.78367 7.55238 7.96798 9.35492 7.86816 11.5605L7.86426 11.7754V11.7764C7.86747 12.4171 8.01556 13.0488 8.29785 13.624C8.57997 14.1988 8.98877 14.7023 9.49316 15.0967C9.76391 15.3074 9.98392 15.5776 10.1348 15.8857C10.2856 16.1939 10.3639 16.5329 10.3643 16.876V17.002H13.8643V16.873C13.8658 16.5287 13.9455 16.1888 14.0977 15.8799C14.2492 15.5724 14.4688 15.3034 14.7393 15.0928L14.9932 14.877C15.5648 14.3507 15.9832 13.6756 16.1992 12.9248C16.4459 12.0671 16.4159 11.1534 16.1143 10.3135C15.8124 9.47336 15.2539 8.74884 14.5176 8.24414C13.7812 7.73945 12.9042 7.47938 12.0117 7.50098H12.0107ZM11.8408 9.125C11.9098 8.71682 12.2968 8.44213 12.7051 8.51074C14.0206 8.73243 15.0976 9.81109 15.3203 11.125C15.3893 11.5333 15.1143 11.92 14.7061 11.9893C14.2977 12.0584 13.911 11.7834 13.8418 11.375C13.7254 10.689 13.1404 10.1046 12.4561 9.98926C12.0477 9.92033 11.772 9.53338 11.8408 9.125ZM18.3779 4.21973C18.6708 3.92694 19.1456 3.92687 19.4385 4.21973C19.7312 4.51259 19.7312 4.9874 19.4385 5.28027L18.0244 6.69434C17.7315 6.98721 17.2568 6.98716 16.9639 6.69434C16.671 6.40145 16.671 5.92669 16.9639 5.63379L18.3779 4.21973ZM4.46875 4.31543C4.70887 3.97813 5.17724 3.89881 5.51465 4.13867L7.14453 5.29883C7.48186 5.53906 7.56048 6.00732 7.32031 6.34473C7.0801 6.68215 6.61186 6.76069 6.27441 6.52051L4.64551 5.36133C4.30819 5.12121 4.22889 4.65285 4.46875 4.31543ZM12.0811 1C12.4952 1.00014 12.8311 1.33587 12.8311 1.75V4.25C12.8311 4.66413 12.4952 4.99986 12.0811 5C11.6668 5 11.3311 4.66421 11.3311 4.25V1.75C11.3311 1.33579 11.6668 1 12.0811 1Z" fill="black"/>
</svg>
