<svg width="24" height="24" viewBox="0 0 24 24" fill="none" xmlns="http://www.w3.org/2000/svg">
<path fill-rule="evenodd" clip-rule="evenodd" d="M7.10001 2.75C5.80579 2.75 4.75 3.81265 4.75 5.10001V18.9C4.75 20.1942 5.81265 21.25 7.10001 21.25H16.9C18.1958 21.25 19.25 20.1958 19.25 18.9V5.10001C19.25 3.80579 18.1874 2.75 16.9 2.75H7.10001ZM3.25 5.10001C3.25 2.98737 4.97422 1.25 7.10001 1.25H16.9C19.0126 1.25 20.75 2.97422 20.75 5.10001V18.9C20.75 21.0242 19.0242 22.75 16.9 22.75H7.10001C4.98737 22.75 3.25 21.0258 3.25 18.9V5.10001Z" fill="black"/>
<path fill-rule="evenodd" clip-rule="evenodd" d="M5.5 8.75C5.08421 8.75 4.75 9.08421 4.75 9.5V11.5C4.75 11.9158 5.08421 12.25 5.5 12.25H18.5C18.9158 12.25 19.25 11.9158 19.25 11.5V9.5C19.25 9.08421 18.9158 8.75 18.5 8.75H5.5ZM3.25 9.5C3.25 8.25579 4.25579 7.25 5.5 7.25H18.5C19.7442 7.25 20.75 8.25579 20.75 9.5V11.5C20.75 12.7442 19.7442 13.75 18.5 13.75H5.5C4.25579 13.75 3.25 12.7442 3.25 11.5V9.5Z" fill="black"/>
<path fill-rule="evenodd" clip-rule="evenodd" d="M7.24414 17.7002C7.24414 17.0098 7.80378 16.4502 8.49414 16.4502H8.50312C9.19348 16.4502 9.75312 17.0098 9.75312 17.7002C9.75312 18.3906 9.19348 18.9502 8.50312 18.9502H8.49414C7.80378 18.9502 7.24414 18.3906 7.24414 17.7002Z" fill="black"/>
<path fill-rule="evenodd" clip-rule="evenodd" d="M14.2441 17.7002C14.2441 17.0098 14.8038 16.4502 15.4941 16.4502H15.5031C16.1935 16.4502 16.7531 17.0098 16.7531 17.7002C16.7531 18.3906 16.1935 18.9502 15.5031 18.9502H15.4941C14.8038 18.9502 14.2441 18.3906 14.2441 17.7002Z" fill="black"/>
<path fill-rule="evenodd" clip-rule="evenodd" d="M8.75 5C8.75 4.58579 9.08579 4.25 9.5 4.25H14.5C14.9142 4.25 15.25 4.58579 15.25 5C15.25 5.41421 14.9142 5.75 14.5 5.75H9.5C9.08579 5.75 8.75 5.41421 8.75 5Z" fill="black"/>
</svg>
