<svg width="24" height="24" viewBox="0 0 24 24" fill="none" xmlns="http://www.w3.org/2000/svg">
<path fill-rule="evenodd" clip-rule="evenodd" d="M1.25 22C1.25 21.5858 1.58579 21.25 2 21.25H22C22.4142 21.25 22.75 21.5858 22.75 22C22.75 22.4142 22.4142 22.75 22 22.75H2C1.58579 22.75 1.25 22.4142 1.25 22Z" fill="black"/>
<path fill-rule="evenodd" clip-rule="evenodd" d="M6.44035 10.75C4.93862 10.75 3.86035 11.8263 3.86035 13V22C3.86035 22.4142 3.52457 22.75 3.11035 22.75C2.69614 22.75 2.36035 22.4142 2.36035 22V13C2.36035 10.8537 4.26208 9.25 6.44035 9.25H17.5504C19.7286 9.25 21.6304 10.8537 21.6304 13V22C21.6304 22.4142 21.2946 22.75 20.8804 22.75C20.4661 22.75 20.1304 22.4142 20.1304 22V13C20.1304 11.8263 19.0521 10.75 17.5504 10.75H6.44035Z" fill="black"/>
<path fill-rule="evenodd" clip-rule="evenodd" d="M7.98055 5.75C6.97612 5.75 6.31055 6.4587 6.31055 7.17V10C6.31055 10.4142 5.97476 10.75 5.56055 10.75C5.14633 10.75 4.81055 10.4142 4.81055 10V7.17C4.81055 5.4813 6.30497 4.25 7.98055 4.25H16.0305C17.6982 4.25 19.1905 5.4832 19.1905 7.17V10C19.1905 10.4142 18.8548 10.75 18.4405 10.75C18.0263 10.75 17.6905 10.4142 17.6905 10V7.17C17.6905 6.4568 17.0229 5.75 16.0305 5.75H7.98055Z" fill="black"/>
<path fill-rule="evenodd" clip-rule="evenodd" d="M2.78055 13.9602C2.79174 13.5461 3.13648 13.2196 3.55054 13.2307L3.91602 13.2406C5.06501 13.2591 5.98028 14.1935 5.98028 15.3405V15.6705C5.98028 15.9999 6.24811 16.2705 6.58028 16.2705C6.90969 16.2705 7.18028 16.0026 7.18028 15.6705V15.3605C7.18028 14.2099 8.11245 13.2605 9.28028 13.2605C10.4309 13.2605 11.3803 14.1926 11.3803 15.3605V15.6705C11.3803 15.9999 11.6481 16.2705 11.9803 16.2705C12.3097 16.2705 12.5803 16.0026 12.5803 15.6705V15.3605C12.5803 14.2099 13.5125 13.2605 14.6803 13.2605C15.8309 13.2605 16.7803 14.1926 16.7803 15.3605V15.6705C16.7803 15.9999 17.0481 16.2705 17.3803 16.2705C17.7097 16.2705 17.9803 16.0026 17.9803 15.6705V15.3605C17.9803 14.2099 18.9125 13.2605 20.0803 13.2605H20.5303C20.9445 13.2605 21.2803 13.5963 21.2803 14.0105C21.2803 14.4247 20.9445 14.7605 20.5303 14.7605H20.0803C19.7481 14.7605 19.4803 15.0311 19.4803 15.3605V15.6705C19.4803 16.8383 18.5309 17.7705 17.3803 17.7705C16.2125 17.7705 15.2803 16.8211 15.2803 15.6705V15.3605C15.2803 15.0283 15.0097 14.7605 14.6803 14.7605C14.3481 14.7605 14.0803 15.0311 14.0803 15.3605V15.6705C14.0803 16.8383 13.1309 17.7705 11.9803 17.7705C10.8125 17.7705 9.88028 16.8211 9.88028 15.6705V15.3605C9.88028 15.0283 9.60969 14.7605 9.28028 14.7605C8.9481 14.7605 8.68028 15.0311 8.68028 15.3605V15.6705C8.68028 16.8383 7.73087 17.7705 6.58028 17.7705C5.41245 17.7705 4.48028 16.8211 4.48028 15.6705V15.3405C4.48028 15.0093 4.21852 14.7448 3.89014 14.7404L3.88001 14.7403L3.51002 14.7302C3.09595 14.719 2.76936 14.3743 2.78055 13.9602Z" fill="black"/>
<path fill-rule="evenodd" clip-rule="evenodd" d="M8 2.25C8.41421 2.25 8.75 2.58579 8.75 3V5C8.75 5.41421 8.41421 5.75 8 5.75C7.58579 5.75 7.25 5.41421 7.25 5V3C7.25 2.58579 7.58579 2.25 8 2.25Z" fill="black"/>
<path fill-rule="evenodd" clip-rule="evenodd" d="M16 2.25C16.4142 2.25 16.75 2.58579 16.75 3V5C16.75 5.41421 16.4142 5.75 16 5.75C15.5858 5.75 15.25 5.41421 15.25 5V3C15.25 2.58579 15.5858 2.25 16 2.25Z" fill="black"/>
<path fill-rule="evenodd" clip-rule="evenodd" d="M12 1.25C12.4142 1.25 12.75 1.58579 12.75 2V5C12.75 5.41421 12.4142 5.75 12 5.75C11.5858 5.75 11.25 5.41421 11.25 5V2C11.25 1.58579 11.5858 1.25 12 1.25Z" fill="black"/>
</svg>
