<svg width="24" height="24" viewBox="0 0 24 24" fill="none" xmlns="http://www.w3.org/2000/svg">
<path fill-rule="evenodd" clip-rule="evenodd" d="M4.09467 3.09467C5.42914 1.7602 7.42603 1.25 10 1.25H14C16.574 1.25 18.5709 1.7602 19.9053 3.09467C21.2398 4.42914 21.75 6.42603 21.75 9V15C21.75 17.574 21.2398 19.5709 19.9053 20.9053C18.5709 22.2398 16.574 22.75 14 22.75H10C7.42603 22.75 5.42914 22.2398 4.09467 20.9053C2.7602 19.5709 2.25 17.574 2.25 15V9C2.25 6.42603 2.7602 4.42914 4.09467 3.09467ZM5.15533 4.15533C4.2398 5.07086 3.75 6.57397 3.75 9V15C3.75 17.426 4.2398 18.9291 5.15533 19.8447C6.07086 20.7602 7.57397 21.25 10 21.25H14C16.426 21.25 17.9291 20.7602 18.8447 19.8447C19.7602 18.9291 20.25 17.426 20.25 15V9C20.25 6.57397 19.7602 5.07086 18.8447 4.15533C17.9291 3.2398 16.426 2.75 14 2.75H10C7.57397 2.75 6.07086 3.2398 5.15533 4.15533Z" fill="black"/>
<path fill-rule="evenodd" clip-rule="evenodd" d="M9 6.83008C8.58746 6.83008 8.25 7.17104 8.25 7.58008V8.58008C8.25 8.99262 8.59096 9.33008 9 9.33008H15C15.4125 9.33008 15.75 8.98912 15.75 8.58008V7.58008C15.75 7.16429 15.4158 6.83008 15 6.83008H9ZM6.75 7.58008C6.75 6.34912 7.75254 5.33008 9 5.33008H15C16.2442 5.33008 17.25 6.33586 17.25 7.58008V8.58008C17.25 9.81104 16.2475 10.8301 15 10.8301H9C7.76904 10.8301 6.75 9.82754 6.75 8.58008V7.58008Z" fill="black"/>
<path fill-rule="evenodd" clip-rule="evenodd" d="M7.13574 14C7.13574 13.4477 7.58346 13 8.13574 13H8.1473C8.69958 13 9.1473 13.4477 9.1473 14C9.1473 14.5523 8.69958 15 8.1473 15H8.13574C7.58346 15 7.13574 14.5523 7.13574 14Z" fill="black"/>
<path fill-rule="evenodd" clip-rule="evenodd" d="M10.9951 14C10.9951 13.4477 11.4428 13 11.9951 13H12.0067C12.559 13 13.0067 13.4477 13.0067 14C13.0067 14.5523 12.559 15 12.0067 15H11.9951C11.4428 15 10.9951 14.5523 10.9951 14Z" fill="black"/>
<path fill-rule="evenodd" clip-rule="evenodd" d="M14.8545 14C14.8545 13.4477 15.3022 13 15.8545 13H15.866C16.4183 13 16.866 13.4477 16.866 14C16.866 14.5523 16.4183 15 15.866 15H15.8545C15.3022 15 14.8545 14.5523 14.8545 14Z" fill="black"/>
<path fill-rule="evenodd" clip-rule="evenodd" d="M7.13574 17.5C7.13574 16.9477 7.58346 16.5 8.13574 16.5H8.1473C8.69958 16.5 9.1473 16.9477 9.1473 17.5C9.1473 18.0523 8.69958 18.5 8.1473 18.5H8.13574C7.58346 18.5 7.13574 18.0523 7.13574 17.5Z" fill="black"/>
<path fill-rule="evenodd" clip-rule="evenodd" d="M10.9951 17.5C10.9951 16.9477 11.4428 16.5 11.9951 16.5H12.0067C12.559 16.5 13.0067 16.9477 13.0067 17.5C13.0067 18.0523 12.559 18.5 12.0067 18.5H11.9951C11.4428 18.5 10.9951 18.0523 10.9951 17.5Z" fill="black"/>
<path fill-rule="evenodd" clip-rule="evenodd" d="M14.8545 17.5C14.8545 16.9477 15.3022 16.5 15.8545 16.5H15.866C16.4183 16.5 16.866 16.9477 16.866 17.5C16.866 18.0523 16.4183 18.5 15.866 18.5H15.8545C15.3022 18.5 14.8545 18.0523 14.8545 17.5Z" fill="black"/>
</svg>
