<svg width="24" height="24" viewBox="0 0 24 24" fill="none" xmlns="http://www.w3.org/2000/svg">
<path fill-rule="evenodd" clip-rule="evenodd" d="M12 2.75C6.89137 2.75 2.75 6.89137 2.75 12C2.75 17.1086 6.89137 21.25 12 21.25C17.1086 21.25 21.25 17.1086 21.25 12C21.25 6.89137 17.1086 2.75 12 2.75ZM1.25 12C1.25 6.06294 6.06294 1.25 12 1.25C17.9371 1.25 22.75 6.06294 22.75 12C22.75 17.9371 17.9371 22.75 12 22.75C6.06294 22.75 1.25 17.9371 1.25 12Z" fill="black"/>
<path fill-rule="evenodd" clip-rule="evenodd" d="M9.89062 5.08008C10.3048 5.08008 10.6406 5.41586 10.6406 5.83008V7.83008C10.6406 8.24429 10.3048 8.58008 9.89062 8.58008C9.47641 8.58008 9.14062 8.24429 9.14062 7.83008V5.83008C9.14062 5.41586 9.47641 5.08008 9.89062 5.08008Z" fill="black"/>
<path fill-rule="evenodd" clip-rule="evenodd" d="M14.1094 5.08008C14.5236 5.08008 14.8594 5.41586 14.8594 5.83008V7.83008C14.8594 8.24429 14.5236 8.58008 14.1094 8.58008C13.6952 8.58008 13.3594 8.24429 13.3594 7.83008V5.83008C13.3594 5.41586 13.6952 5.08008 14.1094 5.08008Z" fill="black"/>
<path fill-rule="evenodd" clip-rule="evenodd" d="M6.78027 10.1396C6.78027 9.72544 7.11606 9.38965 7.53027 9.38965H16.4703C16.8845 9.38965 17.2203 9.72544 17.2203 10.1396C17.2203 10.5539 16.8845 10.8896 16.4703 10.8896H7.53027C7.11606 10.8896 6.78027 10.5539 6.78027 10.1396Z" fill="black"/>
<path fill-rule="evenodd" clip-rule="evenodd" d="M8.10672 8.36099C7.56575 8.93147 7.25 9.73994 7.25 10.6699V13.6699C7.25 14.5999 7.56575 15.4084 8.10672 15.9789C8.64187 16.5432 9.4397 16.9199 10.5 16.9199H13.5C14.5603 16.9199 15.3581 16.5432 15.8933 15.9789C16.4343 15.4084 16.75 14.5999 16.75 13.6699V10.6699C16.75 9.73994 16.4343 8.93147 15.8933 8.36099C15.3581 7.79665 14.5603 7.41992 13.5 7.41992H10.5C9.4397 7.41992 8.64187 7.79665 8.10672 8.36099ZM7.01828 7.32885C7.85813 6.4432 9.0603 5.91992 10.5 5.91992H13.5C14.9397 5.91992 16.1419 6.4432 16.9817 7.32885C17.8158 8.20838 18.25 9.3999 18.25 10.6699V13.6699C18.25 14.9399 17.8158 16.1315 16.9817 17.011C16.1419 17.8966 14.9397 18.4199 13.5 18.4199H10.5C9.0603 18.4199 7.85813 17.8966 7.01828 17.011C6.18425 16.1315 5.75 14.9399 5.75 13.6699V10.6699C5.75 9.3999 6.18425 8.20838 7.01828 7.32885Z" fill="black"/>
</svg>
