<svg width="24" height="24" viewBox="0 0 24 24" fill="none" xmlns="http://www.w3.org/2000/svg">
<path fill-rule="evenodd" clip-rule="evenodd" d="M8 1.25C8.41421 1.25 8.75 1.58579 8.75 2V5C8.75 5.41421 8.41421 5.75 8 5.75C7.58579 5.75 7.25 5.41421 7.25 5V2C7.25 1.58579 7.58579 1.25 8 1.25Z" fill="black"/>
<path fill-rule="evenodd" clip-rule="evenodd" d="M16 1.25C16.4142 1.25 16.75 1.58579 16.75 2V5C16.75 5.41421 16.4142 5.75 16 5.75C15.5858 5.75 15.25 5.41421 15.25 5V2C15.25 1.58579 15.5858 1.25 16 1.25Z" fill="black"/>
<path fill-rule="evenodd" clip-rule="evenodd" d="M2.75 9.08984C2.75 8.67563 3.08579 8.33984 3.5 8.33984H20.5C20.9142 8.33984 21.25 8.67563 21.25 9.08984C21.25 9.50406 20.9142 9.83984 20.5 9.83984H3.5C3.08579 9.83984 2.75 9.50406 2.75 9.08984Z" fill="black"/>
<path fill-rule="evenodd" clip-rule="evenodd" d="M18 15.75C16.2051 15.75 14.75 17.2051 14.75 19C14.75 20.7949 16.2051 22.25 18 22.25C19.7949 22.25 21.25 20.7949 21.25 19C21.25 17.2051 19.7949 15.75 18 15.75ZM13.25 19C13.25 16.3766 15.3766 14.25 18 14.25C20.6234 14.25 22.75 16.3766 22.75 19C22.75 21.6234 20.6234 23.75 18 23.75C15.3766 23.75 13.25 21.6234 13.25 19Z" fill="black"/>
<path fill-rule="evenodd" clip-rule="evenodd" d="M16.4186 17.4709C16.7108 17.1773 17.1857 17.1762 17.4793 17.4684L19.5993 19.5784C19.8929 19.8706 19.894 20.3455 19.6018 20.6391C19.3096 20.9326 18.8347 20.9338 18.5411 20.6416L16.4211 18.5316C16.1275 18.2394 16.1264 17.7645 16.4186 17.4709Z" fill="black"/>
<path fill-rule="evenodd" clip-rule="evenodd" d="M19.58 17.4892C19.8729 17.7821 19.8729 18.257 19.58 18.5499L17.46 20.6699C17.1671 20.9628 16.6923 20.9628 16.3994 20.6699C16.1065 20.377 16.1065 19.9021 16.3994 19.6092L18.5194 17.4892C18.8123 17.1963 19.2871 17.1963 19.58 17.4892Z" fill="black"/>
<path fill-rule="evenodd" clip-rule="evenodd" d="M4.7371 5.38534C4.09637 6.07535 3.75 7.11497 3.75 8.5V17C3.75 18.385 4.09637 19.4246 4.7371 20.1147C5.36848 20.7946 6.39295 21.25 8 21.25H13.8231C13.4552 20.5787 13.25 19.8077 13.25 19C13.25 16.3766 15.3766 14.25 18 14.25C18.8165 14.25 19.5822 14.4568 20.25 14.818V8.5C20.25 7.11497 19.9036 6.07535 19.2629 5.38534C18.6315 4.70538 17.607 4.25 16 4.25H8C6.39295 4.25 5.36848 4.70538 4.7371 5.38534ZM3.6379 4.36466C4.63152 3.29462 6.10705 2.75 8 2.75H16C17.893 2.75 19.3685 3.29462 20.3621 4.36466C21.3464 5.42465 21.75 6.88503 21.75 8.5V16.36C21.75 16.6721 21.5567 16.9516 21.2647 17.0617C20.9727 17.1719 20.643 17.0897 20.4368 16.8553C19.8419 16.1788 18.9735 15.75 18 15.75C16.2051 15.75 14.75 17.2051 14.75 19C14.75 19.6094 14.9205 20.1833 15.2184 20.6663L15.2278 20.6821C15.3949 20.9684 15.609 21.2216 15.852 21.4254C16.0936 21.628 16.1826 21.9601 16.0748 22.2564C15.967 22.5528 15.6853 22.75 15.37 22.75H8C6.10705 22.75 4.63152 22.2054 3.6379 21.1353C2.65363 20.0754 2.25 18.615 2.25 17V8.5C2.25 6.88503 2.65363 5.42465 3.6379 4.36466Z" fill="black"/>
<path fill-rule="evenodd" clip-rule="evenodd" d="M10.9951 13.7002C10.9951 13.1479 11.4428 12.7002 11.9951 12.7002H12.0041C12.5564 12.7002 13.0041 13.1479 13.0041 13.7002C13.0041 14.2525 12.5564 14.7002 12.0041 14.7002H11.9951C11.4428 14.7002 10.9951 14.2525 10.9951 13.7002Z" fill="black"/>
<path fill-rule="evenodd" clip-rule="evenodd" d="M7.29395 13.7002C7.29395 13.1479 7.74166 12.7002 8.29395 12.7002H8.30293C8.85521 12.7002 9.30293 13.1479 9.30293 13.7002C9.30293 14.2525 8.85521 14.7002 8.30293 14.7002H8.29395C7.74166 14.7002 7.29395 14.2525 7.29395 13.7002Z" fill="black"/>
<path fill-rule="evenodd" clip-rule="evenodd" d="M7.29395 16.7002C7.29395 16.1479 7.74166 15.7002 8.29395 15.7002H8.30293C8.85521 15.7002 9.30293 16.1479 9.30293 16.7002C9.30293 17.2525 8.85521 17.7002 8.30293 17.7002H8.29395C7.74166 17.7002 7.29395 17.2525 7.29395 16.7002Z" fill="black"/>
</svg>
