<svg width="24" height="24" viewBox="0 0 24 24" fill="none" xmlns="http://www.w3.org/2000/svg">
<path fill-rule="evenodd" clip-rule="evenodd" d="M8 1.25C8.41421 1.25 8.75 1.58579 8.75 2V5C8.75 5.41421 8.41421 5.75 8 5.75C7.58579 5.75 7.25 5.41421 7.25 5V2C7.25 1.58579 7.58579 1.25 8 1.25Z" fill="black"/>
<path fill-rule="evenodd" clip-rule="evenodd" d="M16 1.25C16.4142 1.25 16.75 1.58579 16.75 2V5C16.75 5.41421 16.4142 5.75 16 5.75C15.5858 5.75 15.25 5.41421 15.25 5V2C15.25 1.58579 15.5858 1.25 16 1.25Z" fill="black"/>
<path fill-rule="evenodd" clip-rule="evenodd" d="M2.75 9.08984C2.75 8.67563 3.08579 8.33984 3.5 8.33984H20.5C20.9142 8.33984 21.25 8.67563 21.25 9.08984C21.25 9.50406 20.9142 9.83984 20.5 9.83984H3.5C3.08579 9.83984 2.75 9.50406 2.75 9.08984Z" fill="black"/>
<path fill-rule="evenodd" clip-rule="evenodd" d="M18 15.75C16.2042 15.75 14.75 17.2042 14.75 19C14.75 19.6094 14.9205 20.1833 15.2184 20.6663L15.2278 20.6821C15.3948 20.9684 15.609 21.2216 15.852 21.4254C15.8586 21.431 15.8652 21.4367 15.8717 21.4425C16.4355 21.9499 17.1773 22.25 18 22.25C19.1859 22.25 20.2156 21.6177 20.7754 20.6766L20.7815 20.6663C21.0794 20.1833 21.25 19.6094 21.25 19C21.25 18.1833 20.9439 17.4364 20.4359 16.8543C19.841 16.1784 18.973 15.75 18 15.75ZM13.25 19C13.25 16.3758 15.3758 14.25 18 14.25C19.4265 14.25 20.6981 14.8811 21.5632 15.8647L21.5649 15.8667C22.2965 16.7044 22.75 17.7971 22.75 19C22.75 19.8885 22.5017 20.7327 22.0615 21.4486C21.2406 22.8246 19.732 23.75 18 23.75C16.8073 23.75 15.713 23.3134 14.878 22.5662C14.5075 22.2534 14.1869 21.8725 13.9368 21.4459C13.4977 20.7305 13.25 19.8874 13.25 19Z" fill="black"/>
<path fill-rule="evenodd" clip-rule="evenodd" d="M20.1101 17.5103C20.3913 17.8144 20.3728 18.2889 20.0687 18.5701L17.9387 20.5401C17.643 20.8137 17.184 20.8047 16.8991 20.5199L15.9091 19.5299C15.6162 19.237 15.6162 18.7621 15.9091 18.4692C16.202 18.1763 16.6769 18.1763 16.9698 18.4692L17.4497 18.9492L19.0502 17.4689C19.3543 17.1877 19.8288 17.2062 20.1101 17.5103Z" fill="black"/>
<path fill-rule="evenodd" clip-rule="evenodd" d="M4.7371 5.38534C4.09637 6.07535 3.75 7.11497 3.75 8.5V17C3.75 18.385 4.09637 19.4246 4.7371 20.1147C5.36848 20.7946 6.39295 21.25 8 21.25H13.8231C13.4552 20.5787 13.25 19.8077 13.25 19C13.25 16.3758 15.3758 14.25 18 14.25C18.8165 14.25 19.5822 14.4568 20.25 14.818V8.5C20.25 7.11497 19.9036 6.07535 19.2629 5.38534C18.6315 4.70538 17.607 4.25 16 4.25H8C6.39295 4.25 5.36848 4.70538 4.7371 5.38534ZM3.6379 4.36466C4.63152 3.29462 6.10705 2.75 8 2.75H16C17.893 2.75 19.3685 3.29462 20.3621 4.36466C21.3464 5.42465 21.75 6.88503 21.75 8.5V16.36C21.75 16.6721 21.5567 16.9516 21.2647 17.0617C20.9727 17.1719 20.643 17.0897 20.4368 16.8553C19.8419 16.1788 18.9735 15.75 18 15.75C16.2042 15.75 14.75 17.2042 14.75 19C14.75 19.6094 14.9205 20.1833 15.2184 20.6663L15.2278 20.6821C15.3948 20.9684 15.609 21.2216 15.852 21.4254C16.0936 21.628 16.1826 21.9601 16.0748 22.2564C15.967 22.5528 15.6853 22.75 15.37 22.75H8C6.10705 22.75 4.63152 22.2054 3.6379 21.1353C2.65363 20.0754 2.25 18.615 2.25 17V8.5C2.25 6.88503 2.65363 5.42465 3.6379 4.36466Z" fill="black"/>
<path fill-rule="evenodd" clip-rule="evenodd" d="M10.9951 13.7002C10.9951 13.1479 11.4428 12.7002 11.9951 12.7002H12.0041C12.5564 12.7002 13.0041 13.1479 13.0041 13.7002C13.0041 14.2525 12.5564 14.7002 12.0041 14.7002H11.9951C11.4428 14.7002 10.9951 14.2525 10.9951 13.7002Z" fill="black"/>
<path fill-rule="evenodd" clip-rule="evenodd" d="M7.29395 13.7002C7.29395 13.1479 7.74166 12.7002 8.29395 12.7002H8.30293C8.85521 12.7002 9.30293 13.1479 9.30293 13.7002C9.30293 14.2525 8.85521 14.7002 8.30293 14.7002H8.29395C7.74166 14.7002 7.29395 14.2525 7.29395 13.7002Z" fill="black"/>
<path fill-rule="evenodd" clip-rule="evenodd" d="M7.29395 16.7002C7.29395 16.1479 7.74166 15.7002 8.29395 15.7002H8.30293C8.85521 15.7002 9.30293 16.1479 9.30293 16.7002C9.30293 17.2525 8.85521 17.7002 8.30293 17.7002H8.29395C7.74166 17.7002 7.29395 17.2525 7.29395 16.7002Z" fill="black"/>
</svg>
