<svg width="24" height="24" viewBox="0 0 24 24" fill="none" xmlns="http://www.w3.org/2000/svg">
<path fill-rule="evenodd" clip-rule="evenodd" d="M22.0437 17.8516L18.4237 14.2315C17.5494 13.3572 16.1778 13.5867 15.3586 14.4003C13.409 16.3499 11.9282 14.8875 10.6571 13.598C8.99272 11.9573 7.68773 10.6286 9.63728 8.67906C10.4538 7.86256 10.6786 6.48647 9.80624 5.61409L6.18617 1.99402C5.52033 1.32804 4.36753 1.59657 3.9198 2.0883C1.97369 4.07304 0.854222 6.34098 1.63831 9.25581C2.43872 12.2313 4.46306 14.6398 7.05612 17.2009C9.61715 19.7939 11.6318 21.5909 14.6073 22.3913C17.5221 23.1754 19.9647 22.0641 21.9495 20.118C22.4412 19.6702 22.7097 18.5174 22.0437 17.8516ZM9.59634 14.6586C9.19082 14.2588 8.75075 13.8234 8.37567 13.3795C7.9997 12.9345 7.61796 12.4005 7.38614 11.7775C7.14114 11.1191 7.07323 10.3846 7.30198 9.61303C7.52123 8.87348 7.97828 8.21674 8.57662 7.6184C8.74573 7.4493 8.84403 7.22595 8.86095 7.03504C8.87584 6.86721 8.83077 6.75994 8.74558 6.67475L5.16751 3.09668C5.15755 3.09657 5.14488 3.09701 5.12947 3.09865C5.10699 3.10103 5.08293 3.10557 5.0589 3.11223C5.03478 3.11892 5.01434 3.12674 4.99885 3.1339C4.99641 3.13503 4.99419 3.1361 4.99222 3.13708L4.99083 3.13849C3.26105 4.90259 2.49003 6.6476 3.08682 8.86616C3.77569 11.427 5.5399 13.5951 8.11017 16.1336L8.1168 16.1402L8.12335 16.1468C10.6771 18.7325 12.4457 20.2565 14.9969 20.9428C17.24 21.5462 19.1594 20.7529 20.8993 19.0469L20.9007 19.0455C20.9017 19.0436 20.9027 19.0413 20.9039 19.0389C20.911 19.0234 20.9188 19.003 20.9255 18.9789C20.9322 18.9548 20.9367 18.9308 20.9391 18.9083C20.9407 18.8929 20.9412 18.8802 20.9411 18.8702L17.363 15.2922C17.2769 15.2061 17.1707 15.162 17.0046 15.1769C16.8147 15.194 16.5897 15.2922 16.4168 15.4634C15.8007 16.0789 15.1233 16.5238 14.3714 16.7269C13.5988 16.9355 12.8728 16.855 12.2374 16.6223C11.1292 16.2163 10.229 15.3014 9.65131 14.7144C9.63265 14.6955 9.61433 14.6768 9.59634 14.6586Z" fill="black"/>
<path fill-rule="evenodd" clip-rule="evenodd" d="M22.0437 17.8516L18.4237 14.2315C17.5494 13.3572 16.1778 13.5867 15.3586 14.4003C13.409 16.3499 11.9282 14.8875 10.6571 13.598C8.99272 11.9573 7.68773 10.6286 9.63728 8.67906C10.4538 7.86256 10.6786 6.48647 9.80624 5.61409L6.18617 1.99402C5.52033 1.32804 4.36753 1.59657 3.9198 2.0883C1.97369 4.07304 0.854222 6.34098 1.63831 9.25581C2.43872 12.2313 4.46306 14.6398 7.05612 17.2009C9.61715 19.7939 11.6318 21.5909 14.6073 22.3913C17.5221 23.1754 19.9647 22.0641 21.9495 20.118C22.4412 19.6702 22.7097 18.5174 22.0437 17.8516ZM9.59634 14.6586C9.19082 14.2588 8.75075 13.8234 8.37567 13.3795C7.9997 12.9345 7.61796 12.4005 7.38614 11.7775C7.14114 11.1191 7.07323 10.3846 7.30198 9.61303C7.52123 8.87348 7.97828 8.21674 8.57662 7.6184C8.74573 7.4493 8.84403 7.22595 8.86095 7.03504C8.87584 6.86721 8.83077 6.75994 8.74558 6.67475L5.16751 3.09668C5.15755 3.09657 5.14488 3.09701 5.12947 3.09865C5.10699 3.10103 5.08293 3.10557 5.0589 3.11223C5.03478 3.11892 5.01434 3.12674 4.99885 3.1339C4.99641 3.13503 4.99419 3.1361 4.99222 3.13708L4.99083 3.13849C3.26105 4.90259 2.49003 6.6476 3.08682 8.86616C3.77569 11.427 5.5399 13.5951 8.11017 16.1336L8.1168 16.1402L8.12335 16.1468C10.6771 18.7325 12.4457 20.2565 14.9969 20.9428C17.24 21.5462 19.1594 20.7529 20.8993 19.0469L20.9007 19.0455C20.9017 19.0436 20.9027 19.0413 20.9039 19.0389C20.911 19.0234 20.9188 19.003 20.9255 18.9789C20.9322 18.9548 20.9367 18.9308 20.9391 18.9083C20.9407 18.8929 20.9412 18.8802 20.9411 18.8702L17.363 15.2922C17.2769 15.2061 17.1707 15.162 17.0046 15.1769C16.8147 15.194 16.5897 15.2922 16.4168 15.4634C15.8007 16.0789 15.1233 16.5238 14.3714 16.7269C13.5988 16.9355 12.8728 16.855 12.2374 16.6223C11.1292 16.2163 10.229 15.3014 9.65131 14.7144C9.63265 14.6955 9.61433 14.6768 9.59634 14.6586Z" fill="black"/>
</svg>
