<svg width="24" height="24" viewBox="0 0 24 24" fill="none" xmlns="http://www.w3.org/2000/svg">
<path fill-rule="evenodd" clip-rule="evenodd" d="M8.90642 1.85119C9.48147 1.49492 10.1742 1.25 10.8602 1.25H13.1502C13.8323 1.25 14.5229 1.49572 15.0959 1.85165C15.6692 2.20774 16.1938 2.71694 16.4995 3.32165L16.5019 3.32644L17.2185 4.76968C17.374 5.06498 17.6797 5.25 18.0002 5.25C20.6015 5.25 22.6667 7.44412 22.4986 10.0385L21.9787 18.2971C21.9067 19.4372 21.5615 20.563 20.7691 21.4099C19.9622 22.2722 18.7815 22.75 17.2402 22.75H6.76016C5.21915 22.75 4.03612 22.2724 3.22801 21.4105C2.43411 20.5636 2.08836 19.4376 2.02153 18.2954L2.02143 18.2936L1.50173 10.0385C1.334 7.44443 3.3991 5.25 6.00016 5.25C6.32065 5.25 6.62634 5.06499 6.78176 4.7697L7.5008 3.32164C7.80654 2.71681 8.33138 2.20745 8.90642 1.85119ZM8.84058 3.99623L8.11608 5.45529C7.71068 6.23713 6.89788 6.75 6.00016 6.75C4.26145 6.75 2.88674 8.21588 2.99859 9.94149L2.99868 9.94288L3.5189 18.2064C3.57232 19.1236 3.84163 19.8718 4.32231 20.3845C4.7892 20.8826 5.54117 21.25 6.76016 21.25H17.2402C18.4588 21.25 19.2081 20.8828 19.6738 20.3851C20.1538 19.872 20.4236 19.1228 20.4816 18.2029L21.0017 9.94149C21.1136 8.21588 19.7389 6.75 18.0002 6.75C17.1024 6.75 16.2897 6.23707 15.8843 5.45524L15.8783 5.44361L15.1597 3.99624C15.0051 3.69158 14.7002 3.37169 14.3044 3.12585C13.9075 2.87928 13.488 2.75 13.1502 2.75H10.8602C10.5161 2.75 10.0938 2.88008 9.6964 3.12631C9.29986 3.37198 8.99518 3.6917 8.84058 3.99623Z" fill="black"/>
<path fill-rule="evenodd" clip-rule="evenodd" d="M9.75 8C9.75 7.58579 10.0858 7.25 10.5 7.25H13.5C13.9142 7.25 14.25 7.58579 14.25 8C14.25 8.41421 13.9142 8.75 13.5 8.75H10.5C10.0858 8.75 9.75 8.41421 9.75 8Z" fill="black"/>
<path fill-rule="evenodd" clip-rule="evenodd" d="M8 14.75C8 12.5458 9.79579 10.75 12 10.75C14.2042 10.75 16 12.5458 16 14.75C16 16.9542 14.2042 18.75 12 18.75C9.79579 18.75 8 16.9542 8 14.75ZM12 12.25C10.6242 12.25 9.5 13.3742 9.5 14.75C9.5 16.1258 10.6242 17.25 12 17.25C13.3758 17.25 14.5 16.1258 14.5 14.75C14.5 13.3742 13.3758 12.25 12 12.25Z" fill="black"/>
</svg>
