<svg width="24" height="24" viewBox="0 0 24 24" fill="none" xmlns="http://www.w3.org/2000/svg">
<path fill-rule="evenodd" clip-rule="evenodd" d="M5.25 10C5.25 9.58579 5.58579 9.25 6 9.25H9C9.41421 9.25 9.75 9.58579 9.75 10C9.75 10.4142 9.41421 10.75 9 10.75H6C5.58579 10.75 5.25 10.4142 5.25 10Z" fill="black"/>
<path fill-rule="evenodd" clip-rule="evenodd" d="M20.5598 6.90981C20.8911 6.66128 21.3612 6.72844 21.6098 7.05981C22.2213 7.87516 22.5702 8.91996 22.4983 10.0374L21.9783 18.2969C21.9063 19.437 21.5611 20.5628 20.7687 21.4097C19.9618 22.272 18.7811 22.7498 17.2398 22.7498H6.75977C6.34555 22.7498 6.00977 22.414 6.00977 21.9998C6.00977 21.5856 6.34555 21.2498 6.75977 21.2498H17.2398C18.4585 21.2498 19.2077 20.8826 19.6734 20.3849C20.1534 19.8718 20.4232 19.1225 20.4813 18.2026L21.0013 9.94152C21.0492 9.19921 20.8181 8.50428 20.4098 7.95981C20.1612 7.62844 20.2284 7.15834 20.5598 6.90981Z" fill="black"/>
<path fill-rule="evenodd" clip-rule="evenodd" d="M8.90642 1.85119C9.48147 1.49492 10.1742 1.25 10.8602 1.25H13.1502C13.8323 1.25 14.5229 1.49572 15.0959 1.85165C15.6692 2.20774 16.1938 2.71694 16.4995 3.32165L16.5019 3.32644L17.2185 4.76968C17.374 5.06498 17.6797 5.25 18.0002 5.25C18.4144 5.25 18.7502 5.58579 18.7502 6C18.7502 6.41421 18.4144 6.75 18.0002 6.75C17.1024 6.75 16.2897 6.23707 15.8843 5.45524L15.8783 5.44361L15.1597 3.99624C15.0051 3.69158 14.7002 3.37169 14.3044 3.12585C13.9075 2.87928 13.488 2.75 13.1502 2.75H10.8602C10.5161 2.75 10.0938 2.88008 9.6964 3.12631C9.29986 3.37198 8.99518 3.6917 8.84058 3.99623L8.11608 5.45529C7.71068 6.23713 6.89788 6.75 6.00016 6.75C4.26145 6.75 2.88674 8.21588 2.99859 9.94149L2.99868 9.94288L3.51877 18.2044C3.56314 18.932 3.74723 19.5646 4.06574 20.0463C4.29422 20.3918 4.19935 20.8571 3.85385 21.0856C3.50835 21.3141 3.04305 21.2192 2.81457 20.8737C2.31323 20.1156 2.07731 19.2085 2.0216 18.2964L1.50173 10.0385C1.334 7.44443 3.3991 5.25 6.00016 5.25C6.32065 5.25 6.62634 5.06499 6.78176 4.7697L7.5008 3.32164C7.80654 2.71681 8.33138 2.20745 8.90642 1.85119Z" fill="black"/>
<path fill-rule="evenodd" clip-rule="evenodd" d="M14.3457 12.3879C14.6946 12.1646 15.1585 12.2665 15.3817 12.6153C15.7787 13.2356 16 13.9658 16 14.7496C16 16.9538 14.2042 18.7496 12 18.7496C11.0757 18.7496 10.2145 18.4293 9.53809 17.9005C9.21177 17.6454 9.15405 17.174 9.40918 16.8477C9.6643 16.5214 10.1357 16.4636 10.462 16.7188C10.8856 17.0499 11.4243 17.2496 12 17.2496C13.3758 17.2496 14.5 16.1254 14.5 14.7496C14.5 14.2534 14.3613 13.8036 14.1183 13.4239C13.895 13.075 13.9969 12.6112 14.3457 12.3879Z" fill="black"/>
<path fill-rule="evenodd" clip-rule="evenodd" d="M22.5303 1.46967C22.8232 1.76256 22.8232 2.23744 22.5303 2.53033L2.53033 22.5303C2.23744 22.8232 1.76256 22.8232 1.46967 22.5303C1.17678 22.2374 1.17678 21.7626 1.46967 21.4697L21.4697 1.46967C21.7626 1.17678 22.2374 1.17678 22.5303 1.46967Z" fill="black"/>
</svg>
