<svg width="24" height="24" viewBox="0 0 24 24" fill="none" xmlns="http://www.w3.org/2000/svg">
<path d="M1.2002 19.52L5.5602 6.78H7.9102L12.1402 19.52H10.1402L9.1502 16.48H4.2302L3.2002 19.52H1.2002ZM4.7102 15.02H8.6802L6.7002 9.07L4.7102 15.02ZM20.6043 19.52L20.3643 17.31V13.3C20.3643 12.5133 20.2009 11.9433 19.8743 11.59C19.5476 11.23 19.0309 11.05 18.3243 11.05C17.9243 11.05 17.5676 11.11 17.2543 11.23C16.9476 11.3433 16.7043 11.5167 16.5243 11.75C16.3509 11.9833 16.2643 12.2767 16.2643 12.63H14.1643C14.1643 11.9233 14.3376 11.35 14.6843 10.91C15.0309 10.47 15.5143 10.15 16.1343 9.95C16.7609 9.74333 17.4909 9.64 18.3243 9.64C19.1043 9.64 19.7909 9.77 20.3843 10.03C20.9776 10.2833 21.4376 10.6833 21.7643 11.23C22.0976 11.7767 22.2643 12.4833 22.2643 13.35V19.52H20.6043ZM17.3843 19.78C16.5776 19.78 15.9076 19.64 15.3743 19.36C14.8409 19.0733 14.4409 18.7 14.1743 18.24C13.9143 17.78 13.7843 17.29 13.7843 16.77C13.7843 16.1367 13.9443 15.6167 14.2643 15.21C14.5909 14.7967 15.0409 14.49 15.6143 14.29C16.1876 14.09 16.8476 13.99 17.5943 13.99C18.1076 13.99 18.6076 14.0367 19.0943 14.13C19.5809 14.2233 20.0609 14.3467 20.5343 14.5V15.65C20.1476 15.51 19.7176 15.4 19.2443 15.32C18.7776 15.2333 18.3409 15.19 17.9343 15.19C17.3276 15.19 16.8209 15.31 16.4143 15.55C16.0076 15.79 15.8043 16.1967 15.8043 16.77C15.8043 17.19 15.9643 17.5533 16.2843 17.86C16.6043 18.16 17.1109 18.31 17.8043 18.31C18.3109 18.31 18.7576 18.1967 19.1443 17.97C19.5309 17.7367 19.8309 17.4467 20.0443 17.1C20.2576 16.7533 20.3643 16.4067 20.3643 16.06H20.8243C20.8243 16.7267 20.6876 17.3433 20.4143 17.91C20.1476 18.47 19.7576 18.9233 19.2443 19.27C18.7309 19.61 18.1109 19.78 17.3843 19.78ZM17.6643 8.36L16.7343 7.6L20.2543 4L21.5443 5.05L17.6643 8.36Z" fill="black"/>
</svg>
