<svg width="24" height="24" viewBox="0 0 24 24" fill="none" xmlns="http://www.w3.org/2000/svg">
<path fill-rule="evenodd" clip-rule="evenodd" d="M5.45993 3.11582C6.13644 2.42373 7.1214 2.08008 8.49001 2.08008H15.51C16.8786 2.08008 17.8636 2.42373 18.5401 3.11582C19.1893 3.77994 19.44 4.65695 19.6039 5.43557L19.6042 5.43673L20.7342 10.8467C20.7803 11.0678 20.7244 11.2979 20.582 11.4731C20.4396 11.6483 20.2258 11.7501 20 11.7501H4.00001C3.77419 11.7501 3.5604 11.6483 3.41798 11.4731C3.27556 11.2979 3.21968 11.0678 3.26585 10.8467L4.39609 5.43557C4.56001 4.65695 4.81074 3.77994 5.45993 3.11582ZM5.86392 5.74459L4.92285 10.2501H19.0772L18.1361 5.74459C17.98 5.0036 17.7956 4.5001 17.4674 4.16434C17.1664 3.85643 16.6314 3.58008 15.51 3.58008H8.49001C7.36861 3.58008 6.83357 3.85642 6.53259 4.16434C6.20435 4.50013 6.01997 5.0035 5.86392 5.74459Z" fill="black"/>
<path fill-rule="evenodd" clip-rule="evenodd" d="M3.31664 13.7997L2.75674 19.8887L2.75659 19.8902C2.68951 20.6038 3.26515 21.25 4.03989 21.25H5.91989C6.35978 21.25 6.44569 21.1565 6.44732 21.1548C6.48292 21.121 6.51943 21.0597 6.62837 20.7328L6.82837 20.1328C6.83363 20.1171 6.839 20.1009 6.8445 20.0843C6.95683 19.7452 7.12418 19.24 7.52905 18.8581C7.98727 18.426 8.62123 18.25 9.43989 18.25H14.5599C15.3574 18.25 15.9908 18.3992 16.4536 18.8264C16.8548 19.1968 17.0259 19.7027 17.147 20.0608C17.1547 20.0837 17.1623 20.106 17.1696 20.1276L17.1714 20.1328L17.3714 20.7328C17.4803 21.0597 17.5168 21.121 17.5524 21.1547C17.5524 21.1547 17.6363 21.25 18.0799 21.25H19.9599C20.7346 21.25 21.3103 20.6038 21.2432 19.8902L20.6831 13.7997L20.683 13.7987C20.6115 13.0326 20.5093 12.5798 20.2616 12.286C20.0496 12.0347 19.5901 11.75 18.3799 11.75H5.61989C4.40968 11.75 3.95015 12.0347 3.73819 12.286C3.49037 12.5799 3.3882 13.0333 3.31664 13.7997ZM2.59158 11.319C3.21463 10.5802 4.2101 10.25 5.61989 10.25H18.3799C19.7897 10.25 20.7851 10.5803 21.4082 11.319C21.9953 12.0151 22.1082 12.927 22.1766 13.6603L22.1767 13.6613L22.7366 19.7498C22.8893 21.3761 21.585 22.75 19.9599 22.75H18.0799C17.4435 22.75 16.9121 22.615 16.5198 22.2428C16.1846 21.9246 16.0464 21.5049 15.9637 21.2536C15.9584 21.2374 15.9533 21.2219 15.9484 21.2072L15.7493 20.6099C15.5927 20.1515 15.5291 20.0144 15.4362 19.9286C15.379 19.8758 15.2024 19.75 14.5599 19.75H9.43989C8.81854 19.75 8.62751 19.884 8.55823 19.9494C8.45542 20.0463 8.38876 20.1951 8.2514 20.6072L8.0514 21.2072C8.04649 21.2219 8.04139 21.2374 8.03606 21.2536C7.95336 21.5049 7.81522 21.9246 7.47993 22.2428C7.08767 22.615 6.5563 22.75 5.91989 22.75H4.03989C2.41491 22.75 1.11073 21.3767 1.2631 19.7507L1.82313 13.6603C1.89157 12.927 2.00446 12.0151 2.59158 11.319Z" fill="black"/>
<path fill-rule="evenodd" clip-rule="evenodd" d="M2.25 8C2.25 7.58579 2.58579 7.25 3 7.25H4C4.41421 7.25 4.75 7.58579 4.75 8C4.75 8.41421 4.41421 8.75 4 8.75H3C2.58579 8.75 2.25 8.41421 2.25 8Z" fill="black"/>
<path fill-rule="evenodd" clip-rule="evenodd" d="M19.25 8C19.25 7.58579 19.5858 7.25 20 7.25H21C21.4142 7.25 21.75 7.58579 21.75 8C21.75 8.41421 21.4142 8.75 21 8.75H20C19.5858 8.75 19.25 8.41421 19.25 8Z" fill="black"/>
<path fill-rule="evenodd" clip-rule="evenodd" d="M12 2.25C12.4142 2.25 12.75 2.58579 12.75 3V5C12.75 5.41421 12.4142 5.75 12 5.75C11.5858 5.75 11.25 5.41421 11.25 5V3C11.25 2.58579 11.5858 2.25 12 2.25Z" fill="black"/>
<path fill-rule="evenodd" clip-rule="evenodd" d="M9.75 5C9.75 4.58579 10.0858 4.25 10.5 4.25H13.5C13.9142 4.25 14.25 4.58579 14.25 5C14.25 5.41421 13.9142 5.75 13.5 5.75H10.5C10.0858 5.75 9.75 5.41421 9.75 5Z" fill="black"/>
<path fill-rule="evenodd" clip-rule="evenodd" d="M5.25 15C5.25 14.5858 5.58579 14.25 6 14.25H9C9.41421 14.25 9.75 14.5858 9.75 15C9.75 15.4142 9.41421 15.75 9 15.75H6C5.58579 15.75 5.25 15.4142 5.25 15Z" fill="black"/>
<path fill-rule="evenodd" clip-rule="evenodd" d="M14.25 15C14.25 14.5858 14.5858 14.25 15 14.25H18C18.4142 14.25 18.75 14.5858 18.75 15C18.75 15.4142 18.4142 15.75 18 15.75H15C14.5858 15.75 14.25 15.4142 14.25 15Z" fill="black"/>
</svg>
