<svg width="24" height="24" viewBox="0 0 24 24" fill="none" xmlns="http://www.w3.org/2000/svg">
<path fill-rule="evenodd" clip-rule="evenodd" d="M1.25 8.5C1.25 8.08579 1.58579 7.75 2 7.75H15.24C15.6542 7.75 15.99 8.08579 15.99 8.5C15.99 8.91421 15.6542 9.25 15.24 9.25H2C1.58579 9.25 1.25 8.91421 1.25 8.5Z" fill="black"/>
<path fill-rule="evenodd" clip-rule="evenodd" d="M5.25 16.5C5.25 16.0858 5.58579 15.75 6 15.75H7.29C7.70421 15.75 8.04 16.0858 8.04 16.5C8.04 16.9142 7.70421 17.25 7.29 17.25H6C5.58579 17.25 5.25 16.9142 5.25 16.5Z" fill="black"/>
<path fill-rule="evenodd" clip-rule="evenodd" d="M10.25 16.5C10.25 16.0858 10.5858 15.75 11 15.75H14.5C14.9142 15.75 15.25 16.0858 15.25 16.5C15.25 16.9142 14.9142 17.25 14.5 17.25H11C10.5858 17.25 10.25 16.9142 10.25 16.5Z" fill="black"/>
<path fill-rule="evenodd" clip-rule="evenodd" d="M22.0005 6.13965C22.4147 6.13965 22.7505 6.47543 22.7505 6.88965V16.1096C22.7505 17.8594 22.5494 19.2561 21.6433 20.1537C20.7398 21.0488 19.3338 21.2496 17.5605 21.2496H7.98047C7.56626 21.2496 7.23047 20.9139 7.23047 20.4996C7.23047 20.0854 7.56626 19.7496 7.98047 19.7496H17.5605C19.3472 19.7496 20.1612 19.5105 20.5876 19.0881C21.0115 18.6682 21.2505 17.8699 21.2505 16.1096V6.88965C21.2505 6.47543 21.5863 6.13965 22.0005 6.13965Z" fill="black"/>
<path fill-rule="evenodd" clip-rule="evenodd" d="M2.36143 3.84543C3.26591 2.95113 4.671 2.75 6.44 2.75H17.56C18.5914 2.75 19.4761 2.81983 20.1991 3.02974C20.5969 3.14523 20.8257 3.56132 20.7103 3.95911C20.5948 4.3569 20.1787 4.58575 19.7809 4.47026C19.2639 4.32017 18.5486 4.25 17.56 4.25H6.44C4.659 4.25 3.84409 4.48887 3.41607 4.91207C2.99101 5.33235 2.75 6.13117 2.75 7.89V16.1C2.75 17.2505 2.84951 18.0068 3.05543 18.5167C3.24003 18.9738 3.51421 19.2468 3.98489 19.4322C4.37028 19.584 4.55963 20.0195 4.40781 20.4049C4.25599 20.7903 3.82049 20.9796 3.43511 20.8278C2.58579 20.4932 2.00497 19.9212 1.66457 19.0783C1.34549 18.2882 1.25 17.2895 1.25 16.1V7.89C1.25 6.13883 1.45399 4.74265 2.36143 3.84543Z" fill="black"/>
<path fill-rule="evenodd" clip-rule="evenodd" d="M22.5303 1.46967C22.8232 1.76256 22.8232 2.23744 22.5303 2.53033L2.53033 22.5303C2.23744 22.8232 1.76256 22.8232 1.46967 22.5303C1.17678 22.2374 1.17678 21.7626 1.46967 21.4697L21.4697 1.46967C21.7626 1.17678 22.2374 1.17678 22.5303 1.46967Z" fill="black"/>
</svg>
