<svg width="24" height="24" viewBox="0 0 24 24" fill="none" xmlns="http://www.w3.org/2000/svg">
<path fill-rule="evenodd" clip-rule="evenodd" d="M1.24609 8.5C1.24609 8.08579 1.58188 7.75 1.99609 7.75H11.4961C11.9103 7.75 12.2461 8.08579 12.2461 8.5C12.2461 8.91421 11.9103 9.25 11.4961 9.25H1.99609C1.58188 9.25 1.24609 8.91421 1.24609 8.5Z" fill="black"/>
<path fill-rule="evenodd" clip-rule="evenodd" d="M5.24609 16.5C5.24609 16.0858 5.58188 15.75 5.99609 15.75H7.99609C8.41031 15.75 8.74609 16.0858 8.74609 16.5C8.74609 16.9142 8.41031 17.25 7.99609 17.25H5.99609C5.58188 17.25 5.24609 16.9142 5.24609 16.5Z" fill="black"/>
<path fill-rule="evenodd" clip-rule="evenodd" d="M9.74609 16.5C9.74609 16.0858 10.0819 15.75 10.4961 15.75H14.4961C14.9103 15.75 15.2461 16.0858 15.2461 16.5C15.2461 16.9142 14.9103 17.25 14.4961 17.25H10.4961C10.0819 17.25 9.74609 16.9142 9.74609 16.5Z" fill="black"/>
<path fill-rule="evenodd" clip-rule="evenodd" d="M3.41216 4.91207C2.9871 5.33235 2.74609 6.13117 2.74609 7.89V16.11C2.74609 17.8688 2.9871 18.6676 3.41216 19.0879C3.84018 19.5111 4.6551 19.75 6.43609 19.75H17.5561C19.3371 19.75 20.152 19.5111 20.58 19.0879C21.0051 18.6676 21.2461 17.8688 21.2461 16.11V12.03C21.2461 11.6158 21.5819 11.28 21.9961 11.28C22.4103 11.28 22.7461 11.6158 22.7461 12.03V16.11C22.7461 17.8612 22.5421 19.2574 21.6347 20.1546C20.7302 21.0489 19.3251 21.25 17.5561 21.25H6.43609C4.66709 21.25 3.26201 21.0489 2.35752 20.1546C1.45009 19.2574 1.24609 17.8612 1.24609 16.11V7.89C1.24609 6.13883 1.45009 4.74265 2.35752 3.84543C3.26201 2.95113 4.66709 2.75 6.43609 2.75H14.4961C14.9103 2.75 15.2461 3.08579 15.2461 3.5C15.2461 3.91421 14.9103 4.25 14.4961 4.25H6.43609C4.6551 4.25 3.84018 4.48887 3.41216 4.91207Z" fill="black"/>
<path fill-rule="evenodd" clip-rule="evenodd" d="M20.0544 2.79252C20.7373 2.72802 21.3675 3.04103 21.9365 3.61012C22.5024 4.176 22.8119 4.80476 22.7451 5.48613C22.6822 6.1281 22.299 6.62835 21.9365 6.99078L18.2265 10.7008C18.0809 10.8464 17.9007 10.9593 17.7441 11.0375C17.5868 11.1162 17.3895 11.1918 17.1875 11.2222L17.1808 11.2231L15.7582 11.4235C15.3027 11.486 14.8408 11.3607 14.5084 11.0283C14.1759 10.6958 14.0507 10.2339 14.1132 9.77846L14.1135 9.77585L14.3145 8.34919C14.3448 8.14713 14.4205 7.94987 14.4991 7.79254C14.5774 7.63601 14.6903 7.45573 14.8359 7.31012L18.5459 3.60012C18.9083 3.23772 19.4095 2.85344 20.0544 2.79252ZM20.1955 4.28588C20.0729 4.29746 19.8841 4.38318 19.6065 4.66078L15.8991 8.36821C15.8991 8.36821 15.8924 8.37628 15.8836 8.38929C15.8705 8.40856 15.8555 8.43402 15.8408 8.46336C15.8261 8.49266 15.8145 8.52056 15.8065 8.54368C15.8005 8.56105 15.7983 8.57086 15.7978 8.57302L15.6066 9.93003L16.9636 9.7389C16.9658 9.73839 16.9756 9.73611 16.993 9.73012C17.0161 9.72213 17.044 9.71053 17.0733 9.69588C17.1026 9.68121 17.1281 9.66613 17.1474 9.65306C17.1604 9.64423 17.1685 9.63755 17.1685 9.63755L20.8759 5.93012C21.1535 5.65255 21.2402 5.4628 21.2523 5.33977C21.2605 5.25614 21.25 5.0449 20.8759 4.67078C20.495 4.28987 20.2801 4.27788 20.1955 4.28588Z" fill="black"/>
<path fill-rule="evenodd" clip-rule="evenodd" d="M18.3417 3.93873C18.7403 3.82586 19.1549 4.05745 19.2677 4.456C19.5173 5.33723 20.2019 6.01831 21.0662 6.25753C21.4654 6.36802 21.6994 6.78121 21.5889 7.18042C21.4784 7.57962 21.0652 7.81367 20.666 7.70317C19.2903 7.32239 18.2149 6.24347 17.8245 4.8647C17.7116 4.46616 17.9432 4.05159 18.3417 3.93873Z" fill="black"/>
</svg>
