<svg width="24" height="24" viewBox="0 0 24 24" fill="none" xmlns="http://www.w3.org/2000/svg">
<path fill-rule="evenodd" clip-rule="evenodd" d="M1.25 8.5C1.25 8.08579 1.58579 7.75 2 7.75H14.5C14.9142 7.75 15.25 8.08579 15.25 8.5C15.25 8.91421 14.9142 9.25 14.5 9.25H2C1.58579 9.25 1.25 8.91421 1.25 8.5Z" fill="black"/>
<path fill-rule="evenodd" clip-rule="evenodd" d="M5.25 16.5C5.25 16.0858 5.58579 15.75 6 15.75H8C8.41421 15.75 8.75 16.0858 8.75 16.5C8.75 16.9142 8.41421 17.25 8 17.25H6C5.58579 17.25 5.25 16.9142 5.25 16.5Z" fill="black"/>
<path fill-rule="evenodd" clip-rule="evenodd" d="M9.75 16.5C9.75 16.0858 10.0858 15.75 10.5 15.75H14.5C14.9142 15.75 15.25 16.0858 15.25 16.5C15.25 16.9142 14.9142 17.25 14.5 17.25H10.5C10.0858 17.25 9.75 16.9142 9.75 16.5Z" fill="black"/>
<path fill-rule="evenodd" clip-rule="evenodd" d="M3.41607 4.91207C2.99101 5.33235 2.75 6.13117 2.75 7.89V16.11C2.75 17.8688 2.99101 18.6676 3.41607 19.0879C3.84409 19.5111 4.659 19.75 6.44 19.75H17.56C19.341 19.75 20.1559 19.5111 20.5839 19.0879C21.009 18.6676 21.25 17.8688 21.25 16.11V14.03C21.25 13.6158 21.5858 13.28 22 13.28C22.4142 13.28 22.75 13.6158 22.75 14.03V16.11C22.75 17.8612 22.546 19.2574 21.6386 20.1546C20.7341 21.0489 19.329 21.25 17.56 21.25H6.44C4.671 21.25 3.26591 21.0489 2.36143 20.1546C1.45399 19.2574 1.25 17.8612 1.25 16.11V7.89C1.25 6.13883 1.45399 4.74265 2.36143 3.84543C3.26591 2.95113 4.671 2.75 6.44 2.75H14.5C14.9142 2.75 15.25 3.08579 15.25 3.5C15.25 3.91421 14.9142 4.25 14.5 4.25H6.44C4.659 4.25 3.84409 4.48887 3.41607 4.91207Z" fill="black"/>
<path fill-rule="evenodd" clip-rule="evenodd" d="M20 2.75C20.4142 2.75 20.75 3.08579 20.75 3.5V7.68934L21.4697 6.96967C21.7626 6.67678 22.2374 6.67678 22.5303 6.96967C22.8232 7.26256 22.8232 7.73744 22.5303 8.03033L20.5303 10.0303C20.3158 10.2448 19.9932 10.309 19.713 10.1929C19.4327 10.0768 19.25 9.80335 19.25 9.5V3.5C19.25 3.08579 19.5858 2.75 20 2.75Z" fill="black"/>
<path fill-rule="evenodd" clip-rule="evenodd" d="M17.4697 6.96967C17.7626 6.67678 18.2374 6.67678 18.5303 6.96967L20.5303 8.96967C20.8232 9.26256 20.8232 9.73744 20.5303 10.0303C20.2374 10.3232 19.7626 10.3232 19.4697 10.0303L17.4697 8.03033C17.1768 7.73744 17.1768 7.26256 17.4697 6.96967Z" fill="black"/>
</svg>
