<svg width="24" height="24" viewBox="0 0 24 24" fill="none" xmlns="http://www.w3.org/2000/svg">
<path fill-rule="evenodd" clip-rule="evenodd" d="M1.25 8.5C1.25 8.08579 1.58579 7.75 2 7.75H13.5C13.9142 7.75 14.25 8.08579 14.25 8.5C14.25 8.91421 13.9142 9.25 13.5 9.25H2C1.58579 9.25 1.25 8.91421 1.25 8.5Z" fill="black"/>
<path fill-rule="evenodd" clip-rule="evenodd" d="M5.25 16.5C5.25 16.0858 5.58579 15.75 6 15.75H8C8.41421 15.75 8.75 16.0858 8.75 16.5C8.75 16.9142 8.41421 17.25 8 17.25H6C5.58579 17.25 5.25 16.9142 5.25 16.5Z" fill="black"/>
<path fill-rule="evenodd" clip-rule="evenodd" d="M9.75 16.5C9.75 16.0858 10.0858 15.75 10.5 15.75H14.5C14.9142 15.75 15.25 16.0858 15.25 16.5C15.25 16.9142 14.9142 17.25 14.5 17.25H10.5C10.0858 17.25 9.75 16.9142 9.75 16.5Z" fill="black"/>
<path fill-rule="evenodd" clip-rule="evenodd" d="M3.41607 4.91207C2.99101 5.33235 2.75 6.13117 2.75 7.89V16.11C2.75 17.8688 2.99101 18.6676 3.41607 19.0879C3.84409 19.5111 4.659 19.75 6.44 19.75H17.56C19.341 19.75 20.1559 19.5111 20.5839 19.0879C21.009 18.6676 21.25 17.8688 21.25 16.11V12.03C21.25 11.6158 21.5858 11.28 22 11.28C22.4142 11.28 22.75 11.6158 22.75 12.03V16.11C22.75 17.8612 22.546 19.2574 21.6386 20.1546C20.7341 21.0489 19.329 21.25 17.56 21.25H6.44C4.671 21.25 3.26591 21.0489 2.36143 20.1546C1.45399 19.2574 1.25 17.8612 1.25 16.11V7.89C1.25 6.13883 1.45399 4.74265 2.36143 3.84543C3.26591 2.95113 4.671 2.75 6.44 2.75H13.5C13.9142 2.75 14.25 3.08579 14.25 3.5C14.25 3.91421 13.9142 4.25 13.5 4.25H6.44C4.659 4.25 3.84409 4.48887 3.41607 4.91207Z" fill="black"/>
<path fill-rule="evenodd" clip-rule="evenodd" d="M21.7189 3.77924C22.0118 4.07213 22.0118 4.54701 21.7189 4.8399L17.8389 8.7199C17.546 9.01279 17.0712 9.01279 16.7783 8.7199C16.4854 8.42701 16.4854 7.95213 16.7783 7.65924L20.6583 3.77924C20.9512 3.48635 21.426 3.48635 21.7189 3.77924Z" fill="black"/>
<path fill-rule="evenodd" clip-rule="evenodd" d="M16.7783 3.77924C17.0712 3.48635 17.546 3.48635 17.8389 3.77924L21.7189 7.65924C22.0118 7.95213 22.0118 8.42701 21.7189 8.7199C21.426 9.01279 20.9512 9.01279 20.6583 8.7199L16.7783 4.8399C16.4854 4.54701 16.4854 4.07213 16.7783 3.77924Z" fill="black"/>
</svg>
