<svg width="24" height="24" viewBox="0 0 24 24" fill="none" xmlns="http://www.w3.org/2000/svg">
<path fill-rule="evenodd" clip-rule="evenodd" d="M1.25 8.5C1.25 8.08579 1.58579 7.75 2 7.75H14.5C14.9142 7.75 15.25 8.08579 15.25 8.5C15.25 8.91421 14.9142 9.25 14.5 9.25H2C1.58579 9.25 1.25 8.91421 1.25 8.5Z" fill="black"/>
<path fill-rule="evenodd" clip-rule="evenodd" d="M5.25 16.5C5.25 16.0858 5.58579 15.75 6 15.75H8C8.41421 15.75 8.75 16.0858 8.75 16.5C8.75 16.9142 8.41421 17.25 8 17.25H6C5.58579 17.25 5.25 16.9142 5.25 16.5Z" fill="black"/>
<path fill-rule="evenodd" clip-rule="evenodd" d="M9.75 16.5C9.75 16.0858 10.0858 15.75 10.5 15.75H14.5C14.9142 15.75 15.25 16.0858 15.25 16.5C15.25 16.9142 14.9142 17.25 14.5 17.25H10.5C10.0858 17.25 9.75 16.9142 9.75 16.5Z" fill="black"/>
<path fill-rule="evenodd" clip-rule="evenodd" d="M3.41607 4.91207C2.99101 5.33235 2.75 6.13117 2.75 7.89V16.11C2.75 17.8688 2.99101 18.6676 3.41607 19.0879C3.84409 19.5111 4.659 19.75 6.44 19.75H17.56C19.341 19.75 20.1559 19.5111 20.5839 19.0879C21.009 18.6676 21.25 17.8688 21.25 16.11V14.03C21.25 13.6158 21.5858 13.28 22 13.28C22.4142 13.28 22.75 13.6158 22.75 14.03V16.11C22.75 17.8612 22.546 19.2574 21.6386 20.1546C20.7341 21.0489 19.329 21.25 17.56 21.25H6.44C4.671 21.25 3.26591 21.0489 2.36143 20.1546C1.45399 19.2574 1.25 17.8612 1.25 16.11V7.89C1.25 6.13883 1.45399 4.74265 2.36143 3.84543C3.26591 2.95113 4.671 2.75 6.44 2.75H14.5C14.9142 2.75 15.25 3.08579 15.25 3.5C15.25 3.91421 14.9142 4.25 14.5 4.25H6.44C4.659 4.25 3.84409 4.48887 3.41607 4.91207Z" fill="black"/>
<path fill-rule="evenodd" clip-rule="evenodd" d="M19.713 2.80711C19.9932 2.69103 20.3158 2.75519 20.5303 2.96969L22.5303 4.96969C22.8232 5.26259 22.8232 5.73746 22.5303 6.03035C22.2374 6.32325 21.7626 6.32325 21.4697 6.03035L20.75 5.31068V9.50002C20.75 9.91424 20.4142 10.25 20 10.25C19.5858 10.25 19.25 9.91424 19.25 9.50002V3.50002C19.25 3.19668 19.4327 2.9232 19.713 2.80711Z" fill="black"/>
<path fill-rule="evenodd" clip-rule="evenodd" d="M20.5303 2.96969C20.8232 3.26259 20.8232 3.73744 20.5303 4.03033L18.5303 6.03033C18.2374 6.32322 17.7626 6.32322 17.4697 6.03033C17.1768 5.73744 17.1768 5.26256 17.4697 4.96967L19.4697 2.96967C19.7626 2.67678 20.2374 2.6768 20.5303 2.96969Z" fill="black"/>
</svg>
