<svg width="24" height="24" viewBox="0 0 24 24" fill="none" xmlns="http://www.w3.org/2000/svg">
<path fill-rule="evenodd" clip-rule="evenodd" d="M13.75 8.5C13.4739 8.5 13.25 8.72386 13.25 9C13.25 9.27614 13.4739 9.5 13.75 9.5C14.0261 9.5 14.25 9.27614 14.25 9C14.25 8.72386 14.0261 8.5 13.75 8.5ZM12.25 9C12.25 8.17157 12.9216 7.5 13.75 7.5C14.5784 7.5 15.25 8.17157 15.25 9C15.25 9.82843 14.5784 10.5 13.75 10.5C12.9216 10.5 12.25 9.82843 12.25 9Z" fill="black"/>
<path fill-rule="evenodd" clip-rule="evenodd" d="M10.25 8.5C9.97386 8.5 9.75 8.72386 9.75 9C9.75 9.27614 9.97386 9.5 10.25 9.5C10.5261 9.5 10.75 9.27614 10.75 9C10.75 8.72386 10.5261 8.5 10.25 8.5ZM8.75 9C8.75 8.17157 9.42157 7.5 10.25 7.5C11.0784 7.5 11.75 8.17157 11.75 9C11.75 9.82843 11.0784 10.5 10.25 10.5C9.42157 10.5 8.75 9.82843 8.75 9Z" fill="black"/>
<path fill-rule="evenodd" clip-rule="evenodd" d="M15.5 11.5C15.2239 11.5 15 11.7239 15 12C15 12.2761 15.2239 12.5 15.5 12.5C15.7761 12.5 16 12.2761 16 12C16 11.7239 15.7761 11.5 15.5 11.5ZM14 12C14 11.1716 14.6716 10.5 15.5 10.5C16.3284 10.5 17 11.1716 17 12C17 12.8284 16.3284 13.5 15.5 13.5C14.6716 13.5 14 12.8284 14 12Z" fill="black"/>
<path fill-rule="evenodd" clip-rule="evenodd" d="M17.1504 8.75C17.0123 8.75 16.9004 8.86193 16.9004 9C16.9004 9.13807 17.0123 9.25 17.1504 9.25C17.2885 9.25 17.4004 9.13807 17.4004 9C17.4004 8.86193 17.2885 8.75 17.1504 8.75ZM15.9004 9C15.9004 8.30964 16.46 7.75 17.1504 7.75C17.8407 7.75 18.4004 8.30964 18.4004 9C18.4004 9.69036 17.8407 10.25 17.1504 10.25C16.46 10.25 15.9004 9.69036 15.9004 9Z" fill="black"/>
<path fill-rule="evenodd" clip-rule="evenodd" d="M17.1504 14.75C17.0123 14.75 16.9004 14.8619 16.9004 15C16.9004 15.1381 17.0123 15.25 17.1504 15.25C17.2885 15.25 17.4004 15.1381 17.4004 15C17.4004 14.8619 17.2885 14.75 17.1504 14.75ZM15.9004 15C15.9004 14.3096 16.46 13.75 17.1504 13.75C17.8407 13.75 18.4004 14.3096 18.4004 15C18.4004 15.6904 17.8407 16.25 17.1504 16.25C16.46 16.25 15.9004 15.6904 15.9004 15Z" fill="black"/>
<path fill-rule="evenodd" clip-rule="evenodd" d="M19.75 11.75C19.6119 11.75 19.5 11.8619 19.5 12C19.5 12.1381 19.6119 12.25 19.75 12.25C19.8881 12.25 20 12.1381 20 12C20 11.8619 19.8881 11.75 19.75 11.75ZM18.5 12C18.5 11.3096 19.0596 10.75 19.75 10.75C20.4404 10.75 21 11.3096 21 12C21 12.6904 20.4404 13.25 19.75 13.25C19.0596 13.25 18.5 12.6904 18.5 12Z" fill="black"/>
<path fill-rule="evenodd" clip-rule="evenodd" d="M6.7998 8.75C6.66173 8.75 6.5498 8.86193 6.5498 9C6.5498 9.13807 6.66173 9.25 6.7998 9.25C6.93788 9.25 7.0498 9.13807 7.0498 9C7.0498 8.86193 6.93788 8.75 6.7998 8.75ZM5.5498 9C5.5498 8.30964 6.10945 7.75 6.7998 7.75C7.49016 7.75 8.0498 8.30964 8.0498 9C8.0498 9.69036 7.49016 10.25 6.7998 10.25C6.10945 10.25 5.5498 9.69036 5.5498 9Z" fill="black"/>
<path fill-rule="evenodd" clip-rule="evenodd" d="M6.7998 14.75C6.66173 14.75 6.5498 14.8619 6.5498 15C6.5498 15.1381 6.66173 15.25 6.7998 15.25C6.93788 15.25 7.0498 15.1381 7.0498 15C7.0498 14.8619 6.93788 14.75 6.7998 14.75ZM5.5498 15C5.5498 14.3096 6.10945 13.75 6.7998 13.75C7.49016 13.75 8.0498 14.3096 8.0498 15C8.0498 15.6904 7.49016 16.25 6.7998 16.25C6.10945 16.25 5.5498 15.6904 5.5498 15Z" fill="black"/>
<path fill-rule="evenodd" clip-rule="evenodd" d="M4.2002 11.75C4.06212 11.75 3.9502 11.8619 3.9502 12C3.9502 12.1381 4.06212 12.25 4.2002 12.25C4.33827 12.25 4.4502 12.1381 4.4502 12C4.4502 11.8619 4.33827 11.75 4.2002 11.75ZM2.9502 12C2.9502 11.3096 3.50984 10.75 4.2002 10.75C4.89055 10.75 5.4502 11.3096 5.4502 12C5.4502 12.6904 4.89055 13.25 4.2002 13.25C3.50984 13.25 2.9502 12.6904 2.9502 12Z" fill="black"/>
<path fill-rule="evenodd" clip-rule="evenodd" d="M15.9004 4.9502C15.7623 4.9502 15.6504 5.06212 15.6504 5.2002C15.6504 5.33827 15.7623 5.4502 15.9004 5.4502C16.0385 5.4502 16.1504 5.33827 16.1504 5.2002C16.1504 5.06212 16.0385 4.9502 15.9004 4.9502ZM14.6504 5.2002C14.6504 4.50984 15.21 3.9502 15.9004 3.9502C16.5907 3.9502 17.1504 4.50984 17.1504 5.2002C17.1504 5.89055 16.5907 6.4502 15.9004 6.4502C15.21 6.4502 14.6504 5.89055 14.6504 5.2002Z" fill="black"/>
<path fill-rule="evenodd" clip-rule="evenodd" d="M8.09961 4.9502C7.96154 4.9502 7.84961 5.06212 7.84961 5.2002C7.84961 5.33827 7.96154 5.4502 8.09961 5.4502C8.23768 5.4502 8.34961 5.33827 8.34961 5.2002C8.34961 5.06212 8.23768 4.9502 8.09961 4.9502ZM6.84961 5.2002C6.84961 4.50984 7.40925 3.9502 8.09961 3.9502C8.78997 3.9502 9.34961 4.50984 9.34961 5.2002C9.34961 5.89055 8.78997 6.4502 8.09961 6.4502C7.40925 6.4502 6.84961 5.89055 6.84961 5.2002Z" fill="black"/>
<path fill-rule="evenodd" clip-rule="evenodd" d="M12.0498 5.75C11.9117 5.75 11.7998 5.86193 11.7998 6C11.7998 6.13807 11.9117 6.25 12.0498 6.25C12.1879 6.25 12.2998 6.13807 12.2998 6C12.2998 5.86193 12.1879 5.75 12.0498 5.75ZM10.7998 6C10.7998 5.30964 11.3594 4.75 12.0498 4.75C12.7402 4.75 13.2998 5.30964 13.2998 6C13.2998 6.69036 12.7402 7.25 12.0498 7.25C11.3594 7.25 10.7998 6.69036 10.7998 6Z" fill="black"/>
<path fill-rule="evenodd" clip-rule="evenodd" d="M15.9004 18.75C15.7623 18.75 15.6504 18.8619 15.6504 19C15.6504 19.1381 15.7623 19.25 15.9004 19.25C16.0385 19.25 16.1504 19.1381 16.1504 19C16.1504 18.8619 16.0385 18.75 15.9004 18.75ZM14.6504 19C14.6504 18.3096 15.21 17.75 15.9004 17.75C16.5907 17.75 17.1504 18.3096 17.1504 19C17.1504 19.6904 16.5907 20.25 15.9004 20.25C15.21 20.25 14.6504 19.6904 14.6504 19Z" fill="black"/>
<path fill-rule="evenodd" clip-rule="evenodd" d="M8.09961 18.75C7.96154 18.75 7.84961 18.8619 7.84961 19C7.84961 19.1381 7.96154 19.25 8.09961 19.25C8.23768 19.25 8.34961 19.1381 8.34961 19C8.34961 18.8619 8.23768 18.75 8.09961 18.75ZM6.84961 19C6.84961 18.3096 7.40925 17.75 8.09961 17.75C8.78997 17.75 9.34961 18.3096 9.34961 19C9.34961 19.6904 8.78997 20.25 8.09961 20.25C7.40925 20.25 6.84961 19.6904 6.84961 19Z" fill="black"/>
<path fill-rule="evenodd" clip-rule="evenodd" d="M12.0498 17.9502C11.9117 17.9502 11.7998 18.0621 11.7998 18.2002C11.7998 18.3383 11.9117 18.4502 12.0498 18.4502C12.1879 18.4502 12.2998 18.3383 12.2998 18.2002C12.2998 18.0621 12.1879 17.9502 12.0498 17.9502ZM10.7998 18.2002C10.7998 17.5098 11.3594 16.9502 12.0498 16.9502C12.7402 16.9502 13.2998 17.5098 13.2998 18.2002C13.2998 18.8906 12.7402 19.4502 12.0498 19.4502C11.3594 19.4502 10.7998 18.8906 10.7998 18.2002Z" fill="black"/>
<path fill-rule="evenodd" clip-rule="evenodd" d="M8.5 11.5C8.22386 11.5 8 11.7239 8 12C8 12.2761 8.22386 12.5 8.5 12.5C8.77614 12.5 9 12.2761 9 12C9 11.7239 8.77614 11.5 8.5 11.5ZM7 12C7 11.1716 7.67157 10.5 8.5 10.5C9.32843 10.5 10 11.1716 10 12C10 12.8284 9.32843 13.5 8.5 13.5C7.67157 13.5 7 12.8284 7 12Z" fill="black"/>
<path fill-rule="evenodd" clip-rule="evenodd" d="M10.25 14.5C9.97386 14.5 9.75 14.7239 9.75 15C9.75 15.2761 9.97386 15.5 10.25 15.5C10.5261 15.5 10.75 15.2761 10.75 15C10.75 14.7239 10.5261 14.5 10.25 14.5ZM8.75 15C8.75 14.1716 9.42157 13.5 10.25 13.5C11.0784 13.5 11.75 14.1716 11.75 15C11.75 15.8284 11.0784 16.5 10.25 16.5C9.42157 16.5 8.75 15.8284 8.75 15Z" fill="black"/>
<path fill-rule="evenodd" clip-rule="evenodd" d="M13.75 14.5C13.4739 14.5 13.25 14.7239 13.25 15C13.25 15.2761 13.4739 15.5 13.75 15.5C14.0261 15.5 14.25 15.2761 14.25 15C14.25 14.7239 14.0261 14.5 13.75 14.5ZM12.25 15C12.25 14.1716 12.9216 13.5 13.75 13.5C14.5784 13.5 15.25 14.1716 15.25 15C15.25 15.8284 14.5784 16.5 13.75 16.5C12.9216 16.5 12.25 15.8284 12.25 15Z" fill="black"/>
<path fill-rule="evenodd" clip-rule="evenodd" d="M12 3.4502C11.4477 3.4502 11 3.00248 11 2.4502C11 1.89791 11.4477 1.4502 12 1.4502C12.5523 1.4502 13 1.89791 13 2.4502C13 3.00248 12.5523 3.4502 12 3.4502Z" fill="black"/>
<path fill-rule="evenodd" clip-rule="evenodd" d="M17.5 3.59961C17.0858 3.59961 16.75 3.26382 16.75 2.84961C16.75 2.4354 17.0858 2.09961 17.5 2.09961C17.9142 2.09961 18.25 2.4354 18.25 2.84961C18.25 3.26382 17.9142 3.59961 17.5 3.59961Z" fill="black"/>
<path fill-rule="evenodd" clip-rule="evenodd" d="M17.5 21.9502C17.0858 21.9502 16.75 21.6144 16.75 21.2002C16.75 20.786 17.0858 20.4502 17.5 20.4502C17.9142 20.4502 18.25 20.786 18.25 21.2002C18.25 21.6144 17.9142 21.9502 17.5 21.9502Z" fill="black"/>
<path fill-rule="evenodd" clip-rule="evenodd" d="M20 17.25C19.5858 17.25 19.25 16.9142 19.25 16.5C19.25 16.0858 19.5858 15.75 20 15.75C20.4142 15.75 20.75 16.0858 20.75 16.5C20.75 16.9142 20.4142 17.25 20 17.25Z" fill="black"/>
<path fill-rule="evenodd" clip-rule="evenodd" d="M20 7.75C19.5858 7.75 19.25 7.41421 19.25 7C19.25 6.58579 19.5858 6.25 20 6.25C20.4142 6.25 20.75 6.58579 20.75 7C20.75 7.41421 20.4142 7.75 20 7.75Z" fill="black"/>
<path fill-rule="evenodd" clip-rule="evenodd" d="M4 17.25C3.58579 17.25 3.25 16.9142 3.25 16.5C3.25 16.0858 3.58579 15.75 4 15.75C4.41421 15.75 4.75 16.0858 4.75 16.5C4.75 16.9142 4.41421 17.25 4 17.25Z" fill="black"/>
<path fill-rule="evenodd" clip-rule="evenodd" d="M4 7.75C3.58579 7.75 3.25 7.41421 3.25 7C3.25 6.58579 3.58579 6.25 4 6.25C4.41421 6.25 4.75 6.58579 4.75 7C4.75 7.41421 4.41421 7.75 4 7.75Z" fill="black"/>
<path fill-rule="evenodd" clip-rule="evenodd" d="M6.5 3.59961C6.08579 3.59961 5.75 3.26382 5.75 2.84961C5.75 2.4354 6.08579 2.09961 6.5 2.09961C6.91421 2.09961 7.25 2.4354 7.25 2.84961C7.25 3.26382 6.91421 3.59961 6.5 3.59961Z" fill="black"/>
<path fill-rule="evenodd" clip-rule="evenodd" d="M6.5 21.9502C6.08579 21.9502 5.75 21.6144 5.75 21.2002C5.75 20.786 6.08579 20.4502 6.5 20.4502C6.91421 20.4502 7.25 20.786 7.25 21.2002C7.25 21.6144 6.91421 21.9502 6.5 21.9502Z" fill="black"/>
<path fill-rule="evenodd" clip-rule="evenodd" d="M12 22.5C11.4477 22.5 11 22.0523 11 21.5C11 20.9477 11.4477 20.5 12 20.5C12.5523 20.5 13 20.9477 13 21.5C13 22.0523 12.5523 22.5 12 22.5Z" fill="black"/>
<path fill-rule="evenodd" clip-rule="evenodd" d="M1.5498 13C0.99752 13 0.549805 12.5523 0.549805 12C0.549805 11.4477 0.99752 11 1.5498 11C2.10209 11 2.5498 11.4477 2.5498 12C2.5498 12.5523 2.10209 13 1.5498 13Z" fill="black"/>
<path fill-rule="evenodd" clip-rule="evenodd" d="M22.5 13C21.9477 13 21.5 12.5523 21.5 12C21.5 11.4477 21.9477 11 22.5 11C23.0523 11 23.5 11.4477 23.5 12C23.5 12.5523 23.0523 13 22.5 13Z" fill="black"/>
</svg>
