<svg width="22" height="22" viewBox="0 0 22 22" fill="none" xmlns="http://www.w3.org/2000/svg">
<path fill-rule="evenodd" clip-rule="evenodd" d="M10.75 1.5C5.64137 1.5 1.5 5.64137 1.5 10.75C1.5 15.8586 5.64137 20 10.75 20C15.8586 20 20 15.8586 20 10.75C20 5.64137 15.8586 1.5 10.75 1.5ZM0 10.75C0 4.81294 4.81294 0 10.75 0C16.6871 0 21.5 4.81294 21.5 10.75C21.5 16.6871 16.6871 21.5 10.75 21.5C4.81294 21.5 0 16.6871 0 10.75Z" fill="black"/>
<path fill-rule="evenodd" clip-rule="evenodd" d="M10.75 9.5C10.0596 9.5 9.5 10.0596 9.5 10.75C9.5 11.4404 10.0596 12 10.75 12C11.4404 12 12 11.4404 12 10.75C12 10.0596 11.4404 9.5 10.75 9.5ZM8 10.75C8 9.23122 9.23122 8 10.75 8C12.2688 8 13.5 9.23122 13.5 10.75C13.5 12.2688 12.2688 13.5 10.75 13.5C9.23122 13.5 8 12.2688 8 10.75Z" fill="black"/>
</svg>
