<svg width="24" height="24" viewBox="0 0 24 24" fill="none" xmlns="http://www.w3.org/2000/svg">
<path fill-rule="evenodd" clip-rule="evenodd" d="M11.9996 7.34961C9.43161 7.34961 7.34961 9.49581 7.34961 12.0996C7.34961 14.6854 9.41382 16.7496 11.9996 16.7496C13.4383 16.7496 14.8288 15.9816 15.7051 14.8423C15.9577 14.514 16.4286 14.4526 16.7569 14.7051C17.0852 14.9577 17.1466 15.4286 16.8941 15.7569C15.7704 17.2177 13.9609 18.2496 11.9996 18.2496C8.5854 18.2496 5.84961 15.5138 5.84961 12.0996C5.84961 8.70341 8.56761 5.84961 11.9996 5.84961C13.357 5.84961 14.7212 6.29958 15.7601 7.1076C16.087 7.3619 16.1459 7.8331 15.8916 8.16006C15.6373 8.48703 15.1661 8.54593 14.8392 8.29162C14.078 7.69964 13.0422 7.34961 11.9996 7.34961Z" fill="black"/>
<path fill-rule="evenodd" clip-rule="evenodd" d="M17.4002 9.75C17.1517 9.75 16.9502 9.95147 16.9502 10.2C16.9502 10.4485 17.1517 10.65 17.4002 10.65C17.6487 10.65 17.8502 10.4485 17.8502 10.2C17.8502 9.95147 17.6487 9.75 17.4002 9.75ZM15.4502 10.2C15.4502 9.12305 16.3232 8.25 17.4002 8.25C18.4771 8.25 19.3502 9.12304 19.3502 10.2C19.3502 11.277 18.4771 12.15 17.4002 12.15C16.3232 12.15 15.4502 11.277 15.4502 10.2Z" fill="black"/>
<path fill-rule="evenodd" clip-rule="evenodd" d="M12 2.75C6.89137 2.75 2.75 6.89137 2.75 12C2.75 17.1086 6.89137 21.25 12 21.25C17.1086 21.25 21.25 17.1086 21.25 12C21.25 6.89137 17.1086 2.75 12 2.75ZM1.25 12C1.25 6.06294 6.06294 1.25 12 1.25C17.9371 1.25 22.75 6.06294 22.75 12C22.75 17.9371 17.9371 22.75 12 22.75C6.06294 22.75 1.25 17.9371 1.25 12Z" fill="black"/>
</svg>
