<svg width="24" height="24" viewBox="0 0 24 24" fill="none" xmlns="http://www.w3.org/2000/svg">
<path fill-rule="evenodd" clip-rule="evenodd" d="M5.57031 12.2903C5.57031 11.2461 6.41611 10.4004 7.4603 10.4004H10.1103V11.1504H10.8603V17.4103C10.8603 17.8246 10.5245 18.1603 10.1103 18.1603H6.32031C5.9061 18.1603 5.57031 17.8246 5.57031 17.4103V12.2903ZM9.36029 11.9004H7.4603C7.24448 11.9004 7.07031 12.0746 7.07031 12.2903V16.6603H9.36029V11.9004Z" fill="black"/>
<path fill-rule="evenodd" clip-rule="evenodd" d="M9.35156 7.73962C9.35156 6.69544 10.1973 5.84961 11.2415 5.84961H12.7616C13.8144 5.84961 14.6416 6.70407 14.6416 7.73962V17.3997C14.6416 17.8139 14.3058 18.1497 13.8916 18.1497H10.1016C9.68735 18.1497 9.35156 17.8139 9.35156 17.3997V7.73962ZM11.2415 7.34961C11.0258 7.34961 10.8516 7.52381 10.8516 7.73962V16.6497H13.1416V7.73962C13.1416 7.51518 12.9687 7.34961 12.7616 7.34961H11.2415Z" fill="black"/>
<path fill-rule="evenodd" clip-rule="evenodd" d="M13.1484 12.8496C13.1484 12.4354 13.4842 12.0996 13.8984 12.0996H16.5484C17.5891 12.0996 18.422 12.9494 18.4384 13.9777L18.4385 13.9896L18.4384 17.3997C18.4384 17.8139 18.1027 18.1497 17.6884 18.1497H13.8984C13.4842 18.1497 13.1484 17.8139 13.1484 17.3997V12.8496ZM14.6484 13.5996V16.6497H16.9384V13.997C16.9324 13.7677 16.7465 13.5996 16.5484 13.5996H14.6484Z" fill="black"/>
<path fill-rule="evenodd" clip-rule="evenodd" d="M3.09467 3.09467C4.42914 1.7602 6.42603 1.25 9 1.25H15C17.574 1.25 19.5709 1.7602 20.9053 3.09467C22.2398 4.42914 22.75 6.42603 22.75 9V15C22.75 17.574 22.2398 19.5709 20.9053 20.9053C19.5709 22.2398 17.574 22.75 15 22.75H9C6.42603 22.75 4.42914 22.2398 3.09467 20.9053C1.7602 19.5709 1.25 17.574 1.25 15V9C1.25 6.42603 1.7602 4.42914 3.09467 3.09467ZM4.15533 4.15533C3.2398 5.07086 2.75 6.57397 2.75 9V15C2.75 17.426 3.2398 18.9291 4.15533 19.8447C5.07086 20.7602 6.57397 21.25 9 21.25H15C17.426 21.25 18.9291 20.7602 19.8447 19.8447C20.7602 18.9291 21.25 17.426 21.25 15V9C21.25 6.57397 20.7602 5.07086 19.8447 4.15533C18.9291 3.2398 17.426 2.75 15 2.75H9C6.57397 2.75 5.07086 3.2398 4.15533 4.15533Z" fill="black"/>
</svg>
