<svg width="24" height="24" viewBox="0 0 24 24" fill="none" xmlns="http://www.w3.org/2000/svg">
<path fill-rule="evenodd" clip-rule="evenodd" d="M1.25 12C1.25 6.06579 6.06579 1.25 12 1.25C17.9342 1.25 22.75 6.06579 22.75 12C22.75 17.9342 17.9342 22.75 12 22.75C6.06579 22.75 1.25 17.9342 1.25 12ZM12 2.75C6.89421 2.75 2.75 6.89421 2.75 12C2.75 17.1058 6.89421 21.25 12 21.25C17.1058 21.25 21.25 17.1058 21.25 12C21.25 6.89421 17.1058 2.75 12 2.75Z" fill="black"/>
<path fill-rule="evenodd" clip-rule="evenodd" d="M7.25 12C7.25 9.37579 9.37579 7.25 12 7.25C14.6242 7.25 16.75 9.37579 16.75 12C16.75 14.6242 14.6242 16.75 12 16.75C9.37579 16.75 7.25 14.6242 7.25 12ZM12 8.75C10.2042 8.75 8.75 10.2042 8.75 12C8.75 13.7958 10.2042 15.25 12 15.25C13.7958 15.25 15.25 13.7958 15.25 12C15.25 10.2042 13.7958 8.75 12 8.75Z" fill="black"/>
<path fill-rule="evenodd" clip-rule="evenodd" d="M11.84 7.26718C14.9655 6.58412 18.2048 6.58412 21.3303 7.26718C21.7349 7.35561 21.9913 7.75535 21.9029 8.16001C21.8144 8.56467 21.4147 8.82103 21.01 8.73259C18.0955 8.09565 15.0748 8.09565 12.1603 8.73259C11.7556 8.82103 11.3559 8.56467 11.2675 8.16001C11.179 7.75535 11.4354 7.35561 11.84 7.26718Z" fill="black"/>
<path fill-rule="evenodd" clip-rule="evenodd" d="M3.71323 5.34826C4.10619 5.21728 4.53093 5.42965 4.66191 5.8226L4.68018 5.87742C5.6591 8.67642 7.16049 11.2714 9.10619 13.5075C9.37809 13.8199 9.3452 14.2937 9.03271 14.5656C8.72023 14.8375 8.2465 14.8046 7.9746 14.4921C5.90148 12.1095 4.30351 9.34626 3.26239 6.36721L3.25881 6.35697L3.23889 6.29694C3.1079 5.90399 3.32027 5.47925 3.71323 5.34826Z" fill="black"/>
<path fill-rule="evenodd" clip-rule="evenodd" d="M15.7232 13.298C16.1111 13.4434 16.3076 13.8757 16.1621 14.2635L16.1382 14.3274C15.1649 17.3323 13.563 20.0996 11.4353 22.4442C11.1569 22.751 10.6826 22.774 10.3759 22.4956C10.0691 22.2172 10.0461 21.7429 10.3245 21.4362C12.3129 19.2451 13.8089 16.6583 14.7162 13.8497C14.7198 13.8386 14.7236 13.8277 14.7276 13.8169L14.7576 13.7369C14.9031 13.349 15.3354 13.1525 15.7232 13.298Z" fill="black"/>
</svg>
