<svg width="24" height="24" viewBox="0 0 24 24" fill="none" xmlns="http://www.w3.org/2000/svg">
<path fill-rule="evenodd" clip-rule="evenodd" d="M12.5387 9.10941C11.4605 8.88864 10.5498 9.69741 10.5498 10.6998C10.5498 11.2711 10.8387 11.8011 11.2719 12.0486L11.6498 12.2646V14.6998C11.6498 14.796 11.6928 14.9148 11.7826 15.0098C11.8665 15.0987 11.9745 15.1498 12.0998 15.1498C12.196 15.1498 12.3148 15.1068 12.4098 15.017C12.4987 14.9331 12.5498 14.8251 12.5498 14.6998V12.2841L12.9023 12.0638C13.445 11.7246 13.7821 11.052 13.5762 10.2971L13.5741 10.2894L13.5722 10.2817C13.4526 9.80332 13.0097 9.36544 12.5387 9.10941ZM9.0498 10.6998C9.0498 8.72664 10.8941 7.1503 12.9817 7.6722L13.0616 7.69216L13.1352 7.72898C13.8356 8.07917 14.7489 8.81784 15.0254 9.91002C15.3697 11.1839 14.8931 12.3655 14.0498 13.0785V14.6998C14.0498 15.8538 13.0731 16.6498 12.0998 16.6498C10.9458 16.6498 10.1498 15.6731 10.1498 14.6998V13.091C9.42822 12.5007 9.0498 11.585 9.0498 10.6998Z" fill="black"/>
<path fill-rule="evenodd" clip-rule="evenodd" d="M1.25 12C1.25 6.08579 6.08579 1.25 12 1.25C16.8406 1.25 20.9178 4.47441 22.3133 8.76819C22.4413 9.16212 22.2257 9.58525 21.8318 9.71328C21.4379 9.8413 21.0148 9.62575 20.8867 9.23181C19.6822 5.52559 16.1594 2.75 12 2.75C6.91421 2.75 2.75 6.91421 2.75 12C2.75 17.0858 6.91421 21.25 12 21.25C16.1709 21.25 19.6749 18.5659 20.7802 14.7893C20.8965 14.3918 21.3131 14.1638 21.7107 14.2802C22.1082 14.3965 22.3362 14.8131 22.2198 15.2107C20.9251 19.6341 16.8291 22.75 12 22.75C6.08579 22.75 1.25 17.9142 1.25 12Z" fill="black"/>
</svg>
