<svg width="24" height="24" viewBox="0 0 24 24" fill="none" xmlns="http://www.w3.org/2000/svg">
<path fill-rule="evenodd" clip-rule="evenodd" d="M7.25 12.2002C7.25 11.786 7.58579 11.4502 8 11.4502H15C15.4142 11.4502 15.75 11.786 15.75 12.2002C15.75 12.6144 15.4142 12.9502 15 12.9502H8C7.58579 12.9502 7.25 12.6144 7.25 12.2002Z" fill="black"/>
<path fill-rule="evenodd" clip-rule="evenodd" d="M7.25 16.2002C7.25 15.786 7.58579 15.4502 8 15.4502H12.38C12.7942 15.4502 13.13 15.786 13.13 16.2002C13.13 16.6144 12.7942 16.9502 12.38 16.9502H8C7.58579 16.9502 7.25 16.6144 7.25 16.2002Z" fill="black"/>
<path fill-rule="evenodd" clip-rule="evenodd" d="M9.92882 1.25015C9.95338 1.25022 9.97713 1.25029 10 1.25029H14C14.0229 1.25029 14.0466 1.25022 14.0712 1.25015C14.5142 1.24889 15.222 1.24688 15.791 1.62625C16.4753 2.08246 16.75 2.90124 16.75 4.00029C16.75 4.02316 16.7501 4.04691 16.7501 4.07147C16.7514 4.51445 16.7534 5.22226 16.374 5.79131C15.9178 6.47562 15.099 6.75029 14 6.75029H10C9.97713 6.75029 9.95338 6.75036 9.92882 6.75043C9.48584 6.75169 8.77803 6.7537 8.20897 6.37433C7.52467 5.91812 7.25 5.09934 7.25 4.00029C7.25 2.90124 7.52467 2.08246 8.20897 1.62625C8.77803 1.24688 9.48584 1.24889 9.92882 1.25015ZM9.04103 2.87433C8.97533 2.91812 8.75 3.09934 8.75 4.00029C8.75 4.90124 8.97533 5.08246 9.04103 5.12625C9.19042 5.22585 9.43524 5.25029 10 5.25029H14C14.901 5.25029 15.0822 5.02496 15.126 4.95926C15.2256 4.80987 15.25 4.56505 15.25 4.00029C15.25 3.09934 15.0247 2.91812 14.959 2.87433C14.8096 2.77473 14.5648 2.75029 14 2.75029H10C9.43524 2.75029 9.19042 2.77473 9.04103 2.87433Z" fill="black"/>
<path fill-rule="evenodd" clip-rule="evenodd" d="M8.74891 3.97907C8.77126 4.39268 8.45409 4.7461 8.04048 4.76846C6.43434 4.85528 5.43333 5.19275 4.80215 5.87598C4.1626 6.56827 3.75 7.78034 3.75 9.99955V15.9996C3.75 17.9863 4.01132 19.2307 4.68943 20.0057C5.34587 20.7559 6.56467 21.2495 9 21.2495H15C17.4353 21.2495 18.6541 20.7559 19.3106 20.0057C19.9887 19.2307 20.25 17.9863 20.25 15.9996V9.99955C20.25 7.77484 19.8372 6.56334 19.1982 5.87261C18.5674 5.19078 17.5669 4.85534 15.9595 4.76846C15.5459 4.7461 15.2287 4.39268 15.2511 3.97907C15.2735 3.56546 15.6269 3.24829 16.0405 3.27064C17.7631 3.36376 19.2626 3.73332 20.2993 4.85399C21.3278 5.96576 21.75 7.65427 21.75 9.99955V15.9996C21.75 18.0128 21.5113 19.7684 20.4394 20.9934C19.3459 22.2432 17.5647 22.7495 15 22.7495H9C6.43533 22.7495 4.65413 22.2432 3.56057 20.9934C2.48868 19.7684 2.25 18.0128 2.25 15.9996V9.99955C2.25 7.65876 2.6724 5.97083 3.70035 4.85812C4.73667 3.73635 6.23566 3.36383 7.95952 3.27064C8.37313 3.24829 8.72655 3.56546 8.74891 3.97907Z" fill="black"/>
</svg>
