<svg width="24" height="24" viewBox="0 0 24 24" fill="none" xmlns="http://www.w3.org/2000/svg">
<path fill-rule="evenodd" clip-rule="evenodd" d="M9.92882 1.25015C9.95338 1.25022 9.97713 1.25029 10 1.25029H14C14.0229 1.25029 14.0466 1.25022 14.0712 1.25015C14.5142 1.24889 15.222 1.24688 15.791 1.62625C16.4753 2.08246 16.75 2.90124 16.75 4.00029C16.75 4.02316 16.7501 4.04691 16.7501 4.07147C16.7514 4.51445 16.7534 5.22226 16.374 5.79131C15.9178 6.47562 15.099 6.75029 14 6.75029H10C9.97713 6.75029 9.95338 6.75036 9.92882 6.75043C9.48584 6.75169 8.77803 6.7537 8.20897 6.37433C7.52467 5.91812 7.25 5.09934 7.25 4.00029C7.25 2.90124 7.52467 2.08246 8.20897 1.62625C8.77803 1.24688 9.48584 1.24889 9.92882 1.25015ZM9.04103 2.87433C8.97533 2.91812 8.75 3.09934 8.75 4.00029C8.75 4.90124 8.97533 5.08246 9.04103 5.12625C9.19042 5.22585 9.43524 5.25029 10 5.25029H14C14.901 5.25029 15.0822 5.02496 15.126 4.95926C15.2256 4.80987 15.25 4.56505 15.25 4.00029C15.25 3.09934 15.0247 2.91812 14.959 2.87433C14.8096 2.77473 14.5648 2.75029 14 2.75029H10C9.43524 2.75029 9.19042 2.77473 9.04103 2.87433Z" fill="black"/>
<path fill-rule="evenodd" clip-rule="evenodd" d="M8.74891 3.97907C8.77126 4.39268 8.45409 4.7461 8.04048 4.76846C6.43434 4.85528 5.43333 5.19275 4.80215 5.87598C4.1626 6.56827 3.75 7.78034 3.75 9.99955V15.9996C3.75 17.9863 4.01132 19.2307 4.68943 20.0057C5.34587 20.7559 6.56467 21.2495 9 21.2495H14C14.4142 21.2495 14.75 21.5853 14.75 21.9995C14.75 22.4138 14.4142 22.7495 14 22.7495H9C6.43533 22.7495 4.65413 22.2432 3.56057 20.9934C2.48868 19.7684 2.25 18.0128 2.25 15.9996V9.99955C2.25 7.65876 2.6724 5.97083 3.70035 4.85812C4.73667 3.73635 6.23566 3.36383 7.95952 3.27064C8.37313 3.24829 8.72655 3.56546 8.74891 3.97907Z" fill="black"/>
<path fill-rule="evenodd" clip-rule="evenodd" d="M15.2511 3.97907C15.2735 3.56546 15.6269 3.24829 16.0405 3.27064C17.7631 3.36376 19.2626 3.73332 20.2993 4.85399C21.3278 5.96576 21.75 7.65427 21.75 9.99955V14.9996C21.75 15.4138 21.4142 15.7496 21 15.7496C20.5858 15.7496 20.25 15.4138 20.25 14.9996V9.99955C20.25 7.77484 19.8372 6.56334 19.1982 5.87261C18.5675 5.19078 17.5669 4.85534 15.9595 4.76846C15.5459 4.7461 15.2288 4.39268 15.2511 3.97907Z" fill="black"/>
<path fill-rule="evenodd" clip-rule="evenodd" d="M14.25 16C14.25 15.5858 14.5858 15.25 15 15.25H18C18.4142 15.25 18.75 15.5858 18.75 16C18.75 16.4142 18.4142 16.75 18 16.75H15.75V19C15.75 19.4142 15.4142 19.75 15 19.75C14.5858 19.75 14.25 19.4142 14.25 19V16Z" fill="black"/>
<path fill-rule="evenodd" clip-rule="evenodd" d="M14.5097 15.5097C14.8026 15.2168 15.2775 15.2168 15.5704 15.5097L21.5304 21.4697C21.8233 21.7626 21.8233 22.2375 21.5304 22.5304C21.2375 22.8233 20.7626 22.8233 20.4697 22.5304L14.5097 16.5704C14.2168 16.2775 14.2168 15.8026 14.5097 15.5097Z" fill="black"/>
</svg>
