<svg width="24" height="24" viewBox="0 0 24 24" fill="none" xmlns="http://www.w3.org/2000/svg">
<path fill-rule="evenodd" clip-rule="evenodd" d="M12 8.91016C12.4142 8.91016 12.75 9.24594 12.75 9.66016V12.1395L13.9303 13.3198C14.2232 13.6127 14.2232 14.0876 13.9303 14.3805C13.6374 14.6734 13.1626 14.6734 12.8697 14.3805L11.4697 12.9805C11.329 12.8398 11.25 12.6491 11.25 12.4502V9.66016C11.25 9.24594 11.5858 8.91016 12 8.91016Z" fill="black"/>
<path fill-rule="evenodd" clip-rule="evenodd" d="M12 6.25C8.82421 6.25 6.25 8.82421 6.25 12C6.25 13.8281 7.09663 15.4496 8.42331 16.5054C8.44931 16.5208 8.47445 16.5379 8.49859 16.5565C9.47158 17.3084 10.6814 17.75 12 17.75C13.3373 17.75 14.5558 17.2993 15.5281 16.5391C15.552 16.5204 15.577 16.5032 15.6029 16.4876C16.9116 15.4321 17.75 13.81 17.75 12C17.75 8.82421 15.1758 6.25 12 6.25ZM4.75 12C4.75 7.99579 7.99579 4.75 12 4.75C16.0042 4.75 19.25 7.99579 19.25 12C19.25 14.3201 18.1563 16.3944 16.4623 17.7205C16.4356 17.7414 16.4077 17.7604 16.3787 17.7774C15.1632 18.703 13.6494 19.25 12 19.25C10.3715 19.25 8.86905 18.7135 7.65463 17.7993C7.62581 17.7826 7.598 17.764 7.57141 17.7435C5.85554 16.4176 4.75 14.3421 4.75 12Z" fill="black"/>
<path fill-rule="evenodd" clip-rule="evenodd" d="M15.5281 16.5391C15.66 16.436 15.8229 16.3799 15.9903 16.3799H16.0003C16.2258 16.3799 16.4393 16.4814 16.5818 16.6562C16.7242 16.831 16.7804 17.0607 16.7348 17.2815L16.2248 19.7515C16.2223 19.7635 16.2196 19.7754 16.2165 19.7872C15.9415 20.8535 15.4673 21.6284 14.7801 22.1217C14.0999 22.6099 13.3109 22.7499 12.5503 22.7499H11.4603C10.7 22.7499 9.90814 22.6101 9.2264 22.1202C8.53692 21.6248 8.0626 20.8459 7.7929 19.7727C7.78997 19.761 7.78733 19.7493 7.78496 19.7376L7.29496 17.2976C7.2507 17.0772 7.30763 16.8485 7.45009 16.6746C7.59254 16.5007 7.80548 16.3999 8.03028 16.3999H8.04028C8.20625 16.3999 8.36725 16.4551 8.49859 16.5565C9.47158 17.3084 10.6814 17.75 12 17.75C13.3373 17.75 14.5558 17.2993 15.5281 16.5391ZM14.9232 18.6373C14.0304 19.0315 13.0421 19.25 12 19.25C10.9671 19.25 9.98523 19.0341 9.09509 18.6429L9.25194 19.424C9.46229 20.2496 9.78082 20.6715 10.1017 20.9021C10.4324 21.1397 10.8706 21.2499 11.4603 21.2499H12.5503C13.1396 21.2499 13.5756 21.1398 13.9054 20.9031C14.226 20.673 14.5446 20.2521 14.7596 19.4297L14.9232 18.6373Z" fill="black"/>
<path fill-rule="evenodd" clip-rule="evenodd" d="M9.2264 1.87967C9.90814 1.38983 10.7 1.25 11.4603 1.25H12.5503C13.3109 1.25 14.0999 1.38996 14.7801 1.87822C15.4673 2.37151 15.9415 3.14638 16.2165 4.21271C16.2196 4.22452 16.2223 4.2364 16.2248 4.24834L16.7348 6.71834C16.7804 6.93919 16.7242 7.16884 16.5818 7.34369C16.4393 7.51853 16.2258 7.62 16.0003 7.62H15.9903C15.8229 7.62 15.6602 7.56398 15.5283 7.46086C14.5561 6.70071 13.3373 6.25 12 6.25C10.6814 6.25 9.47186 6.6916 8.49887 7.44346C8.36753 7.54495 8.20625 7.6 8.04028 7.6H8.03028C7.80548 7.6 7.59254 7.49917 7.45009 7.32526C7.30763 7.15136 7.2507 6.92273 7.29496 6.70233L7.78496 4.26233C7.78733 4.25056 7.78997 4.23885 7.7929 4.2272C8.0626 3.154 8.53692 2.37507 9.2264 1.87967ZM9.25194 4.5759L9.09509 5.35695C9.98523 4.96583 10.9671 4.75 12 4.75C13.0421 4.75 14.0304 4.96836 14.9232 5.36262L14.7596 4.57016C14.5446 3.74778 14.226 3.32689 13.9054 3.09678C13.5756 2.86004 13.1396 2.75 12.5503 2.75H11.4603C10.8706 2.75 10.4324 2.86017 10.1017 3.09783C9.78082 3.32836 9.46229 3.75026 9.25194 4.5759Z" fill="black"/>
</svg>
