<svg width="24" height="24" viewBox="0 0 24 24" fill="none" xmlns="http://www.w3.org/2000/svg">
<path fill-rule="evenodd" clip-rule="evenodd" d="M15.3603 8.63959C15.6531 8.93249 15.6531 9.40736 15.3603 9.70025L9.70025 15.3603C9.40736 15.6531 8.93249 15.6531 8.63959 15.3603C8.3467 15.0674 8.3467 14.5925 8.63959 14.2996L14.2996 8.63959C14.5925 8.3467 15.0674 8.3467 15.3603 8.63959Z" fill="black"/>
<path fill-rule="evenodd" clip-rule="evenodd" d="M8.63959 8.63959C8.93249 8.3467 9.40736 8.3467 9.70025 8.63959L15.3603 14.2996C15.6531 14.5925 15.6531 15.0674 15.3603 15.3603C15.0674 15.6531 14.5925 15.6531 14.2996 15.3603L8.63959 9.70025C8.3467 9.40736 8.3467 8.93249 8.63959 8.63959Z" fill="black"/>
<path fill-rule="evenodd" clip-rule="evenodd" d="M3.09467 3.09467C4.42914 1.7602 6.42603 1.25 9 1.25H15C17.574 1.25 19.5709 1.7602 20.9053 3.09467C22.2398 4.42914 22.75 6.42603 22.75 9V15C22.75 17.574 22.2398 19.5709 20.9053 20.9053C19.5709 22.2398 17.574 22.75 15 22.75H9C6.42603 22.75 4.42914 22.2398 3.09467 20.9053C1.7602 19.5709 1.25 17.574 1.25 15V9C1.25 6.42603 1.7602 4.42914 3.09467 3.09467ZM4.15533 4.15533C3.2398 5.07086 2.75 6.57397 2.75 9V15C2.75 17.426 3.2398 18.9291 4.15533 19.8447C5.07086 20.7602 6.57397 21.25 9 21.25H15C17.426 21.25 18.9291 20.7602 19.8447 19.8447C20.7602 18.9291 21.25 17.426 21.25 15V9C21.25 6.57397 20.7602 5.07086 19.8447 4.15533C18.9291 3.2398 17.426 2.75 15 2.75H9C6.57397 2.75 5.07086 3.2398 4.15533 4.15533Z" fill="black"/>
</svg>
