<svg width="24" height="24" viewBox="0 0 24 24" fill="none" xmlns="http://www.w3.org/2000/svg">
<path fill-rule="evenodd" clip-rule="evenodd" d="M7.55198 6.16979C6.10313 7.4542 5.30058 9.56195 6.29574 12.3475C6.3778 12.5772 6.34304 12.8324 6.20254 13.0318C6.06205 13.2312 5.83337 13.3498 5.58946 13.3498H5.56787C1.86055 13.6442 1.84941 19.0341 5.56793 19.3298H16.635C17.7959 19.3384 18.9124 18.9086 19.7619 18.1277L19.7736 18.1171C20.9836 17.051 21.394 15.5323 21.1591 14.0795C21.093 13.6706 21.3709 13.2855 21.7798 13.2194C22.1887 13.1533 22.5737 13.4312 22.6398 13.8401C22.9446 15.725 22.4166 17.7837 20.7712 19.2373C19.6422 20.2724 18.1622 20.8405 16.6268 20.8298H5.53946C5.52129 20.8298 5.50312 20.8292 5.485 20.8278C0.202595 20.4433 -0.113147 13.1262 4.61719 11.985C3.86224 9.0316 4.80449 6.60089 6.55694 5.04735C8.43457 3.38283 11.2046 2.76235 13.6091 3.53585C14.0034 3.66269 14.2203 4.08517 14.0934 4.47949C13.9666 4.8738 13.5441 5.09063 13.1498 4.96379C11.2644 4.35729 9.04436 4.84681 7.55198 6.16979Z" fill="black"/>
<path fill-rule="evenodd" clip-rule="evenodd" d="M4.83996 12.5867C4.8471 12.1725 5.18862 11.8426 5.60278 11.8497C6.29516 11.8617 6.97532 12.0288 7.59526 12.3388C7.96574 12.524 8.11591 12.9745 7.93067 13.345C7.74542 13.7155 7.29492 13.8657 6.92444 13.6804C6.50437 13.4704 6.04453 13.3576 5.57692 13.3495C5.16276 13.3424 4.83282 13.0008 4.83996 12.5867Z" fill="black"/>
<path fill-rule="evenodd" clip-rule="evenodd" d="M16.5948 6.49656C16.5737 6.52394 16.5507 6.54999 16.5259 6.57449C16.0241 7.06845 15.7197 7.74789 15.7197 8.5C15.7197 10.0158 16.9539 11.25 18.4697 11.25C19.1136 11.25 19.7173 11.0217 20.1764 10.6482L20.1847 10.6415C20.8201 10.1395 21.2197 9.36381 21.2197 8.5C21.2197 6.98421 19.9855 5.75 18.4697 5.75C17.7457 5.75 17.0822 6.03183 16.5948 6.49656ZM15.4652 5.50386C16.2329 4.72398 17.3041 4.25 18.4697 4.25C20.8139 4.25 22.7197 6.15579 22.7197 8.5C22.7197 9.83429 22.1011 11.0371 21.1189 11.8152C20.3986 12.3996 19.4639 12.75 18.4697 12.75C16.1255 12.75 14.2197 10.8442 14.2197 8.5C14.2197 7.36961 14.6653 6.33977 15.3996 5.5802C15.4196 5.55346 15.4415 5.52794 15.4652 5.50386Z" fill="black"/>
</svg>
