<svg width="24" height="24" viewBox="0 0 24 24" fill="none" xmlns="http://www.w3.org/2000/svg">
<path fill-rule="evenodd" clip-rule="evenodd" d="M15.9235 9.34368C15.5859 8.00942 14.8475 7.05427 13.8896 6.49085C12.8307 5.86803 11.5756 5.7661 10.4527 6.06041C9.32971 6.35473 8.28527 7.05932 7.66502 8.12039C7.15139 8.99907 6.95694 10.0741 7.19942 11.269C4.32283 12.2384 4.64431 16.8549 8.05705 17.0978C8.07477 17.099 8.09253 17.0997 8.1103 17.0997H14.7759C15.7805 17.1108 16.737 16.727 17.4679 16.0709C18.713 14.9799 18.9784 13.358 18.5653 12.0012C18.1988 10.7975 17.2726 9.71831 15.9235 9.34368ZM8.13672 12.5999C8.22209 12.6003 8.30899 12.586 8.394 12.5555C8.7838 12.4154 8.98622 11.9858 8.84613 11.596C8.43075 10.4402 8.57627 9.53384 8.96001 8.87737C9.35413 8.20312 10.0434 7.71833 10.833 7.5114C11.6225 7.30447 12.4587 7.38941 13.1291 7.78378C13.7818 8.16767 14.35 8.88693 14.5503 10.1017C14.6043 10.429 14.8668 10.6819 15.1959 10.7237C16.1545 10.8454 16.8587 11.546 17.1303 12.4381C17.4018 13.3299 17.2083 14.3058 16.4768 14.9449L16.4686 14.9522C16.0013 15.3728 15.4014 15.6073 14.7896 15.5997L8.1391 15.5997C6.27376 15.4436 6.29842 12.7559 8.13672 12.5999Z" fill="black"/>
<path fill-rule="evenodd" clip-rule="evenodd" d="M2 14.25C2.41421 14.25 2.75 14.5858 2.75 15C2.75 17.9666 4.8091 20.4456 7.57821 21.0881L7.30689 20.6359C7.09378 20.2807 7.20896 19.82 7.56414 19.6069C7.91933 19.3938 8.38002 19.5089 8.59313 19.8641L9.64312 21.6141C9.78214 21.8458 9.78578 22.1344 9.65265 22.3695C9.51952 22.6047 9.2702 22.75 9 22.75C4.71579 22.75 1.25 19.2842 1.25 15C1.25 14.5858 1.58579 14.25 2 14.25Z" fill="black"/>
<path fill-rule="evenodd" clip-rule="evenodd" d="M14.3474 1.63047C14.4805 1.39534 14.7298 1.25 15 1.25C19.2842 1.25 22.75 4.71579 22.75 9C22.75 9.41421 22.4142 9.75 22 9.75C21.5858 9.75 21.25 9.41421 21.25 9C21.25 6.03342 19.1909 3.55436 16.4218 2.91194L16.6931 3.36413C16.9062 3.71932 16.791 4.18001 16.4359 4.39312C16.0807 4.60623 15.62 4.49105 15.4069 4.13587L14.3569 2.38587C14.2179 2.15417 14.2142 1.8656 14.3474 1.63047Z" fill="black"/>
</svg>
