<svg width="24" height="24" viewBox="0 0 24 24" fill="none" xmlns="http://www.w3.org/2000/svg">
<path fill-rule="evenodd" clip-rule="evenodd" d="M6.28842 11.0674C6.31755 11.4806 6.00621 11.8392 5.59303 11.8683C1.8511 12.1321 1.84271 17.5532 5.56784 17.8401H7.46032C7.87453 17.8401 8.21032 18.1759 8.21032 18.5901C8.21032 19.0044 7.87453 19.3401 7.46032 19.3401H5.54027C5.52267 19.3401 5.50508 19.3395 5.48752 19.3383C-0.122142 18.9427 -0.122142 10.7676 5.48752 10.372C5.90071 10.3429 6.25928 10.6542 6.28842 11.0674Z" fill="black"/>
<path fill-rule="evenodd" clip-rule="evenodd" d="M6.52186 5.92352C5.80277 7.15638 5.56031 8.81993 6.29574 10.8658C6.43585 11.2556 6.23345 11.6852 5.84366 11.8253C5.45386 11.9655 5.02428 11.763 4.88417 11.3733C4.0146 8.95417 4.26088 6.82272 5.22615 5.16777C6.18111 3.53051 7.79845 2.43004 9.55404 1.968C11.3096 1.50598 13.2568 1.66839 14.8884 2.62753C16.4212 3.52858 17.6111 5.09514 18.1085 7.35067C20.3212 7.84644 21.849 9.55904 22.4412 11.5063C23.0801 13.607 22.663 16.0881 20.7693 17.7492C19.6332 18.7806 18.165 19.3502 16.6273 19.3396H16.5399C16.1257 19.3396 15.7899 19.0038 15.7899 18.5896C15.7899 18.1753 16.1257 17.8396 16.5399 17.8396H16.6355C17.7943 17.8481 18.9028 17.4196 19.7652 16.6349L19.7761 16.6251C21.1577 15.4162 21.5041 13.58 21.0061 11.9428C20.5083 10.3059 19.1991 8.97522 17.3754 8.74358C17.0465 8.7018 16.784 8.44898 16.7299 8.12183C16.3747 5.97183 15.3532 4.64075 14.1283 3.92065C12.8855 3.1901 11.3577 3.04438 9.93581 3.41861C8.51391 3.79282 7.25126 4.67297 6.52186 5.92352Z" fill="black"/>
<path fill-rule="evenodd" clip-rule="evenodd" d="M12 12.2803C9.65421 12.2803 7.75 14.1845 7.75 16.5303C7.75 17.1616 7.88635 17.7494 8.13514 18.2636C8.13867 18.2709 8.14209 18.2783 8.14538 18.2857C8.21179 18.4351 8.28544 18.5739 8.36598 18.7028L8.37505 18.7177C9.10546 19.9492 10.4554 20.7803 12 20.7803C13.5446 20.7803 14.8945 19.9492 15.6249 18.7177L15.634 18.7028C15.7146 18.5739 15.7882 18.4351 15.8546 18.2857C15.8579 18.2783 15.8613 18.2709 15.8649 18.2636C16.1137 17.7494 16.25 17.1616 16.25 16.5303C16.25 14.1845 14.3458 12.2803 12 12.2803ZM6.25 16.5303C6.25 13.3561 8.82579 10.7803 12 10.7803C15.1742 10.7803 17.75 13.3561 17.75 16.5303C17.75 17.3746 17.5681 18.1829 17.2204 18.906C17.1292 19.1098 17.0261 19.3048 16.9107 19.4903C15.9201 21.1547 14.0923 22.2803 12 22.2803C9.90772 22.2803 8.07994 21.1547 7.08932 19.4903C6.97386 19.3048 6.87077 19.1098 6.77961 18.906C6.43185 18.1829 6.25 17.3746 6.25 16.5303Z" fill="black"/>
<path fill-rule="evenodd" clip-rule="evenodd" d="M14.111 15.0406C14.3923 15.3447 14.3738 15.8192 14.0697 16.1004L11.9397 18.0704C11.6439 18.3439 11.1849 18.335 10.9001 18.0501L9.9101 17.0601C9.6172 16.7672 9.61721 16.2924 9.9101 15.9995C10.203 15.7066 10.6779 15.7066 10.9708 15.9995L11.4507 16.4794L13.0512 14.9992C13.3553 14.718 13.8298 14.7365 14.111 15.0406Z" fill="black"/>
</svg>
