<svg width="24" height="24" viewBox="0 0 24 24" fill="none" xmlns="http://www.w3.org/2000/svg">
<path fill-rule="evenodd" clip-rule="evenodd" d="M18.0782 8.82014C17.5834 6.57526 16.4 5.01483 14.8754 4.11609C13.2516 3.15894 11.3134 2.99494 9.56571 3.45311C7.81801 3.91129 6.20765 5.00551 5.25646 6.63504C4.29498 8.28219 4.04933 10.4042 4.91372 12.8132C5.05362 13.203 5.48309 13.4057 5.87296 13.2658C6.26284 13.1259 6.46548 12.6964 6.32558 12.3065C5.59498 10.2705 5.83683 8.61625 6.55191 7.39122C7.27728 6.14856 8.53254 5.27466 9.9461 4.90408C11.3597 4.5335 12.8783 4.68013 14.1136 5.40829C15.3313 6.12605 16.3468 7.4516 16.6996 9.59186C16.7537 9.91959 17.0168 10.1727 17.3464 10.214C21.0119 10.6733 22.5201 15.6102 19.7359 18.0453L19.7251 18.0549C18.8728 18.8297 17.7643 19.2584 16.6153 19.2499C16.201 19.2468 15.8628 19.58 15.8597 19.9943C15.8566 20.4085 16.1899 20.7467 16.6041 20.7498C18.1326 20.7612 19.6018 20.1918 20.7288 19.1697C24.3365 16.0067 22.6266 9.83262 18.0782 8.82014Z" fill="black"/>
<path fill-rule="evenodd" clip-rule="evenodd" d="M5.55765 11.8199C6.27385 11.8078 6.98476 11.9775 7.6208 12.3016C7.98989 12.4896 8.13666 12.9412 7.94864 13.3103C7.76062 13.6794 7.309 13.8261 6.93992 13.6381C6.522 13.4252 6.06024 13.315 5.60291 13.3195C1.90359 13.6012 1.89859 18.9974 5.62345 19.2617C6.03663 19.291 6.3478 19.6498 6.31848 20.0629C6.28916 20.4761 5.93044 20.7873 5.51727 20.758C-0.0510248 20.3628 -0.0828975 12.2183 5.51738 11.8217C5.53079 11.8208 5.54421 11.8202 5.55765 11.8199Z" fill="black"/>
<path fill-rule="evenodd" clip-rule="evenodd" d="M18.2304 9.46657C18.2375 9.88072 17.9076 10.2222 17.4934 10.2294C17.0279 10.2374 16.5779 10.3493 16.1559 10.5603C15.7854 10.7456 15.3349 10.5954 15.1497 10.2249C14.9644 9.85442 15.1146 9.40392 15.4851 9.21867C16.1031 8.90967 16.773 8.74158 17.4675 8.72961C17.8817 8.72247 18.2232 9.05241 18.2304 9.46657Z" fill="black"/>
<path fill-rule="evenodd" clip-rule="evenodd" d="M12.9218 18.0605C13.2142 18.3539 13.2133 18.8287 12.9199 19.1211L10.0899 21.9411C9.79653 22.2335 9.32165 22.2326 9.02928 21.9392C8.73691 21.6458 8.73775 21.1709 9.03116 20.8786L11.8612 18.0586C12.1546 17.7662 12.6294 17.767 12.9218 18.0605Z" fill="black"/>
<path fill-rule="evenodd" clip-rule="evenodd" d="M9.02928 18.0605C9.32165 17.767 9.79653 17.7662 10.0899 18.0586L12.9199 20.8786C13.2133 21.1709 13.2142 21.6458 12.9218 21.9392C12.6294 22.2326 12.1546 22.2335 11.8612 21.9411L9.03116 19.1211C8.73775 18.8287 8.73691 18.3539 9.02928 18.0605Z" fill="black"/>
</svg>
