<svg width="24" height="24" viewBox="0 0 24 24" fill="none" xmlns="http://www.w3.org/2000/svg">
<path fill-rule="evenodd" clip-rule="evenodd" d="M17.3966 6.15408C16.95 4.20437 15.9062 2.84038 14.56 2.05117C13.1144 1.20368 11.3923 1.06097 9.84219 1.46704C8.29209 1.87312 6.86012 2.84211 6.01283 4.28925C5.27258 5.55358 5.01043 7.12893 5.44405 8.90397C1.3182 9.99093 1.63792 16.4148 6.31643 16.7482C6.33417 16.7494 6.35195 16.7501 6.36974 16.7501H16.0267C17.3861 16.7608 18.6938 16.2502 19.6987 15.3401C22.8997 12.5346 21.4021 7.0997 17.3966 6.15408ZM6.39664 10.2602C6.48508 10.2617 6.57531 10.2475 6.6635 10.2158C7.05328 10.0757 7.25566 9.64611 7.11552 9.25632C6.48524 7.5033 6.69691 6.08963 7.30728 5.04714C7.92812 3.98677 9.00491 3.237 10.2223 2.91808C11.4397 2.59915 12.7438 2.72518 13.8014 3.34519C14.841 3.95467 15.7148 5.08355 16.0199 6.92276C16.0741 7.24963 16.3363 7.5022 16.665 7.54404C19.7957 7.94265 21.0774 12.1427 18.7062 14.2154L18.6956 14.2248C17.962 14.891 17.0132 15.2584 16.0362 15.2501L6.39779 15.2501C3.27838 15.0036 3.29278 10.506 6.39664 10.2602Z" fill="black"/>
<path fill-rule="evenodd" clip-rule="evenodd" d="M12 15.25C12.4142 15.25 12.75 15.5858 12.75 16V19C12.75 19.4142 12.4142 19.75 12 19.75C11.5858 19.75 11.25 19.4142 11.25 19V16C11.25 15.5858 11.5858 15.25 12 15.25Z" fill="black"/>
<path fill-rule="evenodd" clip-rule="evenodd" d="M12 19.75C11.3096 19.75 10.75 20.3096 10.75 21C10.75 21.6904 11.3096 22.25 12 22.25C12.6904 22.25 13.25 21.6904 13.25 21C13.25 20.3096 12.6904 19.75 12 19.75ZM9.25 21C9.25 19.4812 10.4812 18.25 12 18.25C13.5188 18.25 14.75 19.4812 14.75 21C14.75 22.5188 13.5188 23.75 12 23.75C10.4812 23.75 9.25 22.5188 9.25 21Z" fill="black"/>
<path fill-rule="evenodd" clip-rule="evenodd" d="M13.25 21C13.25 20.5858 13.5858 20.25 14 20.25H18C18.4142 20.25 18.75 20.5858 18.75 21C18.75 21.4142 18.4142 21.75 18 21.75H14C13.5858 21.75 13.25 21.4142 13.25 21Z" fill="black"/>
<path fill-rule="evenodd" clip-rule="evenodd" d="M5.25 21C5.25 20.5858 5.58579 20.25 6 20.25H10C10.4142 20.25 10.75 20.5858 10.75 21C10.75 21.4142 10.4142 21.75 10 21.75H6C5.58579 21.75 5.25 21.4142 5.25 21Z" fill="black"/>
</svg>
