<svg width="24" height="24" viewBox="0 0 24 24" fill="none" xmlns="http://www.w3.org/2000/svg">
<path fill-rule="evenodd" clip-rule="evenodd" d="M18.118 8.83061C17.6183 6.57718 16.4271 5.01206 14.8941 4.1117C13.2623 3.15329 11.3156 2.99043 9.5606 3.4518C7.80558 3.91318 6.18902 5.01274 5.23478 6.64939C4.38754 8.10252 4.0951 9.9233 4.6258 11.984C-0.0955395 13.1195 0.194958 20.4439 5.49729 20.8178C5.51484 20.819 5.53244 20.8197 5.55004 20.8197H16.6374C18.1722 20.8303 19.6516 20.2627 20.7804 19.2284C22.6783 17.5673 23.0952 15.0865 22.455 12.986C21.8613 11.0384 20.331 9.3261 18.118 8.83061ZM6.15594 11.8898C5.60951 10.0515 5.86648 8.544 6.53061 7.40492C7.25918 6.15533 8.52075 5.27613 9.94198 4.90251C11.3632 4.52888 12.8909 4.67477 14.1344 5.40511C15.3602 6.12505 16.3827 7.45532 16.7402 9.60283C16.7946 9.92957 17.0569 10.1819 17.3855 10.2237C19.2096 10.4554 20.5212 11.7865 21.0201 13.4233C21.519 15.0601 21.1728 16.8956 19.787 18.1045L19.7725 18.1175C18.9229 18.8984 17.8065 19.3283 16.6456 19.3197L5.57761 19.3197C1.86132 19.0333 1.86085 13.6374 5.57619 13.3498C6.05065 13.3538 6.51435 13.4664 6.92959 13.6779C7.29868 13.866 7.7503 13.7192 7.93832 13.3501C8.12634 12.981 7.97956 12.5294 7.61048 12.3414C7.15406 12.1089 6.66183 11.9571 6.15594 11.8898Z" fill="black"/>
<path fill-rule="evenodd" clip-rule="evenodd" d="M18.2697 9.49684C18.2768 9.91099 17.9469 10.2525 17.5327 10.2597C17.0651 10.2677 16.6052 10.3806 16.1852 10.5906C15.8147 10.7758 15.3642 10.6257 15.179 10.2552C14.9937 9.88469 15.1439 9.43419 15.5144 9.24895C16.1343 8.93898 16.8145 8.77182 17.5068 8.75988C17.921 8.75274 18.2625 9.08269 18.2697 9.49684Z" fill="black"/>
</svg>
