<svg width="24" height="24" viewBox="0 0 24 24" fill="none" xmlns="http://www.w3.org/2000/svg">
<path fill-rule="evenodd" clip-rule="evenodd" d="M5.22552 6.42584C4.50599 7.65812 4.26245 9.3212 4.99561 11.3672C5.13534 11.7571 4.93251 12.1865 4.54257 12.3262C4.15264 12.4659 3.72326 12.2631 3.58353 11.8732C2.71669 9.45412 2.96441 7.32346 3.93018 5.66948C4.88566 4.03313 6.50266 2.93367 8.25764 2.47231C10.0126 2.01096 11.9588 2.17374 13.5895 3.13235C15.1211 4.03269 16.3103 5.59751 16.8078 7.85004C18.7596 8.28354 20.175 9.66908 20.8883 11.3232C21.0523 11.7035 20.877 12.1448 20.4966 12.3088C20.1162 12.4729 19.6749 12.2975 19.5109 11.9172C18.9091 10.5217 17.7028 9.4466 16.077 9.24443C15.7473 9.20343 15.4839 8.95037 15.4296 8.62257C15.0744 6.47511 14.0537 5.14518 12.8293 4.42548C11.5873 3.69533 10.0603 3.54937 8.63901 3.92302C7.21773 4.29665 5.95536 5.17594 5.22552 6.42584Z" fill="black"/>
<path fill-rule="evenodd" clip-rule="evenodd" d="M16.9601 8.5066C16.9673 8.92076 16.6373 9.26228 16.2232 9.26942C15.7556 9.27748 15.2957 9.39033 14.8756 9.60036C14.5051 9.7856 14.0546 9.63543 13.8694 9.26495C13.6841 8.89446 13.8343 8.44396 14.2048 8.25872C14.8247 7.94875 15.5049 7.78158 16.1973 7.76965C16.6115 7.7625 16.953 8.09245 16.9601 8.5066Z" fill="black"/>
<path fill-rule="evenodd" clip-rule="evenodd" d="M3.25 15.0303C3.25 14.6161 3.58579 14.2803 4 14.2803H20C20.4142 14.2803 20.75 14.6161 20.75 15.0303C20.75 15.4445 20.4142 15.7803 20 15.7803H4C3.58579 15.7803 3.25 15.4445 3.25 15.0303Z" fill="black"/>
<path fill-rule="evenodd" clip-rule="evenodd" d="M5.25 18.0303C5.25 17.6161 5.58579 17.2803 6 17.2803H18C18.4142 17.2803 18.75 17.6161 18.75 18.0303C18.75 18.4445 18.4142 18.7803 18 18.7803H6C5.58579 18.7803 5.25 18.4445 5.25 18.0303Z" fill="black"/>
<path fill-rule="evenodd" clip-rule="evenodd" d="M8.25 21.0303C8.25 20.6161 8.58579 20.2803 9 20.2803H15C15.4142 20.2803 15.75 20.6161 15.75 21.0303C15.75 21.4445 15.4142 21.7803 15 21.7803H9C8.58579 21.7803 8.25 21.4445 8.25 21.0303Z" fill="black"/>
</svg>
