<svg width="24" height="24" viewBox="0 0 24 24" fill="none" xmlns="http://www.w3.org/2000/svg">
<path fill-rule="evenodd" clip-rule="evenodd" d="M10.33 14.9697C10.6229 14.6768 11.0978 14.6768 11.3907 14.9697L13.5007 17.0797C13.7936 17.3726 13.7936 17.8474 13.5007 18.1403C13.2078 18.4332 12.7329 18.4332 12.44 18.1403L10.33 16.0303C10.0371 15.7374 10.0371 15.2626 10.33 14.9697Z" fill="black"/>
<path fill-rule="evenodd" clip-rule="evenodd" d="M13.4804 14.9892C13.7733 15.2821 13.7733 15.757 13.4804 16.0499L11.3604 18.1699C11.0675 18.4627 10.5926 18.4627 10.2997 18.1699C10.0069 17.877 10.0069 17.4021 10.2997 17.1092L12.4197 14.9892C12.7126 14.6963 13.1875 14.6963 13.4804 14.9892Z" fill="black"/>
<path fill-rule="evenodd" clip-rule="evenodd" d="M6.28842 11.0674C6.31755 11.4806 6.00621 11.8392 5.59303 11.8683C1.8511 12.1321 1.84271 17.5532 5.56784 17.8402H7.46027C7.87449 17.8402 8.21027 18.1759 8.21027 18.5902C8.21027 19.0044 7.87449 19.3402 7.46027 19.3402H5.54027C5.52267 19.3402 5.50508 19.3395 5.48752 19.3383C-0.122142 18.9427 -0.122142 10.7676 5.48752 10.372C5.90071 10.3429 6.25928 10.6542 6.28842 11.0674Z" fill="black"/>
<path fill-rule="evenodd" clip-rule="evenodd" d="M6.52186 5.92352C5.80277 7.15638 5.56031 8.81993 6.29574 10.8658C6.43585 11.2556 6.23345 11.6852 5.84365 11.8253C5.45386 11.9655 5.02428 11.763 4.88416 11.3733C4.01459 8.95417 4.26088 6.82272 5.22616 5.16777C6.18113 3.53051 7.79847 2.43004 9.55407 1.968C11.3096 1.50598 13.2569 1.66839 14.8885 2.62753C16.4213 3.52858 17.6112 5.09514 18.1086 7.35067C20.3212 7.84644 21.849 9.55905 22.4412 11.5063C23.0802 13.607 22.663 16.0881 20.7693 17.7492C19.6332 18.7806 18.165 19.3502 16.6273 19.3396H16.54C16.1257 19.3396 15.79 19.0038 15.79 18.5896C15.79 18.1753 16.1257 17.8396 16.54 17.8396H16.6355C17.7943 17.8481 18.9028 17.4196 19.7652 16.6349L19.7761 16.6251C21.1577 15.4162 21.5041 13.58 21.0062 11.9428C20.5083 10.3059 19.1991 8.97522 17.3754 8.74358C17.0465 8.7018 16.784 8.44898 16.73 8.12183C16.3747 5.97183 15.3533 4.64075 14.1283 3.92065C12.8855 3.1901 11.3578 3.04438 9.93583 3.41861C8.51393 3.79282 7.25127 4.67297 6.52186 5.92352Z" fill="black"/>
<path fill-rule="evenodd" clip-rule="evenodd" d="M12 12.2803C9.65421 12.2803 7.75 14.1845 7.75 16.5303C7.75 17.1616 7.88633 17.7494 8.13512 18.2636C8.13865 18.2709 8.14207 18.2783 8.14536 18.2857C8.21173 18.435 8.28541 18.5738 8.366 18.7028L8.37507 18.7177C9.10548 19.9492 10.4554 20.7803 12 20.7803C13.5446 20.7803 14.8945 19.9492 15.6249 18.7177L15.634 18.7028C15.7146 18.5738 15.7883 18.435 15.8546 18.2857C15.8579 18.2783 15.8613 18.2709 15.8649 18.2636C16.1137 17.7494 16.25 17.1616 16.25 16.5303C16.25 14.1845 14.3458 12.2803 12 12.2803ZM6.25 16.5303C6.25 13.3561 8.82579 10.7803 12 10.7803C15.1742 10.7803 17.75 13.3561 17.75 16.5303C17.75 17.3746 17.5682 18.1829 17.2204 18.906C17.1292 19.1099 17.0261 19.3049 16.9107 19.4903C15.92 21.1547 14.0923 22.2803 12 22.2803C9.90771 22.2803 8.07996 21.1547 7.08934 19.4903C6.97392 19.3049 6.87079 19.1099 6.77959 18.906C6.43183 18.1829 6.25 17.3746 6.25 16.5303Z" fill="black"/>
</svg>
