<svg width="24" height="24" viewBox="0 0 24 24" fill="none" xmlns="http://www.w3.org/2000/svg">
<path d="M13.3193 3.55957C13.4535 3.13132 13.8882 2.89933 14.29 3.04199C14.6921 3.18488 14.9094 3.64947 14.7754 4.07812L9.65918 20.4404C9.52505 20.8688 9.09042 21.1007 8.68848 20.958C8.28645 20.8151 8.06923 20.3514 8.20312 19.9229L13.3193 3.55957ZM5.35449 7.56641C5.67342 7.26895 6.15936 7.30367 6.43848 7.64355C6.71725 7.98345 6.68472 8.50032 6.36621 8.79785L2.93262 12L6.36621 15.2031C6.68471 15.5007 6.71726 16.0175 6.43848 16.3574C6.15937 16.6973 5.67342 16.732 5.35449 16.4346L1.26172 12.6162C1.09528 12.4609 1 12.2358 1 12C1.00013 11.7643 1.09541 11.54 1.26172 11.3848L5.35449 7.56641ZM17.5615 7.64355C17.8406 7.30367 18.3266 7.26897 18.6455 7.56641L22.7383 11.3848C22.9046 11.54 22.9999 11.7643 23 12C23 12.2358 22.9047 12.4609 22.7383 12.6162L18.6455 16.4346C18.3266 16.732 17.8406 16.6973 17.5615 16.3574C17.2828 16.0175 17.3153 15.5007 17.6338 15.2031L21.0664 12L17.6338 8.79785C17.3153 8.50032 17.2828 7.98344 17.5615 7.64355Z" fill="black"/>
</svg>
