<svg width="24" height="24" viewBox="0 0 24 24" fill="none" xmlns="http://www.w3.org/2000/svg">
<path fill-rule="evenodd" clip-rule="evenodd" d="M6.21899 8.66475C6.40423 8.29427 6.85474 8.1441 7.22522 8.32934C8.32119 8.87733 9.2608 9.70473 9.94357 10.7337C10.4623 11.5064 10.4619 12.506 9.9424 13.2784C9.26018 14.2959 8.32128 15.123 7.22522 15.671C6.85474 15.8562 6.40423 15.7061 6.21899 15.3356C6.03375 14.9651 6.18392 14.5146 6.5544 14.3293C7.41813 13.8975 8.15908 13.2448 8.69683 12.4426L8.69762 12.4414C8.87721 12.1746 8.87721 11.8358 8.69762 11.5689L8.69472 11.5646C8.15759 10.7545 7.41773 10.1026 6.5544 9.67098C6.18392 9.48574 6.03375 9.03524 6.21899 8.66475Z" fill="black"/>
<path fill-rule="evenodd" clip-rule="evenodd" d="M12.25 15C12.25 14.5858 12.5858 14.25 13 14.25H17C17.4142 14.25 17.75 14.5858 17.75 15C17.75 15.4142 17.4142 15.75 17 15.75H13C12.5858 15.75 12.25 15.4142 12.25 15Z" fill="black"/>
<path fill-rule="evenodd" clip-rule="evenodd" d="M3.09467 3.09467C4.42914 1.7602 6.42603 1.25 9 1.25H15C17.574 1.25 19.5709 1.7602 20.9053 3.09467C22.2398 4.42914 22.75 6.42603 22.75 9V15C22.75 17.574 22.2398 19.5709 20.9053 20.9053C19.5709 22.2398 17.574 22.75 15 22.75H9C6.42603 22.75 4.42914 22.2398 3.09467 20.9053C1.7602 19.5709 1.25 17.574 1.25 15V9C1.25 6.42603 1.7602 4.42914 3.09467 3.09467ZM4.15533 4.15533C3.2398 5.07086 2.75 6.57397 2.75 9V15C2.75 17.426 3.2398 18.9291 4.15533 19.8447C5.07086 20.7602 6.57397 21.25 9 21.25H15C17.426 21.25 18.9291 20.7602 19.8447 19.8447C20.7602 18.9291 21.25 17.426 21.25 15V9C21.25 6.57397 20.7602 5.07086 19.8447 4.15533C18.9291 3.2398 17.426 2.75 15 2.75H9C6.57397 2.75 5.07086 3.2398 4.15533 4.15533Z" fill="black"/>
</svg>
