<svg width="24" height="24" viewBox="0 0 24 24" fill="none" xmlns="http://www.w3.org/2000/svg">
<path fill-rule="evenodd" clip-rule="evenodd" d="M9.67035 12.6648C9.85559 13.0352 9.70543 13.4857 9.33494 13.671C8.79503 13.9409 8.34387 14.3413 8.0047 14.8445C7.94114 14.9431 7.94114 15.0572 8.0047 15.1558C8.34387 15.659 8.79503 16.0594 9.33494 16.3293C9.70543 16.5146 9.85559 16.9651 9.67035 17.3356C9.48511 17.7061 9.0346 17.8562 8.66412 17.671C7.88546 17.2817 7.23759 16.7035 6.75707 15.9885L6.75272 15.9821C6.35842 15.3821 6.35846 14.6183 6.75275 14.0183L6.75703 14.0118C7.23756 13.2968 7.88546 12.7187 8.66412 12.3293C9.0346 12.1441 9.48511 12.2943 9.67035 12.6648Z" fill="black"/>
<path fill-rule="evenodd" clip-rule="evenodd" d="M14.5393 12.6648C14.7245 12.2943 15.1751 12.1441 15.5455 12.3293C16.3242 12.7187 16.9721 13.2969 17.4526 14.0118L17.4569 14.0183C17.8512 14.6183 17.8512 15.382 17.4569 15.982L17.4526 15.9886C16.9721 16.7035 16.3242 17.2817 15.5455 17.671C15.1751 17.8562 14.7245 17.7061 14.5393 17.3356C14.3541 16.9651 14.5042 16.5146 14.8747 16.3293C15.4146 16.0594 15.8658 15.659 16.205 15.1558C16.2685 15.0572 16.2685 14.9431 16.205 14.8445C15.8658 14.3413 15.4146 13.9409 14.8747 13.671C14.5042 13.4857 14.3541 13.0352 14.5393 12.6648Z" fill="black"/>
<path fill-rule="evenodd" clip-rule="evenodd" d="M3.09467 3.09467C4.42914 1.7602 6.42603 1.25 9 1.25H15C17.574 1.25 19.5709 1.7602 20.9053 3.09467C22.2398 4.42914 22.75 6.42603 22.75 9V15C22.75 17.574 22.2398 19.5709 20.9053 20.9053C19.5709 22.2398 17.574 22.75 15 22.75H9C6.42603 22.75 4.42914 22.2398 3.09467 20.9053C1.7602 19.5709 1.25 17.574 1.25 15V9C1.25 6.42603 1.7602 4.42914 3.09467 3.09467ZM4.15533 4.15533C3.2398 5.07086 2.75 6.57397 2.75 9V15C2.75 17.426 3.2398 18.9291 4.15533 19.8447C5.07086 20.7602 6.57397 21.25 9 21.25H15C17.426 21.25 18.9291 20.7602 19.8447 19.8447C20.7602 18.9291 21.25 17.426 21.25 15V9C21.25 6.57397 20.7602 5.07086 19.8447 4.15533C18.9291 3.2398 17.426 2.75 15 2.75H9C6.57397 2.75 5.07086 3.2398 4.15533 4.15533Z" fill="black"/>
<path fill-rule="evenodd" clip-rule="evenodd" d="M22.2005 7.99961C22.2007 8.41382 21.8651 8.74978 21.4509 8.75L2.23086 8.76C1.81665 8.76022 1.48068 8.4246 1.48047 8.01039C1.48025 7.59618 1.81587 7.26022 2.23008 7.26L21.4501 7.25C21.8643 7.24978 22.2003 7.5854 22.2005 7.99961Z" fill="black"/>
</svg>
