<svg width="24" height="24" viewBox="0 0 24 24" fill="none" xmlns="http://www.w3.org/2000/svg">
<path fill-rule="evenodd" clip-rule="evenodd" d="M8.53033 9.46967C8.82322 9.76256 8.82322 10.2374 8.53033 10.5303L7.06066 12L8.53033 13.4697C8.82322 13.7626 8.82322 14.2374 8.53033 14.5303C8.23744 14.8232 7.76256 14.8232 7.46967 14.5303L5.46967 12.5303C5.17678 12.2374 5.17678 11.7626 5.46967 11.4697L7.46967 9.46967C7.76256 9.17678 8.23744 9.17678 8.53033 9.46967Z" fill="black"/>
<path fill-rule="evenodd" clip-rule="evenodd" d="M15.4697 9.46967C15.7626 9.17678 16.2374 9.17678 16.5303 9.46967L18.5303 11.4697C18.8232 11.7626 18.8232 12.2374 18.5303 12.5303L16.5303 14.5303C16.2374 14.8232 15.7626 14.8232 15.4697 14.5303C15.1768 14.2374 15.1768 13.7626 15.4697 13.4697L16.9393 12L15.4697 10.5303C15.1768 10.2374 15.1768 9.76256 15.4697 9.46967Z" fill="black"/>
<path fill-rule="evenodd" clip-rule="evenodd" d="M12 2.75C6.89137 2.75 2.75 6.89137 2.75 12C2.75 17.1086 6.89137 21.25 12 21.25C17.1086 21.25 21.25 17.1086 21.25 12C21.25 6.89137 17.1086 2.75 12 2.75ZM1.25 12C1.25 6.06294 6.06294 1.25 12 1.25C17.9371 1.25 22.75 6.06294 22.75 12C22.75 17.9371 17.9371 22.75 12 22.75C6.06294 22.75 1.25 17.9371 1.25 12Z" fill="black"/>
<path fill-rule="evenodd" clip-rule="evenodd" d="M13.296 8.98091C13.6766 9.14427 13.8528 9.58527 13.6894 9.96591L11.6894 14.6259C11.526 15.0066 11.085 15.1827 10.7044 15.0194C10.3238 14.856 10.1476 14.415 10.311 14.0344L12.311 9.37432C12.4743 8.99368 12.9153 8.81754 13.296 8.98091Z" fill="black"/>
</svg>
