<svg width="24" height="24" viewBox="0 0 24 24" fill="none" xmlns="http://www.w3.org/2000/svg">
<path fill-rule="evenodd" clip-rule="evenodd" d="M6.21 7.00977C4.30305 7.00977 2.75 8.55514 2.75 10.4698V17.7898C2.75 19.6956 4.30421 21.2498 6.21 21.2498H13.58C15.4869 21.2498 17.04 19.7044 17.04 17.7898V10.4698C17.04 8.56398 15.4858 7.00977 13.58 7.00977H6.21ZM1.25 10.4698C1.25 7.72439 3.47695 5.50977 6.21 5.50977H13.58C16.3142 5.50977 18.54 7.73555 18.54 10.4698V17.7898C18.54 20.5351 16.3131 22.7498 13.58 22.7498H6.21C3.47579 22.7498 1.25 20.524 1.25 17.7898V10.4698Z" fill="black"/>
<path fill-rule="evenodd" clip-rule="evenodd" d="M5.5 1.5C5.91421 1.5 6.25 1.83579 6.25 2.25V4C6.25 4.41421 5.91421 4.75 5.5 4.75C5.08579 4.75 4.75 4.41421 4.75 4V2.25C4.75 1.83579 5.08579 1.5 5.5 1.5Z" fill="black"/>
<path fill-rule="evenodd" clip-rule="evenodd" d="M9.5 1.5C9.91421 1.5 10.25 1.83579 10.25 2.25V4C10.25 4.41421 9.91421 4.75 9.5 4.75C9.08579 4.75 8.75 4.41421 8.75 4V2.25C8.75 1.83579 9.08579 1.5 9.5 1.5Z" fill="black"/>
<path fill-rule="evenodd" clip-rule="evenodd" d="M13.5 1.5C13.9142 1.5 14.25 1.83579 14.25 2.25V4C14.25 4.41421 13.9142 4.75 13.5 4.75C13.0858 4.75 12.75 4.41421 12.75 4V2.25C12.75 1.83579 13.0858 1.5 13.5 1.5Z" fill="black"/>
<path fill-rule="evenodd" clip-rule="evenodd" d="M17.04 8.9502C17.04 8.53598 17.3758 8.2002 17.79 8.2002C20.5231 8.2002 22.75 10.4148 22.75 13.1602C22.75 15.8944 20.5243 18.1202 17.79 18.1202C17.3758 18.1202 17.04 17.7844 17.04 17.3702V8.9502ZM18.54 9.78179V16.5381C20.0873 16.1939 21.25 14.8086 21.25 13.1602C21.25 11.504 20.088 10.1242 18.54 9.78179Z" fill="black"/>
<path fill-rule="evenodd" clip-rule="evenodd" d="M1.25 12C1.25 11.5858 1.58579 11.25 2 11.25H17.51C17.9242 11.25 18.26 11.5858 18.26 12C18.26 12.4142 17.9242 12.75 17.51 12.75H2C1.58579 12.75 1.25 12.4142 1.25 12Z" fill="black"/>
</svg>
