<svg width="24" height="24" viewBox="0 0 24 24" fill="none" xmlns="http://www.w3.org/2000/svg">
<path fill-rule="evenodd" clip-rule="evenodd" d="M9.16 7.9502C8.97061 7.9502 8.75 8.12705 8.75 8.4202C8.75 8.67216 8.80322 8.73866 8.80864 8.74544C8.82018 8.76007 8.86385 8.80703 9.04919 8.8728L11.4551 9.71488C11.7443 9.81946 12.0965 9.98851 12.3621 10.3283C12.6349 10.6773 12.74 11.1061 12.74 11.5802C12.74 12.627 11.9206 13.5502 10.83 13.5502H9.33C8.15054 13.5502 7.25 12.5483 7.25 11.4002C7.25 10.986 7.58579 10.6502 8 10.6502C8.41421 10.6502 8.75 10.986 8.75 11.4002C8.75 11.7921 9.04946 12.0502 9.33 12.0502H10.83C11.0194 12.0502 11.24 11.8733 11.24 11.5802C11.24 11.3278 11.1866 11.26 11.1806 11.2524C11.1688 11.2373 11.1263 11.1915 10.9483 11.1267L8.54961 10.2872C8.25596 10.1832 7.89956 10.015 7.63113 9.67466C7.355 9.32457 7.25 8.89405 7.25 8.4202C7.25 7.37334 8.06939 6.4502 9.16 6.4502H10.6701C11.8391 6.46599 12.75 7.43895 12.75 8.6002C12.75 9.01441 12.4142 9.3502 12 9.3502C11.5858 9.3502 11.25 9.01441 11.25 8.6002C11.25 8.22307 10.9634 7.95662 10.6539 7.9502H9.16Z" fill="black"/>
<path fill-rule="evenodd" clip-rule="evenodd" d="M10 12.0996C10.4142 12.0996 10.75 12.4354 10.75 12.8496V13.5896C10.75 14.0038 10.4142 14.3396 10 14.3396C9.58579 14.3396 9.25 14.0038 9.25 13.5896V12.8496C9.25 12.4354 9.58579 12.0996 10 12.0996Z" fill="black"/>
<path fill-rule="evenodd" clip-rule="evenodd" d="M10 5.66016C10.4142 5.66016 10.75 5.99594 10.75 6.41016V7.19016C10.75 7.60437 10.4142 7.94016 10 7.94016C9.58579 7.94016 9.25 7.60437 9.25 7.19016V6.41016C9.25 5.99594 9.58579 5.66016 10 5.66016Z" fill="black"/>
<path fill-rule="evenodd" clip-rule="evenodd" d="M9.99 2.75C5.99146 2.75 2.75 5.99146 2.75 9.99C2.75 13.9885 5.99146 17.23 9.99 17.23C13.9885 17.23 17.23 13.9885 17.23 9.99C17.23 5.99146 13.9885 2.75 9.99 2.75ZM1.25 9.99C1.25 5.16303 5.16303 1.25 9.99 1.25C14.817 1.25 18.73 5.16303 18.73 9.99C18.73 14.817 14.817 18.73 9.99 18.73C5.16303 18.73 1.25 14.817 1.25 9.99Z" fill="black"/>
<path fill-rule="evenodd" clip-rule="evenodd" d="M19.3009 12.5618C19.5429 12.2257 20.0116 12.1494 20.3478 12.3914C21.7839 13.4254 22.7296 15.1173 22.7296 17.0301C22.7296 20.1743 20.1738 22.7301 17.0296 22.7301C15.0943 22.7301 13.4011 21.7721 12.3676 20.3137C12.1281 19.9757 12.2079 19.5076 12.5459 19.2681C12.8839 19.0286 13.352 19.1085 13.5915 19.4464C14.358 20.528 15.6048 21.2301 17.0296 21.2301C19.3453 21.2301 21.2296 19.3458 21.2296 17.0301C21.2296 15.6229 20.5352 14.3747 19.4713 13.6087C19.1352 13.3667 19.0589 12.898 19.3009 12.5618Z" fill="black"/>
</svg>
