<svg width="24" height="24" viewBox="0 0 24 24" fill="none" xmlns="http://www.w3.org/2000/svg">
<path fill-rule="evenodd" clip-rule="evenodd" d="M8.84961 9.59961C8.84961 9.1854 9.1854 8.84961 9.59961 8.84961H14.3997C14.8139 8.84961 15.1497 9.1854 15.1497 9.59961V14.3996C15.1497 14.8138 14.8139 15.1496 14.3997 15.1496H9.59961C9.1854 15.1496 8.84961 14.8138 8.84961 14.3996V9.59961ZM10.3496 10.3496V13.6496H13.6497V10.3496H10.3496Z" fill="black"/>
<path fill-rule="evenodd" clip-rule="evenodd" d="M5.25 16.2004C5.25 14.7962 6.39576 13.6504 7.79999 13.6504H9.59998C10.0142 13.6504 10.35 13.9862 10.35 14.4004V16.2004C10.35 17.6046 9.2042 18.7504 7.79999 18.7504C6.39577 18.7504 5.25 17.6046 5.25 16.2004ZM7.79999 15.1504C7.22422 15.1504 6.75 15.6246 6.75 16.2004C6.75 16.7762 7.2242 17.2504 7.79999 17.2504C8.37577 17.2504 8.84998 16.7762 8.84998 16.2004V15.1504H7.79999Z" fill="black"/>
<path fill-rule="evenodd" clip-rule="evenodd" d="M5.25 7.79999C5.25 6.39577 6.39577 5.25 7.79999 5.25C9.2042 5.25 10.35 6.39577 10.35 7.79999V9.60001C10.35 10.0142 10.0142 10.35 9.59998 10.35H7.79999C6.39576 10.35 5.25 9.20418 5.25 7.79999ZM7.79999 6.75C7.2242 6.75 6.75 7.2242 6.75 7.79999C6.75 8.37579 7.22422 8.85001 7.79999 8.85001H8.84998V7.79999C8.84998 7.2242 8.37577 6.75 7.79999 6.75Z" fill="black"/>
<path fill-rule="evenodd" clip-rule="evenodd" d="M13.6504 7.79999C13.6504 6.39577 14.7962 5.25 16.2004 5.25C17.6046 5.25 18.7504 6.39577 18.7504 7.79999C18.7504 9.20418 17.6046 10.35 16.2004 10.35H14.4004C13.9862 10.35 13.6504 10.0142 13.6504 9.60001V7.79999ZM16.2004 6.75C15.6246 6.75 15.1504 7.2242 15.1504 7.79999V8.85001H16.2004C16.7761 8.85001 17.2504 8.37579 17.2504 7.79999C17.2504 7.2242 16.7762 6.75 16.2004 6.75Z" fill="black"/>
<path fill-rule="evenodd" clip-rule="evenodd" d="M13.6504 14.4004C13.6504 13.9862 13.9862 13.6504 14.4004 13.6504H16.2004C17.6046 13.6504 18.7504 14.7962 18.7504 16.2004C18.7504 17.6046 17.6046 18.7504 16.2004 18.7504C14.7962 18.7504 13.6504 17.6046 13.6504 16.2004V14.4004ZM15.1504 15.1504V16.2004C15.1504 16.7762 15.6246 17.2504 16.2004 17.2504C16.7762 17.2504 17.2504 16.7762 17.2504 16.2004C17.2504 15.6246 16.7761 15.1504 16.2004 15.1504H15.1504Z" fill="black"/>
<path fill-rule="evenodd" clip-rule="evenodd" d="M3.09467 3.09467C4.42914 1.7602 6.42603 1.25 9 1.25H15C17.574 1.25 19.5709 1.7602 20.9053 3.09467C22.2398 4.42914 22.75 6.42603 22.75 9V15C22.75 17.574 22.2398 19.5709 20.9053 20.9053C19.5709 22.2398 17.574 22.75 15 22.75H9C6.42603 22.75 4.42914 22.2398 3.09467 20.9053C1.7602 19.5709 1.25 17.574 1.25 15V9C1.25 6.42603 1.7602 4.42914 3.09467 3.09467ZM4.15533 4.15533C3.2398 5.07086 2.75 6.57397 2.75 9V15C2.75 17.426 3.2398 18.9291 4.15533 19.8447C5.07086 20.7602 6.57397 21.25 9 21.25H15C17.426 21.25 18.9291 20.7602 19.8447 19.8447C20.7602 18.9291 21.25 17.426 21.25 15V9C21.25 6.57397 20.7602 5.07086 19.8447 4.15533C18.9291 3.2398 17.426 2.75 15 2.75H9C6.57397 2.75 5.07086 3.2398 4.15533 4.15533Z" fill="black"/>
</svg>
