<svg width="24" height="24" viewBox="0 0 24 24" fill="none" xmlns="http://www.w3.org/2000/svg">
<path fill-rule="evenodd" clip-rule="evenodd" d="M14.0305 3.58139C12.9118 2.47156 11.0859 2.47453 9.98011 3.58033L3.59198 9.96845C3.59169 9.96875 3.59139 9.96905 3.5911 9.96934C2.48132 11.088 2.48432 12.9139 3.5901 14.0197L9.97822 20.4078C9.97857 20.4082 9.97893 20.4085 9.97929 20.4089C11.098 21.5185 12.9237 21.5154 14.0294 20.4097L20.4194 14.0197C21.5252 12.914 21.5282 11.0882 20.4186 9.96952C20.4183 9.96916 20.4179 9.96881 20.4176 9.96845L14.0313 3.58221C14.0311 3.58194 14.0308 3.58167 14.0305 3.58139ZM8.91945 2.51967C10.6134 0.825739 13.3868 0.828443 15.0882 2.51779L15.0901 2.51967L21.482 8.91157C23.1713 10.613 23.174 13.3864 21.4801 15.0803L15.0901 21.4703C13.3962 23.1643 10.6228 23.1616 8.92134 21.4722L8.91945 21.4703L2.52944 15.0803C0.835504 13.3864 0.838208 10.613 2.52755 8.91158L2.52943 8.90968L8.91945 2.51967Z" fill="black"/>
<path fill-rule="evenodd" clip-rule="evenodd" d="M14.0305 3.58139C12.9118 2.47156 11.0859 2.47453 9.98011 3.58033L3.59198 9.96845C3.59169 9.96875 3.59139 9.96905 3.5911 9.96934C2.48132 11.088 2.48432 12.9139 3.5901 14.0197L9.97822 20.4078C9.97857 20.4082 9.97893 20.4085 9.97929 20.4089C11.098 21.5185 12.9237 21.5154 14.0294 20.4097L20.4194 14.0197C21.5252 12.914 21.5282 11.0882 20.4186 9.96952C20.4183 9.96916 20.4179 9.96881 20.4176 9.96845L14.0313 3.58221C14.0311 3.58194 14.0308 3.58167 14.0305 3.58139ZM8.91945 2.51967C10.6134 0.825739 13.3868 0.828443 15.0882 2.51779L15.0901 2.51967L21.482 8.91157C23.1713 10.613 23.174 13.3864 21.4801 15.0803L15.0901 21.4703C13.3962 23.1643 10.6228 23.1616 8.92134 21.4722L8.91945 21.4703L2.52944 15.0803C0.835504 13.3864 0.838208 10.613 2.52755 8.91158L2.52943 8.90968L8.91945 2.51967Z" fill="black"/>
</svg>
