<svg width="24" height="24" viewBox="0 0 24 24" fill="none" xmlns="http://www.w3.org/2000/svg">
<path fill-rule="evenodd" clip-rule="evenodd" d="M3.0644 3.09467C4.39887 1.7602 6.39575 1.25 8.96973 1.25H14.9697C17.5437 1.25 19.5406 1.7602 20.8751 3.09467C22.2095 4.42914 22.7197 6.42603 22.7197 9V15C22.7197 17.574 22.2095 19.5709 20.8751 20.9053C19.5406 22.2398 17.5437 22.75 14.9697 22.75H8.96973C6.39575 22.75 4.39887 22.2398 3.0644 20.9053C1.72993 19.5709 1.21973 17.574 1.21973 15V9C1.21973 6.42603 1.72993 4.42914 3.0644 3.09467ZM4.12506 4.15533C3.20953 5.07086 2.71973 6.57397 2.71973 9V15C2.71973 17.426 3.20953 18.9291 4.12506 19.8447C5.04059 20.7602 6.5437 21.25 8.96973 21.25H14.9697C17.3958 21.25 18.8989 20.7602 19.8144 19.8447C20.7299 18.9291 21.2197 17.426 21.2197 15V9C21.2197 6.57397 20.7299 5.07086 19.8144 4.15533C18.8989 3.2398 17.3958 2.75 14.9697 2.75H8.96973C6.5437 2.75 5.04059 3.2398 4.12506 4.15533Z" fill="black"/>
<path fill-rule="evenodd" clip-rule="evenodd" d="M20.2499 2.71967C20.5428 3.01256 20.5428 3.48744 20.2499 3.78033L3.79986 20.2303C3.50697 20.5232 3.03209 20.5232 2.7392 20.2303C2.44631 19.9374 2.44631 19.4626 2.7392 19.1697L19.1892 2.71967C19.4821 2.42678 19.957 2.42678 20.2499 2.71967Z" fill="black"/>
<path fill-rule="evenodd" clip-rule="evenodd" d="M16.0605 12.25C16.4748 12.25 16.8105 12.5858 16.8105 13V18C16.8105 18.4142 16.4748 18.75 16.0605 18.75C15.6463 18.75 15.3105 18.4142 15.3105 18V13C15.3105 12.5858 15.6463 12.25 16.0605 12.25Z" fill="black"/>
<path fill-rule="evenodd" clip-rule="evenodd" d="M12.75 15.5C12.75 15.0858 13.0858 14.75 13.5 14.75H18.5C18.9142 14.75 19.25 15.0858 19.25 15.5C19.25 15.9142 18.9142 16.25 18.5 16.25H13.5C13.0858 16.25 12.75 15.9142 12.75 15.5Z" fill="black"/>
<path fill-rule="evenodd" clip-rule="evenodd" d="M4.75 7.5C4.75 7.08579 5.08579 6.75 5.5 6.75H10.5C10.9142 6.75 11.25 7.08579 11.25 7.5C11.25 7.91421 10.9142 8.25 10.5 8.25H5.5C5.08579 8.25 4.75 7.91421 4.75 7.5Z" fill="black"/>
</svg>
