<svg width="24" height="24" viewBox="0 0 24 24" fill="none" xmlns="http://www.w3.org/2000/svg">
<path fill-rule="evenodd" clip-rule="evenodd" d="M22 14.25C22.4142 14.25 22.75 14.5858 22.75 15C22.75 19.2842 19.2842 22.75 15 22.75C14.7298 22.75 14.4805 22.6047 14.3474 22.3695C14.2142 22.1344 14.2179 21.8458 14.3569 21.6141L15.4069 19.8641C15.62 19.5089 16.0807 19.3938 16.4359 19.6069C16.7911 19.82 16.9062 20.2807 16.6931 20.6359L16.4218 21.0881C19.1909 20.4456 21.25 17.9666 21.25 15C21.25 14.5858 21.5858 14.25 22 14.25Z" fill="black"/>
<path fill-rule="evenodd" clip-rule="evenodd" d="M7.57819 2.91194C4.8091 3.55437 2.75 6.03342 2.75 9C2.75 9.41421 2.41421 9.75 2 9.75C1.58579 9.75 1.25 9.41421 1.25 9C1.25 4.71579 4.71579 1.25 9 1.25C9.2702 1.25 9.51952 1.39534 9.65265 1.63048C9.78578 1.86561 9.78214 2.15417 9.64312 2.38587L8.59312 4.13587C8.38 4.49106 7.91931 4.60623 7.56412 4.39312C7.20894 4.18001 7.09377 3.71931 7.30688 3.36413L7.57819 2.91194Z" fill="black"/>
<path fill-rule="evenodd" clip-rule="evenodd" d="M13.051 4.07506C13.2582 3.71642 13.7169 3.5937 14.0756 3.80095L17.6792 5.88346L21.2434 3.8119C21.6016 3.60375 22.0606 3.72533 22.2687 4.08345C22.4769 4.44157 22.3553 4.90062 21.9972 5.10876L18.0572 7.39874C17.8248 7.53383 17.5378 7.53419 17.3051 7.39968L13.3251 5.09969C12.9664 4.89244 12.8437 4.4337 13.051 4.07506Z" fill="black"/>
<path fill-rule="evenodd" clip-rule="evenodd" d="M17.6797 5.99023C18.0939 5.99023 18.4297 6.32602 18.4297 6.74023V10.8203C18.4297 11.2345 18.0939 11.5703 17.6797 11.5703C17.2655 11.5703 16.9297 11.2345 16.9297 10.8203V6.74023C16.9297 6.32602 17.2655 5.99023 17.6797 5.99023Z" fill="black"/>
<path fill-rule="evenodd" clip-rule="evenodd" d="M17.6784 1.25C18.1061 1.25 18.5763 1.33614 18.9705 1.55257L18.9731 1.55399L21.3712 2.88286C21.7937 3.11409 22.1297 3.49142 22.3579 3.88073C22.5866 4.27096 22.7496 4.74591 22.7496 5.21995V7.75999C22.7496 8.23743 22.5819 8.71329 22.353 9.10118C22.1241 9.48909 21.7891 9.86488 21.3738 10.0956L18.9749 11.425L18.9738 11.4257C18.5757 11.6473 18.1027 11.7375 17.6709 11.7375C17.2408 11.7375 16.7685 11.648 16.3729 11.4242L13.978 10.097C13.5554 9.86581 13.2194 9.48849 12.9913 9.0992C12.7626 8.70897 12.5996 8.23403 12.5996 7.75999V5.21995C12.5996 4.74251 12.7673 4.26666 12.9962 3.87876C13.2251 3.49085 13.5601 3.11506 13.9754 2.88434L16.384 1.5496C16.78 1.33636 17.2499 1.25 17.6784 1.25ZM17.0984 2.86866L14.7038 4.19557C14.5792 4.26494 14.419 4.41925 14.288 4.64114C14.1569 4.86324 14.0996 5.07738 14.0996 5.21995V7.75999C14.0996 7.90595 14.1566 8.121 14.2854 8.34076C14.4143 8.56071 14.5725 8.71268 14.6987 8.78156L14.7031 8.78396L17.1104 10.118C17.2239 10.1826 17.4249 10.2375 17.6709 10.2375C17.9161 10.2375 18.1226 10.1829 18.2443 10.115L18.2461 10.114L20.6454 8.78436C20.77 8.71502 20.9302 8.56073 21.0612 8.33879C21.1923 8.11669 21.2496 7.90255 21.2496 7.75999V5.21995C21.2496 5.07399 21.1926 4.85894 21.0638 4.63918C20.9349 4.41923 20.7767 4.26726 20.6505 4.19838L20.6461 4.19598L18.2487 2.86743L18.2477 2.86689C18.1317 2.80355 17.9274 2.75 17.6784 2.75C17.4314 2.75 17.2227 2.80269 17.0984 2.86866Z" fill="black"/>
<path fill-rule="evenodd" clip-rule="evenodd" d="M1.70077 15.0744C1.90842 14.7159 2.36729 14.5937 2.7257 14.8014L6.3196 16.8835L9.89357 14.8115C10.2519 14.6037 10.7108 14.7258 10.9186 15.0842C11.1263 15.4425 11.0042 15.9014 10.6459 16.1092L6.6959 18.3992C6.46333 18.534 6.17638 18.534 5.94377 18.3993L1.97376 16.0993C1.61535 15.8916 1.49313 15.4328 1.70077 15.0744Z" fill="black"/>
<path fill-rule="evenodd" clip-rule="evenodd" d="M6.32031 16.9902C6.73453 16.9902 7.07031 17.326 7.07031 17.7402V21.8203C7.07031 22.2345 6.73453 22.5703 6.32031 22.5703C5.9061 22.5703 5.57031 22.2345 5.57031 21.8203V17.7402C5.57031 17.326 5.9061 16.9902 6.32031 16.9902Z" fill="black"/>
<path fill-rule="evenodd" clip-rule="evenodd" d="M6.32125 12.25C6.74971 12.25 7.21955 12.3364 7.61557 12.5496L7.62355 12.5539L10.0215 13.8828C10.4441 14.1141 10.7802 14.4914 11.0083 14.8807C11.237 15.271 11.4 15.7459 11.4 16.2199V18.76C11.4 19.2374 11.2323 19.7133 11.0034 20.1012C10.7745 20.4891 10.4395 20.8649 10.0242 21.0956L7.6253 22.425L7.62419 22.4256C7.22616 22.6473 6.75313 22.7375 6.32125 22.7375C5.89115 22.7375 5.41887 22.648 5.02324 22.4242L2.62838 21.097C2.20584 20.8658 1.86984 20.4885 1.64169 20.0992C1.41299 19.709 1.25 19.234 1.25 18.76V16.2199C1.25 15.7425 1.41768 15.2667 1.6466 14.8788C1.87554 14.4908 2.21048 14.1151 2.62577 13.8843L5.02905 12.5526C5.42326 12.3361 5.89354 12.25 6.32125 12.25ZM5.75196 13.8669L3.35424 15.1956C3.22958 15.2649 3.06935 15.4193 2.93841 15.6411C2.80733 15.8633 2.75 16.0774 2.75 16.2199V18.76C2.75 18.9059 2.80702 19.121 2.93581 19.3408C3.06472 19.5607 3.22286 19.7127 3.34914 19.7816L3.35355 19.784L5.76075 21.118C5.87431 21.1826 6.07529 21.2375 6.32125 21.2375C6.56647 21.2375 6.77295 21.1829 6.89469 21.115L6.89646 21.114L9.29577 19.7844C9.42045 19.715 9.5806 19.5608 9.71159 19.3388C9.84267 19.1167 9.89999 18.9026 9.89999 18.76V16.2199C9.89999 16.074 9.84298 15.8589 9.71418 15.6392C9.58528 15.4192 9.42715 15.2673 9.30087 15.1984L9.29647 15.196L6.90126 13.8687C6.77688 13.8027 6.56818 13.75 6.32125 13.75C6.07219 13.75 5.86794 13.8035 5.75196 13.8669Z" fill="black"/>
</svg>
