<svg width="24" height="24" viewBox="0 0 24 24" fill="none" xmlns="http://www.w3.org/2000/svg">
<path fill-rule="evenodd" clip-rule="evenodd" d="M12.0046 2.77539C6.90745 2.77539 2.77539 6.90745 2.77539 12.0046C2.77539 17.1018 6.90745 21.2338 12.0046 21.2338C17.1018 21.2338 21.2338 17.1018 21.2338 12.0046C21.2338 6.90745 17.1018 2.77539 12.0046 2.77539ZM1.27539 12.0046C1.27539 6.07902 6.07902 1.27539 12.0046 1.27539C17.9302 1.27539 22.7338 6.07902 22.7338 12.0046C22.7338 17.9302 17.9302 22.7338 12.0046 22.7338C6.07902 22.7338 1.27539 17.9302 1.27539 12.0046Z" fill="black"/>
<path fill-rule="evenodd" clip-rule="evenodd" d="M5.60704 3.49051C5.90029 3.19797 6.37516 3.19855 6.6677 3.4918L13.5576 10.3986L13.5697 7.6606C13.5715 7.24639 13.9088 6.91208 14.323 6.9139C14.7372 6.91572 15.0715 7.25298 15.0697 7.66719L15.0497 12.2077C15.0484 12.5106 14.865 12.783 14.5848 12.8981C14.3046 13.0133 13.9827 12.9486 13.7687 12.7341L5.60574 4.55117C5.31321 4.25792 5.31379 3.78304 5.60704 3.49051Z" fill="black"/>
<path fill-rule="evenodd" clip-rule="evenodd" d="M9.41437 11.1121C9.69444 10.9969 10.0163 11.0614 10.2303 11.2757L18.3933 19.4487C18.686 19.7417 18.6857 20.2166 18.3926 20.5093C18.0996 20.802 17.6247 20.8017 17.332 20.5087L10.4417 13.61L10.4297 16.3396C10.4279 16.7538 10.0906 17.0881 9.67638 17.0862C9.26217 17.0844 8.92787 16.7472 8.9297 16.3329L8.94965 11.8024C8.95099 11.4996 9.13431 11.2272 9.41437 11.1121Z" fill="black"/>
</svg>
