<svg width="24" height="24" viewBox="0 0 24 24" fill="none" xmlns="http://www.w3.org/2000/svg">
<path fill-rule="evenodd" clip-rule="evenodd" d="M1.25 22C1.25 21.5858 1.58579 21.25 2 21.25H22C22.4142 21.25 22.75 21.5858 22.75 22C22.75 22.4142 22.4142 22.75 22 22.75H2C1.58579 22.75 1.25 22.4142 1.25 22Z" fill="black"/>
<path fill-rule="evenodd" clip-rule="evenodd" d="M11.5795 1.37895C11.7856 1.23943 12.0475 1.21122 12.2785 1.30365C13.6997 1.87212 15.3003 1.87212 16.7215 1.30365C16.9525 1.21122 17.2144 1.23943 17.4205 1.37895C17.6266 1.51848 17.75 1.75114 17.75 2V5C17.75 5.30668 17.5633 5.58246 17.2785 5.69636C15.4997 6.40788 13.5003 6.40788 11.7215 5.69636C11.4367 5.58246 11.25 5.30668 11.25 5V2C11.25 1.75114 11.3734 1.51848 11.5795 1.37895ZM12.75 3.02338V4.46952C13.8881 4.81683 15.1119 4.81683 16.25 4.46952V3.02338C15.1011 3.29888 13.8989 3.29888 12.75 3.02338Z" fill="black"/>
<path fill-rule="evenodd" clip-rule="evenodd" d="M12 4.25C12.4142 4.25 12.75 4.58579 12.75 5V8C12.75 8.41421 12.4142 8.75 12 8.75C11.5858 8.75 11.25 8.41421 11.25 8V5C11.25 4.58579 11.5858 4.25 12 4.25Z" fill="black"/>
<path fill-rule="evenodd" clip-rule="evenodd" d="M4.21967 8.21967C4.90993 7.52941 5.88439 7.25 7 7.25H17C18.1156 7.25 19.0901 7.52941 19.7803 8.21967C20.4706 8.90993 20.75 9.88439 20.75 11V22C20.75 22.4142 20.4142 22.75 20 22.75H4C3.58579 22.75 3.25 22.4142 3.25 22V11C3.25 9.88439 3.52941 8.90993 4.21967 8.21967ZM5.28033 9.28033C4.97059 9.59007 4.75 10.1156 4.75 11V21.25H19.25V11C19.25 10.1156 19.0294 9.59007 18.7197 9.28033C18.4099 8.97059 17.8844 8.75 17 8.75H7C6.11561 8.75 5.59007 8.97059 5.28033 9.28033Z" fill="black"/>
<path fill-rule="evenodd" clip-rule="evenodd" d="M3.83008 12C3.83008 11.5858 4.16586 11.25 4.58008 11.25H19.4201C19.8343 11.25 20.1701 11.5858 20.1701 12C20.1701 12.4142 19.8343 12.75 19.4201 12.75H4.58008C4.16586 12.75 3.83008 12.4142 3.83008 12Z" fill="black"/>
<path fill-rule="evenodd" clip-rule="evenodd" d="M7.24023 22V12H8.74023V22H7.24023Z" fill="black"/>
<path fill-rule="evenodd" clip-rule="evenodd" d="M11.2402 22V12H12.7402V22H11.2402Z" fill="black"/>
<path fill-rule="evenodd" clip-rule="evenodd" d="M15.2402 22V12H16.7402V22H15.2402Z" fill="black"/>
</svg>
