<svg width="24" height="24" viewBox="0 0 24 24" fill="none" xmlns="http://www.w3.org/2000/svg">
<path fill-rule="evenodd" clip-rule="evenodd" d="M4.76967 4.76967C5.87914 3.6602 7.52603 3.25 9.6 3.25H14.4C16.474 3.25 18.1209 3.6602 19.2303 4.76967C20.3398 5.87914 20.75 7.52603 20.75 9.6V14.4C20.75 16.474 20.3398 18.1209 19.2303 19.2303C18.1209 20.3398 16.474 20.75 14.4 20.75H9.6C7.52603 20.75 5.87914 20.3398 4.76967 19.2303C3.6602 18.1209 3.25 16.474 3.25 14.4V9.6C3.25 7.52603 3.6602 5.87914 4.76967 4.76967ZM5.83033 5.83033C5.1398 6.52086 4.75 7.67397 4.75 9.6V14.4C4.75 16.326 5.1398 17.4791 5.83033 18.1697C6.52086 18.8602 7.67397 19.25 9.6 19.25H14.4C16.326 19.25 17.4791 18.8602 18.1697 18.1697C18.8602 17.4791 19.25 16.326 19.25 14.4V9.6C19.25 7.67397 18.8602 6.52086 18.1697 5.83033C17.4791 5.1398 16.326 4.75 14.4 4.75H9.6C7.67397 4.75 6.52086 5.1398 5.83033 5.83033Z" fill="black"/>
<path fill-rule="evenodd" clip-rule="evenodd" d="M7.28217 7.28217C8.05414 6.5102 9.17603 6.25 10.5 6.25H13.5C14.824 6.25 15.9459 6.5102 16.7178 7.28217C17.4898 8.05414 17.75 9.17603 17.75 10.5V13.5C17.75 14.824 17.4898 15.9459 16.7178 16.7178C15.9459 17.4898 14.824 17.75 13.5 17.75H10.5C9.17603 17.75 8.05414 17.4898 7.28217 16.7178C6.5102 15.9459 6.25 14.824 6.25 13.5V10.5C6.25 9.17603 6.5102 8.05414 7.28217 7.28217ZM8.34283 8.34283C7.9898 8.69586 7.75 9.32397 7.75 10.5V13.5C7.75 14.676 7.9898 15.3041 8.34283 15.6572C8.69586 16.0102 9.32397 16.25 10.5 16.25H13.5C14.676 16.25 15.3041 16.0102 15.6572 15.6572C16.0102 15.3041 16.25 14.676 16.25 13.5V10.5C16.25 9.32397 16.0102 8.69586 15.6572 8.34283C15.3041 7.9898 14.676 7.75 13.5 7.75H10.5C9.32397 7.75 8.69586 7.9898 8.34283 8.34283Z" fill="black"/>
<path fill-rule="evenodd" clip-rule="evenodd" d="M8.00977 1.25C8.42398 1.25 8.75977 1.58579 8.75977 2V4C8.75977 4.41421 8.42398 4.75 8.00977 4.75C7.59555 4.75 7.25977 4.41421 7.25977 4V2C7.25977 1.58579 7.59555 1.25 8.00977 1.25Z" fill="black"/>
<path fill-rule="evenodd" clip-rule="evenodd" d="M12 1.25C12.4142 1.25 12.75 1.58579 12.75 2V4C12.75 4.41421 12.4142 4.75 12 4.75C11.5858 4.75 11.25 4.41421 11.25 4V2C11.25 1.58579 11.5858 1.25 12 1.25Z" fill="black"/>
<path fill-rule="evenodd" clip-rule="evenodd" d="M16 1.25C16.4142 1.25 16.75 1.58579 16.75 2V4C16.75 4.41421 16.4142 4.75 16 4.75C15.5858 4.75 15.25 4.41421 15.25 4V2C15.25 1.58579 15.5858 1.25 16 1.25Z" fill="black"/>
<path fill-rule="evenodd" clip-rule="evenodd" d="M19.25 8C19.25 7.58579 19.5858 7.25 20 7.25H22C22.4142 7.25 22.75 7.58579 22.75 8C22.75 8.41421 22.4142 8.75 22 8.75H20C19.5858 8.75 19.25 8.41421 19.25 8Z" fill="black"/>
<path fill-rule="evenodd" clip-rule="evenodd" d="M19.25 12C19.25 11.5858 19.5858 11.25 20 11.25H22C22.4142 11.25 22.75 11.5858 22.75 12C22.75 12.4142 22.4142 12.75 22 12.75H20C19.5858 12.75 19.25 12.4142 19.25 12Z" fill="black"/>
<path fill-rule="evenodd" clip-rule="evenodd" d="M19.25 16C19.25 15.5858 19.5858 15.25 20 15.25H22C22.4142 15.25 22.75 15.5858 22.75 16C22.75 16.4142 22.4142 16.75 22 16.75H20C19.5858 16.75 19.25 16.4142 19.25 16Z" fill="black"/>
<path fill-rule="evenodd" clip-rule="evenodd" d="M16 19.25C16.4142 19.25 16.75 19.5858 16.75 20V22C16.75 22.4142 16.4142 22.75 16 22.75C15.5858 22.75 15.25 22.4142 15.25 22V20C15.25 19.5858 15.5858 19.25 16 19.25Z" fill="black"/>
<path fill-rule="evenodd" clip-rule="evenodd" d="M12.0098 19.25C12.424 19.25 12.7598 19.5858 12.7598 20V22C12.7598 22.4142 12.424 22.75 12.0098 22.75C11.5956 22.75 11.2598 22.4142 11.2598 22V20C11.2598 19.5858 11.5956 19.25 12.0098 19.25Z" fill="black"/>
<path fill-rule="evenodd" clip-rule="evenodd" d="M8.00977 19.25C8.42398 19.25 8.75977 19.5858 8.75977 20V22C8.75977 22.4142 8.42398 22.75 8.00977 22.75C7.59555 22.75 7.25977 22.4142 7.25977 22V20C7.25977 19.5858 7.59555 19.25 8.00977 19.25Z" fill="black"/>
<path fill-rule="evenodd" clip-rule="evenodd" d="M1.25 8C1.25 7.58579 1.58579 7.25 2 7.25H4C4.41421 7.25 4.75 7.58579 4.75 8C4.75 8.41421 4.41421 8.75 4 8.75H2C1.58579 8.75 1.25 8.41421 1.25 8Z" fill="black"/>
<path fill-rule="evenodd" clip-rule="evenodd" d="M1.25 12C1.25 11.5858 1.58579 11.25 2 11.25H4C4.41421 11.25 4.75 11.5858 4.75 12C4.75 12.4142 4.41421 12.75 4 12.75H2C1.58579 12.75 1.25 12.4142 1.25 12Z" fill="black"/>
<path fill-rule="evenodd" clip-rule="evenodd" d="M1.25 16C1.25 15.5858 1.58579 15.25 2 15.25H4C4.41421 15.25 4.75 15.5858 4.75 16C4.75 16.4142 4.41421 16.75 4 16.75H2C1.58579 16.75 1.25 16.4142 1.25 16Z" fill="black"/>
<path fill-rule="evenodd" clip-rule="evenodd" d="M12.3732 9.04963C12.7326 9.25561 12.8569 9.71391 12.651 10.0733L11.9763 11.2503H12.5603C12.9332 11.2503 13.3895 11.39 13.6373 11.8225C13.8839 12.2529 13.7758 12.7148 13.5898 13.0353L12.651 14.6733C12.445 15.0326 11.9867 15.157 11.6273 14.951C11.2679 14.745 11.1436 14.2867 11.3496 13.9274L12.0242 12.7503H11.4403C11.0673 12.7503 10.6111 12.6107 10.3633 12.1782C10.1167 11.7477 10.2248 11.2858 10.4108 10.9653L11.3496 9.32736C11.5556 8.968 12.0139 8.84365 12.3732 9.04963Z" fill="black"/>
</svg>
