<svg width="24" height="24" viewBox="0 0 24 24" fill="none" xmlns="http://www.w3.org/2000/svg">
<path fill-rule="evenodd" clip-rule="evenodd" d="M4.76967 4.76967C5.87914 3.6602 7.52603 3.25 9.6 3.25H14.4C16.474 3.25 18.1209 3.6602 19.2303 4.76967C20.3398 5.87914 20.75 7.52603 20.75 9.6C20.75 10.0142 20.4142 10.35 20 10.35C19.5858 10.35 19.25 10.0142 19.25 9.6C19.25 7.67397 18.8602 6.52086 18.1697 5.83033C17.4791 5.1398 16.326 4.75 14.4 4.75H9.6C7.67397 4.75 6.52086 5.1398 5.83033 5.83033C5.1398 6.52086 4.75 7.67397 4.75 9.6V14.4C4.75 16.326 5.1398 17.4791 5.83033 18.1697C6.52086 18.8602 7.67397 19.25 9.6 19.25C10.0142 19.25 10.35 19.5858 10.35 20C10.35 20.4142 10.0142 20.75 9.6 20.75C7.52603 20.75 5.87914 20.3398 4.76967 19.2303C3.6602 18.1209 3.25 16.474 3.25 14.4V9.6C3.25 7.52603 3.6602 5.87914 4.76967 4.76967Z" fill="black"/>
<path fill-rule="evenodd" clip-rule="evenodd" d="M7.28217 7.28217C8.05414 6.5102 9.17603 6.25 10.5 6.25H13.5C14.9601 6.25 16.1753 6.56371 16.9397 7.53663C17.1956 7.86234 17.1391 8.33383 16.8134 8.58974C16.4877 8.84565 16.0162 8.78907 15.7603 8.46337C15.4247 8.03629 14.7999 7.75 13.5 7.75H10.5C9.32397 7.75 8.69586 7.9898 8.34283 8.34283C7.9898 8.69586 7.75 9.32397 7.75 10.5V13.5C7.75 14.8001 8.03646 15.4279 8.45748 15.7635C8.78139 16.0217 8.83466 16.4936 8.57648 16.8175C8.3183 17.1414 7.84642 17.1947 7.52252 16.9365C6.56354 16.1721 6.25 14.9599 6.25 13.5V10.5C6.25 9.17603 6.5102 8.05414 7.28217 7.28217Z" fill="black"/>
<path fill-rule="evenodd" clip-rule="evenodd" d="M8.00977 1.25C8.42398 1.25 8.75977 1.58579 8.75977 2V4C8.75977 4.41421 8.42398 4.75 8.00977 4.75C7.59555 4.75 7.25977 4.41421 7.25977 4V2C7.25977 1.58579 7.59555 1.25 8.00977 1.25Z" fill="black"/>
<path fill-rule="evenodd" clip-rule="evenodd" d="M12 1.25C12.4142 1.25 12.75 1.58579 12.75 2V4C12.75 4.41421 12.4142 4.75 12 4.75C11.5858 4.75 11.25 4.41421 11.25 4V2C11.25 1.58579 11.5858 1.25 12 1.25Z" fill="black"/>
<path fill-rule="evenodd" clip-rule="evenodd" d="M16 1.25C16.4142 1.25 16.75 1.58579 16.75 2V4C16.75 4.41421 16.4142 4.75 16 4.75C15.5858 4.75 15.25 4.41421 15.25 4V2C15.25 1.58579 15.5858 1.25 16 1.25Z" fill="black"/>
<path fill-rule="evenodd" clip-rule="evenodd" d="M19.25 8C19.25 7.58579 19.5858 7.25 20 7.25H22C22.4142 7.25 22.75 7.58579 22.75 8C22.75 8.41421 22.4142 8.75 22 8.75H20C19.5858 8.75 19.25 8.41421 19.25 8Z" fill="black"/>
<path fill-rule="evenodd" clip-rule="evenodd" d="M8.00977 19.25C8.42398 19.25 8.75977 19.5858 8.75977 20V22C8.75977 22.4142 8.42398 22.75 8.00977 22.75C7.59555 22.75 7.25977 22.4142 7.25977 22V20C7.25977 19.5858 7.59555 19.25 8.00977 19.25Z" fill="black"/>
<path fill-rule="evenodd" clip-rule="evenodd" d="M1.25 8C1.25 7.58579 1.58579 7.25 2 7.25H4C4.41421 7.25 4.75 7.58579 4.75 8C4.75 8.41421 4.41421 8.75 4 8.75H2C1.58579 8.75 1.25 8.41421 1.25 8Z" fill="black"/>
<path fill-rule="evenodd" clip-rule="evenodd" d="M1.25 12C1.25 11.5858 1.58579 11.25 2 11.25H4C4.41421 11.25 4.75 11.5858 4.75 12C4.75 12.4142 4.41421 12.75 4 12.75H2C1.58579 12.75 1.25 12.4142 1.25 12Z" fill="black"/>
<path fill-rule="evenodd" clip-rule="evenodd" d="M1.25 16C1.25 15.5858 1.58579 15.25 2 15.25H4C4.41421 15.25 4.75 15.5858 4.75 16C4.75 16.4142 4.41421 16.75 4 16.75H2C1.58579 16.75 1.25 16.4142 1.25 16Z" fill="black"/>
<path fill-rule="evenodd" clip-rule="evenodd" d="M16.7101 16.1602C16.2462 16.1602 15.8701 16.5362 15.8701 17.0002C15.8701 17.4641 16.2462 17.8402 16.7101 17.8402C17.174 17.8402 17.5501 17.4641 17.5501 17.0002C17.5501 16.5362 17.174 16.1602 16.7101 16.1602ZM14.3701 17.0002C14.3701 15.7078 15.4178 14.6602 16.7101 14.6602C18.0025 14.6602 19.0501 15.7078 19.0501 17.0002C19.0501 18.2925 18.0025 19.3402 16.7101 19.3402C15.4178 19.3402 14.3701 18.2925 14.3701 17.0002Z" fill="black"/>
<path fill-rule="evenodd" clip-rule="evenodd" d="M15.1257 12.8239C15.0774 12.7429 14.9911 12.7366 14.9438 12.7648L14.9376 12.7684L14.0179 13.3041C13.9032 13.3686 13.8589 13.5239 13.928 13.6424L13.9294 13.6448C14.2495 14.1983 14.3725 14.8744 14.0352 15.4606C13.6977 16.0473 13.0507 16.2803 12.4102 16.2803C12.2744 16.2803 12.1602 16.3945 12.1602 16.5303V17.4603C12.1602 17.6138 12.2789 17.7126 12.3965 17.7104L12.4102 17.7102C13.0507 17.7102 13.6977 17.9433 14.0352 18.53C14.3725 19.1162 14.2495 19.7924 13.9294 20.3458L13.928 20.3482C13.8631 20.4595 13.8948 20.6145 14.0277 20.6923L14.9338 21.22C14.9989 21.2561 15.0854 21.2343 15.1257 21.1667L15.127 21.1644L15.1842 21.0692C15.504 20.5193 16.0262 20.0778 16.7002 20.0778C17.3741 20.0778 17.8963 20.5193 18.2161 21.0692L18.2746 21.1667C18.3229 21.2478 18.4092 21.254 18.4565 21.2258L18.4627 21.2222L19.3824 20.6866C19.4972 20.622 19.5414 20.4667 19.4723 20.3482L19.4709 20.3458C19.1509 19.7924 19.0278 19.1162 19.3651 18.53C19.7027 17.9433 20.3497 17.7103 20.9902 17.7103C21.1259 17.7103 21.2402 17.5961 21.2402 17.4603V16.5303C21.2402 16.3945 21.1259 16.2803 20.9902 16.2803C20.3497 16.2803 19.7027 16.0473 19.3651 15.4606C19.0278 14.8744 19.1509 14.1983 19.4709 13.6448L19.4723 13.6424C19.5373 13.5311 19.5054 13.3759 19.3724 13.2982L18.4665 12.7706C18.4014 12.7345 18.3149 12.7563 18.2746 12.8239L18.2733 12.8262L18.2161 12.9214C17.8963 13.4713 17.3741 13.9128 16.7002 13.9128C16.0262 13.9128 15.504 13.4713 15.1842 12.9214L15.1257 12.8239ZM16.4139 12.0555C15.9625 11.2986 14.9717 11.0051 14.1801 11.4738L13.2769 11.9998C12.4364 12.4766 12.1429 13.5573 12.6315 14.3967C12.7403 14.5853 12.7384 14.6817 12.7333 14.7115C12.7099 14.7308 12.6275 14.7803 12.4102 14.7803C11.4459 14.7803 10.6602 15.5661 10.6602 16.5303V17.4603C10.6602 18.4241 11.4369 19.2235 12.4153 19.2103C12.6288 19.2111 12.7101 19.26 12.7333 19.2792C12.7384 19.3089 12.7403 19.4053 12.6315 19.5939C12.1376 20.4423 12.4459 21.5061 13.2723 21.9881L14.1827 22.5184L14.1881 22.5215C14.9624 22.964 15.9541 22.7061 16.4139 21.9352L16.4146 21.9339L16.4733 21.8362L16.4794 21.8258C16.5876 21.6386 16.6713 21.5911 16.7002 21.58C16.729 21.5911 16.8127 21.6386 16.9209 21.8258L16.9857 21.9339L16.9865 21.9352C17.4379 22.692 18.4285 22.9855 19.2202 22.5169L20.1234 21.9908C20.9639 21.5141 21.2574 20.4334 20.7689 19.5939C20.66 19.4053 20.6619 19.3089 20.667 19.2792C20.6904 19.2598 20.7728 19.2103 20.9902 19.2103C21.9544 19.2103 22.7402 18.4245 22.7402 17.4603V16.5303C22.7402 15.5661 21.9544 14.7803 20.9902 14.7803C20.7728 14.7803 20.6904 14.7308 20.667 14.7115C20.6619 14.6817 20.66 14.5853 20.7689 14.3967C21.2627 13.5483 20.9544 12.4845 20.1281 12.0025L19.2176 11.4722L19.2123 11.4691C18.4379 11.0267 17.4462 11.2846 16.9864 12.0555L16.9857 12.0567L16.927 12.1544L16.9209 12.1648C16.8127 12.352 16.729 12.3995 16.7002 12.4106C16.6713 12.3995 16.5876 12.352 16.4794 12.1648L16.4146 12.0567L16.4139 12.0555Z" fill="black"/>
</svg>
