<svg width="24" height="24" viewBox="0 0 24 24" fill="none" xmlns="http://www.w3.org/2000/svg">
<path fill-rule="evenodd" clip-rule="evenodd" d="M12 2.75C6.89421 2.75 2.75 6.89421 2.75 12C2.75 17.1058 6.89421 21.25 12 21.25C17.1058 21.25 21.25 17.1058 21.25 12C21.25 6.89421 17.1058 2.75 12 2.75ZM1.25 12C1.25 6.06579 6.06579 1.25 12 1.25C17.9342 1.25 22.75 6.06579 22.75 12C22.75 17.9342 17.9342 22.75 12 22.75C6.06579 22.75 1.25 17.9342 1.25 12Z" fill="black"/>
<path fill-rule="evenodd" clip-rule="evenodd" d="M8.99011 9.87988C7.81433 9.87988 6.87012 10.8241 6.87012 11.9999C6.87012 13.174 7.82262 14.1199 8.99011 14.1199C9.51173 14.1199 10.0017 13.9172 10.3902 13.582C10.7038 13.3115 11.1774 13.3464 11.448 13.66C11.7186 13.9736 11.6837 14.4472 11.3701 14.7178C10.7386 15.2626 9.90849 15.6199 8.99011 15.6199C6.9976 15.6199 5.37012 14.0058 5.37012 11.9999C5.37012 9.99566 6.9859 8.37988 8.99011 8.37988C9.90954 8.37988 10.7472 8.72124 11.3819 9.29238C11.6897 9.56948 11.7147 10.0437 11.4376 10.3516C11.1605 10.6595 10.6863 10.6844 10.3784 10.4073C10.013 10.0785 9.53068 9.87988 8.99011 9.87988Z" fill="black"/>
<path fill-rule="evenodd" clip-rule="evenodd" d="M15.9901 9.87988C14.8143 9.87988 13.8701 10.8241 13.8701 11.9999C13.8701 13.174 14.8226 14.1199 15.9901 14.1199C16.5117 14.1199 17.0017 13.9172 17.3902 13.582C17.7038 13.3115 18.1774 13.3464 18.448 13.66C18.7186 13.9736 18.6837 14.4472 18.3701 14.7178C17.7386 15.2626 16.9085 15.6199 15.9901 15.6199C13.9976 15.6199 12.3701 14.0058 12.3701 11.9999C12.3701 9.99566 13.9859 8.37988 15.9901 8.37988C16.9095 8.37988 17.7472 8.72124 18.3819 9.29238C18.6897 9.56948 18.7147 10.0437 18.4376 10.3516C18.1605 10.6595 17.6863 10.6844 17.3784 10.4073C17.013 10.0785 16.5307 9.87988 15.9901 9.87988Z" fill="black"/>
</svg>
