<svg width="24" height="24" viewBox="0 0 24 24" fill="none" xmlns="http://www.w3.org/2000/svg">
<path fill-rule="evenodd" clip-rule="evenodd" d="M12.0052 2.77953C11.9204 2.87123 11.8016 3.05462 11.6828 3.37267L11.6824 3.37386L9.92047 8.06895C9.70889 8.62058 9.29361 9.04609 8.74409 9.21482C8.19459 9.38354 7.61118 9.26477 7.12329 8.927L7.11377 8.92041L3.21265 6.12949C2.99051 5.96993 2.81258 5.8706 2.67918 5.81268C2.6978 5.95782 2.74411 6.15801 2.83663 6.41846L6.97811 18.0026C6.98588 18.0248 7.02362 18.0897 7.11303 18.1529C7.20259 18.2161 7.27696 18.2304 7.3002 18.2304H16.7002C16.7239 18.2304 16.8007 18.2158 16.896 18.1502C16.9851 18.0889 17.028 18.0257 17.0403 18.0001L21.0731 6.71033L21.0736 6.70895C21.2021 6.34507 21.2509 6.08254 21.2579 5.91164C21.0968 5.96596 20.8597 6.08551 20.5476 6.30959L20.5457 6.31099L16.8816 8.92389C16.3963 9.26512 15.813 9.38378 15.2642 9.21456C14.7163 9.04561 14.3014 8.62021 14.0899 8.06894L14.088 8.06387L12.328 3.37386L12.3276 3.37267C12.2088 3.05462 12.09 2.87123 12.0052 2.77953ZM13.7325 2.84717C13.572 2.41753 13.3654 2.03904 13.1011 1.75535C12.8341 1.46878 12.4626 1.23535 12.0052 1.23535C11.5478 1.23535 11.1763 1.46878 10.9093 1.75535C10.645 2.03904 10.4384 2.41754 10.2779 2.84718L8.51914 7.53384C8.45079 7.71056 8.35658 7.76468 8.3038 7.78089C8.25125 7.79703 8.14105 7.80579 7.98111 7.69646L4.08775 4.91121C3.69465 4.62891 3.30237 4.41496 2.92827 4.31279C2.56254 4.2129 2.08634 4.18998 1.68601 4.49068C1.28546 4.79155 1.17478 5.25567 1.16919 5.63587C1.16346 6.02477 1.26028 6.46228 1.42351 6.92153L1.42397 6.92284L5.5623 18.4981L5.56326 18.5008C5.69582 18.8774 5.96246 19.1765 6.24737 19.3778C6.53281 19.5796 6.90344 19.7304 7.3002 19.7304H16.7002C17.0965 19.7304 17.4647 19.5799 17.7469 19.3855C18.0287 19.1914 18.2962 18.9044 18.4378 18.5457C18.4408 18.5381 18.4437 18.5304 18.4465 18.5226L22.4865 7.21264L22.4873 7.21038C22.663 6.71333 22.7652 6.24405 22.7585 5.83028C22.752 5.42529 22.6341 4.94457 22.2226 4.63339C21.8101 4.32148 21.3149 4.34015 20.9231 4.4463C20.5239 4.55446 20.1019 4.78313 19.6739 5.09032L19.6728 5.09111L16.0188 7.69683L16.0171 7.69804C15.8633 7.80553 15.7572 7.79687 15.7062 7.78115C15.6543 7.76516 15.5598 7.71093 15.4913 7.5339L13.7325 2.84717Z" fill="black"/>
<path fill-rule="evenodd" clip-rule="evenodd" d="M5.75 22C5.75 21.5858 6.08579 21.25 6.5 21.25H17.5C17.9142 21.25 18.25 21.5858 18.25 22C18.25 22.4142 17.9142 22.75 17.5 22.75H6.5C6.08579 22.75 5.75 22.4142 5.75 22Z" fill="black"/>
<path fill-rule="evenodd" clip-rule="evenodd" d="M8.75 14C8.75 13.5858 9.08579 13.25 9.5 13.25H14.5C14.9142 13.25 15.25 13.5858 15.25 14C15.25 14.4142 14.9142 14.75 14.5 14.75H9.5C9.08579 14.75 8.75 14.4142 8.75 14Z" fill="black"/>
</svg>
