<svg width="24" height="24" viewBox="0 0 24 24" fill="none" xmlns="http://www.w3.org/2000/svg">
<path fill-rule="evenodd" clip-rule="evenodd" d="M12.1504 15.75C12.5646 15.75 12.9004 16.0858 12.9004 16.5V18.6C12.9004 19.0142 12.5646 19.35 12.1504 19.35C11.7362 19.35 11.4004 19.0142 11.4004 18.6V16.5C11.4004 16.0858 11.7362 15.75 12.1504 15.75Z" fill="black"/>
<path fill-rule="evenodd" clip-rule="evenodd" d="M6.40039 21C6.40039 19.4858 7.63618 18.25 9.15039 18.25H15.1504C16.6646 18.25 17.9004 19.4858 17.9004 21V22.75H6.40039V21ZM9.15039 19.75C8.4646 19.75 7.90039 20.3142 7.90039 21V21.25H16.4004V21C16.4004 20.3142 15.8362 19.75 15.1504 19.75H9.15039Z" fill="black"/>
<path fill-rule="evenodd" clip-rule="evenodd" d="M5.40039 22C5.40039 21.5858 5.73618 21.25 6.15039 21.25H18.1504C18.5646 21.25 18.9004 21.5858 18.9004 22C18.9004 22.4142 18.5646 22.75 18.1504 22.75H6.15039C5.73618 22.75 5.40039 22.4142 5.40039 22Z" fill="black"/>
<path fill-rule="evenodd" clip-rule="evenodd" d="M9 2.75C7.20421 2.75 5.75 4.20421 5.75 6V9C5.75 12.4558 8.54421 15.25 12 15.25C15.4558 15.25 18.25 12.4558 18.25 9V6C18.25 4.20421 16.7958 2.75 15 2.75H9ZM4.25 6C4.25 3.37579 6.37579 1.25 9 1.25H15C17.6242 1.25 19.75 3.37579 19.75 6V9C19.75 13.2842 16.2842 16.75 12 16.75C7.71579 16.75 4.25 13.2842 4.25 9V6Z" fill="black"/>
<path fill-rule="evenodd" clip-rule="evenodd" d="M4.19352 5.13209C3.38081 5.28743 2.79004 5.98288 2.79004 6.84961C2.79004 8.0116 3.28109 9.03548 4.08417 9.93302C4.13384 9.98225 4.18485 10.0305 4.23715 10.0777C4.17345 9.67878 4.14004 9.26896 4.14004 8.84961V5.84961C4.14004 5.60802 4.15769 5.36808 4.19352 5.13209ZM1.29004 6.84961C1.29004 5.0354 2.72583 3.59961 4.54004 3.59961H5.19004C5.44284 3.59961 5.67864 3.72697 5.81725 3.93838C5.95586 4.1498 5.97864 4.41682 5.87784 4.64865C5.72231 5.00638 5.64004 5.41351 5.64004 5.84961V8.84961C5.64004 9.74262 5.82721 10.5821 6.15898 11.3532C6.27513 11.6232 6.2229 11.9361 6.02535 12.1537C5.82781 12.3713 5.52137 12.4535 5.24146 12.3639C4.36165 12.0824 3.60145 11.5717 3.00971 10.9799C3.00041 10.9706 2.99136 10.9611 2.98257 10.9513C1.99355 9.85242 1.29004 8.48119 1.29004 6.84961Z" fill="black"/>
<path fill-rule="evenodd" clip-rule="evenodd" d="M18.1831 3.93838C18.3217 3.72697 18.5575 3.59961 18.8103 3.59961H19.4603C21.2745 3.59961 22.7103 5.0354 22.7103 6.84961C22.7103 8.48119 22.0068 9.85242 21.0178 10.9513C21.009 10.9611 20.9999 10.9706 20.9906 10.9799C20.3989 11.5717 19.6387 12.0824 18.7589 12.3639C18.479 12.4535 18.1725 12.3713 17.975 12.1537C17.7774 11.9361 17.7252 11.6232 17.8413 11.3532C18.1731 10.5821 18.3603 9.74262 18.3603 8.84961V5.84961C18.3603 5.41351 18.278 5.00638 18.1225 4.64865C18.0217 4.41682 18.0445 4.1498 18.1831 3.93838ZM19.8068 5.13209C19.8426 5.36808 19.8603 5.60802 19.8603 5.84961V8.84961C19.8603 9.26896 19.8269 9.67878 19.7632 10.0777C19.8155 10.0305 19.8665 9.98225 19.9162 9.93302C20.7192 9.03548 21.2103 8.0116 21.2103 6.84961C21.2103 5.98288 20.6195 5.28743 19.8068 5.13209Z" fill="black"/>
</svg>
