<svg width="24" height="24" viewBox="0 0 24 24" fill="none" xmlns="http://www.w3.org/2000/svg">
<path fill-rule="evenodd" clip-rule="evenodd" d="M12 8.25C12.4142 8.25 12.75 8.58579 12.75 9V14C12.75 14.4142 12.4142 14.75 12 14.75C11.5858 14.75 11.25 14.4142 11.25 14V9C11.25 8.58579 11.5858 8.25 12 8.25Z" fill="black"/>
<path fill-rule="evenodd" clip-rule="evenodd" d="M11.9999 3.34277C11.2 3.34277 10.2322 3.89167 9.41576 5.36399L3.35577 16.264C2.59528 17.6356 2.6278 18.7174 3.0354 19.4119C3.44259 20.1056 4.36961 20.6603 5.93985 20.6603H11.9999C12.0417 20.6603 12.0827 20.6637 12.1226 20.6703H18.0599C19.6243 20.6703 20.5522 20.116 20.9609 19.4213C21.3697 18.7263 21.4039 17.6445 20.6439 16.274L14.5843 5.36461C13.7679 3.89229 12.7997 3.34277 11.9999 3.34277ZM11.8771 22.1603H5.93985C4.04009 22.1603 2.50711 21.475 1.7418 20.1712C0.976903 18.8681 1.12442 17.195 2.04393 15.5366L8.10394 4.63656C9.0675 2.89927 10.4499 1.84277 11.9999 1.84277C13.5498 1.84277 14.9319 2.89863 15.8954 4.63594L21.9556 15.5462C22.8757 17.2057 23.02 18.8792 22.2538 20.1818C21.4875 21.4845 19.9554 22.1703 18.0599 22.1703H11.9999C11.958 22.1703 11.917 22.1669 11.8771 22.1603Z" fill="black"/>
<path fill-rule="evenodd" clip-rule="evenodd" d="M10.9941 17C10.9941 16.4477 11.4419 16 11.9941 16H12.0031C12.5554 16 13.0031 16.4477 13.0031 17C13.0031 17.5523 12.5554 18 12.0031 18H11.9941C11.4419 18 10.9941 17.5523 10.9941 17Z" fill="black"/>
</svg>
