<svg width="24" height="24" viewBox="0 0 24 24" fill="none" xmlns="http://www.w3.org/2000/svg">
<path fill-rule="evenodd" clip-rule="evenodd" d="M6.36982 3.32628C6.45026 2.98843 6.75213 2.75 7.09942 2.75H15.9994C18.1607 2.75 19.8754 3.43015 21.0456 4.67348C22.2085 5.90914 22.7494 7.61147 22.7494 9.5V12C22.7494 14.6481 21.9531 16.9747 20.3534 18.6439C18.7488 20.3184 16.4135 21.25 13.4994 21.25H3.89942C3.66775 21.25 3.44908 21.1429 3.30701 20.9599C3.16493 20.7769 3.1154 20.5386 3.17282 20.3141L4.27282 16.0141C4.35773 15.6822 4.6568 15.45 4.99942 15.45H12.3994C14.0425 15.45 15.1494 14.9526 15.8511 14.2008C16.5612 13.44 16.9494 12.319 16.9494 10.9V10.7C16.9494 9.89522 16.7687 9.36024 16.4683 9.02818C16.1809 8.71052 15.6662 8.45 14.6994 8.45H6.09942C5.86995 8.45 5.6531 8.34495 5.51087 8.16487C5.36863 7.9848 5.31667 7.74952 5.36982 7.52628L6.36982 3.32628ZM7.69181 4.25L7.04896 6.95H14.6994C15.9326 6.95 16.918 7.28948 17.5806 8.02181C18.2301 8.73976 18.4494 9.70478 18.4494 10.7V10.9C18.4494 12.581 17.9876 14.11 16.9477 15.2242C15.8995 16.3474 14.3563 16.95 12.3994 16.95H5.58171L4.86543 19.75H13.4994C16.0854 19.75 18.0001 18.9316 19.2704 17.6061C20.5458 16.2753 21.2494 14.3519 21.2494 12V9.5C21.2494 7.88853 20.7903 6.59086 19.9533 5.70152C19.1235 4.81985 17.8382 4.25 15.9994 4.25H7.69181Z" fill="black"/>
<path fill-rule="evenodd" clip-rule="evenodd" d="M1.6716 11.8207C1.95808 10.5683 3.07332 9.75 4.30001 9.75H11.5C11.733 9.75 11.9528 9.8583 12.0947 10.0431C12.2367 10.2278 12.2847 10.4681 12.2247 10.6932L11.8284 12.1793C11.5419 13.4317 10.4267 14.25 9.20001 14.25H2.00001C1.767 14.25 1.54722 14.1417 1.40526 13.9569C1.26331 13.7722 1.21529 13.5319 1.27533 13.3068L1.6716 11.8207ZM4.30001 11.25C3.7321 11.25 3.25175 11.6245 3.13215 12.1627C3.12987 12.1729 3.12738 12.1831 3.12468 12.1932L2.97622 12.75H9.20001C9.76792 12.75 10.2483 12.3755 10.3679 11.8373C10.3701 11.8271 10.3726 11.8169 10.3753 11.8068L10.5238 11.25H4.30001Z" fill="black"/>
</svg>
