<svg width="24" height="24" viewBox="0 0 24 24" fill="none" xmlns="http://www.w3.org/2000/svg">
<path fill-rule="evenodd" clip-rule="evenodd" d="M12.0002 6.65039C11.7144 6.65039 11.4502 6.9146 11.4502 7.20039V16.8004C11.4502 17.0862 11.7144 17.3504 12.0002 17.3504C12.3666 17.3504 12.5502 17.1099 12.5502 16.9004V7.20039C12.5502 6.9146 12.286 6.65039 12.0002 6.65039ZM9.9502 7.20039C9.9502 6.08618 10.886 5.15039 12.0002 5.15039C13.1144 5.15039 14.0502 6.08618 14.0502 7.20039V16.9004C14.0502 18.0909 13.0338 18.8504 12.0002 18.8504C10.886 18.8504 9.9502 17.9146 9.9502 16.8004V7.20039Z" fill="black"/>
<path fill-rule="evenodd" clip-rule="evenodd" d="M8.16951 9.07534C7.73694 8.90636 7.43958 9.09765 7.37058 9.23565L7.36127 9.25427L7.35094 9.27234C7.23824 9.46957 7.23094 9.64185 7.26147 9.75526C7.28951 9.8594 7.35711 9.9517 7.4952 10.0109L7.53462 10.0278L15.9497 14.8364C16.195 14.9493 16.5506 14.8758 16.7473 14.6236C16.8462 14.3726 16.7615 14.0222 16.501 13.8362L8.16951 9.07534ZM6.03855 8.54586C6.57356 7.50409 7.85229 7.30678 8.7952 7.71088L8.83462 7.72778L17.2943 12.5619L17.3158 12.5762C18.2267 13.1835 18.5418 14.3933 18.0706 15.3356L18.0497 15.3774L18.0238 15.4163C17.4165 16.3272 16.2067 16.6423 15.2643 16.1711L15.2457 16.1617L6.86103 11.3705C5.71249 10.8487 5.48221 9.53965 6.03855 8.54586Z" fill="black"/>
<path fill-rule="evenodd" clip-rule="evenodd" d="M16.3545 9.09167C16.2098 9.04716 16.1001 9.06786 16.0161 9.12387L15.9946 9.1382L7.59817 13.9361C7.44563 14.0437 7.33732 14.1977 7.29186 14.3454C7.24735 14.4901 7.26805 14.5998 7.32406 14.6838L7.34997 14.7227L7.37085 14.7644C7.43985 14.9024 7.73721 15.0937 8.16978 14.9247L16.5019 10.1635C16.6544 10.0559 16.7627 9.902 16.8082 9.75427C16.8527 9.60961 16.832 9.49988 16.776 9.41586C16.668 9.2539 16.5079 9.13888 16.3545 9.09167ZM15.208 7.86001C16.2601 7.17985 17.4816 7.77014 18.0241 8.58381C18.729 9.64121 18.1359 10.8773 17.3161 11.4239L17.2946 11.4382L8.83489 16.2723L8.79547 16.2892C7.85946 16.6903 6.59254 16.4988 6.05069 15.477C5.3856 14.4283 5.97416 13.2157 6.784 12.6758L6.80549 12.6615L15.208 7.86001Z" fill="black"/>
<path fill-rule="evenodd" clip-rule="evenodd" d="M12 2.75C6.89137 2.75 2.75 6.89137 2.75 12C2.75 17.1086 6.89137 21.25 12 21.25C17.1086 21.25 21.25 17.1086 21.25 12C21.25 6.89137 17.1086 2.75 12 2.75ZM1.25 12C1.25 6.06294 6.06294 1.25 12 1.25C17.9371 1.25 22.75 6.06294 22.75 12C22.75 17.9371 17.9371 22.75 12 22.75C6.06294 22.75 1.25 17.9371 1.25 12Z" fill="black"/>
</svg>
