<svg width="24" height="24" viewBox="0 0 24 24" fill="none" xmlns="http://www.w3.org/2000/svg">
<path fill-rule="evenodd" clip-rule="evenodd" d="M3.74784 5.61835C3.15538 6.16848 2.75 7.06795 2.75 8.5V13.9C2.75 15.3321 3.15538 16.2315 3.74784 16.7817C4.35035 17.3412 5.26497 17.65 6.5 17.65H15.5C16.735 17.65 17.6496 17.3412 18.2522 16.7817C18.8446 16.2315 19.25 15.3321 19.25 13.9V13.1248C19.0863 13.1416 18.9195 13.15 18.75 13.15H16.3774L13.6693 14.9585C12.7508 15.5565 11.5 14.9079 11.5 13.79V13.0926C10.6671 12.9615 9.92654 12.6072 9.35967 12.0403C8.62753 11.3082 8.25 10.2863 8.25 9.15002V5.25C8.25 5.08054 8.25847 4.91372 8.2752 4.75H6.5C5.26497 4.75 4.35035 5.05887 3.74784 5.61835ZM2.72716 4.51915C3.69965 3.61613 5.03503 3.25 6.5 3.25H9.2C9.44212 3.25 9.66936 3.36689 9.81015 3.56387C9.95095 3.76084 9.988 4.01368 9.90962 4.24277C9.80782 4.54034 9.75 4.87795 9.75 5.25V9.15002C9.75 9.95372 10.0125 10.5718 10.4203 10.9797C10.8282 11.3875 11.4463 11.65 12.25 11.65C12.6642 11.65 13 11.9858 13 12.4V13.6017L15.7335 11.7763C15.8568 11.694 16.0017 11.65 16.15 11.65H18.75C19.122 11.65 19.4596 11.5922 19.7572 11.4903C19.9863 11.412 20.2392 11.449 20.4361 11.5898C20.6331 11.7306 20.75 11.9578 20.75 12.2V13.9C20.75 15.618 20.2554 16.9685 19.2728 17.8809C18.3004 18.7839 16.965 19.15 15.5 19.15H6.5C5.03503 19.15 3.69965 18.7839 2.72716 17.8809C1.74462 16.9685 1.25 15.618 1.25 13.9V8.5C1.25 6.78205 1.74462 5.43152 2.72716 4.51915Z" fill="black"/>
<path fill-rule="evenodd" clip-rule="evenodd" d="M9.90824 4.24682C9.8073 4.5434 9.75 4.87963 9.75 5.25V9.15002C9.75 9.95372 10.0125 10.5718 10.4203 10.9797C10.8282 11.3875 11.4463 11.65 12.25 11.65C12.6642 11.65 13 11.9858 13 12.4V13.6017L15.7335 11.7763C15.8568 11.694 16.0017 11.65 16.15 11.65H18.75C19.1203 11.65 19.4565 11.5927 19.7532 11.4917C20.6576 11.169 21.25 10.3585 21.25 9.15002V5.25C21.25 4.44544 20.9851 3.83325 20.5759 3.42408C20.1668 3.01491 19.5546 2.75 18.75 2.75H12.25C11.0415 2.75 10.2309 3.34244 9.90824 4.24682ZM8.49318 3.74919C9.05147 2.17582 10.4803 1.25 12.25 1.25H18.75C19.8954 1.25 20.9082 1.63509 21.6366 2.36342C22.3649 3.09175 22.75 4.10456 22.75 5.25V9.15002C22.75 10.9198 21.8242 12.3485 20.2508 12.9068L20.2428 12.9096C19.7804 13.0678 19.278 13.15 18.75 13.15H16.3774L13.6693 14.9585C12.7508 15.5565 11.5 14.9079 11.5 13.79V13.0926C10.6671 12.9615 9.92654 12.6072 9.35967 12.0403C8.62753 11.3082 8.25 10.2863 8.25 9.15002V5.25C8.25 4.72205 8.33218 4.21966 8.49038 3.75723L8.49318 3.74919Z" fill="black"/>
<path fill-rule="evenodd" clip-rule="evenodd" d="M6.65002 22C6.65002 21.5858 6.98581 21.25 7.40002 21.25H14.6C15.0142 21.25 15.35 21.5858 15.35 22C15.35 22.4142 15.0142 22.75 14.6 22.75H7.40002C6.98581 22.75 6.65002 22.4142 6.65002 22Z" fill="black"/>
<path fill-rule="evenodd" clip-rule="evenodd" d="M11 17.65C11.4142 17.65 11.75 17.9858 11.75 18.4V22C11.75 22.4142 11.4142 22.75 11 22.75C10.5858 22.75 10.25 22.4142 10.25 22V18.4C10.25 17.9858 10.5858 17.65 11 17.65Z" fill="black"/>
<path fill-rule="evenodd" clip-rule="evenodd" d="M17.7455 7.25C17.7455 6.83579 18.0813 6.5 18.4955 6.5H18.5045C18.9187 6.5 19.2545 6.83579 19.2545 7.25C19.2545 7.66421 18.9187 8 18.5045 8H18.4955C18.0813 8 17.7455 7.66421 17.7455 7.25Z" fill="black"/>
<path fill-rule="evenodd" clip-rule="evenodd" d="M14.9457 7.25C14.9457 6.83579 15.2815 6.5 15.6957 6.5H15.7047C16.1189 6.5 16.4547 6.83579 16.4547 7.25C16.4547 7.66421 16.1189 8 15.7047 8H15.6957C15.2815 8 14.9457 7.66421 14.9457 7.25Z" fill="black"/>
<path fill-rule="evenodd" clip-rule="evenodd" d="M12.1454 7.25C12.1454 6.83579 12.4812 6.5 12.8954 6.5H12.9044C13.3186 6.5 13.6544 6.83579 13.6544 7.25C13.6544 7.66421 13.3186 8 12.9044 8H12.8954C12.4812 8 12.1454 7.66421 12.1454 7.25Z" fill="black"/>
</svg>
