<svg width="24" height="24" viewBox="0 0 24 24" fill="none" xmlns="http://www.w3.org/2000/svg">
<path fill-rule="evenodd" clip-rule="evenodd" d="M2 1.25C2.41421 1.25 2.75 1.58579 2.75 2V19C2.75 20.2458 3.75421 21.25 5 21.25H22C22.4142 21.25 22.75 21.5858 22.75 22C22.75 22.4142 22.4142 22.75 22 22.75H5C2.92579 22.75 1.25 21.0742 1.25 19V2C1.25 1.58579 1.58579 1.25 2 1.25Z" fill="black"/>
<path fill-rule="evenodd" clip-rule="evenodd" d="M21.4879 6.43042C21.8025 6.69989 21.8391 7.17336 21.5696 7.48793L16.9696 12.8579L16.9676 12.8602C15.9236 14.0691 14.0687 14.1394 12.9397 13.0104L11.9865 12.0571C11.4807 11.5452 10.6387 11.5744 10.1585 12.1292L10.1576 12.1302L5.56968 17.4878C5.30026 17.8025 4.8268 17.8391 4.51218 17.5697C4.19756 17.3003 4.16092 16.8268 4.43035 16.5122L9.02035 11.1522L9.0224 11.1498C10.0619 9.94622 11.9177 9.85522 13.0518 11.0011L13.0535 11.0029L14.0003 11.9497C14.511 12.4604 15.3555 12.431 15.8316 11.8807L15.8324 11.8798L20.4304 6.51209C20.6999 6.19752 21.1734 6.16095 21.4879 6.43042Z" fill="black"/>
</svg>
