<svg width="24" height="24" viewBox="0 0 24 24" fill="none" xmlns="http://www.w3.org/2000/svg">
<path fill-rule="evenodd" clip-rule="evenodd" d="M12.2875 1.30711C12.5678 1.4232 12.7505 1.69668 12.7505 2.00002V9.00002C12.7505 9.41424 12.4147 9.75002 12.0005 9.75002C11.5863 9.75002 11.2505 9.41424 11.2505 9.00002V3.81068L10.5308 4.53035C10.2379 4.82325 9.76305 4.82325 9.47016 4.53035C9.17727 4.23746 9.17727 3.76259 9.47016 3.46969L11.4702 1.46969C11.6847 1.25519 12.0072 1.19103 12.2875 1.30711Z" fill="black"/>
<path fill-rule="evenodd" clip-rule="evenodd" d="M11.4702 1.46969C11.7631 1.1768 12.2379 1.1768 12.5308 1.46969L14.5308 3.46969C14.8237 3.76258 14.8237 4.23746 14.5308 4.53035C14.2379 4.82325 13.7631 4.82325 13.4702 4.53035L11.4702 2.53035C11.1773 2.23746 11.1773 1.76259 11.4702 1.46969Z" fill="black"/>
<path fill-rule="evenodd" clip-rule="evenodd" d="M1.23047 13C1.23047 12.5858 1.56626 12.25 1.98047 12.25H6.39047C7.05442 12.25 7.65419 12.6204 7.95129 13.2146L9.12129 15.5546C9.33536 15.9828 9.76704 16.25 10.2405 16.25H13.7705C14.2439 16.25 14.6756 15.9828 14.8896 15.5546L16.0596 13.2146C16.3586 12.6166 16.9708 12.25 17.6205 12.25H21.9805C22.3947 12.25 22.7305 12.5858 22.7305 13C22.7305 13.4142 22.3947 13.75 21.9805 13.75H17.6205C17.5302 13.75 17.4423 13.8034 17.4013 13.8854L16.2313 16.2254C15.7654 17.1573 14.817 17.75 13.7705 17.75H10.2405C9.1939 17.75 8.24558 17.1573 7.77965 16.2254L6.60965 13.8854C6.56675 13.7996 6.48652 13.75 6.39047 13.75H1.98047C1.56626 13.75 1.23047 13.4142 1.23047 13Z" fill="black"/>
<path fill-rule="evenodd" clip-rule="evenodd" d="M7.74253 5.02103C7.80272 5.43084 7.5193 5.81187 7.10949 5.87206C5.47068 6.11279 4.43449 6.69252 3.78112 7.59772C3.10792 8.53041 2.75049 9.93103 2.75049 12V15C2.75049 17.4261 3.24029 18.9292 4.15582 19.8447C5.07135 20.7602 6.57446 21.25 9.00049 21.25H15.0005C17.4265 21.25 18.9296 20.7602 19.8452 19.8447C20.7607 18.9292 21.2505 17.4261 21.2505 15V12C21.2505 9.93103 20.8931 8.53041 20.2199 7.59772C19.5665 6.69252 18.5303 6.11279 16.8915 5.87206C16.4817 5.81187 16.1983 5.43084 16.2585 5.02103C16.3187 4.61121 16.6997 4.32779 17.1095 4.38799C19.0107 4.66726 20.4745 5.38753 21.4361 6.71983C22.3779 8.02465 22.7505 9.79902 22.7505 12V15C22.7505 17.574 22.2403 19.5709 20.9058 20.9054C19.5714 22.2398 17.5745 22.75 15.0005 22.75H9.00049C6.42652 22.75 4.42963 22.2398 3.09516 20.9054C1.76069 19.5709 1.25049 17.574 1.25049 15V12C1.25049 9.79902 1.62306 8.02465 2.56485 6.71983C3.52649 5.38753 4.9903 4.66726 6.89149 4.38799C7.3013 4.32779 7.68233 4.61121 7.74253 5.02103Z" fill="black"/>
</svg>
