<svg width="24" height="24" viewBox="0 0 24 24" fill="none" xmlns="http://www.w3.org/2000/svg">
<path fill-rule="evenodd" clip-rule="evenodd" d="M12.287 1.30711C12.5673 1.4232 12.75 1.69668 12.75 2.00002V8.00002C12.75 8.41424 12.4142 8.75002 12 8.75002C11.5858 8.75002 11.25 8.41424 11.25 8.00002V3.81068L10.5303 4.53035C10.2374 4.82325 9.76256 4.82325 9.46967 4.53035C9.17678 4.23746 9.17678 3.76259 9.46967 3.46969L11.4697 1.46969C11.6842 1.25519 12.0068 1.19103 12.287 1.30711Z" fill="black"/>
<path fill-rule="evenodd" clip-rule="evenodd" d="M11.4697 1.46969C11.7626 1.1768 12.2374 1.1768 12.5303 1.46969L14.5303 3.46969C14.8232 3.76258 14.8232 4.23746 14.5303 4.53035C14.2374 4.82325 13.7626 4.82325 13.4697 4.53035L11.4697 2.53035C11.1768 2.23746 11.1768 1.76259 11.4697 1.46969Z" fill="black"/>
<path fill-rule="evenodd" clip-rule="evenodd" d="M2.88294 12.745C3.59955 11.7077 4.92917 11.25 7 11.25C7.54882 11.25 7.97196 11.3068 8.35216 11.4549C8.70915 11.5939 8.98172 11.7986 9.22126 11.9784C9.23089 11.9857 9.24047 11.9929 9.25 12C9.2851 12.0263 9.31782 12.0557 9.34779 12.0877L10.3564 13.1663C11.2519 14.113 12.7506 14.1092 13.6326 13.1674L13.6347 13.1651L14.6547 12.0851C14.684 12.0541 14.7159 12.0256 14.75 12C14.7595 11.9929 14.7691 11.9857 14.7787 11.9785C15.0183 11.7986 15.2909 11.5939 15.6478 11.4549C16.028 11.3068 16.4512 11.25 17 11.25C19.0708 11.25 20.4005 11.7077 21.1171 12.745C21.4601 13.2416 21.6103 13.8026 21.6812 14.3456C21.75 14.8728 21.75 15.4403 21.75 15.973V17C21.75 18.4467 21.4926 19.9094 20.5775 21.0136C19.6386 22.1465 18.1387 22.75 16 22.75H8C5.4289 22.75 3.84938 22.1797 3.00787 20.9612C2.60235 20.374 2.42097 19.7052 2.33444 19.0428C2.24997 18.396 2.24998 17.6975 2.25 17.0279L2.25 15.973C2.24998 15.4403 2.24996 14.8728 2.31882 14.3456C2.38972 13.8026 2.53985 13.2416 2.88294 12.745ZM3.80619 14.5398C3.75121 14.9608 3.75 15.4356 3.75 16V17C3.75 17.7019 3.75121 18.308 3.82181 18.8485C3.89153 19.3823 4.02265 19.791 4.24214 20.1088C4.65062 20.7003 5.57111 21.25 8 21.25H16C17.8613 21.25 18.8614 20.7335 19.4225 20.0565C20.0074 19.3507 20.25 18.3134 20.25 17V16C20.25 15.4356 20.2488 14.9608 20.1938 14.5398C20.1397 14.1255 20.0399 13.8247 19.8829 13.5976C19.5995 13.1874 18.9292 12.75 17 12.75C16.5488 12.75 16.332 12.7982 16.1922 12.8526C16.0531 12.9068 15.9391 12.9841 15.701 13.1619L14.7274 14.1927C14.727 14.1931 14.7266 14.1936 14.7262 14.194C13.2484 15.7705 10.749 15.7666 9.26474 14.195L9.26221 14.1923L8.29752 13.1608C8.06044 12.9838 7.94663 12.9067 7.80784 12.8526C7.66804 12.7982 7.45119 12.75 7 12.75C5.07083 12.75 4.40046 13.1874 4.11707 13.5976C3.96015 13.8247 3.86029 14.1255 3.80619 14.5398Z" fill="black"/>
<path fill-rule="evenodd" clip-rule="evenodd" d="M8.74652 5.9679C8.78638 6.38019 8.48446 6.74673 8.07217 6.78658C6.70775 6.91847 6.24795 7.33239 6.03664 7.72825C5.76834 8.23085 5.75 8.93459 5.75 10.0001V12.0001C5.75 12.4143 5.41421 12.7501 5 12.7501C4.58579 12.7501 4.25 12.4143 4.25 12.0001V10.0001C4.25 9.96685 4.24998 9.93341 4.24996 9.89976C4.24933 8.97627 4.24859 7.89255 4.71337 7.02188C5.25206 6.01273 6.29225 5.45165 7.92784 5.29354C8.34013 5.25369 8.70667 5.55561 8.74652 5.9679Z" fill="black"/>
<path fill-rule="evenodd" clip-rule="evenodd" d="M15.2535 5.9679C15.2933 5.55561 15.6599 5.25369 16.0722 5.29354C17.7078 5.45165 18.7479 6.01273 19.2866 7.02188C19.7514 7.89255 19.7507 8.97627 19.75 9.89976C19.75 9.93341 19.75 9.96685 19.75 10.0001V12.0001C19.75 12.4143 19.4142 12.7501 19 12.7501C18.5858 12.7501 18.25 12.4143 18.25 12.0001V10.0001C18.25 8.93459 18.2317 8.23085 17.9634 7.72825C17.7521 7.33239 17.2922 6.91847 15.9278 6.78658C15.5155 6.74673 15.2136 6.38019 15.2535 5.9679Z" fill="black"/>
</svg>
