<svg width="24" height="24" viewBox="0 0 24 24" fill="none" xmlns="http://www.w3.org/2000/svg">
<path fill-rule="evenodd" clip-rule="evenodd" d="M8.04988 2.4063L19.6394 8.50604C22.4536 9.98723 22.4536 14.0122 19.6394 15.4934L8.04799 21.5942C4.65792 23.3693 0.961325 19.7702 2.67926 16.3343L4.29926 13.0943C4.64368 12.4055 4.64368 11.594 4.29926 10.9051L2.67926 7.66514C0.964009 4.23464 4.65383 0.616199 8.04988 2.4063ZM7.35027 3.73316C5.24646 2.62387 2.95623 4.86498 4.0209 6.99432L5.6409 10.2343C6.19647 11.3455 6.19647 12.654 5.6409 13.7651L4.0209 17.0051C2.95893 19.1291 5.24181 21.3697 7.35158 20.2656C7.35138 20.2657 7.35177 20.2655 7.35158 20.2656L18.9408 14.166C20.6865 13.2472 20.6865 10.7522 18.9408 9.83342L7.35027 3.73316Z" fill="black"/>
<path fill-rule="evenodd" clip-rule="evenodd" d="M8.04988 2.4063L19.6394 8.50604C22.4536 9.98723 22.4536 14.0122 19.6394 15.4934L8.04799 21.5942C4.65792 23.3693 0.961325 19.7702 2.67926 16.3343L4.29926 13.0943C4.64368 12.4055 4.64368 11.594 4.29926 10.9051L2.67926 7.66514C0.964009 4.23464 4.65383 0.616199 8.04988 2.4063ZM7.35027 3.73316C5.24646 2.62387 2.95623 4.86498 4.0209 6.99432L5.6409 10.2343C6.19647 11.3455 6.19647 12.654 5.6409 13.7651L4.0209 17.0051C2.95893 19.1291 5.24181 21.3697 7.35158 20.2656C7.35138 20.2657 7.35177 20.2655 7.35158 20.2656L18.9408 14.166C20.6865 13.2472 20.6865 10.7522 18.9408 9.83342L7.35027 3.73316Z" fill="black"/>
</svg>
