<svg width="24" height="24" viewBox="0 0 24 24" fill="none" xmlns="http://www.w3.org/2000/svg">
<path fill-rule="evenodd" clip-rule="evenodd" d="M12 1.25C12.4142 1.25 12.75 1.58579 12.75 2V6.18934L13.4697 5.46967C13.7626 5.17678 14.2374 5.17678 14.5303 5.46967C14.8232 5.76256 14.8232 6.23744 14.5303 6.53033L12.5303 8.53033C12.3158 8.74483 11.9932 8.809 11.713 8.69291C11.4327 8.57682 11.25 8.30335 11.25 8V2C11.25 1.58579 11.5858 1.25 12 1.25Z" fill="black"/>
<path fill-rule="evenodd" clip-rule="evenodd" d="M9.46967 5.46967C9.76256 5.17678 10.2374 5.17678 10.5303 5.46967L12.5303 7.46967C12.8232 7.76256 12.8232 8.23744 12.5303 8.53033C12.2374 8.82322 11.7626 8.82322 11.4697 8.53033L9.46967 6.53033C9.17678 6.23744 9.17678 5.76256 9.46967 5.46967Z" fill="black"/>
<path fill-rule="evenodd" clip-rule="evenodd" d="M2.88294 12.745C3.59955 11.7077 4.92917 11.25 7 11.25C7.54882 11.25 7.97196 11.3068 8.35216 11.4549C8.70915 11.5939 8.98172 11.7986 9.22126 11.9784C9.23089 11.9857 9.24047 11.9929 9.25 12C9.2851 12.0263 9.31782 12.0557 9.34779 12.0877L10.3564 13.1663C11.2519 14.113 12.7506 14.1091 13.6326 13.1673L13.6347 13.165L14.6547 12.085C14.684 12.054 14.7159 12.0256 14.75 12C14.7595 11.9929 14.7691 11.9857 14.7787 11.9784C15.0183 11.7986 15.2909 11.5939 15.6478 11.4549C16.028 11.3068 16.4512 11.25 17 11.25C19.0708 11.25 20.4005 11.7077 21.1171 12.745C21.4601 13.2416 21.6103 13.8026 21.6812 14.3455C21.75 14.8728 21.75 15.4402 21.75 15.973V17C21.75 18.4466 21.4926 19.9093 20.5775 21.0136C19.6386 22.1465 18.1387 22.75 16 22.75H8C5.4289 22.75 3.84938 22.1797 3.00787 20.9612C2.60235 20.374 2.42097 19.7052 2.33444 19.0428C2.24997 18.396 2.24998 17.6975 2.25 17.0278L2.25 15.973C2.24998 15.4402 2.24996 14.8728 2.31882 14.3455C2.38972 13.8026 2.53985 13.2416 2.88294 12.745ZM3.80619 14.5398C3.75121 14.9608 3.75 15.4356 3.75 16V17C3.75 17.7019 3.75121 18.308 3.82181 18.8485C3.89153 19.3823 4.02265 19.791 4.24214 20.1088C4.65062 20.7003 5.57111 21.25 8 21.25H16C17.8613 21.25 18.8614 20.7335 19.4225 20.0564C20.0074 19.3507 20.25 18.3134 20.25 17V16C20.25 15.4356 20.2488 14.9608 20.1938 14.5398C20.1397 14.1255 20.0399 13.8247 19.8829 13.5975C19.5995 13.1873 18.9292 12.75 17 12.75C16.5488 12.75 16.332 12.7982 16.1922 12.8526C16.0531 12.9068 15.9391 12.9841 15.701 13.1618L14.7274 14.1927C14.727 14.1931 14.7266 14.1936 14.7262 14.194C13.2484 15.7704 10.749 15.7666 9.26474 14.195L9.26221 14.1923L8.29752 13.1607C8.06044 12.9838 7.94663 12.9067 7.80784 12.8526C7.66804 12.7982 7.45119 12.75 7 12.75C5.07083 12.75 4.40046 13.1873 4.11707 13.5975C3.96015 13.8247 3.86029 14.1255 3.80619 14.5398Z" fill="black"/>
<path fill-rule="evenodd" clip-rule="evenodd" d="M8.74652 3.96788C8.78638 4.38017 8.48446 4.7467 8.07217 4.78656C6.70775 4.91845 6.24795 5.33237 6.03664 5.72822C5.76834 6.23082 5.75 6.93456 5.75 8.00004V12C5.75 12.4143 5.41421 12.75 5 12.75C4.58579 12.75 4.25 12.4143 4.25 12V8.00004C4.25 7.96683 4.24998 7.93339 4.24996 7.89974C4.24933 6.97625 4.24859 5.89253 4.71337 5.02185C5.25206 4.01271 6.29225 3.45163 7.92784 3.29352C8.34013 3.25366 8.70667 3.55558 8.74652 3.96788Z" fill="black"/>
<path fill-rule="evenodd" clip-rule="evenodd" d="M15.2535 3.96788C15.2933 3.55558 15.6599 3.25366 16.0722 3.29352C17.7078 3.45163 18.7479 4.01271 19.2866 5.02185C19.7514 5.89253 19.7507 6.97625 19.75 7.89974C19.75 7.93339 19.75 7.96683 19.75 8.00004V12C19.75 12.4143 19.4142 12.75 19 12.75C18.5858 12.75 18.25 12.4143 18.25 12V8.00004C18.25 6.93456 18.2317 6.23082 17.9634 5.72822C17.7521 5.33237 17.2922 4.91845 15.9278 4.78656C15.5155 4.7467 15.2136 4.38017 15.2535 3.96788Z" fill="black"/>
</svg>
