<svg width="24" height="24" viewBox="0 0 24 24" fill="none" xmlns="http://www.w3.org/2000/svg">
<path fill-rule="evenodd" clip-rule="evenodd" d="M20.2656 7.35158C21.3697 5.24181 19.1291 2.95893 17.0051 4.0209L13.7651 5.6409C12.654 6.19647 11.3455 6.19647 10.2343 5.6409L6.99432 4.0209C4.86498 2.95623 2.62387 5.24646 3.73316 7.35027L9.83342 18.9408C10.7522 20.6865 13.2472 20.6865 14.166 18.9408L20.2656 7.35158C20.2657 7.35138 20.2655 7.35177 20.2656 7.35158ZM16.3343 2.67926C19.7702 0.961325 23.3693 4.65792 21.5942 8.04799L15.4934 19.6394C14.0122 22.4536 9.98723 22.4536 8.50604 19.6394L2.4063 8.04988C0.616199 4.65383 4.23464 0.964009 7.66514 2.67926L10.9051 4.29926C11.594 4.64368 12.4055 4.64368 13.0943 4.29926L16.3343 2.67926Z" fill="black"/>
<path fill-rule="evenodd" clip-rule="evenodd" d="M20.2656 7.35158C21.3697 5.24181 19.1291 2.95893 17.0051 4.0209L13.7651 5.6409C12.654 6.19647 11.3455 6.19647 10.2343 5.6409L6.99432 4.0209C4.86498 2.95623 2.62387 5.24646 3.73316 7.35027L9.83342 18.9408C10.7522 20.6865 13.2472 20.6865 14.166 18.9408L20.2656 7.35158C20.2657 7.35138 20.2655 7.35177 20.2656 7.35158ZM16.3343 2.67926C19.7702 0.961325 23.3693 4.65792 21.5942 8.04799L15.4934 19.6394C14.0122 22.4536 9.98723 22.4536 8.50604 19.6394L2.4063 8.04988C0.616199 4.65383 4.23464 0.964009 7.66514 2.67926L10.9051 4.29926C11.594 4.64368 12.4055 4.64368 13.0943 4.29926L16.3343 2.67926Z" fill="black"/>
</svg>
