<svg width="24" height="24" viewBox="0 0 24 24" fill="none" xmlns="http://www.w3.org/2000/svg">
<path fill-rule="evenodd" clip-rule="evenodd" d="M12.0005 1.25C12.4147 1.25 12.7505 1.58579 12.7505 2V7.18934L13.4702 6.46967C13.7631 6.17678 14.2379 6.17678 14.5308 6.46967C14.8237 6.76256 14.8237 7.23744 14.5308 7.53033L12.5308 9.53033C12.3163 9.74483 11.9937 9.80899 11.7135 9.69291C11.4332 9.57682 11.2505 9.30335 11.2505 9V2C11.2505 1.58579 11.5863 1.25 12.0005 1.25Z" fill="black"/>
<path fill-rule="evenodd" clip-rule="evenodd" d="M9.47016 6.46967C9.76305 6.17678 10.2379 6.17678 10.5308 6.46967L12.5308 8.46967C12.8237 8.76256 12.8237 9.23744 12.5308 9.53033C12.2379 9.82322 11.7631 9.82322 11.4702 9.53033L9.47016 7.53033C9.17727 7.23744 9.17727 6.76256 9.47016 6.46967Z" fill="black"/>
<path fill-rule="evenodd" clip-rule="evenodd" d="M1.23047 13C1.23047 12.5858 1.56626 12.25 1.98047 12.25H6.39047C7.05442 12.25 7.65419 12.6204 7.95129 13.2146L9.12129 15.5546C9.33536 15.9827 9.76704 16.25 10.2405 16.25H13.7705C14.2439 16.25 14.6756 15.9827 14.8896 15.5546L16.0596 13.2146C16.3586 12.6166 16.9708 12.25 17.6205 12.25H21.9805C22.3947 12.25 22.7305 12.5858 22.7305 13C22.7305 13.4142 22.3947 13.75 21.9805 13.75H17.6205C17.5302 13.75 17.4423 13.8034 17.4013 13.8854L16.2313 16.2254C15.7654 17.1573 14.817 17.75 13.7705 17.75H10.2405C9.1939 17.75 8.24558 17.1573 7.77965 16.2254L6.60965 13.8854C6.56675 13.7996 6.48652 13.75 6.39047 13.75H1.98047C1.56626 13.75 1.23047 13.4142 1.23047 13Z" fill="black"/>
<path fill-rule="evenodd" clip-rule="evenodd" d="M7.74253 4.02101C7.80272 4.43082 7.5193 4.81184 7.10949 4.87204C5.47068 5.11277 4.43449 5.6925 3.78112 6.5977C3.10792 7.53039 2.75049 8.93101 2.75049 11V15C2.75049 17.426 3.24029 18.9291 4.15582 19.8447C5.07135 20.7602 6.57446 21.25 9.00049 21.25H15.0005C17.4265 21.25 18.9296 20.7602 19.8452 19.8447C20.7607 18.9291 21.2505 17.426 21.2505 15V11C21.2505 8.93101 20.8931 7.53039 20.2199 6.5977C19.5665 5.6925 18.5303 5.11277 16.8915 4.87204C16.4817 4.81184 16.1983 4.43082 16.2585 4.02101C16.3187 3.61119 16.6997 3.32777 17.1095 3.38797C19.0107 3.66724 20.4745 4.38751 21.4361 5.71981C22.3779 7.02462 22.7505 8.799 22.7505 11V15C22.7505 17.574 22.2403 19.5709 20.9058 20.9053C19.5714 22.2398 17.5745 22.75 15.0005 22.75H9.00049C6.42652 22.75 4.42963 22.2398 3.09516 20.9053C1.76069 19.5709 1.25049 17.574 1.25049 15V11C1.25049 8.799 1.62306 7.02462 2.56485 5.71981C3.52649 4.38751 4.9903 3.66724 6.89149 3.38797C7.3013 3.32777 7.68233 3.61119 7.74253 4.02101Z" fill="black"/>
</svg>
