<svg width="24" height="24" viewBox="0 0 24 24" fill="none" xmlns="http://www.w3.org/2000/svg">
<path fill-rule="evenodd" clip-rule="evenodd" d="M15.2505 5C15.2505 2.92893 16.9294 1.25 19.0005 1.25C21.0716 1.25 22.7505 2.92893 22.7505 5C22.7505 7.07107 21.0716 8.75 19.0005 8.75C16.9294 8.75 15.2505 7.07107 15.2505 5ZM19.0005 2.75C17.7578 2.75 16.7505 3.75736 16.7505 5C16.7505 6.24264 17.7578 7.25 19.0005 7.25C20.2431 7.25 21.2505 6.24264 21.2505 5C21.2505 3.75736 20.2431 2.75 19.0005 2.75Z" fill="black"/>
<path fill-rule="evenodd" clip-rule="evenodd" d="M21.2505 12.24H18.2405C17.1939 12.24 16.2456 12.8327 15.7796 13.7646L15.7789 13.7661L14.8896 15.5546C14.6755 15.9823 14.2436 16.25 13.7705 16.25H10.2395C10.0444 16.25 9.46438 16.25 9.12162 15.5652L8.23204 13.7761L8.23129 13.7746C7.76536 12.8427 6.81704 12.25 5.77047 12.25H2.75049V9C2.75049 6.57397 3.24029 5.07086 4.15582 4.15533C5.07135 3.2398 6.57446 2.75 9.00049 2.75H14.0005C14.4147 2.75 14.7505 2.41421 14.7505 2C14.7505 1.58579 14.4147 1.25 14.0005 1.25H9.00049C6.42652 1.25 4.42963 1.7602 3.09516 3.09467C1.76069 4.42914 1.25049 6.42603 1.25049 9V12.8271C1.2374 12.8826 1.23047 12.9405 1.23047 13C1.23047 13.0595 1.2374 13.1174 1.25049 13.1729V15C1.25049 17.574 1.76069 19.5709 3.09516 20.9053C4.42963 22.2398 6.42652 22.75 9.00049 22.75H15.0005C17.5745 22.75 19.5714 22.2398 20.9058 20.9053C22.2403 19.5709 22.7505 17.574 22.7505 15V10C22.7505 9.58579 22.4147 9.25 22.0005 9.25C21.5863 9.25 21.2505 9.58579 21.2505 10V12.24ZM17.1216 14.4347L16.232 16.2239L16.2313 16.2254C15.7654 17.1573 14.817 17.75 13.7705 17.75H10.2405C9.95462 17.75 8.53635 17.7488 7.77965 16.2354L6.88965 14.4454C6.67547 14.0176 6.24367 13.75 5.77047 13.75H2.75049V15C2.75049 17.426 3.24029 18.9291 4.15582 19.8447C5.07135 20.7602 6.57446 21.25 9.00049 21.25H15.0005C17.4265 21.25 18.9296 20.7602 19.8452 19.8447C20.7607 18.9291 21.2505 17.426 21.2505 15V13.74H18.2405C17.7673 13.74 17.3358 14.007 17.1216 14.4347Z" fill="black"/>
</svg>
