<svg width="24" height="24" viewBox="0 0 24 24" fill="none" xmlns="http://www.w3.org/2000/svg">
<path fill-rule="evenodd" clip-rule="evenodd" d="M12 2.75C6.89137 2.75 2.75 6.89137 2.75 12C2.75 17.1086 6.89137 21.25 12 21.25C17.1086 21.25 21.25 17.1086 21.25 12C21.25 6.89137 17.1086 2.75 12 2.75ZM1.25 12C1.25 6.06294 6.06294 1.25 12 1.25C17.9371 1.25 22.75 6.06294 22.75 12C22.75 17.9371 17.9371 22.75 12 22.75C6.06294 22.75 1.25 17.9371 1.25 12Z" fill="black"/>
<path fill-rule="evenodd" clip-rule="evenodd" d="M15.5303 8.46967C15.8232 8.76256 15.8232 9.23744 15.5303 9.53033L9.53033 15.5303C9.23744 15.8232 8.76256 15.8232 8.46967 15.5303C8.17678 15.2374 8.17678 14.7626 8.46967 14.4697L14.4697 8.46967C14.7626 8.17678 15.2374 8.17678 15.5303 8.46967Z" fill="black"/>
<path fill-rule="evenodd" clip-rule="evenodd" d="M13.4941 14.5C13.4941 13.9477 13.9419 13.5 14.4941 13.5H14.5031C15.0554 13.5 15.5031 13.9477 15.5031 14.5C15.5031 15.0523 15.0554 15.5 14.5031 15.5H14.4941C13.9419 15.5 13.4941 15.0523 13.4941 14.5Z" fill="black"/>
<path fill-rule="evenodd" clip-rule="evenodd" d="M8.49414 9.5C8.49414 8.94772 8.94186 8.5 9.49414 8.5H9.50312C10.0554 8.5 10.5031 8.94772 10.5031 9.5C10.5031 10.0523 10.0554 10.5 9.50312 10.5H9.49414C8.94186 10.5 8.49414 10.0523 8.49414 9.5Z" fill="black"/>
</svg>
