<svg width="24" height="24" viewBox="0 0 24 24" fill="none" xmlns="http://www.w3.org/2000/svg">
<path fill-rule="evenodd" clip-rule="evenodd" d="M21.7869 2.21311C22.7745 3.20063 23.0443 4.71622 22.628 6.38159L20.138 16.3216C19.9172 17.2048 19.371 18.0497 18.7057 18.715C18.0403 19.3804 17.1955 19.9265 16.3123 20.1473L6.3821 22.6273C4.7129 23.0433 3.19635 22.7742 2.20959 21.7858C1.22309 20.7977 0.956744 19.2819 1.37276 17.6178L3.86247 7.68897C4.08294 6.80185 4.62595 5.95595 5.29129 5.29061C5.95663 4.62527 6.80163 4.08249 7.68875 3.86201L17.6179 1.37221C19.2833 0.95587 20.7994 1.22559 21.7869 2.21311ZM17.9828 2.82717C19.3171 2.49371 20.2264 2.77386 20.7263 3.27377C21.2263 3.77375 21.5064 4.68316 21.1728 6.01779L18.6828 15.9574C18.5437 16.5142 18.1697 17.1297 17.645 17.6544C17.1204 18.179 16.5052 18.5529 15.9485 18.6921L6.01904 21.1719C4.67824 21.506 3.76939 21.2251 3.27114 20.7261C2.77267 20.2267 2.49402 19.3176 2.82793 17.9818L5.31785 8.05211L5.31827 8.05041C5.45794 7.48785 5.83001 6.87321 6.35195 6.35127C6.87389 5.82933 7.48853 5.45726 8.05109 5.31759L8.05279 5.31717L17.9828 2.82717Z" fill="black"/>
<path fill-rule="evenodd" clip-rule="evenodd" d="M12 9.25C10.4812 9.25 9.25 10.4812 9.25 12C9.25 13.5188 10.4812 14.75 12 14.75C13.5188 14.75 14.75 13.5188 14.75 12C14.75 10.4812 13.5188 9.25 12 9.25ZM7.75 12C7.75 9.65279 9.65279 7.75 12 7.75C14.3472 7.75 16.25 9.65279 16.25 12C16.25 14.3472 14.3472 16.25 12 16.25C9.65279 16.25 7.75 14.3472 7.75 12Z" fill="black"/>
</svg>
