<svg width="24" height="24" viewBox="0 0 24 24" fill="none" xmlns="http://www.w3.org/2000/svg">
<path fill-rule="evenodd" clip-rule="evenodd" d="M5.54014 2.64512C6.16355 2.18896 6.94076 1.90039 7.72052 1.90039H11.5205C11.893 1.90039 12.3372 1.96087 12.7516 2.07925C13.1323 2.18804 13.5816 2.37193 13.9119 2.68233L16.9797 5.05735L16.0614 6.24343L12.9238 3.81433L12.8902 3.78072C12.8235 3.71407 12.6435 3.6084 12.3395 3.52153C12.0538 3.43991 11.7481 3.40039 11.5205 3.40039H7.72052C7.30029 3.40039 6.82749 3.56182 6.4259 3.85566C6.02485 4.14912 5.74739 4.53525 5.64813 4.93229L5.64152 4.95874L3.23003 12.2937L3.22683 12.3026C3.05085 12.7954 3.13896 13.1789 3.32431 13.4305C3.51319 13.6868 3.87343 13.9004 4.42052 13.9004H8.42052C9.46387 13.9004 10.3294 14.7918 10.163 15.9565L10.1616 15.9662L9.65784 19.1898L9.65266 19.2131C9.54199 19.7111 9.89566 20.3515 10.4577 20.5389L10.4709 20.5433L10.4839 20.5481C10.6868 20.6243 10.9536 20.6225 11.2267 20.5286C11.5049 20.433 11.7056 20.2707 11.7965 20.1344L11.7981 20.132L15.8981 14.032L17.143 14.8688L13.0446 20.9664L13.0437 20.9677C12.7345 21.4307 12.2357 21.7679 11.7143 21.9472C11.1913 22.1269 10.5635 22.1758 9.97027 21.9575C8.74751 21.5424 7.9111 20.2028 8.18285 18.9132L8.6786 15.7404C8.69749 15.6016 8.65671 15.525 8.62064 15.4841C8.57881 15.4367 8.51037 15.4004 8.42052 15.4004H4.42052C3.46761 15.4004 2.62785 15.014 2.11673 14.3203C1.60388 13.6243 1.49098 12.7118 1.81083 11.8077L4.20014 4.54016C4.40598 3.74991 4.92354 3.09628 5.54014 2.64512Z" fill="black"/>
<path fill-rule="evenodd" clip-rule="evenodd" d="M17.6038 4.7261C17.5051 4.81722 17.3701 5.03451 17.3701 5.65V15.45C17.3701 16.0655 17.5051 16.2828 17.6038 16.3739C17.7173 16.4786 17.9776 16.6 18.6201 16.6H19.6201C20.2626 16.6 20.523 16.4786 20.6364 16.3739C20.7351 16.2828 20.8701 16.0655 20.8701 15.45V5.65C20.8701 5.03451 20.7351 4.81722 20.6364 4.7261C20.523 4.62138 20.2626 4.5 19.6201 4.5H18.6201C17.9776 4.5 17.7173 4.62138 17.6038 4.7261ZM16.5864 3.6239C17.123 3.12862 17.8626 3 18.6201 3H19.6201C20.3776 3 21.1173 3.12862 21.6538 3.6239C22.2051 4.13278 22.3701 4.86549 22.3701 5.65V15.45C22.3701 16.2345 22.2051 16.9672 21.6538 17.4761C21.1173 17.9714 20.3776 18.1 19.6201 18.1H18.6201C17.8626 18.1 17.123 17.9714 16.5864 17.4761C16.0351 16.9672 15.8701 16.2345 15.8701 15.45V5.65C15.8701 4.86549 16.0351 4.13278 16.5864 3.6239Z" fill="black"/>
</svg>
