<svg width="24" height="24" viewBox="0 0 24 24" fill="none" xmlns="http://www.w3.org/2000/svg">
<path fill-rule="evenodd" clip-rule="evenodd" d="M4.7371 3.88534C4.09637 4.57535 3.75 5.61497 3.75 7V17C3.75 18.385 4.09637 19.4246 4.7371 20.1147C5.36848 20.7946 6.39295 21.25 8 21.25H16C17.607 21.25 18.6315 20.7946 19.2629 20.1147C19.9036 19.4246 20.25 18.385 20.25 17V7C20.25 5.61497 19.9036 4.57535 19.2629 3.88534C18.6315 3.20538 17.607 2.75 16 2.75H8C6.39295 2.75 5.36848 3.20538 4.7371 3.88534ZM3.6379 2.86466C4.63152 1.79462 6.10705 1.25 8 1.25H16C17.893 1.25 19.3685 1.79462 20.3621 2.86466C21.3464 3.92465 21.75 5.38503 21.75 7V17C21.75 18.615 21.3464 20.0754 20.3621 21.1353C19.3685 22.2054 17.893 22.75 16 22.75H8C6.10705 22.75 4.63152 22.2054 3.6379 21.1353C2.65363 20.0754 2.25 18.615 2.25 17V7C2.25 5.38503 2.65363 3.92465 3.6379 2.86466Z" fill="black"/>
<path fill-rule="evenodd" clip-rule="evenodd" d="M14.5 3.75C14.9142 3.75 15.25 4.08579 15.25 4.5V6.5C15.25 7.18579 15.8142 7.75 16.5 7.75H18.5C18.9142 7.75 19.25 8.08579 19.25 8.5C19.25 8.91421 18.9142 9.25 18.5 9.25H16.5C14.9858 9.25 13.75 8.01421 13.75 6.5V4.5C13.75 4.08579 14.0858 3.75 14.5 3.75Z" fill="black"/>
<path fill-rule="evenodd" clip-rule="evenodd" d="M11.6996 13.5541C11.3661 13.4473 11.0348 13.5595 10.8991 13.7687C10.7637 13.9771 10.5339 14.105 10.2854 14.1101C10.0369 14.1152 9.80198 13.9969 9.6582 13.7941C9.49017 13.5572 9.15557 13.4562 8.83952 13.5544C8.29373 13.7357 7.94467 14.4811 8.19398 15.2606C8.39548 15.8832 8.84415 16.3815 9.33058 16.7346C9.57082 16.909 9.8064 17.0375 9.99886 17.1205C10.1516 17.1864 10.2438 17.2093 10.2761 17.2169C10.3067 17.2098 10.398 17.1882 10.552 17.1223C10.7462 17.0393 10.984 16.91 11.2258 16.7345C11.7165 16.3785 12.1621 15.8797 12.354 15.2672C12.5991 14.4771 12.2519 13.7337 11.6996 13.5541ZM10.2585 12.3422C10.8549 11.9698 11.5953 11.945 12.1595 12.1263L12.1612 12.1269C13.7683 12.6477 14.1806 14.4435 13.7862 15.7128L13.7858 15.7143C13.4676 16.7314 12.7633 17.4723 12.1067 17.9486C11.7748 18.1894 11.4394 18.3744 11.1414 18.5017C10.8691 18.618 10.55 18.7203 10.27 18.7203L10.2547 18.7201C9.98484 18.7146 9.67466 18.6142 9.40489 18.4979C9.11111 18.3712 8.7792 18.1879 8.44944 17.9485C7.79612 17.4743 7.095 16.7379 6.76636 15.7209L6.76578 15.7191C6.35618 14.4407 6.7849 12.6482 8.37682 12.1275L8.38413 12.1251C8.97031 11.94 9.67858 11.9878 10.2585 12.3422Z" fill="black"/>
</svg>
