<svg width="24" height="24" viewBox="0 0 24 24" fill="none" xmlns="http://www.w3.org/2000/svg">
<path fill-rule="evenodd" clip-rule="evenodd" d="M3.34985 2.75C3.04386 2.75 2.75485 3.00216 2.75983 3.40063L2.75994 3.41L2.75989 4.95999C2.75989 5.02195 2.78662 5.16578 2.871 5.35275C2.95251 5.53338 3.05782 5.68729 3.1502 5.77967L3.16413 5.79397L5.72412 8.49398C5.7392 8.50988 5.75357 8.52644 5.7672 8.5436C5.95508 8.78018 6.12425 9.08391 6.24771 9.39331C6.36942 9.69836 6.46985 10.0667 6.46985 10.43V14C6.46985 14.4501 6.9962 14.7626 7.41104 14.5147L8.34161 13.9109L8.35576 13.9019C8.37323 13.8911 8.44546 13.8276 8.51715 13.6899C8.58718 13.5554 8.60986 13.4394 8.60986 13.39V10.49C8.60986 10.1044 8.70393 9.70252 8.85426 9.34754C9.00238 8.99776 9.22825 8.63922 9.53819 8.37365L12.4084 5.83996C12.4995 5.74057 12.6135 5.57255 12.7059 5.36942C12.8054 5.15083 12.8499 4.95728 12.8499 4.82999V3.35001C12.8499 3.0242 12.5756 2.75 12.2499 2.75H3.34985ZM1.25989 3.41423C1.24759 2.21508 2.17752 1.25 3.34985 1.25H12.2499C13.4041 1.25 14.3499 2.19581 14.3499 3.35001V4.82999C14.3499 5.24269 14.2243 5.65415 14.0713 5.99057C13.9169 6.32985 13.7045 6.65874 13.4681 6.90236C13.4546 6.9162 13.4407 6.92951 13.4262 6.94227L10.5157 9.51156C10.4287 9.58549 10.3215 9.72948 10.2355 9.93246C10.1508 10.1325 10.1099 10.3356 10.1099 10.49V13.39C10.1099 13.7406 9.99755 14.0946 9.84759 14.3826C9.70057 14.665 9.47053 14.9735 9.15232 15.1729L8.21814 15.7791L8.20214 15.7892C6.85796 16.6141 4.96985 15.7076 4.96985 14V10.43C4.96985 10.3233 4.93529 10.1516 4.85451 9.94919C4.78095 9.76482 4.68852 9.60369 4.60985 9.49887L2.08178 6.83253C1.83775 6.58609 1.6408 6.2734 1.50376 5.96974C1.36814 5.6692 1.25989 5.30803 1.25989 4.95999V3.41423Z" fill="black"/>
<path fill-rule="evenodd" clip-rule="evenodd" d="M16.2096 2.12092C16.2755 1.71199 16.6605 1.43396 17.0694 1.49992C17.5463 1.57684 18.0573 1.67338 18.5214 1.79074C18.9696 1.90409 19.433 2.05093 19.7795 2.24771C21.9428 3.46755 22.75 5.78106 22.75 9.00036V15.0004C22.75 17.5743 22.2398 19.5712 20.9053 20.9057C19.5709 22.2402 17.574 22.7504 15 22.7504H9C6.42603 22.7504 4.42914 22.2402 3.09467 20.9057C1.7602 19.5712 1.25 17.5743 1.25 15.0004V12.0004C1.25 11.5861 1.58579 11.2504 2 11.2504C2.41421 11.2504 2.75 11.5861 2.75 12.0004V15.0004C2.75 17.4264 3.2398 18.9295 4.15533 19.845C5.07086 20.7606 6.57397 21.2504 9 21.2504H15C17.426 21.2504 18.9291 20.7606 19.8447 19.845C20.7602 18.9295 21.25 17.4264 21.25 15.0004V9.00036C21.25 5.98032 20.4975 4.37411 19.0418 3.55374L19.0392 3.55232C18.8759 3.45944 18.5748 3.35148 18.1536 3.24496C17.7477 3.14232 17.2837 3.05386 16.8306 2.98078C16.4217 2.91482 16.1436 2.52985 16.2096 2.12092Z" fill="black"/>
<path fill-rule="evenodd" clip-rule="evenodd" d="M12.25 13C12.25 12.5858 12.5858 12.25 13 12.25H18C18.4142 12.25 18.75 12.5858 18.75 13C18.75 13.4142 18.4142 13.75 18 13.75H13C12.5858 13.75 12.25 13.4142 12.25 13Z" fill="black"/>
<path fill-rule="evenodd" clip-rule="evenodd" d="M10.25 17C10.25 16.5858 10.5858 16.25 11 16.25H18C18.4142 16.25 18.75 16.5858 18.75 17C18.75 17.4142 18.4142 17.75 18 17.75H11C10.5858 17.75 10.25 17.4142 10.25 17Z" fill="black"/>
</svg>
