<svg width="24" height="24" viewBox="0 0 24 24" fill="none" xmlns="http://www.w3.org/2000/svg">
<path fill-rule="evenodd" clip-rule="evenodd" d="M9.92882 1.25015C9.95338 1.25022 9.97713 1.25029 10 1.25029H14C14.0229 1.25029 14.0466 1.25022 14.0712 1.25015C14.5142 1.24889 15.222 1.24688 15.791 1.62625C16.3265 1.98322 16.6111 2.56218 16.7096 3.32371C18.1504 3.47499 19.3992 3.88179 20.2993 4.85472C21.3278 5.96648 21.75 7.65499 21.75 10.0003V16.0003C21.75 18.0135 21.5113 19.7691 20.4394 20.9942C19.3459 22.2439 17.5647 22.7503 15 22.7503H9C6.43533 22.7503 4.65413 22.2439 3.56057 20.9942C2.48868 19.7691 2.25 18.0135 2.25 16.0003V10.0003C2.25 7.65949 2.6724 5.97156 3.70035 4.85885C4.60012 3.88488 5.84867 3.47573 7.29036 3.32383C7.38885 2.56225 7.67349 1.98324 8.20897 1.62625C8.77803 1.24688 9.48584 1.24889 9.92882 1.25015ZM7.31325 4.83071C6.12269 4.97318 5.33207 5.30309 4.80215 5.87671C4.1626 6.569 3.75 7.78107 3.75 10.0003V16.0003C3.75 17.987 4.01132 19.2314 4.68943 20.0064C5.34587 20.7566 6.56467 21.2503 9 21.2503H15C17.4353 21.2503 18.6541 20.7566 19.3106 20.0064C19.9887 19.2314 20.25 17.987 20.25 16.0003V10.0003C20.25 7.77556 19.8372 6.56407 19.1982 5.87334C18.6723 5.3049 17.8895 4.97722 16.7122 4.83361C16.6683 5.15193 16.5743 5.49095 16.374 5.79131C15.9178 6.47562 15.099 6.75029 14 6.75029H10C9.97713 6.75029 9.95338 6.75036 9.92882 6.75043C9.48584 6.75169 8.77803 6.7537 8.20897 6.37433C7.71018 6.0418 7.42903 5.51664 7.31325 4.83071ZM15.25 4.01645C15.25 4.01891 15.25 4.02137 15.25 4.02382C15.2493 4.57189 15.2242 4.81196 15.126 4.95926C15.0822 5.02496 14.901 5.25029 14 5.25029H10C9.43524 5.25029 9.19042 5.22585 9.04103 5.12625C8.97533 5.08246 8.75 4.90124 8.75 4.00029C8.75 3.09934 8.97533 2.91812 9.04103 2.87433C9.19042 2.77473 9.43524 2.75029 10 2.75029H14C14.5648 2.75029 14.8096 2.77473 14.959 2.87433C15.0247 2.91812 15.25 3.09934 15.25 4.00029C15.25 4.00571 15.25 4.01109 15.25 4.01645Z" fill="black"/>
</svg>
