<svg width="24" height="24" viewBox="0 0 24 24" fill="none" xmlns="http://www.w3.org/2000/svg">
<path d="M11.25 1.25C11.6642 1.25 12 1.58579 12 2C12 2.41421 11.6642 2.75 11.25 2.75H8C6.39295 2.75 5.36869 3.20579 4.7373 3.88574C4.09664 4.57576 3.75 5.61505 3.75 7V17C3.75 18.385 4.09664 19.4242 4.7373 20.1143C5.36869 20.7942 6.39295 21.25 8 21.25H16C17.607 21.25 18.6313 20.7942 19.2627 20.1143C19.9034 19.4242 20.25 18.385 20.25 17V8.75C20.25 8.33579 20.5858 8 21 8C21.4142 8 21.75 8.33579 21.75 8.75V17C21.75 18.615 21.3466 20.0758 20.3623 21.1357C19.3687 22.2057 17.8929 22.75 16 22.75H8C6.10712 22.75 4.63131 22.2057 3.6377 21.1357C2.65343 20.0758 2.25 18.615 2.25 17V7C2.25 5.38503 2.65342 3.92424 3.6377 2.86426C4.63131 1.79429 6.10712 1.25 8 1.25H11.25ZM16.2109 16.3633C16.6466 16.3635 16.9998 16.7301 17 17.1816C17 17.6334 16.6468 17.9998 16.2109 18H7.78906C7.35324 17.9998 7 17.6334 7 17.1816C7.0002 16.7301 7.35336 16.3635 7.78906 16.3633H16.2109ZM16.2109 11.9912C16.647 11.9912 17 12.3577 17 12.8096C16.9998 13.2613 16.6468 13.6279 16.2109 13.6279L7.78906 13.6367C7.35329 13.6365 7.00009 13.27 7 12.8184C7.00011 12.3667 7.3533 12.0002 7.78906 12L16.2109 11.9912ZM11 7.68164C11.436 7.68164 11.7891 8.04813 11.7891 8.5C11.789 8.95179 11.436 9.31836 11 9.31836H7.78906C7.35329 9.31813 7.00009 8.95165 7 8.5C7 8.04827 7.35324 7.68187 7.78906 7.68164H11ZM16.5303 1.00195C16.9445 1.00199 17.2803 1.33776 17.2803 1.75195V5.94141L18 5.22168C18.2929 4.92882 18.7677 4.9288 19.0605 5.22168C19.3534 5.51457 19.3534 5.98934 19.0605 6.28223L17.0605 8.28223L17.0039 8.33398C16.997 8.33964 16.9885 8.34327 16.9814 8.34863C16.9762 8.35258 16.9711 8.35656 16.9658 8.36035C16.9506 8.37129 16.9348 8.38096 16.9189 8.39062C16.893 8.40643 16.8663 8.42017 16.8389 8.43262C16.8248 8.43897 16.8112 8.44572 16.7969 8.45117C16.759 8.46562 16.7203 8.47722 16.6807 8.48535C16.6716 8.4872 16.6624 8.48775 16.6533 8.48926C16.6174 8.49525 16.5814 8.49927 16.5449 8.5C16.5328 8.50024 16.5209 8.49937 16.5088 8.49902C16.4745 8.49805 16.4404 8.49501 16.4062 8.48926C16.3955 8.48746 16.3847 8.48664 16.374 8.48438C16.3347 8.47598 16.296 8.46416 16.2578 8.44922C16.2541 8.44777 16.2498 8.4478 16.2461 8.44629L16.2432 8.44531C16.2013 8.42797 16.1622 8.40578 16.125 8.38184C16.0809 8.35341 16.0386 8.32082 16 8.28223L14 6.28223C13.7071 5.98933 13.7071 5.51457 14 5.22168C14.2929 4.92882 14.7677 4.9288 15.0605 5.22168L15.7803 5.94141V1.75195C15.7803 1.33774 16.1161 1.00195 16.5303 1.00195Z" fill="black"/>
</svg>
