<svg width="24" height="24" viewBox="0 0 24 24" fill="none" xmlns="http://www.w3.org/2000/svg">
<path fill-rule="evenodd" clip-rule="evenodd" d="M10.6119 8.08984C9.98769 8.08984 9.42188 8.63173 9.42188 9.36984C9.42188 9.87252 9.53009 10.1024 9.62588 10.2246C9.72842 10.3554 9.90085 10.4716 10.2403 10.5922L14.2724 11.9929C14.7216 12.1521 15.2086 12.3907 15.5684 12.8496C15.9351 13.3174 16.0919 13.9125 16.0919 14.6298C16.0919 16.1317 14.9177 17.4098 13.4019 17.4098H10.8919C9.2137 17.4098 7.92188 15.9993 7.92188 14.3298C7.92188 13.9156 8.25766 13.5798 8.67188 13.5798C9.08609 13.5798 9.42188 13.9156 9.42188 14.3298C9.42188 15.2404 10.11 15.9098 10.8919 15.9098H13.4019C14.0261 15.9098 14.5919 15.368 14.5919 14.6298C14.5919 14.1272 14.4837 13.8972 14.3879 13.775C14.2853 13.6442 14.1129 13.5281 13.7735 13.4075L9.74132 12.0068C9.29218 11.8476 8.80512 11.609 8.44537 11.15C8.07866 10.6822 7.92188 10.0872 7.92188 9.36984C7.92188 7.86796 9.09606 6.58984 10.6119 6.58984H13.1219C14.8 6.58984 16.0919 8.00043 16.0919 9.66984C16.0919 10.0841 15.7561 10.4198 15.3419 10.4198C14.9277 10.4198 14.5919 10.0841 14.5919 9.66984C14.5919 8.75926 13.9037 8.08984 13.1219 8.08984H10.6119Z" fill="black"/>
<path fill-rule="evenodd" clip-rule="evenodd" d="M12 5.25C12.4142 5.25 12.75 5.58579 12.75 6V18C12.75 18.4142 12.4142 18.75 12 18.75C11.5858 18.75 11.25 18.4142 11.25 18V6C11.25 5.58579 11.5858 5.25 12 5.25Z" fill="black"/>
<path fill-rule="evenodd" clip-rule="evenodd" d="M4.15533 4.15533C3.2398 5.07086 2.75 6.57397 2.75 9V15C2.75 17.426 3.2398 18.9291 4.15533 19.8447C5.07086 20.7602 6.57397 21.25 9 21.25H15C17.426 21.25 18.9291 20.7602 19.8447 19.8447C20.7602 18.9291 21.25 17.426 21.25 15V9C21.25 6.57397 20.7602 5.07086 19.8447 4.15533C18.9291 3.2398 17.426 2.75 15 2.75H9C6.57397 2.75 5.07086 3.2398 4.15533 4.15533ZM3.09467 3.09467C4.42914 1.7602 6.42603 1.25 9 1.25H15C17.574 1.25 19.5709 1.7602 20.9053 3.09467C22.2398 4.42914 22.75 6.42603 22.75 9V15C22.75 17.574 22.2398 19.5709 20.9053 20.9053C19.5709 22.2398 17.574 22.75 15 22.75H9C6.42603 22.75 4.42914 22.2398 3.09467 20.9053C1.7602 19.5709 1.25 17.574 1.25 15V9C1.25 6.42603 1.7602 4.42914 3.09467 3.09467Z" fill="black"/>
</svg>
