<svg width="24" height="24" viewBox="0 0 24 24" fill="none" xmlns="http://www.w3.org/2000/svg">
<path fill-rule="evenodd" clip-rule="evenodd" d="M18.8722 4.13898C19.2318 4.34449 19.3567 4.80263 19.1512 5.16227C16.4055 9.96738 11.1145 12.7234 5.60279 12.2271L2.43172 11.937C2.01923 11.8993 1.71543 11.5343 1.75317 11.1218C1.7909 10.7093 2.15588 10.4056 2.56838 10.4433L5.73731 10.7332C5.73717 10.7332 5.73745 10.7332 5.73731 10.7332C10.6654 11.1767 15.3947 8.71283 17.8489 4.41806C18.0544 4.05842 18.5125 3.93348 18.8722 4.13898Z" fill="black"/>
<path fill-rule="evenodd" clip-rule="evenodd" d="M18.2623 13.4272C13.3343 12.9837 8.60544 15.4477 6.15131 19.7424C5.9458 20.102 5.48766 20.227 5.12802 20.0215C4.76839 19.816 4.64344 19.3578 4.84895 18.9982C7.59472 14.1931 12.8857 11.437 18.3974 11.9333L18.3985 11.9334L21.5685 12.2234C21.9809 12.2611 22.2847 12.6261 22.247 13.0386C22.2093 13.4511 21.8443 13.7549 21.4318 13.7172L18.2623 13.4272C18.2625 13.4272 18.2621 13.4272 18.2623 13.4272Z" fill="black"/>
<path fill-rule="evenodd" clip-rule="evenodd" d="M12 2.75C6.89137 2.75 2.75 6.89137 2.75 12C2.75 17.1086 6.89137 21.25 12 21.25C17.1086 21.25 21.25 17.1086 21.25 12C21.25 6.89137 17.1086 2.75 12 2.75ZM1.25 12C1.25 6.06294 6.06294 1.25 12 1.25C17.9371 1.25 22.75 6.06294 22.75 12C22.75 17.9371 17.9371 22.75 12 22.75C6.06294 22.75 1.25 17.9371 1.25 12Z" fill="black"/>
<path fill-rule="evenodd" clip-rule="evenodd" d="M7.15959 2.41582C7.48223 2.15607 7.95436 2.20706 8.21412 2.5297L11.3936 6.47908C11.3935 6.47895 11.3937 6.47921 11.3936 6.47908C13.5933 9.20559 15.1528 12.3763 15.9787 15.7728L17.1888 20.7633C17.2864 21.1658 17.0392 21.5713 16.6366 21.6689C16.2341 21.7665 15.8286 21.5193 15.731 21.1168L14.5211 16.1272C13.7471 12.9441 12.2862 9.97425 10.2262 7.42097L7.0457 3.47035C6.78595 3.1477 6.83694 2.67557 7.15959 2.41582Z" fill="black"/>
</svg>
