<svg width="24" height="24" viewBox="0 0 24 24" fill="none" xmlns="http://www.w3.org/2000/svg">
<path fill-rule="evenodd" clip-rule="evenodd" d="M7.10878 2.06587C7.65026 1.50908 8.42586 1.25 9.4502 1.25H14.5502C15.5745 1.25 16.3501 1.50908 16.8916 2.06587C17.4052 2.59396 17.5955 3.28315 17.7144 3.85708L18.5343 7.77643C18.5806 7.99749 18.5247 8.22763 18.3823 8.40292C18.2399 8.57821 18.0261 8.67999 17.8002 8.67999H6.2002C5.97435 8.67999 5.76052 8.57821 5.6181 8.40292C5.47569 8.22763 5.41985 7.99749 5.46609 7.77643L6.28581 3.85784C6.40477 3.2839 6.5952 2.59397 7.10878 2.06587ZM8.18413 3.11164C7.99042 3.31082 7.86566 3.62626 7.75461 4.16218L7.12333 7.17999H16.8771L16.2458 4.16218C16.1348 3.62626 16.01 3.31082 15.8163 3.11164C15.6503 2.94093 15.3259 2.75 14.5502 2.75H9.4502C8.67454 2.75 8.35014 2.94093 8.18413 3.11164Z" fill="black"/>
<path fill-rule="evenodd" clip-rule="evenodd" d="M6.1631 8.98465C6.03058 9.14182 5.95811 9.4068 5.90658 9.96848L5.49642 14.3902C5.45936 14.7839 5.77519 15.15 6.21972 15.15H7.57972C7.71182 15.15 7.78422 15.1364 7.81774 15.1271C7.81875 15.1251 7.81982 15.1228 7.82095 15.1204C7.84176 15.0763 7.86121 15.0211 7.89995 14.9076L7.90154 14.903L8.0498 14.4779C8.05299 14.4683 8.05627 14.4584 8.05964 14.4482C8.14048 14.2039 8.27735 13.7903 8.61497 13.4746C9.00068 13.1139 9.5198 12.9799 10.1397 12.9799H13.8497C14.4515 12.9799 14.9747 13.0913 15.3664 13.4519C15.6994 13.7584 15.838 14.1737 15.9225 14.427C15.9283 14.4442 15.9337 14.4606 15.939 14.4762L16.0913 14.9128C16.1294 15.027 16.1489 15.0829 16.1691 15.126L16.17 15.1279C16.205 15.1373 16.2776 15.15 16.4097 15.15H17.7697C18.2143 15.15 18.5301 14.7839 18.493 14.3902L18.0829 9.96924C18.0314 9.40756 17.9589 9.14182 17.8263 8.98466C17.7296 8.86997 17.4705 8.66992 16.6197 8.66992H7.36971C6.5189 8.66992 6.25979 8.86997 6.1631 8.98465ZM5.01633 8.01773C5.52463 7.41489 6.32052 7.16992 7.36971 7.16992H16.6197C17.6689 7.16992 18.4648 7.41489 18.9731 8.01773C19.4455 8.57797 19.5281 9.30283 19.5766 9.83112L19.9864 14.2497C20.1092 15.5559 19.0651 16.65 17.7697 16.65H16.4097C15.9243 16.65 15.4778 16.548 15.1389 16.2269C14.8552 15.9582 14.7398 15.6055 14.6799 15.4226C14.6763 15.4117 14.673 15.4014 14.6698 15.3918L14.5194 14.9607C14.4655 14.8017 14.4338 14.71 14.3988 14.6358C14.3683 14.571 14.3505 14.5555 14.3505 14.5555C14.3505 14.5555 14.3465 14.5517 14.3378 14.547C14.3284 14.542 14.3088 14.5327 14.2735 14.5226C14.1993 14.5013 14.069 14.4799 13.8497 14.4799H10.1397C9.93057 14.4799 9.80434 14.5029 9.73179 14.5253C9.66598 14.5456 9.64517 14.5649 9.63945 14.5702C9.60854 14.5991 9.57182 14.6553 9.47122 14.9571L9.46794 14.9669L9.31875 15.3945C9.31508 15.4052 9.31116 15.417 9.30695 15.4296C9.24763 15.607 9.13146 15.9546 8.85303 16.2208C8.51626 16.5428 8.07084 16.65 7.57972 16.65H6.21972C4.92443 16.65 3.88036 15.5563 4.00296 14.2502L4.41286 9.83144C4.46133 9.30316 4.54397 8.57795 5.01633 8.01773Z" fill="black"/>
<path fill-rule="evenodd" clip-rule="evenodd" d="M4.71973 5.75C4.71973 5.33579 5.05551 5 5.46973 5H6.19972C6.61394 5 6.94972 5.33579 6.94972 5.75C6.94972 6.16421 6.61394 6.5 6.19972 6.5H5.46973C5.05551 6.5 4.71973 6.16421 4.71973 5.75Z" fill="black"/>
<path fill-rule="evenodd" clip-rule="evenodd" d="M17.0498 5.75C17.0498 5.33579 17.3856 5 17.7998 5H18.5298C18.944 5 19.2798 5.33579 19.2798 5.75C19.2798 6.16421 18.944 6.5 18.5298 6.5H17.7998C17.3856 6.5 17.0498 6.16421 17.0498 5.75Z" fill="black"/>
<path fill-rule="evenodd" clip-rule="evenodd" d="M6.90039 10.8301C6.90039 10.4159 7.23618 10.0801 7.65039 10.0801H9.8204C10.2346 10.0801 10.5704 10.4159 10.5704 10.8301C10.5704 11.2443 10.2346 11.5801 9.8204 11.5801H7.65039C7.23618 11.5801 6.90039 11.2443 6.90039 10.8301Z" fill="black"/>
<path fill-rule="evenodd" clip-rule="evenodd" d="M13.4297 10.8301C13.4297 10.4159 13.7655 10.0801 14.1797 10.0801H16.3497C16.7639 10.0801 17.0997 10.4159 17.0997 10.8301C17.0997 11.2443 16.7639 11.5801 16.3497 11.5801H14.1797C13.7655 11.5801 13.4297 11.2443 13.4297 10.8301Z" fill="black"/>
<path fill-rule="evenodd" clip-rule="evenodd" d="M12 16.25C12.4142 16.25 12.75 16.5858 12.75 17V18C12.75 18.4142 12.4142 18.75 12 18.75C11.5858 18.75 11.25 18.4142 11.25 18V17C11.25 16.5858 11.5858 16.25 12 16.25Z" fill="black"/>
<path fill-rule="evenodd" clip-rule="evenodd" d="M12 20.25C12.4142 20.25 12.75 20.5858 12.75 21V22C12.75 22.4142 12.4142 22.75 12 22.75C11.5858 22.75 11.25 22.4142 11.25 22V21C11.25 20.5858 11.5858 20.25 12 20.25Z" fill="black"/>
<path fill-rule="evenodd" clip-rule="evenodd" d="M3.18208 17.2726C3.58393 17.373 3.82825 17.7802 3.72778 18.1821L2.72778 22.1821C2.62732 22.5839 2.22012 22.8282 1.81828 22.7278C1.41643 22.6273 1.17211 22.2201 1.27257 21.8183L2.27257 17.8183C2.37303 17.4164 2.78023 17.1721 3.18208 17.2726Z" fill="black"/>
<path fill-rule="evenodd" clip-rule="evenodd" d="M20.8183 17.2726C21.2201 17.1721 21.6273 17.4164 21.7278 17.8183L22.7278 21.8183C22.8282 22.2201 22.5839 22.6273 22.1821 22.7278C21.7802 22.8282 21.373 22.5839 21.2726 22.1821L20.2726 18.1821C20.1721 17.7802 20.4164 17.373 20.8183 17.2726Z" fill="black"/>
</svg>
