<svg width="24" height="24" viewBox="0 0 24 24" fill="none" xmlns="http://www.w3.org/2000/svg">
<path fill-rule="evenodd" clip-rule="evenodd" d="M4.68977 2.75977C3.63217 2.75977 2.75977 3.62581 2.75977 4.68977V7.31978C2.75977 8.37738 3.6258 9.24977 4.68977 9.24977H19.3198C20.3756 9.24977 21.2498 8.37557 21.2498 7.31978V4.68977C21.2498 3.63216 20.3837 2.75977 19.3198 2.75977H4.68977ZM1.25977 4.68977C1.25977 2.79374 2.80738 1.25977 4.68977 1.25977H19.3198C21.2158 1.25977 22.7498 2.80739 22.7498 4.68977V7.31978C22.7498 9.20399 21.204 10.7498 19.3198 10.7498H4.68977C2.79375 10.7498 1.25977 9.20218 1.25977 7.31978V4.68977Z" fill="black"/>
<path fill-rule="evenodd" clip-rule="evenodd" d="M4.68977 14.7598C3.63217 14.7598 2.75977 15.6258 2.75977 16.6898V19.3198C2.75977 20.3774 3.6258 21.2498 4.68977 21.2498H19.3198C20.3756 21.2498 21.2498 20.3756 21.2498 19.3198V16.6898C21.2498 15.6322 20.3837 14.7598 19.3198 14.7598H4.68977ZM1.25977 16.6898C1.25977 14.7937 2.80738 13.2598 4.68977 13.2598H19.3198C21.2158 13.2598 22.7498 14.8074 22.7498 16.6898V19.3198C22.7498 21.204 21.204 22.7498 19.3198 22.7498H4.68977C2.79375 22.7498 1.25977 21.2022 1.25977 19.3198V16.6898Z" fill="black"/>
<path fill-rule="evenodd" clip-rule="evenodd" d="M6 4.25C6.41421 4.25 6.75 4.58579 6.75 5V7C6.75 7.41421 6.41421 7.75 6 7.75C5.58579 7.75 5.25 7.41421 5.25 7V5C5.25 4.58579 5.58579 4.25 6 4.25Z" fill="black"/>
<path fill-rule="evenodd" clip-rule="evenodd" d="M10 4.25C10.4142 4.25 10.75 4.58579 10.75 5V7C10.75 7.41421 10.4142 7.75 10 7.75C9.58579 7.75 9.25 7.41421 9.25 7V5C9.25 4.58579 9.58579 4.25 10 4.25Z" fill="black"/>
<path fill-rule="evenodd" clip-rule="evenodd" d="M6 16.25C6.41421 16.25 6.75 16.5858 6.75 17V19C6.75 19.4142 6.41421 19.75 6 19.75C5.58579 19.75 5.25 19.4142 5.25 19V17C5.25 16.5858 5.58579 16.25 6 16.25Z" fill="black"/>
<path fill-rule="evenodd" clip-rule="evenodd" d="M10 16.25C10.4142 16.25 10.75 16.5858 10.75 17V19C10.75 19.4142 10.4142 19.75 10 19.75C9.58579 19.75 9.25 19.4142 9.25 19V17C9.25 16.5858 9.58579 16.25 10 16.25Z" fill="black"/>
<path fill-rule="evenodd" clip-rule="evenodd" d="M13.25 6C13.25 5.58579 13.5858 5.25 14 5.25H18C18.4142 5.25 18.75 5.58579 18.75 6C18.75 6.41421 18.4142 6.75 18 6.75H14C13.5858 6.75 13.25 6.41421 13.25 6Z" fill="black"/>
<path fill-rule="evenodd" clip-rule="evenodd" d="M13.25 18C13.25 17.5858 13.5858 17.25 14 17.25H18C18.4142 17.25 18.75 17.5858 18.75 18C18.75 18.4142 18.4142 18.75 18 18.75H14C13.5858 18.75 13.25 18.4142 13.25 18Z" fill="black"/>
</svg>
