<svg width="24" height="24" viewBox="0 0 24 24" fill="none" xmlns="http://www.w3.org/2000/svg">
<path fill-rule="evenodd" clip-rule="evenodd" d="M6 5.5C6.41421 5.5 6.75 5.83579 6.75 6.25V8.25C6.75 8.66421 6.41421 9 6 9C5.58579 9 5.25 8.66421 5.25 8.25V6.25C5.25 5.83579 5.58579 5.5 6 5.5Z" fill="black"/>
<path fill-rule="evenodd" clip-rule="evenodd" d="M3.09467 3.09467C4.42914 1.7602 6.42603 1.25 9 1.25H15C17.574 1.25 19.5709 1.7602 20.9053 3.09467C22.2398 4.42914 22.75 6.42603 22.75 9V12C22.75 12.4142 22.4142 12.75 22 12.75C21.5858 12.75 21.25 12.4142 21.25 12V9C21.25 6.57397 20.7602 5.07086 19.8447 4.15533C18.9291 3.2398 17.426 2.75 15 2.75H9C6.57397 2.75 5.07086 3.2398 4.15533 4.15533C3.2398 5.07086 2.75 6.57397 2.75 9V15C2.75 17.426 3.2398 18.9291 4.15533 19.8447C5.07086 20.7602 6.57397 21.25 9 21.25H12C12.4142 21.25 12.75 21.5858 12.75 22C12.75 22.4142 12.4142 22.75 12 22.75H9C6.42603 22.75 4.42914 22.2398 3.09467 20.9053C1.7602 19.5709 1.25 17.574 1.25 15V9C1.25 6.42603 1.7602 4.42914 3.09467 3.09467Z" fill="black"/>
<path fill-rule="evenodd" clip-rule="evenodd" d="M10 5.5C10.4142 5.5 10.75 5.83579 10.75 6.25V8.25C10.75 8.66421 10.4142 9 10 9C9.58579 9 9.25 8.66421 9.25 8.25V6.25C9.25 5.83579 9.58579 5.5 10 5.5Z" fill="black"/>
<path fill-rule="evenodd" clip-rule="evenodd" d="M6 15.25C6.41421 15.25 6.75 15.5858 6.75 16V18C6.75 18.4142 6.41421 18.75 6 18.75C5.58579 18.75 5.25 18.4142 5.25 18V16C5.25 15.5858 5.58579 15.25 6 15.25Z" fill="black"/>
<path fill-rule="evenodd" clip-rule="evenodd" d="M10 15.25C10.4142 15.25 10.75 15.5858 10.75 16V18C10.75 18.4142 10.4142 18.75 10 18.75C9.58579 18.75 9.25 18.4142 9.25 18V16C9.25 15.5858 9.58579 15.25 10 15.25Z" fill="black"/>
<path fill-rule="evenodd" clip-rule="evenodd" d="M13.25 7.25C13.25 6.83579 13.5858 6.5 14 6.5H18C18.4142 6.5 18.75 6.83579 18.75 7.25C18.75 7.66421 18.4142 8 18 8H14C13.5858 8 13.25 7.66421 13.25 7.25Z" fill="black"/>
<path fill-rule="evenodd" clip-rule="evenodd" d="M1.25 12C1.25 11.5858 1.58579 11.25 2 11.25H22C22.4142 11.25 22.75 11.5858 22.75 12C22.75 12.4142 22.4142 12.75 22 12.75H2C1.58579 12.75 1.25 12.4142 1.25 12Z" fill="black"/>
<path fill-rule="evenodd" clip-rule="evenodd" d="M22.0004 14.5C22.4146 14.5 22.7504 14.8358 22.7504 15.25V17.2463C22.7549 17.5056 22.6246 17.7601 22.3862 17.9031C22.2275 17.9984 22.0476 18.028 21.8782 18H20.0004C19.5862 18 19.2504 17.6642 19.2504 17.25C19.2504 16.8358 19.5862 16.5 20.0004 16.5H20.0339C19.676 16.3284 19.249 16.21 18.7504 16.21C17.8171 16.21 17.0118 16.7091 16.5815 17.4621C16.376 17.8217 15.9179 17.9467 15.5583 17.7412C15.1986 17.5357 15.0737 17.0775 15.2792 16.7179C15.9689 15.5108 17.2637 14.71 18.7504 14.71C19.7978 14.71 20.633 15.0603 21.2504 15.4714V15.25C21.2504 14.8358 21.5862 14.5 22.0004 14.5Z" fill="black"/>
</svg>
