<svg width="24" height="24" viewBox="0 0 24 24" fill="none" xmlns="http://www.w3.org/2000/svg">
<path fill-rule="evenodd" clip-rule="evenodd" d="M18.1967 1.01399C19.3101 0.904704 20.4139 1.39364 21.5103 2.49007C22.6068 3.5865 23.0957 4.69032 22.9864 5.80367C22.881 6.87768 22.2333 7.7678 21.5103 8.49073L20.3897 9.61137C20.3839 9.6174 20.3779 9.62333 20.3719 9.62915L13.6216 16.3794C13.3964 16.5974 13.1021 16.7878 12.8181 16.9305C12.5357 17.0724 12.2031 17.1976 11.8861 17.2429L8.87225 17.6734C8.13016 17.7755 7.42014 17.5729 6.922 17.0768C6.42279 16.5796 6.21859 15.8693 6.32773 15.123L6.32795 15.1215L6.7572 12.1168L6.75738 12.1154C6.80242 11.7942 6.92694 11.4592 7.06988 11.1748C7.21312 10.8898 7.40599 10.5938 7.62967 10.3701L14.3691 3.63068C14.3763 3.62315 14.3837 3.61575 14.3912 3.60851L15.5097 2.49007C16.2326 1.76714 17.1227 1.11941 18.1967 1.01399ZM14.6121 5.50901L8.69033 11.4307C8.61402 11.507 8.50688 11.656 8.41012 11.8485C8.31325 12.0412 8.25792 12.2157 8.2428 12.324L8.24246 12.3265L7.81246 15.3365L7.81205 15.3393C7.76169 15.6824 7.86255 15.8965 7.9805 16.014C8.09966 16.1327 8.31909 16.2349 8.66597 16.1876L8.66775 16.1874L11.6739 15.7579C11.7769 15.7432 11.9493 15.6884 12.1444 15.5903C12.3352 15.4944 12.4892 15.3866 12.5748 15.3049L18.4928 9.3869C16.7759 8.59801 15.3978 7.22158 14.6121 5.50901ZM19.6426 8.23712C17.8274 7.58901 16.403 6.16384 15.7624 4.35866L16.5703 3.55073C17.2074 2.91366 17.7873 2.56139 18.3433 2.50682C18.8599 2.4561 19.5461 2.64716 20.4497 3.55073C21.3532 4.4543 21.5443 5.14049 21.4936 5.65714C21.439 6.21313 21.0867 6.793 20.4497 7.43007L19.6426 8.23712Z" fill="black"/>
<path d="M3.09467 3.09506C4.42914 1.7606 6.42603 1.25039 9 1.25039H11C11.4142 1.25039 11.75 1.58618 11.75 2.00039C11.75 2.41461 11.4142 2.75039 11 2.75039H9C6.57397 2.75039 5.07086 3.24019 4.15533 4.15572C3.2398 5.07126 2.75 6.57437 2.75 9.00039V15.0004C2.75 17.4264 3.2398 18.9295 4.15533 19.8451C5.07086 20.7606 6.57397 21.2504 9 21.2504H15C17.426 21.2504 18.9291 20.7606 19.8447 19.8451C20.7602 18.9295 21.25 17.4264 21.25 15.0004V13.0004C21.25 12.5862 21.5858 12.2504 22 12.2504C22.4142 12.2504 22.75 12.5862 22.75 13.0004V15.0004C22.75 17.5744 22.2398 19.5713 20.9053 20.9057C19.5709 22.2402 17.574 22.7504 15 22.7504H9C6.42603 22.7504 4.42914 22.2402 3.09467 20.9057C1.7602 19.5713 1.25 17.5744 1.25 15.0004V9.00039C1.25 6.42642 1.7602 4.42953 3.09467 3.09506Z" fill="black"/>
<path fill-rule="evenodd" clip-rule="evenodd" d="M18.1967 1.01399C19.3101 0.904704 20.4139 1.39364 21.5103 2.49007C22.6068 3.5865 23.0957 4.69032 22.9864 5.80367C22.881 6.87768 22.2333 7.7678 21.5103 8.49073L20.3897 9.61137C20.3839 9.6174 20.3779 9.62333 20.3719 9.62915L13.6216 16.3794C13.3964 16.5974 13.1021 16.7878 12.8181 16.9305C12.5357 17.0724 12.2031 17.1976 11.8861 17.2429L8.87225 17.6734C8.13016 17.7755 7.42014 17.5729 6.922 17.0768C6.42279 16.5796 6.21859 15.8693 6.32773 15.123L6.32795 15.1215L6.7572 12.1168L6.75738 12.1154C6.80242 11.7942 6.92694 11.4592 7.06988 11.1748C7.21312 10.8898 7.40599 10.5938 7.62967 10.3701L14.3691 3.63068C14.3763 3.62315 14.3837 3.61575 14.3912 3.60851L15.5097 2.49007C16.2326 1.76714 17.1227 1.11941 18.1967 1.01399ZM14.6121 5.50901L8.69033 11.4307C8.61402 11.507 8.50688 11.656 8.41012 11.8485C8.31325 12.0412 8.25792 12.2157 8.2428 12.324L8.24246 12.3265L7.81246 15.3365L7.81205 15.3393C7.76169 15.6824 7.86255 15.8965 7.9805 16.014C8.09966 16.1327 8.31909 16.2349 8.66597 16.1876L8.66775 16.1874L11.6739 15.7579C11.7769 15.7432 11.9493 15.6884 12.1444 15.5903C12.3352 15.4944 12.4892 15.3866 12.5748 15.3049L18.4928 9.3869C16.7759 8.59801 15.3978 7.22158 14.6121 5.50901ZM19.6426 8.23712C17.8274 7.58901 16.403 6.16384 15.7624 4.35866L16.5703 3.55073C17.2074 2.91366 17.7873 2.56139 18.3433 2.50682C18.8599 2.4561 19.5461 2.64716 20.4497 3.55073C21.3532 4.4543 21.5443 5.14049 21.4936 5.65714C21.439 6.21313 21.0867 6.793 20.4497 7.43007L19.6426 8.23712Z" fill="black"/>
<path d="M3.09467 3.09506C4.42914 1.7606 6.42603 1.25039 9 1.25039H11C11.4142 1.25039 11.75 1.58618 11.75 2.00039C11.75 2.41461 11.4142 2.75039 11 2.75039H9C6.57397 2.75039 5.07086 3.24019 4.15533 4.15572C3.2398 5.07126 2.75 6.57437 2.75 9.00039V15.0004C2.75 17.4264 3.2398 18.9295 4.15533 19.8451C5.07086 20.7606 6.57397 21.2504 9 21.2504H15C17.426 21.2504 18.9291 20.7606 19.8447 19.8451C20.7602 18.9295 21.25 17.4264 21.25 15.0004V13.0004C21.25 12.5862 21.5858 12.2504 22 12.2504C22.4142 12.2504 22.75 12.5862 22.75 13.0004V15.0004C22.75 17.5744 22.2398 19.5713 20.9053 20.9057C19.5709 22.2402 17.574 22.7504 15 22.7504H9C6.42603 22.7504 4.42914 22.2402 3.09467 20.9057C1.7602 19.5713 1.25 17.5744 1.25 15.0004V9.00039C1.25 6.42642 1.7602 4.42953 3.09467 3.09506Z" fill="black"/>
</svg>
