<svg width="24" height="24" viewBox="0 0 24 24" fill="none" xmlns="http://www.w3.org/2000/svg">
<path fill-rule="evenodd" clip-rule="evenodd" d="M9.22504 2.35333C9.24984 2.35085 9.27475 2.34961 9.29967 2.34961H14.6997C15.5628 2.34961 16.1812 2.91794 16.435 3.56222C16.6873 4.2027 16.6266 5.03336 16.03 5.62994L13.33 8.32994C12.9575 8.70242 12.4485 8.84961 11.9997 8.84961C11.5508 8.84961 11.0418 8.70242 10.6693 8.32994L7.96934 5.62994C7.37948 5.04008 7.30625 4.23495 7.56732 3.59233C7.82587 2.9559 8.42611 2.43322 9.22504 2.35333ZM9.3451 3.84961C9.15874 3.87857 9.02021 4.00134 8.95702 4.15689C8.89309 4.31426 8.91986 4.45914 9.03 4.56928L11.73 7.26928C11.7575 7.2968 11.8485 7.34961 11.9997 7.34961C12.1508 7.34961 12.2418 7.2968 12.2693 7.26928L14.9693 4.56928C15.0728 4.46586 15.1121 4.29652 15.0394 4.112C14.9682 3.93128 14.8365 3.84961 14.6997 3.84961H9.3451Z" fill="black"/>
<path fill-rule="evenodd" clip-rule="evenodd" d="M11.9997 16.6504C11.8485 16.6504 11.7575 16.7032 11.73 16.7307L9.03 19.4307C8.91986 19.5409 8.89309 19.6857 8.95702 19.8431C9.02021 19.9987 9.15874 20.1214 9.3451 20.1504H14.6997C14.8365 20.1504 14.9682 20.0687 15.0394 19.888C15.1121 19.7035 15.0728 19.5341 14.9693 19.4307L12.2693 16.7307C12.2418 16.7032 12.1508 16.6504 11.9997 16.6504ZM11.9997 15.1504C12.4485 15.1504 12.9575 15.2976 13.33 15.6701L16.03 18.3701C16.6266 18.9666 16.6873 19.7973 16.435 20.4378C16.1812 21.0821 15.5628 21.6504 14.6997 21.6504H9.29967C9.27475 21.6504 9.24984 21.6491 9.22504 21.6467C8.42611 21.5668 7.82587 21.0441 7.56732 20.4077C7.30625 19.765 7.37948 18.9599 7.96934 18.3701L10.6693 15.6701C11.0418 15.2976 11.5508 15.1504 11.9997 15.1504Z" fill="black"/>
<path fill-rule="evenodd" clip-rule="evenodd" d="M5.21764 8.23174C5.15112 8.24006 5.10154 8.27322 5.07043 8.33545C5.05953 8.35726 5.04756 8.37852 5.03459 8.39917L2.83459 11.8992C2.81213 11.9349 2.78672 11.9686 2.75863 12C2.78672 12.0314 2.81213 12.0652 2.83459 12.1009L5.02832 15.5909C5.12474 15.7321 5.21757 15.7634 5.25911 15.7688C5.29402 15.7734 5.36782 15.7712 5.46928 15.6697L8.96928 12.1697C9.03312 12.1059 9.04961 12.0449 9.04961 12C9.04961 11.9552 9.03312 11.8942 8.96928 11.8304L5.46928 8.33037C5.38248 8.24357 5.28735 8.22303 5.21764 8.23174ZM3.74763 7.62795C4.31689 6.54955 5.72176 6.46153 6.52994 7.26971L10.0299 10.7697C10.7228 11.4626 10.7228 12.5375 10.0299 13.2304L6.52994 16.7304C6.1314 17.1289 5.6052 17.3267 5.0651 17.2562C4.53231 17.1867 4.07749 16.8689 3.77557 16.4161L3.76463 16.3992L1.60284 12.9599C1.37058 12.6989 1.22461 12.3669 1.22461 12C1.22461 11.6332 1.37058 11.3012 1.60284 11.0401L3.74763 7.62795Z" fill="black"/>
<path fill-rule="evenodd" clip-rule="evenodd" d="M20.2387 7.60689C19.9443 7.12243 19.441 6.87785 18.9682 6.81875C18.4899 6.75895 17.9567 6.8748 17.5317 7.2148C17.5101 7.23209 17.4894 7.25056 17.4699 7.27013L13.9699 10.7701C13.277 11.463 13.277 12.5379 13.9699 13.2308L17.4699 16.7308C17.8684 17.1293 18.3946 17.3271 18.9347 17.2567C19.4675 17.1872 19.9223 16.8694 20.2242 16.4165L20.2352 16.3996L22.397 12.9604C22.6292 12.6993 22.7752 12.3673 22.7752 12.0005C22.7752 11.6336 22.6292 11.3016 22.397 11.0405L20.2387 7.60689ZM18.4923 8.36896L15.0305 11.8308C14.9667 11.8946 14.9502 11.9556 14.9502 12.0005C14.9502 12.0453 14.9667 12.1063 15.0305 12.1701L18.5305 15.6701C18.632 15.7716 18.7058 15.7738 18.7407 15.7693C18.7822 15.7638 18.8751 15.7326 18.9715 15.5914L21.1652 12.1013C21.1877 12.0656 21.2131 12.0319 21.2412 12.0005C21.2131 11.969 21.1877 11.9353 21.1652 11.8996L18.9652 8.39958L18.9571 8.38633C18.9508 8.37589 18.9069 8.32275 18.7822 8.30716C18.6727 8.29348 18.567 8.3198 18.4923 8.36896Z" fill="black"/>
</svg>
