<svg width="24" height="24" viewBox="0 0 24 24" fill="none" xmlns="http://www.w3.org/2000/svg">
<path fill-rule="evenodd" clip-rule="evenodd" d="M5.75982 6.91C5.75982 5.44579 6.95561 4.25 8.41982 4.25H15.5898C17.054 4.25 18.2498 5.44579 18.2498 6.91V12C18.2498 13.27 17.8156 14.4615 16.9815 15.3411C16.1417 16.2267 14.9395 16.75 13.4998 16.75H10.4998C9.06026 16.75 7.85773 16.2268 7.01887 15.3406C6.18606 14.4607 5.75444 13.2688 5.75982 11.9984V6.91ZM8.41982 5.75C7.78403 5.75 7.25981 6.27422 7.25981 6.91V12.0034C7.25559 12.9323 7.56895 13.7397 8.10825 14.3094C8.64188 14.8732 9.43935 15.25 10.4998 15.25H13.4998C14.5601 15.25 15.3579 14.8733 15.8931 14.3089C16.4341 13.7385 16.7498 12.93 16.7498 12V6.91C16.7498 6.27422 16.2256 5.75 15.5898 5.75H8.41982Z" fill="black"/>
<path fill-rule="evenodd" clip-rule="evenodd" d="M9.5 1.25C9.91421 1.25 10.25 1.58579 10.25 2V5C10.25 5.41421 9.91421 5.75 9.5 5.75C9.08579 5.75 8.75 5.41421 8.75 5V2C8.75 1.58579 9.08579 1.25 9.5 1.25Z" fill="black"/>
<path fill-rule="evenodd" clip-rule="evenodd" d="M14.5 1.25C14.9142 1.25 15.25 1.58579 15.25 2V5C15.25 5.41421 14.9142 5.75 14.5 5.75C14.0858 5.75 13.75 5.41421 13.75 5V2C13.75 1.58579 14.0858 1.25 14.5 1.25Z" fill="black"/>
<path fill-rule="evenodd" clip-rule="evenodd" d="M12 15.25C12.4142 15.25 12.75 15.5858 12.75 16V22C12.75 22.4142 12.4142 22.75 12 22.75C11.5858 22.75 11.25 22.4142 11.25 22V16C11.25 15.5858 11.5858 15.25 12 15.25Z" fill="black"/>
</svg>
