<svg width="24" height="24" viewBox="0 0 24 24" fill="none" xmlns="http://www.w3.org/2000/svg">
<path fill-rule="evenodd" clip-rule="evenodd" d="M3.09467 3.09467C4.42914 1.7602 6.42603 1.25 9 1.25H15C17.574 1.25 19.5709 1.7602 20.9053 3.09467C22.2398 4.42914 22.75 6.42603 22.75 9V15C22.75 17.574 22.2398 19.5709 20.9053 20.9053C19.5709 22.2398 17.574 22.75 15 22.75H9C6.42603 22.75 4.42914 22.2398 3.09467 20.9053C1.7602 19.5709 1.25 17.574 1.25 15V9C1.25 6.42603 1.7602 4.42914 3.09467 3.09467ZM4.15533 4.15533C3.2398 5.07086 2.75 6.57397 2.75 9V15C2.75 17.426 3.2398 18.9291 4.15533 19.8447C5.07086 20.7602 6.57397 21.25 9 21.25H15C17.426 21.25 18.9291 20.7602 19.8447 19.8447C20.7602 18.9291 21.25 17.426 21.25 15V9C21.25 6.57397 20.7602 5.07086 19.8447 4.15533C18.9291 3.2398 17.426 2.75 15 2.75H9C6.57397 2.75 5.07086 3.2398 4.15533 4.15533Z" fill="black"/>
<path fill-rule="evenodd" clip-rule="evenodd" d="M10.1123 9.28296C9.39313 8.5709 8.23599 8.57467 7.53033 9.28033C7.23744 9.57322 6.76256 9.57322 6.46967 9.28033C6.17678 8.98744 6.17678 8.51256 6.46967 8.21967C7.76401 6.92533 9.86687 6.9291 11.1677 8.21704C11.462 8.50847 11.4644 8.98334 11.173 9.27769C10.8815 9.57203 10.4067 9.57439 10.1123 9.28296Z" fill="black"/>
<path fill-rule="evenodd" clip-rule="evenodd" d="M16.4727 9.28296C15.7535 8.5709 14.5963 8.57467 13.8907 9.28033C13.5978 9.57322 13.1229 9.57322 12.83 9.28033C12.5371 8.98744 12.5371 8.51256 12.83 8.21967C14.1244 6.92533 16.2272 6.9291 17.528 8.21704C17.8224 8.50847 17.8247 8.98334 17.5333 9.27769C17.2419 9.57203 16.767 9.57439 16.4727 9.28296Z" fill="black"/>
<path fill-rule="evenodd" clip-rule="evenodd" d="M6.75 16.7998C6.75 13.8956 9.09579 11.5498 12 11.5498C14.9042 11.5498 17.25 13.8956 17.25 16.7998C17.25 17.714 16.5142 18.4498 15.6 18.4498H8.4C7.48578 18.4498 6.75 17.714 6.75 16.7998ZM12 13.0498C9.92421 13.0498 8.25 14.724 8.25 16.7998C8.25 16.8856 8.31422 16.9498 8.4 16.9498H15.6C15.6858 16.9498 15.75 16.8856 15.75 16.7998C15.75 14.724 14.0758 13.0498 12 13.0498Z" fill="black"/>
</svg>
