<svg width="24" height="24" viewBox="0 0 24 24" fill="none" xmlns="http://www.w3.org/2000/svg">
<path fill-rule="evenodd" clip-rule="evenodd" d="M12 21.5C17.2467 21.5 21.5 17.2467 21.5 12C21.5 6.75329 17.2467 2.5 12 2.5C6.75329 2.5 2.5 6.75329 2.5 12C2.5 17.2467 6.75329 21.5 12 21.5ZM12 23C18.0751 23 23 18.0751 23 12C23 5.92487 18.0751 1 12 1C5.92487 1 1 5.92487 1 12C1 18.0751 5.92487 23 12 23Z" fill="black"/>
<path d="M10 9.5C10 10.3284 9.32843 11 8.5 11C7.67157 11 7 10.3284 7 9.5C7 8.67157 7.67157 8 8.5 8C9.32843 8 10 8.67157 10 9.5Z" fill="black"/>
<path d="M17 9.5C17 10.3284 16.3284 11 15.5 11C14.6716 11 14 10.3284 14 9.5C14 8.67157 14.6716 8 15.5 8C16.3284 8 17 8.67157 17 9.5Z" fill="black"/>
<path fill-rule="evenodd" clip-rule="evenodd" d="M6.66475 13.3293C7.03524 13.1441 7.48574 13.2943 7.67098 13.6648C8.0898 14.5024 9.65352 16.2502 12.0002 16.2502C14.3468 16.2502 15.9105 14.5024 16.3293 13.6648C16.5146 13.2943 16.9651 13.1441 17.3356 13.3293C17.7061 13.5146 17.8562 13.9651 17.671 14.3356C17.0898 15.498 15.0945 17.7502 12.0002 17.7502C8.90578 17.7502 6.91053 15.498 6.32934 14.3356C6.1441 13.9651 6.29427 13.5146 6.66475 13.3293Z" fill="black"/>
</svg>
