<svg width="24" height="24" viewBox="0 0 24 24" fill="none" xmlns="http://www.w3.org/2000/svg">
<path fill-rule="evenodd" clip-rule="evenodd" d="M6.25999 8.5C4.60421 8.5 3.25 9.85422 3.25 11.51V14.5857C3.79266 14.3695 4.38335 14.25 5 14.25C7.62421 14.25 9.75 16.3758 9.75 19C9.75 19.8165 9.54324 20.5822 9.18199 21.25H17.74C19.3958 21.25 20.75 19.8958 20.75 18.24V17.8H19.6C18.1905 17.8 16.8223 16.7693 16.693 15.2467C16.6122 14.3845 16.9405 13.579 17.5093 13.02C18.0209 12.4981 18.7224 12.2 19.48 12.2H20.75V11.51C20.75 9.85422 19.3958 8.5 17.74 8.5H6.25999ZM1.75 11.51C1.75 9.0258 3.77578 7 6.25999 7H17.74C20.2242 7 22.25 9.0258 22.25 11.51V12.95C22.25 13.3642 21.9142 13.7 21.5 13.7H19.48C19.1209 13.7 18.8052 13.8392 18.5773 14.0732L18.5639 14.0867C18.2978 14.3464 18.1492 14.7162 18.1866 15.1089L18.1875 15.1177C18.2404 15.7527 18.8509 16.3 19.6 16.3H21.5C21.9142 16.3 22.25 16.6358 22.25 17.05V18.24C22.25 20.7242 20.2242 22.75 17.74 22.75H7.64C7.32789 22.75 7.04841 22.5567 6.93826 22.2647C6.82811 21.9727 6.91032 21.643 7.14468 21.4368C7.82115 20.8419 8.25 19.9735 8.25 19C8.25 17.2042 6.79579 15.75 5 15.75C4.23847 15.75 3.53157 16.0169 2.96748 16.4665C2.74223 16.646 2.43403 16.6807 2.17451 16.5557C1.91499 16.4307 1.75 16.1681 1.75 15.88V11.51Z" fill="black"/>
<path fill-rule="evenodd" clip-rule="evenodd" d="M12.5427 2.87244C12.5421 2.87267 12.5415 2.8729 12.5409 2.87313L4.60542 5.87142C3.78865 6.18063 3.25 6.96044 3.25 7.84V11.51C3.25 11.9242 2.91421 12.26 2.5 12.26C2.08579 12.26 1.75 11.9242 1.75 11.51V7.84C1.75 6.33968 2.67153 4.99937 4.07458 4.46849L12.0191 1.46677C13.7425 0.827449 15.6 2.09052 15.6 3.94999V7.74997C15.6 8.16419 15.2642 8.49997 14.85 8.49997C14.4358 8.49997 14.1 8.16419 14.1 7.74997V3.94999C14.1 3.1501 13.2988 2.59336 12.5427 2.87244Z" fill="black"/>
<path fill-rule="evenodd" clip-rule="evenodd" d="M19.4788 13.7002C19.1198 13.7002 18.804 13.8394 18.5762 14.0734L18.5627 14.0869C18.2967 14.3466 18.1481 14.7164 18.1855 15.1091L18.1863 15.1179C18.2392 15.7529 18.8497 16.3002 19.5989 16.3002H21.5416C21.7033 16.2897 21.8088 16.1633 21.8088 16.0302V13.9702C21.8088 13.837 21.7033 13.7106 21.5416 13.7002H19.4788ZM17.5081 13.0201C18.0198 12.4983 18.7212 12.2002 19.4788 12.2002H21.5588C21.5678 12.2002 21.5767 12.2004 21.5856 12.2007C22.5386 12.2347 23.3088 13.0059 23.3088 13.9702V16.0302C23.3088 16.9945 22.5386 17.7657 21.5856 17.7997C21.5767 17.8 21.5678 17.8002 21.5588 17.8002H19.5989C18.1893 17.8002 16.8212 16.7695 16.6918 15.2469C16.6111 14.3847 16.9393 13.5792 17.5081 13.0201Z" fill="black"/>
<path fill-rule="evenodd" clip-rule="evenodd" d="M6.25 12C6.25 11.5858 6.58579 11.25 7 11.25H14C14.4142 11.25 14.75 11.5858 14.75 12C14.75 12.4142 14.4142 12.75 14 12.75H7C6.58579 12.75 6.25 12.4142 6.25 12Z" fill="black"/>
<path fill-rule="evenodd" clip-rule="evenodd" d="M5 15.75C4.23847 15.75 3.53157 16.0169 2.96748 16.4665L2.96618 16.4675C2.221 17.0588 1.75 17.9745 1.75 19C1.75 20.7958 3.20421 22.25 5 22.25C5.81667 22.25 6.5636 21.9439 7.1457 21.4359C7.82158 20.841 8.25 19.973 8.25 19C8.25 17.2042 6.79579 15.75 5 15.75ZM2.03317 15.293C2.84898 14.6429 3.88183 14.25 5 14.25C7.62421 14.25 9.75 16.3758 9.75 19C9.75 20.4265 9.11885 21.6981 8.13532 22.5632L8.13332 22.5649C7.29556 23.2965 6.20287 23.75 5 23.75C2.37579 23.75 0.25 21.6242 0.25 19C0.25 17.5058 0.938723 16.1617 2.03317 15.293Z" fill="black"/>
<path fill-rule="evenodd" clip-rule="evenodd" d="M5.25011 17C5.66433 17 6.00011 17.3358 6.00011 17.75V19.25C6.00011 19.5134 5.86189 19.7576 5.63599 19.8931L4.38599 20.6431C4.0308 20.8562 3.5701 20.7411 3.35699 20.3859C3.14388 20.0307 3.25906 19.57 3.61424 19.3569L4.50011 18.8254V17.75C4.50011 17.3358 4.8359 17 5.25011 17Z" fill="black"/>
</svg>
