<svg width="24" height="24" viewBox="0 0 24 24" fill="none" xmlns="http://www.w3.org/2000/svg">
<path fill-rule="evenodd" clip-rule="evenodd" d="M6.25999 8.5C4.60421 8.5 3.25 9.85422 3.25 11.51V13.24C3.25 13.6542 2.91421 13.99 2.5 13.99C2.08579 13.99 1.75 13.6542 1.75 13.24V11.51C1.75 9.0258 3.77578 7 6.25999 7H17.74C20.2242 7 22.25 9.0258 22.25 11.51V12.95C22.25 13.3642 21.9142 13.7 21.5 13.7H19.48C19.1209 13.7 18.8052 13.8392 18.5773 14.0732L18.5639 14.0867C18.2978 14.3464 18.1492 14.7162 18.1866 15.1089L18.1875 15.1177C18.2404 15.7527 18.8509 16.3 19.6 16.3H21.5C21.9142 16.3 22.25 16.6358 22.25 17.05V18.24C22.25 20.7242 20.2242 22.75 17.74 22.75H12.26C11.8458 22.75 11.51 22.4142 11.51 22C11.51 21.5858 11.8458 21.25 12.26 21.25H17.74C19.3958 21.25 20.75 19.8958 20.75 18.24V17.8H19.6C18.1905 17.8 16.8223 16.7693 16.693 15.2467C16.6122 14.3845 16.9405 13.579 17.5093 13.02C18.0209 12.4981 18.7224 12.2 19.48 12.2H20.75V11.51C20.75 9.85422 19.3958 8.5 17.74 8.5H6.25999Z" fill="black"/>
<path fill-rule="evenodd" clip-rule="evenodd" d="M14.1 3.95016C14.1 3.14264 13.293 2.58825 12.5458 2.87144L4.60542 5.87159C3.78865 6.1808 3.25 6.96061 3.25 7.84017V12.4101C3.25 12.8243 2.91421 13.1601 2.5 13.1601C2.08579 13.1601 1.75 12.8243 1.75 12.4101V7.84017C1.75 6.33985 2.67153 4.99954 4.07458 4.46866L12.0142 1.46882C13.747 0.812005 15.6 2.09768 15.6 3.95016V7.75014C15.6 8.16436 15.2642 8.50014 14.85 8.50014C14.4358 8.50014 14.1 8.16436 14.1 7.75014V3.95016Z" fill="black"/>
<path fill-rule="evenodd" clip-rule="evenodd" d="M19.4788 13.7002C19.1198 13.7002 18.804 13.8394 18.5762 14.0734L18.5627 14.0869C18.2967 14.3466 18.1481 14.7164 18.1855 15.1091L18.1863 15.1179C18.2392 15.7529 18.8497 16.3002 19.5989 16.3002H21.5416C21.7033 16.2897 21.8088 16.1633 21.8088 16.0302V13.9702C21.8088 13.837 21.7033 13.7106 21.5416 13.7002H19.4788ZM17.5081 13.0201C18.0198 12.4983 18.7212 12.2002 19.4788 12.2002H21.5588C21.5678 12.2002 21.5767 12.2004 21.5856 12.2007C22.5386 12.2347 23.3088 13.0059 23.3088 13.9702V16.0302C23.3088 16.9945 22.5386 17.7657 21.5856 17.7997C21.5767 17.8 21.5678 17.8002 21.5588 17.8002H19.5989C18.1893 17.8002 16.8212 16.7695 16.6918 15.2469C16.6111 14.3847 16.9393 13.5792 17.5081 13.0201Z" fill="black"/>
<path fill-rule="evenodd" clip-rule="evenodd" d="M6.25 12C6.25 11.5858 6.58579 11.25 7 11.25H14C14.4142 11.25 14.75 11.5858 14.75 12C14.75 12.4142 14.4142 12.75 14 12.75H7C6.58579 12.75 6.25 12.4142 6.25 12Z" fill="black"/>
<path fill-rule="evenodd" clip-rule="evenodd" d="M8.75098 19C8.75098 19.4142 9.08676 19.75 9.50098 19.75C9.91519 19.75 10.251 19.4142 10.251 19V17.72C10.251 16.6658 9.39521 15.81 8.34097 15.81H4.80405C5.04168 15.5155 5.02369 15.083 4.75006 14.8094C4.45717 14.5165 3.9823 14.5165 3.6894 14.8094L2.4694 16.0294C2.32875 16.17 2.24973 16.3608 2.24973 16.5597C2.24972 16.7586 2.32874 16.9494 2.46939 17.09L3.68939 18.31C3.98228 18.6029 4.45715 18.6029 4.75005 18.3101C5.02351 18.0366 5.04166 17.6045 4.80449 17.31H8.34097C8.56673 17.31 8.75098 17.4942 8.75098 17.72V19Z" fill="black"/>
<path fill-rule="evenodd" clip-rule="evenodd" d="M3.75 19.3398C3.75 18.9256 3.41421 18.5898 3 18.5898C2.58579 18.5898 2.25 18.9256 2.25 19.3398V20.6198C2.25 21.674 3.10576 22.5298 4.16 22.5298H7.69693C7.4593 22.8244 7.47729 23.2568 7.75091 23.5304C8.0438 23.8233 8.51868 23.8233 8.81157 23.5305L10.0316 22.3105C10.1722 22.1698 10.2512 21.9791 10.2513 21.7802C10.2513 21.5812 10.1722 21.3905 10.0316 21.2498L8.81159 20.0298C8.5187 19.7369 8.04382 19.7369 7.75093 20.0298C7.47746 20.3032 7.45931 20.7353 7.69648 21.0298H4.16C3.93424 21.0298 3.75 20.8456 3.75 20.6198V19.3398Z" fill="black"/>
</svg>
