<svg width="24" height="24" viewBox="0 0 24 24" fill="none" xmlns="http://www.w3.org/2000/svg">
<path fill-rule="evenodd" clip-rule="evenodd" d="M6.25999 8.5C4.60421 8.5 3.25 9.85422 3.25 11.51V14.5857C3.79266 14.3695 4.38335 14.25 5 14.25C7.62421 14.25 9.75 16.3758 9.75 19C9.75 19.8077 9.54483 20.5787 9.17688 21.25H17.74C19.3958 21.25 20.75 19.8958 20.75 18.24V17.8H19.6C18.1905 17.8 16.8223 16.7693 16.693 15.2467C16.6122 14.3845 16.9405 13.579 17.5093 13.02C18.0209 12.4981 18.7224 12.2 19.48 12.2H20.75V11.51C20.75 9.85422 19.3958 8.5 17.74 8.5H6.25999ZM1.75 11.51C1.75 9.0258 3.77578 7 6.25999 7H17.74C20.2242 7 22.25 9.0258 22.25 11.51V12.95C22.25 13.3642 21.9142 13.7 21.5 13.7H19.48C19.1209 13.7 18.8052 13.8392 18.5773 14.0732L18.5639 14.0867C18.2978 14.3464 18.1492 14.7162 18.1866 15.1089L18.1875 15.1177C18.2404 15.7527 18.8509 16.3 19.6 16.3H21.5C21.9142 16.3 22.25 16.6358 22.25 17.05V18.24C22.25 20.7242 20.2242 22.75 17.74 22.75H7.63C7.31467 22.75 7.03302 22.5528 6.92521 22.2564C6.81739 21.9601 6.90644 21.628 7.14805 21.4254C7.39099 21.2216 7.60515 20.9684 7.77216 20.6821L7.78162 20.6663C8.07948 20.1833 8.25 19.6094 8.25 19C8.25 17.2042 6.79579 15.75 5 15.75C4.23847 15.75 3.53157 16.0169 2.96748 16.4665C2.74223 16.646 2.43403 16.6807 2.17451 16.5557C1.91499 16.4307 1.75 16.1681 1.75 15.88V11.51Z" fill="black"/>
<path fill-rule="evenodd" clip-rule="evenodd" d="M14.1 3.95016C14.1 3.14264 13.293 2.58825 12.5458 2.87144L4.60542 5.87159C3.78865 6.1808 3.25 6.96061 3.25 7.84017V12.4101C3.25 12.8243 2.91421 13.1601 2.5 13.1601C2.08579 13.1601 1.75 12.8243 1.75 12.4101V7.84017C1.75 6.33985 2.67153 4.99954 4.07458 4.46866L12.0142 1.46882C13.747 0.812005 15.6 2.09768 15.6 3.95016V7.75014C15.6 8.16436 15.2642 8.50014 14.85 8.50014C14.4358 8.50014 14.1 8.16436 14.1 7.75014V3.95016Z" fill="black"/>
<path fill-rule="evenodd" clip-rule="evenodd" d="M19.4788 13.7002C19.1198 13.7002 18.804 13.8394 18.5762 14.0734L18.5627 14.0869C18.2967 14.3466 18.1481 14.7164 18.1855 15.1091L18.1863 15.1179C18.2392 15.7529 18.8497 16.3002 19.5989 16.3002H21.5416C21.7033 16.2897 21.8088 16.1633 21.8088 16.0302V13.9702C21.8088 13.837 21.7033 13.7106 21.5416 13.7002H19.4788ZM17.5081 13.0201C18.0198 12.4983 18.7212 12.2002 19.4788 12.2002H21.5588C21.5678 12.2002 21.5767 12.2004 21.5856 12.2007C22.5386 12.2347 23.3088 13.0059 23.3088 13.9702V16.0302C23.3088 16.9945 22.5386 17.7657 21.5856 17.7997C21.5767 17.8 21.5678 17.8002 21.5588 17.8002H19.5989C18.1893 17.8002 16.8212 16.7695 16.6918 15.2469C16.6111 14.3847 16.9393 13.5792 17.5081 13.0201Z" fill="black"/>
<path fill-rule="evenodd" clip-rule="evenodd" d="M6.25 12C6.25 11.5858 6.58579 11.25 7 11.25H14C14.4142 11.25 14.75 11.5858 14.75 12C14.75 12.4142 14.4142 12.75 14 12.75H7C6.58579 12.75 6.25 12.4142 6.25 12Z" fill="black"/>
<path fill-rule="evenodd" clip-rule="evenodd" d="M5 15.75C4.23847 15.75 3.53157 16.0169 2.96748 16.4665L2.96618 16.4675C2.221 17.0588 1.75 17.9745 1.75 19C1.75 19.6094 1.92052 20.1833 2.21838 20.6663L2.22467 20.6765C2.78448 21.6177 3.81412 22.25 5 22.25C5.82269 22.25 6.56449 21.9499 7.12828 21.4425C7.13477 21.4367 7.14136 21.431 7.14805 21.4254C7.39099 21.2216 7.60515 20.9684 7.77216 20.6821L7.78162 20.6663C8.07948 20.1833 8.25 19.6094 8.25 19C8.25 17.2042 6.79579 15.75 5 15.75ZM2.03317 15.293C2.84898 14.6429 3.88183 14.25 5 14.25C7.62421 14.25 9.75 16.3758 9.75 19C9.75 19.8874 9.50232 20.7306 9.06317 21.4459C8.81312 21.8725 8.49253 22.2534 8.12204 22.5662C7.28705 23.3134 6.19269 23.75 5 23.75C3.26803 23.75 1.75937 22.8246 0.938481 21.4486C0.498304 20.7327 0.25 19.8885 0.25 19C0.25 17.5058 0.938723 16.1617 2.03317 15.293Z" fill="black"/>
<path fill-rule="evenodd" clip-rule="evenodd" d="M7.11201 17.5103C7.39326 17.8144 7.37474 18.2889 7.07064 18.5701L4.94064 20.5401C4.6449 20.8136 4.18591 20.8047 3.90107 20.5198L2.91108 19.5298C2.61818 19.237 2.61818 18.7621 2.91108 18.4692C3.20397 18.1763 3.67884 18.1763 3.97174 18.4692L4.45169 18.9491L6.05216 17.4689C6.35625 17.1877 6.83077 17.2062 7.11201 17.5103Z" fill="black"/>
</svg>
