<svg width="24" height="24" viewBox="0 0 24 24" fill="none" xmlns="http://www.w3.org/2000/svg">
<path fill-rule="evenodd" clip-rule="evenodd" d="M12 2.75C6.89137 2.75 2.75 6.89137 2.75 12C2.75 17.1086 6.89137 21.25 12 21.25C17.1086 21.25 21.25 17.1086 21.25 12C21.25 6.89137 17.1086 2.75 12 2.75ZM1.25 12C1.25 6.06294 6.06294 1.25 12 1.25C17.9371 1.25 22.75 6.06294 22.75 12C22.75 17.9371 17.9371 22.75 12 22.75C6.06294 22.75 1.25 17.9371 1.25 12Z" fill="black"/>
<path fill-rule="evenodd" clip-rule="evenodd" d="M7.0498 11C7.0498 8.98579 8.78559 7.25 10.7998 7.25H15.7998C16.214 7.25 16.5498 7.58579 16.5498 8C16.5498 8.41421 16.214 8.75 15.7998 8.75H10.7998C9.61402 8.75 8.5498 9.81421 8.5498 11V13C8.5498 14.1858 9.61402 15.25 10.7998 15.25H15.7998C16.214 15.25 16.5498 15.5858 16.5498 16C16.5498 16.4142 16.214 16.75 15.7998 16.75H10.7998C8.78559 16.75 7.0498 15.0142 7.0498 13V11Z" fill="black"/>
<path fill-rule="evenodd" clip-rule="evenodd" d="M7.0498 12C7.0498 11.5858 7.38559 11.25 7.7998 11.25H15.7998C16.214 11.25 16.5498 11.5858 16.5498 12C16.5498 12.4142 16.214 12.75 15.7998 12.75H7.7998C7.38559 12.75 7.0498 12.4142 7.0498 12Z" fill="black"/>
</svg>
