<svg width="24" height="24" viewBox="0 0 24 24" fill="none" xmlns="http://www.w3.org/2000/svg">
<path fill-rule="evenodd" clip-rule="evenodd" d="M13.6874 2.93243C13.262 2.37511 12.6547 2.0498 11.988 2.0498C11.3227 2.0498 10.7026 2.37281 10.2361 2.90593L10.2254 2.91835L6.62544 7.21835C6.58794 7.26314 6.55581 7.31215 6.52968 7.36439C6.46547 7.49283 6.40555 7.6427 6.35972 7.75732L6.35415 7.77126C6.30063 7.90504 6.26283 7.9981 6.22968 8.06439C6.19962 8.12452 6.17778 8.18842 6.16474 8.25436L4.46474 16.8544C4.46329 16.8617 4.46194 16.8691 4.46071 16.8765C4.3146 17.7531 4.72749 18.7706 5.51463 19.2429L5.53106 19.2525L10.8311 22.2525C10.8422 22.2588 10.8536 22.2649 10.8651 22.2706C11.2022 22.4392 11.6026 22.4998 11.9505 22.4998C12.2984 22.4998 12.6988 22.4392 13.0359 22.2706C13.0474 22.2649 13.0588 22.2588 13.07 22.2525L18.37 19.2525L18.3864 19.2429C19.1735 18.7706 19.5864 17.7531 19.4403 16.8765C19.4391 16.8691 19.4377 16.8617 19.4363 16.8544L17.7461 8.30394C17.7227 8.04691 17.6126 7.822 17.5588 7.71439C17.5197 7.63623 17.4783 7.56107 17.446 7.50267C17.4102 7.43788 17.3878 7.39734 17.3713 7.36439C17.3452 7.31215 17.3131 7.26314 17.2756 7.21835L13.6874 2.93243ZM11.3698 3.88816L7.83817 8.10648C7.81273 8.16436 7.78347 8.23682 7.74686 8.32835L7.74129 8.34228C7.70685 8.42842 7.66446 8.53446 7.61826 8.63635L5.93886 17.1321C5.89035 17.4505 6.07197 17.823 6.28035 17.953L11.5477 20.9345C11.6163 20.9649 11.7601 20.9998 11.9505 20.9998C12.1409 20.9998 12.2847 20.9649 12.3533 20.9345L17.6207 17.953C17.829 17.823 18.0107 17.4505 17.9621 17.1321L16.2647 8.54525C16.2594 8.51837 16.2556 8.49124 16.2533 8.46397C16.2467 8.44724 16.2354 8.42161 16.2172 8.38521C16.1938 8.33838 16.1665 8.28854 16.1331 8.22819L16.126 8.21524C16.11 8.18635 16.0917 8.15324 16.0733 8.11895L12.5254 3.88126C12.5168 3.871 12.5085 3.86051 12.5005 3.8498C12.3265 3.61774 12.1395 3.5498 11.988 3.5498C11.8294 3.5498 11.6016 3.62574 11.3698 3.88816Z" fill="black"/>
<path fill-rule="evenodd" clip-rule="evenodd" d="M17.0497 7.79285C17.4404 7.93055 17.6454 8.35886 17.5077 8.74952L13.2077 20.9495C13.1974 20.9789 13.1852 21.0077 13.1712 21.0356C12.9305 21.5171 12.4525 21.7502 12.0129 21.7502C11.5783 21.7502 11.0522 21.5054 10.8848 20.9268L6.49488 8.75465C6.35435 8.36501 6.5563 7.93521 6.94595 7.79469C7.3356 7.65416 7.76539 7.85611 7.90592 8.24576L12.0475 19.7291L16.093 8.25089C16.2307 7.86023 16.6591 7.65516 17.0497 7.79285Z" fill="black"/>
</svg>
