<svg width="24" height="24" viewBox="0 0 24 24" fill="none" xmlns="http://www.w3.org/2000/svg">
<path fill-rule="evenodd" clip-rule="evenodd" d="M8.25 22C8.25 21.5858 8.58579 21.25 9 21.25H21C21.4142 21.25 21.75 21.5858 21.75 22C21.75 22.4142 21.4142 22.75 21 22.75H9C8.58579 22.75 8.25 22.4142 8.25 22Z" fill="black"/>
<path fill-rule="evenodd" clip-rule="evenodd" d="M12.8084 2.38045C14.2632 0.914481 16.6489 0.918173 18.1101 2.3794L21.6178 5.88712C21.6182 5.8875 21.6186 5.88788 21.619 5.88825C23.085 7.34302 23.0814 9.72881 21.6201 11.1901L11.1923 21.6178C11.1919 21.6182 11.1915 21.6186 11.191 21.6191C9.73626 23.085 7.3506 23.0812 5.88941 21.6201L2.3794 18.1101C0.918163 16.6488 0.914481 14.2631 2.38049 12.8083C2.38088 12.8079 2.38128 12.8075 2.38168 12.8071L12.8072 2.38168C12.8076 2.38127 12.808 2.38086 12.8084 2.38045ZM17.0494 3.44006C16.1711 2.56169 14.7377 2.56497 13.8724 3.43778L13.8701 3.44006L3.44006 13.8701L3.43778 13.8723C2.56497 14.7377 2.56169 16.171 3.44006 17.0494L6.95007 20.5594C7.82844 21.4378 9.26178 21.4345 10.1271 20.5617L10.1294 20.5594L20.5595 10.1294C21.4378 9.25103 21.4345 7.81766 20.5617 6.95232L20.5595 6.95005L17.0494 3.44006Z" fill="black"/>
<path fill-rule="evenodd" clip-rule="evenodd" d="M6.58979 8.59955C6.88268 8.30666 7.35755 8.30666 7.65045 8.59955L15.4004 16.3496C15.6933 16.6424 15.6933 17.1173 15.4004 17.4102C15.1076 17.7031 14.6327 17.7031 14.3398 17.4102L6.58979 9.66021C6.29689 9.36732 6.29689 8.89245 6.58979 8.59955Z" fill="black"/>
<path fill-rule="evenodd" clip-rule="evenodd" d="M9.69935 11.4692C9.99251 11.7618 9.99293 12.2367 9.7003 12.5299L4.05033 18.1899C3.7577 18.483 3.28283 18.4834 2.98967 18.1908C2.69652 17.8982 2.6961 17.4233 2.98873 17.1301L8.63869 11.4701C8.93133 11.177 9.4062 11.1766 9.69935 11.4692Z" fill="black"/>
<path fill-rule="evenodd" clip-rule="evenodd" d="M12.5301 14.2997C12.823 14.5926 12.823 15.0675 12.5301 15.3604L6.87017 21.0204C6.57728 21.3133 6.10241 21.3133 5.80951 21.0204C5.51662 20.7275 5.51662 20.2526 5.80951 19.9597L11.4695 14.2997C11.7624 14.0069 12.2373 14.0069 12.5301 14.2997Z" fill="black"/>
</svg>
