<svg width="24" height="24" viewBox="0 0 24 24" fill="none" xmlns="http://www.w3.org/2000/svg">
<path fill-rule="evenodd" clip-rule="evenodd" d="M14.1274 2.58349L17.8527 7.23767L17.8542 7.23948C18.4094 7.92636 18.6175 8.75764 18.4449 9.54514C18.2723 10.3325 17.7356 11.0019 16.9474 11.3993L13.2097 13.2731C12.8343 13.457 12.3912 13.5296 11.9898 13.5296C11.5884 13.5296 11.1453 13.457 10.7699 13.2731L10.7637 13.2701L7.03661 11.4015L7.03501 11.4007C6.2449 11.0084 5.70737 10.3405 5.53468 9.55264C5.3619 8.76433 5.57077 7.93114 6.12468 7.24038L9.86377 2.58151C10.4173 1.88553 11.1881 1.49707 11.9985 1.49707C12.809 1.49707 13.5782 1.88561 14.1274 2.58349ZM11.9985 2.99707C11.6871 2.99707 11.3334 3.14304 11.037 3.51608L11.0347 3.51902L7.29491 8.17876C6.99898 8.54793 6.9327 8.92488 6.9999 9.2315C7.0671 9.53807 7.28397 9.84987 7.70298 10.0576L7.70593 10.0591L11.4322 11.9272C11.5472 11.9828 11.7479 12.0296 11.9898 12.0296C12.2317 12.0296 12.4324 11.9828 12.5474 11.9272L16.2722 10.0599C16.6935 9.84722 16.9123 9.53146 16.9797 9.224C17.0469 8.9172 16.9805 8.54424 16.6869 8.18147L16.6843 8.17825L12.9498 3.51271C12.6592 3.14245 12.3095 2.99707 11.9985 2.99707Z" fill="black"/>
<path fill-rule="evenodd" clip-rule="evenodd" d="M12 1.5498C12.4142 1.5498 12.75 1.88559 12.75 2.2998V7.5598C12.75 7.97402 12.4142 8.3098 12 8.3098C11.5858 8.3098 11.25 7.97402 11.25 7.5598V2.2998C11.25 1.88559 11.5858 1.5498 12 1.5498Z" fill="black"/>
<path fill-rule="evenodd" clip-rule="evenodd" d="M11.5498 6.95957C11.8165 6.75957 12.1832 6.75957 12.4498 6.95957L16.6498 10.1096C16.9812 10.3581 17.0484 10.8282 16.7998 11.1596C16.5513 11.4909 16.0812 11.5581 15.7498 11.3096L11.9998 8.49707L8.24985 11.3096C7.91848 11.5581 7.44838 11.4909 7.19985 11.1596C6.95132 10.8282 7.01848 10.3581 7.34985 10.1096L11.5498 6.95957Z" fill="black"/>
<path fill-rule="evenodd" clip-rule="evenodd" d="M15.5447 15.1155L13.9335 15.8361C12.7012 16.3811 11.2998 16.3823 10.0743 15.835L8.46585 15.1157C7.72202 14.7889 7.08571 15.6775 7.57784 16.2719L7.58134 16.2761L11.0296 20.5041C11.3289 20.865 11.685 21.0102 12.0039 21.0102C12.3228 21.0102 12.6756 20.8651 12.9694 20.5056L16.4296 16.2753C16.9258 15.6699 16.2657 14.7958 15.5447 15.1155ZM17.5906 17.225C19.0934 15.3907 17.094 12.7855 14.9355 13.7448L14.9339 13.7455L13.3267 14.4643L13.3254 14.4649C12.478 14.8392 11.52 14.8378 10.686 14.4654L9.0763 13.7455L9.07297 13.7441C6.91831 12.793 4.89653 15.3811 6.4205 17.2262L9.86892 21.4542L9.87214 21.4581C10.4325 22.1358 11.2008 22.5102 12.0039 22.5102C12.8074 22.5102 13.5745 22.1354 14.1306 21.455L17.5906 17.225Z" fill="black"/>
</svg>
