<svg width="24" height="24" viewBox="0 0 24 24" fill="none" xmlns="http://www.w3.org/2000/svg">
<path fill-rule="evenodd" clip-rule="evenodd" d="M13.2888 1.83503L18.2802 7.92455C18.287 7.93289 18.2937 7.94138 18.3002 7.95C18.6618 8.43213 18.6133 9.02412 18.3127 9.425C18.0198 9.81547 17.4506 10.0509 16.8857 9.78106L12.1339 7.70214C12.0755 7.68405 12.0415 7.67801 12.025 7.676C12.017 7.67985 12.0089 7.68356 12.0008 7.68712L7.21449 9.78112C6.66009 10.0456 6.06822 9.82918 5.77612 9.39103C5.46733 8.92785 5.53717 8.32839 5.93937 7.90106L10.9115 1.83502C11.5114 1.05499 12.6889 1.05499 13.2888 1.83503ZM16.3161 7.89461L12.1201 2.77545C12.1133 2.76711 12.1066 2.75862 12.1002 2.75C12.0937 2.75862 12.087 2.76711 12.0802 2.77545L7.94007 7.8264L11.3847 6.31937C11.8182 6.11017 12.2338 6.15399 12.6373 6.28849C12.6588 6.29566 12.68 6.3038 12.7008 6.31288L16.3161 7.89461Z" fill="black"/>
<path fill-rule="evenodd" clip-rule="evenodd" d="M16.3161 16.1058L12.7008 17.6876C12.68 17.6967 12.6588 17.7048 12.6373 17.712C12.2338 17.8465 11.8182 17.8903 11.3847 17.6811L7.94007 16.1741L12.0802 21.225C12.087 21.2334 12.0937 21.2418 12.1002 21.2505C12.1066 21.2418 12.1133 21.2334 12.1201 21.225L16.3161 16.1058ZM18.3127 14.5755C18.6133 14.9763 18.6618 15.5683 18.3002 16.0505C18.2937 16.0591 18.287 16.0676 18.2802 16.0759L13.2888 22.1654C12.6889 22.9455 11.5114 22.9455 10.9115 22.1654L5.93937 16.0994C5.53717 15.6721 5.46733 15.0726 5.77612 14.6094C6.06822 14.1713 6.66009 13.9549 7.21449 14.2193L12.0008 16.3133C12.0089 16.3169 12.017 16.3206 12.025 16.3245C12.0415 16.3224 12.0755 16.3164 12.1339 16.2983L16.8857 14.2194C17.4506 13.9496 18.0198 14.185 18.3127 14.5755Z" fill="black"/>
<path fill-rule="evenodd" clip-rule="evenodd" d="M11.6644 8.72957C11.8755 8.624 12.1241 8.624 12.3352 8.72957L17.5352 11.3296C17.7893 11.4566 17.9498 11.7163 17.9498 12.0004C17.9498 12.2845 17.7893 12.5442 17.5352 12.6712L12.3352 15.2712C12.1241 15.3768 11.8755 15.3768 11.6644 15.2712L6.46439 12.6712C6.21031 12.5442 6.0498 12.2845 6.0498 12.0004C6.0498 11.7163 6.21031 11.4566 6.46439 11.3296L11.6644 8.72957ZM11.9998 10.2389L8.47686 12.0004L11.9998 13.7619L15.5228 12.0004L11.9998 10.2389Z" fill="black"/>
</svg>
