<svg width="24" height="24" viewBox="0 0 24 24" fill="none" xmlns="http://www.w3.org/2000/svg">
<path fill-rule="evenodd" clip-rule="evenodd" d="M11.9998 4.125C16.1239 4.12501 19.0201 5.99105 20.8582 7.8291C21.7739 8.74485 22.4336 9.65893 22.866 10.3457C23.0826 10.6897 23.2434 10.9795 23.3523 11.1875C23.4069 11.2916 23.4493 11.3763 23.4783 11.4365C23.4927 11.4664 23.5042 11.4909 23.5125 11.5088L23.5223 11.5303L23.5252 11.5381L23.5271 11.541C23.527 11.5417 23.5075 11.5521 22.4998 12L23.5281 11.543C23.6574 11.8339 23.6564 12.1671 23.5271 12.458L23.5252 12.4619L23.5223 12.4697L23.5125 12.4912C23.5042 12.5091 23.4927 12.5336 23.4783 12.5635C23.4493 12.6237 23.4069 12.7084 23.3523 12.8125C23.2434 13.0205 23.0826 13.3103 22.866 13.6543C22.4336 14.3411 21.7739 15.2552 20.8582 16.1709C19.0201 18.0089 16.1239 19.875 11.9998 19.875C7.87566 19.875 4.97945 18.0089 3.1414 16.1709C2.22566 15.2552 1.566 14.3411 1.13358 13.6543C0.916879 13.3101 0.755238 13.0205 0.64628 12.8125C0.591758 12.7084 0.550291 12.6237 0.52128 12.5635C0.506873 12.5335 0.495362 12.5091 0.4871 12.4912L0.477335 12.4697L0.474405 12.4619L0.472452 12.459C0.472642 12.4582 0.493161 12.4474 1.4998 12L0.471475 12.457C0.342192 12.1661 0.343169 11.8329 0.472452 11.542L0.474405 11.5381L0.477335 11.5303L0.4871 11.5088C0.495362 11.4909 0.506873 11.4665 0.52128 11.4365C0.550291 11.3763 0.591758 11.2916 0.64628 11.1875C0.755238 10.9795 0.916879 10.6899 1.13358 10.3457C1.566 9.65893 2.22566 8.74484 3.1414 7.8291C4.97945 5.99105 7.87566 4.125 11.9998 4.125ZM11.9998 6.375C8.62396 6.375 6.27014 7.88396 4.73319 9.4209C3.96147 10.1926 3.40234 10.9661 3.03788 11.5449C2.92992 11.7164 2.83964 11.8699 2.7664 12C2.83964 12.1301 2.92992 12.2836 3.03788 12.4551C3.40234 13.0339 3.96147 13.8074 4.73319 14.5791C6.27014 16.116 8.62396 17.625 11.9998 17.625C15.3756 17.625 17.7295 16.116 19.2664 14.5791C20.0381 13.8074 20.5973 13.0339 20.9617 12.4551C21.0697 12.2836 21.16 12.1301 21.2332 12C21.16 11.8699 21.0697 11.7164 20.9617 11.5449C20.5973 10.9661 20.0381 10.1926 19.2664 9.4209C17.7295 7.88396 15.3756 6.37501 11.9998 6.375ZM11.9998 8.25C14.0708 8.25002 15.7498 9.92894 15.7498 12C15.7498 14.0711 14.0708 15.75 11.9998 15.75C9.92873 15.75 8.2498 14.0711 8.2498 12C8.2498 9.92893 9.92873 8.25 11.9998 8.25Z" fill="black"/>
</svg>
