<svg width="24" height="24" viewBox="0 0 24 24" fill="none" xmlns="http://www.w3.org/2000/svg">
<path fill-rule="evenodd" clip-rule="evenodd" d="M11.9999 9.16992C10.4341 9.16992 9.16992 10.4341 9.16992 11.9999C9.16992 12.5103 9.30385 12.9864 9.54021 13.399L13.399 9.54021C12.9864 9.30385 12.5103 9.16992 11.9999 9.16992ZM7.66992 11.9999C7.66992 9.60571 9.60571 7.66992 11.9999 7.66992C13.1977 7.66992 14.276 8.15536 15.0603 8.93959C15.3531 9.23249 15.3531 9.70736 15.0603 10.0003L10.0003 15.0603C9.70736 15.3531 9.23249 15.3531 8.93959 15.0603C8.15536 14.276 7.66992 13.1977 7.66992 11.9999Z" fill="black"/>
<path fill-rule="evenodd" clip-rule="evenodd" d="M2.25734 9.00743C4.64826 5.24907 8.15186 2.98047 11.9998 2.98047C14.2495 2.98047 16.4053 3.76408 18.2715 5.1717C18.6022 5.42114 18.668 5.89142 18.4186 6.22211C18.1692 6.5528 17.6989 6.61867 17.3682 6.36923C15.7344 5.13686 13.8902 4.48047 11.9998 4.48047C8.78799 4.48047 5.71174 6.37167 3.52266 9.81301L3.52204 9.814C3.16745 10.3695 2.96484 11.1647 2.96484 12.0055C2.96484 12.8462 3.16745 13.6414 3.52204 14.1969C4.27581 15.3801 5.14895 16.3935 6.08887 17.2018C6.40292 17.4719 6.43857 17.9454 6.16848 18.2595C5.8984 18.5735 5.42486 18.6092 5.11081 18.3391C4.05073 17.4274 3.08354 16.3003 2.25731 15.0035C1.71213 14.1491 1.46484 13.0545 1.46484 12.0055C1.46484 10.9564 1.71214 9.86185 2.25734 9.00743Z" fill="black"/>
<path fill-rule="evenodd" clip-rule="evenodd" d="M19.58 7.3453C19.9028 7.08569 20.3749 7.13688 20.6345 7.45964C21.0184 7.93691 21.3955 8.44977 21.7434 8.99785C22.288 9.85209 22.5351 10.9461 22.5351 11.9947C22.5351 13.0438 22.2878 14.1383 21.7426 14.9927C19.3517 18.7511 15.8481 21.0197 12.0001 21.0197C10.6636 21.0197 9.35494 20.7371 8.12907 20.2209C7.74732 20.0602 7.56815 19.6204 7.72889 19.2387C7.88963 18.8569 8.32941 18.6777 8.71116 18.8385C9.76529 19.2823 10.8767 19.5197 12.0001 19.5197C15.212 19.5197 18.2882 17.6285 20.4773 14.1872L20.4779 14.1862C20.8325 13.6307 21.0351 12.8355 21.0351 11.9947C21.0351 11.154 20.8325 10.3588 20.4779 9.80324L20.4769 9.80158C20.1647 9.30966 19.8218 8.84251 19.4657 8.39978C19.2061 8.07702 19.2573 7.60492 19.58 7.3453Z" fill="black"/>
<path fill-rule="evenodd" clip-rule="evenodd" d="M15.6456 11.9628C16.0529 12.0379 16.3223 12.429 16.2472 12.8363C15.9308 14.5522 14.5414 15.9415 12.8256 16.2579C12.4182 16.333 12.0271 16.0637 11.952 15.6563C11.8769 15.249 12.1462 14.8579 12.5536 14.7828C13.6577 14.5792 14.5684 13.6685 14.772 12.5643C14.8471 12.157 15.2382 11.8876 15.6456 11.9628Z" fill="black"/>
<path fill-rule="evenodd" clip-rule="evenodd" d="M10.0003 13.9999C10.2932 14.2928 10.2931 14.7674 10.0003 15.0603L2.53033 22.5306C2.23744 22.8235 1.76256 22.8235 1.46967 22.5306C1.17678 22.2377 1.17678 21.7628 1.46967 21.4699L8.93967 13.9999C9.23256 13.7071 9.70744 13.7071 10.0003 13.9999Z" fill="black"/>
<path fill-rule="evenodd" clip-rule="evenodd" d="M22.5306 1.46967C22.8235 1.76256 22.8235 2.23744 22.5306 2.53033L15.0603 10.0003C14.7674 10.2931 14.2928 10.2932 13.9999 10.0003C13.7071 9.70744 13.7071 9.23256 13.9999 8.93967L21.4699 1.46967C21.7628 1.17678 22.2377 1.17678 22.5306 1.46967Z" fill="black"/>
</svg>
