<svg width="24" height="24" viewBox="0 0 24 24" fill="none" xmlns="http://www.w3.org/2000/svg">
<path fill-rule="evenodd" clip-rule="evenodd" d="M11.9999 9.16992C10.4341 9.16992 9.16992 10.4341 9.16992 11.9999C9.16992 13.5657 10.4341 14.8299 11.9999 14.8299C13.5657 14.8299 14.8299 13.5657 14.8299 11.9999C14.8299 10.4341 13.5657 9.16992 11.9999 9.16992ZM7.66992 11.9999C7.66992 9.60571 9.60571 7.66992 11.9999 7.66992C14.3941 7.66992 16.3299 9.60571 16.3299 11.9999C16.3299 14.3941 14.3941 16.3299 11.9999 16.3299C9.60571 16.3299 7.66992 14.3941 7.66992 11.9999Z" fill="black"/>
<path fill-rule="evenodd" clip-rule="evenodd" d="M2.25734 8.99669C4.64826 5.23833 8.15186 2.96973 11.9998 2.96973C15.848 2.96973 19.3517 5.23852 21.7427 8.99718C22.2876 9.85152 22.5348 10.9459 22.5348 11.9947C22.5348 13.0436 22.2876 14.1379 21.7427 14.9923C19.3517 18.7509 15.848 21.0197 11.9998 21.0197C8.1517 21.0197 4.64795 18.7509 2.25703 14.9923C1.71205 14.1379 1.46484 13.0436 1.46484 11.9947C1.46484 10.9457 1.71214 9.8511 2.25734 8.99669ZM11.9998 4.46973C8.78799 4.46973 5.71174 6.36093 3.52266 9.80227L3.52204 9.80325C3.16745 10.3588 2.96484 11.154 2.96484 11.9947C2.96484 12.8355 3.16745 13.6307 3.52204 14.1862L3.52266 14.1872C5.71174 17.6285 8.78799 19.5197 11.9998 19.5197C15.2117 19.5197 18.288 17.6285 20.477 14.1872L20.4777 14.1862C20.8322 13.6307 21.0348 12.8355 21.0348 11.9947C21.0348 11.154 20.8322 10.3588 20.4777 9.80325L20.477 9.80227C18.288 6.36093 15.2117 4.46973 11.9998 4.46973Z" fill="black"/>
</svg>
