<svg width="24" height="24" viewBox="0 0 24 24" fill="none" xmlns="http://www.w3.org/2000/svg">
<path fill-rule="evenodd" clip-rule="evenodd" d="M3.09467 3.09467C4.42914 1.7602 6.42603 1.25 9 1.25H15C17.574 1.25 19.5709 1.7602 20.9053 3.09467C22.2398 4.42914 22.75 6.42603 22.75 9V13C22.75 13.4142 22.4142 13.75 22 13.75C21.5858 13.75 21.25 13.4142 21.25 13V9C21.25 6.57397 20.7602 5.07086 19.8447 4.15533C18.9291 3.2398 17.426 2.75 15 2.75H9C6.57397 2.75 5.07086 3.2398 4.15533 4.15533C3.2398 5.07086 2.75 6.57397 2.75 9V15C2.75 17.426 3.2398 18.9291 4.15533 19.8447C5.07086 20.7602 6.57397 21.25 9 21.25H13C13.4142 21.25 13.75 21.5858 13.75 22C13.75 22.4142 13.4142 22.75 13 22.75H9C6.42603 22.75 4.42914 22.2398 3.09467 20.9053C1.7602 19.5709 1.25 17.574 1.25 15V9C1.25 6.42603 1.7602 4.42914 3.09467 3.09467Z" fill="black"/>
<path fill-rule="evenodd" clip-rule="evenodd" d="M17.1296 8.91704C17.457 9.17081 17.5167 9.64192 17.2629 9.96929L14.9485 12.955C14.3536 13.7074 13.2567 13.8446 12.4916 13.2533L12.4863 13.2492L10.6598 11.8119C10.5469 11.7262 10.3895 11.7475 10.3038 11.8581L7.9243 14.9475C7.67154 15.2756 7.20062 15.3367 6.87246 15.084C6.5443 14.8312 6.48318 14.3603 6.73593 14.0322L9.11666 10.9412C9.71057 10.1726 10.8118 10.0337 11.5787 10.6263L11.5839 10.6304L13.4105 12.0677C13.5245 12.1543 13.6852 12.132 13.7703 12.0265L16.0774 9.05031C16.3312 8.72293 16.8023 8.66327 17.1296 8.91704Z" fill="black"/>
<path fill-rule="evenodd" clip-rule="evenodd" d="M18.1923 16.1523L17.9105 16.7258C17.7753 16.9963 17.5611 17.2181 17.3497 17.3767C17.1395 17.5343 16.8646 17.68 16.563 17.7302L16.5567 17.7313L16.1801 17.7907C15.8584 17.8448 15.7662 17.9416 15.7461 17.9689C15.7464 18.0028 15.7636 18.1402 16.0018 18.3818L16.35 18.7301L16.3612 18.7415C16.5827 18.9726 16.7225 19.2672 16.7987 19.5357C16.8748 19.8036 16.9108 20.1281 16.8424 20.4407L16.8394 20.4541L16.7899 20.6618C16.7252 20.9415 16.7271 21.1252 16.7456 21.2273C16.7476 21.2379 16.7496 21.2472 16.7515 21.2552C16.7582 21.2547 16.7657 21.2539 16.7741 21.2528C16.8736 21.2398 17.0467 21.1864 17.2923 21.0382L17.3049 21.0308L17.5631 20.8818L17.5643 20.8811C17.8598 20.7099 18.1995 20.6454 18.4997 20.6454C18.7999 20.6454 19.1397 20.71 19.4352 20.8812L19.4363 20.8818L19.7057 21.0372C19.9486 21.183 20.1201 21.2357 20.2187 21.2485C20.2276 21.2496 20.2356 21.2504 20.2426 21.2509C20.2447 21.2426 20.2469 21.2329 20.249 21.2216C20.268 21.1202 20.271 20.9376 20.2089 20.6592L20.1569 20.4407C20.0886 20.1281 20.1247 19.8036 20.2007 19.5357C20.2769 19.2672 20.4168 18.9726 20.6382 18.7415L20.6494 18.7301L20.9977 18.3818C21.2358 18.1402 21.2531 18.0028 21.2534 17.9689C21.2332 17.9416 21.1411 17.8448 20.8194 17.7907L20.4428 17.7313C20.4342 17.7299 20.4257 17.7284 20.4172 17.7268C20.127 17.6706 19.8593 17.5324 19.6468 17.3735C19.435 17.2151 19.2237 16.9954 19.0889 16.7258L19.0866 16.7211L18.8077 16.1534L18.8072 16.1523C18.706 15.9484 18.6101 15.8395 18.5473 15.7883C18.5252 15.7703 18.5094 15.7608 18.4997 15.7561C18.49 15.7608 18.4742 15.7703 18.4522 15.7883C18.3894 15.8395 18.2934 15.9484 18.1923 16.1523ZM18.4997 14.2529C19.2757 14.2529 19.8296 14.8372 20.1518 15.4875L20.1529 15.4897L20.4308 16.0556L20.4323 16.0582C20.4336 16.0603 20.4355 16.0632 20.4381 16.067C20.4434 16.0746 20.451 16.0846 20.4614 16.0964C20.4827 16.1204 20.5112 16.1469 20.5452 16.1723C20.6136 16.2235 20.6715 16.2462 20.6961 16.2527L21.063 16.3106C21.7682 16.4281 22.4551 16.7929 22.6843 17.5128C22.9128 18.2302 22.5676 18.9271 22.0633 19.4375L22.06 19.4408L21.7196 19.7812C21.7181 19.783 21.7154 19.7863 21.7119 19.7914C21.7059 19.7999 21.6984 19.8119 21.6901 19.8275C21.6731 19.8595 21.6566 19.8999 21.6437 19.9452C21.6309 19.9904 21.6239 20.033 21.6216 20.0681C21.6197 20.0974 21.6216 20.1141 21.6222 20.1188L21.6715 20.326C21.8407 21.0789 21.818 21.9811 21.1389 22.4781C20.458 22.9765 19.596 22.7193 18.9397 22.327L18.6849 22.1801L18.6831 22.179C18.6688 22.1707 18.6041 22.1454 18.4997 22.1454C18.3953 22.1454 18.3306 22.1707 18.3163 22.179L18.3145 22.1801L18.0605 22.3266C17.4003 22.7232 16.5338 22.9831 15.8513 22.4807C15.1712 21.9799 15.1547 21.0732 15.3291 20.321L15.3301 20.3168L15.3772 20.1188C15.3779 20.1141 15.3797 20.0974 15.3778 20.0681C15.3756 20.033 15.3685 19.9904 15.3557 19.9452C15.3429 19.8999 15.3264 19.8595 15.3094 19.8275C15.3011 19.8119 15.2935 19.7999 15.2875 19.7914C15.284 19.7863 15.2814 19.783 15.2798 19.7812L14.9362 19.4375C14.4319 18.9271 14.0866 18.2302 14.3151 17.5128C14.5444 16.7929 15.2312 16.4282 15.9364 16.3106L15.9427 16.3096L16.3152 16.2508C16.3172 16.2502 16.33 16.2468 16.3526 16.2362C16.3809 16.2229 16.4148 16.2029 16.4497 16.1767C16.4846 16.1505 16.5144 16.1228 16.537 16.0973C16.548 16.0849 16.5561 16.0744 16.5616 16.0665C16.5659 16.0603 16.5687 16.0554 16.5687 16.0554L16.8477 15.4875C17.1698 14.8372 17.7237 14.2529 18.4997 14.2529Z" fill="black"/>
</svg>
