<svg width="24" height="24" viewBox="0 0 24 24" fill="none" xmlns="http://www.w3.org/2000/svg">
<path fill-rule="evenodd" clip-rule="evenodd" d="M4.5498 5.3C4.5498 3.07128 6.40024 1.25 8.6998 1.25H12.7498V9.35H8.5998C6.38559 9.35 4.5498 7.51421 4.5498 5.3ZM8.6998 2.75C7.19936 2.75 6.0498 3.92872 6.0498 5.3C6.0498 6.68579 7.21402 7.85 8.5998 7.85H11.2498V2.75H8.6998Z" fill="black"/>
<path fill-rule="evenodd" clip-rule="evenodd" d="M4.65039 12.0002C4.65039 9.78598 6.48618 7.9502 8.70039 7.9502H12.7504V16.0502H8.70039C6.48618 16.0502 4.65039 14.2144 4.65039 12.0002ZM8.70039 9.4502C7.3146 9.4502 6.15039 10.6144 6.15039 12.0002C6.15039 13.386 7.3146 14.5502 8.70039 14.5502H11.2504V9.4502H8.70039Z" fill="black"/>
<path fill-rule="evenodd" clip-rule="evenodd" d="M4.65039 18.5998C4.65039 16.3856 6.48618 14.5502 8.70039 14.5502L12.7504 14.5498V18.5998C12.7504 20.814 10.9146 22.6498 8.70039 22.6498C6.48618 22.6498 4.65039 20.814 4.65039 18.5998ZM8.70039 16.0502C7.3146 16.0502 6.15039 17.214 6.15039 18.5998C6.15039 19.9856 7.3146 21.1498 8.70039 21.1498C10.0862 21.1498 11.2504 19.9856 11.2504 18.5998V16.0498L8.70039 16.0502Z" fill="black"/>
<path fill-rule="evenodd" clip-rule="evenodd" d="M11.25 1.25H15.3C17.5142 1.25 19.35 3.08579 19.35 5.3C19.35 7.51421 17.5142 9.35 15.3 9.35H11.25V1.25ZM12.75 2.75V7.85H15.3C16.6858 7.85 17.85 6.68579 17.85 5.3C17.85 3.91421 16.6858 2.75 15.3 2.75H12.75Z" fill="black"/>
<path fill-rule="evenodd" clip-rule="evenodd" d="M15.3 9.4502C13.9142 9.4502 12.75 10.6144 12.75 12.0002C12.75 13.386 13.9142 14.5502 15.3 14.5502C16.6858 14.5502 17.85 13.386 17.85 12.0002C17.85 10.6144 16.6858 9.4502 15.3 9.4502ZM11.25 12.0002C11.25 9.78598 13.0858 7.9502 15.3 7.9502C17.5142 7.9502 19.35 9.78598 19.35 12.0002C19.35 14.2144 17.5142 16.0502 15.3 16.0502C13.0858 16.0502 11.25 14.2144 11.25 12.0002Z" fill="black"/>
</svg>
