<svg width="24" height="24" viewBox="0 0 24 24" fill="none" xmlns="http://www.w3.org/2000/svg">
<path fill-rule="evenodd" clip-rule="evenodd" d="M5.33057 2.75977C4.65829 2.75977 4.06055 3.31006 4.06055 4.12976V6.44977C4.06055 6.61266 4.12031 6.88206 4.25858 7.19028C4.39405 7.49224 4.57429 7.76286 4.75085 7.93943L4.76413 7.95305L8.60416 11.9931C8.61677 12.0063 8.62889 12.0201 8.6405 12.0342C8.90324 12.3546 9.14185 12.7772 9.31581 13.2129C9.48853 13.6454 9.62054 14.1481 9.62054 14.6298V19.9798C9.62054 20.9691 10.7555 21.5821 11.6007 21.0652L13.0038 20.1596L13.021 20.1489C13.1212 20.0879 13.267 19.9356 13.3913 19.6963C13.5137 19.4609 13.5706 19.2269 13.5706 19.0698C13.5706 18.6556 13.9063 18.3198 14.3206 18.3198C14.7348 18.3198 15.0706 18.6556 15.0706 19.0698C15.0706 19.5226 14.9274 19.9936 14.7222 20.3882C14.5207 20.7759 14.2147 21.1753 13.8098 21.4247L12.4073 22.3299L12.395 22.3377C10.6207 23.4348 8.12054 22.2283 8.12054 19.9798V14.6298C8.12054 14.4014 8.05256 14.0941 7.92278 13.7692C7.79878 13.4586 7.63954 13.1849 7.49624 13.0047L3.68298 8.99285C3.35279 8.66038 3.08062 8.22919 2.88999 7.80425C2.70077 7.38247 2.56055 6.89688 2.56055 6.44977V4.12976C2.56055 2.52946 3.78284 1.25977 5.33057 1.25977H18.6705C20.1947 1.25977 21.4406 2.50553 21.4406 4.02975V6.24976C21.4406 6.79727 21.2727 7.36133 21.0553 7.83744C20.8371 8.31561 20.5378 8.7732 20.2109 9.10009C19.918 9.39299 19.4431 9.39299 19.1502 9.10009C18.8573 8.8072 18.8573 8.33233 19.1502 8.03943C19.3233 7.86633 19.529 7.56891 19.6908 7.21457C19.8534 6.85818 19.9406 6.51224 19.9406 6.24976V4.02975C19.9406 3.33398 19.3663 2.75977 18.6705 2.75977H5.33057Z" fill="black"/>
<path fill-rule="evenodd" clip-rule="evenodd" d="M16.0701 10.8701C14.717 10.8701 13.6201 11.967 13.6201 13.3201C13.6201 14.6732 14.717 15.7701 16.0701 15.7701C17.4232 15.7701 18.5201 14.6732 18.5201 13.3201C18.5201 11.967 17.4232 10.8701 16.0701 10.8701ZM12.1201 13.3201C12.1201 11.1386 13.8886 9.37012 16.0701 9.37012C18.2517 9.37012 20.0201 11.1386 20.0201 13.3201C20.0201 15.5017 18.2516 17.2701 16.0701 17.2701C13.8886 17.2701 12.1201 15.5017 12.1201 13.3201Z" fill="black"/>
<path fill-rule="evenodd" clip-rule="evenodd" d="M18.3398 15.5898C18.6327 15.2969 19.1076 15.2969 19.4004 15.5898L20.4004 16.5898C20.6933 16.8827 20.6933 17.3576 20.4004 17.6504C20.1076 17.9433 19.6327 17.9433 19.3398 17.6504L18.3398 16.6504C18.0469 16.3576 18.0469 15.8827 18.3398 15.5898Z" fill="black"/>
</svg>
