<svg width="24" height="24" viewBox="0 0 24 24" fill="none" xmlns="http://www.w3.org/2000/svg">
<path fill-rule="evenodd" clip-rule="evenodd" d="M5.33057 2.75977C4.65829 2.75977 4.06055 3.31006 4.06055 4.12976V6.44977C4.06055 6.61266 4.12031 6.88206 4.25858 7.19028C4.39405 7.49224 4.57429 7.76286 4.75085 7.93943L4.76413 7.95305L8.60416 11.9931C8.61677 12.0063 8.62889 12.0201 8.6405 12.0342C8.90324 12.3546 9.14185 12.7772 9.31581 13.2129C9.48853 13.6454 9.62054 14.1481 9.62054 14.6298V19.9798C9.62054 20.9691 10.7555 21.5821 11.6007 21.0652L13.0038 20.1596C13.3518 19.935 13.8161 20.035 14.0407 20.3831C14.2653 20.7311 14.1652 21.1953 13.8172 21.4199L12.4073 22.3299L12.395 22.3377C10.6207 23.4348 8.12054 22.2283 8.12054 19.9798V14.6298C8.12054 14.4014 8.05256 14.0941 7.92278 13.7692C7.79878 13.4586 7.63954 13.1849 7.49624 13.0047L3.68298 8.99285C3.35279 8.66038 3.08062 8.22919 2.88999 7.80425C2.70077 7.38247 2.56055 6.89688 2.56055 6.44977V4.12976C2.56055 2.52946 3.78284 1.25977 5.33057 1.25977H18.6705C20.1947 1.25977 21.4406 2.50553 21.4406 4.02975V6.24976C21.4406 6.79727 21.2727 7.36133 21.0553 7.83744C20.8371 8.31561 20.5378 8.7732 20.2109 9.10009C19.918 9.39299 19.4431 9.39299 19.1502 9.10009C18.8573 8.8072 18.8573 8.33233 19.1502 8.03943C19.3233 7.86633 19.529 7.56891 19.6908 7.21457C19.8534 6.85818 19.9406 6.51224 19.9406 6.24976V4.02975C19.9406 3.33398 19.3663 2.75977 18.6705 2.75977H5.33057Z" fill="black"/>
<path fill-rule="evenodd" clip-rule="evenodd" d="M18.0033 10.576C18.6665 10.5079 19.2768 10.8058 19.8203 11.3493C20.3669 11.8958 20.6684 12.5074 20.6026 13.1722C20.5407 13.7973 20.1679 14.2823 19.8203 14.6299L16.2879 18.1623C16.1413 18.3159 15.961 18.4276 15.8128 18.5017C15.657 18.5796 15.4676 18.6503 15.2769 18.6804L15.2645 18.6824L13.916 18.8721C13.4745 18.9349 13.0186 18.8188 12.6896 18.4899C12.3607 18.161 12.2445 17.7059 12.3074 17.2644L12.499 15.9026C12.5296 15.7089 12.6019 15.5206 12.6795 15.3673C12.757 15.2139 12.8673 15.0416 13.0096 14.8992L16.5497 11.3593C16.8973 11.0116 17.3812 10.6399 18.0033 10.576ZM18.1566 12.0682C18.0488 12.0792 17.8727 12.1576 17.6103 12.4199L14.0716 15.9586C14.0716 15.9586 14.0655 15.9655 14.0562 15.9791C14.0444 15.9963 14.0309 16.0187 14.018 16.0444C14.005 16.07 13.9949 16.0942 13.9879 16.114C13.9836 16.1264 13.9816 16.1342 13.9808 16.1372L13.8069 17.3726L15.043 17.1987C15.0462 17.1979 15.0553 17.1956 15.0701 17.1905C15.0915 17.1832 15.1166 17.1727 15.1421 17.16C15.1678 17.1472 15.1882 17.1348 15.2018 17.1253C15.205 17.1231 15.2074 17.1214 15.209 17.1201C15.2125 17.1165 15.2161 17.1129 15.2196 17.1093L18.7596 13.5693C19.022 13.3069 19.0992 13.1318 19.1099 13.0245C19.1166 12.9568 19.113 12.7633 18.7596 12.4099C18.4131 12.0634 18.2234 12.0613 18.1566 12.0682Z" fill="black"/>
<path fill-rule="evenodd" clip-rule="evenodd" d="M16.3795 11.6672C16.7786 11.5563 17.192 11.79 17.3029 12.1891C17.5325 13.0156 18.1744 13.6576 19.001 13.8872C19.4001 13.998 19.6337 14.4114 19.5229 14.8105C19.412 15.2096 18.9986 15.4433 18.5995 15.3324C17.2661 14.962 16.228 13.924 15.8576 12.5906C15.7468 12.1915 15.9804 11.7781 16.3795 11.6672Z" fill="black"/>
</svg>
