<svg width="24" height="24" viewBox="0 0 24 24" fill="none" xmlns="http://www.w3.org/2000/svg">
<path fill-rule="evenodd" clip-rule="evenodd" d="M8.16 7.40039C7.9588 7.40039 7.75 7.55958 7.75 7.87039V9.20039C7.75 9.23471 7.76806 9.34758 7.83678 9.50241C7.9034 9.65253 7.98405 9.7659 8.04095 9.82084C8.04885 9.82847 8.05659 9.83628 8.06416 9.84426L10.2742 12.1743C10.2858 12.1865 10.297 12.1992 10.3078 12.2122C10.4857 12.4272 10.6399 12.6998 10.7508 12.9755C10.8605 13.248 10.95 13.5787 10.95 13.9104V16.9904C10.95 17.2973 11.3136 17.521 11.6035 17.3437L12.4117 16.8349C12.4117 16.8349 12.4235 16.8253 12.4403 16.8054C12.4629 16.7786 12.4886 16.7409 12.5126 16.6946C12.5658 16.5918 12.58 16.5075 12.58 16.4804V13.9804C12.58 13.6321 12.663 13.2707 12.7977 12.9514C12.9294 12.6393 13.1332 12.3138 13.421 12.0716L15.8923 9.88703C15.9591 9.81568 16.0502 9.68485 16.1256 9.51834C16.2067 9.33949 16.24 9.18506 16.24 9.09039V7.81039C16.24 7.5846 16.0558 7.40039 15.83 7.40039H8.16ZM6.25 7.87039C6.25 6.7812 7.0812 5.90039 8.16 5.90039H15.83C16.8842 5.90039 17.74 6.75618 17.74 7.81039V9.09039C17.74 9.46572 17.6283 9.83629 17.4919 10.1374C17.3547 10.4402 17.1626 10.7384 16.9403 10.9607C16.9295 10.9716 16.9183 10.9821 16.9067 10.9923L14.4067 13.2023C14.4007 13.2076 14.3947 13.2128 14.3885 13.2179C14.3318 13.2649 14.2491 13.3702 14.1798 13.5344C14.112 13.6951 14.08 13.8587 14.08 13.9804V16.4804C14.08 16.8033 13.9792 17.124 13.8449 17.3837C13.7129 17.6389 13.5035 17.9218 13.2081 18.106L12.3945 18.6183C11.1648 19.3788 9.45 18.5427 9.45 16.9904V13.9104C9.45 13.8321 9.42455 13.6978 9.3592 13.5353C9.29946 13.3868 9.22527 13.2618 9.16519 13.1848L6.98573 10.8869C6.75911 10.6637 6.58429 10.378 6.46572 10.1109C6.34694 9.8432 6.25 9.51607 6.25 9.20039V7.87039Z" fill="black"/>
<path fill-rule="evenodd" clip-rule="evenodd" d="M3.09467 3.09467C4.42914 1.7602 6.42603 1.25 9 1.25H15C17.574 1.25 19.5709 1.7602 20.9053 3.09467C22.2398 4.42914 22.75 6.42603 22.75 9V15C22.75 17.574 22.2398 19.5709 20.9053 20.9053C19.5709 22.2398 17.574 22.75 15 22.75H9C6.42603 22.75 4.42914 22.2398 3.09467 20.9053C1.7602 19.5709 1.25 17.574 1.25 15V9C1.25 6.42603 1.7602 4.42914 3.09467 3.09467ZM4.15533 4.15533C3.2398 5.07086 2.75 6.57397 2.75 9V15C2.75 17.426 3.2398 18.9291 4.15533 19.8447C5.07086 20.7602 6.57397 21.25 9 21.25H15C17.426 21.25 18.9291 20.7602 19.8447 19.8447C20.7602 18.9291 21.25 17.426 21.25 15V9C21.25 6.57397 20.7602 5.07086 19.8447 4.15533C18.9291 3.2398 17.426 2.75 15 2.75H9C6.57397 2.75 5.07086 3.2398 4.15533 4.15533Z" fill="black"/>
</svg>
