<svg width="24" height="24" viewBox="0 0 24 24" fill="none" xmlns="http://www.w3.org/2000/svg">
<path fill-rule="evenodd" clip-rule="evenodd" d="M10.9179 1.35069H5.39941C3.86144 1.35069 2.64941 2.61064 2.64941 4.20069V6.50069C2.64941 6.94392 2.79032 7.42735 2.97753 7.84498C3.16624 8.26595 3.43566 8.69522 3.76179 9.0237L7.53176 12.9921C7.67356 13.1753 7.83071 13.4484 7.95306 13.7542C8.08221 14.0771 8.14941 14.3788 8.14941 14.6007V19.9007C8.14941 22.1317 10.631 23.3234 12.3925 22.2394L12.405 22.2316L13.7965 21.337C14.1999 21.091 14.5035 20.6916 14.7023 20.3092C14.9054 19.9186 15.0494 19.4499 15.0494 19.0007V14.7007C15.0494 14.416 15.123 14.0655 15.2648 13.7311C15.4081 13.3934 15.5965 13.1294 15.7796 12.9769C15.7851 12.9722 15.7906 12.9675 15.7961 12.9627L20.0961 9.16268C20.1076 9.15248 20.1188 9.14192 20.1297 9.13102C20.457 8.80381 20.7539 8.34833 20.9697 7.87354C21.1846 7.40077 21.3494 6.84221 21.3494 6.30069V4.10069C21.3494 2.58647 20.1136 1.35069 18.5994 1.35069H10.9425C10.9343 1.35055 10.9261 1.35055 10.9179 1.35069ZM9.57742 2.85069H5.39941C4.73739 2.85069 4.14941 3.39073 4.14941 4.20069V6.50069C4.14941 6.65745 4.20851 6.92402 4.3463 7.2314C4.48118 7.53229 4.65915 7.79977 4.82974 7.97036L4.84316 7.98413L5.76702 8.9566L9.57742 2.85069ZM6.83414 10.0799L11.3455 2.85069H18.5994C19.2852 2.85069 19.8494 3.4149 19.8494 4.10069V6.30069C19.8494 6.55917 19.7642 6.90061 19.6041 7.25284C19.4494 7.59328 19.2532 7.8811 19.0836 8.05563L14.8102 11.8321C14.3978 12.179 14.0892 12.6615 13.884 13.1453C13.6759 13.6359 13.5494 14.1853 13.5494 14.7007V19.0007C13.5494 19.1515 13.4934 19.3828 13.3715 19.6172C13.2472 19.8562 13.1046 20.003 13.0135 20.0576C13.0069 20.0615 13.0003 20.0656 12.9938 20.0698L11.6008 20.9654C10.7629 21.4752 9.64941 20.8675 9.64941 19.9007V14.6007C9.64941 14.1226 9.51661 13.6243 9.34577 13.1971C9.17332 12.766 8.93869 12.3492 8.68507 12.0322C8.67179 12.0156 8.65781 11.9995 8.64316 11.9841L6.83414 10.0799Z" fill="black"/>
<path fill-rule="evenodd" clip-rule="evenodd" d="M10.9179 1.35069H5.39941C3.86144 1.35069 2.64941 2.61064 2.64941 4.20069V6.50069C2.64941 6.94392 2.79032 7.42735 2.97753 7.84498C3.16624 8.26595 3.43566 8.69522 3.76179 9.0237L7.53176 12.9921C7.67356 13.1753 7.83071 13.4484 7.95306 13.7542C8.08221 14.0771 8.14941 14.3788 8.14941 14.6007V19.9007C8.14941 22.1317 10.631 23.3234 12.3925 22.2394L12.405 22.2316L13.7965 21.337C14.1999 21.091 14.5035 20.6916 14.7023 20.3092C14.9054 19.9186 15.0494 19.4499 15.0494 19.0007V14.7007C15.0494 14.416 15.123 14.0655 15.2648 13.7311C15.4081 13.3934 15.5965 13.1294 15.7796 12.9769C15.7851 12.9722 15.7906 12.9675 15.7961 12.9627L20.0961 9.16268C20.1076 9.15248 20.1188 9.14192 20.1297 9.13102C20.457 8.80381 20.7539 8.34833 20.9697 7.87354C21.1846 7.40077 21.3494 6.84221 21.3494 6.30069V4.10069C21.3494 2.58647 20.1136 1.35069 18.5994 1.35069H10.9425C10.9343 1.35055 10.9261 1.35055 10.9179 1.35069ZM9.57742 2.85069H5.39941C4.73739 2.85069 4.14941 3.39073 4.14941 4.20069V6.50069C4.14941 6.65745 4.20851 6.92402 4.3463 7.2314C4.48118 7.53229 4.65915 7.79977 4.82974 7.97036L4.84316 7.98413L5.76702 8.9566L9.57742 2.85069ZM6.83414 10.0799L11.3455 2.85069H18.5994C19.2852 2.85069 19.8494 3.4149 19.8494 4.10069V6.30069C19.8494 6.55917 19.7642 6.90061 19.6041 7.25284C19.4494 7.59328 19.2532 7.8811 19.0836 8.05563L14.8102 11.8321C14.3978 12.179 14.0892 12.6615 13.884 13.1453C13.6759 13.6359 13.5494 14.1853 13.5494 14.7007V19.0007C13.5494 19.1515 13.4934 19.3828 13.3715 19.6172C13.2472 19.8562 13.1046 20.003 13.0135 20.0576C13.0069 20.0615 13.0003 20.0656 12.9938 20.0698L11.6008 20.9654C10.7629 21.4752 9.64941 20.8675 9.64941 19.9007V14.6007C9.64941 14.1226 9.51661 13.6243 9.34577 13.1971C9.17332 12.766 8.93869 12.3492 8.68507 12.0322C8.67179 12.0156 8.65781 11.9995 8.64316 11.9841L6.83414 10.0799Z" fill="black"/>
</svg>
