<svg width="24" height="24" viewBox="0 0 24 24" fill="none" xmlns="http://www.w3.org/2000/svg">
<path fill-rule="evenodd" clip-rule="evenodd" d="M11.9996 9.85938C11.5038 9.85938 11.0996 10.2636 11.0996 10.7594V13.2294C11.0996 13.7252 11.5038 14.1294 11.9996 14.1294C12.4954 14.1294 12.8996 13.7252 12.8996 13.2294V10.7594C12.8996 10.2636 12.4954 9.85938 11.9996 9.85938ZM9.59961 10.7594C9.59961 9.4352 10.6754 8.35938 11.9996 8.35938C13.3238 8.35938 14.3996 9.4352 14.3996 10.7594V13.2294C14.3996 14.5536 13.3238 15.6294 11.9996 15.6294C10.6754 15.6294 9.59961 14.5536 9.59961 13.2294V10.7594Z" fill="black"/>
<path fill-rule="evenodd" clip-rule="evenodd" d="M12 6.67969C9.65421 6.67969 7.75 8.5839 7.75 10.9297V13.0697C7.75 15.4155 9.65421 17.3197 12 17.3197C14.227 17.3197 16.0624 15.6024 16.2322 13.4117C16.2643 12.9987 16.625 12.6899 17.038 12.7219C17.4509 12.7539 17.7598 13.1147 17.7278 13.5276C17.4976 16.4969 15.013 18.8197 12 18.8197C8.82579 18.8197 6.25 16.2439 6.25 13.0697V10.9297C6.25 7.75547 8.82579 5.17969 12 5.17969C14.9786 5.17969 17.4286 7.44504 17.7163 10.3456C17.7572 10.7578 17.4562 11.1251 17.044 11.166C16.6319 11.2069 16.2646 10.9059 16.2237 10.4937C16.0114 8.35431 14.2014 6.67969 12 6.67969Z" fill="black"/>
<path fill-rule="evenodd" clip-rule="evenodd" d="M14.25 2C14.25 1.58579 14.5858 1.25 15 1.25H17C18.6704 1.25 20.1207 1.81009 21.1553 2.84467C22.1899 3.87925 22.75 5.32956 22.75 7V9C22.75 9.41421 22.4142 9.75 22 9.75C21.5858 9.75 21.25 9.41421 21.25 9V7C21.25 5.67044 20.8101 4.62075 20.0947 3.90533C19.3793 3.18991 18.3296 2.75 17 2.75H15C14.5858 2.75 14.25 2.41421 14.25 2Z" fill="black"/>
<path fill-rule="evenodd" clip-rule="evenodd" d="M3.90533 3.90533C3.18991 4.62075 2.75 5.67044 2.75 7V9C2.75 9.41421 2.41421 9.75 2 9.75C1.58579 9.75 1.25 9.41421 1.25 9V7C1.25 5.32956 1.81009 3.87925 2.84467 2.84467C3.87925 1.81009 5.32956 1.25 7 1.25H9C9.41421 1.25 9.75 1.58579 9.75 2C9.75 2.41421 9.41421 2.75 9 2.75H7C5.67044 2.75 4.62075 3.18991 3.90533 3.90533Z" fill="black"/>
<path fill-rule="evenodd" clip-rule="evenodd" d="M22 14.25C22.4142 14.25 22.75 14.5858 22.75 15V17C22.75 18.6704 22.1899 20.1207 21.1553 21.1553C20.1207 22.1899 18.6704 22.75 17 22.75H15C14.5858 22.75 14.25 22.4142 14.25 22C14.25 21.5858 14.5858 21.25 15 21.25H17C18.3296 21.25 19.3793 20.8101 20.0947 20.0947C20.8101 19.3793 21.25 18.3296 21.25 17V15C21.25 14.5858 21.5858 14.25 22 14.25Z" fill="black"/>
<path fill-rule="evenodd" clip-rule="evenodd" d="M2 14.25C2.41421 14.25 2.75 14.5858 2.75 15V17C2.75 18.3296 3.18991 19.3793 3.90533 20.0947C4.62075 20.8101 5.67044 21.25 7 21.25H9C9.41421 21.25 9.75 21.5858 9.75 22C9.75 22.4142 9.41421 22.75 9 22.75H7C5.32956 22.75 3.87925 22.1899 2.84467 21.1553C1.81009 20.1207 1.25 18.6704 1.25 17V15C1.25 14.5858 1.58579 14.25 2 14.25Z" fill="black"/>
</svg>
