<svg width="24" height="24" viewBox="0 0 24 24" fill="none" xmlns="http://www.w3.org/2000/svg">
<path fill-rule="evenodd" clip-rule="evenodd" d="M6.4502 1.25C6.86441 1.25 7.2002 1.58579 7.2002 2V22C7.2002 22.4142 6.86441 22.75 6.4502 22.75C6.03598 22.75 5.7002 22.4142 5.7002 22V2C5.7002 1.58579 6.03598 1.25 6.4502 1.25Z" fill="black"/>
<path fill-rule="evenodd" clip-rule="evenodd" d="M6.26191 3.7027C6.42621 3.32247 6.86764 3.14742 7.24788 3.31171L15.3457 6.81076C17.0802 7.54721 18.2636 8.67932 18.3001 10.106C18.3365 11.5229 17.2254 12.7248 15.5944 13.5667L15.5826 13.5727L7.28255 17.6726C6.91118 17.8561 6.4614 17.7037 6.27795 17.3324C6.0945 16.961 6.24685 16.5112 6.61822 16.3278L14.9121 12.2308C16.3765 11.4735 16.8143 10.6768 16.8006 10.1444C16.7872 9.62171 16.3216 8.8542 14.7575 8.19063L14.7529 8.18868L6.6529 4.68867C6.27266 4.52437 6.09761 4.08294 6.26191 3.7027Z" fill="black"/>
</svg>
