<svg width="24" height="24" viewBox="0 0 24 24" fill="none" xmlns="http://www.w3.org/2000/svg">
<path fill-rule="evenodd" clip-rule="evenodd" d="M12 2.75C6.89137 2.75 2.75 6.89137 2.75 12C2.75 17.1086 6.89137 21.25 12 21.25C17.1086 21.25 21.25 17.1086 21.25 12C21.25 6.89137 17.1086 2.75 12 2.75ZM1.25 12C1.25 6.06294 6.06294 1.25 12 1.25C17.9371 1.25 22.75 6.06294 22.75 12C22.75 17.9371 17.9371 22.75 12 22.75C6.06294 22.75 1.25 17.9371 1.25 12Z" fill="black"/>
<path fill-rule="evenodd" clip-rule="evenodd" d="M15.4186 7.17829C15.4604 7.45437 15.4278 7.74645 15.359 8.02766L15.3585 8.02969L14.5885 11.1424L15.5147 11.3725C15.974 11.4889 16.5718 11.787 16.6909 12.4417C16.8097 13.0953 16.3565 13.5845 15.9699 13.8545L15.9677 13.856L10.7895 17.4447L10.7885 17.4454C10.5514 17.6107 10.2913 17.7462 10.0194 17.807C9.74387 17.8686 9.3928 17.8638 9.07998 17.6502C8.76686 17.4363 8.63479 17.1107 8.59239 16.8309C8.55055 16.5548 8.5832 16.2627 8.65194 15.9815L8.65244 15.9795L9.42249 12.8667L8.4963 12.6366C8.03695 12.5202 7.4391 12.2221 7.32008 11.5675C7.20124 10.9139 7.65456 10.4247 8.04105 10.1547L8.04327 10.1532L13.2215 6.56441L13.2224 6.56373C13.4596 6.39848 13.7197 6.26297 13.9915 6.20219C14.2671 6.14058 14.6182 6.14535 14.931 6.35902C15.2441 6.57288 15.3762 6.89853 15.4186 7.17829ZM13.8284 7.96881L12.9524 11.5095C12.853 11.9113 13.0979 12.3177 13.4996 12.4175L14.9059 12.7669L10.1826 16.0403L11.0585 12.4997C11.1579 12.0979 10.913 11.6915 10.5113 11.5917L9.10514 11.2423L13.8284 7.96881Z" fill="black"/>
</svg>
