<svg width="24" height="24" viewBox="0 0 24 24" fill="none" xmlns="http://www.w3.org/2000/svg">
<path fill-rule="evenodd" clip-rule="evenodd" d="M15.3441 2.22904C15.497 2.59908 15.5604 3.04179 15.5604 3.52015V9.97015H17.9004C18.6945 9.97015 19.5511 10.2131 19.8965 10.9777C20.2419 11.7427 19.8568 12.5444 19.3326 13.1366C19.3324 13.1369 19.3321 13.1371 19.3319 13.1374L11.7634 21.7357C11.4474 22.0944 11.1072 22.3848 10.7483 22.5618C10.3862 22.7404 9.94663 22.8285 9.51058 22.6648C9.07412 22.5009 8.80121 22.1449 8.64681 21.7713C8.49391 21.4012 8.43044 20.9585 8.43044 20.4801V14.0301H6.09044C5.30193 14.0301 4.44807 13.7901 4.10232 13.0273C3.75733 12.2661 4.13661 11.4647 4.65402 10.8685L4.65745 10.8646L12.2275 2.2646C12.5435 1.90587 12.8837 1.61545 13.2426 1.43845C13.6047 1.25987 14.0442 1.17179 14.4803 1.3355C14.9168 1.49936 15.1897 1.85538 15.3441 2.22904ZM13.3534 3.25569C13.5923 2.98457 13.7822 2.84483 13.9061 2.78372C13.9197 2.77701 13.9317 2.77159 13.9422 2.76721C13.947 2.77705 13.9522 2.78854 13.9577 2.80188C14.0102 2.92872 14.0604 3.1585 14.0604 3.52015V10.7201C14.0604 11.1344 14.3962 11.4701 14.8104 11.4701H17.9004C18.1824 11.4701 18.36 11.5146 18.4573 11.5578C18.4937 11.574 18.5145 11.5877 18.5257 11.5966C18.5249 11.6106 18.5214 11.6349 18.5098 11.6719C18.4782 11.7722 18.3945 11.9334 18.209 12.1429L18.2075 12.1446L10.6377 20.7444C10.3987 21.0156 10.2087 21.1554 10.0848 21.2166C10.0712 21.2233 10.0592 21.2287 10.0486 21.2331C10.0438 21.2232 10.0386 21.2118 10.0331 21.1984C9.98071 21.0716 9.93044 20.8418 9.93044 20.4801V13.2801C9.93044 12.8659 9.59465 12.5301 9.18044 12.5301H6.09044C5.81056 12.5301 5.63466 12.4862 5.53865 12.4436C5.50346 12.428 5.48309 12.4148 5.47211 12.4061C5.47276 12.3918 5.47615 12.3669 5.48798 12.3287C5.51934 12.2271 5.60214 12.0649 5.78527 11.8536L13.3534 3.25569C13.3535 3.25562 13.3533 3.25577 13.3534 3.25569Z" fill="black"/>
<path fill-rule="evenodd" clip-rule="evenodd" d="M15.3441 2.22904C15.497 2.59908 15.5604 3.04179 15.5604 3.52015V9.97015H17.9004C18.6945 9.97015 19.5511 10.2131 19.8965 10.9777C20.2419 11.7427 19.8568 12.5444 19.3326 13.1366C19.3324 13.1369 19.3321 13.1371 19.3319 13.1374L11.7634 21.7357C11.4474 22.0944 11.1072 22.3848 10.7483 22.5618C10.3862 22.7404 9.94663 22.8285 9.51058 22.6648C9.07412 22.5009 8.80121 22.1449 8.64681 21.7713C8.49391 21.4012 8.43044 20.9585 8.43044 20.4801V14.0301H6.09044C5.30193 14.0301 4.44807 13.7901 4.10232 13.0273C3.75733 12.2661 4.13661 11.4647 4.65402 10.8685L4.65745 10.8646L12.2275 2.2646C12.5435 1.90587 12.8837 1.61545 13.2426 1.43845C13.6047 1.25987 14.0442 1.17179 14.4803 1.3355C14.9168 1.49936 15.1897 1.85538 15.3441 2.22904ZM13.3534 3.25569C13.5923 2.98457 13.7822 2.84483 13.9061 2.78372C13.9197 2.77701 13.9317 2.77159 13.9422 2.76721C13.947 2.77705 13.9522 2.78854 13.9577 2.80188C14.0102 2.92872 14.0604 3.1585 14.0604 3.52015V10.7201C14.0604 11.1344 14.3962 11.4701 14.8104 11.4701H17.9004C18.1824 11.4701 18.36 11.5146 18.4573 11.5578C18.4937 11.574 18.5145 11.5877 18.5257 11.5966C18.5249 11.6106 18.5214 11.6349 18.5098 11.6719C18.4782 11.7722 18.3945 11.9334 18.209 12.1429L18.2075 12.1446L10.6377 20.7444C10.3987 21.0156 10.2087 21.1554 10.0848 21.2166C10.0712 21.2233 10.0592 21.2287 10.0486 21.2331C10.0438 21.2232 10.0386 21.2118 10.0331 21.1984C9.98071 21.0716 9.93044 20.8418 9.93044 20.4801V13.2801C9.93044 12.8659 9.59465 12.5301 9.18044 12.5301H6.09044C5.81056 12.5301 5.63466 12.4862 5.53865 12.4436C5.50346 12.428 5.48309 12.4148 5.47211 12.4061C5.47276 12.3918 5.47615 12.3669 5.48798 12.3287C5.51934 12.2271 5.60214 12.0649 5.78527 11.8536L13.3534 3.25569C13.3535 3.25562 13.3533 3.25577 13.3534 3.25569Z" fill="black"/>
</svg>
