<svg width="24" height="24" viewBox="0 0 24 24" fill="none" xmlns="http://www.w3.org/2000/svg">
<path fill-rule="evenodd" clip-rule="evenodd" d="M16.2197 10.7197C16.2197 10.3055 16.5555 9.96973 16.9697 9.96973H17.8997C18.6938 9.96973 19.5504 10.2127 19.8957 10.9773C20.2412 11.7422 19.856 12.544 19.3319 13.1362C19.3316 13.1365 19.3314 13.1367 19.3311 13.137L11.7627 21.7353C11.4466 22.094 11.1064 22.3844 10.7475 22.5614C10.3855 22.74 9.94588 22.8281 9.50983 22.6644C9.07337 22.5005 8.80046 22.1445 8.64606 21.7708C8.49316 21.4008 8.42969 20.9581 8.42969 20.4797V18.0397C8.42969 17.6255 8.76547 17.2897 9.17969 17.2897C9.5939 17.2897 9.92969 17.6255 9.92969 18.0397V20.4797C9.92969 20.8414 9.97996 21.0712 10.0324 21.198C10.0379 21.2113 10.0431 21.2228 10.0479 21.2327C10.0584 21.2283 10.0704 21.2229 10.084 21.2162C10.208 21.155 10.3979 21.0152 10.6369 20.744L18.2067 12.1442L18.2082 12.1425C18.3938 11.933 18.4774 11.7718 18.509 11.6715C18.5207 11.6344 18.5242 11.6102 18.5249 11.5962C18.5138 11.5873 18.4929 11.5736 18.4565 11.5574C18.3593 11.5141 18.1817 11.4697 17.8997 11.4697H16.9697C16.5555 11.4697 16.2197 11.1339 16.2197 10.7197Z" fill="black"/>
<path fill-rule="evenodd" clip-rule="evenodd" d="M15.354 2.22904C15.5069 2.59908 15.5704 3.04179 15.5704 3.52015V8.84015C15.5704 9.25436 15.2346 9.59015 14.8204 9.59015C14.4062 9.59015 14.0704 9.25436 14.0704 8.84015V3.52015C14.0704 3.1585 14.0201 2.92872 13.9677 2.80188C13.9622 2.78854 13.957 2.77706 13.9522 2.76721C13.9417 2.77159 13.9297 2.77701 13.9161 2.78372C13.7922 2.84483 13.6023 2.98457 13.3634 3.25569C13.3633 3.25577 13.3635 3.25562 13.3634 3.25569L5.79339 11.8557L5.79186 11.8574C5.60631 12.0669 5.5227 12.2281 5.49109 12.3284C5.47943 12.3654 5.47593 12.3897 5.47517 12.4037C5.48631 12.4126 5.5072 12.4263 5.54359 12.4425C5.64082 12.4857 5.81843 12.5301 6.10042 12.5301H9.19042C9.60463 12.5301 9.94042 12.8659 9.94042 13.2801V14.4601C9.94042 14.8744 9.60463 15.2101 9.19042 15.2101C8.7762 15.2101 8.44042 14.8744 8.44042 14.4601V14.0301H6.10042C5.30633 14.0301 4.4497 13.7872 4.10439 13.0226C3.75894 12.2577 4.14404 11.4559 4.66819 10.8638C4.66846 10.8635 4.66872 10.8632 4.66898 10.8629L12.2374 2.2646C12.5535 1.90587 12.8937 1.61545 13.2526 1.43845C13.6146 1.25987 14.0542 1.17179 14.4903 1.3355C14.9267 1.49936 15.1996 1.85538 15.354 2.22904Z" fill="black"/>
<path fill-rule="evenodd" clip-rule="evenodd" d="M22.5303 1.46967C22.8232 1.76256 22.8232 2.23744 22.5303 2.53033L2.53033 22.5303C2.23744 22.8232 1.76256 22.8232 1.46967 22.5303C1.17678 22.2374 1.17678 21.7626 1.46967 21.4697L21.4697 1.46967C21.7626 1.17678 22.2374 1.17678 22.5303 1.46967Z" fill="black"/>
</svg>
