<svg width="24" height="24" viewBox="0 0 24 24" fill="none" xmlns="http://www.w3.org/2000/svg">
<path fill-rule="evenodd" clip-rule="evenodd" d="M9.7392 11.6601C10.0321 11.3672 10.507 11.3672 10.7999 11.6601L14.3399 15.2001C14.6328 15.493 14.6328 15.9679 14.3399 16.2608C14.047 16.5537 13.5721 16.5537 13.2792 16.2608L9.7392 12.7208C9.44631 12.4279 9.44631 11.953 9.7392 11.6601Z" fill="black"/>
<path fill-rule="evenodd" clip-rule="evenodd" d="M14.3008 11.7001C14.5937 11.993 14.5937 12.4679 14.3008 12.7608L10.7608 16.3008C10.4679 16.5937 9.99303 16.5937 9.70014 16.3008C9.40725 16.0079 9.40725 15.533 9.70014 15.2401L13.2401 11.7001C13.533 11.4072 14.0079 11.4072 14.3008 11.7001Z" fill="black"/>
<path fill-rule="evenodd" clip-rule="evenodd" d="M3.53033 3.53033C3.01884 4.04182 2.75 4.99464 2.75 7V17C2.75 19.0054 3.01884 19.9582 3.53033 20.4697C4.04182 20.9812 4.99464 21.25 7 21.25H17C19.0054 21.25 19.9582 20.9812 20.4697 20.4697C20.9812 19.9582 21.25 19.0054 21.25 17V11C21.25 8.99464 20.9812 8.04182 20.4697 7.53033C19.9582 7.01884 19.0054 6.75 17 6.75H14C13.4323 6.75 12.9717 6.66638 12.5796 6.42937C12.2295 6.21777 12.0015 5.91639 11.8342 5.6952C11.8235 5.68106 11.8131 5.66725 11.8029 5.65381L11.8 5.65001L10.3 3.65C9.9971 3.24613 9.85612 3.07421 9.66253 2.95791C9.48669 2.85228 9.18507 2.75 8.5 2.75H7C4.99464 2.75 4.04182 3.01884 3.53033 3.53033ZM2.46967 2.46967C3.45818 1.48116 5.00536 1.25 7 1.25H8.5C9.31493 1.25 9.92831 1.36772 10.435 1.67209C10.9039 1.9538 11.2074 2.35915 11.4671 2.70605C11.4781 2.72081 11.4891 2.73546 11.5 2.75L12.9986 4.74816C13.2074 5.02285 13.2731 5.09587 13.3554 5.14563C13.4183 5.18362 13.5677 5.25 14 5.25H17C18.9946 5.25 20.5418 5.48116 21.5303 6.46967C22.5188 7.45818 22.75 9.00536 22.75 11V17C22.75 18.9946 22.5188 20.5418 21.5303 21.5303C20.5418 22.5188 18.9946 22.75 17 22.75H7C5.00536 22.75 3.45818 22.5188 2.46967 21.5303C1.48116 20.5418 1.25 18.9946 1.25 17V7C1.25 5.00536 1.48116 3.45818 2.46967 2.46967Z" fill="black"/>
</svg>
