<svg width="24" height="24" viewBox="0 0 24 24" fill="none" xmlns="http://www.w3.org/2000/svg">
<path fill-rule="evenodd" clip-rule="evenodd" d="M3.53033 3.53033C3.01884 4.04182 2.75 4.99464 2.75 7V17C2.75 19.0054 3.01884 19.9582 3.53033 20.4697C4.04182 20.9812 4.99464 21.25 7 21.25H9C9.41421 21.25 9.75 21.5858 9.75 22C9.75 22.4142 9.41421 22.75 9 22.75H7C5.00536 22.75 3.45818 22.5188 2.46967 21.5303C1.48116 20.5418 1.25 18.9946 1.25 17V7C1.25 5.00536 1.48116 3.45818 2.46967 2.46967C3.45818 1.48116 5.00536 1.25 7 1.25H8.5C9.31493 1.25 9.92832 1.36773 10.435 1.67209C10.9039 1.95382 11.2074 2.35917 11.4671 2.70608C11.4782 2.72083 11.4891 2.73548 11.5 2.75001L12.9986 4.74817C13.2075 5.02287 13.2731 5.09588 13.3555 5.14564C13.4183 5.18362 13.5677 5.25 14 5.25H17C18.9946 5.25 20.5418 5.48116 21.5303 6.46967C22.5188 7.45818 22.75 9.00536 22.75 11V13C22.75 13.4142 22.4142 13.75 22 13.75C21.5858 13.75 21.25 13.4142 21.25 13V11C21.25 8.99464 20.9812 8.04182 20.4697 7.53033C19.9582 7.01884 19.0054 6.75 17 6.75H14C13.4323 6.75 12.9717 6.66638 12.5796 6.42938C12.2295 6.21778 12.0015 5.91641 11.8343 5.69522C11.8236 5.68108 11.8131 5.66727 11.8029 5.65382L11.8 5.65002L10.3 3.65001C9.99713 3.24615 9.85614 3.07422 9.66255 2.95792C9.48669 2.85228 9.18507 2.75 8.5 2.75H7C4.99464 2.75 4.04182 3.01884 3.53033 3.53033Z" fill="black"/>
<path fill-rule="evenodd" clip-rule="evenodd" d="M20.37 16.1381C20.072 15.0358 19.4469 14.2367 18.6349 13.76C17.7205 13.2233 16.6407 13.1374 15.6778 13.3898C14.715 13.6422 13.8158 14.247 13.2799 15.1623C12.8514 15.8941 12.6815 16.78 12.8534 17.7575C10.4588 18.6815 10.7431 22.594 13.7064 22.8083C13.7244 22.8096 13.7425 22.8103 13.7605 22.8103H19.3205C20.1692 22.8103 21.0089 22.4961 21.6408 21.9191C23.6272 20.1758 22.7795 16.8557 20.37 16.1381ZM13.7213 19.0781C13.824 19.0863 13.93 19.0734 14.0333 19.0364C14.4233 18.8968 14.6263 18.4675 14.4867 18.0775C14.1536 17.1468 14.275 16.4315 14.5744 15.9201C14.8841 15.3911 15.4286 15.0058 16.0582 14.8407C16.6879 14.6757 17.3493 14.7447 17.8756 15.0536C18.384 15.3521 18.8382 15.9161 19.0007 16.8933C19.0552 17.2208 19.3185 17.4735 19.6479 17.5145C21.1732 17.7043 21.8102 19.7804 20.6474 20.7952L20.6332 20.8079C20.286 21.1267 19.8087 21.3103 19.3205 21.3103H13.7904C12.424 21.1889 12.401 19.2604 13.7213 19.0781Z" fill="black"/>
</svg>
