<svg width="24" height="24" viewBox="0 0 24 24" fill="none" xmlns="http://www.w3.org/2000/svg">
<path fill-rule="evenodd" clip-rule="evenodd" d="M12.2455 11.6026C13.2831 10.8134 14.7638 11.0068 15.5752 12.0211C16.3861 13.0347 16.2548 14.4886 15.2852 15.3425L15.2837 15.3438L12.7082 17.5998C12.3039 17.9629 11.6851 17.9629 11.2808 17.5998L8.70682 15.3451C7.73314 14.5005 7.60251 13.033 8.4155 12.029C9.22842 11.0151 10.6951 10.8269 11.7388 11.609C11.7385 11.6089 11.739 11.6092 11.7388 11.609L11.992 11.7981L12.2455 11.6026ZM13.1553 12.7953L12.4576 13.3334C12.1912 13.539 11.8205 13.5419 11.5509 13.3406L10.8409 12.8106L10.8395 12.8096C10.4439 12.5129 9.89237 12.5841 9.58515 12.9681L9.58184 12.9722C9.27717 13.3476 9.32636 13.8974 9.69038 14.2126L9.6937 14.2154L11.9945 16.2309L14.2938 14.2167C14.2936 14.2169 14.2941 14.2165 14.2938 14.2167C14.6636 13.8905 14.7128 13.3443 14.4038 12.9581C14.0957 12.573 13.5376 12.506 13.1553 12.7953ZM11.7027 16.4867C11.7052 16.4844 11.7078 16.4822 11.7103 16.4799L11.7027 16.4867ZM12.2787 16.4799C12.2812 16.4822 12.2838 16.4844 12.2863 16.4867L12.2787 16.4799Z" fill="black"/>
<path fill-rule="evenodd" clip-rule="evenodd" d="M3.53033 3.53033C3.01884 4.04182 2.75 4.99464 2.75 7V17C2.75 19.0054 3.01884 19.9582 3.53033 20.4697C4.04182 20.9812 4.99464 21.25 7 21.25H17C19.0054 21.25 19.9582 20.9812 20.4697 20.4697C20.9812 19.9582 21.25 19.0054 21.25 17V11C21.25 8.99464 20.9812 8.04182 20.4697 7.53033C19.9582 7.01884 19.0054 6.75 17 6.75H14C13.4323 6.75 12.9717 6.66638 12.5796 6.42937C12.2295 6.21777 12.0015 5.91639 11.8342 5.6952C11.8235 5.68106 11.8131 5.66725 11.8029 5.65381L11.8 5.65001L10.3 3.65C9.9971 3.24613 9.85612 3.07421 9.66253 2.95791C9.48669 2.85228 9.18507 2.75 8.5 2.75H7C4.99464 2.75 4.04182 3.01884 3.53033 3.53033ZM2.46967 2.46967C3.45818 1.48116 5.00536 1.25 7 1.25H8.5C9.31493 1.25 9.92831 1.36772 10.435 1.67209C10.9039 1.9538 11.2074 2.35915 11.4671 2.70605C11.4781 2.72081 11.4891 2.73546 11.5 2.75L12.9986 4.74816C13.2074 5.02285 13.2731 5.09587 13.3554 5.14563C13.4183 5.18362 13.5677 5.25 14 5.25H17C18.9946 5.25 20.5418 5.48116 21.5303 6.46967C22.5188 7.45818 22.75 9.00536 22.75 11V17C22.75 18.9946 22.5188 20.5418 21.5303 21.5303C20.5418 22.5188 18.9946 22.75 17 22.75H7C5.00536 22.75 3.45818 22.5188 2.46967 21.5303C1.48116 20.5418 1.25 18.9946 1.25 17V7C1.25 5.00536 1.48116 3.45818 2.46967 2.46967Z" fill="black"/>
</svg>
