<svg width="24" height="24" viewBox="0 0 24 24" fill="none" xmlns="http://www.w3.org/2000/svg">
<path fill-rule="evenodd" clip-rule="evenodd" d="M5.30979 11.75C4.61148 11.75 3.99164 12.0638 3.57949 12.5659L3.55614 12.5943L3.54212 12.6083C3.20204 13.0503 3.01741 13.6167 3.07633 14.228L3.0775 14.2402L3.47686 19.2335C3.55806 20.0603 3.62519 20.4803 3.84515 20.7549C4.01698 20.9694 4.43121 21.25 5.70979 21.25H18.2898C19.5684 21.25 19.9826 20.9694 20.1544 20.7549C20.3744 20.4803 20.4415 20.0603 20.5227 19.2335L20.923 14.2301L20.9241 14.2201C20.9909 13.5958 20.7928 13.0246 20.4228 12.5792L20.3176 12.4524C19.9159 12.0226 19.3404 11.75 18.6898 11.75H5.30979ZM20.4495 12.6003C20.4554 12.6062 20.4531 12.6043 20.4462 12.597L20.4495 12.6003ZM2.4449 11.5842C3.13281 10.7637 4.16198 10.25 5.30979 10.25H18.6898C19.8415 10.25 20.862 10.767 21.539 11.5696C21.5518 11.5835 21.5718 11.6061 21.5935 11.635C21.6011 11.6451 21.6124 11.6605 21.6255 11.6808C22.2029 12.4052 22.5234 13.3462 22.4166 14.3693L22.0163 19.3732C22.0134 19.4029 22.0104 19.433 22.0074 19.4635C21.941 20.1505 21.856 21.0299 21.3251 21.6926C20.722 22.4456 19.7212 22.75 18.2898 22.75H5.70979C4.27838 22.75 3.2776 22.4456 2.67443 21.6926C2.14355 21.0299 2.05855 20.1505 1.99214 19.4635C1.98919 19.433 1.98628 19.4029 1.98337 19.3732L1.98206 19.3598L1.58264 14.3656C1.4849 13.3337 1.80991 12.3749 2.39317 11.6427L2.41954 11.6096L2.4449 11.5842Z" fill="black"/>
<path fill-rule="evenodd" clip-rule="evenodd" d="M4.88033 3.4106C4.48134 3.8096 4.25 4.57491 4.25 6.28027V11.4303C4.25 11.8445 3.91421 12.1803 3.5 12.1803C3.08579 12.1803 2.75 11.8445 2.75 11.4303V6.28027C2.75 4.58563 2.94366 3.22595 3.81967 2.34994C4.69568 1.47394 6.05536 1.28027 7.75 1.28027H9.02C9.72241 1.28027 10.2672 1.38381 10.7225 1.6574C11.1434 1.9103 11.4143 2.27214 11.6335 2.56487C11.6424 2.57679 11.6512 2.58859 11.66 2.60027L11.6608 2.6014L12.9287 4.29853C13.1069 4.53228 13.1504 4.57632 13.2002 4.60649C13.2301 4.62466 13.335 4.68027 13.69 4.68027H16.24C17.9346 4.68027 19.2943 4.87394 20.1703 5.74994C21.0463 6.62595 21.24 7.98563 21.24 9.68027V11.4703C21.24 11.8845 20.9042 12.2203 20.49 12.2203C20.0758 12.2203 19.74 11.8845 19.74 11.4703V9.68027C19.74 7.97491 19.5087 7.2096 19.1097 6.8106C18.7107 6.41161 17.9454 6.18027 16.24 6.18027H13.69C13.195 6.18027 12.7799 6.10588 12.4223 5.88906C12.1066 5.69757 11.9013 5.42646 11.7615 5.24179C11.7518 5.22903 11.7425 5.21668 11.7334 5.20481L11.7291 5.19916L10.46 3.50027C10.4599 3.50009 10.4601 3.50046 10.46 3.50027C10.2042 3.15917 10.0944 3.0299 9.94997 2.94315C9.82279 2.86673 9.58759 2.78027 9.02 2.78027H7.75C6.04464 2.78027 5.27932 3.01161 4.88033 3.4106Z" fill="black"/>
<path fill-rule="evenodd" clip-rule="evenodd" d="M8.67969 17C8.67969 16.5858 9.01547 16.25 9.42969 16.25H14.5697C14.9839 16.25 15.3197 16.5858 15.3197 17C15.3197 17.4142 14.9839 17.75 14.5697 17.75H9.42969C9.01547 17.75 8.67969 17.4142 8.67969 17Z" fill="black"/>
</svg>
