<svg width="28" height="24" viewBox="0 0 28 24" fill="none" xmlns="http://www.w3.org/2000/svg">
<path d="M12 19.752L10.488 15.216H4.224L2.76 19.752H-1.49012e-08L5.712 3H9.12L14.832 19.752H12ZM7.416 5.496H7.296L4.872 12.888H9.816L7.416 5.496ZM26.4489 19.752C25.7609 19.752 25.2329 19.56 24.8649 19.176C24.4969 18.776 24.2729 18.272 24.1929 17.664H24.0729C23.8329 18.448 23.3929 19.04 22.7529 19.44C22.1129 19.84 21.3369 20.04 20.4249 20.04C19.1289 20.04 18.1289 19.704 17.4249 19.032C16.7369 18.36 16.3929 17.456 16.3929 16.32C16.3929 15.072 16.8409 14.136 17.7369 13.512C18.6489 12.888 19.9769 12.576 21.7209 12.576H23.9769V11.52C23.9769 10.752 23.7689 10.16 23.3529 9.744C22.9369 9.328 22.2889 9.12 21.4089 9.12C20.6729 9.12 20.0729 9.28 19.6089 9.6C19.1449 9.92 18.7529 10.328 18.4329 10.824L16.8729 9.408C17.2889 8.704 17.8729 8.128 18.6249 7.68C19.3769 7.216 20.3609 6.984 21.5769 6.984C23.1929 6.984 24.4329 7.36 25.2969 8.112C26.1609 8.864 26.5929 9.944 26.5929 11.352V17.616H27.9129V19.752H26.4489ZM21.1689 18.048C21.9849 18.048 22.6569 17.872 23.1849 17.52C23.7129 17.152 23.9769 16.664 23.9769 16.056V14.256H21.7689C19.9609 14.256 19.0569 14.816 19.0569 15.936V16.368C19.0569 16.928 19.2409 17.352 19.6089 17.64C19.9929 17.912 20.5129 18.048 21.1689 18.048Z" fill="black"/>
</svg>
