<svg width="24" height="24" viewBox="0 0 24 24" fill="none" xmlns="http://www.w3.org/2000/svg">
<path d="M1 17.74L5.36 5H7.71L11.94 17.74H9.94L8.95 14.7H4.03L3 17.74H1ZM4.51 13.24H8.48L6.5 7.29L4.51 13.24ZM20.4041 17.74L20.1641 15.53V11.52C20.1641 10.7333 20.0007 10.1633 19.6741 9.81C19.3474 9.45 18.8307 9.27 18.1241 9.27C17.7241 9.27 17.3674 9.33 17.0541 9.45C16.7474 9.56333 16.5041 9.73667 16.3241 9.97C16.1507 10.2033 16.0641 10.4967 16.0641 10.85H13.9641C13.9641 10.1433 14.1374 9.57 14.4841 9.13C14.8307 8.69 15.3141 8.37 15.9341 8.17C16.5607 7.96333 17.2907 7.86 18.1241 7.86C18.9041 7.86 19.5907 7.99 20.1841 8.25C20.7774 8.50333 21.2374 8.90333 21.5641 9.45C21.8974 9.99667 22.0641 10.7033 22.0641 11.57V17.74H20.4041ZM17.1841 18C16.3774 18 15.7074 17.86 15.1741 17.58C14.6407 17.2933 14.2407 16.92 13.9741 16.46C13.7141 16 13.5841 15.51 13.5841 14.99C13.5841 14.3567 13.7441 13.8367 14.0641 13.43C14.3907 13.0167 14.8407 12.71 15.4141 12.51C15.9874 12.31 16.6474 12.21 17.3941 12.21C17.9074 12.21 18.4074 12.2567 18.8941 12.35C19.3807 12.4433 19.8607 12.5667 20.3341 12.72V13.87C19.9474 13.73 19.5174 13.62 19.0441 13.54C18.5774 13.4533 18.1407 13.41 17.7341 13.41C17.1274 13.41 16.6207 13.53 16.2141 13.77C15.8074 14.01 15.6041 14.4167 15.6041 14.99C15.6041 15.41 15.7641 15.7733 16.0841 16.08C16.4041 16.38 16.9107 16.53 17.6041 16.53C18.1107 16.53 18.5574 16.4167 18.9441 16.19C19.3307 15.9567 19.6307 15.6667 19.8441 15.32C20.0574 14.9733 20.1641 14.6267 20.1641 14.28H20.6241C20.6241 14.9467 20.4874 15.5633 20.2141 16.13C19.9474 16.69 19.5574 17.1433 19.0441 17.49C18.5307 17.83 17.9107 18 17.1841 18Z" fill="black"/>
</svg>
