<svg width="24" height="24" viewBox="0 0 24 24" fill="none" xmlns="http://www.w3.org/2000/svg">
<path d="M15.7889 12.9357V11.6077H20.2049V12.9357H15.7889Z" fill="black"/>
<path fill-rule="evenodd" clip-rule="evenodd" d="M4.73989 4.03014C4.01174 4.03014 3.41989 4.61671 3.41989 5.35014V7.17014C3.41989 7.58435 3.08411 7.92014 2.66989 7.92014C2.25568 7.92014 1.91989 7.58435 1.91989 7.17014V5.35014C1.91989 3.78357 3.18804 2.53014 4.73989 2.53014H19.2599C20.8265 2.53014 22.0799 3.79829 22.0799 5.35014V7.17014C22.0799 7.58435 21.7441 7.92014 21.3299 7.92014C20.9157 7.92014 20.5799 7.58435 20.5799 7.17014V5.35014C20.5799 4.62199 19.9933 4.03014 19.2599 4.03014H4.73989Z" fill="black"/>
<path fill-rule="evenodd" clip-rule="evenodd" d="M12 3.36022C12.4142 3.36022 12.75 3.696 12.75 4.11022V20.7202C12.75 21.1344 12.4142 21.4702 12 21.4702C11.5858 21.4702 11.25 21.1344 11.25 20.7202V4.11022C11.25 3.696 11.5858 3.36022 12 3.36022Z" fill="black"/>
<path fill-rule="evenodd" clip-rule="evenodd" d="M7.31052 20.7196C7.31052 20.3054 7.64631 19.9696 8.06052 19.9696H15.9405C16.3547 19.9696 16.6905 20.3054 16.6905 20.7196C16.6905 21.1338 16.3547 21.4696 15.9405 21.4696H8.06052C7.64631 21.4696 7.31052 21.1338 7.31052 20.7196Z" fill="black"/>
</svg>
