<svg width="24" height="24" viewBox="0 0 24 24" fill="none" xmlns="http://www.w3.org/2000/svg">
<path fill-rule="evenodd" clip-rule="evenodd" d="M4.00097 17.193L7.48898 7.00098H9.36897L12.753 17.193H11.153L10.361 14.761H6.42497L5.60098 17.193H4.00097ZM6.80897 13.593H9.98498L8.40098 8.83298L6.80897 13.593ZM19.5242 17.193L19.3322 15.425V12.217C19.3322 11.5876 19.2016 11.1316 18.9402 10.849C18.6789 10.561 18.2656 10.417 17.7002 10.417C17.3802 10.417 17.0949 10.465 16.8442 10.561C16.5989 10.6516 16.4042 10.7903 16.2602 10.977C16.1216 11.1636 16.0522 11.3983 16.0522 11.681H14.3722C14.3722 11.1156 14.5109 10.657 14.7882 10.305C15.0656 9.95298 15.4522 9.69698 15.9482 9.53698C16.4496 9.37164 17.0336 9.28898 17.7002 9.28898C18.3242 9.28898 18.8736 9.39298 19.3482 9.60098C19.8229 9.80364 20.1909 10.1236 20.4522 10.561C20.7189 10.9983 20.8522 11.5636 20.8522 12.257V17.193H19.5242ZM16.9482 17.401C16.3029 17.401 15.7669 17.289 15.3402 17.065C14.9136 16.8356 14.5936 16.537 14.3802 16.169C14.1722 15.801 14.0682 15.409 14.0682 14.993C14.0682 14.4863 14.1962 14.0703 14.4522 13.745C14.7136 13.4143 15.0736 13.169 15.5322 13.009C15.9909 12.849 16.5189 12.769 17.1162 12.769C17.5269 12.769 17.9269 12.8063 18.3162 12.881C18.7056 12.9556 19.0896 13.0543 19.4682 13.177V14.097C19.1589 13.985 18.8149 13.897 18.4362 13.833C18.0629 13.7636 17.7136 13.729 17.3882 13.729C16.9029 13.729 16.4976 13.825 16.1722 14.017C15.8469 14.209 15.6842 14.5343 15.6842 14.993C15.6842 15.329 15.8122 15.6196 16.0682 15.865C16.3242 16.105 16.7296 16.225 17.2842 16.225C17.6896 16.225 18.0469 16.1343 18.3562 15.953C18.6656 15.7663 18.9056 15.5343 19.0762 15.257C19.2469 14.9796 19.3322 14.7023 19.3322 14.425H19.7002C19.7002 14.9583 19.5909 15.4516 19.3722 15.905C19.1589 16.353 18.8469 16.7156 18.4362 16.993C18.0256 17.265 17.5296 17.401 16.9482 17.401Z" fill="black"/>
</svg>
