<svg width="24" height="24" viewBox="0 0 24 24" fill="none" xmlns="http://www.w3.org/2000/svg">
<path fill-rule="evenodd" clip-rule="evenodd" d="M5.3075 6.02184L8.47498 7.84036L11.6559 9.6767C11.9111 9.82981 12.1443 10.0135 12.3421 10.257C12.4507 10.3907 12.51 10.5577 12.51 10.7299V13.2899C12.51 13.4622 12.4507 13.6292 12.3421 13.7629C12.1443 14.0063 11.911 14.1899 11.6559 14.343L11.645 14.3495L8.47497 16.1794L8.47344 16.1803L5.30478 17.9996C3.50593 19.0368 1.25 17.7381 1.25 15.6599V8.3399C1.25 6.26433 3.50515 4.95889 5.3075 6.02184ZM4.54778 7.31522C3.7509 6.84322 2.75 7.41729 2.75 8.3399V15.6599C2.75 16.5815 3.75415 17.1624 4.5552 16.7003L7.72504 14.8804L7.72658 14.8795L10.8891 13.0538C10.9349 13.0261 10.9749 12.9995 11.01 12.9736V11.0462C10.9749 11.0203 10.9349 10.9937 10.8891 10.966L7.72658 9.14032L7.72503 9.13943L4.54778 7.31522Z" fill="black"/>
<path fill-rule="evenodd" clip-rule="evenodd" d="M15.0673 6.02184L18.2347 7.84036L21.4083 9.67243C23.2003 10.7201 23.2081 13.309 21.4045 14.3496L18.2347 16.1794L18.2332 16.1803L15.0646 17.9996C13.2657 19.0365 11.0098 17.738 11.0098 15.6599V8.3399C11.0098 6.26433 13.2649 4.95889 15.0673 6.02184ZM14.3075 7.31522C13.5107 6.84322 12.5098 7.41729 12.5098 8.3399V15.6599C12.5098 16.5815 13.5139 17.1624 14.315 16.7003L14.3163 16.6995L17.4848 14.8804L17.4863 14.8795L20.6548 13.0504C21.4507 12.5912 21.4592 11.4412 20.6528 10.9683L20.6512 10.9674L17.4863 9.14032L17.4848 9.13943L14.3075 7.31522Z" fill="black"/>
</svg>
