<svg width="24" height="24" viewBox="0 0 24 24" fill="none" xmlns="http://www.w3.org/2000/svg">
<path fill-rule="evenodd" clip-rule="evenodd" d="M11.5309 1.41484C11.8541 1.15576 12.3261 1.20773 12.5852 1.53092L14.5652 4.00089C14.8243 4.32408 14.7723 4.7961 14.4491 5.05518C14.126 5.31426 13.6539 5.26229 13.3949 4.9391L11.4148 2.46913C11.1558 2.14594 11.2077 1.67392 11.5309 1.41484Z" fill="black"/>
<path fill-rule="evenodd" clip-rule="evenodd" d="M11.9994 4.96973C7.5036 4.96973 3.85938 8.61396 3.85938 13.1097C3.85938 17.6055 7.5036 21.2498 11.9994 21.2498C16.4952 21.2498 20.1394 17.6055 20.1394 13.1097C20.1394 11.2863 19.5109 9.6118 18.4894 8.24974C18.2409 7.91837 18.308 7.44827 18.6394 7.19974C18.9708 6.95122 19.4409 7.01837 19.6894 7.34974C20.8878 8.94768 21.6394 10.9332 21.6394 13.1097C21.6394 18.434 17.3236 22.7498 11.9994 22.7498C6.67518 22.7498 2.35938 18.434 2.35938 13.1097C2.35938 7.78553 6.67518 3.46973 11.9994 3.46973C12.746 3.46973 13.4639 3.56864 14.1505 3.72957C14.5538 3.82409 14.8041 4.22764 14.7096 4.63092C14.6151 5.03421 14.2115 5.28451 13.8083 5.18999C13.2149 5.05092 12.6128 4.96973 11.9994 4.96973Z" fill="black"/>
<path fill-rule="evenodd" clip-rule="evenodd" d="M9.8084 9.87976C10.0985 9.99092 10.29 10.2694 10.29 10.5801V15.9201C10.29 16.3343 9.95426 16.6701 9.54005 16.6701C9.12583 16.6701 8.79005 16.3343 8.79005 15.9201V12.5375L8.59801 12.7513C8.32122 13.0594 7.84703 13.0848 7.53887 12.8081C7.23072 12.5313 7.20529 12.0571 7.48208 11.7489L8.98208 10.0789C9.18968 9.84781 9.51829 9.7686 9.8084 9.87976Z" fill="black"/>
<path fill-rule="evenodd" clip-rule="evenodd" d="M14 11.3301C13.3118 11.3301 12.75 11.8867 12.75 12.5801V13.9301C12.75 14.6158 13.3142 15.1801 14 15.1801C14.6858 15.1801 15.25 14.6158 15.25 13.9301V12.5801C15.25 11.8943 14.6858 11.3301 14 11.3301ZM11.25 12.5801C11.25 11.0534 12.4882 9.83008 14 9.83008C15.5142 9.83008 16.75 11.0659 16.75 12.5801V13.9301C16.75 15.4443 15.5142 16.6801 14 16.6801C12.4858 16.6801 11.25 15.4443 11.25 13.9301V12.5801Z" fill="black"/>
</svg>
