<svg width="24" height="24" viewBox="0 0 24 24" fill="none" xmlns="http://www.w3.org/2000/svg">
<path fill-rule="evenodd" clip-rule="evenodd" d="M11.5309 1.41484C11.8541 1.15576 12.3261 1.20774 12.5852 1.53093L14.5652 4.0009C14.8243 4.32409 14.7723 4.79611 14.4491 5.05519C14.1259 5.31426 13.6539 5.26229 13.3948 4.9391L11.4148 2.46913C11.1558 2.14594 11.2077 1.67392 11.5309 1.41484Z" fill="black"/>
<path fill-rule="evenodd" clip-rule="evenodd" d="M11.9994 4.96973C7.5036 4.96973 3.85938 8.61396 3.85938 13.1097C3.85938 17.6055 7.5036 21.2498 11.9994 21.2498C16.4952 21.2498 20.1394 17.6055 20.1394 13.1097C20.1394 11.2863 19.511 9.6118 18.4894 8.24974C18.2409 7.91837 18.308 7.44827 18.6394 7.19974C18.9708 6.95122 19.4409 7.01837 19.6894 7.34974C20.8879 8.94769 21.6394 10.9332 21.6394 13.1097C21.6394 18.434 17.3236 22.7498 11.9994 22.7498C6.67518 22.7498 2.35938 18.434 2.35938 13.1097C2.35938 7.78553 6.67518 3.46973 11.9994 3.46973C12.746 3.46973 13.4639 3.56864 14.1505 3.72957C14.5538 3.82409 14.8041 4.22764 14.7096 4.63092C14.6151 5.03421 14.2115 5.28451 13.8082 5.18999C13.2149 5.05092 12.6128 4.96973 11.9994 4.96973Z" fill="black"/>
<path fill-rule="evenodd" clip-rule="evenodd" d="M10.138 10.5939C10.2398 10.2871 10.5266 10.0801 10.8498 10.0801H13.9098C14.324 10.0801 14.6598 10.4159 14.6598 10.8301C14.6598 11.2443 14.324 11.5801 13.9098 11.5801H11.3911L11.129 12.3701H12.3798C13.6309 12.3701 14.6598 13.3827 14.6598 14.6501C14.6598 15.9011 13.6472 16.9301 12.3798 16.9301H10.0898C9.67564 16.9301 9.33985 16.5943 9.33985 16.1801C9.33985 15.7658 9.67564 15.4301 10.0898 15.4301H12.3798C12.8124 15.4301 13.1598 15.0791 13.1598 14.6501C13.1598 14.2174 12.8088 13.8701 12.3798 13.8701H10.0898C9.84894 13.8701 9.6227 13.7543 9.48171 13.559C9.34072 13.3637 9.30215 13.1125 9.37802 12.8838L10.138 10.5939Z" fill="black"/>
</svg>
