<svg width="24" height="24" viewBox="0 0 24 24" fill="none" xmlns="http://www.w3.org/2000/svg">
<path fill-rule="evenodd" clip-rule="evenodd" d="M3.09467 3.09467C4.42914 1.7602 6.42603 1.25 9 1.25H15C17.574 1.25 19.5709 1.7602 20.9053 3.09467C22.2398 4.42914 22.75 6.42603 22.75 9V15C22.75 17.574 22.2398 19.5709 20.9053 20.9053C19.5709 22.2398 17.574 22.75 15 22.75H9C6.42603 22.75 4.42914 22.2398 3.09467 20.9053C1.7602 19.5709 1.25 17.574 1.25 15V9C1.25 6.42603 1.7602 4.42914 3.09467 3.09467ZM4.15533 4.15533C3.2398 5.07086 2.75 6.57397 2.75 9V15C2.75 17.426 3.2398 18.9291 4.15533 19.8447C5.07086 20.7602 6.57397 21.25 9 21.25H15C17.426 21.25 18.9291 20.7602 19.8447 19.8447C20.7602 18.9291 21.25 17.426 21.25 15V9C21.25 6.57397 20.7602 5.07086 19.8447 4.15533C18.9291 3.2398 17.426 2.75 15 2.75H9C6.57397 2.75 5.07086 3.2398 4.15533 4.15533Z" fill="black"/>
<path fill-rule="evenodd" clip-rule="evenodd" d="M10.08 9.96973C8.79422 9.96973 7.75 11.0139 7.75 12.2997C7.75 13.5855 8.79421 14.6297 10.08 14.6297H15C15.4142 14.6297 15.75 14.9655 15.75 15.3797C15.75 15.7939 15.4142 16.1297 15 16.1297H10.08C7.96579 16.1297 6.25 14.4139 6.25 12.2997C6.25 10.1855 7.96579 8.46973 10.08 8.46973H16.85C17.2642 8.46973 17.6 8.80551 17.6 9.21973C17.6 9.63394 17.2642 9.96973 16.85 9.96973H10.08Z" fill="black"/>
<path fill-rule="evenodd" clip-rule="evenodd" d="M14.8994 7.08979C15.1922 6.79689 15.6671 6.79689 15.96 7.08979L17.53 8.65979C17.8223 8.95202 17.823 9.4256 17.5317 9.71876L15.9617 11.2988C15.6697 11.5926 15.1949 11.5941 14.901 11.3021C14.6072 11.0102 14.6057 10.5353 14.8977 10.2415L15.9407 9.1918L14.8994 8.15045C14.6065 7.85756 14.6065 7.38268 14.8994 7.08979Z" fill="black"/>
</svg>
