<svg width="24" height="24" viewBox="0 0 24 24" fill="none" xmlns="http://www.w3.org/2000/svg">
<path fill-rule="evenodd" clip-rule="evenodd" d="M8.01693 8.01596C7.61986 8.41304 7.36035 9.10904 7.36035 10.3794V13.6094C7.36035 14.8797 7.61986 15.5757 8.01693 15.9728C8.414 16.3699 9.11 16.6294 10.3804 16.6294H13.6104C14.8807 16.6294 15.5767 16.3699 15.9738 15.9728C16.3708 15.5757 16.6304 14.8797 16.6304 13.6094V10.3794C16.6304 9.10763 16.3727 8.41494 15.9775 8.01971C15.5818 7.62394 14.886 7.36429 13.6089 7.35938H10.3804C9.11 7.35938 8.414 7.61889 8.01693 8.01596ZM6.95627 6.95531C7.7717 6.13987 8.9607 5.85938 10.3804 5.85938H13.6131C15.0352 5.86464 16.2241 6.14496 17.0382 6.95906C17.853 7.77384 18.1304 8.96116 18.1304 10.3794V13.6094C18.1304 15.029 17.8499 16.218 17.0344 17.0335C16.219 17.8489 15.03 18.1294 13.6104 18.1294H10.3804C8.9607 18.1294 7.7717 17.8489 6.95627 17.0335C6.14084 16.218 5.86035 15.029 5.86035 13.6094V10.3794C5.86035 8.95974 6.14084 7.77074 6.95627 6.95531Z" fill="black"/>
<path fill-rule="evenodd" clip-rule="evenodd" d="M12.637 3.40658C12.24 3.80364 11.9805 4.49964 11.9805 5.76999V5.87H13.6105C15.0301 5.87 16.2191 6.15049 17.0346 6.96593C17.85 7.78136 18.1305 8.97036 18.1305 10.39V12.02H18.2305C19.5008 12.02 20.1968 11.7605 20.5939 11.3634C20.991 10.9663 21.2505 10.2704 21.2505 9V5.76999C21.2505 4.49964 20.991 3.80364 20.5939 3.40658C20.1968 3.00951 19.5008 2.75 18.2305 2.75H15.0005C13.7301 2.75 13.0341 3.00951 12.637 3.40658ZM11.5764 2.34591C12.3918 1.53049 13.5808 1.25 15.0005 1.25H18.2305C19.6501 1.25 20.8391 1.53049 21.6545 2.34591C22.47 3.16134 22.7505 4.35034 22.7505 5.76999V9C22.7505 10.4196 22.47 11.6086 21.6545 12.4241C20.8391 13.2395 19.6501 13.52 18.2305 13.52H17.3805C16.9663 13.52 16.6305 13.1842 16.6305 12.77V10.39C16.6305 9.11966 16.371 8.42366 15.9739 8.02658C15.5768 7.62951 14.8808 7.37 13.6105 7.37H11.2305C10.8163 7.37 10.4805 7.03421 10.4805 6.62V5.76999C10.4805 4.35034 10.761 3.16134 11.5764 2.34591Z" fill="black"/>
<path fill-rule="evenodd" clip-rule="evenodd" d="M3.40658 12.637C3.00951 13.0341 2.75 13.7301 2.75 15.0005V18.2305C2.75 19.5008 3.00951 20.1968 3.40658 20.5939C3.80365 20.9909 4.49965 21.2505 5.77 21.2505H9C10.2704 21.2505 10.9664 20.9909 11.3634 20.5939C11.7605 20.1968 12.02 19.5008 12.02 18.2305V18.1305H10.39C8.97035 18.1305 7.78135 17.85 6.96592 17.0345C6.15049 16.2191 5.87 15.0301 5.87 13.6104V11.9805H5.77C4.49965 11.9805 3.80365 12.24 3.40658 12.637ZM2.34592 11.5764C3.16135 10.761 4.35035 10.4805 5.77 10.4805H6.62C7.03421 10.4805 7.37 10.8163 7.37 11.2305V13.6104C7.37 14.8808 7.62951 15.5768 8.02658 15.9739C8.42365 16.3709 9.11965 16.6305 10.39 16.6305H12.77C13.1842 16.6305 13.52 16.9662 13.52 17.3805V18.2305C13.52 19.6501 13.2395 20.8391 12.4241 21.6545C11.6086 22.47 10.4196 22.7505 9 22.7505H5.77C4.35035 22.7505 3.16135 22.47 2.34592 21.6545C1.53049 20.8391 1.25 19.6501 1.25 18.2305V15.0005C1.25 13.5808 1.53049 12.3918 2.34592 11.5764Z" fill="black"/>
</svg>
