<svg width="24" height="24" viewBox="0 0 24 24" fill="none" xmlns="http://www.w3.org/2000/svg">
<path fill-rule="evenodd" clip-rule="evenodd" d="M12 2.75C6.89137 2.75 2.75 6.89137 2.75 12C2.75 17.1086 6.89137 21.25 12 21.25C17.1086 21.25 21.25 17.1086 21.25 12C21.25 6.89137 17.1086 2.75 12 2.75ZM1.25 12C1.25 6.06294 6.06294 1.25 12 1.25C17.9371 1.25 22.75 6.06294 22.75 12C22.75 17.9371 17.9371 22.75 12 22.75C6.06294 22.75 1.25 17.9371 1.25 12Z" fill="black"/>
<path fill-rule="evenodd" clip-rule="evenodd" d="M11.4701 9.20915C11.7629 8.91726 12.2366 8.91726 12.5293 9.20915L16.0593 12.7292C16.3526 13.0216 16.3533 13.4965 16.0608 13.7898C15.7683 14.0831 15.2935 14.0838 15.0001 13.7913L11.9997 10.7994L8.9993 13.7913C8.706 14.0838 8.23112 14.0831 7.93864 13.7898C7.64617 13.4965 7.64684 13.0216 7.94015 12.7292L11.4701 9.20915Z" fill="black"/>
</svg>
