<svg width="24" height="24" viewBox="0 0 24 24" fill="none" xmlns="http://www.w3.org/2000/svg">
<path fill-rule="evenodd" clip-rule="evenodd" d="M12 8.25C11.3096 8.25 10.75 8.80964 10.75 9.5C10.75 10.1904 11.3096 10.75 12 10.75C12.6904 10.75 13.25 10.1904 13.25 9.5C13.25 8.80964 12.6904 8.25 12 8.25ZM9.25 9.5C9.25 7.98122 10.4812 6.75 12 6.75C13.5188 6.75 14.75 7.98122 14.75 9.5C14.75 11.0188 13.5188 12.25 12 12.25C10.4812 12.25 9.25 11.0188 9.25 9.5Z" fill="black"/>
<path fill-rule="evenodd" clip-rule="evenodd" d="M9.31921 13.1859C9.49279 12.8098 9.93839 12.6456 10.3145 12.8192C11.4151 13.3272 12.5853 13.3272 13.6859 12.8192C14.062 12.6456 14.5076 12.8098 14.6812 13.1859C14.8547 13.562 14.6906 14.0076 14.3145 14.1812C12.8151 14.8732 11.1853 14.8732 9.68589 14.1812C9.3098 14.0076 9.14563 13.562 9.31921 13.1859Z" fill="black"/>
<path fill-rule="evenodd" clip-rule="evenodd" d="M12 13.25C12.2279 13.25 12.4433 13.3536 12.5857 13.5315L14.5857 16.0315C14.8444 16.3549 14.792 16.8269 14.4685 17.0857C14.1451 17.3444 13.6731 17.292 13.4144 16.9685L12 15.2006L10.5857 16.9685C10.3269 17.292 9.85495 17.3444 9.53151 17.0857C9.20806 16.8269 9.15562 16.3549 9.41438 16.0315L11.4144 13.5315C11.5567 13.3536 11.7722 13.25 12 13.25Z" fill="black"/>
<path fill-rule="evenodd" clip-rule="evenodd" d="M12 2.75C6.89137 2.75 2.75 6.89137 2.75 12C2.75 17.1086 6.89137 21.25 12 21.25C17.1086 21.25 21.25 17.1086 21.25 12C21.25 6.89137 17.1086 2.75 12 2.75ZM1.25 12C1.25 6.06294 6.06294 1.25 12 1.25C17.9371 1.25 22.75 6.06294 22.75 12C22.75 17.9371 17.9371 22.75 12 22.75C6.06294 22.75 1.25 17.9371 1.25 12Z" fill="black"/>
</svg>
