<svg width="24" height="24" viewBox="0 0 24 24" fill="none" xmlns="http://www.w3.org/2000/svg">
<path fill-rule="evenodd" clip-rule="evenodd" d="M21.3008 16.7001C21.5937 16.993 21.5937 17.4679 21.3008 17.7608L17.7608 21.3008C17.4679 21.5937 16.993 21.5937 16.7001 21.3008C16.4072 21.0079 16.4072 20.533 16.7001 20.2401L20.2401 16.7001C20.533 16.4072 21.0079 16.4072 21.3008 16.7001Z" fill="black"/>
<path fill-rule="evenodd" clip-rule="evenodd" d="M16.7001 16.7001C16.993 16.4072 17.4679 16.4072 17.7608 16.7001L21.3008 20.2401C21.5937 20.533 21.5937 21.0079 21.3008 21.3008C21.0079 21.5937 20.533 21.5937 20.2401 21.3008L16.7001 17.7608C16.4072 17.4679 16.4072 16.993 16.7001 16.7001Z" fill="black"/>
<path fill-rule="evenodd" clip-rule="evenodd" d="M7 9.75C7.41421 9.75 7.75 10.0858 7.75 10.5V13.5C7.75 13.9142 7.41421 14.25 7 14.25C6.58579 14.25 6.25 13.9142 6.25 13.5V10.5C6.25 10.0858 6.58579 9.75 7 9.75Z" fill="black"/>
<path fill-rule="evenodd" clip-rule="evenodd" d="M12 9.75C12.4142 9.75 12.75 10.0858 12.75 10.5V13.5C12.75 13.9142 12.4142 14.25 12 14.25C11.5858 14.25 11.25 13.9142 11.25 13.5V10.5C11.25 10.0858 11.5858 9.75 12 9.75Z" fill="black"/>
<path fill-rule="evenodd" clip-rule="evenodd" d="M17 9.75C17.4142 9.75 17.75 10.0858 17.75 10.5V13.5C17.75 13.9142 17.4142 14.25 17 14.25C16.5858 14.25 16.25 13.9142 16.25 13.5V10.5C16.25 10.0858 16.5858 9.75 17 9.75Z" fill="black"/>
<path fill-rule="evenodd" clip-rule="evenodd" d="M3.09467 3.09467C4.42914 1.7602 6.42603 1.25 9 1.25H15C17.574 1.25 19.5709 1.7602 20.9053 3.09467C22.2398 4.42914 22.75 6.42603 22.75 9V13C22.75 13.4142 22.4142 13.75 22 13.75C21.5858 13.75 21.25 13.4142 21.25 13V9C21.25 6.57397 20.7602 5.07086 19.8447 4.15533C18.9291 3.2398 17.426 2.75 15 2.75H9C6.57397 2.75 5.07086 3.2398 4.15533 4.15533C3.2398 5.07086 2.75 6.57397 2.75 9V15C2.75 17.426 3.2398 18.9291 4.15533 19.8447C5.07086 20.7602 6.57397 21.25 9 21.25H13C13.4142 21.25 13.75 21.5858 13.75 22C13.75 22.4142 13.4142 22.75 13 22.75H9C6.42603 22.75 4.42914 22.2398 3.09467 20.9053C1.7602 19.5709 1.25 17.574 1.25 15V9C1.25 6.42603 1.7602 4.42914 3.09467 3.09467Z" fill="black"/>
</svg>
