<svg width="24" height="24" viewBox="0 0 24 24" fill="none" xmlns="http://www.w3.org/2000/svg">
<path fill-rule="evenodd" clip-rule="evenodd" d="M9 6.75C8.30964 6.75 7.75 7.30964 7.75 8C7.75 8.69036 8.30964 9.25 9 9.25C9.69036 9.25 10.25 8.69036 10.25 8C10.25 7.30964 9.69036 6.75 9 6.75ZM6.25 8C6.25 6.48122 7.48122 5.25 9 5.25C10.5188 5.25 11.75 6.48122 11.75 8C11.75 9.51878 10.5188 10.75 9 10.75C7.48122 10.75 6.25 9.51878 6.25 8Z" fill="black"/>
<path fill-rule="evenodd" clip-rule="evenodd" d="M3.09467 3.09467C4.42914 1.7602 6.42603 1.25 9 1.25H13C13.4142 1.25 13.75 1.58579 13.75 2C13.75 2.41421 13.4142 2.75 13 2.75H9C6.57397 2.75 5.07086 3.2398 4.15533 4.15533C3.2398 5.07086 2.75 6.57397 2.75 9V15C2.75 17.426 3.2398 18.9291 4.15533 19.8447C5.07086 20.7602 6.57397 21.25 9 21.25H15C17.426 21.25 18.9291 20.7602 19.8447 19.8447C20.7602 18.9291 21.25 17.426 21.25 15V10C21.25 9.58579 21.5858 9.25 22 9.25C22.4142 9.25 22.75 9.58579 22.75 10V15C22.75 17.574 22.2398 19.5709 20.9053 20.9053C19.5709 22.2398 17.574 22.75 15 22.75H9C6.42603 22.75 4.42914 22.2398 3.09467 20.9053C1.7602 19.5709 1.25 17.574 1.25 15V9C1.25 6.42603 1.7602 4.42914 3.09467 3.09467Z" fill="black"/>
<path fill-rule="evenodd" clip-rule="evenodd" d="M17.713 1.30711C17.9932 1.19103 18.3158 1.25519 18.5303 1.46969L20.5303 3.46969C20.8232 3.76259 20.8232 4.23746 20.5303 4.53035C20.2374 4.82325 19.7626 4.82325 19.4697 4.53035L18.75 3.81068V8.00002C18.75 8.41424 18.4142 8.75002 18 8.75002C17.5858 8.75002 17.25 8.41424 17.25 8.00002V2.00002C17.25 1.69668 17.4327 1.4232 17.713 1.30711Z" fill="black"/>
<path fill-rule="evenodd" clip-rule="evenodd" d="M18.5303 1.46969C18.8232 1.76258 18.8232 2.23744 18.5303 2.53033L16.5303 4.53033C16.2374 4.82322 15.7626 4.82322 15.4697 4.53033C15.1768 4.23744 15.1768 3.76256 15.4697 3.46967L17.4697 1.46967C17.7626 1.17678 18.2374 1.1768 18.5303 1.46969Z" fill="black"/>
<path fill-rule="evenodd" clip-rule="evenodd" d="M19.8813 13.0694C19.3824 12.6408 18.5376 12.6408 18.0387 13.0694L13.8787 16.6394C13.8786 16.6394 13.8788 16.6393 13.8787 16.6394C12.8176 17.5506 11.1423 17.5507 10.0813 16.6394L10.0749 16.6338L9.74844 16.3469C9.30001 15.9642 8.53368 15.9172 8.01784 16.2633L3.08806 19.5731C2.74417 19.804 2.27822 19.7124 2.04733 19.3685C1.81644 19.0246 1.90804 18.5587 2.25194 18.3278L7.18194 15.0178C8.24502 14.3046 9.75679 14.3765 10.7288 15.2116L10.7351 15.217L11.0615 15.5039C11.5608 15.9301 12.4033 15.9293 12.9013 15.5015L17.0613 11.9315C17.0612 11.9316 17.0614 11.9314 17.0613 11.9315C18.1224 11.0203 19.7977 11.0202 20.8587 11.9315C20.8587 11.9315 20.8587 11.9315 20.8587 11.9315L22.4887 13.3315C22.8029 13.6014 22.8388 14.0749 22.5689 14.3891C22.2991 14.7033 21.8256 14.7393 21.5113 14.4694L19.8813 13.0694Z" fill="black"/>
</svg>
