<svg width="24" height="24" viewBox="0 0 24 24" fill="none" xmlns="http://www.w3.org/2000/svg">
<path fill-rule="evenodd" clip-rule="evenodd" d="M4.15533 4.15533C3.2398 5.07086 2.75 6.57397 2.75 9V15C2.75 17.2379 3.17046 18.6874 3.94658 19.6204C4.21148 19.9388 4.16807 20.4117 3.84964 20.6766C3.5312 20.9415 3.05831 20.8981 2.79342 20.5796C1.68954 19.2526 1.25 17.3821 1.25 15V9C1.25 6.42603 1.7602 4.42914 3.09467 3.09467C4.42914 1.7602 6.42603 1.25 9 1.25H15C17.2557 1.25 19.062 1.63729 20.3734 2.63257C20.7034 2.88298 20.7678 3.35346 20.5174 3.68341C20.267 4.01336 19.7965 4.07784 19.4666 3.82743C18.538 3.12271 17.1243 2.75 15 2.75H9C6.57397 2.75 5.07086 3.2398 4.15533 4.15533Z" fill="black"/>
<path fill-rule="evenodd" clip-rule="evenodd" d="M21.9233 7.24172C22.3367 7.21588 22.6928 7.53007 22.7186 7.94348C22.7397 8.2806 22.7501 8.63628 22.7501 9.00026V15.0003C22.7501 17.5742 22.2399 19.5711 20.9054 20.9056C19.5709 22.2401 17.574 22.7503 15.0001 22.7503H9.00007C8.2352 22.7503 7.51269 22.7091 6.84065 22.6007C6.43172 22.5347 6.15369 22.1498 6.21964 21.7408C6.2856 21.3319 6.67057 21.0539 7.0795 21.1198C7.64745 21.2114 8.28495 21.2503 9.00007 21.2503H15.0001C17.4261 21.2503 18.9292 20.7605 19.8447 19.8449C20.7603 18.9294 21.2501 17.4263 21.2501 15.0003V9.00026C21.2501 8.66424 21.2405 8.33992 21.2215 8.03704C21.1957 7.62364 21.5099 7.26756 21.9233 7.24172Z" fill="black"/>
<path fill-rule="evenodd" clip-rule="evenodd" d="M8 6.75C7.30964 6.75 6.75 7.30964 6.75 8C6.75 8.69036 7.30964 9.25 8 9.25C8.69036 9.25 9.25 8.69036 9.25 8C9.25 7.30964 8.69036 6.75 8 6.75ZM5.25 8C5.25 6.48122 6.48122 5.25 8 5.25C9.51878 5.25 10.75 6.48122 10.75 8C10.75 9.51878 9.51878 10.75 8 10.75C6.48122 10.75 5.25 9.51878 5.25 8Z" fill="black"/>
<path fill-rule="evenodd" clip-rule="evenodd" d="M22.5303 1.46967C22.8232 1.76256 22.8232 2.23744 22.5303 2.53033L2.53033 22.5303C2.23744 22.8232 1.76256 22.8232 1.46967 22.5303C1.17678 22.2374 1.17678 21.7626 1.46967 21.4697L21.4697 1.46967C21.7626 1.17678 22.2374 1.17678 22.5303 1.46967Z" fill="black"/>
<path fill-rule="evenodd" clip-rule="evenodd" d="M18.08 11.9403L13.0505 16.9797C12.4577 17.5726 11.4923 17.5732 10.8994 16.9803C10.6065 16.6874 10.6065 16.2125 10.8994 15.9196C11.1923 15.6267 11.6671 15.6267 11.96 15.9196C11.9622 15.9218 11.9653 15.9233 11.9653 15.9233C11.9674 15.9241 11.9706 15.9249 11.9747 15.9249C11.9787 15.9249 11.982 15.9241 11.984 15.9233C11.984 15.9233 11.9871 15.9219 11.9893 15.9197L17.0188 10.8801C18.0917 9.80724 19.8271 9.80671 20.9 10.8796L20.9016 10.8812L22.5316 12.5212C22.8236 12.815 22.8222 13.2899 22.5284 13.5819C22.2346 13.8739 21.7597 13.8724 21.4677 13.5786L19.8394 11.9403L19.8385 11.9394C19.3514 11.4532 18.5669 11.4536 18.08 11.9403Z" fill="black"/>
</svg>
