<svg width="24" height="24" viewBox="0 0 24 24" fill="none" xmlns="http://www.w3.org/2000/svg">
<path fill-rule="evenodd" clip-rule="evenodd" d="M9 6.75C8.30964 6.75 7.75 7.30964 7.75 8C7.75 8.69036 8.30964 9.25 9 9.25C9.69036 9.25 10.25 8.69036 10.25 8C10.25 7.30964 9.69036 6.75 9 6.75ZM6.25 8C6.25 6.48122 7.48122 5.25 9 5.25C10.5188 5.25 11.75 6.48122 11.75 8C11.75 9.51878 10.5188 10.75 9 10.75C7.48122 10.75 6.25 9.51878 6.25 8Z" fill="black"/>
<path fill-rule="evenodd" clip-rule="evenodd" d="M3.09467 3.09467C4.42914 1.7602 6.42603 1.25 9 1.25H13C13.4142 1.25 13.75 1.58579 13.75 2C13.75 2.41421 13.4142 2.75 13 2.75H9C6.57397 2.75 5.07086 3.2398 4.15533 4.15533C3.2398 5.07086 2.75 6.57397 2.75 9V15C2.75 17.426 3.2398 18.9291 4.15533 19.8447C5.07086 20.7602 6.57397 21.25 9 21.25H15C17.426 21.25 18.9291 20.7602 19.8447 19.8447C20.7602 18.9291 21.25 17.426 21.25 15V10C21.25 9.58579 21.5858 9.25 22 9.25C22.4142 9.25 22.75 9.58579 22.75 10V15C22.75 17.574 22.2398 19.5709 20.9053 20.9053C19.5709 22.2398 17.574 22.75 15 22.75H9C6.42603 22.75 4.42914 22.2398 3.09467 20.9053C1.7602 19.5709 1.25 17.574 1.25 15V9C1.25 6.42603 1.7602 4.42914 3.09467 3.09467Z" fill="black"/>
<path fill-rule="evenodd" clip-rule="evenodd" d="M15 5C15 4.58579 15.3358 4.25 15.75 4.25H21.25C21.6642 4.25 22 4.58579 22 5C22 5.41421 21.6642 5.75 21.25 5.75H15.75C15.3358 5.75 15 5.41421 15 5Z" fill="black"/>
<path fill-rule="evenodd" clip-rule="evenodd" d="M18.5 1.5C18.9142 1.5 19.25 1.83579 19.25 2.25V7.75C19.25 8.16421 18.9142 8.5 18.5 8.5C18.0858 8.5 17.75 8.16421 17.75 7.75V2.25C17.75 1.83579 18.0858 1.5 18.5 1.5Z" fill="black"/>
<path fill-rule="evenodd" clip-rule="evenodd" d="M19.8813 13.0694C19.3824 12.6408 18.5376 12.6408 18.0387 13.0694L13.8787 16.6394C12.8176 17.5506 11.1423 17.5507 10.0813 16.6394L10.0749 16.6338L9.74844 16.3469C9.30001 15.9642 8.53368 15.9172 8.01784 16.2633L3.08806 19.5731C2.74417 19.804 2.27822 19.7124 2.04733 19.3685C1.81644 19.0246 1.90804 18.5587 2.25194 18.3278L7.18194 15.0178C8.24502 14.3046 9.75679 14.3765 10.7288 15.2116L10.7351 15.217L11.0615 15.5039C11.5608 15.9301 12.4033 15.9293 12.9013 15.5015L17.0613 11.9315C18.1224 11.0203 19.7977 11.0202 20.8587 11.9315L22.4887 13.3315C22.8029 13.6014 22.8388 14.0749 22.5689 14.3891C22.2991 14.7033 21.8256 14.7393 21.5113 14.4694L19.8813 13.0694Z" fill="black"/>
</svg>
