<svg width="24" height="24" viewBox="0 0 24 24" fill="none" xmlns="http://www.w3.org/2000/svg">
<path fill-rule="evenodd" clip-rule="evenodd" d="M9 6.75C8.30964 6.75 7.75 7.30964 7.75 8C7.75 8.69036 8.30964 9.25 9 9.25C9.69036 9.25 10.25 8.69036 10.25 8C10.25 7.30964 9.69036 6.75 9 6.75ZM6.25 8C6.25 6.48122 7.48122 5.25 9 5.25C10.5188 5.25 11.75 6.48122 11.75 8C11.75 9.51878 10.5188 10.75 9 10.75C7.48122 10.75 6.25 9.51878 6.25 8Z" fill="black"/>
<path fill-rule="evenodd" clip-rule="evenodd" d="M3.09467 3.09467C4.42914 1.7602 6.42603 1.25 9 1.25H13C13.4142 1.25 13.75 1.58579 13.75 2C13.75 2.41421 13.4142 2.75 13 2.75H9C6.57397 2.75 5.07086 3.2398 4.15533 4.15533C3.2398 5.07086 2.75 6.57397 2.75 9V15C2.75 17.426 3.2398 18.9291 4.15533 19.8447C5.07086 20.7602 6.57397 21.25 9 21.25H15C17.426 21.25 18.9291 20.7602 19.8447 19.8447C20.7602 18.9291 21.25 17.426 21.25 15V10C21.25 9.58579 21.5858 9.25 22 9.25C22.4142 9.25 22.75 9.58579 22.75 10V15C22.75 17.574 22.2398 19.5709 20.9053 20.9053C19.5709 22.2398 17.574 22.75 15 22.75H9C6.42603 22.75 4.42914 22.2398 3.09467 20.9053C1.7602 19.5709 1.25 17.574 1.25 15V9C1.25 6.42603 1.7602 4.42914 3.09467 3.09467Z" fill="black"/>
<path fill-rule="evenodd" clip-rule="evenodd" d="M21.9514 2.07088C21.3938 1.50778 20.7727 1.19405 20.0951 1.25955C19.4575 1.32118 18.9638 1.70507 18.6094 2.05949L14.9794 5.68949C14.8379 5.83098 14.7245 6.00577 14.6439 6.16691C14.567 6.32079 14.4903 6.52148 14.4656 6.73562L14.2674 8.113L14.267 8.11583C14.2042 8.56452 14.3249 9.02315 14.6556 9.3539C14.9864 9.68464 15.445 9.80539 15.8937 9.74257L17.2865 9.54217L17.2967 9.54064C17.4845 9.51099 17.6736 9.44181 17.8298 9.36638C17.9831 9.29228 18.169 9.18117 18.3201 9.03015L21.9501 5.40015C22.3068 5.04345 22.6859 4.55027 22.7475 3.91597C22.8127 3.24304 22.5051 2.6251 21.9514 2.07088ZM20.2394 2.75259C20.1269 2.76346 19.9456 2.84457 19.6701 3.12015L16.0412 6.74896L16.0401 6.75015L16.0412 6.74896C16.0412 6.74896 16.0348 6.75616 16.0244 6.7713C16.0119 6.78941 15.9982 6.81237 15.9855 6.83773C15.9728 6.86324 15.9638 6.88569 15.9584 6.90218C15.9567 6.90758 15.9556 6.91141 15.955 6.91369C15.9542 6.92135 15.9532 6.929 15.9521 6.93663L15.7637 8.24584L17.0629 8.0589C17.066 8.05821 17.0771 8.05561 17.0959 8.04927C17.12 8.04116 17.1482 8.02975 17.1772 8.01576C17.2063 8.00169 17.2307 7.98765 17.2484 7.97597C17.2568 7.9704 17.2618 7.96661 17.264 7.96491L20.8894 4.33949C21.1627 4.06619 21.2435 3.88436 21.2545 3.77116C21.2617 3.69715 21.2548 3.49557 20.8894 3.13015L20.8866 3.12731C20.5146 2.75132 20.3112 2.74564 20.2394 2.75259Z" fill="black"/>
<path fill-rule="evenodd" clip-rule="evenodd" d="M18.4169 2.38769C18.8156 2.27533 19.2298 2.50744 19.3422 2.90613C19.5814 3.75486 20.245 4.4185 21.0937 4.65769C21.4924 4.77004 21.7245 5.18432 21.6122 5.58301C21.4998 5.98169 21.0856 6.2138 20.6869 6.10145C19.3356 5.72064 18.2792 4.66427 17.8984 3.31301C17.7861 2.91432 18.0182 2.50004 18.4169 2.38769Z" fill="black"/>
<path fill-rule="evenodd" clip-rule="evenodd" d="M19.8813 13.0694C19.3824 12.6408 18.5376 12.6408 18.0387 13.0694L13.8787 16.6394C12.8176 17.5506 11.1423 17.5507 10.0813 16.6394L10.0749 16.6338L9.74844 16.3469C9.30001 15.9642 8.53368 15.9172 8.01784 16.2633L3.08806 19.5731C2.74417 19.804 2.27822 19.7124 2.04733 19.3685C1.81644 19.0246 1.90804 18.5587 2.25194 18.3278L7.18194 15.0178C8.24502 14.3046 9.75679 14.3765 10.7288 15.2116L10.7351 15.217L11.0615 15.5039C11.5608 15.9301 12.4033 15.9293 12.9013 15.5015L17.0613 11.9315C18.1224 11.0203 19.7977 11.0202 20.8587 11.9315L22.4887 13.3315C22.8029 13.6014 22.8388 14.0749 22.5689 14.3891C22.2991 14.7033 21.8256 14.7393 21.5113 14.4694L19.8813 13.0694Z" fill="black"/>
</svg>
