<svg width="24" height="24" viewBox="0 0 24 24" fill="none" xmlns="http://www.w3.org/2000/svg">
<path fill-rule="evenodd" clip-rule="evenodd" d="M10.0999 11.9296C10.3928 12.2225 10.3928 12.6974 10.0999 12.9903L7.04986 16.0403C6.75697 16.3332 6.28209 16.3332 5.9892 16.0403C5.69631 15.7474 5.69631 15.2725 5.9892 14.9796L9.0392 11.9296C9.33209 11.6367 9.80697 11.6367 10.0999 11.9296Z" fill="black"/>
<path fill-rule="evenodd" clip-rule="evenodd" d="M6.01947 11.9599C6.31237 11.667 6.78724 11.667 7.08013 11.9599L10.1301 15.0099C10.423 15.3028 10.423 15.7777 10.1301 16.0706C9.83724 16.3635 9.36237 16.3635 9.06947 16.0706L6.01947 13.0206C5.72658 12.7277 5.72658 12.2528 6.01947 11.9599Z" fill="black"/>
<path fill-rule="evenodd" clip-rule="evenodd" d="M12.5303 14C12.5303 13.4477 12.978 13 13.5303 13H13.5403C14.0926 13 14.5403 13.4477 14.5403 14C14.5403 14.5523 14.0926 15 13.5403 15H13.5303C12.978 15 12.5303 14.5523 12.5303 14Z" fill="black"/>
<path fill-rule="evenodd" clip-rule="evenodd" d="M16.4697 14C16.4697 13.4477 16.9174 13 17.4697 13H17.4797C18.032 13 18.4797 13.4477 18.4797 14C18.4797 14.5523 18.032 15 17.4797 15H17.4697C16.9174 15 16.4697 14.5523 16.4697 14Z" fill="black"/>
<path fill-rule="evenodd" clip-rule="evenodd" d="M15.5 14.96C16.0523 14.96 16.5 15.4077 16.5 15.96V15.98C16.5 16.5322 16.0523 16.98 15.5 16.98C14.9477 16.98 14.5 16.5322 14.5 15.98V15.96C14.5 15.4077 14.9477 14.96 15.5 14.96Z" fill="black"/>
<path fill-rule="evenodd" clip-rule="evenodd" d="M15.5 11.0195C16.0523 11.0195 16.5 11.4672 16.5 12.0195V12.0395C16.5 12.5918 16.0523 13.0395 15.5 13.0395C14.9477 13.0395 14.5 12.5918 14.5 12.0395V12.0195C14.5 11.4672 14.9477 11.0195 15.5 11.0195Z" fill="black"/>
<path fill-rule="evenodd" clip-rule="evenodd" d="M3.09467 7.09467C4.42914 5.7602 6.42603 5.25 9 5.25H15C17.574 5.25 19.5709 5.7602 20.9053 7.09467C22.2398 8.42914 22.75 10.426 22.75 13V15C22.75 17.574 22.2398 19.5709 20.9053 20.9053C19.5709 22.2398 17.574 22.75 15 22.75H9C6.42603 22.75 4.42914 22.2398 3.09467 20.9053C1.7602 19.5709 1.25 17.574 1.25 15V13C1.25 10.426 1.7602 8.42914 3.09467 7.09467ZM4.15533 8.15533C3.2398 9.07086 2.75 10.574 2.75 13V15C2.75 17.426 3.2398 18.9291 4.15533 19.8447C5.07086 20.7602 6.57397 21.25 9 21.25H15C17.426 21.25 18.9291 20.7602 19.8447 19.8447C20.7602 18.9291 21.25 17.426 21.25 15V13C21.25 10.574 20.7602 9.07086 19.8447 8.15533C18.9291 7.2398 17.426 6.75 15 6.75H9C6.57397 6.75 5.07086 7.2398 4.15533 8.15533Z" fill="black"/>
<path fill-rule="evenodd" clip-rule="evenodd" d="M13.0179 1.25004C13.4321 1.25414 13.7645 1.59323 13.7604 2.00743L13.7504 3.02364C13.7331 3.97459 12.9672 4.75 12.0005 4.75H11.9705C11.8445 4.75 11.7305 4.85436 11.7305 5C11.7305 5.13579 11.8447 5.25 11.9805 5.25H12.9805C13.3947 5.25 13.7305 5.58579 13.7305 6C13.7305 6.41421 13.3947 6.75 12.9805 6.75H11.9805C11.0163 6.75 10.2305 5.96421 10.2305 5C10.2305 4.04564 10.9965 3.25 11.9705 3.25H12.0005C12.1331 3.25 12.2468 3.14642 12.2505 2.99853L12.2605 1.99258C12.2646 1.57838 12.6037 1.24594 13.0179 1.25004Z" fill="black"/>
</svg>
