<svg width="24" height="24" viewBox="0 0 24 24" fill="none" xmlns="http://www.w3.org/2000/svg">
<path fill-rule="evenodd" clip-rule="evenodd" d="M4.7371 3.88534C4.09637 4.57535 3.75 5.61497 3.75 7V17C3.75 18.385 4.09637 19.4246 4.7371 20.1147C5.36848 20.7946 6.39295 21.25 8 21.25H16C17.607 21.25 18.6315 20.7946 19.2629 20.1147C19.9036 19.4246 20.25 18.385 20.25 17V7C20.25 5.61497 19.9036 4.57535 19.2629 3.88534C18.6315 3.20538 17.607 2.75 16 2.75H8C6.39295 2.75 5.36848 3.20538 4.7371 3.88534ZM3.6379 2.86466C4.63152 1.79462 6.10705 1.25 8 1.25H16C17.893 1.25 19.3685 1.79462 20.3621 2.86466C21.3464 3.92465 21.75 5.38503 21.75 7V17C21.75 18.615 21.3464 20.0754 20.3621 21.1353C19.3685 22.2054 17.893 22.75 16 22.75H8C6.10705 22.75 4.63152 22.2054 3.6379 21.1353C2.65363 20.0754 2.25 18.615 2.25 17V7C2.25 5.38503 2.65363 3.92465 3.6379 2.86466Z" fill="black"/>
<path fill-rule="evenodd" clip-rule="evenodd" d="M7.75 5.75C7.20421 5.75 6.75 6.20421 6.75 6.75V9.25C6.75 9.79579 7.20421 10.25 7.75 10.25H16.25C16.7958 10.25 17.25 9.79579 17.25 9.25V6.75C17.25 6.20421 16.7958 5.75 16.25 5.75H7.75ZM5.25 6.75C5.25 5.37579 6.37579 4.25 7.75 4.25H16.25C17.6242 4.25 18.75 5.37579 18.75 6.75V9.25C18.75 10.6242 17.6242 11.75 16.25 11.75H7.75C6.37579 11.75 5.25 10.6242 5.25 9.25V6.75Z" fill="black"/>
<path fill-rule="evenodd" clip-rule="evenodd" d="M10.8303 14.7499C11.1232 15.0428 11.1232 15.5177 10.8303 15.8106L8.53033 18.1106C8.23744 18.4035 7.76256 18.4035 7.46967 18.1106C7.17678 17.8177 7.17678 17.3428 7.46967 17.0499L9.76966 14.7499C10.0626 14.4571 10.5374 14.4571 10.8303 14.7499Z" fill="black"/>
<path fill-rule="evenodd" clip-rule="evenodd" d="M7.49994 14.7792C7.79284 14.4863 8.26771 14.4863 8.5606 14.7792L10.8606 17.0792C11.1535 17.3721 11.1535 17.847 10.8606 18.1399C10.5677 18.4328 10.0928 18.4328 9.79993 18.1399L7.49994 15.8399C7.20705 15.547 7.20705 15.0721 7.49994 14.7792Z" fill="black"/>
<path fill-rule="evenodd" clip-rule="evenodd" d="M15.4902 15.3301C15.4902 14.7778 15.9379 14.3301 16.4902 14.3301H16.5103C17.0625 14.3301 17.5103 14.7778 17.5103 15.3301C17.5103 15.8824 17.0625 16.3301 16.5103 16.3301H16.4902C15.9379 16.3301 15.4902 15.8824 15.4902 15.3301Z" fill="black"/>
<path fill-rule="evenodd" clip-rule="evenodd" d="M14.4902 16.4805C15.0425 16.4805 15.4902 16.9282 15.4902 17.4805V17.5005C15.4902 18.0528 15.0425 18.5005 14.4902 18.5005C13.9379 18.5005 13.4902 18.0528 13.4902 17.5005V17.4805C13.4902 16.9282 13.9379 16.4805 14.4902 16.4805Z" fill="black"/>
</svg>
