<svg width="24" height="24" viewBox="0 0 24 24" fill="none" xmlns="http://www.w3.org/2000/svg">
<path fill-rule="evenodd" clip-rule="evenodd" d="M3.21973 10C3.21973 9.58579 3.55551 9.25 3.96973 9.25H19.9697C20.3839 9.25 20.7197 9.58579 20.7197 10V18C20.7197 19.5415 20.4725 20.8079 19.6251 21.6553C18.7776 22.5028 17.5113 22.75 15.9697 22.75H7.96973C6.42818 22.75 5.16182 22.5028 4.3144 21.6553C3.46698 20.8079 3.21973 19.5415 3.21973 18V10ZM4.71973 10.75V18C4.71973 19.4585 4.97248 20.1921 5.37506 20.5947C5.77764 20.9972 6.51128 21.25 7.96973 21.25H15.9697C17.4282 21.25 18.1618 20.9972 18.5644 20.5947C18.967 20.1921 19.2197 19.4585 19.2197 18V10.75H4.71973Z" fill="black"/>
<path fill-rule="evenodd" clip-rule="evenodd" d="M3.49722 6.07381C3.35094 6.24556 3.25 6.53929 3.25 7V8C3.25 8.46071 3.35094 8.75444 3.49722 8.92619C3.6239 9.07493 3.88538 9.25 4.5 9.25H19.5C20.0758 9.25 20.3461 9.07991 20.4861 8.91945C20.6423 8.74039 20.75 8.44239 20.75 8V7C20.75 6.55761 20.6423 6.25961 20.4861 6.08055C20.3461 5.92009 20.0758 5.75 19.5 5.75H4.5C3.88538 5.75 3.6239 5.92507 3.49722 6.07381ZM2.35528 5.10119C2.8461 4.52493 3.58462 4.25 4.5 4.25H19.5C20.3942 4.25 21.1239 4.52991 21.6164 5.09445C22.0927 5.64039 22.25 6.34239 22.25 7V8C22.25 8.65761 22.0927 9.35961 21.6164 9.90555C21.1239 10.4701 20.3942 10.75 19.5 10.75H4.5C3.58462 10.75 2.8461 10.4751 2.35528 9.89881C1.88406 9.34556 1.75 8.63929 1.75 8V7C1.75 6.36071 1.88406 5.65444 2.35528 5.10119Z" fill="black"/>
<path fill-rule="evenodd" clip-rule="evenodd" d="M8.38946 2.80978C8.31235 2.73268 8.17722 2.73268 8.10012 2.80978L6.68012 4.22978C6.6738 4.2361 6.668 4.24267 6.66273 4.24945H9.82913L8.38946 2.80978ZM7.03946 1.74912C7.70235 1.08623 8.78722 1.08623 9.45012 1.74912L12.1701 4.46912C12.3846 4.68362 12.4488 5.00621 12.3327 5.28647C12.2166 5.56672 11.9431 5.74945 11.6398 5.74945H6.11979C5.90988 5.74945 5.70957 5.66149 5.56754 5.50692C4.95535 4.84071 4.97554 3.81304 5.61946 3.16912L7.03946 1.74912Z" fill="black"/>
<path fill-rule="evenodd" clip-rule="evenodd" d="M15.8893 2.80978C15.8122 2.73268 15.6771 2.73268 15.6 2.80978L14.1603 4.24945H17.3267C17.3214 4.24267 17.3156 4.2361 17.3093 4.22978L15.8893 2.80978ZM14.5393 1.74912C15.2022 1.08623 16.2871 1.08623 16.95 1.74912L18.37 3.16912C19.0139 3.81304 19.0341 4.84071 18.4219 5.50692C18.2798 5.66149 18.0795 5.74945 17.8696 5.74945H12.3496C12.0463 5.74945 11.7728 5.56672 11.6567 5.28647C11.5406 5.00621 11.6048 4.68362 11.8193 4.46912L14.5393 1.74912Z" fill="black"/>
<path fill-rule="evenodd" clip-rule="evenodd" d="M8.18945 10C8.18945 9.58579 8.52524 9.25 8.93945 9.25H14.9695C15.3837 9.25 15.7195 9.58579 15.7195 10V15.13C15.7195 16.533 14.1586 17.3541 13.0034 16.584L13.0002 16.5819L12.1124 15.9833C12.0385 15.9347 11.9337 15.928 11.8388 15.9884L10.8946 16.6112C9.73539 17.3552 8.18945 16.5449 8.18945 15.14V10ZM9.68945 10.75V15.14C9.68945 15.3341 9.90137 15.4635 10.0816 15.3506L11.022 14.7303C11.6061 14.3523 12.3599 14.3456 12.9455 14.736L12.9487 14.7381L13.8366 15.3367C14.0013 15.4453 14.2195 15.3266 14.2195 15.13V10.75H9.68945Z" fill="black"/>
</svg>
