<svg width="24" height="24" viewBox="0 0 24 24" fill="none" xmlns="http://www.w3.org/2000/svg">
<path fill-rule="evenodd" clip-rule="evenodd" d="M9.25 17.5C9.25 17.0858 9.58579 16.75 10 16.75H14C14.4142 16.75 14.75 17.0858 14.75 17.5C14.75 17.9142 14.4142 18.25 14 18.25H10C9.58579 18.25 9.25 17.9142 9.25 17.5Z" fill="black"/>
<path fill-rule="evenodd" clip-rule="evenodd" d="M3.53033 4.03033C3.01884 4.54182 2.75 5.49464 2.75 7.5V17.5C2.75 17.9142 2.41421 18.25 2 18.25C1.58579 18.25 1.25 17.9142 1.25 17.5V7.5C1.25 5.50536 1.48116 3.95818 2.46967 2.96967C3.45818 1.98116 5.00536 1.75 7 1.75C7.41421 1.75 7.75 2.08579 7.75 2.5C7.75 2.91421 7.41421 3.25 7 3.25C4.99464 3.25 4.04182 3.51884 3.53033 4.03033Z" fill="black"/>
<path fill-rule="evenodd" clip-rule="evenodd" d="M16.25 2.5C16.25 2.08579 16.5858 1.75 17 1.75C18.9946 1.75 20.5418 1.98116 21.5303 2.96967C22.5188 3.95818 22.75 5.50536 22.75 7.5V17.5C22.75 17.9142 22.4142 18.25 22 18.25C21.5858 18.25 21.25 17.9142 21.25 17.5V7.5C21.25 5.49464 20.9812 4.54182 20.4697 4.03033C19.9582 3.51884 19.0054 3.25 17 3.25C16.5858 3.25 16.25 2.91421 16.25 2.5Z" fill="black"/>
<path fill-rule="evenodd" clip-rule="evenodd" d="M3.18033 14.2907C2.9398 14.5312 2.75 14.9843 2.75 15.9104V19.2004C2.75 20.1264 2.9398 20.5795 3.18033 20.82C3.42086 21.0606 3.87397 21.2504 4.8 21.2504H7.2C8.12603 21.2504 8.57914 21.0606 8.81967 20.82C9.0602 20.5795 9.25 20.1264 9.25 19.2004V15.9104C9.25 14.9843 9.0602 14.5312 8.81967 14.2907C8.57914 14.0502 8.12603 13.8604 7.2 13.8604H4.8C3.87397 13.8604 3.42086 14.0502 3.18033 14.2907ZM2.11967 13.23C2.77914 12.5706 3.72603 12.3604 4.8 12.3604H7.2C8.27397 12.3604 9.22086 12.5706 9.88033 13.23C10.5398 13.8895 10.75 14.8364 10.75 15.9104V19.2004C10.75 20.2743 10.5398 21.2212 9.88033 21.8807C9.22086 22.5402 8.27397 22.7504 7.2 22.7504H4.8C3.72603 22.7504 2.77914 22.5402 2.11967 21.8807C1.4602 21.2212 1.25 20.2743 1.25 19.2004V15.9104C1.25 14.8364 1.4602 13.8895 2.11967 13.23Z" fill="black"/>
<path fill-rule="evenodd" clip-rule="evenodd" d="M15.1803 14.2907C14.9398 14.5312 14.75 14.9843 14.75 15.9104V19.2004C14.75 20.1264 14.9398 20.5795 15.1803 20.82C15.4209 21.0606 15.874 21.2504 16.8 21.2504H19.2C20.126 21.2504 20.5791 21.0606 20.8197 20.82C21.0602 20.5795 21.25 20.1264 21.25 19.2004V15.9104C21.25 14.9843 21.0602 14.5312 20.8197 14.2907C20.5791 14.0502 20.126 13.8604 19.2 13.8604H16.8C15.874 13.8604 15.4209 14.0502 15.1803 14.2907ZM14.1197 13.23C14.7791 12.5706 15.726 12.3604 16.8 12.3604H19.2C20.274 12.3604 21.2209 12.5706 21.8803 13.23C22.5398 13.8895 22.75 14.8364 22.75 15.9104V19.2004C22.75 20.2743 22.5398 21.2212 21.8803 21.8807C21.2209 22.5401 20.274 22.7504 19.2 22.7504H16.8C15.726 22.7504 14.7791 22.5401 14.1197 21.8807C13.4602 21.2212 13.25 20.2743 13.25 19.2004V15.9104C13.25 14.8364 13.4602 13.8895 14.1197 13.23Z" fill="black"/>
</svg>
