<svg width="24" height="24" viewBox="0 0 24 24" fill="none" xmlns="http://www.w3.org/2000/svg">
<path fill-rule="evenodd" clip-rule="evenodd" d="M1.25 12C1.25 6.06579 6.06579 1.25 12 1.25C17.9342 1.25 22.75 6.06579 22.75 12C22.75 12.4142 22.4142 12.75 22 12.75C21.5858 12.75 21.25 12.4142 21.25 12C21.25 6.89421 17.1058 2.75 12 2.75C6.89421 2.75 2.75 6.89421 2.75 12C2.75 17.1058 6.89421 21.25 12 21.25C12.4142 21.25 12.75 21.5858 12.75 22C12.75 22.4142 12.4142 22.75 12 22.75C6.06579 22.75 1.25 17.9342 1.25 12Z" fill="black"/>
<path fill-rule="evenodd" clip-rule="evenodd" d="M7.24961 3C7.24961 2.58579 7.5854 2.25 7.99961 2.25H8.99961C9.24076 2.25 9.4672 2.36596 9.60815 2.56162C9.74911 2.75729 9.78738 3.0088 9.711 3.23754C7.81248 8.92336 7.81248 15.0766 9.711 20.7625C9.78738 20.9912 9.74911 21.2427 9.60815 21.4384C9.4672 21.634 9.24076 21.75 8.99961 21.75H7.99961C7.5854 21.75 7.24961 21.4142 7.24961 21C7.24961 20.593 7.57375 20.2618 7.97794 20.2503C6.39017 14.8661 6.39017 9.13389 7.97794 3.74969C7.57375 3.73823 7.24961 3.40697 7.24961 3Z" fill="black"/>
<path fill-rule="evenodd" clip-rule="evenodd" d="M14.7638 2.28845C15.1569 2.15787 15.5814 2.37067 15.712 2.76376C16.7072 5.75982 17.2102 8.87964 17.2102 12.0002C17.2102 12.4144 16.8744 12.7502 16.4602 12.7502C16.046 12.7502 15.7102 12.4144 15.7102 12.0002C15.7102 9.04076 15.2332 6.08058 14.2884 3.23664C14.1579 2.84355 14.3707 2.41903 14.7638 2.28845Z" fill="black"/>
<path fill-rule="evenodd" clip-rule="evenodd" d="M2.56115 14.3918C2.75655 14.2508 3.00778 14.2123 3.23644 14.2882C6.08038 15.233 9.04056 15.71 12 15.71C12.4142 15.71 12.75 16.0458 12.75 16.46C12.75 16.8742 12.4142 17.21 12 17.21C9.22034 17.21 6.44127 16.8109 3.74973 16.0203C3.73898 16.4251 3.40743 16.75 3 16.75C2.58579 16.75 2.25 16.4142 2.25 16V15C2.25 14.7591 2.36576 14.5328 2.56115 14.3918Z" fill="black"/>
<path fill-rule="evenodd" clip-rule="evenodd" d="M20.7627 9.711C15.0768 7.81248 8.92357 7.81248 3.23774 9.711C2.84485 9.84219 2.42 9.63004 2.28881 9.23715C2.15763 8.84426 2.36978 8.41941 2.76267 8.28822C8.75684 6.28674 15.2436 6.28674 21.2377 8.28822C21.6306 8.41941 21.8428 8.84426 21.7116 9.23715C21.5804 9.63004 21.1556 9.84219 20.7627 9.711Z" fill="black"/>
<path fill-rule="evenodd" clip-rule="evenodd" d="M13.7598 18.2595C13.7598 15.7866 15.7642 13.7695 18.2498 13.7695C18.7862 13.7695 19.2781 13.8512 19.7135 13.9806C20.1105 14.0987 20.3367 14.5162 20.2187 14.9133C20.1006 15.3103 19.6831 15.5365 19.286 15.4184C18.9814 15.3279 18.6333 15.2695 18.2498 15.2695C16.5953 15.2695 15.2598 16.6124 15.2598 18.2595C15.2598 19.914 16.6027 21.2495 18.2498 21.2495C19.8955 21.2495 21.2397 19.9053 21.2397 18.2595C21.2397 17.6397 21.0548 17.0663 20.739 16.6004C20.5065 16.2575 20.596 15.7912 20.9389 15.5587C21.2817 15.3263 21.7481 15.4158 21.9805 15.7586C22.4647 16.4727 22.7397 17.3394 22.7397 18.2595C22.7397 20.7337 20.724 22.7495 18.2498 22.7495C15.7768 22.7495 13.7598 20.745 13.7598 18.2595Z" fill="black"/>
<path fill-rule="evenodd" clip-rule="evenodd" d="M18.2964 12.8055C18.6083 12.5328 19.0821 12.5647 19.3547 12.8765L20.6047 14.3065C20.8773 14.6184 20.8455 15.0922 20.5336 15.3648C20.2218 15.6374 19.748 15.6056 19.4754 15.2937L18.2254 13.8637C17.9528 13.5519 17.9846 13.0781 18.2964 12.8055Z" fill="black"/>
<path fill-rule="evenodd" clip-rule="evenodd" d="M20.6471 14.3592C20.8904 14.6944 20.816 15.1634 20.4808 15.4068L19.0208 16.4668C18.6856 16.7101 18.2166 16.6357 17.9732 16.3005C17.7299 15.9653 17.8043 15.4963 18.1395 15.2529L19.5995 14.1929C19.9347 13.9496 20.4037 14.024 20.6471 14.3592Z" fill="black"/>
</svg>
