<svg width="24" height="24" viewBox="0 0 24 24" fill="none" xmlns="http://www.w3.org/2000/svg">
<path fill-rule="evenodd" clip-rule="evenodd" d="M1.25 12C1.25 6.06579 6.06579 1.25 12 1.25C17.9342 1.25 22.75 6.06579 22.75 12C22.75 12.4142 22.4142 12.75 22 12.75C21.5858 12.75 21.25 12.4142 21.25 12C21.25 6.89421 17.1058 2.75 12 2.75C6.89421 2.75 2.75 6.89421 2.75 12C2.75 17.1058 6.89421 21.25 12 21.25C12.4142 21.25 12.75 21.5858 12.75 22C12.75 22.4142 12.4142 22.75 12 22.75C6.06579 22.75 1.25 17.9342 1.25 12Z" fill="black"/>
<path fill-rule="evenodd" clip-rule="evenodd" d="M7.24961 3C7.24961 2.58579 7.5854 2.25 7.99961 2.25H8.99961C9.24076 2.25 9.4672 2.36596 9.60815 2.56162C9.74911 2.75729 9.78738 3.0088 9.711 3.23754C7.81248 8.92336 7.81248 15.0766 9.711 20.7625C9.78738 20.9912 9.74911 21.2427 9.60815 21.4384C9.4672 21.634 9.24076 21.75 8.99961 21.75H7.99961C7.5854 21.75 7.24961 21.4142 7.24961 21C7.24961 20.593 7.57375 20.2618 7.97794 20.2503C6.39017 14.8661 6.39017 9.13389 7.97794 3.74969C7.57375 3.73823 7.24961 3.40697 7.24961 3Z" fill="black"/>
<path fill-rule="evenodd" clip-rule="evenodd" d="M14.7638 2.28845C15.1569 2.15787 15.5814 2.37067 15.712 2.76376C16.7072 5.75982 17.2102 8.87964 17.2102 12.0002C17.2102 12.4144 16.8744 12.7502 16.4602 12.7502C16.046 12.7502 15.7102 12.4144 15.7102 12.0002C15.7102 9.04076 15.2332 6.08059 14.2884 3.23664C14.1579 2.84355 14.3707 2.41903 14.7638 2.28845Z" fill="black"/>
<path fill-rule="evenodd" clip-rule="evenodd" d="M2.56115 14.3918C2.75655 14.2508 3.00778 14.2123 3.23644 14.2882C6.08038 15.233 9.04056 15.71 12 15.71C12.4142 15.71 12.75 16.0458 12.75 16.46C12.75 16.8742 12.4142 17.21 12 17.21C9.22034 17.21 6.44127 16.8109 3.74973 16.0203C3.73898 16.4251 3.40743 16.75 3 16.75C2.58579 16.75 2.25 16.4142 2.25 16V15C2.25 14.7591 2.36576 14.5328 2.56115 14.3918Z" fill="black"/>
<path fill-rule="evenodd" clip-rule="evenodd" d="M20.7627 9.711C15.0768 7.81248 8.92357 7.81248 3.23774 9.711C2.84485 9.84219 2.42 9.63004 2.28881 9.23715C2.15763 8.84426 2.36978 8.41941 2.76267 8.28822C8.75684 6.28674 15.2436 6.28674 21.2377 8.28822C21.6306 8.41941 21.8428 8.84426 21.7116 9.23715C21.5804 9.63004 21.1556 9.84219 20.7627 9.711Z" fill="black"/>
<path fill-rule="evenodd" clip-rule="evenodd" d="M18.2 15.75C16.8469 15.75 15.75 16.8469 15.75 18.2C15.75 19.5531 16.8469 20.65 18.2 20.65C19.5531 20.65 20.65 19.5531 20.65 18.2C20.65 16.8469 19.5531 15.75 18.2 15.75ZM14.25 18.2C14.25 16.0185 16.0185 14.25 18.2 14.25C20.3815 14.25 22.15 16.0185 22.15 18.2C22.15 20.3815 20.3815 22.15 18.2 22.15C16.0185 22.15 14.25 20.3815 14.25 18.2Z" fill="black"/>
<path fill-rule="evenodd" clip-rule="evenodd" d="M20.4697 20.4697C20.7626 20.1768 21.2374 20.1768 21.5303 20.4697L22.5303 21.4697C22.8232 21.7626 22.8232 22.2374 22.5303 22.5303C22.2374 22.8232 21.7626 22.8232 21.4697 22.5303L20.4697 21.5303C20.1768 21.2374 20.1768 20.7626 20.4697 20.4697Z" fill="black"/>
</svg>
