<svg width="24" height="24" viewBox="0 0 24 24" fill="none" xmlns="http://www.w3.org/2000/svg">
<path fill-rule="evenodd" clip-rule="evenodd" d="M1.25 12C1.25 6.06579 6.06579 1.25 12 1.25C17.9342 1.25 22.75 6.06579 22.75 12C22.75 12.4142 22.4142 12.75 22 12.75C21.5858 12.75 21.25 12.4142 21.25 12C21.25 6.89421 17.1058 2.75 12 2.75C6.89421 2.75 2.75 6.89421 2.75 12C2.75 17.1058 6.89421 21.25 12 21.25C12.4142 21.25 12.75 21.5858 12.75 22C12.75 22.4142 12.4142 22.75 12 22.75C6.06579 22.75 1.25 17.9342 1.25 12Z" fill="black"/>
<path fill-rule="evenodd" clip-rule="evenodd" d="M7.24961 3C7.24961 2.58579 7.5854 2.25 7.99961 2.25H8.99961C9.24076 2.25 9.4672 2.36596 9.60815 2.56162C9.74911 2.75729 9.78738 3.0088 9.711 3.23754C7.81248 8.92336 7.81248 15.0766 9.711 20.7625C9.78738 20.9912 9.74911 21.2427 9.60815 21.4384C9.4672 21.634 9.24076 21.75 8.99961 21.75H7.99961C7.5854 21.75 7.24961 21.4142 7.24961 21C7.24961 20.593 7.57375 20.2618 7.97794 20.2503C6.39017 14.8661 6.39017 9.13389 7.97794 3.74969C7.57375 3.73823 7.24961 3.40697 7.24961 3Z" fill="black"/>
<path fill-rule="evenodd" clip-rule="evenodd" d="M14.7638 2.28845C15.1569 2.15787 15.5814 2.37067 15.712 2.76376C16.7072 5.75982 17.2102 8.87964 17.2102 12.0002C17.2102 12.4144 16.8744 12.7502 16.4602 12.7502C16.046 12.7502 15.7102 12.4144 15.7102 12.0002C15.7102 9.04076 15.2332 6.08059 14.2884 3.23664C14.1579 2.84355 14.3707 2.41903 14.7638 2.28845Z" fill="black"/>
<path fill-rule="evenodd" clip-rule="evenodd" d="M2.56115 14.3918C2.75655 14.2508 3.00778 14.2123 3.23644 14.2882C6.08038 15.233 9.04056 15.71 12 15.71C12.4142 15.71 12.75 16.0458 12.75 16.46C12.75 16.8742 12.4142 17.21 12 17.21C9.22034 17.21 6.44127 16.8109 3.74973 16.0203C3.73898 16.4251 3.40743 16.75 3 16.75C2.58579 16.75 2.25 16.4142 2.25 16V15C2.25 14.7591 2.36576 14.5328 2.56115 14.3918Z" fill="black"/>
<path fill-rule="evenodd" clip-rule="evenodd" d="M20.7627 9.711C15.0768 7.81248 8.92357 7.81248 3.23774 9.711C2.84485 9.84219 2.42 9.63004 2.28881 9.23715C2.15763 8.84426 2.36978 8.41941 2.76267 8.28822C8.75684 6.28674 15.2436 6.28674 21.2377 8.28822C21.6306 8.41941 21.8428 8.84426 21.7116 9.23715C21.5804 9.63004 21.1556 9.84219 20.7627 9.711Z" fill="black"/>
<path fill-rule="evenodd" clip-rule="evenodd" d="M20.1332 14.4266C20.7964 14.3585 21.4067 14.6563 21.9502 15.1998C22.4968 15.7464 22.7983 16.358 22.7325 17.0228C22.6706 17.6479 22.2978 18.1329 21.9502 18.4805L18.4178 22.0129C18.2712 22.1665 18.0909 22.2782 17.9427 22.3523C17.7869 22.4302 17.5975 22.5009 17.4068 22.531L17.3944 22.533L16.0459 22.7226C15.6044 22.7855 15.1485 22.6695 14.8195 22.3405C14.4906 22.0116 14.3744 21.5565 14.4373 21.1149L14.6289 19.7532C14.6595 19.5595 14.7318 19.3712 14.8094 19.2179C14.887 19.0645 14.9972 18.8922 15.1395 18.7499L18.6795 15.2099C19.0272 14.8622 19.5111 14.4905 20.1332 14.4266ZM20.2865 15.9188C20.1786 15.9298 20.0025 16.0082 19.7402 16.2705L16.2015 19.8092C16.2015 19.8092 16.1954 19.8162 16.1861 19.8298C16.1742 19.847 16.1608 19.8694 16.1478 19.895C16.1349 19.9207 16.1247 19.9449 16.1178 19.9647C16.1135 19.9771 16.1114 19.9848 16.1107 19.9878L15.9368 21.2232L17.1729 21.0492C17.1761 21.0485 17.1852 21.0462 17.2 21.0411C17.2214 21.0337 17.2465 21.0233 17.272 21.0106C17.2977 20.9978 17.3181 20.9854 17.3317 20.9759C17.3349 20.9737 17.3372 20.972 17.3389 20.9707C17.3424 20.9671 17.346 20.9634 17.3495 20.9599L20.8895 17.4199C21.1519 17.1575 21.2291 16.9825 21.2398 16.8751C21.2465 16.8074 21.2429 16.6139 20.8895 16.2605C20.543 15.914 20.3533 15.9119 20.2865 15.9188Z" fill="black"/>
<path fill-rule="evenodd" clip-rule="evenodd" d="M18.4997 15.5276C18.8988 15.4167 19.3122 15.6504 19.423 16.0495C19.6526 16.876 20.2946 17.5179 21.1211 17.7475C21.5202 17.8584 21.7539 18.2718 21.643 18.6709C21.5322 19.07 21.1188 19.3037 20.7197 19.1928C19.3862 18.8224 18.3482 17.7844 17.9777 16.4509C17.8669 16.0518 18.1006 15.6384 18.4997 15.5276Z" fill="black"/>
</svg>
