<svg width="24" height="24" viewBox="0 0 24 24" fill="none" xmlns="http://www.w3.org/2000/svg">
<path fill-rule="evenodd" clip-rule="evenodd" d="M16.3699 8.2695C16.5964 8.04297 16.9418 7.98533 17.2296 8.12604L21.7356 10.329C22.421 10.6717 22.7502 11.3525 22.7502 11.9873C22.7502 12.6114 22.4248 13.2933 21.7087 13.5844L17.2415 15.8677C16.9519 16.0157 16.5999 15.9602 16.3699 15.7302L13.1699 12.5302C12.877 12.2373 12.877 11.7624 13.1699 11.4695L16.3699 8.2695ZM17.0519 9.70881L14.7609 11.9998L17.0447 14.2837L21.0589 12.232C21.0842 12.2191 21.1102 12.2076 21.1369 12.1976C21.1892 12.1779 21.2502 12.1252 21.2502 11.9873C21.2502 11.848 21.1802 11.7294 21.0669 11.6717L17.0519 9.70881Z" fill="black"/>
<path fill-rule="evenodd" clip-rule="evenodd" d="M3.18984 2.78346C2.9801 2.70477 2.75 2.85339 2.75 3.10001V20.9C2.75 21.0489 2.82522 21.1713 2.9158 21.2343C2.95866 21.2641 2.99657 21.275 3.02423 21.277C3.04803 21.2787 3.08113 21.2756 3.1279 21.2488C3.13994 21.2419 3.15218 21.2354 3.16459 21.2292L3.65573 20.9836L15.6339 9.00547L3.18984 2.78346ZM1.25 3.10001C1.25 1.75241 2.60898 0.902171 3.79544 1.41065C3.80894 1.41644 3.82227 1.42262 3.83541 1.42919L17.2354 8.12919C17.451 8.23701 17.6017 8.4419 17.6403 8.67987C17.6789 8.91784 17.6008 9.15987 17.4303 9.33034L4.63033 22.1303C4.57333 22.1873 4.50751 22.2348 4.43541 22.2708L3.85161 22.5627C3.2282 22.9085 2.5515 22.8082 2.0592 22.4657C1.57478 22.1287 1.25 21.5511 1.25 20.9V3.10001Z" fill="black"/>
<path fill-rule="evenodd" clip-rule="evenodd" d="M13.6996 11.25C13.8985 11.25 14.0893 11.329 14.2299 11.4697L17.4299 14.6697C17.6004 14.8401 17.6786 15.0822 17.6399 15.3201C17.6013 15.5581 17.4507 15.763 17.235 15.8708L4.43541 22.2708C4.1064 22.4353 3.70627 22.3369 3.49119 22.0385C3.27611 21.7401 3.30919 21.3298 3.56929 21.0697L13.1699 11.4695C13.3105 11.3288 13.5007 11.25 13.6996 11.25ZM7.89799 18.8623L15.6335 14.9945L13.6996 13.0607L7.89799 18.8623Z" fill="black"/>
<path fill-rule="evenodd" clip-rule="evenodd" d="M3.56928 1.87006C3.86217 1.57717 4.33705 1.57717 4.62994 1.87006L14.2299 11.4697C14.5228 11.7626 14.5228 12.2378 14.2299 12.5307C13.937 12.8236 13.4628 12.823 13.1699 12.5302L3.56928 2.93072C3.27639 2.63783 3.27639 2.16295 3.56928 1.87006Z" fill="black"/>
</svg>
