<svg width="24" height="24" viewBox="0 0 24 24" fill="none" xmlns="http://www.w3.org/2000/svg">
<path fill-rule="evenodd" clip-rule="evenodd" d="M8.15139 2.62241C8.28576 2.39182 8.53253 2.25 8.79941 2.25H15.1994C15.4663 2.25 15.7131 2.39182 15.8474 2.62241L15.1994 3C15.8474 2.62241 15.8474 2.62241 15.8474 2.62241L16.1653 3.16776C16.3676 3.51477 16.6566 4.01041 17.0035 4.60486C17.6971 5.79378 18.622 7.37789 19.5468 8.9588C20.4717 10.5399 21.3962 12.1171 22.0892 13.2925C22.4359 13.8805 22.7239 14.3665 22.9248 14.7018C23.0256 14.8701 23.1028 14.9975 23.154 15.0801C23.169 15.1044 23.1805 15.1228 23.189 15.1361C23.2304 15.189 23.2623 15.244 23.2854 15.2962C23.3457 15.4327 23.3494 15.5519 23.3494 15.6C23.346 15.6715 23.3022 15.862 23.2493 15.9747C23.1336 16.126 22.8123 16.3151 22.6176 16.3485C22.7383 16.3453 22.8308 16.3135 22.8773 16.2949C22.9579 16.2625 23.0146 16.2233 23.041 16.2039C23.0954 16.1639 23.1313 16.1258 23.1416 16.1147C23.1568 16.0985 23.1677 16.0853 23.173 16.0788C23.1894 16.0585 23.1962 16.0473 23.1855 16.0632C23.1702 16.0859 23.142 16.13 23.099 16.1992C23.015 16.3343 22.8927 16.5365 22.7431 16.7865C22.4447 17.2854 22.046 17.9614 21.6462 18.6422C21.2466 19.3227 20.847 20.0065 20.5472 20.5202C20.3973 20.7771 20.2724 20.9913 20.185 21.1414L20.0477 21.3771C20.0477 21.3771 20.0477 21.3772 19.3994 21L20.0477 21.3771C19.9134 21.6079 19.6665 21.75 19.3994 21.75H4.59941C4.33671 21.75 4.09315 21.6125 3.95737 21.3877L0.757366 16.0877C0.615601 15.8529 0.613311 15.5594 0.751395 15.3224L8.15139 2.62241ZM18.9683 20.25C19.0463 20.1162 19.1423 19.9515 19.2517 19.7642C19.5518 19.2498 19.9522 18.5648 20.3527 17.8828C20.7529 17.2011 21.1541 16.5209 21.4558 16.0166C21.551 15.8573 21.6371 15.7143 21.7106 15.5936C21.6877 15.5555 21.6635 15.5152 21.6381 15.4728C21.4343 15.1327 21.1442 14.643 20.7971 14.0544C20.1027 12.8767 19.1771 11.2976 18.252 9.7162C17.3268 8.13461 16.4017 6.54997 15.7079 5.36077C15.3609 4.76616 15.0718 4.27038 14.8695 3.92325L14.7685 3.75H9.23044L2.27141 15.6932L5.02269 20.25H18.9683ZM22.245 16.2603C22.2936 16.2863 22.3473 16.3079 22.4063 16.3235C22.4692 16.3403 22.5287 16.3475 22.5831 16.3486C22.4696 16.336 22.3164 16.2913 22.245 16.2603Z" fill="black"/>
<path fill-rule="evenodd" clip-rule="evenodd" d="M8.41934 2.35385C8.77627 2.14367 9.236 2.26262 9.44619 2.61954L20.0462 20.6195C20.2564 20.9765 20.1374 21.4362 19.7805 21.6464C19.4236 21.8566 18.9638 21.7376 18.7537 21.3807L8.15366 3.3807C7.94347 3.02378 8.06242 2.56404 8.41934 2.35385Z" fill="black"/>
<path fill-rule="evenodd" clip-rule="evenodd" d="M15.5803 2.35385C15.9372 2.56404 16.0562 3.02378 15.846 3.3807L5.24599 21.3807C5.03581 21.7376 4.57607 21.8566 4.21915 21.6464C3.86223 21.4362 3.74327 20.9765 3.95346 20.6195L14.5535 2.61954C14.7637 2.26262 15.2234 2.14367 15.5803 2.35385Z" fill="black"/>
<path fill-rule="evenodd" clip-rule="evenodd" d="M0.75 15.7002C0.75 15.286 1.08579 14.9502 1.5 14.9502H22C22.4142 14.9502 22.75 15.286 22.75 15.7002C22.75 16.1144 22.4142 16.4502 22 16.4502H1.5C1.08579 16.4502 0.75 16.1144 0.75 15.7002Z" fill="black"/>
</svg>
