<svg width="24" height="24" viewBox="0 0 24 24" fill="none" xmlns="http://www.w3.org/2000/svg">
<path fill-rule="evenodd" clip-rule="evenodd" d="M2.62734 7.16867C4.35371 3.61202 8.01484 1.25 12.2002 1.25C15.0929 1.25 17.567 2.32345 19.3964 3.93762C19.5517 4.0746 19.6434 4.26966 19.6498 4.4766C19.6563 4.68353 19.5769 4.88393 19.4305 5.03033L16.6305 7.83033C16.3513 8.10953 15.9035 8.12444 15.6063 7.86443C14.887 7.23503 13.8558 6.55 12.2002 6.55C10.0098 6.55 8.17521 7.86225 7.38955 9.69544C7.37058 9.73972 7.34742 9.78197 7.32046 9.82163C7.31911 9.82639 7.31749 9.83216 7.31564 9.83877C7.30603 9.87306 7.29018 9.92965 7.27335 9.98181C7.2551 10.0384 7.23111 10.1054 7.1984 10.1778C7.03668 10.6806 6.9502 11.2828 6.9502 11.9C6.9502 12.534 7.04143 13.152 7.21171 13.6628L7.21457 13.6714C7.91702 15.8666 9.9324 17.35 12.2002 17.35C13.5735 17.35 14.6059 16.9832 15.2502 16.5C15.2578 16.4943 15.2655 16.4888 15.2733 16.4834C16.0092 15.9739 16.4773 15.2718 16.7304 14.65H12.2002C11.786 14.65 11.4502 14.3142 11.4502 13.9V10.2C11.4502 9.78579 11.786 9.45 12.2002 9.45H21.6002C21.9668 9.45 22.2797 9.71506 22.34 10.0767L22.3418 10.0876C22.4417 10.6872 22.5502 11.3379 22.5502 12.2C22.5502 15.4744 21.3864 18.2887 19.3068 20.1531C17.5517 21.7952 15.0635 22.75 12.2002 22.75C8.01485 22.75 4.35373 20.388 2.62734 16.8313C1.88273 15.3408 1.4502 13.728 1.4502 12C1.4502 10.272 1.88273 8.65925 2.62734 7.16867ZM12.2002 2.75C8.58717 2.75 5.4495 4.78615 3.97506 7.82721L3.97107 7.83543C3.31692 9.14372 2.9502 10.5296 2.9502 12C2.9502 13.4704 3.31687 14.8563 3.97102 16.1646L3.97511 16.1728C5.44956 19.2138 8.58717 21.25 12.2002 21.25C14.7334 21.25 16.8427 20.4071 18.2872 19.0528L18.3001 19.0411C20.0164 17.5054 21.0502 15.1222 21.0502 12.2C21.0502 11.7271 21.0126 11.3316 20.9592 10.95H12.9502V13.15H17.7002C17.9135 13.15 18.1168 13.2408 18.259 13.3998C18.4013 13.5588 18.4692 13.7708 18.4456 13.9828C18.3249 15.0693 17.6298 16.6705 16.1387 17.7086C15.1836 18.4202 13.8203 18.85 12.2002 18.85C9.26949 18.85 6.68607 16.9354 5.78726 14.1329C5.55851 13.4448 5.4502 12.6645 5.4502 11.9C5.4502 11.134 5.55896 10.352 5.78868 9.66283C5.79991 9.62916 5.8135 9.59633 5.82938 9.56459C5.83992 9.54351 5.8448 9.5264 5.87342 9.42619L5.87905 9.40646C5.89228 9.36016 5.91606 9.27815 5.95302 9.19314C5.97505 9.14246 6.00588 9.08071 6.04964 9.01582C7.0846 6.69567 9.4258 5.05 12.2002 5.05C13.9427 5.05 15.173 5.65412 16.0455 6.29401L17.7807 4.55879C16.2887 3.45668 14.3899 2.75 12.2002 2.75Z" fill="black"/>
<path fill-rule="evenodd" clip-rule="evenodd" d="M2.62734 7.16867C4.35371 3.61202 8.01484 1.25 12.2002 1.25C15.0929 1.25 17.567 2.32345 19.3964 3.93762C19.5517 4.0746 19.6434 4.26966 19.6498 4.4766C19.6563 4.68353 19.5769 4.88393 19.4305 5.03033L16.6305 7.83033C16.3513 8.10953 15.9035 8.12444 15.6063 7.86443C14.887 7.23503 13.8558 6.55 12.2002 6.55C10.0098 6.55 8.17521 7.86225 7.38955 9.69544C7.37058 9.73972 7.34742 9.78197 7.32046 9.82163C7.31911 9.82639 7.31749 9.83216 7.31564 9.83877C7.30603 9.87306 7.29018 9.92965 7.27335 9.98181C7.2551 10.0384 7.23111 10.1054 7.1984 10.1778C7.03668 10.6806 6.9502 11.2828 6.9502 11.9C6.9502 12.534 7.04143 13.152 7.21171 13.6628L7.21457 13.6714C7.91702 15.8666 9.9324 17.35 12.2002 17.35C13.5735 17.35 14.6059 16.9832 15.2502 16.5C15.2578 16.4943 15.2655 16.4888 15.2733 16.4834C16.0092 15.9739 16.4773 15.2718 16.7304 14.65H12.2002C11.786 14.65 11.4502 14.3142 11.4502 13.9V10.2C11.4502 9.78579 11.786 9.45 12.2002 9.45H21.6002C21.9668 9.45 22.2797 9.71506 22.34 10.0767L22.3418 10.0876C22.4417 10.6872 22.5502 11.3379 22.5502 12.2C22.5502 15.4744 21.3864 18.2887 19.3068 20.1531C17.5517 21.7952 15.0635 22.75 12.2002 22.75C8.01485 22.75 4.35373 20.388 2.62734 16.8313C1.88273 15.3408 1.4502 13.728 1.4502 12C1.4502 10.272 1.88273 8.65925 2.62734 7.16867ZM12.2002 2.75C8.58717 2.75 5.4495 4.78615 3.97506 7.82721L3.97107 7.83543C3.31692 9.14372 2.9502 10.5296 2.9502 12C2.9502 13.4704 3.31687 14.8563 3.97102 16.1646L3.97511 16.1728C5.44956 19.2138 8.58717 21.25 12.2002 21.25C14.7334 21.25 16.8427 20.4071 18.2872 19.0528L18.3001 19.0411C20.0164 17.5054 21.0502 15.1222 21.0502 12.2C21.0502 11.7271 21.0126 11.3316 20.9592 10.95H12.9502V13.15H17.7002C17.9135 13.15 18.1168 13.2408 18.259 13.3998C18.4013 13.5588 18.4692 13.7708 18.4456 13.9828C18.3249 15.0693 17.6298 16.6705 16.1387 17.7086C15.1836 18.4202 13.8203 18.85 12.2002 18.85C9.26949 18.85 6.68607 16.9354 5.78726 14.1329C5.55851 13.4448 5.4502 12.6645 5.4502 11.9C5.4502 11.134 5.55896 10.352 5.78868 9.66283C5.79991 9.62916 5.8135 9.59633 5.82938 9.56459C5.83992 9.54351 5.8448 9.5264 5.87342 9.42619L5.87905 9.40646C5.89228 9.36016 5.91606 9.27815 5.95302 9.19314C5.97505 9.14246 6.00588 9.08071 6.04964 9.01582C7.0846 6.69567 9.4258 5.05 12.2002 5.05C13.9427 5.05 15.173 5.65412 16.0455 6.29401L17.7807 4.55879C16.2887 3.45668 14.3899 2.75 12.2002 2.75Z" fill="black"/>
</svg>
