<svg width="24" height="24" viewBox="0 0 24 24" fill="none" xmlns="http://www.w3.org/2000/svg">
<path fill-rule="evenodd" clip-rule="evenodd" d="M18.5811 8.31239C18.961 8.14723 19.4028 8.32128 19.568 8.70115C20.0084 9.71416 20.2502 10.8258 20.2502 12.0002C20.2502 16.5544 16.5544 20.2502 12.0002 20.2502C10.8258 20.2502 9.71416 20.0084 8.70115 19.568C8.32128 19.4028 8.14723 18.961 8.31239 18.5811C8.47755 18.2013 8.91937 18.0272 9.29924 18.1924C10.1262 18.5519 11.0345 18.7502 12.0002 18.7502C15.726 18.7502 18.7502 15.726 18.7502 12.0002C18.7502 11.0345 18.5519 10.1262 18.1924 9.29924C18.0272 8.91937 18.2013 8.47755 18.5811 8.31239Z" fill="black"/>
<path fill-rule="evenodd" clip-rule="evenodd" d="M3.75 12C3.75 7.44579 7.44579 3.75 12 3.75C14.2215 3.75 16.2459 4.63045 17.7302 6.05976C18.0286 6.34708 18.0376 6.82187 17.7502 7.12023C17.4629 7.4186 16.9881 7.42756 16.6898 7.14024C15.474 5.96955 13.8185 5.25 12 5.25C8.27421 5.25 5.25 8.27421 5.25 12C5.25 13.8098 5.96051 15.4561 7.12224 16.6719C7.40841 16.9713 7.39762 17.4461 7.09814 17.7322C6.79867 18.0184 6.32392 18.0076 6.03776 17.7081C4.61949 16.2239 3.75 14.2102 3.75 12Z" fill="black"/>
<path fill-rule="evenodd" clip-rule="evenodd" d="M12 1.25C12.4142 1.25 12.75 1.58579 12.75 2V4C12.75 4.41421 12.4142 4.75 12 4.75C11.5858 4.75 11.25 4.41421 11.25 4V2C11.25 1.58579 11.5858 1.25 12 1.25Z" fill="black"/>
<path fill-rule="evenodd" clip-rule="evenodd" d="M1.25 12C1.25 11.5858 1.58579 11.25 2 11.25H4C4.41421 11.25 4.75 11.5858 4.75 12C4.75 12.4142 4.41421 12.75 4 12.75H2C1.58579 12.75 1.25 12.4142 1.25 12Z" fill="black"/>
<path fill-rule="evenodd" clip-rule="evenodd" d="M12 19.25C12.4142 19.25 12.75 19.5858 12.75 20V22C12.75 22.4142 12.4142 22.75 12 22.75C11.5858 22.75 11.25 22.4142 11.25 22V20C11.25 19.5858 11.5858 19.25 12 19.25Z" fill="black"/>
<path fill-rule="evenodd" clip-rule="evenodd" d="M19.25 12C19.25 11.5858 19.5858 11.25 20 11.25H22C22.4142 11.25 22.75 11.5858 22.75 12C22.75 12.4142 22.4142 12.75 22 12.75H20C19.5858 12.75 19.25 12.4142 19.25 12Z" fill="black"/>
<path fill-rule="evenodd" clip-rule="evenodd" d="M12 9.75C10.7542 9.75 9.75 10.7542 9.75 12C9.75 12.3472 9.82927 12.6758 9.97017 12.9692L12.9692 9.97017C12.6758 9.82927 12.3472 9.75 12 9.75ZM8.25 12C8.25 9.92579 9.92579 8.25 12 8.25C13.0388 8.25 13.9768 8.67617 14.6503 9.34967C14.9432 9.64256 14.9432 10.1174 14.6503 10.4103L10.4103 14.6503C10.1174 14.9432 9.64256 14.9432 9.34967 14.6503C8.67617 13.9768 8.25 13.0388 8.25 12Z" fill="black"/>
<path fill-rule="evenodd" clip-rule="evenodd" d="M22.5303 1.46967C22.8232 1.76256 22.8232 2.23744 22.5303 2.53033L2.53033 22.5303C2.23744 22.8232 1.76256 22.8232 1.46967 22.5303C1.17678 22.2374 1.17678 21.7626 1.46967 21.4697L21.4697 1.46967C21.7626 1.17678 22.2374 1.17678 22.5303 1.46967Z" fill="black"/>
</svg>
