<svg width="24" height="24" viewBox="0 0 24 24" fill="none" xmlns="http://www.w3.org/2000/svg">
<path fill-rule="evenodd" clip-rule="evenodd" d="M18.5387 5.47973C14.9318 1.86353 9.06767 1.86353 5.46071 5.47973L5.45937 5.48108C1.77846 9.15274 1.84239 15.146 5.64527 18.7453C9.15659 22.0621 14.8536 22.061 18.3538 18.7456M19.6001 4.41975C15.4072 0.216851 8.59224 0.216854 4.39936 4.41976C0.120961 8.68816 0.197278 15.6543 4.61417 19.8348C8.70285 23.6975 15.3058 23.6989 19.3855 19.8345C23.7917 15.654 23.8682 8.68793 19.6001 4.41975ZM18.5387 5.47973C22.2104 9.15141 22.1471 15.1462 18.3538 18.7456L18.5387 5.47973Z" fill="black"/>
<path fill-rule="evenodd" clip-rule="evenodd" d="M16.3855 15.5556C16.6697 15.8569 16.6559 16.3316 16.3546 16.6159C13.9463 18.8878 10.054 18.8895 7.65397 16.6146C7.35335 16.3297 7.34064 15.855 7.62559 15.5544C7.91055 15.2537 8.38525 15.241 8.68588 15.526C10.5059 17.2511 13.4935 17.2528 15.3252 15.5248C15.6265 15.2405 16.1012 15.2544 16.3855 15.5556Z" fill="black"/>
</svg>
