<svg width="24" height="24" viewBox="0 0 24 24" fill="none" xmlns="http://www.w3.org/2000/svg">
<path fill-rule="evenodd" clip-rule="evenodd" d="M12.4719 2.37642C13.4381 1.68107 14.823 1.75225 16.4907 2.24036C18.9453 2.96231 21.0376 5.0539 21.7595 7.50853C22.2476 9.17624 22.3191 10.5621 21.6237 11.5283C20.9183 12.5085 19.6499 12.7502 18.32 12.7502H15C13.8836 12.7502 12.8886 12.4696 12.1928 11.6972C11.5129 10.9425 11.25 9.86066 11.25 8.56016V5.68016C11.25 4.35027 11.4917 3.08188 12.4719 2.37642ZM13.3481 3.5939C13.0083 3.83844 12.75 4.41005 12.75 5.68016V8.56016C12.75 9.69966 12.9871 10.3378 13.3072 10.6932C13.6114 11.0308 14.1164 11.2502 15 11.2502H18.32C19.5901 11.2502 20.1617 10.9918 20.4063 10.6521C20.6609 10.2983 20.7921 9.54336 20.3204 7.93155C19.7423 5.96646 18.034 4.25802 16.0689 3.67984C14.4569 3.20809 13.7019 3.33927 13.3481 3.5939Z" fill="black"/>
<path fill-rule="evenodd" clip-rule="evenodd" d="M9.99457 3.86007C10.0773 4.26593 9.8154 4.66203 9.40954 4.74479C5.1808 5.60705 2.11662 9.68011 2.86 14.2997C3.42836 17.7717 6.22887 20.5709 9.69887 21.1294L9.6999 21.1296C14.3372 21.8826 18.4109 18.8014 19.2644 14.5522C19.346 14.1461 19.7413 13.883 20.1474 13.9646C20.5535 14.0462 20.8166 14.4415 20.735 14.8476C19.7285 19.8584 14.9222 23.4972 9.45949 22.6102C5.35026 21.9484 2.05143 18.6483 1.37953 14.541L1.37923 14.5392C0.503207 9.09913 4.11889 4.29271 9.10985 3.27503C9.51571 3.19228 9.91182 3.45421 9.99457 3.86007Z" fill="black"/>
</svg>
