<svg width="24" height="24" viewBox="0 0 24 24" fill="none" xmlns="http://www.w3.org/2000/svg">
<path fill-rule="evenodd" clip-rule="evenodd" d="M3.09467 3.09467C4.42914 1.7602 6.42603 1.25 9 1.25H15C17.574 1.25 19.5709 1.7602 20.9053 3.09467C22.2398 4.42914 22.75 6.42603 22.75 9V11C22.75 11.4142 22.4142 11.75 22 11.75C21.5858 11.75 21.25 11.4142 21.25 11V9C21.25 6.57397 20.7602 5.07086 19.8447 4.15533C18.9291 3.2398 17.426 2.75 15 2.75H9C6.57397 2.75 5.07086 3.2398 4.15533 4.15533C3.2398 5.07086 2.75 6.57397 2.75 9V15C2.75 17.426 3.2398 18.9291 4.15533 19.8447C5.07086 20.7602 6.57397 21.25 9 21.25H10C10.4142 21.25 10.75 21.5858 10.75 22C10.75 22.4142 10.4142 22.75 10 22.75H9C6.42603 22.75 4.42914 22.2398 3.09467 20.9053C1.7602 19.5709 1.25 17.574 1.25 15V9C1.25 6.42603 1.7602 4.42914 3.09467 3.09467Z" fill="black"/>
<path fill-rule="evenodd" clip-rule="evenodd" d="M1.28027 8.5C1.28027 8.08579 1.61606 7.75 2.03027 7.75H22.0003C22.4145 7.75 22.7503 8.08579 22.7503 8.5C22.7503 8.91421 22.4145 9.25 22.0003 9.25H2.03027C1.61606 9.25 1.28027 8.91421 1.28027 8.5Z" fill="black"/>
<path fill-rule="evenodd" clip-rule="evenodd" d="M1.28027 15.5C1.28027 15.0858 1.61606 14.75 2.03027 14.75H12.0003C12.4145 14.75 12.7503 15.0858 12.7503 15.5C12.7503 15.9142 12.4145 16.25 12.0003 16.25H2.03027C1.61606 16.25 1.28027 15.9142 1.28027 15.5Z" fill="black"/>
<path fill-rule="evenodd" clip-rule="evenodd" d="M8.50977 1.25977C8.92398 1.25977 9.25977 1.59555 9.25977 2.00977V21.9897C9.25977 22.404 8.92398 22.7397 8.50977 22.7397C8.09555 22.7397 7.75977 22.404 7.75977 21.9897V2.00977C7.75977 1.59555 8.09555 1.25977 8.50977 1.25977Z" fill="black"/>
<path fill-rule="evenodd" clip-rule="evenodd" d="M15.5098 1.25977C15.924 1.25977 16.2598 1.59555 16.2598 2.00977V11.9897C16.2598 12.404 15.924 12.7397 15.5098 12.7397C15.0956 12.7397 14.7598 12.404 14.7598 11.9897V2.00977C14.7598 1.59555 15.0956 1.25977 15.5098 1.25977Z" fill="black"/>
<path fill-rule="evenodd" clip-rule="evenodd" d="M16.6333 15.1722C16.4501 15.3992 16.3496 15.7792 16.3496 16.4V17.2C16.3496 17.6142 16.0138 17.95 15.5996 17.95C15.1854 17.95 14.8496 17.6142 14.8496 17.2V16.4C14.8496 15.6908 14.9491 14.8708 15.4659 14.2303C16.0109 13.5549 16.8726 13.25 17.9996 13.25C19.1266 13.25 19.9883 13.5549 20.5333 14.2303C21.0501 14.8708 21.1496 15.6908 21.1496 16.4V17.2C21.1496 17.6142 20.8138 17.95 20.3996 17.95C19.9854 17.95 19.6496 17.6142 19.6496 17.2V16.4C19.6496 15.7792 19.5491 15.3992 19.3659 15.1722C19.2109 14.9801 18.8726 14.75 17.9996 14.75C17.1266 14.75 16.7883 14.9801 16.6333 15.1722Z" fill="black"/>
<path fill-rule="evenodd" clip-rule="evenodd" d="M14.9303 18.1305C14.8688 18.192 14.75 18.3948 14.75 19.2002V20.0002C14.75 20.8056 14.8688 21.0084 14.9303 21.0699C14.9918 21.1314 15.1946 21.2502 16 21.2502H20C20.8054 21.2502 21.0082 21.1314 21.0697 21.0699C21.1312 21.0084 21.25 20.8056 21.25 20.0002V19.2002C21.25 18.3948 21.1312 18.192 21.0697 18.1305C21.0082 18.069 20.8054 17.9502 20 17.9502H16C15.1946 17.9502 14.9918 18.069 14.9303 18.1305ZM13.8697 17.0699C14.4082 16.5314 15.2054 16.4502 16 16.4502H20C20.7946 16.4502 21.5918 16.5314 22.1303 17.0699C22.6688 17.6084 22.75 18.4056 22.75 19.2002V20.0002C22.75 20.7949 22.6688 21.5921 22.1303 22.1306C21.5918 22.6691 20.7946 22.7502 20 22.7502H16C15.2054 22.7502 14.4082 22.6691 13.8697 22.1306C13.3312 21.5921 13.25 20.7949 13.25 20.0002V19.2002C13.25 18.4056 13.3312 17.6084 13.8697 17.0699Z" fill="black"/>
</svg>
