<svg width="24" height="24" viewBox="0 0 24 24" fill="none" xmlns="http://www.w3.org/2000/svg">
<path fill-rule="evenodd" clip-rule="evenodd" d="M3.09467 3.09467C4.42914 1.7602 6.42603 1.25 9 1.25H15C17.574 1.25 19.5709 1.7602 20.9053 3.09467C22.2398 4.42914 22.75 6.42603 22.75 9V11C22.75 11.4142 22.4142 11.75 22 11.75C21.5858 11.75 21.25 11.4142 21.25 11V9C21.25 6.57397 20.7602 5.07086 19.8447 4.15533C18.9291 3.2398 17.426 2.75 15 2.75H9C6.57397 2.75 5.07086 3.2398 4.15533 4.15533C3.2398 5.07086 2.75 6.57397 2.75 9V15C2.75 17.426 3.2398 18.9291 4.15533 19.8447C5.07086 20.7602 6.57397 21.25 9 21.25H10C10.4142 21.25 10.75 21.5858 10.75 22C10.75 22.4142 10.4142 22.75 10 22.75H9C6.42603 22.75 4.42914 22.2398 3.09467 20.9053C1.7602 19.5709 1.25 17.574 1.25 15V9C1.25 6.42603 1.7602 4.42914 3.09467 3.09467Z" fill="black"/>
<path fill-rule="evenodd" clip-rule="evenodd" d="M1.28027 8.5C1.28027 8.08579 1.61606 7.75 2.03027 7.75H22.0003C22.4145 7.75 22.7503 8.08579 22.7503 8.5C22.7503 8.91421 22.4145 9.25 22.0003 9.25H2.03027C1.61606 9.25 1.28027 8.91421 1.28027 8.5Z" fill="black"/>
<path fill-rule="evenodd" clip-rule="evenodd" d="M1.28027 15.5C1.28027 15.0858 1.61606 14.75 2.03027 14.75H12.0003C12.4145 14.75 12.7503 15.0858 12.7503 15.5C12.7503 15.9142 12.4145 16.25 12.0003 16.25H2.03027C1.61606 16.25 1.28027 15.9142 1.28027 15.5Z" fill="black"/>
<path fill-rule="evenodd" clip-rule="evenodd" d="M8.50977 1.25977C8.92398 1.25977 9.25977 1.59555 9.25977 2.00977V21.9897C9.25977 22.404 8.92398 22.7397 8.50977 22.7397C8.09555 22.7397 7.75977 22.404 7.75977 21.9897V2.00977C7.75977 1.59555 8.09555 1.25977 8.50977 1.25977Z" fill="black"/>
<path fill-rule="evenodd" clip-rule="evenodd" d="M15.5098 1.25977C15.924 1.25977 16.2598 1.59555 16.2598 2.00977V11.9897C16.2598 12.404 15.924 12.7397 15.5098 12.7397C15.0956 12.7397 14.7598 12.404 14.7598 11.9897V2.00977C14.7598 1.59555 15.0956 1.25977 15.5098 1.25977Z" fill="black"/>
<path fill-rule="evenodd" clip-rule="evenodd" d="M14.7806 15.6782C15.0737 15.3867 15.5475 15.3873 15.8399 15.6796L19.3298 19.1696C19.6227 19.4625 19.6227 19.9374 19.3298 20.2303L17.4299 22.1303C16.6142 22.946 15.2831 22.9388 14.4643 22.1353L14.4575 22.1287L12.8792 20.5403L12.8783 20.5394C12.0636 19.7237 12.071 18.3933 12.8742 17.5747L12.8806 17.5682L14.7806 15.6782ZM13.9423 18.6279C13.7084 18.8692 13.7163 19.2561 13.9399 19.4797L13.9415 19.4813L15.5175 21.0673C15.7588 21.3011 16.1457 21.2931 16.3692 21.0696L17.7389 19.7L15.3081 17.2692L13.9423 18.6279Z" fill="black"/>
<path fill-rule="evenodd" clip-rule="evenodd" d="M18.6401 13.9203L16.3595 16.209L18.7998 18.6493L21.0795 16.3697C21.303 16.1461 21.3102 15.751 21.0695 15.5103L21.0678 15.5086L19.4895 13.9203C19.2624 13.694 18.8671 13.6938 18.6401 13.9203ZM17.5795 12.8597C18.3924 12.0468 19.7372 12.0468 20.5501 12.8597L20.5518 12.8613L22.1302 14.4496L22.1311 14.4506C22.9495 15.27 22.9563 16.6142 22.1401 17.4303L19.3301 20.2403C19.0372 20.5332 18.5624 20.5332 18.2695 20.2403L14.7695 16.7403C14.4769 16.4477 14.4765 15.9736 14.7685 15.6806L17.5795 12.8597Z" fill="black"/>
</svg>
