<svg width="24" height="24" viewBox="0 0 24 24" fill="none" xmlns="http://www.w3.org/2000/svg">
<path fill-rule="evenodd" clip-rule="evenodd" d="M3.09467 3.09467C4.42914 1.7602 6.42603 1.25 9 1.25H15C17.574 1.25 19.5709 1.7602 20.9053 3.09467C22.2398 4.42914 22.75 6.42603 22.75 9V15C22.75 17.574 22.2398 19.5709 20.9053 20.9053C19.5709 22.2398 17.574 22.75 15 22.75H9C6.42603 22.75 4.42914 22.2398 3.09467 20.9053C1.7602 19.5709 1.25 17.574 1.25 15V9C1.25 6.42603 1.7602 4.42914 3.09467 3.09467ZM4.15533 4.15533C3.2398 5.07086 2.75 6.57397 2.75 9V15C2.75 17.426 3.2398 18.9291 4.15533 19.8447C5.07086 20.7602 6.57397 21.25 9 21.25H15C17.426 21.25 18.9291 20.7602 19.8447 19.8447C20.7602 18.9291 21.25 17.426 21.25 15V9C21.25 6.57397 20.7602 5.07086 19.8447 4.15533C18.9291 3.2398 17.426 2.75 15 2.75H9C6.57397 2.75 5.07086 3.2398 4.15533 4.15533Z" fill="black"/>
<path fill-rule="evenodd" clip-rule="evenodd" d="M1.28027 8.5C1.28027 8.08579 1.61606 7.75 2.03027 7.75H22.0003C22.4145 7.75 22.7503 8.08579 22.7503 8.5C22.7503 8.91421 22.4145 9.25 22.0003 9.25H2.03027C1.61606 9.25 1.28027 8.91421 1.28027 8.5Z" fill="black"/>
<path fill-rule="evenodd" clip-rule="evenodd" d="M1.28027 15.5C1.28027 15.0858 1.61606 14.75 2.03027 14.75H22.0003C22.4145 14.75 22.7503 15.0858 22.7503 15.5C22.7503 15.9142 22.4145 16.25 22.0003 16.25H2.03027C1.61606 16.25 1.28027 15.9142 1.28027 15.5Z" fill="black"/>
<path fill-rule="evenodd" clip-rule="evenodd" d="M8.50977 1.25977C8.92398 1.25977 9.25977 1.59555 9.25977 2.00977V21.9898C9.25977 22.404 8.92398 22.7398 8.50977 22.7398C8.09555 22.7398 7.75977 22.404 7.75977 21.9898V2.00977C7.75977 1.59555 8.09555 1.25977 8.50977 1.25977Z" fill="black"/>
<path fill-rule="evenodd" clip-rule="evenodd" d="M15.5098 1.25977C15.924 1.25977 16.2598 1.59555 16.2598 2.00977V21.9898C16.2598 22.404 15.924 22.7398 15.5098 22.7398C15.0956 22.7398 14.7598 22.404 14.7598 21.9898V2.00977C14.7598 1.59555 15.0956 1.25977 15.5098 1.25977Z" fill="black"/>
</svg>
