<svg width="24" height="24" viewBox="0 0 24 24" fill="none" xmlns="http://www.w3.org/2000/svg">
<path fill-rule="evenodd" clip-rule="evenodd" d="M16.4517 6.75988C15.8004 6.75272 15.1861 7.08286 14.824 7.62596L8.43404 17.2059C7.79266 18.1679 6.70659 18.7399 5.54999 18.7399L5.54704 18.7399L2.99706 18.7299C2.58285 18.7283 2.24838 18.3912 2.25001 17.977C2.25163 17.5627 2.58873 17.2283 3.00294 17.2299L5.54999 17.2399H5.55136C6.21417 17.2395 6.82757 16.9115 7.18596 16.3739L13.576 6.79391C14.2134 5.83782 15.298 5.24801 16.4656 5.25994L16.4682 5.25997L21.0133 5.27995C21.4275 5.28177 21.7618 5.61904 21.76 6.03325C21.7582 6.44745 21.4209 6.78176 21.0067 6.77994L16.4567 6.75992L16.4517 6.75988Z" fill="black"/>
<path fill-rule="evenodd" clip-rule="evenodd" d="M21.5303 17.4501C21.8232 17.743 21.8232 18.2179 21.5303 18.5108L19.5303 20.5108C19.2374 20.8037 18.7626 20.8037 18.4697 20.5108C18.1768 20.2179 18.1768 19.743 18.4697 19.4501L20.4697 17.4501C20.7626 17.1572 21.2374 17.1572 21.5303 17.4501Z" fill="black"/>
<path fill-rule="evenodd" clip-rule="evenodd" d="M8.41914 6.68262L9.49866 8.18194C9.74069 8.51808 9.66439 8.98679 9.32825 9.22882C8.9921 9.47085 8.5234 9.39455 8.28137 9.0584L7.20135 7.5584C6.83181 7.04394 6.24029 6.74298 5.61861 6.75013L5.61286 6.75019L3.00288 6.76018C2.58867 6.76177 2.25159 6.42727 2.25001 6.01306C2.24842 5.59885 2.58291 5.26178 2.99712 5.26019L5.60441 5.25019C6.72144 5.23835 7.76925 5.77811 8.41914 6.68262Z" fill="black"/>
<path fill-rule="evenodd" clip-rule="evenodd" d="M12.5096 14.7877C12.8366 14.5335 13.3078 14.5927 13.562 14.9197L14.7832 16.4913C15.1493 16.9651 15.7285 17.2495 16.3383 17.2499H16.3398L21.0066 17.2299C21.4208 17.2281 21.758 17.5625 21.7598 17.9767C21.7615 18.3909 21.4272 18.7281 21.013 18.7299L16.343 18.7499L16.3398 18.7499C15.2705 18.7499 14.2506 18.2547 13.597 17.4094L13.5963 17.4085L12.3775 15.8401C12.1234 15.513 12.1825 15.0419 12.5096 14.7877Z" fill="black"/>
<path fill-rule="evenodd" clip-rule="evenodd" d="M18.4697 3.4892C18.7626 3.19631 19.2374 3.19631 19.5303 3.4892L21.5303 5.4892C21.8232 5.78209 21.8232 6.25697 21.5303 6.54986C21.2374 6.84275 20.7626 6.84275 20.4697 6.54986L18.4697 4.54986C18.1768 4.25697 18.1768 3.78209 18.4697 3.4892Z" fill="black"/>
</svg>
