<svg width="24" height="24" viewBox="0 0 24 24" fill="none" xmlns="http://www.w3.org/2000/svg">
<path fill-rule="evenodd" clip-rule="evenodd" d="M17.7 2.75C16.1142 2.75 14.75 4.11421 14.75 5.7V10.9316C16.7229 10.5852 18.2407 9.91738 19.3069 9.26126L19.3141 9.25684C20.5647 8.50646 21.25 7.16512 21.25 5.7C21.25 4.12713 19.8988 2.75 18.2 2.75H17.7ZM13.25 5.7C13.25 3.28579 15.2858 1.25 17.7 1.25H18.2C20.7012 1.25 22.75 3.27287 22.75 5.7C22.75 7.63354 21.8365 9.49091 20.0895 10.5409C18.7024 11.3939 16.7007 12.2313 14.0894 12.5447L13.25 12.6454V5.7Z" fill="black"/>
<path fill-rule="evenodd" clip-rule="evenodd" d="M22.7496 5.75V18.3C22.7496 20.8274 20.7005 22.75 18.2996 22.75H17.7996C15.2722 22.75 13.3496 20.7009 13.3496 18.3V11.2394L14.0049 11.156C16.6216 10.823 18.4848 9.89831 19.6864 9.06999C20.2884 8.65503 20.7257 8.26329 21.0083 7.98061C21.1496 7.83933 21.2521 7.72553 21.3169 7.65005C21.3493 7.61233 21.3723 7.58421 21.3861 7.56707L21.3997 7.54978L21.4009 7.54823M21.2496 9.77443C21.0383 9.94476 20.8013 10.1234 20.5378 10.305C19.2707 11.1784 17.3964 12.1188 14.8496 12.5473V18.3C14.8496 19.8991 16.127 21.25 17.7996 21.25H18.2996C19.8987 21.25 21.2496 19.9726 21.2496 18.3V9.77443Z" fill="black"/>
<path fill-rule="evenodd" clip-rule="evenodd" d="M10.75 11.3545V18.2999C10.75 20.8272 8.70094 22.7499 6.3 22.7499H5.7C3.28579 22.7499 1.25 20.7141 1.25 18.2999C1.25 16.3664 2.16348 14.509 3.91044 13.459C5.29756 12.606 7.29931 11.7686 9.91064 11.4552L10.75 11.3545ZM9.25 13.0683C7.2771 13.4147 5.75927 14.0825 4.69307 14.7386L4.6859 14.743C3.43526 15.4934 2.75 16.8348 2.75 18.2999C2.75 19.8857 4.11421 21.2499 5.7 21.2499H6.3C7.89906 21.2499 9.25 19.9725 9.25 18.2999V13.0683Z" fill="black"/>
<path fill-rule="evenodd" clip-rule="evenodd" d="M5.7 2.75C4.11421 2.75 2.75 4.11421 2.75 5.7V14.2308C2.96524 14.0583 3.20736 13.8773 3.47713 13.6931C4.75819 12.8185 6.65743 11.8781 9.25 11.4509V5.7C9.25 4.12713 7.89882 2.75 6.2 2.75H5.7ZM2.59921 16.451L2.59816 16.4524L1.25 18.25V5.7C1.25 3.28579 3.28579 1.25 5.7 1.25H6.2C8.70118 1.25 10.75 3.27287 10.75 5.7V12.7621L10.093 12.8442C7.42446 13.1778 5.53595 14.1038 4.32287 14.9319C3.71508 15.3469 3.27522 15.7384 2.9915 16.0207C2.84969 16.1618 2.7471 16.2754 2.68227 16.3507C2.64986 16.3883 2.62692 16.4163 2.61326 16.4333L2.59921 16.451Z" fill="black"/>
<path fill-rule="evenodd" clip-rule="evenodd" d="M12.036 12.75C12.0241 12.75 12.0122 12.75 12.0003 12.75C11.2833 12.75 10.6501 12.752 10.1236 12.8397L9.87695 11.3602C10.5386 11.2499 11.2905 11.2499 11.9645 11.25C11.9764 11.25 11.9883 11.25 12.0003 11.25C12.7172 11.25 13.3504 11.2479 13.877 11.1602L14.1236 12.6397C13.4619 12.75 12.71 12.75 12.036 12.75Z" fill="black"/>
</svg>
