<svg width="24" height="24" viewBox="0 0 24 24" fill="none" xmlns="http://www.w3.org/2000/svg">
<path fill-rule="evenodd" clip-rule="evenodd" d="M3.09467 3.09467C4.42914 1.7602 6.42603 1.25 9 1.25H15C17.574 1.25 19.5709 1.7602 20.9053 3.09467C22.2398 4.42914 22.75 6.42603 22.75 9V13C22.75 13.4142 22.4142 13.75 22 13.75C21.5858 13.75 21.25 13.4142 21.25 13V9C21.25 6.57397 20.7602 5.07086 19.8447 4.15533C18.9291 3.2398 17.426 2.75 15 2.75H9C6.57397 2.75 5.07086 3.2398 4.15533 4.15533C3.2398 5.07086 2.75 6.57397 2.75 9V15C2.75 17.426 3.2398 18.9291 4.15533 19.8447C5.07086 20.7602 6.57397 21.25 9 21.25H15C15.4142 21.25 15.75 21.5858 15.75 22C15.75 22.4142 15.4142 22.75 15 22.75H9C6.42603 22.75 4.42914 22.2398 3.09467 20.9053C1.7602 19.5709 1.25 17.574 1.25 15V9C1.25 6.42603 1.7602 4.42914 3.09467 3.09467Z" fill="black"/>
<path fill-rule="evenodd" clip-rule="evenodd" d="M19.287 15.3071C19.5673 15.4232 19.75 15.6967 19.75 16V22C19.75 22.4142 19.4142 22.75 19 22.75C18.5858 22.75 18.25 22.4142 18.25 22V17.8107L17.5303 18.5304C17.2374 18.8232 16.7626 18.8232 16.4697 18.5304C16.1768 18.2375 16.1768 17.7626 16.4697 17.4697L18.4697 15.4697C18.6842 15.2552 19.0068 15.191 19.287 15.3071Z" fill="black"/>
<path fill-rule="evenodd" clip-rule="evenodd" d="M18.4697 15.4697C18.7626 15.1768 19.2374 15.1768 19.5303 15.4697L21.5303 17.4697C21.8232 17.7626 21.8232 18.2374 21.5303 18.5303C21.2374 18.8232 20.7626 18.8232 20.4697 18.5303L18.4697 16.5303C18.1768 16.2374 18.1768 15.7626 18.4697 15.4697Z" fill="black"/>
<path fill-rule="evenodd" clip-rule="evenodd" d="M10.0331 5.5144C10.4448 5.56005 10.7415 5.93079 10.6959 6.34248L9.64589 15.8125C9.60024 16.2242 9.2295 16.5209 8.81781 16.4753C8.40612 16.4296 8.10938 16.0589 8.15502 15.6472L9.20502 6.17718C9.25067 5.76549 9.62142 5.46875 10.0331 5.5144Z" fill="black"/>
<path fill-rule="evenodd" clip-rule="evenodd" d="M13.1923 5.5144C13.604 5.56005 13.9007 5.93079 13.8551 6.34248L12.8051 15.8125C12.7594 16.2242 12.3887 16.5209 11.977 16.4753C11.5653 16.4296 11.2686 16.0589 11.3142 15.6472L12.3642 6.17718C12.4099 5.76549 12.7806 5.46875 13.1923 5.5144Z" fill="black"/>
<path fill-rule="evenodd" clip-rule="evenodd" d="M5.78027 9.41992C5.78027 9.00571 6.11606 8.66992 6.53027 8.66992H16.0003C16.4145 8.66992 16.7503 9.00571 16.7503 9.41992C16.7503 9.83414 16.4145 10.1699 16.0003 10.1699H6.53027C6.11606 10.1699 5.78027 9.83414 5.78027 9.41992Z" fill="black"/>
<path fill-rule="evenodd" clip-rule="evenodd" d="M5.25 12.5801C5.25 12.1659 5.58579 11.8301 6 11.8301H15.47C15.8842 11.8301 16.22 12.1659 16.22 12.5801C16.22 12.9943 15.8842 13.3301 15.47 13.3301H6C5.58579 13.3301 5.25 12.9943 5.25 12.5801Z" fill="black"/>
</svg>
