<svg width="24" height="24" viewBox="0 0 24 24" fill="none" xmlns="http://www.w3.org/2000/svg">
<path fill-rule="evenodd" clip-rule="evenodd" d="M10.0829 2.25465C10.4946 2.3004 10.7912 2.67121 10.7455 3.08289L8.74548 21.0829C8.69974 21.4946 8.32892 21.7912 7.91724 21.7455C7.50556 21.6997 7.20891 21.3289 7.25465 20.9172L9.25465 2.91724C9.3004 2.50556 9.67121 2.20891 10.0829 2.25465Z" fill="black"/>
<path fill-rule="evenodd" clip-rule="evenodd" d="M16.0829 2.25465C16.4946 2.3004 16.7912 2.67121 16.7455 3.08289L14.7455 21.0829C14.6997 21.4946 14.3289 21.7912 13.9172 21.7455C13.5056 21.6997 13.2089 21.3289 13.2547 20.9172L15.2547 2.91724C15.3004 2.50556 15.6712 2.20891 16.0829 2.25465Z" fill="black"/>
<path fill-rule="evenodd" clip-rule="evenodd" d="M2.75 9C2.75 8.58579 3.08579 8.25 3.5 8.25H21.5C21.9142 8.25 22.25 8.58579 22.25 9C22.25 9.41421 21.9142 9.75 21.5 9.75H3.5C3.08579 9.75 2.75 9.41421 2.75 9Z" fill="black"/>
<path fill-rule="evenodd" clip-rule="evenodd" d="M1.75 15C1.75 14.5858 2.08579 14.25 2.5 14.25H20.5C20.9142 14.25 21.25 14.5858 21.25 15C21.25 15.4142 20.9142 15.75 20.5 15.75H2.5C2.08579 15.75 1.75 15.4142 1.75 15Z" fill="black"/>
</svg>
