<svg width="24" height="24" viewBox="0 0 24 24" fill="none" xmlns="http://www.w3.org/2000/svg">
<path d="M16.8076 2.25C18.3989 2.25 19.9151 2.92272 21.0254 4.10352C22.1342 5.28286 22.7499 6.87334 22.75 8.52246C22.75 12.2418 20.0233 15.5553 17.5049 17.8477C16.2225 19.0149 14.9432 19.9625 13.9863 20.6182C13.5072 20.9465 13.107 21.203 12.8252 21.3779C12.6845 21.4653 12.5731 21.5323 12.4961 21.5781C12.4576 21.6011 12.427 21.6188 12.4062 21.6309C12.396 21.6368 12.3885 21.6422 12.3828 21.6455C12.38 21.6472 12.376 21.6494 12.376 21.6494L12.374 21.6504C12.1719 21.7661 11.928 21.7812 11.7158 21.6943L11.627 21.6504L11.624 21.6494C11.624 21.6494 11.62 21.6472 11.6172 21.6455C11.6115 21.6422 11.604 21.6368 11.5938 21.6309C11.573 21.6188 11.5424 21.6011 11.5039 21.5781C11.4269 21.5323 11.3155 21.4653 11.1748 21.3779C10.893 21.203 10.4928 20.9465 10.0137 20.6182C9.05681 19.9625 7.77748 19.0149 6.49512 17.8477C3.9767 15.5553 1.25 12.2418 1.25 8.52246C1.25007 6.87334 1.86582 5.28286 2.97461 4.10352C4.08491 2.92272 5.60106 2.25 7.19238 2.25C9.15965 2.25002 10.9154 3.16215 12 4.69434C13.0846 3.16215 14.8404 2.25002 16.8076 2.25Z" fill="black"/>
</svg>
