<svg width="24" height="24" viewBox="0 0 24 24" fill="none" xmlns="http://www.w3.org/2000/svg">
<path fill-rule="evenodd" clip-rule="evenodd" d="M1.25 8.68961C1.25 5.1889 4.07229 2.34961 7.56 2.34961C9.29674 2.34961 10.8646 3.0556 12.0003 4.19433C13.1385 3.05525 14.7122 2.34961 16.44 2.34961C19.9277 2.34961 22.75 5.1889 22.75 8.68961C22.75 12.4391 21.0107 15.3997 18.9342 17.5272C16.8683 19.6439 14.4235 20.9857 12.8657 21.5182C12.5914 21.6143 12.2773 21.6496 12 21.6496C11.7227 21.6496 11.4086 21.6143 11.1343 21.5182C9.57655 20.9857 7.13169 19.6439 5.06577 17.5272C2.98932 15.3997 1.25 12.4391 1.25 8.68961Z" fill="black"/>
</svg>
