<svg width="24" height="24" viewBox="0 0 24 24" fill="none" xmlns="http://www.w3.org/2000/svg">
<path fill-rule="evenodd" clip-rule="evenodd" d="M12 2.75C6.89137 2.75 2.75 6.89137 2.75 12C2.75 17.1086 6.89137 21.25 12 21.25C17.1086 21.25 21.25 17.1086 21.25 12C21.25 6.89137 17.1086 2.75 12 2.75ZM1.25 12C1.25 6.06294 6.06294 1.25 12 1.25C17.9371 1.25 22.75 6.06294 22.75 12C22.75 17.9371 17.9371 22.75 12 22.75C6.06294 22.75 1.25 17.9371 1.25 12Z" fill="black"/>
<path fill-rule="evenodd" clip-rule="evenodd" d="M9.59961 8.63965C8.35868 8.63965 7.34961 9.64898 7.34961 10.9096C7.34961 12.5501 8.10527 13.8745 9.08133 14.8745C10.062 15.8793 11.2189 16.5057 11.8917 16.7364C11.8947 16.737 11.9014 16.7383 11.9124 16.7398C11.9344 16.7426 11.9629 16.7446 11.9946 16.7446C12.0263 16.7446 12.0549 16.7426 12.0768 16.7398C12.088 16.7383 12.0948 16.7369 12.0977 16.7363C12.7748 16.5059 13.9346 15.8795 14.9169 14.8742C15.894 13.8744 16.6496 12.5501 16.6496 10.9096C16.6496 9.64898 15.6405 8.63965 14.3996 8.63965C13.6672 8.63965 13.0071 8.99885 12.6026 9.54567C12.4613 9.73661 12.238 9.84937 12.0005 9.84964C11.7629 9.84991 11.5393 9.73766 11.3977 9.54703C10.9832 8.98947 10.3327 8.63965 9.59961 8.63965ZM5.84961 10.9096C5.84961 8.8303 7.52054 7.13965 9.59961 7.13965C10.5124 7.13965 11.3491 7.4663 12 8.01341C12.6489 7.47012 13.4891 7.13965 14.3996 7.13965C16.4787 7.13965 18.1496 8.8303 18.1496 10.9096C18.1496 13.0492 17.1552 14.7299 15.9898 15.9226C14.8335 17.1058 13.4635 17.8584 12.5695 18.1602L12.5668 18.1612C12.3738 18.2255 12.164 18.2446 11.9946 18.2446C11.8253 18.2446 11.6154 18.2255 11.4224 18.1612L11.4183 18.1598C10.5298 17.8579 9.16269 17.1054 8.00789 15.9223C6.84395 14.7298 5.84961 13.0491 5.84961 10.9096Z" fill="black"/>
</svg>
