<svg width="24" height="24" viewBox="0 0 24 24" fill="none" xmlns="http://www.w3.org/2000/svg">
<path fill-rule="evenodd" clip-rule="evenodd" d="M7.56 3.84961C4.90771 3.84961 2.75 6.01031 2.75 8.68961C2.75 11.9401 4.25068 14.5445 6.13923 16.4795C8.03683 18.4238 10.2799 19.6416 11.6223 20.0998L11.6296 20.1023C11.6944 20.1252 11.8286 20.1496 12 20.1496C12.1714 20.1496 12.3056 20.1252 12.3704 20.1024L12.3777 20.0998C13.72 19.6415 15.9632 18.4238 17.8608 16.4795C19.7493 14.5445 21.25 11.9401 21.25 8.68961C21.25 6.01031 19.0923 3.84961 16.44 3.84961C14.8778 3.84961 13.477 4.60872 12.6021 5.78677C12.4606 5.97729 12.2373 6.08961 12 6.08961C11.7627 6.08961 11.5394 5.97729 11.3979 5.78677C10.5225 4.60811 9.13147 3.84961 7.56 3.84961ZM1.25 8.68961C1.25 5.1889 4.07229 2.34961 7.56 2.34961C9.29674 2.34961 10.8646 3.0556 12.0003 4.19433C13.1385 3.05525 14.7122 2.34961 16.44 2.34961C19.9277 2.34961 22.75 5.1889 22.75 8.68961C22.75 12.4391 21.0107 15.3997 18.9342 17.5272C16.8683 19.6439 14.4235 20.9857 12.8657 21.5182C12.5914 21.6143 12.2773 21.6496 12 21.6496C11.7227 21.6496 11.4086 21.6143 11.1343 21.5182C9.57655 20.9857 7.13169 19.6439 5.06577 17.5272C2.98932 15.3997 1.25 12.4391 1.25 8.68961Z" fill="black"/>
<path fill-rule="evenodd" clip-rule="evenodd" d="M7.56 3.84961C4.90771 3.84961 2.75 6.01031 2.75 8.68961C2.75 11.9401 4.25068 14.5445 6.13923 16.4795C8.03683 18.4238 10.2799 19.6416 11.6223 20.0998L11.6296 20.1023C11.6944 20.1252 11.8286 20.1496 12 20.1496C12.1714 20.1496 12.3056 20.1252 12.3704 20.1024L12.3777 20.0998C13.72 19.6415 15.9632 18.4238 17.8608 16.4795C19.7493 14.5445 21.25 11.9401 21.25 8.68961C21.25 6.01031 19.0923 3.84961 16.44 3.84961C14.8778 3.84961 13.477 4.60872 12.6021 5.78677C12.4606 5.97729 12.2373 6.08961 12 6.08961C11.7627 6.08961 11.5394 5.97729 11.3979 5.78677C10.5225 4.60811 9.13147 3.84961 7.56 3.84961ZM1.25 8.68961C1.25 5.1889 4.07229 2.34961 7.56 2.34961C9.29674 2.34961 10.8646 3.0556 12.0003 4.19433C13.1385 3.05525 14.7122 2.34961 16.44 2.34961C19.9277 2.34961 22.75 5.1889 22.75 8.68961C22.75 12.4391 21.0107 15.3997 18.9342 17.5272C16.8683 19.6439 14.4235 20.9857 12.8657 21.5182C12.5914 21.6143 12.2773 21.6496 12 21.6496C11.7227 21.6496 11.4086 21.6143 11.1343 21.5182C9.57655 20.9857 7.13169 19.6439 5.06577 17.5272C2.98932 15.3997 1.25 12.4391 1.25 8.68961Z" fill="black"/>
</svg>
