<svg width="24" height="24" viewBox="0 0 24 24" fill="none" xmlns="http://www.w3.org/2000/svg">
<path d="M16.8076 2C18.4705 2 20.0522 2.70322 21.208 3.93262C22.3618 5.15985 22.9999 6.8119 23 8.52246C23 12.3566 20.1974 15.7343 17.6729 18.0322C16.3798 19.2092 15.0912 20.1641 14.1279 20.8242C13.6453 21.1549 13.2416 21.4131 12.957 21.5898C12.8149 21.6781 12.7023 21.7464 12.624 21.793C12.5852 21.8161 12.5545 21.8342 12.5332 21.8467C12.5226 21.8528 12.5138 21.8579 12.5078 21.8613C12.5051 21.8629 12.5027 21.8642 12.501 21.8652C12.5001 21.8657 12.4986 21.8668 12.498 21.8672H12.4971L12 21L12.4971 21.8682C12.1893 22.0444 11.8107 22.0444 11.5029 21.8682V21.8672H11.502C11.5014 21.8668 11.4999 21.8657 11.499 21.8652C11.4973 21.8642 11.4949 21.8629 11.4922 21.8613C11.4862 21.8579 11.4774 21.8528 11.4668 21.8467C11.4455 21.8342 11.4148 21.8161 11.376 21.793C11.2977 21.7464 11.1851 21.6781 11.043 21.5898C10.7584 21.4131 10.3547 21.1549 9.87207 20.8242C8.90877 20.1641 7.6202 19.2092 6.32715 18.0322C3.80259 15.7343 1 12.3566 1 8.52246C1.00007 6.81191 1.63825 5.15985 2.79199 3.93262C3.94784 2.70322 5.52948 2 7.19238 2C9.12131 2.00002 10.8592 2.84336 12 4.27637C13.1408 2.84336 14.8787 2.00002 16.8076 2ZM16.8076 4C15.0415 4.00003 13.5572 5.01153 12.9336 6.63184C12.785 7.01793 12.4137 7.27246 12 7.27246C11.5863 7.27246 11.215 7.01793 11.0664 6.63184C10.4427 5.01153 8.95852 4.00003 7.19238 4C6.10112 4 5.04067 4.46071 4.24902 5.30273C3.45563 6.14676 3.00007 7.30396 3 8.52246C3 11.4382 5.19755 14.2996 7.67285 16.5527C8.87961 17.6512 10.0913 18.5501 11.0029 19.1748C11.4037 19.4494 11.7452 19.6692 12 19.8291C12.2548 19.6692 12.5963 19.4494 12.9971 19.1748C13.9087 18.5501 15.1204 17.6512 16.3271 16.5527C18.8025 14.2996 21 11.4382 21 8.52246C20.9999 7.30396 20.5444 6.14676 19.751 5.30273C18.9593 4.46071 17.8989 4 16.8076 4Z" fill="black"/>
</svg>
