<svg width="24" height="24" viewBox="0 0 24 24" fill="none" xmlns="http://www.w3.org/2000/svg">
<path fill-rule="evenodd" clip-rule="evenodd" d="M7.56 3.83984C4.90771 3.83984 2.75 6.00052 2.75 8.67981C2.75 12.2087 4.51031 14.9739 6.62269 16.9524C6.92501 17.2356 6.94053 17.7102 6.65737 18.0125C6.37421 18.3148 5.89959 18.3304 5.59728 18.0472C3.28966 15.8858 1.25 12.7509 1.25 8.67981C1.25 5.1791 4.07229 2.33984 7.56 2.33984C9.29673 2.33984 10.8646 3.04582 12.0003 4.18455C13.1385 3.04547 14.7122 2.33984 16.44 2.33984C17.7448 2.33984 18.962 2.73754 19.974 3.43117C20.3157 3.66534 20.4028 4.13215 20.1686 4.47382C19.9345 4.81548 19.4676 4.90262 19.126 4.66844C18.358 4.14207 17.4353 3.83984 16.44 3.83984C14.8778 3.83984 13.477 4.59895 12.6021 5.777C12.4606 5.96752 12.2373 6.07983 12 6.07983C11.7627 6.07983 11.5394 5.96752 11.3979 5.777C10.5226 4.59833 9.13147 3.83984 7.56 3.83984Z" fill="black"/>
<path fill-rule="evenodd" clip-rule="evenodd" d="M21.5105 6.28604C21.905 6.15953 22.3273 6.37671 22.4538 6.77113C22.648 7.37664 22.7496 8.02402 22.7496 8.6902C22.7496 12.4397 21.0103 15.4003 18.934 17.5289C16.8676 19.6474 14.4226 20.9913 12.8664 21.5285C12.5918 21.6248 12.2773 21.6602 11.9996 21.6602C11.7227 21.6602 11.4091 21.625 11.1351 21.5292C10.4255 21.2886 9.55887 20.8842 8.63591 20.3346C8.28002 20.1227 8.16332 19.6624 8.37525 19.3065C8.58719 18.9506 9.0475 18.8339 9.40339 19.0458C10.2586 19.5551 11.0305 19.9102 11.6201 20.1098L11.6293 20.1129C11.694 20.1358 11.8282 20.1602 11.9996 20.1602C12.171 20.1602 12.3052 20.1358 12.37 20.113L12.3751 20.1112C13.719 19.6478 15.9626 18.427 17.8602 16.4815C19.749 14.5452 21.2496 11.9407 21.2496 8.6902C21.2496 8.17639 21.1712 7.68376 21.0255 7.22927C20.8989 6.83485 21.1161 6.41255 21.5105 6.28604Z" fill="black"/>
<path fill-rule="evenodd" clip-rule="evenodd" d="M22.5303 1.46967C22.8232 1.76256 22.8232 2.23744 22.5303 2.53033L2.53033 22.5303C2.23744 22.8232 1.76256 22.8232 1.46967 22.5303C1.17678 22.2374 1.17678 21.7626 1.46967 21.4697L21.4697 1.46967C21.7626 1.17678 22.2374 1.17678 22.5303 1.46967Z" fill="black"/>
</svg>
