<svg width="24" height="24" viewBox="0 0 24 24" fill="none" xmlns="http://www.w3.org/2000/svg">
<path fill-rule="evenodd" clip-rule="evenodd" d="M1.25 8.68964C1.25 5.18894 4.07228 2.34961 7.56 2.34961C9.28783 2.34961 10.8615 3.05529 11.9997 4.19437C13.1354 3.05564 14.7033 2.34961 16.44 2.34961C19.9277 2.34961 22.75 5.18894 22.75 8.68964C22.75 9.96117 22.5467 11.1368 22.2056 12.2241C22.0816 12.6194 21.6607 12.8392 21.2655 12.7152C20.8703 12.5913 20.6504 12.1703 20.7744 11.7751C21.0733 10.8225 21.25 9.79811 21.25 8.68964C21.25 6.01034 19.0923 3.84961 16.44 3.84961C14.8685 3.84961 13.4775 4.60815 12.6021 5.78682C12.4606 5.97734 12.2373 6.08966 12 6.08966C11.7627 6.08966 11.5394 5.97734 11.3979 5.78682C10.523 4.60876 9.12219 3.84961 7.56 3.84961C4.90772 3.84961 2.75 6.01034 2.75 8.68964C2.75 11.9401 4.25066 14.5446 6.13939 16.481C8.03701 18.4264 10.2807 19.6472 11.6245 20.1106L11.6296 20.1124C11.695 20.1355 11.8245 20.1596 12 20.1596C12.4142 20.1596 12.75 20.4954 12.75 20.9096C12.75 21.3238 12.4142 21.6596 12 21.6596C11.7165 21.6596 11.4072 21.6241 11.1332 21.5279C9.57697 20.9908 7.13198 19.6468 5.06561 17.5283C2.98934 15.3997 1.25 12.4391 1.25 8.68964Z" fill="black"/>
<path fill-rule="evenodd" clip-rule="evenodd" d="M17.74 15.3496C16.3869 15.3496 15.29 16.4465 15.29 17.7996C15.29 19.1527 16.3869 20.2496 17.74 20.2496C19.0931 20.2496 20.19 19.1527 20.19 17.7996C20.19 16.4465 19.0931 15.3496 17.74 15.3496ZM13.79 17.7996C13.79 15.6181 15.5585 13.8496 17.74 13.8496C19.9216 13.8496 21.69 15.6181 21.69 17.7996C21.69 19.9811 19.9216 21.7496 17.74 21.7496C15.5585 21.7496 13.79 19.9811 13.79 17.7996Z" fill="black"/>
<path fill-rule="evenodd" clip-rule="evenodd" d="M20.0097 20.0693C20.3026 19.7764 20.7775 19.7764 21.0704 20.0693L22.0704 21.0693C22.3633 21.3622 22.3633 21.837 22.0704 22.1299C21.7775 22.4228 21.3026 22.4228 21.0097 22.1299L20.0097 21.1299C19.7168 20.837 19.7168 20.3622 20.0097 20.0693Z" fill="black"/>
</svg>
