<svg width="24" height="24" viewBox="0 0 24 24" fill="none" xmlns="http://www.w3.org/2000/svg">
<path d="M21.25 8.52246C21.2499 7.24233 20.7712 6.02281 19.9326 5.13086C19.0955 4.24062 17.9702 3.75 16.8076 3.75C14.94 3.75003 13.3617 4.82336 12.7002 6.54199C12.5888 6.83156 12.3103 7.02246 12 7.02246C11.6897 7.02246 11.4112 6.83156 11.2998 6.54199C10.6383 4.82336 9.05998 3.75003 7.19238 3.75C6.0298 3.75 4.90452 4.24062 4.06738 5.13086C3.2288 6.02281 2.75007 7.24233 2.75 8.52246C2.75 11.5531 5.0233 14.4795 7.50488 16.7383C8.72234 17.8464 9.94329 18.7518 10.8613 19.3809C11.3196 19.6949 11.7007 19.9389 11.9658 20.1035C11.9773 20.1106 11.989 20.1172 12 20.124C12.011 20.1172 12.0227 20.1106 12.0342 20.1035C12.2993 19.9389 12.6804 19.6949 13.1387 19.3809C14.0567 18.7518 15.2777 17.8464 16.4951 16.7383C18.9767 14.4795 21.25 11.5531 21.25 8.52246ZM22.75 8.52246C22.75 12.2418 20.0233 15.5553 17.5049 17.8477C16.2225 19.0149 14.9432 19.9625 13.9863 20.6182C13.5072 20.9465 13.107 21.203 12.8252 21.3779C12.6845 21.4653 12.5731 21.5323 12.4961 21.5781C12.4576 21.6011 12.427 21.6188 12.4062 21.6309C12.396 21.6368 12.3885 21.6422 12.3828 21.6455C12.38 21.6472 12.3776 21.6485 12.376 21.6494L12.374 21.6504H12.373C12.1709 21.7661 11.928 21.7812 11.7158 21.6943L11.627 21.6504H11.626L11.624 21.6494C11.6224 21.6485 11.62 21.6472 11.6172 21.6455C11.6115 21.6422 11.604 21.6368 11.5938 21.6309C11.573 21.6188 11.5424 21.6011 11.5039 21.5781C11.4269 21.5323 11.3155 21.4653 11.1748 21.3779C10.893 21.203 10.4928 20.9465 10.0137 20.6182C9.05681 19.9625 7.77748 19.0149 6.49512 17.8477C3.9767 15.5553 1.25 12.2418 1.25 8.52246C1.25007 6.87334 1.86582 5.28286 2.97461 4.10352C4.08491 2.92272 5.60106 2.25 7.19238 2.25C9.15965 2.25002 10.9154 3.16215 12 4.69434C13.0846 3.16215 14.8404 2.25002 16.8076 2.25C18.3989 2.25 19.9151 2.92272 21.0254 4.10352C22.1342 5.28286 22.7499 6.87334 22.75 8.52246Z" fill="black"/>
</svg>
