<svg width="24" height="24" viewBox="0 0 24 24" fill="none" xmlns="http://www.w3.org/2000/svg">
<path fill-rule="evenodd" clip-rule="evenodd" d="M8.2002 6.75C8.61441 6.75 8.9502 7.08579 8.9502 7.5V16.5C8.9502 16.9142 8.61441 17.25 8.2002 17.25C7.78598 17.25 7.4502 16.9142 7.4502 16.5V7.5C7.4502 7.08579 7.78598 6.75 8.2002 6.75Z" fill="black"/>
<path fill-rule="evenodd" clip-rule="evenodd" d="M15.7998 6.75C16.214 6.75 16.5498 7.08579 16.5498 7.5V16.5C16.5498 16.9142 16.214 17.25 15.7998 17.25C15.3856 17.25 15.0498 16.9142 15.0498 16.5V7.5C15.0498 7.08579 15.3856 6.75 15.7998 6.75Z" fill="black"/>
<path fill-rule="evenodd" clip-rule="evenodd" d="M7.4502 10.0996C7.4502 9.6854 7.78598 9.34961 8.2002 9.34961H15.8002C16.2144 9.34961 16.5502 9.6854 16.5502 10.0996C16.5502 10.5138 16.2144 10.8496 15.8002 10.8496H8.2002C7.78598 10.8496 7.4502 10.5138 7.4502 10.0996Z" fill="black"/>
<path fill-rule="evenodd" clip-rule="evenodd" d="M7.4502 13.9004C7.4502 13.4862 7.78598 13.1504 8.2002 13.1504H15.8002C16.2144 13.1504 16.5502 13.4862 16.5502 13.9004C16.5502 14.3146 16.2144 14.6504 15.8002 14.6504H8.2002C7.78598 14.6504 7.4502 14.3146 7.4502 13.9004Z" fill="black"/>
<path fill-rule="evenodd" clip-rule="evenodd" d="M12 2.75C6.89137 2.75 2.75 6.89137 2.75 12C2.75 17.1086 6.89137 21.25 12 21.25C17.1086 21.25 21.25 17.1086 21.25 12C21.25 6.89137 17.1086 2.75 12 2.75ZM1.25 12C1.25 6.06294 6.06294 1.25 12 1.25C17.9371 1.25 22.75 6.06294 22.75 12C22.75 17.9371 17.9371 22.75 12 22.75C6.06294 22.75 1.25 17.9371 1.25 12Z" fill="black"/>
</svg>
