<svg width="24" height="24" viewBox="0 0 24 24" fill="none" xmlns="http://www.w3.org/2000/svg">
<path fill-rule="evenodd" clip-rule="evenodd" d="M6.5658 2.5498H17.4338L22.8648 11.9998L17.4338 21.4498H6.5658L1.13477 11.9998L6.5658 2.5498ZM7.43381 4.0498L2.86484 11.9998L7.43381 19.9498H16.5658L21.1348 11.9998L16.5658 4.0498H7.43381Z" fill="black"/>
<path fill-rule="evenodd" clip-rule="evenodd" d="M6.56692 13.25H11.3341L13.6628 17.2945L11.3406 21.45H6.56049L4.23828 17.2945L6.56692 13.25ZM7.43414 14.75L5.96278 17.3055L7.44057 19.95H10.4605L11.9383 17.3055L10.4669 14.75H7.43414Z" fill="black"/>
<path fill-rule="evenodd" clip-rule="evenodd" d="M6.56499 7.25H14.7295L18.8683 14.297L14.733 21.45H6.5616L2.53809 14.2971L6.56499 7.25ZM7.43548 8.75L4.26238 14.3029L7.43887 19.95H13.8675L17.1322 14.303L13.8709 8.75H7.43548Z" fill="black"/>
</svg>
