<svg width="24" height="24" viewBox="0 0 24 24" fill="none" xmlns="http://www.w3.org/2000/svg">
<path fill-rule="evenodd" clip-rule="evenodd" d="M11.7998 7.5C11.7998 7.08579 12.1356 6.75 12.5498 6.75H15.4498C16.414 6.75 17.1998 7.53579 17.1998 8.5V14.4C17.1998 14.8142 16.864 15.15 16.4498 15.15C16.0356 15.15 15.6998 14.8142 15.6998 14.4V8.5C15.6998 8.36421 15.5856 8.25 15.4498 8.25H12.5498C12.1356 8.25 11.7998 7.91421 11.7998 7.5Z" fill="black"/>
<path fill-rule="evenodd" clip-rule="evenodd" d="M14.6262 5.51988C14.8913 5.83809 14.8483 6.31101 14.5301 6.57618L13.4215 7.50002L14.5301 8.42385C14.8483 8.68903 14.8913 9.16195 14.6262 9.48016C14.361 9.79837 13.8881 9.84136 13.5698 9.57618L11.7699 8.07618C11.5989 7.93369 11.5 7.7226 11.5 7.50002C11.5 7.27744 11.5989 7.06635 11.7699 6.92385L13.5698 5.42385C13.8881 5.15868 14.361 5.20167 14.6262 5.51988Z" fill="black"/>
<path fill-rule="evenodd" clip-rule="evenodd" d="M7.5498 9.4502C7.96402 9.4502 8.2998 9.78598 8.2998 10.2002V14.4002C8.2998 14.8144 7.96402 15.1502 7.5498 15.1502C7.13559 15.1502 6.7998 14.8144 6.7998 14.4002V10.2002C6.7998 9.78598 7.13559 9.4502 7.5498 9.4502Z" fill="black"/>
<path fill-rule="evenodd" clip-rule="evenodd" d="M7.70001 6.75C7.03727 6.75 6.5 7.28727 6.5 7.95001C6.5 8.61274 7.03726 9.14999 7.70001 9.14999C8.36277 9.14999 8.90002 8.61274 8.90002 7.95001C8.90002 7.28727 8.36275 6.75 7.70001 6.75ZM5 7.95001C5 6.45884 6.20884 5.25 7.70001 5.25C9.19118 5.25 10.4 6.45884 10.4 7.95001C10.4 9.4412 9.19117 10.65 7.70001 10.65C6.20886 10.65 5 9.4412 5 7.95001Z" fill="black"/>
<path fill-rule="evenodd" clip-rule="evenodd" d="M7.5498 15.1502C6.96992 15.1502 6.5 15.6205 6.5 16.2004C6.5 16.7803 6.97009 17.2504 7.54999 17.2504C8.12989 17.2504 8.59998 16.7803 8.59998 16.2004C8.59998 15.6205 8.12969 15.1502 7.5498 15.1502ZM5 16.2004C5 14.7921 6.14164 13.6504 7.54999 13.6504C8.95833 13.6504 10.1 14.7921 10.1 16.2004C10.1 17.6087 8.95831 18.7504 7.54999 18.7504C6.14166 18.7504 5 17.6087 5 16.2004Z" fill="black"/>
<path fill-rule="evenodd" clip-rule="evenodd" d="M16.4498 15.15C15.8699 15.15 15.4004 15.6205 15.4004 16.2004C15.4004 16.7803 15.8705 17.2504 16.4504 17.2504C17.0303 17.2504 17.5004 16.7803 17.5004 16.2004C17.5004 15.6205 17.0297 15.15 16.4498 15.15ZM13.9004 16.2004C13.9004 14.7921 15.042 13.6504 16.4504 13.6504C17.8587 13.6504 19.0004 14.7921 19.0004 16.2004C19.0004 17.6087 17.8587 18.7504 16.4504 18.7504C15.0421 18.7504 13.9004 17.6087 13.9004 16.2004Z" fill="black"/>
<path fill-rule="evenodd" clip-rule="evenodd" d="M3.09467 3.09467C4.42914 1.7602 6.42603 1.25 9 1.25H15C17.574 1.25 19.5709 1.7602 20.9053 3.09467C22.2398 4.42914 22.75 6.42603 22.75 9V15C22.75 17.574 22.2398 19.5709 20.9053 20.9053C19.5709 22.2398 17.574 22.75 15 22.75H9C6.42603 22.75 4.42914 22.2398 3.09467 20.9053C1.7602 19.5709 1.25 17.574 1.25 15V9C1.25 6.42603 1.7602 4.42914 3.09467 3.09467ZM4.15533 4.15533C3.2398 5.07086 2.75 6.57397 2.75 9V15C2.75 17.426 3.2398 18.9291 4.15533 19.8447C5.07086 20.7602 6.57397 21.25 9 21.25H15C17.426 21.25 18.9291 20.7602 19.8447 19.8447C20.7602 18.9291 21.25 17.426 21.25 15V9C21.25 6.57397 20.7602 5.07086 19.8447 4.15533C18.9291 3.2398 17.426 2.75 15 2.75H9C6.57397 2.75 5.07086 3.2398 4.15533 4.15533Z" fill="black"/>
</svg>
