<svg width="24" height="24" viewBox="0 0 24 24" fill="none" xmlns="http://www.w3.org/2000/svg">
<path fill-rule="evenodd" clip-rule="evenodd" d="M5 8.25C5.41421 8.25 5.75 8.58579 5.75 9V16C5.75 16.4142 5.41421 16.75 5 16.75C4.58579 16.75 4.25 16.4142 4.25 16V9C4.25 8.58579 4.58579 8.25 5 8.25Z" fill="black"/>
<path fill-rule="evenodd" clip-rule="evenodd" d="M5.25 2.75C3.86929 2.75 2.75 3.86929 2.75 5.25C2.75 6.63071 3.86929 7.75 5.25 7.75C6.63071 7.75 7.75 6.63071 7.75 5.25C7.75 3.86929 6.63071 2.75 5.25 2.75ZM1.25 5.25C1.25 3.04086 3.04086 1.25 5.25 1.25C7.45914 1.25 9.25 3.04086 9.25 5.25C9.25 7.45914 7.45914 9.25 5.25 9.25C3.04086 9.25 1.25 7.45914 1.25 5.25Z" fill="black"/>
<path fill-rule="evenodd" clip-rule="evenodd" d="M5 16.75C3.75736 16.75 2.75 17.7574 2.75 19C2.75 20.2426 3.75736 21.25 5 21.25C6.24264 21.25 7.25 20.2426 7.25 19C7.25 17.7574 6.24264 16.75 5 16.75ZM1.25 19C1.25 16.9289 2.92893 15.25 5 15.25C7.07107 15.25 8.75 16.9289 8.75 19C8.75 21.0711 7.07107 22.75 5 22.75C2.92893 22.75 1.25 21.0711 1.25 19Z" fill="black"/>
<path fill-rule="evenodd" clip-rule="evenodd" d="M19 16.75C17.7574 16.75 16.75 17.7574 16.75 19C16.75 20.2426 17.7574 21.25 19 21.25C20.2426 21.25 21.25 20.2426 21.25 19C21.25 17.7574 20.2426 16.75 19 16.75ZM15.25 19C15.25 16.9289 16.9289 15.25 19 15.25C21.0711 15.25 22.75 16.9289 22.75 19C22.75 21.0711 21.0711 22.75 19 22.75C16.9289 22.75 15.25 21.0711 15.25 19Z" fill="black"/>
<path fill-rule="evenodd" clip-rule="evenodd" d="M4.94328 8.27381C5.34445 8.17066 5.75328 8.41224 5.85643 8.8134C6.22325 10.2399 7.52947 11.2983 9.0661 11.2902L9.06787 11.2902L12.4972 11.2802C15.4478 11.2692 17.956 13.1615 18.8779 15.7922C19.0148 16.1831 18.809 16.611 18.4181 16.748C18.0272 16.885 17.5992 16.6791 17.4623 16.2882C16.7442 14.2391 14.792 12.7714 12.5029 12.7802L9.07403 12.7902C9.07371 12.7902 9.07435 12.7902 9.07403 12.7902C6.83108 12.8016 4.93681 11.2602 4.40369 9.18696C4.30054 8.7858 4.54212 8.37697 4.94328 8.27381Z" fill="black"/>
</svg>
