<svg width="24" height="24" viewBox="0 0 24 24" fill="none" xmlns="http://www.w3.org/2000/svg">
<path fill-rule="evenodd" clip-rule="evenodd" d="M11.4837 1.26911C12.5191 1.24483 13.5961 1.5079 14.4501 2.10573L20.6288 6.43486C21.2484 6.86691 21.7707 7.53301 22.1361 8.2331C22.5017 8.93348 22.75 9.74295 22.75 10.5002V17.7802C22.75 20.5032 20.5254 22.7402 17.79 22.7402H6.21C3.47347 22.7402 1.25 20.5021 1.25 17.7702V10.3602C1.25 9.64968 1.47441 8.88067 1.80418 8.20855C2.134 7.53633 2.60552 6.887 3.16901 6.44856L8.55901 2.24856C9.38375 1.6071 10.4482 1.29339 11.4837 1.26911ZM9.48046 3.43217L4.09099 7.63176C3.75471 7.8933 3.4109 8.33919 3.15082 8.86927C2.89059 9.39965 2.75 9.94063 2.75 10.3602V17.7702C2.75 19.6783 4.30653 21.2402 6.21 21.2402H17.79C19.6946 21.2402 21.25 19.6771 21.25 17.7802V10.5002C21.25 10.0474 21.0933 9.47683 20.8064 8.92722C20.5195 8.37755 20.1413 7.92342 19.7712 7.66546L19.7696 7.66439L13.5899 3.33458C13.044 2.95254 12.2958 2.75048 11.5188 2.7687C10.7419 2.78692 10.0057 3.02375 9.48046 3.43217Z" fill="black"/>
<path fill-rule="evenodd" clip-rule="evenodd" d="M6.96967 10.9697C7.26256 10.6768 7.73744 10.6768 8.03033 10.9697L10.5834 13.5228L11.676 11.884C11.8006 11.697 12.0025 11.5758 12.2261 11.5536C12.4497 11.5315 12.6714 11.6108 12.8303 11.7697L17.0303 15.9697C17.3232 16.2626 17.3232 16.7374 17.0303 17.0303C16.7374 17.3232 16.2626 17.3232 15.9697 17.0303L12.4166 13.4772L11.324 15.116C11.1994 15.303 10.9975 15.4242 10.7739 15.4464C10.5503 15.4685 10.3286 15.3892 10.1697 15.2303L6.96967 12.0303C6.67678 11.7374 6.67678 11.2626 6.96967 10.9697Z" fill="black"/>
<path fill-rule="evenodd" clip-rule="evenodd" d="M16.5 13.75C16.9142 13.75 17.25 14.0858 17.25 14.5V16.5C17.25 16.9142 16.9142 17.25 16.5 17.25H14.5C14.0858 17.25 13.75 16.9142 13.75 16.5C13.75 16.0858 14.0858 15.75 14.5 15.75H15.75V14.5C15.75 14.0858 16.0858 13.75 16.5 13.75Z" fill="black"/>
</svg>
