<svg width="24" height="24" viewBox="0 0 24 24" fill="none" xmlns="http://www.w3.org/2000/svg">
<path fill-rule="evenodd" clip-rule="evenodd" d="M11.4837 1.26911C12.5191 1.24483 13.5961 1.5079 14.4501 2.10573L20.6288 6.43486C21.2484 6.86691 21.7707 7.53301 22.1361 8.2331C22.5017 8.93348 22.75 9.74295 22.75 10.5002V17.7802C22.75 20.5032 20.5254 22.7402 17.79 22.7402H6.21C3.47347 22.7402 1.25 20.5021 1.25 17.7702V10.3602C1.25 9.64968 1.47441 8.88067 1.80418 8.20855C2.134 7.53633 2.60552 6.887 3.16901 6.44856L8.55901 2.24856C9.38375 1.6071 10.4482 1.29339 11.4837 1.26911ZM9.48046 3.43217L4.09099 7.63176C3.75471 7.8933 3.4109 8.33919 3.15082 8.86927C2.89059 9.39965 2.75 9.94063 2.75 10.3602V17.7702C2.75 19.6783 4.30653 21.2402 6.21 21.2402H17.79C19.6946 21.2402 21.25 19.6771 21.25 17.7802V10.5002C21.25 10.0474 21.0933 9.47683 20.8064 8.92722C20.5195 8.37755 20.1413 7.92342 19.7712 7.66546L19.7696 7.66439L13.5899 3.33458C13.044 2.95254 12.2958 2.75048 11.5188 2.7687C10.7419 2.78692 10.0057 3.02375 9.48046 3.43217Z" fill="black"/>
<path fill-rule="evenodd" clip-rule="evenodd" d="M6.75 12C6.75 9.93579 8.43579 8.25 10.5 8.25H13.5C15.5642 8.25 17.25 9.93579 17.25 12V15C17.25 17.0642 15.5642 18.75 13.5 18.75H10.5C8.43579 18.75 6.75 17.0642 6.75 15V12ZM10.5 9.75C9.26421 9.75 8.25 10.7642 8.25 12V15C8.25 16.2358 9.26421 17.25 10.5 17.25H13.5C14.7358 17.25 15.75 16.2358 15.75 15V12C15.75 10.7642 14.7358 9.75 13.5 9.75H10.5Z" fill="black"/>
<path fill-rule="evenodd" clip-rule="evenodd" d="M12 8.25C12.4142 8.25 12.75 8.58579 12.75 9V18C12.75 18.4142 12.4142 18.75 12 18.75C11.5858 18.75 11.25 18.4142 11.25 18V9C11.25 8.58579 11.5858 8.25 12 8.25Z" fill="black"/>
<path fill-rule="evenodd" clip-rule="evenodd" d="M6.75 13.5C6.75 13.0858 7.08579 12.75 7.5 12.75H16.5C16.9142 12.75 17.25 13.0858 17.25 13.5C17.25 13.9142 16.9142 14.25 16.5 14.25H7.5C7.08579 14.25 6.75 13.9142 6.75 13.5Z" fill="black"/>
</svg>
