<svg width="24" height="24" viewBox="0 0 24 24" fill="none" xmlns="http://www.w3.org/2000/svg">
<path fill-rule="evenodd" clip-rule="evenodd" d="M14.4001 2.24579C14.3999 2.24559 14.4004 2.246 14.4001 2.24579L21.3307 7.78624C21.8443 8.19983 22.2292 8.80553 22.4648 9.42309C22.7005 10.0408 22.8169 10.7494 22.7105 11.4013L22.71 11.404L21.3801 19.364L21.3797 19.3663C21.0785 21.1355 19.3972 22.5605 17.6003 22.5605H6.40029C4.59407 22.5605 2.92173 21.146 2.62077 19.3654L1.29134 11.4086C1.29119 11.4078 1.29105 11.407 1.29091 11.4062C1.17808 10.7523 1.29222 10.042 1.52832 9.42309C1.76459 8.80382 2.15291 8.19767 2.67243 7.78426C2.67283 7.78394 2.67323 7.78362 2.67363 7.7833L9.60111 2.23525C10.9365 1.16472 13.0573 1.16714 14.4001 2.24579ZM13.4604 3.41496C12.6634 2.77433 11.3239 2.77651 10.5395 3.40548L3.607 8.95754C3.34713 9.16411 3.09585 9.52251 2.92979 9.95778C2.76369 10.3931 2.71281 10.8268 2.76926 11.1523L2.77006 11.1568L4.0998 19.1154C4.09977 19.1152 4.09983 19.1156 4.0998 19.1154C4.27912 20.1745 5.32671 21.0605 6.40029 21.0605H17.6003C18.663 21.0605 19.7213 20.166 19.9008 19.1157C19.9008 19.1153 19.9009 19.1149 19.9009 19.1146L21.2301 11.1596C21.2302 11.1592 21.2302 11.1587 21.2303 11.1583C21.2835 10.8303 21.2299 10.3945 21.0633 9.95778C20.8966 9.52079 20.6468 9.16178 20.3908 8.95526C20.3905 8.95503 20.3902 8.95481 20.3899 8.95458L13.462 3.41619L13.4604 3.41496Z" fill="black"/>
<path fill-rule="evenodd" clip-rule="evenodd" d="M11.9999 14.2227C11.4703 14.2227 10.9082 14.4363 10.3972 14.9232C10.0973 15.2089 9.62261 15.1974 9.33688 14.8975C9.05116 14.5976 9.06264 14.1229 9.36254 13.8372C10.1216 13.114 11.0444 12.7227 11.9999 12.7227C12.9553 12.7227 13.8782 13.114 14.6372 13.8372C14.9371 14.1229 14.9486 14.5976 14.6629 14.8975C14.3772 15.1974 13.9024 15.2089 13.6025 14.9232C13.0916 14.4363 12.5294 14.2227 11.9999 14.2227Z" fill="black"/>
<path fill-rule="evenodd" clip-rule="evenodd" d="M9.18822 10.3427C10.9912 9.48632 13.0083 9.48545 14.8035 10.3435L14.8067 10.3451C15.4971 10.6792 16.1649 11.1356 16.7653 11.7249C17.061 12.0151 17.0654 12.4899 16.7753 12.7855C16.4851 13.0812 16.0103 13.0856 15.7146 12.7954C15.2356 12.3253 14.7039 11.9619 14.155 11.6961C12.7714 11.0353 11.2301 11.0343 9.83425 11.6965C9.28947 11.9604 8.76512 12.3235 8.27042 12.8002C7.97215 13.0877 7.49736 13.0789 7.20994 12.7806C6.92252 12.4823 6.93131 12.0075 7.22958 11.7201C7.83414 11.1376 8.48899 10.6811 9.18334 10.3451L9.18822 10.3427Z" fill="black"/>
<path fill-rule="evenodd" clip-rule="evenodd" d="M10.9951 17C10.9951 16.4477 11.4428 16 11.9951 16H12.0041C12.5564 16 13.0041 16.4477 13.0041 17C13.0041 17.5523 12.5564 18 12.0041 18H11.9951C11.4428 18 10.9951 17.5523 10.9951 17Z" fill="black"/>
</svg>
