<svg width="24" height="24" viewBox="0 0 24 24" fill="none" xmlns="http://www.w3.org/2000/svg">
<path fill-rule="evenodd" clip-rule="evenodd" d="M1.25 22C1.25 21.5858 1.58579 21.25 2 21.25H22C22.4142 21.25 22.75 21.5858 22.75 22C22.75 22.4142 22.4142 22.75 22 22.75H2C1.58579 22.75 1.25 22.4142 1.25 22Z" fill="black"/>
<path fill-rule="evenodd" clip-rule="evenodd" d="M3.30736 2.68106C4.11215 1.74912 5.34646 1.25 7 1.25H17C18.6535 1.25 19.8879 1.74912 20.6926 2.68106C21.4797 3.59244 21.75 4.79713 21.75 6V22C21.75 22.4142 21.4142 22.75 21 22.75H3C2.58579 22.75 2.25 22.4142 2.25 22V6C2.25 4.79713 2.52033 3.59244 3.30736 2.68106ZM4.44264 3.66144C3.97967 4.19756 3.75 4.99287 3.75 6V21.25H20.25V6C20.25 4.99287 20.0203 4.19756 19.5574 3.66144C19.1121 3.14588 18.3465 2.75 17 2.75H7C5.65354 2.75 4.88785 3.14588 4.44264 3.66144Z" fill="black"/>
<path fill-rule="evenodd" clip-rule="evenodd" d="M8.24023 15.94C8.24023 15.0006 9.01118 14.25 9.93022 14.25H14.0602C14.9889 14.25 15.7539 15.0018 15.7402 15.9462V22C15.7402 22.4142 15.4044 22.75 14.9902 22.75H8.99023C8.57602 22.75 8.24023 22.4142 8.24023 22V15.94ZM9.93022 15.75C9.82926 15.75 9.74023 15.8394 9.74023 15.94V21.25H14.2402V15.94L14.2404 15.9256C14.2421 15.8338 14.1689 15.75 14.0602 15.75H9.93022Z" fill="black"/>
<path fill-rule="evenodd" clip-rule="evenodd" d="M12 5.25C12.4142 5.25 12.75 5.58579 12.75 6V11C12.75 11.4142 12.4142 11.75 12 11.75C11.5858 11.75 11.25 11.4142 11.25 11V6C11.25 5.58579 11.5858 5.25 12 5.25Z" fill="black"/>
<path fill-rule="evenodd" clip-rule="evenodd" d="M8.75 8.5C8.75 8.08579 9.08579 7.75 9.5 7.75H14.5C14.9142 7.75 15.25 8.08579 15.25 8.5C15.25 8.91421 14.9142 9.25 14.5 9.25H9.5C9.08579 9.25 8.75 8.91421 8.75 8.5Z" fill="black"/>
</svg>
