<svg width="24" height="24" viewBox="0 0 24 24" fill="none" xmlns="http://www.w3.org/2000/svg">
<path fill-rule="evenodd" clip-rule="evenodd" d="M15.9773 9.28382C16.2395 9.2023 16.5254 9.27064 16.7224 9.46195C18.528 11.2152 19.4477 12.9061 19.7306 14.5002C20.0143 16.0991 19.6417 17.5123 19.0252 18.6761C17.9562 20.6939 16.0732 22.068 15.5207 22.4711C15.4516 22.5215 15.4034 22.5568 15.38 22.5762C15.2453 22.6885 15.0754 22.75 14.8999 22.75H14.7999C14.6296 22.75 14.4644 22.6921 14.3314 22.5857C14.3105 22.5689 14.2772 22.5441 14.2335 22.5113C13.8619 22.2331 12.7333 21.3883 11.9853 20.1666C11.5583 19.4693 11.2298 18.6139 11.2374 17.6348C11.2451 16.648 11.5939 15.6071 12.4018 14.5476C13.8891 12.5643 14.6686 11.3428 15.0724 10.6303C15.2741 10.2744 15.3787 10.0513 15.4303 9.92834C15.456 9.86721 15.4677 9.83278 15.4716 9.82078C15.4715 9.82095 15.4717 9.8206 15.4716 9.82078C15.5343 9.56659 15.7257 9.362 15.9773 9.28382ZM16.4123 11.3079C16.4009 11.3282 16.3893 11.3488 16.3774 11.3698C15.9314 12.1569 15.1114 13.4347 13.5999 15.45L13.5961 15.455C12.9554 16.2946 12.7422 17.0279 12.7374 17.6465C12.7325 18.2736 12.9415 18.8558 13.2646 19.3834C13.7382 20.157 14.4024 20.7377 14.8537 21.0945C15.5744 20.5505 16.8972 19.4887 17.6997 17.9739C18.1956 17.0377 18.4668 15.9634 18.2536 14.7623C18.0747 13.7538 17.5433 12.5944 16.4123 11.3079Z" fill="black"/>
<path fill-rule="evenodd" clip-rule="evenodd" d="M11.3176 1.30397C11.739 1.21365 12.1985 1.33796 12.53 1.66949C12.5551 1.69458 12.5784 1.72143 12.5997 1.74982C13.587 3.06626 14.5497 5.32158 14.5497 7.79982C14.5497 8.79824 14.1529 9.71935 13.6493 10.552C13.2209 11.2603 12.6735 11.9688 12.1474 12.6499C12.0582 12.7654 11.9695 12.8801 11.8822 12.9939C10.6192 14.6397 9.62568 16.1158 9.74694 17.7351C9.87929 19.0843 10.458 20.0967 10.8578 20.7961L10.8759 20.8277C10.971 20.9941 11.0736 21.1743 11.1445 21.3317C11.1805 21.4116 11.2217 21.5144 11.2476 21.6277C11.2717 21.7329 11.3002 21.921 11.2336 22.1319C11.1549 22.3811 10.9771 22.559 10.7708 22.654C10.5961 22.7344 10.4264 22.7451 10.3181 22.7443C10.101 22.7429 9.85222 22.6892 9.60883 22.6251L9.59366 22.621C7.60126 22.0517 5.70849 20.3251 4.80513 18.1078C3.88435 15.8477 3.98507 13.0643 6.00458 10.4434C8.83952 6.72822 9.99718 3.62092 10.3738 2.21097C10.5007 1.71478 10.8883 1.39595 11.3176 1.30397ZM11.6875 3.069C11.1595 4.78859 9.88774 7.8276 7.19591 11.3548L7.19372 11.3577C5.5143 13.5364 5.46522 15.7524 6.19427 17.5418C6.80339 19.037 7.95201 20.2264 9.17305 20.8478C8.79633 20.1199 8.37323 19.1125 8.25319 17.8721L8.25191 17.8573C8.07669 15.5794 9.48209 13.6575 10.6922 12.0807C10.7857 11.9589 10.8782 11.839 10.9695 11.7208C11.4987 11.0352 11.9855 10.4045 12.3658 9.77575C12.809 9.04278 13.0497 8.4014 13.0497 7.79982C13.0497 5.92885 12.3986 4.19556 11.6875 3.069Z" fill="black"/>
</svg>
