<svg width="24" height="24" viewBox="0 0 24 24" fill="none" xmlns="http://www.w3.org/2000/svg">
<path fill-rule="evenodd" clip-rule="evenodd" d="M18.7002 3.7998C18.7002 2.97138 19.3718 2.2998 20.2002 2.2998H20.3002C21.1286 2.2998 21.8002 2.97138 21.8002 3.7998C21.8002 4.62823 21.1286 5.2998 20.3002 5.2998H20.2002C19.3718 5.2998 18.7002 4.62823 18.7002 3.7998Z" fill="black"/>
<path fill-rule="evenodd" clip-rule="evenodd" d="M2.2002 20.2002C2.2002 19.3718 2.87177 18.7002 3.7002 18.7002H3.8002C4.62862 18.7002 5.3002 19.3718 5.3002 20.2002C5.3002 21.0286 4.62862 21.7002 3.8002 21.7002H3.7002C2.87177 21.7002 2.2002 21.0286 2.2002 20.2002Z" fill="black"/>
<path fill-rule="evenodd" clip-rule="evenodd" d="M4.25 12C4.25 7.68579 7.68579 4.25 12 4.25C13.4583 4.25 14.7819 4.69947 15.9591 5.34158C16.3228 5.53993 16.4568 5.9955 16.2584 6.35914C16.0601 6.72278 15.6045 6.85677 15.2409 6.65842C14.2181 6.10053 13.1417 5.75 12 5.75C8.51421 5.75 5.75 8.51421 5.75 12C5.75 13.1515 6.10645 14.3289 6.65842 15.3409C6.85677 15.7045 6.72278 16.1601 6.35914 16.3584C5.9955 16.5568 5.53993 16.4228 5.34158 16.0591C4.69355 14.8711 4.25 13.4485 4.25 12Z" fill="black"/>
<path fill-rule="evenodd" clip-rule="evenodd" d="M17.6408 7.64152C18.0044 7.44318 18.46 7.57717 18.6583 7.94081C19.3064 9.12887 19.7499 10.5515 19.7499 11.9999C19.7499 16.3142 16.3141 19.7499 11.9999 19.7499C10.4833 19.7499 9.13783 19.4222 7.89724 18.6327C7.54779 18.4103 7.44477 17.9467 7.66715 17.5973C7.88953 17.2478 8.3531 17.1448 8.70256 17.3672C9.66197 17.9777 10.7165 18.2499 11.9999 18.2499C15.4857 18.2499 18.2499 15.4857 18.2499 11.9999C18.2499 10.8484 17.8934 9.67103 17.3415 8.65909C17.1431 8.29545 17.2771 7.83987 17.6408 7.64152Z" fill="black"/>
</svg>
