<svg width="24" height="24" viewBox="0 0 24 24" fill="none" xmlns="http://www.w3.org/2000/svg">
<path fill-rule="evenodd" clip-rule="evenodd" d="M10.1965 7.25001C10.493 7.24846 10.7626 7.42179 10.8843 7.69223L14.4843 15.6922C14.6543 16.07 14.4859 16.514 14.1082 16.6839C13.7304 16.8539 13.2864 16.6855 13.1164 16.3078L10.21 9.8491L7.3875 16.3006C7.22148 16.6801 6.77926 16.8531 6.39977 16.6871C6.02029 16.5211 5.84724 16.0789 6.01327 15.6994L9.51327 7.69939C9.63213 7.4277 9.89992 7.25156 10.1965 7.25001Z" fill="black"/>
<path fill-rule="evenodd" clip-rule="evenodd" d="M12.9 14.0498H7.5V12.5498H12.9V14.0498Z" fill="black"/>
<path fill-rule="evenodd" clip-rule="evenodd" d="M16.2998 9.9502C16.714 9.9502 17.0498 10.286 17.0498 10.7002V16.0002C17.0498 16.4144 16.714 16.7502 16.2998 16.7502C15.8856 16.7502 15.5498 16.4144 15.5498 16.0002V10.7002C15.5498 10.286 15.8856 9.9502 16.2998 9.9502Z" fill="black"/>
<path fill-rule="evenodd" clip-rule="evenodd" d="M4.15533 4.15533C3.2398 5.07086 2.75 6.57397 2.75 9V15C2.75 17.426 3.2398 18.9291 4.15533 19.8447C5.07086 20.7602 6.57397 21.25 9 21.25H15C17.426 21.25 18.9291 20.7602 19.8447 19.8447C20.7602 18.9291 21.25 17.426 21.25 15V9C21.25 6.57397 20.7602 5.07086 19.8447 4.15533C18.9291 3.2398 17.426 2.75 15 2.75H9C6.57397 2.75 5.07086 3.2398 4.15533 4.15533ZM3.09467 3.09467C4.42914 1.7602 6.42603 1.25 9 1.25H15C17.574 1.25 19.5709 1.7602 20.9053 3.09467C22.2398 4.42914 22.75 6.42603 22.75 9V15C22.75 17.574 22.2398 19.5709 20.9053 20.9053C19.5709 22.2398 17.574 22.75 15 22.75H9C6.42603 22.75 4.42914 22.2398 3.09467 20.9053C1.7602 19.5709 1.25 17.574 1.25 15V9C1.25 6.42603 1.7602 4.42914 3.09467 3.09467Z" fill="black"/>
<path fill-rule="evenodd" clip-rule="evenodd" d="M16.3398 9.03418C15.7876 9.03418 15.3398 8.58646 15.3398 8.03418C15.3398 7.48189 15.7876 7.03418 16.3398 7.03418C16.8921 7.03418 17.3398 7.48189 17.3398 8.03418C17.3398 8.58646 16.8921 9.03418 16.3398 9.03418Z" fill="black"/>
</svg>
