<svg width="24" height="24" viewBox="0 0 24 24" fill="none" xmlns="http://www.w3.org/2000/svg">
<path fill-rule="evenodd" clip-rule="evenodd" d="M8.78998 11.1494C9.08288 10.8565 9.55775 10.8565 9.85064 11.1494L11.8803 13.179L13.91 11.1494C14.2029 10.8565 14.6777 10.8565 14.9706 11.1494C15.2635 11.4423 15.2635 11.9171 14.9706 12.21L12.4106 14.77C12.1177 15.0629 11.6429 15.0629 11.35 14.77L8.78998 12.21C8.49709 11.9171 8.49709 11.4423 8.78998 11.1494Z" fill="black"/>
<path fill-rule="evenodd" clip-rule="evenodd" d="M11.8799 3.25C12.2941 3.25 12.6299 3.58579 12.6299 4V14.17C12.6299 14.5842 12.2941 14.92 11.8799 14.92C11.4657 14.92 11.1299 14.5842 11.1299 14.17V4C11.1299 3.58579 11.4657 3.25 11.8799 3.25Z" fill="black"/>
<path fill-rule="evenodd" clip-rule="evenodd" d="M4 11.4297C4.41421 11.4297 4.75 11.7655 4.75 12.1797C4.75 14.2203 5.44112 16.0283 6.66877 17.3207C7.89078 18.6071 9.68843 19.4297 12 19.4297C14.3116 19.4297 16.1092 18.6071 17.3312 17.3207C18.5589 16.0283 19.25 14.2203 19.25 12.1797C19.25 11.7655 19.5858 11.4297 20 11.4297C20.4142 11.4297 20.75 11.7655 20.75 12.1797C20.75 14.5591 19.9411 16.7511 18.4188 18.3537C16.8908 19.9623 14.6884 20.9297 12 20.9297C9.31157 20.9297 7.10922 19.9623 5.58123 18.3537C4.05888 16.7511 3.25 14.5591 3.25 12.1797C3.25 11.7655 3.58579 11.4297 4 11.4297Z" fill="black"/>
</svg>
