<svg width="24" height="24" viewBox="0 0 24 24" fill="none" xmlns="http://www.w3.org/2000/svg">
<path fill-rule="evenodd" clip-rule="evenodd" d="M22.5301 1.46967C22.823 1.76256 22.823 2.23744 22.5301 2.53033L14.3301 10.7303C14.0372 11.0232 13.5624 11.0232 13.2695 10.7303C12.9766 10.4374 12.9766 9.96256 13.2695 9.66967L21.4695 1.46967C21.7624 1.17678 22.2372 1.17678 22.5301 1.46967Z" fill="black"/>
<path fill-rule="evenodd" clip-rule="evenodd" d="M13 5.41992C13.4142 5.41992 13.75 5.75571 13.75 6.16992V10.2499H17.83C18.2442 10.2499 18.58 10.5857 18.58 10.9999C18.58 11.4141 18.2442 11.7499 17.83 11.7499H13C12.5858 11.7499 12.25 11.4141 12.25 10.9999V6.16992C12.25 5.75571 12.5858 5.41992 13 5.41992Z" fill="black"/>
<path fill-rule="evenodd" clip-rule="evenodd" d="M3.09467 3.09467C4.42914 1.7602 6.42603 1.25 9 1.25H11C11.4142 1.25 11.75 1.58579 11.75 2C11.75 2.41421 11.4142 2.75 11 2.75H9C6.57397 2.75 5.07086 3.2398 4.15533 4.15533C3.2398 5.07086 2.75 6.57397 2.75 9V15C2.75 17.426 3.2398 18.9291 4.15533 19.8447C5.07086 20.7602 6.57397 21.25 9 21.25H15C17.426 21.25 18.9291 20.7602 19.8447 19.8447C20.7602 18.9291 21.25 17.426 21.25 15V13C21.25 12.5858 21.5858 12.25 22 12.25C22.4142 12.25 22.75 12.5858 22.75 13V15C22.75 17.574 22.2398 19.5709 20.9053 20.9053C19.5709 22.2398 17.574 22.75 15 22.75H9C6.42603 22.75 4.42914 22.2398 3.09467 20.9053C1.7602 19.5709 1.25 17.574 1.25 15V9C1.25 6.42603 1.7602 4.42914 3.09467 3.09467Z" fill="black"/>
</svg>
