<svg width="24" height="24" viewBox="0 0 24 24" fill="none" xmlns="http://www.w3.org/2000/svg">
<path fill-rule="evenodd" clip-rule="evenodd" d="M22.5 19.5C22.6988 19.5 22.8896 19.5792 23.0303 19.7197C23.1708 19.8603 23.2499 20.0513 23.25 20.25C23.25 20.4489 23.1709 20.6406 23.0303 20.7812C22.8896 20.9217 22.6988 21 22.5 21H1.5C1.30121 21 1.11035 20.9217 0.969727 20.7812C0.829074 20.6406 0.75 20.4489 0.75 20.25C0.750125 20.0513 0.829185 19.8603 0.969727 19.7197C1.11036 19.5792 1.3012 19.5 1.5 19.5H22.5ZM12 3C12.1387 3 12.2744 3.03872 12.3926 3.11133L22.1426 9.11133C22.2819 9.19678 22.3897 9.32529 22.4492 9.47754C22.5087 9.62964 22.517 9.79694 22.4727 9.9541C22.4282 10.1113 22.3334 10.2501 22.2031 10.3486C22.0727 10.4472 21.9135 10.5002 21.75 10.5H19.5V16.5H21C21.1988 16.5 21.3896 16.5792 21.5303 16.7197C21.6708 16.8603 21.7499 17.0513 21.75 17.25C21.75 17.4489 21.6709 17.6406 21.5303 17.7812C21.3896 17.9217 21.1988 18 21 18H3C2.80121 18 2.61035 17.9217 2.46973 17.7812C2.32907 17.6406 2.25 17.4489 2.25 17.25C2.25012 17.0513 2.32919 16.8603 2.46973 16.7197C2.61036 16.5792 2.8012 16.5 3 16.5H4.5V10.5H2.25C2.08674 10.5001 1.92812 10.447 1.79785 10.3486C1.66763 10.2502 1.57286 10.1121 1.52832 9.95508C1.48371 9.79779 1.49138 9.62985 1.55078 9.47754C1.61019 9.32526 1.71813 9.19687 1.85742 9.11133L11.6074 3.11133C11.7256 3.03872 11.8613 3 12 3ZM9.75 10.5C9.5512 10.5 9.36036 10.5792 9.21973 10.7197C9.07919 10.8603 9.00012 11.0513 9 11.25V15.75C9 15.9489 9.07907 16.1406 9.21973 16.2812C9.36035 16.4217 9.55121 16.5 9.75 16.5C9.94879 16.5 10.1396 16.4217 10.2803 16.2812C10.4209 16.1406 10.5 15.9489 10.5 15.75V11.25C10.4999 11.0513 10.4208 10.8603 10.2803 10.7197C10.1396 10.5792 9.9488 10.5 9.75 10.5ZM14.25 10.5C14.0512 10.5 13.8604 10.5792 13.7197 10.7197C13.5792 10.8603 13.5001 11.0513 13.5 11.25V15.75C13.5 15.9489 13.5791 16.1406 13.7197 16.2812C13.8604 16.4217 14.0512 16.5 14.25 16.5C14.4488 16.5 14.6396 16.4217 14.7803 16.2812C14.9209 16.1406 15 15.9489 15 15.75V11.25C14.9999 11.0513 14.9208 10.8603 14.7803 10.7197C14.6396 10.5792 14.4488 10.5 14.25 10.5Z" fill="black"/>
</svg>
