<svg width="24" height="24" viewBox="0 0 24 24" fill="none" xmlns="http://www.w3.org/2000/svg">
<path fill-rule="evenodd" clip-rule="evenodd" d="M12 1.25C6.08579 1.25 1.25 6.08579 1.25 12C1.25 17.9142 6.08579 22.75 12 22.75C17.9142 22.75 22.75 17.9142 22.75 12C22.75 6.08579 17.9142 1.25 12 1.25ZM12.0031 9.25C12.5554 9.25 13.0031 8.80228 13.0031 8.25C13.0031 7.69772 12.5554 7.25 12.0031 7.25H11.9941C11.4419 7.25 10.9941 7.69772 10.9941 8.25C10.9941 8.80228 11.4419 9.25 11.9941 9.25H12.0031ZM11.2473 16.25C11.2473 16.6642 11.5831 17 11.9973 17C12.4115 17 12.7473 16.6642 12.7473 16.25L12.7473 11.25C12.7473 10.8358 12.4115 10.5 11.9973 10.5C11.583 10.5 11.2473 10.8358 11.2473 11.25L11.2473 16.25Z" fill="black"/>
</svg>
