<svg width="24" height="24" viewBox="0 0 24 24" fill="none" xmlns="http://www.w3.org/2000/svg">
<path fill-rule="evenodd" clip-rule="evenodd" d="M11.2351 3.02225L9.64006 4.38653C9.40546 4.58202 9.10777 4.73433 8.82648 4.83789C8.54557 4.9413 8.2151 5.02031 7.89988 5.02031H6.16988C5.5241 5.02031 4.98988 5.55453 4.98988 6.20031V7.89031C4.98988 8.19713 4.91491 8.52294 4.8145 8.80255C4.71421 9.08182 4.56429 9.38257 4.36605 9.62045L4.36163 9.62576L3.014 11.2129L3.01296 11.2141C2.66886 11.6249 2.66886 12.3357 3.01295 12.7465L3.014 12.7477L4.36 14.333C4.56486 14.5715 4.7157 14.8777 4.81494 15.1556C4.91529 15.4366 4.98988 15.7644 4.98988 16.0703V17.7803C4.98988 18.4261 5.5241 18.9603 6.16988 18.9603H7.91988C8.23108 18.9603 8.56162 19.0398 8.84149 19.1423C9.12191 19.2449 9.42353 19.3971 9.66002 19.5941L9.66712 19.6001L11.2471 20.9501L11.2514 20.9538C11.6449 21.2952 12.3598 21.3049 12.7849 20.9482L12.7865 20.9468L14.3697 19.5941C14.6043 19.3986 14.902 19.2463 15.1833 19.1427C15.4642 19.0393 15.7947 18.9603 16.1099 18.9603H17.8099C18.4557 18.9603 18.9899 18.4261 18.9899 17.7803V16.0803C18.9899 15.7651 19.0689 15.4346 19.1723 15.1537C19.2759 14.8724 19.4282 14.5748 19.6237 14.3402L19.6296 14.3331L20.9797 12.7531L20.9834 12.7488C21.3248 12.3553 21.3345 11.6404 20.9778 11.2153L20.9764 11.2137L19.6237 9.63049C19.4282 9.39589 19.2759 9.0982 19.1723 8.81691C19.0689 8.536 18.9899 8.20553 18.9899 7.89031V6.19031C18.9899 5.54453 18.4557 5.01031 17.8099 5.01031H16.1099C15.7955 5.01031 15.4633 4.93166 15.1808 4.8288C14.8984 4.72597 14.5964 4.57372 14.3597 4.37648L14.3526 4.37056L12.7684 3.01682C12.3749 2.67546 11.6601 2.66571 11.2351 3.02225ZM13.749 1.88177C12.7829 1.04568 11.2409 1.05562 10.2665 1.87684L8.67693 3.23647C8.61059 3.29084 8.47953 3.3672 8.30828 3.43024C8.1342 3.49432 7.98467 3.52031 7.89988 3.52031H6.16988C4.69567 3.52031 3.48988 4.7261 3.48988 6.20031V7.89031C3.48988 7.9735 3.46485 8.12269 3.40277 8.29558C3.34121 8.467 3.26705 8.59535 3.21535 8.65821L1.86816 10.2449L1.86577 10.2477C1.05125 11.2167 1.05125 12.7439 1.86577 13.7129L3.21816 15.3057L3.22183 15.31C3.26592 15.3612 3.3394 15.4839 3.40233 15.6601C3.46447 15.8341 3.48988 15.9863 3.48988 16.0703V17.7803C3.48988 19.2545 4.69567 20.4603 6.16988 20.4603H7.91988C7.99868 20.4603 8.14815 20.4858 8.32578 20.5508C8.50044 20.6148 8.63259 20.6914 8.69711 20.7443L10.2684 22.0868L10.2707 22.0888C11.2368 22.9249 12.7789 22.915 13.7532 22.0938L15.3327 20.7442C15.399 20.6899 15.5301 20.6135 15.7015 20.5504C15.8756 20.4863 16.0251 20.4603 16.1099 20.4603H17.8099C19.2841 20.4603 20.4899 19.2545 20.4899 17.7803V16.0803C20.4899 15.9955 20.5159 15.846 20.58 15.6719C20.643 15.5005 20.7195 15.3694 20.7738 15.3031L22.1164 13.7318L22.1183 13.7296C22.9545 12.7634 22.9446 11.2213 22.1234 10.247L20.7738 8.66751C20.7195 8.60121 20.643 8.47009 20.58 8.29871C20.5159 8.12463 20.4899 7.9751 20.4899 7.89031V6.19031C20.4899 4.7161 19.2841 3.51031 17.8099 3.51031H16.1099C16.0243 3.51031 15.8715 3.48397 15.694 3.41933C15.5189 3.35555 15.387 3.27906 15.3227 3.22636L13.749 1.88177Z" fill="black"/>
<path fill-rule="evenodd" clip-rule="evenodd" d="M12 7.37988C12.4142 7.37988 12.75 7.71567 12.75 8.12988V12.9599C12.75 13.3741 12.4142 13.7099 12 13.7099C11.5858 13.7099 11.25 13.3741 11.25 12.9599V8.12988C11.25 7.71567 11.5858 7.37988 12 7.37988Z" fill="black"/>
<path fill-rule="evenodd" clip-rule="evenodd" d="M10.9941 16C10.9941 15.4477 11.4419 15 11.9941 15H12.0031C12.5554 15 13.0031 15.4477 13.0031 16C13.0031 16.5523 12.5554 17 12.0031 17H11.9941C11.4419 17 10.9941 16.5523 10.9941 16Z" fill="black"/>
</svg>
