<svg width="24" height="24" viewBox="0 0 24 24" fill="none" xmlns="http://www.w3.org/2000/svg">
<path fill-rule="evenodd" clip-rule="evenodd" d="M11.9973 17C11.583 17 11.2473 16.6642 11.2473 16.25L11.2473 11.25C11.2473 10.8358 11.583 10.5 11.9973 10.5C12.4115 10.5 12.7473 10.8358 12.7473 11.25L12.7473 16.25C12.7473 16.6642 12.4115 17 11.9973 17Z" fill="black"/>
<path fill-rule="evenodd" clip-rule="evenodd" d="M13.0031 8.25C13.0031 8.80228 12.5554 9.25 12.0031 9.25H11.9941C11.4419 9.25 10.9941 8.80228 10.9941 8.25C10.9941 7.69772 11.4419 7.25 11.9941 7.25H12.0031C12.5554 7.25 13.0031 7.69772 13.0031 8.25Z" fill="black"/>
<path fill-rule="evenodd" clip-rule="evenodd" d="M1.25 12C1.25 6.08579 6.08579 1.25 12 1.25C17.9142 1.25 22.75 6.08579 22.75 12C22.75 17.9142 17.9142 22.75 12 22.75C6.08579 22.75 1.25 17.9142 1.25 12ZM12 2.75C6.91421 2.75 2.75 6.91421 2.75 12C2.75 17.0858 6.91421 21.25 12 21.25C17.0858 21.25 21.25 17.0858 21.25 12C21.25 6.91421 17.0858 2.75 12 2.75Z" fill="black"/>
</svg>
