<svg width="24" height="24" viewBox="0 0 24 24" fill="none" xmlns="http://www.w3.org/2000/svg">
<path fill-rule="evenodd" clip-rule="evenodd" d="M13.3959 1.96251L19.8594 5.74118C20.7255 6.187 21.25 7.15503 21.25 8.09981V15.7998C21.25 16.8101 20.6697 17.6214 19.916 18.1238C19.9038 18.132 19.8913 18.1398 19.8785 18.1473L13.3959 21.9371C12.5531 22.4874 11.4469 22.4874 10.6041 21.9371L4.14056 18.1584C3.27453 17.7126 2.75 16.7446 2.75 15.7998V8.09981C2.75 7.0895 3.33028 6.27823 4.08397 5.77577C4.09624 5.76759 4.10875 5.75977 4.12148 5.75233L10.6041 1.96251C11.4469 1.41224 12.5531 1.41224 13.3959 1.96251ZM12.584 3.22384C12.2359 2.99179 11.7641 2.99179 11.416 3.22384C11.4038 3.23202 11.3913 3.23984 11.3785 3.24728L4.89906 7.03527C4.46415 7.33129 4.25 7.71508 4.25 8.09981V15.7998C4.25 16.2463 4.51575 16.6692 4.83541 16.829C4.85003 16.8363 4.86441 16.8441 4.87852 16.8523L11.3785 20.6523C11.3913 20.6598 11.4038 20.6676 11.416 20.6758C11.7641 20.9078 12.2359 20.9078 12.584 20.6758C12.5962 20.6676 12.6087 20.6598 12.6215 20.6523L19.1009 16.8643C19.5358 16.5683 19.75 16.1845 19.75 15.7998V8.09981C19.75 7.65329 19.4842 7.23045 19.1646 7.07063C19.15 7.06331 19.1356 7.05553 19.1215 7.04728L12.6215 3.24728C12.6087 3.23984 12.5962 3.23202 12.584 3.22384Z" fill="black"/>
<path fill-rule="evenodd" clip-rule="evenodd" d="M11.6142 5.35688C11.8518 5.21437 12.1485 5.21437 12.386 5.35688L17.386 8.35688C17.7412 8.56999 17.8563 9.03069 17.6432 9.38587C17.4301 9.74106 16.9694 9.85623 16.6142 9.64312L12.0001 6.87464L8.45785 9L17.386 14.3569C17.6119 14.4924 17.7501 14.7366 17.7501 15C17.7501 15.2634 17.6119 15.5076 17.386 15.6431L12.386 18.6431C12.1485 18.7856 11.8518 18.7856 11.6142 18.6431L6.61424 15.6431C6.25906 15.43 6.14388 14.9693 6.35699 14.6141C6.5701 14.2589 7.0308 14.1438 7.38599 14.3569L12.0001 17.1254L15.5424 15L6.61424 9.64312C6.38834 9.50758 6.25011 9.26345 6.25011 9C6.25011 8.73655 6.38834 8.49242 6.61424 8.35688L11.6142 5.35688Z" fill="black"/>
<path fill-rule="evenodd" clip-rule="evenodd" d="M12.0303 9.46967C12.3232 9.76256 12.3232 10.2374 12.0303 10.5303L10.0303 12.5303C9.73744 12.8232 9.26256 12.8232 8.96967 12.5303C8.67678 12.2374 8.67678 11.7626 8.96967 11.4697L10.9697 9.46967C11.2626 9.17678 11.7374 9.17678 12.0303 9.46967Z" fill="black"/>
<path fill-rule="evenodd" clip-rule="evenodd" d="M15.0303 11.4697C15.3232 11.7626 15.3232 12.2374 15.0303 12.5303L13.0303 14.5303C12.7374 14.8232 12.2626 14.8232 11.9697 14.5303C11.6768 14.2374 11.6768 13.7626 11.9697 13.4697L13.9697 11.4697C14.2626 11.1768 14.7374 11.1768 15.0303 11.4697Z" fill="black"/>
</svg>
