<svg width="24" height="24" viewBox="0 0 24 24" fill="none" xmlns="http://www.w3.org/2000/svg">
<path fill-rule="evenodd" clip-rule="evenodd" d="M12.084 2.92443C12.0359 2.89238 11.9641 2.89238 11.916 2.92443C11.8983 2.93624 11.8801 2.94729 11.8614 2.95755L3.89481 7.3392C3.83766 7.38079 3.80444 7.42054 3.78533 7.45329C3.76595 7.48652 3.75 7.53076 3.75 7.60039V16.4004C3.75 16.4522 3.75872 16.4834 3.76475 16.4987C3.79977 16.5119 3.83377 16.5277 3.86645 16.546L6.37212 17.9492C7.26358 18.4586 8.25 17.8344 8.25 16.9004V9.00039C8.25 8.58618 8.58579 8.25039 9 8.25039C9.41421 8.25039 9.75 8.58618 9.75 9.00039V16.9004C9.75 18.9653 7.53873 20.3407 5.63086 19.2533L5.6279 19.2516L3.18471 17.8834C2.56522 17.6376 2.25 17.0235 2.25 16.4004V7.60039C2.25 6.90946 2.61112 6.39159 3.08397 6.07635C3.10169 6.06454 3.1199 6.05349 3.13856 6.04323L11.1148 1.65628C11.6525 1.31509 12.3475 1.31509 12.8852 1.65628L20.8614 6.04323C20.8801 6.05349 20.8983 6.06454 20.916 6.07635C21.3889 6.39159 21.75 6.90946 21.75 7.60039V16.4004C21.75 17.0913 21.3889 17.6092 20.916 17.9244C20.8983 17.9362 20.8801 17.9473 20.8614 17.9576L12.8852 22.3445C12.3556 22.6806 11.6733 22.6856 11.1392 22.3597L9.68284 21.68C9.30748 21.5049 9.1452 21.0586 9.32036 20.6832C9.49553 20.3079 9.94181 20.1456 10.3172 20.3208L11.8172 21.0208C11.8515 21.0368 11.8845 21.0554 11.916 21.0764C11.9641 21.1084 12.0359 21.1084 12.084 21.0764C12.1017 21.0645 12.1199 21.0535 12.1386 21.0432L20.1052 16.6616C20.1623 16.62 20.1956 16.5802 20.2147 16.5475C20.234 16.5143 20.25 16.47 20.25 16.4004V7.60039C20.25 7.53076 20.234 7.48652 20.2147 7.45329C20.1956 7.42054 20.1623 7.38078 20.1052 7.3392L12.1386 2.95755C12.1199 2.94729 12.1017 2.93624 12.084 2.92443Z" fill="black"/>
<path fill-rule="evenodd" clip-rule="evenodd" d="M11.0498 10.7C11.0498 9.41494 12.057 8.25 13.4998 8.25H15.2998C16.6415 8.25 17.7498 9.41378 17.7498 10.8C17.7498 11.2142 17.414 11.55 16.9998 11.55C16.5856 11.55 16.2498 11.2142 16.2498 10.8C16.2498 10.1862 15.7581 9.75 15.2998 9.75H13.4998C12.9426 9.75 12.5498 10.1851 12.5498 10.7C12.5498 11.2572 12.9849 11.65 13.4998 11.65H15.2998C16.7426 11.65 17.7498 12.8149 17.7498 14.1C17.7498 15.5428 16.5849 16.55 15.2998 16.55H13.4998C12.057 16.55 11.0498 15.3851 11.0498 14.1C11.0498 13.6858 11.3856 13.35 11.7998 13.35C12.214 13.35 12.5498 13.6858 12.5498 14.1C12.5498 14.6149 12.9426 15.05 13.4998 15.05H15.2998C15.8147 15.05 16.2498 14.6572 16.2498 14.1C16.2498 13.5851 15.857 13.15 15.2998 13.15H13.4998C12.2147 13.15 11.0498 12.1428 11.0498 10.7Z" fill="black"/>
</svg>
