<svg width="24" height="24" viewBox="0 0 24 24" fill="none" xmlns="http://www.w3.org/2000/svg">
<path fill-rule="evenodd" clip-rule="evenodd" d="M14.5302 13.0292C14.8231 12.7363 15.298 12.7363 15.5909 13.0292L20.5409 17.9793C20.8338 18.2721 20.8338 18.747 20.5409 19.0399C20.248 19.3328 19.7731 19.3328 19.4802 19.0399L14.5302 14.0899C14.2373 13.797 14.2373 13.3221 14.5302 13.0292Z" fill="black"/>
<path fill-rule="evenodd" clip-rule="evenodd" d="M13.8199 3.49033C13.3328 3.00322 12.5377 3.00322 12.0506 3.49033L4.98056 10.5603C4.49346 11.0474 4.49346 11.8426 4.98056 12.3297L9.22057 16.5697C9.70768 17.0568 10.5028 17.0568 10.9899 16.5697L18.0599 9.49968C18.547 9.01257 18.547 8.21746 18.0599 7.73035L13.8199 3.49033ZM10.9899 2.42967C12.0628 1.35678 13.8077 1.35678 14.8806 2.42967L19.1206 6.66969C20.1935 7.74258 20.1935 9.48744 19.1206 10.5603L12.0506 17.6303C10.9777 18.7032 9.2328 18.7032 8.15991 17.6303L3.9199 13.3903C2.84701 12.3174 2.84701 10.5726 3.9199 9.49968L10.9899 2.42967Z" fill="black"/>
<path fill-rule="evenodd" clip-rule="evenodd" d="M1.25 21C1.25 20.5858 1.58579 20.25 2 20.25H8C8.41421 20.25 8.75 20.5858 8.75 21C8.75 21.4142 8.41421 21.75 8 21.75H2C1.58579 21.75 1.25 21.4142 1.25 21Z" fill="black"/>
<path fill-rule="evenodd" clip-rule="evenodd" d="M6.03022 7.38959C6.32311 7.0967 6.79798 7.0967 7.09088 7.38959L14.1609 14.4596C14.4538 14.7525 14.4538 15.2273 14.1609 15.5202C13.868 15.8131 13.3931 15.8131 13.1002 15.5202L6.03022 8.45025C5.73732 8.15736 5.73732 7.68249 6.03022 7.38959Z" fill="black"/>
</svg>
