<svg width="24" height="24" viewBox="0 0 24 24" fill="none" xmlns="http://www.w3.org/2000/svg">
<path fill-rule="evenodd" clip-rule="evenodd" d="M3.09467 3.09467C4.42914 1.7602 6.42603 1.25 9 1.25H15C17.574 1.25 19.5709 1.7602 20.9053 3.09467C22.2398 4.42914 22.75 6.42603 22.75 9V15C22.75 17.574 22.2398 19.5709 20.9053 20.9053C19.5709 22.2398 17.574 22.75 15 22.75H9C6.42603 22.75 4.42914 22.2398 3.09467 20.9053C1.7602 19.5709 1.25 17.574 1.25 15V9C1.25 6.42603 1.7602 4.42914 3.09467 3.09467ZM4.15533 4.15533C3.2398 5.07086 2.75 6.57397 2.75 9V15C2.75 17.426 3.2398 18.9291 4.15533 19.8447C5.07086 20.7602 6.57397 21.25 9 21.25H15C17.426 21.25 18.9291 20.7602 19.8447 19.8447C20.7602 18.9291 21.25 17.426 21.25 15V9C21.25 6.57397 20.7602 5.07086 19.8447 4.15533C18.9291 3.2398 17.426 2.75 15 2.75H9C6.57397 2.75 5.07086 3.2398 4.15533 4.15533Z" fill="black"/>
<path fill-rule="evenodd" clip-rule="evenodd" d="M15.7515 8.26161C14.4131 6.93143 12.2467 6.93377 10.9205 8.25998C9.99638 9.18414 9.71476 10.5117 10.077 11.6891C10.1587 11.9546 10.087 12.2435 9.89054 12.44L7.32503 15.0055C7.32255 15.0089 7.31717 15.0166 7.30993 15.0294C7.29741 15.0517 7.28437 15.0804 7.27362 15.1124C7.26282 15.1445 7.25683 15.1725 7.2543 15.1925C7.25348 15.1991 7.25315 15.2036 7.25302 15.2063L7.25363 15.2105L7.41203 16.3985C7.41608 16.4176 7.43556 16.4685 7.48748 16.5213C7.53984 16.5745 7.58029 16.5847 7.58309 16.5854L7.58934 16.5862L8.79743 16.7473C8.79979 16.7474 8.80796 16.7475 8.82207 16.7459C8.84423 16.7433 8.87163 16.7376 8.90038 16.7282C8.92928 16.7187 8.95219 16.7079 8.9671 16.6993C8.97038 16.6974 8.97286 16.6958 8.9746 16.6946C8.97669 16.6925 8.97879 16.6904 8.98091 16.6883L11.5709 14.1083C11.7686 13.9114 12.0592 13.8405 12.3253 13.9242C13.4958 14.2926 14.8222 14.0064 15.749 13.0802C17.0793 11.7408 17.0744 9.57629 15.7515 8.26161ZM16.8089 7.19769C14.8873 5.28787 11.7737 5.28553 9.85988 7.19932C8.6416 8.4176 8.20304 10.1155 8.52799 11.6812L6.24988 13.9593L6.23574 13.9738C6.05212 14.1677 5.92666 14.4117 5.8518 14.6344C5.77854 14.8524 5.7261 15.1321 5.76758 15.4147L5.92679 16.6088L5.92893 16.6237C5.98643 16.9974 6.17779 17.3288 6.41794 17.573C6.65752 17.8166 6.99453 18.0226 7.39366 18.0734L8.5867 18.2325C8.86209 18.272 9.13946 18.2283 9.36753 18.1536C9.59138 18.0802 9.84638 17.9511 10.0456 17.7449L12.3259 15.4735C13.8966 15.8067 15.5948 15.3558 16.8105 14.14L16.8122 14.1383C18.7211 12.2177 18.7258 9.10275 16.8089 7.19769Z" fill="black"/>
<path fill-rule="evenodd" clip-rule="evenodd" d="M9.07239 14.8865C9.36699 14.5953 9.84186 14.5981 10.133 14.8927L10.983 15.7527C11.2742 16.0473 11.2714 16.5222 10.9768 16.8133C10.6822 17.1045 10.2074 17.1017 9.91619 16.8071L9.06619 15.9471C8.77501 15.6525 8.77779 15.1777 9.07239 14.8865Z" fill="black"/>
<path fill-rule="evenodd" clip-rule="evenodd" d="M12.3945 10.7002C12.3945 10.1479 12.8422 9.7002 13.3945 9.7002H13.4035C13.9558 9.7002 14.4035 10.1479 14.4035 10.7002C14.4035 11.2525 13.9558 11.7002 13.4035 11.7002H13.3945C12.8422 11.7002 12.3945 11.2525 12.3945 10.7002Z" fill="black"/>
</svg>
