<svg width="24" height="24" viewBox="0 0 24 24" fill="none" xmlns="http://www.w3.org/2000/svg">
<path fill-rule="evenodd" clip-rule="evenodd" d="M19.2502 4.75154C16.5824 2.09274 12.2666 2.09403 9.61 4.75064L9.60871 4.75193C7.75592 6.59573 7.19424 9.25238 7.9165 11.5997C7.9982 11.8653 7.92644 12.1542 7.73 12.3506L3.03501 17.0456C2.96934 17.1147 2.88035 17.2575 2.81618 17.45C2.7509 17.6458 2.73858 17.8113 2.75182 17.9021L2.75269 17.9081L3.05176 20.0815C3.07986 20.2574 3.18508 20.4655 3.36247 20.6437C3.54121 20.8233 3.74448 20.9238 3.91192 20.9473L6.0979 21.2481C6.19719 21.2626 6.36627 21.2508 6.55595 21.1893C6.74696 21.1274 6.88054 21.0407 6.94171 20.9777L6.94984 20.9694L11.6599 16.2694C11.8572 16.0725 12.1475 16.0013 12.4135 16.0845C14.7456 16.8138 17.4032 16.2465 19.2599 14.3995C21.9163 11.7425 21.9161 7.40842 19.2502 4.75154ZM8.54998 3.68934C11.7934 0.446595 17.0571 0.448098 20.3091 3.68909C23.563 6.93203 23.563 12.2176 20.32 15.4606L20.3187 15.4619C18.172 17.5982 15.1448 18.3312 12.4088 17.6412L8.01301 22.0276C7.73471 22.3121 7.36545 22.5038 7.01839 22.6163C6.66915 22.7295 6.26463 22.7876 5.88493 22.733L5.88144 22.7325L3.70742 22.4333C3.15503 22.3566 2.66279 22.067 2.29937 21.7019C1.93576 21.3366 1.65126 20.8468 1.56827 20.3036L1.56659 20.2926L1.26752 18.1185L1.26703 18.1152C1.21115 17.727 1.27876 17.3188 1.39316 16.9756C1.50806 16.6309 1.69741 16.27 1.96148 15.998L1.96928 15.9899L6.36011 11.5992C5.6789 8.85854 6.39952 5.82983 8.54998 3.68934Z" fill="black"/>
<path fill-rule="evenodd" clip-rule="evenodd" d="M6.35932 16.9599C6.65221 16.667 7.12709 16.667 7.41998 16.9599L9.71998 19.2599C10.0129 19.5528 10.0129 20.0277 9.71998 20.3206C9.42708 20.6135 8.95221 20.6135 8.65932 20.3206L6.35932 18.0206C6.06643 17.7277 6.06642 17.2528 6.35932 16.9599Z" fill="black"/>
<path fill-rule="evenodd" clip-rule="evenodd" d="M14.5 8.75C14.0858 8.75 13.75 9.08579 13.75 9.5C13.75 9.91421 14.0858 10.25 14.5 10.25C14.9142 10.25 15.25 9.91421 15.25 9.5C15.25 9.08579 14.9142 8.75 14.5 8.75ZM12.25 9.5C12.25 8.25736 13.2574 7.25 14.5 7.25C15.7426 7.25 16.75 8.25736 16.75 9.5C16.75 10.7426 15.7426 11.75 14.5 11.75C13.2574 11.75 12.25 10.7426 12.25 9.5Z" fill="black"/>
</svg>
