<svg width="24" height="24" viewBox="0 0 24 24" fill="none" xmlns="http://www.w3.org/2000/svg">
<path fill-rule="evenodd" clip-rule="evenodd" d="M7.5 4.75C6.89105 4.75 6.38302 4.77004 5.94607 4.83246C5.93813 4.8336 5.93017 4.8346 5.9222 4.83548C4.70657 4.96953 4.13894 5.29944 3.81013 5.79874C3.43687 6.36555 3.25 7.31741 3.25 9V15C3.25 16.6826 3.43687 17.6345 3.81013 18.2013C4.13894 18.7006 4.70657 19.0305 5.9222 19.1645C5.93017 19.1654 5.93813 19.1664 5.94607 19.1675C6.38302 19.23 6.89105 19.25 7.5 19.25H16.5C17.109 19.25 17.617 19.23 18.0539 19.1675C18.0619 19.1664 18.0698 19.1654 18.0778 19.1645C19.2934 19.0305 19.8611 18.7006 20.1899 18.2013C20.5631 17.6345 20.75 16.6826 20.75 15V9C20.75 7.31741 20.5631 6.36555 20.1899 5.79874C19.8611 5.29944 19.2934 4.96953 18.0778 4.83548C18.0698 4.8346 18.0619 4.8336 18.0539 4.83246C17.617 4.77004 17.109 4.75 16.5 4.75H7.5ZM5.74594 3.34583C6.2857 3.26967 6.8736 3.25 7.5 3.25H16.5C17.1264 3.25 17.7143 3.26967 18.2541 3.34583C19.6627 3.50291 20.7609 3.93847 21.4426 4.97376C22.0819 5.94445 22.25 7.30259 22.25 9V15C22.25 16.6974 22.0819 18.0555 21.4426 19.0262C20.7609 20.0615 19.6627 20.4971 18.2541 20.6542C17.7143 20.7303 17.1264 20.75 16.5 20.75H7.5C6.8736 20.75 6.28569 20.7303 5.74593 20.6542C4.33727 20.4971 3.23915 20.0615 2.55737 19.0262C1.91813 18.0555 1.75 16.6974 1.75 15V9C1.75 7.30259 1.91813 5.94445 2.55737 4.97376C3.23915 3.93847 4.33727 3.50291 5.74594 3.34583Z" fill="black"/>
<path fill-rule="evenodd" clip-rule="evenodd" d="M12.75 10C12.75 9.58579 13.0858 9.25 13.5 9.25H17C17.4142 9.25 17.75 9.58579 17.75 10C17.75 10.4142 17.4142 10.75 17 10.75H13.5C13.0858 10.75 12.75 10.4142 12.75 10Z" fill="black"/>
<path fill-rule="evenodd" clip-rule="evenodd" d="M6.25 15.5C6.25 15.0858 6.58579 14.75 7 14.75H17C17.4142 14.75 17.75 15.0858 17.75 15.5C17.75 15.9142 17.4142 16.25 17 16.25H7C6.58579 16.25 6.25 15.9142 6.25 15.5Z" fill="black"/>
<path fill-rule="evenodd" clip-rule="evenodd" d="M9.09473 10C9.09473 9.44772 9.54244 9 10.0947 9H10.1037C10.656 9 11.1037 9.44772 11.1037 10C11.1037 10.5523 10.656 11 10.1037 11H10.0947C9.54244 11 9.09473 10.5523 9.09473 10Z" fill="black"/>
<path fill-rule="evenodd" clip-rule="evenodd" d="M6.09473 10C6.09473 9.44772 6.54244 9 7.09473 9H7.10371C7.65599 9 8.10371 9.44772 8.10371 10C8.10371 10.5523 7.65599 11 7.10371 11H7.09473C6.54244 11 6.09473 10.5523 6.09473 10Z" fill="black"/>
</svg>
