<svg width="24" height="24" viewBox="0 0 24 24" fill="none" xmlns="http://www.w3.org/2000/svg">
<path fill-rule="evenodd" clip-rule="evenodd" d="M7.26022 2.75C6.62103 2.75 6.08042 2.77003 5.61028 2.83332L5.59364 2.83537C4.30687 2.97938 3.69376 3.3295 3.33744 3.86939C2.93707 4.47604 2.74023 5.48763 2.74023 7.26001V13.58C2.74023 15.3524 2.93707 16.364 3.33744 16.9706C3.69376 17.5105 4.30687 17.8606 5.59364 18.0047L5.61028 18.0067C6.08042 18.07 6.62103 18.09 7.26022 18.09H16.7302C17.3792 18.09 17.9099 18.07 18.3802 18.0067L18.3968 18.0047C19.6836 17.8606 20.2967 17.5105 20.653 16.9706C21.0534 16.364 21.2502 15.3524 21.2502 13.58V7.26001C21.2502 5.48763 21.0534 4.47604 20.653 3.86939C20.2967 3.3295 19.6836 2.97938 18.3968 2.83537L18.3802 2.83332C17.91 2.77003 17.3694 2.75 16.7302 2.75H7.26022ZM5.41853 1.34561C5.98608 1.26982 6.60264 1.25 7.26022 1.25H16.7302C17.3878 1.25 18.0044 1.26982 18.5719 1.34561C20.0511 1.51237 21.1951 1.96756 21.9049 3.04315C22.5721 4.05399 22.7502 5.47239 22.7502 7.26001V13.58C22.7502 15.3676 22.5721 16.786 21.9049 17.7969C21.1951 18.8725 20.0512 19.3276 18.572 19.4944C18.0046 19.5702 17.398 19.59 16.7302 19.59H7.26022C6.60262 19.59 5.98605 19.5702 5.41848 19.4944C3.93928 19.3276 2.79536 18.8725 2.08551 17.7969C1.41839 16.786 1.24023 15.3676 1.24023 13.58V7.26001C1.24023 5.47239 1.41839 4.05399 2.08551 3.04315C2.79537 1.96755 3.93931 1.51237 5.41853 1.34561Z" fill="black"/>
<path fill-rule="evenodd" clip-rule="evenodd" d="M12.8301 8.32031C12.8301 7.9061 13.1659 7.57031 13.5801 7.57031H17.2601C17.6743 7.57031 18.0101 7.9061 18.0101 8.32031C18.0101 8.73453 17.6743 9.07031 17.2601 9.07031H13.5801C13.1659 9.07031 12.8301 8.73453 12.8301 8.32031Z" fill="black"/>
<path fill-rule="evenodd" clip-rule="evenodd" d="M5.99023 14.1104C5.99023 13.6961 6.32602 13.3604 6.74023 13.3604H17.2702C17.6844 13.3604 18.0202 13.6961 18.0202 14.1104C18.0202 14.5246 17.6844 14.8604 17.2702 14.8604H6.74023C6.32602 14.8604 5.99023 14.5246 5.99023 14.1104Z" fill="black"/>
<path fill-rule="evenodd" clip-rule="evenodd" d="M6.25 22C6.25 21.5858 6.58579 21.25 7 21.25H17C17.4142 21.25 17.75 21.5858 17.75 22C17.75 22.4142 17.4142 22.75 17 22.75H7C6.58579 22.75 6.25 22.4142 6.25 22Z" fill="black"/>
<path fill-rule="evenodd" clip-rule="evenodd" d="M6.19434 8.2998C6.19434 7.74752 6.64205 7.2998 7.19434 7.2998H7.20332C7.7556 7.2998 8.20332 7.74752 8.20332 8.2998C8.20332 8.85209 7.7556 9.2998 7.20332 9.2998H7.19434C6.64205 9.2998 6.19434 8.85209 6.19434 8.2998Z" fill="black"/>
<path fill-rule="evenodd" clip-rule="evenodd" d="M9.49414 8.2998C9.49414 7.74752 9.94186 7.2998 10.4941 7.2998H10.5031C11.0554 7.2998 11.5031 7.74752 11.5031 8.2998C11.5031 8.85209 11.0554 9.2998 10.5031 9.2998H10.4941C9.94186 9.2998 9.49414 8.85209 9.49414 8.2998Z" fill="black"/>
</svg>
