<svg width="24" height="24" viewBox="0 0 24 24" fill="none" xmlns="http://www.w3.org/2000/svg">
<path fill-rule="evenodd" clip-rule="evenodd" d="M13.3192 1.97593L18.2582 4.84053C19.125 5.28607 19.65 6.25457 19.65 7.19981V15.9998C19.65 16.8447 19.2327 17.6541 18.5685 18.1855C18.5586 18.1934 18.5485 18.2011 18.5382 18.2085L13.5382 21.8085L13.5359 21.8101C12.5752 22.4964 11.3248 22.4964 10.3641 21.8101L10.3618 21.8085L5.38408 18.2245C4.99079 17.9786 4.71338 17.607 4.5359 17.2359C4.35242 16.8523 4.25 16.4171 4.25 15.9998V7.09981C4.25 6.0895 4.83028 5.27824 5.58397 4.77577C5.6001 4.76502 5.61664 4.7549 5.63355 4.74543L10.6105 1.95834C11.4174 1.43539 12.534 1.38622 13.3192 1.97593ZM12.4315 3.18546C12.2272 3.02205 11.7903 2.97434 11.416 3.22385C11.3999 3.2346 11.3834 3.24472 11.3665 3.25419L6.39374 6.03891C5.96241 6.33444 5.75 6.71666 5.75 7.09981V15.9998C5.75 16.1825 5.79758 16.3974 5.8891 16.5887C5.98213 16.7832 6.09512 16.9022 6.18587 16.9567C6.2038 16.9674 6.22126 16.9789 6.23823 16.9912L11.2359 20.5895L11.2369 20.5902C11.6756 20.903 12.2244 20.903 12.6631 20.5902L12.6641 20.5895L17.6447 17.0034C17.9721 16.7352 18.15 16.3502 18.15 15.9998V7.19981C18.15 6.7533 17.8842 6.33046 17.5646 6.17063C17.5507 6.16371 17.5371 6.15635 17.5237 6.14858L12.5237 3.24858C12.4914 3.22987 12.4606 3.20877 12.4315 3.18546Z" fill="black"/>
<path fill-rule="evenodd" clip-rule="evenodd" d="M12.1627 2.26802C12.567 2.35788 12.822 2.75851 12.7321 3.16286L10.7661 12.0099L12.536 21.0562C12.6156 21.4627 12.3505 21.8567 11.944 21.9362C11.5375 22.0157 11.1435 21.7507 11.064 21.3442L9.26396 12.1442C9.24411 12.0428 9.24544 11.9383 9.26786 11.8375L11.2679 2.83746C11.3577 2.43311 11.7583 2.17816 12.1627 2.26802Z" fill="black"/>
<path fill-rule="evenodd" clip-rule="evenodd" d="M19.1563 6.93702C19.3568 7.29951 19.2254 7.75585 18.8629 7.95629L11.5043 12.0252L18.5847 16.2561C18.9403 16.4686 19.0563 16.9291 18.8438 17.2847C18.6313 17.6402 18.1709 17.7562 17.8153 17.5438L9.61528 12.6438C9.38487 12.5061 9.24561 12.2557 9.25011 11.9874C9.2546 11.719 9.40218 11.4735 9.63708 11.3436L18.1371 6.6436C18.4996 6.44316 18.9559 6.57453 19.1563 6.93702Z" fill="black"/>
</svg>
