<svg width="24" height="24" viewBox="0 0 24 24" fill="none" xmlns="http://www.w3.org/2000/svg">
<path fill-rule="evenodd" clip-rule="evenodd" d="M11.9397 5.67969C7.53394 5.67969 3.96973 9.2439 3.96973 13.6497V17.8397H20.0297V13.6497C20.0297 9.2439 16.4655 5.67969 12.0597 5.67969H11.9397ZM2.46973 13.6497C2.46973 8.41547 6.70551 4.17969 11.9397 4.17969H12.0597C17.2939 4.17969 21.5297 8.41547 21.5297 13.6497V18.5897C21.5297 19.0039 21.1939 19.3397 20.7797 19.3397H3.21973C2.80551 19.3397 2.46973 19.0039 2.46973 18.5897V13.6497Z" fill="black"/>
<path fill-rule="evenodd" clip-rule="evenodd" d="M12 1.25C12.4142 1.25 12.75 1.58579 12.75 2V4.92999C12.75 5.34421 12.4142 5.67999 12 5.67999C11.5858 5.67999 11.25 5.34421 11.25 4.92999V2C11.25 1.58579 11.5858 1.25 12 1.25Z" fill="black"/>
<path fill-rule="evenodd" clip-rule="evenodd" d="M7.80157 18.0778C7.9434 17.926 8.14185 17.8398 8.34961 17.8398H15.6496C15.8574 17.8398 16.0558 17.926 16.1976 18.0778C16.3395 18.2297 16.412 18.4335 16.3979 18.6408C16.2412 20.9423 14.3261 22.7498 11.9996 22.7498C9.67313 22.7498 7.75799 20.9423 7.60134 18.6408C7.58723 18.4335 7.65974 18.2297 7.80157 18.0778ZM9.26779 19.3398C9.67658 20.4564 10.7487 21.2498 11.9996 21.2498C13.2505 21.2498 14.3226 20.4564 14.7314 19.3398H9.26779Z" fill="black"/>
</svg>
