<svg width="24" height="24" viewBox="0 0 24 24" fill="none" xmlns="http://www.w3.org/2000/svg">
<path fill-rule="evenodd" clip-rule="evenodd" d="M6.15856 1.90548C6.66772 1.51612 7.31637 1.25 7.99039 1.25H16.0104C16.6847 1.25 17.3334 1.51631 17.8438 1.90694C18.3545 2.29791 18.7823 2.85587 18.9633 3.51006L18.964 3.51274L21.1647 11.5853C21.4322 12.5809 21.2677 13.5553 20.7047 14.2908C20.1415 15.0267 19.2434 15.44 18.2104 15.44H5.79039C4.75755 15.44 3.85843 15.0267 3.29613 14.288C2.73392 13.5495 2.5738 12.5717 2.84693 11.5723L5.04611 3.5053L5.04649 3.50389C5.22238 2.85104 5.6497 2.2946 6.15856 1.90548ZM7.06973 3.09702C6.77145 3.32511 6.56902 3.61816 6.49468 3.8947L6.49399 3.89726L4.29399 11.9673C4.12711 12.5779 4.24687 13.0605 4.48966 13.3795C4.73236 13.6983 5.16324 13.94 5.79039 13.94H18.2104C18.8374 13.94 19.2693 13.6983 19.5136 13.3791C19.7579 13.0599 19.8784 12.5798 19.7164 11.9759L19.7161 11.9747L17.5175 3.90994L17.5172 3.90875C17.4379 3.62331 17.2308 3.32678 16.932 3.09806C16.6324 2.86869 16.2961 2.75 16.0104 2.75H7.99039C7.70441 2.75 7.36807 2.86888 7.06973 3.09702Z" fill="black"/>
<path fill-rule="evenodd" clip-rule="evenodd" d="M12 14.25C12.4142 14.25 12.75 14.5858 12.75 15V22C12.75 22.4142 12.4142 22.75 12 22.75C11.5858 22.75 11.25 22.4142 11.25 22V15C11.25 14.5858 11.5858 14.25 12 14.25Z" fill="black"/>
<path fill-rule="evenodd" clip-rule="evenodd" d="M7.25 22C7.25 21.5858 7.58579 21.25 8 21.25H16C16.4142 21.25 16.75 21.5858 16.75 22C16.75 22.4142 16.4142 22.75 16 22.75H8C7.58579 22.75 7.25 22.4142 7.25 22Z" fill="black"/>
</svg>
