<svg width="24" height="24" viewBox="0 0 24 24" fill="none" xmlns="http://www.w3.org/2000/svg">
<path fill-rule="evenodd" clip-rule="evenodd" d="M6.25977 8.95996C6.25977 8.54575 6.59555 8.20996 7.00977 8.20996H16.9897C17.404 8.20996 17.7397 8.54575 17.7397 8.95996C17.7397 9.37417 17.404 9.70996 16.9897 9.70996H7.00977C6.59555 9.70996 6.25977 9.37417 6.25977 8.95996Z" fill="black"/>
<path fill-rule="evenodd" clip-rule="evenodd" d="M12 6.53027C12.4142 6.53027 12.75 6.86606 12.75 7.28027V8.96027C12.75 9.37448 12.4142 9.71027 12 9.71027C11.5858 9.71027 11.25 9.37448 11.25 8.96027V7.28027C11.25 6.86606 11.5858 6.53027 12 6.53027Z" fill="black"/>
<path fill-rule="evenodd" clip-rule="evenodd" d="M14.5 8.19043C14.9142 8.19043 15.25 8.52622 15.25 8.94043C15.25 13.6288 11.5795 17.4704 7 17.4704C6.58579 17.4704 6.25 17.1346 6.25 16.7204C6.25 16.3062 6.58579 15.9704 7 15.9704C10.7005 15.9704 13.75 12.852 13.75 8.94043C13.75 8.52622 14.0858 8.19043 14.5 8.19043Z" fill="black"/>
<path fill-rule="evenodd" clip-rule="evenodd" d="M11.9958 13.6534C12.3254 13.4024 12.7959 13.4661 13.0469 13.7956C14.0896 15.1648 15.4861 15.97 17.0002 15.97C17.4144 15.97 17.7502 16.3058 17.7502 16.72C17.7502 17.1342 17.4144 17.47 17.0002 17.47C14.9144 17.47 13.1108 16.3553 11.8536 14.7045C11.6026 14.3749 11.6663 13.9043 11.9958 13.6534Z" fill="black"/>
<path fill-rule="evenodd" clip-rule="evenodd" d="M3.09467 3.09467C4.42914 1.7602 6.42603 1.25 9 1.25H15C17.574 1.25 19.5709 1.7602 20.9053 3.09467C22.2398 4.42914 22.75 6.42603 22.75 9V15C22.75 17.574 22.2398 19.5709 20.9053 20.9053C19.5709 22.2398 17.574 22.75 15 22.75H9C6.42603 22.75 4.42914 22.2398 3.09467 20.9053C1.7602 19.5709 1.25 17.574 1.25 15V9C1.25 6.42603 1.7602 4.42914 3.09467 3.09467ZM4.15533 4.15533C3.2398 5.07086 2.75 6.57397 2.75 9V15C2.75 17.426 3.2398 18.9291 4.15533 19.8447C5.07086 20.7602 6.57397 21.25 9 21.25H15C17.426 21.25 18.9291 20.7602 19.8447 19.8447C20.7602 18.9291 21.25 17.426 21.25 15V9C21.25 6.57397 20.7602 5.07086 19.8447 4.15533C18.9291 3.2398 17.426 2.75 15 2.75H9C6.57397 2.75 5.07086 3.2398 4.15533 4.15533Z" fill="black"/>
</svg>
