<svg width="24" height="24" viewBox="0 0 24 24" fill="none" xmlns="http://www.w3.org/2000/svg">
<path fill-rule="evenodd" clip-rule="evenodd" d="M11.7895 3.44531C11.4175 3.44531 11.087 3.51035 10.876 3.60483L10.8739 3.60577L4.97226 6.2265C4.19761 6.56826 4.14453 6.87747 4.14453 6.91031C4.14453 6.94316 4.19761 7.25236 4.97226 7.59412L4.97392 7.59486L10.876 10.2158C11.087 10.3103 11.4175 10.3753 11.7895 10.3753C12.1615 10.3753 12.492 10.3103 12.703 10.2158L12.7051 10.2149L18.6051 7.59486L18.6068 7.59412C19.3815 7.25236 19.4345 6.94316 19.4345 6.91031C19.4345 6.87747 19.3815 6.56826 18.6068 6.2265L12.7051 3.60577L12.703 3.60483C12.492 3.51035 12.1615 3.44531 11.7895 3.44531ZM13.3149 2.2353C12.8561 2.03013 12.3021 1.94531 11.7895 1.94531C11.2769 1.94531 10.7229 2.03013 10.2642 2.2353L10.263 2.2358L4.3668 4.85412C3.4418 5.26241 2.64453 5.94843 2.64453 6.91031C2.64453 7.87216 3.44095 8.55782 4.36591 8.96611L10.263 11.5848L10.2643 11.5854C10.7231 11.7905 11.277 11.8753 11.7895 11.8753C12.3021 11.8753 12.856 11.7905 13.3148 11.5854L13.316 11.5848L19.2123 8.9665C20.1373 8.55822 20.9345 7.87219 20.9345 6.91031C20.9345 5.9484 20.138 5.26271 19.213 4.85443L13.316 2.2358L13.3149 2.2353Z" fill="black"/>
<path fill-rule="evenodd" clip-rule="evenodd" d="M3 10.25C3.41421 10.25 3.75 10.5858 3.75 11C3.75 11.2434 3.84628 11.5559 4.0399 11.8535C4.23351 12.151 4.48007 12.3655 4.70295 12.4639L4.70479 12.4647L11.4934 15.4841C11.8219 15.6291 12.1898 15.6269 12.5017 15.4863L12.5052 15.4847L19.2952 12.4647L19.2971 12.4639C19.5199 12.3655 19.7665 12.151 19.9601 11.8535C20.1537 11.5559 20.25 11.2434 20.25 11C20.25 10.5858 20.5858 10.25 21 10.25C21.4142 10.25 21.75 10.5858 21.75 11C21.75 11.5966 21.5313 12.1891 21.2174 12.6715C20.9037 13.1537 20.4505 13.5941 19.9038 13.8357L13.1183 16.8537L13.1163 16.8546C12.4089 17.1729 11.5973 17.1702 10.8866 16.8559L4.09705 13.8361L4.09603 13.8356C3.54937 13.594 3.0963 13.1537 2.7826 12.6715C2.46872 12.1891 2.25 11.5966 2.25 11C2.25 10.5858 2.58579 10.25 3 10.25Z" fill="black"/>
<path fill-rule="evenodd" clip-rule="evenodd" d="M3 15.25C3.41421 15.25 3.75 15.5858 3.75 16C3.75 16.6308 4.12295 17.2043 4.70554 17.4651L11.4934 20.4841C11.8219 20.6291 12.1898 20.6269 12.5017 20.4863L12.5052 20.4847L19.2939 17.4653C19.8765 17.2046 20.25 16.6308 20.25 16C20.25 15.5858 20.5858 15.25 21 15.25C21.4142 15.25 21.75 15.5858 21.75 16C21.75 17.229 21.0232 18.3353 19.9061 18.8347L19.9048 18.8353L13.1183 21.8537L13.1163 21.8546C12.4089 22.1729 11.5973 22.1702 10.8866 21.8559L4.0939 18.8347C2.97681 18.3353 2.25 17.229 2.25 16C2.25 15.5858 2.58579 15.25 3 15.25Z" fill="black"/>
</svg>
