<svg width="24" height="24" viewBox="0 0 24 24" fill="none" xmlns="http://www.w3.org/2000/svg">
<path fill-rule="evenodd" clip-rule="evenodd" d="M11.9805 1.5C14.9175 1.5 17.4182 2.52551 19.4805 4.5752C20.4675 5.56254 21.2179 6.69141 21.7305 7.95996C22.2426 9.22873 22.5 10.5751 22.5 12C22.5 13.4375 22.2458 14.7843 21.7402 16.04C21.2339 17.2961 20.487 18.4067 19.5 19.3691C18.4754 20.3812 17.3128 21.156 16.0127 21.6934C14.713 22.2308 13.3688 22.5 11.9814 22.5C10.5942 22.5 9.2659 22.235 7.99707 21.7031C6.72852 21.1722 5.59036 20.4035 4.58398 19.3975C3.57768 18.3915 2.8121 17.2567 2.28711 15.9941C1.7621 14.7315 1.5 13.4001 1.5 12C1.50002 10.6124 1.76566 9.27836 2.29688 7.99707C2.82808 6.71582 3.60013 5.5692 4.6123 4.55664C6.61218 2.51969 9.06813 1.50008 11.9805 1.5ZM12.0186 3.39355C9.61875 3.39363 7.59954 4.23155 5.96191 5.90625C5.13671 6.74394 4.50319 7.68478 4.05957 8.72852C3.61528 9.7723 3.39355 10.8633 3.39355 12.001C3.39362 13.1259 3.61537 14.21 4.05957 15.2529C4.50352 16.2974 5.13669 17.2292 5.96191 18.0479C6.78674 18.8668 7.7178 19.491 8.75586 19.9229C9.79298 20.354 10.881 20.5693 12.0186 20.5693C13.1432 20.5693 14.2336 20.3517 15.291 19.9141C16.3472 19.476 17.2999 18.8453 18.1504 18.0205C19.7877 16.4206 20.6064 14.414 20.6064 12.001C20.6064 10.8386 20.3936 9.7386 19.9688 8.70117C19.5445 7.6637 18.925 6.73885 18.1133 5.92578C16.4247 4.23821 14.3936 3.39355 12.0186 3.39355ZM9.09277 8.73828C10.3932 8.73763 11.325 9.24423 11.8877 10.2568L10.4805 10.9883C10.3302 10.6763 10.1462 10.4571 9.92773 10.332C9.709 10.2074 9.50596 10.1446 9.31836 10.1445C8.38122 10.1445 7.91211 10.7633 7.91211 12.001C7.91213 12.5633 8.03036 13.013 8.26758 13.3506C8.50514 13.6882 8.85572 13.8574 9.31836 13.8574C9.9308 13.8573 10.362 13.5567 10.6123 12.957L11.9053 13.6133C11.6303 14.126 11.2492 14.5286 10.7617 14.8223C10.2748 15.1163 9.73708 15.2637 9.14941 15.2637C8.21195 15.2637 7.45477 14.9759 6.87988 14.4004C6.30528 13.8255 6.01758 13.0255 6.01758 12.001C6.01761 11.001 6.3087 10.2077 6.88965 9.62012C7.47066 9.03287 8.20507 8.73839 9.09277 8.73828ZM15.168 8.73828C16.468 8.73763 17.3937 9.24428 17.9434 10.2568L16.5557 10.9883C16.4058 10.6764 16.2214 10.4571 16.0029 10.332C15.7839 10.2074 15.5741 10.1446 15.375 10.1445C14.4375 10.1445 13.9678 10.7633 13.9678 12.001C13.9678 12.5633 14.087 13.013 14.3242 13.3506C14.5615 13.6882 14.9117 13.8574 15.375 13.8574C15.9868 13.8573 16.4183 13.5567 16.668 12.957L17.9805 13.6133C17.6934 14.1261 17.3052 14.5286 16.8184 14.8223C16.3308 15.1163 15.7995 15.2637 15.2246 15.2637C14.2744 15.2637 13.5156 14.9759 12.9473 14.4004C12.3777 13.8255 12.0938 13.0257 12.0938 12.001C12.0938 11.0009 12.3841 10.2078 12.9658 9.62012C13.5465 9.03286 14.2805 8.73835 15.168 8.73828Z" fill="#0A0D10"/>
</svg>
