<svg width="24" height="24" viewBox="0 0 24 24" fill="none" xmlns="http://www.w3.org/2000/svg">
<path fill-rule="evenodd" clip-rule="evenodd" d="M11.9697 2.75C6.86109 2.75 2.71973 6.89137 2.71973 12C2.71973 17.1086 6.86109 21.25 11.9697 21.25C17.0784 21.25 21.2197 17.1086 21.2197 12C21.2197 6.89137 17.0784 2.75 11.9697 2.75ZM1.21973 12C1.21973 6.06294 6.03267 1.25 11.9697 1.25C17.9068 1.25 22.7197 6.06294 22.7197 12C22.7197 17.9371 17.9068 22.75 11.9697 22.75C6.03267 22.75 1.21973 17.9371 1.21973 12Z" fill="black"/>
<path fill-rule="evenodd" clip-rule="evenodd" d="M12 8.25C9.92893 8.25 8.25 9.92893 8.25 12C8.25 14.0711 9.92893 15.75 12 15.75C14.0711 15.75 15.75 14.0711 15.75 12C15.75 9.92893 14.0711 8.25 12 8.25ZM6.75 12C6.75 9.1005 9.1005 6.75 12 6.75C14.8995 6.75 17.25 9.1005 17.25 12C17.25 14.8995 14.8995 17.25 12 17.25C9.1005 17.25 6.75 14.8995 6.75 12Z" fill="black"/>
<path fill-rule="evenodd" clip-rule="evenodd" d="M4.36931 4.40011C4.66179 4.1068 5.13666 4.10613 5.42997 4.39861L8.96997 7.92861C9.26328 8.22109 9.26395 8.69596 8.97147 8.98927C8.67899 9.28257 8.20412 9.28325 7.91081 8.99077L4.37081 5.46077C4.0775 5.16829 4.07683 4.69342 4.36931 4.40011Z" fill="black"/>
<path fill-rule="evenodd" clip-rule="evenodd" d="M8.97147 15.0105C9.26395 15.3038 9.26328 15.7786 8.96997 16.0711L5.42997 19.6011C5.13666 19.8936 4.66179 19.8929 4.36931 19.5996C4.07683 19.3063 4.0775 18.8314 4.37081 18.539L7.91081 15.009C8.20412 14.7165 8.67899 14.7172 8.97147 15.0105Z" fill="black"/>
<path fill-rule="evenodd" clip-rule="evenodd" d="M14.9787 15.0105C15.2712 14.7172 15.746 14.7165 16.0393 15.009L19.5793 18.539C19.8727 18.8314 19.8733 19.3063 19.5808 19.5996C19.2884 19.8929 18.8135 19.8936 18.5202 19.6011L14.9802 16.0711C14.6869 15.7786 14.6862 15.3038 14.9787 15.0105Z" fill="black"/>
<path fill-rule="evenodd" clip-rule="evenodd" d="M19.5808 4.40011C19.8733 4.69342 19.8727 5.16829 19.5793 5.46077L16.0393 8.99077C15.746 9.28325 15.2712 9.28257 14.9787 8.98927C14.6862 8.69596 14.6869 8.22109 14.9802 7.92861L18.5202 4.39861C18.8135 4.10613 19.2884 4.1068 19.5808 4.40011Z" fill="black"/>
</svg>
