<svg width="24" height="24" viewBox="0 0 24 24" fill="none" xmlns="http://www.w3.org/2000/svg">
<path d="M12.8096 1.37208C13.2742 1.37422 13.6524 1.75057 13.6544 2.2129L13.6641 4.10157C17.7671 4.53392 20.9821 7.99397 21.0001 12.1846C21.018 16.37 17.8403 19.7986 13.7481 20.2031L13.7598 22.293C13.7618 22.7554 13.3867 23.1289 12.922 23.127C12.4574 23.1248 12.0792 22.7484 12.0772 22.2861L12.0655 20.1611C12.0038 20.1753 11.9393 20.1839 11.8731 20.1836C7.38096 20.1643 3.72444 16.5258 3.70515 12.0557C3.68606 7.58527 7.31231 3.97701 11.8048 3.9961C11.865 3.99639 11.9238 4.00241 11.9805 4.01466L11.9718 2.20606C11.9698 1.74362 12.3449 1.3701 12.8096 1.37208ZM11.9893 5.65137C11.932 5.66344 11.8727 5.67116 11.8116 5.67091C8.24859 5.65576 5.37262 8.51698 5.38777 12.0625C5.40294 15.608 8.30331 18.4946 11.8663 18.5098C11.93 18.51 11.9921 18.5167 12.0518 18.5303L12.0284 13.04L11.9893 5.65137Z" fill="black"/>
</svg>
