<svg width="24" height="24" viewBox="0 0 24 24" fill="none" xmlns="http://www.w3.org/2000/svg">
<path fill-rule="evenodd" clip-rule="evenodd" d="M13.1771 5.00213C13.9811 5.26974 14.5156 6.13524 14.3479 6.98338L14.1291 8.38035H15.9496C16.5407 8.38035 17.0928 8.62032 17.4372 9.08501C17.7838 9.55266 17.8492 10.1533 17.6494 10.7227L16.4087 14.4847C16.272 14.9842 15.9442 15.384 15.5739 15.6539C15.1974 15.9284 14.7208 16.1103 14.2296 16.1103H12.2496C12.0247 16.1103 11.7616 16.0756 11.5144 16.0062C11.2989 15.9457 11.0047 15.8341 10.7708 15.6204L9.18968 14.3928L10.1096 13.208L11.7567 14.4868L11.7773 14.5074C11.7807 14.5094 11.7857 14.5121 11.7925 14.5155C11.8203 14.5293 11.8629 14.546 11.9198 14.562C12.0377 14.5951 12.1645 14.6103 12.2496 14.6103H14.2296C14.3585 14.6103 14.5318 14.5573 14.6903 14.4418C14.8484 14.3266 14.9356 14.1909 14.9634 14.083L14.9696 14.059L16.2301 10.237L16.2331 10.2287C16.2893 10.0708 16.2486 10.0005 16.2321 9.97816C16.2115 9.95036 16.1386 9.88035 15.9496 9.88035H13.8696C13.1179 9.88035 12.4923 9.23135 12.6068 8.40718L12.6086 8.39428L12.8718 6.71415L12.8761 6.69424C12.8814 6.66894 12.88 6.61276 12.8392 6.54447C12.7988 6.47662 12.7437 6.43824 12.7016 6.4248L12.6819 6.41852L12.6626 6.41117C12.6496 6.40621 12.5991 6.39649 12.5207 6.4234C12.485 6.43565 12.4553 6.45193 12.4347 6.46697C12.4243 6.4745 12.4187 6.47993 12.4164 6.4822L12.4123 6.48864L10.2822 9.65862L9.03711 8.82205L11.1639 5.65671C11.3744 5.33477 11.7057 5.11727 12.0336 5.00469C12.3648 4.89096 12.7762 4.85553 13.1771 5.00213Z" fill="black"/>
<path fill-rule="evenodd" clip-rule="evenodd" d="M7.76878 8.49482C7.76027 8.52983 7.75 8.596 7.75 8.70972V13.7998C7.75 13.9135 7.76027 13.9797 7.76878 14.0147C7.81564 14.0271 7.90007 14.0398 8.03999 14.0398H8.56C8.69993 14.0398 8.78437 14.0271 8.83122 14.0147C8.83973 13.9797 8.85001 13.9135 8.85001 13.7998V8.70972C8.85001 8.596 8.83973 8.52983 8.83122 8.49482C8.78437 8.48246 8.69993 8.46973 8.56 8.46973H8.03999C7.90007 8.46973 7.81564 8.48246 7.76878 8.49482ZM6.73669 7.39065C7.11744 7.03811 7.61811 6.96973 8.03999 6.96973H8.56C8.98188 6.96973 9.48255 7.03811 9.8633 7.39064C10.2583 7.75636 10.35 8.26192 10.35 8.70972V13.7998C10.35 14.2476 10.2583 14.7532 9.8633 15.1189C9.48255 15.4714 8.98188 15.5398 8.56 15.5398H8.03999C7.61811 15.5398 7.11744 15.4714 6.73669 15.1189C6.34171 14.7532 6.25 14.2476 6.25 13.7998V8.70972C6.25 8.26193 6.34171 7.75637 6.73669 7.39065Z" fill="black"/>
<path fill-rule="evenodd" clip-rule="evenodd" d="M6 2.75977C4.74764 2.75977 3.75 3.76049 3.75 4.97974V15.8898C3.75 17.109 4.74764 18.1097 6 18.1097H6.75C7.73266 18.1097 8.69436 18.4943 9.39871 19.1978C9.39925 19.1983 9.39979 19.1989 9.40033 19.1994L11.1069 20.8861C11.1069 20.886 11.1069 20.8861 11.1069 20.8861C11.5947 21.3675 12.3949 21.3677 12.8828 20.8864M12.8828 20.8864L14.5897 19.1994C14.5902 19.1988 14.5908 19.1982 14.5914 19.1977C15.2948 18.4952 16.2461 18.1097 17.24 18.1097H18C19.2507 18.1097 20.25 17.1007 20.25 15.8898V4.97974C20.25 3.76049 19.2524 2.75977 18 2.75977H6M2.25 4.97974C2.25 2.91898 3.93236 1.25977 6 1.25977H18C20.0676 1.25977 21.75 2.91898 21.75 4.97974V15.8898C21.75 17.9389 20.0693 19.6097 18 19.6097H17.24C16.6347 19.6097 16.0667 19.8436 15.6503 20.2601L15.6472 20.2632L13.9372 21.9532C12.8651 23.0116 11.1252 23.0119 10.0531 21.9535L8.34278 20.2632L8.33966 20.2601C7.92416 19.8446 7.34659 19.6097 6.75 19.6097H6C3.93236 19.6097 2.25 17.9505 2.25 15.8898V4.97974Z" fill="black"/>
</svg>
