<svg width="24" height="24" viewBox="0 0 24 24" fill="none" xmlns="http://www.w3.org/2000/svg">
<path fill-rule="evenodd" clip-rule="evenodd" d="M20.25 9C20.25 9.41421 19.9142 9.75 19.5 9.75L4.5 9.75C4.08579 9.75 3.75 9.41421 3.75 9C3.75 8.58579 4.08579 8.25 4.5 8.25L19.5 8.25C19.9142 8.25 20.25 8.58579 20.25 9Z" fill="black"/>
<path fill-rule="evenodd" clip-rule="evenodd" d="M20.25 15.5C20.25 15.9142 19.9142 16.25 19.5 16.25L4.5 16.25C4.08579 16.25 3.75 15.9142 3.75 15.5C3.75 15.0858 4.08579 14.75 4.5 14.75L19.5 14.75C19.9142 14.75 20.25 15.0858 20.25 15.5Z" fill="black"/>
</svg>
