<svg width="24" height="24" viewBox="0 0 24 24" fill="none" xmlns="http://www.w3.org/2000/svg">
<path d="M15 1C17.574 1 19.5708 1.51026 20.9053 2.84473C22.2397 4.1792 22.75 6.17603 22.75 8.75V14.75C22.75 17.324 22.2397 19.3208 20.9053 20.6553C19.5708 21.9897 17.574 22.5 15 22.5H9C6.42603 22.5 4.4292 21.9897 3.09473 20.6553C1.76026 19.3208 1.25 17.324 1.25 14.75V8.75C1.25 6.17603 1.76026 4.1792 3.09473 2.84473C4.4292 1.51026 6.42603 1 9 1H15ZM9 2.5C6.57397 2.5 5.0708 2.98974 4.15527 3.90527C3.23974 4.8208 2.75 6.32397 2.75 8.75V14.75C2.75 17.176 3.23974 18.6792 4.15527 19.5947C5.0708 20.5103 6.57397 21 9 21H15C17.426 21 18.9292 20.5103 19.8447 19.5947C20.7603 18.6792 21.25 17.176 21.25 14.75V8.75C21.25 6.32397 20.7603 4.8208 19.8447 3.90527C18.9292 2.98974 17.426 2.5 15 2.5H9ZM7.83594 8.81055C8.25014 8.81055 8.58594 9.14634 8.58594 9.56055V18.25C8.58593 18.6642 8.25014 19 7.83594 19H5.14453C4.73034 19 4.39454 18.6642 4.39453 18.25V9.56055C4.39453 9.14635 4.73033 8.81057 5.14453 8.81055H7.83594ZM15.5869 8.54492C16.661 8.54493 17.6631 8.87582 18.3955 9.62402C19.1274 10.3718 19.5 11.4437 19.5 12.748V18.25C19.5 18.6641 19.164 18.9998 18.75 19H16.0713C15.6571 18.9999 15.3213 18.6642 15.3213 18.25V14.25C15.3213 13.6995 15.2138 13.3969 15.1055 13.249C15.027 13.142 14.9036 13.0508 14.6064 13.0508C14.2497 13.0508 14.0696 13.1622 13.9619 13.293C13.8353 13.4468 13.7168 13.741 13.7168 14.25V18.25C13.7168 18.6642 13.381 19 12.9668 19H10.3857C9.97153 19 9.63575 18.6642 9.63574 18.25V9.56055C9.63574 9.14633 9.97153 8.81055 10.3857 8.81055H12.9668C13.2095 8.81055 13.4225 8.92766 13.5596 9.10645C14.0669 8.79327 14.7398 8.54492 15.5869 8.54492ZM5.89453 17.5H7.08594V10.3105H5.89453V17.5ZM15.5869 10.0449C14.877 10.0449 14.3875 10.3159 14.0693 10.585C13.9076 10.7218 13.7907 10.8588 13.7158 10.958C13.6788 11.007 13.6526 11.0458 13.6377 11.0693C13.6303 11.0811 13.6259 11.0896 13.624 11.0928L13.623 11.0938C13.4586 11.392 13.1139 11.5415 12.7832 11.458C12.4503 11.3738 12.2168 11.0738 12.2168 10.7305V10.3105H11.1357V17.5H12.2168V14.25C12.2168 13.5368 12.3798 12.8562 12.8037 12.3408C13.2466 11.8025 13.8865 11.5508 14.6064 11.5508C15.2989 11.5508 15.9088 11.8083 16.3154 12.3633C16.692 12.8775 16.8213 13.55 16.8213 14.25V17.5H18V12.748C18 11.7247 17.7118 11.0698 17.3232 10.6729C16.9351 10.2765 16.3558 10.0449 15.5869 10.0449ZM6.47754 3.89648C7.77641 3.89661 8.81836 4.95599 8.81836 6.25C8.81836 7.54401 7.77641 8.60339 6.47754 8.60352C5.17882 8.60352 4.13575 7.54435 4.13574 6.25C4.13574 4.95565 5.17882 3.89648 6.47754 3.89648ZM6.47754 5.39648C6.01795 5.39648 5.63574 5.77333 5.63574 6.25C5.63575 6.72667 6.01795 7.10352 6.47754 7.10352C6.93676 7.10339 7.31836 6.72685 7.31836 6.25C7.31836 5.77315 6.93677 5.39661 6.47754 5.39648Z" fill="black"/>
</svg>
