<svg width="24" height="24" viewBox="0 0 24 24" fill="none" xmlns="http://www.w3.org/2000/svg">
<path fill-rule="evenodd" clip-rule="evenodd" d="M12.5568 8.1479C11.5209 7.06639 9.84633 7.06974 8.82346 8.14685L6.63346 10.4468C5.58872 11.5474 5.58845 13.3734 6.63341 14.4739M12.5568 8.1479C13.6009 9.24857 13.6006 11.0737 12.5558 12.1739L11.4653 13.3244C11.1803 13.6251 11.193 14.0998 11.4937 14.3847C11.7943 14.6697 12.269 14.657 12.5539 14.3563L13.6435 13.2068C15.2378 11.5274 15.2382 8.79321 13.6435 7.11393L13.6415 7.11189C12.0174 5.41452 9.35298 5.41137 7.73613 7.11355L5.54576 9.41392C3.95089 11.0934 3.95089 13.8274 5.54576 15.5068C6.25012 16.2476 7.16877 16.6804 8.11082 16.7672C8.52329 16.8052 8.88845 16.5016 8.92644 16.0892C8.96444 15.6767 8.66086 15.3115 8.24839 15.2735C7.67057 15.2203 7.089 14.9529 6.63341 14.4739" fill="black"/>
<path fill-rule="evenodd" clip-rule="evenodd" d="M15.0733 7.91075C15.1113 7.49829 15.4765 7.19471 15.889 7.2327C16.831 7.31947 17.7493 7.75195 18.4537 8.49274C20.0486 10.1722 20.0489 12.9065 18.454 14.586L16.264 16.886C14.6472 18.5881 11.9823 18.5854 10.3583 16.888L10.3563 16.886C8.76152 15.2066 8.76144 12.4728 10.3561 10.7933L11.4458 9.64359C11.7308 9.34296 12.2055 9.33025 12.5061 9.6152C12.8067 9.90015 12.8195 10.3748 12.5345 10.6755L11.4445 11.8255C10.3997 12.9257 10.3989 14.7514 11.443 15.8521C12.4789 16.9335 14.1535 16.9302 15.1763 15.8531L17.3663 13.5531C18.411 12.4526 18.4113 10.6268 17.3666 9.52634C16.911 9.04713 16.3293 8.77961 15.7514 8.72638C15.3389 8.68839 15.0353 8.32322 15.0733 7.91075Z" fill="black"/>
<path fill-rule="evenodd" clip-rule="evenodd" d="M3.09467 3.09467C4.42914 1.7602 6.42603 1.25 9 1.25H15C17.574 1.25 19.5709 1.7602 20.9053 3.09467C22.2398 4.42914 22.75 6.42603 22.75 9V15C22.75 17.574 22.2398 19.5709 20.9053 20.9053C19.5709 22.2398 17.574 22.75 15 22.75H9C6.42603 22.75 4.42914 22.2398 3.09467 20.9053C1.7602 19.5709 1.25 17.574 1.25 15V9C1.25 6.42603 1.7602 4.42914 3.09467 3.09467ZM4.15533 4.15533C3.2398 5.07086 2.75 6.57397 2.75 9V15C2.75 17.426 3.2398 18.9291 4.15533 19.8447C5.07086 20.7602 6.57397 21.25 9 21.25H15C17.426 21.25 18.9291 20.7602 19.8447 19.8447C20.7602 18.9291 21.25 17.426 21.25 15V9C21.25 6.57397 20.7602 5.07086 19.8447 4.15533C18.9291 3.2398 17.426 2.75 15 2.75H9C6.57397 2.75 5.07086 3.2398 4.15533 4.15533Z" fill="black"/>
</svg>
