<svg width="24" height="24" viewBox="0 0 24 24" fill="none" xmlns="http://www.w3.org/2000/svg">
<path fill-rule="evenodd" clip-rule="evenodd" d="M10.2779 6.19792C10.3686 5.87417 10.6638 5.65039 11 5.65039H14.1C14.3329 5.65039 14.5526 5.75859 14.6946 5.94323C14.8365 6.12786 14.8847 6.36798 14.8248 6.59307L12.9754 13.5504H16.2C16.422 13.5504 16.6326 13.6487 16.7751 13.8189C16.9176 13.9891 16.9774 14.2137 16.9383 14.4322L16.4383 17.2322C16.3745 17.5899 16.0634 17.8504 15.7 17.8504H8.00001C7.76532 17.8504 7.54416 17.7405 7.40236 17.5535C7.26057 17.3665 7.2145 17.1239 7.27785 16.8979L10.2779 6.19792ZM11.5686 7.15039L8.98921 16.3504H15.0721L15.3042 15.0504H12C11.7671 15.0504 11.5474 14.9422 11.4054 14.7576C11.2635 14.5729 11.2153 14.3328 11.2752 14.1077L13.1246 7.15039H11.5686Z" fill="black"/>
<path fill-rule="evenodd" clip-rule="evenodd" d="M15.7361 10.8567C15.8153 11.2633 15.5499 11.6571 15.1434 11.7363L7.44335 13.2363C7.03678 13.3155 6.64299 13.0501 6.56378 12.6435C6.48458 12.237 6.74997 11.8432 7.15654 11.764L14.8565 10.264C15.2631 10.1848 15.6569 10.4502 15.7361 10.8567Z" fill="black"/>
<path fill-rule="evenodd" clip-rule="evenodd" d="M12 2.75C6.89137 2.75 2.75 6.89137 2.75 12C2.75 17.1086 6.89137 21.25 12 21.25C17.1086 21.25 21.25 17.1086 21.25 12C21.25 6.89137 17.1086 2.75 12 2.75ZM1.25 12C1.25 6.06294 6.06294 1.25 12 1.25C17.9371 1.25 22.75 6.06294 22.75 12C22.75 17.9371 17.9371 22.75 12 22.75C6.06294 22.75 1.25 17.9371 1.25 12Z" fill="black"/>
</svg>
