<svg width="24" height="24" viewBox="0 0 24 24" fill="none" xmlns="http://www.w3.org/2000/svg">
<path fill-rule="evenodd" clip-rule="evenodd" d="M11.9999 7.94043C10.691 7.94043 9.62988 9.00151 9.62988 10.3104C9.62988 11.6193 10.691 12.6804 11.9999 12.6804C13.3088 12.6804 14.3699 11.6193 14.3699 10.3104C14.3699 9.00151 13.3088 7.94043 11.9999 7.94043ZM8.12988 10.3104C8.12988 8.17309 9.86254 6.44043 11.9999 6.44043C14.1372 6.44043 15.8699 8.17309 15.8699 10.3104C15.8699 12.4478 14.1372 14.1804 11.9999 14.1804C9.86254 14.1804 8.12988 12.4478 8.12988 10.3104Z" fill="black"/>
<path fill-rule="evenodd" clip-rule="evenodd" d="M12.003 2.75C8.58622 2.74769 5.24436 4.73032 4.35113 8.65591C3.29407 13.3261 6.1878 17.3762 8.9099 19.9997C10.6404 21.661 13.3604 21.659 15.0789 20.0004L15.0802 19.999C17.8122 17.3756 20.7054 13.3354 19.6482 8.6656C18.7597 4.73974 15.4199 2.75231 12.003 2.75ZM21.1112 8.33441C20.0397 3.60029 15.9845 1.25269 12.004 1.25C8.02334 1.24731 3.96532 3.58953 2.8884 8.32364C1.64569 13.8131 5.0715 18.3836 7.86926 21.08L7.8702 21.0809C10.1796 23.2989 13.8188 23.3008 16.1202 21.08C18.928 18.3834 22.3539 13.8239 21.1112 8.33441Z" fill="black"/>
</svg>
