<svg width="24" height="24" viewBox="0 0 24 24" fill="none" xmlns="http://www.w3.org/2000/svg">
<path fill-rule="evenodd" clip-rule="evenodd" d="M12.003 2.75C8.58622 2.74769 5.24436 4.73032 4.35113 8.65591C3.29407 13.3261 6.1878 17.3762 8.9099 19.9997C10.6404 21.661 13.3604 21.659 15.0789 20.0004L15.0802 19.999C17.8122 17.3756 20.7054 13.3354 19.6482 8.6656C18.7597 4.73974 15.4199 2.75231 12.003 2.75ZM21.1112 8.33441C20.0397 3.60029 15.9845 1.25269 12.004 1.25C8.02334 1.24731 3.96532 3.58953 2.8884 8.32364C1.64569 13.8131 5.0715 18.3836 7.86926 21.08L7.8702 21.0809C10.1796 23.2989 13.8188 23.3008 16.1202 21.08C18.928 18.3834 22.3539 13.8239 21.1112 8.33441Z" fill="black"/>
<path fill-rule="evenodd" clip-rule="evenodd" d="M15.2803 8.46967C15.5732 8.76256 15.5732 9.23744 15.2803 9.53033L11.2803 13.5303C10.9874 13.8232 10.5126 13.8232 10.2197 13.5303L8.71967 12.0303C8.42678 11.7374 8.42678 11.2626 8.71967 10.9697C9.01256 10.6768 9.48744 10.6768 9.78033 10.9697L10.75 11.9393L14.2197 8.46967C14.5126 8.17678 14.9874 8.17678 15.2803 8.46967Z" fill="black"/>
</svg>
