<svg width="24" height="24" viewBox="0 0 24 24" fill="none" xmlns="http://www.w3.org/2000/svg">
<path fill-rule="evenodd" clip-rule="evenodd" d="M8.5 11C8.5 10.5858 8.83579 10.25 9.25 10.25H14.75C15.1642 10.25 15.5 10.5858 15.5 11C15.5 11.4142 15.1642 11.75 14.75 11.75H9.25C8.83579 11.75 8.5 11.4142 8.5 11Z" fill="black"/>
<path fill-rule="evenodd" clip-rule="evenodd" d="M12 7.5C12.4142 7.5 12.75 7.83579 12.75 8.25V13.75C12.75 14.1642 12.4142 14.5 12 14.5C11.5858 14.5 11.25 14.1642 11.25 13.75V8.25C11.25 7.83579 11.5858 7.5 12 7.5Z" fill="black"/>
<path fill-rule="evenodd" clip-rule="evenodd" d="M12.003 2.75C8.58622 2.74769 5.24436 4.73032 4.35113 8.65591C3.29407 13.3261 6.1878 17.3762 8.9099 19.9997C10.6404 21.661 13.3604 21.659 15.0789 20.0004L15.0802 19.999C17.8122 17.3756 20.7054 13.3354 19.6482 8.6656C18.7597 4.73974 15.4199 2.75231 12.003 2.75ZM21.1112 8.33441C20.0397 3.60029 15.9845 1.25269 12.004 1.25C8.02334 1.24731 3.96532 3.58953 2.8884 8.32364C1.64569 13.8131 5.0715 18.3836 7.86926 21.08L7.8702 21.0809C10.1796 23.2989 13.8188 23.3008 16.1202 21.08C18.928 18.3834 22.3539 13.8239 21.1112 8.33441Z" fill="black"/>
</svg>
