<svg width="24" height="24" viewBox="0 0 24 24" fill="none" xmlns="http://www.w3.org/2000/svg">
<path fill-rule="evenodd" clip-rule="evenodd" d="M12.003 2.75C8.58622 2.74769 5.24436 4.73032 4.35113 8.65591C3.29407 13.3261 6.1878 17.3762 8.9099 19.9997C10.6404 21.661 13.3604 21.659 15.0789 20.0004L15.0802 19.999C17.8122 17.3756 20.7054 13.3354 19.6482 8.6656C18.7597 4.73974 15.4199 2.75231 12.003 2.75ZM21.1112 8.33441C20.0397 3.60029 15.9845 1.25269 12.004 1.25C8.02334 1.24731 3.96532 3.58953 2.8884 8.32364C1.64569 13.8131 5.0715 18.3836 7.86926 21.08L7.8702 21.0809C10.1796 23.2989 13.8188 23.3008 16.1202 21.08C18.928 18.3834 22.3539 13.8239 21.1112 8.33441Z" fill="black"/>
<path fill-rule="evenodd" clip-rule="evenodd" d="M9.50971 8.46967C9.8026 8.17678 10.2775 8.17678 10.5704 8.46967L14.5304 12.4297C14.8233 12.7226 14.8233 13.1974 14.5304 13.4903C14.2375 13.7832 13.7626 13.7832 13.4697 13.4903L9.50971 9.53033C9.21682 9.23744 9.21682 8.76256 9.50971 8.46967Z" fill="black"/>
<path fill-rule="evenodd" clip-rule="evenodd" d="M14.4903 8.50971C14.7832 8.8026 14.7832 9.27748 14.4903 9.57037L10.5303 13.5304C10.2374 13.8233 9.76256 13.8233 9.46967 13.5304C9.17678 13.2375 9.17678 12.7626 9.46967 12.4697L13.4297 8.50971C13.7226 8.21682 14.1974 8.21682 14.4903 8.50971Z" fill="black"/>
</svg>
