<svg width="24" height="24" viewBox="0 0 24 24" fill="none" xmlns="http://www.w3.org/2000/svg">
<path fill-rule="evenodd" clip-rule="evenodd" d="M12 1.625C13.1935 1.625 14.3377 2.09945 15.1816 2.94336C16.0256 3.78727 16.5 4.93153 16.5 6.125V8.375H19.5C19.8978 8.375 20.2792 8.53315 20.5605 8.81445C20.8419 9.09576 21 9.47718 21 9.875V20.375C21 20.7728 20.8419 21.1542 20.5605 21.4355C20.2792 21.7169 19.8978 21.875 19.5 21.875H4.5C4.10218 21.875 3.72076 21.7169 3.43945 21.4355C3.15815 21.1542 3 20.7728 3 20.375V9.875C3 9.47718 3.15815 9.09576 3.43945 8.81445C3.72076 8.53315 4.10218 8.375 4.5 8.375H7.5V6.125C7.5 4.93153 7.97445 3.78727 8.81836 2.94336C9.66227 2.09945 10.8065 1.625 12 1.625ZM11.7803 14.0215C11.5621 14.0649 11.3614 14.1718 11.2041 14.3291C11.0468 14.4864 10.9399 14.6871 10.8965 14.9053C10.8531 15.1235 10.8758 15.3501 10.9609 15.5557C11.0461 15.7611 11.1901 15.937 11.375 16.0605C11.56 16.1841 11.7775 16.25 12 16.25C12.2984 16.25 12.5849 16.1319 12.7959 15.9209C13.0069 15.7099 13.125 15.4234 13.125 15.125C13.125 14.9025 13.0591 14.685 12.9355 14.5C12.812 14.3151 12.6361 14.1711 12.4307 14.0859C12.2251 14.0008 11.9985 13.9781 11.7803 14.0215ZM12 3.125C11.2044 3.125 10.4415 3.4413 9.87891 4.00391C9.3163 4.56652 9 5.32935 9 6.125V8.375H15V6.125C15 5.32935 14.6837 4.56652 14.1211 4.00391C13.5585 3.4413 12.7956 3.125 12 3.125Z" fill="black"/>
</svg>
