<svg width="24" height="24" viewBox="0 0 24 24" fill="none" xmlns="http://www.w3.org/2000/svg">
<path fill-rule="evenodd" clip-rule="evenodd" d="M7.70907 4.22924C7.00031 5.10912 6.75 6.38987 6.75 8V10C6.75 10.4142 6.41421 10.75 6 10.75C5.58579 10.75 5.25 10.4142 5.25 10V8C5.25 6.30013 5.49969 4.58088 6.54093 3.28826C7.61038 1.96061 9.37164 1.25 12 1.25C14.6284 1.25 16.3896 1.96061 17.4591 3.28826C18.5003 4.58088 18.75 6.30013 18.75 8V10C18.75 10.4142 18.4142 10.75 18 10.75C17.5858 10.75 17.25 10.4142 17.25 10V8C17.25 6.38987 16.9997 5.10912 16.2909 4.22924C15.6104 3.38439 14.3716 2.75 12 2.75C9.62836 2.75 8.38962 3.38439 7.70907 4.22924Z" fill="black"/>
<path fill-rule="evenodd" clip-rule="evenodd" d="M3.53033 11.5303C3.01884 12.0418 2.75 12.9946 2.75 15V17C2.75 19.0054 3.01884 19.9582 3.53033 20.4697C4.04182 20.9812 4.99464 21.25 7 21.25H17C19.0054 21.25 19.9582 20.9812 20.4697 20.4697C20.9812 19.9582 21.25 19.0054 21.25 17V15C21.25 12.9946 20.9812 12.0418 20.4697 11.5303C19.9582 11.0188 19.0054 10.75 17 10.75H7C4.99464 10.75 4.04182 11.0188 3.53033 11.5303ZM2.46967 10.4697C3.45818 9.48116 5.00536 9.25 7 9.25H17C18.9946 9.25 20.5418 9.48116 21.5303 10.4697C22.5188 11.4582 22.75 13.0054 22.75 15V17C22.75 18.9946 22.5188 20.5418 21.5303 21.5303C20.5418 22.5188 18.9946 22.75 17 22.75H7C5.00536 22.75 3.45818 22.5188 2.46967 21.5303C1.48116 20.5418 1.25 18.9946 1.25 17V15C1.25 13.0054 1.48116 11.4582 2.46967 10.4697Z" fill="black"/>
<path fill-rule="evenodd" clip-rule="evenodd" d="M14.9961 16C14.9961 15.4477 15.4438 15 15.9961 15H16.0051C16.5574 15 17.0051 15.4477 17.0051 16C17.0051 16.5523 16.5574 17 16.0051 17H15.9961C15.4438 17 14.9961 16.5523 14.9961 16Z" fill="black"/>
<path fill-rule="evenodd" clip-rule="evenodd" d="M10.9951 16C10.9951 15.4477 11.4428 15 11.9951 15H12.0041C12.5564 15 13.0041 15.4477 13.0041 16C13.0041 16.5523 12.5564 17 12.0041 17H11.9951C11.4428 17 10.9951 16.5523 10.9951 16Z" fill="black"/>
<path fill-rule="evenodd" clip-rule="evenodd" d="M6.99414 16C6.99414 15.4477 7.44186 15 7.99414 15H8.00312C8.55541 15 9.00312 15.4477 9.00312 16C9.00312 16.5523 8.55541 17 8.00312 17H7.99414C7.44186 17 6.99414 16.5523 6.99414 16Z" fill="black"/>
</svg>
