<svg width="24" height="24" viewBox="0 0 24 24" fill="none" xmlns="http://www.w3.org/2000/svg">
<path fill-rule="evenodd" clip-rule="evenodd" d="M10.1463 8.34831C9.87546 8.68416 9.75 9.21443 9.75 10V11C9.75 11.4142 9.41421 11.75 9 11.75C8.58579 11.75 8.25 11.4142 8.25 11V10C8.25 9.12557 8.37454 8.15584 8.97869 7.40669C9.61101 6.62261 10.6225 6.25 12 6.25C13.3775 6.25 14.389 6.62261 15.0213 7.40669C15.6255 8.15584 15.75 9.12557 15.75 10V11C15.75 11.4142 15.4142 11.75 15 11.75C14.5858 11.75 14.25 11.4142 14.25 11V10C14.25 9.21443 14.1245 8.68416 13.8537 8.34831C13.611 8.04739 13.1225 7.75 12 7.75C10.8775 7.75 10.389 8.04739 10.1463 8.34831Z" fill="black"/>
<path fill-rule="evenodd" clip-rule="evenodd" d="M12.0004 14.1504C12.0833 14.1504 12.1504 14.0832 12.1504 14.0004C12.1504 13.9176 12.0833 13.8504 12.0004 13.8504C11.9175 13.8504 11.8503 13.9176 11.8503 14.0004C11.8503 14.0832 11.9175 14.1504 12.0004 14.1504ZM10.6504 14.0004C10.6504 13.2549 11.2547 12.6504 12.0004 12.6504C12.746 12.6504 13.3503 13.2549 13.3503 14.0004C13.3503 14.7459 12.746 15.3504 12.0004 15.3504C11.2547 15.3504 10.6504 14.7459 10.6504 14.0004Z" fill="black"/>
<path fill-rule="evenodd" clip-rule="evenodd" d="M8.03033 12.0303C7.89384 12.1668 7.75 12.4946 7.75 13.5V14.5C7.75 15.5054 7.89384 15.8332 8.03033 15.9697C8.16682 16.1062 8.49464 16.25 9.5 16.25H14.5C15.5054 16.25 15.8332 16.1062 15.9697 15.9697C16.1062 15.8332 16.25 15.5054 16.25 14.5V13.5C16.25 12.4946 16.1062 12.1668 15.9697 12.0303C15.8332 11.8938 15.5054 11.75 14.5 11.75H9.5C8.49464 11.75 8.16682 11.8938 8.03033 12.0303ZM6.96967 10.9697C7.58318 10.3562 8.50536 10.25 9.5 10.25H14.5C15.4946 10.25 16.4168 10.3562 17.0303 10.9697C17.6438 11.5832 17.75 12.5054 17.75 13.5V14.5C17.75 15.4946 17.6438 16.4168 17.0303 17.0303C16.4168 17.6438 15.4946 17.75 14.5 17.75H9.5C8.50536 17.75 7.58318 17.6438 6.96967 17.0303C6.35616 16.4168 6.25 15.4946 6.25 14.5V13.5C6.25 12.5054 6.35616 11.5832 6.96967 10.9697Z" fill="black"/>
<path fill-rule="evenodd" clip-rule="evenodd" d="M12 2.75C6.89137 2.75 2.75 6.89137 2.75 12C2.75 17.1086 6.89137 21.25 12 21.25C17.1086 21.25 21.25 17.1086 21.25 12C21.25 6.89137 17.1086 2.75 12 2.75ZM1.25 12C1.25 6.06294 6.06294 1.25 12 1.25C17.9371 1.25 22.75 6.06294 22.75 12C22.75 17.9371 17.9371 22.75 12 22.75C6.06294 22.75 1.25 17.9371 1.25 12Z" fill="black"/>
</svg>
