<svg width="24" height="24" viewBox="0 0 24 24" fill="none" xmlns="http://www.w3.org/2000/svg">
<path fill-rule="evenodd" clip-rule="evenodd" d="M11.1494 8.96967C11.4423 8.67678 11.9171 8.67678 12.21 8.96967L14.77 11.5297C15.0629 11.8226 15.0629 12.2974 14.77 12.5903L12.21 15.1503C11.9171 15.4432 11.4423 15.4432 11.1494 15.1503C10.8565 14.8574 10.8565 14.3826 11.1494 14.0897L13.179 12.06L11.1494 10.0303C10.8565 9.73744 10.8565 9.26256 11.1494 8.96967Z" fill="black"/>
<path fill-rule="evenodd" clip-rule="evenodd" d="M3.25 12.0596C3.25 11.6454 3.58579 11.3096 4 11.3096H14.17C14.5842 11.3096 14.92 11.6454 14.92 12.0596C14.92 12.4738 14.5842 12.8096 14.17 12.8096H4C3.58579 12.8096 3.25 12.4738 3.25 12.0596Z" fill="black"/>
<path fill-rule="evenodd" clip-rule="evenodd" d="M11.25 4C11.25 3.58579 11.5858 3.25 12 3.25C14.3794 3.25 16.5714 4.05888 18.174 5.58123C19.7826 7.10922 20.75 9.31157 20.75 12C20.75 14.6884 19.7826 16.8908 18.174 18.4188C16.5714 19.9411 14.3794 20.75 12 20.75C11.5858 20.75 11.25 20.4142 11.25 20C11.25 19.5858 11.5858 19.25 12 19.25C14.0406 19.25 15.8486 18.5589 17.141 17.3312C18.4274 16.1092 19.25 14.3116 19.25 12C19.25 9.68843 18.4274 7.89078 17.141 6.66877C15.8486 5.44112 14.0406 4.75 12 4.75C11.5858 4.75 11.25 4.41421 11.25 4Z" fill="black"/>
</svg>
