<svg width="24" height="24" viewBox="0 0 24 24" fill="none" xmlns="http://www.w3.org/2000/svg">
<path fill-rule="evenodd" clip-rule="evenodd" d="M11.0745 4.25763C10.2841 4.89898 9.79205 5.93654 9.64669 7.62458C9.61116 8.03727 9.2478 8.34301 8.83511 8.30747C8.42243 8.27193 8.11669 7.90858 8.15222 7.49589C8.31686 5.58393 8.90481 4.08649 10.1294 3.09284C11.3333 2.11599 13.0158 1.74023 15.1095 1.74023H15.2395C17.5486 1.74023 19.3604 2.19802 20.576 3.41365C21.7917 4.62929 22.2495 6.44106 22.2495 8.75023V15.2702C22.2495 17.5794 21.7917 19.3912 20.576 20.6068C19.3604 21.8224 17.5486 22.2802 15.2395 22.2802H15.1095C13.031 22.2802 11.3586 21.9095 10.1572 20.9484C8.93408 19.9699 8.33837 18.4943 8.1627 16.6098C8.12425 16.1974 8.42742 15.8319 8.83984 15.7935C9.25227 15.755 9.61777 16.0582 9.65622 16.4706C9.81055 18.1262 10.3048 19.1456 11.0942 19.7771C11.9053 20.4259 13.1679 20.7802 15.1095 20.7802H15.2395C17.4003 20.7802 18.7185 20.343 19.5154 19.5462C20.3122 18.7493 20.7495 17.4311 20.7495 15.2702V8.75023C20.7495 6.58941 20.3122 5.27118 19.5154 4.47431C18.7185 3.67745 17.4003 3.24023 15.2395 3.24023H15.1095C13.1531 3.24023 11.8856 3.59948 11.0745 4.25763Z" fill="black"/>
<path fill-rule="evenodd" clip-rule="evenodd" d="M1.25 12C1.25 11.5858 1.58579 11.25 2 11.25H14.88C15.2942 11.25 15.63 11.5858 15.63 12C15.63 12.4142 15.2942 12.75 14.88 12.75H2C1.58579 12.75 1.25 12.4142 1.25 12Z" fill="black"/>
<path fill-rule="evenodd" clip-rule="evenodd" d="M12.1201 8.12006C12.413 7.82717 12.8878 7.82717 13.1807 8.12006L16.5307 11.4701C16.8236 11.763 16.8236 12.2378 16.5307 12.5307L13.1807 15.8807C12.8878 16.1736 12.413 16.1736 12.1201 15.8807C11.8272 15.5878 11.8272 15.113 12.1201 14.8201L14.9397 12.0004L12.1201 9.18072C11.8272 8.88783 11.8272 8.41295 12.1201 8.12006Z" fill="black"/>
</svg>
