<svg width="24" height="24" viewBox="0 0 24 24" fill="none" xmlns="http://www.w3.org/2000/svg">
<path fill-rule="evenodd" clip-rule="evenodd" d="M11.0745 4.25763C10.2841 4.89898 9.79205 5.93654 9.64669 7.62458C9.61116 8.03727 9.2478 8.34301 8.83511 8.30747C8.42243 8.27193 8.11669 7.90858 8.15222 7.49589C8.31686 5.58393 8.90481 4.08649 10.1294 3.09284C11.3333 2.11599 13.0158 1.74023 15.1095 1.74023H15.2395C17.5486 1.74023 19.3604 2.19802 20.576 3.41365C21.7917 4.62929 22.2495 6.44106 22.2495 8.75023V15.2702C22.2495 17.5794 21.7917 19.3912 20.576 20.6068C19.3604 21.8224 17.5486 22.2802 15.2395 22.2802H15.1095C13.031 22.2802 11.3586 21.9095 10.1572 20.9484C8.93408 19.9699 8.33837 18.4943 8.1627 16.6098C8.12425 16.1974 8.42742 15.8319 8.83984 15.7935C9.25227 15.755 9.61777 16.0582 9.65622 16.4706C9.81055 18.1262 10.3048 19.1456 11.0942 19.7771C11.9053 20.4259 13.1679 20.7802 15.1095 20.7802H15.2395C17.4003 20.7802 18.7185 20.343 19.5154 19.5462C20.3122 18.7493 20.7495 17.4311 20.7495 15.2702V8.75023C20.7495 6.58941 20.3122 5.27118 19.5154 4.47431C18.7185 3.67745 17.4003 3.24023 15.2395 3.24023H15.1095C13.1531 3.24023 11.8856 3.59948 11.0745 4.25763Z" fill="black"/>
<path fill-rule="evenodd" clip-rule="evenodd" d="M2.87012 12C2.87012 11.5858 3.2059 11.25 3.62012 11.25H15.0001C15.4143 11.25 15.7501 11.5858 15.7501 12C15.7501 12.4142 15.4143 12.75 15.0001 12.75H3.62012C3.2059 12.75 2.87012 12.4142 2.87012 12Z" fill="black"/>
<path fill-rule="evenodd" clip-rule="evenodd" d="M6.38033 8.12006C6.67322 8.41295 6.67322 8.88783 6.38033 9.18072L3.56066 12.0004L6.38033 14.8201C6.67322 15.113 6.67322 15.5878 6.38033 15.8807C6.08744 16.1736 5.61256 16.1736 5.31967 15.8807L1.96967 12.5307C1.67678 12.2378 1.67678 11.763 1.96967 11.4701L5.31967 8.12006C5.61256 7.82717 6.08744 7.82717 6.38033 8.12006Z" fill="black"/>
</svg>
