<svg width="24" height="24" viewBox="0 0 24 24" fill="none" xmlns="http://www.w3.org/2000/svg">
<path fill-rule="evenodd" clip-rule="evenodd" d="M16.9094 8.96967C17.2023 8.67678 17.6771 8.67678 17.97 8.96967L20.53 11.5297C20.8229 11.8226 20.8229 12.2974 20.53 12.5903L17.97 15.1503C17.6771 15.4432 17.2023 15.4432 16.9094 15.1503C16.6165 14.8574 16.6165 14.3826 16.9094 14.0897L18.939 12.06L16.9094 10.0303C16.6165 9.73744 16.6165 9.26256 16.9094 8.96967Z" fill="black"/>
<path fill-rule="evenodd" clip-rule="evenodd" d="M9.00977 12.06C9.00977 11.6458 9.34555 11.31 9.75977 11.31H19.9298C20.344 11.31 20.6798 11.6458 20.6798 12.06C20.6798 12.4742 20.344 12.81 19.9298 12.81H9.75977C9.34555 12.81 9.00977 12.4742 9.00977 12.06Z" fill="black"/>
<path fill-rule="evenodd" clip-rule="evenodd" d="M6.6188 6.66877C5.33237 7.89078 4.50977 9.68843 4.50977 12C4.50977 14.3116 5.33237 16.1092 6.6188 17.3312C7.91118 18.5589 9.71915 19.25 11.7598 19.25C12.174 19.25 12.5098 19.5858 12.5098 20C12.5098 20.4142 12.174 20.75 11.7598 20.75C9.38038 20.75 7.18835 19.9411 5.58573 18.4188C3.97716 16.8908 3.00977 14.6884 3.00977 12C3.00977 9.31157 3.97716 7.10922 5.58573 5.58123C7.18835 4.05888 9.38038 3.25 11.7598 3.25C12.174 3.25 12.5098 3.58579 12.5098 4C12.5098 4.41421 12.174 4.75 11.7598 4.75C9.71915 4.75 7.91118 5.44112 6.6188 6.66877Z" fill="black"/>
</svg>
