<svg width="24" height="24" viewBox="0 0 24 24" fill="none" xmlns="http://www.w3.org/2000/svg">
<path fill-rule="evenodd" clip-rule="evenodd" d="M16.1035 2.80969C15.9376 2.7225 15.5098 2.66937 14.7794 3.1974L11.7015 5.41586C11.3672 5.66132 10.9511 5.79869 10.5683 5.85722C10.1827 5.91618 9.7485 5.90778 9.36141 5.78391L9.35571 5.78209L6.4062 4.81223C5.58662 4.54349 5.19685 4.71499 5.05718 4.85302C4.91657 4.99199 4.74008 5.38176 4.99607 6.20658L6.00533 9.43437C6.1389 9.85923 6.12738 10.3309 6.04141 10.7401C5.9553 11.1499 5.77664 11.5838 5.48845 11.9188L3.50941 14.2177C2.7731 15.0769 2.82428 15.5389 2.88693 15.6665C2.94974 15.7944 3.28368 16.1172 4.41236 16.0605L7.75182 15.8906C8.2159 15.8674 8.68897 16.0039 9.0812 16.2081C9.47324 16.4121 9.85993 16.7226 10.1083 17.1259L11.868 19.9755C12.4636 20.9396 12.9181 21.0289 13.0569 21.0079C13.197 20.9868 13.6061 20.7658 13.8945 19.6692L14.6632 16.7346L14.6639 16.7317C14.7747 16.299 15.0344 15.9049 15.3234 15.6033C15.6134 15.3005 15.9944 15.0265 16.4148 14.8942L19.6441 13.8844C20.4694 13.6236 20.6908 13.2554 20.725 13.0602C20.7588 12.8669 20.6782 12.449 19.9882 11.9282L19.9869 11.9272L17.5102 10.0498C17.1771 9.80247 16.9226 9.44397 16.7537 9.09519C16.5837 8.74423 16.4622 8.3239 16.4701 7.91516L16.5401 4.12575C16.5577 3.22273 16.2704 2.89744 16.1035 2.80969ZM18.0398 4.15345C18.062 3.00677 17.7043 1.95663 16.8015 1.48199C15.8975 1.00675 14.8305 1.30969 13.9011 1.98143L10.8214 4.20115L10.8146 4.20615C10.7296 4.26891 10.5623 4.3407 10.3416 4.37445C10.1237 4.40778 9.93396 4.39162 9.82079 4.35598L6.87425 3.38712C5.80417 3.03608 4.71808 3.07921 4.00278 3.78614C3.28844 4.49213 3.22998 5.5772 3.56373 6.65199L4.57455 9.8848C4.61074 9.99976 4.62245 10.1985 4.57347 10.4316C4.52459 10.6642 4.43325 10.8453 4.35144 10.9404L2.37156 13.2403L2.37052 13.2415C1.54735 14.2019 1.05566 15.3403 1.5405 16.3277C2.0252 17.3148 3.22627 17.622 4.48758 17.5586L7.82739 17.3887C7.96331 17.3819 8.1709 17.4253 8.38867 17.5386C8.60643 17.652 8.75956 17.7962 8.83119 17.9126L10.5918 20.7637C11.2563 21.8395 12.1918 22.6553 13.2805 22.4912C14.3679 22.3273 15.0237 21.2734 15.3453 20.0503L16.1155 17.1096L16.1168 17.1046C16.1464 16.9885 16.2412 16.8136 16.4066 16.6409C16.5714 16.4688 16.7452 16.3628 16.8648 16.3251L20.0938 15.3154L20.0958 15.3148C21.1699 14.9756 22.0292 14.3087 22.2025 13.3189C22.3761 12.3276 21.7922 11.4108 20.8928 10.7317L20.8918 10.7309L18.4131 8.85192L18.4054 8.84616C18.3206 8.78358 18.2016 8.64368 18.1037 8.44148C18.0061 8.23993 17.9677 8.05525 17.9698 7.944L18.0398 4.15345Z" fill="black"/>
<path fill-rule="evenodd" clip-rule="evenodd" d="M18.3496 18.4394C18.6425 18.1465 19.1173 18.1465 19.4102 18.4394L22.4402 21.4694C22.7331 21.7623 22.7331 22.2372 22.4402 22.5301C22.1473 22.823 21.6724 22.8229 21.3795 22.5301L18.3496 19.5001C18.0567 19.2072 18.0567 18.7323 18.3496 18.4394Z" fill="black"/>
</svg>
