<svg width="24" height="24" viewBox="0 0 24 24" fill="none" xmlns="http://www.w3.org/2000/svg">
<path fill-rule="evenodd" clip-rule="evenodd" d="M15.9691 3.96912C17.092 2.84623 18.9069 2.84623 20.0298 3.96912C21.1527 5.09202 21.1527 6.90689 20.0298 8.02978L7.02978 21.0298C5.90689 22.1527 4.09202 22.1527 2.96912 21.0298C1.84623 19.9069 1.84623 18.092 2.96912 16.9691L15.9691 3.96912ZM18.9691 5.02978C18.432 4.49268 17.5669 4.49268 17.0298 5.02978L4.02978 18.0298C3.49268 18.5669 3.49268 19.432 4.02978 19.9691C4.56689 20.5062 5.43202 20.5062 5.96912 19.9691L18.9691 6.96912C19.5062 6.43202 19.5062 5.56689 18.9691 5.02978Z" fill="black"/>
<path fill-rule="evenodd" clip-rule="evenodd" d="M14.4794 5.4599C14.7723 5.16701 15.2472 5.16701 15.5401 5.4599L18.5401 8.4599C18.833 8.7528 18.833 9.22767 18.5401 9.52057C18.2472 9.81346 17.7723 9.81346 17.4794 9.52057L14.4794 6.52056C14.1865 6.22767 14.1865 5.7528 14.4794 5.4599Z" fill="black"/>
<path fill-rule="evenodd" clip-rule="evenodd" d="M6.64646 1.64646C6.77575 1.51717 6.9653 1.46876 7.14075 1.52023L8.50001 1.91895L9.85928 1.52023C10.0347 1.46876 10.2243 1.51717 10.3536 1.64646C10.4829 1.77575 10.5313 1.9653 10.4798 2.14075L10.0811 3.50001L10.4798 4.85928C10.5313 5.03473 10.4829 5.22428 10.3536 5.35357C10.2243 5.48286 10.0347 5.53126 9.85928 5.4798L8.50001 5.08108L7.14075 5.4798C6.9653 5.53126 6.77575 5.48286 6.64646 5.35357C6.51717 5.22428 6.46876 5.03473 6.52023 4.85928L6.91895 3.50001L6.52023 2.14075C6.46876 1.9653 6.51717 1.77575 6.64646 1.64646ZM7.73737 2.73737L7.9198 3.35928C7.94675 3.45116 7.94675 3.54886 7.9198 3.64075L7.73737 4.26265L8.35928 4.08023C8.45116 4.05327 8.54886 4.05327 8.64075 4.08023L9.26265 4.26265L9.08023 3.64075C9.05327 3.54886 9.05327 3.45116 9.08023 3.35928L9.26265 2.73737L8.64075 2.9198C8.54886 2.94675 8.45116 2.94675 8.35928 2.9198L7.73737 2.73737Z" fill="black"/>
<path fill-rule="evenodd" clip-rule="evenodd" d="M2.64646 7.64646C2.77575 7.51717 2.9653 7.46876 3.14075 7.52023L4.50001 7.91894L5.85928 7.52023C6.03473 7.46876 6.22428 7.51717 6.35357 7.64646C6.48286 7.77575 6.53126 7.9653 6.4798 8.14075L6.08108 9.50001L6.4798 10.8593C6.53126 11.0347 6.48286 11.2243 6.35357 11.3536C6.22428 11.4829 6.03473 11.5313 5.85928 11.4798L4.50001 11.0811L3.14075 11.4798C2.9653 11.5313 2.77575 11.4829 2.64646 11.3536C2.51717 11.2243 2.46876 11.0347 2.52023 10.8593L2.91895 9.50001L2.52023 8.14075C2.46876 7.9653 2.51717 7.77575 2.64646 7.64646ZM3.73737 8.73737L3.9198 9.35928C3.94675 9.45116 3.94675 9.54886 3.9198 9.64075L3.73737 10.2627L4.35928 10.0802C4.45116 10.0533 4.54886 10.0533 4.64075 10.0802L5.26265 10.2627L5.08023 9.64075C5.05327 9.54886 5.05327 9.45116 5.08023 9.35928L5.26265 8.73737L4.64075 8.9198C4.54886 8.94675 4.45116 8.94675 4.35928 8.9198L3.73737 8.73737Z" fill="black"/>
<path fill-rule="evenodd" clip-rule="evenodd" d="M17.6465 12.6465C17.7757 12.5172 17.9653 12.4688 18.1407 12.5202L19.5 12.9189L20.8593 12.5202C21.0347 12.4688 21.2243 12.5172 21.3536 12.6465C21.4829 12.7757 21.5313 12.9653 21.4798 13.1407L21.0811 14.5L21.4798 15.8593C21.5313 16.0347 21.4829 16.2243 21.3536 16.3536C21.2243 16.4829 21.0347 16.5313 20.8593 16.4798L19.5 16.0811L18.1407 16.4798C17.9653 16.5313 17.7757 16.4829 17.6465 16.3536C17.5172 16.2243 17.4688 16.0347 17.5202 15.8593L17.9189 14.5L17.5202 13.1407C17.4688 12.9653 17.5172 12.7757 17.6465 12.6465ZM18.7374 13.7374L18.9198 14.3593C18.9468 14.4512 18.9468 14.5489 18.9198 14.6407L18.7374 15.2627L19.3593 15.0802C19.4512 15.0533 19.5489 15.0533 19.6407 15.0802L20.2627 15.2627L20.0802 14.6407C20.0533 14.5489 20.0533 14.4512 20.0802 14.3593L20.2627 13.7374L19.6407 13.9198C19.5489 13.9468 19.4512 13.9468 19.3593 13.9198L18.7374 13.7374Z" fill="black"/>
</svg>
