<svg width="24" height="24" viewBox="0 0 24 24" fill="none" xmlns="http://www.w3.org/2000/svg">
<path fill-rule="evenodd" clip-rule="evenodd" d="M12 2.75C6.89137 2.75 2.75 6.89137 2.75 12C2.75 17.1086 6.89137 21.25 12 21.25C17.1086 21.25 21.25 17.1086 21.25 12C21.25 6.89137 17.1086 2.75 12 2.75ZM1.25 12C1.25 6.06294 6.06294 1.25 12 1.25C17.9371 1.25 22.75 6.06294 22.75 12C22.75 17.9371 17.9371 22.75 12 22.75C6.06294 22.75 1.25 17.9371 1.25 12Z" fill="black"/>
<path fill-rule="evenodd" clip-rule="evenodd" d="M6.22894 8.848C6.46343 8.71469 6.75144 8.71757 6.98322 8.85553L11.1832 11.3555C11.4104 11.4908 11.5496 11.7356 11.5496 12V14.5C11.5496 14.9142 11.2138 15.25 10.7996 15.25C10.3854 15.25 10.0496 14.9142 10.0496 14.5V12.4264L7.34961 10.8192V14.5C7.34961 14.9142 7.01382 15.25 6.59961 15.25C6.1854 15.25 5.84961 14.9142 5.84961 14.5V9.5C5.84961 9.23027 5.99445 8.98131 6.22894 8.848Z" fill="black"/>
<path fill-rule="evenodd" clip-rule="evenodd" d="M17.7709 8.848C18.0054 8.98131 18.1502 9.23027 18.1502 9.5V14.5C18.1502 14.9142 17.8144 15.25 17.4002 15.25C16.986 15.25 16.6502 14.9142 16.6502 14.5V10.8192L13.9502 12.4264V14.5C13.9502 14.9142 13.6144 15.25 13.2002 15.25C12.786 15.25 12.4502 14.9142 12.4502 14.5V12C12.4502 11.7356 12.5894 11.4908 12.8166 11.3555L17.0166 8.85553C17.2484 8.71757 17.5364 8.71469 17.7709 8.848Z" fill="black"/>
</svg>
