<svg width="24" height="24" viewBox="0 0 24 24" fill="none" xmlns="http://www.w3.org/2000/svg">
<path fill-rule="evenodd" clip-rule="evenodd" d="M8.54839 2.58897C8.97742 2.578 9.44954 2.65 9.85036 2.84663L9.85495 2.84888L15.1105 5.47167C15.234 5.53458 15.446 5.58272 15.7007 5.57529C15.9547 5.56787 16.1668 5.50756 16.289 5.43819L18.6371 4.09928C19.598 3.54874 20.6444 3.41154 21.4966 3.90638C22.3489 4.40123 22.75 5.37809 22.75 6.48997V16.22C22.75 16.7061 22.5807 17.1909 22.3491 17.5879C22.1173 17.9852 21.7806 18.3677 21.3672 18.6082L21.3628 18.6108L17.0328 21.0908L17.0308 21.0919C16.6399 21.3142 16.1701 21.41 15.7417 21.421C15.3127 21.4319 14.8405 21.3599 14.4397 21.1633L14.4341 21.1606L9.17959 18.5283C9.0561 18.4654 8.84406 18.4172 8.58943 18.4247C8.33535 18.4321 8.12329 18.4924 8.0011 18.5617L5.653 19.9007C4.69202 20.4512 3.64568 20.5884 2.79344 20.0936C1.9412 19.5987 1.54004 18.6219 1.54004 17.51V7.77997C1.54004 7.30032 1.70592 6.81843 1.93674 6.42162C2.16777 6.02443 2.5059 5.64015 2.92729 5.39916L7.25931 2.918C7.65018 2.69574 8.12002 2.59991 8.54839 2.58897ZM8.00077 4.22194L3.67279 6.70078C3.53448 6.77982 3.36719 6.94571 3.23334 7.17582C3.09916 7.40651 3.04004 7.62962 3.04004 7.77997V17.51C3.04004 18.2981 3.31388 18.6612 3.54664 18.7964C3.77918 18.9314 4.22825 18.9884 4.90708 18.5993L4.90853 18.5984L7.25853 17.2584C7.6464 17.0379 8.11496 16.9379 8.54565 16.9253C8.97515 16.9128 9.45204 16.9843 9.85802 17.1904L9.86048 17.1917L15.1004 19.8166L15.1026 19.8177C15.2321 19.8806 15.4489 19.928 15.7034 19.9215C15.9595 19.9149 16.1693 19.856 16.2886 19.7884L20.6129 17.3117L20.6146 17.3107C20.7509 17.2308 20.9183 17.0637 21.0535 16.8321C21.1894 16.599 21.25 16.3738 21.25 16.22V6.48997C21.25 5.70185 20.9762 5.33871 20.7434 5.20356C20.5109 5.06854 20.0618 5.01158 19.383 5.40066L19.3815 5.40149L17.0315 6.74149C16.6437 6.96204 16.1751 7.06208 15.7444 7.07465C15.3151 7.08718 14.8385 7.0157 14.4327 6.80981L9.18789 4.19242C9.05848 4.12949 8.84146 4.08197 8.58669 4.08848C8.33065 4.09502 8.12004 4.15439 8.00077 4.22194Z" fill="black"/>
<path fill-rule="evenodd" clip-rule="evenodd" d="M8.56055 3.25C8.97476 3.25 9.31055 3.58579 9.31055 4V17C9.31055 17.4142 8.97476 17.75 8.56055 17.75C8.14633 17.75 7.81055 17.4142 7.81055 17V4C7.81055 3.58579 8.14633 3.25 8.56055 3.25Z" fill="black"/>
<path fill-rule="evenodd" clip-rule="evenodd" d="M15.7305 5.87012C16.1447 5.87012 16.4805 6.2059 16.4805 6.62012V20.0001C16.4805 20.4143 16.1447 20.7501 15.7305 20.7501C15.3163 20.7501 14.9805 20.4143 14.9805 20.0001V6.62012C14.9805 6.2059 15.3163 5.87012 15.7305 5.87012Z" fill="black"/>
</svg>
