<svg width="24" height="24" viewBox="0 0 24 24" fill="none" xmlns="http://www.w3.org/2000/svg">
<path fill-rule="evenodd" clip-rule="evenodd" d="M12.0003 2.78027C6.91449 2.78027 2.78027 6.91449 2.78027 12.0003C2.78027 17.0861 6.91449 21.2203 12.0003 21.2203C14.3687 21.2203 16.5201 20.3332 18.1458 18.8553L18.1525 18.8492C20.037 17.1772 21.2203 14.7193 21.2203 12.0003C21.2203 9.28123 20.037 6.82332 18.1525 5.15129L18.1457 5.14527C16.5201 3.66739 14.3687 2.78027 12.0003 2.78027ZM1.28027 12.0003C1.28027 6.08606 6.08606 1.28027 12.0003 1.28027C14.7502 1.28027 17.2575 2.31199 19.1514 4.03229C21.345 5.98019 22.7203 8.84095 22.7203 12.0003C22.7203 15.1596 21.3449 18.0204 19.1514 19.9683C17.2575 21.6886 14.7502 22.7203 12.0003 22.7203C6.08606 22.7203 1.28027 17.9145 1.28027 12.0003Z" fill="black"/>
<path fill-rule="evenodd" clip-rule="evenodd" d="M9.85028 6.70603C7.75405 7.55586 6.28027 9.60719 6.28027 12.0003C6.28027 14.3942 7.75476 16.4443 9.84882 17.2839M9.85028 6.70603C10.2859 6.53217 10.633 6.56494 10.8321 6.67465C10.9909 6.76215 11.2117 6.98488 11.2203 7.60511V16.3854C11.2117 17.0123 10.9898 17.2331 10.8335 17.3188C10.6355 17.4274 10.2874 17.4592 9.84882 17.2839M11.5559 5.36086C12.3043 5.77315 12.7078 6.57459 12.7202 7.59111L12.7203 7.60025L12.7203 16.3993C12.7079 17.4192 12.3054 18.2226 11.5546 18.6342C10.8452 19.0231 10.0029 18.9611 9.29173 18.6766C6.64606 17.6161 4.78027 15.0261 4.78027 12.0003C4.78027 8.97391 6.64576 6.38567 9.2887 5.31511L9.29173 5.31389C10.0055 5.0284 10.8478 4.97069 11.5559 5.36086Z" fill="black"/>
</svg>
