<svg width="24" height="24" viewBox="0 0 24 24" fill="none" xmlns="http://www.w3.org/2000/svg">
<path d="M2 12.917C2.41421 12.917 2.75 13.2528 2.75 13.667V17C2.75 19.3472 4.65279 21.25 7 21.25H10.333C10.7472 21.25 11.083 21.5858 11.083 22C11.083 22.4142 10.7472 22.75 10.333 22.75H7C3.82436 22.75 1.25 20.1756 1.25 17V13.667C1.25 13.2528 1.58579 12.917 2 12.917ZM22 12.917C22.4142 12.917 22.75 13.2528 22.75 13.667V17C22.75 20.1756 20.1756 22.75 17 22.75H13.667C13.2528 22.75 12.917 22.4142 12.917 22C12.917 21.5858 13.2528 21.25 13.667 21.25H17C19.3472 21.25 21.25 19.3472 21.25 17V13.667C21.25 13.2528 21.5858 12.917 22 12.917ZM12 4.25C14.0711 4.25 15.75 5.92893 15.75 8V8.32422C17.4618 8.67161 18.75 10.1857 18.75 12V15C18.75 17.0711 17.0711 18.75 15 18.75H9C6.92893 18.75 5.25 17.0711 5.25 15V12C5.25 10.1857 6.53824 8.67161 8.25 8.32422V8C8.25 5.92893 9.92893 4.25 12 4.25ZM9 9.75C7.75736 9.75 6.75 10.7574 6.75 12V15C6.75 16.2426 7.75736 17.25 9 17.25H15C16.2426 17.25 17.25 16.2426 17.25 15V12C17.25 10.7574 16.2426 9.75 15 9.75H9ZM12 12.25C12.6904 12.25 13.25 12.8096 13.25 13.5C13.25 14.1904 12.6904 14.75 12 14.75C11.3096 14.75 10.75 14.1904 10.75 13.5C10.75 12.8096 11.3096 12.25 12 12.25ZM10.333 1.25C10.7472 1.25 11.083 1.58579 11.083 2C11.083 2.41421 10.7472 2.75 10.333 2.75H7C4.65279 2.75 2.75 4.65279 2.75 7V10.333C2.75 10.7472 2.41421 11.083 2 11.083C1.58579 11.083 1.25 10.7472 1.25 10.333V7C1.25 3.82436 3.82436 1.25 7 1.25H10.333ZM17 1.25C20.1756 1.25 22.75 3.82436 22.75 7V10.333C22.75 10.7472 22.4142 11.083 22 11.083C21.5858 11.083 21.25 10.7472 21.25 10.333V7C21.25 4.65279 19.3472 2.75 17 2.75H13.667C13.2528 2.75 12.917 2.41421 12.917 2C12.917 1.58579 13.2528 1.25 13.667 1.25H17ZM12 5.75C10.7574 5.75 9.75 6.75736 9.75 8V8.25H14.25V8C14.25 6.75736 13.2426 5.75 12 5.75Z" fill="black"/>
</svg>
