<svg width="24" height="24" viewBox="0 0 24 24" fill="none" xmlns="http://www.w3.org/2000/svg">
<path fill-rule="evenodd" clip-rule="evenodd" d="M17.5401 4.13965C16.5957 4.13965 15.8301 4.90524 15.8301 5.84965C15.8301 6.79406 16.5957 7.55965 17.5401 7.55965C18.4845 7.55965 19.2501 6.79405 19.2501 5.84965C19.2501 4.90524 18.4845 4.13965 17.5401 4.13965ZM14.3301 5.84965C14.3301 4.07682 15.7672 2.63965 17.5401 2.63965C19.3129 2.63965 20.7501 4.07681 20.7501 5.84965C20.7501 7.62248 19.3129 9.05965 17.5401 9.05965C15.7672 9.05965 14.3301 7.62248 14.3301 5.84965Z" fill="black"/>
<path fill-rule="evenodd" clip-rule="evenodd" d="M6.46001 4.13965C5.5156 4.13965 4.75 4.90524 4.75 5.84965C4.75 6.79405 5.5156 7.55965 6.46001 7.55965C7.40441 7.55965 8.17 6.79406 8.17 5.84965C8.17 4.90524 7.40441 4.13965 6.46001 4.13965ZM3.25 5.84965C3.25 4.07681 4.68718 2.63965 6.46001 2.63965C8.23284 2.63965 9.67 4.07682 9.67 5.84965C9.67 7.62248 8.23284 9.05965 6.46001 9.05965C4.68718 9.05965 3.25 7.62248 3.25 5.84965Z" fill="black"/>
<path fill-rule="evenodd" clip-rule="evenodd" d="M17.5401 16.4404C16.5957 16.4404 15.8301 17.206 15.8301 18.1504C15.8301 19.0948 16.5957 19.8604 17.5401 19.8604C18.4845 19.8604 19.2501 19.0948 19.2501 18.1504C19.2501 17.206 18.4845 16.4404 17.5401 16.4404ZM14.3301 18.1504C14.3301 16.3776 15.7672 14.9404 17.5401 14.9404C19.3129 14.9404 20.7501 16.3776 20.7501 18.1504C20.7501 19.9233 19.3129 21.3604 17.5401 21.3604C15.7672 21.3604 14.3301 19.9233 14.3301 18.1504Z" fill="black"/>
<path fill-rule="evenodd" clip-rule="evenodd" d="M6.46001 16.4404C5.5156 16.4404 4.75 17.206 4.75 18.1504C4.75 19.0948 5.5156 19.8604 6.46001 19.8604C7.40441 19.8604 8.17 19.0948 8.17 18.1504C8.17 17.206 7.40441 16.4404 6.46001 16.4404ZM3.25 18.1504C3.25 16.3776 4.68718 14.9404 6.46001 14.9404C8.23284 14.9404 9.67 16.3776 9.67 18.1504C9.67 19.9233 8.23284 21.3604 6.46001 21.3604C4.68717 21.3604 3.25 19.9233 3.25 18.1504Z" fill="black"/>
</svg>
