<svg width="24" height="24" viewBox="0 0 24 24" fill="none" xmlns="http://www.w3.org/2000/svg">
<path fill-rule="evenodd" clip-rule="evenodd" d="M4.03033 4.00006C3.22059 4.8098 2.75 6.08534 2.75 7.96973V12.9697C2.75 15.4051 3.24367 16.6239 3.99388 17.2803C4.76886 17.9584 6.01326 18.2197 8 18.2197H8.5C8.78583 18.2197 9.06121 18.3068 9.28043 18.4164C9.49669 18.5246 9.73258 18.6918 9.90265 18.9233L11.4 20.9198C11.6091 21.1986 11.8337 21.2798 12 21.2798C12.1663 21.2798 12.3909 21.1986 12.6 20.9198L14.1 18.9198L14.1029 18.9159C14.4325 18.4822 14.952 18.2197 15.5 18.2197H16C17.8844 18.2197 19.1599 17.7491 19.9697 16.9394C20.7794 16.1297 21.25 14.8541 21.25 12.9697V7.96973C21.25 6.08534 20.7794 4.8098 19.9697 4.00006C19.1599 3.19032 17.8844 2.71973 16 2.71973H8C6.11561 2.71973 4.84007 3.19032 4.03033 4.00006ZM2.96967 2.9394C4.15993 1.74914 5.88439 1.21973 8 1.21973H16C18.1156 1.21973 19.8401 1.74914 21.0303 2.9394C22.2206 4.12966 22.75 5.85412 22.75 7.96973V12.9697C22.75 15.0853 22.2206 16.8098 21.0303 18.0001C19.8401 19.1903 18.1156 19.7197 16 19.7197H15.5C15.4285 19.7197 15.3486 19.7568 15.2982 19.8222L15.2971 19.8236L13.8 21.8198C13.3492 22.4209 12.7037 22.7798 12 22.7798C11.2963 22.7798 10.6508 22.4209 10.2 21.8198L8.69735 19.8162C8.69533 19.8142 8.69059 19.8098 8.68241 19.8033C8.66499 19.7896 8.64004 19.7733 8.60956 19.758C8.57913 19.7428 8.54994 19.732 8.52605 19.7256C8.50853 19.7209 8.49745 19.7197 8.49745 19.7197H8C5.98674 19.7197 4.23114 19.481 3.00612 18.4092C1.75633 17.3156 1.25 15.5344 1.25 12.9697V7.96973C1.25 5.85412 1.77941 4.12966 2.96967 2.9394Z" fill="black"/>
<path fill-rule="evenodd" clip-rule="evenodd" d="M8.53033 8.16987C8.82322 8.46276 8.82322 8.93763 8.53033 9.23053L7.06066 10.7002L8.53033 12.1699C8.82322 12.4628 8.82322 12.9376 8.53033 13.2305C8.23744 13.5234 7.76256 13.5234 7.46967 13.2305L5.46967 11.2305C5.17678 10.9376 5.17678 10.4628 5.46967 10.1699L7.46967 8.16987C7.76256 7.87697 8.23744 7.87697 8.53033 8.16987Z" fill="black"/>
<path fill-rule="evenodd" clip-rule="evenodd" d="M15.4697 8.16987C15.7626 7.87697 16.2374 7.87697 16.5303 8.16987L18.5303 10.1699C18.8232 10.4628 18.8232 10.9376 18.5303 11.2305L16.5303 13.2305C16.2374 13.5234 15.7626 13.5234 15.4697 13.2305C15.1768 12.9376 15.1768 12.4628 15.4697 12.1699L16.9393 10.7002L15.4697 9.23053C15.1768 8.93763 15.1768 8.46276 15.4697 8.16987Z" fill="black"/>
<path fill-rule="evenodd" clip-rule="evenodd" d="M13.296 7.6811C13.6766 7.84447 13.8528 8.28547 13.6894 8.6661L11.6894 13.3261C11.526 13.7068 11.085 13.8829 10.7044 13.7196C10.3238 13.5562 10.1476 13.1152 10.311 12.7345L12.311 8.07451C12.4743 7.69388 12.9153 7.51774 13.296 7.6811Z" fill="black"/>
</svg>
