<svg width="24" height="24" viewBox="0 0 24 24" fill="none" xmlns="http://www.w3.org/2000/svg">
<path fill-rule="evenodd" clip-rule="evenodd" d="M9.5 2.75C5.72421 2.75 2.75 5.59251 2.75 9C2.75 11.0213 3.79021 12.8322 5.43145 13.9865C5.54078 14.0634 5.62758 14.1681 5.68285 14.2898L7.02144 17.2367C7.10312 17.4103 7.33134 17.433 7.44498 17.2985C7.44479 17.2987 7.44516 17.2983 7.44498 17.2985L7.99383 16.6399L8.92299 15.5209C9.06548 15.3493 9.27695 15.25 9.5 15.25C13.2758 15.25 16.25 12.4075 16.25 9C16.25 8.07134 16.0294 7.19692 15.6307 6.40842L15.6258 6.39869C14.587 4.26791 12.2461 2.75 9.5 2.75ZM1.25 9C1.25 4.66749 4.9958 1.25 9.5 1.25C12.7919 1.25 15.6694 3.06991 16.9718 5.73645C17.4715 6.7267 17.75 7.83057 17.75 9C17.75 13.2172 14.201 16.5674 9.85808 16.7428L9.14702 17.5991L8.59618 18.2602L8.59448 18.2622C7.76829 19.2466 6.19819 19.0296 5.65932 17.8649L5.65712 17.8602L4.39943 15.0913C2.49568 13.6794 1.25 11.4858 1.25 9Z" fill="black"/>
<path fill-rule="evenodd" clip-rule="evenodd" d="M15.7094 5.60783C15.8887 5.37878 16.1842 5.27403 16.4677 5.33905C20.0371 6.15771 22.7501 9.18963 22.7501 12.86C22.7501 15.3458 21.5044 17.5395 19.6006 18.9514L18.3408 21.725C17.8074 22.8777 16.2369 23.1284 15.4026 22.1186C15.4022 22.1182 15.4018 22.1177 15.4014 22.1172L14.1423 20.6029C11.6457 20.5027 9.41502 19.3583 7.98681 17.5916C7.76216 17.3137 7.76478 16.9159 7.99306 16.6409L8.92299 15.5209C9.06548 15.3493 9.27695 15.25 9.5 15.25C13.2758 15.25 16.25 12.4075 16.25 9C16.25 8.07134 16.0294 7.19692 15.6307 6.40842C15.4995 6.14886 15.5302 5.83688 15.7094 5.60783ZM17.5449 7.2867C17.6792 7.83703 17.75 8.41014 17.75 9C17.75 13.2172 14.201 16.5674 9.85808 16.7428L9.55921 17.1028C10.7708 18.3325 12.533 19.11 14.5001 19.11C14.7229 19.11 14.9343 19.2092 15.0768 19.3806L16.5568 21.1606L16.5587 21.1629C16.6644 21.2911 16.8916 21.2819 16.9786 21.0968L18.3172 18.1499C18.3725 18.0282 18.4593 17.9235 18.5686 17.8466C20.2098 16.6923 21.2501 14.8814 21.2501 12.86C21.2501 10.4528 19.7599 8.32415 17.5449 7.2867Z" fill="black"/>
<path fill-rule="evenodd" clip-rule="evenodd" d="M6.25 9C6.25 8.58579 6.58579 8.25 7 8.25H12C12.4142 8.25 12.75 8.58579 12.75 9C12.75 9.41421 12.4142 9.75 12 9.75H7C6.58579 9.75 6.25 9.41421 6.25 9Z" fill="black"/>
</svg>
