<svg width="24" height="24" viewBox="0 0 24 24" fill="none" xmlns="http://www.w3.org/2000/svg">
<path fill-rule="evenodd" clip-rule="evenodd" d="M6.79001 6.75C6.54768 6.75 6.33123 6.75944 6.13303 6.78422C6.12334 6.78543 6.11363 6.78645 6.1039 6.78728C4.89531 6.89062 4.09368 7.28721 3.58266 7.8883C3.06344 8.49903 2.75 9.43122 2.75 10.79V14.79C2.75 16.7255 3.14374 17.6413 3.69207 18.1201C4.2656 18.6209 5.20732 18.83 6.79001 18.83H7.19C7.45271 18.83 7.69761 18.9137 7.88205 19.0069C8.06697 19.1003 8.27317 19.2449 8.42576 19.4444L8.43001 19.45L9.63101 21.0514C9.77703 21.247 9.91454 21.2825 9.99001 21.2825C10.0655 21.2825 10.203 21.247 10.349 21.0514L10.35 21.05L11.55 19.45C11.8416 19.0611 12.3039 18.83 12.79 18.83H13.19C14.55 18.83 15.482 18.5185 16.0922 18.0006C16.6925 17.4913 17.0893 16.6904 17.1927 15.4763C17.1935 15.4665 17.1946 15.4568 17.1958 15.447C17.2206 15.2488 17.23 15.0323 17.23 14.79V10.79C17.23 9.31121 16.8597 8.33787 16.2509 7.72908C15.6421 7.12029 14.6688 6.75 13.19 6.75H6.79001ZM5.96177 5.29397C6.2387 5.26021 6.51719 5.25 6.79001 5.25H13.19C14.9012 5.25 16.3229 5.67971 17.3116 6.66842C18.3003 7.65714 18.73 9.0788 18.73 10.79V14.79C18.73 15.0628 18.7198 15.3413 18.686 15.6182C18.5574 17.0975 18.0443 18.3114 17.0628 19.1444C16.088 19.9715 14.76 20.33 13.19 20.33H12.79C12.7848 20.33 12.7769 20.3313 12.7679 20.3358C12.759 20.3403 12.7531 20.3459 12.75 20.35L11.551 21.9486C11.5509 21.9489 11.5512 21.9484 11.551 21.9486C11.1671 22.4627 10.6093 22.7825 9.99001 22.7825C9.37073 22.7825 8.81345 22.4633 8.42948 21.9493C8.42931 21.9491 8.42964 21.9495 8.42948 21.9493L7.24465 20.3695C7.23609 20.3631 7.22253 20.3542 7.20544 20.3456C7.19004 20.3378 7.1769 20.3328 7.16804 20.33H6.79001C5.1827 20.33 3.72941 20.1441 2.70544 19.2499C1.65627 18.3338 1.25 16.8545 1.25 14.79V10.79C1.25 9.21879 1.61156 7.89098 2.43984 6.91672C3.27363 5.93598 4.48684 5.42272 5.96177 5.29397Z" fill="black"/>
<path fill-rule="evenodd" clip-rule="evenodd" d="M6.92377 5.25H13.19C14.9012 5.25 16.3229 5.67971 17.3116 6.66842C18.3003 7.65714 18.73 9.0788 18.73 10.79L18.73 14.6567C19.4787 14.4728 20.0185 14.1404 20.3978 13.695C20.9163 13.086 21.23 12.1544 21.23 10.79V6.79001C21.23 5.31121 20.8597 4.33787 20.251 3.72908C19.6422 3.12029 18.6688 2.75 17.19 2.75H10.79C9.43125 2.75 8.49906 3.06344 7.88833 3.58266C7.44187 3.96223 7.10823 4.50211 6.92377 5.25ZM6.91675 2.43984C7.89102 1.61156 9.21882 1.25 10.79 1.25H17.19C18.9012 1.25 20.3229 1.67971 21.3116 2.66842C22.3003 3.65714 22.73 5.0788 22.73 6.79001V10.79C22.73 12.3657 22.3687 13.694 21.5398 14.6675C20.7028 15.6505 19.4841 16.1607 18.0039 16.2873C17.7784 16.3066 17.5563 16.223 17.3994 16.0599C17.2426 15.8968 17.1677 15.6715 17.1958 15.447C17.2206 15.2488 17.23 15.0323 17.23 14.79V10.79C17.23 9.31121 16.8597 8.33787 16.2509 7.72908C15.6421 7.12029 14.6688 6.75 13.19 6.75H6.79001C6.54768 6.75 6.33123 6.75944 6.13303 6.78422C5.90848 6.81229 5.68328 6.73746 5.52017 6.58059C5.35705 6.42373 5.27349 6.2016 5.29277 5.97612C5.41943 4.4947 5.93284 3.27633 6.91675 2.43984Z" fill="black"/>
<path fill-rule="evenodd" clip-rule="evenodd" d="M12.4955 13.25C12.4955 12.6977 12.9432 12.25 13.4955 12.25H13.5045C14.0568 12.25 14.5045 12.6977 14.5045 13.25C14.5045 13.8023 14.0568 14.25 13.5045 14.25H13.4955C12.9432 14.25 12.4955 13.8023 12.4955 13.25Z" fill="black"/>
<path fill-rule="evenodd" clip-rule="evenodd" d="M8.9955 13.25C8.9955 12.6977 9.44321 12.25 9.9955 12.25H10.0045C10.5568 12.25 11.0045 12.6977 11.0045 13.25C11.0045 13.8023 10.5568 14.25 10.0045 14.25H9.9955C9.44321 14.25 8.9955 13.8023 8.9955 13.25Z" fill="black"/>
<path fill-rule="evenodd" clip-rule="evenodd" d="M5.4955 13.25C5.4955 12.6977 5.94322 12.25 6.4955 12.25H6.5045C7.05679 12.25 7.5045 12.6977 7.5045 13.25C7.5045 13.8023 7.05679 14.25 6.5045 14.25H6.4955C5.94322 14.25 5.4955 13.8023 5.4955 13.25Z" fill="black"/>
</svg>
