<svg width="24" height="24" viewBox="0 0 24 24" fill="none" xmlns="http://www.w3.org/2000/svg">
<path fill-rule="evenodd" clip-rule="evenodd" d="M4.03033 4.03033C3.22059 4.84007 2.75 6.11561 2.75 8V13C2.75 15.4353 3.24367 16.6541 3.99388 17.3106C4.76886 17.9887 6.01326 18.25 8 18.25H8.5C8.78282 18.25 9.05796 18.3383 9.27436 18.4455C9.48803 18.5515 9.7297 18.7182 9.90264 18.9535L11.4 20.95C11.6092 21.2289 11.8337 21.31 12 21.31C12.1663 21.31 12.3908 21.2289 12.6 20.95L14.1 18.95L14.1029 18.9462C14.4325 18.5124 14.9521 18.25 15.5 18.25H16C17.8844 18.25 19.1599 17.7794 19.9697 16.9697C20.7794 16.1599 21.25 14.8844 21.25 13V8C21.25 7.58579 21.5858 7.25 22 7.25C22.4142 7.25 22.75 7.58579 22.75 8V13C22.75 15.1156 22.2206 16.8401 21.0303 18.0303C19.8401 19.2206 18.1156 19.75 16 19.75H15.5C15.4284 19.75 15.3486 19.7871 15.2982 19.8524C15.2978 19.8529 15.2975 19.8534 15.2971 19.8538L13.8 21.85C13.3492 22.4511 12.7037 22.81 12 22.81C11.2963 22.81 10.6508 22.4511 10.2 21.85L8.69876 19.8484C8.69654 19.8462 8.69203 19.8422 8.6847 19.8365C8.66662 19.8224 8.64037 19.8054 8.60814 19.7895C8.57598 19.7735 8.54532 19.7622 8.52072 19.7556C8.50625 19.7517 8.49766 19.7504 8.49494 19.75H8C5.98674 19.75 4.23114 19.5113 3.00612 18.4394C1.75633 17.3459 1.25 15.5647 1.25 13V8C1.25 5.88439 1.77941 4.15993 2.96967 2.96967C4.15993 1.77941 5.88439 1.25 8 1.25H12C12.4142 1.25 12.75 1.58579 12.75 2C12.75 2.41421 12.4142 2.75 12 2.75H8C6.11561 2.75 4.84007 3.22059 4.03033 4.03033Z" fill="black"/>
<path fill-rule="evenodd" clip-rule="evenodd" d="M19.4415 2.78742C19.0927 2.68182 18.7579 2.79245 18.617 2.99628C18.4801 3.1944 18.2565 3.31475 18.0157 3.31979C17.7749 3.32484 17.5464 3.21397 17.4013 3.02176C17.2269 2.79059 16.8799 2.69142 16.5615 2.78652C15.9963 2.96707 15.6741 3.66968 15.9113 4.38216C16.1089 4.97058 16.5517 5.4473 17.0396 5.78683C17.2799 5.95404 17.5159 6.07695 17.7092 6.15576C17.873 6.22254 17.9678 6.24218 17.9949 6.24779C17.9969 6.2482 17.9985 6.24854 17.9998 6.24881C18.0012 6.24851 18.003 6.24813 18.0052 6.24765C18.033 6.24182 18.1285 6.22174 18.2932 6.1545C18.4885 6.07477 18.7266 5.95076 18.9682 5.78284C19.4601 5.44096 19.899 4.96588 20.0867 4.38825L20.0884 4.38278C20.3283 3.66311 19.9981 2.95796 19.4415 2.78742ZM17.9876 1.5695C18.585 1.20392 19.3191 1.18268 19.8778 1.3523L19.8791 1.35269C21.481 1.84214 21.9309 3.59454 21.5124 4.8544C21.1896 5.84535 20.4792 6.55938 19.8243 7.01458C19.4921 7.24541 19.1571 7.42202 18.8602 7.54323C18.5875 7.65454 18.2729 7.74996 18 7.74996C17.7279 7.74996 17.4151 7.65571 17.1429 7.54478C16.8472 7.42421 16.5138 7.24837 16.1829 7.01808C15.5285 6.56275 14.8214 5.84972 14.4889 4.85848L14.4885 4.85713C14.0666 3.59137 14.5225 1.85585 16.1148 1.35457L16.1221 1.35226C16.6983 1.17734 17.4042 1.22207 17.9876 1.5695Z" fill="black"/>
<path fill-rule="evenodd" clip-rule="evenodd" d="M14.9965 11C14.9965 10.4477 15.4442 10 15.9965 10H16.0054C16.5577 10 17.0054 10.4477 17.0054 11C17.0054 11.5523 16.5577 12 16.0054 12H15.9965C15.4442 12 14.9965 11.5523 14.9965 11Z" fill="black"/>
<path fill-rule="evenodd" clip-rule="evenodd" d="M10.9955 11C10.9955 10.4477 11.4432 10 11.9955 10H12.0045C12.5567 10 13.0045 10.4477 13.0045 11C13.0045 11.5523 12.5567 12 12.0045 12H11.9955C11.4432 12 10.9955 11.5523 10.9955 11Z" fill="black"/>
<path fill-rule="evenodd" clip-rule="evenodd" d="M6.99451 11C6.99451 10.4477 7.44222 10 7.99451 10H8.00349C8.55577 10 9.00349 10.4477 9.00349 11C9.00349 11.5523 8.55577 12 8.00349 12H7.99451C7.44222 12 6.99451 11.5523 6.99451 11Z" fill="black"/>
</svg>
