<svg width="24" height="24" viewBox="0 0 24 24" fill="none" xmlns="http://www.w3.org/2000/svg">
<path fill-rule="evenodd" clip-rule="evenodd" d="M4.03033 4.00006C3.22059 4.8098 2.75 6.08534 2.75 7.96973V12.9697C2.75 15.4051 3.24367 16.6239 3.99388 17.2803C4.76886 17.9584 6.01326 18.2197 8 18.2197H8.5C8.78454 18.2197 9.05809 18.309 9.27291 18.4164C9.48906 18.5245 9.7217 18.6889 9.89345 18.9111L9.90005 18.9197L11.4 20.9197C11.6091 21.1986 11.8337 21.2797 12 21.2797C12.1663 21.2797 12.3909 21.1986 12.6 20.9197C12.8485 20.5884 13.3186 20.5212 13.65 20.7697C13.9814 21.0183 14.0485 21.4884 13.8 21.8197C13.3492 22.4208 12.7037 22.7797 12 22.7797C11.2963 22.7797 10.6508 22.4208 10.2 21.8197L8.70704 19.8291C8.70495 19.827 8.69746 19.8193 8.68265 19.8079C8.66173 19.7917 8.63403 19.774 8.60208 19.758C8.57006 19.742 8.54047 19.7311 8.5174 19.7248C8.50495 19.7214 8.49735 19.7201 8.49456 19.7197H8C5.98674 19.7197 4.23114 19.481 3.00612 18.4092C1.75633 17.3156 1.25 15.5344 1.25 12.9697V7.96973C1.25 5.85412 1.77941 4.12966 2.96967 2.9394C4.15993 1.74914 5.88439 1.21973 8 1.21973H16C18.1156 1.21973 19.8401 1.74914 21.0303 2.9394C22.2206 4.12966 22.75 5.85412 22.75 7.96973V12.9697C22.75 13.3839 22.4142 13.7197 22 13.7197C21.5858 13.7197 21.25 13.3839 21.25 12.9697V7.96973C21.25 6.08534 20.7794 4.8098 19.9697 4.00006C19.1599 3.19032 17.8844 2.71973 16 2.71973H8C6.11561 2.71973 4.84007 3.19032 4.03033 4.00006Z" fill="black"/>
<path fill-rule="evenodd" clip-rule="evenodd" d="M18.2 15.75C16.8469 15.75 15.75 16.8469 15.75 18.2C15.75 19.5531 16.8469 20.65 18.2 20.65C19.5531 20.65 20.65 19.5531 20.65 18.2C20.65 16.8469 19.5531 15.75 18.2 15.75ZM14.25 18.2C14.25 16.0185 16.0185 14.25 18.2 14.25C20.3815 14.25 22.15 16.0185 22.15 18.2C22.15 20.3815 20.3815 22.15 18.2 22.15C16.0185 22.15 14.25 20.3815 14.25 18.2Z" fill="black"/>
<path fill-rule="evenodd" clip-rule="evenodd" d="M20.4697 20.4697C20.7626 20.1768 21.2374 20.1768 21.5303 20.4697L22.5303 21.4697C22.8232 21.7626 22.8232 22.2374 22.5303 22.5303C22.2374 22.8232 21.7626 22.8232 21.4697 22.5303L20.4697 21.5303C20.1768 21.2374 20.1768 20.7626 20.4697 20.4697Z" fill="black"/>
<path fill-rule="evenodd" clip-rule="evenodd" d="M14.9961 11C14.9961 10.4477 15.4438 10 15.9961 10H16.0051C16.5574 10 17.0051 10.4477 17.0051 11C17.0051 11.5523 16.5574 12 16.0051 12H15.9961C15.4438 12 14.9961 11.5523 14.9961 11Z" fill="black"/>
<path fill-rule="evenodd" clip-rule="evenodd" d="M10.9951 11C10.9951 10.4477 11.4428 10 11.9951 10H12.0041C12.5564 10 13.0041 10.4477 13.0041 11C13.0041 11.5523 12.5564 12 12.0041 12H11.9951C11.4428 12 10.9951 11.5523 10.9951 11Z" fill="black"/>
<path fill-rule="evenodd" clip-rule="evenodd" d="M6.99414 11C6.99414 10.4477 7.44186 10 7.99414 10H8.00312C8.55541 10 9.00312 10.4477 9.00312 11C9.00312 11.5523 8.55541 12 8.00312 12H7.99414C7.44186 12 6.99414 11.5523 6.99414 11Z" fill="black"/>
</svg>
