<svg width="24" height="24" viewBox="0 0 24 24" fill="none" xmlns="http://www.w3.org/2000/svg">
<path fill-rule="evenodd" clip-rule="evenodd" d="M9.89001 7.77002C9.75038 7.77002 9.62145 7.77817 9.49302 7.79423C9.48326 7.79545 9.47348 7.79647 9.46368 7.79731C8.72192 7.86053 8.26728 8.10121 7.98676 8.43165C7.69799 8.77182 7.5 9.31725 7.5 10.17V12.8C7.5 14.0509 7.75639 14.5566 8.031 14.7965C8.3307 15.0584 8.86221 15.2 9.89999 15.2H10.16C10.388 15.2 10.5896 15.2746 10.7285 15.3452C10.8711 15.4176 11.033 15.5294 11.1605 15.6851C11.1669 15.693 11.1732 15.701 11.1793 15.7091L11.9715 16.7621C11.9823 16.7765 11.9919 16.7874 12 16.7956C12.0081 16.7874 12.0177 16.7765 12.0285 16.7621L12.0307 16.7591L12.8255 15.7027C13.0633 15.3936 13.4404 15.2 13.84 15.2H14.1C14.9547 15.2 15.4998 15.0037 15.8392 14.7163C16.1683 14.4377 16.4093 13.9842 16.4727 13.2367C16.4735 13.2268 16.4746 13.2169 16.4758 13.207C16.4918 13.0786 16.5 12.9497 16.5 12.81V10.18C16.5 9.25214 16.2677 8.69085 15.9309 8.3541C15.5933 8.01647 15.0258 7.77949 14.0863 7.77002H9.89001ZM9.32171 6.30399C9.50835 6.28126 9.69479 6.27002 9.89001 6.27002H14.0971C15.2656 6.2811 16.2771 6.57898 16.9916 7.29344C17.7073 8.0092 18 9.01791 18 10.18V12.81C18 13.0052 17.9888 13.1915 17.9661 13.3781C17.8772 14.3943 17.5183 15.2602 16.8083 15.8612C16.1052 16.4564 15.1653 16.7 14.1 16.7H13.9523L13.2315 17.658L13.2303 17.6596C12.9387 18.0503 12.5026 18.3125 12 18.3125C11.4974 18.3125 11.0613 18.0503 10.7697 17.6596L10.7685 17.658L10.0477 16.7H9.89999C8.83778 16.7 7.79429 16.5817 7.04399 15.926C6.26861 15.2485 6 14.1792 6 12.8V10.17C6 9.10284 6.24701 8.16325 6.84323 7.46091C7.44482 6.75225 8.30975 6.39295 9.32171 6.30399Z" fill="black"/>
<path fill-rule="evenodd" clip-rule="evenodd" d="M12 2.75C6.89137 2.75 2.75 6.89137 2.75 12C2.75 17.1086 6.89137 21.25 12 21.25C17.1086 21.25 21.25 17.1086 21.25 12C21.25 6.89137 17.1086 2.75 12 2.75ZM1.25 12C1.25 6.06294 6.06294 1.25 12 1.25C17.9371 1.25 22.75 6.06294 22.75 12C22.75 17.9371 17.9371 22.75 12 22.75C6.06294 22.75 1.25 17.9371 1.25 12Z" fill="black"/>
</svg>
