<svg width="24" height="24" viewBox="0 0 24 24" fill="none" xmlns="http://www.w3.org/2000/svg">
<path fill-rule="evenodd" clip-rule="evenodd" d="M1.25 11.3C1.25 5.63117 6.1426 1.25 12 1.25C17.8519 1.25 22.75 5.62611 22.75 11.2C22.75 16.8688 17.8574 21.25 12 21.25C10.9836 21.25 10.0065 21.1684 9.09219 20.9123L6.07422 22.65C5.84215 22.7836 5.55644 22.7833 5.32461 22.6493C5.09278 22.5153 4.95 22.2678 4.95 22V18.77C2.65726 16.949 1.25 14.3294 1.25 11.3ZM12 2.75C6.8574 2.75 2.75 6.56883 2.75 11.3C2.75 13.9389 4.01763 16.2239 6.14579 17.7969C6.33712 17.9383 6.45 18.1621 6.45 18.4V20.7028L8.62578 19.45C8.81143 19.3431 9.03394 19.3207 9.23717 19.3885C10.0296 19.6526 10.9395 19.75 12 19.75C17.1426 19.75 21.25 15.9312 21.25 11.2C21.25 6.57389 17.1481 2.75 12 2.75Z" fill="black"/>
<path fill-rule="evenodd" clip-rule="evenodd" d="M17.1352 8.80147C17.3087 9.07788 17.2836 9.43478 17.073 9.68414L13.273 14.1841C13.0357 14.4652 12.6296 14.5326 12.3141 14.3434L11.0781 13.6018L7.67727 14.429C7.3619 14.5057 7.03298 14.3709 6.86221 14.0949C6.69145 13.8189 6.71758 13.4643 6.92698 13.2164L10.727 8.71636C10.9546 8.44686 11.3392 8.37237 11.6509 8.53741L13.0944 9.30159L16.3132 8.47388C16.6293 8.3926 16.9617 8.52506 17.1352 8.80147ZM14.4108 10.5119L13.1868 10.8266C13.0059 10.8731 12.8142 10.8505 12.6491 10.7631L11.4832 10.1458L9.55569 12.4283L11.0227 12.0715C11.2144 12.0249 11.4167 12.0556 11.5859 12.1571L12.5387 12.7288L14.4108 10.5119Z" fill="black"/>
</svg>
