<svg width="24" height="24" viewBox="0 0 24 24" fill="none" xmlns="http://www.w3.org/2000/svg">
<path fill-rule="evenodd" clip-rule="evenodd" d="M7.75 10.4997C7.75 10.0855 8.08579 9.74969 8.5 9.74969H15.5C15.9142 9.74969 16.25 10.0855 16.25 10.4997C16.25 10.9139 15.9142 11.2497 15.5 11.2497H8.5C8.08579 11.2497 7.75 10.9139 7.75 10.4997Z" fill="black"/>
<path fill-rule="evenodd" clip-rule="evenodd" d="M2.84467 3.27436C3.87925 2.23977 5.32956 1.67969 7 1.67969H17C18.6704 1.67969 20.1207 2.23977 21.1553 3.27436C22.1899 4.30894 22.75 5.75925 22.75 7.42969V13.4297C22.75 15.1001 22.1899 16.5504 21.1553 17.585C20.2789 18.4614 19.1042 18.9973 17.75 19.1407V20.5597C17.75 21.9624 16.1897 22.7835 15.0346 22.0142M15.0346 22.0142L10.7733 19.1797H7C5.32956 19.1797 3.87925 18.6196 2.84467 17.585C1.81009 16.5504 1.25 15.1001 1.25 13.4297V7.42969C1.25 5.75925 1.81009 4.30894 2.84467 3.27436M3.90533 4.33502C3.18991 5.05043 2.75 6.10012 2.75 7.42969V13.4297C2.75 14.7593 3.18991 15.8089 3.90533 16.5244C4.62075 17.2398 5.67044 17.6797 7 17.6797H11C11.1478 17.6797 11.2923 17.7234 11.4154 17.8052L15.8654 20.7652C16.0302 20.8751 16.25 20.7568 16.25 20.5597V18.4297C16.25 18.0155 16.5858 17.6797 17 17.6797C18.3296 17.6797 19.3793 17.2398 20.0947 16.5244C20.8101 15.8089 21.25 14.7593 21.25 13.4297V7.42969C21.25 6.10012 20.8101 5.05043 20.0947 4.33502C19.3793 3.6196 18.3296 3.17969 17 3.17969H7C5.67044 3.17969 4.62075 3.6196 3.90533 4.33502Z" fill="black"/>
</svg>
