<svg width="24" height="24" viewBox="0 0 24 24" fill="none" xmlns="http://www.w3.org/2000/svg">
<path fill-rule="evenodd" clip-rule="evenodd" d="M2.96967 2.96967C4.15993 1.77941 5.88439 1.25 8 1.25H16C18.1156 1.25 19.8401 1.77941 21.0303 2.96967C22.2206 4.15993 22.75 5.88439 22.75 8V16C22.75 18.1156 22.2206 19.8401 21.0303 21.0303C19.8401 22.2206 18.1156 22.75 16 22.75H3C2.03579 22.75 1.25 21.9642 1.25 21V8C1.25 5.88439 1.77941 4.15993 2.96967 2.96967ZM4.03033 4.03033C3.22059 4.84007 2.75 6.11561 2.75 8V21C2.75 21.1358 2.86421 21.25 3 21.25H16C17.8844 21.25 19.1599 20.7794 19.9697 19.9697C20.7794 19.1599 21.25 17.8844 21.25 16V8C21.25 6.11561 20.7794 4.84007 19.9697 4.03033C19.1599 3.22059 17.8844 2.75 16 2.75H8C6.11561 2.75 4.84007 3.22059 4.03033 4.03033Z" fill="black"/>
<path fill-rule="evenodd" clip-rule="evenodd" d="M14.3114 6.26217C15.1486 6.18234 15.9468 6.56076 16.7015 7.32077C17.4577 8.0774 17.8287 8.8765 17.7451 9.71108C17.6654 10.5059 17.1877 11.1431 16.7004 11.6304L11.5104 16.8204C11.3338 16.997 11.1097 17.1378 10.9062 17.238C10.7018 17.3385 10.457 17.4281 10.2161 17.4625L8.23321 17.7429C7.67653 17.8202 7.12511 17.6708 6.73221 17.2779C6.33931 16.885 6.18986 16.3335 6.26717 15.7769L6.26743 15.775L6.54758 13.794C6.58199 13.5531 6.67152 13.3083 6.77209 13.1039C6.87223 12.9004 7.01312 12.6763 7.18971 12.4997L12.3797 7.3097C12.8721 6.81733 13.5131 6.33828 14.3114 6.26217ZM14.4537 7.75539C14.177 7.78178 13.848 7.96273 13.4404 8.37036L8.25037 13.5604C8.22695 13.5838 8.17284 13.6547 8.11799 13.7662C8.06371 13.8765 8.03823 13.9665 8.03255 14.0058L7.75291 15.9832C7.7305 16.1459 7.78079 16.2051 7.79287 16.2172C7.80496 16.2293 7.8634 16.2797 8.02626 16.2572L10.004 15.9776C10.0431 15.9719 10.1334 15.9464 10.2439 15.8921C10.3554 15.8372 10.4263 15.7831 10.4497 15.7597L15.6397 10.5697C16.0424 10.167 16.2247 9.83915 16.2525 9.56148C16.2763 9.32395 16.2028 8.94341 15.6397 8.38036L15.6377 8.37835C15.0726 7.80899 14.6912 7.73275 14.4537 7.75539Z" fill="black"/>
<path fill-rule="evenodd" clip-rule="evenodd" d="M11.9677 7.85784C12.3665 7.74606 12.7804 7.97878 12.8922 8.37762C13.262 9.69723 14.296 10.7385 15.6212 11.1075C16.0203 11.2186 16.2537 11.6322 16.1426 12.0312C16.0314 12.4303 15.6179 12.6636 15.2188 12.5525C13.3841 12.0416 11.958 10.6028 11.4479 8.78241C11.3361 8.38356 11.5688 7.96962 11.9677 7.85784Z" fill="black"/>
</svg>
