<svg width="24" height="24" viewBox="0 0 24 24" fill="none" xmlns="http://www.w3.org/2000/svg">
<path fill-rule="evenodd" clip-rule="evenodd" d="M5.25 8C5.25 4.27579 8.27579 1.25 12 1.25C15.7242 1.25 18.75 4.27579 18.75 8V13C18.75 16.7242 15.7242 19.75 12 19.75C8.27579 19.75 5.25 16.7242 5.25 13V8ZM12 2.75C9.10421 2.75 6.75 5.10421 6.75 8V13C6.75 15.8958 9.10421 18.25 12 18.25C14.8958 18.25 17.25 15.8958 17.25 13V8C17.25 5.10421 14.8958 2.75 12 2.75Z" fill="black"/>
<path fill-rule="evenodd" clip-rule="evenodd" d="M3 10.25C3.41421 10.25 3.75 10.5858 3.75 11V13C3.75 17.5558 7.44421 21.25 12 21.25C16.5558 21.25 20.25 17.5558 20.25 13V11C20.25 10.5858 20.5858 10.25 21 10.25C21.4142 10.25 21.75 10.5858 21.75 11V13C21.75 18.3842 17.3842 22.75 12 22.75C6.61579 22.75 2.25 18.3842 2.25 13V11C2.25 10.5858 2.58579 10.25 3 10.25Z" fill="black"/>
<path fill-rule="evenodd" clip-rule="evenodd" d="M14.3533 8.18419C12.7394 7.59485 10.9817 7.59485 9.36782 8.18419C8.97873 8.32627 8.54814 8.12603 8.40606 7.73695C8.26398 7.34786 8.46421 6.91727 8.8533 6.77519C10.7994 6.06452 12.9217 6.06452 14.8678 6.77519C15.2569 6.91727 15.4571 7.34786 15.3151 7.73695C15.173 8.12603 14.7424 8.32627 14.3533 8.18419Z" fill="black"/>
<path fill-rule="evenodd" clip-rule="evenodd" d="M13.5016 11.2031C12.4318 10.9089 11.2992 10.9089 10.2293 11.2031C9.82994 11.3129 9.41714 11.0782 9.30731 10.6788C9.19748 10.2794 9.43221 9.8666 9.8316 9.75677C11.1618 9.39097 12.5692 9.39097 13.8993 9.75677C14.2987 9.8666 14.5334 10.2794 14.4236 10.6788C14.3138 11.0782 13.901 11.3129 13.5016 11.2031Z" fill="black"/>
</svg>
