<svg width="24" height="24" viewBox="0 0 24 24" fill="none" xmlns="http://www.w3.org/2000/svg">
<path fill-rule="evenodd" clip-rule="evenodd" d="M7.25 6C7.25 3.37579 9.37579 1.25 12 1.25C14.6242 1.25 16.75 3.37579 16.75 6V11.5C16.75 14.1242 14.6242 16.25 12 16.25C9.37579 16.25 7.25 14.1242 7.25 11.5V6ZM12 2.75C10.2042 2.75 8.75 4.20421 8.75 6V11.5C8.75 13.2958 10.2042 14.75 12 14.75C13.7958 14.75 15.25 13.2958 15.25 11.5V6C15.25 4.20421 13.7958 2.75 12 2.75Z" fill="black"/>
<path fill-rule="evenodd" clip-rule="evenodd" d="M4.34961 8.90039C4.76382 8.90039 5.09961 9.23618 5.09961 9.65039V11.3504C5.09961 15.1562 8.19382 18.2504 11.9996 18.2504C15.8054 18.2504 18.8996 15.1562 18.8996 11.3504V9.65039C18.8996 9.23618 19.2354 8.90039 19.6496 8.90039C20.0638 8.90039 20.3996 9.23618 20.3996 9.65039V11.3504C20.3996 15.9846 16.6338 19.7504 11.9996 19.7504C7.3654 19.7504 3.59961 15.9846 3.59961 11.3504V9.65039C3.59961 9.23618 3.9354 8.90039 4.34961 8.90039Z" fill="black"/>
<path fill-rule="evenodd" clip-rule="evenodd" d="M13.1324 7.13427C12.3991 6.8654 11.602 6.8654 10.8687 7.13427C10.4799 7.27687 10.049 7.0772 9.9064 6.68831C9.7638 6.29941 9.96347 5.86855 10.3524 5.72596C11.4191 5.33484 12.582 5.33484 13.6487 5.72596C14.0376 5.86855 14.2373 6.29941 14.0947 6.68831C13.9521 7.0772 13.5213 7.27687 13.1324 7.13427Z" fill="black"/>
<path fill-rule="evenodd" clip-rule="evenodd" d="M12.6188 9.27544C12.2144 9.1686 11.7964 9.1686 11.3919 9.27544C10.9914 9.38123 10.581 9.14233 10.4753 8.74186C10.3695 8.34138 10.6084 7.93097 11.0088 7.82518C11.6644 7.65202 12.3464 7.65202 13.0019 7.82518C13.4024 7.93097 13.6413 8.34138 13.5355 8.74186C13.4297 9.14233 13.0193 9.38123 12.6188 9.27544Z" fill="black"/>
<path fill-rule="evenodd" clip-rule="evenodd" d="M11.9996 18.2504C12.4138 18.2504 12.75 18.5858 12.75 19V22C12.75 22.4142 12.4142 22.75 12 22.75C11.5858 22.75 11.25 22.4142 11.25 22V19C11.25 18.5858 11.5854 18.2504 11.9996 18.2504Z" fill="black"/>
</svg>
