<svg width="24" height="24" viewBox="0 0 24 24" fill="none" xmlns="http://www.w3.org/2000/svg">
<path d="M19.6494 8.90039C20.0636 8.90039 20.3994 9.23618 20.3994 9.65039V11.3506C20.3993 15.7318 17.0334 19.3344 12.75 19.7148V22C12.75 22.4142 12.4142 22.75 12 22.75C11.5858 22.75 11.25 22.4142 11.25 22V19.7148C6.96621 19.3347 3.59971 15.732 3.59961 11.3506V9.65039C3.59961 9.23618 3.9354 8.90039 4.34961 8.90039C4.76382 8.90039 5.09961 9.23618 5.09961 9.65039V11.3506C5.09971 15.1563 8.19428 18.25 12 18.25C15.8055 18.2498 18.8993 15.1562 18.8994 11.3506V9.65039C18.8994 9.23624 19.2353 8.9005 19.6494 8.90039ZM12 1.25C14.6242 1.25 16.75 3.37579 16.75 6V11.5C16.75 14.1242 14.6242 16.25 12 16.25C9.37579 16.25 7.25 14.1242 7.25 11.5V6C7.25 3.37579 9.37579 1.25 12 1.25ZM12 2.75C10.2042 2.75 8.75 4.20421 8.75 6V11.5C8.75 13.2958 10.2042 14.75 12 14.75C13.7958 14.75 15.25 13.2958 15.25 11.5V6C15.25 4.20421 13.7958 2.75 12 2.75Z" fill="black"/>
</svg>
