<svg width="24" height="24" viewBox="0 0 24 24" fill="none" xmlns="http://www.w3.org/2000/svg">
<path fill-rule="evenodd" clip-rule="evenodd" d="M7.25 6C7.25 3.37579 9.37579 1.25 12 1.25C14.6242 1.25 16.75 3.37579 16.75 6V6.3C16.75 6.71421 16.4142 7.05 16 7.05C15.5858 7.05 15.25 6.71421 15.25 6.3V6C15.25 4.20421 13.7958 2.75 12 2.75C10.2042 2.75 8.75 4.20421 8.75 6V11C8.75 11.4142 8.41421 11.75 8 11.75C7.58579 11.75 7.25 11.4142 7.25 11V6Z" fill="black"/>
<path fill-rule="evenodd" clip-rule="evenodd" d="M16 10.25C16.4143 10.25 16.75 10.5858 16.75 11V11.5C16.75 14.1242 14.6243 16.25 12 16.25C10.6128 16.25 9.35189 15.6563 8.48292 14.6921C8.20561 14.3844 8.23025 13.9102 8.53794 13.6329C8.84564 13.3556 9.31987 13.3802 9.59717 13.6879C10.1882 14.3437 11.0473 14.75 12 14.75C13.7958 14.75 15.25 13.2958 15.25 11.5V11C15.25 10.5858 15.5858 10.25 16 10.25Z" fill="black"/>
<path fill-rule="evenodd" clip-rule="evenodd" d="M19.6503 8.90039C20.0645 8.90039 20.4003 9.23618 20.4003 9.65039V11.3504C20.4003 15.9846 16.6345 19.7504 12.0003 19.7504C9.78272 19.7504 7.77274 18.8931 6.2704 17.5004C5.96663 17.2188 5.94866 16.7443 6.23025 16.4405C6.51185 16.1367 6.98638 16.1188 7.29015 16.4004C8.52781 17.5477 10.1778 18.2504 12.0003 18.2504C15.8061 18.2504 18.9003 15.1562 18.9003 11.3504V9.65039C18.9003 9.23618 19.2361 8.90039 19.6503 8.90039Z" fill="black"/>
<path fill-rule="evenodd" clip-rule="evenodd" d="M4.34961 8.90039C4.76382 8.90039 5.09961 9.23618 5.09961 9.65039V11.3504C5.09961 12.3095 5.28926 13.21 5.64013 14.0377C5.80179 14.419 5.62369 14.8592 5.24233 15.0209C4.86097 15.1826 4.42076 15.0045 4.25909 14.6231C3.82996 13.6108 3.59961 12.5113 3.59961 11.3504V9.65039C3.59961 9.23618 3.9354 8.90039 4.34961 8.90039Z" fill="black"/>
<path fill-rule="evenodd" clip-rule="evenodd" d="M20.5999 2.30935C20.8928 2.60215 20.893 3.07703 20.6002 3.37001L4.46018 19.52C4.16738 19.813 3.69251 19.8131 3.39952 19.5203C3.10654 19.2275 3.10639 18.7527 3.39919 18.4597L19.5392 2.30968C19.832 2.01669 20.3069 2.01655 20.5999 2.30935Z" fill="black"/>
<path fill-rule="evenodd" clip-rule="evenodd" d="M11 2.25C11.4142 2.25 11.75 2.58579 11.75 3V6C11.75 6.41421 11.4142 6.75 11 6.75C10.5858 6.75 10.25 6.41421 10.25 6V3C10.25 2.58579 10.5858 2.25 11 2.25Z" fill="black"/>
<path fill-rule="evenodd" clip-rule="evenodd" d="M12.0003 18.2504C12.4145 18.2504 12.75 18.5858 12.75 19V22C12.75 22.4142 12.4142 22.75 12 22.75C11.5858 22.75 11.25 22.4142 11.25 22V19C11.25 18.5858 11.5861 18.2504 12.0003 18.2504Z" fill="black"/>
</svg>
