<svg width="24" height="24" viewBox="0 0 24 24" fill="none" xmlns="http://www.w3.org/2000/svg">
<path fill-rule="evenodd" clip-rule="evenodd" d="M5.25 8C5.25 4.27579 8.27579 1.25 12 1.25C15.1632 1.25 17.805 3.42268 18.5469 6.34547C18.6489 6.74695 18.406 7.15503 18.0045 7.25694C17.6031 7.35886 17.195 7.11601 17.0931 6.71453C16.515 4.43732 14.4568 2.75 12 2.75C9.10421 2.75 6.75 5.10421 6.75 8V13C6.75 14.2788 7.20475 15.4497 7.96526 16.3588C8.23103 16.6765 8.18893 17.1495 7.87123 17.4153C7.55352 17.681 7.08052 17.6389 6.81474 17.3212C5.83525 16.1503 5.25 14.6412 5.25 13V8Z" fill="black"/>
<path fill-rule="evenodd" clip-rule="evenodd" d="M18.0001 9.23047C18.4143 9.23047 18.7501 9.56626 18.7501 9.98047V13.0005C18.7501 16.7247 15.7243 19.7505 12.0001 19.7505C11.1823 19.7505 10.3829 19.605 9.65678 19.3327C9.26894 19.1873 9.07244 18.755 9.21788 18.3671C9.36332 17.9793 9.79563 17.7828 10.1835 17.9282C10.7373 18.1359 11.358 18.2505 12.0001 18.2505C14.8959 18.2505 17.2501 15.8963 17.2501 13.0005V9.98047C17.2501 9.56626 17.5859 9.23047 18.0001 9.23047Z" fill="black"/>
<path fill-rule="evenodd" clip-rule="evenodd" d="M21.0004 10.25C21.4146 10.25 21.7504 10.5858 21.7504 11V13C21.7504 18.3842 17.3846 22.75 12.0004 22.75C9.43257 22.75 7.09193 21.7525 5.3491 20.1287C5.04604 19.8464 5.02925 19.3718 5.31161 19.0687C5.59397 18.7657 6.06854 18.7489 6.37161 19.0313C7.84878 20.4075 9.82814 21.25 12.0004 21.25C16.5561 21.25 20.2504 17.5558 20.2504 13V11C20.2504 10.5858 20.5861 10.25 21.0004 10.25Z" fill="black"/>
<path fill-rule="evenodd" clip-rule="evenodd" d="M22.0303 2.4599C22.3232 2.7528 22.3232 3.22767 22.0303 3.52056L3.03033 22.5206C2.73744 22.8135 2.26256 22.8135 1.96967 22.5206C1.67678 22.2277 1.67678 21.7528 1.96967 21.4599L20.9697 2.4599C21.2626 2.16701 21.7374 2.16701 22.0303 2.4599Z" fill="black"/>
<path fill-rule="evenodd" clip-rule="evenodd" d="M11.5498 1.50977C11.964 1.50977 12.2998 1.84555 12.2998 2.25977V5.49977C12.2998 5.91398 11.964 6.24977 11.5498 6.24977C11.1356 6.24977 10.7998 5.91398 10.7998 5.49977V2.25977C10.7998 1.84555 11.1356 1.50977 11.5498 1.50977Z" fill="black"/>
<path fill-rule="evenodd" clip-rule="evenodd" d="M8.5 2.75C8.91421 2.75 9.25 3.08579 9.25 3.5V7.5C9.25 7.91421 8.91421 8.25 8.5 8.25C8.08579 8.25 7.75 7.91421 7.75 7.5V3.5C7.75 3.08579 8.08579 2.75 8.5 2.75Z" fill="black"/>
</svg>
