<svg width="24" height="24" viewBox="0 0 24 24" fill="none" xmlns="http://www.w3.org/2000/svg">
<path fill-rule="evenodd" clip-rule="evenodd" d="M3.09467 3.09467C4.42914 1.7602 6.42603 1.25 9 1.25H15C17.574 1.25 19.5709 1.7602 20.9053 3.09467C22.2398 4.42914 22.75 6.42603 22.75 9V10C22.75 10.4142 22.4142 10.75 22 10.75C21.5858 10.75 21.25 10.4142 21.25 10V9C21.25 6.57397 20.7602 5.07086 19.8447 4.15533C18.9291 3.2398 17.426 2.75 15 2.75H9C6.57397 2.75 5.07086 3.2398 4.15533 4.15533C3.2398 5.07086 2.75 6.57397 2.75 9V15C2.75 17.426 3.2398 18.9291 4.15533 19.8447C5.07086 20.7602 6.57397 21.25 9 21.25H11C11.4142 21.25 11.75 21.5858 11.75 22C11.75 22.4142 11.4142 22.75 11 22.75H9C6.42603 22.75 4.42914 22.2398 3.09467 20.9053C1.7602 19.5709 1.25 17.574 1.25 15V9C1.25 6.42603 1.7602 4.42914 3.09467 3.09467Z" fill="black"/>
<path fill-rule="evenodd" clip-rule="evenodd" d="M15.2701 19.8701C14.889 19.8701 14.5801 20.179 14.5801 20.5601C14.5801 20.9412 14.889 21.2501 15.2701 21.2501C15.6512 21.2501 15.9601 20.9412 15.9601 20.5601C15.9601 20.179 15.6512 19.8701 15.2701 19.8701ZM13.0801 20.5601C13.0801 19.3506 14.0606 18.3701 15.2701 18.3701C16.4796 18.3701 17.4601 19.3506 17.4601 20.5601C17.4601 21.7696 16.4796 22.7501 15.2701 22.7501C14.0606 22.7501 13.0801 21.7696 13.0801 20.5601Z" fill="black"/>
<path fill-rule="evenodd" clip-rule="evenodd" d="M21.9081 12.2044C22.5075 12.5556 22.7502 13.2114 22.7502 13.9602V19.6002C22.7502 20.0144 22.4144 20.3502 22.0002 20.3502C21.586 20.3502 21.2502 20.0144 21.2502 19.6002V13.9602C21.2502 13.734 21.2143 13.611 21.188 13.5532C21.167 13.5069 21.152 13.4996 21.15 13.4987C21.1499 13.4986 21.15 13.4987 21.15 13.4987C21.1247 13.4839 20.9887 13.4389 20.6777 13.5237C20.6776 13.5237 20.6777 13.5237 20.6777 13.5237L17.7852 14.3145C17.5688 14.3727 17.4502 14.5134 17.4502 14.7502V20.5702C17.4502 20.9844 17.1144 21.3202 16.7002 21.3202C16.286 21.3202 15.9502 20.9844 15.9502 20.5702V14.7502C15.9502 13.7877 16.5708 13.0887 17.3937 12.8664L20.2824 12.0767C20.7413 11.9516 21.3658 11.8866 21.9081 12.2044Z" fill="black"/>
<path fill-rule="evenodd" clip-rule="evenodd" d="M20.5601 18.9102C20.179 18.9102 19.8701 19.2191 19.8701 19.6002C19.8701 19.9812 20.179 20.2902 20.5601 20.2902C20.9412 20.2902 21.2502 19.9813 21.2502 19.6002C21.2502 19.2191 20.9412 18.9102 20.5601 18.9102ZM18.3701 19.6002C18.3701 18.3907 19.3506 17.4102 20.5601 17.4102C21.7696 17.4102 22.7502 18.3907 22.7502 19.6002C22.7502 20.8097 21.7696 21.7902 20.5601 21.7902C19.3506 21.7902 18.3701 20.8097 18.3701 19.6002Z" fill="black"/>
<path fill-rule="evenodd" clip-rule="evenodd" d="M22.7238 14.7934C22.8326 15.1931 22.5968 15.6053 22.1971 15.7141L16.9071 17.1541C16.5075 17.2629 16.0953 17.0271 15.9865 16.6274C15.8777 16.2277 16.1135 15.8156 16.5132 15.7068L21.8032 14.2668C22.2028 14.158 22.615 14.3938 22.7238 14.7934Z" fill="black"/>
</svg>
