<svg width="24" height="24" viewBox="0 0 24 24" fill="none" xmlns="http://www.w3.org/2000/svg">
<path fill-rule="evenodd" clip-rule="evenodd" d="M10.5001 20.25C10.0859 20.25 9.75008 19.9142 9.75008 19.5L9.75008 14.25L4.50008 14.25C4.08587 14.25 3.75008 13.9142 3.75008 13.5C3.75008 13.0858 4.08587 12.75 4.50008 12.75H10.5001C10.9143 12.75 11.2501 13.0858 11.2501 13.5L11.2501 19.5C11.2501 19.9142 10.9143 20.25 10.5001 20.25Z" fill="black"/>
<path fill-rule="evenodd" clip-rule="evenodd" d="M2.46975 21.5303C2.17686 21.2374 2.17686 20.7626 2.46975 20.4697L9.96975 12.9697C10.2626 12.6768 10.7375 12.6768 11.0304 12.9697C11.3233 13.2626 11.3233 13.7374 11.0304 14.0303L3.53041 21.5303C3.23752 21.8232 2.76265 21.8232 2.46975 21.5303Z" fill="black"/>
<path fill-rule="evenodd" clip-rule="evenodd" d="M20.25 10.5C20.25 10.9142 19.9142 11.25 19.5 11.25H13.5C13.0858 11.25 12.75 10.9142 12.75 10.5L12.75 4.5C12.75 4.08579 13.0858 3.75 13.5 3.75C13.9142 3.75 14.25 4.08579 14.25 4.5V9.75L19.5 9.75C19.9142 9.75 20.25 10.0858 20.25 10.5Z" fill="black"/>
<path fill-rule="evenodd" clip-rule="evenodd" d="M12.9697 11.0303C12.6768 10.7374 12.6768 10.2626 12.9697 9.96967L20.4697 2.46967C20.7626 2.17678 21.2374 2.17678 21.5303 2.46967C21.8232 2.76256 21.8232 3.23744 21.5303 3.53033L14.0303 11.0303C13.7374 11.3232 13.2626 11.3232 12.9697 11.0303Z" fill="black"/>
</svg>
