<svg width="24" height="24" viewBox="0 0 24 24" fill="none" xmlns="http://www.w3.org/2000/svg">
<path fill-rule="evenodd" clip-rule="evenodd" d="M3.90533 4.90533C3.18991 5.62075 2.75 6.67044 2.75 8V9C2.75 9.41421 2.41421 9.75 2 9.75C1.58579 9.75 1.25 9.41421 1.25 9V8C1.25 6.32956 1.81009 4.87925 2.84467 3.84467C3.87925 2.81009 5.32956 2.25 7 2.25H17C18.6704 2.25 20.1207 2.81009 21.1553 3.84467C22.1899 4.87925 22.75 6.32956 22.75 8V16C22.75 17.6704 22.1899 19.1207 21.1553 20.1553C20.1207 21.1899 18.6704 21.75 17 21.75H16C15.5858 21.75 15.25 21.4142 15.25 21C15.25 20.5858 15.5858 20.25 16 20.25H17C18.3296 20.25 19.3793 19.8101 20.0947 19.0947C20.8101 18.3793 21.25 17.3296 21.25 16V8C21.25 6.67044 20.8101 5.62075 20.0947 4.90533C19.3793 4.18991 18.3296 3.75 17 3.75H7C5.67044 3.75 4.62075 4.18991 3.90533 4.90533Z" fill="black"/>
<path fill-rule="evenodd" clip-rule="evenodd" d="M2.94558 11.615C2.99805 11.2042 3.37367 10.9136 3.78454 10.9661C8.74468 11.5995 12.3996 15.2671 13.0433 20.2235C13.0966 20.6342 12.8069 21.0105 12.3961 21.0638C11.9854 21.1172 11.6091 20.8274 11.5558 20.4166C10.9995 16.133 7.87439 13.0006 3.59453 12.454C3.18365 12.4015 2.89311 12.0259 2.94558 11.615Z" fill="black"/>
<path fill-rule="evenodd" clip-rule="evenodd" d="M1.87616 14.976C1.92828 14.5651 2.30365 14.2742 2.71457 14.3264C6.44567 14.7996 9.20037 17.568 9.68397 21.2939C9.73728 21.7046 9.44751 22.0808 9.03674 22.1342C8.62597 22.1875 8.24976 21.8977 8.19644 21.4869C7.80004 18.4328 5.57472 16.2012 2.52582 15.8144C2.1149 15.7623 1.82404 15.3869 1.87616 14.976Z" fill="black"/>
<path fill-rule="evenodd" clip-rule="evenodd" d="M1.23585 18.7636C1.28932 18.3529 1.66564 18.0632 2.07639 18.1167C4.10212 18.3804 5.61944 19.8846 5.88338 21.9242C5.93654 22.335 5.64662 22.7111 5.23584 22.7642C4.82505 22.8174 4.44894 22.5275 4.39578 22.1167C4.21972 20.7562 3.23703 19.7805 1.88276 19.6042C1.47201 19.5507 1.18238 19.1744 1.23585 18.7636Z" fill="black"/>
</svg>
