<svg width="24" height="24" viewBox="0 0 24 24" fill="none" xmlns="http://www.w3.org/2000/svg">
<path fill-rule="evenodd" clip-rule="evenodd" d="M8.91499 1.25015C9.32912 1.24203 9.67143 1.57117 9.67955 1.9853L9.7095 3.5131C9.7204 3.91973 10.0614 4.25 10.4597 4.25H13.4797C13.8922 4.25 14.2297 3.90904 14.2297 3.5V2C14.2297 1.58579 14.5655 1.25 14.9797 1.25C15.3939 1.25 15.7297 1.58579 15.7297 2V3.5C15.7297 4.73096 14.7272 5.75 13.4797 5.75H10.4597C9.23846 5.75 8.23986 4.76119 8.20992 3.54855L8.20982 3.54473L8.17983 2.01471C8.17171 1.60057 8.50085 1.25827 8.91499 1.25015Z" fill="black"/>
<path fill-rule="evenodd" clip-rule="evenodd" d="M17.5303 16.4697C17.8232 16.7626 17.8232 17.2374 17.5303 17.5303L16.0607 19L17.5303 20.4697C17.8232 20.7626 17.8232 21.2374 17.5303 21.5303C17.2374 21.8232 16.7626 21.8232 16.4697 21.5303L14.4697 19.5303C14.1768 19.2374 14.1768 18.7626 14.4697 18.4697L16.4697 16.4697C16.7626 16.1768 17.2374 16.1768 17.5303 16.4697Z" fill="black"/>
<path fill-rule="evenodd" clip-rule="evenodd" d="M19.4697 16.4697C19.7626 16.1768 20.2374 16.1768 20.5303 16.4697L22.5303 18.4697C22.8232 18.7626 22.8232 19.2374 22.5303 19.5303L20.5303 21.5303C20.2374 21.8232 19.7626 21.8232 19.4697 21.5303C19.1768 21.2374 19.1768 20.7626 19.4697 20.4697L20.9393 19L19.4697 17.5303C19.1768 17.2374 19.1768 16.7626 19.4697 16.4697Z" fill="black"/>
<path fill-rule="evenodd" clip-rule="evenodd" d="M4.7371 3.88534C4.09637 4.57535 3.75 5.61497 3.75 7V17C3.75 18.385 4.09637 19.4246 4.7371 20.1147C5.36848 20.7946 6.39295 21.25 8 21.25H13C13.4142 21.25 13.75 21.5858 13.75 22C13.75 22.4142 13.4142 22.75 13 22.75H8C6.10705 22.75 4.63152 22.2054 3.6379 21.1353C2.65363 20.0754 2.25 18.615 2.25 17V7C2.25 5.38503 2.65363 3.92465 3.6379 2.86466C4.63152 1.79462 6.10705 1.25 8 1.25H16C17.893 1.25 19.3685 1.79462 20.3621 2.86466C21.3464 3.92465 21.75 5.38503 21.75 7V14C21.75 14.4142 21.4142 14.75 21 14.75C20.5858 14.75 20.25 14.4142 20.25 14V7C20.25 5.61497 19.9036 4.57535 19.2629 3.88534C18.6315 3.20538 17.607 2.75 16 2.75H8C6.39295 2.75 5.36848 3.20538 4.7371 3.88534Z" fill="black"/>
</svg>
