<svg width="24" height="24" viewBox="0 0 24 24" fill="none" xmlns="http://www.w3.org/2000/svg">
<path fill-rule="evenodd" clip-rule="evenodd" d="M3.88534 5.7371C3.20538 6.36848 2.75 7.39295 2.75 9V11C2.75 11.4142 2.41421 11.75 2 11.75C1.58579 11.75 1.25 11.4142 1.25 11V9C1.25 7.10705 1.79462 5.63152 2.86466 4.6379C3.92465 3.65363 5.38503 3.25 7 3.25H17C18.615 3.25 20.0754 3.65363 21.1353 4.6379C22.2054 5.63152 22.75 7.10705 22.75 9V15C22.75 16.893 22.2054 18.3685 21.1353 19.3621C20.0754 20.3464 18.615 20.75 17 20.75H12C11.5858 20.75 11.25 20.4142 11.25 20C11.25 19.5858 11.5858 19.25 12 19.25H17C18.385 19.25 19.4246 18.9036 20.1147 18.2629C20.7946 17.6315 21.25 16.607 21.25 15V9C21.25 7.39295 20.7946 6.36848 20.1147 5.7371C19.4246 5.09637 18.385 4.75 17 4.75H7C5.61497 4.75 4.57535 5.09637 3.88534 5.7371Z" fill="black"/>
<path fill-rule="evenodd" clip-rule="evenodd" d="M12 10.25C11.0335 10.25 10.25 11.0335 10.25 12C10.25 12.9665 11.0335 13.75 12 13.75C12.9665 13.75 13.75 12.9665 13.75 12C13.75 11.0335 12.9665 10.25 12 10.25ZM8.75 12C8.75 10.2051 10.2051 8.75 12 8.75C13.7949 8.75 15.25 10.2051 15.25 12C15.25 13.7949 13.7949 15.25 12 15.25C10.2051 15.25 8.75 13.7949 8.75 12Z" fill="black"/>
<path fill-rule="evenodd" clip-rule="evenodd" d="M18.5 8.75C18.9142 8.75 19.25 9.08579 19.25 9.5V14.5C19.25 14.9142 18.9142 15.25 18.5 15.25C18.0858 15.25 17.75 14.9142 17.75 14.5V9.5C17.75 9.08579 18.0858 8.75 18.5 8.75Z" fill="black"/>
<path fill-rule="evenodd" clip-rule="evenodd" d="M1.25 15.5C1.25 15.0858 1.58579 14.75 2 14.75H7.34003C8.39424 14.75 9.25 15.6058 9.25 16.66V17.94C9.25 18.3542 8.91421 18.69 8.5 18.69C8.08579 18.69 7.75 18.3542 7.75 17.94V16.66C7.75 16.4342 7.56581 16.25 7.34003 16.25H2C1.58579 16.25 1.25 15.9142 1.25 15.5Z" fill="black"/>
<path fill-rule="evenodd" clip-rule="evenodd" d="M3.7503 13.7499C4.04319 14.0428 4.04319 14.5177 3.7503 14.8106L3.06066 15.5002L3.7503 16.1899C4.04319 16.4828 4.04319 16.9577 3.7503 17.2505C3.45741 17.5434 2.98253 17.5434 2.68964 17.2505L1.46967 16.0306C1.17678 15.7377 1.17678 15.2628 1.46967 14.9699L2.68964 13.7499C2.98253 13.4571 3.45741 13.4571 3.7503 13.7499Z" fill="black"/>
<path fill-rule="evenodd" clip-rule="evenodd" d="M2 17.5898C2.41421 17.5898 2.75 17.9256 2.75 18.3398V19.6198C2.75 19.8456 2.93424 20.0298 3.15997 20.0298H8.5C8.91421 20.0298 9.25 20.3656 9.25 20.7798C9.25 21.1941 8.91421 21.5298 8.5 21.5298H3.15997C2.10571 21.5298 1.25 20.674 1.25 19.6198V18.3398C1.25 17.9256 1.58579 17.5898 2 17.5898Z" fill="black"/>
<path fill-rule="evenodd" clip-rule="evenodd" d="M6.75093 19.0302C7.04383 18.7373 7.51871 18.7373 7.81159 19.0302L9.03156 20.2503C9.32444 20.5432 9.32444 21.018 9.03155 21.3109L7.81158 22.5309C7.51869 22.8238 7.04381 22.8238 6.75092 22.5309C6.45803 22.238 6.45803 21.7631 6.75092 21.4702L7.44057 20.7806L6.75091 20.0909C6.45802 19.798 6.45803 19.3231 6.75093 19.0302Z" fill="black"/>
</svg>
