<svg width="24" height="24" viewBox="0 0 24 24" fill="none" xmlns="http://www.w3.org/2000/svg">
<path fill-rule="evenodd" clip-rule="evenodd" d="M12 10.25C11.0335 10.25 10.25 11.0335 10.25 12C10.25 12.9665 11.0335 13.75 12 13.75C12.9665 13.75 13.75 12.9665 13.75 12C13.75 11.0335 12.9665 10.25 12 10.25ZM8.75 12C8.75 10.2051 10.2051 8.75 12 8.75C13.7949 8.75 15.25 10.2051 15.25 12C15.25 13.7949 13.7949 15.25 12 15.25C10.2051 15.25 8.75 13.7949 8.75 12Z" fill="black"/>
<path fill-rule="evenodd" clip-rule="evenodd" d="M18.5 8.75C18.9142 8.75 19.25 9.08579 19.25 9.5V14.5C19.25 14.9142 18.9142 15.25 18.5 15.25C18.0858 15.25 17.75 14.9142 17.75 14.5V9.5C17.75 9.08579 18.0858 8.75 18.5 8.75Z" fill="black"/>
<path fill-rule="evenodd" clip-rule="evenodd" d="M5 14.75C3.20507 14.75 1.75 16.2051 1.75 18C1.75 19.7949 3.20507 21.25 5 21.25C6.79493 21.25 8.25 19.7949 8.25 18C8.25 16.2051 6.79493 14.75 5 14.75ZM0.25 18C0.25 15.3766 2.37665 13.25 5 13.25C7.62335 13.25 9.75 15.3766 9.75 18C9.75 20.6234 7.62335 22.75 5 22.75C2.37665 22.75 0.25 20.6234 0.25 18Z" fill="black"/>
<path fill-rule="evenodd" clip-rule="evenodd" d="M5.25011 16C5.66432 16 6.00011 16.3358 6.00011 16.75V17.68C6.00011 18.2837 5.68989 18.8641 5.14344 19.1847L4.38847 19.6416C4.03412 19.8561 3.57298 19.7427 3.35849 19.3884C3.14401 19.034 3.25739 18.5729 3.61175 18.3584L4.38346 17.8913C4.45283 17.851 4.50011 17.7738 4.50011 17.68V16.75C4.50011 16.3358 4.8359 16 5.25011 16Z" fill="black"/>
<path fill-rule="evenodd" clip-rule="evenodd" d="M3.88534 5.7371C3.20538 6.36848 2.75 7.39295 2.75 9V15.2C2.75 15.6142 2.41421 15.95 2 15.95C1.58579 15.95 1.25 15.6142 1.25 15.2V9C1.25 7.10705 1.79462 5.63152 2.86466 4.6379C3.92465 3.65363 5.38503 3.25 7 3.25H17C18.615 3.25 20.0754 3.65363 21.1353 4.6379C22.2054 5.63152 22.75 7.10705 22.75 9V15C22.75 16.893 22.2054 18.3685 21.1353 19.3621C20.0754 20.3464 18.615 20.75 17 20.75H8.5C8.08579 20.75 7.75 20.4142 7.75 20C7.75 19.5858 8.08579 19.25 8.5 19.25H17C18.385 19.25 19.4246 18.9036 20.1147 18.2629C20.7946 17.6315 21.25 16.607 21.25 15V9C21.25 7.39295 20.7946 6.36848 20.1147 5.7371C19.4246 5.09637 18.385 4.75 17 4.75H7C5.61497 4.75 4.57535 5.09637 3.88534 5.7371Z" fill="black"/>
</svg>
