<svg width="24" height="24" viewBox="0 0 24 24" fill="none" xmlns="http://www.w3.org/2000/svg">
<path fill-rule="evenodd" clip-rule="evenodd" d="M12 10.25C11.0335 10.25 10.25 11.0335 10.25 12C10.25 12.9665 11.0335 13.75 12 13.75C12.9665 13.75 13.75 12.9665 13.75 12C13.75 11.0335 12.9665 10.25 12 10.25ZM8.75 12C8.75 10.2051 10.2051 8.75 12 8.75C13.7949 8.75 15.25 10.2051 15.25 12C15.25 13.7949 13.7949 15.25 12 15.25C10.2051 15.25 8.75 13.7949 8.75 12Z" fill="black"/>
<path fill-rule="evenodd" clip-rule="evenodd" d="M18.5 8.75C18.9142 8.75 19.25 9.08579 19.25 9.5V14.5C19.25 14.9142 18.9142 15.25 18.5 15.25C18.0858 15.25 17.75 14.9142 17.75 14.5V9.5C17.75 9.08579 18.0858 8.75 18.5 8.75Z" fill="black"/>
<path fill-rule="evenodd" clip-rule="evenodd" d="M5 14.75C3.20421 14.75 1.75 16.2042 1.75 18C1.75 18.6094 1.92051 19.1833 2.21836 19.6663L2.22465 19.6765C2.78446 20.6177 3.81412 21.25 5 21.25C6.18588 21.25 7.21562 20.6177 7.77543 19.6766L7.78155 19.6663C8.07941 19.1833 8.25 18.6094 8.25 18C8.25 16.2042 6.79579 14.75 5 14.75ZM0.25 18C0.25 15.3758 2.37579 13.25 5 13.25C7.62421 13.25 9.75 15.3758 9.75 18C9.75 18.8885 9.50171 19.7327 9.06152 20.4486C8.24064 21.8246 6.73196 22.75 5 22.75C3.26804 22.75 1.75935 21.8246 0.938466 20.4486C0.498283 19.7327 0.25 18.8885 0.25 18Z" fill="black"/>
<path fill-rule="evenodd" clip-rule="evenodd" d="M2.76172 17.9795C2.76172 17.5653 3.09751 17.2295 3.51172 17.2295H6.4917C6.90591 17.2295 7.2417 17.5653 7.2417 17.9795C7.2417 18.3937 6.90591 18.7295 6.4917 18.7295H3.51172C3.09751 18.7295 2.76172 18.3937 2.76172 17.9795Z" fill="black"/>
<path fill-rule="evenodd" clip-rule="evenodd" d="M5 15.7695C5.41421 15.7695 5.75 16.1053 5.75 16.5195V19.5095C5.75 19.9237 5.41421 20.2595 5 20.2595C4.58579 20.2595 4.25 19.9237 4.25 19.5095V16.5195C4.25 16.1053 4.58579 15.7695 5 15.7695Z" fill="black"/>
<path fill-rule="evenodd" clip-rule="evenodd" d="M3.88534 5.7371C3.20538 6.36848 2.75 7.39295 2.75 9V15.3C2.75 15.7142 2.41421 16.05 2 16.05C1.58579 16.05 1.25 15.7142 1.25 15.3V9C1.25 7.10705 1.79462 5.63152 2.86466 4.6379C3.92465 3.65363 5.38503 3.25 7 3.25H17C18.615 3.25 20.0754 3.65363 21.1353 4.6379C22.2054 5.63152 22.75 7.10705 22.75 9V15C22.75 16.893 22.2054 18.3685 21.1353 19.3621C20.0754 20.3464 18.615 20.75 17 20.75H8.5C8.08579 20.75 7.75 20.4142 7.75 20C7.75 19.5858 8.08579 19.25 8.5 19.25H17C18.385 19.25 19.4246 18.9036 20.1147 18.2629C20.7946 17.6315 21.25 16.607 21.25 15V9C21.25 7.39295 20.7946 6.36848 20.1147 5.7371C19.4246 5.09637 18.385 4.75 17 4.75H7C5.61497 4.75 4.57535 5.09637 3.88534 5.7371Z" fill="black"/>
</svg>
