<svg width="24" height="24" viewBox="0 0 24 24" fill="none" xmlns="http://www.w3.org/2000/svg">
<path fill-rule="evenodd" clip-rule="evenodd" d="M12 2.75C6.89137 2.75 2.75 6.89137 2.75 12C2.75 17.1086 6.89137 21.25 12 21.25C17.1086 21.25 21.25 17.1086 21.25 12C21.25 6.89137 17.1086 2.75 12 2.75ZM1.25 12C1.25 6.06294 6.06294 1.25 12 1.25C17.9371 1.25 22.75 6.06294 22.75 12C22.75 17.9371 17.9371 22.75 12 22.75C6.06294 22.75 1.25 17.9371 1.25 12Z" fill="black"/>
<path fill-rule="evenodd" clip-rule="evenodd" d="M6.74429 8.29483C7.0412 8.18734 7.37363 8.27732 7.57578 8.5199L11.9996 13.8285L16.4234 8.5199C16.6256 8.27732 16.958 8.18734 17.2549 8.29483C17.5518 8.40233 17.7496 8.68427 17.7496 9.00004V14.25H20.8996C21.3138 14.25 21.6496 14.5858 21.6496 15C21.6496 15.4143 21.3138 15.75 20.8996 15.75H16.9996C16.5854 15.75 16.2496 15.4143 16.2496 15V11.0716L12.5758 15.4802C12.4333 15.6512 12.2222 15.75 11.9996 15.75C11.777 15.75 11.5659 15.6512 11.4234 15.4802L7.74961 11.0716V15C7.74961 15.4143 7.41382 15.75 6.99961 15.75H3.09961C2.6854 15.75 2.34961 15.4143 2.34961 15C2.34961 14.5858 2.6854 14.25 3.09961 14.25H6.24961V9.00004C6.24961 8.68427 6.44739 8.40233 6.74429 8.29483Z" fill="black"/>
</svg>
