<svg width="24" height="24" viewBox="0 0 24 24" fill="none" xmlns="http://www.w3.org/2000/svg">
<path fill-rule="evenodd" clip-rule="evenodd" d="M3.41908 3.41908C2.9912 3.84696 2.75 4.66007 2.75 6.44V12.78C2.75 14.5599 2.9912 15.373 3.41908 15.8009C3.84696 16.2288 4.66007 16.47 6.44 16.47H17.56C19.3414 16.47 20.1539 16.2309 20.5814 15.8042C21.0085 15.3778 21.25 14.5656 21.25 12.78V11.89C21.25 11.4758 21.5858 11.14 22 11.14C22.4142 11.14 22.75 11.4758 22.75 11.89V12.78C22.75 14.5544 22.5465 15.9622 21.6411 16.8658C20.7361 17.7691 19.3286 17.97 17.56 17.97H6.44C4.66993 17.97 3.26304 17.7662 2.35842 16.8616C1.4538 15.957 1.25 14.5501 1.25 12.78V6.44C1.25 4.66993 1.4538 3.26304 2.35842 2.35842C3.26304 1.4538 4.66993 1.25 6.44 1.25H8C8.41421 1.25 8.75 1.58579 8.75 2C8.75 2.41421 8.41421 2.75 8 2.75H6.44C4.66007 2.75 3.84696 2.9912 3.41908 3.41908Z" fill="black"/>
<path fill-rule="evenodd" clip-rule="evenodd" d="M12 16.4697C12.4142 16.4697 12.75 16.8055 12.75 17.2197V21.9997C12.75 22.4139 12.4142 22.7497 12 22.7497C11.5858 22.7497 11.25 22.4139 11.25 21.9997V17.2197C11.25 16.8055 11.5858 16.4697 12 16.4697Z" fill="black"/>
<path fill-rule="evenodd" clip-rule="evenodd" d="M1.25 13C1.25 12.5858 1.58579 12.25 2 12.25H22C22.4142 12.25 22.75 12.5858 22.75 13C22.75 13.4142 22.4142 13.75 22 13.75H2C1.58579 13.75 1.25 13.4142 1.25 13Z" fill="black"/>
<path fill-rule="evenodd" clip-rule="evenodd" d="M6.75 22C6.75 21.5858 7.08579 21.25 7.5 21.25H16.5C16.9142 21.25 17.25 21.5858 17.25 22C17.25 22.4142 16.9142 22.75 16.5 22.75H7.5C7.08579 22.75 6.75 22.4142 6.75 22Z" fill="black"/>
<path fill-rule="evenodd" clip-rule="evenodd" d="M13.2598 2.75977C12.574 2.75977 12.0098 3.32398 12.0098 4.00977V7.52977C12.0098 7.87834 12.0984 8.14654 12.2384 8.31463C12.3584 8.45865 12.5901 8.61977 13.0998 8.61977H17.8598C18.4656 8.61977 18.9498 8.13555 18.9498 7.52977V3.84977C18.9498 3.24398 18.4656 2.75977 17.8598 2.75977H13.2598ZM10.5098 4.00977C10.5098 2.49555 11.7456 1.25977 13.2598 1.25977H17.8598C19.294 1.25977 20.4498 2.41555 20.4498 3.84977V7.52977C20.4498 8.96398 19.294 10.1198 17.8598 10.1198H13.0998C12.2294 10.1198 11.5411 9.82088 11.0861 9.2749C10.6512 8.75299 10.5098 8.10119 10.5098 7.52977V4.00977Z" fill="black"/>
<path fill-rule="evenodd" clip-rule="evenodd" d="M21.2502 4.13747L20.4502 4.69945V6.68005L21.2502 7.24204V4.13747ZM22.0257 2.65156C22.578 2.93823 22.7502 3.52915 22.7502 4.02975V7.35975C22.7502 7.85878 22.5787 8.45318 22.0223 8.73841C21.4695 9.02185 20.8873 8.81921 20.4801 8.53418L19.2691 7.68346C19.0692 7.54303 18.9502 7.31405 18.9502 7.06975V4.30975C18.9502 4.06546 19.0692 3.83647 19.2691 3.69604L20.487 2.84047C20.8964 2.56069 21.4774 2.36703 22.0257 2.65156Z" fill="black"/>
</svg>
