<svg width="24" height="24" viewBox="0 0 24 24" fill="none" xmlns="http://www.w3.org/2000/svg">
<path fill-rule="evenodd" clip-rule="evenodd" d="M3.37158 3.90185C2.97898 4.29446 2.75 5.04946 2.75 6.74027V12.7403C2.75 14.4311 2.97898 15.1861 3.37158 15.5787C3.76418 15.9713 4.51919 16.2003 6.21 16.2003H10C10.4142 16.2003 10.75 16.5361 10.75 16.9503C10.75 17.3645 10.4142 17.7003 10 17.7003H6.21C4.53081 17.7003 3.18082 17.5093 2.31092 16.6394C1.44102 15.7695 1.25 14.4195 1.25 12.7403V6.74027C1.25 5.06109 1.44102 3.71109 2.31092 2.84119C3.18082 1.9713 4.53081 1.78027 6.21 1.78027H16.74C18.4192 1.78027 19.7692 1.9713 20.6391 2.84119C21.509 3.71109 21.7 5.06109 21.7 6.74027C21.7 7.15449 21.3642 7.49027 20.95 7.49027C20.5358 7.49027 20.2 7.15449 20.2 6.74027C20.2 5.04946 19.971 4.29446 19.5784 3.90185C19.1858 3.50925 18.4308 3.28027 16.74 3.28027H6.21C4.51919 3.28027 3.76418 3.50925 3.37158 3.90185Z" fill="black"/>
<path fill-rule="evenodd" clip-rule="evenodd" d="M10 16.2003C10.4142 16.2003 10.75 16.5361 10.75 16.9503V21.4702C10.75 21.8844 10.4142 22.2202 10 22.2202C9.58579 22.2202 9.25 21.8844 9.25 21.4702V16.9502C9.25 16.536 9.58579 16.2003 10 16.2003Z" fill="black"/>
<path fill-rule="evenodd" clip-rule="evenodd" d="M1.25 12.9502C1.25 12.536 1.58579 12.2002 2 12.2002H10C10.4142 12.2002 10.75 12.536 10.75 12.9502C10.75 13.3644 10.4142 13.7002 10 13.7002H2C1.58579 13.7002 1.25 13.3644 1.25 12.9502Z" fill="black"/>
<path fill-rule="evenodd" clip-rule="evenodd" d="M5.99023 21.4697C5.99023 21.0555 6.32602 20.7197 6.74023 20.7197H10.0002C10.4144 20.7197 10.75 21.056 10.75 21.4702C10.75 21.8844 10.4142 22.2202 10 22.2202L6.74023 22.2197C6.32602 22.2197 5.99023 21.8839 5.99023 21.4697Z" fill="black"/>
<path fill-rule="evenodd" clip-rule="evenodd" d="M13.6519 10.9614C13.4468 11.1665 13.2803 11.6088 13.2803 12.7998V18.5098C13.2803 19.7008 13.4468 20.1432 13.6519 20.3483C13.8569 20.5533 14.2993 20.7198 15.4903 20.7198H19.0403C20.2313 20.7198 20.6737 20.5533 20.8787 20.3483C21.0837 20.1432 21.2503 19.7008 21.2503 18.5098V12.7998C21.2503 11.6088 21.0837 11.1665 20.8787 10.9614C20.6736 10.7564 20.2313 10.5898 19.0403 10.5898H15.4903C14.2993 10.5898 13.8569 10.7564 13.6519 10.9614ZM12.5912 9.90076C13.2737 9.21831 14.3113 9.08984 15.4903 9.08984H19.0403C20.2193 9.08984 21.2569 9.21831 21.9394 9.90076C22.6218 10.5832 22.7503 11.6208 22.7503 12.7998V18.5098C22.7503 19.6888 22.6218 20.7265 21.9394 21.4089C21.2569 22.0914 20.2193 22.2198 19.0403 22.2198H15.4903C14.3113 22.2198 13.2737 22.0914 12.5912 21.4089C11.9087 20.7265 11.7803 19.6888 11.7803 18.5098V12.7998C11.7803 11.6208 11.9087 10.5832 12.5912 9.90076Z" fill="black"/>
<path fill-rule="evenodd" clip-rule="evenodd" d="M16.2441 18.25C16.2441 17.6977 16.6919 17.25 17.2441 17.25H17.2531C17.8054 17.25 18.2531 17.6977 18.2531 18.25C18.2531 18.8023 17.8054 19.25 17.2531 19.25H17.2441C16.6919 19.25 16.2441 18.8023 16.2441 18.25Z" fill="black"/>
</svg>
