<svg width="24" height="24" viewBox="0 0 24 24" fill="none" xmlns="http://www.w3.org/2000/svg">
<path fill-rule="evenodd" clip-rule="evenodd" d="M10.2352 1.62984C10.8577 2.21519 10.7142 3.10867 10.4178 3.78943L10.4173 3.7906C9.96799 4.81751 9.72097 5.94337 9.73013 7.13421L9.73015 7.13688C9.74844 11.5563 13.422 15.3266 17.9208 15.5106L17.9214 15.5106C18.5856 15.5383 19.2205 15.4922 19.837 15.3819C20.2418 15.3082 20.6358 15.2958 20.9885 15.378C21.3479 15.4619 21.7051 15.6568 21.9264 16.0189C22.1467 16.3795 22.1582 16.7846 22.0737 17.14C21.9905 17.4901 21.8069 17.8358 21.5646 18.164C19.4404 21.0702 15.9042 22.9104 11.9577 22.7393L11.9572 22.7393C6.35649 22.493 1.66975 18.0129 1.28204 12.4732C0.927802 7.5624 3.8423 3.28549 8.07872 1.49892C8.75853 1.21098 9.63602 1.06646 10.2352 1.62984ZM9.17031 2.74535C9.07022 2.74811 8.90207 2.77908 8.66292 2.88048L8.66158 2.88105C4.97825 4.43437 2.47284 8.13707 2.7782 12.366L2.77833 12.3677C3.11104 17.1274 7.16385 21.0268 12.0226 21.2407M9.25063 2.7515C9.2506 2.75153 9.24977 2.75131 9.24825 2.75071C9.24991 2.75116 9.25067 2.75146 9.25063 2.7515ZM9.17031 2.74535C9.16436 2.83328 9.13423 2.97978 9.04281 3.18988C8.51239 4.40245 8.21952 5.73596 8.23016 7.14442C8.25259 12.3844 12.5787 16.7934 17.8595 17.0094C18.6347 17.0416 19.3793 16.9877 20.1024 16.8582L20.1048 16.8578C20.3442 16.8141 20.5064 16.8161 20.604 16.8306C20.574 16.9267 20.5034 17.0761 20.3569 17.2743L20.3546 17.2775C18.5187 19.7903 15.4556 21.3894 12.0231 21.2407M20.6954 16.854C20.6954 16.854 20.6949 16.8538 20.6941 16.8533L20.6954 16.854ZM20.6227 16.74C20.6226 16.7387 20.6226 16.738 20.6226 16.7379C20.6227 16.7379 20.6227 16.7386 20.6227 16.74Z" fill="black"/>
</svg>
