<svg width="24" height="24" viewBox="0 0 24 24" fill="none" xmlns="http://www.w3.org/2000/svg">
<path fill-rule="evenodd" clip-rule="evenodd" d="M3.09467 3.09467C4.42914 1.7602 6.42603 1.25 9 1.25H15C17.574 1.25 19.5709 1.7602 20.9053 3.09467C22.2398 4.42914 22.75 6.42603 22.75 9V15C22.75 17.574 22.2398 19.5709 20.9053 20.9053C19.5709 22.2398 17.574 22.75 15 22.75H9C6.42603 22.75 4.42914 22.2398 3.09467 20.9053C1.7602 19.5709 1.25 17.574 1.25 15V9C1.25 6.42603 1.7602 4.42914 3.09467 3.09467ZM4.15533 4.15533C3.2398 5.07086 2.75 6.57397 2.75 9V15C2.75 17.426 3.2398 18.9291 4.15533 19.8447C5.07086 20.7602 6.57397 21.25 9 21.25H15C17.426 21.25 18.9291 20.7602 19.8447 19.8447C20.7602 18.9291 21.25 17.426 21.25 15V9C21.25 6.57397 20.7602 5.07086 19.8447 4.15533C18.9291 3.2398 17.426 2.75 15 2.75H9C6.57397 2.75 5.07086 3.2398 4.15533 4.15533Z" fill="black"/>
<path fill-rule="evenodd" clip-rule="evenodd" d="M14.9961 12C14.9961 11.4477 15.4438 11 15.9961 11H16.0051C16.5574 11 17.0051 11.4477 17.0051 12C17.0051 12.5523 16.5574 13 16.0051 13H15.9961C15.4438 13 14.9961 12.5523 14.9961 12Z" fill="black"/>
<path fill-rule="evenodd" clip-rule="evenodd" d="M10.9951 12C10.9951 11.4477 11.4428 11 11.9951 11H12.0041C12.5564 11 13.0041 11.4477 13.0041 12C13.0041 12.5523 12.5564 13 12.0041 13H11.9951C11.4428 13 10.9951 12.5523 10.9951 12Z" fill="black"/>
<path fill-rule="evenodd" clip-rule="evenodd" d="M6.99414 12C6.99414 11.4477 7.44186 11 7.99414 11H8.00312C8.55541 11 9.00312 11.4477 9.00312 12C9.00312 12.5523 8.55541 13 8.00312 13H7.99414C7.44186 13 6.99414 12.5523 6.99414 12Z" fill="black"/>
</svg>
