<svg width="24" height="24" viewBox="0 0 24 24" fill="none" xmlns="http://www.w3.org/2000/svg">
<path fill-rule="evenodd" clip-rule="evenodd" d="M9.08984 7.16C9.08984 5.55579 10.3956 4.25 11.9998 4.25C13.6041 4.25 14.9098 5.55579 14.9098 7.16C14.9098 8.76421 13.6041 10.07 11.9998 10.07C10.3956 10.07 9.08984 8.76421 9.08984 7.16ZM11.9998 5.75C11.2241 5.75 10.5898 6.38421 10.5898 7.16C10.5898 7.93579 11.2241 8.57 11.9998 8.57C12.7756 8.57 13.4098 7.93579 13.4098 7.16C13.4098 6.38421 12.7756 5.75 11.9998 5.75Z" fill="black"/>
<path fill-rule="evenodd" clip-rule="evenodd" d="M3.87988 16.8397C3.87988 15.2355 5.18567 13.9297 6.78988 13.9297C8.3941 13.9297 9.69988 15.2355 9.69988 16.8397C9.69988 18.4439 8.3941 19.7497 6.78988 19.7497C5.17341 19.7497 3.87988 18.4416 3.87988 16.8397ZM6.78988 15.4297C6.0141 15.4297 5.37988 16.0639 5.37988 16.8397C5.37988 17.6177 6.00636 18.2497 6.78988 18.2497C7.56567 18.2497 8.19988 17.6155 8.19988 16.8397C8.19988 16.0639 7.56567 15.4297 6.78988 15.4297Z" fill="black"/>
<path fill-rule="evenodd" clip-rule="evenodd" d="M14.2998 16.8397C14.2998 15.2355 15.6056 13.9297 17.2098 13.9297C18.814 13.9297 20.1198 15.2355 20.1198 16.8397C20.1198 18.4439 18.814 19.7497 17.2098 19.7497C15.6056 19.7497 14.2998 18.4439 14.2998 16.8397ZM17.2098 15.4297C16.434 15.4297 15.7998 16.0639 15.7998 16.8397C15.7998 17.6155 16.434 18.2497 17.2098 18.2497C17.9856 18.2497 18.6198 17.6155 18.6198 16.8397C18.6198 16.0639 17.9856 15.4297 17.2098 15.4297Z" fill="black"/>
</svg>
