<svg width="24" height="24" viewBox="0 0 24 24" fill="none" xmlns="http://www.w3.org/2000/svg">
<path fill-rule="evenodd" clip-rule="evenodd" d="M1.25 12C1.25 6.08579 6.08579 1.25 12 1.25C17.9142 1.25 22.75 6.08579 22.75 12C22.75 17.9142 17.9142 22.75 12 22.75C6.08579 22.75 1.25 17.9142 1.25 12ZM12 2.75C6.91421 2.75 2.75 6.91421 2.75 12C2.75 17.0858 6.91421 21.25 12 21.25C17.0858 21.25 21.25 17.0858 21.25 12C21.25 6.91421 17.0858 2.75 12 2.75Z" fill="black"/>
<path fill-rule="evenodd" clip-rule="evenodd" d="M14.9961 12C14.9961 11.4477 15.4438 11 15.9961 11H16.0051C16.5574 11 17.0051 11.4477 17.0051 12C17.0051 12.5523 16.5574 13 16.0051 13H15.9961C15.4438 13 14.9961 12.5523 14.9961 12Z" fill="black"/>
<path fill-rule="evenodd" clip-rule="evenodd" d="M10.9951 12C10.9951 11.4477 11.4428 11 11.9951 11H12.0041C12.5564 11 13.0041 11.4477 13.0041 12C13.0041 12.5523 12.5564 13 12.0041 13H11.9951C11.4428 13 10.9951 12.5523 10.9951 12Z" fill="black"/>
<path fill-rule="evenodd" clip-rule="evenodd" d="M6.99414 12C6.99414 11.4477 7.44186 11 7.99414 11H8.00312C8.55541 11 9.00312 11.4477 9.00312 12C9.00312 12.5523 8.55541 13 8.00312 13H7.99414C7.44186 13 6.99414 12.5523 6.99414 12Z" fill="black"/>
</svg>
