<svg width="24" height="24" viewBox="0 0 24 24" fill="none" xmlns="http://www.w3.org/2000/svg">
<path fill-rule="evenodd" clip-rule="evenodd" d="M4.75 12C4.75 11.8619 4.86193 11.75 5 11.75C5.13807 11.75 5.25 11.8619 5.25 12C5.25 12.1381 5.13807 12.25 5 12.25C4.86193 12.25 4.75 12.1381 4.75 12ZM5 10.25C4.0335 10.25 3.25 11.0335 3.25 12C3.25 12.9665 4.0335 13.75 5 13.75C5.9665 13.75 6.75 12.9665 6.75 12C6.75 11.0335 5.9665 10.25 5 10.25ZM11.75 12C11.75 11.8619 11.8619 11.75 12 11.75C12.1381 11.75 12.25 11.8619 12.25 12C12.25 12.1381 12.1381 12.25 12 12.25C11.8619 12.25 11.75 12.1381 11.75 12ZM12 10.25C11.0335 10.25 10.25 11.0335 10.25 12C10.25 12.9665 11.0335 13.75 12 13.75C12.9665 13.75 13.75 12.9665 13.75 12C13.75 11.0335 12.9665 10.25 12 10.25ZM18.75 12C18.75 11.8619 18.8619 11.75 19 11.75C19.1381 11.75 19.25 11.8619 19.25 12C19.25 12.1381 19.1381 12.25 19 12.25C18.8619 12.25 18.75 12.1381 18.75 12ZM19 10.25C18.0335 10.25 17.25 11.0335 17.25 12C17.25 12.9665 18.0335 13.75 19 13.75C19.9665 13.75 20.75 12.9665 20.75 12C20.75 11.0335 19.9665 10.25 19 10.25Z" fill="black"/>
<path fill-rule="evenodd" clip-rule="evenodd" d="M4.75 12C4.75 11.8619 4.86193 11.75 5 11.75C5.13807 11.75 5.25 11.8619 5.25 12C5.25 12.1381 5.13807 12.25 5 12.25C4.86193 12.25 4.75 12.1381 4.75 12ZM5 10.25C4.0335 10.25 3.25 11.0335 3.25 12C3.25 12.9665 4.0335 13.75 5 13.75C5.9665 13.75 6.75 12.9665 6.75 12C6.75 11.0335 5.9665 10.25 5 10.25ZM11.75 12C11.75 11.8619 11.8619 11.75 12 11.75C12.1381 11.75 12.25 11.8619 12.25 12C12.25 12.1381 12.1381 12.25 12 12.25C11.8619 12.25 11.75 12.1381 11.75 12ZM12 10.25C11.0335 10.25 10.25 11.0335 10.25 12C10.25 12.9665 11.0335 13.75 12 13.75C12.9665 13.75 13.75 12.9665 13.75 12C13.75 11.0335 12.9665 10.25 12 10.25ZM18.75 12C18.75 11.8619 18.8619 11.75 19 11.75C19.1381 11.75 19.25 11.8619 19.25 12C19.25 12.1381 19.1381 12.25 19 12.25C18.8619 12.25 18.75 12.1381 18.75 12ZM19 10.25C18.0335 10.25 17.25 11.0335 17.25 12C17.25 12.9665 18.0335 13.75 19 13.75C19.9665 13.75 20.75 12.9665 20.75 12C20.75 11.0335 19.9665 10.25 19 10.25Z" fill="black"/>
</svg>
