<svg width="24" height="24" viewBox="0 0 24 24" fill="none" xmlns="http://www.w3.org/2000/svg">
<path fill-rule="evenodd" clip-rule="evenodd" d="M8.54727 9.61954L8.54783 9.62138L10.4969 15.8983C10.7437 16.6979 11.8587 16.7031 12.1178 15.9152L12.1191 15.9111L12.6987 14.1824C12.9334 13.4789 13.4789 12.933 14.1823 12.6983L15.9118 12.1184L15.9145 12.1175C16.6952 11.8591 16.6987 10.7399 15.8962 10.4853L15.8946 10.4848L9.60887 8.53611C8.96512 8.33748 8.34051 8.93466 8.54727 9.61954ZM7.11268 10.0577C6.56115 8.24342 8.23608 6.54205 10.0516 7.10295L16.3459 9.05424C18.5213 9.74046 18.5648 12.8188 16.3874 13.541L16.386 13.5415L14.6574 14.121C14.4014 14.2064 14.2071 14.4007 14.1218 14.6567L13.5427 16.3838L13.542 16.3861C12.8198 18.5757 9.73708 18.5204 9.06381 16.3413L7.11268 10.0577Z" fill="black"/>
<path fill-rule="evenodd" clip-rule="evenodd" d="M12 2.75C6.89137 2.75 2.75 6.89137 2.75 12C2.75 17.1086 6.89137 21.25 12 21.25C17.1086 21.25 21.25 17.1086 21.25 12C21.25 6.89137 17.1086 2.75 12 2.75ZM1.25 12C1.25 6.06294 6.06294 1.25 12 1.25C17.9371 1.25 22.75 6.06294 22.75 12C22.75 17.9371 17.9371 22.75 12 22.75C6.06294 22.75 1.25 17.9371 1.25 12Z" fill="black"/>
</svg>
