<svg width="24" height="24" viewBox="0 0 24 24" fill="none" xmlns="http://www.w3.org/2000/svg">
<path fill-rule="evenodd" clip-rule="evenodd" d="M13.7968 14.779L15.6459 20.7261C15.8718 21.4491 16.8715 21.4532 17.1085 20.7423L17.1093 20.7397L17.6582 19.113C17.885 18.4219 18.4253 17.901 19.0913 17.6785L19.0928 17.678L20.7213 17.1285C21.4368 16.8883 21.4174 15.8767 20.7162 15.6553L20.7151 15.655L14.7576 13.8058L14.7538 13.8046C14.1774 13.6223 13.6093 14.16 13.7968 14.779ZM15.204 12.3738C13.4418 11.8182 11.8319 13.4787 12.3626 15.2184L14.2138 21.1722C14.8679 23.2684 17.8272 23.3257 18.531 21.218L18.5315 21.2167L19.0806 19.5893L19.083 19.582C19.1569 19.3556 19.3352 19.1784 19.5671 19.101L21.1987 18.5505C23.282 17.8504 23.2623 14.8832 21.1648 14.224L15.2061 12.3744L15.204 12.3738Z" fill="black"/>
<path fill-rule="evenodd" clip-rule="evenodd" d="M1.25 12C1.25 6.06579 6.06579 1.25 12 1.25C17.9342 1.25 22.75 6.06579 22.75 12C22.75 12.4142 22.4142 12.75 22 12.75C21.5858 12.75 21.25 12.4142 21.25 12C21.25 6.89421 17.1058 2.75 12 2.75C6.89421 2.75 2.75 6.89421 2.75 12C2.75 17.1058 6.89421 21.25 12 21.25C12.4142 21.25 12.75 21.5858 12.75 22C12.75 22.4142 12.4142 22.75 12 22.75C6.06579 22.75 1.25 17.9342 1.25 12Z" fill="black"/>
</svg>
