<svg width="24" height="24" viewBox="0 0 24 24" fill="none" xmlns="http://www.w3.org/2000/svg">
<path d="M10 20.25C10.4142 20.25 10.75 20.5858 10.75 21C10.75 21.4142 10.4142 21.75 10 21.75H2C1.58579 21.75 1.25 21.4142 1.25 21C1.25 20.5858 1.58579 20.25 2 20.25H10ZM16.5 9.25C19.9518 9.25 22.75 12.0482 22.75 15.5C22.75 18.9518 19.9518 21.75 16.5 21.75C13.0482 21.75 10.25 18.9518 10.25 15.5C10.25 12.0482 13.0482 9.25 16.5 9.25ZM16.5 10.75C13.8766 10.75 11.75 12.8766 11.75 15.5C11.75 18.1234 13.8766 20.25 16.5 20.25C19.1234 20.25 21.25 18.1234 21.25 15.5C21.25 12.8766 19.1234 10.75 16.5 10.75ZM16.5 11.75C16.9142 11.75 17.25 12.0858 17.25 12.5V14.75H19.5C19.9142 14.75 20.25 15.0858 20.25 15.5C20.25 15.9142 19.9142 16.25 19.5 16.25H17.25V18.5C17.25 18.9142 16.9142 19.25 16.5 19.25C16.0858 19.25 15.75 18.9142 15.75 18.5V16.25H13.5C13.0858 16.25 12.75 15.9142 12.75 15.5C12.75 15.0858 13.0858 14.75 13.5 14.75H15.75V12.5C15.75 12.0858 16.0858 11.75 16.5 11.75ZM8 14.25C8.41421 14.25 8.75 14.5858 8.75 15C8.75 15.4142 8.41421 15.75 8 15.75H2C1.58579 15.75 1.25 15.4142 1.25 15C1.25 14.5858 1.58579 14.25 2 14.25H8ZM11 8.25C11.4142 8.25 11.75 8.58579 11.75 9C11.75 9.41421 11.4142 9.75 11 9.75H2C1.58579 9.75 1.25 9.41421 1.25 9C1.25 8.58579 1.58579 8.25 2 8.25H11ZM22 2.25C22.4142 2.25 22.75 2.58579 22.75 3C22.75 3.41421 22.4142 3.75 22 3.75H2C1.58579 3.75 1.25 3.41421 1.25 3C1.25 2.58579 1.58579 2.25 2 2.25H22Z" fill="black"/>
</svg>
