<svg width="24" height="24" viewBox="0 0 24 24" fill="none" xmlns="http://www.w3.org/2000/svg">
<path fill-rule="evenodd" clip-rule="evenodd" d="M6.30314 3.7575C6.56382 4.07939 6.51421 4.55167 6.19231 4.81236C4.87755 5.87713 3.86049 7.29264 3.28767 8.91871C3.15005 9.30939 2.72177 9.51454 2.33109 9.37691C1.94041 9.23928 1.73527 8.81101 1.87289 8.42032C2.54007 6.52639 3.72305 4.8819 5.24828 3.64668C5.57017 3.38599 6.04245 3.43561 6.30314 3.7575Z" fill="black"/>
<path fill-rule="evenodd" clip-rule="evenodd" d="M2 11.25C2.41421 11.25 2.75 11.5858 2.75 12C2.75 13.0795 2.94366 14.1147 3.2866 15.0786C3.42544 15.4689 3.22163 15.8978 2.83138 16.0366C2.44113 16.1755 2.01221 15.9717 1.87337 15.5814C1.47631 14.4653 1.25 13.2605 1.25 12C1.25 11.5858 1.58579 11.25 2 11.25Z" fill="black"/>
<path fill-rule="evenodd" clip-rule="evenodd" d="M21.7104 9.50164C22.1184 9.43007 22.5072 9.70278 22.5788 10.1108C22.6851 10.7169 22.75 11.3506 22.75 12.0004C22.75 17.9346 17.9343 22.7504 12 22.7504C10.9158 22.7504 9.86218 22.5893 8.87167 22.2879C8.4754 22.1673 8.25193 21.7483 8.37254 21.352C8.49314 20.9557 8.91215 20.7323 9.30841 20.8529C10.1579 21.1114 11.0643 21.2504 12 21.2504C17.1058 21.2504 21.25 17.1062 21.25 12.0004C21.25 11.4501 21.195 10.9038 21.1013 10.37C21.0297 9.96198 21.3025 9.57322 21.7104 9.50164Z" fill="black"/>
<path fill-rule="evenodd" clip-rule="evenodd" d="M3.90729 17.9243C4.21986 17.6525 4.69358 17.6855 4.96538 17.9981C5.3315 18.4192 5.74838 18.8092 6.19097 19.167C6.51308 19.4275 6.56308 19.8997 6.30266 20.2218C6.04223 20.5439 5.57 20.5939 5.24789 20.3335C4.75049 19.9313 4.26735 19.4813 3.83347 18.9824C3.56167 18.6698 3.59472 18.1961 3.90729 17.9243Z" fill="black"/>
<path fill-rule="evenodd" clip-rule="evenodd" d="M8.87167 1.71249C9.86218 1.41103 10.9158 1.25 12 1.25C15.6775 1.25 18.9243 3.10045 20.8582 5.91533C21.0928 6.25674 21.0061 6.72364 20.6647 6.9582C20.3233 7.19275 19.8564 7.10613 19.6219 6.76472C17.9558 4.3396 15.1626 2.75 12 2.75C11.0643 2.75 10.1579 2.88896 9.30841 3.1475C8.91215 3.2681 8.49314 3.04463 8.37254 2.64836C8.25193 2.2521 8.4754 1.83309 8.87167 1.71249Z" fill="black"/>
<path fill-rule="evenodd" clip-rule="evenodd" d="M8.59 14.6797C8.1261 14.6797 7.75 15.0558 7.75 15.5197C7.75 15.9836 8.12606 16.3597 8.59 16.3597C9.05393 16.3597 9.42999 15.9836 9.42999 15.5197C9.42999 15.0558 9.0539 14.6797 8.59 14.6797ZM6.25 15.5197C6.25 14.2274 7.29763 13.1797 8.59 13.1797C9.88236 13.1797 10.93 14.2274 10.93 15.5197C10.93 16.8121 9.88232 17.8597 8.59 17.8597C7.29767 17.8597 6.25 16.8121 6.25 15.5197Z" fill="black"/>
<path fill-rule="evenodd" clip-rule="evenodd" d="M15.8601 6.38229C16.4861 6.7504 16.7499 7.43938 16.7499 8.25007V14.4601C16.7499 14.8743 16.4141 15.2101 15.9999 15.2101C15.5857 15.2101 15.2499 14.8743 15.2499 14.4601V8.25007C15.2499 7.99449 15.2092 7.84783 15.1744 7.77148C15.1439 7.70428 15.1159 7.68479 15.0997 7.67532C15.0448 7.643 14.871 7.59949 14.528 7.69341L11.3493 8.56309C11.3491 8.56315 11.3496 8.56303 11.3493 8.56309C11.0673 8.64109 10.9199 8.81557 10.9199 9.12006V15.5201C10.9199 15.9343 10.5841 16.2701 10.1699 16.2701C9.75571 16.2701 9.41992 15.9343 9.41992 15.5201V9.12006C9.41992 8.08478 10.0729 7.35919 10.9505 7.1171L10.952 7.11668L14.1318 6.24667C14.1318 6.24668 14.1319 6.24665 14.1318 6.24667C14.6288 6.11062 15.2901 6.04712 15.8601 6.38229Z" fill="black"/>
<path fill-rule="evenodd" clip-rule="evenodd" d="M14.4103 13.6201C13.9464 13.6201 13.5703 13.9962 13.5703 14.4601C13.5703 14.924 13.9464 15.3001 14.4103 15.3001C14.8742 15.3001 15.2499 14.924 15.2499 14.4601C15.2499 13.9962 14.8742 13.6201 14.4103 13.6201ZM12.0703 14.4601C12.0703 13.1678 13.1179 12.1201 14.4103 12.1201C15.7027 12.1201 16.7499 13.1678 16.7499 14.4601C16.7499 15.7525 15.7026 16.8001 14.4103 16.8001C13.118 16.8001 12.0703 15.7525 12.0703 14.4601Z" fill="black"/>
<path fill-rule="evenodd" clip-rule="evenodd" d="M16.7234 8.97245C16.8325 9.37202 16.5971 9.78443 16.1975 9.8936L10.3775 11.4836C9.97796 11.5928 9.56555 11.3574 9.45639 10.9578C9.34723 10.5582 9.58265 10.1458 9.98222 10.0367L15.8022 8.44662C16.2018 8.33746 16.6142 8.57288 16.7234 8.97245Z" fill="black"/>
</svg>
