<svg width="24" height="24" viewBox="0 0 24 24" fill="none" xmlns="http://www.w3.org/2000/svg">
<path fill-rule="evenodd" clip-rule="evenodd" d="M4.07408 4.07409C3.2148 4.93338 2.75 6.349 2.75 8.65002V14.35C2.75 16.651 3.2148 18.0666 4.07408 18.9259C4.93336 19.7852 6.34897 20.25 8.64999 20.25H12.35C12.7642 20.25 13.1 20.5858 13.1 21C13.1 21.4142 12.7642 21.75 12.35 21.75H8.64999C6.20102 21.75 4.29163 21.2648 3.01341 19.9866C1.7352 18.7083 1.25 16.7989 1.25 14.35V8.65002C1.25 6.20105 1.7352 4.29166 3.01341 3.01343C4.29163 1.73521 6.20102 1.25 8.64999 1.25H14.35C16.799 1.25 18.7084 1.73521 19.9866 3.01343C21.2648 4.29166 21.75 6.20105 21.75 8.65002V12.35C21.75 12.7642 21.4142 13.1 21 13.1C20.5858 13.1 20.25 12.7642 20.25 12.35V8.65002C20.25 6.349 19.7852 4.93338 18.9259 4.07409C18.0666 3.2148 16.651 2.75 14.35 2.75H8.64999C6.34897 2.75 4.93336 3.2148 4.07408 4.07409Z" fill="black"/>
<path fill-rule="evenodd" clip-rule="evenodd" d="M6.71953 12.2695C6.3329 12.2695 6.01953 12.5829 6.01953 12.9695C6.01953 13.3561 6.33294 13.6695 6.71953 13.6695C7.10612 13.6695 7.41953 13.3561 7.41953 12.9695C7.41953 12.5829 7.10616 12.2695 6.71953 12.2695ZM4.51953 12.9695C4.51953 11.7544 5.50453 10.7695 6.71953 10.7695C7.93452 10.7695 8.91953 11.7544 8.91953 12.9695C8.91953 14.1845 7.93456 15.1695 6.71953 15.1695C5.50449 15.1695 4.51953 14.1845 4.51953 12.9695Z" fill="black"/>
<path fill-rule="evenodd" clip-rule="evenodd" d="M13.3805 4.57887C13.9835 4.92798 14.2297 5.58542 14.2297 6.34045V12.0004C14.2297 12.4146 13.8939 12.7504 13.4797 12.7504C13.0655 12.7504 12.7297 12.4146 12.7297 12.0004V6.34045C12.7297 6.1121 12.6933 5.98856 12.6669 5.93095C12.6459 5.88501 12.631 5.878 12.6291 5.87708C12.629 5.87704 12.6291 5.8771 12.6291 5.87708C12.6029 5.86194 12.4662 5.81857 12.1595 5.90333L12.1575 5.90388L9.26468 6.69461C9.04839 6.75285 8.92969 6.89354 8.92969 7.13043V12.9704C8.92969 13.3846 8.5939 13.7204 8.17969 13.7204C7.76547 13.7204 7.42969 13.3846 7.42969 12.9704V7.13043C7.42969 6.16792 8.05024 5.46882 8.87318 5.2466L11.7599 4.45751C11.7603 4.45741 11.7607 4.45731 11.761 4.45722C12.2142 4.33216 12.8371 4.26425 13.3805 4.57887Z" fill="black"/>
<path fill-rule="evenodd" clip-rule="evenodd" d="M12.0301 11.2998C11.6435 11.2998 11.3301 11.6132 11.3301 11.9998C11.3301 12.3864 11.6435 12.6998 12.0301 12.6998C12.4167 12.6998 12.7297 12.387 12.7297 12.0004C12.7297 11.6138 12.4167 11.2998 12.0301 11.2998ZM9.83008 11.9998C9.83008 10.7848 10.815 9.7998 12.0301 9.7998C13.2451 9.7998 14.2297 10.7854 14.2297 12.0004C14.2297 13.2154 13.2451 14.1998 12.0301 14.1998C10.815 14.1998 9.83008 13.2148 9.83008 11.9998Z" fill="black"/>
<path fill-rule="evenodd" clip-rule="evenodd" d="M14.2036 7.1825C14.3127 7.58208 14.0773 7.99447 13.6777 8.10358L8.36768 9.55359C7.9681 9.66271 7.55572 9.42724 7.4466 9.02765C7.33749 8.62807 7.57296 8.21569 7.97254 8.10657L13.2825 6.65656C13.6821 6.54745 14.0945 6.78292 14.2036 7.1825Z" fill="black"/>
<path fill-rule="evenodd" clip-rule="evenodd" d="M17.9402 15.6299C16.5871 15.6299 15.4902 16.7268 15.4902 18.0799C15.4902 19.433 16.5871 20.5299 17.9402 20.5299C19.2933 20.5299 20.3902 19.433 20.3902 18.0799C20.3902 16.7268 19.2933 15.6299 17.9402 15.6299ZM13.9902 18.0799C13.9902 15.8984 15.7587 14.1299 17.9402 14.1299C20.1218 14.1299 21.8902 15.8984 21.8902 18.0799C21.8902 20.2614 20.1218 22.0299 17.9402 22.0299C15.7587 22.0299 13.9902 20.2614 13.9902 18.0799Z" fill="black"/>
<path fill-rule="evenodd" clip-rule="evenodd" d="M20.2099 20.3496C20.5028 20.0567 20.9777 20.0567 21.2706 20.3496L22.2706 21.3496C22.5635 21.6424 22.5635 22.1173 22.2706 22.4102C21.9777 22.7031 21.5028 22.7031 21.2099 22.4102L20.2099 21.4102C19.917 21.1173 19.917 20.6424 20.2099 20.3496Z" fill="black"/>
</svg>
