<svg width="24" height="24" viewBox="0 0 24 24" fill="none" xmlns="http://www.w3.org/2000/svg">
<path fill-rule="evenodd" clip-rule="evenodd" d="M6.28016 16.5098C4.97124 16.5098 3.91016 17.5709 3.91016 18.8798C3.91016 20.1887 4.97124 21.2498 6.28016 21.2498C7.58907 21.2498 8.65016 20.1887 8.65016 18.8798C8.65016 17.5709 7.58907 16.5098 6.28016 16.5098ZM2.41016 18.8798C2.41016 16.7424 4.14281 15.0098 6.28016 15.0098C8.4175 15.0098 10.1502 16.7424 10.1502 18.8798C10.1502 21.0171 8.4175 22.7498 6.28016 22.7498C4.14281 22.7498 2.41016 21.0171 2.41016 18.8798Z" fill="black"/>
<path fill-rule="evenodd" clip-rule="evenodd" d="M20.1976 1.554C21.127 2.09726 21.5904 3.15049 21.5904 4.60025V16.8003C21.5904 17.2145 21.2546 17.5503 20.8404 17.5503C20.4262 17.5503 20.0904 17.2145 20.0904 16.8003V4.60025C20.0904 3.45001 19.7388 3.02325 19.4407 2.849C19.085 2.6411 18.5086 2.60906 17.7577 2.81383L11.5175 4.51388C10.6831 4.74078 10.1504 5.35992 10.1504 6.30025V18.8703C10.1504 19.2845 9.8146 19.6203 9.40039 19.6203C8.98618 19.6203 8.65039 19.2845 8.65039 18.8703V6.30025C8.65039 4.6407 9.67785 3.4598 11.1233 3.06662C11.1232 3.06664 11.1234 3.06659 11.1233 3.06662L17.3631 1.36668C17.363 1.3667 17.3631 1.36666 17.3631 1.36668C18.2622 1.12149 19.3259 1.04445 20.1976 1.554Z" fill="black"/>
<path fill-rule="evenodd" clip-rule="evenodd" d="M17.7196 14.4297C16.4107 14.4297 15.3496 15.4908 15.3496 16.7997C15.3496 18.1086 16.4107 19.1697 17.7196 19.1697C19.0285 19.1697 20.0904 18.1092 20.0904 16.8003C20.0904 15.4913 19.0285 14.4297 17.7196 14.4297ZM13.8496 16.7997C13.8496 14.6623 15.5823 12.9297 17.7196 12.9297C19.8569 12.9297 21.5904 14.6629 21.5904 16.8003C21.5904 18.9376 19.857 20.6697 17.7196 20.6697C15.5823 20.6697 13.8496 18.937 13.8496 16.7997Z" fill="black"/>
<path fill-rule="evenodd" clip-rule="evenodd" d="M21.5632 6.20226C21.6722 6.60188 21.4366 7.01419 21.0369 7.12318L9.59694 10.2432C9.19732 10.3522 8.78502 10.1166 8.67603 9.71694C8.56704 9.31732 8.80265 8.90502 9.20226 8.79603L20.6423 5.67603C21.0419 5.56704 21.4542 5.80265 21.5632 6.20226Z" fill="black"/>
</svg>
