<svg width="24" height="24" viewBox="0 0 24 24" fill="none" xmlns="http://www.w3.org/2000/svg">
<path fill-rule="evenodd" clip-rule="evenodd" d="M3.09467 3.09467C4.42914 1.7602 6.42603 1.25 9 1.25H15C17.574 1.25 19.5709 1.7602 20.9053 3.09467C22.2398 4.42914 22.75 6.42603 22.75 9V15C22.75 17.574 22.2398 19.5709 20.9053 20.9053C19.5709 22.2398 17.574 22.75 15 22.75H9C6.42603 22.75 4.42914 22.2398 3.09467 20.9053C1.7602 19.5709 1.25 17.574 1.25 15V9C1.25 6.42603 1.7602 4.42914 3.09467 3.09467ZM4.15533 4.15533C3.2398 5.07086 2.75 6.57397 2.75 9V15C2.75 17.426 3.2398 18.9291 4.15533 19.8447C5.07086 20.7602 6.57397 21.25 9 21.25H15C17.426 21.25 18.9291 20.7602 19.8447 19.8447C20.7602 18.9291 21.25 17.426 21.25 15V9C21.25 6.57397 20.7602 5.07086 19.8447 4.15533C18.9291 3.2398 17.426 2.75 15 2.75H9C6.57397 2.75 5.07086 3.2398 4.15533 4.15533Z" fill="black"/>
<path fill-rule="evenodd" clip-rule="evenodd" d="M7 1.75C7.41421 1.75 7.75 2.08579 7.75 2.5V21.5C7.75 21.9142 7.41421 22.25 7 22.25C6.58579 22.25 6.25 21.9142 6.25 21.5V2.5C6.25 2.08579 6.58579 1.75 7 1.75Z" fill="black"/>
<path fill-rule="evenodd" clip-rule="evenodd" d="M11.4705 14.5703C11.0618 14.5703 10.7305 14.9016 10.7305 15.3103C10.7305 15.719 11.0618 16.0503 11.4705 16.0503C11.8792 16.0503 12.2105 15.719 12.2105 15.3103C12.2105 14.9016 11.8792 14.5703 11.4705 14.5703ZM9.23047 15.3103C9.23047 14.0732 10.2334 13.0703 11.4705 13.0703C12.7076 13.0703 13.7105 14.0732 13.7105 15.3103C13.7105 16.5474 12.7076 17.5503 11.4705 17.5503C10.2334 17.5503 9.23047 16.5474 9.23047 15.3103Z" fill="black"/>
<path fill-rule="evenodd" clip-rule="evenodd" d="M18.3189 6.68854C18.9281 7.04366 19.18 7.70897 19.18 8.48021V14.3102C19.18 14.7244 18.8442 15.0602 18.43 15.0602C18.0157 15.0602 17.68 14.7244 17.68 14.3102V8.48021C17.68 8.24457 17.6423 8.11471 17.6136 8.0518C17.5898 7.99964 17.5709 7.98869 17.564 7.98472C17.5267 7.96296 17.3759 7.91948 17.0545 8.00459L14.079 8.81337C13.836 8.88141 13.71 9.03658 13.71 9.29021V15.3002C13.71 15.7144 13.3742 16.0502 12.96 16.0502C12.5457 16.0502 12.21 15.7144 12.21 15.3002V9.29021C12.21 8.30443 12.8433 7.59982 13.6792 7.36762L13.6832 7.36651L16.6673 6.55542C17.1346 6.4312 17.7688 6.36787 18.3189 6.68854Z" fill="black"/>
<path fill-rule="evenodd" clip-rule="evenodd" d="M16.9295 13.5703C16.5208 13.5703 16.1895 13.9016 16.1895 14.3103C16.1895 14.719 16.5208 15.0503 16.9295 15.0503C17.3382 15.0503 17.6695 14.719 17.6695 14.3103C17.6695 13.9016 17.3382 13.5703 16.9295 13.5703ZM14.6895 14.3103C14.6895 13.0732 15.6923 12.0703 16.9295 12.0703C18.1666 12.0703 19.1695 13.0732 19.1695 14.3103C19.1695 15.5474 18.1666 16.5503 16.9295 16.5503C15.6923 16.5503 14.6895 15.5474 14.6895 14.3103Z" fill="black"/>
<path fill-rule="evenodd" clip-rule="evenodd" d="M19.1538 9.35288C19.2626 9.75253 19.0269 10.1648 18.6273 10.2736L13.1573 11.7636C12.7576 11.8725 12.3454 11.6367 12.2365 11.2371C12.1277 10.8374 12.3634 10.4252 12.763 10.3163L18.233 8.82636C18.6327 8.7175 19.0449 8.95323 19.1538 9.35288Z" fill="black"/>
</svg>
