<svg width="24" height="24" viewBox="0 0 24 24" fill="none" xmlns="http://www.w3.org/2000/svg">
<path fill-rule="evenodd" clip-rule="evenodd" d="M1.25 3C1.25 2.58579 1.58579 2.25 2 2.25H22C22.4142 2.25 22.75 2.58579 22.75 3C22.75 3.41421 22.4142 3.75 22 3.75H2C1.58579 3.75 1.25 3.41421 1.25 3Z" fill="black"/>
<path fill-rule="evenodd" clip-rule="evenodd" d="M1.25 9C1.25 8.58579 1.58579 8.25 2 8.25H11C11.4142 8.25 11.75 8.58579 11.75 9C11.75 9.41421 11.4142 9.75 11 9.75H2C1.58579 9.75 1.25 9.41421 1.25 9Z" fill="black"/>
<path fill-rule="evenodd" clip-rule="evenodd" d="M1.25 15C1.25 14.5858 1.58579 14.25 2 14.25H8C8.41421 14.25 8.75 14.5858 8.75 15C8.75 15.4142 8.41421 15.75 8 15.75H2C1.58579 15.75 1.25 15.4142 1.25 15Z" fill="black"/>
<path fill-rule="evenodd" clip-rule="evenodd" d="M1.25 21C1.25 20.5858 1.58579 20.25 2 20.25H6C6.41421 20.25 6.75 20.5858 6.75 21C6.75 21.4142 6.41421 21.75 6 21.75H2C1.58579 21.75 1.25 21.4142 1.25 21Z" fill="black"/>
<path fill-rule="evenodd" clip-rule="evenodd" d="M11.8402 18.3896C11.0504 18.3896 10.4102 19.0299 10.4102 19.8196C10.4102 20.6094 11.0504 21.2496 11.8402 21.2496C12.6299 21.2496 13.2702 20.6094 13.2702 19.8196C13.2702 19.0299 12.6299 18.3896 11.8402 18.3896ZM8.91016 19.8196C8.91016 18.2014 10.222 16.8896 11.8402 16.8896C13.4583 16.8896 14.7702 18.2014 14.7702 19.8196C14.7702 21.4378 13.4583 22.7496 11.8402 22.7496C10.222 22.7496 8.91016 21.4378 8.91016 19.8196Z" fill="black"/>
<path fill-rule="evenodd" clip-rule="evenodd" d="M21.6636 7.54198C22.4076 7.97581 22.7495 8.80347 22.7495 9.85988V18.3699C22.7495 18.7841 22.4137 19.1199 21.9995 19.1199C21.5853 19.1199 21.2495 18.7841 21.2495 18.3699V9.85988C21.2495 9.10629 21.0215 8.90395 20.908 8.83778C20.7362 8.73763 20.4064 8.69901 19.906 8.83368C19.9056 8.8338 19.9052 8.83391 19.9047 8.83403L15.5593 10.0228C15.0655 10.1608 14.7695 10.5063 14.7695 11.0499L14.7702 19.8196C14.7702 20.2339 14.4337 20.5699 14.0195 20.5699C13.6053 20.5699 13.2702 20.2339 13.2702 19.8196L13.2695 11.0499C13.2695 9.77399 14.0729 8.87964 15.1583 8.57737L15.1616 8.57646L19.5143 7.38572C20.1632 7.21081 20.978 7.14221 21.6636 7.54198Z" fill="black"/>
<path fill-rule="evenodd" clip-rule="evenodd" d="M19.8196 16.9404C19.0299 16.9404 18.3896 17.5807 18.3896 18.3704C18.3896 19.1602 19.0299 19.8004 19.8196 19.8004C20.6094 19.8004 21.2495 19.1597 21.2495 18.3699C21.2495 17.5801 20.6094 16.9404 19.8196 16.9404ZM16.8896 18.3704C16.8896 16.7522 18.2015 15.4404 19.8196 15.4404C21.4378 15.4404 22.7495 16.7517 22.7495 18.3699C22.7495 19.9881 21.4378 21.3004 19.8196 21.3004C18.2015 21.3004 16.8896 19.9886 16.8896 18.3704Z" fill="black"/>
<path fill-rule="evenodd" clip-rule="evenodd" d="M22.7232 11.2225C22.8324 11.622 22.5969 12.0344 22.1974 12.1436L14.2174 14.3236C13.8178 14.4327 13.4054 14.1973 13.2962 13.7977C13.1871 13.3982 13.4225 12.9858 13.8221 12.8766L21.8021 10.6966C22.2016 10.5875 22.6141 10.8229 22.7232 11.2225Z" fill="black"/>
</svg>
