<svg width="24" height="24" viewBox="0 0 24 24" fill="none" xmlns="http://www.w3.org/2000/svg">
<path d="M16.5 9C20.0899 9 23 11.9101 23 15.5C23 19.0899 20.0899 22 16.5 22C12.9101 22 10 19.0899 10 15.5C10 11.9101 12.9101 9 16.5 9ZM10 20.25C10.4142 20.25 10.75 20.5858 10.75 21C10.75 21.4142 10.4142 21.75 10 21.75H2C1.58579 21.75 1.25 21.4142 1.25 21C1.25 20.5858 1.58579 20.25 2 20.25H10ZM20.1201 13.2188C19.8268 12.9262 19.3511 12.9274 19.0586 13.2207L15.6992 16.5889L14.2803 15.1699C13.9874 14.877 13.5126 14.877 13.2197 15.1699C12.9269 15.4628 12.9269 15.9376 13.2197 16.2305L15.1699 18.1807C15.3106 18.3212 15.5014 18.4004 15.7002 18.4004C15.8993 18.4003 16.0909 18.3206 16.2314 18.1797L20.1211 14.2793C20.4134 13.986 20.4132 13.5112 20.1201 13.2188ZM8 14.25C8.41421 14.25 8.75 14.5858 8.75 15C8.75 15.4142 8.41421 15.75 8 15.75H2C1.58579 15.75 1.25 15.4142 1.25 15C1.25 14.5858 1.58579 14.25 2 14.25H8ZM11 8.25C11.4142 8.25 11.75 8.58579 11.75 9C11.75 9.41421 11.4142 9.75 11 9.75H2C1.58579 9.75 1.25 9.41421 1.25 9C1.25 8.58579 1.58579 8.25 2 8.25H11ZM22 2.25C22.4142 2.25 22.75 2.58579 22.75 3C22.75 3.41421 22.4142 3.75 22 3.75H2C1.58579 3.75 1.25 3.41421 1.25 3C1.25 2.58579 1.58579 2.25 2 2.25H22Z" fill="black"/>
</svg>
