<svg width="24" height="24" viewBox="0 0 24 24" fill="none" xmlns="http://www.w3.org/2000/svg">
<path fill-rule="evenodd" clip-rule="evenodd" d="M11.9696 2.7998C6.77176 2.7998 2.66761 7.00277 2.76944 12.2051L2.76958 12.2198V18.3798C2.76958 19.907 4.05516 21.1998 5.58959 21.1998C7.12538 21.1998 8.4096 19.9156 8.4096 18.3798V15.5698C8.4096 14.933 7.90496 14.4798 7.3196 14.4798C6.68282 14.4798 6.2296 14.9844 6.2296 15.5698V18.4898C6.2296 18.904 5.89382 19.2398 5.4796 19.2398C5.06539 19.2398 4.7296 18.904 4.7296 18.4898V15.5698C4.7296 14.2152 5.79638 12.9798 7.3196 12.9798C8.67424 12.9798 9.9096 14.0466 9.9096 15.5698V18.3798C9.9096 20.744 7.9538 22.6998 5.58959 22.6998C3.22401 22.6998 1.26958 20.7327 1.26958 18.3798V12.227C1.15549 6.19277 5.92992 1.2998 11.9696 1.2998C18.0101 1.2998 22.7696 6.19192 22.7696 12.1098V18.2698C22.7696 20.634 20.8138 22.5898 18.4496 22.5898C16.0854 22.5898 14.1296 20.6341 14.1296 18.2698V15.4598C14.1296 14.1052 15.1964 12.8698 16.7196 12.8698C18.0742 12.8698 19.3096 13.9367 19.3096 15.4598V18.4898C19.3096 18.904 18.9738 19.2398 18.5596 19.2398C18.1454 19.2398 17.8096 18.904 17.8096 18.4898V15.4598C17.8096 14.823 17.305 14.3698 16.7196 14.3698C16.0828 14.3698 15.6296 14.8744 15.6296 15.4598V18.2698C15.6296 19.8056 16.9138 21.0898 18.4496 21.0898C19.9854 21.0898 21.2696 19.8056 21.2696 18.2698V12.1098C21.2696 7.00768 17.1691 2.7998 11.9696 2.7998Z" fill="black"/>
<path fill-rule="evenodd" clip-rule="evenodd" d="M9.88864 6.90572C10.3058 6.11974 11.369 6.22413 11.7344 6.92153L11.7405 6.93334L13.1744 9.79357L13.5192 9.1041L13.5263 9.0902C13.7542 8.65712 14.2178 8.36951 14.72 8.36951H15.53C15.9442 8.36951 16.28 8.70529 16.28 9.11951C16.28 9.53372 15.9442 9.86951 15.53 9.86951H14.8135L14.1108 11.2749C13.7245 12.0475 12.6262 12.0477 12.2395 11.2757L10.7916 8.38771L10.3711 9.16366C10.138 9.60212 9.68103 9.86951 9.18997 9.86951H8.45996C8.04575 9.86951 7.70996 9.53372 7.70996 9.11951C7.70996 8.70529 8.04575 8.36951 8.45996 8.36951H9.09536L9.88864 6.90572Z" fill="black"/>
</svg>
