<svg width="24" height="24" viewBox="0 0 24 24" fill="none" xmlns="http://www.w3.org/2000/svg">
<path fill-rule="evenodd" clip-rule="evenodd" d="M11.9562 4.45149C12.2676 4.43325 12.5577 4.60964 12.6849 4.89446L15.1849 10.4945C15.3504 10.8653 15.1907 11.3006 14.8246 11.4763L9.82458 13.8763C9.55541 14.0055 9.23523 13.9628 9.00941 13.7675C8.78358 13.5721 8.69511 13.2615 8.78417 12.9765L11.2842 4.9765C11.3772 4.67878 11.6448 4.46972 11.9562 4.45149ZM12.124 7.31781L10.7303 11.7777L13.5178 10.4398L12.124 7.31781Z" fill="black"/>
<path fill-rule="evenodd" clip-rule="evenodd" d="M10.6708 9.86495C10.8561 10.2354 10.7059 10.6859 10.3354 10.8712L7.94531 12.0662L13.3402 13.8899C13.3728 13.9009 13.4046 13.9141 13.4354 13.9295L13.4743 13.949L16.1356 12.4114L13.8794 11.7172C13.4835 11.5954 13.2614 11.1757 13.3832 10.7798C13.505 10.3839 13.9247 10.1617 14.3206 10.2835L18.2206 11.4835C18.5057 11.5713 18.7117 11.8196 18.7453 12.116C18.7788 12.4124 18.6335 12.7005 18.3752 12.8498L13.8752 15.4498C13.657 15.5758 13.39 15.5839 13.1646 15.4712L12.8109 15.2943L5.75984 12.9109C5.47301 12.8139 5.27261 12.554 5.25179 12.2519C5.23096 11.9499 5.39379 11.6649 5.6646 11.5295L9.6646 9.52954C10.0351 9.3443 10.4856 9.49447 10.6708 9.86495Z" fill="black"/>
<path fill-rule="evenodd" clip-rule="evenodd" d="M9.14201 12.9408C9.50595 12.743 9.96132 12.8777 10.1591 13.2416L11.8346 16.3246L12.2886 14.9626C12.4196 14.5696 12.8444 14.3573 13.2373 14.4882C13.6303 14.6192 13.8426 15.044 13.7117 15.4369L12.7117 18.4369C12.6172 18.7203 12.3636 18.9206 12.0661 18.9468C11.7686 18.9731 11.4838 18.8203 11.3412 18.5579L8.84117 13.9579C8.64338 13.5939 8.77807 13.1386 9.14201 12.9408Z" fill="black"/>
<path fill-rule="evenodd" clip-rule="evenodd" d="M12 2.75C6.89137 2.75 2.75 6.89137 2.75 12C2.75 17.1086 6.89137 21.25 12 21.25C17.1086 21.25 21.25 17.1086 21.25 12C21.25 6.89137 17.1086 2.75 12 2.75ZM1.25 12C1.25 6.06294 6.06294 1.25 12 1.25C17.9371 1.25 22.75 6.06294 22.75 12C22.75 17.9371 17.9371 22.75 12 22.75C6.06294 22.75 1.25 17.9371 1.25 12Z" fill="black"/>
</svg>
