<svg width="24" height="24" viewBox="0 0 24 24" fill="none" xmlns="http://www.w3.org/2000/svg">
<path fill-rule="evenodd" clip-rule="evenodd" d="M2.75469 5.44002C2.873 10.9792 5.21082 14.9165 7.55496 17.495C8.76011 18.8207 9.96562 19.785 10.8676 20.4164C11.3181 20.7317 11.6915 20.9631 11.9494 21.1141C11.9597 21.1201 11.9698 21.1261 11.9798 21.1318C16.551 18.2586 18.8667 14.2929 20.0437 10.9973C20.6481 9.30485 20.9502 7.7938 21.1009 6.70885C21.1762 6.16686 21.2135 5.73265 21.2319 5.43712C21.2323 5.43135 21.2326 5.42563 21.233 5.41996C16.5654 2.76564 11.9265 2.77908 8.39709 3.48496C6.58358 3.84767 5.07127 4.3921 4.01419 4.84514C3.48621 5.07142 3.07342 5.27419 2.79523 5.41885C2.78138 5.42605 2.76787 5.43311 2.75469 5.44002ZM22 4.99953H22.75V4.57489L22.3859 4.35641C17.1812 1.23364 11.9774 1.23919 8.10291 2.01409C6.16642 2.40139 4.55373 2.98196 3.42331 3.46642C2.85754 3.70889 2.41095 3.92799 2.1032 4.08802C1.94928 4.16806 1.82995 4.2334 1.74765 4.27959C1.7065 4.30269 1.67459 4.32101 1.65224 4.33399L1.62591 4.34941L1.61819 4.35399L1.6157 4.35547L1.6148 4.35601C1.61444 4.35622 1.61413 4.35641 2 4.99953L1.6148 4.35601L1.25 4.57489V4.99953C1.25 11.2279 3.85084 15.6504 6.44504 18.504C7.73989 19.9284 9.03438 20.9641 10.0074 21.6452C10.4944 21.9861 10.9022 22.2391 11.1913 22.4084C11.3358 22.4931 11.4508 22.5569 11.5313 22.6004C11.5716 22.6221 11.6032 22.6388 11.6256 22.6504L11.6523 22.6641L11.6602 22.6682L11.6629 22.6695L11.6638 22.67C11.6642 22.6702 11.6646 22.6703 12 21.9995L11.6638 22.67L12.0328 22.8545L12.3859 22.6426C17.5716 19.5312 20.1643 15.1194 21.4563 11.5018C22.1019 9.69421 22.4248 8.08025 22.5866 6.91521C22.6676 6.3322 22.7084 5.86016 22.729 5.53069C22.7393 5.36591 22.7446 5.23664 22.7472 5.14684C22.7486 5.10193 22.7493 5.06688 22.7496 5.04217L22.7499 5.01291L22.75 5.00421L22.75 4.99953C22.75 4.99911 22.75 4.99953 22 4.99953Z" fill="black"/>
<path fill-rule="evenodd" clip-rule="evenodd" d="M17.4396 2.67662C17.5077 3.0852 17.2317 3.47162 16.8231 3.53972L16.2469 3.63575C16.2422 3.63692 16.2362 3.6384 16.2292 3.64021C16.202 3.64718 16.1583 3.65898 16.1007 3.67649C15.9854 3.71156 15.8157 3.76907 15.6123 3.85563C15.2032 4.02975 14.6726 4.31527 14.1738 4.75981C13.213 5.61622 12.2826 7.13459 12.7396 9.87662C12.7785 10.1099 12.705 10.3479 12.5415 10.5187L11.9998 9.99992C12.5415 10.5187 12.5417 10.5184 12.5415 10.5187L12.5402 10.52L12.5383 10.522L12.5327 10.5278L12.5139 10.5469C12.4982 10.5628 12.476 10.585 12.4477 10.6128C12.391 10.6683 12.3097 10.7462 12.2062 10.8403C11.9996 11.0282 11.7026 11.283 11.336 11.5552C10.6122 12.0927 9.57394 12.7308 8.39524 13.0273C7.19606 13.3289 5.8208 13.2807 4.52857 12.3891C3.26223 11.5154 2.18421 9.90513 1.38344 7.322C1.26079 6.92636 1.4821 6.5062 1.87774 6.38355C2.27337 6.26091 2.69353 6.48221 2.81618 6.87785C3.56541 9.29471 4.49988 10.5469 5.38042 11.1545C6.23507 11.7441 7.14106 11.796 8.02938 11.5726C8.93818 11.344 9.7937 10.8321 10.4417 10.3509C10.7611 10.1138 11.0196 9.89193 11.1969 9.73061C11.1984 9.7293 11.1998 9.72799 11.2013 9.72669C10.8097 6.69925 11.8918 4.78444 13.1758 3.64004C13.827 3.05958 14.5089 2.69509 15.0248 2.47547C15.284 2.36515 15.5049 2.28985 15.6645 2.24133C15.7444 2.21703 15.8093 2.19935 15.8564 2.18727C15.8799 2.18123 15.899 2.17659 15.9134 2.17322L15.9312 2.16909L15.9374 2.16772L15.9398 2.16719L15.9408 2.16697C15.9412 2.16688 15.9417 2.16678 16.0998 2.89992L15.9408 2.16697C15.9523 2.16448 15.9648 2.16207 15.9765 2.16013L16.5765 2.06013C16.9851 1.99203 17.3715 2.26804 17.4396 2.67662Z" fill="black"/>
<path fill-rule="evenodd" clip-rule="evenodd" d="M11.3108 9.70475C11.474 9.32403 11.9149 9.14767 12.2956 9.31083C16.0162 10.9054 17.3071 13.2419 17.5691 15.2796C17.6961 16.2678 17.5758 17.1434 17.4265 17.7682C17.3516 18.082 17.2683 18.3369 17.2022 18.5167C17.1691 18.6068 17.1402 18.6784 17.1185 18.7297C17.1077 18.7553 17.0987 18.7759 17.0918 18.7911L17.0833 18.81L17.0803 18.8164L17.0791 18.8188L17.0787 18.8198C17.0785 18.8203 17.0782 18.8207 16.4121 18.5058L17.0787 18.8198C16.9016 19.1943 16.4541 19.3553 16.0797 19.1782C15.7061 19.0016 15.5459 18.5562 15.7209 18.1823L15.723 18.1775C15.7256 18.1718 15.7303 18.1611 15.7368 18.1457C15.7499 18.1149 15.7699 18.0655 15.7943 17.9993C15.843 17.8666 15.9082 17.6684 15.9676 17.4197C16.0871 16.9195 16.1793 16.2326 16.0813 15.4708C15.8933 14.0085 14.9842 12.095 11.7048 10.6896C11.324 10.5264 11.1477 10.0855 11.3108 9.70475Z" fill="black"/>
</svg>
