<svg width="24" height="24" viewBox="0 0 24 24" fill="none" xmlns="http://www.w3.org/2000/svg">
<path fill-rule="evenodd" clip-rule="evenodd" d="M16.6141 2.35688C16.8516 2.21437 17.1484 2.21437 17.3859 2.35688L22.3859 5.35688C22.6118 5.49242 22.75 5.73655 22.75 6V18C22.75 18.2634 22.6118 18.5076 22.3859 18.6431L17.3859 21.6431C17.1484 21.7856 16.8516 21.7856 16.6141 21.6431L6.61413 15.6431C6.38822 15.5076 6.25 15.2634 6.25 15V9C6.25 8.7298 6.39534 8.48048 6.63048 8.34735C6.86561 8.21422 7.15417 8.21786 7.38587 8.35688L16.25 13.6754V9.42464L11.6141 6.64312C11.3882 6.50758 11.25 6.26345 11.25 6C11.25 5.73655 11.3882 5.49242 11.6141 5.35688L16.6141 2.35688ZM13.4577 6L17.3859 8.35688C17.6118 8.49242 17.75 8.73655 17.75 9V15C17.75 15.2702 17.6047 15.5195 17.3695 15.6526C17.1344 15.7858 16.8458 15.7821 16.6141 15.6431L7.75 10.3246V14.5754L17 20.1254L21.25 17.5754V6.42464L17 3.87464L13.4577 6Z" fill="black"/>
<path fill-rule="evenodd" clip-rule="evenodd" d="M6.61413 2.35688C6.85164 2.21437 7.14836 2.21437 7.38587 2.35688L12.3859 5.35688C12.7411 5.56999 12.8562 6.03069 12.6431 6.38587C12.43 6.74106 11.9693 6.85623 11.6141 6.64312L7 3.87464L2.75 6.42464V17.5754L6.97911 20.1128L11.2843 17.2458C11.629 17.0162 12.0946 17.1095 12.3242 17.4543C12.5538 17.799 12.4605 18.2646 12.1157 18.4942L7.41572 21.6242C7.17459 21.7848 6.86255 21.7922 6.61413 21.6431L1.61413 18.6431C1.38822 18.5076 1.25 18.2634 1.25 18V6C1.25 5.73655 1.38822 5.49242 1.61413 5.35688L6.61413 2.35688Z" fill="black"/>
</svg>
