<svg width="24" height="24" viewBox="0 0 24 24" fill="none" xmlns="http://www.w3.org/2000/svg">
<path fill-rule="evenodd" clip-rule="evenodd" d="M5.50977 7.22042C5.50977 5.83098 7.01221 4.96672 8.21518 5.6602L12.3643 8.04966L16.5152 10.4502C17.7146 11.1416 17.7146 12.8692 16.5152 13.5606L16.5143 13.5612L12.3643 15.9612L8.21546 18.3505C7.01466 19.0427 5.50977 18.1724 5.50977 16.7904V7.22042ZM8.96405 4.3605C6.76707 3.09428 4.00977 4.66997 4.00977 7.22042V16.7904C4.00977 19.3284 6.76489 20.9178 8.96405 19.6503L13.114 17.2603L17.2643 14.8602C19.4643 13.5915 19.4648 10.4196 17.2648 9.15092L13.114 6.75049L8.96405 4.3605Z" fill="black"/>
<path fill-rule="evenodd" clip-rule="evenodd" d="M21.2397 5.07031C20.8255 5.07031 20.4897 5.4061 20.4897 5.82031V18.1803C20.4897 18.5945 20.8255 18.9303 21.2397 18.9303C21.6539 18.9303 21.9897 18.5945 21.9897 18.1803V5.82031C21.9897 5.4061 21.6539 5.07031 21.2397 5.07031Z" fill="black"/>
</svg>
