<svg width="24" height="24" viewBox="0 0 24 24" fill="none" xmlns="http://www.w3.org/2000/svg">
<path fill-rule="evenodd" clip-rule="evenodd" d="M3.09467 3.09467C4.42914 1.7602 6.42603 1.25 9 1.25H15C17.574 1.25 19.5709 1.7602 20.9053 3.09467C22.2398 4.42914 22.75 6.42603 22.75 9V10C22.75 10.4142 22.4142 10.75 22 10.75C21.5858 10.75 21.25 10.4142 21.25 10V9C21.25 6.57397 20.7602 5.07086 19.8447 4.15533C18.9291 3.2398 17.426 2.75 15 2.75H9C6.57397 2.75 5.07086 3.2398 4.15533 4.15533C3.2398 5.07086 2.75 6.57397 2.75 9V15C2.75 17.426 3.2398 18.9291 4.15533 19.8447C5.07086 20.7602 6.57397 21.25 9 21.25H11C11.4142 21.25 11.75 21.5858 11.75 22C11.75 22.4142 11.4142 22.75 11 22.75H9C6.42603 22.75 4.42914 22.2398 3.09467 20.9053C1.7602 19.5709 1.25 17.574 1.25 15V9C1.25 6.42603 1.7602 4.42914 3.09467 3.09467Z" fill="black"/>
<path fill-rule="evenodd" clip-rule="evenodd" d="M15.5098 18.75C14.8194 18.75 14.2598 19.3096 14.2598 20C14.2598 20.6904 14.8194 21.25 15.5098 21.25C16.2001 21.25 16.7598 20.6904 16.7598 20C16.7598 19.3096 16.2001 18.75 15.5098 18.75ZM12.7598 20C12.7598 18.4812 13.991 17.25 15.5098 17.25C17.0285 17.25 18.2598 18.4812 18.2598 20C18.2598 21.5188 17.0285 22.75 15.5098 22.75C13.991 22.75 12.7598 21.5188 12.7598 20Z" fill="black"/>
<path fill-rule="evenodd" clip-rule="evenodd" d="M17.5098 12.2598C17.924 12.2598 18.2598 12.5956 18.2598 13.0098V20C18.2598 20.4142 17.924 20.7498 17.5098 20.7498C17.0956 20.7498 16.7598 20.4142 16.7598 20V13.0098C16.7598 12.5956 17.0956 12.2598 17.5098 12.2598Z" fill="black"/>
<path fill-rule="evenodd" clip-rule="evenodd" d="M18.3334 12.7747C18.3263 12.7799 18.2598 12.8297 18.2598 13.0201V13.6101C18.2598 13.7084 18.3015 13.8504 18.4038 13.9919C18.5059 14.1332 18.6282 14.2181 18.7198 14.2496L20.9269 14.9886C20.9268 14.9886 20.9271 14.9887 20.9269 14.9886C21.0968 15.0451 21.1639 15.0006 21.174 14.9933C21.185 14.9853 21.2498 14.9328 21.2498 14.7501V14.1601C21.2498 14.0618 21.208 13.9198 21.1058 13.7783C21.0036 13.6371 20.8814 13.5521 20.7897 13.5207L18.5826 12.7816C18.5825 12.7816 18.5827 12.7817 18.5826 12.7816C18.4083 12.7237 18.341 12.7693 18.3334 12.7747ZM17.4561 11.558C17.9235 11.221 18.5115 11.1768 19.0569 11.3586L19.0579 11.3589L21.271 12.1C21.7092 12.2488 22.0713 12.5537 22.3213 12.8994C22.5715 13.2454 22.7498 13.6884 22.7498 14.1601V14.7501C22.7498 15.3274 22.5195 15.8699 22.0555 16.207C21.5906 16.5446 21.0025 16.595 20.4526 16.4116L20.4516 16.4113L18.2385 15.6703C17.8003 15.5215 17.4382 15.2165 17.1882 14.8708C16.938 14.5248 16.7598 14.0818 16.7598 13.6101V13.0201C16.7598 12.4406 16.9883 11.8954 17.4561 11.558Z" fill="black"/>
</svg>
