<svg width="24" height="24" viewBox="0 0 24 24" fill="none" xmlns="http://www.w3.org/2000/svg">
<path fill-rule="evenodd" clip-rule="evenodd" d="M6.25 14C6.25 13.5858 6.58579 13.25 7 13.25H12C12.4142 13.25 12.75 13.5858 12.75 14C12.75 14.4142 12.4142 14.75 12 14.75H7C6.58579 14.75 6.25 14.4142 6.25 14Z" fill="black"/>
<path fill-rule="evenodd" clip-rule="evenodd" d="M2.71967 1.67963C3.01256 1.38674 3.48744 1.38674 3.78033 1.67963L7.53033 5.42963C7.82322 5.72252 7.82322 6.1974 7.53033 6.49029C7.23744 6.78318 6.76256 6.78318 6.46967 6.49029L2.71967 2.74029C2.42678 2.4474 2.42678 1.97252 2.71967 1.67963Z" fill="black"/>
<path fill-rule="evenodd" clip-rule="evenodd" d="M7.49029 1.71967C7.78318 2.01256 7.78318 2.48744 7.49029 2.78033L3.74029 6.53033C3.4474 6.82322 2.97252 6.82322 2.67963 6.53033C2.38674 6.23744 2.38674 5.76256 2.67963 5.46967L6.42963 1.71967C6.72252 1.42678 7.1974 1.42678 7.49029 1.71967Z" fill="black"/>
<path fill-rule="evenodd" clip-rule="evenodd" d="M6.25 10C6.25 9.58579 6.58579 9.25 7 9.25H15C15.4142 9.25 15.75 9.58579 15.75 10C15.75 10.4142 15.4142 10.75 15 10.75H7C6.58579 10.75 6.25 10.4142 6.25 10Z" fill="black"/>
<path fill-rule="evenodd" clip-rule="evenodd" d="M9.25 2C9.25 1.58579 9.58579 1.25 10 1.25H16C16.0135 1.25 16.027 1.25036 16.0405 1.25109C17.7631 1.34421 19.2629 1.71379 20.2996 2.83607C21.3279 3.94914 21.75 5.64006 21.75 7.99V16C21.75 16.4142 21.4142 16.75 21 16.75C20.5858 16.75 20.25 16.4142 20.25 16V7.99C20.25 5.75994 19.8371 4.54586 19.1979 3.85393C18.5698 3.17404 17.5752 2.83858 15.9795 2.75H10C9.58579 2.75 9.25 2.41421 9.25 2Z" fill="black"/>
<path fill-rule="evenodd" clip-rule="evenodd" d="M3 8.25977C3.41421 8.25977 3.75 8.59555 3.75 9.00977V15.9798C3.75 17.9716 4.01132 19.2217 4.69035 20.0007C5.34703 20.754 6.56558 21.2498 9 21.2498H14.999C15.4132 21.2498 15.75 21.5856 15.75 21.9998C15.75 22.414 15.4142 22.7498 15 22.7498H9C6.43442 22.7498 4.65297 22.2405 3.55965 20.9863C2.48868 19.7578 2.25 17.9979 2.25 15.9798V9.00977C2.25 8.59555 2.58579 8.25977 3 8.25977Z" fill="black"/>
<path fill-rule="evenodd" clip-rule="evenodd" d="M16.2803 17.2803C15.9706 17.5901 15.75 18.1156 15.75 19V20.1893L19.1893 16.75H18C17.1156 16.75 16.5901 16.9706 16.2803 17.2803ZM15.2197 16.2197C15.9099 15.5294 16.8844 15.25 18 15.25H21C21.3033 15.25 21.5768 15.4327 21.6929 15.713C21.809 15.9932 21.7448 16.3158 21.5303 16.5303L15.5303 22.5303C15.3158 22.7448 14.9932 22.809 14.713 22.6929C14.4327 22.5768 14.25 22.3033 14.25 22V19C14.25 17.8844 14.5294 16.9099 15.2197 16.2197Z" fill="black"/>
</svg>
