<svg width="24" height="24" viewBox="0 0 24 24" fill="none" xmlns="http://www.w3.org/2000/svg">
<path fill-rule="evenodd" clip-rule="evenodd" d="M19 2.75C17.7574 2.75 16.75 3.75736 16.75 5C16.75 6.24264 17.7574 7.25 19 7.25C20.2426 7.25 21.25 6.24264 21.25 5C21.25 3.75736 20.2426 2.75 19 2.75ZM15.25 5C15.25 2.92893 16.9289 1.25 19 1.25C21.0711 1.25 22.75 2.92893 22.75 5C22.75 7.07107 21.0711 8.75 19 8.75C16.9289 8.75 15.25 7.07107 15.25 5Z" fill="black"/>
<path fill-rule="evenodd" clip-rule="evenodd" d="M3.09467 3.09467C4.42914 1.7602 6.42603 1.25 9 1.25H14C14.4142 1.25 14.75 1.58579 14.75 2C14.75 2.41421 14.4142 2.75 14 2.75H9C6.57397 2.75 5.07086 3.2398 4.15533 4.15533C3.2398 5.07086 2.75 6.57397 2.75 9V15C2.75 17.426 3.2398 18.9291 4.15533 19.8447C5.07086 20.7602 6.57397 21.25 9 21.25H15C17.426 21.25 18.9291 20.7602 19.8447 19.8447C20.7602 18.9291 21.25 17.426 21.25 15V10C21.25 9.58579 21.5858 9.25 22 9.25C22.4142 9.25 22.75 9.58579 22.75 10V15C22.75 17.574 22.2398 19.5709 20.9053 20.9053C19.5709 22.2398 17.574 22.75 15 22.75H9C6.42603 22.75 4.42914 22.2398 3.09467 20.9053C1.7602 19.5709 1.25 17.574 1.25 15V9C1.25 6.42603 1.7602 4.42914 3.09467 3.09467Z" fill="black"/>
<path fill-rule="evenodd" clip-rule="evenodd" d="M9.21402 13.0919C8.99853 12.7963 8.60343 12.6915 8.26379 12.8029L8.25804 12.8047C7.62974 13.0052 7.25237 13.8437 7.52424 14.701C7.74575 15.3832 8.23655 15.926 8.76581 16.3087C9.02761 16.4979 9.28499 16.6377 9.4968 16.7282C9.68179 16.8072 9.79133 16.8314 9.82418 16.8381C9.82475 16.8379 9.82537 16.8378 9.82601 16.8377C9.85587 16.8311 9.95996 16.8083 10.1399 16.7312C10.3513 16.6407 10.6095 16.5 10.8722 16.3094C11.4045 15.9231 11.893 15.3787 12.1046 14.7053L12.1054 14.7028C12.3783 13.8452 12.0013 13.006 11.373 12.805C10.9997 12.6871 10.6139 12.8074 10.4473 13.0615C10.3123 13.2674 10.0848 13.3939 9.83865 13.4C9.5925 13.406 9.35904 13.2909 9.21402 13.0919ZM9.80692 11.6252C9.1941 11.2351 8.43795 11.1682 7.7994 11.3766C6.11046 11.9172 5.66865 13.8163 6.09543 15.1576L6.09661 15.1613C6.44539 16.2382 7.18918 17.0197 7.88694 17.5242C8.23889 17.7787 8.59338 17.9733 8.90751 18.1075C9.19865 18.2319 9.5254 18.3349 9.80624 18.3401L9.82012 18.3402C10.1083 18.3402 10.4417 18.2337 10.7303 18.1101C11.0451 17.9753 11.4007 17.7792 11.7531 17.5235C12.4505 17.0174 13.1967 16.2323 13.5352 15.1563C13.9616 13.8143 13.5188 11.9149 11.828 11.3757L11.8265 11.3752C11.2233 11.1842 10.435 11.2176 9.80692 11.6252Z" fill="black"/>
</svg>
