<svg width="24" height="24" viewBox="0 0 24 24" fill="none" xmlns="http://www.w3.org/2000/svg">
<path d="M12.3603 17.4744C11.7723 17.4744 11.2053 17.3934 10.6593 17.2314C10.1133 17.0634 9.6213 16.8234 9.1833 16.5114C8.7513 16.1934 8.4093 15.8004 8.1573 15.3324C7.9053 14.8584 7.7793 14.3124 7.7793 13.6944H9.5613C9.5793 14.1624 9.7113 14.5614 9.9573 14.8914C10.2033 15.2214 10.5333 15.4734 10.9473 15.6474C11.3613 15.8154 11.8323 15.8994 12.3603 15.8994C13.1523 15.8994 13.7673 15.7104 14.2053 15.3324C14.6493 14.9544 14.8713 14.4804 14.8713 13.9104C14.8713 13.5444 14.7783 13.2234 14.5923 12.9474C14.4123 12.6714 14.1273 12.4584 13.7373 12.3084C13.3533 12.1524 12.8523 12.0744 12.2343 12.0744H10.8393V10.7244H11.9013C12.6933 10.7244 13.3173 10.5624 13.7733 10.2384C14.2293 9.90838 14.4573 9.46138 14.4573 8.89738C14.4573 8.39338 14.2683 7.97038 13.8903 7.62838C13.5123 7.28638 12.9633 7.11538 12.2433 7.11538C11.6733 7.11538 11.1663 7.23238 10.7223 7.46638C10.2783 7.69438 9.9843 8.10538 9.8403 8.69938H8.0673C8.1573 7.95538 8.3913 7.35238 8.7693 6.89038C9.1473 6.42838 9.6303 6.09238 10.2183 5.88238C10.8063 5.67238 11.4633 5.56738 12.1893 5.56738C12.9753 5.56738 13.6773 5.70238 14.2953 5.97238C14.9193 6.23638 15.4083 6.60538 15.7623 7.07938C16.1163 7.55338 16.2933 8.09938 16.2933 8.71738C16.2933 9.31138 16.1253 9.82438 15.7893 10.2564C15.4593 10.6824 14.9763 11.0094 14.3403 11.2374C15.0483 11.4534 15.6243 11.7984 16.0683 12.2724C16.5123 12.7404 16.7343 13.3344 16.7343 14.0544C16.7343 14.7204 16.5543 15.3114 16.1943 15.8274C15.8343 16.3434 15.3273 16.7484 14.6733 17.0424C14.0193 17.3304 13.2483 17.4744 12.3603 17.4744Z" fill="black"/>
</svg>
