<svg width="24" height="24" viewBox="0 0 24 24" fill="none" xmlns="http://www.w3.org/2000/svg">
<path d="M12.2236 17.2148C11.4556 17.2148 10.7656 17.0798 10.1536 16.8098C9.54164 16.5338 9.05564 16.1348 8.69564 15.6128C8.33564 15.0848 8.14964 14.4428 8.13764 13.6868H9.86564C9.86564 14.3348 10.0906 14.8238 10.5406 15.1538C10.9966 15.4778 11.5576 15.6398 12.2236 15.6398C12.9676 15.6398 13.5616 15.4088 14.0056 14.9468C14.4496 14.4788 14.6716 13.9058 14.6716 13.2278C14.6716 11.8838 13.7926 11.2118 12.0346 11.2118H8.77664L9.28964 5.51483H15.8686V7.08083H10.6666L11.0086 6.54083L10.6486 10.2758L10.4686 10.1048C10.7566 10.0388 11.0896 9.99083 11.4676 9.96083C11.8456 9.93083 12.1786 9.91583 12.4666 9.91583C13.6786 9.91583 14.6416 10.1978 15.3556 10.7618C16.0756 11.3198 16.4356 12.1418 16.4356 13.2278C16.4356 13.9778 16.2616 14.6558 15.9136 15.2618C15.5716 15.8618 15.0856 16.3388 14.4556 16.6928C13.8256 17.0408 13.0816 17.2148 12.2236 17.2148Z" fill="black"/>
</svg>
