<svg width="24" height="24" viewBox="0 0 24 24" fill="none" xmlns="http://www.w3.org/2000/svg">
<path d="M12.4313 17.4742C11.4953 17.4742 10.6733 17.2222 9.96527 16.7182C9.26327 16.2142 8.71727 15.5302 8.32727 14.6662C7.93727 13.7962 7.74227 12.8092 7.74227 11.7052C7.74227 10.4092 7.94027 9.30522 8.33627 8.39322C8.73227 7.47522 9.29327 6.77622 10.0193 6.29622C10.7453 5.81022 11.6033 5.56722 12.5933 5.56722C13.3073 5.56722 13.9373 5.70222 14.4833 5.97222C15.0293 6.23622 15.4643 6.60822 15.7883 7.08822C16.1123 7.56822 16.2983 8.12922 16.3463 8.77122H14.5013C14.4233 8.26122 14.2343 7.85922 13.9343 7.56522C13.6343 7.26522 13.2023 7.11522 12.6383 7.11522C11.6543 7.11522 10.8773 7.54422 10.3073 8.40222C9.74327 9.26022 9.46127 10.4302 9.46127 11.9122C9.46127 12.1162 9.46427 12.3472 9.47027 12.6052C9.48227 12.8632 9.50627 13.1032 9.54227 13.3252C9.61427 12.5512 9.80927 11.9452 10.1273 11.5072C10.4453 11.0632 10.8383 10.7482 11.3063 10.5622C11.7803 10.3762 12.2783 10.2832 12.8003 10.2832C13.5023 10.2832 14.1263 10.4362 14.6723 10.7422C15.2243 11.0482 15.6563 11.4742 15.9683 12.0202C16.2863 12.5602 16.4453 13.1812 16.4453 13.8832C16.4453 14.5972 16.2773 15.2242 15.9413 15.7642C15.6053 16.3042 15.1343 16.7242 14.5283 17.0242C13.9223 17.3242 13.2233 17.4742 12.4313 17.4742ZM12.4313 15.8992C13.0673 15.8992 13.5983 15.7132 14.0243 15.3412C14.4503 14.9632 14.6633 14.4592 14.6633 13.8292C14.6633 13.1752 14.4503 12.6652 14.0243 12.2992C13.5983 11.9272 13.0673 11.7412 12.4313 11.7412C12.0113 11.7412 11.6333 11.8312 11.2973 12.0112C10.9673 12.1852 10.7033 12.4312 10.5053 12.7492C10.3133 13.0612 10.2173 13.4212 10.2173 13.8292C10.2173 14.4592 10.4303 14.9632 10.8563 15.3412C11.2823 15.7132 11.8073 15.8992 12.4313 15.8992Z" fill="black"/>
</svg>
