<svg width="24" height="24" viewBox="0 0 24 24" fill="none" xmlns="http://www.w3.org/2000/svg">
<path d="M12.3603 17.4744C11.5923 17.4744 10.9053 17.3214 10.2993 17.0154C9.69328 16.7034 9.21328 16.2744 8.85928 15.7284C8.50528 15.1824 8.32828 14.5554 8.32828 13.8474H10.1103C10.1343 14.4714 10.3443 14.9694 10.7403 15.3414C11.1363 15.7134 11.6583 15.8994 12.3063 15.8994C12.9963 15.8994 13.5513 15.7044 13.9713 15.3144C14.3973 14.9184 14.7093 14.3604 14.9073 13.6404C15.1053 12.9204 15.2043 12.0774 15.2043 11.1114C15.2043 10.9014 15.1983 10.7034 15.1863 10.5174C15.1743 10.3254 15.1533 10.1184 15.1233 9.89638C15.0273 10.5504 14.8263 11.0874 14.5203 11.5074C14.2203 11.9214 13.8423 12.2304 13.3863 12.4344C12.9303 12.6324 12.4233 12.7314 11.8653 12.7314C11.1693 12.7314 10.5483 12.5784 10.0023 12.2724C9.45628 11.9664 9.02428 11.5434 8.70628 11.0034C8.39428 10.4574 8.23828 9.83338 8.23828 9.13138C8.23828 8.41138 8.40628 7.78438 8.74228 7.25038C9.07828 6.71638 9.54628 6.30238 10.1463 6.00838C10.7463 5.71438 11.4423 5.56738 12.2343 5.56738C12.9003 5.56738 13.5183 5.70238 14.0883 5.97238C14.6643 6.24238 15.1623 6.62938 15.5823 7.13338C16.0083 7.63738 16.3383 8.24038 16.5723 8.94238C16.8123 9.64438 16.9323 10.4304 16.9323 11.3004C16.9323 12.5604 16.7643 13.6524 16.4283 14.5764C16.0983 15.5004 15.5943 16.2144 14.9163 16.7184C14.2443 17.2224 13.3923 17.4744 12.3603 17.4744ZM12.2433 11.2734C12.6513 11.2734 13.0233 11.1834 13.3593 11.0034C13.7013 10.8234 13.9713 10.5804 14.1693 10.2744C14.3673 9.96238 14.4663 9.60838 14.4663 9.21238C14.4663 8.56438 14.2473 8.05438 13.8093 7.68238C13.3773 7.31038 12.8523 7.12438 12.2343 7.12438C11.6043 7.12438 11.0763 7.31038 10.6503 7.68238C10.2243 8.05438 10.0113 8.56438 10.0113 9.21238C10.0113 9.85438 10.2243 10.3584 10.6503 10.7244C11.0763 11.0904 11.6073 11.2734 12.2433 11.2734Z" fill="black"/>
</svg>
