<svg width="24" height="24" viewBox="0 0 24 24" fill="none" xmlns="http://www.w3.org/2000/svg">
<path d="M6.46638 5.72938H7.79838V17.2404H6.08838V7.75438C5.78838 7.92838 5.48238 8.06338 5.17038 8.15938C4.85838 8.24938 4.54638 8.30038 4.23438 8.31238V6.65638C4.62438 6.60838 5.00238 6.51238 5.36838 6.36838C5.74038 6.21838 6.10638 6.00538 6.46638 5.72938ZM15.0667 17.4744C14.1487 17.4744 13.3417 17.2554 12.6457 16.8174C11.9557 16.3794 11.4187 15.7194 11.0347 14.8374C10.6507 13.9554 10.4587 12.8454 10.4587 11.5074C10.4587 10.1754 10.6507 9.06838 11.0347 8.18638C11.4187 7.30438 11.9557 6.64738 12.6457 6.21538C13.3417 5.78338 14.1487 5.56738 15.0667 5.56738C15.9787 5.56738 16.7797 5.78338 17.4697 6.21538C18.1597 6.64738 18.6967 7.30438 19.0807 8.18638C19.4707 9.06838 19.6657 10.1754 19.6657 11.5074C19.6657 12.8454 19.4707 13.9554 19.0807 14.8374C18.6967 15.7194 18.1597 16.3794 17.4697 16.8174C16.7797 17.2554 15.9787 17.4744 15.0667 17.4744ZM15.0667 15.8994C15.9787 15.8994 16.6777 15.5214 17.1637 14.7654C17.6557 14.0034 17.9017 12.9174 17.9017 11.5074C17.9017 10.1034 17.6557 9.02038 17.1637 8.25838C16.6777 7.49638 15.9787 7.11538 15.0667 7.11538C14.1547 7.11538 13.4527 7.49638 12.9607 8.25838C12.4747 9.02038 12.2317 10.1034 12.2317 11.5074C12.2317 12.9174 12.4747 14.0034 12.9607 14.7654C13.4527 15.5214 14.1547 15.8994 15.0667 15.8994Z" fill="black"/>
</svg>
