<svg width="24" height="24" viewBox="0 0 24 24" fill="none" xmlns="http://www.w3.org/2000/svg">
<path d="M7.66219 17.2402V15.4312C7.66219 14.7772 7.76419 14.2282 7.96819 13.7842C8.17219 13.3342 8.46919 12.9592 8.85919 12.6592C9.24919 12.3592 9.72319 12.1012 10.2812 11.8852L12.5852 10.9852C13.1372 10.7632 13.5482 10.4812 13.8182 10.1392C14.0882 9.79722 14.2232 9.37422 14.2232 8.87022C14.2232 8.34822 14.0402 7.91622 13.6742 7.57422C13.3082 7.23222 12.7892 7.06122 12.1172 7.06122C11.4632 7.06122 10.9202 7.21122 10.4882 7.51122C10.0622 7.80522 9.81919 8.24622 9.75919 8.83422H7.86019C7.89019 8.12022 8.08819 7.52022 8.45419 7.03422C8.82019 6.54822 9.31519 6.18222 9.93919 5.93622C10.5632 5.69022 11.2802 5.56722 12.0902 5.56722C12.8462 5.56722 13.5242 5.71122 14.1242 5.99922C14.7242 6.28722 15.1982 6.68622 15.5462 7.19622C15.9002 7.70622 16.0772 8.29422 16.0772 8.96022C16.0772 9.55422 15.9692 10.0732 15.7532 10.5172C15.5372 10.9552 15.2192 11.3362 14.7992 11.6602C14.3792 11.9842 13.8692 12.2662 13.2692 12.5062L10.9292 13.4332C10.4012 13.6372 10.0082 13.8772 9.75019 14.1532C9.49819 14.4232 9.37219 14.7772 9.37219 15.2152V15.6652H15.9872V17.2402H7.66219Z" fill="black"/>
</svg>
