<svg width="24" height="24" viewBox="0 0 24 24" fill="none" xmlns="http://www.w3.org/2000/svg">
<path d="M11.9848 17.4742C11.0488 17.4742 10.2268 17.3302 9.51884 17.0422C8.81684 16.7542 8.26784 16.3582 7.87184 15.8542C7.47584 15.3502 7.27784 14.7832 7.27784 14.1532C7.27784 13.5892 7.42484 13.1092 7.71884 12.7132C8.01884 12.3112 8.42384 12.0022 8.93384 11.7862C9.44984 11.5702 10.0318 11.4622 10.6798 11.4622C10.8898 11.4622 11.0878 11.4772 11.2738 11.5072C11.4598 11.5312 11.6668 11.5732 11.8948 11.6332V12.0922C11.3308 12.0922 10.8358 12.1822 10.4098 12.3622C9.98384 12.5362 9.65084 12.7672 9.41084 13.0552C9.17084 13.3432 9.05084 13.6582 9.05084 14.0002C9.05084 14.4022 9.17984 14.7472 9.43784 15.0352C9.69584 15.3172 10.0468 15.5332 10.4908 15.6832C10.9348 15.8272 11.4328 15.8992 11.9848 15.8992C12.9388 15.8992 13.6648 15.7582 14.1628 15.4762C14.6668 15.1942 14.9188 14.8282 14.9188 14.3782C14.9188 14.0182 14.7898 13.7182 14.5318 13.4782C14.2798 13.2322 13.9258 13.0252 13.4698 12.8572L10.2658 11.6242C9.88184 11.4802 9.48884 11.2762 9.08684 11.0122C8.68484 10.7482 8.34584 10.4212 8.06984 10.0312C7.79984 9.63522 7.66484 9.17022 7.66484 8.63622C7.66484 8.02422 7.83284 7.48722 8.16884 7.02522C8.51084 6.56322 9.00284 6.20622 9.64484 5.95422C10.2928 5.69622 11.0728 5.56722 11.9848 5.56722C12.8008 5.56722 13.5328 5.70822 14.1808 5.99022C14.8348 6.26622 15.3478 6.64722 15.7198 7.13322C16.0918 7.61322 16.2778 8.16522 16.2778 8.78922C16.2778 9.24522 16.1578 9.67122 15.9178 10.0672C15.6778 10.4572 15.3268 10.7722 14.8648 11.0122C14.4028 11.2522 13.8388 11.3722 13.1728 11.3722C12.9808 11.3722 12.8008 11.3602 12.6328 11.3362C12.4708 11.3062 12.2818 11.2582 12.0658 11.1922V10.6702C12.5158 10.6702 12.9238 10.5982 13.2898 10.4542C13.6618 10.3042 13.9558 10.0942 14.1718 9.82422C14.3938 9.55422 14.5048 9.24222 14.5048 8.88822C14.5048 8.54022 14.3968 8.23422 14.1808 7.97022C13.9708 7.70022 13.6768 7.49022 13.2988 7.34022C12.9208 7.19022 12.4828 7.11522 11.9848 7.11522C11.5048 7.11522 11.0728 7.18722 10.6888 7.33122C10.3048 7.46922 10.0018 7.65822 9.77984 7.89822C9.55784 8.13822 9.44684 8.40522 9.44684 8.69922C9.44684 9.05922 9.56684 9.35022 9.80684 9.57222C10.0528 9.78822 10.3978 9.98022 10.8418 10.1482L14.0908 11.3992C14.9308 11.7232 15.5758 12.1012 16.0258 12.5332C16.4758 12.9592 16.7008 13.5472 16.7008 14.2972C16.7008 14.9152 16.5148 15.4642 16.1428 15.9442C15.7708 16.4242 15.2338 16.7992 14.5318 17.0692C13.8298 17.3392 12.9808 17.4742 11.9848 17.4742Z" fill="black"/>
</svg>
