<svg width="24" height="24" viewBox="0 0 24 24" fill="none" xmlns="http://www.w3.org/2000/svg">
<path fill-rule="evenodd" clip-rule="evenodd" d="M12 1.7002C12.8284 1.7002 13.5 2.37177 13.5 3.2002V3.2102C13.5 4.03862 12.8284 4.7102 12 4.7102C11.1716 4.7102 10.5 4.03862 10.5 3.2102V3.2002C10.5 2.37177 11.1716 1.7002 12 1.7002Z" fill="black"/>
<path fill-rule="evenodd" clip-rule="evenodd" d="M12 6.2002C12.8284 6.2002 13.5 6.87177 13.5 7.7002V7.7102C13.5 8.53862 12.8284 9.2102 12 9.2102C11.1716 9.2102 10.5 8.53862 10.5 7.7102V7.7002C10.5 6.87177 11.1716 6.2002 12 6.2002Z" fill="black"/>
<path fill-rule="evenodd" clip-rule="evenodd" d="M12 10.2002C12.8284 10.2002 13.5 10.8718 13.5 11.7002V11.7102C13.5 12.5386 12.8284 13.2102 12 13.2102C11.1716 13.2102 10.5 12.5386 10.5 11.7102V11.7002C10.5 10.8718 11.1716 10.2002 12 10.2002Z" fill="black"/>
<path fill-rule="evenodd" clip-rule="evenodd" d="M12 14.7002C12.5523 14.7002 13 15.1479 13 15.7002V15.7102C13 16.2625 12.5523 16.7102 12 16.7102C11.4477 16.7102 11 16.2625 11 15.7102V15.7002C11 15.1479 11.4477 14.7002 12 14.7002Z" fill="black"/>
<path fill-rule="evenodd" clip-rule="evenodd" d="M12 18.4502C12.4142 18.4502 12.75 18.786 12.75 19.2002V19.2102C12.75 19.6244 12.4142 19.9602 12 19.9602C11.5858 19.9602 11.25 19.6244 11.25 19.2102V19.2002C11.25 18.786 11.5858 18.4502 12 18.4502Z" fill="black"/>
<path fill-rule="evenodd" clip-rule="evenodd" d="M12 21.7002C12.2761 21.7002 12.5 21.9241 12.5 22.2002V22.2102C12.5 22.4863 12.2761 22.7102 12 22.7102C11.7239 22.7102 11.5 22.4863 11.5 22.2102V22.2002C11.5 21.9241 11.7239 21.7002 12 21.7002Z" fill="black"/>
<path fill-rule="evenodd" clip-rule="evenodd" d="M3.5 6.2002C4.32843 6.2002 5 6.87177 5 7.7002V7.7102C5 8.53862 4.32843 9.2102 3.5 9.2102C2.67157 9.2102 2 8.53862 2 7.7102V7.7002C2 6.87177 2.67157 6.2002 3.5 6.2002Z" fill="black"/>
<path fill-rule="evenodd" clip-rule="evenodd" d="M20.5 6.2002C21.3284 6.2002 22 6.87177 22 7.7002V7.7102C22 8.53862 21.3284 9.2102 20.5 9.2102C19.6716 9.2102 19 8.53862 19 7.7102V7.7002C19 6.87177 19.6716 6.2002 20.5 6.2002Z" fill="black"/>
<path fill-rule="evenodd" clip-rule="evenodd" d="M20.5 10.7002C21.0523 10.7002 21.5 11.1479 21.5 11.7002V11.7102C21.5 12.2625 21.0523 12.7102 20.5 12.7102C19.9477 12.7102 19.5 12.2625 19.5 11.7102V11.7002C19.5 11.1479 19.9477 10.7002 20.5 10.7002Z" fill="black"/>
<path fill-rule="evenodd" clip-rule="evenodd" d="M3.5 10.7002C4.05228 10.7002 4.5 11.1479 4.5 11.7002V11.7102C4.5 12.2625 4.05228 12.7102 3.5 12.7102C2.94772 12.7102 2.5 12.2625 2.5 11.7102V11.7002C2.5 11.1479 2.94772 10.7002 3.5 10.7002Z" fill="black"/>
<path fill-rule="evenodd" clip-rule="evenodd" d="M20.5 13.9502C20.9142 13.9502 21.25 14.286 21.25 14.7002V14.7102C21.25 15.1244 20.9142 15.4602 20.5 15.4602C20.0858 15.4602 19.75 15.1244 19.75 14.7102V14.7002C19.75 14.286 20.0858 13.9502 20.5 13.9502Z" fill="black"/>
<path fill-rule="evenodd" clip-rule="evenodd" d="M20.5 17.2002C20.7761 17.2002 21 17.4241 21 17.7002V17.7102C21 17.9863 20.7761 18.2102 20.5 18.2102C20.2239 18.2102 20 17.9863 20 17.7102V17.7002C20 17.4241 20.2239 17.2002 20.5 17.2002Z" fill="black"/>
<path fill-rule="evenodd" clip-rule="evenodd" d="M3.5 13.9502C3.91421 13.9502 4.25 14.286 4.25 14.7002V14.7102C4.25 15.1244 3.91421 15.4602 3.5 15.4602C3.08579 15.4602 2.75 15.1244 2.75 14.7102V14.7002C2.75 14.286 3.08579 13.9502 3.5 13.9502Z" fill="black"/>
<path fill-rule="evenodd" clip-rule="evenodd" d="M3.5 17.2002C3.77614 17.2002 4 17.4241 4 17.7002V17.7102C4 17.9863 3.77614 18.2102 3.5 18.2102C3.22386 18.2102 3 17.9863 3 17.7102V17.7002C3 17.4241 3.22386 17.2002 3.5 17.2002Z" fill="black"/>
<path fill-rule="evenodd" clip-rule="evenodd" d="M7.7998 8.2002C8.62823 8.2002 9.2998 8.87177 9.2998 9.7002V9.7102C9.2998 10.5386 8.62823 11.2102 7.7998 11.2102C6.97138 11.2102 6.2998 10.5386 6.2998 9.7102V9.7002C6.2998 8.87177 6.97138 8.2002 7.7998 8.2002Z" fill="black"/>
<path fill-rule="evenodd" clip-rule="evenodd" d="M7.75 4C8.57843 4 9.25 4.67157 9.25 5.5V5.51C9.25 6.33843 8.57843 7.01 7.75 7.01C6.92157 7.01 6.25 6.33843 6.25 5.51V5.5C6.25 4.67157 6.92157 4 7.75 4Z" fill="black"/>
<path fill-rule="evenodd" clip-rule="evenodd" d="M16.2002 8.2002C17.0286 8.2002 17.7002 8.87177 17.7002 9.7002V9.7102C17.7002 10.5386 17.0286 11.2102 16.2002 11.2102C15.3718 11.2102 14.7002 10.5386 14.7002 9.7102V9.7002C14.7002 8.87177 15.3718 8.2002 16.2002 8.2002Z" fill="black"/>
<path fill-rule="evenodd" clip-rule="evenodd" d="M16.25 4C17.0784 4 17.75 4.67157 17.75 5.5V5.51C17.75 6.33843 17.0784 7.01 16.25 7.01C15.4216 7.01 14.75 6.33843 14.75 5.51V5.5C14.75 4.67157 15.4216 4 16.25 4Z" fill="black"/>
<path fill-rule="evenodd" clip-rule="evenodd" d="M7.7998 12.7002C8.35209 12.7002 8.7998 13.1479 8.7998 13.7002V13.7102C8.7998 14.2625 8.35209 14.7102 7.7998 14.7102C7.24752 14.7102 6.7998 14.2625 6.7998 13.7102V13.7002C6.7998 13.1479 7.24752 12.7002 7.7998 12.7002Z" fill="black"/>
<path fill-rule="evenodd" clip-rule="evenodd" d="M7.7998 15.9502C8.21402 15.9502 8.5498 16.286 8.5498 16.7002V16.7102C8.5498 17.1244 8.21402 17.4602 7.7998 17.4602C7.38559 17.4602 7.0498 17.1244 7.0498 16.7102V16.7002C7.0498 16.286 7.38559 15.9502 7.7998 15.9502Z" fill="black"/>
<path fill-rule="evenodd" clip-rule="evenodd" d="M7.7998 19.2002C8.07595 19.2002 8.2998 19.4241 8.2998 19.7002V19.7102C8.2998 19.9863 8.07595 20.2102 7.7998 20.2102C7.52366 20.2102 7.2998 19.9863 7.2998 19.7102V19.7002C7.2998 19.4241 7.52366 19.2002 7.7998 19.2002Z" fill="black"/>
<path fill-rule="evenodd" clip-rule="evenodd" d="M16.2002 12.7002C16.7525 12.7002 17.2002 13.1479 17.2002 13.7002V13.7102C17.2002 14.2625 16.7525 14.7102 16.2002 14.7102C15.6479 14.7102 15.2002 14.2625 15.2002 13.7102V13.7002C15.2002 13.1479 15.6479 12.7002 16.2002 12.7002Z" fill="black"/>
<path fill-rule="evenodd" clip-rule="evenodd" d="M16.2002 15.9502C16.6144 15.9502 16.9502 16.286 16.9502 16.7002V16.7102C16.9502 17.1244 16.6144 17.4602 16.2002 17.4602C15.786 17.4602 15.4502 17.1244 15.4502 16.7102V16.7002C15.4502 16.286 15.786 15.9502 16.2002 15.9502Z" fill="black"/>
<path fill-rule="evenodd" clip-rule="evenodd" d="M16.2002 19.2002C16.4763 19.2002 16.7002 19.4241 16.7002 19.7002V19.7102C16.7002 19.9863 16.4763 20.2102 16.2002 20.2102C15.9241 20.2102 15.7002 19.9863 15.7002 19.7102V19.7002C15.7002 19.4241 15.9241 19.2002 16.2002 19.2002Z" fill="black"/>
</svg>
