<svg width="24" height="24" viewBox="0 0 24 24" fill="none" xmlns="http://www.w3.org/2000/svg">
<path fill-rule="evenodd" clip-rule="evenodd" d="M2.9502 5.71322V12.2C2.9502 17.0346 6.665 21.1588 11.4146 21.2501L11.4302 21.2506C13.4363 21.3308 15.3008 20.7112 16.7805 19.637L2.9502 5.71322ZM1.4502 5.19999C1.4502 4.18195 2.65577 3.52917 3.5502 4.19999C3.57926 4.22179 3.6067 4.24567 3.63231 4.27145L18.4323 19.1714C18.5779 19.318 18.6566 19.5182 18.6498 19.7247C18.643 19.9311 18.5513 20.1257 18.3964 20.2624C16.5593 21.8833 14.0756 22.8556 11.3779 22.7497C5.73143 22.6367 1.4502 17.7628 1.4502 12.2V5.19999Z" fill="black"/>
<path fill-rule="evenodd" clip-rule="evenodd" d="M7.31743 4.36433L20.9502 18.1839V11.6997C20.9502 6.86998 17.2399 2.84086 12.5855 2.7496L12.569 2.7491C10.6532 2.66927 8.7986 3.2873 7.31743 4.36433ZM12.6232 1.25005C10.0203 1.14388 7.53748 2.11957 5.70398 3.73737C5.5494 3.87376 5.45778 4.06777 5.45064 4.27379C5.44351 4.47982 5.5215 4.6797 5.66627 4.82646L20.2663 19.6265C20.2924 19.6529 20.3204 19.6774 20.3502 19.6997C21.2446 20.3706 22.4502 19.7178 22.4502 18.6997V11.6997C22.4502 6.13228 18.1648 1.36336 12.6232 1.25005Z" fill="black"/>
</svg>
