<svg width="24" height="24" viewBox="0 0 24 24" fill="none" xmlns="http://www.w3.org/2000/svg">
<path fill-rule="evenodd" clip-rule="evenodd" d="M12 1.5C13.1935 1.5 14.3377 1.97445 15.1816 2.81836C15.8785 3.5152 16.3232 4.41674 16.457 5.38184H14.9355C14.8165 4.81672 14.5357 4.29349 14.1211 3.87891C13.5585 3.3163 12.7956 3 12 3C11.2044 3 10.4415 3.3163 9.87891 3.87891C9.3163 4.44152 9 5.20435 9 6V8.25H14.0537V8.25488H17.127V8.25H19.5C19.8978 8.25 20.2792 8.40815 20.5605 8.68945C20.8419 8.97076 21 9.35218 21 9.75V20.25C21 20.6478 20.8419 21.0292 20.5605 21.3105C20.2792 21.5919 19.8978 21.75 19.5 21.75H4.5C4.10218 21.75 3.72076 21.5919 3.43945 21.3105C3.15815 21.0292 3 20.6478 3 20.25V9.75C3 9.35218 3.15815 8.97076 3.43945 8.68945C3.72076 8.40815 4.10218 8.25 4.5 8.25H7.5V6C7.5 4.80653 7.97445 3.66227 8.81836 2.81836C9.66227 1.97445 10.8065 1.5 12 1.5ZM11.7803 13.8965C11.5621 13.9399 11.3614 14.0468 11.2041 14.2041C11.0468 14.3614 10.9399 14.5621 10.8965 14.7803C10.8531 14.9985 10.8758 15.2251 10.9609 15.4307C11.0461 15.6361 11.1901 15.812 11.375 15.9355C11.56 16.0591 11.7775 16.125 12 16.125C12.2984 16.125 12.5849 16.0069 12.7959 15.7959C13.0069 15.5849 13.125 15.2984 13.125 15C13.125 14.7775 13.0591 14.56 12.9355 14.375C12.812 14.1901 12.6361 14.0461 12.4307 13.9609C12.2251 13.8758 11.9985 13.8531 11.7803 13.8965Z" fill="black"/>
</svg>
