<svg width="24" height="24" viewBox="0 0 24 24" fill="none" xmlns="http://www.w3.org/2000/svg">
<path fill-rule="evenodd" clip-rule="evenodd" d="M9.68012 2.5498C9.87903 2.5498 10.0698 2.62882 10.2104 2.76948L17.5604 10.1195C18.2233 10.7824 18.2233 11.8572 17.5604 12.5201L11.5404 18.5402C10.7965 19.2841 9.95144 19.7503 9.01621 19.7486C8.0824 19.7468 7.23399 19.2787 6.48178 18.5321L6.47978 18.5301L2.46979 14.5201C1.71904 13.7694 1.24512 12.9224 1.24512 11.9848C1.24512 11.0472 1.71904 10.2002 2.46979 9.44947L9.14979 2.76947C9.29044 2.62882 9.48121 2.5498 9.68012 2.5498ZM9.68012 4.36047L3.53045 10.5101C2.94119 11.0994 2.74512 11.5874 2.74512 11.9848C2.74512 12.3822 2.94119 12.8702 3.53045 13.4595L7.53846 17.4675C7.53878 17.4678 7.53911 17.4682 7.53944 17.4685C8.12679 18.0511 8.61805 18.2478 9.01902 18.2486C9.41879 18.2493 9.90372 18.0556 10.4798 17.4795L16.4998 11.4595C16.5769 11.3824 16.5769 11.2573 16.4998 11.1802L9.68012 4.36047Z" fill="black"/>
<path fill-rule="evenodd" clip-rule="evenodd" d="M7.81927 1.41987C8.11216 1.12698 8.58704 1.12697 8.87993 1.41986L10.2199 2.75982C10.5128 3.05271 10.5128 3.52759 10.2199 3.82048C9.92706 4.11338 9.45218 4.11339 9.15929 3.8205L7.81929 2.48053C7.52639 2.18764 7.52638 1.71277 7.81927 1.41987Z" fill="black"/>
<path fill-rule="evenodd" clip-rule="evenodd" d="M17.9396 11.2271C17.9577 11.6409 17.6369 11.991 17.223 12.0091L2.10303 12.669C1.68921 12.6871 1.3391 12.3663 1.32104 11.9525C1.30298 11.5386 1.6238 11.1885 2.03762 11.1705L17.1576 10.5105C17.5714 10.4924 17.9215 10.8133 17.9396 11.2271Z" fill="black"/>
<path fill-rule="evenodd" clip-rule="evenodd" d="M2.25 22C2.25 21.5858 2.58579 21.25 3 21.25H16C16.4142 21.25 16.75 21.5858 16.75 22C16.75 22.4142 16.4142 22.75 16 22.75H3C2.58579 22.75 2.25 22.4142 2.25 22Z" fill="black"/>
<path fill-rule="evenodd" clip-rule="evenodd" d="M19.4018 14.4921L18.85 15L18.2982 14.4921C18.4402 14.3378 18.6403 14.25 18.85 14.25C19.0597 14.25 19.2598 14.3378 19.4018 14.4921ZM18.85 16.1699C18.7499 16.2988 18.6438 16.4408 18.538 16.5908C18.3201 16.9 18.1141 17.2291 17.9652 17.5393C17.8096 17.8637 17.75 18.0991 17.75 18.24C17.75 18.8458 18.2442 19.34 18.85 19.34C19.4558 19.34 19.95 18.8458 19.95 18.24C19.95 18.0991 19.8904 17.8637 19.7348 17.5393C19.5859 17.2291 19.3799 16.9 19.1619 16.5908C19.0562 16.4408 18.9501 16.2988 18.85 16.1699ZM18.85 15C18.2982 14.4921 18.2983 14.492 18.2982 14.4921L18.2972 14.4931L18.2956 14.4949L18.2904 14.5006L18.2723 14.5205C18.257 14.5375 18.2352 14.5618 18.208 14.5927C18.1535 14.6545 18.0768 14.7429 17.9853 14.8525C17.8029 15.0709 17.5582 15.3772 17.312 15.7267C17.0674 16.0737 16.8109 16.4778 16.6129 16.8903C16.4217 17.2888 16.25 17.7658 16.25 18.24C16.25 19.6742 17.4158 20.84 18.85 20.84C20.2842 20.84 21.45 19.6742 21.45 18.24C21.45 17.7658 21.2783 17.2888 21.0871 16.8903C20.8891 16.4778 20.6326 16.0737 20.388 15.7267C20.1418 15.3772 19.8971 15.0709 19.7147 14.8525C19.6232 14.7429 19.5465 14.6545 19.492 14.5927C19.4648 14.5618 19.443 14.5375 19.4277 14.5205L19.4096 14.5006L19.4044 14.4949L19.4018 14.4921C19.4017 14.492 19.4018 14.4921 18.85 15Z" fill="black"/>
</svg>
