<svg width="24" height="24" viewBox="0 0 24 24" fill="none" xmlns="http://www.w3.org/2000/svg">
<path fill-rule="evenodd" clip-rule="evenodd" d="M11.8544 1.88428C13.0674 1.76816 14.2166 2.4859 15.53 3.79929L18.99 7.25929C20.237 8.50634 20.932 9.64382 20.8465 10.8561C20.7637 12.0314 19.9535 13.0164 18.99 13.9799L13.4188 19.5511C12.8122 20.1552 12.2675 20.6493 11.7502 20.9939C11.2262 21.3428 10.6788 21.5734 10.0755 21.5771C9.4713 21.5808 8.91993 21.3564 8.3895 21.0075C7.86623 20.6633 7.31482 20.1655 6.6993 19.5499L3.2393 16.0899C2.58547 15.4361 2.06759 14.8649 1.71587 14.3347C1.35947 13.7973 1.1333 13.2423 1.1525 12.6347C1.17156 12.0314 1.42899 11.4981 1.78652 10.9968C2.14052 10.5004 2.64123 9.96985 3.23819 9.37039L3.2393 9.36929L8.8093 3.79929C9.2982 3.31038 9.7716 2.86591 10.2483 2.53242C10.7302 2.19528 11.2571 1.94146 11.8544 1.88428ZM11.1081 3.7615C10.7464 4.01457 10.351 4.37885 9.86996 4.85995L4.30106 10.4288C3.70335 11.0291 3.28239 11.4827 3.00773 11.8678C2.73652 12.248 2.65769 12.494 2.65175 12.6821C2.64595 12.8657 2.70603 13.1138 2.96588 13.5055C3.23042 13.9043 3.65878 14.3881 4.29996 15.0293L7.75996 18.4893C8.35943 19.0888 8.82303 19.4972 9.21382 19.7543C9.59745 20.0066 9.85921 20.0784 10.0663 20.0771C10.2742 20.0758 10.5361 20.0002 10.9187 19.7454C11.3079 19.4862 11.7669 19.0792 12.36 18.4886L17.9293 12.9193C18.9057 11.9429 19.3106 11.3128 19.3502 10.7506C19.3873 10.2254 19.1122 9.50289 17.9293 8.31995L14.4693 4.85995C13.1927 3.58333 12.4819 3.33107 11.9973 3.37745C11.7459 3.40152 11.4647 3.51208 11.1081 3.7615Z" fill="black"/>
<path fill-rule="evenodd" clip-rule="evenodd" d="M21.7219 16.4015L22.3833 17.4937C22.9289 18.403 23.0914 19.4098 22.62 20.2408C22.1488 21.0715 21.2013 21.4495 20.1401 21.4495C19.079 21.4495 18.1315 21.0715 17.6603 20.2408C17.1889 19.4098 17.3514 18.403 17.897 17.4937L17.8986 17.4911L18.5569 16.4038C18.9001 15.8269 19.4508 15.3945 20.1364 15.3945C20.8212 15.3945 21.3741 15.8265 21.7219 16.4015ZM20.055 16.9277C20.0041 16.9621 19.9272 17.0339 19.8452 17.1721L19.8417 17.178L19.1825 18.2666C18.7989 18.9066 18.8565 19.3094 18.965 19.5007C19.0738 19.6925 19.3913 19.9495 20.1401 19.9495C20.889 19.9495 21.2065 19.6925 21.3153 19.5007C21.4238 19.3094 21.4814 18.9066 21.0978 18.2666L20.4386 17.178C20.3543 17.0386 20.275 16.9648 20.2219 16.9293C20.1716 16.8957 20.1439 16.8945 20.1364 16.8945C20.1291 16.8945 20.1029 16.8955 20.055 16.9277Z" fill="black"/>
<path fill-rule="evenodd" clip-rule="evenodd" d="M18.8127 12.836C13.3595 11.4387 7.63184 11.4875 2.19675 12.9636C1.79702 13.0722 1.38497 12.8361 1.2764 12.4364C1.16784 12.0367 1.40389 11.6246 1.80362 11.516C7.4881 9.97223 13.48 9.92091 19.1864 11.3833L19.1889 11.384L19.6889 11.514C20.0898 11.6182 20.3303 12.0277 20.2261 12.4285C20.1218 12.8294 19.7123 13.0699 19.3115 12.9657L18.814 12.8363L18.8127 12.836Z" fill="black"/>
</svg>
