<svg width="24" height="24" viewBox="0 0 24 24" fill="none" xmlns="http://www.w3.org/2000/svg">
<path fill-rule="evenodd" clip-rule="evenodd" d="M8.26936 5.24959C11.2923 2.2267 16.2071 2.2267 19.23 5.24959C22.2529 8.27249 22.2529 13.1874 19.23 16.2103L15.34 20.1003C13.6771 21.7631 10.9923 21.7631 9.32936 20.1003C7.66646 18.4374 7.66646 15.7525 9.32936 14.0896L11.7994 11.6196C12.0922 11.3267 12.5671 11.3267 12.86 11.6196C13.1529 11.9125 13.1529 12.3874 12.86 12.6803L10.39 15.1503C9.31291 16.2274 9.31291 17.9625 10.39 19.0396C11.4671 20.1167 13.2023 20.1167 14.2794 19.0396L18.1694 15.1496C20.6065 12.7125 20.6065 8.74736 18.1694 6.31025C15.7323 3.87315 11.7671 3.87315 9.33002 6.31025L5.09002 10.5503C3.04353 12.5967 3.04191 15.9227 5.09115 17.9807C5.38341 18.2742 5.3824 18.7491 5.08889 19.0414C4.79537 19.3336 4.3205 19.3326 4.02823 19.0391C1.39746 16.3971 1.39584 12.1231 4.02936 9.48959L8.26936 5.24959Z" fill="black"/>
<path fill-rule="evenodd" clip-rule="evenodd" d="M8.26936 5.24959C11.2923 2.2267 16.2071 2.2267 19.23 5.24959C22.2529 8.27249 22.2529 13.1874 19.23 16.2103L15.34 20.1003C13.6771 21.7631 10.9923 21.7631 9.32936 20.1003C7.66646 18.4374 7.66646 15.7525 9.32936 14.0896L11.7994 11.6196C12.0922 11.3267 12.5671 11.3267 12.86 11.6196C13.1529 11.9125 13.1529 12.3874 12.86 12.6803L10.39 15.1503C9.31291 16.2274 9.31291 17.9625 10.39 19.0396C11.4671 20.1167 13.2023 20.1167 14.2794 19.0396L18.1694 15.1496C20.6065 12.7125 20.6065 8.74736 18.1694 6.31025C15.7323 3.87315 11.7671 3.87315 9.33002 6.31025L5.09002 10.5503C3.04353 12.5967 3.04191 15.9227 5.09115 17.9807C5.38341 18.2742 5.3824 18.7491 5.08889 19.0414C4.79537 19.3336 4.3205 19.3326 4.02823 19.0391C1.39746 16.3971 1.39584 12.1231 4.02936 9.48959L8.26936 5.24959Z" fill="black"/>
</svg>
