<svg width="24" height="24" viewBox="0 0 24 24" fill="none" xmlns="http://www.w3.org/2000/svg">
<path fill-rule="evenodd" clip-rule="evenodd" d="M7.5 5.25C6.89105 5.25 6.38302 5.27004 5.94607 5.33246C5.93813 5.3336 5.93017 5.3346 5.9222 5.33548C4.70657 5.46953 4.13894 5.79944 3.81013 6.29874C3.43687 6.86555 3.25 7.81741 3.25 9.5V14.5C3.25 16.1826 3.43687 17.1345 3.81013 17.7013C4.13894 18.2006 4.70657 18.5305 5.9222 18.6645C5.93017 18.6654 5.93813 18.6664 5.94607 18.6675C6.38302 18.73 6.89105 18.75 7.5 18.75H11.02C11.4342 18.75 11.77 19.0858 11.77 19.5C11.77 19.9142 11.4342 20.25 11.02 20.25H7.5C6.8736 20.25 6.28569 20.2303 5.74593 20.1542C4.33727 19.9971 3.23915 19.5615 2.55737 18.5262C1.91813 17.5555 1.75 16.1974 1.75 14.5V9.5C1.75 7.80259 1.91813 6.44445 2.55737 5.47376C3.23915 4.43847 4.33727 4.00291 5.74594 3.84583C6.2857 3.76967 6.8736 3.75 7.5 3.75H10.96C11.3742 3.75 11.71 4.08579 11.71 4.5C11.71 4.91421 11.3742 5.25 10.96 5.25H7.5Z" fill="black"/>
<path fill-rule="evenodd" clip-rule="evenodd" d="M14.2695 4.5C14.2695 4.08579 14.6053 3.75 15.0195 3.75H16.4995C17.1259 3.75 17.7138 3.76967 18.2536 3.84583C19.6623 4.00291 20.7604 4.43847 21.4422 5.47376C22.0814 6.44445 22.2495 7.80259 22.2495 9.5V14.5C22.2495 16.1974 22.0814 17.5555 21.4422 18.5262C20.7604 19.5615 19.6623 19.9971 18.2536 20.1542C17.7138 20.2303 17.1259 20.25 16.4995 20.25H15.0195C14.6053 20.25 14.2695 19.9142 14.2695 19.5C14.2695 19.0858 14.6053 18.75 15.0195 18.75H16.4995C17.1085 18.75 17.6165 18.73 18.0535 18.6675C18.0614 18.6664 18.0694 18.6654 18.0773 18.6645C19.293 18.5305 19.8606 18.2006 20.1894 17.7013C20.5627 17.1345 20.7495 16.1826 20.7495 14.5V9.5C20.7495 7.81741 20.5627 6.86555 20.1894 6.29874C19.8606 5.79944 19.293 5.46953 18.0773 5.33548C18.0694 5.3346 18.0614 5.3336 18.0535 5.33246C17.6165 5.27004 17.1085 5.25 16.4995 5.25H15.0195C14.6053 5.25 14.2695 4.91421 14.2695 4.5Z" fill="black"/>
<path fill-rule="evenodd" clip-rule="evenodd" d="M15 1.25C15.4142 1.25 15.75 1.58579 15.75 2V22C15.75 22.4142 15.4142 22.75 15 22.75C14.5858 22.75 14.25 22.4142 14.25 22V2C14.25 1.58579 14.5858 1.25 15 1.25Z" fill="black"/>
<path fill-rule="evenodd" clip-rule="evenodd" d="M8 7.75C8.41421 7.75 8.75 8.08579 8.75 8.5V15.5C8.75 15.9142 8.41421 16.25 8 16.25C7.58579 16.25 7.25 15.9142 7.25 15.5V8.5C7.25 8.08579 7.58579 7.75 8 7.75Z" fill="black"/>
</svg>
