<svg width="24" height="24" viewBox="0 0 24 24" fill="none" xmlns="http://www.w3.org/2000/svg">
<path fill-rule="evenodd" clip-rule="evenodd" d="M14.843 2.66819C15.7163 2.63367 16.5916 3.01094 17.2904 3.70978L20.3204 6.73978C21.6595 8.07882 21.6983 10.3483 20.052 11.3933L17.3812 13.0838C17.0848 13.2715 16.6978 13.2285 16.4498 12.9804L11.0498 7.58044C10.8017 7.33235 10.7587 6.94544 10.9464 6.64899L12.6354 3.98046C13.1486 3.16184 13.957 2.70321 14.843 2.66819ZM14.9022 4.16702C14.5237 4.18198 14.1627 4.36775 13.9058 4.77807L13.9038 4.78123L12.5348 6.94414L17.0861 11.4954L19.2481 10.1269C19.248 10.127 19.2483 10.1268 19.2481 10.1269C19.9015 9.7117 20.0805 8.62119 19.2598 7.80044L16.2298 4.77044C15.7786 4.31927 15.2939 4.15154 14.9022 4.16702Z" fill="black"/>
<path fill-rule="evenodd" clip-rule="evenodd" d="M4.83922 6.71529C5.56513 6.11189 6.55543 5.99326 7.69434 6.06087L7.69561 6.06095L11.6256 6.30095C12.0391 6.3262 12.3538 6.68183 12.3285 7.09527C12.3033 7.50871 11.9476 7.82341 11.5342 7.79816L7.60545 7.55824C7.60525 7.55822 7.60566 7.55825 7.60545 7.55824C6.5548 7.49594 6.06461 7.64726 5.79807 7.86881C5.53435 8.08802 5.30981 8.52531 5.195 9.52512L5.19475 9.52729L4.21475 17.8473L4.21455 17.8489C4.13419 18.5186 4.3388 19.0349 4.66832 19.3636C4.99818 19.6926 5.51487 19.8952 6.18003 19.815L6.18216 19.8147L14.5008 18.8349C14.5012 18.8348 14.5015 18.8348 14.5019 18.8347C15.5068 18.7144 15.9708 18.4887 16.2014 18.2193C16.4213 17.9624 16.5774 17.4876 16.4737 16.4545C16.4726 16.4442 16.4718 16.4338 16.4712 16.4234L16.2412 12.4934C16.217 12.0799 16.5326 11.725 16.9461 11.7008C17.3596 11.6766 17.7144 11.9922 17.7386 12.4057L17.9677 16.3205C18.0813 17.4706 17.9656 18.4651 17.3409 19.1948C16.7241 19.9153 15.7633 20.1945 14.679 20.3242L14.6776 20.3244L6.35976 21.3041C6.35931 21.3042 6.35886 21.3043 6.35841 21.3043C5.2841 21.4336 4.29632 21.1112 3.60897 20.4255C2.92118 19.7394 2.59577 18.7511 2.72514 17.6711C2.7251 17.6713 2.72517 17.6708 2.72514 17.6711L3.70479 9.35399C3.70484 9.35362 3.70488 9.35326 3.70492 9.35289C3.83017 8.26316 4.11069 7.32088 4.83922 6.71529Z" fill="black"/>
<path fill-rule="evenodd" clip-rule="evenodd" d="M8.16981 15.8487C8.46318 16.1411 8.46396 16.616 8.17155 16.9093L5.14155 19.9493C4.84914 20.2427 4.37427 20.2435 4.0809 19.9511C3.78752 19.6587 3.78674 19.1838 4.07915 18.8904L7.10915 15.8504C7.40156 15.5571 7.87643 15.5563 8.16981 15.8487Z" fill="black"/>
</svg>
