<svg width="24" height="24" viewBox="0 0 24 24" fill="none" xmlns="http://www.w3.org/2000/svg">
<path fill-rule="evenodd" clip-rule="evenodd" d="M11.9697 2.75C6.86109 2.75 2.71973 6.89137 2.71973 12C2.71973 17.1086 6.86109 21.25 11.9697 21.25C17.0784 21.25 21.2197 17.1086 21.2197 12C21.2197 6.89137 17.0784 2.75 11.9697 2.75ZM1.21973 12C1.21973 6.06294 6.03267 1.25 11.9697 1.25C17.9068 1.25 22.7197 6.06294 22.7197 12C22.7197 17.9371 17.9068 22.75 11.9697 22.75C6.03267 22.75 1.21973 17.9371 1.21973 12Z" fill="black"/>
<path fill-rule="evenodd" clip-rule="evenodd" d="M7.64861 8.40971C7.97318 8.10297 8.39214 8.0498 8.71 8.0498H10.01C10.3279 8.0498 10.7468 8.10297 11.0714 8.40971C11.4069 8.72676 11.47 9.14931 11.47 9.4698V14.5298C11.47 14.8503 11.4069 15.2752 11.0672 15.5927C10.7407 15.8978 10.3198 15.9498 10 15.9498H8.71C8.39214 15.9498 7.97318 15.8966 7.64861 15.5899C7.31313 15.2729 7.25 14.8503 7.25 14.5298V9.4698C7.25 9.14931 7.31313 8.72676 7.64861 8.40971ZM8.75 9.5498V14.4498H9.97V9.5498H8.75Z" fill="black"/>
<path fill-rule="evenodd" clip-rule="evenodd" d="M12.9386 8.40971C13.2632 8.10297 13.6822 8.0498 14 8.0498H15.29C15.6079 8.0498 16.0269 8.10297 16.3514 8.40971C16.6869 8.72676 16.75 9.14931 16.75 9.4698V14.5298C16.75 14.8503 16.6869 15.2729 16.3514 15.5899C16.0269 15.8966 15.6079 15.9498 15.29 15.9498H14C13.6822 15.9498 13.2632 15.8966 12.9386 15.5899C12.6032 15.2729 12.54 14.8503 12.54 14.5298V9.4698C12.54 9.14931 12.6032 8.72676 12.9386 8.40971ZM14.04 9.5498V14.4498H15.25V9.5498H14.04Z" fill="black"/>
</svg>
