<svg width="24" height="24" viewBox="0 0 24 24" fill="none" xmlns="http://www.w3.org/2000/svg">
<path fill-rule="evenodd" clip-rule="evenodd" d="M9.02898 19.014C9.10639 18.6723 9.41007 18.4297 9.76044 18.4297H14.2604C14.6108 18.4297 14.9145 18.6723 14.9919 19.014L15.4034 20.8307C15.5436 21.477 15.3725 22.1055 14.9492 22.5644C14.5335 23.0151 13.9264 23.2496 13.2704 23.2496H10.7504C9.49492 23.2496 8.30543 22.1876 8.61927 20.8226L9.02898 19.014ZM10.3596 19.9297L10.0819 21.1553L10.0812 21.1583C10.0536 21.2781 10.0839 21.4071 10.195 21.5268C10.3094 21.6499 10.5034 21.7496 10.7504 21.7496H13.2704C13.5745 21.7496 13.7574 21.6442 13.8466 21.5474C13.9279 21.4592 13.9768 21.3336 13.9381 21.1514L13.6613 19.9297H10.3596Z" fill="black"/>
<path fill-rule="evenodd" clip-rule="evenodd" d="M12.0146 9.97266C12.6891 9.97266 13.3204 10.2986 13.7681 10.8652L16.817 14.7338L16.8179 14.7349C17.2306 15.255 17.5717 15.8458 17.5089 16.5254C17.4464 17.2015 17.0054 17.7318 16.4877 18.1908L14.7583 19.7304C14.4489 20.0058 13.9748 19.9783 13.6994 19.6689C13.424 19.3595 13.4515 18.8854 13.7609 18.61L15.4921 17.0689C15.9442 16.6681 16.0078 16.4685 16.0153 16.3874C16.0224 16.3099 15.9991 16.116 15.6422 15.6664L15.6406 15.6643L12.5911 11.7951C12.3988 11.5519 12.1851 11.4727 12.0146 11.4727C11.8442 11.4727 11.6307 11.5516 11.4384 11.7947L8.38704 15.6664C8.02654 16.1205 7.99323 16.325 7.99982 16.409C8.00531 16.479 8.05667 16.6734 8.51579 17.0507C8.52342 17.057 8.53092 17.0634 8.53829 17.07L10.2683 18.61C10.5777 18.8854 10.6052 19.3595 10.3298 19.6689C10.0544 19.9783 9.58031 20.0058 9.27093 19.7304L7.55163 18.1999C7.00609 17.7492 6.55853 17.2163 6.50441 16.5263C6.45103 15.8456 6.80222 15.2505 7.21137 14.7348L7.21219 14.7338L10.2606 10.8659C10.7082 10.2994 11.3401 9.97266 12.0146 9.97266Z" fill="black"/>
<path fill-rule="evenodd" clip-rule="evenodd" d="M12.0098 10.3701C12.424 10.3701 12.7598 10.7059 12.7598 11.1201V13.6501C12.7598 14.0644 12.424 14.4001 12.0098 14.4001C11.5956 14.4001 11.2598 14.0644 11.2598 13.6501V11.1201C11.2598 10.7059 11.5956 10.3701 12.0098 10.3701Z" fill="black"/>
<path fill-rule="evenodd" clip-rule="evenodd" d="M11.6804 2.46096L10.9004 3.24097C10.7233 3.41808 10.7233 3.70317 10.9004 3.88028L11.6804 4.6603C11.8575 4.8374 12.1426 4.83741 12.3197 4.66032L13.0997 3.88029C13.2768 3.70318 13.2768 3.41809 13.0997 3.24098L12.3197 2.46096C12.1426 2.28386 11.8575 2.28386 11.6804 2.46096ZM10.6197 1.40029C11.3826 0.637402 12.6175 0.637402 13.3804 1.40029L14.1604 2.18032C14.9233 2.94321 14.9233 4.17803 14.1604 4.94093L13.3804 5.72095C12.6175 6.48385 11.3826 6.48386 10.6197 5.72096L9.83974 4.94094C9.07686 4.17805 9.07685 2.94323 9.83973 2.18033L10.6197 1.40029Z" fill="black"/>
<path fill-rule="evenodd" clip-rule="evenodd" d="M19.45 10.5605C19.2042 10.5605 19 10.7648 19 11.0106V12.1105C19 12.3564 19.2043 12.5606 19.45 12.5606H20.55C20.7957 12.5606 21 12.3564 21 12.1105V11.0106C21 10.7648 20.7958 10.5605 20.55 10.5605H19.45ZM17.5 11.0106C17.5 9.93636 18.3758 9.06055 19.45 9.06055H20.55C21.6242 9.06055 22.5 9.93636 22.5 11.0106V12.1105C22.5 13.1847 21.6243 14.0606 20.55 14.0606H19.45C18.3757 14.0606 17.5 13.1847 17.5 12.1105V11.0106Z" fill="black"/>
<path fill-rule="evenodd" clip-rule="evenodd" d="M1.5 11.0106C1.5 9.93636 2.37577 9.06055 3.45 9.06055H4.55C5.62423 9.06055 6.5 9.93636 6.5 11.0106V12.1105C6.5 13.1847 5.62428 14.0606 4.55 14.0606H3.45C2.37572 14.0606 1.5 13.1847 1.5 12.1105V11.0106ZM3.45 10.5605C3.20422 10.5605 3 10.7648 3 11.0106V12.1105C3 12.3564 3.20427 12.5606 3.45 12.5606H4.55C4.79573 12.5606 5 12.3564 5 12.1105V11.0106C5 10.7648 4.79578 10.5605 4.55 10.5605H3.45Z" fill="black"/>
<path fill-rule="evenodd" clip-rule="evenodd" d="M12.7099 4.26948C13.0028 3.97658 13.4777 3.97658 13.7706 4.26947L19.0706 9.56946C19.3635 9.86235 19.3635 10.3372 19.0706 10.6301C18.7777 10.923 18.3028 10.923 18.0099 10.6301L12.7099 5.33014C12.417 5.03724 12.417 4.56237 12.7099 4.26948Z" fill="black"/>
<path fill-rule="evenodd" clip-rule="evenodd" d="M11.2903 4.26948C11.5832 4.56237 11.5832 5.03724 11.2903 5.33014L5.99029 10.6301C5.6974 10.923 5.22252 10.923 4.92963 10.6301C4.63674 10.3372 4.63674 9.86235 4.92963 9.56946L10.2296 4.26947C10.5225 3.97658 10.9974 3.97658 11.2903 4.26948Z" fill="black"/>
</svg>
