<svg width="24" height="24" viewBox="0 0 24 24" fill="none" xmlns="http://www.w3.org/2000/svg">
<path fill-rule="evenodd" clip-rule="evenodd" d="M16.0042 3.25129C16.9079 3.21554 17.8158 3.60451 18.5404 4.32911L21.7181 7.50677C21.7185 7.50718 21.7189 7.50759 21.7193 7.508C23.1198 8.89751 23.1583 11.2569 21.4528 12.3422L21.4508 12.3434L18.6509 14.1134C18.3544 14.3008 17.9677 14.2577 17.7198 14.0098L12.0498 8.33978C11.8018 8.09181 11.7588 7.70512 11.9461 7.4087L13.7149 4.61064C13.7152 4.61029 13.7154 4.60994 13.7156 4.60959C14.2492 3.76042 15.0879 3.28753 16.0042 3.25129ZM16.0635 4.75011C15.6527 4.76637 15.2617 4.96812 14.9853 5.40829L14.9841 5.41022L13.5345 7.70323L18.3563 12.525L20.6474 11.0767C20.6472 11.0769 20.6477 11.0766 20.6474 11.0767C21.3608 10.622 21.5401 9.44241 20.6621 8.57209L20.6598 8.56977L17.4798 5.38977C17.0044 4.91437 16.4874 4.73335 16.0635 4.75011Z" fill="black"/>
<path fill-rule="evenodd" clip-rule="evenodd" d="M5.14769 10.015C5.55903 10.0637 5.85302 10.4366 5.80434 10.848L4.82416 19.1294C4.73871 19.8402 4.95423 20.3914 5.30735 20.7445C5.66069 21.0978 6.21551 21.3164 6.93325 21.2348C6.93366 21.2347 6.93407 21.2347 6.93448 21.2346L15.6507 20.2051C16.6999 20.0799 17.1968 19.842 17.4478 19.5479C17.6888 19.2655 17.852 18.7521 17.7433 17.6644C17.7422 17.6541 17.7414 17.6438 17.7408 17.6334L17.5008 13.5134C17.4767 13.0999 17.7924 12.7452 18.2059 12.7211C18.6194 12.697 18.9742 13.0127 18.9983 13.4262L19.2374 17.531C19.356 18.7365 19.2324 19.7674 18.5888 20.5216C17.9522 21.2676 16.9591 21.5596 15.8284 21.6945L7.10751 22.7246L7.10457 22.725C5.98291 22.853 4.95817 22.5166 4.24671 21.8052C3.53499 21.0935 3.20049 20.07 3.3348 18.9511C3.33477 18.9513 3.33483 18.9508 3.3348 18.9511L4.31474 10.6717C4.36342 10.2603 4.73635 9.96635 5.14769 10.015Z" fill="black"/>
<path fill-rule="evenodd" clip-rule="evenodd" d="M10.0816 7.65318C10.1076 7.23978 10.4637 6.92572 10.8771 6.9517L12.6271 7.06168C13.0405 7.08766 13.3546 7.44385 13.3286 7.85725C13.3026 8.27065 12.9465 8.58471 12.5331 8.55873L10.7831 8.44874C10.3697 8.42276 10.0556 8.06658 10.0816 7.65318Z" fill="black"/>
<path fill-rule="evenodd" clip-rule="evenodd" d="M8.98976 17.0587C9.28311 17.3511 9.28386 17.826 8.99143 18.1193L5.81144 21.3094C5.51901 21.6028 5.04414 21.6035 4.75078 21.3111C4.45743 21.0186 4.45668 20.5438 4.74911 20.2504L7.9291 17.0604C8.22153 16.767 8.6964 16.7662 8.98976 17.0587Z" fill="black"/>
<path fill-rule="evenodd" clip-rule="evenodd" d="M6.5 2.75C5.61698 2.75 4.80173 3.05774 4.16037 3.57416L4.15439 3.57897C3.29155 4.25929 2.75 5.31377 2.75 6.5C2.75 7.19677 2.94918 7.86371 3.29228 8.43275L3.29312 8.43413C3.74356 9.18488 4.45167 9.76667 5.29717 10.0485L5.31125 10.0533C5.67526 10.1828 6.06976 10.25 6.5 10.25C7.45055 10.25 8.30509 9.90127 8.9626 9.31866L8.97183 9.31049C9.25775 9.06541 9.50637 8.76833 9.70689 8.43414C9.88251 8.14143 10.0152 7.83422 10.1068 7.50114L10.1095 7.49145C10.2002 7.17823 10.25 6.83841 10.25 6.5C10.25 4.42421 8.57579 2.75 6.5 2.75ZM3.22262 2.40342C4.12081 1.68128 5.26439 1.25 6.5 1.25C9.40421 1.25 11.75 3.59579 11.75 6.5C11.75 6.97984 11.6803 7.45828 11.5518 7.90368C11.4235 8.36877 11.2367 8.79998 10.9931 9.20588C10.7147 9.66992 10.3648 10.0913 9.95278 10.4454C9.03089 11.2604 7.82724 11.75 6.5 11.75C5.91282 11.75 5.34969 11.6581 4.81578 11.4692C3.62442 11.0701 2.63519 10.2531 2.00687 9.20588L2.64999 8.82001L2.00771 9.20727C1.53081 8.41631 1.25 7.48323 1.25 6.5C1.25 4.84759 2.00723 3.36317 3.22262 2.40342Z" fill="black"/>
<path fill-rule="evenodd" clip-rule="evenodd" d="M4.0498 6.5C4.0498 6.08579 4.38559 5.75 4.7998 5.75H8.15982C8.57403 5.75 8.90982 6.08579 8.90982 6.5C8.90982 6.91421 8.57403 7.25 8.15982 7.25H4.7998C4.38559 7.25 4.0498 6.91421 4.0498 6.5Z" fill="black"/>
</svg>
