<svg width="24" height="24" viewBox="0 0 24 24" fill="none" xmlns="http://www.w3.org/2000/svg">
<path fill-rule="evenodd" clip-rule="evenodd" d="M9.02896 19.014C9.10637 18.6723 9.41005 18.4297 9.76043 18.4297H14.2604C14.6108 18.4297 14.9145 18.6723 14.9919 19.014L15.4034 20.8307C15.5436 21.477 15.3725 22.1055 14.9492 22.5644C14.5335 23.0151 13.9264 23.2496 13.2704 23.2496H10.7504C9.49491 23.2496 8.30543 22.1876 8.61927 20.8226L9.02896 19.014ZM10.3595 19.9297L10.0819 21.1553L10.0812 21.1583C10.0536 21.2781 10.0839 21.4071 10.195 21.5268C10.3094 21.6499 10.5034 21.7496 10.7504 21.7496H13.2704C13.5745 21.7496 13.7574 21.6442 13.8466 21.5474C13.9279 21.4592 13.9768 21.3335 13.9381 21.1514L13.6613 19.9297H10.3595Z" fill="black"/>
<path fill-rule="evenodd" clip-rule="evenodd" d="M12.0146 9.97266C12.6891 9.97266 13.3204 10.2986 13.7681 10.8652L16.817 14.7338L16.8179 14.7349C17.2306 15.255 17.5717 15.8458 17.5089 16.5254C17.4465 17.2014 17.0055 17.7317 16.488 18.1907L16.4872 18.1913L14.7583 19.7304C14.4489 20.0058 13.9748 19.9783 13.6994 19.6689C13.424 19.3595 13.4515 18.8854 13.7609 18.61L15.4909 17.0699L15.4921 17.0689C15.9442 16.6681 16.0078 16.4685 16.0153 16.3874C16.0225 16.3099 15.9991 16.116 15.6422 15.6664L15.6406 15.6643L12.5911 11.7951C12.3988 11.5519 12.185 11.4727 12.0146 11.4727C11.8442 11.4727 11.6306 11.5516 11.4383 11.7949L8.38704 15.6664C8.02654 16.1205 7.99323 16.325 7.99982 16.409C8.00531 16.479 8.05667 16.6734 8.51579 17.0507C8.52341 17.057 8.53091 17.0634 8.53829 17.0699L10.2683 18.61C10.5777 18.8854 10.6052 19.3595 10.3298 19.6689C10.0544 19.9783 9.58033 20.0058 9.27094 19.7304L7.55162 18.1999C7.00608 17.7492 6.55852 17.2163 6.50441 16.5263C6.45103 15.8457 6.80221 15.2505 7.21135 14.7349L7.2122 14.7338L10.2606 10.8659C10.7082 10.2994 11.3401 9.97266 12.0146 9.97266Z" fill="black"/>
<path fill-rule="evenodd" clip-rule="evenodd" d="M12.0098 10.3701C12.424 10.3701 12.7598 10.7059 12.7598 11.1201V13.6501C12.7598 14.0644 12.424 14.4001 12.0098 14.4001C11.5956 14.4001 11.2598 14.0644 11.2598 13.6501V11.1201C11.2598 10.7059 11.5956 10.3701 12.0098 10.3701Z" fill="black"/>
<path fill-rule="evenodd" clip-rule="evenodd" d="M11.5195 2.75C11.3837 2.75 11.2695 2.86421 11.2695 3V4C11.2695 4.13579 11.3837 4.25 11.5195 4.25H12.5195C12.6553 4.25 12.7695 4.13579 12.7695 4V3C12.7695 2.86421 12.6553 2.75 12.5195 2.75H11.5195ZM9.76953 3C9.76953 2.03579 10.5553 1.25 11.5195 1.25H12.5195C13.4837 1.25 14.2695 2.03579 14.2695 3V4C14.2695 4.96421 13.4837 5.75 12.5195 5.75H11.5195C10.5553 5.75 9.76953 4.96421 9.76953 4V3Z" fill="black"/>
<path fill-rule="evenodd" clip-rule="evenodd" d="M1.51953 12.17C1.51953 11.2058 2.30526 10.4199 3.26953 10.4199H4.26953C5.2338 10.4199 6.01953 11.2058 6.01953 12.17V13.17C6.01953 14.1342 5.23374 14.92 4.26953 14.92H3.26953C2.30532 14.92 1.51953 14.1342 1.51953 13.17V12.17ZM3.26953 11.9199C3.1338 11.9199 3.01953 12.0341 3.01953 12.17V13.17C3.01953 13.3058 3.13374 13.42 3.26953 13.42H4.26953C4.40532 13.42 4.51953 13.3058 4.51953 13.17V12.17C4.51953 12.0341 4.40526 11.9199 4.26953 11.9199H3.26953Z" fill="black"/>
<path fill-rule="evenodd" clip-rule="evenodd" d="M19.7305 11.9199C19.5947 11.9199 19.4805 12.0341 19.4805 12.17V13.17C19.4805 13.3058 19.5947 13.42 19.7305 13.42H20.7305C20.8663 13.42 20.9805 13.3058 20.9805 13.17V12.17C20.9805 12.0341 20.8662 11.9199 20.7305 11.9199H19.7305ZM17.9805 12.17C17.9805 11.2058 18.7662 10.4199 19.7305 10.4199H20.7305C21.6947 10.4199 22.4805 11.2058 22.4805 12.17V13.17C22.4805 14.1342 21.6947 14.92 20.7305 14.92H19.7305C18.7663 14.92 17.9805 14.1342 17.9805 13.17V12.17Z" fill="black"/>
<path fill-rule="evenodd" clip-rule="evenodd" d="M11.2648 3.47167C11.3134 3.88303 11.0193 4.25588 10.608 4.30447C7.16904 4.71064 4.5 7.62632 4.5 11.1696C4.5 11.5838 4.16421 11.9196 3.75 11.9196C3.33579 11.9196 3 11.5838 3 11.1696C3 6.85294 6.25097 3.30865 10.432 2.81482C10.8434 2.76623 11.2162 3.06032 11.2648 3.47167Z" fill="black"/>
<path fill-rule="evenodd" clip-rule="evenodd" d="M12.7753 3.46735C12.8263 3.05628 13.2008 2.76437 13.6119 2.81535C17.7707 3.33108 20.9996 6.86424 20.9996 11.1696C20.9996 11.5838 20.6638 11.9196 20.2496 11.9196C19.8354 11.9196 19.4996 11.5838 19.4996 11.1696C19.4996 7.63503 16.8485 4.72821 13.4273 4.30395C13.0162 4.25297 12.7243 3.87841 12.7753 3.46735Z" fill="black"/>
</svg>
