<svg width="24" height="24" viewBox="0 0 24 24" fill="none" xmlns="http://www.w3.org/2000/svg">
<path fill-rule="evenodd" clip-rule="evenodd" d="M2.25 22C2.25 21.5858 2.58579 21.25 3 21.25H21C21.4142 21.25 21.75 21.5858 21.75 22C21.75 22.4142 21.4142 22.75 21 22.75H3C2.58579 22.75 2.25 22.4142 2.25 22Z" fill="black"/>
<path fill-rule="evenodd" clip-rule="evenodd" d="M2.25 2C2.25 1.58579 2.58579 1.25 3 1.25H21C21.4142 1.25 21.75 1.58579 21.75 2C21.75 2.41421 21.4142 2.75 21 2.75H3C2.58579 2.75 2.25 2.41421 2.25 2Z" fill="black"/>
<path fill-rule="evenodd" clip-rule="evenodd" d="M12 5.25C12.4142 5.25 12.75 5.58579 12.75 6V18C12.75 18.4142 12.4142 18.75 12 18.75C11.5858 18.75 11.25 18.4142 11.25 18V6C11.25 5.58579 11.5858 5.25 12 5.25Z" fill="black"/>
<path fill-rule="evenodd" clip-rule="evenodd" d="M11.4696 4.35932C11.7625 4.06643 12.2374 4.06643 12.5303 4.35932L15.3603 7.18932C15.6531 7.48221 15.6531 7.95709 15.3603 8.24998C15.0674 8.54287 14.5925 8.54287 14.2996 8.24998L11.9999 5.95031L9.70025 8.24998C9.40736 8.54287 8.93249 8.54287 8.63959 8.24998C8.3467 7.95709 8.3467 7.48221 8.63959 7.18932L11.4696 4.35932Z" fill="black"/>
<path fill-rule="evenodd" clip-rule="evenodd" d="M8.63959 15.3593C8.93248 15.0664 9.40736 15.0664 9.70025 15.3593L11.9999 17.659L14.2996 15.3593C14.5925 15.0664 15.0674 15.0664 15.3603 15.3593C15.6531 15.6522 15.6531 16.1271 15.3603 16.42L12.5303 19.25C12.2374 19.5429 11.7625 19.5429 11.4696 19.25L8.63959 16.42C8.3467 16.1271 8.3467 15.6522 8.63959 15.3593Z" fill="black"/>
</svg>
