<svg width="24" height="24" viewBox="0 0 24 24" fill="none" xmlns="http://www.w3.org/2000/svg">
<path fill-rule="evenodd" clip-rule="evenodd" d="M3.09467 3.09467C4.42914 1.7602 6.42603 1.25 9 1.25H15C17.574 1.25 19.5709 1.7602 20.9053 3.09467C22.2398 4.42914 22.75 6.42603 22.75 9V15C22.75 17.574 22.2398 19.5709 20.9053 20.9053C19.5709 22.2398 17.574 22.75 15 22.75H9C6.42603 22.75 4.42914 22.2398 3.09467 20.9053C1.7602 19.5709 1.25 17.574 1.25 15V9C1.25 6.42603 1.7602 4.42914 3.09467 3.09467ZM4.15533 4.15533C3.2398 5.07086 2.75 6.57397 2.75 9V15C2.75 17.426 3.2398 18.9291 4.15533 19.8447C5.07086 20.7602 6.57397 21.25 9 21.25H15C17.426 21.25 18.9291 20.7602 19.8447 19.8447C20.7602 18.9291 21.25 17.426 21.25 15V9C21.25 6.57397 20.7602 5.07086 19.8447 4.15533C18.9291 3.2398 17.426 2.75 15 2.75H9C6.57397 2.75 5.07086 3.2398 4.15533 4.15533Z" fill="black"/>
<path fill-rule="evenodd" clip-rule="evenodd" d="M8.81999 1.27214C9.22207 1.17263 9.62869 1.41791 9.72821 1.81999L14.6782 21.82C14.7777 22.2221 14.5325 22.6287 14.1304 22.7282C13.7283 22.8277 13.3217 22.5824 13.2222 22.1804L8.27214 2.18036C8.17263 1.77828 8.41791 1.37166 8.81999 1.27214Z" fill="black"/>
<path fill-rule="evenodd" clip-rule="evenodd" d="M12.2502 12.0099C12.3662 12.4075 12.1379 12.8239 11.7403 12.9399L2.21022 15.7199C1.81258 15.8359 1.3962 15.6076 1.2802 15.2099C1.16421 14.8123 1.39253 14.3959 1.79017 14.2799L11.3202 11.4999C11.7178 11.3839 12.1342 11.6123 12.2502 12.0099Z" fill="black"/>
</svg>
