<svg width="24" height="24" viewBox="0 0 24 24" fill="none" xmlns="http://www.w3.org/2000/svg">
<path fill-rule="evenodd" clip-rule="evenodd" d="M6.41897 4.59308C5.46966 5.14159 4.75 6.39037 4.75 8.43993V15.5599C4.75 17.6095 5.46966 18.8583 6.41897 19.4068C7.36816 19.9552 8.80921 19.9551 10.5852 18.9303L16.7472 15.3807C18.5634 14.19 19.2765 12.9376 19.2738 11.8857C19.271 10.8437 18.5624 9.66665 16.7654 8.62966C16.7653 8.62962 16.7654 8.62969 16.7654 8.62966L10.5856 5.06982C8.80969 4.04505 7.36816 4.04463 6.41897 4.59308ZM11.3346 3.77021C9.28065 2.58507 7.24179 2.38526 5.66853 3.29429C4.09534 4.20328 3.25 6.06949 3.25 8.43993V15.5599C3.25 17.9304 4.09534 19.7966 5.66853 20.7056C7.24184 21.6146 9.28079 21.4148 11.3348 20.2295L17.5144 16.6698C17.5264 16.6629 17.5383 16.6556 17.55 16.6479C19.5811 15.322 20.7785 13.6639 20.7737 11.8817C20.769 10.0862 19.5476 8.5033 17.5148 7.33032L11.3346 3.77021C11.3347 3.77025 11.3346 3.77017 11.3346 3.77021Z" fill="black"/>
<path fill-rule="evenodd" clip-rule="evenodd" d="M6.41897 4.59308C5.46966 5.14159 4.75 6.39037 4.75 8.43993V15.5599C4.75 17.6095 5.46966 18.8583 6.41897 19.4068C7.36816 19.9552 8.80921 19.9551 10.5852 18.9303L16.7472 15.3807C18.5634 14.19 19.2765 12.9376 19.2738 11.8857C19.271 10.8437 18.5624 9.66665 16.7654 8.62966C16.7653 8.62962 16.7654 8.62969 16.7654 8.62966L10.5856 5.06982C8.80969 4.04505 7.36816 4.04463 6.41897 4.59308ZM11.3346 3.77021C9.28065 2.58507 7.24179 2.38526 5.66853 3.29429C4.09534 4.20328 3.25 6.06949 3.25 8.43993V15.5599C3.25 17.9304 4.09534 19.7966 5.66853 20.7056C7.24184 21.6146 9.28079 21.4148 11.3348 20.2295L17.5144 16.6698C17.5264 16.6629 17.5383 16.6556 17.55 16.6479C19.5811 15.322 20.7785 13.6639 20.7737 11.8817C20.769 10.0862 19.5476 8.5033 17.5148 7.33032L11.3346 3.77021C11.3347 3.77025 11.3346 3.77017 11.3346 3.77021Z" fill="black"/>
</svg>
