<svg width="24" height="24" viewBox="0 0 24 24" fill="none" xmlns="http://www.w3.org/2000/svg">
<path fill-rule="evenodd" clip-rule="evenodd" d="M11.3346 3.77021C9.28065 2.58507 7.24179 2.38526 5.66853 3.29429C4.09534 4.20328 3.25 6.06949 3.25 8.43993V15.5599C3.25 17.9304 4.09534 19.7966 5.66853 20.7056C7.24184 21.6146 9.28079 21.4148 11.3348 20.2295L17.5144 16.6698C17.5264 16.6629 17.5383 16.6556 17.55 16.6479C19.5811 15.322 20.7785 13.6639 20.7737 11.8817C20.769 10.0862 19.5476 8.5033 17.5148 7.33032L11.3346 3.77021Z" fill="black"/>
<path fill-rule="evenodd" clip-rule="evenodd" d="M11.3346 3.77021C9.28065 2.58507 7.24179 2.38526 5.66853 3.29429C4.09534 4.20328 3.25 6.06949 3.25 8.43993V15.5599C3.25 17.9304 4.09534 19.7966 5.66853 20.7056C7.24184 21.6146 9.28079 21.4148 11.3348 20.2295L17.5144 16.6698C17.5264 16.6629 17.5383 16.6556 17.55 16.6479C19.5811 15.322 20.7785 13.6639 20.7737 11.8817C20.769 10.0862 19.5476 8.5033 17.5148 7.33032L11.3346 3.77021Z" fill="black"/>
</svg>
