<svg width="24" height="24" viewBox="0 0 24 24" fill="none" xmlns="http://www.w3.org/2000/svg">
<path fill-rule="evenodd" clip-rule="evenodd" d="M18.5393 4.40004C18.8318 4.10677 19.3067 4.10616 19.6 4.39868C23.8041 8.5921 23.8032 15.3975 19.6006 19.6C19.3078 19.8929 18.8329 19.8929 18.54 19.6C18.2471 19.3071 18.2471 18.8323 18.54 18.5394C22.1575 14.9219 22.1565 9.06727 18.5407 5.4607C18.2474 5.16818 18.2468 4.6933 18.5393 4.40004Z" fill="black"/>
<path fill-rule="evenodd" clip-rule="evenodd" d="M5.46088 4.39936C5.75377 4.69225 5.75377 5.16712 5.46088 5.46002C1.84339 9.0775 1.84437 14.9321 5.4602 18.5387C5.75347 18.8312 5.75407 19.3061 5.46156 19.5994C5.16904 19.8926 4.69416 19.8932 4.4009 19.6007C0.196721 15.4073 0.197699 8.60187 4.40022 4.39936C4.69311 4.10646 5.16798 4.10646 5.46088 4.39936Z" fill="black"/>
<path fill-rule="evenodd" clip-rule="evenodd" d="M7.99158 21.1653C8.12695 20.7738 8.55404 20.5662 8.94551 20.7015C9.93332 21.0431 10.9592 21.2101 11.997 21.2104C13.0442 21.2007 14.0715 21.0417 15.0553 20.7015C15.4467 20.5662 15.8738 20.7738 16.0092 21.1653C16.1446 21.5567 15.9369 21.9838 15.5455 22.1192C14.3903 22.5186 13.1988 22.6997 12.0071 22.7104L12.0004 22.7104C10.7994 22.7104 9.60641 22.5172 8.45529 22.1192C8.06382 21.9838 7.85621 21.5567 7.99158 21.1653Z" fill="black"/>
<path fill-rule="evenodd" clip-rule="evenodd" d="M12.0004 2.79004C10.9614 2.79004 9.93438 2.95696 8.94551 3.29891C8.55404 3.43427 8.12695 3.22666 7.99158 2.83519C7.85621 2.44372 8.06382 2.01664 8.45529 1.88127C9.60641 1.48322 10.7994 1.29004 12.0004 1.29004C13.2014 1.29004 14.3944 1.48322 15.5455 1.88127C15.9369 2.01664 16.1446 2.44372 16.0092 2.83519C15.8738 3.22666 15.4467 3.43427 15.0553 3.29891C14.0664 2.95696 13.0394 2.79004 12.0004 2.79004Z" fill="black"/>
<path fill-rule="evenodd" clip-rule="evenodd" d="M10.0756 8.86403C9.79531 9.02604 9.49023 9.44952 9.49023 10.3297V13.6897C9.49023 14.5699 9.79531 14.9934 10.0756 15.1554C10.3555 15.3172 10.8737 15.3701 11.6348 14.9305C11.6347 14.9305 11.6349 14.9304 11.6348 14.9305L14.5343 13.2507C15.2954 12.811 15.5102 12.3345 15.5102 12.0097C15.5102 11.685 15.2961 11.2088 14.535 10.7691L11.635 9.0891C11.6349 9.08904 11.6352 9.08916 11.635 9.0891C10.874 8.64947 10.3555 8.70221 10.0756 8.86403ZM9.3249 7.56539C10.2299 7.04222 11.3467 7.19013 12.3855 7.7903L15.2855 9.47029C15.2853 9.47022 15.2856 9.47036 15.2855 9.47029C16.3242 10.0706 17.0102 10.9646 17.0102 12.0097C17.0102 13.0549 16.3245 13.9487 15.2857 14.549C15.2856 14.549 15.2857 14.549 15.2857 14.549L12.3862 16.2287C11.3475 16.8288 10.2299 16.9772 9.3249 16.454C8.42017 15.931 7.99023 14.8895 7.99023 13.6897V10.3297C7.99023 9.12991 8.42017 8.08838 9.3249 7.56539Z" fill="black"/>
</svg>
