<svg width="24" height="24" viewBox="0 0 24 24" fill="none" xmlns="http://www.w3.org/2000/svg">
<path fill-rule="evenodd" clip-rule="evenodd" d="M11.9697 2.75C6.86109 2.75 2.71973 6.89137 2.71973 12C2.71973 17.1086 6.86109 21.25 11.9697 21.25C17.0784 21.25 21.2197 17.1086 21.2197 12C21.2197 6.89137 17.0784 2.75 11.9697 2.75ZM1.21973 12C1.21973 6.06294 6.03267 1.25 11.9697 1.25C17.9068 1.25 22.7197 6.06294 22.7197 12C22.7197 17.9371 17.9068 22.75 11.9697 22.75C6.03267 22.75 1.21973 17.9371 1.21973 12Z" fill="black"/>
<path fill-rule="evenodd" clip-rule="evenodd" d="M10.0756 9.09449C9.79531 9.2565 9.49023 9.67997 9.49023 10.5602V13.9202C9.49023 14.8004 9.79531 15.2238 10.0756 15.3859C10.3555 15.5477 10.8737 15.6006 11.6348 15.1609L14.5343 13.4812C15.2953 13.0415 15.5102 12.5649 15.5102 12.2402C15.5102 11.9154 15.2961 11.4393 14.535 10.9996L11.635 9.31957C10.874 8.87997 10.3555 8.93268 10.0756 9.09449ZM9.32489 7.79585C10.2299 7.27269 11.3467 7.42061 12.3854 8.02077L15.2854 9.70077C16.3242 10.301 17.0102 11.195 17.0102 12.2402C17.0102 13.2854 16.3244 14.1792 15.2856 14.7795L12.3862 16.4591C11.3474 17.0593 10.2299 17.2077 9.32489 16.6845C8.42016 16.1615 7.99023 15.12 7.99023 13.9202V10.5602C7.99023 9.36037 8.42016 8.31884 9.32489 7.79585Z" fill="black"/>
</svg>
