<svg width="24" height="24" viewBox="0 0 24 24" fill="none" xmlns="http://www.w3.org/2000/svg">
<path fill-rule="evenodd" clip-rule="evenodd" d="M7.12479 3.65041C7.35695 3.51627 7.64305 3.51627 7.87521 3.65041L12.3752 6.25041C12.6071 6.38441 12.75 6.63194 12.75 6.8998V8.4998C12.75 8.91402 12.4142 9.2498 12 9.2498C11.5858 9.2498 11.25 8.91402 11.25 8.4998V7.33266L7.5 5.16599L3.75 7.33266V11.667L7.5 13.8336L11.6248 11.4504C11.9834 11.2432 12.4422 11.3659 12.6494 11.7246C12.8566 12.0833 12.7339 12.542 12.3752 12.7492L7.87521 15.3492C7.64305 15.4833 7.35695 15.4833 7.12479 15.3492L2.62479 12.7492C2.39286 12.6152 2.25 12.3677 2.25 12.0998V6.8998C2.25 6.63194 2.39286 6.38441 2.62479 6.25041L7.12479 3.65041Z" fill="black"/>
<path fill-rule="evenodd" clip-rule="evenodd" d="M16.1249 8.8506C16.3571 8.71647 16.6432 8.71647 16.8753 8.8506L21.3753 11.4506C21.6073 11.5846 21.7501 11.8321 21.7501 12.1V17.3C21.7501 17.5679 21.6073 17.8154 21.3753 17.9494L16.8753 20.5494C16.6432 20.6835 16.3571 20.6835 16.1249 20.5494L11.6249 17.9494C11.393 17.8154 11.2501 17.5679 11.2501 17.3V15.6C11.2501 15.1858 11.5859 14.85 12.0001 14.85C12.4143 14.85 12.7501 15.1858 12.7501 15.6V16.8671L16.5001 19.0338L20.2501 16.8671V12.5329L16.5001 10.3662L12.3752 12.7492C12.0166 12.9564 11.5579 12.8339 11.3507 12.4752C11.1435 12.1166 11.2661 11.6576 11.6248 11.4504L16.1249 8.8506Z" fill="black"/>
</svg>
