<svg width="24" height="24" viewBox="0 0 24 24" fill="none" xmlns="http://www.w3.org/2000/svg">
<path fill-rule="evenodd" clip-rule="evenodd" d="M8.75 3.2002C8.75 2.78598 9.08579 2.4502 9.5 2.4502H14.5C18.7072 2.4502 22.25 5.87903 22.25 10.2002C22.25 14.4074 18.8212 17.9502 14.5 17.9502H3.5C3.08579 17.9502 2.75 17.6144 2.75 17.2002C2.75 16.786 3.08579 16.4502 3.5 16.4502H14.5C17.9788 16.4502 20.75 13.593 20.75 10.2002C20.75 6.72136 17.8928 3.9502 14.5 3.9502H9.5C9.08579 3.9502 8.75 3.61441 8.75 3.2002Z" fill="black"/>
<path fill-rule="evenodd" clip-rule="evenodd" d="M2.4502 6.7998C2.4502 6.38559 2.78598 6.0498 3.2002 6.0498H13.8002C16.2144 6.0498 18.2502 8.08559 18.2502 10.4998C18.2502 12.914 16.2144 14.9498 13.8002 14.9498H8.0002C7.58598 14.9498 7.2502 14.614 7.2502 14.1998C7.2502 13.7856 7.58598 13.4498 8.0002 13.4498H13.8002C15.386 13.4498 16.7502 12.0856 16.7502 10.4998C16.7502 8.91402 15.386 7.5498 13.8002 7.5498H3.2002C2.78598 7.5498 2.4502 7.21402 2.4502 6.7998Z" fill="black"/>
<path fill-rule="evenodd" clip-rule="evenodd" d="M4.75 10.7998C4.75 10.3856 5.08579 10.0498 5.5 10.0498H8.5C8.91421 10.0498 9.25 10.3856 9.25 10.7998C9.25 11.214 8.91421 11.5498 8.5 11.5498H5.5C5.08579 11.5498 4.75 11.214 4.75 10.7998Z" fill="black"/>
<path fill-rule="evenodd" clip-rule="evenodd" d="M1.75 20.7998C1.75 20.3856 2.08579 20.0498 2.5 20.0498H6.5C6.91421 20.0498 7.25 20.3856 7.25 20.7998C7.25 21.214 6.91421 21.5498 6.5 21.5498H2.5C2.08579 21.5498 1.75 21.214 1.75 20.7998Z" fill="black"/>
</svg>
