<svg width="24" height="24" viewBox="0 0 24 24" fill="none" xmlns="http://www.w3.org/2000/svg">
<path fill-rule="evenodd" clip-rule="evenodd" d="M2.24023 2C2.24023 1.58579 2.57602 1.25 2.99023 1.25H20.9902C21.4044 1.25 21.7402 1.58579 21.7402 2V14.1C21.7402 15.1754 21.4559 16.12 20.7831 16.7928C20.1103 17.4656 19.1656 17.75 18.0902 17.75H5.90024C4.82457 17.75 3.88053 17.4655 3.20684 16.7935C2.53349 16.1219 2.2459 15.1786 2.24024 14.104L2.24023 14.1V2ZM3.74023 2.75V14.098C3.7449 14.9222 3.96222 15.4284 4.26614 15.7315C4.56994 16.0345 5.07591 16.25 5.90024 16.25H18.0902C18.9149 16.25 19.4202 16.0344 19.7224 15.7322C20.0246 15.43 20.2402 14.9246 20.2402 14.1V2.75H3.74023Z" fill="black"/>
<path fill-rule="evenodd" clip-rule="evenodd" d="M1.25 2C1.25 1.58579 1.58579 1.25 2 1.25H22C22.4142 1.25 22.75 1.58579 22.75 2C22.75 2.41421 22.4142 2.75 22 2.75H2C1.58579 2.75 1.25 2.41421 1.25 2Z" fill="black"/>
<path fill-rule="evenodd" clip-rule="evenodd" d="M12.0002 16.25C12.4144 16.25 12.7502 16.5858 12.7502 17V20C12.7502 20.2841 12.5897 20.5438 12.3356 20.6708L8.33557 22.6708C7.96509 22.8561 7.51459 22.7059 7.32934 22.3354C7.1441 21.9649 7.29427 21.5144 7.66475 21.3292L11.2502 19.5365V17C11.2502 16.5858 11.586 16.25 12.0002 16.25Z" fill="black"/>
<path fill-rule="evenodd" clip-rule="evenodd" d="M11.3293 19.6648C11.5146 19.2943 11.9651 19.1441 12.3356 19.3293L16.3356 21.3293C16.7061 21.5146 16.8562 21.9651 16.671 22.3356C16.4857 22.7061 16.0352 22.8562 15.6648 22.671L11.6648 20.671C11.2943 20.4857 11.1441 20.0352 11.3293 19.6648Z" fill="black"/>
<path fill-rule="evenodd" clip-rule="evenodd" d="M17.0757 7.51934C17.3412 7.8373 17.2987 8.31026 16.9807 8.57573L13.8307 11.2057L13.8185 11.2157C13.5408 11.4379 13.1836 11.5451 12.8217 11.4848C12.457 11.424 12.1495 11.2031 11.9589 10.8893L11.9569 10.8859L10.9056 9.13369L7.9807 11.5757C7.66274 11.8412 7.18977 11.7987 6.9243 11.4807C6.65883 11.1627 6.70138 10.6898 7.01934 10.4243L10.1676 7.79573C10.168 7.79544 10.1683 7.79514 10.1687 7.79484C10.4508 7.55832 10.8165 7.44778 11.185 7.51261C11.5516 7.57712 11.8544 7.8032 12.0411 8.11079L12.0431 8.11414L13.0945 9.86635L16.0193 7.4243C16.3373 7.15883 16.8103 7.20138 17.0757 7.51934Z" fill="black"/>
</svg>
