<svg width="24" height="24" viewBox="0 0 24 24" fill="none" xmlns="http://www.w3.org/2000/svg">
<path fill-rule="evenodd" clip-rule="evenodd" d="M19.4897 7.22042C19.4897 5.83098 17.9873 4.96672 16.7843 5.6602L12.6352 8.04966L8.48429 10.4502C7.28486 11.1416 7.28486 12.8692 8.48429 13.5606L8.48518 13.5612L12.6352 15.9612L16.784 18.3505C17.9848 19.0427 19.4897 18.1724 19.4897 16.7904V7.22042ZM16.0354 4.3605C18.2324 3.09428 20.9897 4.66997 20.9897 7.22042V16.7904C20.9897 19.3284 18.2346 20.9178 16.0354 19.6503L11.8854 17.2603L7.73515 14.8602C5.53523 13.5915 5.53474 10.4196 7.73466 9.15092L11.8854 6.75049L16.0354 4.3605Z" fill="black"/>
<path fill-rule="evenodd" clip-rule="evenodd" d="M3.75977 5.07031C4.17398 5.07031 4.50977 5.4061 4.50977 5.82031V18.1803C4.50977 18.5945 4.17398 18.9303 3.75977 18.9303C3.34555 18.9303 3.00977 18.5945 3.00977 18.1803V5.82031C3.00977 5.4061 3.34555 5.07031 3.75977 5.07031Z" fill="black"/>
</svg>
