<svg width="24" height="24" viewBox="0 0 24 24" fill="none" xmlns="http://www.w3.org/2000/svg">
<path fill-rule="evenodd" clip-rule="evenodd" d="M7.3591 2.23704C8.03327 1.51793 9.03399 1.25 10.25 1.25H13.75C14.966 1.25 15.9667 1.51793 16.6409 2.23704C17.3054 2.94586 17.5 3.93363 17.5 5V7C17.5 7.41421 17.1642 7.75 16.75 7.75H7.25C6.83579 7.75 6.5 7.41421 6.5 7V5C6.5 3.93363 6.69458 2.94586 7.3591 2.23704ZM8.4534 3.26296C8.18042 3.55414 8 4.06637 8 5V6.25H16V5C16 4.06637 15.8196 3.55414 15.5466 3.26296C15.2833 2.98207 14.784 2.75 13.75 2.75H10.25C9.21601 2.75 8.71673 2.98207 8.4534 3.26296Z" fill="black"/>
<path fill-rule="evenodd" clip-rule="evenodd" d="M12.2204 15C12.2204 14.5858 12.5562 14.25 12.9704 14.25H16.0004C16.4147 14.25 16.7504 14.5858 16.7504 15V19C16.7504 20.1156 16.471 21.0901 15.7808 21.7803C15.0905 22.4706 14.1161 22.75 13.0004 22.75H11.0004C10.0587 22.75 9.21689 22.553 8.55742 22.0723C7.88317 21.5809 7.48976 20.8589 7.33254 19.9942C7.25844 19.5866 7.52875 19.1962 7.93628 19.1221C8.34381 19.048 8.73425 19.3183 8.80834 19.7258C8.91112 20.2911 9.13771 20.6391 9.44097 20.8602C9.759 21.092 10.2522 21.25 11.0004 21.25H13.0004C13.8848 21.25 14.4104 21.0294 14.7201 20.7197C15.0299 20.4099 15.2504 19.8844 15.2504 19V15.75H12.9704C12.5562 15.75 12.2204 15.4142 12.2204 15Z" fill="black"/>
<path fill-rule="evenodd" clip-rule="evenodd" d="M4.28033 8.28033C3.97059 8.59007 3.75 9.11561 3.75 10V15C3.75 15.8844 3.97059 16.4099 4.28033 16.7197C4.59007 17.0294 5.11561 17.25 6 17.25C6.41421 17.25 6.75 17.5858 6.75 18C6.75 18.4142 6.41421 18.75 6 18.75C4.88439 18.75 3.90993 18.4706 3.21967 17.7803C2.52941 17.0901 2.25 16.1156 2.25 15V10C2.25 8.88439 2.52941 7.90993 3.21967 7.21967C3.90993 6.52941 4.88439 6.25 6 6.25H16.59C17.0042 6.25 17.34 6.58579 17.34 7C17.34 7.41421 17.0042 7.75 16.59 7.75H6C5.11561 7.75 4.59007 7.97059 4.28033 8.28033Z" fill="black"/>
<path fill-rule="evenodd" clip-rule="evenodd" d="M19.3543 7.0913C19.5909 6.75127 20.0583 6.66738 20.3983 6.90392C21.3652 7.57655 21.75 8.69301 21.75 9.9996V14.9996C21.75 16.1152 21.4706 17.0897 20.7803 17.7799C20.0901 18.4702 19.1156 18.7496 18 18.7496H16C15.5858 18.7496 15.25 18.4138 15.25 17.9996L15.2504 15.75L13 15.7496C12.5858 15.7496 12.25 15.4138 12.25 14.9996C12.25 14.5854 12.5858 14.2496 13 14.2496L16.0004 14.25C16.4147 14.25 16.7504 14.5858 16.7504 15L16.75 17.2496H18C18.8844 17.2496 19.4099 17.029 19.7197 16.7193C20.0294 16.4095 20.25 15.884 20.25 14.9996V9.9996C20.25 8.96619 19.9548 8.42265 19.5417 8.13528C19.2017 7.89873 19.1178 7.43133 19.3543 7.0913Z" fill="black"/>
<path fill-rule="evenodd" clip-rule="evenodd" d="M15.04 15C15.04 14.5858 15.3758 14.25 15.79 14.25H17C17.4143 14.25 17.75 14.5858 17.75 15C17.75 15.4142 17.4143 15.75 17 15.75H15.79C15.3758 15.75 15.04 15.4142 15.04 15Z" fill="black"/>
<path fill-rule="evenodd" clip-rule="evenodd" d="M6.25 11C6.25 10.5858 6.58579 10.25 7 10.25H9C9.41421 10.25 9.75 10.5858 9.75 11C9.75 11.4142 9.41421 11.75 9 11.75H7C6.58579 11.75 6.25 11.4142 6.25 11Z" fill="black"/>
<path fill-rule="evenodd" clip-rule="evenodd" d="M22.5303 1.46967C22.8232 1.76256 22.8232 2.23744 22.5303 2.53033L2.53033 22.5303C2.23744 22.8232 1.76256 22.8232 1.46967 22.5303C1.17678 22.2374 1.17678 21.7626 1.46967 21.4697L21.4697 1.46967C21.7626 1.17678 22.2374 1.17678 22.5303 1.46967Z" fill="black"/>
</svg>
