<svg width="24" height="24" viewBox="0 0 24 24" fill="none" xmlns="http://www.w3.org/2000/svg">
<path fill-rule="evenodd" clip-rule="evenodd" d="M10.75 4.5C10.75 4.08579 11.0858 3.75 11.5 3.75H17C18.5142 3.75 19.75 4.98579 19.75 6.5V16C19.75 16.4142 19.4142 16.75 19 16.75C18.5858 16.75 18.25 16.4142 18.25 16V6.5C18.25 5.81421 17.6858 5.25 17 5.25H11.5C11.0858 5.25 10.75 4.91421 10.75 4.5Z" fill="black"/>
<path fill-rule="evenodd" clip-rule="evenodd" d="M14.5762 1.51988C14.8413 1.83809 14.7983 2.31101 14.4801 2.57618L12.1715 4.50002L14.4801 6.42385C14.7983 6.68903 14.8413 7.16195 14.5762 7.48016C14.311 7.79836 13.8381 7.84136 13.5199 7.57618L10.5199 5.07618C10.3489 4.93369 10.25 4.7226 10.25 4.50002C10.25 4.27743 10.3489 4.06635 10.5199 3.92385L13.5199 1.42385C13.8381 1.15868 14.311 1.20167 14.5762 1.51988Z" fill="black"/>
<path fill-rule="evenodd" clip-rule="evenodd" d="M19 16.75C17.7574 16.75 16.75 17.7574 16.75 19C16.75 20.2426 17.7574 21.25 19 21.25C20.2426 21.25 21.25 20.2426 21.25 19C21.25 17.7574 20.2426 16.75 19 16.75ZM15.25 19C15.25 16.9289 16.9289 15.25 19 15.25C21.0711 15.25 22.75 16.9289 22.75 19C22.75 21.0711 21.0711 22.75 19 22.75C16.9289 22.75 15.25 21.0711 15.25 19Z" fill="black"/>
<path fill-rule="evenodd" clip-rule="evenodd" d="M5 7.25C5.41421 7.25 5.75 7.58579 5.75 8V17.5C5.75 18.1858 6.31421 18.75 7 18.75H12.5C12.9142 18.75 13.25 19.0858 13.25 19.5C13.25 19.9142 12.9142 20.25 12.5 20.25H7C5.48579 20.25 4.25 19.0142 4.25 17.5V8C4.25 7.58579 4.58579 7.25 5 7.25Z" fill="black"/>
<path fill-rule="evenodd" clip-rule="evenodd" d="M9.42385 16.5199C9.68903 16.2017 10.1619 16.1587 10.4802 16.4239L13.4802 18.9239C13.6512 19.0663 13.75 19.2774 13.75 19.5C13.75 19.7226 13.6512 19.9337 13.4802 20.0762L10.4802 22.5762C10.1619 22.8414 9.68903 22.7984 9.42385 22.4802C9.15868 22.1619 9.20167 21.689 9.51988 21.4239L11.8285 19.5L9.51988 17.5762C9.20167 17.311 9.15868 16.8381 9.42385 16.5199Z" fill="black"/>
<path fill-rule="evenodd" clip-rule="evenodd" d="M5 2.75C3.75736 2.75 2.75 3.75736 2.75 5C2.75 6.24264 3.75736 7.25 5 7.25C6.24264 7.25 7.25 6.24264 7.25 5C7.25 3.75736 6.24264 2.75 5 2.75ZM1.25 5C1.25 2.92893 2.92893 1.25 5 1.25C7.07107 1.25 8.75 2.92893 8.75 5C8.75 7.07107 7.07107 8.75 5 8.75C2.92893 8.75 1.25 7.07107 1.25 5Z" fill="black"/>
</svg>
