<svg width="24" height="24" viewBox="0 0 24 24" fill="none" xmlns="http://www.w3.org/2000/svg">
<path fill-rule="evenodd" clip-rule="evenodd" d="M9.15051 2.93541C8.66215 3.07141 8.34961 3.49188 8.34961 3.89961V7.59961C8.34961 8.01382 8.01382 8.34961 7.59961 8.34961C7.1854 8.34961 6.84961 8.01382 6.84961 7.59961V3.89961C6.84961 2.71591 7.7238 1.74548 8.81771 1.472C8.84102 1.46618 8.86459 1.46147 8.88835 1.45791C10.9593 1.14726 13.0316 1.14684 15.1025 1.45666C16.3096 1.61269 17.1496 2.66335 17.1496 3.89961V9.79961C17.1496 11.4138 15.8138 12.7496 14.1996 12.7496H9.79961C9.01382 12.7496 8.34961 13.4138 8.34961 14.1996V20.0996C8.34961 20.5073 8.66215 20.9278 9.15051 21.0638C11.0635 21.3468 12.9753 21.3449 14.8884 21.0579L14.9066 21.0554C15.2942 21.007 15.6496 20.66 15.6496 20.0996V16.3996C15.6496 15.9854 15.9854 15.6496 16.3996 15.6496C16.8138 15.6496 17.1496 15.9854 17.1496 16.3996V20.0996C17.1496 21.3359 16.3096 22.3865 15.1025 22.5426C13.0316 22.8524 10.9593 22.852 8.88835 22.5413C8.86459 22.5377 8.84102 22.533 8.81771 22.5272C7.7238 22.2537 6.84961 21.2833 6.84961 20.0996V14.1996C6.84961 12.5854 8.1854 11.2496 9.79961 11.2496H14.1996C14.9854 11.2496 15.6496 10.5854 15.6496 9.79961V3.89961C15.6496 3.33925 15.2942 2.99227 14.9066 2.94382L14.8884 2.94131C12.9753 2.65436 11.0635 2.65239 9.15051 2.93541Z" fill="black"/>
<path fill-rule="evenodd" clip-rule="evenodd" d="M15.65 7.59961C15.65 7.1854 15.9858 6.84961 16.4 6.84961H20.1C21.2837 6.84961 22.2541 7.7238 22.5276 8.81771C22.5334 8.84102 22.5381 8.86459 22.5417 8.88835C22.8523 10.9593 22.8528 13.0316 22.5429 15.1025C22.3869 16.3096 21.3363 17.1496 20.1 17.1496H12C11.5858 17.1496 11.25 16.8138 11.25 16.3996C11.25 15.9854 11.5858 15.6496 12 15.6496H20.1C20.6604 15.6496 21.0073 15.2942 21.0558 14.9066L21.0583 14.8884C21.3453 12.9753 21.3472 11.0635 21.0642 9.15051C20.9282 8.66215 20.5077 8.34961 20.1 8.34961H16.4C15.9858 8.34961 15.65 8.01382 15.65 7.59961Z" fill="black"/>
<path fill-rule="evenodd" clip-rule="evenodd" d="M1.472 8.81771C1.74548 7.7238 2.71591 6.84961 3.89961 6.84961H11.9996C12.4138 6.84961 12.7496 7.1854 12.7496 7.59961C12.7496 8.01382 12.4138 8.34961 11.9996 8.34961H3.89961C3.49188 8.34961 3.07141 8.66215 2.93541 9.15051C2.65239 11.0635 2.65436 12.9753 2.94131 14.8884L2.94382 14.9066C2.99227 15.2942 3.33925 15.6496 3.89961 15.6496H7.59961C8.01382 15.6496 8.34961 15.9854 8.34961 16.3996C8.34961 16.8138 8.01382 17.1496 7.59961 17.1496H3.89961C2.66335 17.1496 1.61269 16.3096 1.45666 15.1025C1.14684 13.0316 1.14726 10.9593 1.45791 8.88835C1.46147 8.86459 1.46618 8.84102 1.472 8.81771Z" fill="black"/>
<path fill-rule="evenodd" clip-rule="evenodd" d="M10 5.59961C9.58579 5.59961 9.25 5.26382 9.25 4.84961C9.25 4.4354 9.58579 4.09961 10 4.09961C10.4142 4.09961 10.75 4.4354 10.75 4.84961C10.75 5.26382 10.4142 5.59961 10 5.59961Z" fill="black"/>
<path fill-rule="evenodd" clip-rule="evenodd" d="M14 19.9004C13.5858 19.9004 13.25 19.5646 13.25 19.1504C13.25 18.7362 13.5858 18.4004 14 18.4004C14.4142 18.4004 14.75 18.7362 14.75 19.1504C14.75 19.5646 14.4142 19.9004 14 19.9004Z" fill="black"/>
</svg>
