<svg width="24" height="24" viewBox="0 0 24 24" fill="none" xmlns="http://www.w3.org/2000/svg">
<path fill-rule="evenodd" clip-rule="evenodd" d="M12 1.25C6.08579 1.25 1.25 6.08579 1.25 12C1.25 17.9142 6.08579 22.75 12 22.75C17.9142 22.75 22.75 17.9142 22.75 12C22.75 6.08579 17.9142 1.25 12 1.25ZM2.75 12C2.75 6.91421 6.91421 2.75 12 2.75C17.0858 2.75 21.25 6.91421 21.25 12C21.25 17.0858 17.0858 21.25 12 21.25C6.91421 21.25 2.75 17.0858 2.75 12ZM11.0828 12.0582V14.4806H12.5172V13.0789C12.8299 13.018 13.1333 12.9114 13.4276 12.759C13.7218 12.5965 13.9839 12.3883 14.2138 12.1343C14.4529 11.8804 14.6414 11.5757 14.7793 11.2202C14.9264 10.8546 15 10.4432 15 9.98615C15 9.53924 14.931 9.13296 14.7931 8.76731C14.6552 8.3915 14.4575 8.07664 14.2 7.82271C13.9425 7.55863 13.6299 7.35549 13.2621 7.2133C12.8943 7.0711 12.4851 7 12.0345 7C11.5931 7 11.2023 7.0711 10.8621 7.2133C10.5218 7.34534 10.2276 7.52816 9.97931 7.76177C9.73103 7.98523 9.52414 8.24423 9.35862 8.53878C9.2023 8.83333 9.08276 9.13804 9 9.45291L10.3103 10.0319C10.4115 9.57479 10.6 9.19898 10.8759 8.90443C11.1517 8.60988 11.5195 8.4626 11.9793 8.4626C12.4115 8.4626 12.7563 8.59464 13.0138 8.85873C13.2713 9.11265 13.4 9.47322 13.4 9.94044V10.1537C13.4 10.7632 13.1977 11.2253 12.7931 11.5402C12.3977 11.8449 11.8276 12.0175 11.0828 12.0582ZM11.0414 17.7258C11.2069 17.9086 11.4644 18 11.8138 18C12.1632 18 12.4161 17.9086 12.5724 17.7258C12.7379 17.5328 12.8207 17.289 12.8207 16.9945V16.7355C12.8207 16.4409 12.7379 16.2022 12.5724 16.0194C12.4161 15.8264 12.1632 15.7299 11.8138 15.7299C11.4644 15.7299 11.2069 15.8264 11.0414 16.0194C10.8851 16.2022 10.8069 16.4409 10.8069 16.7355V16.9945C10.8069 17.289 10.8851 17.5328 11.0414 17.7258Z" fill="black"/>
<path fill-rule="evenodd" clip-rule="evenodd" d="M12 1.25C6.08579 1.25 1.25 6.08579 1.25 12C1.25 17.9142 6.08579 22.75 12 22.75C17.9142 22.75 22.75 17.9142 22.75 12C22.75 6.08579 17.9142 1.25 12 1.25ZM2.75 12C2.75 6.91421 6.91421 2.75 12 2.75C17.0858 2.75 21.25 6.91421 21.25 12C21.25 17.0858 17.0858 21.25 12 21.25C6.91421 21.25 2.75 17.0858 2.75 12ZM11.0828 12.0582V14.4806H12.5172V13.0789C12.8299 13.018 13.1333 12.9114 13.4276 12.759C13.7218 12.5965 13.9839 12.3883 14.2138 12.1343C14.4529 11.8804 14.6414 11.5757 14.7793 11.2202C14.9264 10.8546 15 10.4432 15 9.98615C15 9.53924 14.931 9.13296 14.7931 8.76731C14.6552 8.3915 14.4575 8.07664 14.2 7.82271C13.9425 7.55863 13.6299 7.35549 13.2621 7.2133C12.8943 7.0711 12.4851 7 12.0345 7C11.5931 7 11.2023 7.0711 10.8621 7.2133C10.5218 7.34534 10.2276 7.52816 9.97931 7.76177C9.73103 7.98523 9.52414 8.24423 9.35862 8.53878C9.2023 8.83333 9.08276 9.13804 9 9.45291L10.3103 10.0319C10.4115 9.57479 10.6 9.19898 10.8759 8.90443C11.1517 8.60988 11.5195 8.4626 11.9793 8.4626C12.4115 8.4626 12.7563 8.59464 13.0138 8.85873C13.2713 9.11265 13.4 9.47322 13.4 9.94044V10.1537C13.4 10.7632 13.1977 11.2253 12.7931 11.5402C12.3977 11.8449 11.8276 12.0175 11.0828 12.0582ZM11.0414 17.7258C11.2069 17.9086 11.4644 18 11.8138 18C12.1632 18 12.4161 17.9086 12.5724 17.7258C12.7379 17.5328 12.8207 17.289 12.8207 16.9945V16.7355C12.8207 16.4409 12.7379 16.2022 12.5724 16.0194C12.4161 15.8264 12.1632 15.7299 11.8138 15.7299C11.4644 15.7299 11.2069 15.8264 11.0414 16.0194C10.8851 16.2022 10.8069 16.4409 10.8069 16.7355V16.9945C10.8069 17.289 10.8851 17.5328 11.0414 17.7258Z" fill="black"/>
</svg>
