<svg width="24" height="24" viewBox="0 0 24 24" fill="none" xmlns="http://www.w3.org/2000/svg">
<path fill-rule="evenodd" clip-rule="evenodd" d="M3.09467 3.09467C4.42914 1.7602 6.42603 1.25 9 1.25H15C17.574 1.25 19.5709 1.7602 20.9053 3.09467C22.2398 4.42914 22.75 6.42603 22.75 9V15C22.75 17.574 22.2398 19.5709 20.9053 20.9053C19.5709 22.2398 17.574 22.75 15 22.75H9C6.42603 22.75 4.42914 22.2398 3.09467 20.9053C1.7602 19.5709 1.25 17.574 1.25 15V9C1.25 6.42603 1.7602 4.42914 3.09467 3.09467ZM4.15533 4.15533C3.2398 5.07086 2.75 6.57397 2.75 9V15C2.75 17.426 3.2398 18.9291 4.15533 19.8447C5.07086 20.7602 6.57397 21.25 9 21.25H15C17.426 21.25 18.9291 20.7602 19.8447 19.8447C20.7602 18.9291 21.25 17.426 21.25 15V9C21.25 6.57397 20.7602 5.07086 19.8447 4.15533C18.9291 3.2398 17.426 2.75 15 2.75H9C6.57397 2.75 5.07086 3.2398 4.15533 4.15533Z" fill="black"/>
<path fill-rule="evenodd" clip-rule="evenodd" d="M14.3199 8.71973C14.0488 8.71973 13.8799 8.89877 13.8799 9.15973V10.6498C13.8799 10.9107 14.0488 11.0898 14.3199 11.0898H16.2499V9.15973C16.2499 8.92394 16.0457 8.71973 15.8099 8.71973H14.3199ZM12.3799 9.15973C12.3799 8.12069 13.1709 7.21973 14.3199 7.21973H15.8099C16.8741 7.21973 17.7499 8.09552 17.7499 9.15973V11.8398C17.7499 12.254 17.4141 12.5898 16.9999 12.5898H14.3199C13.1709 12.5898 12.3799 11.6888 12.3799 10.6498V9.15973Z" fill="black"/>
<path fill-rule="evenodd" clip-rule="evenodd" d="M17.0003 11.0898C17.4145 11.0898 17.7499 11.4256 17.7499 11.8398C17.7499 13.2484 17.6263 14.2349 17.1984 14.9988C16.7615 15.7788 16.0653 16.2174 15.2925 16.6751C14.9361 16.8862 14.4761 16.7685 14.265 16.4121C14.0539 16.0557 14.1717 15.5957 14.528 15.3846C15.3253 14.9123 15.674 14.6509 15.8897 14.2659C16.1143 13.8648 16.2503 13.2212 16.2503 11.8398C16.2503 11.4256 16.5861 11.0898 17.0003 11.0898Z" fill="black"/>
<path fill-rule="evenodd" clip-rule="evenodd" d="M8.18023 8.71973C7.90918 8.71973 7.74023 8.89877 7.74023 9.15973V10.6498C7.74023 10.9107 7.90918 11.0898 8.18023 11.0898H10.1102V9.15973C10.1102 8.92394 9.90602 8.71973 9.67023 8.71973H8.18023ZM6.24023 9.15973C6.24023 8.12069 7.03128 7.21973 8.18023 7.21973H9.67023C10.7344 7.21973 11.6102 8.09552 11.6102 9.15973V11.8398C11.6102 12.254 11.2744 12.5898 10.8602 12.5898H8.18023C7.03128 12.5898 6.24023 11.6888 6.24023 10.6498V9.15973Z" fill="black"/>
<path fill-rule="evenodd" clip-rule="evenodd" d="M10.8596 11.0898C11.2739 11.0898 11.6102 11.4256 11.6102 11.8398C11.6102 13.2484 11.4856 14.2349 11.0578 14.9988C10.6209 15.7788 9.92463 16.2174 9.15189 16.6751C8.79551 16.8862 8.33547 16.7685 8.12436 16.4121C7.91326 16.0557 8.03103 15.5957 8.38741 15.3846C9.18467 14.9123 9.53341 14.6509 9.74904 14.2659C9.97366 13.8648 10.1096 13.2212 10.1096 11.8398C10.1096 11.4256 10.4454 11.0898 10.8596 11.0898Z" fill="black"/>
</svg>
