<svg width="24" height="24" viewBox="0 0 24 24" fill="none" xmlns="http://www.w3.org/2000/svg">
<path fill-rule="evenodd" clip-rule="evenodd" d="M16.2001 4.01953C15.1053 4.01953 14.3701 4.82246 14.3701 5.84949V9.06952C14.3701 10.0966 15.1053 10.8995 16.2001 10.8995H21.2501V5.84949C21.2501 4.84372 20.4259 4.01953 19.4201 4.01953H16.2001ZM12.8701 5.84949C12.8701 4.03652 14.235 2.51953 16.2001 2.51953H19.4201C21.2543 2.51953 22.7501 4.01526 22.7501 5.84949V11.6495C22.7501 12.0637 22.4143 12.3995 22.0001 12.3995H16.2001C14.235 12.3995 12.8701 10.8825 12.8701 9.06952V5.84949Z" fill="black"/>
<path fill-rule="evenodd" clip-rule="evenodd" d="M21.9998 10.9004C22.4141 10.9004 22.7501 11.2353 22.7501 11.6495C22.7501 14.6881 22.4734 16.6235 21.6636 18.0641C20.8454 19.5198 19.5388 20.3635 17.8529 21.3651C17.4968 21.5767 17.0366 21.4595 16.8251 21.1034C16.6135 20.7473 16.7307 20.2871 17.0868 20.0756C18.8009 19.0571 19.7593 18.3909 20.356 17.3291C20.9613 16.2523 21.2498 14.6618 21.2498 11.6504C21.2498 11.2362 21.5856 10.9004 21.9998 10.9004Z" fill="black"/>
<path fill-rule="evenodd" clip-rule="evenodd" d="M4.57023 4.01953C3.47538 4.01953 2.74023 4.82245 2.74023 5.84949V9.06952C2.74023 10.0966 3.4754 10.8995 4.57023 10.8995H9.63023V5.84949C9.63023 4.84372 8.80604 4.01953 7.80023 4.01953H4.57023ZM10.3752 12.3995C10.3769 12.3995 10.3786 12.3995 10.3802 12.3995C10.7944 12.3995 11.1302 12.0637 11.1302 11.6495V5.84949C11.1302 4.01526 9.63443 2.51953 7.80023 2.51953H4.57023C2.60509 2.51953 1.24023 4.03652 1.24023 5.84949V9.06952C1.24023 10.8825 2.60507 12.3995 4.57023 12.3995H10.3702C10.3719 12.3995 10.3736 12.3995 10.3752 12.3995Z" fill="black"/>
<path fill-rule="evenodd" clip-rule="evenodd" d="M10.37 10.9004C10.7842 10.9004 11.12 11.2362 11.12 11.6504C11.12 14.689 10.8435 16.6235 10.0338 18.0641C9.21553 19.5198 7.9089 20.3635 6.22304 21.3651C5.86693 21.5767 5.40674 21.4595 5.19517 21.1034C4.9836 20.7473 5.10078 20.2871 5.45688 20.0756C7.17102 19.0572 8.12939 18.3909 8.72616 17.3291C9.33143 16.2523 9.61996 14.6618 9.61996 11.6504C9.61996 11.2362 9.95575 10.9004 10.37 10.9004Z" fill="black"/>
</svg>
