<svg width="24" height="24" viewBox="0 0 24 24" fill="none" xmlns="http://www.w3.org/2000/svg">
<path fill-rule="evenodd" clip-rule="evenodd" d="M12 10.75C11.3096 10.75 10.75 11.3096 10.75 12C10.75 12.6904 11.3096 13.25 12 13.25C12.6904 13.25 13.25 12.6904 13.25 12C13.25 11.3096 12.6904 10.75 12 10.75ZM9.25 12C9.25 10.4812 10.4812 9.25 12 9.25C13.5188 9.25 14.75 10.4812 14.75 12C14.75 13.5188 13.5188 14.75 12 14.75C10.4812 14.75 9.25 13.5188 9.25 12Z" fill="black"/>
<path fill-rule="evenodd" clip-rule="evenodd" d="M19.5483 5.40134C19.879 5.15186 20.3493 5.21767 20.5987 5.54832C21.9545 7.34527 22.75 9.58309 22.75 12C22.75 14.417 21.9545 16.6548 20.5987 18.4518C20.3493 18.7824 19.879 18.8482 19.5483 18.5988C19.2177 18.3493 19.1519 17.879 19.4013 17.5483C20.5656 16.0053 21.25 14.0831 21.25 12C21.25 9.91699 20.5656 7.99481 19.4013 6.45176C19.1519 6.1211 19.2177 5.65081 19.5483 5.40134Z" fill="black"/>
<path fill-rule="evenodd" clip-rule="evenodd" d="M4.45172 5.40134C4.78238 5.65081 4.84818 6.1211 4.59871 6.45176C3.43449 7.99481 2.75 9.91699 2.75 12C2.75 14.0831 3.43449 16.0053 4.59871 17.5483C4.84818 17.879 4.78238 18.3493 4.45172 18.5988C4.12106 18.8482 3.65077 18.7824 3.40129 18.4518C2.04551 16.6548 1.25 14.417 1.25 12C1.25 9.58309 2.04551 7.34527 3.40129 5.54832C3.65077 5.21767 4.12106 5.15186 4.45172 5.40134Z" fill="black"/>
<path fill-rule="evenodd" clip-rule="evenodd" d="M16.3498 7.79946C16.6812 7.55093 17.1513 7.61809 17.3998 7.94946C18.2433 9.07402 18.7499 10.4807 18.7499 11.9995C18.7499 13.5182 18.2433 14.9249 17.3998 16.0495C17.1513 16.3808 16.6812 16.448 16.3498 16.1995C16.0185 15.9509 15.9513 15.4808 16.1998 15.1495C16.8564 14.274 17.2499 13.1807 17.2499 11.9995C17.2499 10.8182 16.8564 9.72489 16.1998 8.84946C15.9513 8.51809 16.0185 8.04799 16.3498 7.79946Z" fill="black"/>
<path fill-rule="evenodd" clip-rule="evenodd" d="M7.65001 7.79946C7.98138 8.04799 8.04854 8.51809 7.80001 8.84946C7.14344 9.72489 6.75 10.8182 6.75 11.9995C6.75 13.1807 7.14344 14.274 7.80001 15.1495C8.04854 15.4808 7.98138 15.9509 7.65001 16.1995C7.31864 16.448 6.84854 16.3808 6.60001 16.0495C5.75659 14.9249 5.25 13.5182 5.25 11.9995C5.25 10.4807 5.75659 9.07402 6.60001 7.94946C6.84854 7.61809 7.31864 7.55093 7.65001 7.79946Z" fill="black"/>
</svg>
