<svg width="24" height="24" viewBox="0 0 24 24" fill="none" xmlns="http://www.w3.org/2000/svg">
<path fill-rule="evenodd" clip-rule="evenodd" d="M1.25 16C1.25 14.4858 2.48579 13.25 4 13.25H8.67C9.08421 13.25 9.42 13.5858 9.42 14V22C9.42 22.4142 9.08421 22.75 8.67 22.75H2C1.58579 22.75 1.25 22.4142 1.25 22V16ZM4 14.75C3.31421 14.75 2.75 15.3142 2.75 16V21.25H7.92V14.75H4Z" fill="black"/>
<path fill-rule="evenodd" clip-rule="evenodd" d="M7.91016 12C7.91016 10.4858 9.14594 9.25 10.6602 9.25H13.3302C14.8568 9.25 16.0802 10.4882 16.0802 12V22C16.0802 22.4142 15.7444 22.75 15.3302 22.75H8.66016C8.24594 22.75 7.91016 22.4142 7.91016 22V12ZM10.6602 10.75C9.97437 10.75 9.41016 11.3142 9.41016 12V21.25H14.5802V12C14.5802 11.3118 14.0235 10.75 13.3302 10.75H10.6602Z" fill="black"/>
<path fill-rule="evenodd" clip-rule="evenodd" d="M14.5801 17C14.5801 16.5858 14.9159 16.25 15.3301 16.25H20.0001C21.5143 16.25 22.7501 17.4858 22.7501 19V22C22.7501 22.4142 22.4143 22.75 22.0001 22.75H15.3302C14.9159 22.75 14.5801 22.4142 14.5801 22V17ZM16.0801 17.75V21.25H21.2501V19C21.2501 18.3142 20.6859 17.75 20.0001 17.75H16.0801Z" fill="black"/>
<path fill-rule="evenodd" clip-rule="evenodd" d="M12.0024 2.71187L11.6207 3.47524C11.5171 3.68239 11.3577 3.83721 11.2189 3.93963C11.0783 4.04332 10.8877 4.14581 10.6681 4.18698L10.6531 4.18963L10.0164 4.29573L10.5125 4.79179C10.6979 4.96896 10.801 5.1902 10.8537 5.37141C10.9079 5.55745 10.9369 5.79656 10.8807 6.03851L10.7585 6.57383L11.313 6.24727C11.539 6.10943 11.7896 6.06483 11.9949 6.06483C12.2002 6.06483 12.4507 6.10943 12.6767 6.24727L13.2313 6.57383L13.1091 6.0385C13.0528 5.79635 13.0818 5.55906 13.1367 5.37269C13.1925 5.18362 13.297 4.97203 13.4695 4.79947L13.9833 4.28574L13.3575 4.18143C13.1241 4.14804 12.9248 4.04326 12.7809 3.93712C12.6347 3.82926 12.4771 3.66939 12.3757 3.4586L12.0024 2.71187ZM11.9949 0.893581C12.603 0.889544 12.9912 1.3422 13.1883 1.72973L13.1907 1.73441L13.6808 2.71463L14.5512 2.8597C14.5516 2.85976 14.5519 2.85982 14.5523 2.85988C14.9914 2.93212 15.513 3.17472 15.6961 3.73188C15.881 4.2945 15.5977 4.79826 15.2776 5.11277L14.5927 5.79765L14.7808 6.62156C14.8804 7.05092 14.9099 7.73073 14.365 8.12742C13.822 8.52275 13.185 8.28889 12.8082 8.06546C12.8078 8.06521 12.8074 8.06497 12.807 8.06472L11.9949 7.5865L11.1828 8.06472C11.1824 8.06496 11.182 8.06519 11.1816 8.06543C10.8048 8.28887 10.1678 8.52277 9.6247 8.12742C9.07975 7.7307 9.10937 7.05081 9.20901 6.62146C9.20914 6.62088 9.20928 6.6203 9.20941 6.61972L9.39705 5.79765L8.71954 5.12015C8.41033 4.81094 8.11521 4.30813 8.29887 3.74118C8.48224 3.17513 9.01494 2.94011 9.44829 2.86972L10.3189 2.72464L10.809 1.7444C11.0045 1.35344 11.3884 0.897608 11.9949 0.893581ZM12.0974 7.52583C12.0945 7.52763 12.0917 7.52933 12.0889 7.53096L12.0974 7.52583ZM11.9008 7.53096C11.8981 7.52933 11.8952 7.52762 11.8924 7.52583L11.9008 7.53096ZM13.7295 2.81266L13.725 2.80335C13.7265 2.80634 13.728 2.80944 13.7295 2.81266Z" fill="black"/>
</svg>
