<svg width="24" height="24" viewBox="0 0 24 24" fill="none" xmlns="http://www.w3.org/2000/svg">
<path fill-rule="evenodd" clip-rule="evenodd" d="M3.09467 3.09467C4.42914 1.7602 6.42603 1.25 9 1.25H15C17.574 1.25 19.5709 1.7602 20.9053 3.09467C22.2398 4.42914 22.75 6.42603 22.75 9V15C22.75 17.574 22.2398 19.5709 20.9053 20.9053C19.5709 22.2398 17.574 22.75 15 22.75H9C6.42603 22.75 4.42914 22.2398 3.09467 20.9053C1.7602 19.5709 1.25 17.574 1.25 15V9C1.25 6.42603 1.7602 4.42914 3.09467 3.09467ZM4.15533 4.15533C3.2398 5.07086 2.75 6.57397 2.75 9V15C2.75 17.426 3.2398 18.9291 4.15533 19.8447C5.07086 20.7602 6.57397 21.25 9 21.25H15C17.426 21.25 18.9291 20.7602 19.8447 19.8447C20.7602 18.9291 21.25 17.426 21.25 15V9C21.25 6.57397 20.7602 5.07086 19.8447 4.15533C18.9291 3.2398 17.426 2.75 15 2.75H9C6.57397 2.75 5.07086 3.2398 4.15533 4.15533Z" fill="black"/>
<path fill-rule="evenodd" clip-rule="evenodd" d="M8.46967 10.9794C8.76256 10.6865 9.23744 10.6865 9.53033 10.9794L12 13.4491L14.4697 10.9794C14.7626 10.6865 15.2374 10.6865 15.5303 10.9794C15.8232 11.2723 15.8232 11.7472 15.5303 12.0401L12.5303 15.0401C12.2374 15.333 11.7626 15.333 11.4697 15.0401L8.46967 12.0401C8.17678 11.7472 8.17678 11.2723 8.46967 10.9794Z" fill="black"/>
<path fill-rule="evenodd" clip-rule="evenodd" d="M12 5.75977C12.4142 5.75977 12.75 6.09555 12.75 6.50977V14.5098C12.75 14.924 12.4142 15.2598 12 15.2598C11.5858 15.2598 11.25 14.924 11.25 14.5098V6.50977C11.25 6.09555 11.5858 5.75977 12 5.75977Z" fill="black"/>
<path fill-rule="evenodd" clip-rule="evenodd" d="M5.28887 16.2723C5.42016 15.8794 5.84507 15.6674 6.23792 15.7986C9.97364 17.0471 14.0268 17.0471 17.7625 15.7986C18.1553 15.6674 18.5802 15.8794 18.7115 16.2723C18.8428 16.6651 18.6308 17.09 18.2379 17.2213C14.1936 18.5729 9.80677 18.5729 5.76248 17.2213C5.36963 17.09 5.15759 16.6651 5.28887 16.2723Z" fill="black"/>
</svg>
