<svg width="24" height="24" viewBox="0 0 24 24" fill="none" xmlns="http://www.w3.org/2000/svg">
<path fill-rule="evenodd" clip-rule="evenodd" d="M3.09467 3.09467C4.42914 1.7602 6.42603 1.25 9 1.25H15C17.574 1.25 19.5709 1.7602 20.9053 3.09467C22.2398 4.42914 22.75 6.42603 22.75 9V15C22.75 17.574 22.2398 19.5709 20.9053 20.9053C19.5709 22.2398 17.574 22.75 15 22.75H9C6.42603 22.75 4.42914 22.2398 3.09467 20.9053C1.7602 19.5709 1.25 17.574 1.25 15V9C1.25 6.42603 1.7602 4.42914 3.09467 3.09467ZM4.15533 4.15533C3.2398 5.07086 2.75 6.57397 2.75 9V15C2.75 17.426 3.2398 18.9291 4.15533 19.8447C5.07086 20.7602 6.57397 21.25 9 21.25H15C17.426 21.25 18.9291 20.7602 19.8447 19.8447C20.7602 18.9291 21.25 17.426 21.25 15V9C21.25 6.57397 20.7602 5.07086 19.8447 4.15533C18.9291 3.2398 17.426 2.75 15 2.75H9C6.57397 2.75 5.07086 3.2398 4.15533 4.15533Z" fill="black"/>
<path fill-rule="evenodd" clip-rule="evenodd" d="M14.8298 8.34961C15.2441 8.34961 15.5798 8.6854 15.5798 9.09961V13.3396C15.5798 13.7538 15.2441 14.0896 14.8298 14.0896H10.5898C10.1756 14.0896 9.83984 13.7538 9.83984 13.3396C9.83984 12.9254 10.1756 12.5896 10.5898 12.5896H14.0798V9.09961C14.0798 8.6854 14.4156 8.34961 14.8298 8.34961Z" fill="black"/>
<path fill-rule="evenodd" clip-rule="evenodd" d="M8.63959 7.14936C8.93249 6.85646 9.40736 6.85646 9.70025 7.14936L15.3603 12.8094C15.6531 13.1023 15.6531 13.5771 15.3603 13.87C15.0674 14.1629 14.5925 14.1629 14.2996 13.87L8.63959 8.21002C8.3467 7.91712 8.3467 7.44225 8.63959 7.14936Z" fill="black"/>
<path fill-rule="evenodd" clip-rule="evenodd" d="M5.28887 16.2723C5.42016 15.8794 5.84507 15.6674 6.23792 15.7986C9.97364 17.0471 14.0268 17.0471 17.7625 15.7986C18.1553 15.6674 18.5802 15.8794 18.7115 16.2723C18.8428 16.6651 18.6308 17.09 18.2379 17.2213C14.1936 18.5729 9.80677 18.5729 5.76248 17.2213C5.36963 17.09 5.15759 16.6651 5.28887 16.2723Z" fill="black"/>
</svg>
