<svg width="24" height="24" viewBox="0 0 24 24" fill="none" xmlns="http://www.w3.org/2000/svg">
<path fill-rule="evenodd" clip-rule="evenodd" d="M19.5303 2.96967C19.8232 3.26256 19.8232 3.73744 19.5303 4.03033L5.53033 18.0303C5.23744 18.3232 4.76256 18.3232 4.46967 18.0303C4.17678 17.7374 4.17678 17.2626 4.46967 16.9697L18.4697 2.96967C18.7626 2.67678 19.2374 2.67678 19.5303 2.96967Z" fill="black"/>
<path fill-rule="evenodd" clip-rule="evenodd" d="M5 6.48047C5.41421 6.48047 5.75 6.81626 5.75 7.23047V16.7505H15.27C15.6842 16.7505 16.02 17.0863 16.02 17.5005C16.02 17.9147 15.6842 18.2505 15.27 18.2505H5C4.58579 18.2505 4.25 17.9147 4.25 17.5005V7.23047C4.25 6.81626 4.58579 6.48047 5 6.48047Z" fill="black"/>
<path fill-rule="evenodd" clip-rule="evenodd" d="M2.75 22C2.75 21.5858 3.08579 21.25 3.5 21.25H20.5C20.9142 21.25 21.25 21.5858 21.25 22C21.25 22.4142 20.9142 22.75 20.5 22.75H3.5C3.08579 22.75 2.75 22.4142 2.75 22Z" fill="black"/>
</svg>
