<svg width="24" height="24" viewBox="0 0 24 24" fill="none" xmlns="http://www.w3.org/2000/svg">
<path fill-rule="evenodd" clip-rule="evenodd" d="M11.9697 2.75C6.86109 2.75 2.71973 6.89137 2.71973 12C2.71973 17.1086 6.86109 21.25 11.9697 21.25C17.0784 21.25 21.2197 17.1086 21.2197 12C21.2197 6.89137 17.0784 2.75 11.9697 2.75ZM1.21973 12C1.21973 6.06294 6.03267 1.25 11.9697 1.25C17.9068 1.25 22.7197 6.06294 22.7197 12C22.7197 17.9371 17.9068 22.75 11.9697 22.75C6.03267 22.75 1.21973 17.9371 1.21973 12Z" fill="black"/>
<path fill-rule="evenodd" clip-rule="evenodd" d="M11.9995 8.51953C10.0776 8.51953 8.51953 10.0776 8.51953 11.9995C8.51953 13.9215 10.0776 15.4795 11.9995 15.4795C13.9215 15.4795 15.4795 13.9215 15.4795 11.9995C15.4795 10.0776 13.9215 8.51953 11.9995 8.51953ZM7.01953 11.9995C7.01953 9.24915 9.24915 7.01953 11.9995 7.01953C14.7499 7.01953 16.9795 9.24915 16.9795 11.9995C16.9795 14.7499 14.7499 16.9795 11.9995 16.9795C9.24915 16.9795 7.01953 14.7499 7.01953 11.9995Z" fill="black"/>
</svg>
