<svg width="24" height="24" viewBox="0 0 24 24" fill="none" xmlns="http://www.w3.org/2000/svg">
<path fill-rule="evenodd" clip-rule="evenodd" d="M8.87012 9.05957C6.52433 9.05957 4.62012 10.9638 4.62012 13.3096C4.62012 15.6554 6.52433 17.5596 8.87012 17.5596H16.8701C17.2843 17.5596 17.6201 17.8954 17.6201 18.3096C17.6201 18.7238 17.2843 19.0596 16.8701 19.0596H8.87012C5.6959 19.0596 3.12012 16.4838 3.12012 13.3096C3.12012 10.1354 5.6959 7.55957 8.87012 7.55957H19.8701C20.2843 7.55957 20.6201 7.89536 20.6201 8.30957C20.6201 8.72378 20.2843 9.05957 19.8701 9.05957H8.87012Z" fill="black"/>
<path fill-rule="evenodd" clip-rule="evenodd" d="M17.04 5.1601C17.3329 4.86721 17.8077 4.86721 18.1006 5.1601L20.6606 7.7201C20.9535 8.01299 20.9535 8.48787 20.6606 8.78076L18.1006 11.3408C17.8077 11.6337 17.3329 11.6337 17.04 11.3408C16.7471 11.0479 16.7471 10.573 17.04 10.2801L19.0697 8.25043L17.04 6.22076C16.7471 5.92787 16.7471 5.45299 17.04 5.1601Z" fill="black"/>
</svg>
