<svg width="24" height="24" viewBox="0 0 24 24" fill="none" xmlns="http://www.w3.org/2000/svg">
<path fill-rule="evenodd" clip-rule="evenodd" d="M4.01831 4.20408C5.77816 2.736 8.44231 1.25 12 1.25C17.9762 1.25 22.75 6.06774 22.75 12C22.75 16.9894 19.3519 21.1807 14.741 22.3953C14.3405 22.5008 13.9302 22.2616 13.8247 21.861C13.7192 21.4605 13.9584 21.0502 14.359 20.9447C18.3281 19.8993 21.25 16.2906 21.25 12C21.25 6.89226 17.1438 2.75 12 2.75C8.88769 2.75 6.55184 4.044 4.97919 5.35592C4.36705 5.86656 3.87399 6.37739 3.50072 6.81H6.44C6.85421 6.81 7.19 7.14579 7.19 7.56C7.19 7.97421 6.85421 8.31 6.44 8.31H2C1.58579 8.31 1.25 7.97421 1.25 7.56V3C1.25 2.58579 1.58579 2.25 2 2.25C2.41421 2.25 2.75 2.58579 2.75 3V5.40201C3.10425 5.02385 3.52691 4.61401 4.01831 4.20408Z" fill="black"/>
<path fill-rule="evenodd" clip-rule="evenodd" d="M2 11.25C2.41421 11.25 2.75 11.5858 2.75 12C2.75 12.41 2.77668 12.8135 2.82832 13.2088C2.88196 13.6196 2.59249 13.996 2.18177 14.0497C1.77104 14.1033 1.3946 13.8138 1.34095 13.4031C1.28092 12.9435 1.25 12.4752 1.25 12C1.25 11.5858 1.58579 11.25 2 11.25ZM2.47201 15.1347C2.85458 14.9759 3.29343 15.1573 3.4522 15.5399C3.76402 16.2913 4.17228 16.9931 4.66171 17.6298C4.91414 17.9582 4.85255 18.4291 4.52415 18.6815C4.19574 18.934 3.72488 18.8724 3.47245 18.544C2.90411 17.8046 2.42952 16.9889 2.06677 16.1149C1.908 15.7323 2.08943 15.2934 2.47201 15.1347ZM5.31846 19.4759C5.5709 19.1474 6.04176 19.0859 6.37017 19.3383C7.0069 19.8277 7.70872 20.236 8.46009 20.5478C8.84267 20.7066 9.0241 21.1454 8.86532 21.528C8.70655 21.9106 8.2677 22.092 7.88513 21.9332C7.01105 21.5705 6.19541 21.0959 5.45603 20.5276C5.12762 20.2751 5.06603 19.8043 5.31846 19.4759ZM9.95034 21.8182C10.004 21.4075 10.3804 21.118 10.7912 21.1717C11.1865 21.2233 11.59 21.25 12 21.25C12.4142 21.25 12.75 21.5858 12.75 22C12.75 22.4142 12.4142 22.75 12 22.75C11.5248 22.75 11.0565 22.7191 10.5969 22.659C10.1862 22.6054 9.8967 22.229 9.95034 21.8182Z" fill="black"/>
</svg>
