<svg width="24" height="24" viewBox="0 0 24 24" fill="none" xmlns="http://www.w3.org/2000/svg">
<path fill-rule="evenodd" clip-rule="evenodd" d="M12 2.75C6.89137 2.75 2.75 6.89137 2.75 12C2.75 17.1086 6.89137 21.25 12 21.25C17.1086 21.25 21.25 17.1086 21.25 12C21.25 6.89137 17.1086 2.75 12 2.75ZM1.25 12C1.25 6.06294 6.06294 1.25 12 1.25C17.9371 1.25 22.75 6.06294 22.75 12C22.75 17.9371 17.9371 22.75 12 22.75C6.06294 22.75 1.25 17.9371 1.25 12Z" fill="black"/>
<path fill-rule="evenodd" clip-rule="evenodd" d="M16.767 11.9277C17.177 11.9869 17.4614 12.3672 17.4022 12.7772C17.2412 13.8924 16.7449 14.9956 15.8702 15.8704L15.8688 15.8718C13.727 18.002 10.2632 18.0041 8.12954 15.8704C7.83751 15.5784 7.57926 15.2501 7.36676 14.8959C7.15365 14.5407 7.26882 14.08 7.62401 13.8669C7.97919 13.6538 8.43989 13.769 8.653 14.1242C8.8005 14.37 8.98224 14.6018 9.1902 14.8097C10.7363 16.3558 13.2519 16.3581 14.8102 14.809C15.4351 14.1839 15.7986 13.3873 15.9176 12.5629C15.9767 12.1529 16.357 11.8685 16.767 11.9277Z" fill="black"/>
<path fill-rule="evenodd" clip-rule="evenodd" d="M14.8103 9.19133C13.252 7.64223 10.7364 7.64452 9.19028 9.1906C8.564 9.81688 8.20131 10.604 8.0824 11.4364C8.02382 11.8464 7.64392 12.1314 7.23387 12.0728C6.82382 12.0142 6.5389 11.6343 6.59748 11.2243C6.75856 10.0966 7.25589 9.00367 8.12962 8.12994C10.2633 5.99626 13.7271 5.99832 15.8688 8.12851L15.8703 8.12994C16.1786 8.43828 16.4231 8.76602 16.6272 9.09477C16.8456 9.4467 16.7374 9.90908 16.3855 10.1275C16.0335 10.346 15.5711 10.2377 15.3527 9.88581C15.1969 9.63485 15.0217 9.4028 14.8103 9.19133Z" fill="black"/>
<path fill-rule="evenodd" clip-rule="evenodd" d="M7.07031 14.5098C7.07031 14.0956 7.4061 13.7598 7.82031 13.7598H10.4903C10.9045 13.7598 11.2403 14.0956 11.2403 14.5098C11.2403 14.924 10.9045 15.2598 10.4903 15.2598H8.57031V17.1797C8.57031 17.594 8.23453 17.9297 7.82031 17.9297C7.4061 17.9297 7.07031 17.594 7.07031 17.1797V14.5098Z" fill="black"/>
<path fill-rule="evenodd" clip-rule="evenodd" d="M16.1797 6.07031C16.594 6.07031 16.9297 6.4061 16.9297 6.82031V9.4903C16.9297 9.90451 16.594 10.2403 16.1797 10.2403H13.5098C13.0956 10.2403 12.7598 9.90451 12.7598 9.4903C12.7598 9.07608 13.0956 8.7403 13.5098 8.7403H15.4297V6.82031C15.4297 6.4061 15.7655 6.07031 16.1797 6.07031Z" fill="black"/>
</svg>
