<svg width="24" height="24" viewBox="0 0 24 24" fill="none" xmlns="http://www.w3.org/2000/svg">
<path fill-rule="evenodd" clip-rule="evenodd" d="M12 8.00977C11.4634 8.00977 10.9863 8.09591 10.5455 8.22814C10.1488 8.34716 9.73066 8.12202 9.61163 7.72528C9.49261 7.32853 9.71775 6.91042 10.1145 6.7914C10.6737 6.62362 11.2966 6.50977 12 6.50977C15.1742 6.50977 17.75 9.08555 17.75 12.2598C17.75 15.434 15.1742 18.0098 12 18.0098C8.82579 18.0098 6.25 15.434 6.25 12.2598C6.25 11.0757 6.60718 9.98264 7.21476 9.06555C7.44353 8.72024 7.90891 8.62576 8.25422 8.85453C8.59953 9.0833 8.694 9.54868 8.46523 9.89399C8.01281 10.5769 7.75 11.3838 7.75 12.2598C7.75 14.6056 9.65421 16.5098 12 16.5098C14.3458 16.5098 16.25 14.6056 16.25 12.2598C16.25 9.91398 14.3458 8.00977 12 8.00977Z" fill="black"/>
<path fill-rule="evenodd" clip-rule="evenodd" d="M11.7721 5.17416C12.0848 5.44588 12.1179 5.91959 11.8462 6.23223L10.1862 8.14224C9.91449 8.45487 9.44078 8.48805 9.12814 8.21633C8.8155 7.94461 8.78233 7.4709 9.05405 7.15826L10.7141 5.24826C10.9858 4.93562 11.4595 4.90245 11.7721 5.17416Z" fill="black"/>
<path fill-rule="evenodd" clip-rule="evenodd" d="M9.01497 7.20746C9.25962 6.87322 9.72891 6.80059 10.0631 7.04524L12.0032 8.46524C12.3374 8.70989 12.41 9.17918 12.1654 9.51342C11.9207 9.84766 11.4514 9.92029 11.1172 9.67564L9.17719 8.25564C8.84294 8.01099 8.77032 7.5417 9.01497 7.20746Z" fill="black"/>
<path fill-rule="evenodd" clip-rule="evenodd" d="M3.09467 3.09467C4.42914 1.7602 6.42603 1.25 9 1.25H15C17.574 1.25 19.5709 1.7602 20.9053 3.09467C22.2398 4.42914 22.75 6.42603 22.75 9V15C22.75 17.574 22.2398 19.5709 20.9053 20.9053C19.5709 22.2398 17.574 22.75 15 22.75H9C6.42603 22.75 4.42914 22.2398 3.09467 20.9053C1.7602 19.5709 1.25 17.574 1.25 15V9C1.25 6.42603 1.7602 4.42914 3.09467 3.09467ZM4.15533 4.15533C3.2398 5.07086 2.75 6.57397 2.75 9V15C2.75 17.426 3.2398 18.9291 4.15533 19.8447C5.07086 20.7602 6.57397 21.25 9 21.25H15C17.426 21.25 18.9291 20.7602 19.8447 19.8447C20.7602 18.9291 21.25 17.426 21.25 15V9C21.25 6.57397 20.7602 5.07086 19.8447 4.15533C18.9291 3.2398 17.426 2.75 15 2.75H9C6.57397 2.75 5.07086 3.2398 4.15533 4.15533Z" fill="black"/>
</svg>
