<svg width="24" height="24" viewBox="0 0 24 24" fill="none" xmlns="http://www.w3.org/2000/svg">
<path fill-rule="evenodd" clip-rule="evenodd" d="M3.09467 3.09467C4.42914 1.7602 6.42603 1.25 9 1.25H15C17.574 1.25 19.5709 1.7602 20.9053 3.09467C22.2398 4.42914 22.75 6.42603 22.75 9V15C22.75 17.574 22.2398 19.5709 20.9053 20.9053C19.5709 22.2398 17.574 22.75 15 22.75H9C6.42603 22.75 4.42914 22.2398 3.09467 20.9053C1.7602 19.5709 1.25 17.574 1.25 15V9C1.25 6.42603 1.7602 4.42914 3.09467 3.09467ZM4.15533 4.15533C3.2398 5.07086 2.75 6.57397 2.75 9V15C2.75 17.426 3.2398 18.9291 4.15533 19.8447C5.07086 20.7602 6.57397 21.25 9 21.25H15C17.426 21.25 18.9291 20.7602 19.8447 19.8447C20.7602 18.9291 21.25 17.426 21.25 15V9C21.25 6.57397 20.7602 5.07086 19.8447 4.15533C18.9291 3.2398 17.426 2.75 15 2.75H9C6.57397 2.75 5.07086 3.2398 4.15533 4.15533Z" fill="black"/>
<path fill-rule="evenodd" clip-rule="evenodd" d="M6.25 12.2598C6.25 9.08555 8.82579 6.50977 12 6.50977C12.7034 6.50977 13.3263 6.62362 13.8855 6.7914C14.2823 6.91042 14.5074 7.32853 14.3884 7.72528C14.2693 8.12202 13.8512 8.34716 13.4545 8.22814C13.0137 8.09591 12.5366 8.00977 12 8.00977C9.65421 8.00977 7.75 9.91398 7.75 12.2598C7.75 14.6056 9.65421 16.5098 12 16.5098C14.3458 16.5098 16.25 14.6056 16.25 12.2598C16.25 11.3838 15.9872 10.5769 15.5348 9.89399C15.306 9.54868 15.4005 9.0833 15.7458 8.85453C16.0911 8.62576 16.5565 8.72024 16.7852 9.06555C17.3928 9.98264 17.75 11.0757 17.75 12.2598C17.75 15.434 15.1742 18.0098 12 18.0098C8.82579 18.0098 6.25 15.434 6.25 12.2598Z" fill="black"/>
<path fill-rule="evenodd" clip-rule="evenodd" d="M12.2278 5.17416C12.5404 4.90245 13.0141 4.93562 13.2858 5.24826L14.9458 7.15826C15.2175 7.4709 15.1844 7.94461 14.8717 8.21633C14.5591 8.48805 14.0854 8.45487 13.8137 8.14224L12.1537 6.23223C11.8819 5.91959 11.9151 5.44588 12.2278 5.17416Z" fill="black"/>
<path fill-rule="evenodd" clip-rule="evenodd" d="M14.9847 7.20746C15.2294 7.5417 15.1567 8.01099 14.8225 8.25564L12.8825 9.67564C12.5482 9.92029 12.079 9.84766 11.8343 9.51342C11.5897 9.17918 11.6623 8.70989 11.9965 8.46524L13.9365 7.04524C14.2708 6.80059 14.7401 6.87322 14.9847 7.20746Z" fill="black"/>
</svg>
