<svg width="24" height="24" viewBox="0 0 24 24" fill="none" xmlns="http://www.w3.org/2000/svg">
<path fill-rule="evenodd" clip-rule="evenodd" d="M19.6701 11.0005C19.6701 11.4147 20.0059 11.7505 20.4201 11.7505C20.8343 11.7505 21.1701 11.4147 21.1701 11.0005V7.68048C21.1701 5.60627 19.4943 3.93048 17.4201 3.93048H5.39084L7.2705 2.05084C7.5634 1.75795 7.5634 1.28308 7.27051 0.990181C6.97761 0.697286 6.50274 0.697283 6.20985 0.990175L3.05681 4.14318C2.91694 4.27942 2.83008 4.46981 2.83008 4.68048C2.83008 4.89114 2.91693 5.08151 3.05677 5.21774L6.20984 8.37084C6.50273 8.66374 6.97761 8.66374 7.2705 8.37085C7.5634 8.07796 7.5634 7.60308 7.27051 7.31019L5.39082 5.43048H17.4201C18.6659 5.43048 19.6701 6.4347 19.6701 7.68048V11.0005Z" fill="black"/>
<path fill-rule="evenodd" clip-rule="evenodd" d="M4.33026 13.52C4.33026 13.1058 3.99447 12.77 3.58026 12.77C3.16605 12.77 2.83026 13.1058 2.83026 13.52V16.84C2.83026 18.9142 4.50605 20.59 6.58026 20.59H18.6095L16.7299 22.4697C16.437 22.7626 16.437 23.2374 16.7299 23.5303C17.0228 23.8232 17.4976 23.8232 17.7905 23.5303L20.9436 20.3773C21.0834 20.2411 21.1703 20.0507 21.1703 19.84C21.1703 19.6294 21.0834 19.439 20.9436 19.3028L17.7905 16.1497C17.4976 15.8568 17.0228 15.8568 16.7299 16.1497C16.437 16.4426 16.437 16.9174 16.7299 17.2103L18.6095 19.09H6.58026C5.33447 19.09 4.33026 18.0858 4.33026 16.84V13.52Z" fill="black"/>
</svg>
