<svg width="24" height="24" viewBox="0 0 24 24" fill="none" xmlns="http://www.w3.org/2000/svg">
<path fill-rule="evenodd" clip-rule="evenodd" d="M15.75 11.3398C15.75 11.7541 16.0858 12.0898 16.5 12.0898C16.9142 12.0898 17.25 11.7541 17.25 11.3398V9.56982C17.25 8.27865 16.2072 7.21985 14.9 7.21985H9.31818L9.7187 6.82169C10.0125 6.52966 10.0139 6.05479 9.72183 5.76103C9.42981 5.46728 8.95494 5.46587 8.66118 5.7579L6.97118 7.43795C6.94263 7.46633 6.9166 7.49677 6.89324 7.52892C6.80092 7.65594 6.75017 7.8097 6.74994 7.96874C6.7499 7.99582 6.75133 8.02276 6.75417 8.04944C6.76828 8.18321 6.81756 8.3065 6.89259 8.40988C6.91569 8.44177 6.94141 8.47198 6.96961 8.50018L8.65961 10.1902C8.9525 10.4831 9.42738 10.4831 9.72027 10.1902C10.0132 9.89729 10.0132 9.42241 9.72027 9.12952L9.3106 8.71985H14.9C15.3727 8.71985 15.75 9.101 15.75 9.56982V11.3398Z" fill="black"/>
<path fill-rule="evenodd" clip-rule="evenodd" d="M8.25 12.29C8.25 11.8758 7.91421 11.54 7.5 11.54C7.08579 11.54 6.75 11.8758 6.75 12.29V14.0601C6.75 15.3512 7.79276 16.41 9.10001 16.41H14.6818L14.2813 16.8082C13.9875 17.1002 13.9861 17.5751 14.2782 17.8689C14.5702 18.1626 15.0451 18.164 15.3388 17.872L17.0288 16.1919C17.0574 16.1636 17.0834 16.1331 17.1068 16.101C17.1991 15.9739 17.2498 15.8202 17.2501 15.6611C17.2501 15.6341 17.2487 15.6071 17.2458 15.5804C17.2317 15.4467 17.1824 15.3234 17.1074 15.22C17.0843 15.1881 17.0586 15.1579 17.0304 15.1297L15.3404 13.4397C15.0475 13.1468 14.5726 13.1468 14.2797 13.4397C13.9868 13.7326 13.9868 14.2075 14.2797 14.5004L14.6894 14.91H9.10001C8.62725 14.91 8.25 14.5289 8.25 14.0601V12.29Z" fill="black"/>
<path fill-rule="evenodd" clip-rule="evenodd" d="M12 2.75C6.89137 2.75 2.75 6.89137 2.75 12C2.75 17.1086 6.89137 21.25 12 21.25C17.1086 21.25 21.25 17.1086 21.25 12C21.25 6.89137 17.1086 2.75 12 2.75ZM1.25 12C1.25 6.06294 6.06294 1.25 12 1.25C17.9371 1.25 22.75 6.06294 22.75 12C22.75 17.9371 17.9371 22.75 12 22.75C6.06294 22.75 1.25 17.9371 1.25 12Z" fill="black"/>
</svg>
