<svg width="24" height="24" viewBox="0 0 24 24" fill="none" xmlns="http://www.w3.org/2000/svg">
<path fill-rule="evenodd" clip-rule="evenodd" d="M13.4589 2.48088C13.7456 2.18192 14.2204 2.17199 14.5194 2.4587L16.9594 4.79872C17.1806 5.01091 17.2505 5.33638 17.1358 5.62066C17.0211 5.90494 16.7449 6.0908 16.4383 6.09003L8.49023 6.07001C8.48993 6.07001 8.49054 6.07001 8.49023 6.07001C5.33636 6.07051 2.74023 8.66305 2.74023 11.84C2.74023 13.4224 3.38493 14.8641 4.43055 15.9097C4.72345 16.2026 4.72345 16.6774 4.43055 16.9703C4.13766 17.2632 3.66279 17.2632 3.36989 16.9703C2.05551 15.656 1.24023 13.8376 1.24023 11.84C1.24023 7.83732 4.50452 4.57001 8.49023 4.57001H8.49212L14.5697 4.58532L13.4811 3.5413C13.1822 3.2546 13.1722 2.77983 13.4589 2.48088Z" fill="black"/>
<path fill-rule="evenodd" clip-rule="evenodd" d="M19.5693 7.02924C19.8622 6.73635 20.337 6.73635 20.6299 7.02924C21.9443 8.34362 22.7596 10.1619 22.7596 12.1595C22.7596 16.1623 19.4953 19.4296 15.5096 19.4296L15.5077 19.4296L9.43011 19.4143L10.5187 20.4583C10.8177 20.745 10.8276 21.2197 10.5409 21.5187C10.2542 21.8177 9.77943 21.8276 9.48047 21.5409L7.04047 19.2008C6.81922 18.9887 6.74937 18.6632 6.86408 18.3789C6.97878 18.0946 7.25494 17.9088 7.56148 17.9095L15.5096 17.9296C15.51 17.9296 15.5103 17.9296 15.5107 17.9296C18.6645 17.929 21.2596 15.3365 21.2596 12.1595C21.2596 10.5772 20.6149 9.13552 19.5693 8.0899C19.2764 7.79701 19.2764 7.32213 19.5693 7.02924Z" fill="black"/>
<path fill-rule="evenodd" clip-rule="evenodd" d="M8.25 12C8.25 11.5858 8.58579 11.25 9 11.25H15C15.4142 11.25 15.75 11.5858 15.75 12C15.75 12.4142 15.4142 12.75 15 12.75H9C8.58579 12.75 8.25 12.4142 8.25 12Z" fill="black"/>
</svg>
