<svg width="24" height="24" viewBox="0 0 24 24" fill="none" xmlns="http://www.w3.org/2000/svg">
<path fill-rule="evenodd" clip-rule="evenodd" d="M13.4589 2.48088C13.7456 2.18192 14.2204 2.17199 14.5194 2.4587L16.9594 4.79872C17.1806 5.01091 17.2505 5.33638 17.1358 5.62066C17.0211 5.90494 16.7449 6.0908 16.4384 6.09003L8.49023 6.07001C8.48993 6.07001 8.49054 6.07001 8.49023 6.07001C5.33636 6.07051 2.74023 8.66305 2.74023 11.84C2.74023 13.4224 3.38494 14.864 4.43057 15.9097C4.72346 16.2026 4.72346 16.6774 4.43057 16.9703C4.13767 17.2632 3.6628 17.2632 3.36991 16.9703C2.05553 15.656 1.24023 13.8376 1.24023 11.84C1.24023 7.83732 4.50452 4.57001 8.49023 4.57001H8.49212L14.5697 4.58532L13.4811 3.5413C13.1822 3.2546 13.1722 2.77983 13.4589 2.48088Z" fill="black"/>
<path fill-rule="evenodd" clip-rule="evenodd" d="M19.5693 7.02924C19.8622 6.73635 20.337 6.73635 20.6299 7.02924C21.9443 8.34362 22.7596 10.1619 22.7596 12.1595C22.7596 16.1623 19.4953 19.4296 15.5096 19.4296L15.5077 19.4296L9.43011 19.4143L10.5187 20.4583C10.8177 20.745 10.8276 21.2197 10.5409 21.5187C10.2542 21.8177 9.77943 21.8276 9.48047 21.5409L7.04047 19.2008C6.81922 18.9887 6.74937 18.6632 6.86408 18.3789C6.97878 18.0946 7.25494 17.9088 7.56148 17.9095L15.5096 17.9296C15.51 17.9296 15.5103 17.9296 15.5107 17.9296C18.6645 17.929 21.2596 15.3365 21.2596 12.1595C21.2596 10.5772 20.6149 9.13552 19.5693 8.0899C19.2764 7.79701 19.2764 7.32213 19.5693 7.02924Z" fill="black"/>
<path fill-rule="evenodd" clip-rule="evenodd" d="M12.5184 8.62976C12.8085 8.74092 13 9.01944 13 9.33011V14.6701C13 15.0843 12.6642 15.4201 12.25 15.4201C11.8358 15.4201 11.5 15.0843 11.5 14.6701V11.2875L11.308 11.5013C11.0312 11.8094 10.557 11.8348 10.2488 11.5581C9.94068 11.2813 9.91525 10.8071 10.192 10.4989L11.692 8.82894C11.8996 8.59781 12.2283 8.5186 12.5184 8.62976Z" fill="black"/>
</svg>
