<svg width="24" height="24" viewBox="0 0 24 24" fill="none" xmlns="http://www.w3.org/2000/svg">
<path fill-rule="evenodd" clip-rule="evenodd" d="M2.58008 13.3204C2.58008 8.11618 6.79586 3.90039 12.0001 3.90039C13.142 3.90039 14.1745 4.08378 15.1048 4.36179C15.5017 4.4804 15.7273 4.89827 15.6087 5.29514C15.4901 5.69201 15.0722 5.91759 14.6753 5.79899C13.8656 5.557 12.9782 5.40039 12.0001 5.40039C7.62429 5.40039 4.08008 8.9446 4.08008 13.3204C4.08008 17.7067 7.62486 21.2504 12.0001 21.2504C16.3759 21.2504 19.9201 17.7062 19.9201 13.3304C19.9201 11.704 19.427 10.1879 18.586 8.92642C18.3563 8.58177 18.4494 8.11612 18.7941 7.88635C19.1387 7.65659 19.6044 7.74972 19.8341 8.09437C20.8331 9.59286 21.4201 11.3968 21.4201 13.3304C21.4201 18.5346 17.2043 22.7504 12.0001 22.7504C6.7953 22.7504 2.58008 18.534 2.58008 13.3204Z" fill="black"/>
<path fill-rule="evenodd" clip-rule="evenodd" d="M12.7478 1.43431C13.0602 1.16235 13.534 1.19516 13.8059 1.50758L16.6959 4.82758C16.9679 5.14001 16.9351 5.61375 16.6227 5.88571C16.3102 6.15767 15.8365 6.12487 15.5645 5.81244L12.6745 2.49244C12.4026 2.18001 12.4354 1.70627 12.7478 1.43431Z" fill="black"/>
<path fill-rule="evenodd" clip-rule="evenodd" d="M16.7356 4.87817C16.9798 5.21273 16.9066 5.68192 16.572 5.92614L13.202 8.38614C12.8675 8.63036 12.3983 8.55712 12.154 8.22256C11.9098 7.888 11.9831 7.41881 12.3176 7.17459L15.6876 4.71459C16.0222 4.47037 16.4914 4.54361 16.7356 4.87817Z" fill="black"/>
</svg>
