<svg width="24" height="24" viewBox="0 0 24 24" fill="none" xmlns="http://www.w3.org/2000/svg">
<path fill-rule="evenodd" clip-rule="evenodd" d="M12.0001 5.40039C11.022 5.40039 10.1345 5.557 9.32483 5.79899C8.92796 5.91759 8.51009 5.69201 8.39148 5.29514C8.27288 4.89827 8.49846 4.4804 8.89532 4.36179C9.82561 4.08378 10.8582 3.90039 12.0001 3.90039C17.2043 3.90039 21.4201 8.11618 21.4201 13.3204C21.4201 18.5246 17.2043 22.7404 12.0001 22.7404C6.79586 22.7404 2.58008 18.5246 2.58008 13.3204C2.58008 11.3868 3.16704 9.58286 4.16604 8.08437C4.3958 7.73972 4.86146 7.64659 5.2061 7.87635C5.55075 8.10612 5.64388 8.57177 5.41412 8.91642C4.57311 10.1779 4.08008 11.694 4.08008 13.3204C4.08008 17.6962 7.62429 21.2404 12.0001 21.2404C16.3759 21.2404 19.9201 17.6962 19.9201 13.3204C19.9201 8.9446 16.3759 5.40039 12.0001 5.40039Z" fill="black"/>
<path fill-rule="evenodd" clip-rule="evenodd" d="M11.2526 1.43431C11.565 1.70627 11.5978 2.18001 11.3258 2.49244L8.43583 5.81244C8.16386 6.12487 7.69012 6.15767 7.3777 5.88571C7.06527 5.61375 7.03247 5.14001 7.30443 4.82758L10.1944 1.50758C10.4664 1.19516 10.9401 1.16235 11.2526 1.43431Z" fill="black"/>
<path fill-rule="evenodd" clip-rule="evenodd" d="M7.2644 4.87817C7.50861 4.54361 7.97781 4.47037 8.31237 4.71459L11.6824 7.17459C12.0169 7.41881 12.0902 7.888 11.8459 8.22256C11.6017 8.55712 11.1325 8.63036 10.798 8.38614L7.42797 5.92614C7.09341 5.68192 7.02018 5.21273 7.2644 4.87817Z" fill="black"/>
</svg>
