<svg width="24" height="24" viewBox="0 0 24 24" fill="none" xmlns="http://www.w3.org/2000/svg">
<path fill-rule="evenodd" clip-rule="evenodd" d="M5.46973 2.75C3.95094 2.75 2.71973 3.98122 2.71973 5.5C2.71973 7.01878 3.95094 8.25 5.46973 8.25C6.98851 8.25 8.21973 7.01878 8.21973 5.5C8.21973 3.98122 6.98851 2.75 5.46973 2.75ZM1.21973 5.5C1.21973 3.15279 3.12252 1.25 5.46973 1.25C7.81694 1.25 9.71973 3.15279 9.71973 5.5C9.71973 7.84721 7.81694 9.75 5.46973 9.75C3.12252 9.75 1.21973 7.84721 1.21973 5.5Z" fill="black"/>
<path fill-rule="evenodd" clip-rule="evenodd" d="M16.9697 15.75C16.2839 15.75 15.7197 16.3142 15.7197 17V20C15.7197 20.6858 16.2839 21.25 16.9697 21.25H19.9697C20.6555 21.25 21.2197 20.6858 21.2197 20V17C21.2197 16.3142 20.6555 15.75 19.9697 15.75H16.9697ZM14.2197 17C14.2197 15.4858 15.4555 14.25 16.9697 14.25H19.9697C21.4839 14.25 22.7197 15.4858 22.7197 17V20C22.7197 21.5142 21.4839 22.75 19.9697 22.75H16.9697C15.4555 22.75 14.2197 21.5142 14.2197 20V17Z" fill="black"/>
<path fill-rule="evenodd" clip-rule="evenodd" d="M11.2504 5C11.2504 4.58579 11.5861 4.25 12.0004 4.25H14.6804C17.2242 4.25 18.4038 7.39845 16.4951 9.07368L8.50419 16.0645L8.5028 16.0657C7.6368 16.8195 8.17257 18.25 9.32036 18.25H12.0004C12.4146 18.25 12.7504 18.5858 12.7504 19C12.7504 19.4142 12.4146 19.75 12.0004 19.75H9.32036C6.78848 19.75 5.60422 16.6013 7.51719 14.9349L15.5056 7.94632C16.3764 7.18147 15.8364 5.75 14.6804 5.75H12.0004C11.5861 5.75 11.2504 5.41421 11.2504 5Z" fill="black"/>
<path fill-rule="evenodd" clip-rule="evenodd" d="M4.48633 5.5C4.48633 4.94772 4.93404 4.5 5.48633 4.5H5.49788C6.05017 4.5 6.49788 4.94772 6.49788 5.5C6.49788 6.05228 6.05017 6.5 5.49788 6.5H5.48633C4.93404 6.5 4.48633 6.05228 4.48633 5.5Z" fill="black"/>
<path fill-rule="evenodd" clip-rule="evenodd" d="M17.4863 18.5C17.4863 17.9477 17.934 17.5 18.4863 17.5H18.4979C19.0502 17.5 19.4979 17.9477 19.4979 18.5C19.4979 19.0523 19.0502 19.5 18.4979 19.5H18.4863C17.934 19.5 17.4863 19.0523 17.4863 18.5Z" fill="black"/>
</svg>
