<svg width="24" height="24" viewBox="0 0 24 24" fill="none" xmlns="http://www.w3.org/2000/svg">
<path fill-rule="evenodd" clip-rule="evenodd" d="M5.47385 2.75488C4.24555 2.75488 3.10621 3.44801 2.80082 4.76884C2.4279 6.37952 3.43763 7.83482 4.51676 8.8762C5.05237 9.37597 5.88748 9.37601 6.41267 8.87695C7.50102 7.83699 8.51254 6.38059 8.13942 4.76905L8.13891 4.76683C7.83769 3.44757 6.70201 2.75488 5.47385 2.75488ZM9.60102 4.43182C9.11185 2.29184 7.24788 1.25488 5.47385 1.25488C3.6997 1.25488 1.83411 2.29169 1.33942 4.43071M9.60102 4.43182C10.1671 6.87945 8.59941 8.86235 7.44818 9.96218L7.44701 9.9633C6.33323 11.0227 4.59105 11.0036 3.4867 9.96662L3.47954 9.9599C2.34015 8.86157 0.772927 6.87801 1.33942 4.43071" fill="black"/>
<path fill-rule="evenodd" clip-rule="evenodd" d="M18.4901 14.7549C17.2499 14.7549 16.1056 15.4506 15.8008 16.7688C15.4279 18.3794 16.4383 19.8358 17.5345 20.8741C18.0702 21.3761 18.9173 21.3767 19.4432 20.8765L19.4444 20.8753C20.541 19.8369 21.5524 18.3802 21.1794 16.7691C20.8746 15.4508 19.7302 14.7549 18.4901 14.7549ZM22.6408 16.4307C22.1455 14.2891 20.2699 13.2549 18.4901 13.2549C16.7103 13.2549 14.8347 14.2891 14.3394 16.4307M22.6408 16.4307C23.2077 18.8796 21.6391 20.8629 20.4758 21.9645C19.3619 23.0227 17.6106 23.0033 16.5067 21.9666L16.5044 21.9645C15.3411 20.8629 13.7726 18.8795 14.3394 16.4307" fill="black"/>
<path fill-rule="evenodd" clip-rule="evenodd" d="M11.2504 5C11.2504 4.58579 11.5861 4.25 12.0004 4.25H14.6804C17.2242 4.25 18.4038 7.39845 16.4951 9.07368L8.50419 16.0645L8.5028 16.0657C7.6368 16.8195 8.17257 18.25 9.32036 18.25H12.0004C12.4146 18.25 12.7504 18.5858 12.7504 19C12.7504 19.4142 12.4146 19.75 12.0004 19.75H9.32036C6.78848 19.75 5.60422 16.6013 7.51719 14.9349C7.51695 14.9352 7.51744 14.9347 7.51719 14.9349L15.5056 7.94632C15.5055 7.94643 15.5057 7.94621 15.5056 7.94632C16.3764 7.18147 15.8364 5.75 14.6804 5.75H12.0004C11.5861 5.75 11.2504 5.41421 11.2504 5Z" fill="black"/>
<path fill-rule="evenodd" clip-rule="evenodd" d="M4.48633 5.5C4.48633 4.94772 4.93404 4.5 5.48633 4.5H5.49788C6.05017 4.5 6.49788 4.94772 6.49788 5.5C6.49788 6.05228 6.05017 6.5 5.49788 6.5H5.48633C4.93404 6.5 4.48633 6.05228 4.48633 5.5Z" fill="black"/>
<path fill-rule="evenodd" clip-rule="evenodd" d="M17.4863 17.5C17.4863 16.9477 17.934 16.5 18.4863 16.5H18.4979C19.0502 16.5 19.4979 16.9477 19.4979 17.5C19.4979 18.0523 19.0502 18.5 18.4979 18.5H18.4863C17.934 18.5 17.4863 18.0523 17.4863 17.5Z" fill="black"/>
</svg>
