<svg width="24" height="24" viewBox="0 0 24 24" fill="none" xmlns="http://www.w3.org/2000/svg">
<path fill-rule="evenodd" clip-rule="evenodd" d="M11.6894 2.21967C12.3797 1.52941 13.3541 1.25 14.4697 1.25H18.4697C19.5853 1.25 20.5598 1.52941 21.2501 2.21967C21.9403 2.90993 22.2197 3.88439 22.2197 5V19C22.2197 20.1156 21.9403 21.0901 21.2501 21.7803C20.5598 22.4706 19.5853 22.75 18.4697 22.75H14.4697C13.3541 22.75 12.3797 22.4706 11.6894 21.7803C10.9991 21.0901 10.7197 20.1156 10.7197 19V5C10.7197 3.88439 10.9991 2.90993 11.6894 2.21967ZM12.7501 3.28033C12.4403 3.59007 12.2197 4.11561 12.2197 5V19C12.2197 19.8844 12.4403 20.4099 12.7501 20.7197C13.0598 21.0294 13.5853 21.25 14.4697 21.25H18.4697C19.3541 21.25 19.8797 21.0294 20.1894 20.7197C20.4991 20.4099 20.7197 19.8844 20.7197 19V5C20.7197 4.11561 20.4991 3.59007 20.1894 3.28033C19.8797 2.97059 19.3541 2.75 18.4697 2.75H14.4697C13.5853 2.75 13.0598 2.97059 12.7501 3.28033Z" fill="black"/>
<path fill-rule="evenodd" clip-rule="evenodd" d="M10.7197 6C10.7197 5.58579 11.0555 5.25 11.4697 5.25H16.4697C16.8839 5.25 17.2197 5.58579 17.2197 6C17.2197 6.41421 16.8839 6.75 16.4697 6.75H11.4697C11.0555 6.75 10.7197 6.41421 10.7197 6Z" fill="black"/>
<path fill-rule="evenodd" clip-rule="evenodd" d="M10.7197 18C10.7197 17.5858 11.0555 17.25 11.4697 17.25H15.4697C15.8839 17.25 16.2197 17.5858 16.2197 18C16.2197 18.4142 15.8839 18.75 15.4697 18.75H11.4697C11.0555 18.75 10.7197 18.4142 10.7197 18Z" fill="black"/>
<path fill-rule="evenodd" clip-rule="evenodd" d="M10.7198 13.9427C10.7239 13.5285 11.063 13.1961 11.4772 13.2002L16.4772 13.2502C16.8914 13.2544 17.2238 13.5935 17.2197 14.0077C17.2155 14.4219 16.8764 14.7543 16.4622 14.7502L11.4622 14.7002C11.048 14.696 10.7156 14.3569 10.7198 13.9427Z" fill="black"/>
<path fill-rule="evenodd" clip-rule="evenodd" d="M10.7197 10C10.7197 9.58579 11.0555 9.25 11.4697 9.25H14.4697C14.8839 9.25 15.2197 9.58579 15.2197 10C15.2197 10.4142 14.8839 10.75 14.4697 10.75H11.4697C11.0555 10.75 10.7197 10.4142 10.7197 10Z" fill="black"/>
<path fill-rule="evenodd" clip-rule="evenodd" d="M1.78027 4.95C1.78027 2.91414 3.44771 1.25 5.49027 1.25C7.52449 1.25 9.19027 2.91579 9.19027 4.95V17.91C9.19027 18.225 9.1265 18.5783 9.03926 18.8929C8.95182 19.2083 8.82491 19.542 8.6663 19.811L8.66259 19.8173L7.84375 21.1753L7.84312 21.1763C7.28537 22.1073 6.45232 22.7175 5.48527 22.7175C4.51824 22.7175 3.68521 22.1073 3.12745 21.1764L3.12679 21.1753L2.30422 19.811C2.14561 19.5421 2.01873 19.2083 1.93129 18.8929C1.84405 18.5783 1.78027 18.225 1.78027 17.91V4.95ZM5.49027 2.75C4.27284 2.75 3.28027 3.74586 3.28027 4.95V17.91C3.28027 18.045 3.3115 18.2567 3.37676 18.4921C3.44133 18.725 3.52368 18.925 3.59471 19.0463L4.41376 20.4047C4.796 21.0432 5.20769 21.2175 5.48527 21.2175C5.76286 21.2175 6.17455 21.0432 6.55679 20.4047L6.55799 20.4027L7.37585 19.0463C7.44688 18.925 7.52922 18.725 7.59379 18.4921C7.65905 18.2567 7.69027 18.045 7.69027 17.91V4.95C7.69027 3.74421 6.69606 2.75 5.49027 2.75Z" fill="black"/>
<path fill-rule="evenodd" clip-rule="evenodd" d="M1.78027 7C1.78027 6.58579 2.11606 6.25 2.53027 6.25H8.44027C8.85449 6.25 9.19027 6.58579 9.19027 7C9.19027 7.41421 8.85449 7.75 8.44027 7.75H2.53027C2.11606 7.75 1.78027 7.41421 1.78027 7Z" fill="black"/>
</svg>
