<svg width="24" height="24" viewBox="0 0 24 24" fill="none" xmlns="http://www.w3.org/2000/svg">
<path fill-rule="evenodd" clip-rule="evenodd" d="M17.8401 13.8851L15.0693 15.0214C15.0399 15.0344 14.9758 15.079 14.9164 15.168C14.8561 15.2584 14.8398 15.3361 14.8398 15.3695V17.5596C14.8398 18.6246 15.2323 19.6711 15.9237 20.5288L15.9299 20.5364C16.5635 21.3436 17.4645 21.9662 18.4765 22.243C18.5114 22.2508 18.5629 22.2528 18.6171 22.2418C20.7147 21.6524 22.2498 19.645 22.2498 17.5596V15.3695C22.2498 15.3361 22.2336 15.2584 22.1733 15.168C22.1142 15.0793 22.0503 15.0347 22.0208 15.0215L20.2353 14.2934L19.2396 13.8851C18.7894 13.7076 18.2903 13.7076 17.8401 13.8851ZM17.2832 12.4923C18.0909 12.1718 18.9888 12.1718 19.7965 12.4923L19.8044 12.4955L20.803 12.905L22.6009 13.6382C22.9524 13.7862 23.2319 14.0517 23.4214 14.336C23.6111 14.6206 23.7498 14.9829 23.7498 15.3695V17.5596C23.7498 20.3484 21.7335 22.9355 19 23.6923C18.9906 23.6949 18.9811 23.6973 18.9716 23.6995C18.6923 23.7653 18.3908 23.7678 18.108 23.6971L18.0936 23.6933C16.7512 23.3293 15.5771 22.5148 14.7529 21.4664C13.8662 20.3648 13.3398 18.9929 13.3398 17.5596V15.3695C13.3398 14.9829 13.4786 14.6206 13.6683 14.336C13.8578 14.0517 14.1374 13.7862 14.4888 13.6382L14.4953 13.6355L17.2832 12.4923Z" fill="black"/>
<path fill-rule="evenodd" clip-rule="evenodd" d="M12.8476 3.57255C12.1129 2.97603 10.8652 2.97541 10.1295 3.56536L3.54861 8.82611C3.30962 9.01665 3.07471 9.35212 2.91934 9.76304C2.76401 10.1739 2.71751 10.5812 2.76945 10.8831L2.77009 10.8868L4.02967 18.4344C4.02973 18.4348 4.0298 18.4351 4.02986 18.4355C4.19907 19.4249 5.17663 20.2503 6.18031 20.2503H13.9766C13.5682 19.4199 13.3398 18.5026 13.3398 17.5596V15.3695C13.3398 14.9829 13.4786 14.6206 13.6683 14.336C13.8578 14.0517 14.1374 13.7862 14.4888 13.6382L14.4953 13.6355L17.2832 12.4923C18.0909 12.1718 18.9888 12.1718 19.7965 12.4923L19.8044 12.4955L19.9345 12.5495L20.2105 10.8875L20.2112 10.8831C20.2627 10.5835 20.2151 10.177 20.0581 9.76458C19.9015 9.35316 19.6669 9.01657 19.4304 8.8248C19.4299 8.8244 19.4294 8.82399 19.4289 8.82359L12.8476 3.57255ZM13.7904 2.40589C12.5052 1.36466 10.4751 1.36584 9.19154 2.39483C9.19139 2.39495 9.19169 2.39471 9.19154 2.39483L2.61275 7.65386C2.61259 7.65398 2.6129 7.65374 2.61275 7.65386C2.11197 8.05331 1.74084 8.63863 1.51628 9.23255C1.29185 9.82612 1.18335 10.508 1.29083 11.1355C1.29094 11.1361 1.29106 11.1368 1.29117 11.1375L2.55055 18.6838L2.55098 18.6863C2.84233 20.3964 4.44437 21.7503 6.18031 21.7503H15.3403C15.6291 21.7503 15.8923 21.5845 16.0169 21.3239C16.1415 21.0634 16.105 20.7537 15.9237 20.5288C15.2323 19.6711 14.8398 18.6246 14.8398 17.5596V15.3695C14.8398 15.3361 14.8561 15.2584 14.9164 15.168C14.9758 15.079 15.0399 15.0344 15.0693 15.0214L17.8401 13.8851C18.2903 13.7076 18.7894 13.7076 19.2396 13.8851L20.2353 14.2934C20.4465 14.38 20.6861 14.3665 20.8855 14.2554C21.0849 14.1442 21.2228 13.9483 21.2602 13.7231L21.6895 11.1375C21.6896 11.1367 21.6897 11.1359 21.6899 11.1351C21.7976 10.5054 21.6853 9.82284 21.46 9.23101C21.2344 8.63828 20.8647 8.05542 20.3717 7.65698L13.7931 2.40802C13.7922 2.40731 13.7913 2.4066 13.7904 2.40589Z" fill="black"/>
</svg>
