<svg width="24" height="24" viewBox="0 0 24 24" fill="none" xmlns="http://www.w3.org/2000/svg">
<path fill-rule="evenodd" clip-rule="evenodd" d="M3.09467 3.09467C4.42914 1.7602 6.42603 1.25 9 1.25H15C17.574 1.25 19.5709 1.7602 20.9053 3.09467C22.2398 4.42914 22.75 6.42603 22.75 9V15C22.75 17.574 22.2398 19.5709 20.9053 20.9053C19.5709 22.2398 17.574 22.75 15 22.75H9C6.42603 22.75 4.42914 22.2398 3.09467 20.9053C1.7602 19.5709 1.25 17.574 1.25 15V9C1.25 6.42603 1.7602 4.42914 3.09467 3.09467ZM4.15533 4.15533C3.2398 5.07086 2.75 6.57397 2.75 9V15C2.75 17.426 3.2398 18.9291 4.15533 19.8447C5.07086 20.7602 6.57397 21.25 9 21.25H15C17.426 21.25 18.9291 20.7602 19.8447 19.8447C20.7602 18.9291 21.25 17.426 21.25 15V9C21.25 6.57397 20.7602 5.07086 19.8447 4.15533C18.9291 3.2398 17.426 2.75 15 2.75H9C6.57397 2.75 5.07086 3.2398 4.15533 4.15533Z" fill="black"/>
<path fill-rule="evenodd" clip-rule="evenodd" d="M8.41998 7.80957C7.77382 7.80957 7.25 8.33339 7.25 8.97957C7.25 9.62575 7.77382 10.1496 8.41998 10.1496C9.06618 10.1496 9.59003 9.62572 9.59003 8.97957C9.59003 8.33342 9.06618 7.80957 8.41998 7.80957ZM5.75 8.97957C5.75 7.50498 6.94537 6.30957 8.41998 6.30957C9.89456 6.30957 11.09 7.50494 11.09 8.97957C11.09 10.4542 9.89456 11.6496 8.41998 11.6496C6.94537 11.6496 5.75 10.4542 5.75 8.97957Z" fill="black"/>
<path fill-rule="evenodd" clip-rule="evenodd" d="M8.41998 13.8496C7.77382 13.8496 7.25 14.3734 7.25 15.0196C7.25 15.6658 7.77382 16.1896 8.41998 16.1896C9.06618 16.1896 9.59003 15.6658 9.59003 15.0196C9.59003 14.3735 9.06618 13.8496 8.41998 13.8496ZM5.75 15.0196C5.75 13.545 6.94537 12.3496 8.41998 12.3496C9.89456 12.3496 11.09 13.545 11.09 15.0196C11.09 16.4942 9.89456 17.6896 8.41998 17.6896C6.94537 17.6896 5.75 16.4942 5.75 15.0196Z" fill="black"/>
<path fill-rule="evenodd" clip-rule="evenodd" d="M18.1008 8.25103C18.3489 8.58272 18.2811 9.05274 17.9494 9.30083L10.6094 14.7908C10.2777 15.0389 9.80771 14.9712 9.55961 14.6395C9.31152 14.3078 9.37929 13.8378 9.71099 13.5897L17.051 8.09965C17.3827 7.85156 17.8527 7.91933 18.1008 8.25103Z" fill="black"/>
<path fill-rule="evenodd" clip-rule="evenodd" d="M9.55961 9.34087C9.80771 9.00917 10.2777 8.9414 10.6094 9.18949L17.9494 14.6795C18.2811 14.9276 18.3489 15.3976 18.1008 15.7293C17.8527 16.061 17.3827 16.1288 17.051 15.8807L9.71099 10.3907C9.37929 10.1426 9.31152 9.67257 9.55961 9.34087Z" fill="black"/>
</svg>
