<svg width="24" height="24" viewBox="0 0 24 24" fill="none" xmlns="http://www.w3.org/2000/svg">
<path fill-rule="evenodd" clip-rule="evenodd" d="M11 2.75C6.44365 2.75 2.75 6.44365 2.75 11C2.75 15.5563 6.44365 19.25 11 19.25C15.5563 19.25 19.25 15.5563 19.25 11C19.25 6.44365 15.5563 2.75 11 2.75ZM1.25 11C1.25 5.61522 5.61522 1.25 11 1.25C16.3848 1.25 20.75 5.61522 20.75 11C20.75 16.3848 16.3848 20.75 11 20.75C5.61522 20.75 1.25 16.3848 1.25 11Z" fill="black"/>
<path fill-rule="evenodd" clip-rule="evenodd" d="M7.75 11C7.75 10.5858 8.08579 10.25 8.5 10.25H13.5C13.9142 10.25 14.25 10.5858 14.25 11C14.25 11.4142 13.9142 11.75 13.5 11.75H8.5C8.08579 11.75 7.75 11.4142 7.75 11Z" fill="black"/>
<path fill-rule="evenodd" clip-rule="evenodd" d="M11 7.75C11.4142 7.75 11.75 8.08579 11.75 8.5V13.5C11.75 13.9142 11.4142 14.25 11 14.25C10.5858 14.25 10.25 13.9142 10.25 13.5V8.5C10.25 8.08579 10.5858 7.75 11 7.75Z" fill="black"/>
<path fill-rule="evenodd" clip-rule="evenodd" d="M20.3534 17.9698C19.5839 17.964 18.8915 18.2675 18.4691 18.854C18.0471 19.4399 17.9766 20.1941 18.218 20.925C18.5199 21.8365 19.11 22.6168 20.0155 22.7382C20.921 22.8595 21.6948 22.2628 22.2249 21.4648C22.7285 20.7064 22.9422 19.8156 22.5326 19.0508C22.1232 18.2863 21.2646 17.9706 20.3534 17.9698ZM19.6422 20.4543C19.8703 21.1425 20.1504 21.2428 20.2148 21.2515C20.2794 21.2601 20.5755 21.2368 20.9754 20.6349M19.6422 20.4543C19.5238 20.0954 19.5933 19.8597 19.6862 19.7306C19.7782 19.603 19.9744 19.4665 20.3436 19.4698L20.3502 19.4698C20.9778 19.4698 21.1676 19.6792 21.2103 19.7589C21.2532 19.839 21.3216 20.1134 20.9754 20.6349" fill="black"/>
</svg>
