<svg width="16" height="17" viewBox="0 0 16 17" fill="none" xmlns="http://www.w3.org/2000/svg">
<path d="M7.19336 14.4224C7.45686 14.4568 7.72574 14.4751 7.99902 14.4751C8.27517 14.4751 8.49902 14.699 8.49902 14.9751C8.49885 15.2511 8.27506 15.4751 7.99902 15.4751C7.68224 15.4751 7.36986 15.4546 7.06348 15.4146C6.78983 15.3788 6.59728 15.1276 6.63281 14.854C6.66858 14.5802 6.91954 14.3866 7.19336 14.4224ZM7.99902 1.14111C11.9831 1.14111 15.166 4.35327 15.166 8.30811C15.166 11.6344 12.9001 14.4281 9.82617 15.2378C9.55925 15.3081 9.28626 15.1492 9.21582 14.8823C9.14551 14.6154 9.30443 14.3415 9.57129 14.271C12.2174 13.574 14.166 11.1685 14.166 8.30811C14.166 4.90294 11.4282 2.14111 7.99902 2.14111C5.9242 2.14111 4.36679 3.00383 3.31836 3.87842C2.9103 4.21883 2.58184 4.55975 2.33301 4.84814H4.29199C4.56813 4.84814 4.79199 5.072 4.79199 5.34814C4.79197 5.62427 4.56812 5.84814 4.29199 5.84814H1.33203C1.05605 5.84797 0.832052 5.62416 0.832031 5.34814V2.30811C0.832031 2.03207 1.05604 1.80828 1.33203 1.80811C1.60817 1.80811 1.83203 2.03196 1.83203 2.30811V3.90967C2.06817 3.65758 2.35018 3.3841 2.67773 3.11084C3.85097 2.13212 5.62723 1.14111 7.99902 1.14111ZM3.54492 13.2925C3.71321 13.0735 4.02716 13.0324 4.24609 13.2007C4.67036 13.5267 5.13808 13.7986 5.63867 14.0063C5.89361 14.1121 6.01477 14.4047 5.90918 14.6597C5.80334 14.9147 5.5109 15.036 5.25586 14.9302C4.67314 14.6883 4.12964 14.3716 3.63672 13.9927C3.41785 13.8244 3.37679 13.5114 3.54492 13.2925ZM1.64746 10.3979C1.90243 10.2924 2.19498 10.4135 2.30078 10.6685C2.50858 11.1691 2.78038 11.6368 3.10645 12.061C3.27473 12.28 3.23359 12.5939 3.01465 12.7622C2.79572 12.9303 2.4827 12.8893 2.31445 12.6704C1.93556 12.1775 1.61878 11.634 1.37695 11.0513C1.27114 10.7962 1.39242 10.5038 1.64746 10.3979ZM7.75195 4.81494C8.0281 4.81494 8.25195 5.0388 8.25195 5.31494V8.04834C8.25205 8.15059 8.29131 8.29863 8.37793 8.45068C8.46473 8.60289 8.57266 8.71217 8.66016 8.76416L8.66211 8.76514L10.7285 9.99854C10.9656 10.14 11.0429 10.447 10.9014 10.6841C10.7598 10.9212 10.4529 10.9984 10.2158 10.8569L8.15039 9.62451L8.05078 9.56006C7.8245 9.39972 7.64074 9.17635 7.50977 8.94678C7.36007 8.68429 7.25204 8.36585 7.25195 8.04834V5.31494C7.25195 5.03891 7.47596 4.81512 7.75195 4.81494ZM1.33203 7.80811C1.60817 7.80811 1.83203 8.03196 1.83203 8.30811C1.83203 8.58139 1.85036 8.85027 1.88477 9.11377C1.92053 9.38759 1.72694 9.63855 1.45312 9.67432C1.17948 9.70985 0.928366 9.5173 0.892578 9.24365C0.852561 8.93727 0.832031 8.62489 0.832031 8.30811C0.832031 8.03207 1.05604 7.80828 1.33203 7.80811Z" fill="#4C6580"/>
</svg>
