<svg width="24" height="24" viewBox="0 0 24 24" fill="none" xmlns="http://www.w3.org/2000/svg">
<path fill-rule="evenodd" clip-rule="evenodd" d="M11 2.75C6.44421 2.75 2.75 6.44421 2.75 11C2.75 15.5558 6.44421 19.25 11 19.25C15.5558 19.25 19.25 15.5558 19.25 11C19.25 10.5858 19.5858 10.25 20 10.25C20.4142 10.25 20.75 10.5858 20.75 11C20.75 16.3842 16.3842 20.75 11 20.75C5.61579 20.75 1.25 16.3842 1.25 11C1.25 5.61579 5.61579 1.25 11 1.25C11.4142 1.25 11.75 1.58579 11.75 2C11.75 2.41421 11.4142 2.75 11 2.75Z" fill="black"/>
<path fill-rule="evenodd" clip-rule="evenodd" d="M15.9035 4.29213C15.688 3.99646 15.2929 3.8917 14.9532 4.00306L14.9475 4.00494C14.3191 4.20539 13.9417 5.04424 14.2139 5.90175C14.4358 6.58955 14.9272 7.13454 15.4553 7.51636C15.7166 7.70529 15.9731 7.8439 16.1835 7.93279C16.3703 8.01171 16.4771 8.03316 16.5043 8.03863C16.506 8.03896 16.5073 8.03924 16.5084 8.03946C16.5099 8.03909 16.5122 8.03857 16.5155 8.03786C16.5453 8.0313 16.6494 8.00845 16.8294 7.93139C17.0408 7.84087 17.299 7.70016 17.5616 7.50961C18.0939 7.12334 18.5824 6.57891 18.7941 5.90552L18.7949 5.90298C19.0678 5.0454 18.6907 4.20616 18.0624 4.00517C17.6891 3.88726 17.3034 4.00759 17.1368 4.26165C17.0017 4.46756 16.7743 4.59408 16.5281 4.60016C16.2819 4.60624 16.0485 4.49111 15.9035 4.29213ZM16.4964 2.82539C15.8835 2.43534 15.1274 2.36836 14.4889 2.57675C12.7999 3.11741 12.3581 5.01647 12.7849 6.35779L12.7857 6.36029C13.134 7.44189 13.8773 8.22646 14.5764 8.73192C14.9288 8.98673 15.2842 9.18125 15.5997 9.31455C15.891 9.43758 16.2226 9.54039 16.5096 9.54039C16.7977 9.54039 17.1311 9.43389 17.4198 9.31032C17.7346 9.17553 18.0902 8.97936 18.4425 8.72367C19.1399 8.21764 19.8861 7.43248 20.2247 6.35652C20.651 5.01454 20.2082 3.11514 18.5175 2.57585L18.516 2.57538C17.9128 2.38436 17.1245 2.41783 16.4964 2.82539Z" fill="black"/>
<path fill-rule="evenodd" clip-rule="evenodd" d="M20.3534 17.9698C19.5839 17.964 18.8915 18.2675 18.4691 18.854C18.0471 19.4399 17.9766 20.1941 18.218 20.925C18.5199 21.8365 19.11 22.6168 20.0155 22.7382C20.921 22.8595 21.6948 22.2628 22.2249 21.4648C22.7285 20.7064 22.9422 19.8156 22.5326 19.0508C22.1232 18.2863 21.2646 17.9706 20.3534 17.9698ZM19.6422 20.4543C19.8703 21.1425 20.1504 21.2428 20.2148 21.2515C20.2794 21.2601 20.5755 21.2368 20.9754 20.6349M19.6422 20.4543C19.5238 20.0954 19.5933 19.8597 19.6862 19.7306C19.7782 19.603 19.9744 19.4665 20.3436 19.4698L20.3502 19.4698C20.9778 19.4698 21.1676 19.6792 21.2103 19.7589C21.2532 19.839 21.3216 20.1134 20.9754 20.6349" fill="black"/>
</svg>
