<svg width="24" height="24" viewBox="0 0 24 24" fill="none" xmlns="http://www.w3.org/2000/svg">
<path fill-rule="evenodd" clip-rule="evenodd" d="M11 2.75C6.44421 2.75 2.75 6.44421 2.75 11C2.75 15.5558 6.44421 19.25 11 19.25C15.5558 19.25 19.25 15.5558 19.25 11C19.25 10.5858 19.5858 10.25 20 10.25C20.4142 10.25 20.75 10.5858 20.75 11C20.75 16.3842 16.3842 20.75 11 20.75C5.61579 20.75 1.25 16.3842 1.25 11C1.25 5.61579 5.61579 1.25 11 1.25C11.4142 1.25 11.75 1.58579 11.75 2C11.75 2.41421 11.4142 2.75 11 2.75Z" fill="black"/>
<path fill-rule="evenodd" clip-rule="evenodd" d="M20.3534 17.9698C19.5839 17.964 18.8915 18.2675 18.4691 18.854C18.0471 19.4399 17.9766 20.1941 18.218 20.925C18.5199 21.8365 19.11 22.6168 20.0155 22.7382C20.921 22.8595 21.6948 22.2628 22.2249 21.4648C22.7285 20.7064 22.9422 19.8156 22.5326 19.0508C22.1232 18.2863 21.2646 17.9706 20.3534 17.9698ZM19.6422 20.4543C19.8703 21.1425 20.1504 21.2428 20.2148 21.2515C20.2794 21.2601 20.5755 21.2368 20.9754 20.6349M19.6422 20.4543C19.5238 20.0954 19.5933 19.8597 19.6862 19.7306C19.7782 19.603 19.9744 19.4665 20.3436 19.4698L20.3502 19.4698C20.9778 19.4698 21.1676 19.6792 21.2103 19.7589C21.2532 19.839 21.3216 20.1134 20.9754 20.6349" fill="black"/>
<path fill-rule="evenodd" clip-rule="evenodd" d="M13.25 5C13.25 4.58579 13.5858 4.25 14 4.25H20C20.4142 4.25 20.75 4.58579 20.75 5C20.75 5.41421 20.4142 5.75 20 5.75H14C13.5858 5.75 13.25 5.41421 13.25 5Z" fill="black"/>
<path fill-rule="evenodd" clip-rule="evenodd" d="M13.25 8C13.25 7.58579 13.5858 7.25 14 7.25H17C17.4142 7.25 17.75 7.58579 17.75 8C17.75 8.41421 17.4142 8.75 17 8.75H14C13.5858 8.75 13.25 8.41421 13.25 8Z" fill="black"/>
</svg>
