<svg width="24" height="24" viewBox="0 0 24 24" fill="none" xmlns="http://www.w3.org/2000/svg">
<path fill-rule="evenodd" clip-rule="evenodd" d="M11.5 2.75C6.66421 2.75 2.75 6.66421 2.75 11.5C2.75 16.3358 6.66421 20.25 11.5 20.25C16.3358 20.25 20.25 16.3358 20.25 11.5C20.25 11.0858 20.5858 10.75 21 10.75C21.4142 10.75 21.75 11.0858 21.75 11.5C21.75 17.1642 17.1642 21.75 11.5 21.75C5.83579 21.75 1.25 17.1642 1.25 11.5C1.25 5.83579 5.83579 1.25 11.5 1.25C11.9142 1.25 12.25 1.58579 12.25 2C12.25 2.41421 11.9142 2.75 11.5 2.75Z" fill="black"/>
<path fill-rule="evenodd" clip-rule="evenodd" d="M19.4697 19.4697C19.7626 19.1768 20.2374 19.1768 20.5303 19.4697L22.5303 21.4697C22.8232 21.7626 22.8232 22.2374 22.5303 22.5303C22.2374 22.8232 21.7626 22.8232 21.4697 22.5303L19.4697 20.5303C19.1768 20.2374 19.1768 19.7626 19.4697 19.4697Z" fill="black"/>
<path fill-rule="evenodd" clip-rule="evenodd" d="M16.9035 4.29213C16.688 3.99646 16.2929 3.8917 15.9532 4.00306L15.9475 4.00494C15.3191 4.20539 14.9417 5.04424 15.2139 5.90175C15.4358 6.58955 15.9272 7.13454 16.4553 7.51636C16.7166 7.70529 16.9731 7.8439 17.1835 7.93279C17.3703 8.01171 17.4771 8.03316 17.5043 8.03863C17.506 8.03896 17.5073 8.03924 17.5084 8.03946C17.5099 8.03909 17.5122 8.03857 17.5155 8.03786C17.5453 8.0313 17.6494 8.00845 17.8294 7.93139C18.0408 7.84087 18.299 7.70016 18.5616 7.50961C19.0939 7.12334 19.5824 6.57891 19.7941 5.90552L19.7949 5.90298C20.0678 5.0454 19.6907 4.20616 19.0624 4.00517C18.6891 3.88726 18.3034 4.00759 18.1368 4.26165C18.0017 4.46756 17.7743 4.59408 17.5281 4.60016C17.2819 4.60624 17.0485 4.49111 16.9035 4.29213ZM17.4964 2.82539C16.8835 2.43534 16.1274 2.36836 15.4889 2.57675C13.7999 3.11741 13.3581 5.01647 13.7849 6.35779L13.7857 6.36029C14.134 7.44189 14.8773 8.22646 15.5764 8.73192C15.9288 8.98673 16.2842 9.18125 16.5997 9.31455C16.891 9.43758 17.2226 9.54039 17.5096 9.54039C17.7977 9.54039 18.1311 9.43389 18.4198 9.31032C18.7346 9.17553 19.0902 8.97936 19.4425 8.72367C20.1399 8.21764 20.8861 7.43248 21.2247 6.35652C21.651 5.01454 21.2082 3.11514 19.5175 2.57585L19.516 2.57538C18.9128 2.38436 18.1245 2.41783 17.4964 2.82539Z" fill="black"/>
</svg>
