<svg width="24" height="24" viewBox="0 0 24 24" fill="none" xmlns="http://www.w3.org/2000/svg">
<path fill-rule="evenodd" clip-rule="evenodd" d="M12.0026 1.24707C12.6109 1.24707 13.2561 1.33129 13.7871 1.52497L13.7934 1.52724L18.7828 3.39707C19.5298 3.67639 20.1665 4.23713 20.6132 4.88288C21.06 5.52873 21.3601 6.32224 21.3601 7.11957V14.5496C21.3601 15.2885 21.1212 16.0873 20.7714 16.7828C20.4214 17.4786 19.9221 18.1471 19.3291 18.5903L15.0308 21.7991L15.0297 21.7999C14.172 22.4443 13.0735 22.7446 12.0101 22.7446C10.9468 22.7446 9.84824 22.4442 8.9905 21.7998L8.98948 21.7991L4.69151 18.5906C4.09852 18.1474 3.59888 17.4786 3.2489 16.7828C2.89906 16.0873 2.66016 15.2885 2.66016 14.5496V7.11957C2.66016 6.32224 2.96032 5.52873 3.40711 4.88288C3.85378 4.2372 4.49033 3.67651 5.23725 3.39716L10.227 1.52727C10.7516 1.33133 11.3953 1.24707 12.0026 1.24707ZM10.7526 2.93216L5.76334 4.80187C5.36036 4.95256 4.95148 5.28701 4.6407 5.73626C4.32999 6.18541 4.16016 6.6869 4.16016 7.11957V14.5496C4.16016 14.9906 4.31126 15.5568 4.58892 16.1088C4.86643 16.6605 5.23209 17.1219 5.58907 17.3887L9.89084 20.6001C10.4429 21.0151 11.209 21.2446 12.0101 21.2446C12.8113 21.2446 13.5773 21.0151 14.1295 20.6001L14.1315 20.5986L18.4312 17.3888C18.7881 17.122 19.1539 16.6604 19.4314 16.1088C19.709 15.5568 19.8601 14.9906 19.8601 14.5496V7.11957C19.8601 6.6869 19.6903 6.18541 19.3796 5.73626C19.0688 5.28701 18.6604 4.95275 18.2575 4.80207L13.2703 2.93313C12.9515 2.81743 12.4929 2.74707 12.0026 2.74707C11.5102 2.74707 11.0579 2.8182 10.7526 2.93216Z" fill="black"/>
<path fill-rule="evenodd" clip-rule="evenodd" d="M12 8.25C10.2051 8.25 8.75 9.70507 8.75 11.5C8.75 13.2949 10.2051 14.75 12 14.75C13.7949 14.75 15.25 13.2949 15.25 11.5C15.25 9.70507 13.7949 8.25 12 8.25ZM7.25 11.5C7.25 8.87665 9.37665 6.75 12 6.75C14.6234 6.75 16.75 8.87665 16.75 11.5C16.75 14.1234 14.6234 16.25 12 16.25C9.37665 16.25 7.25 14.1234 7.25 11.5Z" fill="black"/>
<path fill-rule="evenodd" clip-rule="evenodd" d="M12.2501 9.5C12.6643 9.5 13.0001 9.83579 13.0001 10.25V11.18C13.0001 11.7837 12.6899 12.3641 12.1434 12.6847L11.3885 13.1416C11.0341 13.3561 10.573 13.2427 10.3585 12.8883C10.144 12.534 10.2574 12.0729 10.6118 11.8584L11.3835 11.3913C11.4528 11.351 11.5001 11.2739 11.5001 11.18V10.25C11.5001 9.83579 11.8359 9.5 12.2501 9.5Z" fill="black"/>
</svg>
