<svg width="24" height="24" viewBox="0 0 24 24" fill="none" xmlns="http://www.w3.org/2000/svg">
<path fill-rule="evenodd" clip-rule="evenodd" d="M10.55 2.79785C10.0623 2.79785 9.61407 2.86891 9.31522 2.98189L9.31365 2.98248L4.3347 4.85209C3.93622 5.00253 3.53209 5.33449 3.22491 5.7799C2.91767 6.2254 2.75 6.72219 2.75 7.15035V14.5604C2.75 14.9975 2.89926 15.562 3.17359 16.1117C3.44804 16.6617 3.80849 17.1186 4.15796 17.3788L4.15911 17.3797L8.43592 20.5773L8.43727 20.5783C8.99631 20.9911 9.76182 21.2178 10.5588 21.2178C11.3561 21.2178 12.1181 20.991 12.6711 20.5795L12.672 20.5788L15.4455 18.5004H11.74C10.5686 18.5004 9.54146 18.3709 8.86172 17.7027C8.17847 17.031 8.04499 16.0118 8.04 14.8636L8.03999 14.8603V9.43035C8.03999 8.37301 8.14681 7.43671 8.67254 6.77067C9.23229 6.06153 10.1013 5.84961 11.0755 5.79168C11.0903 5.7908 11.1051 5.79036 11.12 5.79036C11.2021 5.79036 11.2876 5.78825 11.3885 5.78575L11.3952 5.78559C11.496 5.7831 11.6096 5.78035 11.73 5.78035H17.8702C17.5713 5.35384 17.1686 5.00892 16.7549 4.85195L11.7848 2.98189C11.4859 2.86891 11.0377 2.79785 10.55 2.79785ZM12.3147 1.57862C11.7937 1.38174 11.1521 1.29785 10.55 1.29785C9.94805 1.29785 9.30664 1.3817 8.78565 1.57849L3.80532 3.44861C3.06395 3.72824 2.4328 4.28637 1.9901 4.9283C1.54733 5.5703 1.25 6.3585 1.25 7.15035V14.5604C1.25 15.2932 1.48574 16.0887 1.83141 16.7815C2.17686 17.4738 2.67121 18.1417 3.26149 18.5815L7.54091 21.781L7.54409 21.7834C8.40493 22.4199 9.49883 22.7178 10.5588 22.7178C11.6185 22.7178 12.7111 22.42 13.5679 21.7819L13.5698 21.7805L17.8398 18.5805C17.8565 18.568 17.8727 18.5548 17.8883 18.5409C17.9229 18.5101 17.9588 18.4801 18.0052 18.4415C18.0488 18.4051 18.1029 18.3601 18.1583 18.3109C18.391 18.104 18.4717 17.7749 18.361 17.4838C18.2504 17.1928 17.9714 17.0004 17.66 17.0004H11.74C10.5614 17.0004 10.1185 16.8348 9.91328 16.633C9.71162 16.4348 9.54515 16.0092 9.53999 14.8587V9.43035C9.53999 8.37768 9.67317 7.92399 9.84995 7.70004C9.99156 7.52063 10.284 7.34397 11.1435 7.29032C11.2369 7.28997 11.3307 7.28764 11.4181 7.28548L11.4323 7.28513C11.534 7.28261 11.6304 7.28035 11.73 7.28035H19.03C19.2603 7.28035 19.4779 7.1745 19.6201 6.99327C19.7623 6.81204 19.8133 6.57553 19.7584 6.35181C19.4577 5.12488 18.4966 3.90785 17.2858 3.44901L12.3147 1.57862Z" fill="black"/>
<path fill-rule="evenodd" clip-rule="evenodd" d="M8.0498 11.2197C8.0498 10.8055 8.38559 10.4697 8.7998 10.4697H21.9998C22.414 10.4697 22.7498 10.8055 22.7498 11.2197C22.7498 11.6339 22.414 11.9697 21.9998 11.9697H8.7998C8.38559 11.9697 8.0498 11.6339 8.0498 11.2197Z" fill="black"/>
<path fill-rule="evenodd" clip-rule="evenodd" d="M11.1555 7.26969C10.2973 7.32812 10.0028 7.50578 9.85976 7.68693C9.68271 7.91124 9.5498 8.36309 9.5498 9.40976V14.8398C9.5498 15.9972 9.71539 16.4245 9.91585 16.6227C10.1194 16.8239 10.5605 16.9897 11.7398 16.9897H19.0598C20.2219 16.9897 20.6684 16.8339 20.8763 16.6395C21.0691 16.4591 21.2395 16.0679 21.2498 14.9663V9.41977C21.2498 8.25673 21.084 7.82988 20.8838 7.63186C20.6795 7.42997 20.2383 7.26493 19.0582 7.25977H11.7398C11.6402 7.25977 11.5438 7.26202 11.442 7.26453L11.4279 7.26488C11.3411 7.26702 11.2481 7.26932 11.1555 7.26969ZM11.4051 5.76498C11.5058 5.7625 11.6194 5.75977 11.7398 5.75977H19.063C20.2317 5.76475 21.2601 5.89466 21.9384 6.56517C22.6206 7.23966 22.7498 8.26281 22.7498 9.41977V14.9765C22.7397 16.0924 22.5953 17.0856 21.9008 17.735C21.2212 18.3706 20.2077 18.4897 19.0598 18.4897H11.7398C10.5691 18.4897 9.5402 18.3606 8.86126 17.6893C8.17922 17.015 8.0498 15.9923 8.0498 14.8398V9.40976C8.0498 8.35643 8.1569 7.42327 8.68235 6.75757C9.2406 6.05032 10.1071 5.83451 11.0813 5.77132C11.0974 5.77027 11.1136 5.76974 11.1298 5.76974C11.2119 5.76974 11.2975 5.76763 11.3983 5.76515L11.4051 5.76498Z" fill="black"/>
<path fill-rule="evenodd" clip-rule="evenodd" d="M10.5703 15.2598C10.5703 14.8456 10.9061 14.5098 11.3203 14.5098H12.6503C13.0645 14.5098 13.4003 14.8456 13.4003 15.2598C13.4003 15.674 13.0645 16.0098 12.6503 16.0098H11.3203C10.9061 16.0098 10.5703 15.674 10.5703 15.2598Z" fill="black"/>
<path fill-rule="evenodd" clip-rule="evenodd" d="M14 15.2598C14 14.8456 14.3358 14.5098 14.75 14.5098H18.02C18.4342 14.5098 18.77 14.8456 18.77 15.2598C18.77 15.674 18.4342 16.0098 18.02 16.0098H14.75C14.3358 16.0098 14 15.674 14 15.2598Z" fill="black"/>
</svg>
