<svg width="24" height="24" viewBox="0 0 24 24" fill="none" xmlns="http://www.w3.org/2000/svg">
<path fill-rule="evenodd" clip-rule="evenodd" d="M10.3332 3.08474C10.3331 3.08478 10.3333 3.0847 10.3332 3.08474L4.75996 5.36602C4.54291 5.45341 4.30507 5.64997 4.11853 5.92746C3.93186 6.20514 3.83984 6.49947 3.83984 6.73028V11.1203C3.83984 15.6605 7.15227 19.9531 11.6882 21.207C11.8884 21.2614 12.1113 21.2614 12.3115 21.207C16.8474 19.9531 20.1599 15.6605 20.1599 11.1203L20.1599 11.1186L20.1699 6.73028C20.1699 6.73003 20.1699 6.73052 20.1699 6.73028C20.1697 6.50227 20.077 6.20806 19.8884 5.92889C19.6997 5.64955 19.4604 5.45194 19.2466 5.36473L13.6765 3.08474C13.6763 3.08466 13.6767 3.08482 13.6765 3.08474C12.6084 2.64912 11.4013 2.64904 10.3332 3.08474ZM9.76651 1.69589C11.1981 1.11179 12.8115 1.11179 14.2432 1.69589L19.8131 3.97583C20.3589 4.19871 20.8152 4.62125 21.1313 5.08917C21.4475 5.5572 21.6699 6.13839 21.6699 6.73028L21.6699 6.73199L21.6599 11.1203C21.6599 11.12 21.6599 11.1206 21.6599 11.1203C21.6594 16.3593 17.8727 21.2267 12.7096 22.6532L12.7072 22.6539C12.248 22.7791 11.7517 22.7791 11.2925 22.6539L11.2901 22.6532C6.12672 21.2266 2.33984 16.3596 2.33984 11.1203V6.73028C2.33984 6.14109 2.55784 5.56042 2.87367 5.0906C3.18922 4.62121 3.6456 4.19828 4.19756 3.97544L9.76651 1.69589Z" fill="black"/>
<path fill-rule="evenodd" clip-rule="evenodd" d="M12 9.25C11.3096 9.25 10.75 9.80964 10.75 10.5C10.75 11.1904 11.3096 11.75 12 11.75C12.6904 11.75 13.25 11.1904 13.25 10.5C13.25 9.80964 12.6904 9.25 12 9.25ZM9.25 10.5C9.25 8.98122 10.4812 7.75 12 7.75C13.5188 7.75 14.75 8.98122 14.75 10.5C14.75 12.0188 13.5188 13.25 12 13.25C10.4812 13.25 9.25 12.0188 9.25 10.5Z" fill="black"/>
<path fill-rule="evenodd" clip-rule="evenodd" d="M12 11.75C12.4142 11.75 12.75 12.0858 12.75 12.5V15.5C12.75 15.9142 12.4142 16.25 12 16.25C11.5858 16.25 11.25 15.9142 11.25 15.5V12.5C11.25 12.0858 11.5858 11.75 12 11.75Z" fill="black"/>
</svg>
