<svg width="24" height="24" viewBox="0 0 24 24" fill="none" xmlns="http://www.w3.org/2000/svg">
<path d="M17.7021 13C18.1112 13 18.4432 13.332 18.4434 13.7412C18.4434 14.1506 18.1113 14.4824 17.7021 14.4824H15.5322L19.2236 18.168C19.2491 18.1934 19.271 18.2211 19.292 18.249L21.5186 20.4717V18.2959C21.5186 17.8866 21.8497 17.5549 22.2588 17.5547C22.668 17.5547 23 17.8865 23 18.2959V22.2588L22.9961 22.335C22.9954 22.3415 22.994 22.348 22.9932 22.3545C22.992 22.3637 22.9898 22.3727 22.9883 22.3818C22.9855 22.3987 22.9815 22.4152 22.9775 22.4316C22.9693 22.4658 22.9591 22.4989 22.9463 22.5312C22.9434 22.5385 22.9406 22.5456 22.9375 22.5527C22.9027 22.633 22.8543 22.7062 22.7939 22.7695C22.7837 22.7802 22.7725 22.7897 22.7617 22.7998C22.7406 22.8195 22.7188 22.8383 22.6953 22.8555C22.6836 22.8641 22.6714 22.872 22.6592 22.8799C22.6279 22.9001 22.5952 22.9181 22.5605 22.9336C22.5552 22.936 22.5503 22.9392 22.5449 22.9414L22.543 22.9434C22.5009 22.9608 22.4576 22.9731 22.4141 22.9824C22.3913 22.9873 22.3682 22.9914 22.3447 22.9941C22.3324 22.9956 22.32 22.9963 22.3076 22.9971C22.2916 22.9981 22.2751 23 22.2588 23H18.2979C17.8888 23 17.5568 22.668 17.5566 22.2588C17.5566 21.8494 17.8887 21.5176 18.2979 21.5176H20.4678L16.7764 17.832C16.7506 17.8063 16.7282 17.7783 16.707 17.75L14.4814 15.5283V17.7041C14.4814 18.1134 14.1503 18.4451 13.7412 18.4453C13.332 18.4453 13 18.1135 13 17.7041V13.7412C13 13.7085 13.0017 13.6762 13.0059 13.6445C13.0071 13.6353 13.0092 13.6263 13.0107 13.6172C13.0136 13.6003 13.0175 13.5838 13.0215 13.5674C13.0297 13.5333 13.0399 13.5 13.0527 13.4678C13.0556 13.4606 13.0584 13.4534 13.0615 13.4463C13.0963 13.3661 13.1448 13.2927 13.2051 13.2295C13.2153 13.2188 13.2265 13.2093 13.2373 13.1992C13.2589 13.1791 13.2816 13.1601 13.3057 13.1426C13.3168 13.1344 13.3282 13.1267 13.3398 13.1191C13.3759 13.0959 13.4137 13.0746 13.4541 13.0576L13.5625 13.0215C13.5699 13.0196 13.5775 13.0182 13.585 13.0166C13.6077 13.0117 13.6308 13.0076 13.6543 13.0049C13.6666 13.0034 13.679 13.0028 13.6914 13.002C13.7078 13.0009 13.7246 13 13.7412 13H17.7021ZM1.75 14C2.16421 14 2.5 14.3358 2.5 14.75V17.25C2.5 19.3258 4.17421 21 6.25 21H8.75C9.16421 21 9.5 21.3358 9.5 21.75C9.5 22.1642 9.16421 22.5 8.75 22.5H6.25C3.34579 22.5 1 20.1542 1 17.25V14.75C1 14.3358 1.33579 14 1.75 14ZM8.75 1C9.16421 1 9.5 1.33579 9.5 1.75C9.5 2.16421 9.16421 2.5 8.75 2.5H6.25C4.17421 2.5 2.5 4.17421 2.5 6.25V8.75C2.5 9.16421 2.16421 9.5 1.75 9.5C1.33579 9.5 1 9.16421 1 8.75V6.25C1 3.34579 3.34579 1 6.25 1H8.75ZM17.25 1C20.1542 1 22.5 3.34579 22.5 6.25V8.75C22.5 9.16421 22.1642 9.5 21.75 9.5C21.3358 9.5 21 9.16421 21 8.75V6.25C21 4.17421 19.3258 2.5 17.25 2.5H14.75C14.3358 2.5 14 2.16421 14 1.75C14 1.33579 14.3358 1 14.75 1H17.25Z" fill="black"/>
</svg>
