<svg width="24" height="24" viewBox="0 0 24 24" fill="none" xmlns="http://www.w3.org/2000/svg">
<path fill-rule="evenodd" clip-rule="evenodd" d="M3.09467 3.09467C4.42914 1.7602 6.42603 1.25 9 1.25H15C17.574 1.25 19.5709 1.7602 20.9053 3.09467C22.2398 4.42914 22.75 6.42603 22.75 9V15C22.75 17.574 22.2398 19.5709 20.9053 20.9053C19.5709 22.2398 17.574 22.75 15 22.75H9C6.42603 22.75 4.42914 22.2398 3.09467 20.9053C1.7602 19.5709 1.25 17.574 1.25 15V9C1.25 6.42603 1.7602 4.42914 3.09467 3.09467ZM4.15533 4.15533C3.2398 5.07086 2.75 6.57397 2.75 9V15C2.75 17.426 3.2398 18.9291 4.15533 19.8447C5.07086 20.7602 6.57397 21.25 9 21.25H15C17.426 21.25 18.9291 20.7602 19.8447 19.8447C20.7602 18.9291 21.25 17.426 21.25 15V9C21.25 6.57397 20.7602 5.07086 19.8447 4.15533C18.9291 3.2398 17.426 2.75 15 2.75H9C6.57397 2.75 5.07086 3.2398 4.15533 4.15533Z" fill="black"/>
<path fill-rule="evenodd" clip-rule="evenodd" d="M9.83984 7.67969C9.83984 7.26547 10.1756 6.92969 10.5898 6.92969H14.8298C15.2441 6.92969 15.5798 7.26547 15.5798 7.67969V11.9297C15.5798 12.3439 15.2441 12.6797 14.8298 12.6797C14.4156 12.6797 14.0798 12.3439 14.0798 11.9297V8.42969H10.5898C10.1756 8.42969 9.83984 8.0939 9.83984 7.67969Z" fill="black"/>
<path fill-rule="evenodd" clip-rule="evenodd" d="M15.3603 7.14936C15.6531 7.44225 15.6531 7.91712 15.3603 8.21002L9.70025 13.87C9.40736 14.1629 8.93249 14.1629 8.63959 13.87C8.3467 13.5771 8.3467 13.1023 8.63959 12.8094L14.2996 7.14936C14.5925 6.85646 15.0674 6.85646 15.3603 7.14936Z" fill="black"/>
<path fill-rule="evenodd" clip-rule="evenodd" d="M5.28887 16.2723C5.42016 15.8794 5.84507 15.6674 6.23792 15.7986C9.97364 17.0471 14.0268 17.0471 17.7625 15.7986C18.1553 15.6674 18.5802 15.8794 18.7115 16.2723C18.8428 16.6651 18.6308 17.09 18.2379 17.2213C14.1936 18.5729 9.80677 18.5729 5.76248 17.2213C5.36963 17.09 5.15759 16.6651 5.28887 16.2723Z" fill="black"/>
</svg>
