<svg width="24" height="24" viewBox="0 0 24 24" fill="none" xmlns="http://www.w3.org/2000/svg">
<path fill-rule="evenodd" clip-rule="evenodd" d="M3.09467 3.09467C4.42914 1.7602 6.42603 1.25 9 1.25H15C17.574 1.25 19.5709 1.7602 20.9053 3.09467C22.2398 4.42914 22.75 6.42603 22.75 9V15C22.75 17.574 22.2398 19.5709 20.9053 20.9053C19.5709 22.2398 17.574 22.75 15 22.75H9C6.42603 22.75 4.42914 22.2398 3.09467 20.9053C1.7602 19.5709 1.25 17.574 1.25 15V9C1.25 6.42603 1.7602 4.42914 3.09467 3.09467ZM4.15533 4.15533C3.2398 5.07086 2.75 6.57397 2.75 9V15C2.75 17.426 3.2398 18.9291 4.15533 19.8447C5.07086 20.7602 6.57397 21.25 9 21.25H15C17.426 21.25 18.9291 20.7602 19.8447 19.8447C20.7602 18.9291 21.25 17.426 21.25 15V9C21.25 6.57397 20.7602 5.07086 19.8447 4.15533C18.9291 3.2398 17.426 2.75 15 2.75H9C6.57397 2.75 5.07086 3.2398 4.15533 4.15533Z" fill="black"/>
<path fill-rule="evenodd" clip-rule="evenodd" d="M15.5703 13.8496C15.9845 13.8496 16.3203 14.1854 16.3203 14.5996V18.4996C16.3203 18.9138 15.9845 19.2496 15.5703 19.2496C15.1561 19.2496 14.8203 18.9138 14.8203 18.4996V14.5996C14.8203 14.1854 15.1561 13.8496 15.5703 13.8496Z" fill="black"/>
<path fill-rule="evenodd" clip-rule="evenodd" d="M15.5703 4.75C15.9845 4.75 16.3203 5.08579 16.3203 5.5V7.45C16.3203 7.86421 15.9845 8.2 15.5703 8.2C15.1561 8.2 14.8203 7.86421 14.8203 7.45V5.5C14.8203 5.08579 15.1561 4.75 15.5703 4.75Z" fill="black"/>
<path fill-rule="evenodd" clip-rule="evenodd" d="M15.5703 8.2C14.5486 8.2 13.7197 9.02847 13.7197 10.0502C13.7197 11.0719 14.548 11.9002 15.5697 11.9002C16.5915 11.9002 17.4197 11.0719 17.4197 10.0502C17.4197 9.02847 16.592 8.2 15.5703 8.2ZM12.2197 10.0502C12.2197 8.20004 13.7196 6.7002 15.5697 6.7002C17.4199 6.7002 18.9197 8.20004 18.9197 10.0502C18.9197 11.9004 17.4199 13.4002 15.5697 13.4002C13.7196 13.4002 12.2197 11.9003 12.2197 10.0502Z" fill="black"/>
<path fill-rule="evenodd" clip-rule="evenodd" d="M8.42969 15.7998C8.8439 15.7998 9.17969 16.1356 9.17969 16.5498V18.4998C9.17969 18.914 8.8439 19.2498 8.42969 19.2498C8.01547 19.2498 7.67969 18.914 7.67969 18.4998V16.5498C7.67969 16.1356 8.01547 15.7998 8.42969 15.7998Z" fill="black"/>
<path fill-rule="evenodd" clip-rule="evenodd" d="M8.42969 4.75C8.8439 4.75 9.17969 5.08579 9.17969 5.5V9.4C9.17969 9.81421 8.8439 10.15 8.42969 10.15C8.01547 10.15 7.67969 9.81421 7.67969 9.4V5.5C7.67969 5.08579 8.01547 4.75 8.42969 4.75Z" fill="black"/>
<path fill-rule="evenodd" clip-rule="evenodd" d="M8.43008 12.0996C7.40835 12.0996 6.58008 12.9279 6.58008 13.9496C6.58008 14.9713 7.40796 15.7998 8.42969 15.7998C9.45141 15.7998 10.2801 14.9713 10.2801 13.9496C10.2801 12.9279 9.45181 12.0996 8.43008 12.0996ZM5.08008 13.9496C5.08008 12.0995 6.57993 10.5996 8.43008 10.5996C10.2802 10.5996 11.7801 12.0995 11.7801 13.9496C11.7801 15.7998 10.2802 17.2996 8.43008 17.2996C6.57993 17.2996 5.08008 15.7998 5.08008 13.9496Z" fill="black"/>
</svg>
