<svg width="24" height="24" viewBox="0 0 24 24" fill="none" xmlns="http://www.w3.org/2000/svg">
<path fill-rule="evenodd" clip-rule="evenodd" d="M16.1237 11.9997C16.1237 14.2773 14.2773 16.1237 11.9997 16.1237C9.72212 16.1237 7.87576 14.2773 7.87576 11.9997C7.87576 9.72212 9.72212 7.87576 11.9997 7.87576C14.2773 7.87576 16.1237 9.72212 16.1237 11.9997ZM14.6237 11.9997C14.6237 13.4489 13.4489 14.6237 11.9997 14.6237C10.5506 14.6237 9.37576 13.4489 9.37576 11.9997C9.37576 10.5506 10.5506 9.37576 11.9997 9.37576C13.4489 9.37576 14.6237 10.5506 14.6237 11.9997Z" fill="black"/>
<path fill-rule="evenodd" clip-rule="evenodd" d="M9.85713 2.47396C10.6098 0.508678 13.3902 0.508678 14.1429 2.47396C14.6135 3.70279 16.019 4.28496 17.2207 3.74883C19.1426 2.8914 21.1086 4.85743 20.2512 6.77933C19.7151 7.98103 20.2972 9.3865 21.5261 9.85713C23.4914 10.6098 23.4914 13.3902 21.5261 14.1429C20.2972 14.6135 19.7151 16.019 20.2512 17.2207C21.1086 19.1426 19.1426 21.1086 17.2207 20.2512C16.019 19.7151 14.6135 20.2972 14.1429 21.5261C13.3902 23.4914 10.6098 23.4914 9.85713 21.5261C9.3865 20.2972 7.98103 19.7151 6.77933 20.2512C4.85743 21.1086 2.8914 19.1426 3.74883 17.2207C4.28496 16.019 3.70279 14.6135 2.47396 14.1429C0.508678 13.3902 0.508679 10.6098 2.47396 9.85713C3.70279 9.3865 4.28496 7.98103 3.74883 6.77933C2.8914 4.85743 4.85743 2.8914 6.77933 3.74883C7.98103 4.28496 9.3865 3.70279 9.85713 2.47396ZM6.16818 5.11869C8.15542 6.00527 10.4796 5.04255 11.2579 3.01045C11.5186 2.32985 12.4815 2.32985 12.7421 3.01045C13.5204 5.04255 15.8446 6.00527 17.8319 5.11869C18.4974 4.82175 19.1783 5.50261 18.8814 6.16818C17.9948 8.15542 18.9575 10.4796 20.9896 11.2579C21.6702 11.5186 21.6702 12.4815 20.9896 12.7421C18.9575 13.5204 17.9948 15.8446 18.8814 17.8319C19.1783 18.4974 18.4974 19.1783 17.8319 18.8814C15.8446 17.9948 13.5204 18.9575 12.7421 20.9896C12.4815 21.6702 11.5186 21.6702 11.2579 20.9896C10.4796 18.9575 8.15542 17.9948 6.16818 18.8814C5.50261 19.1783 4.82175 18.4974 5.11869 17.8319C6.00527 15.8446 5.04255 13.5204 3.01045 12.7421C2.32985 12.4815 2.32985 11.5186 3.01045 11.2579C5.04255 10.4796 6.00527 8.15542 5.11869 6.16818C4.82175 5.50261 5.50261 4.82175 6.16818 5.11869Z" fill="black"/>
<path fill-rule="evenodd" clip-rule="evenodd" d="M16.1237 11.9997C16.1237 14.2773 14.2773 16.1237 11.9997 16.1237C9.72212 16.1237 7.87576 14.2773 7.87576 11.9997C7.87576 9.72212 9.72212 7.87576 11.9997 7.87576C14.2773 7.87576 16.1237 9.72212 16.1237 11.9997ZM14.6237 11.9997C14.6237 13.4489 13.4489 14.6237 11.9997 14.6237C10.5506 14.6237 9.37576 13.4489 9.37576 11.9997C9.37576 10.5506 10.5506 9.37576 11.9997 9.37576C13.4489 9.37576 14.6237 10.5506 14.6237 11.9997Z" fill="black"/>
<path fill-rule="evenodd" clip-rule="evenodd" d="M9.85713 2.47396C10.6098 0.508678 13.3902 0.508678 14.1429 2.47396C14.6135 3.70279 16.019 4.28496 17.2207 3.74883C19.1426 2.8914 21.1086 4.85743 20.2512 6.77933C19.7151 7.98103 20.2972 9.3865 21.5261 9.85713C23.4914 10.6098 23.4914 13.3902 21.5261 14.1429C20.2972 14.6135 19.7151 16.019 20.2512 17.2207C21.1086 19.1426 19.1426 21.1086 17.2207 20.2512C16.019 19.7151 14.6135 20.2972 14.1429 21.5261C13.3902 23.4914 10.6098 23.4914 9.85713 21.5261C9.3865 20.2972 7.98103 19.7151 6.77933 20.2512C4.85743 21.1086 2.8914 19.1426 3.74883 17.2207C4.28496 16.019 3.70279 14.6135 2.47396 14.1429C0.508678 13.3902 0.508679 10.6098 2.47396 9.85713C3.70279 9.3865 4.28496 7.98103 3.74883 6.77933C2.8914 4.85743 4.85743 2.8914 6.77933 3.74883C7.98103 4.28496 9.3865 3.70279 9.85713 2.47396ZM6.16818 5.11869C8.15542 6.00527 10.4796 5.04255 11.2579 3.01045C11.5186 2.32985 12.4815 2.32985 12.7421 3.01045C13.5204 5.04255 15.8446 6.00527 17.8319 5.11869C18.4974 4.82175 19.1783 5.50261 18.8814 6.16818C17.9948 8.15542 18.9575 10.4796 20.9896 11.2579C21.6702 11.5186 21.6702 12.4815 20.9896 12.7421C18.9575 13.5204 17.9948 15.8446 18.8814 17.8319C19.1783 18.4974 18.4974 19.1783 17.8319 18.8814C15.8446 17.9948 13.5204 18.9575 12.7421 20.9896C12.4815 21.6702 11.5186 21.6702 11.2579 20.9896C10.4796 18.9575 8.15542 17.9948 6.16818 18.8814C5.50261 19.1783 4.82175 18.4974 5.11869 17.8319C6.00527 15.8446 5.04255 13.5204 3.01045 12.7421C2.32985 12.4815 2.32985 11.5186 3.01045 11.2579C5.04255 10.4796 6.00527 8.15542 5.11869 6.16818C4.82175 5.50261 5.50261 4.82175 6.16818 5.11869Z" fill="black"/>
</svg>
