<svg width="24" height="24" viewBox="0 0 24 24" fill="none" xmlns="http://www.w3.org/2000/svg">
<path fill-rule="evenodd" clip-rule="evenodd" d="M13.877 1.82196L13.8789 1.82309L19.3754 5.00107C19.3905 5.00977 19.4052 5.01899 19.4196 5.02872L19.4439 5.04509C19.9233 5.36867 20.3182 5.63522 20.622 5.87591C20.9359 6.12459 21.2064 6.38617 21.3993 6.72002C21.5966 7.06136 21.6779 7.41689 21.7152 7.79602C21.75 8.15079 21.75 8.57778 21.75 9.07594V14.9248C21.75 15.4229 21.75 15.8499 21.7152 16.2047C21.6779 16.5838 21.5966 16.9393 21.3993 17.2807C21.2064 17.6145 20.9359 17.8761 20.622 18.1248C20.3182 18.3655 19.9233 18.632 19.4439 18.9556L19.4196 18.972C19.4052 18.9817 19.3905 18.9909 19.3754 18.9996L13.8789 22.1776L13.8771 22.1787C13.3243 22.5017 12.643 22.6404 12.0038 22.6404C11.3633 22.6404 10.6806 22.5012 10.1245 22.1796L4.6246 18.9996C4.60955 18.9909 4.59481 18.9817 4.5804 18.972L4.55605 18.9556C4.07673 18.632 3.68174 18.3654 3.37782 18.1245C3.06369 17.8754 2.79314 17.6134 2.60021 17.2786C2.4031 16.9366 2.32203 16.5803 2.28482 16.2001C2.24997 15.8441 2.24998 15.4154 2.25 14.9147V9.07594C2.24998 8.57778 2.24997 8.15079 2.28485 7.79602C2.32213 7.41689 2.40337 7.06136 2.60068 6.72002C2.79365 6.38617 3.06413 6.12459 3.37802 5.87591C3.68185 5.63522 4.07675 5.36866 4.55615 5.04508L4.5804 5.02872C4.59481 5.01899 4.60955 5.00977 4.6246 5.00107L10.1245 1.8211C10.6806 1.49952 11.3633 1.36035 12.0038 1.36035C12.643 1.36035 13.3242 1.49901 13.877 1.82196ZM12.0038 2.86035C11.5567 2.86035 11.1494 2.96121 10.8755 3.1196L5.39799 6.28658C4.90011 6.62267 4.55944 6.85364 4.30948 7.05166C4.06088 7.24861 3.95635 7.37203 3.89933 7.47068C3.84664 7.56184 3.80287 7.68631 3.77765 7.94281C3.75084 8.21552 3.75 8.56828 3.75 9.11035V14.8804C3.75 15.4249 3.75083 15.7797 3.77768 16.054C3.80297 16.3123 3.8469 16.4378 3.8998 16.5296C3.95687 16.6286 4.06131 16.7521 4.30968 16.949C4.55953 17.1471 4.90008 17.378 5.39799 17.7141L10.8754 20.8811C11.1493 21.0395 11.5567 21.1404 12.0038 21.1404C12.4513 21.1404 12.8542 21.0393 13.1211 20.8831L13.1246 20.8811L18.602 17.7141C19.0999 17.378 19.4406 17.1471 19.6905 16.949C19.9391 16.7521 20.0436 16.6287 20.1007 16.53C20.1534 16.4389 20.1971 16.3144 20.2224 16.0579C20.2492 15.7852 20.25 15.4324 20.25 14.8904V9.11035C20.25 8.56828 20.2492 8.21552 20.2224 7.94281C20.1971 7.68631 20.1534 7.56184 20.1007 7.47068C20.0436 7.37203 19.9391 7.24861 19.6905 7.05166C19.4406 6.85364 19.0999 6.62267 18.602 6.28658L13.1211 3.11762C12.8542 2.96138 12.4513 2.86035 12.0038 2.86035Z" fill="black"/>
<path fill-rule="evenodd" clip-rule="evenodd" d="M12 9.75C10.7574 9.75 9.75 10.7574 9.75 12C9.75 13.2426 10.7574 14.25 12 14.25C13.2426 14.25 14.25 13.2426 14.25 12C14.25 10.7574 13.2426 9.75 12 9.75ZM8.25 12C8.25 9.92893 9.92893 8.25 12 8.25C14.0711 8.25 15.75 9.92893 15.75 12C15.75 14.0711 14.0711 15.75 12 15.75C9.92893 15.75 8.25 14.0711 8.25 12Z" fill="black"/>
</svg>
