<svg width="24" height="24" viewBox="0 0 24 24" fill="none" xmlns="http://www.w3.org/2000/svg">
<path fill-rule="evenodd" clip-rule="evenodd" d="M7.46623 3.60166C7.46614 3.60183 7.46633 3.60148 7.46623 3.60166L2.95678 11.8107C2.35272 12.909 3.14782 14.2495 4.39949 14.2495H13.4295C14.6812 14.2495 15.4764 12.9092 14.8723 11.8109L12.5428 7.57172L10.3528 3.60172C9.72805 2.46895 8.09128 2.46924 7.46623 3.60166ZM11.6662 2.87725C10.4711 0.710187 7.34792 0.710187 6.15275 2.87725L1.64233 11.088C1.64229 11.0881 1.64237 11.088 1.64233 11.088C0.486641 13.1897 2.01126 15.7495 4.39949 15.7495H13.4295C15.8177 15.7495 17.3424 13.19 16.1868 11.0884C16.1868 11.0883 16.1869 11.0885 16.1868 11.0884L13.8567 6.84815L11.6662 2.87725Z" fill="black"/>
<path fill-rule="evenodd" clip-rule="evenodd" d="M15.4519 9.75019L16.1868 11.0884C16.1868 11.0883 16.1869 11.0885 16.1868 11.0884C17.3424 13.19 15.8177 15.7495 13.4295 15.7495L9.75534 15.75C9.88621 18.8098 12.408 21.25 15.5 21.25C18.6758 21.25 21.25 18.6758 21.25 15.5C21.25 12.3242 18.6758 9.75 15.5 9.75C15.4839 9.75 15.4679 9.75006 15.4519 9.75019ZM14.1029 8.38456C14.5544 8.29426 15.0239 8.25 15.5 8.25C19.5042 8.25 22.75 11.4958 22.75 15.5C22.75 19.5042 19.5042 22.75 15.5 22.75C11.4958 22.75 8.25 19.5042 8.25 15.5C8.25 15.3161 8.26021 15.1435 8.26944 14.9873C8.27007 14.9768 8.27068 14.9663 8.27129 14.956C8.29461 14.5595 8.62289 14.25 9.02 14.25L13.4295 14.2495C14.6812 14.2495 15.4764 12.9092 14.8723 11.8109L13.5927 9.48111C13.4777 9.27176 13.4692 9.02014 13.57 8.80358C13.6708 8.58702 13.8687 8.4314 14.1029 8.38456Z" fill="black"/>
</svg>
