<svg width="24" height="24" viewBox="0 0 24 24" fill="none" xmlns="http://www.w3.org/2000/svg">
<path fill-rule="evenodd" clip-rule="evenodd" d="M12.0027 1.24805C12.6109 1.24805 13.2561 1.33226 13.7871 1.52594L13.7934 1.52821L18.7828 3.39805C18.7828 3.39803 18.7829 3.39807 18.7828 3.39805C19.5298 3.67739 20.1665 4.23814 20.6132 4.88386C21.06 5.52971 21.3602 6.32322 21.3602 7.12055V14.5505C21.3602 15.2895 21.1213 16.0883 20.7714 16.7838C20.4214 17.4796 19.9221 18.1481 19.3291 18.5913L15.0308 21.8C15.0304 21.8004 15.03 21.8007 15.0296 21.801C14.1719 22.4453 13.0734 22.7455 12.0102 22.7455C10.9469 22.7455 9.84852 22.4453 8.99083 21.8011C8.99038 21.8007 8.98993 21.8004 8.98948 21.8L4.6915 18.5916C4.09851 18.1484 3.59887 17.4796 3.24889 16.7838C2.89905 16.0883 2.66016 15.2895 2.66016 14.5505V7.12055C2.66016 6.3271 2.9611 5.53586 3.40757 4.89195C3.85394 4.24817 4.49005 3.6878 5.23654 3.4084C5.23685 3.40829 5.23717 3.40817 5.23748 3.40805L10.2257 1.52871L10.2277 1.52795C10.7524 1.33201 11.3953 1.24805 12.0027 1.24805ZM10.7535 2.93278C10.7532 2.9329 10.7529 2.93302 10.7526 2.93314L5.76283 4.81305C5.35973 4.96377 4.95118 5.2982 4.64025 5.74664C4.32921 6.19523 4.16016 6.69399 4.16016 7.12055V14.5505C4.16016 14.9916 4.31126 15.5578 4.58892 16.1098C4.86636 16.6613 5.23191 17.1227 5.58881 17.3895M5.58881 17.3895L9.89084 20.6011C10.4429 21.0161 11.209 21.2455 12.0102 21.2455C12.8113 21.2455 13.5774 21.0161 14.1295 20.6011L14.1315 20.5995L18.4312 17.3898C18.7882 17.123 19.1539 16.6615 19.4314 16.1098C19.7091 15.5578 19.8602 14.9916 19.8602 14.5505V7.12055C19.8602 6.68788 19.6903 6.18639 19.3796 5.73723C19.0688 5.28799 18.6605 4.95373 18.2575 4.80304L13.2703 2.9341C12.9515 2.81841 12.4929 2.74805 12.0027 2.74805C11.5105 2.74805 11.0589 2.81893 10.7535 2.93278" fill="black"/>
<path fill-rule="evenodd" clip-rule="evenodd" d="M12 9.25C11.3096 9.25 10.75 9.80964 10.75 10.5C10.75 11.1904 11.3096 11.75 12 11.75C12.6904 11.75 13.25 11.1904 13.25 10.5C13.25 9.80964 12.6904 9.25 12 9.25ZM9.25 10.5C9.25 8.98122 10.4812 7.75 12 7.75C13.5188 7.75 14.75 8.98122 14.75 10.5C14.75 12.0188 13.5188 13.25 12 13.25C10.4812 13.25 9.25 12.0188 9.25 10.5Z" fill="black"/>
<path fill-rule="evenodd" clip-rule="evenodd" d="M12 11.75C12.4142 11.75 12.75 12.0858 12.75 12.5V15.5C12.75 15.9142 12.4142 16.25 12 16.25C11.5858 16.25 11.25 15.9142 11.25 15.5V12.5C11.25 12.0858 11.5858 11.75 12 11.75Z" fill="black"/>
</svg>
