<svg width="24" height="24" viewBox="0 0 24 24" fill="none" xmlns="http://www.w3.org/2000/svg">
<path fill-rule="evenodd" clip-rule="evenodd" d="M20.5999 6.37012C21.0141 6.37012 21.3499 6.7059 21.3499 7.12012V14.5601C21.3499 15.2991 21.111 16.0979 20.7612 16.7934C20.4112 17.4892 19.9119 18.1577 19.3189 18.6009L15.0206 21.8096L15.0195 21.8104C14.1618 22.4548 13.0633 22.7551 11.9999 22.7551C10.9364 22.7551 9.83779 22.4547 8.98002 21.8102L8.97921 21.8096L7.39049 20.6206C7.05887 20.3724 6.99124 19.9023 7.23944 19.5707C7.48763 19.2391 7.95766 19.1715 8.28928 19.4197L9.88057 20.6106C10.4327 21.0257 11.1987 21.2551 11.9999 21.2551C12.8011 21.2551 13.5671 21.0257 14.1192 20.6106L14.1212 20.6091L18.4209 17.3994C18.7779 17.1325 19.1436 16.6711 19.4211 16.1193C19.6988 15.5673 19.8499 15.0012 19.8499 14.5601V7.12012C19.8499 6.7059 20.1857 6.37012 20.5999 6.37012Z" fill="black"/>
<path fill-rule="evenodd" clip-rule="evenodd" d="M12.0102 1.24805C12.6152 1.24805 13.2581 1.33207 13.7826 1.52795L18.7733 3.39824C18.786 3.40297 18.7984 3.40803 18.8108 3.41343C18.9939 3.49355 19.1833 3.5878 19.366 3.69743C19.7212 3.91054 19.8364 4.37123 19.6233 4.72642C19.4102 5.0816 18.9495 5.19678 18.5943 4.98367C18.4821 4.91633 18.3577 4.85325 18.2273 4.79547L13.2577 2.93314C12.9522 2.81909 12.4999 2.74805 12.0102 2.74805C11.5206 2.74805 11.0688 2.81891 10.7633 2.93286L5.76283 4.81304C5.35973 4.96377 4.95118 5.2982 4.64025 5.74664C4.32921 6.19523 4.16016 6.69399 4.16016 7.12055V14.5505C4.16016 14.9916 4.31126 15.5578 4.58892 16.1098C4.86645 16.6615 5.23213 17.123 5.58914 17.3898L5.59016 17.3905L5.79016 17.5405C6.12153 17.7891 6.18868 18.2592 5.94016 18.5905C5.69163 18.9219 5.22153 18.9891 4.89016 18.7405L4.69117 18.5913C4.09829 18.1481 3.59881 17.4795 3.24889 16.7838C2.89905 16.0883 2.66016 15.2895 2.66016 14.5505V7.12055C2.66016 6.3271 2.9611 5.53586 3.40757 4.89195C3.854 4.24809 4.49021 3.68766 5.23682 3.4083L10.2362 1.52853L10.2377 1.52795C10.7622 1.33207 11.4051 1.24805 12.0102 1.24805Z" fill="black"/>
<path fill-rule="evenodd" clip-rule="evenodd" d="M22.5303 1.46967C22.8232 1.76256 22.8232 2.23744 22.5303 2.53033L2.53033 22.5303C2.23744 22.8232 1.76256 22.8232 1.46967 22.5303C1.17678 22.2374 1.17678 21.7626 1.46967 21.4697L21.4697 1.46967C21.7626 1.17678 22.2374 1.17678 22.5303 1.46967Z" fill="black"/>
</svg>
