<svg width="24" height="24" viewBox="0 0 24 24" fill="none" xmlns="http://www.w3.org/2000/svg">
<path fill-rule="evenodd" clip-rule="evenodd" d="M12.0027 1.24805C12.6109 1.24805 13.2561 1.33226 13.7871 1.52594L13.7934 1.52821L18.7828 3.39805C19.5298 3.67739 20.1665 4.23814 20.6132 4.88386C21.06 5.52971 21.3602 6.32322 21.3602 7.12055V14.5505C21.3602 15.2895 21.1213 16.0883 20.7714 16.7838C20.4214 17.4796 19.9221 18.1481 19.3291 18.5913L15.0308 21.8L15.0296 21.801C14.1719 22.4453 13.0734 22.7455 12.0102 22.7455C10.9469 22.7455 9.84852 22.4453 8.99083 21.8011L8.98948 21.8L4.6915 18.5916C4.09851 18.1484 3.59887 17.4796 3.24889 16.7838C2.89905 16.0883 2.66016 15.2895 2.66016 14.5505V7.12055C2.66016 6.3271 2.9611 5.53586 3.40757 4.89195C3.85394 4.24817 4.49005 3.6878 5.23654 3.4084L5.23748 3.40805L10.2257 1.52871L10.2277 1.52795C10.7524 1.33201 11.3953 1.24805 12.0027 1.24805ZM10.7535 2.93278L10.7526 2.93314L5.76283 4.81305C5.35973 4.96377 4.95118 5.2982 4.64025 5.74664C4.32921 6.19523 4.16016 6.69399 4.16016 7.12055V14.5505C4.16016 14.9916 4.31126 15.5578 4.58892 16.1098C4.86636 16.6613 5.23191 17.1227 5.58881 17.3895M5.58881 17.3895L9.89084 20.6011C10.4429 21.0161 11.209 21.2455 12.0102 21.2455C12.8113 21.2455 13.5774 21.0161 14.1295 20.6011L14.1315 20.5995L18.4312 17.3898C18.7882 17.123 19.1539 16.6615 19.4314 16.1098C19.7091 15.5578 19.8602 14.9916 19.8602 14.5505V7.12055C19.8602 6.68788 19.6903 6.18639 19.3796 5.73723C19.0688 5.28799 18.6605 4.95373 18.2575 4.80304L13.2703 2.9341C12.9515 2.81841 12.4929 2.74805 12.0027 2.74805C11.5105 2.74805 11.0589 2.81893 10.7535 2.93278" fill="black"/>
<path fill-rule="evenodd" clip-rule="evenodd" d="M9.37006 8.65912C9.66295 8.36623 10.1378 8.36623 10.4307 8.65912L14.6807 12.9091C14.9736 13.202 14.9736 13.6769 14.6807 13.9698C14.3878 14.2627 13.913 14.2627 13.6201 13.9698L9.37006 9.71978C9.07717 9.42689 9.07717 8.95202 9.37006 8.65912Z" fill="black"/>
<path fill-rule="evenodd" clip-rule="evenodd" d="M14.6299 8.7099C14.9228 9.0028 14.9228 9.47767 14.6299 9.77056L10.3799 14.0206C10.087 14.3135 9.61217 14.3135 9.31928 14.0206C9.02639 13.7277 9.02639 13.2528 9.31928 12.9599L13.5693 8.7099C13.8622 8.41701 14.337 8.41701 14.6299 8.7099Z" fill="black"/>
</svg>
