<svg width="24" height="24" viewBox="0 0 24 24" fill="none" xmlns="http://www.w3.org/2000/svg">
<path fill-rule="evenodd" clip-rule="evenodd" d="M12.0002 1.24805C12.6052 1.24805 13.2481 1.33207 13.7726 1.52795L18.7628 3.39805C19.5098 3.67739 20.1465 4.23814 20.5932 4.88386C21.04 5.52971 21.3402 6.32322 21.3402 7.12055V10.5505C21.3402 10.9648 21.0044 11.3005 20.5902 11.3005C20.1759 11.3005 19.8402 10.9648 19.8402 10.5505V7.12055C19.8402 6.68788 19.6703 6.18639 19.3596 5.73723C19.0488 5.28799 18.6405 4.95373 18.2375 4.80304L13.2477 2.93314C12.9422 2.81909 12.4899 2.74805 12.0002 2.74805C11.5107 2.74805 11.059 2.81888 10.7535 2.93278L10.7526 2.93314L5.76283 4.81305C5.35973 4.96377 4.95118 5.2982 4.64025 5.74664C4.32921 6.19523 4.16016 6.69399 4.16016 7.12055V14.5505C4.16016 14.9916 4.31126 15.5578 4.58892 16.1098C4.86636 16.6613 5.23191 17.1227 5.58881 17.3895M5.58881 17.3895L9.89832 20.6066C10.4403 21.0247 11.1986 21.2505 12.0002 21.2505C12.4144 21.2505 12.7502 21.5863 12.7502 22.0005C12.7502 22.4148 12.4144 22.7505 12.0002 22.7505C10.9438 22.7505 9.84436 22.4574 8.98707 21.7983L4.6915 18.5916C4.09851 18.1484 3.59887 17.4796 3.24889 16.7838C2.89905 16.0883 2.66016 15.2895 2.66016 14.5505V7.12055C2.66016 6.3271 2.9611 5.53586 3.40757 4.89195C3.85394 4.24817 4.49005 3.6878 5.23654 3.4084L5.23748 3.40805L10.2257 1.52871L10.2277 1.52795C10.7522 1.33207 11.3951 1.24805 12.0002 1.24805" fill="black"/>
<path fill-rule="evenodd" clip-rule="evenodd" d="M16 12.75C14.2051 12.75 12.75 14.2051 12.75 16C12.75 17.7949 14.2051 19.25 16 19.25C17.7949 19.25 19.25 17.7949 19.25 16C19.25 14.2051 17.7949 12.75 16 12.75ZM11.25 16C11.25 13.3766 13.3766 11.25 16 11.25C18.6234 11.25 20.75 13.3766 20.75 16C20.75 18.6234 18.6234 20.75 16 20.75C13.3766 20.75 11.25 18.6234 11.25 16Z" fill="black"/>
<path fill-rule="evenodd" clip-rule="evenodd" d="M19.9951 21C19.9951 20.4477 20.4428 20 20.9951 20H21.0041C21.5564 20 22.0041 20.4477 22.0041 21C22.0041 21.5523 21.5564 22 21.0041 22H20.9951C20.4428 22 19.9951 21.5523 19.9951 21Z" fill="black"/>
</svg>
