<svg width="24" height="24" viewBox="0 0 24 24" fill="none" xmlns="http://www.w3.org/2000/svg">
<path fill-rule="evenodd" clip-rule="evenodd" d="M10.7872 10.2864C10.7867 10.2866 10.7862 10.2868 10.7857 10.287L3.85957 13.0655C3.85949 13.0655 3.85965 13.0655 3.85957 13.0655C3.33074 13.2784 2.98069 13.9452 3.10212 14.4984C3.1021 14.4984 3.10214 14.4985 3.10212 14.4984L3.51185 16.3572C3.51181 16.357 3.51189 16.3574 3.51185 16.3572C4.15048 19.2346 6.37242 21.2497 9.61966 21.2497H14.3797C17.6271 21.2497 19.849 19.2348 20.4875 16.3572L20.8971 14.4987C21.0187 13.9456 20.669 13.2788 20.1403 13.0657L18.7205 12.4958L13.2136 10.287C13.2131 10.2868 13.2126 10.2866 13.2121 10.2864C12.4303 9.97743 11.569 9.97743 10.7872 10.2864ZM10.2336 8.89233C11.371 8.44214 12.6284 8.44214 13.7657 8.89233L13.7688 8.89358L20.6991 11.6737C21.91 12.1608 22.6406 13.554 22.3622 14.8207L21.9519 16.6821C21.1703 20.2045 18.3722 22.7497 14.3797 22.7497H9.61966C5.62709 22.7497 2.829 20.2045 2.04747 16.6821L1.63724 14.8211C1.35885 13.5545 2.08877 12.161 3.29973 11.6739L10.2336 8.89233Z" fill="black"/>
<path fill-rule="evenodd" clip-rule="evenodd" d="M12 9.25C12.4142 9.25 12.75 9.58579 12.75 10V22C12.75 22.4142 12.4142 22.75 12 22.75C11.5858 22.75 11.25 22.4142 11.25 22V10C11.25 9.58579 11.5858 9.25 12 9.25Z" fill="black"/>
<path fill-rule="evenodd" clip-rule="evenodd" d="M8 5.75C6.76421 5.75 5.75 6.76421 5.75 8V10.6911L10.2336 8.89233C11.371 8.44214 12.6284 8.44214 13.7657 8.89233L13.7688 8.89358L18.25 10.6911V8C18.25 6.76421 17.2358 5.75 16 5.75H8ZM4.25 8C4.25 5.93579 5.93579 4.25 8 4.25H16C18.0642 4.25 19.75 5.93579 19.75 8V11.8C19.75 12.049 19.6264 12.2817 19.4202 12.4212C19.2139 12.5607 18.9516 12.5885 18.7205 12.4958L13.2136 10.287C13.2131 10.2868 13.2126 10.2866 13.2121 10.2864C12.4303 9.97743 11.569 9.97743 10.7872 10.2864L5.27919 12.4961C5.0481 12.5888 4.78607 12.5607 4.57982 12.4212C4.37357 12.2817 4.25 12.049 4.25 11.8V8Z" fill="black"/>
<path fill-rule="evenodd" clip-rule="evenodd" d="M10.5 2.75C10.3642 2.75 10.25 2.86421 10.25 3V4.25H13.75V3C13.75 2.86421 13.6358 2.75 13.5 2.75H10.5ZM8.75 3C8.75 2.03579 9.53579 1.25 10.5 1.25H13.5C14.4642 1.25 15.25 2.03579 15.25 3V5C15.25 5.41421 14.9142 5.75 14.5 5.75H9.5C9.08579 5.75 8.75 5.41421 8.75 5V3Z" fill="black"/>
</svg>
