<svg width="24" height="24" viewBox="0 0 24 24" fill="none" xmlns="http://www.w3.org/2000/svg">
<path fill-rule="evenodd" clip-rule="evenodd" d="M21.0096 10.4697C21.4238 10.4697 21.7596 10.8055 21.7596 11.2197V15.7097C21.7596 18.0282 21.3021 19.8476 20.0828 21.0685C18.8632 22.2896 17.0435 22.7498 14.7196 22.7498H9.32962C8.72488 22.7498 8.15789 22.7186 7.62352 22.6422C7.21347 22.5837 6.92855 22.2038 6.98713 21.7937C7.0457 21.3837 7.4256 21.0987 7.83565 21.1573C8.28128 21.221 8.77436 21.2498 9.32962 21.2498H14.7196C16.8957 21.2498 18.221 20.8099 19.0214 20.0085C19.8221 19.2069 20.2596 17.8813 20.2596 15.7097V11.2197C20.2596 10.8055 20.5954 10.4697 21.0096 10.4697Z" fill="black"/>
<path fill-rule="evenodd" clip-rule="evenodd" d="M3.04004 10.4697C3.45425 10.4697 3.79004 10.8055 3.79004 11.2197V15.5198C3.79004 15.934 3.45425 16.2698 3.04004 16.2698C2.62583 16.2698 2.29004 15.934 2.29004 15.5198V11.2197C2.29004 10.8055 2.62583 10.4697 3.04004 10.4697Z" fill="black"/>
<path fill-rule="evenodd" clip-rule="evenodd" d="M8.94371 1.92515C8.98215 1.54185 9.30473 1.25 9.68996 1.25H14.3599C14.7452 1.25 15.0678 1.54184 15.1062 1.92515L15.7764 8.60664C15.9996 10.876 14.3049 12.75 12.03 12.75C9.75846 12.75 8.05003 10.8794 8.27358 8.60664L8.94371 1.92515ZM10.3685 2.75L9.76638 8.75347C9.76635 8.7537 9.7664 8.75324 9.76638 8.75347C9.63034 10.1404 10.6417 11.25 12.03 11.25C13.4148 11.25 14.42 10.1445 14.2837 8.75423C14.2836 8.75397 14.2837 8.75448 14.2837 8.75423L13.6814 2.75H10.3685Z" fill="black"/>
<path fill-rule="evenodd" clip-rule="evenodd" d="M13.7643 1.49671C13.9064 1.33962 14.1084 1.25 14.3203 1.25H17.3703C18.7571 1.25 19.891 1.51137 20.7167 2.27405C21.5325 3.02762 21.9056 4.14206 22.0932 5.49711C22.0944 5.50605 22.0955 5.51502 22.0964 5.524L22.3766 8.27572C22.6204 10.7256 20.7954 12.75 18.3303 12.75C16.2923 12.75 14.4957 11.1166 14.2748 9.09135L14.274 9.08454L13.574 2.07452C13.553 1.86369 13.6221 1.6538 13.7643 1.49671ZM15.1489 2.75L15.7663 8.93184C15.9069 10.2052 17.0694 11.25 18.3303 11.25C19.905 11.25 21.0399 9.99477 20.8841 8.42501C20.884 8.42475 20.8841 8.42527 20.8841 8.42501L20.6055 5.68964C20.4328 4.45304 20.1266 3.77094 19.6989 3.37592C19.2796 2.98862 18.6035 2.75 17.3703 2.75H15.1489Z" fill="black"/>
<path fill-rule="evenodd" clip-rule="evenodd" d="M3.2735 2.27405C4.09919 1.51137 5.23306 1.25 6.61988 1.25H9.66987C9.88176 1.25 10.0838 1.33963 10.226 1.49674C10.3681 1.65386 10.4372 1.86378 10.4161 2.07462L9.71635 9.0824C9.71632 9.08275 9.71628 9.0831 9.71625 9.08346C9.51818 11.1201 7.7029 12.75 5.66987 12.75C3.20788 12.75 1.36948 10.7287 1.61355 8.27572L1.61373 8.274L1.89376 5.524C1.89467 5.51502 1.89575 5.50605 1.89699 5.49711C2.08461 4.14206 2.45768 3.02762 3.2735 2.27405ZM3.38465 5.68964L3.10618 8.42424C3.10616 8.4245 3.10621 8.42397 3.10618 8.42424C2.95073 9.99091 4.09213 11.25 5.66987 11.25C6.93648 11.25 8.1009 10.2005 8.22336 8.93762L8.22355 8.9357L8.84113 2.75H6.61988C5.3867 2.75 4.71058 2.98862 4.29128 3.37592C3.86363 3.77094 3.55736 4.45304 3.38465 5.68964Z" fill="black"/>
<path fill-rule="evenodd" clip-rule="evenodd" d="M5 15.75C4.42521 15.75 3.88242 15.9036 3.41087 16.1719C3.40374 16.1759 3.39655 16.1799 3.38929 16.1837C3.24571 16.2593 3.10831 16.3506 2.97678 16.459L2.96626 16.4676C2.22108 17.0589 1.75 17.9745 1.75 19C1.75 19.6094 1.92053 20.1834 2.2184 20.6664C2.22367 20.6749 2.22877 20.6836 2.2337 20.6924C2.29433 20.8002 2.37353 20.91 2.46947 21.0219C2.47299 21.026 2.47647 21.0302 2.4799 21.0344C2.48809 21.0427 2.49872 21.0539 2.50962 21.0659C2.52345 21.0812 2.54059 21.1011 2.55912 21.1252C3.14182 21.8115 4.01778 22.25 5 22.25C5.82269 22.25 6.56449 21.9499 7.12828 21.4425C7.13605 21.4355 7.14397 21.4287 7.15202 21.422C7.17979 21.3885 7.21044 21.3574 7.24363 21.3291C7.43823 21.1633 7.61789 20.9419 7.77509 20.6772L7.78152 20.6663C8.07938 20.1833 8.25 19.6094 8.25 19C8.25 18.1507 7.91943 17.3784 7.37713 16.7868L7.37503 16.7845C7.28865 16.6895 7.2152 16.6189 7.14998 16.57C7.13531 16.559 7.12106 16.5474 7.10724 16.5354C6.53997 16.0411 5.81383 15.75 5 15.75ZM2.67969 14.8621C3.36572 14.4741 4.15912 14.25 5 14.25C6.17689 14.25 7.24317 14.6722 8.07311 15.3876C8.2372 15.5139 8.3755 15.6552 8.48392 15.7744C9.261 16.6227 9.75 17.7499 9.75 19C9.75 19.8884 9.50174 20.7325 9.06166 21.4484C8.85102 21.8021 8.58917 22.1408 8.26981 22.4244C8.22143 22.4798 8.1691 22.5298 8.11074 22.5762C7.27719 23.3174 6.18732 23.75 5 23.75C3.55017 23.75 2.25229 23.0955 1.3949 22.0714C1.39329 22.0695 1.39169 22.0676 1.3901 22.0656C1.38191 22.0572 1.37128 22.0461 1.36037 22.0341C1.34694 22.0192 1.3304 22.0001 1.31248 21.9768C1.1778 21.8177 1.04664 21.6392 0.933962 21.4412C0.496613 20.7269 0.25 19.8855 0.25 19C0.25 17.5079 0.936775 16.1655 2.02852 15.2967C2.23223 15.1295 2.44935 14.9843 2.67969 14.8621Z" fill="black"/>
<path fill-rule="evenodd" clip-rule="evenodd" d="M2.75977 18.9805C2.75977 18.5663 3.09555 18.2305 3.50977 18.2305H6.48975C6.90396 18.2305 7.23975 18.5663 7.23975 18.9805C7.23975 19.3947 6.90396 19.7305 6.48975 19.7305H3.50977C3.09555 19.7305 2.75977 19.3947 2.75977 18.9805Z" fill="black"/>
<path fill-rule="evenodd" clip-rule="evenodd" d="M5 16.7695C5.41421 16.7695 5.75 17.1053 5.75 17.5195V20.5095C5.75 20.9237 5.41421 21.2595 5 21.2595C4.58579 21.2595 4.25 20.9237 4.25 20.5095V17.5195C4.25 17.1053 4.58579 16.7695 5 16.7695Z" fill="black"/>
</svg>
