<svg width="24" height="24" viewBox="0 0 24 24" fill="none" xmlns="http://www.w3.org/2000/svg">
<path fill-rule="evenodd" clip-rule="evenodd" d="M12 2.75C10.7026 2.75 9.40044 3.02898 8.28846 3.49231C7.90611 3.65162 7.46701 3.47081 7.30769 3.08846C7.14838 2.70611 7.32919 2.26701 7.71154 2.10769C8.99956 1.57102 10.4974 1.25 12 1.25C17.9142 1.25 22.75 6.08579 22.75 12C22.75 17.9142 17.9142 22.75 12 22.75C6.08579 22.75 1.25 17.9142 1.25 12C1.25 10.4974 1.57102 8.99956 2.10769 7.71154C2.26701 7.32919 2.70611 7.14838 3.08846 7.30769C3.47081 7.46701 3.65162 7.90611 3.49231 8.28846C3.02898 9.40044 2.75 10.7026 2.75 12C2.75 17.0858 6.91421 21.25 12 21.25C17.0858 21.25 21.25 17.0858 21.25 12C21.25 6.91421 17.0858 2.75 12 2.75Z" fill="black"/>
<path fill-rule="evenodd" clip-rule="evenodd" d="M6.84961 11.9998C6.84961 9.28559 9.0854 7.0498 11.7996 7.0498C14.5138 7.0498 16.7496 9.28559 16.7496 11.9998V16.1998C16.7496 16.614 16.4138 16.9498 15.9996 16.9498H11.7996C9.0854 16.9498 6.84961 14.714 6.84961 11.9998ZM11.7996 8.5498C9.91382 8.5498 8.34961 10.114 8.34961 11.9998C8.34961 13.8856 9.91382 15.4498 11.7996 15.4498H15.2496V11.9998C15.2496 10.114 13.6854 8.5498 11.7996 8.5498Z" fill="black"/>
<path fill-rule="evenodd" clip-rule="evenodd" d="M5 4.25C4.58579 4.25 4.25 4.58579 4.25 5C4.25 5.41421 4.58579 5.75 5 5.75C5.41421 5.75 5.75 5.41421 5.75 5C5.75 4.58579 5.41421 4.25 5 4.25ZM2.75 5C2.75 3.75736 3.75736 2.75 5 2.75C6.24264 2.75 7.25 3.75736 7.25 5C7.25 6.24264 6.24264 7.25 5 7.25C3.75736 7.25 2.75 6.24264 2.75 5Z" fill="black"/>
</svg>
