<svg width="24" height="24" viewBox="0 0 24 24" fill="none" xmlns="http://www.w3.org/2000/svg">
<path fill-rule="evenodd" clip-rule="evenodd" d="M3.0644 3.09467C4.39887 1.7602 6.39575 1.25 8.96973 1.25H14.9697C17.5437 1.25 19.5406 1.7602 20.8751 3.09467C22.2095 4.42914 22.7197 6.42603 22.7197 9V15C22.7197 17.574 22.2095 19.5709 20.8751 20.9053C19.5406 22.2398 17.5437 22.75 14.9697 22.75H8.96973C6.39575 22.75 4.39887 22.2398 3.0644 20.9053C1.72993 19.5709 1.21973 17.574 1.21973 15V9C1.21973 6.42603 1.72993 4.42914 3.0644 3.09467ZM4.12506 4.15533C3.20953 5.07086 2.71973 6.57397 2.71973 9V15C2.71973 17.426 3.20953 18.9291 4.12506 19.8447C5.04059 20.7602 6.5437 21.25 8.96973 21.25H14.9697C17.3958 21.25 18.8989 20.7602 19.8144 19.8447C20.7299 18.9291 21.2197 17.426 21.2197 15V9C21.2197 6.57397 20.7299 5.07086 19.8144 4.15533C18.8989 3.2398 17.3958 2.75 14.9697 2.75H8.96973C6.5437 2.75 5.04059 3.2398 4.12506 4.15533Z" fill="black"/>
<path fill-rule="evenodd" clip-rule="evenodd" d="M14.9697 1.25C15.3839 1.25 15.7197 1.58579 15.7197 2V22C15.7197 22.4142 15.3839 22.75 14.9697 22.75C14.5555 22.75 14.2197 22.4142 14.2197 22V2C14.2197 1.58579 14.5555 1.25 14.9697 1.25Z" fill="black"/>
<path fill-rule="evenodd" clip-rule="evenodd" d="M7.4394 8.9101C7.73229 8.61721 8.20716 8.61721 8.50006 8.9101L11.0601 11.4701C11.353 11.763 11.353 12.2379 11.0601 12.5308L8.50006 15.0908C8.20716 15.3837 7.73229 15.3837 7.4394 15.0908C7.1465 14.7979 7.1465 14.323 7.4394 14.0301L9.46907 12.0004L7.4394 9.97076C7.1465 9.67787 7.1465 9.20299 7.4394 8.9101Z" fill="black"/>
</svg>
