<svg width="24" height="24" viewBox="0 0 24 24" fill="none" xmlns="http://www.w3.org/2000/svg">
<path fill-rule="evenodd" clip-rule="evenodd" d="M3.0644 3.09467C4.39887 1.7602 6.39575 1.25 8.96973 1.25H14.9697C17.5437 1.25 19.5406 1.7602 20.8751 3.09467C22.2095 4.42914 22.7197 6.42603 22.7197 9V15C22.7197 17.574 22.2095 19.5709 20.8751 20.9053C19.5406 22.2398 17.5437 22.75 14.9697 22.75H8.96973C6.39575 22.75 4.39887 22.2398 3.0644 20.9053C1.72993 19.5709 1.21973 17.574 1.21973 15V9C1.21973 6.42603 1.72993 4.42914 3.0644 3.09467ZM4.12506 4.15533C3.20953 5.07086 2.71973 6.57397 2.71973 9V15C2.71973 17.426 3.20953 18.9291 4.12506 19.8447C5.04059 20.7602 6.5437 21.25 8.96973 21.25H14.9697C17.3958 21.25 18.8989 20.7602 19.8144 19.8447C20.7299 18.9291 21.2197 17.426 21.2197 15V9C21.2197 6.57397 20.7299 5.07086 19.8144 4.15533C18.8989 3.2398 17.3958 2.75 14.9697 2.75H8.96973C6.5437 2.75 5.04059 3.2398 4.12506 4.15533Z" fill="black"/>
<path fill-rule="evenodd" clip-rule="evenodd" d="M7.96973 1.25C8.38394 1.25 8.71973 1.58579 8.71973 2V22C8.71973 22.4142 8.38394 22.75 7.96973 22.75C7.55551 22.75 7.21973 22.4142 7.21973 22V2C7.21973 1.58579 7.55551 1.25 7.96973 1.25Z" fill="black"/>
<path fill-rule="evenodd" clip-rule="evenodd" d="M15.5005 8.9101C15.7934 9.20299 15.7934 9.67787 15.5005 9.97076L13.4708 12.0004L15.5005 14.0301C15.7934 14.323 15.7934 14.7979 15.5005 15.0908C15.2076 15.3837 14.7327 15.3837 14.4398 15.0908L11.8798 12.5308C11.5869 12.2379 11.5869 11.763 11.8798 11.4701L14.4398 8.9101C14.7327 8.61721 15.2076 8.61721 15.5005 8.9101Z" fill="black"/>
</svg>
