<svg width="24" height="24" viewBox="0 0 24 24" fill="none" xmlns="http://www.w3.org/2000/svg">
<path fill-rule="evenodd" clip-rule="evenodd" d="M3.0644 3.09467C4.39887 1.7602 6.39575 1.25 8.96973 1.25H14.9697C17.5437 1.25 19.5406 1.7602 20.8751 3.09467C22.2095 4.42914 22.7197 6.42603 22.7197 9V15C22.7197 17.574 22.2095 19.5709 20.8751 20.9053C19.5406 22.2398 17.5437 22.75 14.9697 22.75H8.96973C6.39575 22.75 4.39887 22.2398 3.0644 20.9053C1.72993 19.5709 1.21973 17.574 1.21973 15V9C1.21973 6.42603 1.72993 4.42914 3.0644 3.09467ZM4.12506 4.15533C3.20953 5.07086 2.71973 6.57397 2.71973 9V15C2.71973 17.426 3.20953 18.9291 4.12506 19.8447C5.04059 20.7602 6.5437 21.25 8.96973 21.25H14.9697C17.3958 21.25 18.8989 20.7602 19.8144 19.8447C20.7299 18.9291 21.2197 17.426 21.2197 15V9C21.2197 6.57397 20.7299 5.07086 19.8144 4.15533C18.8989 3.2398 17.3958 2.75 14.9697 2.75H8.96973C6.5437 2.75 5.04059 3.2398 4.12506 4.15533Z" fill="black"/>
<path fill-rule="evenodd" clip-rule="evenodd" d="M1.25 8.5C1.25 8.08579 1.58579 7.75 2 7.75H22C22.4142 7.75 22.75 8.08579 22.75 8.5C22.75 8.91421 22.4142 9.25 22 9.25H2C1.58579 9.25 1.25 8.91421 1.25 8.5Z" fill="black"/>
<path fill-rule="evenodd" clip-rule="evenodd" d="M11.4691 12.4101C11.762 12.1172 12.2369 12.1172 12.5298 12.4101L15.0898 14.9701C15.3827 15.263 15.3827 15.7379 15.0898 16.0308C14.7969 16.3237 14.322 16.3237 14.0291 16.0308L11.9995 14.0011L9.96978 16.0308C9.67689 16.3237 9.20202 16.3237 8.90912 16.0308C8.61623 15.7379 8.61623 15.263 8.90912 14.9701L11.4691 12.4101Z" fill="black"/>
</svg>
