<svg width="24" height="24" viewBox="0 0 24 24" fill="none" xmlns="http://www.w3.org/2000/svg">
<path fill-rule="evenodd" clip-rule="evenodd" d="M7.41104 1.78696C7.84347 1.45218 8.38297 1.25 8.9602 1.25H17.2201C18.6016 1.25 19.7201 2.36297 19.7201 3.73999V7.23999C19.7201 8.6242 18.6044 9.73999 17.2201 9.73999H8.9602C8.40749 9.73999 7.85001 9.55666 7.40079 9.19495L5.21328 7.44694C5.21305 7.44676 5.2135 7.44712 5.21328 7.44694C3.95672 6.44672 3.95603 4.54386 5.21256 3.54362C5.21232 3.54382 5.2128 3.54343 5.21256 3.54362L7.41104 1.78696ZM8.3333 2.96996L6.14706 4.71696C5.64454 5.11669 5.64454 5.8733 6.14706 6.27303L6.14836 6.27407L8.33837 8.02407L8.34099 8.02618C8.51152 8.1637 8.73349 8.23999 8.9602 8.23999H17.2201C17.7759 8.23999 18.2201 7.79578 18.2201 7.23999V3.73999C18.2201 3.19701 17.7787 2.75 17.2201 2.75H8.9602C8.73901 2.75 8.52 2.82673 8.3333 2.96996Z" fill="black"/>
<path fill-rule="evenodd" clip-rule="evenodd" d="M6.7998 12.75C6.24121 12.75 5.7998 13.197 5.7998 13.74V17.24C5.7998 17.7958 6.24402 18.24 6.7998 18.24H15.0598C15.2865 18.24 15.5085 18.1637 15.679 18.0262L15.6816 18.0241L17.8716 16.2741L17.873 16.273C18.3755 15.8733 18.3755 15.1167 17.873 14.717L17.8716 14.7159L15.6867 12.97C15.5 12.8267 15.281 12.75 15.0598 12.75H6.7998ZM4.2998 13.74C4.2998 12.363 5.4184 11.25 6.7998 11.25H15.0598C15.637 11.25 16.1765 11.4522 16.609 11.787L16.6181 11.794L18.8067 13.5431C18.807 13.5433 18.8074 13.5435 18.8077 13.5438C20.0639 14.544 20.0639 16.446 18.8076 17.4462C18.8073 17.4465 18.807 17.4467 18.8067 17.4469L16.6207 19.1938C16.6202 19.1942 16.6197 19.1945 16.6193 19.1949C16.17 19.5566 15.6125 19.74 15.0598 19.74H6.7998C5.41559 19.74 4.2998 18.6242 4.2998 17.24V13.74Z" fill="black"/>
<path fill-rule="evenodd" clip-rule="evenodd" d="M12 8.25C12.4142 8.25 12.75 8.58579 12.75 9V12C12.75 12.4142 12.4142 12.75 12 12.75C11.5858 12.75 11.25 12.4142 11.25 12V9C11.25 8.58579 11.5858 8.25 12 8.25Z" fill="black"/>
<path fill-rule="evenodd" clip-rule="evenodd" d="M12 18.25C12.4142 18.25 12.75 18.5858 12.75 19V22C12.75 22.4142 12.4142 22.75 12 22.75C11.5858 22.75 11.25 22.4142 11.25 22V19C11.25 18.5858 11.5858 18.25 12 18.25Z" fill="black"/>
<path fill-rule="evenodd" clip-rule="evenodd" d="M8.25 22C8.25 21.5858 8.58579 21.25 9 21.25H15C15.4142 21.25 15.75 21.5858 15.75 22C15.75 22.4142 15.4142 22.75 15 22.75H9C8.58579 22.75 8.25 22.4142 8.25 22Z" fill="black"/>
</svg>
