<svg width="24" height="24" viewBox="0 0 24 24" fill="none" xmlns="http://www.w3.org/2000/svg">
<path fill-rule="evenodd" clip-rule="evenodd" d="M3.60109 8.01824C3.07981 8.53857 2.75 9.3105 2.75 10.3099V18.0799C2.75 19.0793 3.07981 19.8513 3.60109 20.3716C4.12259 20.8921 4.89489 21.2199 5.89 21.2199H12.11C13.1051 21.2199 13.8774 20.8921 14.3989 20.3716C14.9202 19.8513 15.25 19.0793 15.25 18.0799V12.6899C15.25 11.8593 14.9194 11.0602 14.3302 10.4708C14.33 10.4706 14.3304 10.4709 14.3302 10.4708L11.9408 8.09136L11.9397 8.09025C11.3502 7.50076 10.5509 7.16992 9.72 7.16992H5.89C4.89489 7.16992 4.12259 7.4977 3.60109 8.01824ZM2.54141 6.9566C3.38241 6.11715 4.55511 5.66992 5.89 5.66992H9.72C10.9488 5.66992 12.1293 6.15887 12.9997 7.02901C12.9996 7.02882 12.9999 7.0292 12.9997 7.02901L15.3903 9.40959C16.2608 10.2801 16.75 11.4608 16.75 12.6899V18.0799C16.75 19.4205 16.2998 20.5936 15.4586 21.4332C14.6176 22.2727 13.4449 22.7199 12.11 22.7199H5.89C4.55511 22.7199 3.38241 22.2727 2.54141 21.4332C1.70019 20.5936 1.25 19.4205 1.25 18.0799V10.3099C1.25 8.96935 1.70019 7.79628 2.54141 6.9566Z" fill="black"/>
<path fill-rule="evenodd" clip-rule="evenodd" d="M8.7541 5.66973L9.72 5.66992C10.9488 5.66992 12.1293 6.15887 12.9997 7.02901C12.9996 7.02882 12.9999 7.0292 12.9997 7.02901L15.3903 9.40959C16.2608 10.2801 16.75 11.4608 16.75 12.6899V16.7797H18.11C19.1038 16.7797 19.8762 16.4503 20.3984 15.9281C20.9206 15.406 21.25 14.6335 21.25 13.6397V8.24973C21.25 7.41885 20.9192 6.61955 20.3297 6.03006L17.9397 3.64006C17.3502 3.05056 16.5509 2.71973 15.72 2.71973H11.89C10.8962 2.71973 10.1238 3.04913 9.60158 3.57131C9.11317 4.05971 8.79341 4.76711 8.7541 5.66973ZM8.54092 2.51065C9.38125 1.67032 10.5538 1.21973 11.89 1.21973H15.72C16.9491 1.21973 18.1298 1.70889 19.0003 2.5794L21.3903 4.9694C22.2608 5.8399 22.75 7.02061 22.75 8.24973V13.6397C22.75 14.976 22.2994 16.1485 21.4591 16.9888C20.6188 17.8291 19.4462 18.2797 18.11 18.2797H16C15.5858 18.2797 15.25 17.9439 15.25 17.5297V12.6899C15.25 11.8593 14.9194 11.0602 14.3302 10.4708C14.33 10.4706 14.3304 10.4709 14.3302 10.4708L11.9397 8.09025C11.3502 7.50076 10.5509 7.16992 9.72 7.16992L8 7.16973C7.58579 7.16973 7.25 6.83394 7.25 6.41973V5.85973C7.25 4.52348 7.70059 3.35097 8.54092 2.51065Z" fill="black"/>
</svg>
