<svg width="24" height="24" viewBox="0 0 24 24" fill="none" xmlns="http://www.w3.org/2000/svg">
<path fill-rule="evenodd" clip-rule="evenodd" d="M3.84467 2.84467C4.87925 1.81009 6.32956 1.25 8 1.25H12.93C14.4604 1.25 15.9207 1.86006 17.0003 2.93967L20.0703 6.00967C21.1407 7.08008 21.75 8.54075 21.75 10.07V17C21.75 18.6704 21.1899 20.1207 20.1553 21.1553C19.1207 22.1899 17.6704 22.75 16 22.75H8C6.32956 22.75 4.87925 22.1899 3.84467 21.1553C2.81009 20.1207 2.25 18.6704 2.25 17V7C2.25 5.32956 2.81009 3.87925 3.84467 2.84467ZM4.90533 3.90533C4.18991 4.62075 3.75 5.67044 3.75 7V17C3.75 18.3296 4.18991 19.3793 4.90533 20.0947C5.62075 20.8101 6.67044 21.25 8 21.25H16C17.3296 21.25 18.3793 20.8101 19.0947 20.0947C19.8101 19.3793 20.25 18.3296 20.25 17V10.07C20.25 8.93925 19.7993 7.85992 19.0097 7.07033L15.9397 4.00033C15.1393 3.19994 14.0596 2.75 12.93 2.75H8C6.67044 2.75 5.62075 3.18991 4.90533 3.90533Z" fill="black"/>
<path fill-rule="evenodd" clip-rule="evenodd" d="M6.25 12.5C6.25 10.4358 7.93579 8.75 10 8.75H14C16.0642 8.75 17.75 10.4358 17.75 12.5V15.5C17.75 17.5642 16.0642 19.25 14 19.25H10C7.93579 19.25 6.25 17.5642 6.25 15.5V12.5ZM10 10.25C8.76421 10.25 7.75 11.2642 7.75 12.5V15.5C7.75 16.7358 8.76421 17.75 10 17.75H14C15.2358 17.75 16.25 16.7358 16.25 15.5V12.5C16.25 11.2642 15.2358 10.25 14 10.25H10Z" fill="black"/>
<path fill-rule="evenodd" clip-rule="evenodd" d="M12 8.75C12.4142 8.75 12.75 9.08579 12.75 9.5V18.5C12.75 18.9142 12.4142 19.25 12 19.25C11.5858 19.25 11.25 18.9142 11.25 18.5V9.5C11.25 9.08579 11.5858 8.75 12 8.75Z" fill="black"/>
<path fill-rule="evenodd" clip-rule="evenodd" d="M6.75 14C6.75 13.5858 7.08579 13.25 7.5 13.25H16.5C16.9142 13.25 17.25 13.5858 17.25 14C17.25 14.4142 16.9142 14.75 16.5 14.75H7.5C7.08579 14.75 6.75 14.4142 6.75 14Z" fill="black"/>
</svg>
