<svg width="24" height="24" viewBox="0 0 24 24" fill="none" xmlns="http://www.w3.org/2000/svg">
<path fill-rule="evenodd" clip-rule="evenodd" d="M11.8496 4.1998C11.8496 2.66012 13.1113 1.5498 14.4996 1.5498C15.9869 1.5498 17.1496 2.65916 17.1496 4.0998V8.7998C17.1496 10.3395 15.8879 11.4498 14.4996 11.4498C12.9599 11.4498 11.8496 10.1881 11.8496 8.7998V4.1998ZM14.4996 3.0498C13.8879 3.0498 13.3496 3.53949 13.3496 4.1998V8.7998C13.3496 9.41153 13.8393 9.9498 14.4996 9.9498C15.1113 9.9498 15.6496 9.46012 15.6496 8.7998V4.0998C15.6496 3.54044 15.2123 3.0498 14.4996 3.0498Z" fill="black"/>
<path fill-rule="evenodd" clip-rule="evenodd" d="M17.8496 9.00039C17.8496 7.68618 18.8854 6.65039 20.1996 6.65039C21.5138 6.65039 22.5496 7.68618 22.5496 9.00039C22.5496 10.3146 21.5138 11.3504 20.1996 11.3504H18.5996C18.1854 11.3504 17.8496 11.0146 17.8496 10.6004V9.00039ZM20.1996 8.15039C19.7138 8.15039 19.3496 8.5146 19.3496 9.00039V9.85039H20.1996C20.6854 9.85039 21.0496 9.48618 21.0496 9.00039C21.0496 8.5146 20.6854 8.15039 20.1996 8.15039Z" fill="black"/>
<path fill-rule="evenodd" clip-rule="evenodd" d="M3.8321 6.55288C3.85467 6.55083 3.87733 6.5498 3.9 6.5498H8.5C10.0397 6.5498 11.15 7.81153 11.15 9.1998C11.15 10.7395 9.88827 11.8498 8.5 11.8498H3.9C2.36031 11.8498 1.25 10.5881 1.25 9.1998C1.25 7.75206 2.40842 6.68231 3.8321 6.55288ZM3.93691 8.0498C3.17984 8.1315 2.75 8.65494 2.75 9.1998C2.75 9.81153 3.23969 10.3498 3.9 10.3498H8.5C9.11173 10.3498 9.65 9.86012 9.65 9.1998C9.65 8.58808 9.16031 8.0498 8.5 8.0498H3.93691Z" fill="black"/>
<path fill-rule="evenodd" clip-rule="evenodd" d="M6.4502 3.6C6.4502 2.28579 7.48598 1.25 8.8002 1.25C10.1144 1.25 11.1502 2.28579 11.1502 3.6V5.2C11.1502 5.61421 10.8144 5.95 10.4002 5.95H8.8002C7.48598 5.95 6.4502 4.91421 6.4502 3.6ZM8.8002 2.75C8.31441 2.75 7.9502 3.11421 7.9502 3.6C7.9502 4.08579 8.31441 4.45 8.8002 4.45H9.6502V3.6C9.6502 3.11421 9.28598 2.75 8.8002 2.75Z" fill="black"/>
<path fill-rule="evenodd" clip-rule="evenodd" d="M6.75 15.3004C6.75 13.7607 8.01173 12.6504 9.4 12.6504C10.9397 12.6504 12.05 13.9121 12.05 15.3004V19.9004C12.05 21.4401 10.7883 22.5504 9.4 22.5504C7.92647 22.5504 6.8826 21.2638 6.75372 19.975C6.75124 19.9502 6.75 19.9253 6.75 19.9004V15.3004ZM9.4 14.1504C8.78827 14.1504 8.25 14.6401 8.25 15.3004V19.8592C8.33492 20.5531 8.88182 21.0504 9.4 21.0504C10.0117 21.0504 10.55 20.5607 10.55 19.9004V15.3004C10.55 14.6887 10.0603 14.1504 9.4 14.1504Z" fill="black"/>
<path fill-rule="evenodd" clip-rule="evenodd" d="M1.4502 15.0004C1.4502 13.6862 2.48598 12.6504 3.8002 12.6504H5.4002C5.81441 12.6504 6.1502 12.9862 6.1502 13.4004V15.0004C6.1502 16.3146 5.11441 17.3504 3.8002 17.3504C2.48598 17.3504 1.4502 16.3146 1.4502 15.0004ZM3.8002 14.1504C3.31441 14.1504 2.9502 14.5146 2.9502 15.0004C2.9502 15.4862 3.31441 15.8504 3.8002 15.8504C4.28598 15.8504 4.6502 15.4862 4.6502 15.0004V14.1504H3.8002Z" fill="black"/>
<path fill-rule="evenodd" clip-rule="evenodd" d="M12.8496 14.8004C12.8496 13.2607 14.1113 12.1504 15.4996 12.1504H20.0996C21.6393 12.1504 22.7496 13.4121 22.7496 14.8004C22.7496 16.2146 21.5138 17.4504 20.0996 17.4504H15.4996C13.9599 17.4504 12.8496 16.1887 12.8496 14.8004ZM15.4996 13.6504C14.8879 13.6504 14.3496 14.1401 14.3496 14.8004C14.3496 15.4121 14.8393 15.9504 15.4996 15.9504H20.0996C20.6854 15.9504 21.2496 15.3862 21.2496 14.8004C21.2496 14.1887 20.7599 13.6504 20.0996 13.6504H15.4996Z" fill="black"/>
<path fill-rule="evenodd" clip-rule="evenodd" d="M12.8496 18.7998C12.8496 18.3856 13.1854 18.0498 13.5996 18.0498H15.1996C16.5138 18.0498 17.5496 19.0856 17.5496 20.3998C17.5496 21.714 16.5138 22.7498 15.1996 22.7498C13.8854 22.7498 12.8496 21.714 12.8496 20.3998V18.7998ZM14.3496 19.5498V20.3998C14.3496 20.8856 14.7138 21.2498 15.1996 21.2498C15.6854 21.2498 16.0496 20.8856 16.0496 20.3998C16.0496 19.914 15.6854 19.5498 15.1996 19.5498H14.3496Z" fill="black"/>
</svg>
