<svg width="24" height="24" viewBox="0 0 24 24" fill="none" xmlns="http://www.w3.org/2000/svg">
<path fill-rule="evenodd" clip-rule="evenodd" d="M1.25 12C1.25 6.06579 6.06579 1.25 12 1.25C17.9342 1.25 22.75 6.06579 22.75 12C22.75 17.9342 17.9342 22.75 12 22.75C6.06579 22.75 1.25 17.9342 1.25 12ZM12 2.75C6.89421 2.75 2.75 6.89421 2.75 12C2.75 17.1058 6.89421 21.25 12 21.25C17.1058 21.25 21.25 17.1058 21.25 12C21.25 6.89421 17.1058 2.75 12 2.75Z" fill="black"/>
<path fill-rule="evenodd" clip-rule="evenodd" d="M19.4307 4.46967C19.7236 4.76256 19.7236 5.23744 19.4307 5.53033L5.43072 19.5303C5.13783 19.8232 4.66295 19.8232 4.37006 19.5303C4.07717 19.2374 4.07717 18.7626 4.37006 18.4697L18.3701 4.46967C18.663 4.17678 19.1378 4.17678 19.4307 4.46967Z" fill="black"/>
</svg>
