<svg width="24" height="24" viewBox="0 0 24 24" fill="none" xmlns="http://www.w3.org/2000/svg">
<path fill-rule="evenodd" clip-rule="evenodd" d="M3.84023 3.32031C3.23445 3.32031 2.74023 3.81453 2.74023 4.42031V5.93031C2.74023 6.34453 2.40445 6.68031 1.99023 6.68031C1.57602 6.68031 1.24023 6.34453 1.24023 5.93031V4.42031C1.24023 2.9861 2.40602 1.82031 3.84023 1.82031H16.7602C18.1944 1.82031 19.3602 2.9861 19.3602 4.42031V5.93031C19.3602 6.34453 19.0244 6.68031 18.6102 6.68031C18.196 6.68031 17.8602 6.34453 17.8602 5.93031V4.42031C17.8602 3.81453 17.366 3.32031 16.7602 3.32031H3.84023Z" fill="black"/>
<path fill-rule="evenodd" clip-rule="evenodd" d="M10.2998 2.57031C10.714 2.57031 11.0498 2.9061 11.0498 3.32031V18.1003C11.0498 18.5145 10.714 18.8503 10.2998 18.8503C9.88559 18.8503 9.5498 18.5145 9.5498 18.1003V3.32031C9.5498 2.9061 9.88559 2.57031 10.2998 2.57031Z" fill="black"/>
<path fill-rule="evenodd" clip-rule="evenodd" d="M6.15039 18.0996C6.15039 17.6854 6.48618 17.3496 6.90039 17.3496H12.4804C12.8946 17.3496 13.2304 17.6854 13.2304 18.0996C13.2304 18.5138 12.8946 18.8496 12.4804 18.8496H6.90039C6.48618 18.8496 6.15039 18.5138 6.15039 18.0996Z" fill="black"/>
<path fill-rule="evenodd" clip-rule="evenodd" d="M12.9297 10.3398C12.9297 9.92563 13.2655 9.58984 13.6797 9.58984H20.6897C21.8339 9.58984 22.7597 10.5156 22.7597 11.6598V12.4598C22.7597 12.8741 22.4239 13.2098 22.0097 13.2098C21.5955 13.2098 21.2597 12.8741 21.2597 12.4598V11.6598C21.2597 11.3441 21.0055 11.0898 20.6897 11.0898H13.6797C13.2655 11.0898 12.9297 10.7541 12.9297 10.3398Z" fill="black"/>
<path fill-rule="evenodd" clip-rule="evenodd" d="M16.0801 10.1201C16.4943 10.1201 16.8301 10.4559 16.8301 10.8701V21.4301C16.8301 21.8443 16.4943 22.1801 16.0801 22.1801C15.6659 22.1801 15.3301 21.8443 15.3301 21.4301V10.8701C15.3301 10.4559 15.6659 10.1201 16.0801 10.1201Z" fill="black"/>
<path fill-rule="evenodd" clip-rule="evenodd" d="M13.1895 21.4297C13.1895 21.0155 13.5252 20.6797 13.9395 20.6797H18.2195C18.6337 20.6797 18.9695 21.0155 18.9695 21.4297C18.9695 21.8439 18.6337 22.1797 18.2195 22.1797H13.9395C13.5252 22.1797 13.1895 21.8439 13.1895 21.4297Z" fill="black"/>
</svg>
