<svg width="24" height="24" viewBox="0 0 24 24" fill="none" xmlns="http://www.w3.org/2000/svg">
<path fill-rule="evenodd" clip-rule="evenodd" d="M14.4001 2.24579C14.3999 2.24559 14.4004 2.246 14.4001 2.24579L21.3307 7.78624C21.8443 8.19983 22.2292 8.80553 22.4648 9.42309C22.7005 10.0408 22.8169 10.7494 22.7105 11.4013L22.71 11.404L21.3801 19.364L21.3797 19.3663C21.0785 21.1355 19.3972 22.5605 17.6003 22.5605H11.4003C10.9861 22.5605 10.6503 22.2247 10.6503 21.8105C10.6503 21.3963 10.9861 21.0605 11.4003 21.0605H17.6003C18.663 21.0605 19.7213 20.166 19.9008 19.1157C19.9008 19.1153 19.9009 19.1149 19.9009 19.1146L21.2301 11.1596C21.2302 11.1592 21.2302 11.1587 21.2303 11.1583C21.2835 10.8303 21.2299 10.3945 21.0633 9.95778C20.8966 9.52079 20.6468 9.16178 20.3907 8.95526C20.3905 8.95503 20.3902 8.95481 20.3899 8.95458L13.462 3.41619L13.4604 3.41496C12.6634 2.77433 11.3239 2.77651 10.5395 3.40548L3.607 8.95754C3.34713 9.16411 3.09585 9.52251 2.92979 9.95778C2.76369 10.3931 2.71281 10.8268 2.76926 11.1523L2.77011 11.1571L3.05009 12.8371C3.11819 13.2457 2.84218 13.6321 2.4336 13.7002C2.02502 13.7683 1.6386 13.4923 1.5705 13.0837L1.29088 11.406C1.1781 10.7522 1.29223 10.0419 1.52832 9.42309C1.76459 8.80382 2.15291 8.19767 2.67243 7.78426C2.67283 7.78394 2.67323 7.78362 2.67363 7.7833L9.60111 2.23525C10.9365 1.16472 13.0573 1.16714 14.4001 2.24579Z" fill="black"/>
<path fill-rule="evenodd" clip-rule="evenodd" d="M1.2502 18.983C1.25961 18.5689 1.60294 18.2408 2.01705 18.2502C3.06762 18.2741 3.9988 18.6481 4.67533 19.3247C5.35187 20.0012 5.72593 20.9324 5.74981 21.983C5.75922 22.3971 5.43115 22.7404 5.01705 22.7498C4.60294 22.7592 4.25961 22.4312 4.2502 22.017C4.23407 21.3076 3.98814 20.7588 3.61467 20.3853C3.24121 20.0119 2.69238 19.7659 1.98296 19.7498C1.56886 19.7404 1.24079 19.3971 1.2502 18.983Z" fill="black"/>
<path fill-rule="evenodd" clip-rule="evenodd" d="M1.25007 15.9901C1.25552 15.576 1.59569 15.2446 2.00987 15.2501C2.84999 15.2611 3.64129 15.405 4.37018 15.663L4.37117 15.6633C6.24219 16.3283 7.6711 17.7448 8.33717 19.6302C8.59501 20.359 8.73888 21.1501 8.74994 21.9901C8.75539 22.4043 8.42405 22.7445 8.00987 22.7499C7.59569 22.7554 7.25552 22.424 7.25007 22.0099C7.24112 21.33 7.12505 20.7013 6.92296 20.1302C6.4091 18.6757 5.31806 17.5919 3.86933 17.0769C3.29836 16.8749 2.66982 16.7589 1.99013 16.7499C1.57596 16.7445 1.24462 16.4043 1.25007 15.9901Z" fill="black"/>
<path fill-rule="evenodd" clip-rule="evenodd" d="M0.995117 22C0.995117 21.4477 1.44283 21 1.99512 21H2.00412C2.5564 21 3.00412 21.4477 3.00412 22C3.00412 22.5523 2.5564 23 2.00412 23H1.99512C1.44283 23 0.995117 22.5523 0.995117 22Z" fill="black"/>
</svg>
