<svg width="24" height="24" viewBox="0 0 24 24" fill="none" xmlns="http://www.w3.org/2000/svg">
<path fill-rule="evenodd" clip-rule="evenodd" d="M4.4661 7.70574C5.02016 7.13654 5.81573 6.87012 6.86977 6.87012H12.1398C13.1946 6.87012 13.9873 7.13695 14.541 7.70574C15.0658 8.24487 15.2643 8.95034 15.3927 9.54081L15.3938 9.54608L16.2438 13.5961C16.2902 13.8172 16.2344 14.0475 16.092 14.2229C15.9496 14.3983 15.7357 14.5001 15.5098 14.5001H3.50977C3.28383 14.5001 3.06993 14.3983 2.92752 14.2229C2.7851 14.0475 2.72936 13.8172 2.77576 13.5961L3.62505 9.5495C3.74462 8.95272 3.93973 8.24649 4.4661 7.70574ZM5.54095 8.75201C5.33587 8.9627 5.20571 9.29475 5.09521 9.84722L5.09382 9.85419L4.43352 13.0001H14.586L13.9263 9.85688C13.8049 9.29891 13.6735 8.96507 13.4661 8.75201C13.2873 8.56829 12.9449 8.37012 12.1398 8.37012H6.86977C6.06382 8.37012 5.71938 8.56871 5.54095 8.75201Z" fill="black"/>
<path fill-rule="evenodd" clip-rule="evenodd" d="M3.15699 15.8609L2.73648 20.4365C2.69384 20.8534 3.03331 21.2502 3.51032 21.2502H4.92032C5.07846 21.2502 5.16007 21.2337 5.19602 21.2227C5.19694 21.2208 5.19793 21.2187 5.19896 21.2165C5.21943 21.1723 5.23904 21.1152 5.27718 20.998L5.27881 20.993L5.43008 20.5393C5.43465 20.5258 5.43939 20.5118 5.44431 20.4971C5.52826 20.2471 5.66876 19.8287 6.00691 19.5097C6.39901 19.1398 6.92934 19.0002 7.57033 19.0002H11.4103C12.0313 19.0002 12.5629 19.1184 12.9604 19.4856C13.2987 19.798 13.4421 20.2203 13.5316 20.4837C13.5378 20.502 13.5437 20.5195 13.5495 20.5361L13.5519 20.5431L13.6993 20.9855C13.74 21.0994 13.7603 21.1558 13.7831 21.2034C13.7868 21.2111 13.79 21.2172 13.7926 21.222C13.8253 21.2328 13.9036 21.2502 14.0603 21.2502H15.4703C15.9384 21.2502 16.282 20.8602 16.2435 20.4293C16.2435 20.4289 16.2434 20.4285 16.2434 20.4281L15.8139 15.8629C15.8138 15.8624 15.8138 15.862 15.8137 15.8615C15.7567 15.2768 15.6824 14.9948 15.539 14.8245C15.4326 14.698 15.1567 14.4902 14.2703 14.4902H4.70032C3.81397 14.4902 3.53803 14.698 3.43161 14.8245C3.28829 14.9947 3.21398 15.2766 3.15699 15.8609ZM13.773 21.2134C13.7733 21.2132 13.7759 21.2144 13.7802 21.2173C13.775 21.2151 13.7728 21.2136 13.773 21.2134ZM2.28404 13.8585C2.80262 13.2424 3.61668 12.9902 4.70032 12.9902H14.2703C15.354 12.9902 16.168 13.2424 16.6866 13.8585C17.1681 14.4305 17.2538 15.1732 17.3068 15.7176L17.307 15.72L17.7373 20.2923C17.858 21.6209 16.8019 22.7502 15.4703 22.7502H14.0603C13.5553 22.7502 13.1033 22.6411 12.7615 22.3167C12.4822 22.0516 12.361 21.7034 12.2987 21.5244C12.2934 21.5091 12.2885 21.4951 12.284 21.4825L12.2788 21.4674L12.13 21.021C12.0744 20.8596 12.0404 20.763 12.0029 20.6841C11.9694 20.6137 11.9489 20.5931 11.9427 20.5875C11.9394 20.5843 11.9194 20.5656 11.8505 20.5456C11.7717 20.5227 11.636 20.5002 11.4103 20.5002H7.57033C7.13962 20.5002 7.04517 20.5921 7.03665 20.6004C7.03649 20.6006 7.03675 20.6003 7.03665 20.6004C6.99721 20.6376 6.95835 20.7037 6.8512 21.0194L6.7027 21.4648C6.69927 21.4754 6.69564 21.4868 6.69178 21.4988C6.63186 21.6864 6.51632 22.048 6.22421 22.3228C5.87873 22.6478 5.42128 22.7502 4.92032 22.7502H3.51032C2.18871 22.7502 1.10912 21.6294 1.2438 20.2881L1.66385 15.7176C1.71684 15.1732 1.80253 14.4305 2.28404 13.8585Z" fill="black"/>
<path fill-rule="evenodd" clip-rule="evenodd" d="M2 11.5C2 11.0858 2.33579 10.75 2.75 10.75H3.5C3.91421 10.75 4.25 11.0858 4.25 11.5C4.25 11.9142 3.91421 12.25 3.5 12.25H2.75C2.33579 12.25 2 11.9142 2 11.5Z" fill="black"/>
<path fill-rule="evenodd" clip-rule="evenodd" d="M14.75 11.5C14.75 11.0858 15.0858 10.75 15.5 10.75H16.25C16.6642 10.75 17 11.0858 17 11.5C17 11.9142 16.6642 12.25 16.25 12.25H15.5C15.0858 12.25 14.75 11.9142 14.75 11.5Z" fill="black"/>
<path fill-rule="evenodd" clip-rule="evenodd" d="M4.25 16.75C4.25 16.3358 4.58579 16 5 16H7.25C7.66421 16 8 16.3358 8 16.75C8 17.1642 7.66421 17.5 7.25 17.5H5C4.58579 17.5 4.25 17.1642 4.25 16.75Z" fill="black"/>
<path fill-rule="evenodd" clip-rule="evenodd" d="M11 16.75C11 16.3358 11.3358 16 11.75 16H14C14.4142 16 14.75 16.3358 14.75 16.75C14.75 17.1642 14.4142 17.5 14 17.5H11.75C11.3358 17.5 11 17.1642 11 16.75Z" fill="black"/>
<path fill-rule="evenodd" clip-rule="evenodd" d="M18.9935 6.02322C18.3697 5.08317 17.3696 4.48602 16.3596 4.50025C15.9454 4.50608 15.6144 4.84656 15.6202 5.26074C15.626 5.67491 15.9665 6.00593 16.3807 6.0001C16.7896 5.99434 17.3485 6.25599 17.7448 6.85433L17.7486 6.85992C18.1547 7.46126 18.1812 8.07221 18.0213 8.44345C17.8574 8.82387 18.033 9.2651 18.4134 9.42897C18.7938 9.59285 19.2351 9.4173 19.3989 9.03688C19.7986 8.10904 19.6259 6.96137 18.9935 6.02322Z" fill="black"/>
<path fill-rule="evenodd" clip-rule="evenodd" d="M15.8952 1.9094C15.9453 1.49822 16.3192 1.2055 16.7304 1.25558C18.5289 1.47463 20.3144 2.59061 21.4932 4.35317C22.6706 6.11381 23.0273 8.18724 22.5423 9.93104C22.4313 10.3301 22.0178 10.5636 21.6188 10.4526C21.2197 10.3416 20.9862 9.92814 21.0972 9.52908C21.4521 8.25288 21.2089 6.62638 20.2463 5.18702C19.285 3.74958 17.8705 2.90552 16.549 2.74457C16.1379 2.6945 15.8451 2.32057 15.8952 1.9094Z" fill="black"/>
</svg>
