<svg width="24" height="24" viewBox="0 0 24 24" fill="none" xmlns="http://www.w3.org/2000/svg">
<path fill-rule="evenodd" clip-rule="evenodd" d="M3.50533 3.50531C3.0398 3.97083 2.75 4.77392 2.75 6.19995V9.80005C2.75 11.2261 3.0398 12.0292 3.50533 12.4947C3.97086 12.9602 4.77397 13.25 6.2 13.25H9.29081C9.40179 12.1022 9.74154 11.1428 10.4422 10.4422C11.1428 9.74154 12.1022 9.40179 13.25 9.29081V6.19995C13.25 4.77392 12.9602 3.97083 12.4947 3.50531C12.0291 3.03979 11.226 2.75 9.8 2.75H6.2C4.77397 2.75 3.97086 3.03979 3.50533 3.50531ZM2.44468 2.44464C3.32915 1.56019 4.62604 1.25 6.2 1.25H9.8C11.374 1.25 12.6709 1.56019 13.5553 2.44464C14.4398 3.3291 14.75 4.62598 14.75 6.19995V10C14.75 10.409 14.4223 10.7426 14.0134 10.7499C12.6994 10.7734 11.9471 11.0585 11.5028 11.5028C11.0585 11.9471 10.7734 12.6994 10.7499 14.0134C10.7426 14.4223 10.409 14.75 10 14.75H6.2C4.62604 14.75 3.32915 14.4398 2.44468 13.5554C1.5602 12.6709 1.25 11.374 1.25 9.80005V6.19995C1.25 4.62598 1.5602 3.3291 2.44468 2.44464Z" fill="black"/>
<path fill-rule="evenodd" clip-rule="evenodd" d="M4.76324 5.28057C5.55328 4.71412 6.59613 4.71609 7.38166 5.24966C7.72431 5.4824 7.8134 5.94884 7.58066 6.29149C7.34792 6.63413 6.88148 6.72323 6.53884 6.49049C6.26437 6.30406 5.90722 6.30607 5.63727 6.49962C5.30064 6.74097 4.83209 6.66374 4.59073 6.32711C4.34937 5.99048 4.42661 5.52193 4.76324 5.28057Z" fill="black"/>
<path fill-rule="evenodd" clip-rule="evenodd" d="M8.76324 5.28057C9.55328 4.71412 10.5961 4.71609 11.3817 5.24966C11.7243 5.4824 11.8134 5.94884 11.5807 6.29149C11.3479 6.63413 10.8815 6.72323 10.5388 6.49049C10.2644 6.30406 9.90722 6.30607 9.63727 6.49962C9.30064 6.74097 8.83209 6.66374 8.59073 6.32711C8.34937 5.99048 8.42661 5.52193 8.76324 5.28057Z" fill="black"/>
<path fill-rule="evenodd" clip-rule="evenodd" d="M6.06101 10.6697C6.16596 9.6924 6.99493 8.92969 7.99981 8.92969C8.46604 8.92969 8.89078 9.08947 9.21974 9.35406C9.5425 9.61368 10.0146 9.56248 10.2742 9.23972C10.5338 8.91696 10.4826 8.44486 10.1599 8.18524C9.56883 7.70984 8.81357 7.42969 7.99981 7.42969C6.09561 7.42969 4.5498 8.97541 4.5498 10.8796C4.5498 11.5938 5.12552 12.1697 5.83981 12.1697H8.15981C8.57402 12.1697 8.90981 11.8339 8.90981 11.4197C8.90981 11.0055 8.57402 10.6697 8.15981 10.6697H6.06101Z" fill="black"/>
<path fill-rule="evenodd" clip-rule="evenodd" d="M14 9.25H17.8C19.374 9.25 20.6709 9.56019 21.5553 10.4446C22.4398 11.3291 22.75 12.626 22.75 14.2V17.8C22.75 19.374 22.4398 20.6709 21.5553 21.5554C20.6709 22.4398 19.374 22.75 17.8 22.75H14.2C12.626 22.75 11.3291 22.4398 10.4447 21.5554C9.5602 20.6709 9.25 19.374 9.25 17.8V13.9866C9.27645 12.5106 9.59647 11.2879 10.4422 10.4422C11.2879 9.59647 12.5106 9.27657 13.9866 9.25012L14 9.25ZM14.0068 10.75C12.6969 10.7744 11.9464 11.0593 11.5028 11.5028C11.0593 11.9464 10.7744 12.6969 10.75 14.0068V17.8C10.75 19.2261 11.0398 20.0292 11.5053 20.4947C11.9709 20.9602 12.774 21.25 14.2 21.25H17.8C19.226 21.25 20.0291 20.9602 20.4947 20.4947C20.9602 20.0292 21.25 19.2261 21.25 17.8V14.2C21.25 12.7739 20.9602 11.9708 20.4947 11.5053C20.0291 11.0398 19.226 10.75 17.8 10.75H14.0068Z" fill="black"/>
<path fill-rule="evenodd" clip-rule="evenodd" d="M12.5907 13.1627C12.8321 12.826 13.3006 12.7488 13.6373 12.9901C13.9072 13.1837 14.2644 13.1857 14.5388 12.9993C14.8815 12.7665 15.3479 12.8556 15.5807 13.1983C15.8134 13.5409 15.7243 14.0074 15.3817 14.2401C14.5961 14.7737 13.5533 14.7756 12.7632 14.2092C12.4266 13.9678 12.3494 13.4993 12.5907 13.1627Z" fill="black"/>
<path fill-rule="evenodd" clip-rule="evenodd" d="M16.5907 13.1627C16.8321 12.826 17.3006 12.7488 17.6373 12.9901C17.9072 13.1837 18.2644 13.1857 18.5388 12.9993C18.8815 12.7665 19.3479 12.8556 19.5807 13.1983C19.8134 13.5409 19.7243 14.0074 19.3817 14.2401C18.5961 14.7737 17.5533 14.7756 16.7632 14.2092C16.4266 13.9678 16.3494 13.4993 16.5907 13.1627Z" fill="black"/>
<path fill-rule="evenodd" clip-rule="evenodd" d="M14.061 16.9297C14.166 17.907 14.995 18.6697 15.9998 18.6697C17.0046 18.6697 17.8336 17.907 17.9386 16.9297H14.061ZM12.5498 16.7196C12.5498 16.0052 13.1257 15.4297 13.8398 15.4297H18.1598C18.8739 15.4297 19.4498 16.0052 19.4498 16.7196C19.4498 18.6238 17.904 20.1697 15.9998 20.1697C14.0956 20.1697 12.5498 18.6238 12.5498 16.7196Z" fill="black"/>
</svg>
