<svg width="24" height="24" viewBox="0 0 24 24" fill="none" xmlns="http://www.w3.org/2000/svg">
<path fill-rule="evenodd" clip-rule="evenodd" d="M3.88534 5.23752C3.20538 5.86891 2.75 6.89338 2.75 8.50043V15.5004C2.75 17.1075 3.20538 18.1319 3.88534 18.7633C4.57535 19.4041 5.61497 19.7504 7 19.7504H17C18.385 19.7504 19.4246 19.4041 20.1147 18.7633C20.7946 18.1319 21.25 17.1075 21.25 15.5004V11.5004C21.25 11.0862 21.5858 10.7504 22 10.7504C22.4142 10.7504 22.75 11.0862 22.75 11.5004V15.5004C22.75 17.3934 22.2054 18.8689 21.1353 19.8625C20.0754 20.8468 18.615 21.2504 17 21.2504H7C5.38503 21.2504 3.92465 20.8468 2.86466 19.8625C1.79462 18.8689 1.25 17.3934 1.25 15.5004V8.50043C1.25 6.60748 1.79462 5.13195 2.86466 4.13833C3.92465 3.15406 5.38503 2.75043 7 2.75043H12C12.4142 2.75043 12.75 3.08621 12.75 3.50043C12.75 3.91464 12.4142 4.25043 12 4.25043H7C5.61497 4.25043 4.57535 4.59679 3.88534 5.23752Z" fill="black"/>
<path fill-rule="evenodd" clip-rule="evenodd" d="M6.41398 8.53236C6.67249 8.20871 7.14442 8.15591 7.46806 8.41441L10.5971 10.9137C11.3538 11.5156 12.6564 11.5159 13.4129 10.9137C13.7369 10.6557 14.2088 10.7092 14.4668 11.0333C14.7248 11.3574 14.6712 11.8292 14.3471 12.0872C13.0437 13.1248 10.9663 13.1248 9.66287 12.0872L6.53194 9.58644C6.20829 9.32794 6.15548 8.85601 6.41398 8.53236Z" fill="black"/>
<path fill-rule="evenodd" clip-rule="evenodd" d="M18.1925 3.15231L17.9108 3.72584C17.7756 3.99625 17.5614 4.21812 17.35 4.37667C17.1398 4.53433 16.8648 4.67997 16.5633 4.73022L16.5569 4.73128L16.1803 4.79071C15.8586 4.84482 15.7665 4.94156 15.7463 4.96889C15.7466 5.00275 15.7638 5.14025 16.002 5.38182L16.3503 5.73008L16.3615 5.74149C16.5829 5.97257 16.7228 6.2672 16.799 6.53569C16.875 6.80363 16.911 7.12809 16.8426 7.44069L16.8397 7.45412L16.7901 7.66184C16.7255 7.94145 16.7273 8.12518 16.7459 8.22726C16.7478 8.23794 16.7498 8.24722 16.7518 8.25523C16.7585 8.25469 16.766 8.2539 16.7744 8.25281C16.8738 8.23984 17.047 8.18637 17.2925 8.03823L17.3052 8.03076L17.5634 7.88183L17.5646 7.88114C17.86 7.70995 18.1998 7.64542 18.5 7.64542C18.8002 7.64542 19.14 7.70995 19.4354 7.88117L19.4366 7.88183L19.7059 8.0372C19.9489 8.18299 20.1203 8.23573 20.219 8.24847C20.2279 8.24962 20.2358 8.25041 20.2428 8.25095C20.2449 8.24263 20.2471 8.23289 20.2492 8.22159C20.2682 8.12016 20.2713 7.93764 20.2092 7.65921L20.1572 7.44072C20.0888 7.12812 20.1249 6.80363 20.201 6.53569C20.2771 6.2672 20.417 5.97257 20.6385 5.74149L20.6496 5.73008L20.9979 5.38182C21.2361 5.14025 21.2533 5.00276 21.2536 4.96889C21.2334 4.94156 21.1413 4.84483 20.8196 4.79071L20.443 4.73125C20.4345 4.7299 20.4259 4.72841 20.4174 4.72676C20.1272 4.67059 19.8595 4.53245 19.647 4.37354C19.4352 4.21512 19.2239 3.9954 19.0892 3.72583L19.0868 3.72111L18.8079 3.15337L18.8074 3.15231C18.7062 2.94842 18.6103 2.83954 18.5475 2.78826C18.5255 2.77025 18.5097 2.76084 18.5 2.75608C18.4903 2.76084 18.4745 2.77025 18.4524 2.78826C18.3896 2.83954 18.2937 2.94842 18.1925 3.15231ZM18.5 1.25293C19.276 1.25293 19.8299 1.8372 20.152 2.48749L20.1531 2.48975L20.4311 3.05556L20.4326 3.05815C20.4338 3.06026 20.4357 3.06323 20.4383 3.06699C20.4436 3.07465 20.4513 3.08461 20.4617 3.09635C20.483 3.12037 20.5114 3.14689 20.5454 3.17231C20.6139 3.22353 20.6718 3.24621 20.6964 3.25268L21.0633 3.3106C21.7685 3.42814 22.4553 3.79292 22.6846 4.51281C22.9131 5.23016 22.5678 5.92709 22.0635 6.43753L22.0603 6.44078L21.7199 6.78117C21.7183 6.78302 21.7157 6.78634 21.7121 6.79136C21.7061 6.7999 21.6986 6.81188 21.6903 6.82752C21.6733 6.85954 21.6568 6.89995 21.644 6.94515C21.6312 6.99038 21.6241 7.03296 21.6219 7.06815C21.62 7.09742 21.6218 7.11408 21.6225 7.11881L21.6718 7.32603C21.8409 8.07886 21.8183 8.98111 21.1392 9.47814C20.4582 9.97655 19.5962 9.71926 18.9399 9.32702L18.6852 9.18007L18.6834 9.17901C18.6691 9.17072 18.6044 9.14542 18.5 9.14542C18.3956 9.14542 18.3308 9.17072 18.3166 9.17901L18.3147 9.18007L18.0608 9.32659C17.4005 9.72315 16.534 9.98306 15.8516 9.48066C15.1714 8.97995 15.1549 8.07324 15.3293 7.32101L15.3303 7.31675L15.3775 7.11882C15.3781 7.11409 15.38 7.09743 15.3781 7.06815C15.3758 7.03296 15.3688 6.99038 15.3559 6.94515C15.3431 6.89995 15.3266 6.85954 15.3096 6.82753C15.3013 6.81188 15.2938 6.7999 15.2878 6.79136C15.2843 6.78634 15.2816 6.78302 15.2801 6.78117L14.9364 6.43754C14.4321 5.9271 14.0868 5.23016 14.3153 4.51281C14.5446 3.79292 15.2314 3.42817 15.9367 3.31063L15.943 3.30958L16.3154 3.2508C16.3175 3.25023 16.3302 3.24682 16.3528 3.23619C16.3811 3.22288 16.415 3.20288 16.45 3.17668C16.4848 3.15053 16.5147 3.12275 16.5372 3.09733C16.5482 3.08492 16.5563 3.07443 16.5619 3.06646C16.5661 3.06031 16.5689 3.05536 16.5689 3.05536L16.8479 2.48749C17.1701 1.83719 17.724 1.25293 18.5 1.25293Z" fill="black"/>
</svg>
