<svg width="24" height="24" viewBox="0 0 24 24" fill="none" xmlns="http://www.w3.org/2000/svg">
<path fill-rule="evenodd" clip-rule="evenodd" d="M4.08954 3.46442C4.46698 2.91407 5.03294 2.75 5.50036 2.75H20.0004C21.4011 2.75 22.2706 4.33199 21.4107 5.53593L21.4056 5.54302L19.9112 7.5356C19.5337 8.08594 18.9678 8.25 18.5004 8.25H4.00036C2.59962 8.25 1.7301 6.66802 2.59006 5.46407L2.59513 5.45698L4.08954 3.46442ZM5.352 4.28348C5.34623 4.28836 5.33657 4.29777 5.3244 4.31603L5.31285 4.33335L3.80688 6.34131C3.73207 6.44949 3.74074 6.54432 3.77827 6.61649C3.82029 6.69729 3.89832 6.75 4.00036 6.75H18.5004C18.5693 6.75 18.6087 6.73828 18.6275 6.72973C18.6364 6.7257 18.6429 6.72147 18.6487 6.71652C18.6545 6.71164 18.6642 6.70223 18.6763 6.68397L18.6879 6.66665L20.1938 4.65868C20.2687 4.5505 20.26 4.45568 20.2224 4.38351C20.1804 4.30271 20.1024 4.25 20.0004 4.25H5.50036C5.43138 4.25 5.39203 4.26172 5.37321 4.27027C5.36436 4.2743 5.35785 4.27853 5.352 4.28348Z" fill="black"/>
<path fill-rule="evenodd" clip-rule="evenodd" d="M3.80688 11.1587L5.31285 13.1667L5.3244 13.184C5.33657 13.2022 5.34623 13.2116 5.352 13.2165C5.35785 13.2215 5.36436 13.2257 5.37321 13.2297C5.39203 13.2383 5.43138 13.25 5.50036 13.25H20.0004C20.1024 13.25 20.1804 13.1973 20.2224 13.1165C20.26 13.0443 20.2687 12.9495 20.1938 12.8413L18.6879 10.8333L18.6763 10.816C18.6642 10.7978 18.6545 10.7884 18.6487 10.7835C18.6429 10.7785 18.6364 10.7743 18.6275 10.7703C18.6087 10.7617 18.5693 10.75 18.5004 10.75H4.00036C3.89832 10.75 3.82029 10.8027 3.77827 10.8835C3.74074 10.9557 3.73207 11.0505 3.80688 11.1587ZM2.59006 12.0359C1.7301 10.832 2.59962 9.25 4.00036 9.25H18.5004C18.9678 9.25 19.5337 9.41406 19.9112 9.9644L21.4056 11.957L21.4107 11.9641C22.2706 13.168 21.4011 14.75 20.0004 14.75H5.50036C5.03294 14.75 4.46698 14.5859 4.08954 14.0356L2.59513 12.043L2.59006 12.0359Z" fill="black"/>
<path fill-rule="evenodd" clip-rule="evenodd" d="M4.08954 16.4644C4.46698 15.9141 5.03294 15.75 5.50036 15.75H20.0004C21.4011 15.75 22.2706 17.332 21.4107 18.5359L21.4056 18.543L19.9112 20.5356C19.5337 21.0859 18.9678 21.25 18.5004 21.25H4.00036C2.59962 21.25 1.7301 19.668 2.59006 18.4641L2.59513 18.457L4.08954 16.4644ZM5.352 17.2835C5.34623 17.2884 5.33657 17.2978 5.3244 17.316L5.31285 17.3333L3.80688 19.3413C3.73207 19.4495 3.74074 19.5443 3.77827 19.6165C3.82029 19.6973 3.89832 19.75 4.00036 19.75H18.5004C18.5693 19.75 18.6087 19.7383 18.6275 19.7297C18.6364 19.7257 18.6429 19.7215 18.6487 19.7165C18.6545 19.7116 18.6642 19.7022 18.6763 19.684L18.6879 19.6667L20.1938 17.6587C20.2687 17.5505 20.26 17.4557 20.2224 17.3835C20.1804 17.3027 20.1024 17.25 20.0004 17.25H5.50036C5.43138 17.25 5.39203 17.2617 5.37321 17.2703C5.36436 17.2743 5.35785 17.2785 5.352 17.2835Z" fill="black"/>
</svg>
