<svg width="24" height="24" viewBox="0 0 24 24" fill="none" xmlns="http://www.w3.org/2000/svg">
<path fill-rule="evenodd" clip-rule="evenodd" d="M1.25 12.5C1.25 6.56579 6.06579 1.75 12 1.75C17.9342 1.75 22.75 6.56579 22.75 12.5C22.75 15.4235 21.5779 18.0905 19.6748 20.0259C19.3843 20.3212 18.9095 20.3252 18.6141 20.0348C18.3188 19.7443 18.3148 19.2695 18.6052 18.9741C20.2421 17.3095 21.25 15.0165 21.25 12.5C21.25 7.39421 17.1058 3.25 12 3.25C6.89421 3.25 2.75 7.39421 2.75 12.5C2.75 15.0167 3.74813 17.2913 5.3777 18.9671C5.66646 19.2641 5.65981 19.7389 5.36285 20.0277C5.06588 20.3165 4.59105 20.3098 4.30229 20.0129C2.41186 18.0687 1.25 15.4233 1.25 12.5Z" fill="black"/>
<path fill-rule="evenodd" clip-rule="evenodd" d="M12.0001 15.4902C10.5476 15.4902 9.37012 16.6677 9.37012 18.1202C9.37012 19.5727 10.5476 20.7502 12.0001 20.7502C13.4526 20.7502 14.6301 19.5727 14.6301 18.1202C14.6301 16.6677 13.4526 15.4902 12.0001 15.4902ZM7.87012 18.1202C7.87012 15.8393 9.71919 13.9902 12.0001 13.9902C14.2811 13.9902 16.1301 15.8393 16.1301 18.1202C16.1301 20.4012 14.2811 22.2502 12.0001 22.2502C9.71919 22.2502 7.87012 20.4012 7.87012 18.1202Z" fill="black"/>
<path fill-rule="evenodd" clip-rule="evenodd" d="M13.75 10.5C13.75 9.25254 14.769 8.25 16 8.25C17.2342 8.25 18.25 9.26579 18.25 10.5C18.25 11.7475 17.231 12.75 16 12.75H15.25C14.4258 12.75 13.75 12.0742 13.75 11.25V10.5ZM16 9.75C15.591 9.75 15.25 10.0875 15.25 10.5V11.25H16C16.409 11.25 16.75 10.9125 16.75 10.5C16.75 10.0942 16.4058 9.75 16 9.75Z" fill="black"/>
</svg>
