<svg width="24" height="24" viewBox="0 0 24 24" fill="none" xmlns="http://www.w3.org/2000/svg">
<path fill-rule="evenodd" clip-rule="evenodd" d="M12 2.75C6.89137 2.75 2.75 6.89137 2.75 12C2.75 17.1086 6.89137 21.25 12 21.25C17.1086 21.25 21.25 17.1086 21.25 12C21.25 6.89137 17.1086 2.75 12 2.75ZM1.25 12C1.25 6.06294 6.06294 1.25 12 1.25C17.9371 1.25 22.75 6.06294 22.75 12C22.75 17.9371 17.9371 22.75 12 22.75C6.06294 22.75 1.25 17.9371 1.25 12Z" fill="black"/>
<path fill-rule="evenodd" clip-rule="evenodd" d="M17.0749 11.2177C14.076 9.1559 10.2364 8.69014 6.87165 9.99865C6.4856 10.1488 6.05094 9.95753 5.90081 9.57148C5.75068 9.18543 5.94193 8.75077 6.32798 8.60064C10.1632 7.10915 14.5237 7.6434 17.9247 9.98162C18.266 10.2163 18.3525 10.6832 18.1178 11.0245C17.8832 11.3659 17.4162 11.4523 17.0749 11.2177Z" fill="black"/>
<path fill-rule="evenodd" clip-rule="evenodd" d="M15.4538 14.0034C13.3781 12.4692 10.6482 12.1821 8.1601 13.1036C7.77168 13.2475 7.34017 13.0492 7.19631 12.6608C7.05244 12.2723 7.2507 11.8408 7.63913 11.697C10.5511 10.6185 13.8211 10.9314 16.3454 12.7971C16.6785 13.0434 16.749 13.513 16.5027 13.8461C16.2565 14.1792 15.7869 14.2496 15.4538 14.0034Z" fill="black"/>
<path fill-rule="evenodd" clip-rule="evenodd" d="M14.384 16.7238C12.7726 15.6496 10.8311 15.3951 9.07855 16.0961C8.69396 16.2499 8.25748 16.0629 8.10365 15.6783C7.94981 15.2937 8.13687 14.8572 8.52146 14.7034C10.7689 13.8044 13.2274 14.1499 15.216 15.4757C15.5607 15.7055 15.6538 16.1711 15.424 16.5158C15.1943 16.8604 14.7286 16.9536 14.384 16.7238Z" fill="black"/>
</svg>
