<svg width="24" height="24" viewBox="0 0 24 24" fill="none" xmlns="http://www.w3.org/2000/svg">
<path fill-rule="evenodd" clip-rule="evenodd" d="M6.75 10.5C6.75 10.0858 7.08579 9.75 7.5 9.75H16.5C16.9142 9.75 17.25 10.0858 17.25 10.5C17.25 10.9142 16.9142 11.25 16.5 11.25H7.5C7.08579 11.25 6.75 10.9142 6.75 10.5Z" fill="black"/>
<path fill-rule="evenodd" clip-rule="evenodd" d="M8.56997 5.88564C8.9093 5.6481 9.37695 5.73063 9.61449 6.06997L12.4145 10.07C12.652 10.4093 12.5695 10.877 12.2302 11.1145C11.8908 11.352 11.4232 11.2695 11.1856 10.9302L8.38564 6.93016C8.1481 6.59082 8.23063 6.12318 8.56997 5.88564Z" fill="black"/>
<path fill-rule="evenodd" clip-rule="evenodd" d="M15.2302 5.88564C15.5695 6.12318 15.652 6.59082 15.4145 6.93016L12.6145 10.9302C12.377 11.2695 11.9093 11.352 11.57 11.1145C11.2306 10.877 11.1481 10.4093 11.3856 10.07L14.1856 6.06997C14.4232 5.73063 14.8908 5.6481 15.2302 5.88564Z" fill="black"/>
<path fill-rule="evenodd" clip-rule="evenodd" d="M6.75 13.5C6.75 13.0858 7.08579 12.75 7.5 12.75H16.5C16.9142 12.75 17.25 13.0858 17.25 13.5C17.25 13.9142 16.9142 14.25 16.5 14.25H7.5C7.08579 14.25 6.75 13.9142 6.75 13.5Z" fill="black"/>
<path fill-rule="evenodd" clip-rule="evenodd" d="M12.2302 12.8856C12.5695 13.1232 12.652 13.5908 12.4145 13.9302L9.61449 17.9302C9.37695 18.2695 8.9093 18.352 8.56997 18.1145C8.23063 17.877 8.1481 17.4093 8.38564 17.07L11.1856 13.07C11.4232 12.7306 11.8908 12.6481 12.2302 12.8856Z" fill="black"/>
<path fill-rule="evenodd" clip-rule="evenodd" d="M11.57 12.8856C11.9093 12.6481 12.377 12.7306 12.6145 13.07L15.4145 17.07C15.652 17.4093 15.5695 17.877 15.2302 18.1145C14.8908 18.352 14.4232 18.2695 14.1856 17.9302L11.3856 13.9302C11.1481 13.5908 11.2306 13.1232 11.57 12.8856Z" fill="black"/>
<path fill-rule="evenodd" clip-rule="evenodd" d="M12 2.75C6.89137 2.75 2.75 6.89137 2.75 12C2.75 17.1086 6.89137 21.25 12 21.25C17.1086 21.25 21.25 17.1086 21.25 12C21.25 6.89137 17.1086 2.75 12 2.75ZM1.25 12C1.25 6.06294 6.06294 1.25 12 1.25C17.9371 1.25 22.75 6.06294 22.75 12C22.75 17.9371 17.9371 22.75 12 22.75C6.06294 22.75 1.25 17.9371 1.25 12Z" fill="black"/>
</svg>
