<svg width="24" height="24" viewBox="0 0 24 24" fill="none" xmlns="http://www.w3.org/2000/svg">
<path fill-rule="evenodd" clip-rule="evenodd" d="M14.002 4.8125C13.9234 4.8125 13.6252 4.88288 13.303 5.54012L13.3004 5.54542L11.8918 8.36244C11.73 8.69249 11.4628 8.97042 11.1922 9.17175C10.9206 9.37379 10.5758 9.55052 10.2108 9.61011L7.6641 10.0296C6.97971 10.1477 6.81348 10.4073 6.78381 10.5C6.75457 10.5913 6.73785 10.8976 7.22987 11.3897L9.22778 13.3876C9.49914 13.6672 9.68069 14.034 9.78068 14.384C9.88012 14.732 9.9217 15.1437 9.82966 15.5315L9.26017 17.9893C9.05047 18.8933 9.28173 19.1387 9.31076 19.1598C9.34239 19.1828 9.65069 19.325 10.4473 18.8547L12.8343 17.4365C13.195 17.2193 13.625 17.135 14.0095 17.135C14.394 17.135 14.824 17.2193 15.1848 17.4365L17.5737 18.8559C18.3701 19.3309 18.6769 19.1865 18.7071 19.1644C18.7376 19.1421 18.9685 18.8931 18.7589 17.9895L18.1893 15.5309C18.0982 15.1411 18.1381 14.7274 18.2384 14.3765C18.3385 14.0261 18.5216 13.6573 18.7992 13.3797L20.787 11.3919L20.788 11.3909C21.2807 10.8935 21.2647 10.5844 21.2353 10.4925C21.2063 10.402 21.0426 10.1436 20.3577 10.03L17.8076 9.61002L17.7923 9.60734C17.4396 9.54171 17.1013 9.37046 16.8292 9.16976C16.5597 8.97092 16.2904 8.6952 16.1272 8.36244L14.7196 5.54716C14.3876 4.88788 14.0841 4.8125 14.002 4.8125ZM14.002 3.3125C14.92 3.3125 15.6217 4.00289 16.0595 4.87284L16.0604 4.87459L17.4738 7.7015C17.5008 7.75696 17.5804 7.85985 17.7198 7.96272C17.8546 8.06216 17.9833 8.11576 18.0613 8.13158L20.6014 8.54996C21.5459 8.7064 22.3878 9.17302 22.6638 10.035C22.9393 10.8955 22.5283 11.7661 21.8521 12.4481L21.8499 12.4503L19.8598 14.4403C19.8075 14.4927 19.7306 14.6138 19.6807 14.7885C19.631 14.9625 19.6311 15.1091 19.6498 15.1891L19.6502 15.1907L20.2201 17.6505C20.4605 18.6868 20.3964 19.788 19.5919 20.3756C18.7875 20.9633 17.7198 20.6893 16.8064 20.1448L16.8053 20.1441L14.4114 18.7218C14.3428 18.6803 14.199 18.635 14.0095 18.635C13.8201 18.635 13.6763 18.6803 13.6076 18.7218L13.6026 18.7248L11.2126 20.1448L11.2109 20.1458C10.2981 20.6849 9.23164 20.9572 8.42828 20.3727C7.62237 19.7864 7.55863 18.6866 7.79889 17.6507L8.36889 15.1907L8.3701 15.1856C8.38717 15.1142 8.3887 14.9721 8.33839 14.796C8.28915 14.6237 8.21241 14.4968 8.15409 14.4352L6.16921 12.4503C5.49124 11.7723 5.07951 10.9037 5.35526 10.0425C5.63056 9.18278 6.46898 8.7129 7.41256 8.55081L7.41765 8.54994L9.96902 8.12973C10.0337 8.1192 10.1587 8.07104 10.2969 7.96823C10.4352 7.86537 10.5169 7.75972 10.5453 7.70151L10.5487 7.69456L11.9575 4.87709C12.3854 4.00564 13.0816 3.3125 14.002 3.3125Z" fill="black"/>
<path fill-rule="evenodd" clip-rule="evenodd" d="M1.25 5C1.25 4.58579 1.58579 4.25 2 4.25H8C8.41421 4.25 8.75 4.58579 8.75 5C8.75 5.41421 8.41421 5.75 8 5.75H2C1.58579 5.75 1.25 5.41421 1.25 5Z" fill="black"/>
<path fill-rule="evenodd" clip-rule="evenodd" d="M1.25 19C1.25 18.5858 1.58579 18.25 2 18.25H5C5.41421 18.25 5.75 18.5858 5.75 19C5.75 19.4142 5.41421 19.75 5 19.75H2C1.58579 19.75 1.25 19.4142 1.25 19Z" fill="black"/>
<path fill-rule="evenodd" clip-rule="evenodd" d="M1.25 12C1.25 11.5858 1.58579 11.25 2 11.25H3C3.41421 11.25 3.75 11.5858 3.75 12C3.75 12.4142 3.41421 12.75 3 12.75H2C1.58579 12.75 1.25 12.4142 1.25 12Z" fill="black"/>
</svg>
