<svg width="24" height="24" viewBox="0 0 24 24" fill="none" xmlns="http://www.w3.org/2000/svg">
<path fill-rule="evenodd" clip-rule="evenodd" d="M10.9296 3.84646C10.9295 3.84665 10.9297 3.84627 10.9296 3.84646L9.17154 7.36258C8.9842 7.74342 8.67129 8.06883 8.34993 8.30711C8.02764 8.54607 7.62715 8.74908 7.21504 8.81906L7.2124 8.81951L4.02278 9.34944C4.02265 9.34946 4.02291 9.34942 4.02278 9.34944C3.13318 9.4978 2.84338 9.84815 2.77644 10.0578C2.70925 10.2682 2.74281 10.7223 3.37981 11.3593L5.85981 13.8393C6.1822 14.1617 6.39785 14.5928 6.51677 15.0082C6.63579 15.424 6.68029 15.9021 6.58132 16.3437L6.58021 16.3486L5.87019 19.4186C5.60577 20.5613 5.87323 20.9784 6.00906 21.0775C6.14547 21.1771 6.62583 21.3046 7.63672 20.7047L10.6323 18.9314C11.0483 18.6894 11.5463 18.5896 12.0032 18.5896C12.4593 18.5896 12.9576 18.6891 13.3715 18.9343C13.3714 18.9342 13.3716 18.9343 13.3715 18.9343L16.3609 20.7039C16.3607 20.7038 16.3611 20.704 16.3609 20.7039C17.38 21.3057 17.8599 21.1788 17.9939 21.0811C18.1266 20.9844 18.3941 20.5698 18.1286 19.4181L17.4176 16.3437C17.3187 15.9021 17.3632 15.424 17.4822 15.0082C17.6011 14.5928 17.8168 14.1617 18.1391 13.8393L20.6191 11.3593L20.621 11.3575C21.2622 10.7207 21.2938 10.2678 21.2267 10.0592C21.1591 9.84889 20.8669 9.49798 19.9766 9.34951C19.9764 9.34949 19.9767 9.34953 19.9766 9.34951L16.7866 8.81951C16.3702 8.75011 15.9666 8.54787 15.6417 8.30815C15.3181 8.0694 15.0049 7.74368 14.8174 7.36263L13.058 3.84365C12.6372 2.99763 12.2095 2.82715 11.9982 2.82715C11.7856 2.82715 11.3553 2.99979 10.9296 3.84646ZM14.4007 3.17499C13.8715 2.11134 13.0442 1.32715 11.9982 1.32715C10.9534 1.32715 10.1236 2.11 9.58936 3.17284L7.82866 6.69424L7.82593 6.69975C7.77311 6.8076 7.64682 6.9611 7.45653 7.10219C7.26689 7.2428 7.08291 7.31975 6.96498 7.34005C6.96463 7.34011 6.96427 7.34017 6.96392 7.34023L3.77656 7.86979C2.62645 8.06147 1.66057 8.62118 1.34752 9.6015C1.03471 10.5811 1.49615 11.597 2.31915 12.42L4.79915 14.9C4.89676 14.9976 5.00611 15.1815 5.07469 15.4211C5.14285 15.6592 5.14862 15.8751 5.11807 16.0137C5.11793 16.0143 5.11778 16.015 5.11764 16.0156L4.40879 19.0806C4.40878 19.0806 4.4088 19.0805 4.40879 19.0806C4.11324 20.3578 4.21575 21.6259 5.1249 22.2893C6.03349 22.9522 7.27313 22.6647 8.40225 21.9946L11.3867 20.2279C11.3873 20.2275 11.3879 20.2272 11.3885 20.2268C11.5228 20.1494 11.7438 20.0896 12.0032 20.0896C12.2645 20.0896 12.4811 20.1502 12.6071 20.2249L15.5974 21.995C16.7279 22.6628 17.969 22.9555 18.8776 22.2932C19.7874 21.6299 19.8849 20.3595 19.5903 19.0812L18.8813 16.0156C18.8812 16.015 18.881 16.0143 18.8809 16.0137C18.8503 15.8751 18.8561 15.6592 18.9243 15.4211C18.9929 15.1815 19.1022 14.9976 19.1998 14.9L21.678 12.4218C21.6783 12.4214 21.6787 12.4211 21.679 12.4208C22.5072 11.5978 22.9701 10.5811 22.6548 9.60014C22.3398 8.62044 21.3721 8.06141 20.2228 7.86985L17.0328 7.33985C17.0327 7.33983 17.0329 7.33987 17.0328 7.33985M14.4007 3.17499C14.4006 3.17477 14.4008 3.17521 14.4007 3.17499V3.17499Z" fill="black"/>
</svg>
