<svg width="24" height="24" viewBox="0 0 24 24" fill="none" xmlns="http://www.w3.org/2000/svg">
<path fill-rule="evenodd" clip-rule="evenodd" d="M11.9907 2.82715C11.7794 2.82715 11.3518 2.99763 10.931 3.84365L9.17154 7.36258C8.9842 7.74342 8.67129 8.06883 8.34993 8.30711C8.02764 8.54607 7.62715 8.74908 7.21504 8.81906L7.2124 8.81951L4.02278 9.34944C3.13318 9.4978 2.84338 9.84815 2.77644 10.0578C2.70925 10.2682 2.74281 10.7223 3.37981 11.3593L5.85981 13.8393C6.1822 14.1617 6.39785 14.5928 6.51677 15.0082C6.63579 15.424 6.68029 15.9021 6.58132 16.3437L6.58029 16.3483L6.01027 18.8183C5.91713 19.2219 5.51444 19.4736 5.11084 19.3804C4.70723 19.2873 4.45555 18.8846 4.54869 18.481L5.11764 16.0156L5.11805 16.0138C5.14862 15.8753 5.14287 15.6592 5.07469 15.4211C5.00611 15.1815 4.89676 14.9976 4.79915 14.9L2.31915 12.42C1.49615 11.597 1.03471 10.5811 1.34752 9.6015C1.66057 8.62118 2.62608 8.06154 3.77618 7.86985L6.96392 7.34023L6.96498 7.34005C7.08291 7.31975 7.26689 7.2428 7.45653 7.10219C7.64682 6.9611 7.77311 6.8076 7.82593 6.69975L7.82864 6.69423L9.58796 3.17565C10.1172 2.112 10.9447 1.32715 11.9907 1.32715C13.0356 1.32715 13.8654 2.11 14.3996 3.17284L14.4003 3.17424L16.1662 6.70601C16.2061 6.78947 16.3169 6.92598 16.5171 7.09143C16.8365 7.35523 16.8815 7.82797 16.6177 8.14731C16.3539 8.46665 15.8812 8.51167 15.5618 8.24787C15.3037 8.0346 14.9967 7.7334 14.8161 7.35998L13.0594 3.84646C12.6337 2.99979 12.2033 2.82715 11.9907 2.82715Z" fill="black"/>
<path fill-rule="evenodd" clip-rule="evenodd" d="M19.3599 8.48717C19.4279 8.07859 19.8144 7.80258 20.2229 7.87067C21.3723 8.06223 22.34 8.62126 22.6549 9.60096C22.9702 10.582 22.5073 11.5987 21.6791 12.4217L21.6782 12.4226L19.2 14.9008C19.1024 14.9984 18.993 15.1823 18.9244 15.4219C18.8563 15.66 18.8505 15.8759 18.8811 16.0145L19.5904 19.0815C19.8849 20.3597 19.7875 21.6308 18.8777 22.294C17.9692 22.9563 16.7287 22.664 15.5982 21.9962L12.6076 20.2259C12.4815 20.1512 12.2647 20.0905 12.0034 20.0905C11.7441 20.0905 11.523 20.1502 11.3888 20.2276L8.4017 21.9959C8.04526 22.2069 7.58526 22.089 7.37426 21.7325C7.16325 21.3761 7.28115 20.9161 7.63759 20.7051L10.6325 18.9322C11.0484 18.6902 11.5465 18.5905 12.0034 18.5905C12.4596 18.5905 12.9581 18.6899 13.372 18.9352L16.3611 20.7047C17.3806 21.307 17.8601 21.1796 17.9941 21.0819C18.1268 20.9852 18.3942 20.5706 18.1288 19.4189L17.4178 16.3445C17.3188 15.903 17.3633 15.4248 17.4824 15.0091C17.6013 14.5936 17.8169 14.1625 18.1393 13.8401L20.6193 11.3601L20.6211 11.3583C21.2623 10.7215 21.2939 10.2686 21.2269 10.06C21.1593 9.84968 20.867 9.4987 19.9763 9.35026C19.5678 9.28217 19.2918 8.89575 19.3599 8.48717Z" fill="black"/>
<path fill-rule="evenodd" clip-rule="evenodd" d="M22.5303 1.46967C22.8232 1.76256 22.8232 2.23744 22.5303 2.53033L2.53033 22.5303C2.23744 22.8232 1.76256 22.8232 1.46967 22.5303C1.17678 22.2374 1.17678 21.7626 1.46967 21.4697L21.4697 1.46967C21.7626 1.17678 22.2374 1.17678 22.5303 1.46967Z" fill="black"/>
</svg>
