<svg width="24" height="24" viewBox="0 0 24 24" fill="none" xmlns="http://www.w3.org/2000/svg">
<path fill-rule="evenodd" clip-rule="evenodd" d="M2.22764 14.2538C2.62316 14.1307 3.04353 14.3516 3.16655 14.7472C4.15633 17.9292 6.82164 20.3804 10.1303 21.055C10.5361 21.1378 10.798 21.5339 10.7153 21.9398C10.6325 22.3456 10.2364 22.6076 9.83055 22.5248C5.97916 21.7395 2.88447 18.8906 1.73424 15.1927C1.61121 14.7972 1.83212 14.3768 2.22764 14.2538Z" fill="black"/>
<path fill-rule="evenodd" clip-rule="evenodd" d="M11.9999 2.75C7.20816 2.75 3.26771 6.38518 2.79607 11.0554C2.75445 11.4675 2.38662 11.7678 1.9745 11.7262C1.56239 11.6846 1.26204 11.3168 1.30366 10.9046C1.85202 5.47482 6.43156 1.25 11.9999 1.25C17.5688 1.25 22.1477 5.48538 22.696 10.9045C22.7377 11.3166 22.4375 11.6845 22.0254 11.7262C21.6133 11.7679 21.2454 11.4676 21.2037 11.0555C20.732 6.39462 16.791 2.75 11.9999 2.75Z" fill="black"/>
<path fill-rule="evenodd" clip-rule="evenodd" d="M21.7671 14.305C22.1618 14.4304 22.3801 14.8521 22.2547 15.2469C21.0833 18.9331 17.9993 21.7495 14.1602 22.5345C13.7543 22.6175 13.3581 22.3558 13.2751 21.95C13.1921 21.5442 13.4538 21.1479 13.8597 21.0649C17.1605 20.39 19.8165 17.9664 20.8251 14.7926C20.9506 14.3978 21.3723 14.1795 21.7671 14.305Z" fill="black"/>
</svg>
