<svg width="24" height="24" viewBox="0 0 24 24" fill="none" xmlns="http://www.w3.org/2000/svg">
<path fill-rule="evenodd" clip-rule="evenodd" d="M3.0498 11.9998C3.0498 7.09157 6.97964 3.0498 11.9998 3.0498C13.7269 3.0498 15.3651 3.48244 16.7929 4.36106C17.1456 4.57815 17.2556 5.04011 17.0385 5.39288C16.8215 5.74565 16.3595 5.85564 16.0067 5.63855C14.8345 4.91717 13.4727 4.5498 11.9998 4.5498C7.81997 4.5498 4.5498 7.90804 4.5498 11.9998C4.5498 12.7322 4.64067 13.3628 4.82095 13.9938C4.93474 14.392 4.70412 14.8072 4.30585 14.9209C3.90757 15.0347 3.49245 14.8041 3.37866 14.4058C3.15894 13.6368 3.0498 12.8674 3.0498 11.9998Z" fill="black"/>
<path fill-rule="evenodd" clip-rule="evenodd" d="M19.7178 8.97277C20.1197 8.8723 20.5269 9.11662 20.6273 9.51847C20.8417 10.3761 20.9497 11.2372 20.9497 12.1004C20.9497 17.0086 17.0199 21.0504 11.9997 21.0504C10.2406 21.0504 8.60625 20.5004 7.20664 19.6391C6.85387 19.422 6.74388 18.9601 6.96097 18.6073C7.17806 18.2545 7.64002 18.1445 7.99279 18.3616C9.19318 19.1003 10.5588 19.5504 11.9997 19.5504C16.1795 19.5504 19.4497 16.1921 19.4497 12.1004C19.4497 11.3636 19.3577 10.6246 19.1721 9.88227C19.0716 9.48043 19.316 9.07323 19.7178 8.97277Z" fill="black"/>
<path fill-rule="evenodd" clip-rule="evenodd" d="M22.6573 4.6387C22.8569 5.00164 22.7245 5.45768 22.3616 5.6573L2.36158 16.6573C1.99864 16.8569 1.54259 16.7245 1.34298 16.3616C1.14336 15.9986 1.27576 15.5426 1.6387 15.343L21.6387 4.34298C22.0016 4.14336 22.4577 4.27576 22.6573 4.6387Z" fill="black"/>
<path fill-rule="evenodd" clip-rule="evenodd" d="M22.6573 8.1387C22.8569 8.50164 22.7245 8.95768 22.3616 9.1573L2.36158 20.1573C1.99864 20.3569 1.54259 20.2245 1.34298 19.8616C1.14336 19.4986 1.27576 19.0426 1.6387 18.843L21.6387 7.84298C22.0016 7.64336 22.4577 7.77576 22.6573 8.1387Z" fill="black"/>
</svg>
