<svg width="24" height="24" viewBox="0 0 24 24" fill="none" xmlns="http://www.w3.org/2000/svg">
<path fill-rule="evenodd" clip-rule="evenodd" d="M11.9697 2.75C6.86109 2.75 2.71973 6.89137 2.71973 12C2.71973 17.1086 6.86109 21.25 11.9697 21.25C17.0784 21.25 21.2197 17.1086 21.2197 12C21.2197 6.89137 17.0784 2.75 11.9697 2.75ZM1.21973 12C1.21973 6.06294 6.03267 1.25 11.9697 1.25C17.9068 1.25 22.7197 6.06294 22.7197 12C22.7197 17.9371 17.9068 22.75 11.9697 22.75C6.03267 22.75 1.21973 17.9371 1.21973 12Z" fill="black"/>
<path fill-rule="evenodd" clip-rule="evenodd" d="M7.9235 7.92865C8.608 7.24236 9.59527 7.01953 10.7295 7.01953H13.2695C14.3978 7.01953 15.3845 7.23943 16.0704 7.9235C16.7567 8.608 16.9795 9.59527 16.9795 10.7295V13.2695C16.9795 14.3978 16.7596 15.3845 16.0756 16.0704C15.3911 16.7567 14.4038 16.9795 13.2695 16.9795H10.7295C9.59927 16.9795 8.61312 16.7563 7.92795 16.0711C7.24278 15.3859 7.01953 14.3998 7.01953 13.2695V10.7295C7.01953 9.60128 7.23943 8.61453 7.9235 7.92865ZM8.98556 8.98791C8.71964 9.25454 8.51953 9.74778 8.51953 10.7295V13.2695C8.51953 14.2493 8.72128 14.7431 8.98861 15.0105C9.25594 15.2778 9.7498 15.4795 10.7295 15.4795H13.2695C14.2553 15.4795 14.748 15.2774 15.0135 15.0111C15.2794 14.7445 15.4795 14.2513 15.4795 13.2695V10.7295C15.4795 9.74379 15.2774 9.25107 15.0111 8.98556C14.7445 8.71964 14.2513 8.51953 13.2695 8.51953H10.7295C9.74379 8.51953 9.25107 8.72171 8.98556 8.98791Z" fill="black"/>
</svg>
