<svg width="22" height="22" viewBox="0 0 22 22" fill="none" xmlns="http://www.w3.org/2000/svg">
<path fill-rule="evenodd" clip-rule="evenodd" d="M6.42718 0.317429C6.87087 0.133038 7.38122 0 7.85001 0H13.65C14.1188 0 14.6291 0.133038 15.0728 0.317429C15.5166 0.501873 15.9701 0.769419 16.3003 1.09967L20.4003 5.19968C20.7306 5.52994 20.9981 5.98337 21.1826 6.42718C21.367 6.87087 21.5 7.38122 21.5 7.85001V13.65C21.5 14.1188 21.367 14.6291 21.1826 15.0728C20.9981 15.5166 20.7306 15.9701 20.4003 16.3003L16.3003 20.4003C15.9701 20.7306 15.5166 20.9981 15.0728 21.1826C14.6291 21.367 14.1188 21.5 13.65 21.5H7.85001C7.38122 21.5 6.87087 21.367 6.42718 21.1826C5.98336 20.9981 5.52992 20.7306 5.19967 20.4003L1.09967 16.3003C0.769421 15.9701 0.501875 15.5166 0.31743 15.0728C0.133038 14.6291 0 14.1188 0 13.65V7.85001C0 7.38122 0.133038 6.87087 0.31743 6.42718C0.501875 5.98337 0.76942 5.52994 1.09967 5.19968L5.19966 1.09968C5.52992 0.76942 5.98336 0.501873 6.42718 0.317429ZM7.00282 1.70258C6.67664 1.83813 6.41007 2.01059 6.26033 2.16034L2.16034 6.26034C2.01059 6.41009 1.83813 6.67665 1.70257 7.00283C1.56696 7.32914 1.5 7.6388 1.5 7.85001V13.65C1.5 13.8612 1.56696 14.1709 1.70257 14.4972C1.83813 14.8233 2.01059 15.0899 2.16034 15.2397L6.26033 19.3397C6.41007 19.4894 6.67664 19.6619 7.00282 19.7974C7.32914 19.933 7.63879 20 7.85001 20H13.65C13.8612 20 14.1709 19.933 14.4972 19.7974C14.8234 19.6619 15.0899 19.4894 15.2397 19.3397L19.3397 15.2397C19.4894 15.0899 19.6619 14.8233 19.7974 14.4972C19.933 14.1709 20 13.8612 20 13.65V7.85001C20 7.6388 19.933 7.32914 19.7974 7.00283C19.6619 6.67665 19.4894 6.41009 19.3397 6.26034L15.2397 2.16034C15.0899 2.01059 14.8234 1.83813 14.4972 1.70258C14.1709 1.56696 13.8612 1.5 13.65 1.5H7.85001C7.63879 1.5 7.32914 1.56696 7.00282 1.70258Z" fill="black"/>
<path fill-rule="evenodd" clip-rule="evenodd" d="M14.7803 6.71967C15.0732 7.01256 15.0732 7.48744 14.7803 7.78033L7.78033 14.7803C7.48744 15.0732 7.01256 15.0732 6.71967 14.7803C6.42678 14.4874 6.42678 14.0126 6.71967 13.7197L13.7197 6.71967C14.0126 6.42678 14.4874 6.42678 14.7803 6.71967Z" fill="black"/>
<path fill-rule="evenodd" clip-rule="evenodd" d="M6.71967 6.71967C7.01256 6.42678 7.48744 6.42678 7.78033 6.71967L14.7803 13.7197C15.0732 14.0126 15.0732 14.4874 14.7803 14.7803C14.4874 15.0732 14.0126 15.0732 13.7197 14.7803L6.71967 7.78033C6.42678 7.48744 6.42678 7.01256 6.71967 6.71967Z" fill="black"/>
</svg>
