<svg width="24" height="24" viewBox="0 0 24 24" fill="none" xmlns="http://www.w3.org/2000/svg">
<path fill-rule="evenodd" clip-rule="evenodd" d="M3.09467 3.09467C4.42914 1.7602 6.42603 1.25 9 1.25H15C17.574 1.25 19.5709 1.7602 20.9053 3.09467C22.2398 4.42914 22.75 6.42603 22.75 9V15C22.75 17.574 22.2398 19.5709 20.9053 20.9053C19.5709 22.2398 17.574 22.75 15 22.75H9C6.42603 22.75 4.42914 22.2398 3.09467 20.9053C1.7602 19.5709 1.25 17.574 1.25 15V9C1.25 6.42603 1.7602 4.42914 3.09467 3.09467ZM4.15533 4.15533C3.2398 5.07086 2.75 6.57397 2.75 9V15C2.75 17.426 3.2398 18.9291 4.15533 19.8447C5.07086 20.7602 6.57397 21.25 9 21.25H15C17.426 21.25 18.9291 20.7602 19.8447 19.8447C20.7602 18.9291 21.25 17.426 21.25 15V9C21.25 6.57397 20.7602 5.07086 19.8447 4.15533C18.9291 3.2398 17.426 2.75 15 2.75H9C6.57397 2.75 5.07086 3.2398 4.15533 4.15533Z" fill="black"/>
<path fill-rule="evenodd" clip-rule="evenodd" d="M12.4484 9.00458C11.3512 8.71293 10.3711 9.52521 10.3711 10.5598C10.3711 10.64 10.3779 10.7147 10.389 10.7756L10.3917 10.7903L10.3938 10.8052C10.4609 11.2815 10.7438 11.6925 11.1466 11.9425L11.5011 12.1625V14.5598C11.5011 14.8355 11.7253 15.0598 12.0011 15.0598C12.2769 15.0598 12.5011 14.8355 12.5011 14.5598V12.1625L12.8556 11.9425C13.2584 11.6925 13.5413 11.2815 13.6084 10.8052L13.6095 10.7977L13.6107 10.7903C13.6448 10.5787 13.6375 10.3571 13.5775 10.1371L13.5756 10.1302C13.4344 9.59199 12.9889 9.14645 12.4507 9.00518L12.4484 9.00458ZM12.8327 7.55463C10.7703 7.00714 8.87109 8.55466 8.87109 10.5598C8.87109 10.7145 8.88344 10.8744 8.91049 11.0288C9.02458 11.812 9.43104 12.4877 10.0011 12.9615V14.5598C10.0011 15.664 10.8969 16.5598 12.0011 16.5598C13.1053 16.5598 14.0011 15.664 14.0011 14.5598V12.9615C14.5729 12.4863 14.98 11.8079 15.0927 11.0218C15.1571 10.6166 15.144 10.1821 15.0256 9.7459C14.746 8.68608 13.8928 7.83337 12.8327 7.55463Z" fill="black"/>
<path fill-rule="evenodd" clip-rule="evenodd" d="M14.3516 10.1602H22.0016V11.6602H14.3516V10.1602Z" fill="black"/>
<path fill-rule="evenodd" clip-rule="evenodd" d="M2 10.1602H9.64999V11.6602H2V10.1602Z" fill="black"/>
</svg>
