<svg width="24" height="24" viewBox="0 0 24 24" fill="none" xmlns="http://www.w3.org/2000/svg">
<path fill-rule="evenodd" clip-rule="evenodd" d="M3.09467 3.09467C4.42914 1.7602 6.42603 1.25 9 1.25H15C17.574 1.25 19.5709 1.7602 20.9053 3.09467C22.2398 4.42914 22.75 6.42603 22.75 9V15C22.75 17.574 22.2398 19.5709 20.9053 20.9053C19.5709 22.2398 17.574 22.75 15 22.75H9C6.42603 22.75 4.42914 22.2398 3.09467 20.9053C1.7602 19.5709 1.25 17.574 1.25 15V9C1.25 6.42603 1.7602 4.42914 3.09467 3.09467ZM4.15533 4.15533C3.2398 5.07086 2.75 6.57397 2.75 9V15C2.75 17.426 3.2398 18.9291 4.15533 19.8447C5.07086 20.7602 6.57397 21.25 9 21.25H15C17.426 21.25 18.9291 20.7602 19.8447 19.8447C20.7602 18.9291 21.25 17.426 21.25 15V9C21.25 6.57397 20.7602 5.07086 19.8447 4.15533C18.9291 3.2398 17.426 2.75 15 2.75H9C6.57397 2.75 5.07086 3.2398 4.15533 4.15533Z" fill="black"/>
<path fill-rule="evenodd" clip-rule="evenodd" d="M5.21967 5.21967C5.90993 4.52941 6.88439 4.25 8 4.25H16C17.1156 4.25 18.0901 4.52941 18.7803 5.21967C19.4706 5.90993 19.75 6.88439 19.75 8V16C19.75 17.1156 19.4706 18.0901 18.7803 18.7803C18.0901 19.4706 17.1156 19.75 16 19.75H8C6.88439 19.75 5.90993 19.4706 5.21967 18.7803C4.52941 18.0901 4.25 17.1156 4.25 16V8C4.25 6.88439 4.52941 5.90993 5.21967 5.21967ZM6.28033 6.28033C5.97059 6.59007 5.75 7.11561 5.75 8V16C5.75 16.8844 5.97059 17.4099 6.28033 17.7197C6.59007 18.0294 7.11561 18.25 8 18.25H16C16.8844 18.25 17.4099 18.0294 17.7197 17.7197C18.0294 17.4099 18.25 16.8844 18.25 16V8C18.25 7.11561 18.0294 6.59007 17.7197 6.28033C17.4099 5.97059 16.8844 5.75 16 5.75H8C7.11561 5.75 6.59007 5.97059 6.28033 6.28033Z" fill="black"/>
<path fill-rule="evenodd" clip-rule="evenodd" d="M4.25 9.5C4.25 9.08579 4.58579 8.75 5 8.75H7.48C9.27421 8.75 10.73 10.2058 10.73 12C10.73 13.7942 9.27421 15.25 7.48 15.25H5C4.58579 15.25 4.25 14.9142 4.25 14.5C4.25 14.0858 4.58579 13.75 5 13.75H7.48C8.44578 13.75 9.23 12.9658 9.23 12C9.23 11.0342 8.44578 10.25 7.48 10.25H5C4.58579 10.25 4.25 9.91421 4.25 9.5Z" fill="black"/>
<path fill-rule="evenodd" clip-rule="evenodd" d="M15.25 9.99023C15.25 9.57602 15.5858 9.24023 16 9.24023H19C19.4142 9.24023 19.75 9.57602 19.75 9.99023C19.75 10.4044 19.4142 10.7402 19 10.7402H16C15.5858 10.7402 15.25 10.4044 15.25 9.99023Z" fill="black"/>
<path fill-rule="evenodd" clip-rule="evenodd" d="M15.25 14C15.25 13.5858 15.5858 13.25 16 13.25H19C19.4142 13.25 19.75 13.5858 19.75 14C19.75 14.4142 19.4142 14.75 19 14.75H16C15.5858 14.75 15.25 14.4142 15.25 14Z" fill="black"/>
<path fill-rule="evenodd" clip-rule="evenodd" d="M6.2002 12C6.2002 11.4477 6.64791 11 7.2002 11H7.3002C7.85248 11 8.3002 11.4477 8.3002 12C8.3002 12.5523 7.85248 13 7.3002 13H7.2002C6.64791 13 6.2002 12.5523 6.2002 12Z" fill="black"/>
</svg>
