<svg width="24" height="24" viewBox="0 0 24 24" fill="none" xmlns="http://www.w3.org/2000/svg">
<path fill-rule="evenodd" clip-rule="evenodd" d="M3.09467 3.09467C4.42914 1.7602 6.42603 1.25 9 1.25H15C17.574 1.25 19.5709 1.7602 20.9053 3.09467C22.2398 4.42914 22.75 6.42603 22.75 9V15C22.75 17.574 22.2398 19.5709 20.9053 20.9053C19.5709 22.2398 17.574 22.75 15 22.75H9C6.42603 22.75 4.42914 22.2398 3.09467 20.9053C1.7602 19.5709 1.25 17.574 1.25 15V9C1.25 6.42603 1.7602 4.42914 3.09467 3.09467ZM4.15533 4.15533C3.2398 5.07086 2.75 6.57397 2.75 9V15C2.75 17.426 3.2398 18.9291 4.15533 19.8447C5.07086 20.7602 6.57397 21.25 9 21.25H15C17.426 21.25 18.9291 20.7602 19.8447 19.8447C20.7602 18.9291 21.25 17.426 21.25 15V9C21.25 6.57397 20.7602 5.07086 19.8447 4.15533C18.9291 3.2398 17.426 2.75 15 2.75H9C6.57397 2.75 5.07086 3.2398 4.15533 4.15533Z" fill="black"/>
<path fill-rule="evenodd" clip-rule="evenodd" d="M14.9004 17.0801C14.9004 16.6659 15.2362 16.3301 15.6504 16.3301H17.5004C17.9146 16.3301 18.2504 16.6659 18.2504 17.0801C18.2504 17.4943 17.9146 17.8301 17.5004 17.8301H15.6504C15.2362 17.8301 14.9004 17.4943 14.9004 17.0801Z" fill="black"/>
<path fill-rule="evenodd" clip-rule="evenodd" d="M5.75 17.0801C5.75 16.6659 6.08579 16.3301 6.5 16.3301H12.97C13.3842 16.3301 13.72 16.6659 13.72 17.0801C13.72 17.4943 13.3842 17.8301 12.97 17.8301H6.5C6.08579 17.8301 5.75 17.4943 5.75 17.0801Z" fill="black"/>
<path fill-rule="evenodd" clip-rule="evenodd" d="M11.2197 13.3203C11.2197 12.9061 11.5555 12.5703 11.9697 12.5703H17.4997C17.9139 12.5703 18.2497 12.9061 18.2497 13.3203C18.2497 13.7345 17.9139 14.0703 17.4997 14.0703H11.9697C11.5555 14.0703 11.2197 13.7345 11.2197 13.3203Z" fill="black"/>
<path fill-rule="evenodd" clip-rule="evenodd" d="M5.75 13.3203C5.75 12.9061 6.08579 12.5703 6.5 12.5703H9.27C9.68421 12.5703 10.02 12.9061 10.02 13.3203C10.02 13.7345 9.68421 14.0703 9.27 14.0703H6.5C6.08579 14.0703 5.75 13.7345 5.75 13.3203Z" fill="black"/>
</svg>
