<svg width="24" height="24" viewBox="0 0 24 24" fill="none" xmlns="http://www.w3.org/2000/svg">
<path fill-rule="evenodd" clip-rule="evenodd" d="M12 2.25C12.4142 2.25 12.75 2.58579 12.75 3V8.5C12.75 8.91421 12.4142 9.25 12 9.25C11.5858 9.25 11.25 8.91421 11.25 8.5V3C11.25 2.58579 11.5858 2.25 12 2.25Z" fill="black"/>
<path fill-rule="evenodd" clip-rule="evenodd" d="M12 14.75C12.4142 14.75 12.75 15.0858 12.75 15.5V21C12.75 21.4142 12.4142 21.75 12 21.75C11.5858 21.75 11.25 21.4142 11.25 21V15.5C11.25 15.0858 11.5858 14.75 12 14.75Z" fill="black"/>
<path fill-rule="evenodd" clip-rule="evenodd" d="M9.25 3C9.25 2.58579 9.58579 2.25 10 2.25H14C14.4142 2.25 14.75 2.58579 14.75 3C14.75 3.41421 14.4142 3.75 14 3.75H10C9.58579 3.75 9.25 3.41421 9.25 3Z" fill="black"/>
<path fill-rule="evenodd" clip-rule="evenodd" d="M9.25 21C9.25 20.5858 9.58579 20.25 10 20.25H14C14.4142 20.25 14.75 20.5858 14.75 21C14.75 21.4142 14.4142 21.75 14 21.75H10C9.58579 21.75 9.25 21.4142 9.25 21Z" fill="black"/>
<path fill-rule="evenodd" clip-rule="evenodd" d="M3.56067 7.12494C3.76788 6.76628 4.22661 6.6435 4.58527 6.85071L9.34527 9.60071C9.70393 9.80792 9.82671 10.2667 9.6195 10.6253C9.41229 10.984 8.95356 11.1067 8.5949 10.8995L3.8349 8.14954C3.47624 7.94233 3.35346 7.4836 3.56067 7.12494Z" fill="black"/>
<path fill-rule="evenodd" clip-rule="evenodd" d="M14.381 13.3749C14.5882 13.0163 15.0469 12.8935 15.4056 13.1007L20.1656 15.8507C20.5242 16.0579 20.647 16.5167 20.4398 16.8753C20.2326 17.234 19.7739 17.3567 19.4152 17.1495L14.6552 14.3995C14.2966 14.1923 14.1738 13.7336 14.381 13.3749Z" fill="black"/>
<path fill-rule="evenodd" clip-rule="evenodd" d="M5.58542 5.12033C5.94403 5.32762 6.0667 5.78638 5.85941 6.14499L3.85941 9.60498C3.65212 9.96359 3.19336 10.0863 2.83475 9.87897C2.47614 9.67168 2.35347 9.21293 2.56076 8.85431L4.56076 5.39432C4.76805 5.03571 5.22681 4.91304 5.58542 5.12033Z" fill="black"/>
<path fill-rule="evenodd" clip-rule="evenodd" d="M21.1655 14.1203C21.5241 14.3276 21.6468 14.7864 21.4395 15.145L19.4395 18.605C19.2322 18.9636 18.7734 19.0863 18.4148 18.879C18.0562 18.6717 17.9335 18.2129 18.1408 17.8543L20.1408 14.3943C20.3481 14.0357 20.8069 13.913 21.1655 14.1203Z" fill="black"/>
<path fill-rule="evenodd" clip-rule="evenodd" d="M9.6195 10.6253C9.38282 11.0359 9.25 11.4975 9.25 12C9.25 12.5026 9.3824 12.9636 9.61909 13.3743C10.1008 14.2027 10.9891 14.75 12 14.75C13.0109 14.75 13.8992 14.2034 14.381 13.3749C14.6177 12.9643 14.75 12.5026 14.75 12C14.75 11.4975 14.6176 11.0364 14.3809 10.6258C13.8992 9.79733 13.011 9.25 12 9.25C10.989 9.25 10.1012 9.79684 9.6195 10.6253ZM8.3215 9.87325C9.05989 8.60225 10.4313 7.75 12 7.75C13.5687 7.75 14.9401 8.60225 15.6785 9.87325L15.6796 9.87521C16.0426 10.5043 16.25 11.223 16.25 12C16.25 12.777 16.0426 13.4957 15.6796 14.1248L15.6785 14.1268C14.9401 15.3978 13.5687 16.25 12 16.25C10.4313 16.25 9.05989 15.3978 8.3215 14.1268L8.32036 14.1248C7.9574 13.4957 7.75 12.777 7.75 12C7.75 11.223 7.9574 10.5043 8.32036 9.87521L8.3215 9.87325Z" fill="black"/>
<path fill-rule="evenodd" clip-rule="evenodd" d="M20.4398 7.12494C20.647 7.4836 20.5242 7.94233 20.1656 8.14954L15.4056 10.8995C15.0469 11.1067 14.5882 10.9845 14.3809 10.6258C14.1737 10.2671 14.2966 9.80792 14.6552 9.60071L19.4152 6.85071C19.7739 6.6435 20.2326 6.76628 20.4398 7.12494Z" fill="black"/>
<path fill-rule="evenodd" clip-rule="evenodd" d="M9.61909 13.3743C9.8263 13.7329 9.70393 14.1923 9.34527 14.3995L4.58527 17.1495C4.22661 17.3567 3.76788 17.234 3.56067 16.8753C3.35346 16.5167 3.47624 16.0579 3.8349 15.8507L8.5949 13.1007C8.95356 12.8935 9.41188 13.0156 9.61909 13.3743Z" fill="black"/>
<path fill-rule="evenodd" clip-rule="evenodd" d="M18.4148 5.12033C18.7734 4.91304 19.2322 5.03571 19.4395 5.39432L21.4395 8.85431C21.6468 9.21293 21.5241 9.67168 21.1655 9.87897C20.8069 10.0863 20.3481 9.96359 20.1408 9.60498L18.1408 6.14499C17.9335 5.78638 18.0562 5.32762 18.4148 5.12033Z" fill="black"/>
<path fill-rule="evenodd" clip-rule="evenodd" d="M2.83475 14.1203C3.19336 13.913 3.65212 14.0357 3.85941 14.3943L5.85941 17.8543C6.0667 18.2129 5.94403 18.6717 5.58542 18.879C5.22681 19.0863 4.76805 18.9636 4.56076 18.605L2.56076 15.145C2.35347 14.7864 2.47614 14.3276 2.83475 14.1203Z" fill="black"/>
</svg>
