<svg width="24" height="24" viewBox="0 0 24 24" fill="none" xmlns="http://www.w3.org/2000/svg">
<path d="M22.75 20.2002C22.7499 21.6084 21.6084 22.7499 20.2002 22.75L3.7998 22.75C2.39163 22.7499 1.2501 21.6084 1.25 20.2002L1.25 3.7998C1.25011 2.39163 2.39163 1.2501 3.7998 1.25L20.2002 1.25C21.6084 1.25011 22.7499 2.39163 22.75 3.7998L22.75 20.2002ZM11.25 2.75L3.7998 2.75C3.22006 2.7501 2.75011 3.22006 2.75 3.7998L2.75 7.75L11.25 7.75L11.25 2.75ZM11.25 9.25L2.75 9.25L2.75 14.75L11.25 14.75L11.25 9.25ZM11.25 16.25L2.75 16.25L2.75 20.2002C2.7501 20.7799 3.22006 21.2499 3.7998 21.25L11.25 21.25L11.25 16.25ZM21.25 3.7998C21.2499 3.22006 20.7799 2.75011 20.2002 2.75L12.75 2.75L12.75 7.75L21.25 7.75L21.25 3.7998ZM12.75 9.25L12.75 14.75L21.25 14.75L21.25 9.25L12.75 9.25ZM12.75 16.25L12.75 21.25L20.2002 21.25C20.7799 21.2499 21.2499 20.7799 21.25 20.2002L21.25 16.25L12.75 16.25Z" fill="black"/>
</svg>
