<svg width="24" height="24" viewBox="0 0 24 24" fill="none" xmlns="http://www.w3.org/2000/svg">
<path fill-rule="evenodd" clip-rule="evenodd" d="M4.21979 3.84961C3.06344 3.84961 2.36121 5.12601 2.9656 6.09172L5.73519 10.5211C5.73506 10.5209 5.73532 10.5214 5.73519 10.5211C6.01123 10.9616 6.1273 11.4959 6.1273 11.9896C6.1273 12.4834 6.01159 13.0171 5.73546 13.4576C5.73537 13.4578 5.73555 13.4575 5.73546 13.4576L2.968 17.8836C2.96766 17.8842 2.96733 17.8847 2.967 17.8852C2.35369 18.8812 3.06449 20.1496 4.21979 20.1496H14.6698C14.8269 20.1496 15.0637 20.0929 15.3144 19.9675C15.5644 19.8425 15.7537 19.6865 15.8508 19.5583C15.8506 19.5585 15.851 19.5581 15.8508 19.5583L21.03 12.6593L21.031 12.658C21.1512 12.4986 21.2405 12.2467 21.253 11.9528C21.2654 11.6602 21.1985 11.3983 21.0922 11.2246C21.0918 11.2239 21.0914 11.2233 21.0911 11.2227L16.914 4.54745L16.9126 4.54513C16.8168 4.39083 16.6232 4.20843 16.361 4.06295C16.0988 3.91749 15.8412 3.84961 15.6598 3.84961H4.21979ZM1.69392 6.88723C0.458602 4.91298 1.89625 2.34961 4.21979 2.34961H15.6598C16.1584 2.34961 16.6658 2.51673 17.0886 2.75126C17.511 2.98559 17.9221 3.3278 18.1864 3.75298C18.1866 3.75335 18.1868 3.75372 18.187 3.75409L22.3686 10.4365C22.6616 10.9128 22.7742 11.4851 22.7516 12.0164C22.7291 12.5472 22.5686 13.1099 22.2293 13.5603C22.2291 13.5606 22.2289 13.5609 22.2286 13.5612L17.0496 20.4599L17.0484 20.4616C16.7753 20.8232 16.3798 21.1119 15.9852 21.3092C15.5909 21.5063 15.1227 21.6496 14.6698 21.6496H4.21979C1.87572 21.6496 0.466762 19.0794 1.69169 17.0956L1.69391 17.092L4.46388 12.662C4.55756 12.5126 4.6273 12.2707 4.6273 11.9896C4.6273 11.7086 4.55809 11.4675 4.46441 11.3181L1.69392 6.88723Z" fill="black"/>
<path fill-rule="evenodd" clip-rule="evenodd" d="M4.21979 3.84961C3.06344 3.84961 2.36121 5.12601 2.9656 6.09172L5.73519 10.5211C5.73506 10.5209 5.73532 10.5214 5.73519 10.5211C6.01123 10.9616 6.1273 11.4959 6.1273 11.9896C6.1273 12.4834 6.01159 13.0171 5.73546 13.4576C5.73537 13.4578 5.73555 13.4575 5.73546 13.4576L2.968 17.8836C2.96766 17.8842 2.96733 17.8847 2.967 17.8852C2.35369 18.8812 3.06449 20.1496 4.21979 20.1496H14.6698C14.8269 20.1496 15.0637 20.0929 15.3144 19.9675C15.5644 19.8425 15.7537 19.6865 15.8508 19.5583C15.8506 19.5585 15.851 19.5581 15.8508 19.5583L21.03 12.6593L21.031 12.658C21.1512 12.4986 21.2405 12.2467 21.253 11.9528C21.2654 11.6602 21.1985 11.3983 21.0922 11.2246C21.0918 11.2239 21.0914 11.2233 21.0911 11.2227L16.914 4.54745L16.9126 4.54513C16.8168 4.39083 16.6232 4.20843 16.361 4.06295C16.0988 3.91749 15.8412 3.84961 15.6598 3.84961H4.21979ZM1.69392 6.88723C0.458602 4.91298 1.89625 2.34961 4.21979 2.34961H15.6598C16.1584 2.34961 16.6658 2.51673 17.0886 2.75126C17.511 2.98559 17.9221 3.3278 18.1864 3.75298C18.1866 3.75335 18.1868 3.75372 18.187 3.75409L22.3686 10.4365C22.6616 10.9128 22.7742 11.4851 22.7516 12.0164C22.7291 12.5472 22.5686 13.1099 22.2293 13.5603C22.2291 13.5606 22.2289 13.5609 22.2286 13.5612L17.0496 20.4599L17.0484 20.4616C16.7753 20.8232 16.3798 21.1119 15.9852 21.3092C15.5909 21.5063 15.1227 21.6496 14.6698 21.6496H4.21979C1.87572 21.6496 0.466762 19.0794 1.69169 17.0956L1.69391 17.092L4.46388 12.662C4.55756 12.5126 4.6273 12.2707 4.6273 11.9896C4.6273 11.7086 4.55809 11.4675 4.46441 11.3181L1.69392 6.88723Z" fill="black"/>
</svg>
