<svg width="24" height="24" viewBox="0 0 24 24" fill="none" xmlns="http://www.w3.org/2000/svg">
<path fill-rule="evenodd" clip-rule="evenodd" d="M6.02423 4.88603C7.11719 3.67847 8.65931 3 10.2797 3H16.9997C20.1739 3 22.7497 5.57579 22.7497 8.75V15.25C22.7497 18.4242 20.1739 21 16.9997 21H10.2797C8.65927 21 7.11711 20.3215 6.02414 19.1139L2.49491 15.2347C0.824635 13.3986 0.824603 10.6014 2.49488 8.76532L6.02352 4.88681L6.02423 4.88603ZM10.2797 4.5C9.08038 4.5 7.94282 5.00124 7.13582 5.89318L7.13443 5.89472L3.60446 9.77468C2.45478 11.0386 2.45475 12.9614 3.60443 14.2253L7.13583 18.1068C7.94282 18.9988 9.08038 19.5 10.2797 19.5H16.9997C19.3455 19.5 21.2497 17.5958 21.2497 15.25V8.75C21.2497 6.40421 19.3455 4.5 16.9997 4.5H10.2797Z" fill="black"/>
<path fill-rule="evenodd" clip-rule="evenodd" d="M10.5302 8.99994C10.8231 8.70705 11.298 8.70705 11.5909 8.99994L16.5309 13.9399C16.8238 14.2328 16.8238 14.7077 16.5309 15.0006C16.238 15.2935 15.7631 15.2935 15.4702 15.0006L10.5302 10.0606C10.2373 9.76771 10.2373 9.29284 10.5302 8.99994Z" fill="black"/>
<path fill-rule="evenodd" clip-rule="evenodd" d="M16.5309 8.99994C16.8238 9.29284 16.8238 9.76771 16.5309 10.0606L11.5909 15.0006C11.298 15.2935 10.8231 15.2935 10.5302 15.0006C10.2373 14.7077 10.2373 14.2328 10.5302 13.9399L15.4702 8.99994C15.7631 8.70705 16.238 8.70705 16.5309 8.99994Z" fill="black"/>
</svg>
