<svg width="24" height="24" viewBox="0 0 24 24" fill="none" xmlns="http://www.w3.org/2000/svg">
<path fill-rule="evenodd" clip-rule="evenodd" d="M16.0651 3.86603L20.6065 8.38745C22.7567 10.5492 22.7588 14.043 20.6051 16.1967L16.2151 20.5867L16.2137 20.5881C14.0519 22.7383 10.5581 22.7404 8.40443 20.5867L3.87443 16.0567C2.77545 14.9577 2.18616 13.4431 2.2555 11.8831L2.25562 11.8804L2.4957 6.87872C2.61503 4.50397 4.51323 2.60517 6.89986 2.49718L6.90104 2.49712L11.8956 2.25739L11.8973 2.2573C13.4515 2.17658 14.9673 2.76857 16.0651 3.86603ZM15.0044 4.92669C14.2027 4.12493 13.0988 3.69658 11.9739 3.75534L11.9707 3.7555L6.97072 3.9955L6.96847 3.99561C5.35592 4.06817 4.07487 5.34873 3.99385 6.95323L3.75402 11.9497L3.75396 11.9509C3.70367 13.0904 4.13436 14.1953 4.93509 14.996L9.46509 19.526C11.0312 21.0921 13.5769 21.0944 15.1552 19.5253L19.5444 15.136C21.1103 13.5701 21.1128 11.0248 19.5442 9.44649L19.543 9.44527L15.0056 4.92786L15.0044 4.92669Z" fill="black"/>
<path fill-rule="evenodd" clip-rule="evenodd" d="M9.73438 7.97656C8.76788 7.97656 7.98438 8.76006 7.98438 9.72656C7.98438 10.6931 8.76788 11.4766 9.73438 11.4766C10.7009 11.4766 11.4844 10.6931 11.4844 9.72656C11.4844 8.76006 10.7009 7.97656 9.73438 7.97656ZM6.48438 9.72656C6.48438 7.93164 7.93945 6.47656 9.73438 6.47656C11.5293 6.47656 12.9844 7.93164 12.9844 9.72656C12.9844 11.5215 11.5293 12.9766 9.73438 12.9766C7.93945 12.9766 6.48438 11.5215 6.48438 9.72656Z" fill="black"/>
<path fill-rule="evenodd" clip-rule="evenodd" d="M17.7647 12.6962C18.0576 12.9891 18.0576 13.464 17.7647 13.7569L13.7647 17.7569C13.4718 18.0498 12.9969 18.0498 12.704 17.7569C12.4112 17.464 12.4112 16.9891 12.704 16.6962L16.704 12.6962C16.9969 12.4033 17.4718 12.4033 17.7647 12.6962Z" fill="black"/>
</svg>
