<svg width="24" height="24" viewBox="0 0 24 24" fill="none" xmlns="http://www.w3.org/2000/svg">
<path fill-rule="evenodd" clip-rule="evenodd" d="M15.8297 3.63947L20.3712 8.16089C22.5214 10.3227 22.5234 13.8165 20.3697 15.9701L15.9797 20.3601L15.9783 20.3616C13.8165 22.5118 10.3228 22.5138 8.16908 20.3601L3.63908 15.8301C2.5401 14.7312 1.95081 13.2166 2.02014 11.6565L2.02027 11.6538L2.26035 6.65216C2.37968 4.27741 4.27788 2.37861 6.66451 2.27061L6.66569 2.27056L11.6603 2.03082L11.6619 2.03074C13.2161 1.95002 14.7319 2.54201 15.8297 3.63947ZM14.7691 4.70013C13.9673 3.89837 12.8635 3.47002 11.7385 3.52878L11.7354 3.52894L6.73536 3.76894L6.73312 3.76904C5.12057 3.84161 3.83952 5.12217 3.7585 6.72666L3.51867 11.7231L3.51861 11.7244C3.46832 12.8638 3.89901 13.9687 4.69974 14.7695L9.22974 19.2995C10.7958 20.8656 13.3415 20.8678 14.9198 19.2987L19.3091 14.9095C20.875 13.3436 20.8774 10.7982 19.3089 9.21993L19.3077 9.21871L14.7702 4.7013L14.7691 4.70013Z" fill="black"/>
<path fill-rule="evenodd" clip-rule="evenodd" d="M9.5 7.75C8.5335 7.75 7.75 8.5335 7.75 9.5C7.75 10.4665 8.5335 11.25 9.5 11.25C10.4665 11.25 11.25 10.4665 11.25 9.5C11.25 8.5335 10.4665 7.75 9.5 7.75ZM6.25 9.5C6.25 7.70507 7.70507 6.25 9.5 6.25C11.2949 6.25 12.75 7.70507 12.75 9.5C12.75 11.2949 11.2949 12.75 9.5 12.75C7.70507 12.75 6.25 11.2949 6.25 9.5Z" fill="black"/>
</svg>
