<svg width="24" height="24" viewBox="0 0 24 24" fill="none" xmlns="http://www.w3.org/2000/svg">
<path fill-rule="evenodd" clip-rule="evenodd" d="M14.4041 1.91462L14.4065 1.91624L20.3919 5.8432C22.7633 7.39939 22.7633 10.8711 20.392 12.4273L14.4025 16.357C13.7136 16.8098 12.8463 17.0128 12.0205 17.0128C11.195 17.0128 10.3283 16.8101 9.6395 16.3576L9.6385 16.357L3.62051 12.4283C1.23718 10.8723 1.23717 7.38823 3.6205 5.83227L9.6385 1.90358L9.63953 1.9029C10.3284 1.45041 11.1953 1.24759 12.0218 1.24903C12.8477 1.25048 13.715 1.45608 14.4041 1.91462ZM12.0192 2.74903C11.4161 2.74797 10.8535 2.89995 10.4625 3.15698L10.4605 3.1583L4.4405 7.08829C2.96385 8.05233 2.96384 10.2082 4.44049 11.1723L10.4625 15.1036C10.8535 15.3606 11.4164 15.5128 12.0205 15.5128C12.6246 15.5128 13.1875 15.3606 13.5785 15.1036L19.569 11.1732C21.0376 10.2094 21.0376 8.06117 19.5691 7.09736L13.5745 3.16433C13.184 2.90401 12.6223 2.75008 12.0192 2.74903Z" fill="black"/>
<path fill-rule="evenodd" clip-rule="evenodd" d="M5.63172 12.3301C6.04593 12.331 6.381 12.6675 6.38012 13.0817L6.37012 17.7701C6.37031 18.2191 6.54764 18.727 6.86882 19.1732C7.19019 19.6196 7.61406 19.9474 8.03702 20.0885L11.2234 21.1473L11.2247 21.1477C11.4002 21.2049 11.6797 21.2451 11.9964 21.2451C12.3114 21.2451 12.5946 21.2053 12.7776 21.147L15.9629 20.0886C16.3859 19.9475 16.81 19.6197 17.1314 19.1732C17.4528 18.7267 17.6301 18.2193 17.6301 17.7701V13.1301C17.6301 12.7159 17.9659 12.3801 18.3801 12.3801C18.7943 12.3801 19.1301 12.7159 19.1301 13.1301V17.7701C19.1301 18.5909 18.8175 19.3984 18.3488 20.0495C17.8803 20.7004 17.2142 21.2526 16.4373 21.5116L13.2396 22.5741C12.8626 22.6953 12.4121 22.7451 11.9964 22.7451C11.5813 22.7451 11.1314 22.6955 10.7568 22.5729L10.7536 22.5718L7.56362 21.5118C6.78667 21.2528 6.11998 20.7004 5.65141 20.0495C5.18277 19.3984 4.87012 18.5909 4.87012 17.7701L4.87012 17.7685L4.88012 13.0785C4.881 12.6643 5.2175 12.3292 5.63172 12.3301Z" fill="black"/>
<path fill-rule="evenodd" clip-rule="evenodd" d="M21.4004 8.25C21.8146 8.25 22.1504 8.58579 22.1504 9V15C22.1504 15.4142 21.8146 15.75 21.4004 15.75C20.9862 15.75 20.6504 15.4142 20.6504 15V9C20.6504 8.58579 20.9862 8.25 21.4004 8.25Z" fill="black"/>
</svg>
