<svg width="24" height="24" viewBox="0 0 24 24" fill="none" xmlns="http://www.w3.org/2000/svg">
<path fill-rule="evenodd" clip-rule="evenodd" d="M8.27789 8.26138C8.57203 7.97616 9.04062 7.97976 9.33033 8.26947L12 10.9391L14.6697 8.26947C14.9594 7.97976 15.428 7.97616 15.7221 8.26138L19.0221 11.4614C19.1678 11.6026 19.25 11.7969 19.25 11.9998C19.25 12.2027 19.1678 12.397 19.0221 12.5382L15.7221 15.7382C15.428 16.0235 14.9594 16.0198 14.6697 15.7301L12 13.0605L9.33033 15.7301C9.04062 16.0198 8.57203 16.0235 8.27789 15.7382L4.97789 12.5382C4.83222 12.397 4.75 12.2027 4.75 11.9998C4.75 11.7969 4.83222 11.6026 4.97789 11.4614L8.27789 8.26138ZM10.9393 11.9998L8.7919 9.85237L6.57736 11.9998L8.7919 14.1472L10.9393 11.9998ZM13.0607 11.9998L15.2081 14.1472L17.4226 11.9998L15.2081 9.85237L13.0607 11.9998Z" fill="black"/>
<path fill-rule="evenodd" clip-rule="evenodd" d="M12 2.75C6.89137 2.75 2.75 6.89137 2.75 12C2.75 17.1086 6.89137 21.25 12 21.25C17.1086 21.25 21.25 17.1086 21.25 12C21.25 6.89137 17.1086 2.75 12 2.75ZM1.25 12C1.25 6.06294 6.06294 1.25 12 1.25C17.9371 1.25 22.75 6.06294 22.75 12C22.75 17.9371 17.9371 22.75 12 22.75C6.06294 22.75 1.25 17.9371 1.25 12Z" fill="black"/>
</svg>
