<svg width="24" height="24" viewBox="0 0 24 24" fill="none" xmlns="http://www.w3.org/2000/svg">
<path fill-rule="evenodd" clip-rule="evenodd" d="M3.09467 3.09467C4.42914 1.7602 6.42603 1.25 9 1.25H15C17.574 1.25 19.5709 1.7602 20.9053 3.09467C22.2398 4.42914 22.75 6.42603 22.75 9V15C22.75 17.574 22.2398 19.5709 20.9053 20.9053C19.5709 22.2398 17.574 22.75 15 22.75H9C6.42603 22.75 4.42914 22.2398 3.09467 20.9053C1.7602 19.5709 1.25 17.574 1.25 15V9C1.25 6.42603 1.7602 4.42914 3.09467 3.09467ZM4.15533 4.15533C3.2398 5.07086 2.75 6.57397 2.75 9V15C2.75 17.426 3.2398 18.9291 4.15533 19.8447C5.07086 20.7602 6.57397 21.25 9 21.25H15C17.426 21.25 18.9291 20.7602 19.8447 19.8447C20.7602 18.9291 21.25 17.426 21.25 15V9C21.25 6.57397 20.7602 5.07086 19.8447 4.15533C18.9291 3.2398 17.426 2.75 15 2.75H9C6.57397 2.75 5.07086 3.2398 4.15533 4.15533Z" fill="black"/>
<path fill-rule="evenodd" clip-rule="evenodd" d="M16.6656 9.56164C13.7263 8.09664 10.274 8.09664 7.33472 9.56164C6.964 9.74641 6.51369 9.59567 6.32892 9.22495C6.14415 8.85423 6.29489 8.40392 6.66561 8.21914C10.0263 6.54414 13.974 6.54414 17.3347 8.21914C17.7054 8.40392 17.8562 8.85423 17.6714 9.22495C17.4866 9.59567 17.0363 9.74641 16.6656 9.56164Z" fill="black"/>
<path fill-rule="evenodd" clip-rule="evenodd" d="M12 7.17969C12.4142 7.17969 12.75 7.51547 12.75 7.92969V16.2997C12.75 16.7139 12.4142 17.0497 12 17.0497C11.5858 17.0497 11.25 16.7139 11.25 16.2997V7.92969C11.25 7.51547 11.5858 7.17969 12 7.17969Z" fill="black"/>
</svg>
