<svg width="24" height="24" viewBox="0 0 24 24" fill="none" xmlns="http://www.w3.org/2000/svg">
<path fill-rule="evenodd" clip-rule="evenodd" d="M2.25 4.5C2.25 4.08579 2.58579 3.75 3 3.75H21C21.4142 3.75 21.75 4.08579 21.75 4.5C21.75 4.91421 21.4142 5.25 21 5.25H3C2.58579 5.25 2.25 4.91421 2.25 4.5Z" fill="black"/>
<path fill-rule="evenodd" clip-rule="evenodd" d="M6.50977 9.5C6.50977 9.08579 6.84555 8.75 7.25977 8.75H16.7398C17.154 8.75 17.4898 9.08579 17.4898 9.5C17.4898 9.91421 17.154 10.25 16.7398 10.25H7.25977C6.84555 10.25 6.50977 9.91421 6.50977 9.5Z" fill="black"/>
<path fill-rule="evenodd" clip-rule="evenodd" d="M2.25 14.5C2.25 14.0858 2.58579 13.75 3 13.75H21C21.4142 13.75 21.75 14.0858 21.75 14.5C21.75 14.9142 21.4142 15.25 21 15.25H3C2.58579 15.25 2.25 14.9142 2.25 14.5Z" fill="black"/>
<path fill-rule="evenodd" clip-rule="evenodd" d="M6.50977 19.5C6.50977 19.0858 6.84555 18.75 7.25977 18.75H16.7398C17.154 18.75 17.4898 19.0858 17.4898 19.5C17.4898 19.9142 17.154 20.25 16.7398 20.25H7.25977C6.84555 20.25 6.50977 19.9142 6.50977 19.5Z" fill="black"/>
</svg>
