<svg width="24" height="24" viewBox="0 0 24 24" fill="none" xmlns="http://www.w3.org/2000/svg">
<path fill-rule="evenodd" clip-rule="evenodd" d="M8.87012 3C8.87012 2.58579 9.2059 2.25 9.62012 2.25H18.8701C19.2843 2.25 19.6201 2.58579 19.6201 3C19.6201 3.41421 19.2843 3.75 18.8701 3.75H9.62012C9.2059 3.75 8.87012 3.41421 8.87012 3Z" fill="black"/>
<path fill-rule="evenodd" clip-rule="evenodd" d="M4.37012 21C4.37012 20.5858 4.7059 20.25 5.12012 20.25H14.3701C14.7843 20.25 15.1201 20.5858 15.1201 21C15.1201 21.4142 14.7843 21.75 14.3701 21.75H5.12012C4.7059 21.75 4.37012 21.4142 4.37012 21Z" fill="black"/>
<path fill-rule="evenodd" clip-rule="evenodd" d="M14.4321 2.27257C14.8339 2.37303 15.0782 2.78023 14.9778 3.18208L10.4778 21.1821C10.3773 21.5839 9.97012 21.8282 9.56828 21.7278C9.16643 21.6273 8.92211 21.2201 9.02257 20.8183L13.5226 2.81828C13.623 2.41643 14.0302 2.17211 14.4321 2.27257Z" fill="black"/>
</svg>
