<svg width="24" height="24" viewBox="0 0 24 24" fill="none" xmlns="http://www.w3.org/2000/svg">
<path fill-rule="evenodd" clip-rule="evenodd" d="M4.73992 4.03027C4.01177 4.03027 3.41992 4.61685 3.41992 5.35027V7.17027C3.41992 7.58449 3.08414 7.92027 2.66992 7.92027C2.25571 7.92027 1.91992 7.58449 1.91992 7.17027V5.35027C1.91992 3.7837 3.18807 2.53027 4.73992 2.53027H19.2599C20.8265 2.53027 22.0799 3.79842 22.0799 5.35027V7.17027C22.0799 7.58449 21.7441 7.92027 21.3299 7.92027C20.9157 7.92027 20.5799 7.58449 20.5799 7.17027V5.35027C20.5799 4.62212 19.9933 4.03027 19.2599 4.03027H4.73992Z" fill="black"/>
<path fill-rule="evenodd" clip-rule="evenodd" d="M12 3.36035C12.4142 3.36035 12.75 3.69614 12.75 4.11035V20.7204C12.75 21.1346 12.4142 21.4704 12 21.4704C11.5858 21.4704 11.25 21.1346 11.25 20.7204V4.11035C11.25 3.69614 11.5858 3.36035 12 3.36035Z" fill="black"/>
<path fill-rule="evenodd" clip-rule="evenodd" d="M7.31055 20.7197C7.31055 20.3055 7.64633 19.9697 8.06055 19.9697H15.9405C16.3548 19.9697 16.6905 20.3055 16.6905 20.7197C16.6905 21.1339 16.3548 21.4697 15.9405 21.4697H8.06055C7.64633 21.4697 7.31055 21.1339 7.31055 20.7197Z" fill="black"/>
</svg>
