<svg width="24" height="24" viewBox="0 0 24 24" fill="none" xmlns="http://www.w3.org/2000/svg">
<path fill-rule="evenodd" clip-rule="evenodd" d="M11.3004 7.9502C9.83684 7.9502 8.65039 9.13664 8.65039 10.6002C8.65039 12.0638 9.83684 13.2502 11.3004 13.2502C12.7639 13.2502 13.9504 12.0638 13.9504 10.6002C13.9504 9.13664 12.7639 7.9502 11.3004 7.9502ZM7.15039 10.6002C7.15039 8.30821 9.00841 6.4502 11.3004 6.4502C13.5924 6.4502 15.4504 8.30821 15.4504 10.6002C15.4504 12.8922 13.5924 14.7502 11.3004 14.7502C9.00841 14.7502 7.15039 12.8922 7.15039 10.6002Z" fill="black"/>
<path fill-rule="evenodd" clip-rule="evenodd" d="M15.6299 14.2695C15.9228 14.5624 15.9228 15.0372 15.6299 15.3301L12.6299 18.3301C12.337 18.623 11.8622 18.623 11.5693 18.3301C11.2764 18.0372 11.2764 17.5624 11.5693 17.2695L14.5693 14.2695C14.8622 13.9766 15.337 13.9766 15.6299 14.2695Z" fill="black"/>
<path fill-rule="evenodd" clip-rule="evenodd" d="M12 2.75C6.89137 2.75 2.75 6.89137 2.75 12C2.75 17.1086 6.89137 21.25 12 21.25C17.1086 21.25 21.25 17.1086 21.25 12C21.25 6.89137 17.1086 2.75 12 2.75ZM1.25 12C1.25 6.06294 6.06294 1.25 12 1.25C17.9371 1.25 22.75 6.06294 22.75 12C22.75 17.9371 17.9371 22.75 12 22.75C6.06294 22.75 1.25 17.9371 1.25 12Z" fill="black"/>
<path fill-rule="evenodd" clip-rule="evenodd" d="M16.5 8.3125C15.9477 8.3125 15.5 7.86478 15.5 7.3125C15.5 6.76022 15.9477 6.3125 16.5 6.3125C17.0523 6.3125 17.5 6.76022 17.5 7.3125C17.5 7.86478 17.0523 8.3125 16.5 8.3125Z" fill="black"/>
</svg>
