<svg width="24" height="24" viewBox="0 0 24 24" fill="none" xmlns="http://www.w3.org/2000/svg">
<path fill-rule="evenodd" clip-rule="evenodd" d="M17.6439 1.39499C19.384 0.762231 20.9979 2.71013 19.7922 4.26029L19.7859 4.26841L13.7118 11.6508L17.3546 15.2936L17.3763 15.3197C18.1794 16.2834 17.8828 17.7804 16.6956 18.2892L16.6891 18.292L6.39877 22.5879C5.47484 23.0012 4.6031 22.6021 4.16673 21.958C3.74158 21.3304 3.67308 20.3787 4.3572 19.6823L11.6618 11.7221L8.06984 8.13017C7.6009 7.66123 7.50122 7.00716 7.61682 6.46769C7.7335 5.9232 8.09312 5.3726 8.70473 5.11048L8.71224 5.10726L17.6279 1.40079L17.6439 1.39499ZM12.6461 10.5851L18.6132 3.33286C18.6823 3.24144 18.6979 3.16499 18.6971 3.10834C18.6963 3.04455 18.6738 2.9764 18.6277 2.91563C18.5436 2.80479 18.3892 2.72539 18.1695 2.8001L9.29313 6.49028C9.20553 6.52894 9.11653 6.62793 9.08352 6.78198C9.04912 6.94252 9.09944 7.03844 9.1305 7.06951L12.6461 10.5851ZM12.7234 12.7838L5.44188 20.7188L5.4305 20.7302C5.36533 20.7953 5.34714 20.855 5.34468 20.908C5.34178 20.9706 5.36131 21.0469 5.40861 21.1167C5.45556 21.186 5.51487 21.2272 5.56737 21.2442C5.61008 21.258 5.67956 21.2672 5.78982 21.2171L5.80045 21.2122L16.1071 16.9095C16.3122 16.8197 16.4142 16.5329 16.2404 16.3008L12.7234 12.7838Z" fill="black"/>
<path fill-rule="evenodd" clip-rule="evenodd" d="M17.6439 1.39499C19.384 0.762231 20.9979 2.71013 19.7922 4.26029L19.7859 4.26841L13.7118 11.6508L17.3546 15.2936L17.3763 15.3197C18.1794 16.2834 17.8828 17.7804 16.6956 18.2892L16.6891 18.292L6.39877 22.5879C5.47484 23.0012 4.6031 22.6021 4.16673 21.958C3.74158 21.3304 3.67308 20.3787 4.3572 19.6823L11.6618 11.7221L8.06984 8.13017C7.6009 7.66123 7.50122 7.00716 7.61682 6.46769C7.7335 5.9232 8.09312 5.3726 8.70473 5.11048L8.71224 5.10726L17.6279 1.40079L17.6439 1.39499ZM12.6461 10.5851L18.6132 3.33286C18.6823 3.24144 18.6979 3.16499 18.6971 3.10834C18.6963 3.04455 18.6738 2.9764 18.6277 2.91563C18.5436 2.80479 18.3892 2.72539 18.1695 2.8001L9.29313 6.49028C9.20553 6.52894 9.11653 6.62793 9.08352 6.78198C9.04912 6.94252 9.09944 7.03844 9.1305 7.06951L12.6461 10.5851ZM12.7234 12.7838L5.44188 20.7188L5.4305 20.7302C5.36533 20.7953 5.34714 20.855 5.34468 20.908C5.34178 20.9706 5.36131 21.0469 5.40861 21.1167C5.45556 21.186 5.51487 21.2272 5.56737 21.2442C5.61008 21.258 5.67956 21.2672 5.78982 21.2171L5.80045 21.2122L16.1071 16.9095C16.3122 16.8197 16.4142 16.5329 16.2404 16.3008L12.7234 12.7838Z" fill="black"/>
</svg>
