<svg width="24" height="24" viewBox="0 0 24 24" fill="none" xmlns="http://www.w3.org/2000/svg">
<path fill-rule="evenodd" clip-rule="evenodd" d="M2.59739 4.34847C3.58642 3.4639 5.08145 3.25 6.99488 3.25H16.9949C18.9895 3.25 20.5367 3.48116 21.5252 4.46967C22.5137 5.45818 22.7449 7.00536 22.7449 9V15C22.7449 16.9946 22.5137 18.5418 21.5252 19.5303C20.5367 20.5188 18.9895 20.75 16.9949 20.75H6.99488C5.08145 20.75 3.58642 20.5361 2.59739 19.6515C1.58648 18.7474 1.30059 17.3275 1.25512 15.5188C1.25006 15.3174 1.32627 15.1224 1.46658 14.9778C1.60689 14.8331 1.79949 14.7511 2.001 14.75C3.52057 14.7421 4.74488 13.515 4.74488 12C4.74488 10.4814 3.51788 9.25 2.00488 9.25C1.8027 9.25 1.60909 9.16837 1.46793 9.02362C1.32677 8.87888 1.25004 8.68327 1.25512 8.48115C1.30059 6.67254 1.58648 5.25262 2.59739 4.34847ZM2.78839 7.82235C4.75922 8.19117 6.24488 9.92574 6.24488 12C6.24488 14.0782 4.75601 15.8013 2.78819 16.1749C2.88615 17.4788 3.16425 18.1461 3.59737 18.5335C4.12335 19.0039 5.07831 19.25 6.99488 19.25H16.9949C19.0002 19.25 19.9531 18.9812 20.4646 18.4697C20.976 17.9582 21.2449 17.0054 21.2449 15V9C21.2449 6.99464 20.976 6.04182 20.4646 5.53033C19.9531 5.01884 19.0002 4.75 16.9949 4.75H6.99488C5.07831 4.75 4.12335 4.9961 3.59737 5.46653C3.16456 5.85363 2.88654 6.52031 2.78839 7.82235Z" fill="black"/>
<path fill-rule="evenodd" clip-rule="evenodd" d="M8.99316 3.25C9.40738 3.25 9.74316 3.58579 9.74316 4V7.5C9.74316 7.91421 9.40738 8.25 8.99316 8.25C8.57895 8.25 8.24316 7.91421 8.24316 7.5V4C8.24316 3.58579 8.57895 3.25 8.99316 3.25Z" fill="black"/>
<path fill-rule="evenodd" clip-rule="evenodd" d="M8.99316 15.75C9.40738 15.75 9.74316 16.0858 9.74316 16.5V20C9.74316 20.4142 9.40738 20.75 8.99316 20.75C8.57895 20.75 8.24316 20.4142 8.24316 20V16.5C8.24316 16.0858 8.57895 15.75 8.99316 15.75Z" fill="black"/>
<path fill-rule="evenodd" clip-rule="evenodd" d="M14.9971 10.653C14.6505 11.2207 14.0899 11.628 13.4429 11.7821C13.8758 12.2871 14.0899 12.9462 14.0366 13.6092C14.6506 13.3536 15.3436 13.3536 15.9576 13.6092C15.9043 12.9462 16.1184 12.2871 16.5512 11.7821C15.9042 11.628 15.3436 11.2207 14.9971 10.653ZM15.9481 8.94587C15.6488 8.02456 14.3454 8.02456 14.046 8.94587L13.8143 9.65913C13.6804 10.0712 13.2964 10.3501 12.8632 10.3501H12.1132C11.1445 10.3501 10.7417 11.5897 11.5255 12.1591L12.1322 12.5999C12.4827 12.8546 12.6293 13.306 12.4955 13.718L12.2637 14.4312C11.9644 15.3526 13.0188 16.1187 13.8026 15.5493L14.4093 15.1085C14.7598 14.8538 15.2344 14.8538 15.5849 15.1085L16.1916 15.5493C16.9753 16.1187 18.0298 15.3526 17.7304 14.4312L17.4987 13.718C17.3648 13.306 17.5115 12.8546 17.862 12.5999L18.4687 12.1591C19.2524 11.5897 18.8496 10.3501 17.8809 10.3501H17.1309C16.6977 10.3501 16.3138 10.0712 16.1799 9.65913L15.9481 8.94587Z" fill="black"/>
</svg>
