<svg width="24" height="24" viewBox="0 0 24 24" fill="none" xmlns="http://www.w3.org/2000/svg">
<path fill-rule="evenodd" clip-rule="evenodd" d="M3.2515 11.2155C4.59607 11.5538 5.6 12.7773 5.6 14.2227C5.6 15.6682 4.59581 16.8918 3.25097 17.23C3.26836 18.9745 3.5203 19.8048 3.96908 20.2536C4.43445 20.7189 5.31005 20.9727 7.19 20.9727H16.57C18.45 20.9727 19.3255 20.7189 19.7909 20.2536C20.1985 19.846 20.4437 19.1238 20.4983 17.6878C19.1612 17.3484 18.16 16.1374 18.16 14.6927C18.16 13.237 19.1583 12.0278 20.5 11.6941V11.4127C20.5 9.5327 20.2463 8.65711 19.7809 8.19174C19.3155 7.72636 18.44 7.47266 16.56 7.47266H7.19C5.31005 7.47266 4.43735 7.72639 3.9733 8.19126C3.52494 8.64043 3.27351 9.47098 3.2515 11.2155ZM2.9117 7.13155C3.85265 6.18892 5.31995 5.97266 7.19 5.97266H16.56C18.43 5.97266 19.8995 6.18895 20.8416 7.13108C21.7837 8.0732 22 9.54261 22 11.4127V12.3527C22 12.7669 21.6642 13.1027 21.25 13.1027C20.3721 13.1027 19.66 13.809 19.66 14.6927C19.66 15.5643 20.38 16.2827 21.26 16.2827C21.6742 16.2827 22.01 16.6184 22.01 17.0327C22.01 18.9027 21.7937 20.3721 20.8516 21.3142C19.9095 22.2564 18.44 22.4727 16.57 22.4727H7.19C5.31995 22.4727 3.85055 22.2564 2.90842 21.3142C1.96629 20.3721 1.75 18.9027 1.75 17.0327V16.5727C1.75 16.1584 2.08579 15.8227 2.5 15.8227C3.37579 15.8227 4.1 15.0984 4.1 14.2227C4.1 13.3469 3.37579 12.6227 2.5 12.6227C2.08579 12.6227 1.75 12.2869 1.75 11.8727V11.4127L1.75 11.4107C1.75499 9.5418 1.9718 8.07312 2.9117 7.13155Z" fill="black"/>
<path fill-rule="evenodd" clip-rule="evenodd" d="M13.0411 2.75C12.4806 2.75 11.7798 3.12449 10.5814 4.32283L8.93178 5.9725H15.2715C15.2502 5.4509 15.3752 4.92693 15.6409 4.46291L15.5008 4.32283C14.3024 3.12449 13.6016 2.75 13.0411 2.75ZM13.0411 1.25C14.2756 1.25 15.3698 2.07051 16.5614 3.26217L17.1614 3.86217C17.3021 4.00282 17.3811 4.19359 17.3811 4.3925C17.3811 4.59141 17.3021 4.78218 17.1614 4.92283C16.7554 5.32888 16.6637 5.91969 16.8905 6.40485C16.9991 6.63714 16.9815 6.90882 16.8439 7.12516C16.7062 7.34149 16.4675 7.4725 16.2111 7.4725H7.12112C6.81777 7.4725 6.54429 7.28977 6.42821 7.00951C6.31212 6.72926 6.37629 6.40667 6.59079 6.19217L9.52079 3.26217C10.7124 2.07051 11.8066 1.25 13.0411 1.25Z" fill="black"/>
<path fill-rule="evenodd" clip-rule="evenodd" d="M9.87891 5.97266C10.2931 5.97266 10.6289 6.30844 10.6289 6.72266V8.59766C10.6289 9.01187 10.2931 9.34766 9.87891 9.34766C9.46469 9.34766 9.12891 9.01187 9.12891 8.59766V6.72266C9.12891 6.30844 9.46469 5.97266 9.87891 5.97266ZM9.87891 11.5977C10.2931 11.5977 10.6289 11.9334 10.6289 12.3477V16.0977C10.6289 16.5119 10.2931 16.8477 9.87891 16.8477C9.46469 16.8477 9.12891 16.5119 9.12891 16.0977V12.3477C9.12891 11.9334 9.46469 11.5977 9.87891 11.5977ZM9.87891 19.0977C10.2931 19.0977 10.6289 19.4334 10.6289 19.8477V21.7227C10.6289 22.1369 10.2931 22.4727 9.87891 22.4727C9.46469 22.4727 9.12891 22.1369 9.12891 21.7227V19.8477C9.12891 19.4334 9.46469 19.0977 9.87891 19.0977Z" fill="black"/>
</svg>
