<svg width="24" height="24" viewBox="0 0 24 24" fill="none" xmlns="http://www.w3.org/2000/svg">
<path d="M12 1.25C17.9142 1.25 22.75 6.08579 22.75 12C22.75 17.9142 17.9142 22.75 12 22.75C6.08579 22.75 1.25 17.9142 1.25 12C1.25 6.08579 6.08579 1.25 12 1.25ZM16.7812 8.63965C16.4886 8.3465 16.0129 8.34606 15.7197 8.63867L10.5801 13.7695L8.28027 11.4697C7.98738 11.1768 7.51262 11.1768 7.21973 11.4697C6.92687 11.7626 6.92685 12.2374 7.21973 12.5303L10.0498 15.3604C10.3425 15.6529 10.8164 15.6527 11.1094 15.3604L16.7803 9.70117C17.0734 9.40854 17.0739 8.9328 16.7812 8.63965Z" fill="black"/>
</svg>
