<svg width="24" height="24" viewBox="0 0 24 24" fill="none" xmlns="http://www.w3.org/2000/svg">
<path fill-rule="evenodd" clip-rule="evenodd" d="M10.2423 5.08008C10.2423 4.66586 10.5781 4.33008 10.9923 4.33008H17.3723C19.2162 4.33008 20.6689 4.54098 21.6002 5.47225C22.5314 6.40351 22.7423 7.85626 22.7423 9.70008V10.6201C22.7423 11.0343 22.4066 11.3701 21.9923 11.3701C21.1308 11.3701 20.4323 12.0701 20.4323 12.9401C20.4323 13.798 21.1287 14.5001 21.9923 14.5001C22.4066 14.5001 22.7423 14.8359 22.7423 15.2501C22.7423 17.0939 22.5314 18.5466 21.6002 19.4779C20.6689 20.4092 19.2162 20.6201 17.3723 20.6201H10.9023C10.4881 20.6201 10.1523 20.2843 10.1523 19.8701C10.1523 19.4559 10.4881 19.1201 10.9023 19.1201H17.3723C19.2285 19.1201 20.0858 18.871 20.5395 18.4172C20.9361 18.0206 21.1764 17.3156 21.2306 15.9046C19.9057 15.5652 18.9323 14.3612 18.9323 12.9401C18.9323 11.5079 19.9102 10.2983 21.2423 9.96259V9.70008C21.2423 7.84389 20.9932 6.98664 20.5395 6.53291C20.0858 6.07917 19.2285 5.83008 17.3723 5.83008H11.7423V11.8701C11.7423 12.2843 11.4066 12.6201 10.9923 12.6201C10.5781 12.6201 10.2423 12.2843 10.2423 11.8701V5.08008Z" fill="black"/>
<path fill-rule="evenodd" clip-rule="evenodd" d="M7.68935 3.30603C8.07192 3.14953 8.50899 3.33206 8.66664 3.71416L11.6866 11.0342C11.7241 11.1249 11.7433 11.2221 11.7433 11.3202V13.8702C11.7433 14.2844 11.4075 14.6202 10.9933 14.6202C10.5791 14.6202 10.2433 14.2844 10.2433 13.8702V11.4688L7.5652 4.97749L5.61899 5.77366C5.6187 5.77378 5.61927 5.77355 5.61899 5.77366C3.85373 6.50092 3.13149 7.07519 2.87616 7.69115C2.629 8.28738 2.71761 9.16494 3.37396 10.8141C4.76254 10.6089 6.16487 11.3582 6.71649 12.7138C7.28466 14.0681 6.81144 15.601 5.67683 16.4217C6.11994 17.4661 6.51371 18.1398 6.91352 18.5549C7.29752 18.9536 7.69123 19.1202 8.22332 19.1202H10.2433V16.8702C10.2433 16.456 10.5791 16.1202 10.9933 16.1202C11.4075 16.1202 11.7433 16.456 11.7433 16.8702V19.8702C11.7433 20.2844 11.4075 20.6202 10.9933 20.6202H8.22332C7.27542 20.6202 6.49413 20.2818 5.83313 19.5955C5.20902 18.9475 4.70821 18.006 4.22031 16.827L4.21692 16.8188L4.03697 16.3687C3.96296 16.1837 3.96563 15.9768 4.04439 15.7938C4.12315 15.6107 4.27153 15.4665 4.45677 15.393C5.27516 15.0684 5.67924 14.1148 5.33221 13.2915L5.32809 13.2817C4.9961 12.4619 4.04846 12.0596 3.20774 12.4042C3.02219 12.4802 2.81391 12.4788 2.62941 12.4002C2.44492 12.3216 2.29958 12.1724 2.22585 11.9859L2.05747 11.56C1.34161 9.80926 0.977005 8.35545 1.49049 7.11674C2.00512 5.8753 3.29354 5.10931 5.04766 4.38673L5.04935 4.38603L7.68935 3.30603Z" fill="black"/>
<path fill-rule="evenodd" clip-rule="evenodd" d="M7.24219 19.8701C7.24219 19.4559 7.57797 19.1201 7.99219 19.1201H8.16219C8.5764 19.1201 8.91219 19.4559 8.91219 19.8701C8.91219 20.2843 8.5764 20.6201 8.16219 20.6201H7.99219C7.57797 20.6201 7.24219 20.2843 7.24219 19.8701Z" fill="black"/>
</svg>
