<svg width="24" height="24" viewBox="0 0 24 24" fill="none" xmlns="http://www.w3.org/2000/svg">
<path fill-rule="evenodd" clip-rule="evenodd" d="M6.15955 1.93072C6.83379 1.48618 7.70978 1.25 8.75972 1.25H15.2397C16.2897 1.25 17.1657 1.48618 17.8399 1.93072C18.5207 2.3796 18.9545 3.01492 19.1453 3.72544C19.5209 5.12387 18.9439 6.70561 17.7635 7.77557C17.7635 7.77561 17.7636 7.77553 17.7635 7.77557L13.1149 12L17.7634 16.2243C17.7633 16.2242 17.7635 16.2244 17.7634 16.2243C18.9436 17.2943 19.5209 18.8762 19.1453 20.2746C18.9545 20.9851 18.5207 21.6204 17.8399 22.0693C17.1657 22.5138 16.2897 22.75 15.2397 22.75H8.75972C7.70978 22.75 6.83379 22.5138 6.15955 22.0693C5.47873 21.6204 5.045 20.9851 4.85415 20.2746C4.47859 18.8764 5.05535 17.2949 6.23532 16.2249L10.8845 12L6.23604 7.7757C6.23591 7.77558 6.23616 7.77581 6.23604 7.7757C5.05584 6.70573 4.47855 5.12377 4.85415 3.72544C5.045 3.01492 5.47873 2.3796 6.15955 1.93072ZM11.9997 10.9866L16.7553 6.66495C17.6049 5.89492 17.8985 4.86608 17.6966 4.11456C17.5987 3.75008 17.3819 3.4254 17.0142 3.18303C16.64 2.93632 16.0698 2.75 15.2397 2.75H8.75972C7.92967 2.75 7.35941 2.93632 6.98521 3.18303C6.6176 3.4254 6.4007 3.75008 6.3028 4.11456C6.10094 4.86608 6.39386 5.89427 7.24341 6.6643L11.9997 10.9866ZM11.9997 13.0134L7.24412 17.3351C6.39458 18.1051 6.10094 19.1339 6.3028 19.8854C6.4007 20.2499 6.6176 20.5746 6.98521 20.817C7.35941 21.0637 7.92967 21.25 8.75972 21.25H15.2397C16.0698 21.25 16.64 21.0637 17.0142 20.817C17.3819 20.5746 17.5987 20.2499 17.6966 19.8854C17.8985 19.1339 17.6056 18.1057 16.756 17.3357L11.9997 13.0134Z" fill="black"/>
<path fill-rule="evenodd" clip-rule="evenodd" d="M6.15955 1.93072C6.83379 1.48618 7.70978 1.25 8.75972 1.25H15.2397C16.2897 1.25 17.1657 1.48618 17.8399 1.93072C18.5207 2.3796 18.9545 3.01492 19.1453 3.72544C19.5209 5.12387 18.9439 6.70561 17.7635 7.77557C17.7635 7.77561 17.7636 7.77553 17.7635 7.77557L13.1149 12L17.7634 16.2243C17.7633 16.2242 17.7635 16.2244 17.7634 16.2243C18.9436 17.2943 19.5209 18.8762 19.1453 20.2746C18.9545 20.9851 18.5207 21.6204 17.8399 22.0693C17.1657 22.5138 16.2897 22.75 15.2397 22.75H8.75972C7.70978 22.75 6.83379 22.5138 6.15955 22.0693C5.47873 21.6204 5.045 20.9851 4.85415 20.2746C4.47859 18.8764 5.05535 17.2949 6.23532 16.2249L10.8845 12L6.23604 7.7757C6.23591 7.77558 6.23616 7.77581 6.23604 7.7757C5.05584 6.70573 4.47855 5.12377 4.85415 3.72544C5.045 3.01492 5.47873 2.3796 6.15955 1.93072ZM11.9997 10.9866L16.7553 6.66495C17.6049 5.89492 17.8985 4.86608 17.6966 4.11456C17.5987 3.75008 17.3819 3.4254 17.0142 3.18303C16.64 2.93632 16.0698 2.75 15.2397 2.75H8.75972C7.92967 2.75 7.35941 2.93632 6.98521 3.18303C6.6176 3.4254 6.4007 3.75008 6.3028 4.11456C6.10094 4.86608 6.39386 5.89427 7.24341 6.6643L11.9997 10.9866ZM11.9997 13.0134L7.24412 17.3351C6.39458 18.1051 6.10094 19.1339 6.3028 19.8854C6.4007 20.2499 6.6176 20.5746 6.98521 20.817C7.35941 21.0637 7.92967 21.25 8.75972 21.25H15.2397C16.0698 21.25 16.64 21.0637 17.0142 20.817C17.3819 20.5746 17.5987 20.2499 17.6966 19.8854C17.8985 19.1339 17.6056 18.1057 16.756 17.3357L11.9997 13.0134Z" fill="black"/>
</svg>
