<svg width="24" height="24" viewBox="0 0 24 24" fill="none" xmlns="http://www.w3.org/2000/svg">
<path fill-rule="evenodd" clip-rule="evenodd" d="M12 7.25C12.4142 7.25 12.75 7.58579 12.75 8V13C12.75 13.4142 12.4142 13.75 12 13.75C11.5858 13.75 11.25 13.4142 11.25 13V8C11.25 7.58579 11.5858 7.25 12 7.25Z" fill="black"/>
<path fill-rule="evenodd" clip-rule="evenodd" d="M12 5.25C7.58421 5.25 4 8.83421 4 13.25C4 17.6658 7.58421 21.25 12 21.25C12.4142 21.25 12.75 21.5858 12.75 22C12.75 22.4142 12.4142 22.75 12 22.75C6.75579 22.75 2.5 18.4942 2.5 13.25C2.5 8.00579 6.75579 3.75 12 3.75C17.2442 3.75 21.5 8.00579 21.5 13.25C21.5 13.6642 21.1642 14 20.75 14C20.3358 14 20 13.6642 20 13.25C20 8.83421 16.4158 5.25 12 5.25Z" fill="black"/>
<path fill-rule="evenodd" clip-rule="evenodd" d="M8.25 2C8.25 1.58579 8.58579 1.25 9 1.25H15C15.4142 1.25 15.75 1.58579 15.75 2C15.75 2.41421 15.4142 2.75 15 2.75H9C8.58579 2.75 8.25 2.41421 8.25 2Z" fill="black"/>
<path fill-rule="evenodd" clip-rule="evenodd" d="M15.9398 16.5339C15.8413 16.5907 15.6504 16.7877 15.6504 17.3403V19.6703C15.6504 20.2229 15.8413 20.4199 15.9398 20.4767C16.0381 20.5334 16.3043 20.6002 16.7838 20.3217L18.7838 19.1617C19.2656 18.8819 19.3404 18.6181 19.3404 18.5053C19.3404 18.3925 19.2656 18.1287 18.7838 17.8489L16.7841 16.6891C16.3046 16.4106 16.0381 16.4773 15.9398 16.5339ZM17.5367 15.3915C16.7763 14.9501 15.9125 14.8184 15.1909 15.2342C14.4695 15.6499 14.1504 16.4629 14.1504 17.3403V19.6703C14.1504 20.5477 14.4695 21.3607 15.1909 21.7764C15.9126 22.1922 16.7765 22.0605 17.537 21.6189L19.5367 20.4591C20.2948 20.0189 20.8404 19.3375 20.8404 18.5053C20.8404 17.6731 20.2952 16.9919 19.537 16.5517L17.5367 15.3915Z" fill="black"/>
</svg>
