<svg width="24" height="24" viewBox="0 0 24 24" fill="none" xmlns="http://www.w3.org/2000/svg">
<path fill-rule="evenodd" clip-rule="evenodd" d="M9.75174 8.35724C12.7491 8.87968 15.1203 11.2509 15.6428 14.2483C18.7526 14.1725 21.25 11.6281 21.25 8.5C21.25 5.32421 18.6758 2.75 15.5 2.75C12.3719 2.75 9.82751 5.24742 9.75174 8.35724ZM8.25 8.5C8.25 4.49579 11.4958 1.25 15.5 1.25C19.5042 1.25 22.75 4.49579 22.75 8.5C22.75 12.5042 19.5042 15.75 15.5 15.75C15.3049 15.75 15.1042 15.7386 14.936 15.7287C14.5621 15.7067 14.2618 15.4123 14.2323 15.039C14.0113 12.2367 11.7633 9.98867 8.96102 9.76767C8.58768 9.73822 8.29327 9.43789 8.27128 9.06403C8.26139 8.89583 8.25 8.69505 8.25 8.5Z" fill="black"/>
<path fill-rule="evenodd" clip-rule="evenodd" d="M8.5 9.75C5.32421 9.75 2.75 12.3242 2.75 15.5C2.75 18.6758 5.32421 21.25 8.5 21.25C11.6758 21.25 14.25 18.6758 14.25 15.5C14.25 15.3572 14.2417 15.2006 14.2318 15.0317C14.0076 12.2352 11.7648 9.99236 8.96828 9.76824C8.79941 9.75833 8.64279 9.75 8.5 9.75ZM1.25 15.5C1.25 11.4958 4.49579 8.25 8.5 8.25C8.69505 8.25 8.89583 8.26139 9.06403 8.27128L9.07895 8.27231C12.6166 8.55131 15.4487 11.3834 15.7277 14.921L15.7287 14.936C15.7386 15.1042 15.75 15.3049 15.75 15.5C15.75 19.5042 12.5042 22.75 8.5 22.75C4.49579 22.75 1.25 19.5042 1.25 15.5Z" fill="black"/>
<path fill-rule="evenodd" clip-rule="evenodd" d="M1.25 3C1.25 2.03579 2.03579 1.25 3 1.25H5.59C7.16011 1.25 7.91077 3.14247 6.83454 4.23606L6.83033 4.24034L4.24032 6.83032C3.1354 7.93524 1.25 7.14471 1.25 5.59V3ZM3 2.75C2.86421 2.75 2.75 2.86421 2.75 3V5.59C2.75 5.81528 3.02458 5.92474 3.17966 5.76966L5.76691 3.18241C5.84324 3.10379 5.85887 3.00412 5.81784 2.90456C5.77736 2.80636 5.69964 2.75 5.59 2.75H3Z" fill="black"/>
<path fill-rule="evenodd" clip-rule="evenodd" d="M19.7594 17.1698C20.8643 16.0649 22.7497 16.8554 22.7497 18.4102V21.0002C22.7497 21.9644 21.9639 22.7502 20.9997 22.7502H18.4097C16.8396 22.7502 16.0889 20.8577 17.1652 19.7641L17.1694 19.7598L19.7594 17.1698ZM21.2497 18.4102C21.2497 18.1849 20.9751 18.0754 20.8201 18.2305L18.2328 20.8177C18.1565 20.8964 18.1409 20.996 18.1819 21.0956C18.2224 21.1938 18.3001 21.2502 18.4097 21.2502H20.9997C21.1355 21.2502 21.2497 21.1359 21.2497 21.0002V18.4102Z" fill="black"/>
</svg>
