<svg width="24" height="24" viewBox="0 0 24 24" fill="none" xmlns="http://www.w3.org/2000/svg">
<path fill-rule="evenodd" clip-rule="evenodd" d="M16.9204 13.6504C17.2043 13.6504 17.4638 13.8106 17.5909 14.0644L19.7309 18.3343C19.9165 18.7046 19.7668 19.1553 19.3965 19.3409C19.0262 19.5264 18.5755 19.3767 18.3899 19.0064L16.9204 16.0743L15.4509 19.0064C15.2654 19.3767 14.8147 19.5264 14.4444 19.3409C14.0741 19.1553 13.9243 18.7046 14.1099 18.3343L16.2499 14.0644C16.3771 13.8106 16.6366 13.6504 16.9204 13.6504Z" fill="black"/>
<path fill-rule="evenodd" clip-rule="evenodd" d="M14.4199 17.9102C14.4199 17.4959 14.7557 17.1602 15.1699 17.1602H18.6899C19.1041 17.1602 19.4399 17.4959 19.4399 17.9102C19.4399 18.3244 19.1041 18.6602 18.6899 18.6602H15.1699C14.7557 18.6602 14.4199 18.3244 14.4199 17.9102Z" fill="black"/>
<path fill-rule="evenodd" clip-rule="evenodd" d="M16.9198 12.5898C14.525 12.5898 12.5898 14.5331 12.5898 16.9198C12.5898 19.3146 14.5331 21.2498 16.9198 21.2498C19.3156 21.2498 21.2498 19.3156 21.2498 16.9198C21.2498 14.525 19.3066 12.5898 16.9198 12.5898ZM11.0898 16.9198C11.0898 13.7065 13.6947 11.0898 16.9198 11.0898C20.1331 11.0898 22.7498 13.6946 22.7498 16.9198C22.7498 20.144 20.1441 22.7498 16.9198 22.7498C13.7066 22.7498 11.0898 20.145 11.0898 16.9198Z" fill="black"/>
<path fill-rule="evenodd" clip-rule="evenodd" d="M3.28217 3.28224C2.97105 3.5926 2.75 4.11967 2.75 5.01001V8.92999C2.75 9.85715 2.97443 10.3968 3.28349 10.7066C3.58934 11.0132 4.11121 11.2279 5.00516 11.2102L5.02 11.21H8.94L8.95811 11.2102C9.88302 11.2326 10.413 11.0164 10.7147 10.7147C11.0163 10.413 11.2326 9.88302 11.2102 8.95811L11.21 8.94V5.02002L11.2102 5.00146C11.2324 4.10807 11.0193 3.58751 10.7147 3.28284C10.4064 2.97458 9.86749 2.75 8.94 2.75H5.02C4.12373 2.75 3.59364 2.97155 3.28217 3.28224ZM2.22283 2.22027C2.91636 1.52846 3.89628 1.25 5.02 1.25H8.94C10.0825 1.25 11.0786 1.52543 11.7753 2.22218C12.4737 2.92054 12.7362 3.90637 12.71 5.02901V8.93119C12.736 10.0724 12.4768 11.0739 11.7753 11.7753C11.0739 12.4768 10.0724 12.7361 8.93119 12.71H5.02722C3.90433 12.731 2.91909 12.4652 2.22151 11.7659C1.52557 11.0682 1.25 10.0728 1.25 8.92999V5.01001C1.25 3.89035 1.52896 2.91242 2.22283 2.22027Z" fill="black"/>
<path fill-rule="evenodd" clip-rule="evenodd" d="M4.2002 5.84961C4.2002 5.4354 4.53598 5.09961 4.9502 5.09961H9.01019C9.42441 5.09961 9.76019 5.4354 9.76019 5.84961C9.76019 6.26382 9.42441 6.59961 9.01019 6.59961H4.9502C4.53598 6.59961 4.2002 6.26382 4.2002 5.84961Z" fill="black"/>
<path fill-rule="evenodd" clip-rule="evenodd" d="M6.96973 4.41992C7.38394 4.41992 7.71973 4.75571 7.71973 5.16992V5.84991C7.71973 6.26413 7.38394 6.59991 6.96973 6.59991C6.55551 6.59991 6.21973 6.26413 6.21973 5.84991V5.16992C6.21973 4.75571 6.55551 4.41992 6.96973 4.41992Z" fill="black"/>
<path fill-rule="evenodd" clip-rule="evenodd" d="M7.98946 5.08984C8.40367 5.08984 8.73946 5.42563 8.73946 5.83984C8.73946 7.97713 7.06009 9.75983 4.93945 9.75983C4.52524 9.75983 4.18945 9.42404 4.18945 9.00983C4.18945 8.59561 4.52524 8.25983 4.93945 8.25983C6.17882 8.25983 7.23946 7.20255 7.23946 5.83984C7.23946 5.42563 7.57524 5.08984 7.98946 5.08984Z" fill="black"/>
<path fill-rule="evenodd" clip-rule="evenodd" d="M6.71332 7.39772C7.04597 7.15092 7.51572 7.22051 7.76253 7.55316C8.11063 8.02235 8.56325 8.26006 9.01019 8.26006C9.42441 8.26006 9.76019 8.59584 9.76019 9.01006C9.76019 9.42427 9.42441 9.76006 9.01019 9.76006C7.99714 9.76006 7.12978 9.21775 6.55788 8.44693C6.31107 8.11428 6.38066 7.64453 6.71332 7.39772Z" fill="black"/>
<path fill-rule="evenodd" clip-rule="evenodd" d="M2 14.25C2.41421 14.25 2.75 14.5858 2.75 15C2.75 17.9666 4.8091 20.4456 7.57819 21.0881L7.30688 20.6359C7.09377 20.2807 7.20894 19.82 7.56412 19.6069C7.91931 19.3938 8.38 19.5089 8.59312 19.8641L9.64312 21.6141C9.78214 21.8458 9.78578 22.1344 9.65265 22.3695C9.51952 22.6047 9.2702 22.75 9 22.75C4.71579 22.75 1.25 19.2842 1.25 15C1.25 14.5858 1.58579 14.25 2 14.25Z" fill="black"/>
<path fill-rule="evenodd" clip-rule="evenodd" d="M14.3474 1.63048C14.4805 1.39534 14.7298 1.25 15 1.25C19.2842 1.25 22.75 4.71579 22.75 9C22.75 9.41421 22.4142 9.75 22 9.75C21.5858 9.75 21.25 9.41421 21.25 9C21.25 6.03342 19.1909 3.55437 16.4218 2.91194L16.6931 3.36413C16.9062 3.71931 16.7911 4.18001 16.4359 4.39312C16.0807 4.60623 15.62 4.49106 15.4069 4.13587L14.3569 2.38587C14.2179 2.15417 14.2142 1.86561 14.3474 1.63048Z" fill="black"/>
</svg>
