<svg width="24" height="24" viewBox="0 0 24 24" fill="none" xmlns="http://www.w3.org/2000/svg">
<path fill-rule="evenodd" clip-rule="evenodd" d="M4.96578 5.03415C6.97033 4.83171 8.97512 4.73047 10.9801 4.73047C14.3454 4.73047 17.7201 4.90176 21.074 5.23412C21.4862 5.27497 21.7872 5.64224 21.7464 6.05443C21.7055 6.46663 21.3383 6.76766 20.9261 6.72681C17.62 6.39918 14.2947 6.23047 10.9801 6.23047C9.02535 6.23047 7.07051 6.32919 5.11543 6.52667L5.11323 6.52689L3.07323 6.72689C2.661 6.76731 2.29405 6.46588 2.25363 6.05365C2.21322 5.64141 2.51464 5.27446 2.92688 5.23405L4.96578 5.03415Z" fill="black"/>
<path fill-rule="evenodd" clip-rule="evenodd" d="M9.4597 3.78456L9.23976 5.09421C9.17116 5.50271 8.7844 5.77824 8.3759 5.70964C7.96741 5.64104 7.69187 5.25428 7.76048 4.84578L7.98048 3.53579C7.98432 3.51297 7.98828 3.48908 7.99228 3.46487C8.06114 3.04899 8.16216 2.43887 8.56885 1.97769C9.04291 1.44012 9.76621 1.25 10.6901 1.25H13.3101C14.2453 1.25 14.9678 1.4554 15.4391 1.99845C15.8463 2.46776 15.9448 3.08006 16.0106 3.48891C16.0138 3.5088 16.0169 3.52822 16.02 3.54711L16.2396 4.84486C16.3087 5.25326 16.0337 5.64037 15.6253 5.70949C15.2169 5.7786 14.8297 5.50355 14.7606 5.09514L14.5399 3.79069C14.4562 3.27767 14.4033 3.09352 14.3062 2.98155C14.2524 2.9196 14.065 2.75 13.3101 2.75H10.6901C9.92402 2.75 9.74232 2.91488 9.69389 2.96981C9.60177 3.07427 9.54978 3.24976 9.4597 3.78456Z" fill="black"/>
<path fill-rule="evenodd" clip-rule="evenodd" d="M18.8978 8.39123C19.3111 8.41791 19.6246 8.77463 19.5979 9.18799L18.9476 19.2621L18.9463 19.2811C18.9199 19.6573 18.891 20.0711 18.8134 20.456C18.733 20.8552 18.5913 21.2765 18.3042 21.6503C17.7031 22.433 16.68 22.7497 15.2094 22.7497H8.78944C7.31888 22.7497 6.29581 22.433 5.69464 21.6503C5.40754 21.2765 5.26585 20.8552 5.18545 20.456C5.10792 20.0711 5.07895 19.6573 5.05261 19.2811L5.05099 19.258L4.401 9.18799C4.37432 8.77463 4.68778 8.41791 5.10113 8.39123C5.51448 8.36455 5.8712 8.67801 5.89788 9.09136L6.54761 19.1573L6.54775 19.1593C6.57597 19.5621 6.59986 19.8815 6.65593 20.1599C6.71054 20.431 6.78634 20.6091 6.88424 20.7366C7.05307 20.9564 7.47 21.2497 8.78944 21.2497H15.2094C16.5289 21.2497 16.9458 20.9564 17.1146 20.7366C17.2125 20.6091 17.2883 20.431 17.343 20.1599C17.399 19.8815 17.4229 19.562 17.4511 19.1593L17.4513 19.1573L18.101 9.09136C18.1277 8.67801 18.4844 8.36455 18.8978 8.39123Z" fill="black"/>
<path fill-rule="evenodd" clip-rule="evenodd" d="M9.58008 16.5C9.58008 16.0858 9.91586 15.75 10.3301 15.75H13.6601C14.0743 15.75 14.4101 16.0858 14.4101 16.5C14.4101 16.9142 14.0743 17.25 13.6601 17.25H10.3301C9.91586 17.25 9.58008 16.9142 9.58008 16.5Z" fill="black"/>
<path fill-rule="evenodd" clip-rule="evenodd" d="M8.75 12.5C8.75 12.0858 9.08579 11.75 9.5 11.75H14.5C14.9142 11.75 15.25 12.0858 15.25 12.5C15.25 12.9142 14.9142 13.25 14.5 13.25H9.5C9.08579 13.25 8.75 12.9142 8.75 12.5Z" fill="black"/>
</svg>
