<svg width="24" height="24" viewBox="0 0 24 24" fill="none" xmlns="http://www.w3.org/2000/svg">
<path fill-rule="evenodd" clip-rule="evenodd" d="M11.9985 2.69531C11.959 2.69531 11.8448 2.71387 11.7142 2.90041L11.7102 2.90616L7.53879 8.74804C7.33868 9.02646 7.3419 9.16598 7.34698 9.20071C7.37201 9.22489 7.48403 9.31031 7.82977 9.31031H16.1698C16.5104 9.31031 16.6234 9.22752 16.6499 9.20266C16.6545 9.16611 16.654 9.02671 16.4538 8.75219L16.4494 8.74616L12.2794 2.90614L12.2713 2.89446C12.1464 2.71234 12.0368 2.69531 11.9985 2.69531ZM13.5039 2.0397C13.1487 1.52551 12.6103 1.19531 11.9985 1.19531C11.3868 1.19531 10.847 1.5254 10.4876 2.03707L6.32077 7.87258L6.32001 7.87363C5.89784 8.4615 5.66274 9.21197 6.01195 9.88909C6.36064 10.5652 7.10771 10.8103 7.82977 10.8103H16.1698C16.8909 10.8103 17.6401 10.5656 17.9874 9.88701C18.335 9.20782 18.0943 8.45769 17.6681 7.87164L13.5039 2.0397Z" fill="black"/>
<path fill-rule="evenodd" clip-rule="evenodd" d="M8.60867 9.62488C8.74936 9.42706 8.9771 9.30957 9.21985 9.30957H14.7899C15.0326 9.30957 15.2603 9.42706 15.401 9.62488L19.389 15.232C19.9286 15.9762 20.1954 16.8714 19.7937 17.6563C19.392 18.4411 18.5088 18.7496 17.5898 18.7496H6.41986C5.50092 18.7496 4.6177 18.4411 4.21598 17.6563C3.81427 16.8714 4.0811 15.9762 4.62076 15.232L8.60867 9.62488ZM9.60678 10.8096L5.83665 16.1104C5.44788 16.6455 5.52104 16.9138 5.55124 16.9729C5.58203 17.033 5.75881 17.2496 6.41986 17.2496H17.5898C18.2509 17.2496 18.4277 17.033 18.4585 16.9729C18.4887 16.9138 18.5619 16.6455 18.1731 16.1104L18.1686 16.1043L14.4029 10.8096H9.60678Z" fill="black"/>
<path fill-rule="evenodd" clip-rule="evenodd" d="M12 17.25C12.4142 17.25 12.75 17.5858 12.75 18V22C12.75 22.4142 12.4142 22.75 12 22.75C11.5858 22.75 11.25 22.4142 11.25 22V18C11.25 17.5858 11.5858 17.25 12 17.25Z" fill="black"/>
</svg>
