<svg width="24" height="24" viewBox="0 0 24 24" fill="none" xmlns="http://www.w3.org/2000/svg">
<path fill-rule="evenodd" clip-rule="evenodd" d="M4.15533 4.15533C3.2398 5.07086 2.75 6.57397 2.75 9V15C2.75 17.426 3.2398 18.9291 4.15533 19.8447C5.07086 20.7602 6.57397 21.25 9 21.25H15C17.426 21.25 18.9291 20.7602 19.8447 19.8447C20.7602 18.9291 21.25 17.426 21.25 15V9C21.25 6.57397 20.7602 5.07086 19.8447 4.15533C18.9291 3.2398 17.426 2.75 15 2.75H9C6.57397 2.75 5.07086 3.2398 4.15533 4.15533ZM3.09467 3.09467C4.42914 1.7602 6.42603 1.25 9 1.25H15C17.574 1.25 19.5709 1.7602 20.9053 3.09467C22.2398 4.42914 22.75 6.42603 22.75 9V15C22.75 17.574 22.2398 19.5709 20.9053 20.9053C19.5709 22.2398 17.574 22.75 15 22.75H9C6.42603 22.75 4.42914 22.2398 3.09467 20.9053C1.7602 19.5709 1.25 17.574 1.25 15V9C1.25 6.42603 1.7602 4.42914 3.09467 3.09467Z" fill="black"/>
<path fill-rule="evenodd" clip-rule="evenodd" d="M7.09988 7.04004C6.8441 7.04004 6.62988 7.25425 6.62988 7.51004V16.5C6.62988 16.7558 6.8441 16.97 7.09988 16.97H9.54988C9.80169 16.97 10.0199 16.7598 10.0199 16.49V7.51004C10.0199 7.25425 9.80567 7.04004 9.54988 7.04004H7.09988ZM5.12988 7.51004C5.12988 6.42583 6.01567 5.54004 7.09988 5.54004H9.54988C10.6341 5.54004 11.5199 6.42583 11.5199 7.51004V16.49C11.5199 17.5803 10.6381 18.47 9.54988 18.47H7.09988C6.01567 18.47 5.12988 17.5843 5.12988 16.5V7.51004Z" fill="black"/>
<path fill-rule="evenodd" clip-rule="evenodd" d="M14.1997 7.04004C14.0739 7.04004 13.9697 7.14425 13.9697 7.27004V12.65C13.9697 12.7758 14.0739 12.88 14.1997 12.88H17.1397C17.2037 12.88 17.2645 12.854 17.3094 12.8097C17.3537 12.7661 17.3707 12.7174 17.3699 12.6742L17.3697 12.6671V7.27004C17.3697 7.14425 17.2655 7.04004 17.1397 7.04004H14.1997ZM12.4697 7.27004C12.4697 6.31583 13.2455 5.54004 14.1997 5.54004H17.1397C18.0939 5.54004 18.8697 6.31582 18.8697 7.27004V12.654C18.8834 13.6231 18.0732 14.38 17.1397 14.38H14.1997C13.2455 14.38 12.4697 13.6043 12.4697 12.65V7.27004Z" fill="black"/>
</svg>
