<svg width="24" height="24" viewBox="0 0 24 24" fill="none" xmlns="http://www.w3.org/2000/svg">
<path fill-rule="evenodd" clip-rule="evenodd" d="M11.1874 1.30711C11.4677 1.4232 11.6504 1.69668 11.6504 2.00002V6.00002C11.6504 6.19893 11.5714 6.3897 11.4307 6.53035L5.96105 12L11.4307 17.4697C11.5714 17.6103 11.6504 17.8011 11.6504 18V22C11.6504 22.3034 11.4677 22.5768 11.1874 22.6929C10.9071 22.809 10.5846 22.7449 10.3701 22.5304L0.370061 12.5304C0.0771673 12.2375 0.0771673 11.7626 0.370061 11.4697L10.3701 1.46969C10.5846 1.25519 10.9071 1.19103 11.1874 1.30711ZM1.96105 12L10.1504 20.1894V18.3107L4.37006 12.5304C4.07717 12.2375 4.07717 11.7626 4.37006 11.4697L10.1504 5.68936V3.81068L1.96105 12Z" fill="black"/>
<path fill-rule="evenodd" clip-rule="evenodd" d="M12.6134 1.30711C12.8936 1.19103 13.2162 1.25519 13.4307 1.46969L23.4307 11.4697C23.7236 11.7626 23.7236 12.2375 23.4307 12.5304L13.4307 22.5304C13.2162 22.7449 12.8936 22.809 12.6134 22.6929C12.3331 22.5768 12.1504 22.3034 12.1504 22V18C12.1504 17.8011 12.2294 17.6103 12.3701 17.4697L17.8397 12L12.3701 6.53035C12.2294 6.3897 12.1504 6.19893 12.1504 6.00002V2.00002C12.1504 1.69668 12.3331 1.4232 12.6134 1.30711ZM13.6504 3.81068V5.68936L19.4307 11.4697C19.7236 11.7626 19.7236 12.2375 19.4307 12.5304L13.6504 18.3107V20.1894L21.8397 12L13.6504 3.81068Z" fill="black"/>
<path fill-rule="evenodd" clip-rule="evenodd" d="M11.1874 8.30711C11.4677 8.4232 11.6504 8.69668 11.6504 9.00002V15C11.6504 15.3034 11.4677 15.5768 11.1874 15.6929C10.9071 15.809 10.5846 15.7449 10.3701 15.5304L7.37006 12.5304C7.07717 12.2375 7.07717 11.7626 7.37006 11.4697L10.3701 8.46969C10.5846 8.25519 10.9071 8.19103 11.1874 8.30711ZM8.96105 12L10.1504 13.1894V10.8107L8.96105 12Z" fill="black"/>
</svg>
