<svg width="24" height="24" viewBox="0 0 24 24" fill="none" xmlns="http://www.w3.org/2000/svg">
<path fill-rule="evenodd" clip-rule="evenodd" d="M11.9999 3.34277C11.2 3.34277 10.2322 3.89167 9.41576 5.36399L3.35577 16.264C2.59528 17.6356 2.6278 18.7174 3.0354 19.4119C3.44259 20.1056 4.36961 20.6603 5.93985 20.6603H11.9999C12.0417 20.6603 12.0827 20.6637 12.1226 20.6703H18.0599C19.6243 20.6703 20.5522 20.116 20.9609 19.4213C21.3697 18.7263 21.4039 17.6445 20.6439 16.274L14.5843 5.36461C13.7679 3.89229 12.7997 3.34277 11.9999 3.34277ZM11.8771 22.1603H5.93985C4.04009 22.1603 2.50711 21.475 1.7418 20.1712C0.976903 18.8681 1.12442 17.195 2.04393 15.5366L8.10394 4.63656C9.0675 2.89927 10.4499 1.84277 11.9999 1.84277C13.5498 1.84277 14.9319 2.89863 15.8954 4.63594L21.9556 15.5462C22.8757 17.2057 23.02 18.8792 22.2538 20.1818C21.4875 21.4845 19.9554 22.1703 18.0599 22.1703H11.9999C11.958 22.1703 11.917 22.1669 11.8771 22.1603Z" fill="black"/>
<path fill-rule="evenodd" clip-rule="evenodd" d="M11.5695 12.7753C11.8277 12.5944 12.1715 12.5944 12.4298 12.7753L21.8698 19.3853C22.2091 19.6229 22.2916 20.0905 22.054 20.4298C21.8164 20.7691 21.3488 20.8516 21.0095 20.614L11.9996 14.3052L2.98982 20.614C2.65052 20.8516 2.18286 20.7691 1.94527 20.4298C1.70769 20.0905 1.79015 19.6229 2.12945 19.3853L11.5695 12.7753Z" fill="black"/>
<path fill-rule="evenodd" clip-rule="evenodd" d="M12 2.25C12.4142 2.25 12.75 2.58579 12.75 3V13.39C12.75 13.8042 12.4142 14.14 12 14.14C11.5858 14.14 11.25 13.8042 11.25 13.39V3C11.25 2.58579 11.5858 2.25 12 2.25Z" fill="black"/>
</svg>
