<svg width="24" height="24" viewBox="0 0 24 24" fill="none" xmlns="http://www.w3.org/2000/svg">
<path fill-rule="evenodd" clip-rule="evenodd" d="M3.09467 3.09467C4.42914 1.7602 6.42603 1.25 9 1.25H15C17.574 1.25 19.5709 1.7602 20.9053 3.09467C22.2398 4.42914 22.75 6.42603 22.75 9V15C22.75 17.574 22.2398 19.5709 20.9053 20.9053C19.5709 22.2398 17.574 22.75 15 22.75H9C6.42603 22.75 4.42914 22.2398 3.09467 20.9053C1.7602 19.5709 1.25 17.574 1.25 15V9C1.25 6.42603 1.7602 4.42914 3.09467 3.09467ZM4.15533 4.15533C3.2398 5.07086 2.75 6.57397 2.75 9V15C2.75 17.426 3.2398 18.9291 4.15533 19.8447C5.07086 20.7602 6.57397 21.25 9 21.25H15C17.426 21.25 18.9291 20.7602 19.8447 19.8447C20.7602 18.9291 21.25 17.426 21.25 15V9C21.25 6.57397 20.7602 5.07086 19.8447 4.15533C18.9291 3.2398 17.426 2.75 15 2.75H9C6.57397 2.75 5.07086 3.2398 4.15533 4.15533Z" fill="black"/>
<path fill-rule="evenodd" clip-rule="evenodd" d="M7.36586 8.17336C8.67861 8.04111 10.0033 7.96973 11.3297 7.96973C13.5446 7.96973 15.7698 8.08098 17.975 8.30352C18.3871 8.34511 18.6875 8.71291 18.6459 9.12503C18.6043 9.53715 18.2365 9.83753 17.8243 9.79594C15.6695 9.57848 13.4947 9.46973 11.3297 9.46973C10.0565 9.46973 8.78165 9.53828 7.51486 9.66594L7.51208 9.66622L6.17209 9.79622C5.75981 9.83622 5.39317 9.53443 5.35317 9.12215C5.31317 8.70987 5.61496 8.34323 6.02724 8.30323L7.36586 8.17336Z" fill="black"/>
<path fill-rule="evenodd" clip-rule="evenodd" d="M10.6568 7.3117C10.6341 7.38843 10.6171 7.48478 10.5905 7.64985L10.4503 8.51093C10.3838 8.91976 9.9984 9.19724 9.58957 9.13068C9.18074 9.06413 8.90327 8.67875 8.96982 8.26992L9.10964 7.411C9.10962 7.41117 9.10967 7.41083 9.10964 7.411C9.11215 7.39544 9.11482 7.37839 9.11755 7.36096C9.1591 7.09527 9.23312 6.62203 9.55278 6.25803C9.93651 5.82108 10.505 5.69043 11.1401 5.69043H12.8601C13.504 5.69043 14.0699 5.83024 14.4505 6.26909C14.7648 6.63157 14.84 7.09857 14.8816 7.35635C14.8845 7.37433 14.8872 7.39129 14.8899 7.40713L14.8901 7.40854L15.0301 8.25855C15.0974 8.66725 14.8207 9.05315 14.4119 9.12046C14.0032 9.18778 13.6173 8.91103 13.55 8.50232L13.4103 7.65373C13.4102 7.6535 13.4103 7.65395 13.4103 7.65373C13.3835 7.49302 13.3667 7.39826 13.3438 7.32155C13.3324 7.28368 13.3233 7.26385 13.3187 7.25508C13.2861 7.23672 13.1693 7.19043 12.8601 7.19043H11.1401C10.8336 7.19043 10.7139 7.23388 10.6785 7.25209C10.6739 7.2616 10.6662 7.28 10.6568 7.3117ZM10.6663 7.25996C10.6661 7.25981 10.6679 7.25816 10.6724 7.25546C10.6688 7.25876 10.6665 7.26011 10.6663 7.25996ZM13.329 7.26244C13.3288 7.26263 13.3262 7.26107 13.3223 7.25722C13.3273 7.26033 13.3293 7.26226 13.329 7.26244Z" fill="black"/>
<path fill-rule="evenodd" clip-rule="evenodd" d="M7.45127 8.3815C7.8646 8.35457 8.22151 8.66781 8.24844 9.08115L8.67829 15.679C8.67832 15.6794 8.67834 15.6797 8.67836 15.6801C8.69657 15.9478 8.71117 16.14 8.74383 16.303C8.775 16.4585 8.8133 16.5333 8.84483 16.5743C8.88109 16.6215 9.05041 16.8099 9.89003 16.8099H14.1C14.9396 16.8099 15.109 16.6215 15.1452 16.5743C15.1767 16.5333 15.215 16.4585 15.2462 16.303C15.2789 16.14 15.2935 15.9479 15.3117 15.6801C15.3117 15.6797 15.3117 15.6794 15.3118 15.679L15.7416 9.08115C15.7685 8.66781 16.1255 8.35457 16.5388 8.3815C16.9521 8.40843 17.2654 8.76533 17.2384 9.17867L16.8084 15.7787L16.8083 15.7808L16.8072 15.7965C16.7907 16.0399 16.7712 16.3271 16.717 16.5978C16.66 16.8819 16.5558 17.2003 16.3348 17.488C15.8661 18.0983 15.0904 18.3099 14.1 18.3099H9.89003C8.89964 18.3099 8.12396 18.0983 7.65522 17.488C7.43424 17.2003 7.33004 16.8819 7.27308 16.5978C7.21884 16.3271 7.19934 16.0399 7.18282 15.7965L7.18175 15.7808L7.18161 15.7787L6.75161 9.17867C6.72468 8.76533 7.03793 8.40843 7.45127 8.3815Z" fill="black"/>
</svg>
