<svg width="24" height="24" viewBox="0 0 24 24" fill="none" xmlns="http://www.w3.org/2000/svg">
<path fill-rule="evenodd" clip-rule="evenodd" d="M9.99754 5.08884L3.52246 8.17695C3.51341 8.18127 3.50427 8.18541 3.49505 8.18936C3.11612 8.35176 2.84961 8.74745 2.84961 9.3V16.8C2.84961 17.3526 3.11612 17.7482 3.49505 17.9106C3.50427 17.9146 3.51341 17.9187 3.52246 17.923L9.99754 21.0112C10.3127 21.1296 10.7866 21.1296 11.1017 21.0112L17.5768 17.923C17.5858 17.9187 17.5949 17.9146 17.6042 17.9106C17.9831 17.7482 18.2496 17.3526 18.2496 16.8V10.7494C18.1811 10.7501 18.114 10.7501 18.0484 10.75C18.032 10.75 18.0158 10.75 17.9996 10.75C15.4406 10.75 13.34 8.70346 13.2524 6.16495L11.096 5.08673C10.7809 4.97039 10.3108 4.97109 9.99754 5.08884ZM9.42107 3.70364C10.0999 3.43212 10.9993 3.43212 11.6782 3.70364C11.6975 3.71136 11.7164 3.71988 11.735 3.72918L14.335 5.02918C14.5891 5.15622 14.7496 5.41592 14.7496 5.7V6C14.7496 7.78579 16.2138 9.25 17.9996 9.25C18.4262 9.25 18.5987 9.24306 18.7624 9.18849C18.9911 9.11225 19.2426 9.1506 19.4381 9.29157C19.6337 9.43253 19.7496 9.65892 19.7496 9.9V16.8C19.7496 17.8423 19.2213 18.8419 18.21 19.2829L11.7225 22.377C11.7079 22.3839 11.6931 22.3904 11.6782 22.3964C10.9993 22.6679 10.0999 22.6679 9.42107 22.3964C9.40609 22.3904 9.39131 22.3839 9.37675 22.377L2.88919 19.2829C1.87789 18.8419 1.34961 17.8423 1.34961 16.8V9.3C1.34961 8.25769 1.87788 7.2581 2.88918 6.81712L9.37675 3.72305C9.39131 3.7161 9.40609 3.70963 9.42107 3.70364Z" fill="black"/>
<path fill-rule="evenodd" clip-rule="evenodd" d="M7 9.75C7.41421 9.75 7.75 10.0858 7.75 10.5V13.5C7.75 14.1858 8.31421 14.75 9 14.75C9.68579 14.75 10.25 14.1858 10.25 13.5V10.5C10.25 10.0858 10.5858 9.75 11 9.75C11.4142 9.75 11.75 10.0858 11.75 10.5V13.5C11.75 15.0142 10.5142 16.25 9 16.25C7.48579 16.25 6.25 15.0142 6.25 13.5V10.5C6.25 10.0858 6.58579 9.75 7 9.75Z" fill="black"/>
<path fill-rule="evenodd" clip-rule="evenodd" d="M14 9.75C14.4142 9.75 14.75 10.0858 14.75 10.5V15.4C14.75 15.8142 14.4142 16.15 14 16.15C13.5858 16.15 13.25 15.8142 13.25 15.4V10.5C13.25 10.0858 13.5858 9.75 14 9.75Z" fill="black"/>
<path fill-rule="evenodd" clip-rule="evenodd" d="M14.75 5.73984L14.7496 6C14.7496 7.78579 16.2138 9.25 17.9996 9.25C18.4262 9.25 18.5987 9.24306 18.7624 9.18849L18.7755 9.18425L18.7884 9.18048C20.206 8.76353 21.25 7.53045 21.25 6C21.25 4.21421 19.7858 2.75 18 2.75C16.3277 2.75 14.9311 4.10792 14.75 5.73984ZM13.2537 5.62537C13.489 3.27297 15.4843 1.25 18 1.25C20.6142 1.25 22.75 3.38579 22.75 6C22.75 8.26495 21.2003 10.0293 19.2237 10.616C18.811 10.7506 18.4062 10.7503 18.0484 10.75C18.032 10.75 18.0158 10.75 17.9996 10.75C15.3854 10.75 13.25 8.61421 13.25 6V5.66259L13.2537 5.62537Z" fill="black"/>
<path d="M19.1004 5.89981C19.3004 5.69981 19.5004 5.3998 19.5004 5.0998C19.5004 4.2998 18.9004 3.7998 18.0004 3.7998C17.1004 3.7998 16.5004 4.2998 16.5004 5.0998C16.5004 5.3998 16.6004 5.69981 16.9004 5.89981C16.6004 6.0998 16.4004 6.4998 16.4004 6.89981C16.4004 7.69981 17.0004 8.1998 18.0004 8.1998C19.0004 8.1998 19.6004 7.69981 19.6004 6.89981C19.6004 6.4998 19.4004 6.0998 19.1004 5.89981ZM18.0004 5.4998C17.7004 5.4998 17.6004 5.3998 17.6004 5.0998C17.6004 4.7998 17.8004 4.6998 18.0004 4.6998C18.2004 4.6998 18.4004 4.7998 18.4004 5.0998C18.4004 5.3998 18.3004 5.4998 18.0004 5.4998ZM18.0004 6.2998C18.3004 6.2998 18.6004 6.3998 18.6004 6.7998C18.6004 7.0998 18.4004 7.2998 18.0004 7.2998C17.6004 7.2998 17.4004 7.0998 17.4004 6.7998C17.4004 6.3998 17.9004 6.2998 18.0004 6.2998Z" fill="black"/>
</svg>
