<svg width="24" height="24" viewBox="0 0 24 24" fill="none" xmlns="http://www.w3.org/2000/svg">
<path fill-rule="evenodd" clip-rule="evenodd" d="M3.37988 8.30957C3.37988 7.89536 3.71567 7.55957 4.12988 7.55957H15.1299C18.3041 7.55957 20.8799 10.1354 20.8799 13.3096C20.8799 16.4838 18.3041 19.0596 15.1299 19.0596H7.12988C6.71567 19.0596 6.37988 18.7238 6.37988 18.3096C6.37988 17.8954 6.71567 17.5596 7.12988 17.5596H15.1299C17.4757 17.5596 19.3799 15.6554 19.3799 13.3096C19.3799 10.9638 17.4757 9.05957 15.1299 9.05957H4.12988C3.71567 9.05957 3.37988 8.72378 3.37988 8.30957Z" fill="black"/>
<path fill-rule="evenodd" clip-rule="evenodd" d="M6.96045 5.1601C7.25334 5.45299 7.25334 5.92787 6.96045 6.22076L4.93078 8.25043L6.96045 10.2801C7.25334 10.573 7.25334 11.0479 6.96045 11.3408C6.66755 11.6337 6.19268 11.6337 5.89979 11.3408L3.33979 8.78076C3.04689 8.48787 3.04689 8.01299 3.33979 7.7201L5.89979 5.1601C6.19268 4.86721 6.66755 4.86721 6.96045 5.1601Z" fill="black"/>
</svg>
