<svg width="22" height="20" viewBox="0 0 22 20" fill="none" xmlns="http://www.w3.org/2000/svg">
<path d="M20 6.27246C19.9999 4.99233 19.5212 3.77281 18.6826 2.88086C17.8455 1.99062 16.7202 1.5 15.5576 1.5C13.69 1.50003 12.1117 2.57336 11.4502 4.29199C11.3388 4.58156 11.0603 4.77246 10.75 4.77246C10.4397 4.77246 10.1612 4.58156 10.0498 4.29199C9.3883 2.57336 7.80998 1.50003 5.94238 1.5C4.7798 1.5 3.65452 1.99062 2.81738 2.88086C1.9788 3.77281 1.50007 4.99233 1.5 6.27246C1.5 9.30314 3.7733 12.2295 6.25488 14.4883C7.47234 15.5964 8.69329 16.5018 9.61133 17.1309C10.0696 17.4449 10.4507 17.6889 10.7158 17.8535C10.7273 17.8606 10.739 17.8672 10.75 17.874C10.761 17.8672 10.7727 17.8606 10.7842 17.8535C11.0493 17.6889 11.4304 17.4449 11.8887 17.1309C12.8067 16.5018 14.0277 15.5964 15.2451 14.4883C17.7267 12.2295 20 9.30314 20 6.27246ZM21.5 6.27246C21.5 9.99178 18.7733 13.3053 16.2549 15.5977C14.9725 16.7649 13.6932 17.7125 12.7363 18.3682C12.2572 18.6965 11.857 18.953 11.5752 19.1279C11.4345 19.2153 11.3231 19.2823 11.2461 19.3281C11.2076 19.3511 11.177 19.3688 11.1562 19.3809C11.146 19.3868 11.1385 19.3922 11.1328 19.3955C11.13 19.3972 11.1276 19.3985 11.126 19.3994L11.124 19.4004H11.123C10.9209 19.5161 10.678 19.5312 10.4658 19.4443L10.377 19.4004H10.376L10.374 19.3994C10.3724 19.3985 10.37 19.3972 10.3672 19.3955C10.3615 19.3922 10.354 19.3868 10.3438 19.3809C10.323 19.3688 10.2924 19.3511 10.2539 19.3281C10.1769 19.2823 10.0655 19.2153 9.9248 19.1279C9.64303 18.953 9.24284 18.6965 8.76367 18.3682C7.80681 17.7125 6.52748 16.7649 5.24512 15.5977C2.7267 13.3053 0 9.99178 0 6.27246C6.62549e-05 4.62334 0.615821 3.03286 1.72461 1.85352C2.83491 0.672717 4.35106 0 5.94238 0C7.90965 2.31772e-05 9.66541 0.91215 10.75 2.44434C11.8346 0.91215 13.5904 2.32872e-05 15.5576 0C17.1489 0 18.6651 0.672717 19.7754 1.85352C20.8842 3.03286 21.4999 4.62334 21.5 6.27246Z" fill="black"/>
</svg>
