<svg width="24" height="24" viewBox="0 0 24 24" fill="none" xmlns="http://www.w3.org/2000/svg">
<path fill-rule="evenodd" clip-rule="evenodd" d="M1.24023 12.0002C1.24023 9.07596 3.61605 6.7002 6.54025 6.7002C8.30566 6.7002 9.83531 7.56788 10.7873 8.8797C11.0305 9.21495 10.956 9.68393 10.6207 9.92721C10.2855 10.1705 9.8165 10.0959 9.57322 9.76068C8.88516 8.8125 7.79485 8.2002 6.54025 8.2002C4.44446 8.2002 2.74023 9.9044 2.74023 12.0002C2.74023 14.096 4.44446 15.8002 6.54025 15.8002C7.9664 15.8002 9.29247 15.0488 10.0271 13.8243L11.3564 11.6156L11.3576 11.6135L12.6771 9.40429C13.6825 7.72873 15.4964 6.7002 17.4503 6.7002C20.3745 6.7002 22.7502 9.07597 22.7502 12.0002C22.7502 14.9244 20.3745 17.3002 17.4503 17.3002C15.6933 17.3002 14.1659 16.4313 13.2058 15.1242C12.9606 14.7903 13.0324 14.3209 13.3663 14.0757C13.7001 13.8305 14.1695 13.9024 14.4147 14.2362C15.1146 15.189 16.2072 15.8002 17.4503 15.8002C19.546 15.8002 21.2502 14.096 21.2502 12.0002C21.2502 9.9044 19.546 8.2002 17.4503 8.2002C16.0243 8.2002 14.6984 8.95136 13.9637 10.1755C13.9636 10.1757 13.9638 10.1753 13.9637 10.1755L12.6441 12.3848L12.6429 12.3869L11.3134 14.5961C11.3133 14.5962 11.3135 14.5959 11.3134 14.5961C10.308 16.2713 8.49391 17.3002 6.54025 17.3002C3.61605 17.3002 1.24023 14.9244 1.24023 12.0002Z" fill="black"/>
<path fill-rule="evenodd" clip-rule="evenodd" d="M1.24023 12.0002C1.24023 9.07596 3.61605 6.7002 6.54025 6.7002C8.30566 6.7002 9.83531 7.56788 10.7873 8.8797C11.0305 9.21495 10.956 9.68393 10.6207 9.92721C10.2855 10.1705 9.8165 10.0959 9.57322 9.76068C8.88516 8.8125 7.79485 8.2002 6.54025 8.2002C4.44446 8.2002 2.74023 9.9044 2.74023 12.0002C2.74023 14.096 4.44446 15.8002 6.54025 15.8002C7.9664 15.8002 9.29247 15.0488 10.0271 13.8243L11.3564 11.6156L11.3576 11.6135L12.6771 9.40429C13.6825 7.72873 15.4964 6.7002 17.4503 6.7002C20.3745 6.7002 22.7502 9.07597 22.7502 12.0002C22.7502 14.9244 20.3745 17.3002 17.4503 17.3002C15.6933 17.3002 14.1659 16.4313 13.2058 15.1242C12.9606 14.7903 13.0324 14.3209 13.3663 14.0757C13.7001 13.8305 14.1695 13.9024 14.4147 14.2362C15.1146 15.189 16.2072 15.8002 17.4503 15.8002C19.546 15.8002 21.2502 14.096 21.2502 12.0002C21.2502 9.9044 19.546 8.2002 17.4503 8.2002C16.0243 8.2002 14.6984 8.95136 13.9637 10.1755C13.9636 10.1757 13.9638 10.1753 13.9637 10.1755L12.6441 12.3848L12.6429 12.3869L11.3134 14.5961C11.3133 14.5962 11.3135 14.5959 11.3134 14.5961C10.308 16.2713 8.49391 17.3002 6.54025 17.3002C3.61605 17.3002 1.24023 14.9244 1.24023 12.0002Z" fill="black"/>
</svg>
