<svg width="24" height="24" viewBox="0 0 24 24" fill="none" xmlns="http://www.w3.org/2000/svg">
<path fill-rule="evenodd" clip-rule="evenodd" d="M16.3701 6.46967C16.663 6.17678 17.1378 6.17678 17.4307 6.46967C20.4236 9.46256 20.4236 14.4374 17.4307 17.4303C17.1378 17.7232 16.663 17.7232 16.3701 17.4303C16.0772 17.1374 16.0772 16.6626 16.3701 16.3697C18.7772 13.9626 18.7772 9.93744 16.3701 7.53033C16.0772 7.23744 16.0772 6.76256 16.3701 6.46967Z" fill="black"/>
<path fill-rule="evenodd" clip-rule="evenodd" d="M7.63053 6.56928C7.92342 6.86217 7.92342 7.33705 7.63053 7.62994C5.22342 10.037 5.22342 14.0622 7.63053 16.4693C7.92342 16.7622 7.92342 17.237 7.63053 17.5299C7.33763 17.8228 6.86276 17.8228 6.56987 17.5299C3.57697 14.537 3.57697 9.56217 6.56987 6.56928C6.86276 6.27639 7.33763 6.27639 7.63053 6.56928Z" fill="black"/>
<path fill-rule="evenodd" clip-rule="evenodd" d="M11.1002 9.5498C10.7144 9.5498 10.4502 9.81402 10.4502 10.1998C10.4502 10.4754 10.4965 10.559 10.5044 10.571C10.5159 10.5805 10.5823 10.6253 10.8063 10.6573C10.8561 10.6645 10.9051 10.6766 10.9524 10.6935L13.7524 11.6935C13.7613 11.6966 13.77 11.7 13.7787 11.7034C14.0767 11.8226 14.4498 12.0107 14.7335 12.3817C15.0239 12.7616 15.1502 13.238 15.1502 13.7998C15.1502 15.0481 14.0795 15.9498 13.0002 15.9498H11.3002C9.98598 15.9498 8.9502 14.914 8.9502 13.5998C8.9502 13.1856 9.28598 12.8498 9.7002 12.8498C10.1144 12.8498 10.4502 13.1856 10.4502 13.5998C10.4502 14.0856 10.8144 14.4498 11.3002 14.4498H13.0002C13.3209 14.4498 13.6502 14.1515 13.6502 13.7998C13.6502 13.4617 13.5765 13.338 13.5419 13.2929C13.5015 13.24 13.4268 13.1795 13.2338 13.1011L10.515 12.1301C10.116 12.0638 9.68674 11.9179 9.37093 11.5535C9.03557 11.1666 8.9502 10.6741 8.9502 10.1998C8.9502 8.98559 9.88598 8.0498 11.1002 8.0498H12.9002C14.2144 8.0498 15.2502 9.08559 15.2502 10.3998C15.2502 10.814 14.9144 11.1498 14.5002 11.1498C14.086 11.1498 13.7502 10.814 13.7502 10.3998C13.7502 9.91402 13.386 9.5498 12.9002 9.5498H11.1002Z" fill="black"/>
<path fill-rule="evenodd" clip-rule="evenodd" d="M12 7.0498C12.4142 7.0498 12.75 7.38559 12.75 7.7998V16.1998C12.75 16.614 12.4142 16.9498 12 16.9498C11.5858 16.9498 11.25 16.614 11.25 16.1998V7.7998C11.25 7.38559 11.5858 7.0498 12 7.0498Z" fill="black"/>
<path fill-rule="evenodd" clip-rule="evenodd" d="M12 2.75C6.89137 2.75 2.75 6.89137 2.75 12C2.75 17.1086 6.89137 21.25 12 21.25C17.1086 21.25 21.25 17.1086 21.25 12C21.25 6.89137 17.1086 2.75 12 2.75ZM1.25 12C1.25 6.06294 6.06294 1.25 12 1.25C17.9371 1.25 22.75 6.06294 22.75 12C22.75 17.9371 17.9371 22.75 12 22.75C6.06294 22.75 1.25 17.9371 1.25 12Z" fill="black"/>
</svg>
