<svg width="24" height="24" viewBox="0 0 24 24" fill="none" xmlns="http://www.w3.org/2000/svg">
<path fill-rule="evenodd" clip-rule="evenodd" d="M12 2.75C9.65279 2.75 7.75 4.65279 7.75 7C7.75 9.34721 9.65279 11.25 12 11.25C14.3472 11.25 16.25 9.34721 16.25 7C16.25 4.65279 14.3472 2.75 12 2.75ZM6.25 7C6.25 3.82436 8.82436 1.25 12 1.25C15.1756 1.25 17.75 3.82436 17.75 7C17.75 10.1756 15.1756 12.75 12 12.75C8.82436 12.75 6.25 10.1756 6.25 7Z" fill="black"/>
<path fill-rule="evenodd" clip-rule="evenodd" d="M12.0002 15.75C7.52305 15.75 4.16016 18.6809 4.16016 22C4.16016 22.4142 3.82437 22.75 3.41016 22.75C2.99594 22.75 2.66016 22.4142 2.66016 22C2.66016 17.5791 6.99731 14.25 12.0002 14.25C12.4144 14.25 12.7502 14.5858 12.7502 15C12.7502 15.4142 12.4144 15.75 12.0002 15.75Z" fill="black"/>
<path fill-rule="evenodd" clip-rule="evenodd" d="M18.2 15.75C16.8469 15.75 15.75 16.8469 15.75 18.2C15.75 19.5531 16.8469 20.65 18.2 20.65C19.5531 20.65 20.65 19.5531 20.65 18.2C20.65 16.8469 19.5531 15.75 18.2 15.75ZM14.25 18.2C14.25 16.0185 16.0185 14.25 18.2 14.25C20.3815 14.25 22.15 16.0185 22.15 18.2C22.15 20.3815 20.3815 22.15 18.2 22.15C16.0185 22.15 14.25 20.3815 14.25 18.2Z" fill="black"/>
<path fill-rule="evenodd" clip-rule="evenodd" d="M20.4697 20.4697C20.7626 20.1768 21.2374 20.1768 21.5303 20.4697L22.5303 21.4697C22.8232 21.7626 22.8232 22.2374 22.5303 22.5303C22.2374 22.8232 21.7626 22.8232 21.4697 22.5303L20.4697 21.5303C20.1768 21.2374 20.1768 20.7626 20.4697 20.4697Z" fill="black"/>
</svg>
