<svg width="24" height="24" viewBox="0 0 24 24" fill="none" xmlns="http://www.w3.org/2000/svg">
<path fill-rule="evenodd" clip-rule="evenodd" d="M13.1967 3.07041C12.4463 2.64226 11.5315 2.64443 10.7951 3.06953L4.85787 6.49794C4.11595 6.93499 3.66016 7.72968 3.66016 8.58003V15.42C3.66016 16.2836 4.11854 17.0753 4.85514 17.5005L10.7923 20.9289L10.7937 20.9297C11.544 21.3578 12.4588 21.3556 13.1951 20.9305L19.1302 17.5034L19.1325 17.5021C19.8744 17.065 20.3302 16.2703 20.3302 15.42V8.58003C20.3302 7.721 19.8755 6.93563 19.1324 6.49794L19.1302 6.49661L13.1981 3.07118L13.1967 3.07041ZM10.0452 1.77047C11.2484 1.07583 12.7329 1.07774 13.9423 1.76882L13.9452 1.7705L19.8901 5.20335C21.0857 5.90592 21.8302 7.17994 21.8302 8.58003V15.42C21.8302 16.8088 21.0869 18.0934 19.8901 18.7967L19.8852 18.7996L13.9452 22.2295C12.742 22.9242 11.2574 22.9223 10.0481 22.2312L10.0451 22.2295L4.10517 18.7996C2.90178 18.1048 2.16016 16.8164 2.16016 15.42V8.58003C2.16016 7.19125 2.90344 5.90661 4.10018 5.20337L4.1051 5.20048L10.0452 1.77047Z" fill="black"/>
<path fill-rule="evenodd" clip-rule="evenodd" d="M11.9999 7.08984C11.1273 7.08984 10.4199 7.79721 10.4199 8.6698C10.4199 9.54242 11.1273 10.2498 11.9999 10.2498C12.8725 10.2498 13.5799 9.54242 13.5799 8.6698C13.5799 7.79721 12.8726 7.08984 11.9999 7.08984ZM8.91992 8.6698C8.91992 6.96874 10.2989 5.58984 11.9999 5.58984C13.7009 5.58984 15.0799 6.96874 15.0799 8.6698C15.0799 10.3708 13.701 11.7498 11.9999 11.7498C10.2989 11.7498 8.91992 10.3708 8.91992 8.6698Z" fill="black"/>
<path fill-rule="evenodd" clip-rule="evenodd" d="M7.25 16.6603C7.25 14.3101 9.52631 12.6504 12 12.6504C14.4737 12.6504 16.75 14.3101 16.75 16.6603C16.75 17.0746 16.4142 17.4103 16 17.4103C15.5858 17.4103 15.25 17.0746 15.25 16.6603C15.25 15.4105 13.9463 14.1504 12 14.1504C10.0537 14.1504 8.75 15.4105 8.75 16.6603C8.75 17.0746 8.41421 17.4103 8 17.4103C7.58579 17.4103 7.25 17.0746 7.25 16.6603Z" fill="black"/>
</svg>
