<svg width="24" height="24" viewBox="0 0 24 24" fill="none" xmlns="http://www.w3.org/2000/svg">
<path fill-rule="evenodd" clip-rule="evenodd" d="M12 2.75C9.65279 2.75 7.75 4.65279 7.75 7C7.75 9.34721 9.65279 11.25 12 11.25C14.3472 11.25 16.25 9.34721 16.25 7C16.25 4.65279 14.3472 2.75 12 2.75ZM6.25 7C6.25 3.82436 8.82436 1.25 12 1.25C15.1756 1.25 17.75 3.82436 17.75 7C17.75 10.1756 15.1756 12.75 12 12.75C8.82436 12.75 6.25 10.1756 6.25 7Z" fill="black"/>
<path fill-rule="evenodd" clip-rule="evenodd" d="M12.0002 15.75C7.52303 15.75 4.16016 18.6809 4.16016 22C4.16016 22.4142 3.82437 22.75 3.41016 22.75C2.99594 22.75 2.66016 22.4142 2.66016 22C2.66016 17.5791 6.99728 14.25 12.0002 14.25C13.0276 14.25 14.0247 14.3891 14.9596 14.647C15.3589 14.7572 15.5933 15.1701 15.4832 15.5694C15.373 15.9687 14.96 16.2031 14.5607 16.093C13.7556 15.8709 12.8927 15.75 12.0002 15.75Z" fill="black"/>
<path fill-rule="evenodd" clip-rule="evenodd" d="M18 14.75C16.2051 14.75 14.75 16.2051 14.75 18C14.75 19.7949 16.2051 21.25 18 21.25C19.7949 21.25 21.25 19.7949 21.25 18C21.25 16.2051 19.7949 14.75 18 14.75ZM13.25 18C13.25 15.3766 15.3766 13.25 18 13.25C20.6234 13.25 22.75 15.3766 22.75 18C22.75 20.6234 20.6234 22.75 18 22.75C15.3766 22.75 13.25 20.6234 13.25 18Z" fill="black"/>
<path fill-rule="evenodd" clip-rule="evenodd" d="M19.5602 16.4101C19.8531 16.703 19.8531 17.1779 19.5602 17.4708L17.4503 19.5807C17.1574 19.8736 16.6825 19.8736 16.3896 19.5807C16.0967 19.2879 16.0967 18.813 16.3896 18.5201L18.4996 16.4101C18.7925 16.1172 19.2673 16.1172 19.5602 16.4101Z" fill="black"/>
<path fill-rule="evenodd" clip-rule="evenodd" d="M16.4079 16.4309C16.7001 16.1373 17.1749 16.1362 17.4685 16.4284L19.5885 18.5384C19.8821 18.8306 19.8832 19.3054 19.591 19.599C19.2988 19.8926 18.824 19.8937 18.5304 19.6015L16.4104 17.4915C16.1168 17.1993 16.1157 16.7245 16.4079 16.4309Z" fill="black"/>
</svg>
