<svg width="24" height="24" viewBox="0 0 24 24" fill="none" xmlns="http://www.w3.org/2000/svg">
<path fill-rule="evenodd" clip-rule="evenodd" d="M12 2.75C9.65279 2.75 7.75 4.65279 7.75 7C7.75 9.34721 9.65279 11.25 12 11.25C14.3472 11.25 16.25 9.34721 16.25 7C16.25 4.65279 14.3472 2.75 12 2.75ZM6.25 7C6.25 3.82436 8.82436 1.25 12 1.25C15.1756 1.25 17.75 3.82436 17.75 7C17.75 10.1756 15.1756 12.75 12 12.75C8.82436 12.75 6.25 10.1756 6.25 7Z" fill="black"/>
<path fill-rule="evenodd" clip-rule="evenodd" d="M12.0002 15.75C7.52303 15.75 4.16016 18.6809 4.16016 22C4.16016 22.4142 3.82437 22.75 3.41016 22.75C2.99594 22.75 2.66016 22.4142 2.66016 22C2.66016 17.5791 6.99728 14.25 12.0002 14.25C13.0276 14.25 14.0247 14.3891 14.9596 14.647C15.3589 14.7572 15.5933 15.1701 15.4832 15.5694C15.373 15.9687 14.96 16.2031 14.5607 16.093C13.7556 15.8709 12.8927 15.75 12.0002 15.75Z" fill="black"/>
<path fill-rule="evenodd" clip-rule="evenodd" d="M18 14.75C17.2385 14.75 16.5316 15.0169 15.9675 15.4665L15.9662 15.4675C15.221 16.0588 14.75 16.9745 14.75 18C14.75 18.6094 14.9205 19.1833 15.2184 19.6663L15.2247 19.6765C15.7845 20.6177 16.8141 21.25 18 21.25C18.8227 21.25 19.5645 20.9499 20.1283 20.4425C20.1348 20.4367 20.1414 20.431 20.148 20.4254C20.391 20.2216 20.6052 19.9684 20.7722 19.6821L20.7816 19.6663C21.0795 19.1833 21.25 18.6094 21.25 18C21.25 16.2042 19.7958 14.75 18 14.75ZM15.0332 14.293C15.849 13.6429 16.8818 13.25 18 13.25C20.6242 13.25 22.75 15.3758 22.75 18C22.75 18.8874 22.5023 19.7305 22.0632 20.4459C21.8131 20.8725 21.4925 21.2535 21.122 21.5662C20.2871 22.3134 19.1927 22.75 18 22.75C16.268 22.75 14.7594 21.8246 13.9385 20.4486C13.4983 19.7327 13.25 18.8885 13.25 18C13.25 16.5058 13.9387 15.1617 15.0332 14.293Z" fill="black"/>
<path fill-rule="evenodd" clip-rule="evenodd" d="M20.1101 16.5103C20.3913 16.8144 20.3728 17.2889 20.0687 17.5701L17.9387 19.5401C17.6429 19.8136 17.184 19.8047 16.8991 19.5198L15.9091 18.5298C15.6162 18.237 15.6162 17.7621 15.9091 17.4692C16.202 17.1763 16.6769 17.1763 16.9698 17.4692L17.4497 17.9491L19.0502 16.4689C19.3543 16.1877 19.8288 16.2062 20.1101 16.5103Z" fill="black"/>
</svg>
