<svg width="24" height="24" viewBox="0 0 24 24" fill="none" xmlns="http://www.w3.org/2000/svg">
<path fill-rule="evenodd" clip-rule="evenodd" d="M11.9999 6.25C11.9999 6.25 11.9999 6.25 11.9999 6.25C14.3941 6.25 16.33 8.18581 16.33 10.58C16.33 12.9715 14.3969 14.92 12 14.92C11.9906 14.92 11.9813 14.92 11.9719 14.9199C11.8387 14.919 11.7069 14.9122 11.5768 14.8995C9.37953 14.6862 7.66992 12.829 7.66992 10.58C7.66992 8.31672 9.39981 6.46306 11.6116 6.26713C11.7395 6.25579 11.869 6.25 11.9999 6.25ZM11.746 7.76118C10.2997 7.88917 9.17 9.09985 9.17 10.58C9.17 12.075 10.3209 13.3001 11.7822 13.4117C11.8541 13.4172 11.9267 13.42 11.9999 13.42C13.563 13.42 14.8299 12.1485 14.8299 10.58C14.8299 9.01423 13.5657 7.75 11.9999 7.75C11.9877 7.75 11.9755 7.75008 11.9634 7.75023C11.8902 7.75115 11.8177 7.75484 11.746 7.76118Z" fill="black"/>
<path fill-rule="evenodd" clip-rule="evenodd" d="M3.09467 3.09467C4.42914 1.7602 6.42603 1.25 9 1.25H15C17.574 1.25 19.5709 1.7602 20.9053 3.09467C22.2398 4.42914 22.75 6.42603 22.75 9V15C22.75 16.9506 22.4585 18.5641 21.7401 19.8128C21.005 21.0904 19.8679 21.9088 18.3512 22.3397C17.3807 22.6262 16.2645 22.75 15.0001 22.75H9.00011C7.73809 22.75 6.62364 22.6267 5.65445 22.3413C4.13489 21.9108 2.99593 21.092 2.25993 19.8128C1.54148 18.5641 1.25 16.9506 1.25 15V9C1.25 6.42603 1.7602 4.42914 3.09467 3.09467ZM17.278 21.0585C16.7594 19.2325 14.6909 17.72 12 17.72C11.8129 17.72 11.6289 17.7273 11.4482 17.7415C9.02907 17.9318 7.20471 19.3594 6.72216 21.0585C7.3755 21.1863 8.12971 21.25 9.00011 21.25H15.0001C15.8705 21.25 16.6246 21.1863 17.278 21.0585ZM20.4399 19.0647C20.0468 19.748 19.4916 20.2603 18.715 20.6154C18.0113 18.1513 15.4449 16.418 12.5123 16.2359C12.3427 16.2253 12.1719 16.22 12.0001 16.22C8.85837 16.22 6.02949 18.0088 5.28506 20.6155C4.50844 20.2603 3.95322 19.748 3.56007 19.0647C3.02852 18.1409 2.75 16.8294 2.75 15V9C2.75 6.57397 3.2398 5.07086 4.15533 4.15533C5.07086 3.2398 6.57397 2.75 9 2.75H15C17.426 2.75 18.9291 3.2398 19.8447 4.15533C20.7602 5.07086 21.25 6.57397 21.25 9V15C21.25 16.8294 20.9715 18.1409 20.4399 19.0647Z" fill="black"/>
<path fill-rule="evenodd" clip-rule="evenodd" d="M11.9999 6.25C11.9999 6.25 11.9999 6.25 11.9999 6.25C14.3941 6.25 16.33 8.18581 16.33 10.58C16.33 12.9715 14.3969 14.92 12 14.92C11.9906 14.92 11.9813 14.92 11.9719 14.9199C11.8387 14.919 11.7069 14.9122 11.5768 14.8995C9.37953 14.6862 7.66992 12.829 7.66992 10.58C7.66992 8.31672 9.39981 6.46306 11.6116 6.26713C11.7395 6.25579 11.869 6.25 11.9999 6.25ZM11.746 7.76118C10.2997 7.88917 9.17 9.09985 9.17 10.58C9.17 12.075 10.3209 13.3001 11.7822 13.4117C11.8541 13.4172 11.9267 13.42 11.9999 13.42C13.563 13.42 14.8299 12.1485 14.8299 10.58C14.8299 9.01423 13.5657 7.75 11.9999 7.75C11.9877 7.75 11.9755 7.75008 11.9634 7.75023C11.8902 7.75115 11.8177 7.75484 11.746 7.76118Z" fill="black"/>
<path fill-rule="evenodd" clip-rule="evenodd" d="M3.09467 3.09467C4.42914 1.7602 6.42603 1.25 9 1.25H15C17.574 1.25 19.5709 1.7602 20.9053 3.09467C22.2398 4.42914 22.75 6.42603 22.75 9V15C22.75 16.9506 22.4585 18.5641 21.7401 19.8128C21.005 21.0904 19.8679 21.9088 18.3512 22.3397C17.3807 22.6262 16.2645 22.75 15.0001 22.75H9.00011C7.73809 22.75 6.62364 22.6267 5.65445 22.3413C4.13489 21.9108 2.99593 21.092 2.25993 19.8128C1.54148 18.5641 1.25 16.9506 1.25 15V9C1.25 6.42603 1.7602 4.42914 3.09467 3.09467ZM17.278 21.0585C16.7594 19.2325 14.6909 17.72 12 17.72C11.8129 17.72 11.6289 17.7273 11.4482 17.7415C9.02907 17.9318 7.20471 19.3594 6.72216 21.0585C7.3755 21.1863 8.12971 21.25 9.00011 21.25H15.0001C15.8705 21.25 16.6246 21.1863 17.278 21.0585ZM20.4399 19.0647C20.0468 19.748 19.4916 20.2603 18.715 20.6154C18.0113 18.1513 15.4449 16.418 12.5123 16.2359C12.3427 16.2253 12.1719 16.22 12.0001 16.22C8.85837 16.22 6.02949 18.0088 5.28506 20.6155C4.50844 20.2603 3.95322 19.748 3.56007 19.0647C3.02852 18.1409 2.75 16.8294 2.75 15V9C2.75 6.57397 3.2398 5.07086 4.15533 4.15533C5.07086 3.2398 6.57397 2.75 9 2.75H15C17.426 2.75 18.9291 3.2398 19.8447 4.15533C20.7602 5.07086 21.25 6.57397 21.25 9V15C21.25 16.8294 20.9715 18.1409 20.4399 19.0647Z" fill="black"/>
<path fill-rule="evenodd" clip-rule="evenodd" d="M11.9999 6.25C11.9999 6.25 11.9999 6.25 11.9999 6.25C14.3941 6.25 16.33 8.18581 16.33 10.58C16.33 12.9715 14.3969 14.92 12 14.92C11.9906 14.92 11.9813 14.92 11.9719 14.9199C11.8387 14.919 11.7069 14.9122 11.5768 14.8995C9.37953 14.6862 7.66992 12.829 7.66992 10.58C7.66992 8.31672 9.39981 6.46306 11.6116 6.26713C11.7395 6.25579 11.869 6.25 11.9999 6.25ZM11.746 7.76118C10.2997 7.88917 9.17 9.09985 9.17 10.58C9.17 12.075 10.3209 13.3001 11.7822 13.4117C11.8541 13.4172 11.9267 13.42 11.9999 13.42C13.563 13.42 14.8299 12.1485 14.8299 10.58C14.8299 9.01423 13.5657 7.75 11.9999 7.75C11.9877 7.75 11.9755 7.75008 11.9634 7.75023C11.8902 7.75115 11.8177 7.75484 11.746 7.76118Z" fill="black"/>
<path fill-rule="evenodd" clip-rule="evenodd" d="M3.09467 3.09467C4.42914 1.7602 6.42603 1.25 9 1.25H15C17.574 1.25 19.5709 1.7602 20.9053 3.09467C22.2398 4.42914 22.75 6.42603 22.75 9V15C22.75 16.9506 22.4585 18.5641 21.7401 19.8128C21.005 21.0904 19.8679 21.9088 18.3512 22.3397C17.3807 22.6262 16.2645 22.75 15.0001 22.75H9.00011C7.73809 22.75 6.62364 22.6267 5.65445 22.3413C4.13489 21.9108 2.99593 21.092 2.25993 19.8128C1.54148 18.5641 1.25 16.9506 1.25 15V9C1.25 6.42603 1.7602 4.42914 3.09467 3.09467ZM17.278 21.0585C16.7594 19.2325 14.6909 17.72 12 17.72C11.8129 17.72 11.6289 17.7273 11.4482 17.7415C9.02907 17.9318 7.20471 19.3594 6.72216 21.0585C7.3755 21.1863 8.12971 21.25 9.00011 21.25H15.0001C15.8705 21.25 16.6246 21.1863 17.278 21.0585ZM20.4399 19.0647C20.0468 19.748 19.4916 20.2603 18.715 20.6154C18.0113 18.1513 15.4449 16.418 12.5123 16.2359C12.3427 16.2253 12.1719 16.22 12.0001 16.22C8.85837 16.22 6.02949 18.0088 5.28506 20.6155C4.50844 20.2603 3.95322 19.748 3.56007 19.0647C3.02852 18.1409 2.75 16.8294 2.75 15V9C2.75 6.57397 3.2398 5.07086 4.15533 4.15533C5.07086 3.2398 6.57397 2.75 9 2.75H15C17.426 2.75 18.9291 3.2398 19.8447 4.15533C20.7602 5.07086 21.25 6.57397 21.25 9V15C21.25 16.8294 20.9715 18.1409 20.4399 19.0647Z" fill="black"/>
<path fill-rule="evenodd" clip-rule="evenodd" d="M11.9999 6.25C11.9999 6.25 11.9999 6.25 11.9999 6.25C14.3941 6.25 16.33 8.18581 16.33 10.58C16.33 12.9715 14.3969 14.92 12 14.92C11.9906 14.92 11.9813 14.92 11.9719 14.9199C11.8387 14.919 11.7069 14.9122 11.5768 14.8995C9.37953 14.6862 7.66992 12.829 7.66992 10.58C7.66992 8.31672 9.39981 6.46306 11.6116 6.26713C11.7395 6.25579 11.869 6.25 11.9999 6.25ZM11.746 7.76118C10.2997 7.88917 9.17 9.09985 9.17 10.58C9.17 12.075 10.3209 13.3001 11.7822 13.4117C11.8541 13.4172 11.9267 13.42 11.9999 13.42C13.563 13.42 14.8299 12.1485 14.8299 10.58C14.8299 9.01423 13.5657 7.75 11.9999 7.75C11.9877 7.75 11.9755 7.75008 11.9634 7.75023C11.8902 7.75115 11.8177 7.75484 11.746 7.76118Z" fill="black"/>
<path fill-rule="evenodd" clip-rule="evenodd" d="M3.09467 3.09467C4.42914 1.7602 6.42603 1.25 9 1.25H15C17.574 1.25 19.5709 1.7602 20.9053 3.09467C22.2398 4.42914 22.75 6.42603 22.75 9V15C22.75 16.9506 22.4585 18.5641 21.7401 19.8128C21.005 21.0904 19.8679 21.9088 18.3512 22.3397C17.3807 22.6262 16.2645 22.75 15.0001 22.75H9.00011C7.73809 22.75 6.62364 22.6267 5.65445 22.3413C4.13489 21.9108 2.99593 21.092 2.25993 19.8128C1.54148 18.5641 1.25 16.9506 1.25 15V9C1.25 6.42603 1.7602 4.42914 3.09467 3.09467ZM17.278 21.0585C16.7594 19.2325 14.6909 17.72 12 17.72C11.8129 17.72 11.6289 17.7273 11.4482 17.7415C9.02907 17.9318 7.20471 19.3594 6.72216 21.0585C7.3755 21.1863 8.12971 21.25 9.00011 21.25H15.0001C15.8705 21.25 16.6246 21.1863 17.278 21.0585ZM20.4399 19.0647C20.0468 19.748 19.4916 20.2603 18.715 20.6154C18.0113 18.1513 15.4449 16.418 12.5123 16.2359C12.3427 16.2253 12.1719 16.22 12.0001 16.22C8.85837 16.22 6.02949 18.0088 5.28506 20.6155C4.50844 20.2603 3.95322 19.748 3.56007 19.0647C3.02852 18.1409 2.75 16.8294 2.75 15V9C2.75 6.57397 3.2398 5.07086 4.15533 4.15533C5.07086 3.2398 6.57397 2.75 9 2.75H15C17.426 2.75 18.9291 3.2398 19.8447 4.15533C20.7602 5.07086 21.25 6.57397 21.25 9V15C21.25 16.8294 20.9715 18.1409 20.4399 19.0647Z" fill="black"/>
</svg>
