<svg width="24" height="24" viewBox="0 0 24 24" fill="none" xmlns="http://www.w3.org/2000/svg">
<path fill-rule="evenodd" clip-rule="evenodd" d="M1.25 3C1.25 2.58579 1.58579 2.25 2 2.25H22C22.4142 2.25 22.75 2.58579 22.75 3C22.75 3.41421 22.4142 3.75 22 3.75H2C1.58579 3.75 1.25 3.41421 1.25 3Z" fill="black"/>
<path fill-rule="evenodd" clip-rule="evenodd" d="M3.65774 7.73627L11.6188 20.0759C11.7267 20.2197 11.8697 20.2754 11.9876 20.2754C12.104 20.2754 12.1935 20.2253 12.2489 20.1283C12.2556 20.1166 12.2626 20.1051 12.2699 20.0938L20.2699 7.6938C20.2763 7.68386 20.2829 7.67408 20.2898 7.66446C20.4313 7.46633 20.2968 7.15039 20.0001 7.15039H4.00011C3.7688 7.15039 3.53388 7.44122 3.65774 7.73627ZM2.32929 8.4358C1.68159 7.14039 2.63893 5.65039 4.00011 5.65039H20.0001C21.4966 5.65039 22.3611 7.31934 21.5219 8.52008L13.54 20.8919C12.8167 22.1262 11.1485 21.9984 10.3898 20.9363C10.3829 20.9267 10.3763 20.9169 10.3699 20.907L2.36989 8.50699C2.35507 8.48402 2.34152 8.46025 2.32929 8.4358Z" fill="black"/>
</svg>
