<svg width="24" height="24" viewBox="0 0 24 24" fill="none" xmlns="http://www.w3.org/2000/svg">
<path fill-rule="evenodd" clip-rule="evenodd" d="M16.1497 9.0492C16.4429 9.34179 16.4434 9.81666 16.1508 10.1099L11.3208 14.9499C11.18 15.0909 10.9888 15.1702 10.7895 15.1701C10.5902 15.17 10.3991 15.0905 10.2585 14.9493L7.84846 12.5293C7.55617 12.2358 7.55715 11.7609 7.85065 11.4687C8.14415 11.1764 8.61902 11.1773 8.91131 11.4708L10.7904 13.3578L15.089 9.0503C15.3816 8.7571 15.8565 8.75661 16.1497 9.0492Z" fill="black"/>
<path fill-rule="evenodd" clip-rule="evenodd" d="M12.784 3.02161C12.3608 2.66747 11.6438 2.67272 11.2373 3.02034L9.65886 4.36901C9.42032 4.57508 9.11623 4.7313 8.83487 4.83585C8.55274 4.94068 8.22143 5.02031 7.90989 5.02031H6.17989C5.5341 5.02031 4.99989 5.55453 4.99989 6.20031V7.92031C4.99989 8.23235 4.92 8.56114 4.81699 8.83942C4.7136 9.11873 4.56139 9.41605 4.36605 9.65045L4.36163 9.65576L3.014 11.2429L3.01295 11.2442C2.66886 11.6549 2.66886 12.3657 3.01295 12.7765L3.014 12.7777L4.36608 14.3702C4.56141 14.6046 4.7136 14.9019 4.81699 15.1812C4.92 15.4595 4.99989 15.7883 4.99989 16.1003V17.8103C4.99989 18.4561 5.5341 18.9903 6.17989 18.9903H7.90989C8.22542 18.9903 8.5567 19.0694 8.83988 19.1752C9.12251 19.2808 9.42302 19.4376 9.65981 19.6424L9.66108 19.6435L11.2358 20.999C11.6586 21.3529 12.3747 21.3479 12.7814 21.0012L12.7825 21.0003L14.3587 19.6435L14.3601 19.6424C14.5987 19.4359 14.9032 19.2795 15.1849 19.1748C15.467 19.0699 15.7983 18.9903 16.1099 18.9903H17.8099C18.4557 18.9903 18.9899 18.4561 18.9899 17.8103V16.1103C18.9899 15.7948 19.069 15.4635 19.1748 15.1803C19.2804 14.8977 19.4371 14.5973 19.6419 14.3605L19.6431 14.3591L20.9986 12.7844C21.3524 12.3616 21.3475 11.6455 21.0008 11.2388L20.9999 11.2377L19.6431 9.66151L19.642 9.66023C19.4355 9.42155 19.279 9.11703 19.1744 8.8353C19.0695 8.55316 18.9899 8.22186 18.9899 7.91031V6.21031C18.9899 5.56453 18.4557 5.03031 17.8099 5.03031H16.1099C15.7944 5.03031 15.4631 4.95118 15.1799 4.84538C14.8972 4.73977 14.5967 4.583 14.3599 4.37812L14.3587 4.37708L12.784 3.02161ZM10.2627 1.88011C11.2353 1.04861 12.7761 1.05324 13.7532 1.87684L13.7592 1.88186L15.3411 3.24354C15.4041 3.29816 15.533 3.37604 15.7049 3.44025C15.8767 3.50444 16.0254 3.53031 16.1099 3.53031H17.8099C19.2841 3.53031 20.4899 4.7361 20.4899 6.21031V7.91031C20.4899 7.98877 20.5153 8.13746 20.5804 8.31283C20.6455 8.48809 20.7237 8.61799 20.7767 8.67911L20.7783 8.68103L22.1399 10.2629C22.9716 11.2355 22.967 12.7764 22.1434 13.7537L22.1383 13.7596L20.7783 15.3396L20.7767 15.3415C20.722 15.4045 20.6442 15.5334 20.58 15.7053C20.5158 15.8771 20.4899 16.0258 20.4899 16.1103V17.8103C20.4899 19.2845 19.2841 20.4903 17.8099 20.4903H16.1099C16.0314 20.4903 15.8827 20.5157 15.7074 20.5808C15.5321 20.646 15.4022 20.7241 15.3411 20.7771L15.3392 20.7787L13.7592 22.1387L13.7573 22.1403C12.7847 22.972 11.2438 22.9674 10.2665 22.1438L10.2606 22.1388L8.68061 20.7787L8.67869 20.7771C8.61567 20.7225 8.48675 20.6446 8.31489 20.5804C8.14307 20.5162 7.99435 20.4903 7.90989 20.4903H6.17989C4.70567 20.4903 3.49989 19.2845 3.49989 17.8103V16.1003C3.49989 16.0224 3.47477 15.8761 3.41028 15.7019C3.34682 15.5305 3.26997 15.3988 3.2154 15.3325L1.86576 13.7429C1.05125 12.7739 1.05126 11.2467 1.86577 10.2777L1.86816 10.2749L3.21539 8.68816C3.26996 8.62188 3.34682 8.49014 3.41028 8.3187C3.47477 8.14448 3.49989 7.99827 3.49989 7.92031V6.20031C3.49989 4.7261 4.70567 3.52031 6.17989 3.52031H7.90989C7.98834 3.52031 8.13703 3.49494 8.3124 3.42978C8.48767 3.36465 8.61756 3.28653 8.67869 3.23355L8.68267 3.23009L10.2627 1.88011Z" fill="black"/>
</svg>
