<svg width="24" height="24" viewBox="0 0 24 24" fill="none" xmlns="http://www.w3.org/2000/svg">
<path fill-rule="evenodd" clip-rule="evenodd" d="M8.83078 8.16141C8.95845 7.90907 9.2172 7.75 9.5 7.75H14.5C14.7828 7.75 15.0416 7.90907 15.1692 8.16141C15.2969 8.41376 15.2718 8.71646 15.1042 8.94429L12.6042 12.3443C12.4629 12.5365 12.2386 12.65 12 12.65C11.7614 12.65 11.5371 12.5365 11.3958 12.3443L8.89577 8.94429C8.72824 8.71646 8.70311 8.41376 8.83078 8.16141ZM10.9824 9.25L12 10.6339L13.0176 9.25H10.9824Z" fill="black"/>
<path fill-rule="evenodd" clip-rule="evenodd" d="M12 2.75C6.89137 2.75 2.75 6.89137 2.75 12C2.75 17.1086 6.89137 21.25 12 21.25C17.1086 21.25 21.25 17.1086 21.25 12C21.25 6.89137 17.1086 2.75 12 2.75ZM1.25 12C1.25 6.06294 6.06294 1.25 12 1.25C17.9371 1.25 22.75 6.06294 22.75 12C22.75 17.9371 17.9371 22.75 12 22.75C6.06294 22.75 1.25 17.9371 1.25 12Z" fill="black"/>
<path fill-rule="evenodd" clip-rule="evenodd" d="M6.56413 9.38976C6.90119 9.149 7.3696 9.22707 7.61036 9.56413L12.0001 15.7097L16.3898 9.56413C16.6305 9.22707 17.0989 9.149 17.436 9.38976C17.773 9.63052 17.8511 10.0989 17.6104 10.436L12.6104 17.436C12.4696 17.6331 12.2423 17.7501 12.0001 17.7501C11.7578 17.7501 11.5305 17.6331 11.3898 17.436L6.38976 10.436C6.149 10.0989 6.22707 9.63052 6.56413 9.38976Z" fill="black"/>
</svg>
