<svg width="24" height="24" viewBox="0 0 24 24" fill="none" xmlns="http://www.w3.org/2000/svg">
<path fill-rule="evenodd" clip-rule="evenodd" d="M3.09467 3.09467C4.42914 1.7602 6.42603 1.25 9 1.25H15C17.574 1.25 19.5709 1.7602 20.9053 3.09467C22.2398 4.42914 22.75 6.42603 22.75 9V15C22.75 17.574 22.2398 19.5709 20.9053 20.9053C19.5709 22.2398 17.574 22.75 15 22.75H9C6.42603 22.75 4.42914 22.2398 3.09467 20.9053C1.7602 19.5709 1.25 17.574 1.25 15V9C1.25 6.42603 1.7602 4.42914 3.09467 3.09467ZM4.15533 4.15533C3.2398 5.07086 2.75 6.57397 2.75 9V15C2.75 17.426 3.2398 18.9291 4.15533 19.8447C5.07086 20.7602 6.57397 21.25 9 21.25H15C17.426 21.25 18.9291 20.7602 19.8447 19.8447C20.7602 18.9291 21.25 17.426 21.25 15V9C21.25 6.57397 20.7602 5.07086 19.8447 4.15533C18.9291 3.2398 17.426 2.75 15 2.75H9C6.57397 2.75 5.07086 3.2398 4.15533 4.15533Z" fill="black"/>
<path fill-rule="evenodd" clip-rule="evenodd" d="M10.3546 9.2328C10.1244 9.36509 9.84961 9.7251 9.84961 10.52V13.48C9.84961 14.2685 10.1236 14.6302 10.3557 14.7642C10.5881 14.8983 11.0396 14.9548 11.7248 14.5604L14.2842 13.0807L14.2854 13.0801C14.9708 12.6854 15.1471 12.267 15.1471 12C15.1471 11.7331 14.9708 11.3146 14.2854 10.92L13.0042 10.1793L11.7254 9.44001C11.0383 9.04455 10.586 9.09979 10.3546 9.2328ZM9.60715 7.93228C10.4631 7.44033 11.5113 7.58587 12.4738 8.14007L12.475 8.14074L13.755 8.88074L15.0338 9.62007C15.998 10.1754 16.6471 11.0122 16.6471 12C16.6471 12.9878 15.9988 13.8242 15.0346 14.3796L12.4738 15.86C11.5094 16.4153 10.4611 16.5568 9.60602 16.0634C8.75067 15.5699 8.34961 14.5916 8.34961 13.48V10.52C8.34961 9.40498 8.74982 8.42499 9.60715 7.93228Z" fill="black"/>
</svg>
