<svg width="24" height="24" viewBox="0 0 24 24" fill="none" xmlns="http://www.w3.org/2000/svg">
<path fill-rule="evenodd" clip-rule="evenodd" d="M3.09467 3.09467C4.42914 1.7602 6.42603 1.25 9 1.25H15C17.574 1.25 19.5709 1.7602 20.9053 3.09467C22.2398 4.42914 22.75 6.42603 22.75 9V15C22.75 17.574 22.2398 19.5709 20.9053 20.9053C19.5709 22.2398 17.574 22.75 15 22.75H9C6.42603 22.75 4.42914 22.2398 3.09467 20.9053C1.7602 19.5709 1.25 17.574 1.25 15V9C1.25 6.42603 1.7602 4.42914 3.09467 3.09467ZM4.15533 4.15533C3.2398 5.07086 2.75 6.57397 2.75 9V15C2.75 17.426 3.2398 18.9291 4.15533 19.8447C5.07086 20.7602 6.57397 21.25 9 21.25H15C17.426 21.25 18.9291 20.7602 19.8447 19.8447C20.7602 18.9291 21.25 17.426 21.25 15V9C21.25 6.57397 20.7602 5.07086 19.8447 4.15533C18.9291 3.2398 17.426 2.75 15 2.75H9C6.57397 2.75 5.07086 3.2398 4.15533 4.15533Z" fill="black"/>
<path fill-rule="evenodd" clip-rule="evenodd" d="M1.76953 7.11035C1.76953 6.69614 2.10532 6.36035 2.51953 6.36035H21.4795C21.8937 6.36035 22.2295 6.69614 22.2295 7.11035C22.2295 7.52457 21.8937 7.86035 21.4795 7.86035H2.51953C2.10532 7.86035 1.76953 7.52457 1.76953 7.11035Z" fill="black"/>
<path fill-rule="evenodd" clip-rule="evenodd" d="M8.51953 1.36035C8.93374 1.36035 9.26953 1.69614 9.26953 2.11035V6.97035C9.26953 7.38456 8.93374 7.72035 8.51953 7.72035C8.10532 7.72035 7.76953 7.38456 7.76953 6.97035V2.11035C7.76953 1.69614 8.10532 1.36035 8.51953 1.36035Z" fill="black"/>
<path fill-rule="evenodd" clip-rule="evenodd" d="M15.4805 1.36035C15.8947 1.36035 16.2305 1.69614 16.2305 2.11035V6.52035C16.2305 6.93457 15.8947 7.27035 15.4805 7.27035C15.0663 7.27035 14.7305 6.93457 14.7305 6.52035V2.11035C14.7305 1.69614 15.0663 1.36035 15.4805 1.36035Z" fill="black"/>
<path fill-rule="evenodd" clip-rule="evenodd" d="M10.8367 12.3327C10.7098 12.4061 10.5 12.6399 10.5 13.2497V15.6497C10.5 16.2594 10.7098 16.4933 10.8367 16.5667C10.9631 16.6398 11.2687 16.7049 11.7942 16.4006L13.8742 15.2006C14.3993 14.8965 14.4975 14.5979 14.4975 14.4497C14.4975 14.3015 14.3997 14.0031 13.8747 13.699L11.7942 12.4987C11.2687 12.1945 10.9631 12.2596 10.8367 12.3327ZM12.5453 11.2003C11.7409 10.7348 10.8367 10.5999 10.0858 11.0342C9.33519 11.4683 9 12.3194 9 13.2497V15.6497C9 16.5799 9.33519 17.4311 10.0858 17.8652C10.8367 18.2995 11.741 18.1645 12.5453 17.699L14.6258 16.4987C15.4303 16.033 15.9975 15.3164 15.9975 14.4497C15.9975 13.5829 15.4303 12.8664 14.6258 12.4006L13.5848 11.8L12.5453 11.2003Z" fill="black"/>
</svg>
