<svg width="24" height="24" viewBox="0 0 24 24" fill="none" xmlns="http://www.w3.org/2000/svg">
<path fill-rule="evenodd" clip-rule="evenodd" d="M13.1967 3.07041C12.4463 2.64226 11.5315 2.64443 10.7952 3.06953L4.85788 6.49794C4.11595 6.93498 3.66016 7.72968 3.66016 8.58003V15.42C3.66016 16.2836 4.11854 17.0753 4.85515 17.5005L10.7923 20.9289L10.7937 20.9297C11.544 21.3578 12.4588 21.3556 13.1951 20.9305L19.1302 17.5034L19.1325 17.5021C19.8744 17.065 20.3301 16.2703 20.3301 15.42V8.58003C20.3301 7.72099 19.8755 6.93562 19.1324 6.49794L19.1302 6.49661L13.1981 3.07118L13.1967 3.07041ZM10.0452 1.77047C11.2484 1.07583 12.7329 1.07774 13.9423 1.76882L13.9452 1.7705L19.8901 5.20335C21.0858 5.90592 21.8301 7.17995 21.8301 8.58003V15.42C21.8301 16.8088 21.0869 18.0934 19.8901 18.7967L19.8852 18.7996L13.9452 22.2295C12.742 22.9242 11.2574 22.9223 10.0481 22.2312L10.0451 22.2295L4.10518 18.7996C2.90179 18.1048 2.16016 16.8164 2.16016 15.42V8.58003C2.16016 7.19125 2.90345 5.90661 4.10019 5.20337L4.10511 5.20048L10.0452 1.77047Z" fill="black"/>
<path fill-rule="evenodd" clip-rule="evenodd" d="M10.8367 9.88344C10.7098 9.95684 10.5 10.1907 10.5 10.8004V13.2005C10.5 13.8102 10.7098 14.044 10.8367 14.1174C10.9631 14.1905 11.2687 14.2556 11.7942 13.9513L13.8742 12.7514C14.3992 12.4473 14.4975 12.1487 14.4975 12.0004C14.4975 11.8522 14.3997 11.5539 13.8747 11.2498L11.7942 10.0495C11.2687 9.74527 10.9631 9.81035 10.8367 9.88344ZM12.5453 8.7511C11.741 8.2856 10.8368 8.15065 10.0858 8.58495C9.33519 9.01903 9 9.87019 9 10.8004V13.2005C9 14.1307 9.33519 14.9818 10.0858 15.4159C10.8367 15.8502 11.7409 15.7153 12.5453 15.2498L14.6258 14.0495C15.4303 13.5837 15.9975 12.8672 15.9975 12.0004C15.9975 11.1337 15.4303 10.4171 14.6258 9.95134L12.5453 8.7511Z" fill="black"/>
</svg>
