<svg width="24" height="24" viewBox="0 0 24 24" fill="none" xmlns="http://www.w3.org/2000/svg">
<path fill-rule="evenodd" clip-rule="evenodd" d="M10.3546 9.2328C10.1244 9.36509 9.84961 9.7251 9.84961 10.52V13.48C9.84961 14.2685 10.1236 14.6302 10.3557 14.7642C10.5881 14.8983 11.0396 14.9548 11.7248 14.5604L14.2842 13.0807L14.2854 13.0801C14.9708 12.6854 15.1471 12.267 15.1471 12C15.1471 11.7331 14.9708 11.3146 14.2854 10.92L13.0042 10.1793L11.7254 9.44001C11.0383 9.04455 10.586 9.09979 10.3546 9.2328ZM9.60715 7.93228C10.4631 7.44033 11.5113 7.58587 12.4738 8.14007L12.475 8.14074L13.755 8.88074L15.0338 9.62007C15.998 10.1754 16.6471 11.0122 16.6471 12C16.6471 12.9878 15.9988 13.8242 15.0346 14.3796L12.4738 15.86C11.5094 16.4153 10.4611 16.5568 9.60602 16.0634C8.75067 15.5699 8.34961 14.5916 8.34961 13.48V10.52C8.34961 9.40498 8.74982 8.42499 9.60715 7.93228Z" fill="black"/>
<path fill-rule="evenodd" clip-rule="evenodd" d="M12 2.75C6.89137 2.75 2.75 6.89137 2.75 12C2.75 17.1086 6.89137 21.25 12 21.25C17.1086 21.25 21.25 17.1086 21.25 12C21.25 6.89137 17.1086 2.75 12 2.75ZM1.25 12C1.25 6.06294 6.06294 1.25 12 1.25C17.9371 1.25 22.75 6.06294 22.75 12C22.75 17.9371 17.9371 22.75 12 22.75C6.06294 22.75 1.25 17.9371 1.25 12Z" fill="black"/>
</svg>
