<svg width="24" height="24" viewBox="0 0 24 24" fill="none" xmlns="http://www.w3.org/2000/svg">
<path fill-rule="evenodd" clip-rule="evenodd" d="M3.45033 5.03041C3.01546 5.46528 2.75 6.25108 2.75 7.79008V16.2101C2.75 17.1543 2.98641 18.0147 3.49609 18.6261C3.98571 19.2135 4.8096 19.6701 6.21 19.6701H12.53C14.0633 19.6701 14.8499 19.4049 15.2864 18.9692C15.7226 18.5339 15.99 17.7476 15.99 16.2101V7.79008C15.99 6.25108 15.7245 5.46528 15.2897 5.03041C14.8548 4.59553 14.069 4.33008 12.53 4.33008H6.21C4.671 4.33008 3.8852 4.59553 3.45033 5.03041ZM2.38967 3.96975C3.2698 3.08962 4.589 2.83008 6.21 2.83008H12.53C14.151 2.83008 15.4702 3.08962 16.3503 3.96975C17.2305 4.84987 17.49 6.16908 17.49 7.79008V16.2101C17.49 17.8325 17.2274 19.1512 16.3461 20.0309C15.4651 20.9103 14.1467 21.1701 12.53 21.1701H6.21C4.4504 21.1701 3.16929 20.5767 2.34391 19.5866C1.53859 18.6205 1.25 17.3758 1.25 16.2101V7.79008C1.25 6.16908 1.50954 4.84987 2.38967 3.96975Z" fill="black"/>
<path fill-rule="evenodd" clip-rule="evenodd" d="M19.9497 7.5053L17.4902 9.23048V14.7604L19.9509 16.4864L19.9527 16.4877C20.5229 16.8902 20.8307 16.8249 20.9245 16.7761C21.0188 16.7272 21.2502 16.5117 21.2502 15.8105V8.19045C21.2502 7.48992 21.0191 7.2729 20.9231 7.22276C20.8272 7.17272 20.5185 7.10818 19.9497 7.5053ZM21.6174 5.89314C22.4214 6.313 22.7502 7.22099 22.7502 8.19045V15.8105C22.7502 16.7792 22.4217 17.6887 21.616 18.1073C20.8101 18.5259 19.8784 18.2709 19.0887 17.7139L19.0877 17.7132L16.3095 15.7645C16.1094 15.6241 15.9902 15.3949 15.9902 15.1505V8.84045C15.9902 8.59597 16.1094 8.36684 16.3095 8.22644L19.0907 6.2756C19.8816 5.72315 20.8133 5.4732 21.6174 5.89314Z" fill="black"/>
<path fill-rule="evenodd" clip-rule="evenodd" d="M11.5 8.75C11.0858 8.75 10.75 9.08579 10.75 9.5C10.75 9.91421 11.0858 10.25 11.5 10.25C11.9142 10.25 12.25 9.91421 12.25 9.5C12.25 9.08579 11.9142 8.75 11.5 8.75ZM9.25 9.5C9.25 8.25736 10.2574 7.25 11.5 7.25C12.7426 7.25 13.75 8.25736 13.75 9.5C13.75 10.7426 12.7426 11.75 11.5 11.75C10.2574 11.75 9.25 10.7426 9.25 9.5Z" fill="black"/>
</svg>
