<svg width="24" height="24" viewBox="0 0 24 24" fill="none" xmlns="http://www.w3.org/2000/svg">
<path fill-rule="evenodd" clip-rule="evenodd" d="M3.09467 3.09467C4.42914 1.7602 6.42603 1.25 9 1.25H15C17.574 1.25 19.5709 1.7602 20.9053 3.09467C22.2398 4.42914 22.75 6.42603 22.75 9V15C22.75 17.574 22.2398 19.5709 20.9053 20.9053C19.5709 22.2398 17.574 22.75 15 22.75H9C6.42603 22.75 4.42914 22.2398 3.09467 20.9053C1.7602 19.5709 1.25 17.574 1.25 15V9C1.25 6.42603 1.7602 4.42914 3.09467 3.09467ZM4.15533 4.15533C3.2398 5.07086 2.75 6.57397 2.75 9V15C2.75 17.426 3.2398 18.9291 4.15533 19.8447C5.07086 20.7602 6.57397 21.25 9 21.25H15C17.426 21.25 18.9291 20.7602 19.8447 19.8447C20.7602 18.9291 21.25 17.426 21.25 15V9C21.25 6.57397 20.7602 5.07086 19.8447 4.15533C18.9291 3.2398 17.426 2.75 15 2.75H9C6.57397 2.75 5.07086 3.2398 4.15533 4.15533Z" fill="black"/>
<path fill-rule="evenodd" clip-rule="evenodd" d="M6.88965 1.76953C7.30386 1.76953 7.63965 2.10532 7.63965 2.51953V21.4795C7.63965 21.8937 7.30386 22.2295 6.88965 22.2295C6.47543 22.2295 6.13965 21.8937 6.13965 21.4795V2.51953C6.13965 2.10532 6.47543 1.76953 6.88965 1.76953Z" fill="black"/>
<path fill-rule="evenodd" clip-rule="evenodd" d="M16.8896 1.76953C17.3039 1.76953 17.6396 2.10532 17.6396 2.51953V21.4795C17.6396 21.8937 17.3039 22.2295 16.8896 22.2295C16.4754 22.2295 16.1396 21.8937 16.1396 21.4795V2.51953C16.1396 2.10532 16.4754 1.76953 16.8896 1.76953Z" fill="black"/>
<path fill-rule="evenodd" clip-rule="evenodd" d="M1.79004 6.96973C1.79004 6.55551 2.12583 6.21973 2.54004 6.21973H6.89004C7.30425 6.21973 7.64004 6.55551 7.64004 6.96973C7.64004 7.38394 7.30425 7.71973 6.89004 7.71973H2.54004C2.12583 7.71973 1.79004 7.38394 1.79004 6.96973Z" fill="black"/>
<path fill-rule="evenodd" clip-rule="evenodd" d="M1.28027 12C1.28027 11.5858 1.61606 11.25 2.03027 11.25H6.89027C7.30449 11.25 7.64027 11.5858 7.64027 12C7.64027 12.4142 7.30449 12.75 6.89027 12.75H2.03027C1.61606 12.75 1.28027 12.4142 1.28027 12Z" fill="black"/>
<path fill-rule="evenodd" clip-rule="evenodd" d="M1.73047 16.9697C1.73047 16.5555 2.06626 16.2197 2.48047 16.2197H6.89047C7.30468 16.2197 7.64047 16.5555 7.64047 16.9697C7.64047 17.3839 7.30468 17.7197 6.89047 17.7197H2.48047C2.06626 17.7197 1.73047 17.3839 1.73047 16.9697Z" fill="black"/>
<path fill-rule="evenodd" clip-rule="evenodd" d="M16.79 6.96973C16.79 6.55551 17.1258 6.21973 17.54 6.21973H21.89C22.3043 6.21973 22.64 6.55551 22.64 6.96973C22.64 7.38394 22.3043 7.71973 21.89 7.71973H17.54C17.1258 7.71973 16.79 7.38394 16.79 6.96973Z" fill="black"/>
<path fill-rule="evenodd" clip-rule="evenodd" d="M16.2803 12C16.2803 11.5858 16.6161 11.25 17.0303 11.25H21.8903C22.3045 11.25 22.6403 11.5858 22.6403 12C22.6403 12.4142 22.3045 12.75 21.8903 12.75H17.0303C16.6161 12.75 16.2803 12.4142 16.2803 12Z" fill="black"/>
<path fill-rule="evenodd" clip-rule="evenodd" d="M5.21973 12C5.21973 11.5858 5.55551 11.25 5.96973 11.25H16.9697C17.3839 11.25 17.7197 11.5858 17.7197 12C17.7197 12.4142 17.3839 12.75 16.9697 12.75H5.96973C5.55551 12.75 5.21973 12.4142 5.21973 12Z" fill="black"/>
<path fill-rule="evenodd" clip-rule="evenodd" d="M16.7305 16.9697C16.7305 16.5555 17.0663 16.2197 17.4805 16.2197H21.8905C22.3047 16.2197 22.6405 16.5555 22.6405 16.9697C22.6405 17.3839 22.3047 17.7197 21.8905 17.7197H17.4805C17.0663 17.7197 16.7305 17.3839 16.7305 16.9697Z" fill="black"/>
</svg>
