<svg width="24" height="24" viewBox="0 0 24 24" fill="none" xmlns="http://www.w3.org/2000/svg">
<path fill-rule="evenodd" clip-rule="evenodd" d="M2.38967 3.96975C3.2698 3.08962 4.589 2.83008 6.21 2.83008H12.52C13.8626 2.83008 15.0258 3.00417 15.8908 3.55118C16.815 4.13555 17.2768 5.06206 17.377 6.25327C17.3963 6.45869 17.3947 6.81461 17.3912 7.07651C17.3893 7.21828 17.3864 7.34969 17.384 7.44551L17.3809 7.56013L17.38 7.59197L17.3797 7.60281C17.3666 8.01682 17.0203 8.34278 16.6063 8.3297C16.1923 8.31663 15.8673 7.97042 15.8804 7.55642L15.8807 7.5467L15.8815 7.51717L15.8845 7.40808C15.8867 7.31609 15.8895 7.19063 15.8913 7.05615C15.8952 6.76788 15.8937 6.49779 15.8835 6.39232L15.8825 6.38237C15.812 5.53576 15.5239 5.09387 15.0892 4.81897C14.5942 4.50598 13.7874 4.33008 12.52 4.33008H6.21C4.671 4.33008 3.8852 4.59553 3.45033 5.03041C3.01546 5.46528 2.75 6.25108 2.75 7.79008V16.2101C2.75 17.3318 3.08615 18.3372 3.82722 18.955L4.43593 19.3898C4.77299 19.6305 4.85106 20.0989 4.6103 20.436C4.36954 20.7731 3.90113 20.8511 3.56407 20.6104L2.93407 20.1604C2.92075 20.1509 2.90774 20.1409 2.89507 20.1305C1.6685 19.127 1.25 17.5995 1.25 16.2101V7.79008C1.25 6.16908 1.50954 4.84987 2.38967 3.96975Z" fill="black"/>
<path fill-rule="evenodd" clip-rule="evenodd" d="M16.7398 10.2002C17.154 10.2002 17.4898 10.536 17.4898 10.9502V16.2102C17.4898 17.8312 17.2302 19.1504 16.3501 20.0305C15.47 20.9107 14.1508 21.1702 12.5298 21.1702H7.25977C6.84555 21.1702 6.50977 20.8344 6.50977 20.4202C6.50977 20.006 6.84555 19.6702 7.25977 19.6702H12.5298C14.0688 19.6702 14.8546 19.4047 15.2894 18.9699C15.7243 18.535 15.9898 17.7492 15.9898 16.2102V10.9502C15.9898 10.536 16.3256 10.2002 16.7398 10.2002Z" fill="black"/>
<path fill-rule="evenodd" clip-rule="evenodd" d="M22.0003 5.99023C22.4145 5.99023 22.7503 6.32602 22.7503 6.74023V15.8102C22.7503 16.779 22.4218 17.6885 21.616 18.107C20.8102 18.5256 19.8784 18.2707 19.0888 17.7137L19.0878 17.713L16.3096 15.7642C15.9705 15.5264 15.8884 15.0587 16.1263 14.7195C16.3642 14.3804 16.8319 14.2984 17.171 14.5362L19.951 16.4862L19.9528 16.4875C20.523 16.89 20.8308 16.8246 20.9246 16.7759C21.0188 16.727 21.2503 16.5115 21.2503 15.8102V6.74023C21.2503 6.32602 21.5861 5.99023 22.0003 5.99023Z" fill="black"/>
<path fill-rule="evenodd" clip-rule="evenodd" d="M22.5499 1.65912C22.8428 1.95202 22.8428 2.42689 22.5499 2.71978L2.54986 22.7198C2.25697 23.0127 1.78209 23.0127 1.4892 22.7198C1.19631 22.4269 1.19631 21.952 1.4892 21.6591L21.4892 1.65912C21.7821 1.36623 22.257 1.36623 22.5499 1.65912Z" fill="black"/>
</svg>
