<svg width="24" height="24" viewBox="0 0 24 24" fill="none" xmlns="http://www.w3.org/2000/svg">
<path fill-rule="evenodd" clip-rule="evenodd" d="M3.09467 3.09467C4.42914 1.7602 6.42603 1.25 9 1.25H15C17.574 1.25 19.5709 1.7602 20.9053 3.09467C22.2398 4.42914 22.75 6.42603 22.75 9V15C22.75 17.574 22.2398 19.5709 20.9053 20.9053C19.5709 22.2398 17.574 22.75 15 22.75H9C6.42603 22.75 4.42914 22.2398 3.09467 20.9053C1.7602 19.5709 1.25 17.574 1.25 15V9C1.25 6.42603 1.7602 4.42914 3.09467 3.09467ZM4.15533 4.15533C3.2398 5.07086 2.75 6.57397 2.75 9V15C2.75 17.426 3.2398 18.9291 4.15533 19.8447C5.07086 20.7602 6.57397 21.25 9 21.25H15C17.426 21.25 18.9291 20.7602 19.8447 19.8447C20.7602 18.9291 21.25 17.426 21.25 15V9C21.25 6.57397 20.7602 5.07086 19.8447 4.15533C18.9291 3.2398 17.426 2.75 15 2.75H9C6.57397 2.75 5.07086 3.2398 4.15533 4.15533Z" fill="black"/>
<path fill-rule="evenodd" clip-rule="evenodd" d="M1.76953 17.1104C1.76953 16.6961 2.10532 16.3604 2.51953 16.3604H21.4795C21.8937 16.3604 22.2295 16.6961 22.2295 17.1104C22.2295 17.5246 21.8937 17.8604 21.4795 17.8604H2.51953C2.10532 17.8604 1.76953 17.5246 1.76953 17.1104Z" fill="black"/>
<path fill-rule="evenodd" clip-rule="evenodd" d="M1.76953 7.11035C1.76953 6.69614 2.10532 6.36035 2.51953 6.36035H21.4795C21.8937 6.36035 22.2295 6.69614 22.2295 7.11035C22.2295 7.52457 21.8937 7.86035 21.4795 7.86035H2.51953C2.10532 7.86035 1.76953 7.52457 1.76953 7.11035Z" fill="black"/>
<path fill-rule="evenodd" clip-rule="evenodd" d="M6.96973 16.3604C7.38394 16.3604 7.71973 16.6961 7.71973 17.1104V21.4604C7.71973 21.8746 7.38394 22.2104 6.96973 22.2104C6.55551 22.2104 6.21973 21.8746 6.21973 21.4604V17.1104C6.21973 16.6961 6.55551 16.3604 6.96973 16.3604Z" fill="black"/>
<path fill-rule="evenodd" clip-rule="evenodd" d="M12 16.3604C12.4142 16.3604 12.75 16.6961 12.75 17.1104V21.9704C12.75 22.3846 12.4142 22.7204 12 22.7204C11.5858 22.7204 11.25 22.3846 11.25 21.9704V17.1104C11.25 16.6961 11.5858 16.3604 12 16.3604Z" fill="black"/>
<path fill-rule="evenodd" clip-rule="evenodd" d="M16.9697 16.3604C17.3839 16.3604 17.7197 16.6961 17.7197 17.1104V21.5204C17.7197 21.9346 17.3839 22.2704 16.9697 22.2704C16.5555 22.2704 16.2197 21.9346 16.2197 21.5204V17.1104C16.2197 16.6961 16.5555 16.3604 16.9697 16.3604Z" fill="black"/>
<path fill-rule="evenodd" clip-rule="evenodd" d="M6.96973 1.36035C7.38394 1.36035 7.71973 1.69614 7.71973 2.11035V6.46035C7.71973 6.87457 7.38394 7.21035 6.96973 7.21035C6.55551 7.21035 6.21973 6.87457 6.21973 6.46035V2.11035C6.21973 1.69614 6.55551 1.36035 6.96973 1.36035Z" fill="black"/>
<path fill-rule="evenodd" clip-rule="evenodd" d="M12 1.36035C12.4142 1.36035 12.75 1.69614 12.75 2.11035V6.97035C12.75 7.38456 12.4142 7.72035 12 7.72035C11.5858 7.72035 11.25 7.38456 11.25 6.97035V2.11035C11.25 1.69614 11.5858 1.36035 12 1.36035Z" fill="black"/>
<path fill-rule="evenodd" clip-rule="evenodd" d="M12 6.28027C12.4142 6.28027 12.75 6.61606 12.75 7.03027V18.0303C12.75 18.4445 12.4142 18.7803 12 18.7803C11.5858 18.7803 11.25 18.4445 11.25 18.0303V7.03027C11.25 6.61606 11.5858 6.28027 12 6.28027Z" fill="black"/>
<path fill-rule="evenodd" clip-rule="evenodd" d="M16.9697 1.36035C17.3839 1.36035 17.7197 1.69614 17.7197 2.11035V6.52035C17.7197 6.93457 17.3839 7.27035 16.9697 7.27035C16.5555 7.27035 16.2197 6.93457 16.2197 6.52035V2.11035C16.2197 1.69614 16.5555 1.36035 16.9697 1.36035Z" fill="black"/>
</svg>
