<svg width="24" height="24" viewBox="0 0 24 24" fill="none" xmlns="http://www.w3.org/2000/svg">
<path fill-rule="evenodd" clip-rule="evenodd" d="M6 9.11035C6.41421 9.11035 6.75 9.44614 6.75 9.86035V14.1504C6.75 14.5646 6.41421 14.9004 6 14.9004C5.58579 14.9004 5.25 14.5646 5.25 14.1504V9.86035C5.25 9.44614 5.58579 9.11035 6 9.11035Z" fill="black"/>
<path fill-rule="evenodd" clip-rule="evenodd" d="M9 7.67969C9.41421 7.67969 9.75 8.01547 9.75 8.42969V15.5697C9.75 15.9839 9.41421 16.3197 9 16.3197C8.58579 16.3197 8.25 15.9839 8.25 15.5697V8.42969C8.25 8.01547 8.58579 7.67969 9 7.67969Z" fill="black"/>
<path fill-rule="evenodd" clip-rule="evenodd" d="M12 6.25C12.4142 6.25 12.75 6.58579 12.75 7V17C12.75 17.4142 12.4142 17.75 12 17.75C11.5858 17.75 11.25 17.4142 11.25 17V7C11.25 6.58579 11.5858 6.25 12 6.25Z" fill="black"/>
<path fill-rule="evenodd" clip-rule="evenodd" d="M15 7.67969C15.4142 7.67969 15.75 8.01547 15.75 8.42969V15.5697C15.75 15.9839 15.4142 16.3197 15 16.3197C14.5858 16.3197 14.25 15.9839 14.25 15.5697V8.42969C14.25 8.01547 14.5858 7.67969 15 7.67969Z" fill="black"/>
<path fill-rule="evenodd" clip-rule="evenodd" d="M18 9.11035C18.4142 9.11035 18.75 9.44614 18.75 9.86035V14.1504C18.75 14.5646 18.4142 14.9004 18 14.9004C17.5858 14.9004 17.25 14.5646 17.25 14.1504V9.86035C17.25 9.44614 17.5858 9.11035 18 9.11035Z" fill="black"/>
<path fill-rule="evenodd" clip-rule="evenodd" d="M12 2.75C6.89137 2.75 2.75 6.89137 2.75 12C2.75 17.1086 6.89137 21.25 12 21.25C17.1086 21.25 21.25 17.1086 21.25 12C21.25 6.89137 17.1086 2.75 12 2.75ZM1.25 12C1.25 6.06294 6.06294 1.25 12 1.25C17.9371 1.25 22.75 6.06294 22.75 12C22.75 17.9371 17.9371 22.75 12 22.75C6.06294 22.75 1.25 17.9371 1.25 12Z" fill="black"/>
</svg>
