<svg width="24" height="24" viewBox="0 0 24 24" fill="none" xmlns="http://www.w3.org/2000/svg">
<path fill-rule="evenodd" clip-rule="evenodd" d="M15.3428 3.77316C16.5047 4.41517 17.0801 5.76853 17.0801 7.40962V16.5896C17.0801 18.2267 16.5041 19.5789 15.3436 20.2219C14.1827 20.8651 12.7308 20.636 11.3418 19.7651L8.4302 17.9404C8.21758 17.8157 7.9814 17.7496 7.76008 17.7496H6.33008C5.21447 17.7496 4.24001 17.4702 3.54975 16.7799C2.85949 16.0897 2.58008 15.1152 2.58008 13.9996V9.99962C2.58008 8.88401 2.85949 7.90955 3.54975 7.21929C4.24001 6.52903 5.21447 6.24962 6.33008 6.24962H7.76008C7.98141 6.24962 8.21759 6.18349 8.43021 6.05883L11.3417 4.23418C12.7295 3.3641 14.1813 3.13138 15.3428 3.77316ZM14.6174 5.08607C14.1139 4.80787 13.2706 4.7952 12.1385 5.50505L9.21073 7.33991L9.20298 7.34451C8.77741 7.59719 8.27633 7.74962 7.76008 7.74962H6.33008C5.44569 7.74962 4.92015 7.97021 4.61041 8.27995C4.30067 8.58969 4.08008 9.11522 4.08008 9.99962V13.9996C4.08008 14.884 4.30067 15.4095 4.61041 15.7193C4.92015 16.029 5.44569 16.2496 6.33008 16.2496H7.76008C8.27633 16.2496 8.77741 16.402 9.20298 16.6547L9.21073 16.6593L12.1384 18.4941C13.2693 19.2032 14.1125 19.1891 14.6166 18.9098C15.121 18.6304 15.5801 17.9226 15.5801 16.5896V7.40962C15.5801 6.0707 15.1205 5.36406 14.6174 5.08607Z" fill="black"/>
<path fill-rule="evenodd" clip-rule="evenodd" d="M18.8797 7.40035C19.2109 7.1516 19.6811 7.21844 19.9298 7.54964C21.9102 10.1865 21.9102 13.8136 19.9298 16.4504C19.6811 16.7817 19.2109 16.8485 18.8797 16.5997C18.5485 16.351 18.4817 15.8808 18.7304 15.5496C20.31 13.4465 20.31 10.5536 18.7304 8.45045C18.4817 8.11925 18.5485 7.6491 18.8797 7.40035Z" fill="black"/>
</svg>
