<svg width="24" height="24" viewBox="0 0 24 24" fill="none" xmlns="http://www.w3.org/2000/svg">
<path fill-rule="evenodd" clip-rule="evenodd" d="M14.0127 3.77316C15.1746 4.41517 15.75 5.76853 15.75 7.40962V8.36962C15.75 8.78383 15.4142 9.11962 15 9.11962C14.5858 9.11962 14.25 8.78383 14.25 8.36962V7.40962C14.25 6.0707 13.7904 5.36406 13.2873 5.08607C12.7838 4.80787 11.9406 4.7952 10.8084 5.50505L7.88828 7.33512L7.8729 7.34451C7.44733 7.59719 6.94625 7.74962 6.43 7.74962H5C4.11561 7.74962 3.59007 7.97021 3.28033 8.27995C2.97059 8.58969 2.75 9.11522 2.75 9.99962V13.9996C2.75 14.884 2.97059 15.4095 3.28033 15.7193C3.59007 16.029 4.11561 16.2496 5 16.2496H7C7.41421 16.2496 7.75 16.5854 7.75 16.9996C7.75 17.4138 7.41421 17.7496 7 17.7496H5C3.88439 17.7496 2.90993 17.4702 2.21967 16.7799C1.52941 16.0897 1.25 15.1152 1.25 13.9996V9.99962C1.25 8.88401 1.52941 7.90955 2.21967 7.21929C2.90993 6.52903 3.88439 6.24962 5 6.24962H6.43C6.65133 6.24962 6.88751 6.18349 7.10014 6.05883L10.0116 4.23418C11.3994 3.3641 12.8512 3.13138 14.0127 3.77316Z" fill="black"/>
<path fill-rule="evenodd" clip-rule="evenodd" d="M15.0003 12.2002C15.4145 12.2002 15.7503 12.536 15.7503 12.9502V16.5902C15.7503 18.2273 15.1743 19.5795 14.0137 20.2225C12.8528 20.8657 11.4009 20.6365 10.0119 19.7656C9.66091 19.5456 9.55479 19.0827 9.77482 18.7318C9.99486 18.3808 10.4577 18.2747 10.8087 18.4948C11.9396 19.2039 12.7827 19.1897 13.2868 18.9104C13.7912 18.6309 14.2503 17.9231 14.2503 16.5902V12.9502C14.2503 12.536 14.586 12.2002 15.0003 12.2002Z" fill="black"/>
<path fill-rule="evenodd" clip-rule="evenodd" d="M18.5204 8.72829C18.9025 8.56834 19.3419 8.74843 19.5019 9.13051C20.5022 11.5203 20.2033 14.3125 18.6 16.4501C18.3515 16.7815 17.8814 16.8486 17.55 16.6001C17.2187 16.3516 17.1515 15.8815 17.4 15.5501C18.6768 13.8478 18.9179 11.62 18.1182 9.70972C17.9583 9.32763 18.1384 8.88823 18.5204 8.72829Z" fill="black"/>
<path fill-rule="evenodd" clip-rule="evenodd" d="M20.859 7.10881C21.2407 6.94802 21.6805 7.12713 21.8413 7.50887C23.413 11.2403 22.9429 15.6032 20.4299 18.9503C20.1812 19.2815 19.7111 19.3485 19.3798 19.0998C19.0486 18.8511 18.9817 18.3809 19.2304 18.0497C21.4173 15.1368 21.8273 11.3397 20.4589 8.09113C20.2981 7.7094 20.4773 7.2696 20.859 7.10881Z" fill="black"/>
<path fill-rule="evenodd" clip-rule="evenodd" d="M22.5303 1.46967C22.8232 1.76256 22.8232 2.23744 22.5303 2.53033L2.53033 22.5303C2.23744 22.8232 1.76256 22.8232 1.46967 22.5303C1.17678 22.2374 1.17678 21.7626 1.46967 21.4697L21.4697 1.46967C21.7626 1.17678 22.2374 1.17678 22.5303 1.46967Z" fill="black"/>
</svg>
