<svg width="24" height="24" viewBox="0 0 24 24" fill="none" xmlns="http://www.w3.org/2000/svg">
<path fill-rule="evenodd" clip-rule="evenodd" d="M14.0127 3.93332C15.1746 4.57533 15.75 5.92869 15.75 7.56977V16.7498C15.75 18.3868 15.1741 19.739 14.0135 20.3821C12.8526 21.0253 11.4007 20.7961 10.0117 19.9253L7.10012 18.1005C6.8875 17.9759 6.65132 17.9098 6.43 17.9098H5C3.88439 17.9098 2.90993 17.6304 2.21967 16.9401C1.52941 16.2498 1.25 15.2754 1.25 14.1598V10.1598C1.25 9.04416 1.52941 8.0697 2.21967 7.37944C2.90993 6.68918 3.88439 6.40977 5 6.40977H6.43C6.65133 6.40977 6.88751 6.34365 7.10014 6.21899L10.0116 4.39434C11.3994 3.52425 12.8512 3.29153 14.0127 3.93332ZM13.2873 5.24623C12.7838 4.96803 11.9406 4.95535 10.8084 5.6652L7.88065 7.50006L7.8729 7.50466C7.44733 7.75735 6.94625 7.90977 6.43 7.90977H5C4.11561 7.90977 3.59007 8.13036 3.28033 8.4401C2.97059 8.74984 2.75 9.27538 2.75 10.1598V14.1598C2.75 15.0442 2.97059 15.5697 3.28033 15.8794C3.59007 16.1892 4.11561 16.4098 5 16.4098H6.43C6.94625 16.4098 7.44733 16.5622 7.8729 16.8149L7.88065 16.8195L10.8083 18.6543C11.9393 19.3634 12.7825 19.3493 13.2865 19.07C13.7909 18.7905 14.25 18.0827 14.25 16.7498V7.56977C14.25 6.23086 13.7904 5.52422 13.2873 5.24623Z" fill="black"/>
<path fill-rule="evenodd" clip-rule="evenodd" d="M17.5097 9.62885C17.8026 9.33596 18.2775 9.33596 18.5704 9.62885L22.5304 13.5889C22.8233 13.8817 22.8233 14.3566 22.5304 14.6495C22.2375 14.9424 21.7626 14.9424 21.4697 14.6495L17.5097 10.6895C17.2168 10.3966 17.2168 9.92174 17.5097 9.62885Z" fill="black"/>
<path fill-rule="evenodd" clip-rule="evenodd" d="M22.4903 9.66889C22.7832 9.96178 22.7832 10.4367 22.4903 10.7295L18.5303 14.6895C18.2374 14.9824 17.7626 14.9824 17.4697 14.6895C17.1768 14.3967 17.1768 13.9218 17.4697 13.6289L21.4297 9.66889C21.7226 9.376 22.1974 9.376 22.4903 9.66889Z" fill="black"/>
</svg>
