<svg width="24" height="24" viewBox="0 0 24 24" fill="none" xmlns="http://www.w3.org/2000/svg">
<path fill-rule="evenodd" clip-rule="evenodd" d="M14.0127 3.77316C15.1746 4.41517 15.75 5.76853 15.75 7.40962V16.5896C15.75 18.2267 15.1741 19.5789 14.0135 20.2219C12.8526 20.8651 11.4007 20.636 10.0117 19.7651L7.10012 17.9404C6.8875 17.8157 6.65132 17.7496 6.43 17.7496H5C3.88439 17.7496 2.90993 17.4702 2.21967 16.7799C1.52941 16.0897 1.25 15.1152 1.25 13.9996V9.99962C1.25 8.88401 1.52941 7.90955 2.21967 7.21929C2.90993 6.52903 3.88439 6.24962 5 6.24962H6.43C6.65133 6.24962 6.88751 6.18349 7.10014 6.05883L10.0116 4.23418C11.3994 3.3641 12.8512 3.13138 14.0127 3.77316ZM13.2873 5.08607C12.7838 4.80787 11.9406 4.7952 10.8084 5.50505L7.88065 7.33991L7.8729 7.34451C7.44733 7.59719 6.94625 7.74962 6.43 7.74962H5C4.11561 7.74962 3.59007 7.97021 3.28033 8.27995C2.97059 8.58969 2.75 9.11522 2.75 9.99962V13.9996C2.75 14.884 2.97059 15.4095 3.28033 15.7193C3.59007 16.029 4.11561 16.2496 5 16.2496H6.43C6.94625 16.2496 7.44733 16.402 7.8729 16.6547L7.88065 16.6593L10.8083 18.4941C11.9393 19.2032 12.7825 19.1891 13.2865 18.9098C13.7909 18.6304 14.25 17.9226 14.25 16.5896V7.40962C14.25 6.0707 13.7904 5.36406 13.2873 5.08607Z" fill="black"/>
<path fill-rule="evenodd" clip-rule="evenodd" d="M17.5496 7.40035C17.8808 7.1516 18.351 7.21844 18.5997 7.54964C20.5801 10.1865 20.5801 13.8136 18.5997 16.4504C18.351 16.7817 17.8808 16.8485 17.5496 16.5997C17.2184 16.351 17.1516 15.8808 17.4003 15.5496C18.9799 13.4465 18.9799 10.5536 17.4003 8.45045C17.1516 8.11925 17.2184 7.6491 17.5496 7.40035Z" fill="black"/>
<path fill-rule="evenodd" clip-rule="evenodd" d="M19.3799 4.90023C19.7111 4.65157 20.1813 4.71853 20.4299 5.04979C23.5202 9.16656 23.5202 14.8335 20.4299 18.9503C20.1813 19.2816 19.7111 19.3485 19.3799 19.0999C19.0486 18.8512 18.9816 18.3811 19.2303 18.0498C21.9201 14.4666 21.9201 9.53352 19.2303 5.95029C18.9816 5.61903 19.0486 5.1489 19.3799 4.90023Z" fill="black"/>
</svg>
