<svg width="24" height="24" viewBox="0 0 24 24" fill="none" xmlns="http://www.w3.org/2000/svg">
<path fill-rule="evenodd" clip-rule="evenodd" d="M17.5127 3.77316C18.6746 4.41517 19.25 5.76853 19.25 7.40962V16.5896C19.25 18.2267 18.6741 19.5789 17.5135 20.2219C16.3526 20.8651 14.9007 20.636 13.5117 19.7651C13.5117 19.7651 13.5118 19.7652 13.5117 19.7651L10.6001 17.9404C10.3875 17.8157 10.1513 17.7496 9.93 17.7496H8.5C7.38439 17.7496 6.40993 17.4702 5.71967 16.7799C5.02941 16.0897 4.75 15.1152 4.75 13.9996V9.99962C4.75 8.88401 5.02941 7.90955 5.71967 7.21929C6.40993 6.52903 7.38439 6.24962 8.5 6.24962H9.93C10.1513 6.24962 10.3875 6.18349 10.6001 6.05883L13.5116 4.23418C13.5116 4.23421 13.5116 4.23416 13.5116 4.23418C14.8994 3.3641 16.3512 3.13138 17.5127 3.77316ZM16.7873 5.08607C16.2838 4.80787 15.4406 4.7952 14.3084 5.50505L11.3806 7.33991L11.3729 7.34451C10.9473 7.59719 10.4463 7.74962 9.93 7.74962H8.5C7.61561 7.74962 7.09007 7.97021 6.78033 8.27995C6.47059 8.58969 6.25 9.11522 6.25 9.99962V13.9996C6.25 14.884 6.47059 15.4095 6.78033 15.7193C7.09007 16.029 7.61561 16.2496 8.5 16.2496H9.93C10.4463 16.2496 10.9473 16.402 11.3729 16.6547L11.3806 16.6593L14.3083 18.4941C15.4393 19.2032 16.2825 19.1891 16.7865 18.9098C17.2909 18.6304 17.75 17.9226 17.75 16.5896V7.40962C17.75 6.0707 17.2904 5.36406 16.7873 5.08607Z" fill="black"/>
<path fill-rule="evenodd" clip-rule="evenodd" d="M17.5127 3.77316C18.6746 4.41517 19.25 5.76853 19.25 7.40962V16.5896C19.25 18.2267 18.6741 19.5789 17.5135 20.2219C16.3526 20.8651 14.9007 20.636 13.5117 19.7651C13.5117 19.7651 13.5118 19.7652 13.5117 19.7651L10.6001 17.9404C10.3875 17.8157 10.1513 17.7496 9.93 17.7496H8.5C7.38439 17.7496 6.40993 17.4702 5.71967 16.7799C5.02941 16.0897 4.75 15.1152 4.75 13.9996V9.99962C4.75 8.88401 5.02941 7.90955 5.71967 7.21929C6.40993 6.52903 7.38439 6.24962 8.5 6.24962H9.93C10.1513 6.24962 10.3875 6.18349 10.6001 6.05883L13.5116 4.23418C13.5116 4.23421 13.5116 4.23416 13.5116 4.23418C14.8994 3.3641 16.3512 3.13138 17.5127 3.77316ZM16.7873 5.08607C16.2838 4.80787 15.4406 4.7952 14.3084 5.50505L11.3806 7.33991L11.3729 7.34451C10.9473 7.59719 10.4463 7.74962 9.93 7.74962H8.5C7.61561 7.74962 7.09007 7.97021 6.78033 8.27995C6.47059 8.58969 6.25 9.11522 6.25 9.99962V13.9996C6.25 14.884 6.47059 15.4095 6.78033 15.7193C7.09007 16.029 7.61561 16.2496 8.5 16.2496H9.93C10.4463 16.2496 10.9473 16.402 11.3729 16.6547L11.3806 16.6593L14.3083 18.4941C15.4393 19.2032 16.2825 19.1891 16.7865 18.9098C17.2909 18.6304 17.75 17.9226 17.75 16.5896V7.40962C17.75 6.0707 17.2904 5.36406 16.7873 5.08607Z" fill="black"/>
</svg>
