<svg width="24" height="24" viewBox="0 0 24 24" fill="none" xmlns="http://www.w3.org/2000/svg">
<path fill-rule="evenodd" clip-rule="evenodd" d="M21.4056 7.36921C21.754 7.5932 21.8549 8.05723 21.6309 8.40566L12.6309 22.4057C12.4931 22.6201 12.2557 22.7498 12.0008 22.7501C11.7459 22.7503 11.5083 22.6211 11.37 22.4069L2.32999 8.40693C2.1053 8.05896 2.20524 7.59472 2.55321 7.37003C2.90118 7.14534 3.36542 7.24528 3.59011 7.59325L11.9987 20.6153L20.3692 7.59452C20.5932 7.2461 21.0572 7.14522 21.4056 7.36921Z" fill="black"/>
<path fill-rule="evenodd" clip-rule="evenodd" d="M2.34172 3.64061C2.47318 3.3998 2.72565 3.25 3 3.25H6C6.25077 3.25 6.48494 3.37533 6.62404 3.58397L12 11.6479L17.376 3.58397C17.5151 3.37533 17.7492 3.25 18 3.25H21C21.2744 3.25 21.5268 3.3998 21.6583 3.64061C21.7898 3.88141 21.7792 4.17479 21.6309 4.40557L12.6309 18.4056C12.4929 18.6202 12.2552 18.75 12 18.75C11.7448 18.75 11.5071 18.6202 11.3691 18.4056L2.36912 4.40557C2.22076 4.17479 2.21025 3.88141 2.34172 3.64061ZM4.37375 4.75L12 16.6131L19.6263 4.75H18.4014L12.624 13.416C12.4849 13.6247 12.2508 13.75 12 13.75C11.7492 13.75 11.5151 13.6247 11.376 13.416L5.59861 4.75H4.37375Z" fill="black"/>
<path fill-rule="evenodd" clip-rule="evenodd" d="M10.05 2C10.05 1.58579 10.3858 1.25 10.8 1.25H13.2C13.6142 1.25 13.95 1.58579 13.95 2V2.93575L15.7477 2.29369C16.0523 2.18494 16.3922 2.28358 16.5912 2.53844C16.7901 2.7933 16.8034 3.14699 16.624 3.41603L12.624 9.41603C12.4849 9.62467 12.2508 9.75 12 9.75C11.7492 9.75 11.5151 9.62467 11.376 9.41603L7.37596 3.41603C7.19661 3.14699 7.20986 2.7933 7.40885 2.53844C7.60783 2.28358 7.94775 2.18494 8.25225 2.29369L10.05 2.93575V2ZM11.55 2.75V4C11.55 4.2439 11.4314 4.47256 11.232 4.61306C11.0327 4.75356 10.7774 4.78834 10.5477 4.70631L9.87992 4.4678L12 7.64792L14.1201 4.4678L13.4523 4.70631C13.2226 4.78834 12.9673 4.75356 12.768 4.61306C12.5686 4.47256 12.45 4.2439 12.45 4V2.75H11.55Z" fill="black"/>
</svg>
