<svg width="24" height="24" viewBox="0 0 24 24" fill="none" xmlns="http://www.w3.org/2000/svg">
<path fill-rule="evenodd" clip-rule="evenodd" d="M4.39731 13.2619C4.43038 12.1674 5.44731 11.1689 6.85614 11.1689C7.56082 11.1689 8.18074 11.4242 8.62401 11.821C9.04914 12.2109 9.29902 12.7179 9.31498 13.2614C9.30602 13.5495 9.22339 13.8112 9.08511 14.0375L9.08422 14.0389C8.71989 14.6382 7.90728 15.1007 6.85614 15.1007C5.805 15.1007 4.99239 14.6382 4.62806 14.0389L4.62716 14.0375C4.48897 13.8113 4.40636 13.5498 4.39731 13.2619ZM6.85614 16.6007C7.75841 16.6007 8.6234 16.354 9.31573 15.8957C9.30707 16.9561 8.33875 17.8754 6.85614 17.8754C5.37353 17.8754 4.40521 16.9561 4.39655 15.8957C5.08888 16.354 5.95387 16.6007 6.85614 16.6007ZM10.8158 13.2089C10.8158 13.2266 10.8156 13.2443 10.8154 13.2619C10.8156 13.2802 10.8158 13.2985 10.8158 13.3169V15.8814C10.8158 15.9512 10.8138 16.0202 10.8097 16.0883C10.8137 16.1197 10.8158 16.1516 10.8158 16.1841V18.7546C10.8158 20.891 8.91403 22.255 6.85614 22.255C4.79825 22.255 2.89648 20.891 2.89648 18.7546V16.1841C2.89648 16.1516 2.89854 16.1197 2.90254 16.0883C2.89852 16.0202 2.89648 15.9512 2.89648 15.8814V13.3169C2.89648 13.2984 2.89663 13.28 2.89692 13.2616C2.89663 13.244 2.89648 13.2265 2.89648 13.2089C2.89648 12.1939 3.373 11.3001 4.09149 10.6736C4.81558 10.0417 5.79264 9.66895 6.85614 9.66895C7.91965 9.66895 8.89507 10.0414 9.61806 10.6663L9.62319 10.6707C10.3389 11.3008 10.8158 12.1933 10.8158 13.2089ZM4.39648 18.6468V18.7546C4.39648 19.8261 5.36859 20.755 6.85614 20.755C8.34369 20.755 9.31579 19.8261 9.31579 18.7546V18.6468C8.62207 19.1163 7.75364 19.3754 6.85614 19.3754C5.95864 19.3754 5.09021 19.1163 4.39648 18.6468Z" fill="black"/>
<path fill-rule="evenodd" clip-rule="evenodd" d="M16.126 12C16.126 10.4812 17.3572 9.25 18.876 9.25H20.876C21.8425 9.25 22.626 10.0335 22.626 11V13C22.626 13.9665 21.8425 14.75 20.876 14.75H18.876C17.3572 14.75 16.126 13.5188 16.126 12ZM18.876 10.75C18.1856 10.75 17.626 11.3096 17.626 12C17.626 12.6904 18.1856 13.25 18.876 13.25H20.876C21.014 13.25 21.126 13.1381 21.126 13V11C21.126 10.8619 21.014 10.75 20.876 10.75H18.876Z" fill="black"/>
<path fill-rule="evenodd" clip-rule="evenodd" d="M7 4.25C6.75575 4.25 6.52398 4.26744 6.30405 4.30128L6.28339 4.30416C5.17606 4.44312 4.30559 4.91721 3.70955 5.61651C3.11197 6.31761 2.75 7.29287 2.75 8.5V10.5C2.75 10.9142 2.41421 11.25 2 11.25C1.58579 11.25 1.25 10.9142 1.25 10.5V8.5C1.25 6.98713 1.70803 5.65239 2.56796 4.64349C3.42737 3.63519 4.64812 2.9999 6.08633 2.81713C6.38313 2.77204 6.68789 2.75 7 2.75H16C16.2697 2.75 16.5608 2.75975 16.8545 2.80711C18.305 2.97974 19.5395 3.6109 20.4103 4.62C21.2833 5.63163 21.75 6.9753 21.75 8.5V9.95001C21.75 10.3642 21.4142 10.7 21 10.7H18.92C18.5609 10.7 18.2451 10.8392 18.0173 11.0732L18.0039 11.0867C17.7378 11.3464 17.5892 11.7162 17.6266 12.1089L17.6275 12.1177C17.6804 12.7527 18.2909 13.3 19.04 13.3H21C21.4142 13.3 21.75 13.6358 21.75 14.05V15.5C21.75 17.1704 21.1899 18.6207 20.1553 19.6553C19.1207 20.6899 17.6704 21.25 16 21.25H13.5C13.0858 21.25 12.75 20.9142 12.75 20.5C12.75 20.0858 13.0858 19.75 13.5 19.75H16C17.3296 19.75 18.3793 19.3101 19.0947 18.5947C19.8101 17.8793 20.25 16.8296 20.25 15.5V14.8H19.04C17.6304 14.8 16.2623 13.7693 16.133 12.2467C16.0522 11.3845 16.3805 10.579 16.9493 10.02C17.4609 9.49815 18.1623 9.20001 18.92 9.20001H20.25V8.5C20.25 7.2847 19.8817 6.30336 19.2747 5.59999C18.6691 4.89822 17.7851 4.42541 16.6634 4.29497C16.6511 4.29354 16.6389 4.29181 16.6267 4.28978C16.4468 4.2598 16.2446 4.25 16 4.25H7Z" fill="black"/>
</svg>
