<svg width="24" height="24" viewBox="0 0 24 24" fill="none" xmlns="http://www.w3.org/2000/svg">
<path fill-rule="evenodd" clip-rule="evenodd" d="M6.25 9C6.25 8.58579 6.58579 8.25 7 8.25H13C13.4142 8.25 13.75 8.58579 13.75 9C13.75 9.41421 13.4142 9.75 13 9.75H7C6.58579 9.75 6.25 9.41421 6.25 9Z" fill="black"/>
<path fill-rule="evenodd" clip-rule="evenodd" d="M16.25 12C16.25 10.4812 17.4812 9.25 19 9.25H21C21.9665 9.25 22.75 10.0335 22.75 11V13C22.75 13.9665 21.9665 14.75 21 14.75H19C17.4812 14.75 16.25 13.5188 16.25 12ZM19 10.75C18.3096 10.75 17.75 11.3096 17.75 12C17.75 12.6904 18.3096 13.25 19 13.25H21C21.1381 13.25 21.25 13.1381 21.25 13V11C21.25 10.8619 21.1381 10.75 21 10.75H19Z" fill="black"/>
<path fill-rule="evenodd" clip-rule="evenodd" d="M7 4.25C6.75575 4.25 6.52398 4.26744 6.30405 4.30128L6.28339 4.30416C5.17606 4.44312 4.30559 4.91721 3.70955 5.61651C3.11197 6.31761 2.75 7.29287 2.75 8.5V15.5C2.75 16.8296 3.18991 17.8793 3.90533 18.5947C4.62075 19.3101 5.67044 19.75 7 19.75H16C17.3296 19.75 18.3793 19.3101 19.0947 18.5947C19.8101 17.8793 20.25 16.8296 20.25 15.5V14.8H19.04C17.6304 14.8 16.2623 13.7693 16.133 12.2467C16.0522 11.3845 16.3805 10.579 16.9493 10.02C17.4609 9.49815 18.1623 9.20001 18.92 9.20001H20.25V8.5C20.25 7.2847 19.8817 6.30336 19.2747 5.59999C18.6691 4.89822 17.7851 4.42541 16.6634 4.29497C16.6511 4.29354 16.6389 4.29181 16.6267 4.28978C16.4468 4.2598 16.2446 4.25 16 4.25H7ZM6.08633 2.81713C6.38313 2.77204 6.68789 2.75 7 2.75H16C16.2697 2.75 16.5608 2.75975 16.8545 2.80711C18.305 2.97974 19.5395 3.6109 20.4103 4.62C21.2833 5.63163 21.75 6.9753 21.75 8.5V9.95001C21.75 10.3642 21.4142 10.7 21 10.7H18.92C18.5609 10.7 18.2451 10.8392 18.0173 11.0732L18.0039 11.0867C17.7378 11.3464 17.5892 11.7162 17.6266 12.1089L17.6275 12.1177C17.6804 12.7527 18.2909 13.3 19.04 13.3H21C21.4142 13.3 21.75 13.6358 21.75 14.05V15.5C21.75 17.1704 21.1899 18.6207 20.1553 19.6553C19.1207 20.6899 17.6704 21.25 16 21.25H7C5.32956 21.25 3.87925 20.6899 2.84467 19.6553C1.81009 18.6207 1.25 17.1704 1.25 15.5V8.5C1.25 6.98713 1.70803 5.65239 2.56796 4.64349C3.42737 3.63519 4.64812 2.9999 6.08633 2.81713Z" fill="black"/>
</svg>
