<svg width="24" height="24" viewBox="0 0 24 24" fill="none" xmlns="http://www.w3.org/2000/svg">
<path fill-rule="evenodd" clip-rule="evenodd" d="M16.1064 13.6504C16.1064 12.1316 17.3377 10.9004 18.8564 10.9004H20.8564C21.8229 10.9004 22.6064 11.6839 22.6064 12.6504V14.6504C22.6064 15.6169 21.8229 16.4004 20.8564 16.4004H18.8564C17.3377 16.4004 16.1064 15.1692 16.1064 13.6504ZM18.8564 12.4004C18.1661 12.4004 17.6064 12.96 17.6064 13.6504C17.6064 14.3407 18.1661 14.9004 18.8564 14.9004H20.8564C20.9945 14.9004 21.1064 14.7885 21.1064 14.6504V12.6504C21.1064 12.5123 20.9945 12.4004 20.8564 12.4004H18.8564Z" fill="black"/>
<path fill-rule="evenodd" clip-rule="evenodd" d="M6.25 11.1504C6.25 10.7362 6.58579 10.4004 7 10.4004H13C13.4142 10.4004 13.75 10.7362 13.75 11.1504C13.75 11.5646 13.4142 11.9004 13 11.9004H7C6.58579 11.9004 6.25 11.5646 6.25 11.1504Z" fill="black"/>
<path fill-rule="evenodd" clip-rule="evenodd" d="M5.69 3.58984C4.06422 3.58984 2.75 4.90406 2.75 6.52985V11.1498C2.75 11.5641 2.41421 11.8998 2 11.8998C1.58579 11.8998 1.25 11.5641 1.25 11.1498V6.52985C1.25 4.07563 3.23579 2.08984 5.69 2.08984H11.31C12.4814 2.08984 13.5852 2.45462 14.4083 3.16055C15.242 3.87563 15.75 4.91113 15.75 6.14984C15.75 6.56405 15.4142 6.89984 15 6.89984C14.5858 6.89984 14.25 6.56405 14.25 6.14984C14.25 5.34856 13.933 4.72905 13.4317 4.29913C12.9198 3.86007 12.1785 3.58984 11.31 3.58984H5.69Z" fill="black"/>
<path fill-rule="evenodd" clip-rule="evenodd" d="M6 6.90039C4.20421 6.90039 2.75 8.3546 2.75 10.1504V17.1504C2.75 18.9462 4.20421 20.4004 6 20.4004H16C17.7958 20.4004 19.25 18.9462 19.25 17.1504V16.4504H19.07C17.8343 16.4504 16.5693 15.6902 16.2157 14.3751L16.2147 14.3712C15.9451 13.3469 16.2656 12.3328 16.9515 11.6681C17.4629 11.1477 18.1633 10.8503 18.92 10.8503H19.25V10.1504C19.25 8.3646 17.7858 6.90039 16 6.90039H6ZM1.25 10.1504C1.25 7.52618 3.37579 5.40039 6 5.40039H16C18.6142 5.40039 20.75 7.53618 20.75 10.1504V11.6003C20.75 12.0146 20.4142 12.3503 20 12.3503H18.92C18.561 12.3503 18.2452 12.4896 18.0173 12.7236C18.0114 12.7296 18.0055 12.7356 17.9994 12.7414C17.692 13.0365 17.5365 13.4971 17.6648 13.9875C17.812 14.5314 18.3865 14.9504 19.07 14.9504H20C20.4142 14.9504 20.75 15.2862 20.75 15.7004V17.1504C20.75 19.7746 18.6242 21.9004 16 21.9004H6C3.37579 21.9004 1.25 19.7746 1.25 17.1504V10.1504Z" fill="black"/>
</svg>
