<svg width="24" height="24" viewBox="0 0 24 24" fill="none" xmlns="http://www.w3.org/2000/svg">
<path fill-rule="evenodd" clip-rule="evenodd" d="M9.4571 2.9282C8.81625 3.21724 8.21497 3.92354 7.5784 5.3959C7.56895 5.41776 7.55846 5.43916 7.54698 5.46001C7.54607 5.46252 7.54496 5.46565 7.54361 5.46953L7.5315 5.50544C7.52433 5.52695 7.51619 5.54812 7.5071 5.56889L7.4419 5.71792L7.40189 5.81794L6.23497 8.60497C6.44682 8.58075 6.66208 8.56827 6.87998 8.56827H9.2365L11.6504 2.96633C10.6438 2.67186 9.96875 2.69742 9.4571 2.9282ZM8.84037 1.56084C10.0247 1.02669 11.3802 1.22567 12.928 1.81778C13.1185 1.89069 13.2712 2.0381 13.3507 2.22602C13.4302 2.41395 13.4297 2.62615 13.3493 2.81371L13.3193 2.88371L10.4188 9.61507C10.3002 9.8901 10.0295 10.0683 9.72998 10.0683H6.87998C6.30353 10.0683 5.75285 10.1869 5.25259 10.3988C4.97179 10.5178 4.64691 10.4549 4.4308 10.2397C4.21469 10.0246 4.15039 9.69994 4.26817 9.41863L6.01585 5.24416L6.05363 5.14973C6.05659 5.14232 6.05967 5.13496 6.06287 5.12766L6.11884 4.99972C6.1359 4.94877 6.16762 4.85958 6.21587 4.76766C6.88624 3.22672 7.677 2.08557 8.84037 1.56084Z" fill="black"/>
<path fill-rule="evenodd" clip-rule="evenodd" d="M11.9701 2.22229C12.1238 1.86376 12.5266 1.68286 12.8967 1.80621C13.0202 1.8474 13.191 1.92112 13.2964 1.96664C13.3331 1.98248 13.3619 1.99491 13.378 2.00137L13.3904 2.00633L15.5986 2.93568C16.8604 3.45904 17.8594 4.04638 18.4986 4.83112C18.6117 4.96704 18.7186 5.11095 18.8156 5.28613C18.9172 5.44733 19.0134 5.63274 19.0775 5.84589C19.1208 5.95004 19.1551 6.05351 19.1807 6.15085C19.5216 7.23859 19.2822 8.46576 18.7451 9.79813C18.5991 10.1603 18.1996 10.3499 17.8267 10.2339C17.4618 10.1204 17.0589 10.0677 16.6395 10.0677L9.72998 10.0683C9.47762 10.0683 9.24168 9.9408 9.10296 9.72998C8.96424 9.51915 8.94085 9.2527 9.04072 9.02093L11.9407 2.29093L11.9701 2.22229ZM13.056 3.49313L10.8693 8.56773H16.6395C16.9478 8.56773 17.2615 8.58964 17.5734 8.63936C17.8728 7.72466 17.9019 7.07391 17.7455 6.58723C17.7404 6.57152 17.7359 6.55564 17.7319 6.53963C17.7221 6.50039 17.706 6.45154 17.6841 6.40233C17.6681 6.3663 17.655 6.32907 17.6448 6.29097C17.6312 6.23983 17.6022 6.17219 17.5386 6.07329C17.5281 6.05702 17.5183 6.04034 17.5091 6.0233C17.4707 5.9519 17.4236 5.88424 17.3433 5.78786L17.3374 5.78071C16.9368 5.28766 16.2176 4.81616 15.0222 4.32053L15.0186 4.31902L13.056 3.49313Z" fill="black"/>
<path fill-rule="evenodd" clip-rule="evenodd" d="M5.26442 10.3989C3.7908 11.036 2.76172 12.501 2.76172 14.1984V16.1484C2.76172 16.3478 2.77841 16.5543 2.80542 16.7614C2.80748 16.7772 2.80904 16.793 2.81009 16.8089C2.90708 18.2776 3.34015 19.3036 4.0233 19.9868C4.70644 20.6699 5.73243 21.103 7.20114 21.2C7.21705 21.201 7.23292 21.2026 7.24872 21.2047C7.45578 21.2317 7.66229 21.2484 7.86172 21.2484H15.6617C17.4018 21.2484 18.6075 20.8344 19.3963 20.1246C20.1782 19.421 20.6646 18.3234 20.7528 16.7089C20.7629 16.5066 20.7717 16.3259 20.7717 16.1484V14.1984C20.7717 12.3307 19.5297 10.7545 17.8455 10.2365C17.4772 10.1281 17.0702 10.0684 16.6517 10.0684H6.89172C6.31908 10.0684 5.77821 10.1854 5.26442 10.3989ZM4.68326 9.01605C5.3682 8.73066 6.10593 8.56836 6.89172 8.56836H16.6517C17.2119 8.56836 17.7636 8.64822 18.2742 8.7991L18.2815 8.80126C20.5755 9.50444 22.2717 11.6474 22.2717 14.1984V16.1484C22.2717 16.3672 22.2609 16.583 22.2512 16.7778L22.2508 16.7858L22.2506 16.7891C22.1485 18.6639 21.565 20.1909 20.3997 21.2396C19.2409 22.2823 17.6216 22.7484 15.6617 22.7484H7.86172C7.58995 22.7484 7.32483 22.7265 7.07859 22.6951C5.37794 22.5789 3.9723 22.0571 2.96264 21.0474C1.95297 20.0378 1.4312 18.6321 1.31494 16.9315C1.28359 16.6853 1.26172 16.4201 1.26172 16.1484V14.1984C1.26172 11.8773 2.67069 9.88348 4.67485 9.01962L4.68326 9.01605Z" fill="black"/>
<path fill-rule="evenodd" clip-rule="evenodd" d="M7.29109 5.05417C7.46622 5.26879 7.50886 5.56243 7.40189 5.81794L5.65182 9.99798C5.57681 10.1771 5.43523 10.3202 5.25687 10.3971C3.78103 11.0332 2.75 12.4994 2.75 14.1983C2.75 14.6126 2.41421 14.9483 2 14.9483C1.58579 14.9483 1.25 14.6126 1.25 14.1983V11.2683C1.25 8.06416 3.52924 5.39061 6.56502 4.79249C6.8368 4.73894 7.11596 4.83956 7.29109 5.05417ZM2.8472 10.2714C3.28938 9.81689 3.80734 9.43658 4.38028 9.15094L5.35814 6.81525C4.0781 7.53267 3.14089 8.78648 2.8472 10.2714Z" fill="black"/>
<path fill-rule="evenodd" clip-rule="evenodd" d="M17.8617 5.56396C18.0927 5.33591 18.4441 5.28234 18.7326 5.43121C20.8366 6.51715 22.2686 8.74109 22.2686 11.2677V14.1977C22.2686 14.6119 21.9328 14.9477 21.5186 14.9477C21.1044 14.9477 20.7686 14.6119 20.7686 14.1977C20.7686 12.3355 19.5322 10.7528 17.8431 10.246C17.6415 10.1856 17.4745 10.0431 17.3831 9.85351C17.2916 9.6639 17.2841 9.44459 17.3622 9.24913C17.8587 8.00799 17.9387 7.18007 17.7591 6.5693C17.7543 6.55314 17.7501 6.53682 17.7465 6.52037C17.7373 6.47908 17.7257 6.44888 17.7178 6.43309C17.5726 6.14276 17.6307 5.792 17.8617 5.56396ZM20.6696 10.2655C20.473 9.28239 19.9933 8.39816 19.3204 7.70954C19.2742 8.15156 19.1687 8.61154 19.0144 9.09067C19.6362 9.37946 20.1964 9.7797 20.6696 10.2655Z" fill="black"/>
</svg>
