<svg width="24" height="24" viewBox="0 0 24 24" fill="none" xmlns="http://www.w3.org/2000/svg">
<path fill-rule="evenodd" clip-rule="evenodd" d="M7 7.75C6.75575 7.75 6.52398 7.76744 6.30405 7.80128L6.28339 7.80416C5.17606 7.94312 4.30559 8.41721 3.70955 9.11651C3.11197 9.81761 2.75 10.7929 2.75 12V14.818C3.4178 14.4568 4.18354 14.25 5 14.25C7.62421 14.25 9.75 16.3758 9.75 19C9.75 19.8077 9.54482 20.5787 9.17686 21.25H17C18.3296 21.25 19.3793 20.8101 20.0947 20.0947C20.8101 19.3793 21.25 18.3296 21.25 17V12C21.25 10.7847 20.8817 9.80336 20.2747 9.09999C19.6691 8.39822 18.7851 7.92541 17.6634 7.79497C17.6511 7.79354 17.6389 7.79181 17.6267 7.78978C17.4468 7.7598 17.2446 7.75 17 7.75H7ZM6.08633 6.31713C6.38313 6.27204 6.68789 6.25 7 6.25H17C17.2697 6.25 17.5608 6.25975 17.8545 6.30711C19.305 6.47974 20.5395 7.1109 21.4103 8.12C22.2833 9.13163 22.75 10.4753 22.75 12V17C22.75 18.6704 22.1899 20.1207 21.1553 21.1553C20.1207 22.1899 18.6704 22.75 17 22.75H7.63C7.31467 22.75 7.03302 22.5528 6.92521 22.2564C6.81739 21.9601 6.90644 21.628 7.14805 21.4254C7.39098 21.2216 7.60513 20.9684 7.77215 20.6821L7.7816 20.6663C8.07947 20.1833 8.25 19.6094 8.25 19C8.25 17.2042 6.79579 15.75 5 15.75C4.02649 15.75 3.15813 16.1788 2.56317 16.8553C2.35705 17.0897 2.02733 17.1719 1.73531 17.0617C1.44329 16.9516 1.25 16.6721 1.25 16.36V12C1.25 10.4871 1.70803 9.15239 2.56796 8.14349C3.42737 7.13519 4.64812 6.4999 6.08633 6.31713Z" fill="black"/>
<path fill-rule="evenodd" clip-rule="evenodd" d="M10.5512 3.55094L7.8604 6.24998H16.8232C16.6906 5.91445 16.4853 5.60009 16.2052 5.32445L16.198 5.31733L14.4507 3.54995C13.3734 2.48302 11.628 2.48336 10.5512 3.55094ZM6.2411 5.74968L9.49304 2.48773C11.1555 0.837419 13.8473 0.837427 15.5098 2.48773L15.5147 2.49267L17.2613 4.25921C18.0351 5.02274 18.4517 5.99995 18.5005 7.01387C18.5115 7.24039 18.4193 7.45969 18.2498 7.6104C18.0804 7.76111 17.8518 7.82705 17.6281 7.78977C17.4482 7.75979 17.246 7.74998 17.0014 7.74998H7.00141C6.75715 7.74998 6.52538 7.76743 6.30545 7.80126C6.02831 7.8439 5.75052 7.72837 5.58534 7.50178C5.42017 7.27519 5.39519 6.97538 5.52059 6.72457C5.70467 6.35642 5.95869 6.03216 6.2411 5.74968C6.24123 5.74955 6.24096 5.74982 6.2411 5.74968Z" fill="black"/>
<path fill-rule="evenodd" clip-rule="evenodd" d="M16.25 14.5C16.25 12.9858 17.4858 11.75 19 11.75H22C22.4142 11.75 22.75 12.0858 22.75 12.5C22.75 12.9142 22.4142 13.25 22 13.25H19C18.3142 13.25 17.75 13.8142 17.75 14.5C17.75 15.1858 18.3142 15.75 19 15.75H22C22.4142 15.75 22.75 16.0858 22.75 16.5C22.75 16.9142 22.4142 17.25 22 17.25H19C17.4858 17.25 16.25 16.0142 16.25 14.5Z" fill="black"/>
<path fill-rule="evenodd" clip-rule="evenodd" d="M2.56404 16.8543C2.05613 17.4364 1.75 18.1833 1.75 19C1.75 19.6094 1.92053 20.1833 2.2184 20.6663L2.22469 20.6765C2.7845 21.6177 3.81413 22.25 5 22.25C5.82269 22.25 6.56449 21.9499 7.12828 21.4425C7.13477 21.4367 7.14136 21.431 7.14805 21.4254C7.39098 21.2216 7.60513 20.9684 7.77215 20.6821L7.7816 20.6663C8.07947 20.1833 8.25 19.6094 8.25 19C8.25 17.2042 6.79579 15.75 5 15.75C4.02696 15.75 3.15897 16.1784 2.56404 16.8543ZM1.43683 15.8647C2.30187 14.8811 3.57351 14.25 5 14.25C7.62421 14.25 9.75 16.3758 9.75 19C9.75 19.8874 9.5023 20.7306 9.06316 21.4459C8.81311 21.8725 8.49253 22.2534 8.12204 22.5662C7.28705 23.3134 6.19269 23.75 5 23.75C3.26803 23.75 1.75938 22.8246 0.938497 21.4486C0.498325 20.7327 0.25 19.8885 0.25 19C0.25 17.7971 0.703512 16.7044 1.43507 15.8667L1.43683 15.8647Z" fill="black"/>
<path fill-rule="evenodd" clip-rule="evenodd" d="M3.43061 17.3994C3.7235 17.1065 4.19837 17.1065 4.49127 17.3994L6.60125 19.5093C6.89415 19.8022 6.89415 20.2771 6.60125 20.57C6.30836 20.8629 5.83349 20.8629 5.54059 20.57L3.43061 18.46C3.13771 18.1671 3.13771 17.6922 3.43061 17.3994Z" fill="black"/>
<path fill-rule="evenodd" clip-rule="evenodd" d="M6.57 17.4296C6.8629 17.7225 6.8629 18.1974 6.57 18.4903L4.46002 20.6003C4.16712 20.8932 3.69225 20.8932 3.39936 20.6003C3.10646 20.3074 3.10646 19.8325 3.39936 19.5396L5.50934 17.4296C5.80224 17.1367 6.27711 17.1367 6.57 17.4296Z" fill="black"/>
</svg>
