<svg width="24" height="24" viewBox="0 0 24 24" fill="none" xmlns="http://www.w3.org/2000/svg">
<path fill-rule="evenodd" clip-rule="evenodd" d="M6.98164 6.25C6.98776 6.25 6.99388 6.25 7 6.25H17.8C17.8299 6.25 17.8597 6.25179 17.8894 6.25535C20.7995 6.60456 22.75 8.95472 22.75 12V17C22.75 18.6704 22.1899 20.1208 21.1553 21.1553C20.1207 22.1899 18.6704 22.75 17 22.75H12C11.5858 22.75 11.25 22.4142 11.25 22C11.25 21.5858 11.5858 21.25 12 21.25H17C18.3296 21.25 19.3793 20.8101 20.0947 20.0947C20.8101 19.3793 21.25 18.3296 21.25 17V12C21.25 9.66139 19.8203 8.01805 17.7534 7.75H7C6.70688 7.75 6.61297 7.75289 6.43717 7.81149C6.38806 7.82786 6.33739 7.8391 6.28596 7.84504C5.15378 7.97567 4.28472 8.44603 3.69563 9.1367C3.10398 9.83036 2.75 10.7993 2.75 12V13C2.75 13.4142 2.41421 13.75 2 13.75C1.58579 13.75 1.25 13.4142 1.25 13V12C1.25 10.5007 1.69602 9.16963 2.55437 8.16328C3.4008 7.17091 4.60493 6.54557 6.0402 6.36386C6.41671 6.24989 6.69984 6.24995 6.98164 6.25Z" fill="black"/>
<path fill-rule="evenodd" clip-rule="evenodd" d="M10.5344 3.52671L7.89341 6.25023H16.8512C16.7179 5.90078 16.5263 5.58697 16.2699 5.33055L14.4699 3.53056C13.3641 2.42474 11.6417 2.42345 10.5344 3.52671ZM6.26587 5.77391L9.46983 2.46983C11.1627 0.776941 13.8377 0.777003 15.5305 2.4699L17.3305 4.26988C18.0805 5.01987 18.4302 5.99315 18.5444 6.9072C18.5711 7.12066 18.5049 7.33531 18.3625 7.49658C18.2201 7.65785 18.0153 7.75023 17.8002 7.75023L7 7.75C6.70688 7.75 6.61297 7.75289 6.43717 7.81149C6.16767 7.90133 5.87076 7.83141 5.66989 7.63053C5.46901 7.42966 5.39887 7.13253 5.4887 6.86303C5.64586 6.39155 5.96189 6.07675 6.22586 5.8138C6.23934 5.80037 6.25268 5.78708 6.26587 5.77391Z" fill="black"/>
<path fill-rule="evenodd" clip-rule="evenodd" d="M16.25 14.5C16.25 12.9858 17.4858 11.75 19 11.75H22C22.4142 11.75 22.75 12.0858 22.75 12.5C22.75 12.9142 22.4142 13.25 22 13.25H19C18.3142 13.25 17.75 13.8142 17.75 14.5C17.75 15.1858 18.3142 15.75 19 15.75H22C22.4142 15.75 22.75 16.0858 22.75 16.5C22.75 16.9142 22.4142 17.25 22 17.25H19C17.4858 17.25 16.25 16.0142 16.25 14.5Z" fill="black"/>
<path fill-rule="evenodd" clip-rule="evenodd" d="M1.85156 18.2C1.85156 16.0158 3.61735 14.25 5.80157 14.25C7.98579 14.25 9.75156 16.0158 9.75156 18.2C9.75156 20.3842 7.98579 22.15 5.80157 22.15C3.61735 22.15 1.85156 20.3842 1.85156 18.2ZM5.80157 15.75C4.44578 15.75 3.35156 16.8442 3.35156 18.2C3.35156 19.5558 4.44578 20.65 5.80157 20.65C7.15735 20.65 8.25156 19.5558 8.25156 18.2C8.25156 16.8442 7.15735 15.75 5.80157 15.75Z" fill="black"/>
<path fill-rule="evenodd" clip-rule="evenodd" d="M3.53033 20.4697C3.82322 20.7626 3.82322 21.2374 3.53033 21.5303L2.53033 22.5303C2.23744 22.8232 1.76256 22.8232 1.46967 22.5303C1.17678 22.2374 1.17678 21.7626 1.46967 21.4697L2.46967 20.4697C2.76256 20.1768 3.23744 20.1768 3.53033 20.4697Z" fill="black"/>
</svg>
