<svg width="24" height="24" viewBox="0 0 24 24" fill="none" xmlns="http://www.w3.org/2000/svg">
<path fill-rule="evenodd" clip-rule="evenodd" d="M11.6142 5.55708C11.8518 5.41457 12.1485 5.41457 12.386 5.55708L16.886 8.25708C17.2412 8.47019 17.3563 8.93088 17.1432 9.28607C16.9301 9.64125 16.4694 9.75643 16.1142 9.54331L12.0001 7.07484L7.88599 9.54331C7.5308 9.75643 7.0701 9.64125 6.85699 9.28607C6.64388 8.93088 6.75906 8.47019 7.11424 8.25708L11.6142 5.55708Z" fill="black"/>
<path fill-rule="evenodd" clip-rule="evenodd" d="M7.5 8.25C7.91421 8.25 8.25 8.58579 8.25 9V13.7754L11.6141 11.7569C11.8516 11.6144 12.1484 11.6144 12.3859 11.7569L15.75 13.7754V9C15.75 8.58579 16.0858 8.25 16.5 8.25C16.9142 8.25 17.25 8.58579 17.25 9V15.1C17.25 15.3702 17.1047 15.6195 16.8695 15.7527C16.6344 15.8858 16.3458 15.8821 16.1141 15.7431L12 13.2746L7.88587 15.7431C7.65417 15.8821 7.36561 15.8858 7.13048 15.7527C6.89534 15.6195 6.75 15.3702 6.75 15.1V9C6.75 8.58579 7.08579 8.25 7.5 8.25Z" fill="black"/>
<path fill-rule="evenodd" clip-rule="evenodd" d="M9.18021 15.7778C9.41355 15.4355 9.88015 15.3473 10.2224 15.5806L11.9999 16.7925L13.7774 15.5806C14.1196 15.3473 14.5862 15.4355 14.8195 15.7778C15.0529 16.12 14.9646 16.5866 14.6224 16.8199L12.4224 18.3199C12.1675 18.4937 11.8322 18.4937 11.5774 18.3199L9.37737 16.8199C9.03514 16.5866 8.94687 16.12 9.18021 15.7778Z" fill="black"/>
<path fill-rule="evenodd" clip-rule="evenodd" d="M12 2.75C6.89137 2.75 2.75 6.89137 2.75 12C2.75 17.1086 6.89137 21.25 12 21.25C17.1086 21.25 21.25 17.1086 21.25 12C21.25 6.89137 17.1086 2.75 12 2.75ZM1.25 12C1.25 6.06294 6.06294 1.25 12 1.25C17.9371 1.25 22.75 6.06294 22.75 12C22.75 17.9371 17.9371 22.75 12 22.75C6.06294 22.75 1.25 17.9371 1.25 12Z" fill="black"/>
</svg>
