<svg width="24" height="24" viewBox="0 0 24 24" fill="none" xmlns="http://www.w3.org/2000/svg">
<path fill-rule="evenodd" clip-rule="evenodd" d="M14.2019 6.40307C14.8403 5.63164 15.84 5.25 17.1797 5.25C18.5194 5.25 19.5191 5.63164 20.1575 6.40307C20.7721 7.14568 20.9297 8.10784 20.9297 9V15C20.9297 15.8922 20.7721 16.8543 20.1575 17.5969C19.5191 18.3684 18.5194 18.75 17.1797 18.75C15.84 18.75 14.8403 18.3684 14.2019 17.5969C13.5873 16.8543 13.4297 15.8922 13.4297 15V9C13.4297 8.10784 13.5873 7.14568 14.2019 6.40307ZM15.3575 7.35943C15.0721 7.70432 14.9297 8.24216 14.9297 9V15C14.9297 15.7578 15.0721 16.2957 15.3575 16.6406C15.6191 16.9566 16.1194 17.25 17.1797 17.25C18.24 17.25 18.7403 16.9566 19.0019 16.6406C19.2873 16.2957 19.4297 15.7578 19.4297 15V9C19.4297 8.24216 19.2873 7.70432 19.0019 7.35943C18.7403 7.04336 18.24 6.75 17.1797 6.75C16.1194 6.75 15.6191 7.04336 15.3575 7.35943Z" fill="black"/>
<path fill-rule="evenodd" clip-rule="evenodd" d="M4.99811 7.35943C4.71268 7.70432 4.57031 8.24216 4.57031 9V15C4.57031 15.7578 4.71268 16.2957 4.99811 16.6406C5.25968 16.9566 5.76003 17.25 6.82031 17.25C7.8806 17.25 8.38095 16.9566 8.64252 16.6406C8.92795 16.2957 9.07031 15.7578 9.07031 15V9C9.07031 8.24216 8.92795 7.70432 8.64252 7.35943C8.38095 7.04336 7.8806 6.75 6.82031 6.75C5.76003 6.75 5.25968 7.04336 4.99811 7.35943ZM3.84252 6.40307C4.48095 5.63164 5.4806 5.25 6.82031 5.25C8.16003 5.25 9.15968 5.63164 9.79811 6.40307C10.4127 7.14568 10.5703 8.10784 10.5703 9V15C10.5703 15.8922 10.4127 16.8543 9.79811 17.5969C9.15968 18.3684 8.16003 18.75 6.82031 18.75C5.4806 18.75 4.48095 18.3684 3.84252 17.5969C3.22795 16.8543 3.07031 15.8922 3.07031 15V9C3.07031 8.10784 3.22795 7.14568 3.84252 6.40307Z" fill="black"/>
<path fill-rule="evenodd" clip-rule="evenodd" d="M9.07031 12C9.07031 11.5858 9.4061 11.25 9.82031 11.25H14.1803C14.5945 11.25 14.9303 11.5858 14.9303 12C14.9303 12.4142 14.5945 12.75 14.1803 12.75H9.82031C9.4061 12.75 9.07031 12.4142 9.07031 12Z" fill="black"/>
<path fill-rule="evenodd" clip-rule="evenodd" d="M22.5 8.75C22.9142 8.75 23.25 9.08579 23.25 9.5V14.5C23.25 14.9142 22.9142 15.25 22.5 15.25C22.0858 15.25 21.75 14.9142 21.75 14.5V9.5C21.75 9.08579 22.0858 8.75 22.5 8.75Z" fill="black"/>
<path fill-rule="evenodd" clip-rule="evenodd" d="M1.5 8.75C1.91421 8.75 2.25 9.08579 2.25 9.5V14.5C2.25 14.9142 1.91421 15.25 1.5 15.25C1.08579 15.25 0.75 14.9142 0.75 14.5V9.5C0.75 9.08579 1.08579 8.75 1.5 8.75Z" fill="black"/>
</svg>
