<svg width="24" height="24" viewBox="0 0 24 24" fill="none" xmlns="http://www.w3.org/2000/svg">
<path fill-rule="evenodd" clip-rule="evenodd" d="M4.09467 3.09467C5.42914 1.7602 7.42603 1.25 10 1.25H14C16.574 1.25 18.5709 1.7602 19.9053 3.09467C21.2398 4.42914 21.75 6.42603 21.75 9V15C21.75 17.574 21.2398 19.5709 19.9053 20.9053C18.5709 22.2398 16.574 22.75 14 22.75H10C7.42603 22.75 5.42914 22.2398 4.09467 20.9053C2.7602 19.5709 2.25 17.574 2.25 15V9C2.25 6.42603 2.7602 4.42914 4.09467 3.09467ZM5.15533 4.15533C4.2398 5.07086 3.75 6.57397 3.75 9V15C3.75 17.426 4.2398 18.9291 5.15533 19.8447C6.07086 20.7602 7.57397 21.25 10 21.25H14C16.426 21.25 17.9291 20.7602 18.8447 19.8447C19.7602 18.9291 20.25 17.426 20.25 15V9C20.25 6.57397 19.7602 5.07086 18.8447 4.15533C17.9291 3.2398 16.426 2.75 14 2.75H10C7.57397 2.75 6.07086 3.2398 5.15533 4.15533Z" fill="black"/>
<path fill-rule="evenodd" clip-rule="evenodd" d="M6.25152 7.72957C9.52576 4.81671 14.4743 4.81671 17.7485 7.72957C18.0214 7.97235 18.0797 8.37641 17.8866 8.68644L15.7066 12.1864C15.5897 12.3742 15.3958 12.5008 15.1768 12.5323C14.9578 12.5638 14.7361 12.497 14.571 12.3498C13.1054 11.0433 10.8947 11.0433 9.42909 12.3498C9.26395 12.497 9.04224 12.5638 8.82326 12.5323C8.60428 12.5008 8.41038 12.3742 8.29342 12.1864L6.11342 8.68644C5.92031 8.37641 5.97863 7.97235 6.25152 7.72957ZM7.73558 8.45364L9.13428 10.6992C10.8805 9.59348 13.1195 9.59348 14.8658 10.6992L16.2645 8.45364C13.7399 6.57535 10.2602 6.57535 7.73558 8.45364Z" fill="black"/>
</svg>
