<svg width="24" height="24" viewBox="0 0 24 24" fill="none" xmlns="http://www.w3.org/2000/svg">
<path fill-rule="evenodd" clip-rule="evenodd" d="M17.5409 10.5531C14.1812 7.95235 9.81883 7.95235 6.45913 10.5531C6.13159 10.8067 5.66052 10.7467 5.40697 10.4191C5.15341 10.0916 5.2134 9.62052 5.54094 9.36697C9.44124 6.34773 14.5588 6.34773 18.4591 9.36697C18.7867 9.62052 18.8467 10.0916 18.5931 10.4191C18.3396 10.7467 17.8685 10.8067 17.5409 10.5531Z" fill="black"/>
<path fill-rule="evenodd" clip-rule="evenodd" d="M15.9515 13.6437C13.5514 11.7919 10.4579 11.7919 8.05779 13.6437C7.72984 13.8967 7.25886 13.836 7.00584 13.508C6.75281 13.1801 6.81355 12.7091 7.1415 12.4561C10.0814 10.1878 13.9279 10.1878 16.8678 12.4561C17.1957 12.7091 17.2565 13.1801 17.0035 13.508C16.7504 13.836 16.2795 13.8967 15.9515 13.6437Z" fill="black"/>
<path fill-rule="evenodd" clip-rule="evenodd" d="M13.7406 16.7327C12.681 15.912 11.3187 15.912 10.2591 16.7327C9.93157 16.9863 9.46049 16.9264 9.20687 16.5989C8.95325 16.2714 9.01313 15.8003 9.34062 15.5467C10.941 14.3073 13.0587 14.3073 14.6591 15.5467C14.9865 15.8003 15.0464 16.2714 14.7928 16.5989C14.5392 16.9264 14.0681 16.9863 13.7406 16.7327Z" fill="black"/>
<path fill-rule="evenodd" clip-rule="evenodd" d="M3.09467 3.09467C4.42914 1.7602 6.42603 1.25 9 1.25H15C17.574 1.25 19.5709 1.7602 20.9053 3.09467C22.2398 4.42914 22.75 6.42603 22.75 9V15C22.75 17.574 22.2398 19.5709 20.9053 20.9053C19.5709 22.2398 17.574 22.75 15 22.75H9C6.42603 22.75 4.42914 22.2398 3.09467 20.9053C1.7602 19.5709 1.25 17.574 1.25 15V9C1.25 6.42603 1.7602 4.42914 3.09467 3.09467ZM4.15533 4.15533C3.2398 5.07086 2.75 6.57397 2.75 9V15C2.75 17.426 3.2398 18.9291 4.15533 19.8447C5.07086 20.7602 6.57397 21.25 9 21.25H15C17.426 21.25 18.9291 20.7602 19.8447 19.8447C20.7602 18.9291 21.25 17.426 21.25 15V9C21.25 6.57397 20.7602 5.07086 19.8447 4.15533C18.9291 3.2398 17.426 2.75 15 2.75H9C6.57397 2.75 5.07086 3.2398 4.15533 4.15533Z" fill="black"/>
</svg>
