<svg width="24" height="24" viewBox="0 0 24 24" fill="none" xmlns="http://www.w3.org/2000/svg">
<path fill-rule="evenodd" clip-rule="evenodd" d="M18.6418 12.4333C14.6119 9.32173 9.39853 9.32173 5.36854 12.4333C5.04068 12.6864 4.56969 12.6258 4.31655 12.298C4.06341 11.9701 4.12398 11.4991 4.45184 11.246C9.02185 7.71749 14.9885 7.71749 19.5585 11.246C19.8864 11.4991 19.947 11.9701 19.6938 12.298C19.4407 12.6258 18.9697 12.6864 18.6418 12.4333Z" fill="black"/>
<path fill-rule="evenodd" clip-rule="evenodd" d="M21.5416 8.9532C15.7517 4.48174 8.24842 4.48174 2.45845 8.9532C2.13062 9.20638 1.65962 9.14586 1.40644 8.81803C1.15327 8.4902 1.21379 8.01919 1.54162 7.76602C7.87165 2.87747 16.1284 2.87747 22.4585 7.76602C22.7863 8.01919 22.8468 8.4902 22.5936 8.81803C22.3405 9.14586 21.8694 9.20638 21.5416 8.9532Z" fill="black"/>
<path fill-rule="evenodd" clip-rule="evenodd" d="M16.7408 16.0831C13.8612 13.8525 10.129 13.8525 7.24936 16.0831C6.92189 16.3367 6.4508 16.2769 6.19715 15.9494C5.94349 15.622 6.00333 15.1509 6.33079 14.8972C9.75117 12.2478 14.239 12.2478 17.6594 14.8972C17.9868 15.1509 18.0467 15.622 17.793 15.9494C17.5393 16.2769 17.0683 16.3367 16.7408 16.0831Z" fill="black"/>
<path fill-rule="evenodd" clip-rule="evenodd" d="M14.1511 19.744C12.8411 18.7325 11.1678 18.7325 9.85782 19.744C9.52997 19.9971 9.05897 19.9366 8.80582 19.6087C8.55267 19.2809 8.61323 18.8099 8.94108 18.5567C10.7911 17.1282 13.2178 17.1282 15.0678 18.5567C15.3957 18.8099 15.4562 19.2809 15.2031 19.6087C14.9499 19.9366 14.4789 19.9971 14.1511 19.744Z" fill="black"/>
</svg>
