<svg width="24" height="24" viewBox="0 0 24 24" fill="none" xmlns="http://www.w3.org/2000/svg">
<path fill-rule="evenodd" clip-rule="evenodd" d="M4.88475 12.244L2.38599 13.7433C2.0308 13.9564 1.5701 13.8412 1.35699 13.486C1.14388 13.1308 1.25906 12.6701 1.61424 12.457L4.11547 10.9563C5.89237 9.89477 8.10785 9.89478 9.88476 10.9563C11.1879 11.7348 12.8124 11.7348 14.1155 10.9563C15.8924 9.89478 18.1079 9.89478 19.8848 10.9563L19.886 10.957L22.386 12.457C22.7412 12.6701 22.8563 13.1308 22.6432 13.486C22.4301 13.8412 21.9694 13.9564 21.6142 13.7433L19.1155 12.244C17.8125 11.4659 16.1877 11.4656 14.8848 12.244C13.1079 13.3055 10.8924 13.3055 9.11547 12.244C7.81257 11.4657 6.18776 11.4659 4.88475 12.244Z" fill="black"/>
<path fill-rule="evenodd" clip-rule="evenodd" d="M1.35699 3.51366C1.5701 3.15847 2.0308 3.0433 2.38599 3.25641L4.88475 4.75567C6.18775 5.53377 7.81258 5.53402 9.11547 4.75567C10.8924 3.69415 13.1079 3.69415 14.8848 4.75567C16.1877 5.53403 17.8119 5.53415 19.1149 4.75601L21.6142 3.25641C21.9694 3.0433 22.4301 3.15847 22.6432 3.51366C22.8563 3.86884 22.7412 4.32954 22.386 4.54265L19.8848 6.04338C18.1079 7.10491 15.8924 7.10491 14.1155 6.04338C12.8124 5.26491 11.1879 5.26491 9.88476 6.04338C8.10785 7.10491 5.89237 7.10491 4.11547 6.04338L4.11424 6.04265L1.61424 4.54265C1.25906 4.32954 1.14388 3.86884 1.35699 3.51366Z" fill="black"/>
<path fill-rule="evenodd" clip-rule="evenodd" d="M4.88475 19.244L2.38599 20.7433C2.0308 20.9564 1.5701 20.8412 1.35699 20.486C1.14388 20.1308 1.25906 19.6701 1.61424 19.457L4.11547 17.9563C5.89237 16.8948 8.10785 16.8948 9.88476 17.9563C11.1879 18.7348 12.8124 18.7348 14.1155 17.9563C15.8924 16.8948 18.1079 16.8948 19.8848 17.9563L19.886 17.957L22.386 19.457C22.7412 19.6701 22.8563 20.1308 22.6432 20.486C22.4301 20.8412 21.9694 20.9564 21.6142 20.7433L19.1155 19.244C17.8125 18.4659 16.1877 18.4656 14.8848 19.244C13.1079 20.3055 10.8924 20.3055 9.11547 19.244C7.81257 18.4657 6.18776 18.4659 4.88475 19.244Z" fill="black"/>
</svg>
