<svg width="24" height="24" viewBox="0 0 24 24" fill="none" xmlns="http://www.w3.org/2000/svg">
<path fill-rule="evenodd" clip-rule="evenodd" d="M22.4755 1.42C22.6493 1.56245 22.75 1.77531 22.75 2.00001V11C22.75 11.4142 22.4142 11.75 22 11.75H12C11.5858 11.75 11.25 11.4142 11.25 11V4.00001C11.25 3.6425 11.5023 3.33468 11.8529 3.26457L21.8529 1.26457C22.0732 1.2205 22.3017 1.27755 22.4755 1.42ZM12.75 4.61486V10.25H21.25V2.91486L12.75 4.61486Z" fill="black"/>
<path fill-rule="evenodd" clip-rule="evenodd" d="M11.25 13C11.25 12.5858 11.5858 12.25 12 12.25H22C22.4142 12.25 22.75 12.5858 22.75 13V22C22.75 22.2247 22.6493 22.4376 22.4755 22.58C22.3017 22.7225 22.0732 22.7795 21.8529 22.7354L11.8529 20.7354C11.5023 20.6653 11.25 20.3575 11.25 20V13ZM12.75 13.75V19.3851L21.25 21.0851V13.75H12.75Z" fill="black"/>
<path fill-rule="evenodd" clip-rule="evenodd" d="M10.472 3.71696C10.6478 3.85937 10.75 4.07354 10.75 4.29981V10.9998C10.75 11.414 10.4142 11.7498 10 11.7498H2C1.58579 11.7498 1.25 11.414 1.25 10.9998V5.99981C1.25 5.64568 1.49771 5.3398 1.84411 5.26619L9.84411 3.56619C10.0654 3.51916 10.2962 3.57456 10.472 3.71696ZM2.75 6.60718V10.2498H9.25V5.22593L2.75 6.60718Z" fill="black"/>
<path fill-rule="evenodd" clip-rule="evenodd" d="M1.25 13C1.25 12.5858 1.58579 12.25 2 12.25H10C10.4142 12.25 10.75 12.5858 10.75 13V19.7C10.75 19.9263 10.6478 20.1404 10.472 20.2828C10.2962 20.4252 10.0654 20.4807 9.84411 20.4336L1.84411 18.7336C1.49771 18.66 1.25 18.3541 1.25 18V13ZM2.75 13.75V17.3926L9.25 18.7739V13.75H2.75Z" fill="black"/>
</svg>
