<svg width="24" height="24" viewBox="0 0 24 24" fill="none" xmlns="http://www.w3.org/2000/svg">
<path fill-rule="evenodd" clip-rule="evenodd" d="M1.25 15C1.25 14.5858 1.58579 14.25 2 14.25H18.5C20.8442 14.25 22.75 16.1558 22.75 18.5C22.75 20.8442 20.8442 22.75 18.5 22.75C16.1558 22.75 14.25 20.8442 14.25 18.5V18C14.25 17.5858 14.5858 17.25 15 17.25C15.4142 17.25 15.75 17.5858 15.75 18V18.5C15.75 20.0158 16.9842 21.25 18.5 21.25C20.0158 21.25 21.25 20.0158 21.25 18.5C21.25 16.9842 20.0158 15.75 18.5 15.75H2C1.58579 15.75 1.25 15.4142 1.25 15Z" fill="black"/>
<path fill-rule="evenodd" clip-rule="evenodd" d="M14.25 8.5C14.25 6.15439 16.1672 4.25 18.5 4.25C20.8342 4.25 22.75 6.16579 22.75 8.5C22.75 10.8456 20.8328 12.75 18.5 12.75H2C1.58579 12.75 1.25 12.4142 1.25 12C1.25 11.5858 1.58579 11.25 2 11.25H18.5C20.0072 11.25 21.25 10.0144 21.25 8.5C21.25 6.99421 20.0058 5.75 18.5 5.75C16.9928 5.75 15.75 6.98561 15.75 8.5V9C15.75 9.41421 15.4142 9.75 15 9.75C14.5858 9.75 14.25 9.41421 14.25 9V8.5Z" fill="black"/>
<path fill-rule="evenodd" clip-rule="evenodd" d="M5.87 6.31012C5.87 4.41772 7.40397 2.87012 9.31 2.87012C11.2024 2.87012 12.75 4.40409 12.75 6.31012C12.75 8.20252 11.216 9.75012 9.31 9.75012H2C1.58579 9.75012 1.25 9.41433 1.25 9.00012C1.25 8.5859 1.58579 8.25012 2 8.25012H9.31C10.384 8.25012 11.25 7.37772 11.25 6.31012C11.25 5.23615 10.3776 4.37012 9.31 4.37012C8.23602 4.37012 7.37 5.24252 7.37 6.31012V6.69012C7.37 7.10433 7.03421 7.44012 6.62 7.44012C6.20578 7.44012 5.87 7.10433 5.87 6.69012V6.31012Z" fill="black"/>
</svg>
