<svg width="24" height="24" viewBox="0 0 24 24" fill="none" xmlns="http://www.w3.org/2000/svg">
<path fill-rule="evenodd" clip-rule="evenodd" d="M15.3505 4.6243C15.4846 4.39264 15.7319 4.25 15.9996 4.25H19.4996C19.7681 4.25 20.0162 4.39356 20.1499 4.62641L22.8499 9.32641C22.9813 9.55505 22.9829 9.83587 22.8542 10.066L17.6542 19.366C17.5243 19.5984 17.2808 19.7445 17.0146 19.7499C16.7484 19.7552 16.4993 19.6189 16.3602 19.3919L14.4602 16.2919C14.3161 16.0569 14.3126 15.7618 14.451 15.5234L17.8335 9.69799L15.3493 5.37359C15.216 5.1415 15.2164 4.85595 15.3505 4.6243ZM17.2954 5.75L19.3499 9.32641C19.4835 9.55882 19.4828 9.84481 19.3482 10.0766L15.9729 15.8896L16.9699 17.5163L21.3375 9.705L19.0655 5.75H17.2954Z" fill="black"/>
<path fill-rule="evenodd" clip-rule="evenodd" d="M8.3505 4.6243C8.48458 4.39264 8.73195 4.25 8.99961 4.25H12.4996C12.7681 4.25 13.0162 4.39356 13.1499 4.62641L15.8499 9.32641C15.9813 9.55505 15.9829 9.83587 15.8542 10.066L10.6542 19.366C10.5243 19.5984 10.2808 19.7445 10.0146 19.7499C9.74839 19.7552 9.4993 19.6189 9.36016 19.3919L7.46016 16.2919C7.31611 16.0569 7.3126 15.7618 7.45102 15.5234L10.8335 9.69799L8.34928 5.37359C8.21595 5.1415 8.21642 4.85595 8.3505 4.6243ZM10.2954 5.75L12.3499 9.32641C12.4834 9.55882 12.4828 9.84481 12.3482 10.0766L8.9729 15.8896L9.96992 17.5163L14.3375 9.705L12.0655 5.75H10.2954Z" fill="black"/>
<path fill-rule="evenodd" clip-rule="evenodd" d="M1.1493 4.62672C1.28301 4.3937 1.53115 4.25 1.7998 4.25H5.29981C5.57076 4.25 5.82065 4.39615 5.95349 4.6323L8.65349 9.4323C8.78425 9.66477 8.78171 9.94919 8.64683 10.1793L6.94683 13.0793C6.81213 13.3091 6.56566 13.4502 6.2993 13.45C6.03295 13.4498 5.78667 13.3084 5.65228 13.0784L1.15228 5.37843C1.01672 5.14648 1.01558 4.85973 1.1493 4.62672ZM3.1068 5.75L6.3008 11.2153L7.13496 9.79229L4.86117 5.75H3.1068Z" fill="black"/>
</svg>
