<svg width="24" height="24" viewBox="0 0 24 24" fill="none" xmlns="http://www.w3.org/2000/svg">
<path fill-rule="evenodd" clip-rule="evenodd" d="M4.15533 4.15533C3.2398 5.07086 2.75 6.57397 2.75 9V15C2.75 17.426 3.2398 18.9291 4.15533 19.8447C5.07086 20.7602 6.57397 21.25 9 21.25H15C17.426 21.25 18.9291 20.7602 19.8447 19.8447C20.7602 18.9291 21.25 17.426 21.25 15V9C21.25 6.57397 20.7602 5.07086 19.8447 4.15533C18.9291 3.2398 17.426 2.75 15 2.75H9C6.57397 2.75 5.07086 3.2398 4.15533 4.15533ZM3.09467 3.09467C4.42914 1.7602 6.42603 1.25 9 1.25H15C17.574 1.25 19.5709 1.7602 20.9053 3.09467C22.2398 4.42914 22.75 6.42603 22.75 9V15C22.75 17.574 22.2398 19.5709 20.9053 20.9053C19.5709 22.2398 17.574 22.75 15 22.75H9C6.42603 22.75 4.42914 22.2398 3.09467 20.9053C1.7602 19.5709 1.25 17.574 1.25 15V9C1.25 6.42603 1.7602 4.42914 3.09467 3.09467Z" fill="black"/>
<path fill-rule="evenodd" clip-rule="evenodd" d="M18.0004 7.75C18.4146 7.75 18.7504 8.08579 18.7504 8.5V15.6C18.7504 16.0142 18.4146 16.35 18.0004 16.35H16.2004C14.7862 16.35 13.6504 15.2142 13.6504 13.8C13.6504 12.3858 14.7862 11.25 16.2004 11.25H17.2504V8.5C17.2504 8.08579 17.5862 7.75 18.0004 7.75ZM17.2504 12.75H16.2004C15.6146 12.75 15.1504 13.2142 15.1504 13.8C15.1504 14.3858 15.6146 14.85 16.2004 14.85H17.2504V12.75Z" fill="black"/>
<path fill-rule="evenodd" clip-rule="evenodd" d="M5.52645 7.91845C5.84765 7.6569 6.32006 7.70526 6.5816 8.02645L12.2816 15.0265C12.5431 15.3477 12.4948 15.8201 12.1736 16.0816C11.8524 16.3431 11.38 16.2948 11.1184 15.9736L5.41845 8.97359C5.1569 8.6524 5.20526 8.17999 5.52645 7.91845Z" fill="black"/>
<path fill-rule="evenodd" clip-rule="evenodd" d="M12.1736 7.91845C12.4948 8.17999 12.5431 8.6524 12.2816 8.97359L6.5816 15.9736C6.32006 16.2948 5.84765 16.3431 5.52645 16.0816C5.20526 15.8201 5.1569 15.3477 5.41845 15.0265L11.1184 8.02645C11.38 7.70526 11.8524 7.6569 12.1736 7.91845Z" fill="black"/>
</svg>
