<svg width="24" height="24" viewBox="0 0 24 24" fill="none" xmlns="http://www.w3.org/2000/svg">
<path fill-rule="evenodd" clip-rule="evenodd" d="M2.37798 2.33071C2.66191 1.69733 3.30567 1.25 4.09986 1.25H5.49986C6.48538 1.25 7.48034 1.61982 8.23019 2.36967L8.23766 2.37714L11.7326 5.97206C11.8407 6.07677 12.0632 6.07597 12.1695 5.96967L15.7695 2.36967C16.5194 1.61982 17.5143 1.25 18.4999 1.25H19.8999C20.6892 1.25 21.3466 1.69507 21.6179 2.35074C21.8939 3.01792 21.727 3.79627 21.1144 4.34614L15.4302 10.0303C13.5373 11.9232 10.3624 11.9232 8.46953 10.0303L2.76953 4.33033C2.19473 3.75553 2.09094 2.97101 2.37798 2.33071ZM3.72728 3.09179C3.73523 3.13639 3.75934 3.19882 3.83019 3.26967L9.53019 8.96967C10.8373 10.2768 13.0624 10.2768 14.3695 8.96967L20.0695 3.26967C20.0813 3.2579 20.0935 3.24653 20.106 3.23557C20.201 3.1524 20.2308 3.08257 20.2407 3.04286C20.251 3.00133 20.2474 2.96182 20.2318 2.92426C20.2032 2.85493 20.1105 2.75 19.8999 2.75H18.4999C17.8854 2.75 17.2803 2.98018 16.8302 3.43033L13.2302 7.03033C12.5373 7.72322 11.3624 7.72322 10.6695 7.03033L10.6621 7.02286L7.16606 3.42687C6.71627 2.979 6.11276 2.75 5.49986 2.75H4.09986C3.89405 2.75 3.78781 2.85267 3.74674 2.94429C3.72471 2.99345 3.71878 3.04412 3.72728 3.09179Z" fill="black"/>
<path fill-rule="evenodd" clip-rule="evenodd" d="M9.533 15.0279L3.93081 20.7302C3.70262 20.9583 3.86957 21.2498 4.10046 21.2498H5.50046C6.07154 21.2498 6.68804 20.9516 7.07013 20.5695L10.6701 16.9695C11.363 16.2766 12.5379 16.2766 13.2308 16.9695L16.8308 20.5695C17.2809 21.0196 17.886 21.2498 18.5005 21.2498H19.9005C20.1313 21.2498 20.2983 20.9583 20.0701 20.7301L14.3701 15.0301C13.0638 13.7238 10.8404 13.723 9.533 15.0279ZM8.47013 13.9695C10.363 12.0766 13.5379 12.0766 15.4308 13.9695L21.1308 19.6695C22.3026 20.8413 21.4696 22.7498 19.9005 22.7498H18.5005C17.5149 22.7498 16.52 22.38 15.7701 21.6301L12.1701 18.0301C12.063 17.923 11.8379 17.923 11.7308 18.0301L8.13079 21.6301C7.51287 22.248 6.52937 22.7498 5.50046 22.7498H4.10046C2.53249 22.7498 1.69954 20.8441 2.86754 19.6721L8.47013 13.9695Z" fill="black"/>
</svg>
