<svg width="24" height="24" viewBox="0 0 24 24" fill="none" xmlns="http://www.w3.org/2000/svg">
<path fill-rule="evenodd" clip-rule="evenodd" d="M3.90533 5.90533C3.18991 6.62075 2.75 7.67044 2.75 9V15C2.75 16.3296 3.18991 17.3793 3.90533 18.0947C4.62075 18.8101 5.67044 19.25 7 19.25H17C18.3296 19.25 19.3793 18.8101 20.0947 18.0947C20.8101 17.3793 21.25 16.3296 21.25 15V9C21.25 7.67044 20.8101 6.62075 20.0947 5.90533C19.3793 5.18991 18.3296 4.75 17 4.75H7C5.67044 4.75 4.62075 5.18991 3.90533 5.90533ZM2.84467 4.84467C3.87925 3.81009 5.32956 3.25 7 3.25H17C18.6704 3.25 20.1207 3.81009 21.1553 4.84467C22.1899 5.87925 22.75 7.32956 22.75 9V15C22.75 16.6704 22.1899 18.1207 21.1553 19.1553C20.1207 20.1899 18.6704 20.75 17 20.75H7C5.32956 20.75 3.87925 20.1899 2.84467 19.1553C1.81009 18.1207 1.25 16.6704 1.25 15V9C1.25 7.32956 1.81009 5.87925 2.84467 4.84467Z" fill="black"/>
<path fill-rule="evenodd" clip-rule="evenodd" d="M10.4293 10.0916C10.3891 10.1852 10.3496 10.3475 10.3496 10.6002V13.6002C10.3496 13.985 10.4836 14.079 10.4994 14.0881C10.509 14.0936 10.6563 14.1716 11.0137 13.9571L13.497 12.4671C13.7981 12.2622 13.8246 12.0977 13.8246 12.0502C13.8246 12.0027 13.7981 11.8383 13.497 11.6333L11.0137 10.1433C10.8293 10.0327 10.6914 9.99121 10.6048 9.98054C10.563 9.97539 10.5362 9.97771 10.5217 9.98028C10.5081 9.98271 10.502 9.98587 10.4994 9.98737C10.4968 9.98886 10.4897 9.99333 10.4786 10.0064C10.467 10.0201 10.4488 10.0463 10.4293 10.0916ZM9.74982 8.68809C10.414 8.30492 11.1761 8.49146 11.7855 8.85711L14.2855 10.3571C14.2957 10.3632 14.3057 10.3696 14.3156 10.3762C14.9019 10.767 15.3246 11.3484 15.3246 12.0502C15.3246 12.752 14.9019 13.3334 14.3156 13.7243C14.3057 13.7309 14.2957 13.7372 14.2855 13.7433L11.7855 15.2433C11.1429 15.6289 10.3902 15.7568 9.74982 15.3874C9.11557 15.0215 8.84961 14.3155 8.84961 13.6002V10.6002C8.84961 9.83201 9.08695 9.07051 9.74982 8.68809Z" fill="black"/>
</svg>
