<svg width="24" height="24" viewBox="0 0 24 24" fill="none" xmlns="http://www.w3.org/2000/svg">
<path fill-rule="evenodd" clip-rule="evenodd" d="M7.61413 9.35688C7.84879 9.21608 8.14152 9.21427 8.3779 9.35217L9.5779 10.0522L9.59307 10.0613L10.8931 10.8613C11.1149 10.9978 11.25 11.2396 11.25 11.5V14.3C11.25 14.5634 11.1118 14.8076 10.8859 14.9431L8.38587 16.4431C8.14836 16.5856 7.85164 16.5856 7.61413 16.4431L5.11413 14.9431C4.88822 14.8076 4.75 14.5634 4.75 14.3V11.5C4.75 11.2366 4.88822 10.9924 5.11413 10.8569L7.61413 9.35688ZM8.00538 10.8714L6.25 11.9246V13.8754L8 14.9254L9.75 13.8754V11.9191L8.81446 11.3434L8.00538 10.8714Z" fill="black"/>
<path fill-rule="evenodd" clip-rule="evenodd" d="M15.6221 9.35217C15.8585 9.21427 16.1512 9.21608 16.3859 9.35688L18.8859 10.8569C19.1118 10.9924 19.25 11.2366 19.25 11.5V14.3C19.25 14.5634 19.1118 14.8076 18.8859 14.9431L16.3859 16.4431C16.1484 16.5856 15.8516 16.5856 15.6141 16.4431L13.1141 14.9431C12.8882 14.8076 12.75 14.5634 12.75 14.3V11.5C12.75 11.2396 12.8851 10.9978 13.1069 10.8613L14.4069 10.0613L14.4221 10.0522L15.6221 9.35217ZM15.1855 11.3434L14.25 11.9191V13.8754L16 14.9254L17.75 13.8754V11.9246L15.9946 10.8714L15.1855 11.3434Z" fill="black"/>
<path fill-rule="evenodd" clip-rule="evenodd" d="M11.646 7.13869C11.8673 7.02017 12.1331 7.02017 12.3544 7.13869L15.1544 8.63869C15.3981 8.76926 15.5502 9.02332 15.5502 9.2998V10.6998C15.5502 10.9602 15.4151 11.202 15.1933 11.3385L14.25 11.9191L14.2502 13.1998C14.2502 13.4633 14.112 13.7074 13.8861 13.8429L12.3861 14.7429C12.1486 14.8854 11.8518 14.8854 11.6143 14.7429L10.1143 13.8429C9.88842 13.7074 9.7502 13.4633 9.7502 13.1998L9.75 11.9191L8.80712 11.3385C8.58531 11.202 8.4502 10.9602 8.4502 10.6998V9.2998C8.4502 9.02332 8.60231 8.76926 8.84603 8.63869L11.646 7.13869ZM9.9502 9.74886V10.2807L10.8931 10.8613C11.1149 10.9978 11.25 11.2396 11.25 11.5L11.2502 12.7752L12.0002 13.2252L12.7502 12.7752L12.75 11.5C12.75 11.2396 12.8851 10.9978 13.1069 10.8613L14.0502 10.2807V9.74886L12.0002 8.65065L9.9502 9.74886Z" fill="black"/>
<path fill-rule="evenodd" clip-rule="evenodd" d="M12 2.75C6.89137 2.75 2.75 6.89137 2.75 12C2.75 17.1086 6.89137 21.25 12 21.25C17.1086 21.25 21.25 17.1086 21.25 12C21.25 6.89137 17.1086 2.75 12 2.75ZM1.25 12C1.25 6.06294 6.06294 1.25 12 1.25C17.9371 1.25 22.75 6.06294 22.75 12C22.75 17.9371 17.9371 22.75 12 22.75C6.06294 22.75 1.25 17.9371 1.25 12Z" fill="black"/>
</svg>
