<svg width="24" height="24" viewBox="0 0 24 24" fill="none" xmlns="http://www.w3.org/2000/svg">
<path fill-rule="evenodd" clip-rule="evenodd" d="M5.25 9.6998C5.25 8.78559 5.98579 8.0498 6.9 8.0498H10.6C12.6316 8.0498 14.15 9.70316 14.15 11.5998V14.3998C14.15 15.314 13.4142 16.0498 12.5 16.0498H8.8C6.88579 16.0498 5.25 14.414 5.25 12.4998V9.6998ZM6.9 9.5498C6.81421 9.5498 6.75 9.61402 6.75 9.6998V12.4998C6.75 13.5856 7.71421 14.5498 8.8 14.5498H12.5C12.5858 14.5498 12.65 14.4856 12.65 14.3998V11.5998C12.65 10.4965 11.7684 9.5498 10.6 9.5498H6.9Z" fill="black"/>
<path fill-rule="evenodd" clip-rule="evenodd" d="M18.3514 8.5375C18.5968 8.66753 18.7502 8.9225 18.7502 9.2002V14.8002C18.7502 15.0779 18.5968 15.3329 18.3514 15.4629C18.106 15.5929 17.8089 15.5767 17.5791 15.4208L14.7791 13.5208C14.5734 13.3812 14.4502 13.1488 14.4502 12.9002V11.1002C14.4502 10.8516 14.5734 10.6192 14.7791 10.4796L17.5791 8.57959C17.8089 8.42366 18.106 8.40747 18.3514 8.5375ZM15.9502 11.4976V12.5028L17.2502 13.3849V10.6155L15.9502 11.4976Z" fill="black"/>
<path fill-rule="evenodd" clip-rule="evenodd" d="M12 2.75C6.89137 2.75 2.75 6.89137 2.75 12C2.75 17.1086 6.89137 21.25 12 21.25C17.1086 21.25 21.25 17.1086 21.25 12C21.25 6.89137 17.1086 2.75 12 2.75ZM1.25 12C1.25 6.06294 6.06294 1.25 12 1.25C17.9371 1.25 22.75 6.06294 22.75 12C22.75 17.9371 17.9371 22.75 12 22.75C6.06294 22.75 1.25 17.9371 1.25 12Z" fill="black"/>
</svg>
