<svg width="91" height="48" viewBox="0 0 91 48" fill="none" xmlns="http://www.w3.org/2000/svg">
<path d="M0 46.7637H2.56398V1.24098H0V46.7637Z" fill="white"/>
<path d="M12.8582 15.9609C15.5546 15.9609 17.2994 14.597 17.2994 11.9322V11.8373H14.8405V11.9322C14.8405 13.1852 14.0637 13.8199 12.8582 13.8199C12.5946 13.8199 12.3521 13.786 12.1328 13.7222V15.9251C12.3662 15.9494 12.608 15.9609 12.8582 15.9609Z" fill="white"/>
<path d="M17.2994 8.66504V8.56973C17.2994 5.90495 15.5546 4.54136 12.8899 4.54136C12.6284 4.54136 12.3753 4.55398 12.1328 4.57992V6.78423C12.3605 6.71733 12.6122 6.68237 12.8899 6.68237C14.0637 6.68237 14.8405 7.3171 14.8405 8.56973V8.66504H17.2994Z" fill="white"/>
<path d="M8.5813 8.57011V11.9327C8.5813 13.8663 9.49985 15.1146 11.0218 15.6543V4.85292C9.49491 5.39453 8.5813 6.64144 8.5813 8.57011Z" fill="white"/>
<path d="M14.159 3.53613L15.6655 1.23652H13.6197L12.9056 2.34653L12.1922 1.23652H10.0823L11.5888 3.53613H14.159Z" fill="white"/>
<path d="M11.0663 29.004V22.1833H11.0677V20.0421H8.60742V31.145H11.0677V29.004H11.0663Z" fill="white"/>
<path d="M13.0486 20.0421H12.178V22.1833H13.0486C14.2223 22.1833 14.9992 22.8178 14.9992 24.0711V27.1164C14.9992 28.3693 14.2223 29.004 13.0169 29.004H12.178V31.145H13.0169C15.7133 31.145 17.4573 29.7814 17.4573 27.1164V24.0711C17.4573 21.4066 15.7133 20.0421 13.0486 20.0421Z" fill="white"/>
<path d="M13.4602 40.2762L17.5694 35.3745H14.5712L12.1758 38.3334V42.6389L14.825 46.4775H17.8069L13.4602 40.2762Z" fill="white"/>
<path d="M11.0663 39.7053V35.3745H8.60742V46.4775H11.0663V43.1144V39.7048V39.7053Z" fill="white"/>
<path d="M20.0791 4.70905H27.2484V5.85107H21.3952V9.67373H26.4554V10.8157H21.3952V14.6698H27.2484V15.812H20.0791V4.70905Z" fill="white"/>
<path d="M34.8563 11.0215L32.7471 10.625C31.0186 10.2918 29.9873 9.34045 29.9873 7.67472C29.9873 5.62867 31.4148 4.55031 33.9209 4.55031C36.427 4.55031 37.8545 5.66032 37.8545 7.89663V8.03953H36.5532V7.89663C36.5532 6.43718 35.6339 5.69205 33.9209 5.69205C32.2079 5.69205 31.3351 6.34215 31.3351 7.59569C31.3351 8.6264 32.0013 9.21348 33.0644 9.41947L35.1581 9.816C36.9338 10.1492 37.9335 11.0852 37.9335 12.7506C37.9335 14.8919 36.427 15.9702 33.9047 15.9702C31.3986 15.9702 29.8921 14.8443 29.8921 12.6237V12.481H31.2082V12.6237C31.2082 14.0829 32.1916 14.8283 33.9047 14.8283C35.6339 14.8283 36.5856 14.1779 36.5856 12.8297C36.5856 11.7987 35.9194 11.2281 34.8563 11.0215Z" fill="white"/>
<path d="M43.6857 10.5621L42.3689 12.0216V15.812H41.0527V4.70905H42.3689V10.1972L47.2704 4.70905H48.8727L44.5415 9.54705L49.19 15.812H47.5883L43.6857 10.5621Z" fill="white"/>
<path d="M54.1331 3.54589L55.5923 1.24599H56.9571L55.2109 3.54589H54.1331ZM52.8642 11.815H57.1467L55.0051 6.10492L52.8642 11.815ZM59.9693 15.812H58.558L57.5119 12.957H52.5152L51.4676 15.812H50.1677L54.2762 4.70905H55.8778L59.9693 15.812Z" fill="white"/>
<path d="M20.3962 31.145H21.7133V20.0421H20.3962V31.145Z" fill="white"/>
<path d="M33.0113 27.6234V26.6403H29.5218V25.4975H34.3274V31.1448H33.344L33.1854 29.9869C32.5199 30.8433 31.4089 31.3037 29.9342 31.3037C27.3956 31.3037 25.8892 29.9076 25.8892 27.3227V23.8962C25.8892 21.2632 27.5232 19.8835 30.1717 19.8835C32.694 19.8835 34.3274 21.0412 34.3274 23.3414V23.4523H33.0113V23.3414C33.0113 21.8662 31.9327 21.0253 30.1717 21.0253C28.3163 21.0253 27.206 22.0089 27.206 23.8962V27.3227C27.206 29.1311 28.3163 30.1609 30.1562 30.1609C31.9327 30.1609 33.0113 29.2261 33.0113 27.6234Z" fill="white"/>
<path d="M37.4788 31.145H38.795V20.0421H37.4788V31.145Z" fill="white"/>
<path d="M41.1218 20.0421H49.7652V21.1841H46.1016V31.145H44.7854V21.1841H41.1218V20.0421Z" fill="white"/>
<path d="M54.8782 18.8789L56.3374 16.579H57.7015L55.9575 18.8789H54.8782ZM53.6093 27.1486H57.8918L55.7509 21.4379L53.6093 27.1486ZM60.7159 31.145H59.3039L58.2563 28.29H53.2596L52.2135 31.145H50.9128L55.0213 20.0421H56.6229L60.7159 31.145Z" fill="white"/>
<path d="M62.8828 20.0421H64.199V30.0028H70.0521V31.145H62.8828V20.0421Z" fill="white"/>
<path d="M73.8533 22.437V31.145H72.5371V20.0421H73.7736L79.4999 28.7347V20.0421H80.8161V31.145H79.5796L73.8533 22.437Z" fill="white"/>
<path d="M84.1267 18.8789L85.5859 16.579H86.95L85.2053 18.8789H84.1267ZM84.095 20.0421H85.4111V31.145H84.095V20.0421Z" fill="white"/>
<path d="M21.1098 37.7695V46.4775H19.7937V35.3745H21.0309L26.7565 44.0672V35.3745H28.0733V46.4775H26.8362L21.1098 37.7695Z" fill="white"/>
<path d="M31.3506 46.4775H32.6674V35.3746H31.3506V46.4775Z" fill="white"/>
<path d="M42.9088 41.4815H37.2614V46.4775H35.9453V35.3745H37.2614V40.3387H42.9088V35.3745H44.2242V46.4775H42.9088V41.4815Z" fill="white"/>
<path d="M54.6245 39.1976C54.6245 37.3892 53.5142 36.3585 51.6581 36.3585C49.7709 36.3585 48.6599 37.3892 48.6599 39.1976V42.6557C48.6599 44.464 49.7709 45.4939 51.6263 45.4939C53.5142 45.4939 54.6245 44.464 54.6245 42.6557V39.1976ZM55.9406 42.6557C55.9406 45.2089 54.3073 46.6367 51.6263 46.6367C48.9779 46.6367 47.3445 45.2089 47.3445 42.6557V39.1976C47.3445 36.6284 48.9778 35.2165 51.6581 35.2165C54.3073 35.2165 55.9406 36.6284 55.9406 39.1976V42.6557Z" fill="white"/>
<path d="M57.9497 35.3745H59.3772L62.8667 44.8603L66.3717 35.3745H67.6731L63.5801 46.4775H62.0582L57.9497 35.3745Z" fill="white"/>
<path d="M71.1569 37.7695V46.4775H69.8401V35.3745H71.0773L76.8036 44.0672V35.3745H78.1197V46.4775H76.8825L71.1569 37.7695Z" fill="white"/>
<path d="M82.9838 42.4811H87.2671L85.1254 36.7699L82.9838 42.4811ZM90.0897 46.4775H88.6784L87.6308 43.6225H82.6341L81.588 46.4775H80.2874L84.3951 35.3745H85.9974L90.0897 46.4775Z" fill="white"/>
</svg>
