<svg width="45" height="45" viewBox="0 0 45 45" fill="none" xmlns="http://www.w3.org/2000/svg">
<g clip-path="url(#clip0_200_83457)">
<path d="M-7.5 0H52.5V45H-7.5V0Z" fill="#012169"/>
<path d="M37.9033 16.9121L38.0908 17.0996L37.9033 16.9121Z" fill="#49497D"/>
<path d="M38.0908 16.9121L38.2783 17.0996L38.0908 16.9121Z" fill="#0E0E6E"/>
<path d="M37.5186 17.0996L37.7061 17.2871L37.5186 17.0996Z" fill="#262678"/>
<path d="M37.7158 17.0996L37.9033 17.2871L37.7158 17.0996Z" fill="#808067"/>
<path d="M38.2783 17.0996L38.4658 17.2871L38.2783 17.0996Z" fill="#58587B"/>
<path d="M31.2373 17.2969L31.4248 17.4844L31.2373 17.2969Z" fill="#0E0E6E"/>
<path d="M37.1436 17.2969L37.3311 17.4844L37.1436 17.2969Z" fill="#1B1B74"/>
<path d="M37.3311 17.2969L37.5186 17.4844L37.3311 17.2969Z" fill="#6E6C70"/>
<path d="M31.5751 17.6254C31.5751 22.5566 31.0126 28.0973 34.6688 31.9504C35.4188 32.7379 36.8626 34.5473 38.0907 34.4816C39.3751 34.4066 41.0345 32.5035 41.7657 31.5754C44.9532 27.3754 44.4563 22.3691 44.5595 17.4941C43.1251 18.141 42.4032 18.3566 41.147 18.3379C40.2095 18.4316 38.7751 17.8223 37.9126 17.4004C37.3501 17.7754 36.5345 18.2348 35.0626 18.2816C33.3751 18.3566 32.8313 18.066 31.5751 17.6254Z" fill="#CCCC33"/>
<path d="M38.4746 17.2969L38.6621 17.4844L38.4746 17.2969Z" fill="#99994E"/>
<path d="M38.6621 17.2969L38.8496 17.4844L38.6621 17.2969Z" fill="#49497D"/>
<path d="M44.5596 17.2969L44.7471 17.4844L44.5596 17.2969Z" fill="#0E0E6E"/>
<path d="M31.4346 17.4844L31.6221 17.6719L31.4346 17.4844Z" fill="#A4A43D"/>
<path d="M31.6221 17.4844L31.8096 17.6719L31.6221 17.4844Z" fill="#6E6C70"/>
<path d="M31.8096 17.4844L31.9971 17.6719L31.8096 17.4844Z" fill="#3A3A7C"/>
<path d="M36.75 17.4844L36.9375 17.6719L36.75 17.4844Z" fill="#1B1B74"/>
<path d="M36.9375 17.4844L37.125 17.6719L36.9375 17.4844Z" fill="#6E6C70"/>
<path d="M37.1436 17.4844L37.3311 17.6719L37.1436 17.4844Z" fill="#A4A43D"/>
<path d="M37.9033 17.4844L38.0908 17.6719L37.9033 17.4844Z" fill="#D0D045"/>
<path d="M38.6621 17.4844L38.8496 17.6719L38.6621 17.4844Z" fill="#A4A43D"/>
<path d="M38.8496 17.4844L39.0371 17.6719L38.8496 17.4844Z" fill="#8D8D5B"/>
<path d="M39.0469 17.4844L39.2344 17.6719L39.0469 17.4844Z" fill="#3A3A7C"/>
<path d="M43.9873 17.4844L44.1748 17.6719L43.9873 17.4844Z" fill="#262678"/>
<path d="M44.1846 17.4844L44.3721 17.6719L44.1846 17.4844Z" fill="#53527C"/>
<path d="M44.3721 17.4844L44.5596 17.6719L44.3721 17.4844Z" fill="#8D8D5B"/>
<path d="M32.1934 17.6816L32.3809 17.8691L32.1934 17.6816Z" fill="#737370"/>
<path d="M32.3809 17.6816L32.5684 17.8691L32.3809 17.6816Z" fill="#53527C"/>
<path d="M32.5684 17.6816L32.7559 17.8691L32.5684 17.6816Z" fill="#1B1B74"/>
<path d="M36.375 17.6816L36.5625 17.8691L36.375 17.6816Z" fill="#262678"/>
<path d="M36.5625 17.6816L36.75 17.8691L36.5625 17.6816Z" fill="#6E6C70"/>
<path d="M36.75 17.6816L36.9375 17.8691L36.75 17.6816Z" fill="#A4A43D"/>
<path d="M37.7158 17.6816L37.9033 17.8691L37.7158 17.6816Z" fill="#E5E59D"/>
<path d="M31.9592 18.1691C31.8654 20.7566 31.9404 23.6629 32.3342 26.4191C32.7936 27.8723 32.7279 28.6691 33.3936 29.5316L42.6748 29.4566C43.2373 28.5473 43.6592 27.1691 43.7061 26.616C44.2311 23.8316 44.2404 20.7473 44.2592 17.991C43.2383 18.5525 42.0722 18.7942 40.9123 18.6848C39.905 18.6242 38.9257 18.3289 38.0529 17.8223C37.1623 18.3473 36.8529 18.591 35.3904 18.6566C34.2467 18.7129 33.3279 18.8066 31.9592 18.1691Z" fill="white"/>
<path d="M38.0908 17.6816L38.2783 17.8691L38.0908 17.6816Z" fill="#F2F1D7"/>
<path d="M38.2783 17.6816L38.4658 17.8691L38.2783 17.6816Z" fill="#D9D868"/>
<path d="M39.0469 17.6816L39.2344 17.8691L39.0469 17.6816Z" fill="#A4A43D"/>
<path d="M39.2344 17.6816L39.4219 17.8691L39.2344 17.6816Z" fill="#99994E"/>
<path d="M39.4219 17.6816L39.6094 17.8691L39.4219 17.6816Z" fill="#49497D"/>
<path d="M39.6094 17.6816L39.7969 17.8691L39.6094 17.6816Z" fill="#0E0E6E"/>
<path d="M43.4248 17.6816L43.6123 17.8691L43.4248 17.6816Z" fill="#3A3A7C"/>
<path d="M43.6123 17.6816L43.7998 17.8691L43.6123 17.6816Z" fill="#666677"/>
<path d="M43.7998 17.6816L43.9873 17.8691L43.7998 17.6816Z" fill="#99994E"/>
<path d="M43.9871 17.6816L44.1746 17.8691L43.9871 17.6816ZM32.5684 17.8691L32.7559 18.0566L32.5684 17.8691Z" fill="#A4A43D"/>
<path d="M32.7656 17.8691L32.9531 18.0566L32.7656 17.8691Z" fill="#99994E"/>
<path d="M32.9531 17.8691L33.1406 18.0566L32.9531 17.8691Z" fill="#6E6C70"/>
<path d="M33.1406 17.8691L33.3281 18.0566L33.1406 17.8691Z" fill="#49497D"/>
<path d="M33.3281 17.8691L33.5156 18.0566L33.3281 17.8691ZM35.8031 17.8691L35.9906 18.0566L35.8031 17.8691Z" fill="#1B1B74"/>
<path d="M35.9902 17.8691L36.1777 18.0566L35.9902 17.8691Z" fill="#53527C"/>
<path d="M36.1875 17.8691L36.375 18.0566L36.1875 17.8691Z" fill="#8D8D5B"/>
<path d="M36.375 17.8691L36.5625 18.0566L36.375 17.8691Z" fill="#A4A43D"/>
<path d="M37.3311 17.8691L37.5186 18.0566L37.3311 17.8691Z" fill="#E5E59D"/>
<path d="M37.5186 17.8691L37.7061 18.0566L37.5186 17.8691Z" fill="#FBFAF2"/>
<path d="M38.4746 17.8691L38.6621 18.0566L38.4746 17.8691Z" fill="#F2F1D2"/>
<path d="M38.6621 17.8691L38.8496 18.0566L38.6621 17.8691Z" fill="#D9D868"/>
<path d="M39.6094 17.8691L39.7969 18.0566L39.6094 17.8691Z" fill="#A4A43D"/>
<path d="M39.8066 17.8691L39.9941 18.0566L39.8066 17.8691Z" fill="#6E6C70"/>
<path d="M39.9941 17.8691L40.1816 18.0566L39.9941 17.8691Z" fill="#3A3A7C"/>
<path d="M42.4688 17.8691L42.6562 18.0566L42.4688 17.8691Z" fill="#0E0E6E"/>
<path d="M42.6562 17.8691L42.8438 18.0566L42.6562 17.8691Z" fill="#32327B"/>
<path d="M42.8438 17.8691L43.0312 18.0566L42.8438 17.8691Z" fill="#58587B"/>
<path d="M43.0312 17.8691L43.2188 18.0566L43.0312 17.8691Z" fill="#808067"/>
<path d="M43.3594 17.9248L43.4812 17.9904L43.3594 17.9248Z" fill="#A4A43D"/>
<path d="M31.8096 18.0566L31.9971 18.2441L31.8096 18.0566Z" fill="#DDDC7A"/>
<path d="M31.9971 18.0566L32.1846 18.2441L31.9971 18.0566Z" fill="#D0D045"/>
<path d="M33.459 18.1123L33.5902 18.1779L33.459 18.1123Z" fill="#A4A43D"/>
<path d="M33.7129 18.0566L33.9004 18.2441L33.7129 18.0566Z" fill="#808067"/>
<path d="M33.9004 18.0566L34.0879 18.2441L33.9004 18.0566Z" fill="#666677"/>
<path d="M34.0967 18.0566L34.2842 18.2441L34.0967 18.0566Z" fill="#58587B"/>
<path d="M34.2842 18.0566L34.4717 18.2441L34.2842 18.0566Z" fill="#49497D"/>
<path d="M35.4277 18.0566L35.6152 18.2441L35.4277 18.0566Z" fill="#737370"/>
<path d="M35.6152 18.0566L35.8027 18.2441L35.6152 18.0566Z" fill="#99994E"/>
<path d="M35.8027 18.0566L35.9902 18.2441L35.8027 18.0566Z" fill="#A4A43D"/>
<path d="M36.9375 18.0566L37.125 18.2441L36.9375 18.0566Z" fill="#E5E59D"/>
<path d="M37.1436 18.0566L37.3311 18.2441L37.1436 18.0566Z" fill="#FBFAF2"/>
<path d="M38.8496 18.0566L39.0371 18.2441L38.8496 18.0566Z" fill="#F2F1D2"/>
<path d="M39.0469 18.0566L39.2344 18.2441L39.0469 18.0566Z" fill="#D9D868"/>
<path d="M40.1152 18.1123L40.2465 18.1779L40.1246 18.1123H40.1152Z" fill="#A4A43D"/>
<path d="M40.3779 18.0566L40.5654 18.2441L40.3779 18.0566Z" fill="#808067"/>
<path d="M40.5654 18.0566L40.7529 18.2441L40.5654 18.0566Z" fill="#666677"/>
<path d="M40.7529 18.0566L40.9404 18.2441L40.7529 18.0566Z" fill="#58587B"/>
<path d="M40.9502 18.0566L41.1377 18.2441L40.9502 18.0566Z" fill="#3A3A7C"/>
<path d="M41.8311 18.1123L41.9623 18.1779L41.8311 18.1123Z" fill="#58587B"/>
<path d="M42.084 18.0566L42.2715 18.2441L42.084 18.0566Z" fill="#737370"/>
<path d="M42.2715 18.0566L42.459 18.2441L42.2715 18.0566Z" fill="#99994E"/>
<path d="M42.4688 18.0566L42.6562 18.2441L42.4688 18.0566Z" fill="#A4A43D"/>
<path d="M43.9873 18.0566L44.1748 18.2441L43.9873 18.0566Z" fill="#DDDC7A"/>
<path d="M44.1846 18.0566L44.3721 18.2441L44.1846 18.0566Z" fill="#D0D045"/>
<path d="M32.1934 18.2441L32.3809 18.4316L32.1934 18.2441Z" fill="#F2F1D7"/>
<path d="M32.3809 18.2441L32.5684 18.4316L32.3809 18.2441Z" fill="#E0DEA1"/>
<path d="M32.5684 18.2441L32.7559 18.4316L32.5684 18.2441Z" fill="#DDDC7A"/>
<path d="M36.375 18.2441L36.5625 18.4316L36.375 18.2441Z" fill="#D9D868"/>
<path d="M36.5625 18.2441L36.75 18.4316L36.5625 18.2441Z" fill="#E5E3AF"/>
<path d="M39.2344 18.2441L39.4219 18.4316L39.2344 18.2441Z" fill="#F6F6E4"/>
<path d="M39.4219 18.2441L39.6094 18.4316L39.4219 18.2441Z" fill="#E1E18C"/>
<path d="M43.2188 18.2441L43.4062 18.4316L43.2188 18.2441Z" fill="#D4D456"/>
<path d="M43.4248 18.2441L43.6123 18.4316L43.4248 18.2441Z" fill="#E1E18C"/>
<path d="M43.6123 18.2441L43.7998 18.4316L43.6123 18.2441Z" fill="#EEEDC1"/>
<path d="M32.9531 18.4316L33.1406 18.6191L32.9531 18.4316Z" fill="#F2F1D2"/>
<path d="M33.1406 18.4316L33.3281 18.6191L33.1406 18.4316Z" fill="#E0DEA1"/>
<path d="M33.3281 18.4316L33.5156 18.6191L33.3281 18.4316Z" fill="#DDDC7A"/>
<path d="M33.5254 18.4316L33.7129 18.6191L33.5254 18.4316Z" fill="#D0D045"/>
<path d="M35.8027 18.4316L35.9902 18.6191L35.8027 18.4316Z" fill="#DDDC7A"/>
<path d="M35.9902 18.4316L36.1777 18.6191L35.9902 18.4316Z" fill="#E5E3AF"/>
<path d="M36.1875 18.4316L36.375 18.6191L36.1875 18.4316Z" fill="#F6F6E4"/>
<path d="M39.8066 18.4316L39.9941 18.6191L39.8066 18.4316Z" fill="#EEEDC1"/>
<path d="M39.9941 18.4316L40.1816 18.6191L39.9941 18.4316Z" fill="#E1E18C"/>
<path d="M40.1816 18.4316L40.3691 18.6191L40.1816 18.4316Z" fill="#D4D456"/>
<path d="M42.4688 18.4316L42.6562 18.6191L42.4688 18.4316Z" fill="#D9D868"/>
<path d="M42.6562 18.4316L42.8438 18.6191L42.6562 18.4316Z" fill="#E1E18C"/>
<path d="M42.8438 18.4316L43.0312 18.6191L42.8438 18.4316Z" fill="#EEEDC1"/>
<path d="M43.0312 18.4316L43.2188 18.6191L43.0312 18.4316Z" fill="#F6F6E4"/>
<path d="M33.9004 18.6191L34.0879 18.8066L33.9004 18.6191Z" fill="#F2F1D7"/>
<path d="M34.0967 18.6191L34.2842 18.8066L34.0967 18.6191Z" fill="#F2F1D2"/>
<path d="M34.2842 18.6191L34.4717 18.8066L34.2842 18.6191Z" fill="#EEEDC1"/>
<path d="M35.1748 18.6846L35.2967 18.7502L35.1748 18.6846Z" fill="#F2F1D2"/>
<path d="M35.4277 18.6191L35.6152 18.8066L35.4277 18.6191Z" fill="#FBFAF2"/>
<path d="M36.375 18.6191L36.75 18.9941V18.6191H36.375Z" fill="#FEF8F1"/>
<path d="M40.5654 18.6191L40.7529 18.8066L40.5654 18.6191Z" fill="#F2F1D7"/>
<path d="M40.7529 18.6191L40.9404 18.8066L40.7529 18.6191Z" fill="#F2F1D2"/>
<path d="M40.9502 18.6191L41.1377 18.8066L40.9502 18.6191Z" fill="#E5E3AF"/>
<path d="M41.2691 18.6846L41.391 18.7502L41.2598 18.6846H41.2691Z" fill="#E5E59D"/>
<path d="M41.5215 18.6191L41.709 18.8066L41.5215 18.6191Z" fill="#E0DEA1"/>
<path d="M41.8311 18.6846L41.9623 18.7502L41.8311 18.6846Z" fill="#F2F1D2"/>
<path d="M42.084 18.6191L42.2715 18.8066L42.084 18.6191Z" fill="#FBFAF2"/>
<path d="M35.9902 18.8154L36.1777 19.0029L35.9902 18.8154Z" fill="#FEF8F1"/>
<path d="M36.1875 18.8154L36.375 19.0029L36.1875 18.8154Z" fill="#FBBE66"/>
<path d="M35.9902 19.0029L36.1777 19.1904L35.9902 19.0029Z" fill="#FBC477"/>
<path d="M36.375 19.0029L36.5625 19.1904L36.375 19.0029Z" fill="#FCB144"/>
<path d="M35.9902 19.2002L36.1777 19.3877L35.9902 19.2002Z" fill="#FE9F11"/>
<path d="M36.375 19.2002L36.5625 19.3877L36.375 19.2002Z" fill="#FEA522"/>
<path d="M35.8027 19.3877L35.9902 19.5752L35.8027 19.3877ZM36.5715 19.3877L36.759 19.5752L36.5715 19.3877Z" fill="#FAE3C9"/>
<path d="M37.5186 19.3877L37.7061 19.5752L37.5186 19.3877Z" fill="#FBEAD6"/>
<path d="M37.7158 19.3877L37.9033 19.5752L37.7158 19.3877Z" fill="#F9D6AA"/>
<path d="M38.4746 19.3877L38.6621 19.5752L38.4746 19.3877Z" fill="#FAE3C9"/>
<path d="M38.6621 19.3877L38.8496 19.5752L38.6621 19.3877Z" fill="#FEF8F1"/>
<path d="M35.8027 19.5752L35.9902 19.7627L35.8027 19.5752Z" fill="#F9D099"/>
<path d="M36.5625 19.5752L36.75 19.7627L36.5625 19.5752Z" fill="#FDAB33"/>
<path d="M36.9375 19.5752L37.125 19.7627L36.9375 19.5752Z" fill="#FCF1E4"/>
<path d="M37.1436 19.5752L37.3311 19.7627L37.1436 19.5752Z" fill="#FBC477"/>
<path d="M37.3311 19.5752L37.5186 19.7627L37.3311 19.5752Z" fill="#FEA522"/>
<path d="M38.8496 19.5752L39.0371 19.7627L38.8496 19.5752Z" fill="#FCB755"/>
<path d="M39.0469 19.5752L39.2344 19.7627L39.0469 19.5752Z" fill="#F9D6AA"/>
<path d="M35.8027 19.7715L35.9902 19.959L35.8027 19.7715Z" fill="#FACA88"/>
<path d="M36.75 19.7715L36.9375 19.959L36.75 19.7715ZM39.2344 19.7715L39.4219 19.959L39.2344 19.7715Z" fill="#FEA522"/>
<path d="M39.4219 19.7715L39.6094 19.959L39.4219 19.7715Z" fill="#F8DCBB"/>
<path d="M31.8096 19.959L31.9971 20.1465L31.8096 19.959Z" fill="#F6F6E4"/>
<path d="M35.8027 19.959L35.9902 20.1465L35.8027 19.959Z" fill="#FBC477"/>
<path d="M39.6094 19.959L39.7969 20.1465L39.6094 19.959Z" fill="#FBBE66"/>
<path d="M39.8066 19.959L39.9941 20.1465L39.8066 19.959Z" fill="#F8DCBB"/>
<path d="M35.8027 20.1465L35.9902 20.334L35.8027 20.1465Z" fill="#FACA88"/>
<path d="M40.1816 20.1465L40.3691 20.334L40.1816 20.1465Z" fill="#FCB755"/>
<path d="M40.3779 20.1465L40.5654 20.334L40.3779 20.1465Z" fill="#F8DCBB"/>
<path d="M35.6152 20.3438L35.8027 20.5312L35.6152 20.3438Z" fill="#FEF8F1"/>
<path d="M35.8027 20.3438L35.9902 20.5312L35.8027 20.3438Z" fill="#FE9F11"/>
<path d="M41.1377 20.3438L41.3252 20.5312L41.1377 20.3438Z" fill="#FDAB33"/>
<path d="M41.334 20.3438L41.5215 20.5312L41.334 20.3438Z" fill="#FCB144"/>
<path d="M41.5215 20.3438L41.709 20.5312L41.5215 20.3438Z" fill="#FBC477"/>
<path d="M41.709 20.3438L42.084 20.7188L41.709 20.3438Z" fill="#F9D6AA"/>
<path d="M41.8965 20.3438L42.084 20.5312L41.8965 20.3438Z" fill="#FEF8F1"/>
<path d="M35.6152 20.5312L35.8027 20.7188L35.6152 20.5312Z" fill="#FCB144"/>
<path d="M38.2783 20.5312L38.4658 20.7188L38.2783 20.5312Z" fill="#FDAB33"/>
<path d="M38.4746 20.5312L38.6621 20.7188L38.4746 20.5312ZM39.2246 20.5312L39.4121 20.7188L39.2246 20.5312Z" fill="#FBC477"/>
<path d="M39.4219 20.5312L39.6094 20.7188L39.4219 20.5312Z" fill="#FEA522"/>
<path d="M35.4277 20.7188L35.6152 20.9062L35.4277 20.7188Z" fill="#FAE3C9"/>
<path d="M37.9033 20.7188L38.0908 20.9062L37.9033 20.7188Z" fill="#FCB144"/>
<path d="M38.0908 20.7188L38.2783 20.9062L38.0908 20.7188Z" fill="#FAE3C9"/>
<path d="M39.6094 20.7188L39.7969 20.9062L39.6094 20.7188Z" fill="#F8DCBB"/>
<path d="M39.8066 20.7188L39.9941 20.9062L39.8066 20.7188Z" fill="#FDAB33"/>
<path d="M40.9502 20.7188L41.1377 20.9062L40.9502 20.7188Z" fill="#FE9F11"/>
<path d="M41.1377 20.7188L41.3252 20.9062L41.1377 20.7188Z" fill="#FCB755"/>
<path d="M41.334 20.7188L41.5215 20.9062L41.334 20.7188Z" fill="#F9D099"/>
<path d="M41.5215 20.7188L41.709 20.9062L41.5215 20.7188Z" fill="#FBEAD6"/>
<path d="M35.4277 20.9062L35.6152 21.0938L35.4277 20.9062Z" fill="#FCB144"/>
<path d="M37.7158 20.9062L37.9033 21.0938L37.7158 20.9062Z" fill="#FBBE66"/>
<path d="M39.9941 20.9062L40.1816 21.0938L39.9941 20.9062Z" fill="#F9D099"/>
<path d="M40.7529 20.9062L40.9404 21.0938L40.7529 20.9062Z" fill="#FBEAD6"/>
<path d="M35.2402 21.0938L35.4277 21.2812L35.2402 21.0938Z" fill="#FCF1E4"/>
<path d="M37.5186 21.0938L37.7061 21.2812L37.5186 21.0938Z" fill="#FBBE66"/>
<path d="M40.1816 21.0938L40.3691 21.2812L40.1816 21.0938Z" fill="#F9D099"/>
<path d="M40.7529 21.0938L40.9404 21.2812L40.7529 21.0938Z" fill="#FAE3C9"/>
<path d="M35.2402 21.2812L35.4277 21.4688L35.2402 21.2812Z" fill="#FBC477"/>
<path d="M37.3311 21.2812L37.5186 21.4688L37.3311 21.2812ZM40.3779 21.2812L40.5654 21.4688L40.3779 21.2812Z" fill="#FCB144"/>
<path d="M40.7529 21.2812L40.9404 21.4688L40.7529 21.2812Z" fill="#FBBE66"/>
<path d="M31.8096 21.4688L31.9971 21.6562L31.8096 21.4688Z" fill="#F6F6E4"/>
<path d="M35.2402 21.4688L35.4277 21.6562L35.2402 21.4688Z" fill="#FEA522"/>
<path d="M37.3311 21.4688L37.5186 21.6562L37.3311 21.4688Z" fill="#FBEAD6"/>
<path d="M40.3779 21.4688L40.5654 21.6562L40.3779 21.4688Z" fill="#FCF1E4"/>
<path d="M40.9502 21.4688L41.1377 21.6562L40.9502 21.4688Z" fill="#FEF8F1"/>
<path d="M35.0527 21.6748L35.2402 21.8623L35.0527 21.6748Z" fill="#FCF1E4"/>
<path d="M37.1436 21.6748L37.3311 21.8623L37.1436 21.6748Z" fill="#FBBE66"/>
<path d="M40.5654 21.6748L40.7529 21.8623L40.5654 21.6748Z" fill="#FACA88"/>
<path d="M40.9502 21.6748L41.1377 21.8623L40.9502 21.6748Z" fill="#F9D099"/>
<path d="M35.0527 21.8623L35.2402 22.0498L35.0527 21.8623Z" fill="#F9D6AA"/>
<path d="M37.1436 21.8623L37.3311 22.0498L37.1436 21.8623Z" fill="#FCF1E4"/>
<path d="M38.0908 21.8623L38.2783 22.0498L38.0908 21.8623Z" fill="#FAE3C9"/>
<path d="M38.2783 21.8623L38.4658 22.0498L38.2783 21.8623Z" fill="#FEA522"/>
<path d="M38.4746 21.8623L38.6621 22.0498L38.4746 21.8623Z" fill="#FCB144"/>
<path d="M38.6621 21.8623L38.8496 22.0498L38.6621 21.8623Z" fill="#F9D6AA"/>
<path d="M40.5654 21.8623L40.7529 22.0498L40.5654 21.8623Z" fill="#FEF8F1"/>
<path d="M40.7529 21.8623L40.9404 22.0498L40.7529 21.8623Z" fill="#FEA522"/>
<path d="M40.9502 21.8623L41.1377 22.0498L40.9502 21.8623Z" fill="#FDAB33"/>
<path d="M35.0533 22.0498L34.8564 22.6123L35.0439 22.0498H35.0533Z" fill="#FACA88"/>
<path d="M36.9375 22.0498L37.125 22.2373L36.9375 22.0498Z" fill="#FEA522"/>
<path d="M37.1436 22.0498L37.3311 22.2373L37.1436 22.0498Z" fill="#FEF8F1"/>
<path d="M38.0908 22.0498L38.2783 22.2373L38.0908 22.0498Z" fill="#F9D099"/>
<path d="M38.8496 22.0498L39.0371 22.2373L38.8496 22.0498Z" fill="#FDAB33"/>
<path d="M39.0469 22.0498L39.2344 22.2373L39.0469 22.0498Z" fill="#FAE3C9"/>
<path d="M40.7529 22.0498L40.9404 22.2373L40.7529 22.0498Z" fill="#F8DCBB"/>
<path d="M40.9502 22.0498L41.1377 22.2373L40.9502 22.0498Z" fill="#FF9900"/>
<path d="M41.2031 22.1816L41.2594 22.3035L41.2031 22.1816Z" fill="#FBEAD6"/>
<path d="M37.3311 22.2373L37.5186 22.4248L37.3311 22.2373Z" fill="#FEA522"/>
<path d="M37.5186 22.2373L37.7061 22.4248L37.5186 22.2373Z" fill="#FBBE66"/>
<path d="M37.7158 22.2373L37.9033 22.4248L37.7158 22.2373Z" fill="#FACA88"/>
<path d="M37.9033 22.2373L38.0908 22.4248L37.9033 22.2373Z" fill="#FCB144"/>
<path d="M38.0908 22.2373L38.2783 22.4248L38.0908 22.2373Z" fill="#FAE3C9"/>
<path d="M38.2783 22.2373L38.4658 22.4248L38.2783 22.2373Z" fill="#FE9F11"/>
<path d="M39.2344 22.2373L39.4219 22.4248L39.2344 22.2373Z" fill="#FDAB33"/>
<path d="M39.4219 22.2373L39.6094 22.4248L39.4219 22.2373Z" fill="#FBC477"/>
<path d="M39.6094 22.2373L39.7969 22.4248L39.6094 22.2373Z" fill="#FACA88"/>
<path d="M39.8066 22.2373L39.9941 22.4248L39.8066 22.2373Z" fill="#F9D6AA"/>
<path d="M40.1152 22.3027L40.2465 22.3684L40.1246 22.3027H40.1152Z" fill="#FAE3C9"/>
<path d="M40.3779 22.2373L40.5654 22.4248L40.3779 22.2373Z" fill="#FEF8F1"/>
<path d="M40.9502 22.2373L41.1377 22.4248L40.9502 22.2373Z" fill="#FBC477"/>
<path d="M32.7656 22.4346L32.9531 22.6221L32.7656 22.4346Z" fill="#FEF8F1"/>
<path d="M32.9531 22.4346L33.1406 22.6221L32.9531 22.4346Z" fill="#FCF1E4"/>
<path d="M37.9033 22.4346L38.0908 22.6221L37.9033 22.4346Z" fill="#FCB755"/>
<path d="M38.2783 22.4346L38.4658 22.6221L38.2783 22.4346Z" fill="#FBEAD6"/>
<path d="M38.4746 22.4346L38.6621 22.6221L38.4746 22.4346Z" fill="#FEA522"/>
<path d="M39.9941 22.4346L40.1816 22.6221L39.9941 22.4346Z" fill="#FE9F11"/>
<path d="M40.1816 22.4346L39.9941 22.8096L40.1816 22.4346Z" fill="#FCB144"/>
<path d="M40.5654 22.4346L40.7529 22.6221L40.5654 22.4346Z" fill="#FE9F11"/>
<path d="M40.7529 22.4346L40.9404 22.6221L40.7529 22.4346Z" fill="#FBBE66"/>
<path d="M40.9502 22.4346L41.1377 22.6221L40.9502 22.4346Z" fill="#FCF1E4"/>
<path d="M32.7656 22.6221L32.9531 22.8096L32.7656 22.6221Z" fill="#FAE3C9"/>
<path d="M32.9531 22.6221L33.3281 22.9971L32.9531 22.6221Z" fill="#FE9F11"/>
<path d="M33.1406 22.6221L33.3281 22.8096L33.1406 22.6221ZM34.8562 22.6221L35.0437 22.8096L34.8562 22.6221Z" fill="#FBEAD6"/>
<path d="M35.0527 22.6221L35.2402 22.8096L35.0527 22.6221Z" fill="#FAE3C9"/>
<path d="M36.75 22.6221L36.9375 22.8096L36.75 22.6221Z" fill="#FE9F11"/>
<path d="M36.9375 22.6221L37.125 22.8096L36.9375 22.6221Z" fill="#FBC477"/>
<path d="M37.1436 22.6221L37.3311 22.8096L37.1436 22.6221Z" fill="#FEA522"/>
<path d="M37.7158 22.6221L37.9033 22.8096L37.7158 22.6221Z" fill="#FBC477"/>
<path d="M37.9033 22.6221L38.0908 22.8096L37.9033 22.6221Z" fill="#FEF8F1"/>
<path d="M38.6621 22.6221L38.8496 22.8096L38.6621 22.6221Z" fill="#FBC477"/>
<path d="M40.1816 22.6221L40.3691 22.8096L40.1816 22.6221Z" fill="white"/>
<path d="M40.3779 22.6221L40.5654 22.8096L40.3779 22.6221Z" fill="#FDAB33"/>
<path d="M41.1377 22.6221L41.3252 22.8096L41.1377 22.6221Z" fill="#FBC477"/>
<path d="M32.7656 22.8096L32.9531 22.9971L32.7656 22.8096Z" fill="#FEF8F1"/>
<path d="M33.3281 22.8096L33.5156 22.9971L33.3281 22.8096Z" fill="#FBEAD6"/>
<path d="M34.2842 22.8096L34.4717 22.9971L34.2842 22.8096Z" fill="#F9D6AA"/>
<path d="M35.2402 22.8096L35.4277 22.9971L35.2402 22.8096Z" fill="#FE9F11"/>
<path d="M35.5498 22.875L35.6811 22.9406L35.5498 22.875Z" fill="#F9D6AA"/>
<path d="M36.75 22.8096L36.9375 22.9971L36.75 22.8096Z" fill="#F8DCBB"/>
<path d="M37.3311 22.8096L37.5186 22.9971L37.3311 22.8096Z" fill="#FCF1E4"/>
<path d="M38.8496 22.8096L39.0371 22.9971L38.8496 22.8096Z" fill="#F9D6AA"/>
<path d="M40.1816 22.8096L40.3691 22.9971L40.1816 22.8096Z" fill="#FDAB33"/>
<path d="M41.334 22.8096L41.5215 22.9971L41.334 22.8096Z" fill="#FCB755"/>
<path d="M41.5215 22.8096L41.709 22.9971L41.5215 22.8096Z" fill="#FEF8F1"/>
<path d="M31.2373 23.0059L31.4248 23.1934L31.2373 23.0059Z" fill="#53527C"/>
<path d="M32.9531 23.0059L33.1406 23.1934L32.9531 23.0059Z" fill="#FCB755"/>
<path d="M33.3281 23.0059L33.5156 23.1934L33.3281 23.0059Z" fill="#FEA522"/>
<path d="M34.0967 23.0059L34.2842 23.1934L34.0967 23.0059Z" fill="#FBEAD6"/>
<path d="M34.4717 23.0059L34.6592 23.1934L34.4717 23.0059Z" fill="#FE9F11"/>
<path d="M34.6689 23.0059L34.8564 23.1934L34.6689 23.0059Z" fill="#FCF1E4"/>
<path d="M35.2402 23.0059L35.4277 23.1934L35.2402 23.0059Z" fill="#FBBE66"/>
<path d="M35.4277 23.0059L35.6152 23.1934L35.4277 23.0059Z" fill="#FBC477"/>
<path d="M35.6152 23.0059L35.8027 23.1934L35.6152 23.0059Z" fill="#FBBE66"/>
<path d="M36.5625 23.0059L36.75 23.1934L36.5625 23.0059Z" fill="#FEA522"/>
<path d="M39.0469 23.0059L39.2344 23.1934L39.0469 23.0059Z" fill="#F9D6AA"/>
<path d="M41.5215 23.0059L41.709 23.1934L41.5215 23.0059Z" fill="#FCB144"/>
<path d="M44.5596 23.0059L44.7471 23.1934L44.5596 23.0059Z" fill="#8D8D5B"/>
<path d="M31.8096 23.1934L31.9971 23.3809L31.8096 23.1934Z" fill="#E5E3AF"/>
<path d="M32.9531 23.1934L33.1406 23.3809L32.9531 23.1934Z" fill="#F8DCBB"/>
<path d="M33.5254 23.1934L33.7129 23.3809L33.5254 23.1934Z" fill="#FDAB33"/>
<path d="M34.0967 23.1934L34.2842 23.3809L34.0967 23.1934Z" fill="#FE9F11"/>
<path d="M34.4717 23.1934L34.6592 23.3809L34.4717 23.1934Z" fill="#FACA88"/>
<path d="M35.2402 23.1934L35.4277 23.3809L35.2402 23.1934Z" fill="#FCF1E4"/>
<path d="M36.5625 23.1934L36.75 23.3809L36.5625 23.1934ZM39.2344 23.1934L39.4219 23.3809L39.2344 23.1934Z" fill="#F9D099"/>
<path d="M41.709 23.1934L41.8965 23.3809L41.709 23.1934Z" fill="#FBBE66"/>
<path d="M33.1406 23.3809L33.3281 23.5684L33.1406 23.3809Z" fill="#FEA522"/>
<path d="M33.7129 23.3809L33.9004 23.5684L33.7129 23.3809Z" fill="#FDAB33"/>
<path d="M33.9004 23.3809L34.0879 23.5684L33.9004 23.3809Z" fill="#FEA522"/>
<path d="M34.2842 23.3809L34.4717 23.5684L34.2842 23.3809Z" fill="#FE9F11"/>
<path d="M34.4717 23.3809L34.6592 23.5684L34.4717 23.3809Z" fill="#FEF8F1"/>
<path d="M35.4277 23.3809L35.6152 23.5684L35.4277 23.3809Z" fill="#FBBE66"/>
<path d="M36.5625 23.3809L36.75 23.5684L36.5625 23.3809Z" fill="#FEF8F1"/>
<path d="M39.4219 23.3809L39.6094 23.5684L39.4219 23.3809Z" fill="#FBBE66"/>
<path d="M41.8965 23.3809L42.084 23.5684L41.8965 23.3809Z" fill="#F9D099"/>
<path d="M33.1406 23.5781L33.3281 23.7656L33.1406 23.5781Z" fill="#F9D6AA"/>
<path d="M34.2842 23.5781L34.4717 23.7656L34.2842 23.5781Z" fill="#F9D099"/>
<path d="M35.4277 23.5781L35.6152 23.7656L35.4277 23.5781Z" fill="#FCF1E4"/>
<path d="M36.375 23.5781L36.5625 23.7656L36.375 23.5781ZM39.6094 23.5781L39.7969 23.7656L39.6094 23.5781Z" fill="#FDAB33"/>
<path d="M42.084 23.5781L42.2715 23.7656L42.084 23.5781Z" fill="#FBEAD6"/>
<path d="M33.3281 23.7656L33.5156 23.9531L33.3281 23.7656Z" fill="#FEA522"/>
<path d="M34.0967 23.7656L34.2842 23.9531L34.0967 23.7656Z" fill="#FE9F11"/>
<path d="M35.6152 23.7656L35.8027 23.9531L35.6152 23.7656Z" fill="#FCB144"/>
<path d="M36.375 23.7656L36.5625 23.9531L36.375 23.7656Z" fill="#FACA88"/>
<path d="M39.6094 23.7656L39.7969 23.9531L39.6094 23.7656Z" fill="#F8DCBB"/>
<path d="M42.084 23.7656L42.2715 23.9531L42.084 23.7656Z" fill="#FCB144"/>
<path d="M31.8096 23.9629L31.9971 24.1504L31.8096 23.9629Z" fill="#D3D079"/>
<path d="M33.3281 23.9629L33.5156 24.1504L33.3281 23.9629ZM35.6156 23.9629L35.8031 24.1504L35.6156 23.9629Z" fill="#FACA88"/>
<path d="M36.375 23.9629L36.5625 24.1504L36.375 23.9629ZM39.6094 23.9629L39.7969 24.1504L39.6094 23.9629Z" fill="#FAE3C9"/>
<path d="M42.2715 23.9629L42.459 24.1504L42.2715 23.9629Z" fill="#F8DCBB"/>
<path d="M43.9873 23.9629L44.1748 24.1504L43.9873 23.9629Z" fill="#F2F1D7"/>
<path d="M44.625 24.084L44.6906 24.2059L44.625 24.084Z" fill="#58587B"/>
<path d="M31.8652 24.2715L31.9402 24.4027L31.8746 24.2715H31.8652Z" fill="#D9D868"/>
<path d="M33.3281 24.1504L33.5156 24.3379L33.3281 24.1504Z" fill="#F8DCBB"/>
<path d="M39.4219 24.1504L39.6094 24.3379L39.4219 24.1504Z" fill="#F9D6AA"/>
<path d="M39.6094 24.1504L39.7969 24.3379L39.6094 24.1504Z" fill="#FE9F11"/>
<path d="M42.2715 24.1504L42.459 24.3379L42.2715 24.1504Z" fill="#FCB144"/>
<path d="M44.0527 24.2715L44.1184 24.4027L44.0527 24.2715Z" fill="#F2F1D2"/>
<path d="M33.3281 24.3379L33.5156 24.5254L33.3281 24.3379Z" fill="#FCF1E4"/>
<path d="M39.2344 24.3379L39.4219 24.5254L39.2344 24.3379Z" fill="#FEF8F1"/>
<path d="M39.4219 24.3379L39.6094 24.5254L39.4219 24.3379Z" fill="#FE9F11"/>
<path d="M39.9941 24.3379L39.8066 24.7129L39.9941 24.3379Z" fill="#FDAB33"/>
<path d="M40.1816 24.3379L40.3691 24.5254L40.1816 24.3379Z" fill="#FCB755"/>
<path d="M42.4688 24.3379L42.6562 24.5254L42.4688 24.3379Z" fill="#FEA522"/>
<path d="M42.6562 24.3379L42.8438 24.5254L42.6562 24.3379Z" fill="#F9D099"/>
<path d="M44.5596 24.3379L44.7471 24.5254L44.5596 24.3379Z" fill="#53527C"/>
<path d="M31.4902 24.6562L31.5559 24.7781L31.4902 24.6562Z" fill="#808067"/>
<path d="M33.5254 24.5254L33.7129 24.7129L33.5254 24.5254ZM34.0879 24.5254L34.2754 24.7129L34.0879 24.5254Z" fill="#FEA522"/>
<path d="M36.1875 24.5254L36.375 24.7129L36.1875 24.5254Z" fill="#FE9F11"/>
<path d="M39.2344 24.5254L39.4219 24.7129L39.2344 24.5254Z" fill="#FAE3C9"/>
<path d="M39.9941 24.5254L40.1816 24.7129L39.9941 24.5254Z" fill="#FEF8F1"/>
<path d="M40.3779 24.5254L40.5654 24.7129L40.3779 24.5254Z" fill="#FCB144"/>
<path d="M42.8438 24.5254L43.0312 24.7129L42.8438 24.5254Z" fill="#FCB755"/>
<path d="M43.0312 24.5254L43.4062 24.9004L43.0312 24.5254Z" fill="#FEF8F1"/>
<path d="M44.0527 24.6562L44.1184 24.7781L44.0527 24.6562Z" fill="#E5E59D"/>
<path d="M44.625 24.6562L44.6906 24.7781L44.625 24.6562Z" fill="#32327B"/>
<path d="M33.5908 24.8438L33.6471 24.975L33.5908 24.8438Z" fill="#FCB755"/>
<path d="M34.2842 24.7129L34.4717 24.9004L34.2842 24.7129Z" fill="#FEF8F1"/>
<path d="M36.1875 24.7129L36.375 24.9004L36.1875 24.7129Z" fill="#FBBE66"/>
<path d="M39.2344 24.7129L39.4219 24.9004L39.2344 24.7129Z" fill="#FBEAD6"/>
<path d="M39.6094 24.7129L39.7969 24.9004L39.6094 24.7129Z" fill="#FE9F11"/>
<path d="M39.8066 24.7129L39.9941 24.9004L39.8066 24.7129Z" fill="#FCF1E4"/>
<path d="M40.3779 24.7129L40.5654 24.9004L40.3779 24.7129Z" fill="#FBEAD6"/>
<path d="M43.0312 24.7129L43.2188 24.9004L43.0312 24.7129Z" fill="#FDAB33"/>
<path d="M31.4346 24.9004L31.6221 25.0879L31.4346 24.9004Z" fill="#666677"/>
<path d="M31.9971 24.9004L32.1846 25.0879L31.9971 24.9004Z" fill="#F6F6E4"/>
<path d="M34.2842 24.9004L34.4717 25.0879L34.2842 24.9004Z" fill="#F9D6AA"/>
<path d="M35.8027 24.9004L35.9902 25.0879L35.8027 24.9004Z" fill="#FDAB33"/>
<path d="M35.9902 24.9004L36.1777 25.0879L35.9902 24.9004Z" fill="#FE9F11"/>
<path d="M36.1875 24.9004L36.375 25.0879L36.1875 24.9004Z" fill="#FCF1E4"/>
<path d="M39.4219 24.9004L39.6094 25.0879L39.4219 24.9004Z" fill="#FEA522"/>
<path d="M39.6094 24.9004L39.7969 25.0879L39.6094 24.9004ZM40.5656 24.9004L40.7531 25.0879L40.5656 24.9004Z" fill="#FACA88"/>
<path d="M43.2188 24.9004L43.4062 25.0879L43.2188 24.9004Z" fill="#FCB144"/>
<path d="M43.9873 24.9004L44.1748 25.0879L43.9873 24.9004Z" fill="#DDDC7A"/>
<path d="M31.4346 25.0967L31.6221 25.2842L31.4346 25.0967Z" fill="#58587B"/>
<path d="M31.9971 25.0967L32.1846 25.2842L31.9971 25.0967Z" fill="#F2F1D2"/>
<path d="M33.5908 25.2188L33.6471 25.35L33.5908 25.2188Z" fill="#FCB144"/>
<path d="M34.2842 25.0967L34.4717 25.2842L34.2842 25.0967Z" fill="#FEA522"/>
<path d="M36.1875 25.0967L36.375 25.2842L36.1875 25.0967Z" fill="#FEF8F1"/>
<path d="M36.375 25.0967L36.5625 25.2842L36.375 25.0967Z" fill="#FEA522"/>
<path d="M36.75 25.0967L36.9375 25.2842L36.75 25.0967Z" fill="#FCB144"/>
<path d="M36.9375 25.0967L37.125 25.2842L36.9375 25.0967Z" fill="#FBEAD6"/>
<path d="M39.4219 25.0967L39.6094 25.2842L39.4219 25.0967Z" fill="#F8DCBB"/>
<path d="M39.6094 25.0967L39.7969 25.2842L39.6094 25.0967Z" fill="#FCF1E4"/>
<path d="M40.5654 25.0967L40.7529 25.2842L40.5654 25.0967Z" fill="#FEF8F1"/>
<path d="M40.7529 25.0967L40.9404 25.2842L40.7529 25.0967Z" fill="#FE9F11"/>
<path d="M43.4248 25.0967L43.6123 25.2842L43.4248 25.0967Z" fill="#FBEAD6"/>
<path d="M43.9873 25.0967L44.1748 25.2842L43.9873 25.0967Z" fill="#D9D868"/>
<path d="M31.4346 25.2842L31.6221 25.4717L31.4346 25.2842Z" fill="#3A3A7C"/>
<path d="M31.9971 25.2842L32.1846 25.4717L31.9971 25.2842Z" fill="#E5E3AF"/>
<path d="M34.4717 25.2842L34.6592 25.4717L34.4717 25.2842Z" fill="#FACA88"/>
<path d="M36.375 25.2842L36.5625 25.4717L36.375 25.2842Z" fill="#FBEAD6"/>
<path d="M36.9375 25.2842L37.125 25.4717L36.9375 25.2842Z" fill="#FE9F11"/>
<path d="M37.1436 25.2842L37.3311 25.4717L37.1436 25.2842Z" fill="#FCF1E4"/>
<path d="M39.2344 25.2842L39.4219 25.4717L39.2344 25.2842Z" fill="#FBEAD6"/>
<path d="M39.4219 25.2842L39.6094 25.4717L39.4219 25.2842Z" fill="#FAE3C9"/>
<path d="M39.6094 25.2842L39.7969 25.4717L39.6094 25.2842Z" fill="#FBEAD6"/>
<path d="M40.7529 25.2842L40.9404 25.4717L40.7529 25.2842ZM42.2811 25.2842L42.4686 25.4717L42.2811 25.2842Z" fill="#FBBE66"/>
<path d="M42.4688 25.2842L42.6562 25.4717L42.4688 25.2842Z" fill="#FCF1E4"/>
<path d="M42.6562 25.2842L42.8438 25.4717L42.6562 25.2842Z" fill="#FEF8F1"/>
<path d="M42.8438 25.2842L43.0312 25.4717L42.8438 25.2842Z" fill="#F8DCBB"/>
<path d="M43.0312 25.2842L43.2188 25.4717L43.0312 25.2842Z" fill="#FCB755"/>
<path d="M43.4248 25.2842L43.6123 25.4717L43.4248 25.2842Z" fill="#FAE3C9"/>
<path d="M44.3721 25.2842L44.5596 25.4717L44.3721 25.2842Z" fill="#808067"/>
<path d="M31.4346 25.4814L31.6221 25.6689L31.4346 25.4814Z" fill="#32327B"/>
<path d="M31.6777 25.5938L31.7434 25.7344L31.6871 25.6031L31.6777 25.5938Z" fill="#A4A43D"/>
<path d="M31.9971 25.4814L32.1846 25.6689L31.9971 25.4814Z" fill="#E5E59D"/>
<path d="M33.5254 25.4814L33.7129 25.6689L33.5254 25.4814Z" fill="#FBC477"/>
<path d="M34.6689 25.4814L34.8564 25.6689L34.6689 25.4814Z" fill="#F9D6AA"/>
<path d="M36.5625 25.4814L36.75 25.6689L36.5625 25.4814Z" fill="#FBBE66"/>
<path d="M37.1436 25.4814L37.3311 25.6689L37.1436 25.4814Z" fill="#F9D099"/>
<path d="M38.8496 25.4814L39.0371 25.6689L38.8496 25.4814Z" fill="#FAE3C9"/>
<path d="M39.0469 25.4814L39.2344 25.6689L39.0469 25.4814Z" fill="#FCB144"/>
<path d="M39.8066 25.4814L39.9941 25.6689L39.8066 25.4814Z" fill="#FAE3C9"/>
<path d="M40.7529 25.4814L40.9404 25.6689L40.7529 25.4814Z" fill="#F8DCBB"/>
<path d="M42.2715 25.4814L42.459 25.6689L42.2715 25.4814Z" fill="#F9D099"/>
<path d="M43.2188 25.4814L43.4062 25.6689L43.2188 25.4814Z" fill="#FBC477"/>
<path d="M43.4248 25.4814L43.6123 25.6689L43.4248 25.4814Z" fill="#FBEAD6"/>
<path d="M44.3721 25.4814L44.5596 25.6689L44.3721 25.4814Z" fill="#737370"/>
<path d="M31.9971 25.6689L32.1846 25.8564L31.9971 25.6689Z" fill="#D9D868"/>
<path d="M33.5254 25.6689L33.7129 25.8564L33.5254 25.6689Z" fill="#F9D099"/>
<path d="M34.8564 25.6689L35.0439 25.8564L34.8564 25.6689ZM36.5721 25.6689L36.7596 25.8564L36.5721 25.6689Z" fill="#F9D6AA"/>
<path d="M37.1436 25.6689L37.3311 25.8564L37.1436 25.6689Z" fill="#FBC477"/>
<path d="M38.0908 25.6689L38.2783 25.8564L38.0908 25.6689Z" fill="#FEF8F1"/>
<path d="M38.2783 25.6689L38.4658 25.8564L38.2783 25.6689Z" fill="#F8DCBB"/>
<path d="M38.4746 25.6689L38.6621 25.8564L38.4746 25.6689Z" fill="#FBC477"/>
<path d="M38.6621 25.6689L38.8496 25.8564L38.6621 25.6689Z" fill="#FEA522"/>
<path d="M39.8066 25.6689L39.9941 25.8564L39.8066 25.6689Z" fill="#FBEAD6"/>
<path d="M43.7998 25.6689L43.9873 25.8564L43.7998 25.6689Z" fill="#F2F1D2"/>
<path d="M44.3721 25.6689L44.5596 25.8564L44.3721 25.6689Z" fill="#58587B"/>
<path d="M31.6221 25.8564L31.8096 26.0439L31.6221 25.8564Z" fill="#99994E"/>
<path d="M31.9971 25.8564L32.1846 26.0439L31.9971 25.8564Z" fill="#D0D045"/>
<path d="M35.0527 25.8564L35.2402 26.0439L35.0527 25.8564Z" fill="#FCB144"/>
<path d="M35.2402 25.8564L35.4277 26.0439L35.2402 25.8564Z" fill="#FAE3C9"/>
<path d="M36.5625 25.8564L36.75 26.0439L36.5625 25.8564Z" fill="#FEF8F1"/>
<path d="M37.3311 25.8564L37.5186 26.0439L37.3311 25.8564Z" fill="#FCB755"/>
<path d="M37.5186 25.8564L37.7061 26.0439L37.5186 25.8564Z" fill="#FBC477"/>
<path d="M37.7158 25.8564L37.9033 26.0439L37.7158 25.8564Z" fill="#FCB144"/>
<path d="M37.9033 25.8564L38.0908 26.0439L37.9033 25.8564Z" fill="#FEA522"/>
<path d="M39.4219 25.8564L39.6094 26.0439L39.4219 25.8564Z" fill="#FE9F11"/>
<path d="M39.6094 25.8564L39.7969 26.0439L39.6094 25.8564Z" fill="#F9D6AA"/>
<path d="M42.2715 25.8564L42.459 26.0439L42.2715 25.8564Z" fill="#FEF8F1"/>
<path d="M43.7998 25.8564L43.9873 26.0439L43.7998 25.8564Z" fill="#E0DEA1"/>
<path d="M44.3721 25.8564L44.5596 26.0439L44.3721 25.8564Z" fill="#3A3A7C"/>
<path d="M31.6221 26.0527L31.8096 26.2402L31.6221 26.0527Z" fill="#737370"/>
<path d="M32.1934 26.0527L32.3809 26.2402L32.1934 26.0527Z" fill="#FBFAF2"/>
<path d="M33.7129 26.0527L33.9004 26.2402L33.7129 26.0527Z" fill="#FEA522"/>
<path d="M35.4277 26.0527L35.6152 26.2402L35.4277 26.0527Z" fill="#FE9F11"/>
<path d="M35.6152 26.0527L35.8027 26.2402L35.6152 26.0527Z" fill="#FCB144"/>
<path d="M35.8027 26.0527L35.9902 26.2402L35.8027 26.0527Z" fill="#FBC477"/>
<path d="M35.9902 26.0527L36.1777 26.2402L35.9902 26.0527Z" fill="#FACA88"/>
<path d="M36.1875 26.0527L36.375 26.2402L36.1875 26.0527Z" fill="#FBC477"/>
<path d="M36.375 26.0527L36.5625 26.2402L36.375 26.0527Z" fill="#FCB144"/>
<path d="M36.5625 26.0527L36.75 26.2402L36.5625 26.0527Z" fill="#FDAB33"/>
<path d="M39.2344 26.0527L39.4219 26.2402L39.2344 26.0527Z" fill="#FBC477"/>
<path d="M39.4219 26.0527L39.6094 26.2402L39.4219 26.0527Z" fill="#FEF8F1"/>
<path d="M42.084 26.0527L42.2715 26.2402L42.084 26.0527Z" fill="#FDAB33"/>
<path d="M43.7998 26.0527L43.9873 26.2402L43.7998 26.0527Z" fill="#E1E18C"/>
<path d="M44.2402 26.1748L44.3059 26.3061L44.2402 26.1748Z" fill="#A4A43D"/>
<path d="M44.3721 26.0527L44.5596 26.2402L44.3721 26.0527Z" fill="#262678"/>
<path d="M31.6221 26.2402L31.8096 26.4277L31.6221 26.2402Z" fill="#58587B"/>
<path d="M32.1934 26.2402L32.3809 26.4277L32.1934 26.2402Z" fill="#F2F1D2"/>
<path d="M33.7129 26.2402L33.9004 26.4277L33.7129 26.2402Z" fill="#FACA88"/>
<path d="M38.8496 26.2402L39.0371 26.4277L38.8496 26.2402Z" fill="#FE9F11"/>
<path d="M39.0469 26.2402L39.2344 26.4277L39.0469 26.2402Z" fill="#FBEAD6"/>
<path d="M40.7529 26.2402L40.9404 26.4277L40.7529 26.2402Z" fill="#FBC477"/>
<path d="M42.084 26.2402L42.2715 26.4277L42.084 26.2402Z" fill="#FACA88"/>
<path d="M43.7998 26.2402L43.9873 26.4277L43.7998 26.2402Z" fill="#D4D456"/>
<path d="M31.6221 26.4277L31.8096 26.6152L31.6221 26.4277Z" fill="#32327B"/>
<path d="M32.1934 26.4277L32.3809 26.6152L32.1934 26.4277Z" fill="#E5E59D"/>
<path d="M33.7129 26.4277L33.9004 26.6152L33.7129 26.4277Z" fill="#FEF8F1"/>
<path d="M33.9004 26.4277L34.0879 26.6152L33.9004 26.4277Z" fill="#FE9F11"/>
<path d="M38.8496 26.4277L39.0371 26.6152L38.8496 26.4277Z" fill="#FBEAD6"/>
<path d="M40.7529 26.4277L40.9404 26.6152L40.7529 26.4277Z" fill="#FEA522"/>
<path d="M42.084 26.4277L42.2715 26.6152L42.084 26.4277Z" fill="#FCF1E4"/>
<path d="M44.1846 26.4277L44.3721 26.6152L44.1846 26.4277Z" fill="#808067"/>
<path d="M31.6221 26.6152L31.8096 26.8027L31.6221 26.6152Z" fill="#0E0E6E"/>
<path d="M31.8096 26.6152L31.9971 26.8027L31.8096 26.6152Z" fill="#A4A43D"/>
<path d="M32.1934 26.6152L32.3809 26.8027L32.1934 26.6152Z" fill="#D9D868"/>
<path d="M33.9004 26.6152L34.0879 26.8027L33.9004 26.6152Z" fill="#F8DCBB"/>
<path d="M40.5654 26.6152L40.7529 26.8027L40.5654 26.6152Z" fill="#F9D6AA"/>
<path d="M41.8965 26.6152L42.084 26.8027L41.8965 26.6152Z" fill="#FACA88"/>
<path d="M43.6123 26.6152L43.7998 26.8027L43.6123 26.6152Z" fill="#F2F1D2"/>
<path d="M44.1846 26.6152L44.3721 26.8027L44.1846 26.6152Z" fill="#58587B"/>
<path d="M31.8096 26.8125L31.9971 27L31.8096 26.8125Z" fill="#8D8D5B"/>
<path d="M34.0967 26.8125L34.2842 27L34.0967 26.8125Z" fill="#F9D6AA"/>
<path d="M37.9033 26.8125L38.0908 27L37.9033 26.8125Z" fill="#FDAB33"/>
<path d="M38.0908 26.8125L38.2783 27L38.0908 26.8125Z" fill="white"/>
<path d="M38.4092 26.8691L38.5404 26.9348L38.4092 26.8691Z" fill="#FCB144"/>
<path d="M40.3779 26.8125L40.1904 27.1875L40.3779 26.8125Z" fill="#FEF8F1"/>
<path d="M40.5654 26.8125L40.7529 27L40.5654 26.8125Z" fill="#FE9F11"/>
<path d="M41.709 26.8125L41.5215 27.1875L41.709 26.8125Z" fill="#FDAB33"/>
<path d="M43.6123 26.8125L43.7998 27L43.6123 26.8125Z" fill="#E5E59D"/>
<path d="M44.1846 26.8125L44.3721 27L44.1846 26.8125Z" fill="#3A3A7C"/>
<path d="M31.8096 27L31.9971 27.1875L31.8096 27Z" fill="#666677"/>
<path d="M32.3809 27L32.5684 27.1875L32.3809 27Z" fill="#F2F1D2"/>
<path d="M34.2842 27L34.4717 27.1875L34.2842 27Z" fill="#F9D6AA"/>
<path d="M37.9033 27L38.0908 27.1875L37.9033 27Z" fill="#FE9F11"/>
<path d="M38.0908 27L38.2783 27.1875L38.0908 27Z" fill="#FACA88"/>
<path d="M38.2783 27L38.4658 27.1875L38.2783 27Z" fill="#FEA522"/>
<path d="M38.4746 27L38.6621 27.1875L38.4746 27Z" fill="#FCF1E4"/>
<path d="M40.3779 27L40.5654 27.1875L40.3779 27Z" fill="#FDAB33"/>
<path d="M41.709 27L41.8965 27.1875L41.709 27Z" fill="#FEF8F1"/>
<path d="M43.6123 27L43.7998 27.1875L43.6123 27Z" fill="#D9D868"/>
<path d="M43.9873 27L44.1748 27.1875L43.9873 27Z" fill="#A4A43D"/>
<path d="M44.1846 27L44.3721 27.1875L44.1846 27Z" fill="#0E0E6E"/>
<path d="M31.8096 27.1875L31.9971 27.375L31.8096 27.1875Z" fill="#3A3A7C"/>
<path d="M32.3809 27.1875L32.5684 27.375L32.3809 27.1875Z" fill="#E5E59D"/>
<path d="M34.4717 27.1875L34.8467 27.5625L34.4717 27.1875Z" fill="#FAE3C9"/>
<path d="M34.6689 27.1875L34.8564 27.375L34.6689 27.1875Z" fill="#FE9F11"/>
<path d="M38.2783 27.1875L38.4658 27.375L38.2783 27.1875Z" fill="#F8DCBB"/>
<path d="M39.9941 27.1875L40.1816 27.375L39.9941 27.1875Z" fill="#FCF1E4"/>
<path d="M40.1816 27.1875L40.3691 27.375L40.1816 27.1875Z" fill="#FDAB33"/>
<path d="M41.334 27.1875L41.5215 27.375L41.334 27.1875Z" fill="#FCB144"/>
<path d="M41.5215 27.1875L41.709 27.375L41.5215 27.1875Z" fill="#FEF8F1"/>
<path d="M43.4248 27.1875L43.6123 27.375L43.4248 27.1875Z" fill="#FBFAF2"/>
<path d="M43.9873 27.1875L44.1748 27.375L43.9873 27.1875Z" fill="#8D8D5B"/>
<path d="M31.8096 27.375L31.9971 27.5625L31.8096 27.375Z" fill="#0E0E6E"/>
<path d="M31.9971 27.375L32.1846 27.5625L31.9971 27.375Z" fill="#A4A43D"/>
<path d="M32.3809 27.375L32.5684 27.5625L32.3809 27.375Z" fill="#D4D456"/>
<path d="M38.0908 27.375L38.2783 27.5625L38.0908 27.375Z" fill="#F9D6AA"/>
<path d="M39.8066 27.375L39.9941 27.5625L39.8066 27.375Z" fill="#F9D099"/>
<path d="M39.9941 27.375L40.1816 27.5625L39.9941 27.375Z" fill="#FE9F11"/>
<path d="M41.1377 27.375L41.3252 27.5625L41.1377 27.375Z" fill="#FACA88"/>
<path d="M43.4248 27.375L43.6123 27.5625L43.4248 27.375Z" fill="#EEEDC1"/>
<path d="M43.9873 27.375L44.1748 27.5625L43.9873 27.375Z" fill="#58587B"/>
<path d="M31.9971 27.5625L32.1846 27.75L31.9971 27.5625Z" fill="#737370"/>
<path d="M32.5684 27.5625L32.7559 27.75L32.5684 27.5625Z" fill="#F6F6E4"/>
<path d="M34.6689 27.5625L34.8564 27.75L34.6689 27.5625Z" fill="#FBBE66"/>
<path d="M37.7158 27.5625L37.9033 27.75L37.7158 27.5625Z" fill="#FCB144"/>
<path d="M37.959 27.7031L38.0246 27.825L37.959 27.7031Z" fill="#F8DCBB"/>
<path d="M39.4219 27.5625L39.6094 27.75L39.4219 27.5625Z" fill="#FBBE66"/>
<path d="M39.6094 27.5625L39.7969 27.75L39.6094 27.5625Z" fill="#FE9F11"/>
<path d="M40.7529 27.5625L40.9404 27.75L40.7529 27.5625Z" fill="#FBC477"/>
<path d="M40.9502 27.5625L41.1377 27.75L40.9502 27.5625Z" fill="#FCF1E4"/>
<path d="M43.4248 27.5625L43.6123 27.75L43.4248 27.5625Z" fill="#D3D079"/>
<path d="M43.7998 27.5625L43.9873 27.75L43.7998 27.5625Z" fill="#A4A43D"/>
<path d="M43.9873 27.5625L44.1748 27.75L43.9873 27.5625Z" fill="#262678"/>
<path d="M31.9971 27.75L32.1846 27.9375L31.9971 27.75Z" fill="#49497D"/>
<path d="M32.5684 27.75L32.7559 27.9375L32.5684 27.75Z" fill="#E0DEA1"/>
<path d="M34.4717 27.75L34.6592 27.9375L34.4717 27.75Z" fill="#FAE3C9"/>
<path d="M37.1436 27.75L37.3311 27.9375L37.1436 27.75Z" fill="#FDAB33"/>
<path d="M37.3311 27.75L37.5186 27.9375L37.3311 27.75Z" fill="#FBC477"/>
<path d="M37.5186 27.75L37.7061 27.9375L37.5186 27.75Z" fill="#FBEAD6"/>
<path d="M38.0908 27.75L38.2783 27.9375L38.0908 27.75Z" fill="#FCB144"/>
<path d="M40.5654 27.75L40.7529 27.9375L40.5654 27.75Z" fill="#F9D6AA"/>
<path d="M43.7998 27.75L43.9873 27.9375L43.7998 27.75Z" fill="#99994E"/>
<path d="M31.9971 27.9561L32.1846 28.1436L31.9971 27.9561Z" fill="#0E0E6E"/>
<path d="M32.1934 27.9561L32.3809 28.1436L32.1934 27.9561Z" fill="#A4A43D"/>
<path d="M32.5684 27.9561L32.7559 28.1436L32.5684 27.9561Z" fill="#D4D456"/>
<path d="M34.2842 27.9561L34.4717 28.1436L34.2842 27.9561Z" fill="#F9D099"/>
<path d="M34.4717 27.9561L34.6592 28.1436L34.4717 27.9561ZM35.4279 27.9561L35.6154 28.1436L35.4279 27.9561Z" fill="#FE9F11"/>
<path d="M35.6152 27.9561L35.8027 28.1436L35.6152 27.9561Z" fill="#F9D6AA"/>
<path d="M35.8027 27.9561L35.9902 28.1436L35.8027 27.9561Z" fill="#F9D099"/>
<path d="M36.5625 27.9561L36.75 28.1436L36.5625 27.9561Z" fill="#F9D6AA"/>
<path d="M36.75 27.9561L36.9375 28.1436L36.75 27.9561Z" fill="#FAE3C9"/>
<path d="M36.9375 27.9561L37.125 28.1436L36.9375 27.9561Z" fill="#FEF8F1"/>
<path d="M38.4746 27.9561L38.6621 28.1436L38.4746 27.9561Z" fill="#FBEAD6"/>
<path d="M38.6621 27.9561L38.8496 28.1436L38.6621 27.9561Z" fill="#FAE3C9"/>
<path d="M38.8496 27.9561L39.0371 28.1436L38.8496 27.9561Z" fill="#FACA88"/>
<path d="M39.0469 27.9561L39.2344 28.1436L39.0469 27.9561Z" fill="#FBC477"/>
<path d="M39.2344 27.9561L39.4219 28.1436L39.2344 27.9561Z" fill="#FDAB33"/>
<path d="M40.1816 27.9561L40.3691 28.1436L40.1816 27.9561Z" fill="#FE9F11"/>
<path d="M40.3779 27.9561L40.5654 28.1436L40.3779 27.9561Z" fill="#F9D6AA"/>
<path d="M43.2188 27.9561L43.4062 28.1436L43.2188 27.9561Z" fill="#E5E3AF"/>
<path d="M43.7998 27.9561L43.9873 28.1436L43.7998 27.9561Z" fill="#666677"/>
<path d="M32.1934 28.1436L32.3809 28.3311L32.1934 28.1436Z" fill="#737370"/>
<path d="M32.7656 28.1436L32.9531 28.3311L32.7656 28.1436Z" fill="#F2F1D7"/>
<path d="M34.0967 28.1436L34.2842 28.3311L34.0967 28.1436Z" fill="#FEA522"/>
<path d="M35.0527 28.1436L35.2402 28.3311L35.0527 28.1436Z" fill="#FE9F11"/>
<path d="M35.2402 28.1436L35.4277 28.3311L35.2402 28.1436Z" fill="#FBBE66"/>
<path d="M35.4277 28.1436L35.6152 28.3311L35.4277 28.1436Z" fill="#FCF1E4"/>
<path d="M39.9941 28.1436L40.1816 28.3311L39.9941 28.1436Z" fill="#FEA522"/>
<path d="M40.1816 28.1436L40.3691 28.3311L40.1816 28.1436Z" fill="#FBEAD6"/>
<path d="M43.2188 28.1436L43.4062 28.3311L43.2188 28.1436Z" fill="#DDDC7A"/>
<path d="M43.6123 28.1436L43.7998 28.3311L43.6123 28.1436Z" fill="#A4A43D"/>
<path d="M43.7998 28.1436L43.9873 28.3311L43.7998 28.1436Z" fill="#262678"/>
<path d="M32.1934 28.3311L32.3809 28.5186L32.1934 28.3311Z" fill="#49497D"/>
<path d="M32.4375 28.4629L32.5125 28.5848L32.4375 28.4629Z" fill="#A4A43D"/>
<path d="M32.7656 28.3311L32.9531 28.5186L32.7656 28.3311Z" fill="#D3D079"/>
<path d="M34.2842 28.3311L34.4717 28.5186L34.2842 28.3311Z" fill="#F9D099"/>
<path d="M34.4717 28.3311L34.6592 28.5186L34.4717 28.3311Z" fill="#FCB144"/>
<path d="M34.6689 28.3311L34.8564 28.5186L34.6689 28.3311Z" fill="#FACA88"/>
<path d="M34.8564 28.3311L35.0439 28.5186L34.8564 28.3311Z" fill="#F8DCBB"/>
<path d="M35.0527 28.3311L35.2402 28.5186L35.0527 28.3311Z" fill="#FEF8F1"/>
<path d="M39.2344 28.3311L39.4219 28.5186L39.2344 28.3311Z" fill="#F8DCBB"/>
<path d="M39.9941 28.3311L40.1816 28.5186L39.9941 28.3311Z" fill="#FCF1E4"/>
<path d="M43.0312 28.3311L43.2188 28.5186L43.0312 28.3311Z" fill="#F6F6E4"/>
<path d="M43.6123 28.3311L43.7998 28.5186L43.6123 28.3311Z" fill="#8D8D5B"/>
<path d="M32.9531 28.5186L33.1406 28.7061L32.9531 28.5186Z" fill="#FBFAF2"/>
<path d="M39.2344 28.5186L39.4219 28.7061L39.2344 28.5186Z" fill="#FBBE66"/>
<path d="M39.8066 28.5186L39.9941 28.7061L39.8066 28.5186Z" fill="#FACA88"/>
<path d="M43.0312 28.5186L43.2188 28.7061L43.0312 28.5186Z" fill="#E1E18C"/>
<path d="M43.6123 28.5186L43.7998 28.7061L43.6123 28.5186Z" fill="#49497D"/>
<path d="M32.3809 28.7158L32.5684 28.9033L32.3809 28.7158Z" fill="#58587B"/>
<path d="M32.9531 28.7158L33.1406 28.9033L32.9531 28.7158Z" fill="#E5E59D"/>
<path d="M39.2344 28.7158L39.4219 28.9033L39.2344 28.7158Z" fill="#FE9F11"/>
<path d="M39.6094 28.7158L39.7969 28.9033L39.6094 28.7158Z" fill="#FDAB33"/>
<path d="M42.8438 28.7158L43.0312 28.9033L42.8438 28.7158Z" fill="#FBFAF2"/>
<path d="M43.4248 28.7158L43.6123 28.9033L43.4248 28.7158Z" fill="#A4A43D"/>
<path d="M43.6123 28.7158L43.7998 28.9033L43.6123 28.7158Z" fill="#0E0E6E"/>
<path d="M32.3809 28.9033L32.5684 29.0908L32.3809 28.9033Z" fill="#1B1B74"/>
<path d="M32.5684 28.9033L32.7559 29.0908L32.5684 28.9033Z" fill="#A4A43D"/>
<path d="M32.9531 28.9033L33.1406 29.0908L32.9531 28.9033Z" fill="#D0D045"/>
<path d="M39.0469 28.9033L39.2344 29.0908L39.0469 28.9033Z" fill="#FBEAD6"/>
<path d="M39.4219 28.9033L39.6094 29.0908L39.4219 28.9033Z" fill="#FE9F11"/>
<path d="M39.6094 28.9033L39.7969 29.0908L39.6094 28.9033Z" fill="#FBEAD6"/>
<path d="M42.8438 28.9033L43.0312 29.0908L42.8438 28.9033Z" fill="#E5E59D"/>
<path d="M43.4248 28.9033L43.6123 29.0908L43.4248 28.9033Z" fill="#666677"/>
<path d="M32.5684 29.0908L32.7559 29.2783L32.5684 29.0908Z" fill="#6E6C70"/>
<path d="M33.1406 29.0908L33.3281 29.2783L33.1406 29.0908Z" fill="#E5E3AF"/>
<path d="M39.0938 29.2217L39.1687 29.3529L39.0938 29.2217Z" fill="#FACA88"/>
<path d="M39.4219 29.0908L39.6094 29.2783L39.4219 29.0908Z" fill="#FAE3C9"/>
<path d="M42.6562 29.0908L42.8438 29.2783L42.6562 29.0908Z" fill="#FBFAF2"/>
<path d="M43.2188 29.0908L43.4062 29.2783L43.2188 29.0908Z" fill="#A4A43D"/>
<path d="M43.4246 29.0908L43.6121 29.2783L43.4246 29.0908ZM32.5684 29.2783L32.7559 29.4658L32.5684 29.2783Z" fill="#1B1B74"/>
<path d="M32.7656 29.2871L32.9531 29.4746L32.7656 29.2871Z" fill="#A4A43D"/>
<path d="M33.1406 29.2871L33.3281 29.4746L33.1406 29.2871Z" fill="#D0D045"/>
<path d="M33.3281 29.2871L33.5156 29.4746L33.3281 29.2871Z" fill="#FBFAF2"/>
<path d="M39.2344 29.2871L39.4219 29.4746L39.2344 29.2871Z" fill="#F9D6AA"/>
<path d="M42.6562 29.2871L42.8438 29.4746L42.6562 29.2871Z" fill="#E5E59D"/>
<path d="M43.2188 29.2871L43.4062 29.4746L43.2188 29.2871ZM32.7656 29.4746L32.9531 29.6621L32.7656 29.4746Z" fill="#6E6C70"/>
<path d="M33.3281 29.4746L33.5156 29.6621L33.3281 29.4746Z" fill="#8CBF84"/>
<path d="M33.4121 29.4746C34.0684 30.8621 36.4121 34.1434 38.1934 34.0871C39.9371 34.0215 41.8965 30.8059 42.6559 29.4746H33.4121Z" fill="#00CCFF"/>
<path d="M43.0312 29.4746L43.2188 29.6621L43.0312 29.4746Z" fill="#A4A43D"/>
<path d="M43.2188 29.4746L43.4062 29.6621L43.2188 29.4746ZM32.7656 29.6621L32.9531 29.8496L32.7656 29.6621Z" fill="#1B1B74"/>
<path d="M32.9531 29.6621L33.1406 29.8496L32.9531 29.6621Z" fill="#A4A43D"/>
<path d="M33.3281 29.6621L33.5156 29.8496L33.3281 29.6621Z" fill="#ADB333"/>
<path d="M33.5254 29.6621L33.7129 29.8496L33.5254 29.6621Z" fill="#1AC5B5"/>
<path d="M42.4688 29.6621L42.6562 29.8496L42.4688 29.6621Z" fill="#68B070"/>
<path d="M43.0312 29.6621L43.2188 29.8496L43.0312 29.6621Z" fill="#666677"/>
<path d="M32.9531 29.8594L33.1406 30.0469L32.9531 29.8594Z" fill="#58587B"/>
<path d="M33.5254 29.8594L33.7129 30.0469L33.5254 29.8594Z" fill="#7FB15C"/>
<path d="M42.2715 29.8594L42.459 30.0469L42.2715 29.8594Z" fill="#27C2AA"/>
<path d="M42.8438 29.8594L42.6562 30.2344L42.8438 29.8594Z" fill="#A4A43D"/>
<path d="M43.0312 29.8594L43.2188 30.0469L43.0312 29.8594ZM32.9531 30.0469L33.1406 30.2344L32.9531 30.0469Z" fill="#0E0E6E"/>
<path d="M33.1406 30.0469L33.5156 30.4219L33.1406 30.0469Z" fill="#A4A43D"/>
<path d="M33.7129 30.0469L33.9004 30.2344L33.7129 30.0469Z" fill="#34BE9E"/>
<path d="M42.2715 30.0469L42.459 30.2344L42.2715 30.0469Z" fill="#96B247"/>
<path d="M42.8438 30.0469L43.0312 30.2344L42.8438 30.0469Z" fill="#53527C"/>
<path d="M33.1406 30.2441L33.3281 30.4316L33.1406 30.2441Z" fill="#3A3A7C"/>
<path d="M33.7129 30.2441L33.9004 30.4316L33.7129 30.2441Z" fill="#A2B23D"/>
<path d="M33.9004 30.2441L34.0879 30.4316L33.9004 30.2441Z" fill="#0DC9C1"/>
<path d="M42.084 30.2441L42.2715 30.4316L42.084 30.2441Z" fill="#5BB47C"/>
<path d="M42.6562 30.2441L42.8438 30.4316L42.6562 30.2441Z" fill="#8D8D5B"/>
<path d="M33.3281 30.4316L33.5156 30.6191L33.3281 30.4316Z" fill="#737370"/>
<path d="M33.9004 30.4316L34.0879 30.6191L33.9004 30.4316Z" fill="#74B166"/>
<path d="M41.8965 30.4316L42.084 30.6191L41.8965 30.4316Z" fill="#27C2AA"/>
<path d="M42.4688 30.4316L42.2812 30.8066L42.4688 30.4316Z" fill="#A4A43D"/>
<path d="M42.6562 30.4316L42.8438 30.6191L42.6562 30.4316Z" fill="#262678"/>
<path d="M33.3281 30.6191L33.5156 30.8066L33.3281 30.6191Z" fill="#0E0E6E"/>
<path d="M33.5254 30.6191L33.9004 30.9941L33.5254 30.6191Z" fill="#A4A43D"/>
<path d="M34.0967 30.6191L34.2842 30.8066L34.0967 30.6191Z" fill="#42BB92"/>
<path d="M41.709 30.6191L41.8965 30.8066L41.709 30.6191Z" fill="#0DC9C1"/>
<path d="M41.8965 30.6191L42.084 30.8066L41.8965 30.6191Z" fill="#96B247"/>
<path d="M42.4688 30.6191L42.6562 30.8066L42.4688 30.6191Z" fill="#58587B"/>
<path d="M33.5254 30.8066L33.7129 30.9941L33.5254 30.8066Z" fill="#3A3A7C"/>
<path d="M34.0967 30.8066L34.2842 30.9941L34.0967 30.8066Z" fill="#ADB333"/>
<path d="M34.2842 30.8066L34.4717 30.9941L34.2842 30.8066Z" fill="#27C2AA"/>
<path d="M41.709 30.8066L41.8965 30.9941L41.709 30.8066Z" fill="#74B166"/>
<path d="M42.2715 30.8066L42.459 30.9941L42.2715 30.8066Z" fill="#8D8D5B"/>
<path d="M33.7129 30.9941L33.9004 31.1816L33.7129 30.9941Z" fill="#6E6C70"/>
<path d="M34.2842 30.9941L34.4717 31.1816L34.2842 30.9941Z" fill="#96B247"/>
<path d="M34.4717 30.9941L34.6592 31.1816L34.4717 30.9941Z" fill="#0DC9C1"/>
<path d="M41.5215 30.9941L41.709 31.1816L41.5215 30.9941Z" fill="#42BB92"/>
<path d="M42.084 30.9941L41.709 31.5566L42.084 30.9941Z" fill="#A4A43D"/>
<path d="M42.2715 30.9941L42.459 31.1816L42.2715 30.9941Z" fill="#1B1B74"/>
<path d="M33.7129 31.1816L33.9004 31.3691L33.7129 31.1816Z" fill="#0E0E6E"/>
<path d="M33.9004 31.1816L34.0879 31.3691L33.9004 31.1816Z" fill="#8D8D5B"/>
<path d="M34.4717 31.1816L34.6592 31.3691L34.4717 31.1816Z" fill="#7FB15C"/>
<path d="M41.334 31.1816L41.5215 31.3691L41.334 31.1816Z" fill="#34BE9E"/>
<path d="M42.084 31.1816L42.2715 31.3691L42.084 31.1816Z" fill="#3A3A7C"/>
<path d="M33.9004 31.3779L34.0879 31.5654L33.9004 31.3779Z" fill="#1B1B74"/>
<path d="M34.0967 31.3779L36.1873 33.4686L34.0967 31.3779Z" fill="#A4A43D"/>
<path d="M34.6689 31.3779L34.8564 31.5654L34.6689 31.3779Z" fill="#74B166"/>
<path d="M41.1377 31.3779L41.3252 31.5654L41.1377 31.3779Z" fill="#27C2AA"/>
<path d="M41.334 31.3779L41.5215 31.5654L41.334 31.3779Z" fill="#ADB333"/>
<path d="M41.8965 31.3779L42.084 31.5654L41.8965 31.3779Z" fill="#666677"/>
<path d="M34.0967 31.5654L34.2842 31.7529L34.0967 31.5654Z" fill="#32327B"/>
<path d="M34.8564 31.5654L35.0439 31.7529L34.8564 31.5654Z" fill="#42BB92"/>
<path d="M40.9504 31.566L40.1816 32.5223L40.9598 31.5566L40.9504 31.566Z" fill="#0DC9C1"/>
<path d="M41.1377 31.5654L41.3252 31.7529L41.1377 31.5654Z" fill="#ADB333"/>
<path d="M41.709 31.5654L41.8965 31.7529L41.709 31.5654Z" fill="#737370"/>
<path d="M34.2842 31.7627L34.4717 31.9502L34.2842 31.7627Z" fill="#49497D"/>
<path d="M35.0527 31.7627L35.2402 31.9502L35.0527 31.7627Z" fill="#42BB92"/>
<path d="M40.9502 31.7627L41.1377 31.9502L40.9502 31.7627Z" fill="#96B247"/>
<path d="M41.5215 31.7627L41.334 32.1377L41.5215 31.7627Z" fill="#8D8D5B"/>
<path d="M41.709 31.7627L41.8965 31.9502L41.709 31.7627Z" fill="#0E0E6E"/>
<path d="M34.4717 31.9502L34.6592 32.1377L34.4717 31.9502Z" fill="#53527C"/>
<path d="M35.2402 31.9502L35.4277 32.1377L35.2402 31.9502Z" fill="#42BB92"/>
<path d="M40.7529 31.9502L40.9404 32.1377L40.7529 31.9502Z" fill="#96B247"/>
<path d="M41.5215 31.9502L41.709 32.1377L41.5215 31.9502Z" fill="#0E0E6E"/>
<path d="M34.6689 32.1377L34.8564 32.3252L34.6689 32.1377Z" fill="#6E6C70"/>
<path d="M35.4277 32.1377L35.6152 32.3252L35.4277 32.1377Z" fill="#42BB92"/>
<path d="M40.5654 32.1377L40.7529 32.3252L40.5654 32.1377Z" fill="#96B247"/>
<path d="M41.1377 32.1377L40.7627 32.7002L41.1377 32.1377Z" fill="#A4A43D"/>
<path d="M41.334 32.1377L41.5215 32.3252L41.334 32.1377Z" fill="#262678"/>
<path d="M34.8564 32.334L35.0439 32.5215L34.8564 32.334Z" fill="#6E6C70"/>
<path d="M35.6152 32.334L35.8027 32.5215L35.6152 32.334Z" fill="#42BB92"/>
<path d="M40.3779 32.334L40.5654 32.5215L40.3779 32.334Z" fill="#96B247"/>
<path d="M41.1377 32.334L41.3252 32.5215L41.1377 32.334Z" fill="#262678"/>
<path d="M35.0527 32.5215L35.2402 32.709L35.0527 32.5215Z" fill="#6E6C70"/>
<path d="M35.8027 32.5215L35.9902 32.709L35.8027 32.5215Z" fill="#68B070"/>
<path d="M39.9941 32.5215L40.1816 32.709L39.9941 32.5215Z" fill="#27C2AA"/>
<path d="M40.1816 32.5215L40.3691 32.709L40.1816 32.5215Z" fill="#ADB333"/>
<path d="M40.9502 32.5215L41.1377 32.709L40.9502 32.5215Z" fill="#262678"/>
<path d="M35.2402 32.709L35.4277 32.8965L35.2402 32.709Z" fill="#666677"/>
<path d="M35.9902 32.709L36.1777 32.8965L35.9902 32.709Z" fill="#74B166"/>
<path d="M39.8066 32.709L39.9941 32.8965L39.8066 32.709Z" fill="#34BE9E"/>
<path d="M39.9941 32.709L40.1816 32.8965L39.9941 32.709Z" fill="#ADB333"/>
<path d="M40.5654 32.709L40.3779 33.084L40.5654 32.709Z" fill="#8D8D5B"/>
<path d="M40.7529 32.709L40.9404 32.8965L40.7529 32.709Z" fill="#262678"/>
<path d="M35.4277 32.8965L35.6152 33.084L35.4277 32.8965Z" fill="#49497D"/>
<path d="M36.1875 32.8965L36.375 33.084L36.1875 32.8965Z" fill="#96B247"/>
<path d="M36.375 32.8965L36.5625 33.084L36.375 32.8965Z" fill="#0DC9C1"/>
<path d="M39.6094 32.8965L39.7969 33.084L39.6094 32.8965Z" fill="#42BB92"/>
<path d="M40.5654 32.8965L40.7529 33.084L40.5654 32.8965Z" fill="#0E0E6E"/>
<path d="M35.6152 33.0938L35.8027 33.2812L35.6152 33.0938Z" fill="#49497D"/>
<path d="M36.375 33.0938L36.5625 33.2812L36.375 33.0938Z" fill="#A2B23D"/>
<path d="M36.5625 33.0938L36.75 33.2812L36.5625 33.0938Z" fill="#27C2AA"/>
<path d="M39.4219 33.0938L39.6094 33.2812L39.4219 33.0938Z" fill="#74B166"/>
<path d="M39.9941 33.0938L39.4316 33.8438L39.9941 33.0938Z" fill="#A4A43D"/>
<path d="M40.1816 33.0938L40.3691 33.2812L40.1816 33.0938Z" fill="#808067"/>
<path d="M40.3779 33.0938L40.5654 33.2812L40.3779 33.0938Z" fill="#0E0E6E"/>
<path d="M35.8027 33.2812L35.9902 33.4688L35.8027 33.2812Z" fill="#262678"/>
<path d="M36.5625 33.2812L36.75 33.4688L36.5625 33.2812Z" fill="#ADB333"/>
<path d="M36.75 33.2812L36.9375 33.4688L36.75 33.2812Z" fill="#42BB92"/>
<path d="M39.0469 33.2812L39.2344 33.4688L39.0469 33.2812Z" fill="#0DC9C1"/>
<path d="M39.2344 33.2812L39.4219 33.4688L39.2344 33.2812Z" fill="#96B247"/>
<path d="M39.9941 33.2812L40.1816 33.4688L39.9941 33.2812Z" fill="#6E6C70"/>
<path d="M35.9902 33.4688L36.1777 33.6562L35.9902 33.4688Z" fill="#1B1B74"/>
<path d="M36.1875 33.4688L36.375 33.6562L36.1875 33.4688Z" fill="#8D8D5B"/>
<path d="M36.9375 33.4688L37.125 33.6562L36.9375 33.4688Z" fill="#74B166"/>
<path d="M37.1436 33.4688L37.3311 33.6562L37.1436 33.4688Z" fill="#0DC9C1"/>
<path d="M38.8496 33.4688L39.0371 33.6562L38.8496 33.4688Z" fill="#34BE9E"/>
<path d="M39.0469 33.4688L39.2344 33.6562L39.0469 33.4688Z" fill="#ADB333"/>
<path d="M39.8066 33.4688L39.9941 33.6562L39.8066 33.4688Z" fill="#49497D"/>
<path d="M36.1875 33.6562L36.375 33.8438L36.1875 33.6562Z" fill="#0E0E6E"/>
<path d="M36.375 33.6562L36.5625 33.8438L36.375 33.6562Z" fill="#6E6C70"/>
<path d="M36.5625 33.6562L36.9375 34.0312L36.5625 33.6562Z" fill="#A4A43D"/>
<path d="M37.1436 33.6562L37.3311 33.8438L37.1436 33.6562Z" fill="#96B247"/>
<path d="M37.3311 33.6562L37.5186 33.8438L37.3311 33.6562Z" fill="#27C2AA"/>
<path d="M38.6621 33.6562L38.8496 33.8438L38.6621 33.6562Z" fill="#68B070"/>
<path d="M39.6094 33.6562L39.7969 33.8438L39.6094 33.6562Z" fill="#32327B"/>
<path d="M36.5625 33.8438L36.75 34.0312L36.5625 33.8438Z" fill="#49497D"/>
<path d="M37.5186 33.8438L37.7061 34.0312L37.5186 33.8438Z" fill="#5BB47C"/>
<path d="M38.2783 33.8438L38.4658 34.0312L38.2783 33.8438Z" fill="#27C2AA"/>
<path d="M38.4746 33.8438L38.6621 34.0312L38.4746 33.8438Z" fill="#96B247"/>
<path d="M39.0469 33.8438L38.8594 34.2188L39.0469 33.8438Z" fill="#A4A43D"/>
<path d="M39.2344 33.8438L39.4219 34.0312L39.2344 33.8438Z" fill="#808067"/>
<path d="M39.4219 33.8438L39.6094 34.0312L39.4219 33.8438Z" fill="#0E0E6E"/>
<path d="M36.75 34.0312L36.9375 34.2188L36.75 34.0312Z" fill="#262678"/>
<path d="M36.9375 34.0312L37.125 34.2188L36.9375 34.0312Z" fill="#8D8D5B"/>
<path d="M37.7158 34.0312L37.9033 34.2188L37.7158 34.0312Z" fill="#8BB252"/>
<path d="M37.9033 34.0312L38.0908 34.2188L37.9033 34.0312Z" fill="#1AC5B5"/>
<path d="M38.0908 34.0312L38.2783 34.2188L38.0908 34.0312Z" fill="#5BB47C"/>
<path d="M39.0469 34.0312L39.2344 34.2188L39.0469 34.0312Z" fill="#58587B"/>
<path d="M36.9375 34.2373L37.125 34.4248L36.9375 34.2373Z" fill="#0E0E6E"/>
<path d="M37.1436 34.2373L37.3311 34.4248L37.1436 34.2373Z" fill="#666677"/>
<path d="M37.3311 34.2373L37.5186 34.4248L37.3311 34.2373Z" fill="#A4A43D"/>
<path d="M38.6621 34.2373L38.8496 34.4248L38.6621 34.2373Z" fill="#99994E"/>
<path d="M38.8498 34.2373L39.0373 34.4248L38.8498 34.2373ZM37.3311 34.4248L37.5186 34.6123L37.3311 34.4248Z" fill="#32327B"/>
<path d="M37.5186 34.4248L37.7061 34.6123L37.5186 34.4248Z" fill="#99994E"/>
<path d="M38.2783 34.4248L38.4658 34.6123L38.2783 34.4248Z" fill="#A4A43D"/>
<path d="M38.4746 34.4248L38.6621 34.6123L38.4746 34.4248Z" fill="#666677"/>
<path d="M38.6623 34.4248L38.8498 34.6123L38.6623 34.4248ZM37.5186 34.6123L37.7061 34.7998L37.5186 34.6123Z" fill="#0E0E6E"/>
<path d="M37.7158 34.6123L37.9033 34.7998L37.7158 34.6123Z" fill="#666677"/>
<path d="M37.9033 34.6123L38.0908 34.7998L37.9033 34.6123Z" fill="#A4A43D"/>
<path d="M38.0908 34.6123L38.2783 34.7998L38.0908 34.6123Z" fill="#99994E"/>
<path d="M38.2783 34.6123L38.4658 34.7998L38.2783 34.6123Z" fill="#32327B"/>
<path d="M37.9033 34.7998L38.0908 34.9873L37.9033 34.7998Z" fill="#262678"/>
<path d="M38.0908 34.7998L38.2783 34.9873L38.0908 34.7998Z" fill="#0E0E6E"/>
<path d="M38.2776 22.0501C38.5776 22.7438 39.5151 23.5032 39.7776 23.8782C39.4495 24.2532 39.3839 24.2157 39.4214 24.9095C39.9839 24.3095 40.0026 24.2532 40.3776 24.3376C41.1839 25.1438 40.5183 26.8688 39.8526 27.2438C39.187 27.647 39.3089 27.2345 38.3058 27.7313C38.7651 28.1251 39.2995 27.6751 39.7308 27.797C39.9651 28.0782 39.6183 28.5845 39.7964 29.072C40.1714 29.0345 40.1339 28.2563 40.2276 27.9751C40.5089 26.9438 42.1964 26.2313 42.2808 25.2845C42.637 25.1251 42.9839 25.2376 43.4058 25.472C43.1995 24.5907 42.4964 24.6001 42.2995 24.3282C41.8495 23.6345 41.4464 22.847 40.4808 22.6407C39.7308 22.4813 39.7964 22.6876 39.3276 22.3595C39.0276 22.1345 38.137 21.7032 38.2776 22.0501Z" fill="#FF9900"/>
<path fill-rule="evenodd" clip-rule="evenodd" d="M40.3973 22.8373C40.3973 22.8783 40.381 22.9177 40.352 22.9467C40.3229 22.9757 40.2836 22.992 40.2426 22.992C40.2016 22.992 40.1622 22.9757 40.1332 22.9467C40.1042 22.9177 40.0879 22.8783 40.0879 22.8373C40.0879 22.7963 40.1042 22.7569 40.1332 22.7279C40.1622 22.6989 40.2016 22.6826 40.2426 22.6826C40.2836 22.6826 40.3229 22.6989 40.352 22.7279C40.381 22.7569 40.3973 22.7963 40.3973 22.8373Z" fill="white"/>
<path d="M35.925 24.984C36.3937 24.4027 36.6375 23.2027 36.8437 22.809C37.3312 22.9215 37.3125 22.9965 37.9219 22.6402C37.125 22.4152 37.0594 22.434 36.9656 22.0684C37.3031 20.9715 39.1406 20.7559 39.7781 21.1684C40.4531 21.5715 40.0312 21.6559 40.9406 22.2934C41.0719 21.7121 40.425 21.4496 40.3312 21.0184C40.4719 20.6715 41.0812 20.7371 41.4187 20.3621C41.2125 20.034 40.5469 20.4371 40.2562 20.4934C39.225 20.7277 37.7906 19.5746 36.9187 19.9309C36.6094 19.6965 36.5437 19.3309 36.5437 18.834C35.8781 19.4434 36.2156 20.0527 36.0562 20.3621C35.6625 21.084 35.1469 21.8152 35.4187 22.7621C35.625 23.4934 35.775 23.3434 35.7187 23.9152C35.6531 24.2809 35.6812 25.2746 35.925 24.984Z" fill="#FF9900"/>
<path fill-rule="evenodd" clip-rule="evenodd" d="M35.6247 22.7441C35.709 22.7066 35.8028 22.7347 35.8403 22.8097C35.8533 22.8361 35.8582 22.8657 35.8545 22.8949C35.8507 22.924 35.8385 22.9515 35.8193 22.9738C35.8001 22.996 35.7748 23.0122 35.7465 23.0202C35.7182 23.0282 35.6882 23.0277 35.6602 23.0188C35.6322 23.0099 35.6074 22.9929 35.5889 22.97C35.5705 22.9472 35.5591 22.9194 35.5563 22.8901C35.5536 22.8608 35.5594 22.8314 35.5732 22.8054C35.5871 22.7794 35.6082 22.7581 35.634 22.7441H35.6247Z" fill="white"/>
<path d="M39.7785 25.3873C39.0285 25.2936 37.8941 25.6967 37.4347 25.7342C37.2941 25.2561 37.3597 25.2186 36.741 24.8904C36.9566 25.6967 37.0035 25.7342 36.741 26.0154C35.6347 26.2873 34.491 24.8248 34.5097 24.0654C34.5097 23.2873 34.8097 23.5967 34.8847 22.4717C34.3222 22.6592 34.4347 23.3623 34.1066 23.6717C33.7316 23.7279 33.4878 23.1748 32.9816 23.0811C32.8128 23.4279 33.4972 23.7842 33.6941 24.0092C34.4347 24.7779 34.1816 26.5873 34.941 27.1498C34.9035 27.5436 34.6222 27.7873 34.191 28.0311C35.0628 28.3029 35.4097 27.6842 35.7566 27.6561C36.5816 27.6373 37.4722 27.6936 38.1472 26.9717C38.6535 26.4092 38.4566 26.3623 38.9722 26.1279C39.3191 25.9967 40.1535 25.4529 39.7785 25.3779V25.3873Z" fill="#FF9900"/>
<path fill-rule="evenodd" clip-rule="evenodd" d="M38.0153 26.8034C37.998 26.7929 37.983 26.7791 37.9711 26.7629C37.9592 26.7466 37.9506 26.7282 37.9458 26.7086C37.941 26.689 37.9401 26.6686 37.9432 26.6487C37.9463 26.6288 37.9532 26.6097 37.9637 26.5924C37.9742 26.5752 37.9879 26.5602 38.0042 26.5483C38.0205 26.5363 38.0389 26.5277 38.0585 26.5229C38.0781 26.5182 38.0984 26.5173 38.1183 26.5203C38.1383 26.5234 38.1574 26.5304 38.1746 26.5409C38.2095 26.562 38.2344 26.5961 38.2441 26.6356C38.2538 26.6752 38.2473 26.717 38.2262 26.7518C38.2051 26.7866 38.171 26.8116 38.1314 26.8213C38.0919 26.8309 38.0501 26.8245 38.0153 26.8034Z" fill="white"/>
<path d="M-7.5 0H22.5V22.5H-7.5V0Z" fill="#012169"/>
<path d="M-3.98438 0L7.45312 8.48438L18.8438 0H22.5V2.90625L11.25 11.2969L22.5 19.6406V22.5H18.75L7.5 14.1094L-3.70312 22.5H-7.5V19.6875L3.70312 11.3438L-7.5 3V0H-3.98438Z" fill="white"/>
<path d="M12.375 13.1719L22.5 20.625V22.5L9.79688 13.1719H12.375ZM3.75 14.1094L4.03125 15.75L-4.96875 22.5H-7.5L3.75 14.1094ZM22.5 0V0.140625L10.8281 8.95312L10.9219 6.89062L20.1562 0H22.5ZM-7.5 0L3.70312 8.25H0.890625L-7.5 1.96875V0Z" fill="#C8102E"/>
<path d="M3.79688 0V22.5H11.2969V0H3.79688ZM-7.5 7.5V15H22.5V7.5H-7.5Z" fill="white"/>
<path d="M-7.5 9.04688V13.5469H22.5V9.04688H-7.5ZM5.29688 0V22.5H9.79688V0H5.29688Z" fill="#C8102E"/>
</g>
<defs>
<clipPath id="clip0_200_83457">
<rect width="60" height="45" fill="white" transform="translate(-7.5)"/>
</clipPath>
</defs>
</svg>
