<svg width="45" height="45" viewBox="0 0 45 45" fill="none" xmlns="http://www.w3.org/2000/svg">
<g clip-path="url(#clip0_200_79767)">
<path d="M-7.5 0H52.5V45H-7.5V0Z" fill="#E41E20"/>
<path d="M18.0002 8.74707C17.5689 8.74707 16.8471 8.8877 16.8564 9.21582C15.6377 9.01895 15.5158 9.51582 15.5908 9.96582C15.7033 9.7877 15.8439 9.68457 15.9564 9.67519C16.1158 9.64707 16.2846 9.70332 16.4627 9.80644C16.6307 9.91184 16.7823 10.0413 16.9127 10.1908C16.4814 10.2939 16.1439 10.2283 15.8064 10.1721C15.6157 10.1314 15.4344 10.0551 15.2721 9.94707C15.1314 9.85332 15.0846 9.75957 14.8689 9.54395C14.6158 9.28145 14.3439 9.35644 14.4283 9.75957C14.6252 10.1346 14.9533 10.3033 15.3658 10.3783C15.5627 10.4064 15.8627 10.4721 16.2002 10.4721C16.5377 10.4721 16.9127 10.4252 17.1189 10.4721C16.9971 10.5471 16.8564 10.6877 16.5752 10.7346C16.2939 10.7908 15.8721 10.5658 15.6096 10.5096C15.6377 10.7252 15.9189 10.9314 16.4627 11.0439C17.3627 11.2314 18.1033 11.3814 18.6002 11.6533C18.9931 11.8724 19.3401 12.1653 19.6221 12.5158C20.0627 13.0314 20.0908 13.4346 20.1096 13.5283C20.2033 14.3533 19.9127 14.8221 19.3689 14.9721C19.1064 15.0377 18.6189 14.9064 18.4502 14.7002C18.2627 14.4939 18.1033 14.1377 18.1502 13.5752C18.1971 13.3689 18.4408 12.7971 18.2346 12.6846C17.257 12.1474 16.2455 11.6745 15.2064 11.2689C14.9721 11.1752 14.7846 11.4939 14.7096 11.6252C14.0173 11.5287 13.3553 11.2792 12.7715 10.8949C12.1877 10.5106 11.6968 10.001 11.3346 9.40332C10.9408 8.69082 10.2752 9.40332 10.3877 10.0877C10.5658 10.8377 11.1377 11.3814 11.8314 11.7752C12.5346 12.1596 13.4252 12.5439 14.3158 12.5252C14.8033 12.6189 14.7939 13.2377 14.2221 13.3596C13.0877 13.3596 12.1783 13.3408 11.3252 12.5158C10.6783 11.9252 10.3221 12.6283 10.5002 13.0221C10.8189 14.2502 12.5721 14.5971 14.3439 14.2033C15.0377 14.0908 14.6252 14.8221 14.4377 14.8314C13.6877 15.3658 12.3658 15.8814 11.1939 14.8314C10.6596 14.4189 10.2939 14.7564 10.5002 15.3471C11.0158 16.8939 13.0033 16.5658 14.3627 15.8158C14.7096 15.6189 15.0283 16.0689 14.6064 16.4158C12.9096 17.5971 12.0658 17.6158 11.2971 17.1658C10.3408 16.7814 10.2658 17.8408 10.8283 18.1971C11.4564 18.5721 13.0596 18.2908 14.2408 17.5408C14.7471 17.1658 14.7658 17.7564 14.4471 17.9908C13.0502 19.2002 12.4971 19.5189 11.0439 19.3221C10.3221 19.2658 10.3314 20.1564 10.8939 20.5033C11.6721 20.9814 13.1908 20.1939 14.3627 19.2096C14.8596 18.9471 14.9439 19.3783 14.7002 19.8939C14.1812 20.6283 13.4757 21.2108 12.6564 21.5814C12.0002 21.8346 11.3814 21.7971 10.9408 21.6471C10.3971 21.4596 10.3314 22.0221 10.6314 22.5283C10.8096 22.8377 11.5502 22.9314 12.3564 22.6502C13.1627 22.3689 14.0252 21.6939 14.6158 20.9158C15.1314 20.4564 15.0752 21.0658 14.8314 21.4971C13.6502 23.3721 12.5627 24.0658 11.1283 23.9533C10.5002 23.8408 10.3502 24.3283 10.7533 24.7971C11.4658 25.3783 12.3471 25.3596 13.1346 24.7783C13.8189 24.1221 15.1408 22.6783 15.8346 21.9096C16.3221 21.5252 16.4814 21.9096 16.3314 22.6971C16.2002 23.1471 15.8814 23.6346 14.9908 23.9721C14.3814 24.3189 14.8408 24.7971 15.2908 24.8158C15.5439 24.8158 16.0502 24.5158 16.4439 24.0846C16.9502 23.5033 16.9877 23.1189 17.2689 22.2189C17.5314 21.7877 18.0096 21.9939 18.0096 22.4439C17.7752 23.3439 17.5877 23.5033 17.1189 23.8689C16.6783 24.2908 17.4283 24.4314 17.6814 24.2533C18.4127 23.7658 18.6752 23.1283 18.9189 22.5471C19.1064 22.1346 19.6127 22.3314 19.3689 23.0158C18.8064 24.6471 17.8689 25.2846 16.2471 25.6221C16.0877 25.6502 15.9846 25.7439 16.0408 25.9314L16.6971 26.5877C15.6939 26.8877 14.8783 27.0564 13.8658 27.3377L12.4783 26.4189C12.3564 26.1189 12.2908 25.6502 11.5596 25.9783C11.0721 25.7533 10.8377 25.8377 10.5658 26.0721C10.9596 26.0721 11.1283 26.1846 11.2877 26.3627C11.4939 26.8971 11.9627 26.9533 12.4408 26.8033C12.7502 27.0564 12.9096 27.2627 13.2283 27.5252L11.6627 27.4783C11.1002 26.8877 10.6689 26.9158 10.2752 27.3846C9.96582 27.4314 9.84395 27.4314 9.6377 27.7971C9.95645 27.6658 10.1627 27.6283 10.3033 27.7689C10.8939 28.1158 11.2783 28.0408 11.5689 27.7689L13.2096 27.8721C13.0033 28.0596 12.7221 28.1533 12.5064 28.3221C11.6627 28.0783 11.2127 28.4158 11.0627 29.1002C10.9442 29.3745 10.9052 29.6766 10.9502 29.9721C11.0252 29.6908 11.1658 29.4564 11.4096 29.3158C12.1596 29.5033 12.4408 29.1939 12.4877 28.7439C12.8627 28.4439 13.4064 28.3783 13.7721 28.0783C14.2033 28.2096 14.4096 28.2939 14.8408 28.4346C14.9908 28.9033 15.3377 29.0814 15.9002 28.9596C16.5564 28.9783 16.4439 29.2596 16.5002 29.4752C16.6877 29.1658 16.6783 28.8564 16.2658 28.5752C16.1158 28.1721 15.7783 27.9846 15.3471 28.2189C14.9346 28.1064 14.8314 27.9377 14.4189 27.8158C15.4502 27.4877 16.1814 27.4127 17.2127 27.0846L17.9346 27.7221C18.0752 27.8064 18.2064 27.8252 18.2908 27.7221C18.9377 26.7846 19.2283 25.9689 19.8189 25.3502C20.0533 25.0877 20.3439 24.7502 20.6627 24.6658C20.8221 24.6189 21.0189 24.6471 21.1502 24.7877C21.2721 24.9189 21.3752 25.1721 21.3377 25.5564C21.2721 26.0908 21.1408 26.2689 20.9908 26.5877C20.8314 26.9158 20.6533 27.1127 20.4564 27.3658C20.0814 27.8627 19.5752 28.1533 19.2752 28.3502C18.6752 28.7346 18.4314 28.5658 17.9627 28.5377C17.3627 28.6033 17.2127 28.8939 17.7002 29.2971C18.1502 29.5408 18.5627 29.5689 18.9002 29.5033C19.1814 29.4471 19.5189 29.0814 19.7627 28.8846C20.0252 28.5752 20.4752 28.9408 20.1658 29.3064C19.6127 29.9627 19.0689 30.3939 18.3846 30.3846C17.6627 30.4783 17.8033 30.8814 18.2721 31.0783C19.1346 31.4252 19.9033 30.7689 20.2971 30.3283C20.5971 30.0002 20.8127 29.9908 20.7658 30.5064C20.4564 31.4346 20.0533 31.7908 19.3783 31.8377C18.8346 31.7814 18.8252 32.2127 19.2283 32.4939C20.1283 33.1127 20.7846 32.0439 21.0939 31.4064C21.3096 30.8252 21.6471 31.0971 21.6846 31.5752C21.6846 32.2221 21.4033 32.7377 20.6252 33.3939C21.2158 34.3408 21.9096 35.3064 22.5002 36.2533L24.3002 16.1908L22.5002 13.0314C22.3127 12.8627 21.6752 12.1127 21.5158 12.0002C21.4502 11.9439 21.4221 11.9064 21.5064 11.8689C21.5908 11.8314 21.7877 11.7939 21.9283 11.7752C21.5533 11.3908 21.2158 11.2689 20.4939 11.0627C20.6721 10.9877 20.8408 11.0252 21.3658 11.0064C21.0437 10.5736 20.6046 10.2418 20.1002 10.0502C20.4939 9.76894 20.5689 9.7502 20.9627 9.42207C20.3416 9.37409 19.7282 9.25455 19.1346 9.06582C18.7801 8.89735 18.3998 8.7896 18.0096 8.74707H18.0002ZM18.0752 9.53457C18.4314 9.53457 18.6471 9.65644 18.6471 9.80644C18.6471 9.95644 18.4314 10.0783 18.0752 10.0783C17.7189 10.0783 17.4939 9.9377 17.4939 9.79707C17.4939 9.64707 17.7189 9.53457 18.0752 9.53457Z" fill="black"/>
</g>
<defs>
<clipPath id="clip0_200_79767">
<rect width="60" height="45" fill="white" transform="translate(-7.5)"/>
</clipPath>
</defs>
</svg>
