<svg width="45" height="45" viewBox="0 0 45 45" fill="none" xmlns="http://www.w3.org/2000/svg">
<g clip-path="url(#clip0_200_83221)">
<path fill-rule="evenodd" clip-rule="evenodd" d="M-7.5 0H52.5V22.8375H-7.5V0Z" fill="#FF0000"/>
<path fill-rule="evenodd" clip-rule="evenodd" d="M-7.5 22.1621H52.5V44.9996H-7.5V22.1621Z" fill="black"/>
<path fill-rule="evenodd" clip-rule="evenodd" d="M13.941 13.8941C29.4285 17.9535 19.4723 37.8566 7.25664 29.5691L6.43164 30.8441C13.6223 35.9629 20.7379 31.8379 22.7441 26.4941C24.8254 20.9816 22.0316 13.2285 14.0629 12.4316L13.941 13.8941Z" fill="#FFEC00"/>
<path fill-rule="evenodd" clip-rule="evenodd" d="M8.4377 31.0125L10.4721 31.9594L9.51582 34.0031L7.48145 33.0469L8.4377 31.0125ZM22.4064 21.6844H24.6564V23.9344H22.4064V21.6844ZM21.3096 18.0375L23.4002 17.2313L24.2158 19.3219L22.1252 20.1375L21.3096 18.0375ZM18.8721 15.3094L20.4752 13.725L22.0596 15.3187L20.4658 16.9031L18.8721 15.3094ZM16.4158 11.5781L18.5158 12.3656L17.7189 14.4656L15.6189 13.6781L16.4158 11.5781ZM22.1252 25.3125L24.2158 26.1469L23.3721 28.2281L21.2908 27.3938L22.1252 25.3125ZM15.5721 31.875L17.6346 31.0031L18.5252 33.0656L16.4627 33.9469L15.5721 31.875ZM11.8689 32.1375H14.1189V34.3875H11.8689V32.1375ZM15.7408 21.2625L13.8377 19.8563L11.9346 21.225L12.6846 19.0687L10.7814 17.6625H13.0783L13.8752 15.5438L14.6064 17.6719L16.9221 17.6437L15.0846 19.0781L15.7408 21.2719V21.2625Z" fill="#FFEC00"/>
<path fill-rule="evenodd" clip-rule="evenodd" d="M24.0002 32.4746C23.8877 32.5121 23.4189 33.6371 23.0908 34.1809L23.4377 34.2746C24.7127 34.7246 25.3502 35.1371 25.8939 35.9152C26.0197 36.0377 26.1849 36.1116 26.36 36.1236C26.5352 36.1356 26.7089 36.085 26.8502 35.9809C26.8502 35.9809 27.1127 35.8871 27.4502 35.5121C27.7314 35.0902 27.6564 34.7621 27.3189 34.4715C26.2877 33.7215 25.1721 33.159 24.0002 32.4746Z" fill="#FFEE00"/>
<path fill-rule="evenodd" clip-rule="evenodd" d="M26.7467 34.9504C26.7467 35.0585 26.7037 35.1623 26.6272 35.2388C26.5508 35.3152 26.447 35.3582 26.3389 35.3582C26.2307 35.3582 26.127 35.3152 26.0505 35.2388C25.974 35.1623 25.9311 35.0585 25.9311 34.9504C25.9311 34.8435 25.9735 34.7409 26.0491 34.6653C26.1247 34.5897 26.2273 34.5473 26.3342 34.5473C26.4411 34.5473 26.5436 34.5897 26.6192 34.6653C26.6948 34.7409 26.7373 34.8435 26.7373 34.9504H26.7467ZM24.7404 33.6754C24.7404 33.7835 24.6975 33.8873 24.621 33.9638C24.5445 34.0402 24.4408 34.0832 24.3326 34.0832C24.2245 34.0832 24.1207 34.0402 24.0442 33.9638C23.9678 33.8873 23.9248 33.7835 23.9248 33.6754C23.9248 33.5672 23.9678 33.4635 24.0442 33.387C24.1207 33.3105 24.2245 33.2676 24.3326 33.2676C24.4408 33.2676 24.5445 33.3105 24.621 33.387C24.6975 33.4635 24.7404 33.5672 24.7404 33.6754ZM25.7623 34.3316C25.7623 34.4398 25.7193 34.5435 25.6429 34.62C25.5664 34.6965 25.4627 34.7395 25.3545 34.7395C25.2463 34.7395 25.1426 34.6965 25.0661 34.62C24.9896 34.5435 24.9467 34.4398 24.9467 34.3316C24.9467 34.2235 24.9896 34.1198 25.0661 34.0433C25.1426 33.9668 25.2463 33.9238 25.3545 33.9238C25.4627 33.9238 25.5664 33.9668 25.6429 34.0433C25.7193 34.1198 25.7623 34.2235 25.7623 34.3316Z" fill="black"/>
<path fill-rule="evenodd" clip-rule="evenodd" d="M22.9217 34.0965C18.928 31.8184 14.7374 29.3621 10.7342 27.084C8.9811 25.9871 8.89673 23.9527 10.078 22.4059C10.1905 22.1902 10.3405 22.2371 10.3967 22.359C10.5374 23.109 10.9592 23.8871 11.4655 24.3746C15.6206 26.9883 19.7367 29.6636 23.8124 32.3996C23.4936 32.9434 23.2499 33.5527 22.9217 34.0871V34.0965Z" fill="#FFEE00"/>
<path fill-rule="evenodd" clip-rule="evenodd" d="M20.3623 28.6406L22.0311 30.1406L20.5311 31.8094L18.8623 30.3094L20.3623 28.6406Z" fill="#FFEC00"/>
<path fill-rule="evenodd" clip-rule="evenodd" d="M11.9325 25.502L23.6513 32.5801L23.5059 32.8208L11.7871 25.7427L11.9325 25.502ZM18.2645 28.3918L22.2113 30.9512L22.0583 31.1872L18.1114 28.6278L18.2645 28.3918ZM15.9427 30.0662L19.9646 32.3912L19.8238 32.6347L15.8019 30.3097L15.9427 30.0662Z" fill="black"/>
</g>
<defs>
<clipPath id="clip0_200_83221">
<rect width="60" height="45" fill="white" transform="translate(-7.5)"/>
</clipPath>
</defs>
</svg>
