<svg width="45" height="45" viewBox="0 0 45 45" fill="none" xmlns="http://www.w3.org/2000/svg">
<g clip-path="url(#clip0_200_81455)">
<path d="M-7.5 0H52.5V45H-7.5V0Z" fill="#3A7DCE"/>
<path d="M7.28477 21.6374C6.95664 20.9061 6.95664 20.9061 6.95664 20.1749C6.78789 20.1749 6.76914 20.203 6.67539 20.1749C6.57227 20.1467 6.53477 20.8499 6.22539 20.7186C6.17852 20.6436 6.45039 20.1374 6.15977 19.9217C6.06602 19.8561 6.17852 19.4342 6.14102 19.2467C6.14102 19.2467 5.76602 19.4717 5.48477 18.703C5.34414 18.4967 5.15664 18.8905 5.15664 18.8905C5.15664 18.8905 5.24102 19.1155 5.09102 19.1717C4.88477 19.003 4.72539 19.0968 4.46289 18.853C4.20039 18.6186 4.51914 18.3468 4.01289 18.1499C4.34102 17.2311 4.34102 17.4093 5.15664 17.0436C4.66914 16.6686 4.66914 16.6686 4.34102 16.1249C3.85352 15.9374 3.68477 15.7499 3.19727 15.3936C2.54102 14.4655 2.21289 12.628 2.21289 11.3436C2.62539 10.9124 3.19727 12.8155 4.01289 13.3686L5.15664 13.9218C5.81289 14.2874 5.97227 14.653 6.46914 15.0186L7.93164 15.5811C8.58789 16.1249 8.91602 16.8561 9.40352 17.0436C9.93789 17.0436 10.041 16.6967 10.2098 16.678C11.1754 16.6217 11.6629 16.4905 11.8504 16.1624C12.0473 15.8999 12.5066 16.3124 13.8191 15.7593L13.6598 15.0186C13.6598 15.0186 14.0066 14.6999 14.4754 14.8311C14.466 14.503 14.4285 13.6124 14.8973 13.1999C14.616 12.8718 15.066 12.3561 15.0848 12.1968C14.9535 11.3905 15.216 11.3811 15.2723 11.1374C15.3285 10.903 15.0473 10.978 15.1223 10.6499C15.2066 10.3218 15.6848 10.2467 15.741 9.97487C15.8066 9.703 15.6379 8.63425 15.6191 8.39987C16.5004 8.13737 16.7816 7.33113 17.091 7.66863C17.2504 6.56238 17.4191 6.18738 18.4035 6.18738C18.5348 5.84988 18.0379 5.55925 18.2348 5.44675C18.5629 5.39987 18.8066 5.428 19.191 5.98113C19.3129 6.16863 19.341 5.728 19.4629 5.68112C19.5848 5.63425 19.8754 5.63425 19.9223 5.41863C19.9691 5.19363 20.0348 4.89363 20.2035 4.528C20.3348 4.228 20.4379 4.64988 20.5598 5.23113C21.2535 5.25925 22.8098 5.428 23.466 5.63425C23.9535 5.77487 24.2816 5.49363 24.7504 5.428C25.0973 5.82175 25.4254 5.52175 25.6129 6.3655C25.866 6.8155 26.2973 6.403 26.391 6.53425C26.9348 8.23112 28.8098 7.08738 28.9598 7.1155C29.1941 7.1155 29.4848 7.8655 29.6816 7.85613C29.9816 7.79988 29.8973 7.5655 30.1691 7.65925C30.0941 8.29675 30.6941 9.028 30.6941 9.50612C30.6941 9.50612 30.8348 9.5905 30.9754 9.44988C31.1066 9.29988 31.2285 8.94362 31.3504 8.953C31.6316 8.99988 33.4129 9.5155 33.7691 9.69362C33.9285 10.0217 34.0785 10.1905 34.4066 10.1342C34.6691 10.3311 34.4816 10.603 34.6316 10.6124C34.9598 10.4249 35.0723 10.2374 35.4004 10.4155C35.7285 10.603 36.0566 10.9686 36.216 11.3343C36.216 11.5218 36.0473 12.253 36.216 13.3593C36.3004 13.7249 37.1254 16.3874 37.1254 16.6592C37.1254 17.0342 36.8723 17.2218 36.7035 17.5874C37.3598 18.1405 36.7035 19.0592 36.3754 19.6124C38.8316 20.1655 37.6879 21.2624 39.6473 20.7092C39.1598 22.003 39.3285 21.8999 39.816 23.1842C38.841 23.9155 39.7973 24.1405 39.1504 25.0592C39.1035 25.1249 39.5348 25.8655 40.1348 25.8655C39.9754 27.328 39.4785 26.7843 39.6473 28.9874C38.3629 28.9593 38.8785 30.6374 38.016 30.4593C38.0629 31.5093 38.5035 31.603 38.3348 32.6624C37.6785 32.8499 37.6785 32.8499 37.3598 33.403L36.8723 33.2155C36.7035 34.1343 36.3754 34.3218 36.8723 35.2405C36.8723 35.2405 36.2348 35.2593 36.0473 35.2405C36.0379 35.5592 36.3285 35.6436 36.3754 35.9718C36.3566 36.103 35.4473 36.6842 34.7441 36.7124C34.5566 37.1624 35.2316 37.6499 35.1941 37.8749C34.4254 38.0436 34.0879 39.0936 34.0879 39.0936C34.0879 39.0936 34.4816 39.2811 34.416 39.4686C34.2098 39.2999 34.0879 39.2811 33.7598 39.2811C33.6004 39.328 33.1973 39.2811 32.8223 40.003C32.4004 40.153 32.2035 40.0968 31.8848 40.5655C31.7441 40.1249 31.5379 40.5749 31.2941 40.753C31.041 40.9218 30.7129 41.3624 30.666 41.3436C30.6754 41.2124 30.816 40.753 30.816 40.753L29.9066 40.9686C29.841 40.978 29.8598 40.4342 29.7004 40.453C29.541 40.4718 29.1004 41.1374 28.9504 41.1561C28.8004 41.1749 28.7535 40.9499 28.6223 40.9686C28.491 40.9874 28.2473 41.6718 28.1535 41.6905C28.0598 41.6999 27.6848 41.2686 27.3754 41.3343C25.7723 41.9718 25.5098 40.078 25.266 41.1468C24.9285 40.9405 24.9848 41.053 24.6379 41.1561C24.4223 41.2218 24.4035 40.8374 24.2066 40.8374C23.8223 40.8561 23.8316 41.2686 23.6254 41.1468C23.4566 40.2843 22.4066 40.4342 22.3129 40.0686C22.2191 39.6936 22.7629 39.6936 22.9316 39.4311C23.0629 39.0561 22.791 38.9061 23.3348 38.5499C24.0379 38.0155 23.9723 36.6936 23.7941 36.178C23.7941 36.178 23.241 34.5186 23.1379 34.5186C22.8098 34.4249 22.8098 35.128 22.3316 35.3249C21.3473 35.6999 19.6129 34.3968 19.3129 34.3968C19.041 34.3968 17.766 34.7343 17.8129 34.0218C17.6254 34.7155 16.9223 34.1811 16.8754 34.1811C16.2191 34.1811 16.4723 34.753 16.0316 34.7343C15.8348 34.6593 13.8191 34.5186 13.8191 34.5186V34.8936L11.3723 33.7874C10.3879 33.4124 10.8754 32.503 9.24414 33.0561V31.9499H8.42852C8.75664 29.7374 8.42852 30.8436 8.25977 28.8186L7.60352 29.0061C6.94727 28.0124 8.52227 28.1999 7.11602 27.5343C7.11602 27.5343 7.14414 26.4374 6.78789 26.803C6.72227 26.8499 6.95664 27.3468 6.95664 27.3468C5.64414 27.1593 5.32539 26.803 5.32539 25.3311C5.32539 25.3311 6.39414 25.4999 6.30039 25.3311C6.15039 25.0499 5.95352 23.2686 5.98164 23.1374C5.97227 22.8936 6.98477 22.2936 6.78789 21.7124C6.91914 21.6561 7.28477 21.6467 7.28477 21.6467" fill="white"/>
<path fill-rule="evenodd" clip-rule="evenodd" d="M2.0903 12.758C2.09846 12.758 2.1061 12.7581 2.113 12.7581C2.17205 12.7581 2.21992 12.806 2.21992 12.865C2.21992 12.9056 2.19796 12.9313 2.19 12.9396C2.1806 12.9495 2.17137 12.9555 2.16749 12.9579C2.15925 12.963 2.15138 12.9664 2.14858 12.9676L2.14852 12.9676C2.14531 12.969 2.13869 12.9717 2.13355 12.9738C2.13097 12.9749 2.12877 12.9757 2.12755 12.9763C2.11413 12.9818 2.09746 12.9894 2.07927 13.0009C2.0438 13.0232 1.99984 13.0619 1.96953 13.1335C1.9517 13.1756 1.90905 13.2018 1.86343 13.1985C1.81781 13.1952 1.77932 13.1633 1.76767 13.1191C1.74927 13.0492 1.74326 12.9834 1.75923 12.9249C1.77679 12.8606 1.81772 12.8168 1.86805 12.7912C1.91335 12.7683 1.96282 12.7617 2.00164 12.7593C2.03121 12.7575 2.06352 12.7577 2.0903 12.758ZM2.06308 12.7716C2.06381 12.7713 2.06396 12.7712 2.0633 12.7715C2.06323 12.7715 2.06315 12.7716 2.06308 12.7716ZM2.15295 13.3399C2.153 13.3399 2.15305 13.3399 2.13719 13.4457L2.15305 13.3399C2.19186 13.3458 2.22435 13.3724 2.23772 13.4093C2.25108 13.4461 2.24317 13.4874 2.21711 13.5167C2.20401 13.5314 2.1896 13.5393 2.18633 13.5411C2.18622 13.5411 2.18612 13.5412 2.18603 13.5412C2.18095 13.544 2.17618 13.5462 2.17397 13.5472C2.17134 13.5484 2.16952 13.5492 2.16797 13.5499C2.16563 13.5509 2.16388 13.5517 2.16081 13.5532C2.15334 13.5567 2.14369 13.5619 2.13234 13.5705C2.11032 13.5872 2.07485 13.6224 2.04135 13.6978C2.02242 13.7404 1.97807 13.7658 1.93174 13.7606C1.88541 13.7554 1.84779 13.7208 1.83875 13.6751C1.82359 13.5983 1.82824 13.5285 1.85828 13.4697C1.88881 13.41 1.93802 13.3765 1.98292 13.3587C2.02639 13.3415 2.06911 13.3375 2.09807 13.3369C2.11312 13.3366 2.12593 13.3373 2.13529 13.338C2.14 13.3384 2.14393 13.3388 2.14692 13.3391C2.14841 13.3393 2.14968 13.3395 2.15071 13.3396L2.15207 13.3398L2.15261 13.3399L2.15284 13.3399L2.15295 13.3399ZM3.39322 16.2073C3.41562 16.2644 3.41815 16.3311 3.40337 16.4059C3.39434 16.4516 3.35671 16.4863 3.31038 16.4914C3.26406 16.4966 3.2197 16.4712 3.20077 16.4286C3.16492 16.3479 3.13086 16.3034 3.10889 16.2795C3.09784 16.2675 3.08883 16.2596 3.08172 16.2535C3.08137 16.2532 3.08091 16.2528 3.08035 16.2524C3.07737 16.2498 3.07175 16.2451 3.06768 16.2413C3.06521 16.239 3.05898 16.2331 3.05278 16.2248L3.05267 16.2247C3.0487 16.2194 3.03027 16.195 3.03027 16.1584C3.03027 16.1029 3.0727 16.0566 3.12797 16.0519L3.13719 16.1584C3.12797 16.0519 3.12803 16.0518 3.12809 16.0518L3.12822 16.0518L3.12849 16.0518L3.12909 16.0518L3.13054 16.0517C3.13161 16.0516 3.13291 16.0515 3.13441 16.0514C3.1374 16.0513 3.14123 16.0512 3.14577 16.0512C3.15478 16.0511 3.16695 16.0515 3.18115 16.0531C3.20863 16.0562 3.24859 16.0643 3.2884 16.0867C3.33 16.1101 3.37016 16.1486 3.39322 16.2073ZM40.4251 26.9595C40.4416 26.9194 40.4807 26.8932 40.5241 26.8932H40.5321C40.5851 26.8932 40.6301 26.932 40.6379 26.9844C40.6405 27.002 40.6455 27.019 40.6531 27.0423L40.6552 27.0487C40.662 27.0694 40.6711 27.0972 40.6766 27.1268C40.6907 27.2026 40.6808 27.2827 40.6248 27.38C40.6054 27.4137 40.5693 27.4342 40.5304 27.4336C40.4916 27.433 40.4561 27.4113 40.4378 27.377C40.3734 27.2563 40.3655 27.1048 40.4251 26.9595Z" fill="white"/>
</g>
<defs>
<clipPath id="clip0_200_81455">
<rect width="60" height="45" fill="white" transform="translate(-7.5)"/>
</clipPath>
</defs>
</svg>
