<svg width="45" height="45" viewBox="0 0 45 45" fill="none" xmlns="http://www.w3.org/2000/svg">
<g clip-path="url(#clip0_200_83013)">
<path d="M-7.5 0H52.5V45H-7.5V0Z" fill="#74ACDF"/>
<path d="M-7.5 15H52.5V30H-7.5V15Z" fill="white"/>
<path d="M22.2119 22.617L24.7769 28.197C24.7769 28.197 24.8219 28.305 24.8939 28.278C24.9659 28.242 24.9209 28.134 24.9209 28.134L22.7879 22.374M22.7249 24.552C22.6889 25.398 23.2109 25.866 23.1479 26.622C23.0759 27.387 23.4899 27.81 23.5979 28.107C23.6879 28.404 23.4899 28.575 23.5709 28.62C23.6609 28.665 23.8409 28.431 23.7869 28.008C23.7239 27.594 23.4089 27.468 23.4809 26.541C23.5529 25.614 23.1029 25.398 23.2109 24.561" fill="#F6B40E"/>
<path fill-rule="evenodd" clip-rule="evenodd" d="M24.9672 28.1158L22.8344 22.3564L22.7416 22.3908L24.8749 28.1518L24.8752 28.1525L24.8752 28.1526L24.8753 28.1527L24.8753 28.1528C24.8755 28.1533 24.8758 28.154 24.8762 28.1551C24.877 28.1573 24.8781 28.1607 24.8793 28.1648C24.8818 28.1734 24.8843 28.1845 24.8851 28.1957C24.8867 28.2178 24.8817 28.2271 24.8742 28.232C24.8686 28.2332 24.8602 28.2316 24.8461 28.215C24.8388 28.2066 24.8328 28.1971 24.8285 28.1892C24.8264 28.1854 24.8248 28.1822 24.8238 28.1801C24.8234 28.1793 24.8231 28.1786 24.8229 28.1782L24.8228 28.1778L24.8227 28.1776L24.8226 28.1775L24.8223 28.1768L23.2449 24.7452C23.2471 24.689 23.252 24.6298 23.2601 24.567L23.1619 24.5543C23.1615 24.557 23.1612 24.5597 23.1609 24.5624L22.2569 22.596L22.167 22.6373L23.1452 24.7654C23.1373 25.0791 23.2107 25.3044 23.2854 25.5323L23.2865 25.5355C23.3757 25.8075 23.4667 26.0851 23.4316 26.5368C23.3951 27.007 23.4566 27.2778 23.5372 27.4845C23.5631 27.5508 23.5915 27.6118 23.6181 27.6689C23.6318 27.6983 23.6451 27.7266 23.6572 27.7541C23.6935 27.8364 23.7231 27.9173 23.7379 28.0145C23.7638 28.2181 23.733 28.3724 23.6881 28.4681C23.6655 28.5165 23.6405 28.5474 23.62 28.5633C23.6124 28.5692 23.6062 28.5724 23.6018 28.574C23.6019 28.5736 23.602 28.5731 23.6021 28.5726C23.6043 28.5624 23.6083 28.5495 23.6144 28.5321C23.6161 28.5272 23.618 28.5219 23.6199 28.5163C23.6246 28.5032 23.6298 28.4884 23.6349 28.4731C23.6646 28.3828 23.6945 28.2545 23.6453 28.0923L23.645 28.091L23.6445 28.0897C23.6158 28.0108 23.5673 27.9248 23.515 27.8325L23.5111 27.8256C23.4591 27.7338 23.4022 27.6332 23.3506 27.5192C23.2452 27.2865 23.1623 26.9982 23.1973 26.6263L23.1973 26.6257C23.2296 26.2385 23.1127 25.9246 22.9959 25.6109L22.993 25.6031C22.8748 25.2857 22.7569 24.9657 22.7744 24.5537L22.6755 24.5495C22.657 24.9836 22.7822 25.3206 22.9002 25.6377L22.9005 25.6385C23.0189 25.9563 23.129 26.2522 23.0987 26.6173C23.0617 27.0102 23.1498 27.3159 23.2604 27.5601C23.3139 27.6782 23.3727 27.7821 23.4244 27.8733L23.4289 27.8813C23.482 27.9751 23.5256 28.053 23.551 28.1223C23.5913 28.2564 23.5673 28.3617 23.5408 28.4422C23.5361 28.4564 23.5315 28.4694 23.5271 28.4821C23.525 28.488 23.5229 28.4938 23.5209 28.4996C23.5148 28.5171 23.5089 28.5351 23.5053 28.5519C23.5018 28.5682 23.4993 28.5888 23.5047 28.6094C23.5108 28.6329 23.5258 28.6511 23.5469 28.6629L23.5479 28.6634L23.5488 28.6639C23.5957 28.6873 23.6447 28.6694 23.6806 28.6416C23.7174 28.6131 23.7509 28.5675 23.7778 28.5101C23.8319 28.3945 23.864 28.2205 23.8361 28.0014L23.8359 28.0002C23.8192 27.8907 23.7859 27.8007 23.7477 27.7141C23.7339 27.6828 23.7199 27.6528 23.7058 27.6226C23.6801 27.5676 23.6543 27.5122 23.6295 27.4485C23.5548 27.257 23.4948 27.0013 23.5303 26.5445C23.5669 26.0731 23.4709 25.7802 23.3808 25.5054L23.3795 25.5015C23.3268 25.3408 23.2766 25.1866 23.2549 25.004L24.7317 28.2168L24.7322 28.2179C24.7325 28.2184 24.7328 28.2191 24.7331 28.2198C24.7335 28.2206 24.7339 28.2214 24.7343 28.2224C24.736 28.2261 24.7385 28.2311 24.7418 28.237C24.7481 28.2485 24.7578 28.2643 24.7709 28.2795C24.7951 28.3077 24.845 28.3489 24.9114 28.324L24.9138 28.3231L24.9161 28.3219C24.9793 28.2903 24.9866 28.2272 24.9838 28.1886C24.9824 28.1683 24.9781 28.1501 24.9744 28.1373C24.9725 28.1308 24.9707 28.1254 24.9693 28.1216C24.9686 28.1196 24.968 28.118 24.9676 28.1169L24.9672 28.1158Z" fill="#85340A"/>
<path d="M22.8874 24.6953C22.9324 25.5053 23.3914 25.8653 23.3014 26.6123C23.4994 26.0273 23.0224 25.5683 23.0494 24.7043M22.3564 22.5623L24.1114 26.3963L22.6444 22.4453" fill="#85340A"/>
<path d="M22.5002 25.0033C23.8826 25.0033 25.0033 23.8826 25.0033 22.5002C25.0033 21.1178 23.8826 19.9971 22.5002 19.9971C21.1178 19.9971 19.9971 21.1178 19.9971 22.5002C19.9971 23.8826 21.1178 25.0033 22.5002 25.0033Z" fill="#F6B40E"/>
<path fill-rule="evenodd" clip-rule="evenodd" d="M22.5004 20.0629C21.1542 20.0629 20.0629 21.1542 20.0629 22.5004C20.0629 23.8466 21.1542 24.9379 22.5004 24.9379C23.8466 24.9379 24.9379 23.8466 24.9379 22.5004C24.9379 21.1542 23.8466 20.0629 22.5004 20.0629ZM19.9316 22.5004C19.9316 21.0817 21.0817 19.9316 22.5004 19.9316C23.9191 19.9316 25.0691 21.0817 25.0691 22.5004C25.0691 23.9191 23.9191 25.0691 22.5004 25.0691C21.0817 25.0691 19.9316 23.9191 19.9316 22.5004Z" fill="#85340A"/>
<path d="M23.3438 21.9658C23.1844 21.9658 23.0156 22.0408 22.9219 22.1908C23.1094 22.3689 23.5406 22.3783 23.8313 22.1721C23.7698 22.1069 23.6957 22.055 23.6135 22.0195C23.5313 21.984 23.4427 21.9658 23.3531 21.9658H23.3438ZM23.3438 22.0033C23.5125 22.0033 23.6719 22.0783 23.6906 22.1533C23.5031 22.3689 23.1937 22.3408 22.9969 22.1908C23.0906 22.0596 23.2219 22.0033 23.3531 22.0033H23.3438Z" fill="#843511"/>
<path d="M22.1248 22.8467C22.0988 22.8528 22.0745 22.8651 22.0542 22.8824C22.0338 22.8998 22.0178 22.9218 22.0076 22.9465C21.9974 22.9712 21.9932 22.998 21.9954 23.0247C21.9976 23.0514 22.0061 23.0772 22.0202 23.0999C22.0343 23.1226 22.0537 23.1417 22.0766 23.1555C22.0995 23.1693 22.1254 23.1774 22.1521 23.1793C22.1788 23.1811 22.2056 23.1765 22.2302 23.166C22.2547 23.1554 22.2765 23.1392 22.2936 23.1186C22.3554 23.1569 22.4271 23.1765 22.4998 23.1748H22.5186C22.5748 23.1748 22.6686 23.1654 22.7342 23.1186C22.7623 23.1654 22.8186 23.1842 22.8748 23.1842C22.9196 23.1879 22.964 23.1737 22.9982 23.1447C23.0325 23.1157 23.0539 23.0742 23.0576 23.0295C23.0613 22.9847 23.0471 22.9403 23.0181 22.906C22.9891 22.8718 22.9477 22.8504 22.9029 22.8467C22.9498 22.8654 22.9779 22.9029 22.9779 22.9592C22.9779 22.989 22.9661 23.0176 22.945 23.0387C22.9239 23.0598 22.8953 23.0717 22.8654 23.0717C22.8356 23.0717 22.807 23.0598 22.7859 23.0387C22.7648 23.0176 22.7529 22.989 22.7529 22.9592C22.7307 23.0055 22.6963 23.0448 22.6533 23.0729C22.6103 23.101 22.5605 23.1168 22.5092 23.1186C22.4595 23.1151 22.4116 23.0986 22.3704 23.0705C22.3293 23.0425 22.2963 23.0041 22.2748 22.9592C22.2748 23.0248 22.2186 23.0717 22.1529 23.0717C22.0967 23.0717 22.0404 23.0154 22.0404 22.9592C22.0404 22.9029 22.0686 22.8654 22.1154 22.8467H22.1248ZM22.3123 23.3529C22.1154 23.3529 22.0311 23.5404 21.8623 23.6436C21.9561 23.6061 22.0311 23.5311 22.1717 23.4561C22.3029 23.3811 22.4154 23.4748 22.4998 23.4748C22.5748 23.4748 22.6873 23.3811 22.8279 23.4561C22.9592 23.5311 23.0436 23.6061 23.1373 23.6436C22.9592 23.5311 22.8842 23.3623 22.6873 23.3623C22.6498 23.3623 22.5748 23.3811 22.4998 23.4186L22.3123 23.3529Z" fill="#85340A"/>
<path d="M22.2377 23.5878C22.1627 23.5878 22.0689 23.6065 21.9189 23.644C22.2658 23.569 22.3408 23.6909 22.5002 23.6909C22.6502 23.6909 22.7346 23.569 23.0721 23.644C22.6971 23.5315 22.6127 23.6065 22.5002 23.6065C22.4252 23.6065 22.3689 23.5784 22.2377 23.5878Z" fill="#85340A"/>
<path d="M21.9373 23.6434H21.8623C22.2654 23.6903 22.0779 23.9247 22.4998 23.9247C22.9217 23.9247 22.7342 23.6903 23.1373 23.6434C22.7154 23.6059 22.8467 23.8591 22.4998 23.8591C22.1717 23.8591 22.2748 23.6434 21.9373 23.6434Z" fill="#85340A"/>
<path d="M22.8471 24.2717C22.8471 24.1797 22.8105 24.0915 22.7455 24.0264C22.6804 23.9613 22.5922 23.9248 22.5002 23.9248C22.4082 23.9248 22.32 23.9613 22.2549 24.0264C22.1899 24.0915 22.1533 24.1797 22.1533 24.2717C22.1716 24.1934 22.2159 24.1237 22.2788 24.0737C22.3418 24.0238 22.4198 23.9966 22.5002 23.9966C22.5806 23.9966 22.6586 24.0238 22.7215 24.0737C22.7845 24.1237 22.8288 24.1934 22.8471 24.2717Z" fill="#85340A"/>
<path d="M20.9434 21.9653C21.384 21.581 21.9465 21.5153 22.2559 21.806C22.3271 21.8997 22.3753 22.0089 22.3965 22.1247C22.434 22.3497 22.3684 22.5841 22.1996 22.8278L22.2746 22.8653C22.4246 22.5747 22.4809 22.2747 22.4246 21.9841L22.3684 21.7685C21.9465 21.4216 21.3652 21.3935 20.9434 21.956V21.9653Z" fill="#85340A"/>
<path d="M21.6374 21.8438C21.8905 21.8438 21.9468 21.9 22.0593 22.0031C22.1718 22.0969 22.2374 22.0781 22.2468 22.0969C22.2749 22.1156 22.2468 22.1719 22.2186 22.1531C22.1718 22.1344 22.0968 22.0969 21.9843 22.0031C21.8718 21.9094 21.7499 21.9094 21.6374 21.9094C21.2905 21.9094 21.103 22.1906 21.0655 22.1719C21.0186 22.1531 21.253 21.8438 21.6374 21.8438Z" fill="#85340A"/>
<path d="M21.6473 22.3219C21.7405 22.3219 21.816 22.2463 21.816 22.1531C21.816 22.0599 21.7405 21.9844 21.6473 21.9844C21.5541 21.9844 21.4785 22.0599 21.4785 22.1531C21.4785 22.2463 21.5541 22.3219 21.6473 22.3219Z" fill="#85340A"/>
<path d="M21.1777 22.266C21.5059 22.5191 21.834 22.5004 22.0215 22.3879C22.209 22.266 22.209 22.2285 22.1715 22.2285C22.134 22.2285 22.0965 22.266 21.9465 22.3504C21.7871 22.4254 21.5621 22.4254 21.1777 22.266Z" fill="#85340A"/>
</g>
<defs>
<clipPath id="clip0_200_83013">
<rect width="60" height="45" fill="white" transform="translate(-7.5)"/>
</clipPath>
</defs>
</svg>
