<svg width="45" height="45" viewBox="0 0 45 45" fill="none" xmlns="http://www.w3.org/2000/svg">
<g clip-path="url(#clip0_200_80230)">
<path d="M-7.5 0H52.5V45H-7.5V0Z" fill="#000066"/>
<path d="M-7.55664 22.5L52.4434 0V45L-7.55664 22.5Z" fill="#BD1021"/>
<path d="M-1.90332 22.4998L52.4717 2.40918V42.5904" fill="white"/>
<path d="M36.9379 25.3504C37.416 25.3785 37.4066 25.8566 37.4066 25.8566L39.0941 25.8941C39.3098 25.3035 39.5441 25.3691 39.9566 25.6691C40.2077 25.8398 40.4825 25.9725 40.7723 26.0629C40.9316 25.2191 42.1316 25.3879 42.1316 25.3879C42.6566 24.1691 42.6941 24.1785 42.3848 24.0285C42.2011 23.9355 42.0506 23.7882 41.9535 23.6066C41.6723 23.2598 41.5223 22.7535 41.4848 22.4441C41.4473 22.1348 41.091 22.5941 41.016 22.5004C40.9598 22.4066 40.4254 22.4629 40.4254 22.4629C40.5566 22.6035 40.1066 22.5191 40.1066 22.5191C40.1535 22.5566 40.1066 22.6785 40.1066 22.6785C40.0691 22.6223 39.7223 22.566 39.7223 22.566C39.6961 22.6212 39.6613 22.6718 39.6191 22.716C39.4316 22.641 39.0566 22.6504 39.0566 22.6504C38.6979 22.6383 38.3432 22.7294 38.0348 22.9129C37.8848 22.9973 37.341 23.2691 36.8816 23.7098C36.441 24.141 36.1879 24.0848 36.1879 24.0848C36.0566 24.5723 34.9879 25.1629 34.9879 25.1629C34.8191 25.3129 34.2754 25.3879 34.0035 25.1629C33.7316 24.9379 34.0035 24.516 34.0035 24.516C34.116 24.3285 34.2098 24.3379 34.2191 23.6723C34.2285 23.2316 34.6879 22.8754 35.1566 22.3598C35.7473 21.7223 36.5629 20.6723 36.5629 20.6723C36.5629 20.991 36.7316 21.0473 36.7316 21.0473C36.891 20.7191 37.1254 20.4566 37.1254 20.4566C37.1348 20.4848 37.1723 20.4941 37.1723 20.4941C37.3598 20.2504 37.4535 20.1566 37.4535 20.1566C37.4066 20.1285 36.891 20.1566 36.4223 20.5691C35.9535 20.9816 35.6348 20.8504 35.6348 20.8504C35.3066 20.7379 35.2785 20.4754 35.2785 20.4754C35.0441 19.4535 35.9723 18.7223 35.9723 18.7223C34.716 18.4223 35.6254 16.8191 37.191 16.1441C38.7473 15.4691 38.7285 15.1598 38.7285 15.1598C38.7972 15.2455 38.8539 15.3401 38.8973 15.441C38.9066 15.441 39.0285 15.2629 39.9285 14.8691C40.8285 14.466 41.2598 14.1191 41.2598 14.1191C41.3723 14.3441 41.3535 14.4941 41.3535 14.4941C43.8191 13.641 46.2285 11.6629 46.2285 11.6629C46.3035 11.8223 46.2754 12.0754 46.2754 12.0754C46.6691 11.7004 48.1223 10.8379 48.1223 10.8379C48.1328 10.9941 48.0976 11.1499 48.021 11.2864C47.9444 11.4229 47.8298 11.5342 47.691 11.6066C47.7273 11.6741 47.7526 11.7469 47.766 11.8223C48.2231 11.5362 48.6732 11.2393 49.116 10.9316C49.5191 11.2785 49.1535 11.8504 49.1535 11.8504C49.3035 11.8223 49.3973 11.7004 49.3973 11.7004C49.5098 12.3004 48.8441 12.8254 48.8441 12.8254C48.966 12.8254 49.1535 12.7035 49.1535 12.7035C49.0316 13.3598 47.8035 14.0723 47.8035 14.0723C47.9816 14.241 47.8035 14.4473 47.6535 14.541C47.5129 14.6348 47.2504 14.8504 47.3348 14.9348C47.4098 15.0285 47.9629 14.6348 47.9629 14.6348C48.0566 14.9066 47.3535 15.441 47.3535 15.441C47.841 15.5066 49.191 14.8879 49.191 14.8879C49.0879 15.4129 48.5723 15.8254 47.9441 16.0598C47.316 16.2941 47.3441 16.341 47.3441 16.341C47.4566 16.416 48.3285 16.1723 48.3285 16.1723C48.066 16.7535 47.1566 17.1566 47.1566 17.1566C47.4098 17.3723 47.7473 17.1191 48.0941 16.8848C48.5031 16.6275 48.9445 16.4258 49.4066 16.2848C49.9035 16.1066 50.2691 16.2379 50.2691 16.2379C50.7004 16.1066 51.0566 16.2941 51.0566 16.2941C51.8723 16.3598 51.9566 16.6598 51.9566 16.6598C52.0504 16.6785 52.116 16.716 52.3316 16.8754C52.5285 17.0254 52.5191 17.4941 52.5191 17.7379C52.5004 17.9629 52.4348 17.9629 52.3973 18.0191C52.3598 18.0941 52.3504 18.1691 52.3504 18.2535C52.3504 18.3473 52.1441 18.9004 50.8785 18.9004H48.9754C48.8629 18.9004 48.741 18.966 48.741 18.966C48.2066 19.2285 48.4879 18.7785 47.8598 19.3035C47.2223 19.8191 46.9035 19.7348 46.9035 19.7348C46.5494 20.0968 46.1635 20.4262 45.7504 20.7191C45.3754 20.9629 45.441 20.9348 45.7785 21.0754C46.116 21.216 46.6035 21.0754 46.6035 21.0754C46.2848 21.291 46.5098 21.3941 46.5098 21.3941C46.9223 21.141 47.1848 21.2348 47.1848 21.2348C47.316 21.6004 46.8285 22.1723 46.8285 22.1723C47.016 22.2004 47.3723 22.1723 47.3723 22.1723C47.2785 22.4254 46.941 22.6973 46.6785 22.7723C46.4254 22.866 46.4629 22.8941 46.5473 23.0535C46.6129 23.2035 46.5566 23.3629 46.5566 23.3629C46.1066 23.0535 46.0879 23.3254 46.0879 23.3254C46.041 23.7004 46.0504 24.2254 46.0504 24.2254C45.7316 24.066 45.7223 24.2723 45.7223 24.2723C45.6285 24.6098 45.2441 24.9941 45.2441 24.9941C45.2254 24.7879 45.0379 24.7316 45.0379 24.7316C44.8316 25.1254 44.466 25.3598 44.466 25.3598C44.4191 25.6879 44.5129 26.166 44.5129 26.166C44.2691 26.1098 44.1848 26.1098 44.1379 26.166C44.1098 26.2316 44.1941 26.2598 44.1941 26.2598L47.3254 26.3348C47.3723 26.3348 47.5598 26.3629 47.5598 26.691C47.5598 27.0379 47.2785 27.0566 47.2785 27.0566L43.866 26.9723C43.866 26.9723 43.8754 27.066 43.6973 27.1598C43.5191 27.2535 43.5848 27.0566 43.5379 27.4785C43.4816 27.891 42.8066 27.441 42.8066 27.441C42.6941 27.6098 42.4316 27.816 42.4316 27.816C42.2723 27.3473 42.1129 27.216 41.8691 27.6098C41.6254 28.0129 42.3191 27.9473 42.3191 27.9473C42.3191 27.9473 46.3316 27.3566 46.5473 27.3379C46.7629 27.3098 47.0066 27.3285 47.1098 27.6285C47.2035 27.9379 46.6129 27.9848 46.6129 27.9848L42.4879 28.4348C42.4035 28.6785 42.066 28.6598 42.066 28.6598C42.0941 28.8941 41.8504 29.0348 41.7285 29.1285C41.5973 29.2035 41.2035 29.1754 41.2035 29.1754C40.7348 29.4941 40.491 29.241 40.491 29.241C40.1816 29.3723 39.9848 29.316 39.7316 29.2035C39.4691 29.091 39.4973 28.7816 39.4973 28.7816L36.891 29.0629C36.8158 29.0871 36.7458 29.1253 36.6848 29.1754C36.7785 29.2973 36.4973 29.5785 36.4973 29.5785C36.5816 29.6254 36.7316 29.7754 36.7504 30.0941C36.7691 30.441 36.3285 30.4973 36.5441 30.7504C36.7598 30.9848 37.1723 30.7785 37.6223 30.5629C38.0723 30.3473 38.5129 30.3754 38.7004 30.3754C38.8879 30.3754 39.4316 30.5254 39.7691 30.6379C40.1066 30.7504 40.2191 30.6754 40.2379 30.5066C40.2566 30.3473 40.416 30.291 40.416 30.291C40.3691 30.4598 40.4629 30.5348 40.4629 30.5348C40.5849 30.5152 40.7024 30.474 40.8098 30.4129C40.791 30.5441 40.6223 30.6191 40.6223 30.6191C40.3035 30.8348 40.7535 30.7598 40.7535 30.7598C41.6441 30.5723 41.9723 30.591 42.1973 30.6191C42.6538 30.7537 43.1016 30.9165 43.5379 31.1066C43.5754 30.9941 43.5473 30.7316 43.5473 30.7316C43.8285 30.8066 43.941 30.966 43.941 30.966C44.0535 30.8535 43.9785 30.6473 43.9785 30.6473C44.8879 31.1629 43.791 31.3973 43.5004 31.491C43.2191 31.5848 43.2191 31.7066 43.2191 31.7066C43.4535 31.6316 43.6223 31.6035 43.8191 31.5848C44.0254 31.566 43.9504 31.5848 44.4285 31.491C44.916 31.3973 45.1598 31.6035 45.1598 31.6035C44.7566 31.6223 44.6441 31.7441 44.6441 31.7441C44.8879 31.9035 44.6441 32.0629 44.6441 32.0629C44.2879 31.5941 43.9691 32.0723 43.9691 32.0723C44.1763 32.0722 44.381 32.117 44.5691 32.2035L45.0754 32.4566C45.4129 32.6066 45.3473 32.5129 45.6004 32.6066C45.8629 32.7004 45.7598 32.9535 45.7598 32.9535C45.6566 32.7473 45.4129 32.6723 45.4129 32.6723C45.3941 32.9535 45.1223 33.0004 45.1223 33.0004C45.4598 32.6254 44.7379 32.4566 44.391 32.466C44.0535 32.466 43.8004 32.691 43.8004 32.691C44.4848 33.3379 44.9535 33.1223 44.9535 33.1223C44.8691 33.3566 44.3066 33.2629 44.3066 33.2629C44.5691 33.4691 44.541 33.6004 44.541 33.6004C44.4004 33.4691 44.166 33.5348 43.6785 33.2254C43.191 32.8973 42.7504 33.0098 42.7504 33.0098C43.2379 33.5066 42.5816 33.816 42.5816 33.816C42.3379 33.966 42.6754 34.1441 42.6754 34.1441C42.3754 34.2004 42.3379 33.9004 42.3379 33.9004C42.1785 33.8629 41.9441 34.0504 41.9441 34.0504C41.9629 33.7504 42.3754 33.9004 42.3754 33.5816C42.3941 33.2535 42.0004 33.0004 40.8473 33.1598C39.6848 33.3191 39.3473 32.9535 39.3473 32.9535C39.2535 32.9535 39.2348 33.0473 39.2348 33.0473C39.4223 33.2348 39.5066 33.3098 39.4785 33.441C39.441 33.5629 39.5348 33.6098 39.5348 33.6098C39.3191 33.591 39.3098 33.3473 39.3098 33.3473C39.3098 33.4504 39.2629 33.4598 39.1879 33.5629C39.1129 33.666 39.1879 33.816 39.1879 33.816C39.0941 33.741 38.9348 33.6473 39.0941 33.4129C39.2066 33.2441 38.841 33.0191 38.841 33.0191C38.7004 32.8785 38.316 33.0191 38.316 33.0191C38.0956 33.0662 37.8671 33.0592 37.65 32.9988C37.4329 32.9384 37.2336 32.8264 37.0691 32.6723C36.9754 32.6723 36.7973 32.616 36.7973 32.616C35.9629 32.991 35.2316 32.1848 35.2316 32.1848C34.6035 32.3066 34.3129 31.9973 34.1254 31.6973C34.0174 31.4928 33.8465 31.3284 33.6379 31.2285C33.3941 31.0785 33.1504 30.6473 33.3941 30.4129C33.5816 30.216 33.5348 30.1691 33.5348 30.1691C33.2066 29.616 34.1066 29.4473 34.1254 29.3066C34.1535 29.1191 34.341 28.9973 34.5473 28.9879C34.7535 28.9691 34.7535 28.9879 34.8941 28.8566C35.016 28.716 35.2691 28.8848 35.2691 28.8848C35.3348 28.8473 35.7848 28.5004 36.1785 28.6785C36.5816 28.8566 36.9191 28.7348 36.9191 28.7348C37.2004 28.6691 39.5441 28.3598 39.5441 28.3598C39.6848 28.1254 39.7973 27.8535 40.4441 27.7035C41.091 27.5535 41.5691 27.141 41.5691 27.141C41.4566 27.0285 41.2691 27.0285 41.1754 27.0191C41.0723 27.0191 40.8754 26.8316 40.8754 26.8316C40.7535 26.8879 40.6879 26.8598 39.8441 27.3754C39.0848 27.8441 39.066 26.9254 39.066 26.9254H37.4066C37.3785 27.2723 37.1254 27.4129 37.1254 27.4129L36.516 27.441C36.1785 27.2723 36.1785 26.6723 36.1785 26.6723C34.3598 26.7004 33.3566 27.3473 33.3566 27.3473C31.2941 26.2973 29.6816 26.0535 29.6816 26.0535C31.0023 25.9578 32.2964 25.6343 33.5066 25.0973C34.3171 25.5878 35.2333 25.8771 36.1785 25.941C36.2254 25.4348 36.5629 25.3129 36.5629 25.3129L36.9379 25.3504Z" fill="black"/>
<path d="M33.9654 29.4941C33.4497 29.7941 33.5435 29.9628 33.5904 30.0566C33.6372 30.1503 33.6372 30.2441 33.4966 30.3941C33.356 30.5347 33.3654 30.5816 33.3654 30.5816C33.3935 31.0878 33.7404 31.2003 33.8997 31.3316C34.031 31.4253 34.2372 31.7534 34.2372 31.7534C34.5091 32.1378 34.7904 32.1472 34.9966 32.1472C35.2122 32.1472 35.1841 32.1191 35.0904 32.0253L34.7716 31.7722C34.9805 31.8609 35.1688 31.9918 35.3247 32.1566C35.8497 32.7378 36.3372 32.6628 36.5529 32.6441C36.7685 32.6159 36.7404 32.4847 36.7404 32.4847C36.6674 32.4621 36.5917 32.4495 36.5154 32.4472C35.7185 32.3722 35.4841 31.8472 35.4841 31.8472C35.8889 32.2032 36.4076 32.4027 36.9466 32.4097C37.1716 32.4003 37.1622 32.4659 37.106 32.4847L36.881 32.4659C36.7779 32.4659 36.7779 32.4941 36.7966 32.5409C36.8247 32.5784 36.9279 32.5784 37.0497 32.5784C37.181 32.5784 37.0779 32.5878 37.406 32.8409C37.7435 33.1034 38.5591 32.8878 38.5591 32.8878C38.0247 32.7659 37.9591 32.5128 37.9591 32.5128C37.2372 32.6066 36.9466 32.1753 36.9466 32.1753C36.7832 32.0484 36.6073 31.9385 36.4216 31.8472C36.0279 31.6691 35.9529 31.3034 35.9529 31.3034C36.0747 31.4722 36.2997 31.6597 36.581 31.7347C36.8622 31.8097 36.9372 31.8472 36.9372 31.8472C36.8652 31.8635 36.7898 31.8569 36.7216 31.8284C36.4404 31.7347 36.5997 31.8566 36.5997 31.8566C36.9185 32.1097 37.0029 32.0909 37.0029 32.0909C37.8091 32.1753 37.406 31.8472 37.406 31.8472C37.9872 31.9878 38.081 31.7722 38.081 31.7722C38.2029 32.0253 38.6435 31.9316 38.6435 31.9316C38.0622 32.2128 38.5029 32.1284 38.5029 32.1284C39.0935 32.0253 39.2154 32.1753 39.2154 32.1753C39.3654 32.3159 39.5341 32.3066 39.5341 32.3066C39.5341 32.3066 39.6466 32.3066 39.8622 32.3441C40.0872 32.3909 40.4435 32.5784 40.7622 32.5503C41.0904 32.5034 41.1372 32.6066 41.1372 32.6066C41.081 32.5784 40.931 32.5597 40.6872 32.6722C40.4341 32.7941 39.9935 32.8222 39.356 32.6722C38.7185 32.5222 38.6622 32.5503 38.6622 32.5503C38.8216 32.6534 38.9529 32.8222 38.981 32.9253C39.0091 33.0378 39.1216 33.0378 39.1216 33.0378C39.1685 32.8972 39.356 32.8409 39.356 32.8409C39.5025 32.9448 39.6596 33.0328 39.8247 33.1034C39.8622 33.0378 39.8247 32.9816 39.8247 32.9816C40.0685 33.2159 40.3497 33.1409 40.3497 33.1409C40.4247 33.0941 40.406 32.9534 40.406 32.9534C40.4997 32.9534 40.5185 33.0097 40.5935 33.0659C40.6591 33.1034 40.8747 33.0753 40.8747 33.0753C40.7997 33.0378 40.7341 32.9159 40.7341 32.9159C41.0622 32.7003 41.7654 32.7941 41.7654 32.7941C42.2622 32.8878 42.206 33.2159 42.206 33.2159C42.2944 33.2683 42.3736 33.3348 42.4404 33.4128C42.4872 33.3003 42.4404 33.1784 42.4404 33.1784C42.6841 33.2909 42.7216 33.5534 42.7216 33.5534C43.0029 33.2534 42.4685 32.9159 42.4685 32.9159C42.7216 32.8784 43.0029 32.8972 43.1716 32.9159C43.4002 32.9556 43.6139 33.056 43.7904 33.2066C43.9872 33.3659 44.3435 33.4409 44.3435 33.4409C44.3341 33.3753 44.1372 33.2534 44.0904 33.2347C44.0529 33.2159 44.0341 33.1503 44.0341 33.1503C44.2122 33.1878 44.3247 33.1691 44.3247 33.1691C43.7247 32.7941 43.5654 32.6159 43.5654 32.6159C43.7904 32.6441 43.9216 32.5034 43.9216 32.5034C43.4435 32.5034 43.4154 32.3909 43.4154 32.3909C43.481 32.4003 43.706 32.4566 43.9966 32.4003C44.2872 32.3441 44.6716 32.4003 44.6716 32.4003C44.4654 32.0628 43.6685 32.1191 43.406 32.1378C43.1435 32.1566 43.0497 32.1191 43.0497 32.1191C43.0872 32.1003 43.1341 32.0628 43.331 32.0534C43.5372 32.0534 43.7341 32.0722 43.9685 31.9034C44.1841 31.7534 44.5029 31.8097 44.5029 31.8097C44.4279 31.6597 44.0622 31.6034 43.7529 31.8097C43.4247 32.0066 43.1435 31.9503 43.1435 31.9503C43.6404 31.8753 43.7904 31.6972 43.7904 31.6972C43.6404 31.6597 43.556 31.7066 43.2466 31.7722C42.9466 31.8284 42.8716 31.7253 42.8716 31.7253C43.1997 31.5284 43.4341 31.4441 43.4341 31.4441C43.1529 31.3878 42.8904 31.2566 42.8904 31.2566C42.5904 31.5378 42.3654 31.6878 41.7935 31.4066C41.231 31.1066 40.931 31.1441 40.931 31.1441C41.4372 30.8534 41.9435 30.9753 42.3185 31.2003C42.6935 31.4159 42.7872 31.2378 42.7872 31.2378C42.6747 31.1722 42.6935 31.0972 42.6935 31.0972C43.5935 31.5566 43.9872 31.2847 44.1841 31.1441C44.381 31.0034 44.0904 30.8253 44.0904 30.8253C44.0716 31.1066 43.7154 31.2566 43.4154 31.1534C43.1341 31.0597 42.8529 30.9284 42.4404 30.7503C42.0279 30.5816 41.5029 30.6753 41.0247 30.7691C40.5372 30.8722 40.4716 30.8253 40.4247 30.7878C40.3779 30.7503 40.3591 30.6284 40.106 30.7316C39.8622 30.8347 39.281 30.5628 38.9247 30.4784C38.5685 30.3847 37.9779 30.4316 37.4716 30.7128C36.9654 31.0034 36.7029 30.9284 36.5529 30.8628C36.4029 30.7878 36.2997 30.6003 36.4685 30.4316C36.6372 30.2628 36.656 30.2159 36.6372 29.9628C36.6185 29.7191 36.3747 29.5691 36.3747 29.5691C36.5997 29.3347 36.656 29.2878 36.581 29.1941C36.506 29.0816 36.6185 29.0816 36.7497 29.0253C36.881 28.9691 36.8247 28.9597 36.7966 28.8847C36.7591 28.8097 36.6841 28.8284 36.6841 28.8284C36.3935 28.8378 36.2247 28.7534 36.2247 28.7534C35.7372 28.5284 35.2779 28.9691 35.2779 28.9691C34.9966 28.7534 34.931 28.9034 34.8841 28.9503C34.8372 28.9972 34.7341 29.0441 34.6029 29.0441C34.4904 29.0628 34.3122 29.1097 34.2466 29.2222C34.2466 29.2222 34.1904 29.3159 34.256 29.4097C34.256 29.4097 34.331 29.5222 34.1997 29.6628C34.0591 29.8034 34.0122 29.8316 34.0591 29.9722C34.0966 30.0941 34.0872 30.1972 34.031 30.2816C34.031 30.2816 33.9654 30.2159 33.9841 30.1222C34.0029 30.0284 34.0029 29.9722 33.9841 29.9347C33.9841 29.9347 33.8435 30.0659 33.8154 30.1597C33.8154 30.1597 33.7591 30.0097 33.9654 29.8128C34.1529 29.6253 34.2466 29.5128 34.1904 29.4378C34.1529 29.3816 34.0029 29.4753 33.9747 29.4941H33.9654Z" fill="#FFC221"/>
<path d="M34.5372 31.6877C34.5372 31.6877 34.2841 31.5002 34.3122 31.2283C34.3404 30.9752 34.3404 30.9471 34.3122 30.8814C34.3122 30.8814 34.2654 30.9096 34.2747 31.0127C34.2747 31.1064 34.256 31.2096 34.2466 31.2283C34.2466 31.2283 34.1247 31.0127 34.0591 30.9658C34.0591 30.9658 34.1154 30.7408 34.0404 30.6471C33.9747 30.5439 33.8997 30.5346 33.8154 30.5721C33.7029 30.6096 33.6185 30.7127 34.0029 31.0221C34.0029 31.0221 34.1435 31.1439 34.2372 31.3877C34.331 31.6314 34.4997 31.6689 34.5279 31.6877H34.5372ZM35.756 30.9564C35.756 30.9564 35.7466 30.8158 35.8779 30.5533C35.9242 30.4744 35.9509 30.3856 35.9558 30.2942C35.9607 30.2029 35.9436 30.1117 35.906 30.0283C35.8779 29.9533 35.8497 29.9814 35.9904 29.8689C36.1497 29.7283 35.9247 29.5502 36.206 29.3064C36.206 29.3064 36.3747 29.1564 36.4216 29.0908C36.4216 29.0908 36.1404 29.2408 35.9341 29.3252C35.7466 29.4002 35.0341 29.7564 35.1841 29.9908C35.3529 30.2252 35.3341 30.2439 35.306 30.3471C35.306 30.3471 34.8747 30.1127 35.0247 29.7471C35.0247 29.7471 35.0997 29.6064 35.2779 29.4283C35.4466 29.2783 35.3529 29.4658 35.681 29.2689C35.681 29.2689 35.9341 29.1189 36.0841 28.9033C36.0841 28.9033 35.8966 29.0158 35.8404 29.0346C35.8404 29.0346 35.4654 29.1096 35.2966 29.2689C35.1466 29.4283 34.8185 29.7096 34.9216 30.0189C34.9216 30.0189 34.5466 29.9814 34.4529 29.5783C34.4529 29.5783 33.7404 30.4596 35.2404 30.8721C35.2404 30.8721 35.5216 30.9471 35.7654 30.9658L35.756 30.9564Z" fill="black"/>
<path d="M42.3376 28.0312C42.9001 27.9374 46.1251 27.4499 46.4251 27.4218C46.7438 27.3937 46.8657 27.3468 46.9782 27.6093C47.1001 27.8905 46.5282 27.8999 46.5282 27.8999L42.6751 28.3405C42.4876 28.3593 42.4407 28.2843 42.4407 28.2843L42.3001 28.0968C42.3001 28.0968 42.2532 28.0405 42.3376 28.0218V28.0312Z" fill="#FFC221"/>
<path d="M34.4342 29.7842C34.4342 29.7842 34.0217 30.6561 35.653 30.8717C35.653 30.8717 35.6624 30.7779 35.728 30.6373C35.803 30.4967 35.9436 30.2154 35.803 30.0373C35.6717 29.8592 35.9155 29.9529 35.9436 29.7186C35.9905 29.4842 35.9249 29.5123 36.0374 29.3623C36.0374 29.3623 35.5311 29.5498 35.3249 29.7842C35.1374 30.0092 35.5967 30.1779 35.3249 30.4311C35.3249 30.4311 35.0905 30.3373 34.9499 30.0936C34.9499 30.0936 34.6405 30.0936 34.4342 29.7842Z" fill="#5A3719"/>
<path d="M36.0465 30.8623C36.0465 30.8623 36.4496 31.2092 36.9278 31.1998C37.4059 31.1717 37.6215 31.0498 37.7434 30.8623C37.7434 30.8623 37.8371 31.0029 37.8371 31.1061C37.8371 31.1061 38.2496 30.7592 38.9621 31.0592C39.6746 31.3592 39.4684 31.2748 39.6278 31.2936C39.6278 31.2936 39.3184 31.2467 38.6246 31.5654C37.9028 31.8936 36.0278 31.7811 36.0371 30.8623H36.0465Z" fill="black"/>
<path d="M35.3718 29.3061C35.3718 29.3061 35.5499 29.3342 35.728 29.1279C35.728 29.1279 35.4843 29.1748 35.3718 29.3154V29.3061ZM33.9937 30.9373C33.9937 30.9373 33.6562 30.6748 33.8718 30.6186C33.8718 30.6186 34.0312 30.5904 33.9937 30.9373Z" fill="#5A3719"/>
<path d="M41.3623 32.6064C41.3623 32.6064 41.5498 32.2783 42.0654 32.2783C42.5811 32.2783 42.6373 32.5221 43.2936 32.5596C43.2936 32.5596 42.5061 32.7846 41.9623 32.5877C41.6811 32.4846 41.4186 32.5689 41.3623 32.6064Z" fill="black"/>
<path d="M36.2158 31.0971C36.2158 31.0971 37.0033 31.5659 37.6877 31.0502C37.6877 31.0502 37.7439 31.1065 37.8002 31.2377C37.8002 31.2377 38.3252 30.7315 39.2533 31.2752C39.2533 31.2752 39.1408 31.2658 38.7002 31.444C38.1283 31.6971 36.6939 31.8658 36.2158 31.0877V31.0971Z" fill="#5A3719"/>
<path d="M39.2158 31.5654C39.2158 31.5654 39.9658 31.6592 40.5939 31.6217C40.9783 31.6029 41.4002 31.5279 41.1939 31.6592C40.9783 31.7811 41.0908 31.7998 41.9814 31.7248C42.8627 31.6311 41.9721 31.8842 42.5814 31.9686C42.5814 31.9686 41.0908 32.7186 39.2158 31.5654Z" fill="black"/>
<path d="M41.1748 31.0974C41.1748 31.0974 41.6061 30.938 42.0186 31.1255C42.4217 31.313 42.3561 31.3317 42.6279 31.3599C42.6279 31.3599 42.4404 31.6317 41.9998 31.4161C41.5498 31.2005 41.4373 31.1536 41.1748 31.0974ZM41.6623 32.438C41.6623 32.438 42.0936 32.2224 42.5623 32.438C42.6186 32.4755 42.7498 32.5317 42.8717 32.5505C42.8717 32.5505 42.5154 32.6724 42.1404 32.5505C41.9811 32.5036 41.8592 32.4661 41.6623 32.438ZM39.5342 31.6692C39.5342 31.6692 40.4998 31.763 41.0154 31.6599C41.0154 31.6599 40.4154 31.9411 41.9248 31.8192C41.9248 31.8192 42.2529 31.7817 42.2061 31.8286C42.1779 31.8755 42.1498 31.9224 42.3186 31.9692C42.3186 31.9692 41.1936 32.4755 39.5342 31.6692Z" fill="#5A3719"/>
<path d="M34.7534 30.8629C34.7534 30.8629 34.7722 30.9285 34.9784 31.0223C35.1941 31.1254 35.3066 31.2941 35.3534 31.3879C35.3861 31.4536 35.4322 31.5118 35.4887 31.5586C35.5452 31.6054 35.6109 31.6399 35.6816 31.6598C35.6816 31.6598 34.9316 31.8191 34.5941 31.416C34.5941 31.416 34.3409 31.1348 34.7441 30.8535" fill="black"/>
<path d="M40.6594 32.5873C40.6594 32.5873 40.3688 32.5686 39.9563 32.4279C39.5532 32.2873 39.45 32.4092 39.2157 32.2404C38.9907 32.0623 38.5313 32.1748 38.4469 32.1842C38.3532 32.1936 38.1094 32.1842 38.4188 31.9873C38.4188 31.9873 38.175 31.9873 38.0813 31.8561C38.0813 31.8561 37.9688 31.9686 37.5563 31.9311C37.5563 31.9311 37.7438 32.2123 36.9938 32.1279C37.1196 32.273 37.2858 32.3772 37.4712 32.4273C37.6566 32.4774 37.8527 32.4711 38.0344 32.4092C38.0344 32.4279 37.9875 32.6436 38.3157 32.7373C38.6719 32.8217 38.7375 32.8873 38.9157 32.9529C38.9157 32.9529 38.9438 32.8123 38.4844 32.4842C38.4844 32.4842 38.7282 32.4654 39.0844 32.5498C39.4407 32.6342 40.2282 32.8404 40.6594 32.5873ZM40.8469 32.9342C40.8469 32.9342 40.9219 33.1029 41.1469 33.0654C41.3719 33.0279 41.7469 32.9717 42.1032 33.1404C42.1032 33.1404 42.1688 32.8404 41.4469 32.8217C41.4469 32.8217 40.9969 32.8404 40.8469 32.9342ZM34.7344 30.9654C34.7344 30.9654 34.4532 31.1998 34.7063 31.4342C34.9313 31.6498 35.2875 31.6311 35.4563 31.6217C35.4563 31.6217 35.3625 31.5654 35.2688 31.4342C35.175 31.2936 35.175 31.1998 34.9875 31.1154C34.7907 31.0311 34.7719 31.0123 34.7344 30.9654ZM34.4532 29.7842C34.4532 29.7842 34.0219 30.6561 35.6719 30.8717C35.6719 30.8717 35.6719 30.7779 35.7375 30.6373C35.7938 30.4967 35.9344 30.2154 35.8125 30.0373C35.6625 29.8592 35.9157 29.9529 35.9532 29.7186C35.9907 29.4842 35.925 29.5123 36.0469 29.3623C36.0469 29.3623 35.5313 29.5498 35.325 29.7842C35.1375 30.0092 35.5969 30.1779 35.325 30.4311C35.325 30.4311 35.0907 30.3373 34.95 30.0936C34.95 30.0936 34.6407 30.0936 34.4344 29.7842H34.4532Z" fill="#5A3719"/>
<path d="M38.7471 31.8093C38.7471 31.8093 39.0939 31.7531 39.9658 32.0812C40.8471 32.4 41.2127 32.325 41.3346 32.3156C41.3346 32.3156 40.8471 32.5781 40.0783 32.2406C39.4033 31.9406 39.3658 32.0531 38.7471 31.8093Z" fill="black"/>
<path d="M44.2315 31.6127C44.2315 31.6127 44.419 31.6127 44.5502 31.6596C44.5502 31.6596 44.6158 31.5939 44.8033 31.5658C44.8033 31.5658 44.6815 31.4533 44.2315 31.6127ZM43.6315 31.1252C43.6315 31.1252 43.8283 31.1252 43.894 31.0127C43.894 31.0127 43.7908 30.8908 43.6315 30.8252C43.6315 30.8252 43.669 30.9752 43.6315 31.1252ZM36.9096 28.8939C36.9096 28.8939 36.8627 28.8002 37.0783 28.7627L40.0127 28.3408C40.0127 28.3408 40.1533 28.3408 40.1721 28.4346C40.2002 28.5377 40.1627 28.6127 39.4971 28.6877L37.0971 28.9877C37.0971 28.9877 36.919 29.0158 36.9096 28.8939Z" fill="#FFC221"/>
<path d="M39.5625 28.772C39.5625 28.772 39.5625 29.1564 39.9563 29.2127C40.3313 29.2689 40.4719 29.1939 40.5656 28.997C40.5938 28.9314 40.7156 28.5283 40.5469 28.5002C40.4719 28.4908 40.3594 28.5002 40.275 28.5283C40.1438 28.5939 40.0219 28.6595 40.0594 28.7158C40.1531 28.8658 40.1719 28.9033 40.1531 28.9033C40.0406 28.9314 39.9844 28.847 39.9656 28.7908C39.9375 28.7158 40.0125 28.6783 39.7594 28.7158C39.6469 28.7252 39.5719 28.7252 39.5719 28.772H39.5625ZM41.2031 28.472C41.3906 28.5002 41.3813 28.922 41.1469 29.1189C40.8844 29.3252 40.6406 29.2408 40.6406 29.2408C40.5094 29.1939 40.5281 29.2033 40.6313 29.0533C40.725 28.9127 40.7719 28.7158 40.7156 28.5845C40.6969 28.5377 40.7437 28.5002 40.8094 28.4908C40.8094 28.4908 40.9969 28.4533 41.2031 28.472Z" fill="#FFC221"/>
<path d="M41.3715 28.5094C41.3715 28.5094 41.5215 28.6969 41.334 29.0251C41.334 29.0251 41.259 29.1188 41.4372 29.1094C41.6059 29.0907 42.009 28.9032 41.9715 28.6594C41.9715 28.6594 41.9528 28.6032 41.8497 28.6032C41.7465 28.6032 41.8309 28.5563 41.8778 28.5282C41.9153 28.5282 42.0559 28.4719 41.6997 28.2469C41.6997 28.2469 41.6434 28.1907 41.5778 28.2188C41.5215 28.2376 41.334 28.3126 41.334 28.4251C41.334 28.4719 41.3715 28.5188 41.3715 28.5188V28.5094Z" fill="#FFC221"/>
<path d="M41.7566 28.2098C41.7566 28.2098 42.0379 28.4067 42.0379 28.4724C42.0379 28.5286 42.0098 28.613 42.0848 28.5942C42.1598 28.5942 42.4598 28.5286 42.366 28.3317C42.291 28.1349 42.2066 28.0505 42.066 28.013C41.9254 27.9567 41.8879 28.0223 41.766 28.1161C41.766 28.1161 41.6816 28.1723 41.7566 28.2098ZM40.2473 28.4911C40.2473 28.4911 40.2941 28.3505 40.041 28.2849C40.041 28.2849 40.1441 28.1911 40.3598 28.2473C40.566 28.2848 40.5473 28.4348 40.5473 28.4442C40.5473 28.4442 40.3785 28.4442 40.2473 28.4911ZM40.791 28.4536C40.791 28.4536 41.0723 28.4067 41.2129 28.4161C41.2129 28.4161 41.0629 28.1067 40.6785 28.2005C40.6785 28.2005 40.8191 28.3692 40.791 28.4536ZM41.2879 28.3786C41.2879 28.3786 41.2879 28.2755 41.5316 28.1817C41.5316 28.1817 41.4191 28.0692 41.2504 28.088C41.0629 28.088 41.016 28.1536 41.016 28.1536C41.016 28.1536 41.2316 28.2286 41.2879 28.3786ZM41.3816 28.0411C41.3816 28.0411 41.541 28.0786 41.6348 28.163C41.6348 28.163 41.7754 28.0036 41.8973 27.9755C41.8973 27.9755 41.6629 27.8442 41.3816 28.0411Z" fill="#FFC221"/>
<path d="M33.3562 27.2717C33.3562 27.2717 34.0312 26.6904 34.4062 26.7654C34.7812 26.8404 34.5937 26.7842 35.0062 26.7185C35.4187 26.6623 35.85 26.6154 36.0188 26.6342C36.0188 26.6342 35.5125 26.2779 34.6219 26.2873C34.6219 26.2873 34.0031 26.5029 33.5625 26.7842C33.5625 26.7842 32.7281 26.3248 31.875 26.5967C31.875 26.5967 32.8031 26.9435 33.3562 27.2717Z" fill="#5A3719"/>
<path d="M40.5184 28.2559L40.6309 28.2371C40.6309 28.2371 40.8184 28.4715 40.6871 28.4715C40.5746 28.4715 40.6121 28.4434 40.5934 28.3777C40.583 28.3298 40.5565 28.2868 40.5184 28.2559ZM39.6746 28.2746C39.6746 28.2746 39.5996 28.3684 39.7309 28.3496C39.8902 28.3215 39.8621 28.3496 40.0215 28.2277C40.0215 28.2277 40.134 28.1246 40.3215 28.1902C40.3215 28.1902 40.4902 28.2465 40.6215 28.1809C40.7527 28.1059 40.7809 28.1152 40.8559 28.1246C40.9309 28.1246 40.9309 28.1434 41.0152 28.0684C41.109 28.0027 41.2777 28.059 41.3809 27.9746C41.484 27.8809 41.6152 27.9559 41.3809 27.7871C41.3809 27.7871 41.334 27.7402 41.334 27.6934C41.334 27.6934 41.4277 27.7309 41.5027 27.7871C41.5777 27.8621 41.6902 27.834 41.709 27.8246C41.709 27.8246 41.7277 27.609 41.9246 27.4215C42.1402 27.234 42.1402 27.2152 42.0184 27.2152C41.8965 27.2152 41.6902 27.159 41.6152 27.2152C41.5402 27.2715 40.9402 27.6652 40.584 27.7309C40.2277 27.7965 39.8996 27.8996 39.6746 28.2746ZM30.1777 26.0809C30.1777 26.0809 31.2746 26.3621 31.5184 26.4746C31.5184 26.4746 31.5746 26.2965 31.0777 26.1559C31.0777 26.1559 32.2871 26.1184 33.5527 26.6996C33.5527 26.6996 34.1715 26.1746 36.1496 26.334C36.1496 26.334 36.1496 26.1652 36.1684 26.0246C36.1684 26.0246 34.7809 25.9871 33.5059 25.209C33.5059 25.209 32.3527 25.7715 30.1777 26.0809ZM36.2434 26.6059C36.1777 25.4996 36.5996 25.3871 36.5996 25.3871C36.5996 25.3871 36.7965 25.3871 37.0121 25.434C37.0121 25.434 36.6746 25.8371 36.7684 26.634C36.7684 26.634 36.8059 26.7559 36.5152 26.7559C36.2246 26.7559 36.2434 26.6152 36.2434 26.6152V26.6059Z" fill="#FFC221"/>
<path d="M36.5439 27.3467C36.5439 27.3467 36.3283 27.1311 36.3096 26.8874C36.3096 26.8874 36.3096 26.8311 36.5158 26.8311C36.7314 26.8311 36.7502 26.8124 36.7971 26.9342C36.8533 27.0561 36.9846 27.3092 37.0127 27.3374L36.5439 27.3467Z" fill="#5A3719"/>
<path d="M36.9848 26.7845C36.9674 26.6446 36.9611 26.5035 36.9661 26.3626C36.9755 25.7439 37.0786 25.8001 37.1255 25.8751H37.3411C37.3411 25.8751 37.1817 25.1814 36.9942 25.5939C36.8566 25.8992 36.8079 26.2371 36.8536 26.5689C36.863 26.7564 36.8817 26.8782 36.9098 26.9439L36.9848 26.7845Z" fill="#FFC221"/>
<path d="M39.3939 26.7844C39.3939 26.7844 39.7971 26.8594 39.1783 27C39.1783 27 39.2064 27.7688 39.9471 27.2344C39.9471 27.2344 40.3877 26.9532 40.6971 26.8407C40.6971 26.8407 40.8471 26.7844 40.8283 26.6719C40.8283 26.6719 40.8471 26.5313 40.6877 26.5688C40.6877 26.5688 40.5564 26.5688 40.4721 26.5407C40.4721 26.5407 40.3783 26.4282 40.3221 26.4657C40.2658 26.5125 40.1252 26.4844 40.2377 26.625C40.3502 26.7563 40.3783 26.7188 40.4252 26.6813C40.4814 26.6438 40.7158 26.55 40.5096 26.7469C40.3033 26.9438 40.1158 26.6344 40.0408 26.5782L39.3939 26.7844ZM37.3314 26.8782H37.1439C37.1439 26.8782 37.0502 27.0282 36.9846 26.7844L36.9189 26.9344C36.9189 26.9344 37.1346 27.7594 37.3314 26.8782Z" fill="#5A3719"/>
<path d="M37.0686 25.9315C37.0686 25.9315 36.9749 26.4753 37.0967 26.794L39.0749 26.8409C39.0749 26.8409 39.0561 26.4659 39.0749 25.9315H38.8124C38.8124 25.9315 38.7655 26.3628 38.8124 26.6347H38.7655C38.7655 26.6347 38.728 26.2597 38.7655 25.9315H38.5311C38.5311 25.9315 38.4936 26.3347 38.5311 26.6347H38.4842C38.4842 26.6347 38.4467 26.2878 38.4842 25.9315H38.2499C38.2499 25.9315 38.203 26.2972 38.2499 26.6347H38.1936C38.1936 26.6347 38.1467 26.269 38.1936 25.9315H37.9405C37.9405 25.9315 37.8842 26.269 37.9405 26.6347H37.8936C37.8936 26.6347 37.8374 26.2972 37.8936 25.9315H37.6405C37.6405 25.9315 37.5842 26.3253 37.6405 26.6347H37.5842C37.5842 26.6347 37.5467 26.2597 37.5936 25.9315H37.3592C37.3592 25.9315 37.2936 26.2597 37.3592 26.6347H37.2936C37.2936 26.6347 37.2561 26.3534 37.3124 25.9315H37.0686ZM39.1592 26.9065C39.1592 26.9065 39.1124 25.9503 39.2905 25.6878C39.478 25.444 39.5249 25.5003 39.8342 25.6878C40.153 25.894 40.5561 26.1097 40.6311 26.1378C40.6874 26.1659 40.7811 26.1847 40.7811 26.3628C40.7811 26.5409 40.8092 26.5878 40.5374 26.3628C40.5092 26.3347 40.378 26.2222 40.2842 26.194C40.0405 26.1097 40.3405 26.2409 40.4249 26.3722C40.4999 26.4659 40.5655 26.4659 40.3686 26.5128C39.9615 26.6315 39.5582 26.7628 39.1592 26.9065Z" fill="#FFC221"/>
<path d="M39.8435 26.2128C39.8435 26.2128 39.7029 26.044 39.8904 25.9972C40.0779 25.9597 40.0872 26.2784 40.1247 26.4753C40.1529 26.6816 39.8904 26.2784 39.8623 26.2222L39.8435 26.2128ZM39.5904 27.0566C39.5904 27.0566 39.3747 27.1409 39.5247 27.2066C39.656 27.2722 40.0404 26.9534 39.9185 26.9722C39.7685 27.0003 39.5904 27.0659 39.5904 27.0659V27.0566ZM39.8716 26.7753C39.8716 26.7753 40.0591 26.7472 40.0216 26.8222C39.9935 26.9159 39.9279 26.8597 39.8904 26.8409C39.8622 26.8222 39.7404 26.7753 39.881 26.7659L39.8716 26.7753Z" fill="black"/>
<path d="M40.8748 26.5129C40.8748 26.5129 40.9311 26.8879 41.2498 26.9816C41.2498 26.9816 41.4373 27.0191 41.3904 26.8597C41.3904 26.8597 41.3623 26.7191 41.3342 26.6722C41.3061 26.6066 41.1842 26.5785 41.1654 26.5691C41.1467 26.5691 41.1373 26.5222 41.2217 26.5504C41.3154 26.5785 41.3154 26.5879 41.3154 26.5222C41.3154 26.4566 41.2592 26.4847 41.1842 26.4472C41.1467 26.4285 41.1842 26.4097 41.2123 26.4191C41.2498 26.4191 41.3342 26.4472 41.3342 26.3254C41.3342 26.3254 41.3436 26.2504 41.2498 26.2504C41.1467 26.2504 41.1561 26.1941 41.1842 26.1847C41.2123 26.1847 41.3248 26.2597 41.3623 26.1285C41.3904 26.0066 41.2123 26.0816 41.2311 26.016C41.2592 25.941 41.3904 26.0441 41.3904 25.9691C41.4092 25.8941 41.5123 25.866 41.3342 25.8379C41.2498 25.8285 41.3342 25.7816 41.4279 25.8004C41.5217 25.8097 41.5779 25.6879 41.6436 25.6504C41.6998 25.6035 42.0373 25.4066 41.5873 25.4722C41.1467 25.5379 41.0154 25.7535 40.9967 25.8004C40.8849 26.0201 40.8424 26.2685 40.8748 26.5129Z" fill="#FFC221"/>
<path d="M41.9066 26.7941C41.9723 26.7941 42.0191 26.7941 42.0379 26.841C42.1129 26.991 41.9441 26.9348 41.8504 27.0473C41.7566 27.1598 41.7566 27.141 41.6254 27.0941C41.4941 27.0566 41.4379 26.8598 41.4379 26.8598C41.4379 26.7941 41.4848 26.7848 41.5504 26.8035C41.5504 26.8035 41.766 26.8223 41.916 26.8035L41.9066 26.7941ZM41.4379 26.7191C41.4379 26.7191 41.4379 26.7566 41.5223 26.766C41.5879 26.766 41.8035 26.7941 41.9441 26.7566C41.9441 26.7566 41.9816 26.7473 41.9629 26.6629C41.9629 26.6629 41.9629 26.5973 41.8504 26.6254C41.7285 26.6441 41.5691 26.6254 41.5035 26.616C41.4473 26.5973 41.4098 26.616 41.4285 26.7098L41.4379 26.7191ZM41.4191 26.4473C41.4191 26.4473 41.4098 26.5691 41.5223 26.5785C41.6441 26.5973 41.7941 26.5973 41.8504 26.5785C41.8973 26.5785 41.9816 26.5598 41.991 26.4848C41.991 26.4191 42.0098 26.3723 41.8691 26.4098C41.7285 26.4473 41.5504 26.4098 41.5316 26.4098C41.5223 26.4098 41.4191 26.3816 41.4191 26.4473ZM41.466 26.2129C41.466 26.2129 41.4379 26.2691 41.4473 26.3254C41.4473 26.3723 41.5316 26.391 41.6816 26.391C41.8316 26.391 41.9629 26.3723 41.9816 26.3254C41.991 26.2598 42.0285 26.2035 41.916 26.2316C41.7941 26.241 41.6348 26.2504 41.5785 26.2316C41.5223 26.2035 41.4754 26.1941 41.466 26.2129Z" fill="#FFC221"/>
<path d="M47.0721 26.8123C47.0721 26.8123 47.0721 26.9061 47.1564 27.0186L42.9189 26.8967C42.9189 26.8967 42.9752 26.8592 42.9939 26.6904L47.0721 26.8123Z" fill="#5A3719"/>
<path d="M41.5035 26.0437C41.5035 26.0437 41.466 26.1469 41.541 26.175C41.6066 26.1938 41.7473 26.2125 41.916 26.1844C41.916 26.1844 42.0098 26.1844 42.0379 26.0906C42.066 25.9969 42.066 26.0531 41.8223 26.0156C41.8223 26.0156 41.7473 25.9875 41.9629 25.9875C41.9629 25.9875 42.0941 25.9875 42.1035 25.9688C42.1316 25.95 42.291 25.8094 42.0754 25.8281C41.8598 25.8281 41.9723 25.7812 42.0754 25.7812C42.1879 25.7812 42.2254 25.8094 42.2629 25.7812C42.3004 25.7531 42.2629 25.7625 42.1973 25.7063C42.1316 25.65 42.1879 25.6594 42.2254 25.6969C42.2723 25.725 42.3004 25.7438 42.3473 25.6969C42.3941 25.65 42.3098 25.5844 42.3473 25.6031C42.3754 25.6031 42.4035 25.6781 42.5348 25.6031C42.6848 25.5375 42.8629 25.575 42.9098 25.6031C42.966 25.65 43.116 25.6969 43.2004 25.6031C43.2941 25.5281 43.0973 25.4437 43.1723 25.4344C43.266 25.425 43.3223 25.4531 43.3504 25.3875C43.3879 25.3125 43.2191 25.2563 43.3785 25.2188C43.5285 25.1719 43.3973 24.75 43.3504 24.7031C43.3504 24.7031 43.1723 24.8062 42.9941 25.1062C42.7973 25.4156 42.6848 25.5938 42.4316 25.5C42.066 25.3594 41.8691 25.5562 41.8223 25.5938C41.7285 25.65 42.0098 25.6687 41.841 25.6781C41.6816 25.6781 41.6816 25.6969 41.6723 25.7156C41.6535 25.7437 41.6723 25.7625 41.7004 25.7719C41.7285 25.7719 41.7848 25.8281 41.691 25.8281C41.5973 25.8281 41.5223 25.8 41.5504 25.9125C41.5504 25.9125 41.5504 25.9313 41.6066 25.9406C41.6629 25.9406 41.6816 26.0156 41.5785 26.0156C41.5035 26.0156 41.5035 26.0344 41.5035 26.0437ZM41.8879 27.1031C41.8879 27.1031 41.8223 27.15 41.916 27.1594C42.0285 27.1594 42.0754 27.1875 42.1129 27.1312C42.1504 27.075 42.2816 27.0938 42.1879 27.0188C42.0941 26.9438 42.0379 26.9906 41.8879 27.1125V27.1031Z" fill="#FFC221"/>
<path d="M42.3281 25.8285C42.3281 25.8285 42.6844 25.5003 42.975 25.716C43.275 25.9503 43.2938 25.9785 43.3031 25.9879C43.3031 25.9879 43.3406 26.016 43.2656 26.0816C43.1812 26.1566 43.2656 26.1566 43.35 26.1097C43.4344 26.0628 43.4437 26.1097 43.4812 26.1566C43.5281 26.2035 43.5844 26.2316 43.4531 26.2316H43.0219C43.0219 26.2316 42.825 26.2504 42.9281 26.166C43.0219 26.0816 43.0031 25.9879 42.9562 25.9785C42.9 25.9785 42.9563 26.0347 42.9281 26.0722C42.8906 26.1097 42.825 26.1378 42.75 26.1378C42.675 26.1378 42.6187 26.1941 42.7312 26.2316C42.8344 26.2691 42.7125 26.2972 42.6562 26.2972C42.6 26.2972 42.3281 26.316 42.6094 26.3535C42.8906 26.3816 42.5812 26.3816 42.7969 26.4941C43.0219 26.6254 42.8531 26.8972 42.7687 26.9254C42.7687 26.9254 42.675 26.9722 42.7875 26.9629C42.9094 26.9441 42.975 26.9347 42.8813 27.0003C42.8063 27.0566 42.6375 27.2722 42.4125 27.1129C42.4125 27.1129 42.3 27.0566 42.4875 27.0472C42.675 27.0472 42.3375 27.0003 42.2719 26.9535C42.225 26.9253 41.9906 26.7003 42.1313 26.7191C42.2813 26.7566 42.225 26.6722 42.1406 26.6441C42.0656 26.616 42.0469 26.4941 42.1406 26.5128C42.2344 26.541 42.3281 26.5972 42.4219 26.5879C42.4875 26.5879 42.4687 26.5597 42.3094 26.5128C42.15 26.4566 42.0844 26.4472 42.1219 26.3253C42.1594 26.1847 42.3375 26.3722 42.2906 26.2691C42.2531 26.1754 42.1031 26.2222 42.1781 26.091C42.2531 25.9597 42.2719 26.016 42.3188 26.0347C42.3469 26.0441 42.4125 26.0347 42.3094 25.9597C42.2344 25.9128 42.3094 25.8378 42.3281 25.8285Z" fill="#FFC221"/>
<path d="M42.5811 25.9217C42.5811 25.9217 42.5811 25.8748 42.6561 25.8842C42.7123 25.8842 42.6936 25.8654 42.7123 25.8467C42.7311 25.8467 42.8904 25.8936 42.7404 25.9404C42.6842 25.9686 42.5904 25.9592 42.5904 25.9217H42.5811Z" fill="black"/>
<path d="M42.9283 26.2969C42.9283 26.2969 42.8065 26.3531 42.9096 26.4844C43.0033 26.5781 43.0033 26.625 43.0033 26.6906C42.994 26.7656 47.0721 26.8125 47.0721 26.8125C47.0721 26.8125 47.0721 26.5406 47.2408 26.3906L42.9283 26.2969Z" fill="#FFC221"/>
<path d="M42.4595 27.6941C42.4595 27.6941 42.7314 27.4597 42.7782 27.3566C42.7782 27.3566 43.5095 27.8816 43.4626 27.3941L43.4814 27.1503C43.4814 27.1503 43.7532 27.1784 43.7907 26.9628L43.1064 26.9347C43.1064 26.9347 43.0314 26.9253 42.9189 27.0378C42.8251 27.1503 42.6001 27.2722 42.4032 27.1691C42.4032 27.1691 42.3095 27.0941 42.2251 27.1691C42.1314 27.2159 42.1314 27.2347 42.2064 27.3097C42.2814 27.3847 42.4314 27.5816 42.4595 27.6847V27.6941ZM44.0345 26.2503L43.6314 26.2316C43.6314 26.2316 43.4907 26.0253 43.2001 25.8003C43.2001 25.8003 43.1157 25.7628 43.2751 25.6316C43.4439 25.5003 43.4908 25.3691 43.4908 25.3034C43.4908 25.2472 43.4907 25.1441 43.547 25.2097C43.6032 25.2847 44.0157 25.6691 44.0907 25.5566C44.147 25.4441 44.1564 25.3972 44.1564 25.3597C44.1751 25.3222 44.1845 25.2191 44.2501 25.3316C44.3064 25.4347 44.3439 25.4066 44.3532 25.6878C44.3532 25.6878 44.3532 25.9691 44.4001 26.0628C44.4001 26.0628 43.8751 25.9034 44.0439 26.2503H44.0345ZM42.2907 25.3878C42.2907 25.3878 42.6001 25.5753 42.7595 25.3316C42.9001 25.0972 43.0032 25.0691 42.8907 24.8347C42.7782 24.6191 42.8908 24.5159 42.9751 24.4222C43.0689 24.3284 43.1439 24.3472 43.1439 23.9909C43.1626 23.6253 43.4064 23.5222 43.5189 23.4003C43.6314 23.2878 43.9126 23.1191 43.4814 23.0534C43.0689 22.9784 42.2251 22.7722 42.0095 22.4441C41.7939 22.1159 41.7001 22.3034 41.7001 22.3222C41.7001 22.3409 41.6251 22.5753 41.8407 23.0066C42.0564 23.4378 42.2345 23.7191 42.4501 23.8503C42.6564 23.9909 42.8439 24.0659 42.7314 24.3566C42.6189 24.6472 42.4501 25.1628 42.2907 25.3878Z" fill="#7B3C20"/>
<path d="M43.4252 24.4689C43.4252 24.4689 43.4815 25.2189 44.0159 25.4814C44.0159 25.4814 44.1377 25.2002 44.0909 24.9096C44.0909 24.9096 44.269 24.919 44.3159 25.0033C44.3159 25.0033 44.3159 24.7877 44.0721 24.7033C43.819 24.6377 43.9409 24.1408 44.0346 24.0939C44.119 24.0377 44.0909 23.9346 44.0346 23.8502C43.969 23.7564 43.9596 23.6346 44.1659 23.6908C44.3815 23.7471 44.3534 23.6346 44.2127 23.5314C44.0909 23.4283 44.0909 23.2971 44.2784 23.2971C44.4659 23.2971 44.7471 23.119 44.5784 23.0721C44.3909 23.0158 44.344 22.9502 44.5784 22.8846C44.8315 22.8096 44.9534 22.7252 44.7659 22.6971C44.5784 22.6783 44.4565 22.6127 44.6346 22.5846C44.8127 22.5564 44.6065 22.369 44.4002 22.369C44.1846 22.3502 43.744 22.4346 44.0909 22.1533C44.4471 21.8721 43.5846 22.0783 43.9409 21.8908C44.2971 21.7033 43.819 21.7877 43.7534 21.7877C43.6877 21.7877 43.6877 21.7877 43.7159 21.6939C43.7346 21.6002 43.669 21.5439 43.5565 21.6096C43.4627 21.6658 43.4627 21.6658 43.4627 21.544C43.4627 21.4033 43.3409 21.5065 43.2659 21.544C43.1815 21.5721 42.9846 21.7221 42.9002 21.6377C42.8346 21.5533 42.7877 21.4783 42.544 21.619C42.3002 21.7596 42.3565 21.6377 42.3565 21.5721C42.3565 21.5065 42.4502 21.2533 42.1315 21.5252C41.8127 21.7971 42.0659 21.244 41.8034 21.4315C41.5502 21.619 41.5221 21.6565 41.4752 21.5721C41.4284 21.4783 41.3815 21.4127 41.1002 21.6002C40.8096 21.7783 41.0252 21.4783 41.0534 21.4127C41.1002 21.3564 41.2221 20.944 40.969 21.2627C40.969 21.2627 40.8471 21.4877 40.5752 21.0846C40.5752 21.0846 40.294 21.4877 40.2096 21.3096C40.1346 21.1221 40.069 21.1221 39.9659 21.2346C39.8721 21.3471 39.9471 21.2252 39.9002 21.1221C39.8627 21.0283 39.8346 20.8502 39.3565 21.1971C38.8784 21.5533 39.5252 21.2908 39.1596 21.4502C38.794 21.6096 37.894 22.1064 38.7096 22.0033C39.5252 21.8814 38.3159 22.3127 38.5971 22.3971C38.8784 22.4721 38.7846 22.7252 39.8534 22.4252C40.9034 22.1439 40.7346 22.3877 41.2784 22.1439C41.8221 21.9189 41.1471 22.2283 41.8784 22.2189C42.6002 22.2002 42.0002 22.219 42.1409 22.369C42.2815 22.519 42.8909 22.8658 43.4627 22.9315C44.0346 22.9877 44.1846 22.7721 44.0159 23.0252C43.8471 23.269 43.7909 23.3627 43.6971 23.4564C43.6034 23.5314 43.3221 23.7377 43.3221 24.0752C43.3221 24.4221 42.8721 24.4783 43.0409 24.8533L43.4252 24.4783V24.4689Z" fill="#5A3719"/>
<path d="M44.3719 25.303C44.3719 25.303 44.2406 25.2093 44.2406 25.0405C44.2406 25.0405 44.3344 25.0593 44.3719 25.1155C44.3719 25.1155 44.7 24.7405 44.2969 24.6093C43.9125 24.478 44.1094 24.1124 44.2406 24.1124C44.3719 24.1124 44.4 24.0843 44.2781 23.9249C44.1656 23.7843 44.1844 23.7749 44.4 23.7374C44.6156 23.6999 44.5968 23.6437 44.4937 23.5968C44.4266 23.5568 44.3665 23.5061 44.3156 23.4468C44.3156 23.4468 44.9531 23.1749 44.7469 23.0437C44.5406 22.9218 44.7469 22.9499 44.9344 22.828C45.1219 22.6968 45.1406 22.6687 45.1687 22.6124C45.1687 22.6124 44.9812 22.6405 44.85 22.6124C44.85 22.6124 45.0094 22.528 44.85 22.3968C44.6906 22.2655 44.6344 22.153 44.3812 22.2093C44.1281 22.2749 44.2125 22.1905 44.3062 22.0874C44.4 21.9843 44.3625 21.928 44.1844 21.8999C44.1844 21.8999 44.2031 21.7874 44.3437 21.6655C44.3437 21.6655 43.9969 21.6843 43.875 21.628C43.875 21.628 44.025 21.5343 44.025 21.4124C44.025 21.4124 43.8375 21.478 43.6031 21.4593C43.6031 21.4593 43.7437 21.3374 43.7437 21.2343C43.7437 21.2343 43.3312 21.328 43.1437 21.4687C43.1437 21.4687 43.0969 21.4687 43.0687 21.4124C43.0312 21.3749 43.0125 21.3187 42.5531 21.4687C42.5531 21.4687 42.6 21.2624 42.7125 21.1874C42.825 21.1124 42.8062 20.9437 42.1031 21.3843C42.1031 21.3843 42.0094 21.328 41.925 21.1124C41.925 21.1124 41.7656 21.328 41.6531 21.403C41.6531 21.403 41.5594 21.4499 41.5594 21.3093C41.5781 21.1687 41.4937 21.2624 41.4281 21.3093C41.3531 21.3468 41.3062 21.4499 41.3344 21.1687C41.3625 20.8874 41.2406 20.8312 41.2406 20.8312C41.2406 20.8312 41.025 21.1405 40.8937 21.178C40.8937 21.178 40.6594 20.953 40.575 20.803C40.5 20.653 40.5 20.5968 40.4156 20.8593C40.3312 21.1124 40.2281 21.1405 40.2281 21.1405C40.2281 21.1405 40.0875 21.0187 40.0781 20.953C40.0781 20.953 40.05 21.0187 40.0031 21.0468C40.0031 21.0468 39.8812 20.9062 39.8906 20.6999C39.8906 20.6999 39.1219 21.1218 39.0281 21.3749C39.0281 21.3749 38.3062 21.328 38.0156 21.3843C38.0156 21.3843 38.0812 21.1593 38.2687 21.0374C38.2687 21.0374 38.0812 21.0187 38.0812 20.8218C38.0812 20.8218 38.2312 20.8405 38.325 20.8218C38.4187 20.803 38.1937 20.5312 38.4281 20.5218C38.6625 20.5124 38.8219 20.6343 38.7094 20.3155C38.6156 20.0062 38.6531 20.0062 38.6531 20.0062C38.6531 20.0062 39.0656 20.2499 39.1312 20.1843C39.2062 20.128 39.0844 19.9968 39.45 20.053C39.8156 20.1187 39.7125 19.9124 39.8625 19.8937C40.0031 19.8937 40.0781 19.9874 39.9844 19.3218C39.8906 18.6562 40.4344 19.6499 40.0687 18.6468C40.0687 18.6468 39.975 18.3374 39.7594 18.2062C39.7594 18.2062 39.7031 18.4218 39.4594 18.2343C39.2156 18.0468 38.7281 17.9718 38.9344 17.8218C39.1406 17.6624 39.2344 17.4562 39.1781 17.3343C39.1781 17.3343 38.9344 17.578 38.5219 17.3999C38.1844 17.2593 38.1094 17.5218 37.7719 17.4468C37.7719 17.4468 37.7719 17.353 38.0625 17.128C38.3437 16.9124 37.8937 17.203 37.725 17.2499C37.5469 17.2874 37.5 17.2499 37.8656 16.9593C38.2406 16.678 38.9906 16.1624 38.8969 15.7405C38.8969 15.7405 39.0656 15.9562 39.525 15.7968C39.9937 15.6374 40.3312 15.5812 40.4625 15.328C40.6125 15.0937 40.9687 14.8593 41.0625 14.803C41.1656 14.7562 41.2875 14.7093 41.1469 14.9437C40.9969 15.1687 40.7719 15.5624 40.1344 15.8249C39.4969 16.0874 39.2437 16.2749 39.1312 16.4155C39.0187 16.5562 38.4375 16.8655 38.8219 16.8187C39.1969 16.753 39.8437 16.8187 39.5344 16.7249C39.2344 16.6405 38.8875 16.7812 39.1687 16.528C39.45 16.2749 39.4969 16.1905 39.9094 16.0218C40.3219 15.8437 40.7719 15.4499 40.725 15.8718C40.6781 16.2843 39.9187 16.7249 39.7312 16.8655C39.5437 16.9968 39.6187 16.978 39.6187 17.0343C39.6187 17.0905 39.5812 17.203 39.5062 17.2499C39.4312 17.3062 39.4594 17.3624 39.4781 17.4749C39.4969 17.5968 39.4594 17.6437 39.5156 17.6624C39.5719 17.6718 39.6281 17.6812 39.6469 17.7655C39.6656 17.8593 39.7031 17.8593 39.8156 17.8593C39.9187 17.8405 40.0031 17.8593 40.0031 17.9155C40.0031 17.9812 40.1156 18.0749 40.125 17.878C40.1344 17.6718 40.2187 17.6437 40.0125 17.7374C39.8062 17.8218 39.7687 17.7937 39.7687 17.6999C39.7687 17.6062 39.75 17.6249 39.675 17.6155C39.5812 17.6155 39.5531 17.4937 39.7031 17.4093C39.8531 17.3343 39.8531 17.4093 40.0406 17.2593C40.2281 17.0999 40.2281 17.0718 40.2562 16.978C40.2844 16.9124 39.9844 17.203 39.8437 17.2593C39.7031 17.3343 39.75 17.2124 39.7687 17.0624C39.7969 16.903 40.1437 16.6874 40.3031 16.6874C40.4719 16.6874 40.8281 16.7812 40.6781 16.9968C40.5187 17.2124 40.0781 17.4843 40.2562 17.503C40.4531 17.5218 40.4812 17.4468 40.5937 17.5405C40.7062 17.6343 40.5937 17.8405 40.5562 17.953C40.5059 18.0509 40.4357 18.1371 40.35 18.2062C40.35 18.2062 40.1437 17.8499 40.1531 18.1312C40.1531 18.4218 40.1062 18.5249 40.1531 18.5343C40.2 18.5437 40.4156 18.6937 40.4906 18.6937C40.5656 18.6937 40.1062 18.9093 40.3031 18.928C40.4906 18.9374 40.8 18.8343 40.9031 18.6468C40.9031 18.6468 40.5094 18.553 40.35 18.403C40.35 18.403 40.8094 18.2905 40.6781 17.8593C40.6781 17.8593 41.1375 17.9812 40.9312 18.1874C40.7437 18.3843 40.6218 18.3562 40.7906 18.4124C40.9687 18.4687 41.0437 18.5249 41.0437 18.5249C41.0437 18.5249 41.1656 18.5812 41.0906 18.6749C41.025 18.7687 41.025 18.9187 41.0906 18.9093C41.1375 18.9093 41.3344 18.8155 41.175 18.7218C41.0062 18.628 41.3531 18.6468 41.2125 18.5624C41.0625 18.4687 41.025 18.4593 40.9875 18.4124C40.9406 18.3843 42.8344 17.2687 41.8781 17.6812C41.8781 17.6812 42.075 17.2499 42.3562 17.2499C42.6375 17.2499 42.6562 17.4655 42.4969 17.6437C42.3375 17.803 42.2343 18.0749 41.8687 18.1312C41.8687 18.1312 42.3937 18.3843 41.775 18.8062C41.775 18.8062 41.6343 18.8718 41.6812 18.9187C41.7281 18.9655 42.1031 18.7593 42.15 18.6374C42.1759 18.5743 42.2141 18.5169 42.2624 18.4686C42.3107 18.4203 42.3681 18.3821 42.4312 18.3562C42.5718 18.2905 43.275 17.8124 43.4812 17.4562C43.6969 17.0905 43.7437 17.0812 44.1562 16.753C44.5687 16.4249 44.4937 16.4905 44.55 16.4155C44.5969 16.3312 44.6156 16.1999 44.8031 16.0968C44.9906 15.9843 45.7219 15.5905 45.9562 15.4218C46.1812 15.253 46.65 14.953 46.8562 14.6905C47.0531 14.4374 47.6062 14.1093 47.7375 14.1655C47.8687 14.2312 47.7187 14.428 47.4094 14.6718C47.0812 14.9062 46.2844 15.5437 46.1625 15.6468C45.8445 15.9031 45.4908 16.1116 45.1125 16.2655C44.8594 16.2937 44.8875 16.3874 44.7375 16.5468C44.5875 16.7062 44.2406 17.053 44.1281 17.1468C44.0062 17.2405 43.725 17.428 43.7156 17.5687C43.6969 17.7093 43.7625 17.7187 43.5375 17.9249C43.2042 18.2305 42.8284 18.4863 42.4219 18.6843C42.4219 18.6843 42.8437 18.8343 42.5906 19.1155C42.3469 19.3968 42.3562 19.3593 42.3469 19.378C42.3469 19.378 42.975 19.2843 42.5344 19.7812C42.5344 19.7812 42.4406 19.9218 42.6375 19.7812C42.8531 19.603 42.7687 19.3968 42.7312 19.3593C42.7312 19.3593 43.0781 19.1437 43.4719 19.1437C43.8562 19.1437 43.8469 19.1155 43.4906 19.0124C43.4906 19.0124 43.7437 18.7124 43.9594 18.8624C44.1656 19.003 44.0906 19.0968 43.875 19.2187C43.65 19.3312 43.3312 19.378 43.0781 19.5187C43.0781 19.5187 43.5469 19.6124 43.7906 19.4155C44.0343 19.228 44.0531 19.3218 44.0719 19.3593C44.1187 19.3968 44.1469 19.453 44.0344 19.603C43.9219 19.7624 43.9125 19.7718 43.9219 19.8093C43.9219 19.8468 43.9125 19.9499 43.6875 19.9968C43.4719 20.0249 43.3594 20.1187 43.4437 20.2218C43.5094 20.3343 43.5094 20.5968 43.3312 20.5687C43.1437 20.5405 43.1812 20.3905 43.1156 20.3343C43.0406 20.278 42.9375 20.1937 42.6094 20.353C42.2719 20.5312 42.2531 20.3249 42.2625 20.2124C42.2625 20.2124 42.0468 20.3999 41.8687 20.2312C41.6812 20.053 41.85 19.9874 41.9625 19.903C42.0562 19.8093 42.4781 19.6218 42.225 19.6687C41.9719 19.6968 41.5969 19.7062 41.5125 19.5187C41.4187 19.3218 41.7 19.3405 41.7375 19.3593C41.7844 19.378 41.9531 19.5187 41.9719 19.3312C41.9719 19.1437 42.2531 19.1155 42.1594 19.0874C42.0656 19.0499 41.925 19.1718 41.8875 19.2093C41.8875 19.2093 41.7 18.9374 41.3812 19.0218C41.0625 19.1155 41.475 19.0874 41.5687 19.0968C41.6437 19.1155 41.5969 19.2655 41.3156 19.528C41.0344 19.7812 41.1562 19.6968 41.3625 19.6968C41.5781 19.6968 42.1031 19.6968 41.7937 19.9405C41.4937 20.1937 41.3719 20.3155 41.2312 20.278C41.0625 20.2312 41.2312 20.128 41.3062 20.0812C41.3812 20.0343 41.4187 19.9687 41.2687 20.0249C41.1187 20.0718 41.0719 20.0905 40.95 19.8843C40.8375 19.6687 40.875 19.7343 40.9312 19.5937C40.9875 19.453 41.1 19.3124 40.9687 19.3593C40.8187 19.4155 40.8375 19.4249 40.8469 19.2655C40.8562 19.1062 40.6875 19.0687 40.6875 19.0687C40.6875 19.0687 40.7625 19.228 40.6968 19.3312C40.6406 19.4249 40.6312 19.4624 40.7344 19.4812C40.8281 19.5187 40.9218 19.603 40.7906 19.6968C40.6593 19.7812 40.6781 19.7624 40.7531 19.8187C40.8469 19.8843 40.9687 19.9405 40.8375 20.0718C40.7062 20.203 40.8094 20.1655 40.875 20.1655C40.95 20.1655 41.0906 20.2218 41.0906 20.353C41.0906 20.4655 41.0906 20.4937 41.3062 20.3812C41.5218 20.2593 41.9344 20.278 41.9344 20.4374C41.9344 20.6062 41.8781 20.653 42.1031 20.5124C42.3281 20.3718 42.4312 20.6437 42.5906 20.5124C42.7406 20.3718 42.8344 20.2499 43.0219 20.4749C43.2 20.6999 43.1437 20.7562 42.9281 20.9249C42.7125 21.0843 43.0312 20.9624 43.2 20.878C43.3687 20.7937 43.8281 20.7374 44.0906 20.8593C44.3625 20.9718 44.4375 20.953 44.6344 20.8593C44.8312 20.7843 44.9344 20.7655 45.225 20.9624C45.5344 21.1687 45.7594 21.2062 45.9187 21.1968C45.9187 21.1968 45.5906 21.328 45.2156 21.3468C44.8406 21.3749 44.6531 21.4405 44.5875 21.4968C44.5875 21.4968 44.8031 21.6374 44.85 21.7968C44.85 21.7968 45.0937 21.7687 45.2062 21.8155C45.2062 21.8155 45.15 21.9937 45.3 22.0874C45.45 22.1812 45.5531 22.2187 45.4406 22.3405C45.3281 22.4718 45.6187 22.4155 45.45 22.5937C45.2906 22.7812 45.2531 22.8749 45.2437 23.0155C45.2437 23.1655 45.2812 23.1843 45.1406 23.203C44.9906 23.2124 45.1594 23.3812 45.0937 23.578C45.0281 23.7655 44.625 23.7374 44.6437 24.253C44.6437 24.253 44.7562 23.9999 45 23.7843C45.2344 23.5593 45.2437 23.5405 45.2344 23.4093C45.2344 23.278 45.225 23.3062 45.3469 23.203C45.4781 23.1093 45.2906 23.0155 45.4219 22.8655C45.5437 22.7249 45.4406 22.753 45.5906 22.6124C45.7312 22.4624 45.45 22.453 45.6094 22.303C45.75 22.153 45.2344 21.9749 45.3937 21.8812C45.5344 21.7874 45.7969 21.6562 44.925 21.6655C44.925 21.6655 45.1406 21.328 45.8625 21.3937C45.8625 21.3937 45.675 21.5437 45.6562 21.6749L45.8062 21.7218C45.8062 21.7218 45.7687 21.8249 45.6281 21.9374C45.6281 21.9374 46.0219 22.153 46.0875 22.2937C46.0875 22.2937 45.8437 22.3687 45.7781 22.4624C45.7781 22.4624 45.8906 22.5843 45.9281 22.7437C45.9281 22.7437 45.6562 22.7062 45.6281 22.903C45.5906 23.0999 45.5062 22.9687 45.5062 23.0905C45.5062 23.2124 45.5156 23.2499 45.4219 23.278C45.3281 23.278 45.4125 23.3812 45.4219 23.4468C45.4406 23.5124 45.4781 23.6624 45.4594 23.7093C45.4594 23.7093 45.3187 23.7093 45.2625 23.728C45.2625 23.728 45.3 24.0093 45.1406 24.0562C44.9812 24.0937 45.2344 24.1499 45.0562 24.178C44.8875 24.2062 44.9156 24.2249 44.7094 24.5999C44.7094 24.5999 44.8875 24.5062 45.0656 24.3749C45.2531 24.253 45.0469 24.2812 45.3469 23.9999C45.6562 23.6905 45.6 23.6718 45.5719 23.5218C45.5531 23.3718 45.5437 23.2405 45.6562 23.0999C45.7687 22.9593 45.7969 22.7999 46.1906 22.8187C46.1906 22.8187 46.0781 22.5562 45.9375 22.4905C45.9375 22.4905 46.125 22.3687 46.3125 22.3499C46.3125 22.3499 46.1437 22.1343 45.7875 21.9374C45.7875 21.9374 46.0687 21.6937 46.1531 21.5718C46.1531 21.5718 46.0125 21.5999 45.9 21.5718C45.9 21.5718 45.9562 21.4499 46.2187 21.2812C46.2187 21.2812 46.3594 21.4124 46.35 21.553C46.35 21.553 46.8 21.2999 47.0531 21.328C47.0531 21.328 47.1844 21.6468 46.5562 22.2655C46.5562 22.2655 46.95 22.2937 47.1187 22.2655C47.1187 22.2655 47.025 22.5655 46.5562 22.7343C46.0875 22.9218 46.65 23.128 46.1719 23.0905C45.7031 23.053 45.8437 23.2124 45.8531 23.4562C45.8719 23.6999 45.8812 23.953 45.8719 24.0187C45.8719 24.0187 45.4969 23.8968 45.4969 24.2624C45.5062 24.6374 45.3094 24.7124 45.2625 24.7405C45.2625 24.7405 45.15 24.6468 44.9812 24.5812C44.9812 24.5812 44.7469 25.0405 44.3719 25.303Z" fill="#5A3719"/>
<path d="M43.8187 20.6723C43.8187 20.6723 43.95 20.6535 44.175 20.7848C44.3906 20.9254 44.6062 20.6441 44.3625 20.5691C44.1187 20.4941 44.3625 20.4004 44.5875 20.5879C44.8125 20.766 44.8968 20.6723 44.9812 20.616C45.0562 20.5504 45.1593 20.5129 45.0093 20.4098C44.8593 20.3066 45.1031 20.3535 45.225 20.4379C45.3375 20.5035 45.2906 20.5785 45.2812 20.5973C45.2625 20.616 45.2531 20.8691 45.4687 20.6441C45.6937 20.4098 45.8156 20.1941 45.8062 20.0816C45.8062 20.0816 45.9281 20.1566 45.9468 20.2973C45.9656 20.4379 46.1343 20.2223 46.1906 20.1473C46.2468 20.0723 46.3406 19.866 46.3312 19.7348C46.3312 19.7348 46.4812 19.9691 46.7062 19.7348C46.9312 19.5004 46.8375 19.641 47.1 19.5754C47.407 19.4931 47.6837 19.3238 47.8968 19.0879C48.0843 18.8535 48.0937 19.0129 48.3281 18.9566C48.5625 18.9004 49.05 18.5629 49.0968 18.3848C49.1343 18.2067 49.125 18.0941 49.0593 18.1598C48.9937 18.216 49.0218 18.1598 48.9187 18.1035C48.8156 18.0379 48.6656 18.1879 48.6656 18.1879C48.6656 18.1879 48.8156 18.3004 48.6937 18.3473C48.5812 18.4035 48.4781 18.5629 48.2625 18.4973C48.0468 18.441 47.8125 18.7035 47.8125 18.7035C47.8125 18.7035 48 18.8535 47.7468 18.9566C47.4937 19.0504 47.5312 19.0879 47.3812 18.9754C47.3812 18.9754 47.1093 19.3223 46.95 19.3973C46.95 19.3973 46.8843 19.3973 46.8375 19.3223C46.8375 19.3223 46.65 19.5192 46.575 19.5567C46.575 19.5567 46.4531 19.4629 46.3593 19.416C46.3593 19.416 46.1437 19.6879 45.9656 19.7629C45.9656 19.7629 45.9093 19.6692 45.7968 19.6035C45.7968 19.6035 45.7406 19.941 45.3656 20.1473C45.3656 20.1473 45.3843 20.0535 45.1968 19.9317C45.1968 19.9317 44.7281 20.3348 44.55 20.3723C44.3625 20.4098 44.5312 20.2879 44.55 20.2317C44.5875 20.1848 44.7 20.016 44.475 19.9504C44.25 19.8848 44.2875 19.9973 44.2406 20.016C44.1843 20.0348 44.1843 19.9785 44.0343 19.9973C43.8843 20.016 43.9125 20.0816 43.8468 20.1098C43.7718 20.1285 43.5093 20.0629 43.5281 20.241C43.5375 20.4098 43.6687 20.5317 43.4343 20.6348C43.2 20.7285 43.5281 20.7098 43.8187 20.6723Z" fill="#7B3C20"/>
<path d="M44.7656 20.1848C44.7656 20.1848 44.8219 19.9504 44.625 19.8566C44.625 19.8566 45.8625 19.6598 44.925 19.1816C44.925 19.1816 46.0406 18.966 45.7688 18.6098C45.5156 18.2535 45.2625 18.3285 45.225 18.3285C45.1875 18.3285 45.4594 18.1316 45.5344 18.1598C45.6 18.1879 46.4906 18.5254 46.2656 18.2254C46.0406 17.9441 46.0594 17.9535 46.0219 17.8691C46.0219 17.8691 46.3125 17.8691 46.7625 18.3004C46.7625 18.3004 46.8563 18.2066 46.8469 18.0285C46.8469 18.0285 47.1562 18.1223 47.2594 18.216C47.2594 18.216 47.3156 18.1035 47.2875 18.0473C47.2875 18.0473 47.5688 18.1879 47.6625 18.3473C47.6625 18.3473 47.7844 18.2348 47.8031 18.1035C47.8031 18.1035 48.0844 18.2254 48.15 18.3098C48.15 18.3098 48.2438 18.1879 48.2063 18.0285C48.2063 18.0285 48.6656 18.1504 48.7219 17.8785C48.7219 17.8785 49.1813 17.9723 48.8813 18.1504C48.5063 18.3848 48.8437 18.0941 48.45 18.366C48.15 18.5816 47.9813 18.8254 47.8313 18.7785C47.7281 18.7316 47.5969 19.0504 47.4563 18.9004C47.3156 18.741 47.3156 18.8066 47.2031 18.966C47.1258 19.0832 47.038 19.193 46.9406 19.2941C46.9406 19.2941 46.8656 19.2473 46.7906 19.1816C46.7906 19.1816 46.7156 19.3316 46.6031 19.4441C46.6031 19.4441 46.5094 19.3223 46.3594 19.2566C46.3594 19.2566 46.1438 19.5098 46.0031 19.6035C46.0031 19.6035 45.8719 19.4723 45.7312 19.4254C45.7312 19.4254 45.7125 19.7816 45.4406 19.9598C45.4406 19.9598 45.3844 19.8473 45.1969 19.7723C45.1969 19.7723 45.0656 19.9879 44.7656 20.1754V20.1848Z" fill="#5A3719"/>
<path d="M44.119 19.6404C44.119 19.6404 43.969 19.7529 44.0628 19.8748C44.1565 20.0061 44.1659 19.8561 44.2878 19.8467C44.4097 19.8279 45.9284 19.5654 44.5503 19.1623C44.5503 19.1623 44.6159 19.1061 44.8409 19.0873C45.0847 19.0592 45.9472 18.8342 45.544 18.5248C45.1409 18.2248 44.8034 18.6279 45.1409 18.2623C45.4222 17.9717 45.1972 17.8311 45.1972 17.8311C45.1972 17.8311 44.4003 18.3561 44.2222 18.4592C44.0534 18.5529 43.7909 18.7404 44.0909 18.8342C44.4003 18.9279 44.5972 18.5154 44.6253 18.6092C44.6534 18.7029 44.0253 19.0592 44.119 19.2092C44.2034 19.3779 44.1847 19.5186 44.344 19.4811C44.494 19.4529 44.9065 19.5561 44.5784 19.5467C44.2315 19.5373 44.1097 19.6404 44.1097 19.6404H44.119Z" fill="#5A3719"/>
<path d="M44.6629 18.872C44.6629 18.872 44.5223 18.9751 44.7098 18.9282C44.8973 18.8814 45.2629 18.797 45.1973 18.7032C45.1223 18.6095 44.8786 18.722 44.6629 18.872Z" fill="black"/>
<path d="M42.7783 18.6656C42.7783 18.6656 42.6751 18.7594 42.7783 18.825C42.8814 18.9 43.247 18.6375 43.2939 18.6C43.3501 18.5625 43.4814 18.5625 43.2939 18.7031C43.1064 18.8438 42.9376 18.9844 42.8251 19.1344C42.8251 19.1344 43.4251 18.9656 43.8189 18.6281C44.222 18.2812 43.8095 18.5062 44.4751 18.1781C45.1595 17.85 45.5158 17.325 45.1501 17.3812C44.7939 17.4375 44.4658 17.85 44.1751 18.0094C43.8939 18.1688 43.7345 18.1969 43.7814 18.1031C43.8189 18.0094 44.0345 18.0469 44.4283 17.7281C44.8126 17.4188 44.7283 17.4469 44.7283 17.3344C44.7283 17.2219 44.5876 16.9594 45.1689 16.6406C45.7501 16.3312 47.5689 15.2812 47.7283 14.9062C47.7283 14.9062 47.1939 14.9625 46.4908 15.4781C46.1051 15.8005 45.6836 16.0774 45.2345 16.3031C45.047 16.3781 45.0658 16.3219 44.9439 16.4813C44.6409 16.8003 44.325 17.1068 43.997 17.4C43.8751 17.4938 43.8283 17.55 43.8189 17.7562C43.8189 17.85 43.0314 18.4406 42.7876 18.6656H42.7783Z" fill="#5A3719"/>
<path d="M45.1872 17.2781C45.1872 17.2781 45.0465 17.3344 44.9059 17.2781C44.784 17.2125 44.8309 16.9406 45.1403 16.7625C45.5119 16.5599 45.9093 16.4085 46.3215 16.3125C46.3215 16.3125 46.2747 16.6688 45.3747 16.9781C45.3747 16.9781 45.4309 17.1656 45.1872 17.2781Z" fill="#5A3719"/>
<path d="M42.2812 17.9998C42.2812 17.9998 42.0656 18.1592 42.1594 18.2248C42.2531 18.3092 42.4031 18.3186 42.7219 18.0467C43.0594 17.7654 43.8563 17.0904 43.3594 17.0623C43.3594 17.0623 42.7031 17.0248 42.7312 17.4186C42.75 17.8123 42.3188 17.9811 42.2812 17.9998ZM40.7906 17.7654C40.7906 17.7654 41.2219 18.0186 41.0531 18.2248C41.0531 18.2248 42.3656 17.1186 41.9906 16.8748C41.6344 16.6311 41.3438 17.0904 41.4281 17.1279C41.5219 17.1842 41.7094 17.0904 41.6438 17.1842C41.3765 17.3976 41.0946 17.5918 40.8 17.7654H40.7906ZM40.4531 17.4092C40.4531 17.4092 40.7344 17.5029 40.7531 17.6248C40.7625 17.7373 41.6156 17.0248 41.3906 16.7154C41.2875 16.5748 40.8281 16.5279 40.7906 16.7904C40.7719 17.0717 41.2219 16.7623 41.0719 16.9592C40.8656 17.2123 40.5187 17.3717 40.4531 17.4092ZM43.5094 16.8092C43.5094 16.8092 43.3312 16.9404 43.5 17.0248C43.6688 17.0904 43.7625 16.9686 43.8469 16.9029C43.9313 16.8279 44.3438 16.5279 44.4281 16.3404C44.5219 16.1529 44.6625 16.0873 44.8125 15.9936C44.9531 15.8998 45.9938 15.3748 46.6406 14.8029C47.2781 14.2311 47.0156 14.3811 47.6719 14.0154C48.3281 13.6498 48.7688 13.3123 48.9094 12.9092C48.9094 12.9092 48.6 13.0029 48.3281 13.1904C47.999 13.4021 47.6646 13.6053 47.325 13.7998C47.2031 13.8467 47.0437 13.8561 46.95 13.9498C46.8562 14.0436 46.8562 14.1654 46.5469 14.4186C46.2188 14.6904 44.5781 15.8529 44.3719 16.0123C44.0794 16.2725 43.7919 16.5382 43.5094 16.8092Z" fill="#5A3719"/>
<path d="M42.1875 17.1936C42.1875 17.1936 42.375 17.0998 42.7125 17.1186C43.05 17.1373 44.3812 15.8436 44.775 15.5904C45.3739 15.1792 45.9586 14.7477 46.5281 14.2967C46.6969 14.1279 46.7156 13.9592 46.8656 13.8654C47.0063 13.7717 47.1469 13.7811 47.4656 13.5936C47.7937 13.4061 49.3687 12.4686 49.275 11.9248C49.275 11.9248 46.9313 13.3311 46.3969 13.7811C45.6477 14.3652 44.8752 14.9188 44.0813 15.4404C43.8188 15.6186 43.6125 15.9092 43.1531 16.2654C42.7125 16.6311 42.2625 16.9404 42.1875 17.2029V17.1936Z" fill="#AA5323"/>
<path d="M41.7002 16.6879C41.7002 16.6879 42.1314 16.6504 42.1877 16.866C42.1877 16.866 43.1252 16.2285 43.3314 15.966C43.5377 15.7035 43.2564 15.8535 43.7908 15.5066C44.651 14.9334 45.4951 14.3363 46.3221 13.716C46.5752 13.5004 47.0533 13.2004 47.4377 12.9473C47.8127 12.6848 49.3033 11.9535 49.1346 11.3535L47.8033 12.2441C47.5502 12.4129 47.4377 12.3191 47.1939 12.516C46.9502 12.7129 46.3971 13.1066 46.3033 13.2285C45.873 13.5973 45.4223 13.9416 44.9533 14.2598C44.5408 14.541 43.6314 15.066 43.1814 15.4598C42.6948 15.8807 42.201 16.2932 41.7002 16.6973V16.6879Z" fill="#AA5323"/>
<path d="M40.3496 16.575C40.3496 16.575 40.5652 16.575 40.6402 16.6594C40.6402 16.6594 41.0434 16.2937 41.4746 16.6594C41.4746 16.6594 43.0496 15.5813 43.209 15.3094C43.3684 15.0469 43.6309 15.0375 44.2402 14.5969C44.859 14.1469 45.2434 13.95 45.6465 13.6406C46.059 13.3219 46.4059 12.9562 46.6965 12.7687C46.9871 12.5812 47.7277 12.0938 47.6152 11.6719C47.6152 11.6719 47.0059 12.0094 46.6215 12.4406C46.2277 12.8719 46.2652 12.5062 45.8621 12.8625C45.3991 13.2888 44.886 13.6571 44.334 13.9594C43.8184 14.2125 44.1277 14.1844 43.7527 14.4281C43.3871 14.6625 43.4152 14.6156 43.284 14.6625C43.0999 14.7059 42.9332 14.8039 42.8059 14.9437C42.6559 15.1031 42.2996 15.3187 41.9059 15.5531C41.3564 15.8445 40.8354 16.1866 40.3496 16.575Z" fill="#AA5323"/>
<path d="M40.8282 15.7504C40.8282 15.7504 40.7344 15.5723 40.8938 15.441C41.0438 15.3191 41.325 14.991 41.3625 14.7848C41.4094 14.5691 41.3719 14.6066 41.8125 14.4285C43.0812 13.8955 44.2831 13.2159 45.3938 12.4035C45.5625 12.2629 45.9938 11.9723 46.1719 11.8223C46.1719 11.8223 46.2469 12.0566 46.0594 12.216C45.4156 12.7208 44.7425 13.1873 44.0438 13.6129C43.8375 13.716 43.3313 13.9785 43.1438 14.1285C42.9657 14.2785 42.9938 14.316 42.1875 14.7191C41.3907 15.1035 41.3438 15.1504 41.3719 15.1785C41.4 15.216 41.7657 15.0566 41.9344 14.9535C42.1032 14.8598 42.7594 14.5504 42.9657 14.391C43.1745 14.2213 43.3936 14.0647 43.6219 13.9223C44.1968 13.5925 44.7596 13.2423 45.3094 12.8723C45.6375 12.6191 45.7313 12.5441 45.8063 12.591C45.8719 12.6285 45.9938 12.6285 45.8438 12.7785C45.6938 12.9285 45.2157 13.341 45.0282 13.4629C44.8407 13.5848 44.2688 13.9316 44.1094 14.0066C43.95 14.1004 43.8844 14.241 43.7907 14.3066C43.7063 14.3816 43.4438 14.5598 43.1344 14.6348C42.825 14.7098 42.7594 14.9441 42.5438 15.0848C42.3282 15.216 40.8563 16.0223 40.8094 16.0504C40.8094 16.0504 40.8938 15.9566 40.8282 15.7504Z" fill="#AA5323"/>
<path d="M39.2809 15.2812C39.2809 15.2812 38.8309 15.525 38.9902 15.675C39.1496 15.8156 39.384 15.7688 39.4965 15.7313L39.7965 15.6375C39.834 15.6375 40.2184 15.5156 40.3215 15.3375C40.4152 15.15 40.6777 14.9438 40.884 14.7938C41.0902 14.6531 41.1652 14.4938 41.1371 14.3906L39.2809 15.2812ZM36.6184 17.3438C36.6184 17.3438 36.9371 17.1563 37.3684 17.2781C37.3684 17.2781 37.3496 17.175 37.2746 17.1188C37.2746 17.1188 37.809 16.9781 37.9215 16.7438C38.034 16.5094 38.0621 16.5563 38.1559 16.5C38.2684 16.425 38.9715 15.8625 38.8871 15.7406C38.8027 15.6187 38.7934 15.45 38.7277 15.3937C38.7277 15.3937 38.5871 15.5906 37.884 15.9281C37.209 16.2656 36.4402 16.5094 35.8777 17.2594C35.3246 18.0094 35.3809 18.4406 36.0652 18.6375C36.0652 18.6375 36.534 18.3375 37.7152 18.4406C38.8777 18.5437 39.2715 18.9844 39.3465 19.0594C39.4215 19.1438 39.6559 19.4344 39.4309 19.9125C39.4309 19.9125 39.6652 20.0156 39.6746 19.7906C39.7027 19.575 39.7121 19.6219 39.7684 19.65C39.8246 19.6875 39.8902 19.6969 39.8621 19.5187C39.8388 19.281 39.7653 19.051 39.6465 18.8438C39.5434 18.7031 39.6652 18.7687 39.7309 18.7875C39.7965 18.8156 40.0402 19.0219 39.8996 18.6469C39.759 18.2906 39.7121 18.4594 39.7121 18.4781C39.7121 18.5063 39.6746 18.5906 39.3559 18.3469C39.1087 18.1596 38.829 18.0198 38.5309 17.9344C38.3152 17.8781 38.4652 17.8781 38.5965 17.8406C38.7277 17.7844 38.8871 17.7656 38.9527 17.6156C38.9527 17.6156 38.8215 17.6438 38.5965 17.5594C38.4144 17.5059 38.2225 17.495 38.0356 17.5275C37.8486 17.56 37.6717 17.6351 37.5184 17.7469C37.5184 17.7469 37.6309 17.325 37.284 17.3438C36.9465 17.3719 36.7027 17.3625 36.3465 17.6437C36.3465 17.6437 36.3184 17.2125 36.6652 16.9875C37.0121 16.7531 36.9652 16.8938 37.1527 16.8375C37.3402 16.7813 37.3684 16.5844 37.284 16.5187C37.284 16.5187 37.734 16.6031 38.484 15.975C38.484 15.975 38.0809 16.5094 37.5934 16.6125C37.5934 16.6125 37.509 16.8937 37.059 16.9594C36.609 17.025 36.6277 17.2781 36.6277 17.3438H36.6184Z" fill="#7B3C20"/>
<path d="M35.3439 19.9409C35.3439 19.9409 35.5502 18.619 36.7971 18.5253C37.8658 18.4315 38.2127 18.5722 38.4283 18.6472C38.6439 18.7222 39.1783 18.8722 38.9721 19.0409C38.7658 19.2097 38.6439 19.1815 38.6439 19.1815C38.6439 19.1815 38.8783 18.9097 38.6627 18.8722C38.4471 18.8253 38.4377 18.9565 38.4096 19.0597C38.3721 19.1815 38.3627 19.3034 38.2596 19.3972C38.2596 19.3972 38.1471 19.2659 37.9877 19.3784C37.8283 19.4909 37.9689 19.4909 38.0346 19.4722C38.0908 19.4534 38.1752 19.4253 38.1564 19.519C38.1471 19.6128 38.0627 19.7815 37.8002 19.9128C37.5471 20.044 37.5564 20.0347 37.2564 20.0909C36.9471 20.1378 36.6658 20.2597 36.2721 20.5878C35.8783 20.9253 35.4564 20.8128 35.3721 20.4472C35.2971 20.1284 35.3346 19.9409 35.3346 19.9409H35.3439Z" fill="#5A3719"/>
<path d="M36.75 19.8941C36.75 19.8941 36.8625 19.641 36.6562 19.5191C36.6562 19.5191 36.0094 19.6316 35.8125 19.4348C35.8125 19.4348 36.5156 19.3973 36.9563 19.2191C37.3875 19.0598 37.2656 18.9379 37.1156 18.9004C36.9656 18.8723 36.6844 18.9473 36.6562 19.0879C36.6562 19.0879 36.5625 18.9379 36.675 18.8441C36.7969 18.741 36.9562 18.7223 37.1156 18.7691C37.275 18.8066 37.4062 18.8816 37.9219 18.6191C37.9219 18.6191 38.2125 18.6848 38.2312 18.8816C38.2312 19.0879 38.2031 19.1629 38.175 19.191C38.1563 19.2285 38.1187 19.2848 38.0531 19.2848C37.9969 19.266 37.9125 19.2566 37.8375 19.3973C37.7719 19.5379 37.7156 19.6504 37.5938 19.7441C37.5938 19.7441 37.7344 19.3129 37.3594 19.2098C37.3594 19.2098 37.05 19.3973 36.8156 19.4066C36.8156 19.4066 37.1156 19.6879 36.7406 19.8941H36.75Z" fill="black"/>
<path d="M37.4347 19.1063C37.4347 19.1063 37.2847 18.9563 37.4722 18.9282C37.6597 18.9188 37.9035 19.0594 37.866 19.1813C37.8097 19.2938 37.5847 19.2844 37.4347 19.1063Z" fill="#5A3719"/>
<path d="M37.7529 18.9185C37.7529 18.9185 37.9216 18.9654 37.9591 19.0872C38.006 19.1997 38.1091 19.031 38.1091 18.9841C38.0998 18.9279 37.9966 18.7029 37.8279 18.806C37.6404 18.9091 37.7341 18.9091 37.7529 18.9185Z" fill="#5A3719"/>
<path d="M37.3035 21.1871C37.3035 21.1871 37.6504 21.0184 37.9504 21.0465C37.9504 21.0465 37.8285 20.634 38.0348 20.6996C38.2316 20.7746 38.1754 20.7371 38.2223 20.7371C38.2223 20.7371 38.2316 20.4652 38.1754 20.3621C38.1754 20.3621 38.391 20.409 38.6066 20.409C38.6066 20.409 38.4004 20.0246 38.6254 19.7527C38.6662 19.8296 38.7221 19.8975 38.7898 19.9523C38.8574 20.007 38.9354 20.0476 39.0191 20.0715V19.8559C39.0191 19.8559 39.1785 19.8277 39.3004 19.8934C39.4316 19.9684 39.5348 19.1809 39.1598 19.0215C39.1598 19.0215 39.066 19.1621 38.7191 19.2371C38.3723 19.3121 38.3723 19.3777 38.2316 19.6402C38.091 19.9027 37.9504 19.9121 37.6504 20.109C37.3691 20.2965 37.1816 20.6715 37.1816 20.709C37.1816 20.709 37.3223 20.8965 37.3035 21.1871Z" fill="#7B3C20"/>
<path d="M34.3123 23.9904C34.3123 23.9904 34.2841 23.4092 34.5748 23.1279C34.8654 22.8467 36.2435 21.3936 36.4591 20.9904C36.4591 20.9904 36.6466 21.1123 36.6466 21.3467C36.6466 21.3467 36.881 20.9436 37.0685 20.7842C37.0685 20.7842 37.2279 20.9529 37.2091 21.2904C37.2091 21.2904 37.5373 21.1123 38.0529 21.1123C38.0529 21.1123 37.8654 21.3373 37.856 21.4779C37.856 21.4779 38.5685 21.3842 38.9529 21.4498C38.9529 21.4498 37.9591 22.0123 38.231 22.0592C38.5216 22.1061 38.8123 22.0592 38.8123 22.0592C38.8123 22.0592 38.4935 22.3686 37.9873 22.4342C37.9873 22.4342 38.6341 22.4342 38.756 22.5748C38.756 22.5748 38.1373 22.6686 37.631 23.0436C37.631 23.0436 37.5935 23.0248 37.5935 22.8842C37.5935 22.8842 37.5654 23.0154 37.4248 23.1373C37.2841 23.2498 36.9466 23.5123 36.8154 23.6342C36.6841 23.7561 36.4591 24.0092 36.1966 24.0092C36.1966 24.0092 36.2529 23.8123 36.0654 23.7467C35.968 23.7135 35.8632 23.7091 35.7634 23.7341C35.6636 23.759 35.5732 23.8122 35.5029 23.8873C35.5029 23.8873 34.8466 23.8967 34.6216 23.9342C34.6216 23.9342 34.7716 23.6904 34.9029 23.6904C35.0529 23.6904 35.6154 23.7842 35.6623 23.3904C35.7185 23.0154 35.306 23.1092 35.456 22.8842C35.6154 22.6592 35.5779 22.6779 35.5873 22.6404C35.5873 22.6404 35.456 22.7154 35.381 22.9217C35.32 23.1497 35.1806 23.3488 34.9873 23.4842C34.8027 23.6032 34.6486 23.7637 34.5373 23.9529C34.5373 23.9529 34.4154 23.9529 34.3123 23.9904Z" fill="white"/>
<path d="M34.9502 23.6434C34.9502 23.6434 34.9783 23.5684 35.1658 23.5309C35.3721 23.5027 35.3814 23.409 35.3533 23.3621C35.3252 23.3246 35.2127 23.3246 35.4002 23.0996C35.4002 23.0996 35.4752 23.1277 35.5127 23.1746C35.5689 23.2309 35.7846 23.6902 34.9502 23.6434Z" fill="white"/>
<path d="M34.4902 23.2404C34.4902 23.6154 34.9871 23.4748 34.9871 23.4748C34.855 23.5723 34.7354 23.6857 34.6309 23.8123C34.6684 23.6248 34.3496 23.5779 34.3496 23.5779C34.3782 23.4587 34.4257 23.3447 34.4902 23.2404ZM36.2996 21.2248L36.459 20.9904C36.459 20.9904 36.6465 21.1123 36.6465 21.3467C36.6465 21.3467 36.8809 20.9436 37.0684 20.7842C37.0684 20.7842 37.2277 20.9529 37.209 21.2904C37.209 21.2904 37.5371 21.1123 38.0527 21.1123C38.0527 21.1123 37.8652 21.3373 37.8559 21.4779C37.8559 21.4779 38.5684 21.3842 38.9527 21.4498C38.9527 21.4498 37.959 22.0123 38.2309 22.0592C38.5215 22.1061 38.8121 22.0592 38.8121 22.0592C38.8121 22.0592 38.4934 22.3686 37.9871 22.4342C37.9871 22.4342 38.634 22.4342 38.7559 22.5748C38.7559 22.5748 38.5684 22.6029 38.3246 22.6873C38.3246 22.6873 38.1465 22.5186 37.6121 22.5467C37.6121 22.5467 38.0246 22.3029 38.3621 22.2279C38.3621 22.2279 38.2121 22.0404 37.9871 22.2186C37.9871 22.2186 37.5277 21.9092 37.9121 21.6373C37.9121 21.6373 37.6496 21.5904 37.4715 21.7123C37.4715 21.7123 37.4715 21.4967 37.6684 21.4029C37.6684 21.4029 37.1621 21.3092 37.0402 21.6842C37.0402 21.6842 36.9465 21.5436 36.9934 21.3654C36.9934 21.3654 36.684 21.5436 36.5434 21.7404C36.5434 21.7404 36.4965 21.3654 36.2996 21.2248ZM35.3246 23.6248C35.2402 23.6436 35.109 23.6529 34.9496 23.6436C34.9496 23.6436 34.9684 23.5967 35.0715 23.5498C35.0715 23.5498 35.109 23.6248 35.3246 23.6248Z" fill="#999999"/>
<path d="M36.2441 22.1908C36.2441 22.1908 36.4785 22.3783 36.5535 22.4721C36.5535 22.4721 36.7691 22.3408 36.8348 22.2189C36.8348 22.2189 37.0129 22.3221 37.0598 22.4814C37.0598 22.4814 37.1816 22.4064 37.2004 22.2939C37.2004 22.2939 37.4816 22.3502 37.5941 22.4439C37.5941 22.4439 37.6316 22.1627 37.5941 21.9939C37.5941 21.9939 37.791 22.0127 37.9129 22.0596C37.9129 22.0596 37.8004 21.8721 38.3816 21.6377C38.3816 21.6377 37.941 21.7408 37.7723 21.9189C37.7723 21.9189 37.5848 21.9377 37.5004 21.8814V22.3033C37.5004 22.3033 37.3879 22.2471 37.1723 22.2002C37.1723 22.2002 37.116 22.2939 37.0785 22.3127C37.0785 22.3127 36.9379 22.2002 36.8816 22.0596C36.8816 22.0596 36.666 22.2564 36.6004 22.3408C36.6004 22.3408 36.3848 22.1908 36.2441 22.1908Z" fill="black"/>
<path d="M34.9219 25.0597C34.9219 25.0597 35.0156 25.0972 35.2312 24.9285C35.4469 24.7597 36.0469 24.3754 36.0938 24.066C36.1594 23.7566 35.9062 23.7472 35.7188 23.8316C35.5125 23.9254 35.5969 24.0847 35.6062 24.1504C35.6062 24.2066 35.625 24.4222 35.2969 24.7129L34.9219 25.0597Z" fill="#FFC221"/>
<path d="M34.8659 25.1535C34.8659 25.1535 34.3784 24.9472 34.8096 24.7316C35.2409 24.516 35.4377 24.4597 35.4846 24.2722C35.5409 24.0941 35.5034 24.1316 35.344 24.2066C35.1846 24.2722 34.5752 24.5629 34.4815 24.3004C34.4815 24.3004 34.7346 24.3941 35.044 24.2441C35.3627 24.0847 35.6252 24.0472 35.419 23.9816C35.0748 23.9457 34.7272 23.9615 34.3877 24.0285C34.2565 24.066 34.294 24.0566 34.2659 24.1785C34.2471 24.3004 34.1159 24.5535 34.0596 24.6191C34.0127 24.6941 33.8909 24.9941 34.1159 25.1347C34.23 25.1984 34.3579 25.2334 34.4885 25.2367C34.6192 25.2399 34.7487 25.2114 34.8659 25.1535Z" fill="#FFC221"/>
<path d="M34.678 24.0938C34.678 24.0938 34.5562 24.1125 34.5843 24.1594C34.603 24.2063 34.6312 24.1969 34.678 24.1969C34.7062 24.1969 34.7718 24.1781 34.7812 24.15C34.7812 24.1219 34.7062 24.0844 34.678 24.1031V24.0938Z" fill="black"/>
<path d="M34.828 25.0402C34.828 25.0402 34.603 24.9371 34.8655 24.7965C35.1187 24.6559 35.3905 24.5152 35.428 24.459C35.428 24.459 35.3062 24.6371 34.828 25.0402Z" fill="white"/>
</g>
<defs>
<clipPath id="clip0_200_80230">
<rect width="60" height="45" fill="white" transform="translate(-7.5)"/>
</clipPath>
</defs>
</svg>
