<svg width="45" height="45" viewBox="0 0 45 45" fill="none" xmlns="http://www.w3.org/2000/svg">
<g clip-path="url(#clip0_200_80019)">
<path d="M-7.5 0V44.9996H59.9993V0H-7.5Z" fill="#3399CC"/>
<path d="M-7.5 30V32.5H59.9993V30H-7.5ZM-7.5 34.9999V37.4999H59.9993V34.9999H-7.5Z" fill="#FFFF00"/>
<path d="M5.87793 2.625L6.14981 2.90625L5.86856 2.625H5.87793ZM5.59668 3.1875L5.87793 3.46875L5.59668 3.1875ZM6.14981 3.1875L6.43106 3.46875L6.14981 3.1875Z" fill="#99CCCC"/>
<path d="M5.59668 3.46836L5.87793 3.74023L5.59668 3.45898M6.14981 3.45898L6.43106 3.74023L6.14981 3.45898Z" fill="#CCCCFF"/>
<path d="M5.31543 4.0127L5.59668 4.29395L5.31543 4.0127Z" fill="#66CCCC"/>
<path d="M5.87851 4.0127L6.15039 4.29395L5.86914 4.0127H5.87851Z" fill="#CC6666"/>
<path d="M6.43125 4.0127L6.70312 4.29395L6.42188 4.0127H6.43125Z" fill="#66CCCC"/>
<path d="M5.31543 4.29395L5.59668 4.5752L5.31543 4.29395ZM6.43106 4.29395L6.70293 4.5752L6.42168 4.29395H6.43106Z" fill="#CCCCFF"/>
<path d="M5.59668 4.56543L5.87793 4.84668L5.59668 4.56543ZM6.14981 4.56543L6.43106 4.84668L6.14981 4.56543Z" fill="#FFCCCC"/>
<path d="M5.04395 4.84668L5.3252 5.12793L5.04395 4.84668Z" fill="#66CCCC"/>
<path d="M5.83144 3.1875L3.89082 10.5469L-3.4873 12.5625L3.86269 14.4844L5.83144 21.8344L7.79082 14.4844L15.1408 12.5156L7.79082 10.5562L5.82207 3.20625L5.83144 3.1875Z" fill="#CC0000"/>
<path fill-rule="evenodd" clip-rule="evenodd" d="M5.64453 3.21534L3.7483 10.4063L-4.15918 12.5666L3.72094 14.6271L5.83153 22.5066L7.93226 14.6264L15.8123 12.5156L7.93209 10.4149L5.98929 3.16178L5.88582 3.1895L5.676 3.11035L5.6372 3.18796L5.64453 3.21534ZM5.8253 3.89022L4.0327 10.6882L-2.81606 12.5592L4.00382 14.3425L5.83073 21.163L7.64875 14.3432L14.4687 12.5164L7.64892 10.6984L5.8253 3.89022Z" fill="white"/>
<path d="M6.70312 4.84668L6.98438 5.12793L6.70312 4.84668Z" fill="#66CCCC"/>
<path d="M5.04395 5.11914L5.3252 5.40039L5.04395 5.11914ZM6.70332 5.11914L6.98457 5.40039L6.70332 5.11914Z" fill="#99CCFF"/>
<path d="M5.31543 5.40039L5.59668 5.68164L5.31543 5.40039ZM6.43106 5.40039L6.70293 5.68164L6.42168 5.40039H6.43106Z" fill="#FFCCCC"/>
<path d="M4.7627 5.67188L5.04395 5.95312L4.7627 5.67188Z" fill="#6699CC"/>
<path d="M5.40918 5.85938L5.50293 6.04688L5.40918 5.85938ZM6.51543 5.85938L6.60918 6.04688L6.51543 5.85938Z" fill="#CC3333"/>
<path d="M6.98438 5.67188L7.26562 5.95312L6.98438 5.67188Z" fill="#6699CC"/>
<path d="M4.7627 5.95312L5.04395 6.23438L4.7627 5.95312ZM6.98457 5.95312L7.26582 6.23438L6.98457 5.95312Z" fill="#99CCFF"/>
<path d="M5.04395 6.22461L5.3252 6.50586L5.04395 6.22461ZM6.70332 6.22461L6.98457 6.50586L6.70332 6.22461Z" fill="#FFCCCC"/>
<path d="M4.49023 6.50586L4.77148 6.78711L4.49023 6.50586ZM7.25586 6.50586L7.53711 6.78711L7.25586 6.50586Z" fill="#6699CC"/>
<path d="M4.49023 6.77832L4.77148 7.05957L4.49023 6.77832ZM7.25586 6.77832L7.53711 7.05957L7.25586 6.77832Z" fill="#99CCCC"/>
<path d="M4.49023 7.05957L4.77148 7.34082L4.49023 7.05957ZM7.25586 7.05957L7.53711 7.34082L7.25586 7.05957Z" fill="#CCFFFF"/>
<path d="M4.21836 7.34043L4.49023 7.6123L4.20898 7.33105L4.21836 7.34043Z" fill="#6699CC"/>
<path d="M4.7627 7.34043L5.04395 7.6123L4.7627 7.33105M6.98457 7.33105L7.26582 7.6123L6.98457 7.33105Z" fill="#FFCCCC"/>
<path d="M7.53711 7.34043L7.81836 7.6123L7.53711 7.33105V7.34043Z" fill="#6699CC"/>
<path d="M4.21836 7.6123L4.49023 7.89355L4.20898 7.6123H4.21836Z" fill="#99CCCC"/>
<path d="M4.85645 7.7998L4.9502 7.9873L4.85645 7.7998ZM7.06894 7.7998L7.16269 7.9873L7.06894 7.7998Z" fill="#CC3333"/>
<path d="M7.53711 7.6123L7.81836 7.89355L7.53711 7.6123Z" fill="#99CCCC"/>
<path d="M4.21836 7.89355L4.49023 8.1748L4.20898 7.89355M7.53711 7.89355L7.81836 8.1748L7.53711 7.89355Z" fill="#CCFFFF"/>
<path d="M4.49023 8.16602L4.77148 8.44727L4.49023 8.16602ZM7.25586 8.16602L7.53711 8.44727L7.25586 8.16602Z" fill="#FFCCCC"/>
<path d="M3.9375 8.4375L4.21875 8.71875L3.9375 8.4375Z" fill="#99CCCC"/>
<path d="M4.58398 8.625L4.67773 8.8125L4.58398 8.625ZM7.34961 8.625L7.44336 8.8125L7.34961 8.625Z" fill="#CC3333"/>
<path d="M7.80957 8.4375L8.09082 8.71875L7.80957 8.4375Z" fill="#99CCCC"/>
<path d="M3.9375 8.71875L4.21875 9L3.9375 8.71875ZM7.80938 8.71875L8.09063 9L7.80938 8.71875Z" fill="#CCCCFF"/>
<path d="M4.21836 9L4.49023 9.28125L4.20898 9M7.53711 9L7.81836 9.28125L7.53711 9Z" fill="#FFCCCC"/>
<path d="M3.65625 9.28086L3.9375 9.55273L3.65625 9.27148V9.28086Z" fill="#99CCCC"/>
<path d="M4.31211 9.45898L4.39648 9.64648L4.30273 9.45898M7.62148 9.45898L7.71523 9.64648L7.62148 9.45898Z" fill="#CC3333"/>
<path d="M8.09082 9.28086L8.37207 9.55273L8.09082 9.27148V9.28086Z" fill="#99CCCC"/>
<path d="M3.65625 9.55273L3.9375 9.83398L3.65625 9.55273ZM8.09063 9.55273L8.37188 9.83398L8.09063 9.55273Z" fill="#CCCCFF"/>
<path d="M3.9375 9.8252L4.21875 10.1064L3.9375 9.8252ZM7.80938 9.8252L8.09063 10.1064L7.80938 9.8252Z" fill="#FFCCCC"/>
<path d="M3.375 10.1064L3.65625 10.3877L3.375 10.1064Z" fill="#99CCCC"/>
<path d="M3.9375 10.1064L4.21875 10.3877L3.9375 10.1064ZM7.80938 10.1064L8.09063 10.3877L7.80938 10.1064Z" fill="#CC3333"/>
<path d="M8.3623 10.1064L8.64355 10.3877L8.3623 10.1064ZM2.5498 10.3877L2.83105 10.6596L2.5498 10.3783V10.3877Z" fill="#99CCCC"/>
<path d="M2.83105 10.3779L3.1123 10.6592L2.83105 10.3779ZM8.9248 10.3779L9.19668 10.6592L8.91543 10.3779H8.9248Z" fill="#CCCCFF"/>
<path d="M9.18711 10.3779L9.46836 10.6592L9.18711 10.3779ZM1.72461 10.6592L2.00586 10.9404L1.72461 10.6592Z" fill="#99CCCC"/>
<path d="M1.99707 10.6592L2.27832 10.9404L1.99707 10.6592Z" fill="#CCCCFF"/>
<path d="M3.10352 10.6592L3.38477 10.9404L3.10352 10.6592Z" fill="#FFCCCC"/>
<path d="M3.375 10.6592L3.65625 10.9404L3.375 10.6592ZM8.3625 10.6592L8.64375 10.9404L8.3625 10.6592Z" fill="#CC3333"/>
<path d="M8.64355 10.6592L8.9248 10.9404L8.64355 10.6592Z" fill="#FFCCCC"/>
<path d="M9.75 10.6592L10.0312 10.9404L9.75 10.6592Z" fill="#CCCCFF"/>
<path d="M10.0309 10.6592L10.3027 10.9404L10.0215 10.6592H10.0309Z" fill="#99CCCC"/>
<path d="M0.619141 10.9316L0.900391 11.2129L0.619141 10.9316Z" fill="#6699CC"/>
<path d="M0.890625 10.9316L1.17188 11.2129L0.890625 10.9316Z" fill="#99CCCC"/>
<path d="M1.17188 10.9316L1.45312 11.2129L1.17188 10.9316Z" fill="#CCFFFF"/>
<path d="M2.27832 10.9316L2.55957 11.2129L2.27832 10.9316Z" fill="#FFCCCC"/>
<path d="M2.7373 11.0254L2.9248 11.1191L2.7373 11.0254ZM9.10293 11.0254L9.29043 11.1191L9.10293 11.0254Z" fill="#CC3333"/>
<path d="M9.46875 10.9316L9.75 11.2129L9.46875 10.9316Z" fill="#FFCCCC"/>
<path d="M10.5752 10.9316L10.8564 11.2129L10.5752 10.9316Z" fill="#CCFFFF"/>
<path d="M10.8564 10.9316L11.1377 11.2129L10.8564 10.9316Z" fill="#99CCCC"/>
<path d="M11.1279 10.9316L11.4092 11.2129L11.1279 10.9316ZM-0.21582 11.2129L0.0654297 11.4941L-0.21582 11.2129Z" fill="#6699CC"/>
<path d="M0.0654297 11.2129L0.34668 11.4941L0.0654297 11.2129Z" fill="#99CCCC"/>
<path d="M0.337891 11.2129L0.619141 11.4941L0.337891 11.2129Z" fill="#CCFFFF"/>
<path d="M1.44336 11.2129L1.72461 11.4941L1.44336 11.2129Z" fill="#FFCCCC"/>
<path d="M1.90332 11.3066L2.09082 11.4004L1.90332 11.3066ZM9.92832 11.3066L10.1158 11.4004L9.92832 11.3066Z" fill="#CC3333"/>
<path d="M10.3027 11.2129L10.584 11.4941L10.3027 11.2129Z" fill="#FFCCCC"/>
<path d="M11.4092 11.2129L11.6904 11.4941L11.4092 11.2129Z" fill="#CCFFFF"/>
<path d="M11.6816 11.2129L11.9629 11.4941L11.6816 11.2129Z" fill="#99CCCC"/>
<path d="M11.9627 11.2129L12.2439 11.4941L11.9627 11.2129ZM-1.0498 11.4941L-0.768555 11.766L-1.0498 11.4848V11.4941Z" fill="#6699CC"/>
<path d="M0.619141 11.4844L0.900391 11.7656L0.619141 11.4844Z" fill="#FFCCCC"/>
<path d="M1.07812 11.5781L1.26563 11.6719L1.07812 11.5781ZM10.7625 11.5781L10.95 11.6719L10.7625 11.5781Z" fill="#CC3333"/>
<path d="M11.1279 11.4844L11.4092 11.7656L11.1279 11.4844Z" fill="#FFCCCC"/>
<path d="M12.5156 11.4844L12.7969 11.7656L12.5156 11.4844Z" fill="#99CCFF"/>
<path d="M12.7871 11.4844L13.0684 11.7656L12.7871 11.4844Z" fill="#6699CC"/>
<path d="M-0.487695 11.7656L-0.21582 12.0469L-0.49707 11.7656H-0.487695ZM12.2436 11.7656L12.5154 12.0469L12.2342 11.7656H12.2436Z" fill="#FFCCCC"/>
<path d="M13.3408 11.7656L13.6221 12.0469L13.3408 11.7656Z" fill="#99CCFF"/>
<path d="M13.6223 11.7656L13.9035 12.0469L13.6223 11.7656ZM-2.70898 12.0469L-2.42773 12.3187L-2.70898 12.0375V12.0469Z" fill="#66CCCC"/>
<path d="M-0.862305 12.1309L-0.674805 12.2246L-0.862305 12.1309ZM12.7033 12.1309L12.8908 12.2246L12.7033 12.1309Z" fill="#CC3333"/>
<path d="M13.0684 12.0371L13.3496 12.3184L13.0684 12.0371Z" fill="#FFCCCC"/>
<path d="M14.1748 12.0371L14.4561 12.3184L14.1748 12.0371Z" fill="#CCCCFF"/>
<path d="M14.4561 12.0371L14.7373 12.3184L14.4561 12.0371Z" fill="#66CCCC"/>
<path d="M-2.15625 12.3184L-1.875 12.5996L-2.15625 12.3184ZM13.9031 12.3184L14.1844 12.5996L13.9031 12.3184Z" fill="#FFCCCC"/>
<path d="M15 12.3184L15.2812 12.5996L15 12.3184Z" fill="#CCCCFF"/>
<path d="M15.2809 12.3184L15.5621 12.5996L15.2809 12.3184ZM-4.08789 12.5996L-3.80664 12.8715L-4.08789 12.5902V12.5996Z" fill="#99CCCC"/>
<path d="M-2.70898 12.5908L-2.42773 12.8721L-2.70898 12.5908ZM14.4473 12.5908L14.7285 12.8721L14.4473 12.5908Z" fill="#CC6666"/>
<path d="M15.8439 12.5908L16.1158 12.8721L15.8346 12.5908M-3.53418 12.8721L-3.25293 13.1533L-3.53418 12.8721Z" fill="#99CCCC"/>
<path d="M-2.15625 12.8721L-1.875 13.1533L-2.15625 12.8721ZM13.9031 12.8721L14.1844 13.1533L13.9031 12.8721Z" fill="#FFCCCC"/>
<path d="M15 12.8721L15.2812 13.1533L15 12.8721Z" fill="#CCCCFF"/>
<path d="M15.2812 12.8721L15.5625 13.1533L15.2812 12.8721Z" fill="#99CCCC"/>
<path d="M-0.862305 13.2373L-0.674805 13.3311L-0.862305 13.2373ZM12.7033 13.2373L12.8908 13.3311L12.7033 13.2373Z" fill="#CC3333"/>
<path d="M13.0684 13.1529L13.3496 13.4248L13.0684 13.1436V13.1529Z" fill="#FFCCCC"/>
<path d="M14.1748 13.1529L14.4561 13.4248L14.1748 13.1436V13.1529Z" fill="#CCCCFF"/>
<path d="M14.4562 13.1529L14.7375 13.4248L14.4562 13.1436M-1.875 13.4248L-1.59375 13.7061L-1.875 13.4248Z" fill="#66CCCC"/>
<path d="M-0.487695 13.4248L-0.21582 13.7061L-0.49707 13.4248H-0.487695ZM12.2436 13.4248L12.5154 13.7061L12.2342 13.4248H12.2436Z" fill="#FFCCCC"/>
<path d="M13.3408 13.4248L13.6221 13.7061L13.3408 13.4248Z" fill="#99CCFF"/>
<path d="M13.6221 13.4248L13.9033 13.7061L13.6221 13.4248Z" fill="#66CCCC"/>
<path d="M0.619141 13.7066L0.900391 13.9785L0.619141 13.6973V13.7066Z" fill="#FFCCCC"/>
<path d="M1.07812 13.791L1.26563 13.8848L1.07812 13.791ZM10.7625 13.791L10.95 13.8848L10.7625 13.791Z" fill="#CC3333"/>
<path d="M11.1279 13.7066L11.4092 13.9785L11.1279 13.6973V13.7066Z" fill="#FFCCCC"/>
<path d="M12.5156 13.7066L12.7969 13.9785L12.5156 13.6973V13.7066Z" fill="#99CCFF"/>
<path d="M12.7873 13.7066L13.0686 13.9785L12.7873 13.6973M-0.21582 13.9785L0.0654297 14.2598L-0.21582 13.9785Z" fill="#6699CC"/>
<path d="M0.0654297 13.9785L0.34668 14.2598L0.0654297 13.9785Z" fill="#99CCCC"/>
<path d="M0.337891 13.9785L0.619141 14.2598L0.337891 13.9785Z" fill="#CCFFFF"/>
<path d="M1.44336 13.9785L1.72461 14.2598L1.44336 13.9785Z" fill="#FFCCCC"/>
<path d="M1.90332 14.0625L2.09082 14.1562L1.90332 14.0625ZM9.92832 14.0625L10.1158 14.1562L9.92832 14.0625Z" fill="#CC3333"/>
<path d="M10.3027 13.9785L10.584 14.2598L10.3027 13.9785Z" fill="#FFCCCC"/>
<path d="M11.4092 13.9785L11.6904 14.2598L11.4092 13.9785Z" fill="#CCFFFF"/>
<path d="M11.6816 13.9785L11.9629 14.2598L11.6816 13.9785Z" fill="#99CCCC"/>
<path d="M11.9625 13.9785L12.2438 14.2598L11.9625 13.9785ZM0.61875 14.2598L0.890625 14.5316L0.609375 14.2504L0.61875 14.2598Z" fill="#6699CC"/>
<path d="M0.890625 14.25L1.17188 14.5312L0.890625 14.25Z" fill="#99CCCC"/>
<path d="M1.17188 14.25L1.45312 14.5312L1.17188 14.25Z" fill="#CCFFFF"/>
<path d="M2.27832 14.25L2.55957 14.5312L2.27832 14.25Z" fill="#FFCCCC"/>
<path d="M2.7373 14.3438L2.9248 14.4375L2.7373 14.3438ZM9.10293 14.3438L9.29043 14.4375L9.10293 14.3438Z" fill="#CC3333"/>
<path d="M9.46875 14.25L9.75 14.5312L9.46875 14.25Z" fill="#FFCCCC"/>
<path d="M10.5752 14.25L10.8564 14.5312L10.5752 14.25Z" fill="#CCFFFF"/>
<path d="M10.8564 14.25L11.1377 14.5312L10.8564 14.25Z" fill="#99CCCC"/>
<path d="M11.1279 14.25L11.4092 14.5312L11.1279 14.25Z" fill="#6699CC"/>
<path d="M1.72461 14.5312L2.00586 14.8125L1.72461 14.5312Z" fill="#99CCCC"/>
<path d="M1.99707 14.5312L2.27832 14.8125L1.99707 14.5312Z" fill="#CCCCFF"/>
<path d="M3.10352 14.5312L3.38477 14.8125L3.10352 14.5312Z" fill="#FFCCCC"/>
<path d="M3.375 14.5312L3.65625 14.8125L3.375 14.5312ZM8.3625 14.5312L8.64375 14.8125L8.3625 14.5312Z" fill="#CC3333"/>
<path d="M8.64355 14.5312L8.9248 14.8125L8.64355 14.5312Z" fill="#FFCCCC"/>
<path d="M9.75 14.5312L10.0312 14.8125L9.75 14.5312Z" fill="#CCCCFF"/>
<path d="M10.0311 14.5312L10.3029 14.8125L10.0217 14.5312M2.5498 14.8125L2.83105 15.0938L2.5498 14.8125Z" fill="#99CCCC"/>
<path d="M2.83105 14.8125L3.1123 15.0938L2.83105 14.8125ZM8.9248 14.8125L9.19668 15.0938L8.91543 14.8125H8.9248Z" fill="#CCCCFF"/>
<path d="M9.1875 14.8125L9.46875 15.0938L9.1875 14.8125ZM3.375 15.0938L3.65625 15.3656L3.375 15.0844V15.0938Z" fill="#99CCCC"/>
<path d="M3.9375 15.0934L4.21875 15.3652L3.9375 15.084M7.80938 15.084L8.09063 15.3652L7.80938 15.084Z" fill="#CC3333"/>
<path d="M8.3623 15.0934L8.64355 15.3652L8.3623 15.084V15.0934Z" fill="#99CCCC"/>
<path d="M3.9375 15.3652L4.21875 15.6465L3.9375 15.3652ZM7.80938 15.3652L8.09063 15.6465L7.80938 15.3652Z" fill="#FFCCCC"/>
<path d="M3.65625 15.6377L3.9375 15.9189L3.65625 15.6377Z" fill="#CCCCFF"/>
<path d="M4.31211 15.8252L4.39648 16.0127L4.30273 15.8252M7.62148 15.8252L7.71523 16.0127L7.62148 15.8252Z" fill="#CC3333"/>
<path d="M8.09082 15.6377L8.37207 15.9189L8.09082 15.6377Z" fill="#CCCCFF"/>
<path d="M3.65625 15.9189L3.9375 16.2002L3.65625 15.9189ZM8.09063 15.9189L8.37188 16.2002L8.09063 15.9189Z" fill="#99CCCC"/>
<path d="M4.21836 16.1904L4.49023 16.4717L4.20898 16.1904M7.53711 16.1904L7.81836 16.4717L7.53711 16.1904Z" fill="#FFCCCC"/>
<path d="M3.9375 16.4717L4.21875 16.7529L3.9375 16.4717Z" fill="#CCCCFF"/>
<path d="M4.58398 16.6504L4.67773 16.8379L4.58398 16.6504ZM7.34961 16.6504L7.44336 16.8379L7.34961 16.6504Z" fill="#CC3333"/>
<path d="M7.80957 16.4717L8.09082 16.7529L7.80957 16.4717Z" fill="#CCCCFF"/>
<path d="M3.9375 16.7441L4.21875 17.0254L3.9375 16.7441ZM7.80938 16.7441L8.09063 17.0254L7.80938 16.7441Z" fill="#99CCCC"/>
<path d="M4.49023 17.0254L4.77148 17.3066L4.49023 17.0254ZM7.25586 17.0254L7.53711 17.3066L7.25586 17.0254Z" fill="#FFCCCC"/>
<path d="M4.21836 17.2969L4.49023 17.5781L4.20898 17.2969H4.21836Z" fill="#CCFFFF"/>
<path d="M4.85645 17.4844L4.9502 17.6719L4.85645 17.4844ZM7.06894 17.4844L7.16269 17.6719L7.06894 17.4844Z" fill="#CC3333"/>
<path d="M7.53711 17.2969L7.81836 17.5781L7.53711 17.2969Z" fill="#CCFFFF"/>
<path d="M4.21836 17.5781L4.49023 17.8594L4.20898 17.5781M7.53711 17.5781L7.81836 17.8594L7.53711 17.5781Z" fill="#99CCCC"/>
<path d="M4.21836 17.8496L4.49023 18.1309L4.20898 17.8496H4.21836Z" fill="#6699CC"/>
<path d="M4.7627 17.8496L5.04395 18.1309L4.7627 17.8496ZM6.98457 17.8496L7.26582 18.1309L6.98457 17.8496Z" fill="#FFCCCC"/>
<path d="M7.53711 17.8496L7.81836 18.1309L7.53711 17.8496Z" fill="#6699CC"/>
<path d="M4.49023 18.1309L4.77148 18.4121L4.49023 18.1309ZM7.25586 18.1309L7.53711 18.4121L7.25586 18.1309Z" fill="#CCFFFF"/>
<path d="M4.49023 18.4033L4.77148 18.6846L4.49023 18.4033ZM7.25586 18.4033L7.53711 18.6846L7.25586 18.4033Z" fill="#99CCCC"/>
<path d="M4.49023 18.6846L4.77148 18.9658L4.49023 18.6846ZM7.25586 18.6846L7.53711 18.9658L7.25586 18.6846Z" fill="#6699CC"/>
<path d="M5.04395 18.9561L5.3252 19.2373L5.04395 18.9561ZM6.70332 18.9561L6.98457 19.2373L6.70332 18.9561Z" fill="#FFCCCC"/>
<path d="M4.7627 19.2373L5.04395 19.5186L4.7627 19.2373Z" fill="#99CCFF"/>
<path d="M5.40918 19.4248L5.50293 19.6123L5.40918 19.4248ZM6.51543 19.4248L6.60918 19.6123L6.51543 19.4248Z" fill="#CC3333"/>
<path d="M6.98438 19.2373L7.26562 19.5186L6.98438 19.2373Z" fill="#99CCFF"/>
<path d="M4.7627 19.5191L5.04395 19.791L4.7627 19.5098M6.98457 19.5098L7.26582 19.791L6.98457 19.5098Z" fill="#6699CC"/>
<path d="M5.31543 19.791L5.59668 20.0723L5.31543 19.791ZM6.43106 19.791L6.70293 20.0723L6.42168 19.791H6.43106Z" fill="#FFCCCC"/>
<path d="M5.04395 20.0625L5.3252 20.3438L5.04395 20.0625ZM6.70332 20.0625L6.98457 20.3438L6.70332 20.0625Z" fill="#99CCFF"/>
<path d="M5.04395 20.3438L5.3252 20.625L5.04395 20.3438ZM6.70332 20.3438L6.98457 20.625L6.70332 20.3438Z" fill="#66CCCC"/>
<path d="M5.59668 20.625L5.87793 20.9062L5.59668 20.625ZM6.14981 20.625L6.43106 20.9062L6.14981 20.625Z" fill="#FFCCCC"/>
<path d="M5.31543 20.8965L5.59668 21.1777L5.31543 20.8965ZM6.43106 20.8965L6.70293 21.1777L6.42168 20.8965H6.43106Z" fill="#CCCCFF"/>
<path d="M5.31543 21.1777L5.59668 21.459L5.31543 21.1777Z" fill="#66CCCC"/>
<path d="M5.87851 21.1777L6.15039 21.459L5.86914 21.1777H5.87851Z" fill="#CC6666"/>
<path d="M6.43125 21.1777L6.70312 21.459L6.42188 21.1777H6.43125Z" fill="#66CCCC"/>
<path d="M5.59668 21.7314L5.87793 22.0127L5.59668 21.7314ZM6.14981 21.7314L6.43106 22.0127L6.14981 21.7314Z" fill="#CCCCFF"/>
<path d="M5.59668 22.0029L5.87793 22.2842L5.59668 22.0029ZM6.14981 22.0029L6.43106 22.2842L6.14981 22.0029ZM5.86856 22.5654L6.14981 22.8373L5.86856 22.5561V22.5654Z" fill="#99CCCC"/>
</g>
<defs>
<clipPath id="clip0_200_80019">
<rect width="60" height="45" fill="white" transform="translate(-7.5)"/>
</clipPath>
</defs>
</svg>
