<svg width="45" height="45" viewBox="0 0 45 45" fill="none" xmlns="http://www.w3.org/2000/svg">
<g clip-path="url(#clip0_200_83443)">
<path d="M-7.49023 0H52.5098V45H-7.49023V0Z" fill="#3F9C35"/>
<path d="M-7.49023 0H52.5098V30H-7.49023V0Z" fill="#ED2939"/>
<path d="M-7.49023 0H52.5098V15H-7.49023V0Z" fill="#00B9E4"/>
<path d="M21 29.25C24.7279 29.25 27.75 26.2279 27.75 22.5C27.75 18.7721 24.7279 15.75 21 15.75C17.2721 15.75 14.25 18.7721 14.25 22.5C14.25 26.2279 17.2721 29.25 21 29.25Z" fill="white"/>
<path d="M22.5 28.125C25.6066 28.125 28.125 25.6066 28.125 22.5C28.125 19.3934 25.6066 16.875 22.5 16.875C19.3934 16.875 16.875 19.3934 16.875 22.5C16.875 25.6066 19.3934 28.125 22.5 28.125Z" fill="#ED2939"/>
<path d="M28.5 18.75L29.2219 20.7656L31.1531 19.8469L30.2344 21.7875L32.25 22.5L30.2344 23.2219L31.1531 25.1531L29.2219 24.2344L28.5 26.25L27.7781 24.2344L25.8469 25.1531L26.7656 23.2219L24.75 22.5L26.7656 21.7781L25.8469 19.8469L27.7781 20.7656L28.5 18.75Z" fill="white"/>
</g>
<defs>
<clipPath id="clip0_200_83443">
<rect width="60" height="45" fill="white" transform="translate(-7.5)"/>
</clipPath>
</defs>
</svg>
