<svg width="45" height="45" viewBox="0 0 45 45" fill="none" xmlns="http://www.w3.org/2000/svg">
<g clip-path="url(#clip0_200_83216)">
<path fill-rule="evenodd" clip-rule="evenodd" d="M-7.49707 0H52.4971V45H-7.49707V0Z" fill="#000099"/>
<path fill-rule="evenodd" clip-rule="evenodd" d="M4.96582 0L49.8779 45.0264V0.0263672L4.96582 0Z" fill="#FFCC00"/>
<path fill-rule="evenodd" clip-rule="evenodd" d="M38.6631 42.3193L36.2109 40.5352L33.6973 42.3106L34.6465 39.3926L32.168 37.5908H35.2441L36.1934 34.6729L37.1338 37.5996H40.21L37.749 39.4189L38.6631 42.3193ZM45.8086 43.2334L42.7324 43.2246L41.792 40.2979L40.8428 43.2158H37.7666L40.2451 45.0176L39.2959 47.9356L41.8096 46.1602L44.2705 47.9443L43.3477 45.0439L45.8086 43.2334ZM32.1328 33.8115L34.5938 31.9922L31.5176 31.9834L30.5771 29.0654L29.6279 31.9834L26.5518 31.9746L29.0303 33.7764L28.0811 36.7031L30.5947 34.9189L33.0557 36.7119L32.1328 33.8115ZM26.4814 28.1426L28.9424 26.332L25.8662 26.3232L24.9258 23.3965L23.9678 26.3145H20.9004L23.3789 28.1162L22.4297 31.0342L24.9434 29.2588L27.3955 31.043L26.4814 28.1426ZM20.8828 22.5527L23.3438 20.7334H20.2676L19.3359 17.7979L18.3867 20.7158H15.3105L17.7891 22.5088L16.8398 25.4356L19.3535 23.6514L21.8145 25.4443L20.8916 22.5439L20.8828 22.5527ZM15.2227 16.9014L17.6836 15.0908L14.6074 15.082L13.667 12.1553L12.709 15.0732H9.6416L12.1289 16.875L11.1797 19.793L13.6934 18.0176L16.1455 19.8018L15.2314 16.9014H15.2227ZM9.63281 11.2852L12.085 9.46582H9.00879L8.07715 6.53027L7.11914 9.45703H4.04297L6.53906 11.25L5.58105 14.168L8.09473 12.3926L10.5381 14.1855L9.63281 11.2852ZM4.00781 5.66016L6.45996 3.84082H3.38379L2.45215 0.905273L1.49414 3.83203H-1.58203L0.914062 5.625L-0.0527344 8.55176L2.46973 6.76758L4.91309 8.56055L4.00781 5.66016ZM-1.61719 0.0351567L0.826172 -1.78418H-2.25L-3.19043 -4.71094L-4.13086 -1.79297H-7.20703L-4.71973 0L-5.66895 2.91797L-3.15527 1.14258L-0.711914 2.93555L-1.61719 0.0351567Z" fill="white"/>
</g>
<defs>
<clipPath id="clip0_200_83216">
<rect width="60" height="45" fill="white" transform="translate(-7.5)"/>
</clipPath>
</defs>
</svg>
