<svg width="45" height="45" viewBox="0 0 45 45" fill="none" xmlns="http://www.w3.org/2000/svg">
<g clip-path="url(#clip0_200_83232)">
<path d="M-7.5 0H52.5V45H-7.5V0Z" fill="#00267F"/>
<path d="M12.4971 0H32.5033V45H12.4971V0Z" fill="#FFC726"/>
<path d="M22.4812 12.7031C21.825 14.4844 21.1687 16.3219 19.7437 17.7375C20.1843 17.5875 20.9625 17.4562 21.45 17.475V24.9281L19.35 25.2375C19.275 25.2375 19.2562 25.1156 19.2562 24.9563C19.05 22.6406 18.5062 20.6906 17.8687 18.675C17.8218 18.4031 17.025 17.3625 17.6437 17.55C17.7187 17.55 18.5343 17.8875 18.4125 17.7281C17.2346 16.5401 15.7127 15.7529 14.0625 15.4781C13.9218 15.45 13.8375 15.525 13.9687 15.6844C16.0687 18.9281 17.8406 22.7625 17.8218 27.3094C18.6468 27.3094 20.6343 26.8219 21.45 26.8219V32.0813H22.5L22.7343 17.3906L22.4812 12.7031Z" fill="black"/>
</g>
<defs>
<clipPath id="clip0_200_83232">
<rect width="60" height="45" fill="white" transform="translate(-7.5)"/>
</clipPath>
</defs>
</svg>
