<svg width="45" height="45" viewBox="0 0 45 45" fill="none" xmlns="http://www.w3.org/2000/svg">
<g clip-path="url(#clip0_200_81414)">
<path fill-rule="evenodd" clip-rule="evenodd" d="M-15.1855 0L22.502 22.5L-15.1855 45V0ZM60.1895 0L22.502 22.5L60.1895 45V0Z" fill="#18B637"/>
<path fill-rule="evenodd" clip-rule="evenodd" d="M-15.1855 0L22.502 22.5L60.1895 0H-15.1855ZM-15.1855 45L22.502 22.5L60.1895 45H-15.1855Z" fill="#CF0921"/>
<path fill-rule="evenodd" clip-rule="evenodd" d="M60.1895 0H53.167L-15.1855 40.8076V45H-8.16309L60.1895 4.19238V0Z" fill="white"/>
<path fill-rule="evenodd" clip-rule="evenodd" d="M35.5186 22.5C35.5186 25.9511 34.1476 29.2608 31.7074 31.701C29.2671 34.1413 25.9574 35.5122 22.5063 35.5122C19.0553 35.5122 15.7456 34.1413 13.3053 31.701C10.8651 29.2608 9.49414 25.9511 9.49414 22.5C9.49414 19.0501 10.8646 15.7415 13.304 13.3021C15.7435 10.8626 19.0521 9.49219 22.502 9.49219C25.9518 9.49219 29.2604 10.8626 31.6999 13.3021C34.1393 15.7415 35.5098 19.0501 35.5098 22.5H35.5186Z" fill="white"/>
<path fill-rule="evenodd" clip-rule="evenodd" d="M-15.1855 0V4.19238L53.167 45H60.1895V40.8076L-8.16309 0H-15.1855Z" fill="white"/>
<path fill-rule="evenodd" clip-rule="evenodd" d="M25.0684 17.5957L23.3721 17.6221L22.4932 19.0635L21.623 17.6221L19.9355 17.5869L20.7529 16.1016L19.9443 14.625L21.6318 14.5898L22.5107 13.1484L23.3809 14.5986L25.0684 14.6338L24.251 16.1104L25.0684 17.5957ZM19.3906 27.4043L17.7031 27.4307L16.8242 28.8721L15.9541 27.4307L14.2666 27.3955L15.084 25.9102L14.2754 24.4336L15.9629 24.3984L16.8418 22.957L17.7119 24.4072L19.3994 24.4424L18.582 25.9189L19.3906 27.4043ZM30.8691 27.4043L29.1816 27.4307L28.3027 28.8721L27.4238 27.4307L25.7451 27.3955L26.5625 25.9102L25.7451 24.4336L27.4326 24.3984L28.3115 22.957L29.1904 24.4072L30.8779 24.4424L30.0518 25.9189L30.8691 27.4043Z" fill="#CF0921"/>
<path fill-rule="evenodd" clip-rule="evenodd" d="M22.5115 12.8174L23.4787 14.4293L25.3554 14.4684L24.4463 16.1107L25.3554 17.7627L23.4688 17.7921L22.492 19.394L21.5247 17.7915L19.6484 17.7525L20.557 16.1015L19.6579 14.4596L21.5339 14.4205L22.5115 12.8174ZM22.5091 13.4797L21.7288 14.7593L20.2299 14.7906L20.948 16.1019L20.2218 17.4216L21.7206 17.4528L22.4935 18.7332L23.2745 17.4523L24.7804 17.4289L24.0548 16.1102L24.7804 14.7993L23.2822 14.7681L22.5091 13.4797ZM16.8425 22.626L17.8097 24.2379L19.6864 24.277L18.7771 25.9197L19.6762 27.5713L17.7998 27.6006L16.823 29.2026L15.8557 27.6001L13.9795 27.5611L14.888 25.91L13.9889 24.2682L15.865 24.2291L16.8425 22.626ZM28.3115 22.6272L29.2877 24.2379L31.1664 24.2771L30.2473 25.9197L31.1562 27.5713L29.2783 27.6006L28.3023 29.2014L27.3259 27.6001L25.458 27.561L26.3663 25.9105L25.4572 24.2682L27.3347 24.2291L28.3115 22.6272ZM16.8402 23.2883L16.0599 24.5679L14.561 24.5991L15.2791 25.9104L14.5528 27.2301L16.0516 27.2614L16.8245 28.5417L17.6055 27.2609L19.1042 27.2374L18.3861 25.9183L19.1115 24.6079L17.6132 24.5767L16.8402 23.2883ZM28.3106 23.2871L27.5296 24.5679L26.0322 24.5991L26.7578 25.91L26.0313 27.2302L27.5208 27.2614L28.3023 28.543L29.0841 27.2609L30.5812 27.2375L29.8553 25.9183L30.5886 24.6079L29.0922 24.5767L28.3106 23.2871Z" fill="#18B637"/>
</g>
<defs>
<clipPath id="clip0_200_81414">
<rect width="60" height="45" fill="white" transform="translate(-7.5)"/>
</clipPath>
</defs>
</svg>
