<svg width="45" height="45" viewBox="0 0 45 45" fill="none" xmlns="http://www.w3.org/2000/svg">
<g clip-path="url(#clip0_200_71484)">
<path d="M-7.5 0H52.5V45H-7.5V0Z" fill="#F7E017"/>
<path d="M-7.5 3.12207V23.1283L52.5 32.5033V21.8721L-7.5 3.12207Z" fill="white"/>
<path d="M-7.5 13.7529V23.1279L52.5 41.8779V32.5029L-7.5 13.7529Z" fill="black"/>
<path d="M20.9813 35.606C19.8843 35.4848 18.8289 35.1173 17.8938 34.531C17.7438 34.431 17.6063 34.3435 17.5813 34.3435C17.5563 34.3435 17.5438 34.4622 17.5438 34.5997C17.5438 34.9997 17.3813 35.1997 16.9813 35.306C16.5938 35.406 16.0063 35.206 15.5313 34.806C15.0809 34.4206 14.5551 34.1332 13.9875 33.9622C13.3963 33.8214 12.774 33.9014 12.2375 34.1872C12.1845 34.2245 12.1252 34.252 12.0625 34.2685C11.9938 34.2685 12 33.8372 12.075 33.706C12.1688 33.5184 12.3938 33.3434 12.6625 33.2497C12.8 33.1997 12.9125 33.1372 12.9125 33.1059C12.9125 33.0809 12.8625 32.9809 12.8063 32.8809C12.625 32.5622 12.7 32.2559 13.0188 32.0122C13.3438 31.7622 13.8938 31.7247 14.375 31.9059C14.4564 31.9406 14.5399 31.9698 14.625 31.9934C14.6875 31.9934 14.65 31.8997 14.475 31.6434C14.275 31.3497 14.2313 31.2059 14.2563 30.8497C14.2735 30.6316 14.3679 30.4269 14.5226 30.2722C14.6772 30.1175 14.882 30.0231 15.1 30.0059C15.4625 29.9809 15.6876 30.1059 16.2251 30.6122C17.6687 32.0652 19.5647 32.9824 21.6001 33.2122C22.1188 33.2747 23.1501 33.2435 23.7563 33.1497C25.6769 32.8293 27.4575 31.9411 28.8689 30.5997C29.2689 30.2247 29.4564 30.1247 29.7876 30.1247C30.0689 30.1247 30.2689 30.2122 30.4751 30.4372C30.6626 30.6434 30.7251 30.8372 30.7001 31.1559C30.6876 31.3559 30.6564 31.4497 30.5376 31.6497C30.3626 31.9309 30.3939 31.9622 30.7376 31.8247C31.2126 31.6372 31.7939 31.7247 32.1064 32.0247C32.3814 32.2872 32.4064 32.5497 32.1939 32.8997C32.1126 33.0309 32.0501 33.1497 32.0501 33.1747C32.0501 33.2122 32.1126 33.2247 32.3939 33.2747C32.7689 33.3372 32.9876 33.6122 32.9876 34.0372C32.9876 34.1622 32.9689 34.2685 32.9501 34.2685C32.9314 34.2685 32.7876 34.2122 32.6376 34.1497C32.2001 33.9685 31.9501 33.9247 31.4376 33.931C31.0501 33.931 30.9189 33.9497 30.6501 34.0372C30.2003 34.1937 29.786 34.438 29.4314 34.756C29.0314 35.1122 28.7814 35.2247 28.3939 35.2185C28.0314 35.2185 27.7876 35.1122 27.6564 34.906C27.5876 34.7935 27.5751 34.731 27.5939 34.481C27.6064 34.3185 27.6001 34.1872 27.5939 34.1872C27.5751 34.1872 27.4376 34.2747 27.2814 34.381C26.9246 34.6368 26.5359 34.8448 26.1251 34.9997C24.4802 35.5955 22.7197 35.803 20.9813 35.606Z" fill="#CF1126"/>
<path d="M21.6441 32.8247C20.4351 32.7136 19.2638 32.3455 18.2086 31.7451C17.1534 31.1448 16.2385 30.3259 15.5253 29.3434C14.0003 27.2684 13.5253 24.5246 13.9878 22.0184C14.2378 20.8746 14.7378 19.7309 15.5816 18.9184C14.886 20.3619 14.6945 21.997 15.0378 23.5621C15.6003 26.6746 18.2254 29.3059 21.3691 29.7622C22.6191 30.1184 23.9004 29.7372 25.0879 29.3559C27.7129 28.4309 29.7129 25.9434 29.9504 23.1621C30.1567 21.6621 29.9317 20.0934 29.2504 18.7246C29.6379 18.9309 30.1254 19.7371 30.4129 20.2746C31.4129 22.2121 31.4567 24.5309 30.8692 26.5996C30.0692 29.2309 28.0567 31.5372 25.4004 32.3747C24.1885 32.7533 22.9174 32.9058 21.6504 32.8247H21.6441Z" fill="#CF1126"/>
<path d="M9.50049 29.3679C9.34424 29.3429 9.16924 29.4991 9.23174 29.6616C9.34424 29.8241 9.54424 29.9116 9.71924 29.9866C10.1803 30.1667 10.6753 30.2435 11.1693 30.2116C11.5317 30.2117 11.8913 30.1483 12.2318 30.0241C12.4193 29.9616 12.6568 29.8991 12.7318 29.6866C12.813 29.5554 12.6693 29.4179 12.538 29.4429C12.3505 29.4866 12.163 29.5679 11.9755 29.6241C11.5634 29.7408 11.1337 29.7831 10.7067 29.7491C10.396 29.7039 10.0931 29.6156 9.80675 29.4866C9.70675 29.4429 9.61299 29.3804 9.50049 29.3679Z" fill="#CF1126"/>
<path d="M9.67539 28.7181C9.51914 28.6931 9.38164 28.8806 9.44414 29.0306C9.56914 29.2056 9.77539 29.2993 9.96914 29.3806C10.3072 29.5131 10.6688 29.5748 11.0316 29.5618H11.1254C11.434 29.5632 11.7398 29.5037 12.0254 29.3868C12.1942 29.3181 12.4067 29.2493 12.4817 29.0618C12.5379 28.9556 12.4942 28.8056 12.3567 28.7931C12.2442 28.7931 12.1379 28.8681 12.0254 28.8993C11.6183 29.0675 11.1769 29.136 10.7379 29.0993C10.4629 29.0681 10.2066 28.9681 9.95664 28.8493C9.86289 28.8056 9.78164 28.7368 9.67539 28.7243V28.7181Z" fill="#CF1126"/>
<path d="M9.89388 28.0992C9.75638 28.0804 9.66263 28.2367 9.68763 28.3554C9.70638 28.4679 9.80013 28.5429 9.88138 28.6055C10.2217 28.8412 10.6304 28.9576 11.0439 28.9367H11.1439C11.4038 28.9348 11.66 28.875 11.8939 28.7617C12.0501 28.6992 12.2314 28.6179 12.2876 28.4367C12.3126 28.3554 12.3251 28.2367 12.2314 28.1867C12.1314 28.1367 12.0376 28.2179 11.9501 28.2492C11.6512 28.4063 11.3191 28.4898 10.9814 28.4929C10.6915 28.4814 10.4095 28.3953 10.1626 28.2429C10.0689 28.1992 9.99388 28.1179 9.89388 28.0992Z" fill="#CF1126"/>
<path d="M7.59421 18.918C7.39421 19.1242 7.55046 19.4992 7.53171 19.7617C7.64421 20.5867 7.77546 21.418 8.08171 22.1992C8.45671 22.9492 9.25672 23.3555 9.73797 24.0242C9.91297 24.343 9.85047 24.7305 9.88797 25.0867C9.91297 26.043 9.90672 27.0055 9.88797 27.9618C10.3255 28.1868 10.7942 28.3993 11.2942 28.318C11.588 28.2493 12.138 28.2055 12.2005 27.9118L12.138 22.943C11.9692 22.4367 11.4505 22.1742 11.0692 21.8492C10.7506 21.5347 10.454 21.1984 10.1817 20.843C10.0192 20.5617 9.37547 20.468 9.60672 20.943C9.74422 21.3617 10.088 21.668 10.1755 22.1055C10.1942 22.3492 10.488 22.793 10.238 22.9305C10.084 22.6588 9.85065 22.4408 9.56922 22.3055C9.29422 22.0992 8.83797 22.0117 8.73797 21.6492C8.64792 21.1336 8.40893 20.6556 8.05046 20.2742C8.14421 19.8117 8.05046 19.2305 7.65046 18.9305L7.59421 18.918Z" fill="#CF1126"/>
<path d="M8.21252 19.0117C8.02502 19.043 8.03752 19.2742 8.11877 19.3992C8.21141 19.6682 8.23505 19.9562 8.18752 20.2367C8.53025 20.6184 8.75969 21.0881 8.85002 21.593C8.85002 21.7805 9.05002 21.843 9.18127 21.9367C9.48753 22.1305 9.82503 22.2742 10.1 22.518C10.1563 22.5805 10.2 22.643 10.1625 22.518C10.1188 22.3555 10.1 22.1805 9.97503 22.0617C9.80003 21.8742 9.58753 21.7117 9.33753 21.6617C9.31878 21.3992 9.19377 21.1617 9.08127 20.9367C8.95627 20.718 8.82502 20.4867 8.61252 20.3492C8.61252 19.968 8.61252 19.568 8.45002 19.2117C8.40002 19.1242 8.32502 19.018 8.21252 19.0117Z" fill="#CF1126"/>
<path d="M8.7317 19.1621C8.6067 19.1996 8.6317 19.3621 8.6692 19.4559C8.72379 19.7273 8.74478 20.0043 8.7317 20.2809C8.97545 20.4684 9.1192 20.7434 9.2567 21.0059C9.3442 21.1809 9.4192 21.3684 9.45045 21.5621C9.6442 21.6246 9.81296 21.7496 9.96296 21.8746C9.90046 21.6996 9.77546 21.5621 9.68171 21.3934C9.58795 21.2246 9.4942 21.0434 9.45045 20.8496C9.26295 20.6559 9.16295 20.3746 9.20045 20.0996C9.21295 19.8059 9.1192 19.4996 8.9192 19.2746C8.8692 19.2246 8.8067 19.1684 8.7317 19.1621Z" fill="#CF1126"/>
<path d="M9.3251 19.2487C9.2501 19.2612 9.21259 19.3237 9.17509 19.38C9.15634 19.4362 9.22509 19.4925 9.23759 19.555C9.31925 19.7613 9.34929 19.9844 9.3251 20.205C9.31885 20.3612 9.3751 20.5175 9.4501 20.6425C9.46414 20.5944 9.49267 20.5517 9.53182 20.5204C9.57096 20.4891 9.61882 20.4706 9.66885 20.4675C9.7001 20.4675 9.75635 20.48 9.73135 20.4237C9.70635 20.1237 9.6626 19.8237 9.55635 19.5487C9.52556 19.4404 9.46492 19.343 9.38135 19.2675C9.36885 19.255 9.34385 19.2425 9.31885 19.2487H9.3251Z" fill="#CF1126"/>
<path d="M22.232 29.7499C21.8099 29.7043 21.4096 29.5388 21.0785 29.273C20.7473 29.0072 20.4992 28.6522 20.3633 28.2499C20.382 28.1124 20.5508 28.3249 20.632 28.3436C20.7845 28.4345 20.9553 28.49 21.132 28.5062C21.3508 28.5999 21.4883 28.8187 21.7008 28.9374C21.8008 29.0124 22.1508 29.1624 22.082 28.9187C22.0008 28.7937 21.9445 28.6312 22.0195 28.4812C22.132 28.2249 22.3133 27.9999 22.5008 27.7811C22.632 27.7374 22.7258 28.0061 22.8195 28.0936C22.9508 28.2999 23.1133 28.5499 23.032 28.7999C22.957 28.8937 22.907 29.1749 23.1133 29.0874C23.3633 28.9749 23.5695 28.7874 23.7758 28.6124C23.9633 28.4874 24.1945 28.4811 24.3821 28.3624C24.4758 28.3436 24.6571 28.1686 24.6946 28.2624C24.5826 28.5418 24.4264 28.8014 24.2321 29.0312C23.9315 29.3879 23.516 29.6288 23.057 29.7124C22.782 29.7624 22.507 29.7749 22.232 29.7499Z" fill="#CF1126"/>
<path d="M23.2193 28.7619C23.238 28.5932 23.2005 28.4244 23.113 28.2619C22.9818 27.9994 22.8005 27.7619 22.613 27.5182C22.438 27.4182 22.3443 27.7494 22.2318 27.8432C22.0505 28.1119 21.8255 28.3869 21.813 28.7182C21.713 28.8744 21.5255 28.5932 21.4443 28.4994C21.2777 28.2853 21.1895 28.0207 21.1943 27.7494C21.1791 27.3093 21.2558 26.8709 21.4193 26.4619C21.5443 26.1119 21.738 25.7744 21.7193 25.3994C21.7318 25.1057 21.6755 24.7932 21.4443 24.5994C21.2193 24.4244 21.588 24.3869 21.7005 24.4744C21.9005 24.4932 22.0068 24.8182 22.188 24.7369C22.2568 24.5682 22.2755 24.3619 22.4255 24.2307C22.5693 24.0307 22.7193 24.3119 22.7693 24.4494C22.8755 24.5619 22.7693 24.8557 22.9318 24.8619C23.1318 24.7182 23.2755 24.4869 23.5318 24.4307C23.638 24.3682 23.813 24.4307 23.6755 24.5432C23.488 24.7244 23.3255 24.9432 23.288 25.2119C23.2318 25.5432 23.313 25.8807 23.4568 26.1744C23.738 26.7619 23.9568 27.4244 23.813 28.0807C23.7505 28.3682 23.5505 28.6182 23.313 28.7869C23.2818 28.8057 23.2318 28.8057 23.2193 28.7619Z" fill="#CF1126"/>
<path d="M22.9195 24.3496C22.8354 24.1805 22.7161 24.0314 22.5695 23.9121C22.4195 23.9121 22.3258 24.0996 22.2258 24.1996C22.157 24.3309 22.0695 24.5496 21.8945 24.3809C21.6133 24.2184 21.5695 23.8621 21.5695 23.5684C21.5508 23.0934 21.7445 22.6496 21.9133 22.2184C22.0195 21.9496 21.9945 21.6434 21.9258 21.3684C21.8445 21.0559 21.5883 20.8309 21.3945 20.5809C21.407 20.4871 21.657 20.5371 21.7508 20.5559C21.9633 20.6121 22.0883 20.7934 22.2445 20.9309C22.357 20.8934 22.307 20.6684 22.3633 20.5621C22.3633 20.4121 22.5633 20.2184 22.6445 20.4309C22.7695 20.5684 22.6445 20.8371 22.8008 20.9184C22.9508 20.8621 23.0258 20.6996 23.1633 20.6246C23.2351 20.5781 23.3176 20.5509 23.403 20.5454C23.4883 20.5399 23.5736 20.5564 23.6508 20.5934C23.707 20.7309 23.4883 20.8434 23.4258 20.9684C23.3009 21.1242 23.2143 21.3072 23.173 21.5026C23.1318 21.698 23.137 21.9004 23.1883 22.0934C23.2758 22.4059 23.4258 22.6871 23.482 22.9996C23.5495 23.356 23.5389 23.7228 23.4508 24.0746C23.3945 24.2871 23.2133 24.4246 23.0258 24.5121C22.9758 24.4684 22.9508 24.4059 22.9195 24.3496Z" fill="#CF1126"/>
<path d="M21.9755 20.4305C21.763 20.2742 21.6943 20.1305 21.6943 19.8367C21.6943 19.693 21.7255 19.6117 21.8193 19.4742C21.9693 19.2742 21.9443 19.2117 21.738 19.268C21.4068 19.3617 21.2505 19.2805 21.238 18.9992C21.238 18.8617 21.263 18.8055 21.4443 18.5805C21.5943 18.4055 21.6505 18.3117 21.6193 18.2805C21.588 18.2555 21.413 18.4055 21.0568 18.768C20.8334 19.0035 20.5954 19.2248 20.3443 19.4305C19.7318 19.843 19.1443 19.9055 18.8755 19.5867C18.738 19.4242 18.7443 19.3367 18.9005 19.2367C19 19.1695 19.0922 19.092 19.1755 19.0055C19.4818 18.7258 19.8195 18.4825 20.1818 18.2805C20.4068 18.168 20.4568 18.093 20.313 18.093C20.1255 18.093 19.5318 18.4805 19.0755 18.893C18.9443 19.018 18.7505 19.1555 18.6505 19.2055C18.3724 19.3069 18.0715 19.3285 17.7818 19.268C17.6443 19.2242 17.388 18.9867 17.388 18.8992C17.388 18.8805 17.4505 18.8305 17.513 18.7867C17.6149 18.7292 17.7111 18.6622 17.8005 18.5867C18.163 18.2742 18.8505 17.943 19.3943 17.8242C19.5693 17.793 19.5005 17.6992 19.3068 17.7117C18.7331 17.8213 18.1959 18.0727 17.7443 18.443C17.2255 18.8742 16.4443 18.8305 16.1943 18.3617C16.1505 18.2805 16.1193 18.2055 16.1318 18.193C16.5745 18.0812 17.0024 17.9176 17.4068 17.7054C17.755 17.5002 18.1388 17.3624 18.538 17.2992C18.713 17.2679 18.7255 17.1804 18.5568 17.1617C18.3318 17.1367 17.9943 17.2492 17.4005 17.5367C16.6318 17.918 16.413 17.9867 16.013 17.9617C15.638 17.9367 15.4317 17.843 15.138 17.5617C14.938 17.3742 14.663 16.9054 14.713 16.8492C15.0375 16.9174 15.3692 16.9447 15.7005 16.9304C16.2193 16.9304 16.363 16.9179 16.638 16.8367C17.1752 16.6665 17.6817 16.4111 18.138 16.0804C18.7813 15.5362 19.5954 15.2354 20.438 15.2304C21.213 15.2304 21.7005 15.4054 22.138 15.8492C22.288 15.9992 22.413 16.0929 22.4318 16.0742C22.4505 16.0554 22.4693 15.7929 22.4755 15.4929C22.4755 15.4929 22.7068 15.4679 22.7568 15.5367C22.7568 16.0179 22.7568 16.0617 22.8318 16.0617C22.8755 16.0617 22.9255 16.0117 22.9568 15.9367C23.0193 15.7804 23.2693 15.5617 23.5318 15.4242C24.0943 15.1429 25.0755 15.1304 25.8631 15.4054C26.2395 15.5483 26.5916 15.7486 26.9068 15.9992C27.3666 16.3226 27.8722 16.5754 28.4068 16.7492C28.8318 16.8742 29.5943 16.9054 29.9756 16.8117C30.0871 16.7859 30.1997 16.765 30.3131 16.7492C30.4568 16.7492 30.2131 17.2242 29.9256 17.5054C29.4006 18.018 28.7193 18.0117 27.7631 17.4992C27.1631 17.1742 26.4506 16.9992 26.4506 17.1742C26.4506 17.2117 26.4881 17.2367 26.5443 17.2367C26.7506 17.2367 27.1506 17.3742 27.7131 17.6429C28.0665 17.8468 28.454 17.9844 28.8568 18.0492C29.0006 18.0492 29.0068 18.143 28.8693 18.343C28.7256 18.5555 28.4818 18.6555 28.1381 18.6555C27.8068 18.6555 27.6193 18.5867 27.3256 18.343C26.8256 17.9305 25.6005 17.4679 25.6443 17.718C25.6568 17.7617 25.7131 17.793 25.8443 17.8117C26.3722 17.9264 26.8663 18.1617 27.2881 18.4992L27.6568 18.768C27.7256 18.8055 27.7256 18.818 27.6693 18.9242C27.5818 19.0992 27.3443 19.2305 27.0943 19.2555C26.7693 19.293 26.4818 19.193 26.1881 18.943C25.5631 18.4242 24.9818 18.0492 24.7943 18.0492C24.638 18.0492 24.7068 18.1367 24.9818 18.2805C25.3375 18.4689 25.6691 18.6997 25.9693 18.968C26.0943 19.0867 26.2381 19.1992 26.2818 19.2242C26.4006 19.2867 26.3943 19.3742 26.2693 19.5367C26.1443 19.6992 25.9318 19.7742 25.663 19.743C25.1255 19.6867 24.7005 19.4305 24.038 18.743C23.8805 18.567 23.7091 18.404 23.5255 18.2555C23.438 18.2555 23.4943 18.3742 23.663 18.568C23.8755 18.7992 23.913 18.9305 23.8318 19.1305C23.763 19.293 23.6443 19.3367 23.4068 19.268C23.1568 19.2055 23.1193 19.268 23.2818 19.4617C23.5193 19.768 23.488 20.1305 23.188 20.3867C23.126 20.4465 23.0541 20.4951 22.9755 20.5305C22.9505 20.5305 22.888 20.468 22.8318 20.3805C22.6443 20.093 22.4755 20.093 22.288 20.3805C22.2485 20.4443 22.2068 20.5069 22.163 20.568C22.0998 20.5232 22.0373 20.4773 21.9755 20.4305Z" fill="#CF1126"/>
<path d="M22.9191 14.5625L22.5941 14.8125L22.3066 14.6V16.3375H22.9191V14.5625Z" fill="#CF1126"/>
<path d="M20.9316 12.7686C20.8748 13.4712 20.6839 14.1565 20.3691 14.7873L21.0629 14.1436L21.5441 14.7186L22.0691 14.1311L22.6004 14.6311L23.1129 14.1123L23.6442 14.7373L24.1067 14.2248L24.8942 14.7873C24.6067 14.1623 24.2254 13.6248 24.2692 12.7373C23.5129 13.2998 21.7066 13.3998 20.9316 12.7623V12.7686Z" fill="#CF1126"/>
<path d="M22.3133 12.35C22.032 12.35 21.7383 12.3563 21.4758 12.4125C21.3019 12.4402 21.1359 12.504 20.9883 12.6C21.007 13.1375 23.5508 13.3563 24.232 12.6125C24.0787 12.5064 23.9036 12.4359 23.7195 12.4063C23.4695 12.3563 23.182 12.3563 22.9133 12.3438V12.7875H22.3133V12.35Z" fill="#CF1126"/>
<path d="M22.8068 9.625H22.4131V12.7125H22.8131L22.8068 9.625Z" fill="#CF1126"/>
<path d="M22.807 9.69961L22.657 11.1809L24.1758 11.9246L23.407 10.8934L24.457 10.5496L22.807 9.69961ZM22.6383 9.31836C22.407 9.31836 22.2383 9.40586 22.2383 9.50586C22.2383 9.60586 22.407 9.69336 22.6383 9.69336C22.8695 9.69336 23.0383 9.60586 23.0383 9.50586C23.0383 9.40586 22.8695 9.31836 22.6383 9.31836Z" fill="#CF1126"/>
<path d="M21.9374 35.2408C22.1905 35.1564 22.3312 35.0064 22.4343 34.7158C22.4812 34.5658 22.5187 34.4158 22.5093 34.3783C22.4905 34.2846 22.378 34.2846 22.2655 34.3877C22.1812 34.4533 22.1718 34.4908 22.1905 34.6314C22.2562 34.9783 22.1249 35.0721 21.4687 35.1377C21.403 35.1377 21.2062 35.1377 21.0468 35.1096C20.728 35.0721 20.6155 35.1096 20.728 35.2033C20.7886 35.242 20.8551 35.2705 20.9249 35.2877C21.103 35.3346 21.7499 35.3064 21.9374 35.2408ZM23.3155 35.1846C23.353 35.1471 23.4749 35.0908 23.5968 35.0439C23.7562 34.9971 23.8405 34.9502 23.9062 34.8377C24.103 34.5564 24.0655 34.3033 23.7843 33.9658C23.6249 33.7783 23.5593 33.7877 23.4374 33.9939C23.3249 34.1627 23.3343 34.1814 23.4843 34.2189C23.5687 34.2377 23.6437 34.2939 23.6812 34.3689C23.8499 34.6596 23.803 34.8377 23.5499 34.8377C23.3249 34.8377 23.2687 34.8752 23.203 35.0252L23.1468 35.2033C23.1468 35.2596 23.2405 35.2502 23.3155 35.1846ZM22.8655 34.8564C22.903 34.7346 22.9218 34.5283 22.9124 34.1064C22.9225 33.906 22.9131 33.7051 22.8843 33.5064C22.8468 33.4689 22.6687 33.5814 22.6405 33.6658C22.6312 33.735 22.6479 33.8052 22.6874 33.8627C22.7437 33.9752 22.753 34.0877 22.7343 34.5189C22.7062 35.0814 22.7437 35.1752 22.8655 34.8564Z" fill="#F7E017"/>
<path d="M21.8059 34.5944L21.8716 34.1257C21.8809 33.9663 21.9184 33.7694 21.9372 33.6851C22.0028 33.4694 21.9372 33.4132 21.7684 33.5351L21.6466 33.6288L21.6653 33.9382C21.6934 34.2194 21.6466 34.7351 21.5809 34.9413C21.5622 34.9976 21.5903 34.9788 21.6653 34.8944C21.7216 34.8288 21.7872 34.6882 21.8059 34.5851V34.5944ZM20.8684 34.7444C21.0934 34.5569 21.0653 34.2194 21.1216 33.9569C21.1216 33.7788 21.2341 33.5726 21.1591 33.4132C20.9434 33.4507 20.8122 33.6569 20.9247 33.8538C20.9247 34.0882 20.9247 34.3413 20.8028 34.5476C20.7091 34.6882 20.3903 34.6507 20.4091 34.4538C20.4841 34.1726 20.1372 34.3132 20.0059 34.3882C19.9028 34.4632 19.6778 34.4726 19.7622 34.2944C19.7059 34.0413 19.3966 34.2007 19.2278 34.2007C19.0684 34.2007 19.2184 33.8726 18.9841 33.9194C18.5622 33.8913 18.0934 33.9288 17.7184 33.6757C17.5028 33.5726 17.5309 33.3101 17.6528 33.1413C17.7841 32.9163 17.8216 32.6257 18.0278 32.4476C18.2434 32.2507 17.8403 32.3351 17.7466 32.4007C17.5403 32.5132 17.7278 32.8038 17.5591 32.9632C17.4653 33.1319 17.3341 33.3569 17.1091 33.3288C16.7809 33.2632 16.5934 32.9538 16.3591 32.7663C16.1528 32.7194 16.2653 33.0851 16.3778 33.1601C16.5857 33.3154 16.8211 33.4299 17.0716 33.4976C17.3153 33.4507 17.3247 33.7788 17.5403 33.8257C17.9153 34.0132 18.3466 34.0601 18.7684 34.0882C18.9372 34.0976 18.8434 34.3976 19.0591 34.3319C19.1809 34.3694 19.4622 34.2851 19.4716 34.4257C19.2841 34.6507 19.6497 34.6413 19.7809 34.6132C19.9591 34.5757 20.1747 34.5194 20.2216 34.7444C20.3622 34.9038 20.6247 34.8757 20.8028 34.7913L20.8684 34.7444Z" fill="#F7E017"/>
<path d="M17.1377 32.85C17.2258 32.7267 17.3012 32.5948 17.3627 32.4563C17.4104 32.3361 17.4734 32.2227 17.5502 32.1188C17.6627 32.0063 17.5971 31.9313 17.419 31.9688C17.3252 31.9875 17.2877 32.025 17.2783 32.1094C17.2363 32.3394 17.1572 32.561 17.044 32.7656C16.8846 33 16.8846 33.0094 16.9502 33.0094C16.9783 33.0094 17.0627 32.9344 17.1377 32.85ZM14.794 31.3781C14.6158 31.3781 14.6065 31.4906 14.7752 31.5469C14.869 31.575 14.9346 31.6406 14.9908 31.7625C15.1502 32.0906 15.2533 32.1562 15.694 32.1937L15.9752 32.2125L15.994 32.3906C15.994 32.4844 16.0221 32.5594 16.0408 32.5594L16.2846 32.4656C16.4908 32.3531 16.6877 32.1094 16.6877 31.95C16.6877 31.8562 16.519 31.7438 16.369 31.7438C16.3033 31.7438 16.1815 31.8 16.0783 31.875C15.7596 32.1 15.4221 32.0625 15.2346 31.7625C15.094 31.5187 14.9346 31.3875 14.794 31.3875V31.3781ZM16.3221 31.9875C16.4065 31.9875 16.4158 32.0531 16.3783 32.175C16.3726 32.1915 16.3618 32.2059 16.3475 32.216C16.3333 32.2262 16.3162 32.2316 16.2987 32.2316C16.2811 32.2316 16.264 32.2262 16.2498 32.216C16.2355 32.2059 16.2247 32.1915 16.219 32.175C16.1815 32.0813 16.2283 31.9875 16.3127 31.9875H16.3221ZM28.1815 31.6125C28.0596 31.6125 28.0315 31.6313 27.9565 31.7438C27.8346 31.9219 27.8252 32.3063 27.9377 32.4375C28.0033 32.5219 28.0127 32.5219 28.1533 32.4563C28.3596 32.3719 28.3971 32.3812 28.3877 32.4844C28.3877 32.7656 27.994 33.3 27.5815 33.5813C27.4968 33.6312 27.4208 33.6945 27.3565 33.7688C27.3283 33.8438 27.4783 33.8344 27.6658 33.7312C27.9763 33.5532 28.2323 33.2939 28.4065 32.9812C28.5096 32.7656 28.5283 32.7 28.5471 32.325C28.5471 31.9687 28.5471 31.8563 28.4908 31.7438C28.4158 31.6125 28.3971 31.6031 28.2283 31.6031H28.1815V31.6125ZM28.1908 31.8469C28.2846 31.8469 28.2846 31.8656 28.3033 31.9969C28.3033 32.0906 28.294 32.1563 28.2377 32.2125C28.1627 32.2781 28.144 32.2781 28.0877 32.175C27.994 32.025 28.0502 31.8469 28.1908 31.8469ZM26.2971 34.5188C26.6627 34.3313 26.8783 34.1344 27.0096 33.8438C27.0583 33.7505 27.0991 33.6532 27.1315 33.5531C27.1315 33.4969 26.9533 33.4125 26.8502 33.4125C26.7471 33.4125 26.719 33.3375 26.7565 33.1312C26.8033 32.9344 26.7565 32.6813 26.6627 32.6813C26.6346 32.6813 26.569 32.7281 26.5408 32.7844C26.4846 32.8781 26.4752 32.9156 26.5221 33.0375C26.5877 33.225 26.5315 33.375 26.3627 33.4969C26.2783 33.5531 26.2408 33.6187 26.2408 33.6844L26.2502 33.7781L26.4471 33.6844L26.6346 33.5719L26.7377 33.6656C26.8033 33.7031 26.8502 33.7781 26.8502 33.825C26.8502 34.05 26.2127 34.425 25.7815 34.4625C25.5471 34.4813 25.5002 34.4625 25.4252 34.3875C25.3596 34.3219 25.3408 34.2656 25.3596 34.2L25.4065 33.9563C25.444 33.7594 25.369 33.7875 25.219 34.0125C25.1065 34.2 25.069 34.3969 25.1346 34.5C25.1908 34.5938 25.5471 34.6688 25.8096 34.65C25.969 34.65 26.1283 34.6031 26.2971 34.5188ZM28.7346 33.1594C28.9596 32.925 29.0627 32.6438 29.0627 32.2219V31.8938L29.2502 31.8C29.5033 31.6875 29.7377 31.4531 29.7377 31.3219C29.7377 31.1906 29.6721 31.1906 29.569 31.3406C29.4846 31.4437 29.3815 31.5094 29.0065 31.6875C28.9127 31.725 28.9033 31.7531 28.8752 32.1562C28.8565 32.625 28.7815 32.7938 28.5283 33.1125C28.369 33.3 28.3596 33.3375 28.4721 33.3375C28.519 33.3375 28.6408 33.2531 28.7346 33.15V33.1594ZM26.2315 32.8969C26.2502 32.8312 26.119 32.7844 26.0721 32.8406C26.044 32.8594 26.0346 32.8969 26.0533 32.925C26.0908 32.9813 26.2033 32.9625 26.2315 32.8969ZM29.6815 32.0062C29.7096 31.9312 29.5783 31.8844 29.5221 31.9406C29.5033 31.9688 29.494 32.0063 29.5127 32.0344C29.5502 32.0906 29.6627 32.0719 29.6815 32.0062ZM25.5283 29.5781C25.4346 29.625 25.3877 29.7187 25.3315 29.7937C25.2846 29.8219 25.3221 29.85 25.3408 29.8875C25.5002 30.0469 25.5658 30.2812 25.6408 30.4969C25.7158 30.75 25.8096 31.0219 25.7346 31.2844C25.7065 31.3781 25.6221 31.4813 25.5096 31.4531C25.3221 31.4438 25.1346 31.3875 24.9471 31.3875C24.769 31.3969 24.6377 31.5562 24.469 31.5375C24.3565 31.5375 24.3565 31.3125 24.2627 31.3781C24.2065 31.5 24.2346 31.6313 24.2252 31.7531C24.244 31.7813 24.3002 31.7625 24.3283 31.7719H24.6752C24.694 31.8844 24.694 32.025 24.769 32.1188C24.8908 32.1563 25.0315 32.1188 25.144 32.0719C25.2565 32.0156 25.2752 31.875 25.3127 31.7625C25.3502 31.6406 25.5002 31.6687 25.594 31.6219C25.7067 31.5868 25.8047 31.5153 25.8725 31.4186C25.9404 31.3219 25.9743 31.2055 25.969 31.0875C25.9502 30.7219 25.819 30.3938 25.7065 30.0563C25.6596 29.9063 25.6221 29.7469 25.5658 29.5969L25.5283 29.5781ZM24.9658 31.6219C25.0877 31.6219 25.144 31.7719 25.1158 31.875C25.069 32.0156 24.8908 31.9313 24.8627 31.8281C24.7971 31.7344 24.8346 31.6125 24.9565 31.6219H24.9658Z" fill="#F7E017"/>
<path d="M20.2492 30.4502C20.193 30.4502 20.1274 30.4689 20.0617 30.5158C19.7336 30.7502 19.6399 31.0221 19.8742 31.1346C20.0336 31.2096 19.9961 31.3033 19.7336 31.4346C19.3586 31.6221 19.0305 31.5939 18.4024 31.3408C18.2524 31.2752 18.2149 31.3033 18.243 31.4346C18.2805 31.5752 18.4118 31.6502 18.7211 31.7158C19.0586 31.8096 19.4711 31.7814 19.7336 31.6689C19.8877 31.5903 20.0247 31.482 20.1367 31.3502L20.343 31.1346L20.5774 31.1627C20.868 31.2002 20.8774 31.2002 20.8774 31.3408C20.8774 31.4533 20.8774 31.4533 21.1493 31.4814L21.5899 31.5002C21.7117 31.5002 21.7774 31.5283 21.8149 31.5846C21.8711 31.6502 21.8992 31.6596 22.3399 31.6221C22.7524 31.5846 22.8274 31.5846 23.0149 31.6502C23.1461 31.6877 23.2961 31.7064 23.3993 31.6971C23.718 31.6596 24.1492 31.4064 24.2149 31.2189C24.2149 31.1908 24.3367 31.1533 24.468 31.1252C24.7867 31.0596 24.7961 30.9939 24.5055 30.9564C24.3586 30.937 24.2141 30.9025 24.0742 30.8533C23.9697 30.8091 23.8591 30.7806 23.7461 30.7689C23.5867 30.7689 23.4367 30.8627 23.4367 30.9752C23.4367 31.0408 23.4555 31.0502 23.6524 31.0314C23.8211 31.0127 23.8774 31.0221 23.9711 31.0971C24.0368 31.1439 24.0743 31.2002 24.0649 31.2189C24.018 31.2939 23.643 31.4627 23.4836 31.4908C23.3873 31.5068 23.2883 31.4903 23.2024 31.4439C23.0524 31.3689 22.8461 31.3596 22.7993 31.4252C22.7805 31.4533 22.743 31.4346 22.6774 31.3783L22.5836 31.2846L22.3586 31.3783C22.1336 31.4721 22.0493 31.4721 22.0493 31.3596C22.0493 31.3127 21.9836 31.3033 21.6555 31.3314C21.2899 31.3502 21.2524 31.3408 21.1867 31.2658C21.1211 31.2002 21.1211 31.1721 21.168 31.1064C21.2055 31.0314 21.2055 31.0127 21.168 30.9658C21.1305 30.9283 21.0742 30.9283 20.9336 30.9658C20.568 31.0596 20.4649 31.0127 20.4649 30.7314C20.4649 30.5533 20.3711 30.4502 20.2492 30.4502ZM20.1555 30.7127C20.1742 30.7127 20.193 30.7221 20.2211 30.7502C20.2493 30.7783 20.268 30.8439 20.2492 30.8721C20.2211 30.9564 20.0618 30.9564 20.0336 30.8721C20.0149 30.8252 20.0336 30.7783 20.0805 30.7502L20.1555 30.7127Z" fill="#F7E017"/>
<path d="M19.4993 30.9752C19.7243 30.8346 19.7243 30.8439 19.7524 30.4596C19.7712 30.1783 19.7712 30.1596 19.6962 30.1596C19.5837 30.1596 19.5274 30.2814 19.5274 30.5064C19.5274 30.6564 19.5087 30.7221 19.4337 30.7877C19.2462 30.9752 18.7962 30.8908 18.7306 30.6658C18.7118 30.5908 18.7399 30.5158 18.8337 30.3846C19.0306 30.1033 18.9931 30.0283 18.7399 30.2439C18.5806 30.3939 18.5524 30.3939 18.5806 30.2721C18.6087 30.1502 18.5524 30.1033 18.4118 30.1408C18.3462 30.1596 18.2993 30.1971 18.2899 30.2908C18.2712 30.3658 18.2337 30.4127 18.1681 30.4314C18.0556 30.4596 17.8681 30.3564 17.8681 30.2627C17.8681 30.1971 18.1493 29.8502 18.5149 29.4752C18.6462 29.3346 18.7587 29.1939 18.7587 29.1846C18.7587 29.1658 18.6837 29.1471 18.5993 29.1471C18.4681 29.1471 18.4306 29.1658 18.4306 29.2221C18.4306 29.2596 18.2524 29.5033 18.0274 29.7564C17.5587 30.2814 17.5212 30.3846 17.7462 30.5252C17.8398 30.5829 17.9484 30.6119 18.0584 30.6086C18.1683 30.6053 18.2749 30.5697 18.3649 30.5064L18.5149 30.4033V30.5908C18.5149 30.8252 18.5618 30.9189 18.7493 31.0127C18.8666 31.0729 18.9977 31.1012 19.1293 31.0946C19.261 31.088 19.3886 31.0468 19.4993 30.9752ZM29.2868 27.7314C29.1181 27.8346 29.2493 28.0502 29.2868 28.2002C29.2118 28.3877 28.9587 28.4439 28.7712 28.4814C28.5087 28.5283 28.3212 28.7439 28.2274 28.9783C28.1712 29.1283 28.0399 29.3533 27.8993 29.1283C27.7774 29.0064 27.5524 28.9033 27.4118 29.0533C27.2993 29.1564 27.2712 29.3064 27.2243 29.4471C27.1587 29.3439 27.1306 29.1846 26.9993 29.1471C26.7743 29.1752 26.8587 29.4564 26.9618 29.5689C27.0556 29.7096 27.1493 29.8783 27.0556 30.0377C26.9618 30.2252 26.6806 30.3564 26.5212 30.1971C26.3712 30.1127 26.4743 29.8221 26.3149 29.8033C26.2399 29.8596 26.2399 30.1689 26.1181 30.0002C26.0243 29.8596 26.0806 29.6627 25.9681 29.5408C25.8462 29.5596 25.7431 29.7752 25.7806 29.8877C25.9493 30.1127 26.0243 30.3939 26.0899 30.6658C26.1274 30.7783 26.0806 30.9939 26.1837 31.0408C26.2493 30.8627 26.1837 30.6658 26.2399 30.4877C26.4087 30.4689 26.5868 30.5439 26.7556 30.5064C27.0087 30.4783 27.1962 30.2627 27.2806 30.0471C27.3087 29.8783 27.2806 29.7096 27.2712 29.5408C27.4587 29.5783 27.6649 29.5783 27.8524 29.6346C27.9462 29.7752 27.8243 29.9814 27.7962 30.1314C27.7024 30.4502 27.4493 30.6752 27.2149 30.8814C27.1118 30.9471 27.1024 31.1064 27.2431 31.0221C27.5637 30.8698 27.8149 30.6019 27.9462 30.2721C28.0493 30.0283 27.9649 29.7564 28.0399 29.5127C28.1337 29.3252 28.3681 29.3627 28.5462 29.3627C28.7243 29.3627 28.8743 29.1471 28.8181 28.9689C28.7618 28.7627 28.9774 28.6689 29.1181 28.5939C29.3149 28.5002 29.4649 28.3033 29.4462 28.0783C29.4462 27.9564 29.4462 27.7408 29.2868 27.7314ZM28.6024 28.9033C28.8087 28.9596 28.5649 29.3533 28.4524 29.1002C28.4149 29.0064 28.4993 28.9033 28.6024 28.9033ZM27.6368 29.1846C27.9087 29.1752 27.8056 29.5596 27.5806 29.3908C27.4587 29.3252 27.4962 29.1846 27.6368 29.1846ZM17.8118 30.7127C17.8118 30.6752 17.7931 30.6471 17.7556 30.6471C17.6899 30.6471 17.6431 30.7127 17.6712 30.7689C17.7087 30.8346 17.7931 30.7971 17.8118 30.7127ZM20.9993 30.3752C20.9993 30.3096 20.9712 30.2908 20.9243 30.3002C20.8212 30.3189 20.8024 30.4596 20.9149 30.4596C20.9712 30.4596 20.9993 30.4314 20.9993 30.3658V30.3752ZM17.0618 28.4627C16.9399 28.4346 16.8556 28.5471 16.8087 28.6502C16.7149 28.8096 16.6024 28.9689 16.4337 29.0533C16.3118 29.0908 16.1806 29.0439 16.0681 28.9783C15.9462 28.9127 15.9743 28.7627 15.9181 28.6596C15.8243 28.5846 15.6649 28.6877 15.6743 28.8002C15.6649 28.9502 15.7962 29.0346 15.9181 29.0908C16.0118 29.1564 16.1618 29.1846 16.1993 29.3064C16.1993 29.4096 16.2368 29.5314 16.3587 29.4939C16.4993 29.4939 16.5462 29.6627 16.4806 29.7658C16.4179 29.8802 16.3948 30.012 16.4149 30.1408C16.4806 30.2064 16.5462 30.0471 16.6024 30.0096L16.6962 29.8783C16.9493 29.8877 17.1931 29.9252 17.4462 29.9158C17.6337 29.9158 17.7743 29.8033 17.8868 29.6721C18.0556 29.5033 18.1868 29.3064 18.3649 29.1658C18.4962 29.1283 18.4306 28.8846 18.2899 28.9596C18.1681 29.0064 18.1306 29.1471 18.0462 29.2314C17.9094 29.4116 17.7521 29.5752 17.5774 29.7189C17.4368 29.7752 17.2868 29.7471 17.1462 29.7189C17.0899 29.6721 17.2587 29.6252 17.2868 29.5689C17.3618 29.4939 17.4556 29.4189 17.5024 29.3158C17.4556 29.2221 17.3243 29.2221 17.2306 29.2221C17.0056 29.2408 16.8274 29.4377 16.5931 29.4564C16.4149 29.4564 16.5087 29.2689 16.5931 29.2033C16.7431 29.0158 16.9118 28.8471 17.0712 28.6689C17.1181 28.6127 17.2868 28.5564 17.1837 28.4814C17.1462 28.4627 17.0993 28.4627 17.0618 28.4627ZM17.1743 29.4002C17.2962 29.4658 17.0993 29.5689 17.0243 29.5596C16.9212 29.5877 16.9118 29.4846 17.0056 29.4658C17.0618 29.4283 17.1181 29.4002 17.1743 29.4002ZM16.8181 29.6439C16.8837 29.6439 17.0243 29.7096 16.8931 29.7471C16.7993 29.8221 16.7056 29.6721 16.8181 29.6439Z" fill="#F7E017"/>
<path d="M19.631 29.7939C19.631 29.7002 19.481 29.7189 19.4622 29.8127C19.4435 29.8689 19.4622 29.8783 19.5372 29.8689C19.5935 29.8689 19.631 29.8314 19.631 29.7939ZM26.6341 29.1752C26.6529 29.0908 26.5404 29.0346 26.4747 29.1002C26.4091 29.1564 26.4747 29.2783 26.5497 29.2596C26.5872 29.2596 26.6247 29.2127 26.6435 29.1752H26.6341ZM15.7497 28.3221C15.8529 28.2283 15.8622 28.2189 15.8154 28.0127C15.7404 27.7221 15.7497 27.6846 15.8622 27.6564C16.0029 27.6283 16.3591 27.8158 16.4247 27.9658C16.4997 28.0877 16.4904 28.0971 16.3872 28.1908C16.2747 28.2939 16.2747 28.4158 16.3872 28.4158C16.481 28.4158 16.7341 28.1721 16.7341 28.0877C16.7341 27.9658 16.4529 27.6752 16.2279 27.5721C16.0928 27.5092 15.9455 27.4772 15.7966 27.4783C15.506 27.4783 15.4685 27.5439 15.5435 27.8721C15.6372 28.2658 15.5154 28.3221 15.1966 28.0221C15.0832 27.9223 14.9945 27.7975 14.9376 27.6576C14.8806 27.5177 14.857 27.3664 14.8685 27.2158C14.8685 26.8408 15.0185 26.6439 15.3466 26.5971C15.5716 26.5689 15.5622 26.5127 15.3466 26.4846C15.0091 26.4283 14.7279 26.6533 14.6247 27.0471C14.5029 27.4877 14.7747 28.0221 15.2529 28.2939C15.506 28.4346 15.5997 28.4439 15.7497 28.3221ZM28.7997 27.8346C28.8279 27.8158 28.8466 27.7502 28.8466 27.7033C28.8466 27.6564 28.8935 27.5533 28.9497 27.4783C29.006 27.4033 29.0435 27.3283 29.0435 27.3096C29.0435 27.2346 28.9216 27.2346 28.8279 27.3096C28.7247 27.3939 28.6404 27.4033 28.6404 27.3096L28.7529 27.2252C28.9029 27.1596 28.9122 27.0846 28.7904 27.0283C28.631 26.9533 28.4622 27.0846 28.4529 27.3096C28.4435 27.4596 28.4529 27.4783 28.5654 27.5439C28.6685 27.6096 28.6872 27.6377 28.6685 27.7314C28.6404 27.8814 28.706 27.9377 28.7997 27.8346ZM30.0185 27.7033C30.1122 27.6096 30.1872 27.5252 30.1872 27.4971C30.1872 27.4689 30.2716 27.3846 30.3654 27.3096C30.6279 27.1221 30.6935 26.9346 30.5716 26.6252C30.5247 26.5033 30.3841 26.3439 30.056 26.0627C29.9065 25.9031 29.7362 25.7644 29.5497 25.6502C29.4654 25.6502 29.4841 25.9689 29.5685 25.9971C29.7279 26.0533 29.831 26.1189 30.0747 26.3439C30.3747 26.6064 30.506 26.8596 30.431 27.0002C30.3654 27.1314 30.2716 27.0939 30.0091 26.8127C29.924 26.7069 29.8228 26.6151 29.7091 26.5408C29.681 26.5408 29.6622 26.5971 29.6622 26.6721C29.6622 26.7658 29.7091 26.8596 29.8497 27.0002C30.0654 27.2439 30.0841 27.3846 29.9154 27.5158C29.8774 27.5544 29.8329 27.5861 29.7841 27.6096C29.5698 27.2428 29.2826 26.9237 28.9404 26.6721C28.9122 26.6721 28.8935 26.7096 28.8935 26.8033C28.8935 26.9252 28.9122 26.9627 29.006 27.0096C29.2524 27.1988 29.473 27.4194 29.6622 27.6658L29.831 27.8533C29.9009 27.8096 29.9641 27.7559 30.0185 27.6939V27.7033ZM30.581 26.1283C30.5341 26.0158 29.7935 25.2471 29.7091 25.2471C29.6716 25.2471 29.6622 25.2939 29.6716 25.4158C29.6716 25.5658 29.6997 25.5846 29.8029 25.6127C29.963 25.7064 30.1083 25.8233 30.2341 25.9596C30.336 26.0691 30.4527 26.1638 30.581 26.2408V26.1283ZM26.0997 34.8096C26.1047 34.8236 26.1058 34.8383 26.1027 34.8527C26.0996 34.8671 26.0926 34.8807 26.0821 34.8924C26.0716 34.9041 26.058 34.9136 26.0424 34.9201C26.0267 34.9267 26.0094 34.9301 25.9919 34.9301C25.9744 34.9301 25.9571 34.9267 25.9415 34.9201C25.9258 34.9136 25.9122 34.9041 25.9017 34.8924C25.8912 34.8807 25.8842 34.8671 25.8811 34.8527C25.8781 34.8383 25.8791 34.8236 25.8841 34.8096C25.8791 34.7956 25.8781 34.7808 25.8811 34.7664C25.8842 34.7521 25.8912 34.7385 25.9017 34.7268C25.9122 34.7151 25.9258 34.7055 25.9415 34.699C25.9571 34.6925 25.9744 34.689 25.9919 34.689C26.0094 34.689 26.0267 34.6925 26.0424 34.699C26.058 34.7055 26.0716 34.7151 26.0821 34.7268C26.0926 34.7385 26.0996 34.7521 26.1027 34.7664C26.1058 34.7808 26.1047 34.7956 26.0997 34.8096ZM26.4935 34.6783C26.4935 34.6906 26.4906 34.7028 26.4849 34.7142C26.4793 34.7256 26.471 34.7359 26.4605 34.7446C26.4501 34.7533 26.4377 34.7602 26.424 34.7649C26.4104 34.7696 26.3958 34.7721 26.381 34.7721C26.3662 34.7721 26.3516 34.7696 26.3379 34.7649C26.3243 34.7602 26.3119 34.7533 26.3014 34.7446C26.291 34.7359 26.2827 34.7256 26.277 34.7142C26.2714 34.7028 26.2685 34.6906 26.2685 34.6783C26.2685 34.666 26.2714 34.6538 26.277 34.6424C26.2827 34.6311 26.291 34.6207 26.3014 34.612C26.3119 34.6033 26.3243 34.5964 26.3379 34.5917C26.3516 34.587 26.3662 34.5846 26.381 34.5846C26.3958 34.5846 26.4104 34.587 26.424 34.5917C26.4377 34.5964 26.4501 34.6033 26.4605 34.612C26.471 34.6207 26.4793 34.6311 26.4849 34.6424C26.4906 34.6538 26.4935 34.666 26.4935 34.6783Z" fill="#F7E017"/>
</g>
<defs>
<clipPath id="clip0_200_71484">
<rect width="60" height="45" fill="white" transform="translate(-7.5)"/>
</clipPath>
</defs>
</svg>
