<svg width="45" height="45" viewBox="0 0 45 45" fill="none" xmlns="http://www.w3.org/2000/svg">
<g clip-path="url(#clip0_200_83031)">
<path fill-rule="evenodd" clip-rule="evenodd" d="M-7.5 0H52.5V45H-7.5V0Z" fill="#229E45"/>
<path fill-rule="evenodd" clip-rule="evenodd" d="M22.6316 40.875L50.8973 22.5281L22.4629 4.125L-5.89648 22.5656L22.6316 40.875Z" fill="#F8E509"/>
<path fill-rule="evenodd" clip-rule="evenodd" d="M34.95 22.5C34.95 29.0906 29.5969 34.4344 22.9875 34.4344C20.6257 34.4307 18.3179 33.7268 16.3561 32.4117C14.3942 31.0967 12.8662 29.2294 11.9654 27.0461C11.0646 24.8628 10.8313 22.4615 11.295 20.1456C11.7587 17.8297 12.8986 15.7033 14.5707 14.0352C16.2427 12.3671 18.3718 11.2321 20.6888 10.7739C23.0057 10.3156 25.4066 10.5546 27.5877 11.4605C29.7689 12.3665 31.6325 13.8988 32.943 15.8638C34.2534 17.8288 34.9519 20.1381 34.95 22.5Z" fill="#2B49A3"/>
<path fill-rule="evenodd" clip-rule="evenodd" d="M19.059 29.6527L18.684 29.4371L18.309 29.6246L18.3934 29.2027L18.0934 28.884L18.5152 28.8371L18.7215 28.4621L18.8996 28.8559L19.3121 28.9309L19.0027 29.2121M27.0652 31.6777L26.6996 31.4621L26.3246 31.6496L26.3996 31.2277L26.109 30.9184L26.5309 30.8715L26.7277 30.4871L26.9152 30.8809L27.3277 30.9559L27.009 31.2465M23.6152 28.434L23.2965 28.2465L22.9684 28.4152L23.0434 28.0496L22.7809 27.7777L23.1559 27.7402L23.3246 27.4027L23.4746 27.7496L23.8402 27.8152L23.559 28.0684M31.7152 27.2715L31.3965 27.084L31.0684 27.2527L31.1434 26.8871L30.8902 26.6246L31.2559 26.5871L31.4246 26.259L31.5746 26.5965L31.9309 26.6621L31.659 26.9059M23.4746 24.8434L23.0996 24.6371L22.7246 24.8246L22.7996 24.3934L22.509 24.084L22.9309 24.0371L23.1277 23.6527L23.3152 24.0465L23.7277 24.1215L23.409 24.4215M13.6027 21.1402L13.2277 20.934L12.8527 21.1215L12.9465 20.6902L12.6371 20.3809L13.0684 20.334L13.2559 19.9496L13.4434 20.3434L13.8559 20.4184L13.5465 20.709M14.7934 26.0715L14.4184 25.8559L14.0434 26.0434L14.1277 25.6215L13.8277 25.3121L14.2496 25.2559L14.4465 24.8809L14.634 25.2746L15.0465 25.3496L14.7371 25.6402M27.1121 19.3309L26.7746 19.1434L26.4371 19.3121L26.5121 18.9371L26.2496 18.6559L26.6246 18.609L26.8027 18.2715L26.9621 18.6277L27.3371 18.6934L27.0559 18.9465M26.4277 22.5371L26.1746 22.3871L25.9027 22.5184L25.959 22.2184L25.7527 22.0027L26.0527 21.9652L26.1934 21.7027L26.3152 21.984L26.5965 22.0309L26.3902 22.2371M13.059 26.9621L12.8059 26.8215L12.5527 26.9434L12.609 26.6621L12.4121 26.4559L12.6934 26.4184L12.8246 26.1652L12.9465 26.4277L13.2277 26.484L13.0121 26.6715M31.7809 28.1059L31.5746 28.0027L31.3684 28.0965L31.4152 27.8809L31.2559 27.7309L31.4809 27.7027L31.5934 27.5152L31.6871 27.7027L31.9215 27.7496L31.7434 27.8902" fill="#FFFFEF"/>
<path fill-rule="evenodd" clip-rule="evenodd" d="M13.059 26.9629L12.8059 26.8223L12.5527 26.9441L12.609 26.6629L12.4121 26.4566L12.6934 26.4191L12.8246 26.166L12.9465 26.4285L13.2277 26.4848L13.0121 26.6723" fill="#FFFFEF"/>
<path fill-rule="evenodd" clip-rule="evenodd" d="M13.059 26.9621L12.8059 26.8215L12.5527 26.9434L12.609 26.6621L12.4121 26.4559L12.6934 26.4184L12.8246 26.1652L12.9465 26.4277L13.2277 26.484L13.0121 26.6715M16.9777 26.9527L16.734 26.8215L16.4809 26.9434L16.5371 26.6621L16.3402 26.4559L16.6215 26.4184L16.7527 26.1652L16.8746 26.4277L17.1559 26.4746L16.9402 26.6715M16.4902 28.2652L16.2465 28.1246L15.9934 28.2559L16.0496 27.9746L15.8527 27.759L16.134 27.7215L16.2652 27.4684L16.3871 27.7309L16.6684 27.7871L16.4527 27.9746M24.6465 25.8934L24.4027 25.7434L24.1402 25.8746L24.1965 25.5934L24.009 25.3777L24.2902 25.3496L24.4215 25.0965L24.534 25.359L24.8152 25.4059L24.609 25.6027M22.2559 25.884L22.0027 25.7434L21.7496 25.8746L21.8059 25.5934L21.6184 25.3777L21.8996 25.3496L22.0309 25.0871L22.1434 25.359L22.4246 25.4059L22.2184 25.6027M15.7684 25.059L15.609 24.9652L15.4496 25.0402L15.4871 24.8621L15.3652 24.7309L15.5434 24.7121L15.6184 24.5527L15.6934 24.7215L15.8715 24.7496L15.7402 24.8715M31.4715 29.1277L31.2277 28.9871L30.9746 29.1184L31.0309 28.8371L30.834 28.6215L31.1152 28.584L31.2465 28.3309L31.3684 28.5934L31.6496 28.6496L31.434 28.8371M29.484 29.3996L29.2777 29.2684L29.0621 29.3809L29.109 29.1371L28.9496 28.9684L29.184 28.9402L29.2965 28.7246L29.3902 28.9496L29.6246 28.9871L29.4465 29.1559M30.4215 29.3715L30.234 29.259L30.0371 29.3527L30.0746 29.1371L29.9246 28.9777L30.1402 28.9496L30.2434 28.7621L30.3371 28.9496L30.5527 28.9965L30.3934 29.1465M33.1215 27.009L32.934 26.9152L32.7465 27.009L32.7934 26.7934L32.6434 26.634L32.859 26.6059L32.9527 26.4184L33.0465 26.6152L33.2434 26.6527L33.0934 26.8027M29.4559 30.7215L29.2215 30.5902L28.9684 30.7027L29.0246 30.4402L28.8371 30.2527L29.1184 30.2246L29.2402 29.9902L29.3527 30.234L29.634 30.2809L29.4184 30.459M29.4746 31.7902L29.2496 31.659L29.0246 31.7809L29.0809 31.5184L28.9027 31.3309L29.1559 31.2934L29.2684 31.059L29.3715 31.3027L29.6246 31.3496L29.4371 31.5371M27.6559 29.3715L27.4777 29.259L27.2902 29.3527L27.3277 29.1465L27.1871 28.9871L27.3934 28.9684L27.4871 28.7809L27.5809 28.9684L27.7871 29.0059L27.6371 29.1559M25.9684 29.3715L25.7809 29.259L25.5934 29.3527L25.6402 29.1465L25.4902 28.9871L25.7059 28.9684L25.7996 28.7809L25.8934 28.9684L26.0902 29.0059L25.9402 29.1559M23.0902 26.8496L22.9027 26.7465L22.7152 26.8402L22.7621 26.6246L22.6121 26.4746L22.8184 26.4465L22.9121 26.259L23.0059 26.4465L23.2121 26.4934L23.0621 26.634M23.409 31.9777L23.259 31.8934L23.0902 31.9777L23.1277 31.7902L23.0059 31.659L23.184 31.6402L23.2684 31.4809L23.3434 31.6496L23.5215 31.6777L23.3902 31.7996M19.059 23.6809L18.684 23.4652L18.309 23.6527L18.3934 23.2309L18.0934 22.9215L18.5152 22.8652L18.7215 22.4902L18.8996 22.884L19.3121 22.959L19.0027 23.2496" fill="#FFFFEF"/>
<path fill-rule="evenodd" clip-rule="evenodd" d="M34.1625 26.7941C34.3948 26.1914 34.5766 25.5705 34.7063 24.9378C28.35 19.3597 21.2719 16.5003 12.3281 17.0909C12.0037 17.7186 11.737 18.3744 11.5312 19.0503C22.125 18.0378 29.9062 22.7253 34.1625 26.7941Z" fill="white"/>
<path d="M31.3123 23.6625L31.5279 23.7844C31.4957 23.848 31.4858 23.9207 31.4998 23.9906C31.5218 24.0585 31.5687 24.1154 31.6311 24.15C31.6967 24.1969 31.7623 24.225 31.8186 24.2156C31.8748 24.2156 31.9123 24.1875 31.9404 24.15C31.9568 24.1251 31.9634 24.0951 31.9592 24.0656C31.9515 24.031 31.9354 23.9988 31.9123 23.9719C31.8936 23.9437 31.8467 23.8781 31.7717 23.8031C31.6946 23.7236 31.6369 23.6273 31.6029 23.5219C31.5795 23.4421 31.5856 23.3565 31.62 23.2808C31.6544 23.2051 31.7149 23.1442 31.7904 23.1094C31.8586 23.0809 31.934 23.0744 32.0061 23.0906C32.0942 23.1109 32.1772 23.1492 32.2498 23.2031C32.3811 23.2969 32.4654 23.3906 32.4936 23.5031C32.5065 23.5557 32.5082 23.6105 32.4985 23.6638C32.4888 23.7171 32.468 23.7678 32.4373 23.8125L32.2123 23.6719C32.2404 23.6156 32.2498 23.5594 32.2311 23.5125C32.2217 23.4656 32.1842 23.4187 32.1186 23.3812C32.0704 23.3425 32.0115 23.3196 31.9498 23.3156C31.9328 23.3151 31.916 23.3191 31.9011 23.3274C31.8863 23.3356 31.8739 23.3478 31.8654 23.3625C31.8467 23.3906 31.8467 23.4187 31.8561 23.4562C31.8654 23.4937 31.9123 23.5687 32.0061 23.6625C32.0998 23.7562 32.1561 23.8406 32.1936 23.8969C32.227 23.9583 32.2422 24.0281 32.2372 24.0979C32.2322 24.1677 32.2073 24.2346 32.1654 24.2906C32.1216 24.3544 32.0595 24.4034 31.9873 24.4313C31.917 24.4636 31.8384 24.4734 31.7623 24.4594C31.6779 24.4406 31.5936 24.4031 31.4998 24.3375C31.3592 24.2438 31.2748 24.1406 31.2467 24.0281C31.2161 23.9006 31.2363 23.7661 31.3029 23.6531L31.3123 23.6625ZM30.2248 22.95L30.4592 23.0719C30.4301 23.1366 30.4235 23.2092 30.4404 23.2781C30.4644 23.3425 30.5111 23.3958 30.5717 23.4281C30.6467 23.475 30.7029 23.4938 30.7592 23.4844C30.8154 23.4844 30.8529 23.4562 30.8811 23.4094C30.8953 23.3871 30.9019 23.3607 30.8998 23.3344C30.8998 23.3062 30.8811 23.2687 30.8529 23.2406C30.8049 23.1827 30.7549 23.1264 30.7029 23.0719C30.5998 22.9688 30.5342 22.8844 30.5154 22.8094C30.5001 22.7611 30.4955 22.7101 30.502 22.6599C30.5085 22.6097 30.5258 22.5615 30.5529 22.5187C30.5886 22.4609 30.6409 22.4152 30.7029 22.3875C30.7673 22.3578 30.8392 22.348 30.9092 22.3594C30.9959 22.374 31.0788 22.4059 31.1529 22.4531C31.2936 22.5469 31.3779 22.6406 31.4061 22.7438C31.4231 22.7964 31.4286 22.8522 31.4222 22.9072C31.4157 22.9622 31.3974 23.0152 31.3686 23.0625L31.1342 22.9313C31.1623 22.8656 31.1717 22.8187 31.1529 22.7719C31.1342 22.725 31.0967 22.6781 31.0311 22.6406C30.9792 22.6034 30.9168 22.5837 30.8529 22.5844C30.8375 22.5854 30.8226 22.5902 30.8096 22.5984C30.7965 22.6066 30.7856 22.6179 30.7779 22.6312C30.7592 22.6594 30.7592 22.6875 30.7686 22.725C30.7779 22.7625 30.8342 22.8375 30.9279 22.9313C31.0217 23.025 31.0873 23.1 31.1154 23.1562C31.153 23.215 31.173 23.2834 31.173 23.3531C31.173 23.4229 31.153 23.4912 31.1154 23.55C31.075 23.6154 31.0164 23.6675 30.9467 23.7C30.8764 23.7324 30.7978 23.7422 30.7217 23.7281C30.6252 23.7118 30.5328 23.6768 30.4498 23.625C30.3286 23.5604 30.2352 23.4537 30.1873 23.325C30.1511 23.1998 30.1645 23.0655 30.2248 22.95ZM28.8936 22.5938L29.5779 21.4688L30.4029 21.9844L30.2904 22.1719L29.6904 21.7969L29.5404 22.05L30.1029 22.3969L29.9811 22.5844L29.4186 22.2375L29.2311 22.5469L29.8592 22.9219L29.7467 23.1094L28.9029 22.5938H28.8936ZM26.9529 21L27.0561 20.8125L27.5623 21.0656L27.3279 21.5344C27.2529 21.5531 27.1592 21.5625 27.0467 21.5531C26.9387 21.5412 26.8338 21.5094 26.7373 21.4594C26.6239 21.4041 26.5269 21.3201 26.4561 21.2156C26.3916 21.1186 26.3588 21.0039 26.3623 20.8875C26.3671 20.7663 26.3991 20.6477 26.4561 20.5406C26.5124 20.4279 26.5962 20.3312 26.6998 20.2594C26.7989 20.1909 26.9168 20.1548 27.0373 20.1562C27.1311 20.1562 27.2248 20.1844 27.3373 20.25C27.4873 20.3156 27.5811 20.4094 27.6279 20.5125C27.6767 20.6149 27.6867 20.7314 27.6561 20.8406L27.4029 20.7656C27.4184 20.7028 27.4118 20.6366 27.3842 20.5781C27.3561 20.5219 27.3092 20.4844 27.2342 20.4469C27.1905 20.4219 27.142 20.4065 27.0919 20.4017C27.0418 20.3968 26.9912 20.4026 26.9436 20.4188C26.8498 20.4469 26.7654 20.5312 26.6998 20.6625C26.6342 20.7937 26.6061 20.9156 26.6342 21.0187C26.6471 21.0677 26.6706 21.1131 26.703 21.152C26.7354 21.1909 26.7759 21.2222 26.8217 21.2438C26.8686 21.2719 26.9248 21.2906 26.9811 21.2906C27.037 21.2991 27.0939 21.2991 27.1498 21.2906L27.2248 21.1406L26.9529 21ZM18.4967 18.9094L18.6842 17.5969L19.0779 17.6625L19.1811 18.5812L19.5467 17.7375L19.9404 17.7938L19.7529 19.0875L19.4998 19.05L19.6592 18.0281L19.2467 19.0125L18.9936 18.975L18.8904 17.9156L18.7404 18.9469L18.4967 18.9094ZM17.1748 18.75L17.2967 17.4375L18.2623 17.5312L18.2436 17.7562L17.5404 17.6906L17.5123 17.9719L18.1686 18.0375L18.1404 18.2625L17.4842 18.1969L17.4561 18.5531L18.1873 18.6188L18.1686 18.8438L17.1748 18.75Z" fill="#309E3A"/>
<path d="M12.7972 17.9348C12.7972 17.7941 12.8253 17.691 12.8628 17.5973C12.8956 17.5306 12.9401 17.4703 12.994 17.4191C13.0421 17.3706 13.0995 17.3324 13.1628 17.3066C13.2565 17.2785 13.3503 17.2598 13.444 17.2598C13.6409 17.2598 13.7909 17.3348 13.9128 17.4473C13.9708 17.5189 14.0139 17.6014 14.0397 17.69C14.0654 17.7785 14.0733 17.8713 14.0628 17.9629C14.0628 18.1691 13.9972 18.3379 13.8753 18.4598C13.8126 18.5177 13.7386 18.5618 13.6578 18.5892C13.5771 18.6167 13.4915 18.6269 13.4065 18.6191C13.3227 18.62 13.2396 18.6038 13.1623 18.5716C13.0849 18.5393 13.0149 18.4917 12.9565 18.4316C12.8399 18.2936 12.7826 18.1149 12.7972 17.9348Z" fill="#309E3A"/>
<path d="M13.0693 17.9345C13.0693 18.0752 13.0975 18.1877 13.1631 18.272C13.2287 18.347 13.3131 18.3939 13.4256 18.3939C13.4743 18.3973 13.5231 18.3898 13.5685 18.372C13.6139 18.3542 13.6548 18.3264 13.6881 18.2908C13.7537 18.2158 13.7818 18.1033 13.7912 17.9439C13.7912 17.7939 13.7725 17.6814 13.6975 17.6064C13.6669 17.5686 13.6284 17.5381 13.5846 17.517C13.5408 17.4959 13.4929 17.4849 13.4443 17.4845C13.395 17.483 13.346 17.4922 13.3006 17.5117C13.2552 17.5311 13.2147 17.5602 13.1818 17.597C13.1068 17.672 13.0787 17.7845 13.0693 17.9345Z" fill="#F7FFFF"/>
<path d="M14.3438 18.6094L14.3625 17.2969H14.925C15.0656 17.2969 15.1594 17.3156 15.225 17.3438C15.2906 17.3625 15.3375 17.4094 15.375 17.4656C15.4125 17.5219 15.4313 17.5969 15.4313 17.6813C15.432 17.7714 15.3985 17.8585 15.3375 17.925C15.2682 17.9899 15.179 18.0296 15.0844 18.0375L15.225 18.15C15.2625 18.1875 15.3094 18.2625 15.3656 18.3656L15.525 18.6281H15.2062L15.0187 18.3281L14.8875 18.1406C14.8648 18.1148 14.8357 18.0954 14.8031 18.0844C14.7605 18.0719 14.7163 18.0656 14.6719 18.0656H14.6156V18.6094H14.3438Z" fill="#309E3A"/>
<path d="M14.625 17.859H14.8125C14.9437 17.859 15.0281 17.859 15.0563 17.8402C15.0844 17.8402 15.1125 17.8121 15.1312 17.7934C15.15 17.7746 15.1594 17.7277 15.1594 17.6996C15.1594 17.6434 15.15 17.6059 15.1219 17.5871C15.1031 17.559 15.0656 17.5402 15.0281 17.5309H14.8406L14.625 17.5215V17.8496V17.859Z" fill="white"/>
<path d="M15.8439 17.3623L16.3314 17.3904C16.4346 17.3904 16.5189 17.3998 16.5752 17.4186C16.6482 17.445 16.7128 17.4903 16.7627 17.5498C16.8167 17.6154 16.8552 17.6923 16.8752 17.7748C16.9033 17.8592 16.9127 17.9623 16.9033 18.0842C16.9032 18.1799 16.8874 18.2749 16.8564 18.3654C16.8189 18.4592 16.7627 18.5342 16.6971 18.5904C16.6424 18.6354 16.5783 18.6675 16.5096 18.6842C16.4533 18.7029 16.3689 18.7029 16.2752 18.7029L15.7783 18.6748L15.8439 17.3623Z" fill="#309E3A"/>
<path d="M16.0967 17.5967L16.0498 18.4686H16.4061C16.4529 18.4686 16.4904 18.4498 16.5186 18.4217C16.5467 18.3936 16.5748 18.3561 16.5936 18.2998C16.6123 18.2436 16.6311 18.1592 16.6311 18.0561L16.6217 17.8217C16.6083 17.7722 16.5825 17.7271 16.5467 17.6904C16.5155 17.6591 16.4768 17.6365 16.4342 17.6248C16.3633 17.609 16.2911 17.5996 16.2186 17.5967H16.0967Z" fill="white"/>
<path d="M22.2754 19.7066L22.5848 18.4316L22.9973 18.5254L23.2973 18.6191C23.3629 18.6566 23.4191 18.7129 23.4473 18.7973C23.4848 18.8723 23.4848 18.9566 23.466 19.0598C23.4473 19.1348 23.4191 19.2004 23.3723 19.2473C23.3379 19.2884 23.2949 19.3215 23.2463 19.3442C23.1977 19.3669 23.1447 19.3786 23.091 19.3785C23.0254 19.3785 22.9316 19.3598 22.8098 19.3316L22.6504 19.2848L22.5379 19.7723L22.2754 19.7066Z" fill="#309E3A"/>
<path d="M22.782 18.7129L22.707 19.0691L22.8477 19.1066C22.9414 19.1254 23.0164 19.1441 23.0539 19.1348C23.0904 19.1297 23.1244 19.1135 23.1512 19.0883C23.1781 19.0631 23.1965 19.0302 23.2039 18.9941C23.2039 18.9473 23.2039 18.9098 23.1852 18.8723C23.1646 18.8342 23.1315 18.8043 23.0914 18.7879L22.9133 18.741L22.7914 18.7129H22.782Z" fill="white"/>
<path d="M23.4941 20.0715L23.9348 18.834L24.4504 19.0215C24.591 19.0684 24.6754 19.1152 24.7316 19.1527C24.7785 19.1996 24.816 19.2465 24.8254 19.3215C24.8348 19.3965 24.8441 19.4621 24.8254 19.5371C24.7879 19.6309 24.7316 19.6965 24.6566 19.7434C24.5816 19.7809 24.4879 19.7902 24.3754 19.7715C24.4129 19.8184 24.4504 19.8652 24.4691 19.9215L24.5441 20.1746L24.6004 20.4652L24.3098 20.3621L24.216 20.0246C24.199 19.9483 24.1771 19.8731 24.1504 19.7996C24.138 19.7704 24.1187 19.7447 24.0941 19.7246C24.0754 19.6965 24.0379 19.6777 23.9723 19.659L23.9254 19.6402L23.7379 20.1652L23.4941 20.0715Z" fill="#309E3A"/>
<path d="M24.0006 19.4432L24.1787 19.5088C24.3006 19.5557 24.3756 19.5744 24.4131 19.5744C24.4412 19.5744 24.4693 19.5744 24.4975 19.5463C24.5256 19.5275 24.5443 19.4994 24.5537 19.4619C24.5725 19.4244 24.5725 19.3869 24.5537 19.3494C24.5398 19.3131 24.5132 19.2831 24.4787 19.265L24.2912 19.1994L24.1037 19.1338L23.9912 19.4432H24.0006Z" fill="white"/>
<path d="M25.0317 20.0248C25.064 19.915 25.1182 19.813 25.1911 19.7248C25.2385 19.6682 25.2957 19.6206 25.3598 19.5842C25.418 19.5514 25.4814 19.5291 25.5473 19.5186C25.6411 19.5186 25.7348 19.5186 25.838 19.5561C25.9218 19.5768 26.0002 19.6151 26.0681 19.6684C26.136 19.7218 26.1917 19.7889 26.2317 19.8654C26.3067 20.0154 26.3067 20.1936 26.2505 20.3998C26.2041 20.577 26.0895 20.7286 25.9317 20.8217C25.7911 20.9061 25.6223 20.9154 25.4442 20.8592C25.3607 20.8379 25.2825 20.7994 25.2147 20.7461C25.1468 20.6928 25.0909 20.626 25.0505 20.5498C25.0129 20.4678 24.9919 20.3793 24.9887 20.2892C24.9855 20.1991 25.0001 20.1092 25.0317 20.0248Z" fill="#309E3A"/>
<path d="M25.2944 20.0995C25.2569 20.2402 25.2476 20.362 25.2944 20.4558C25.3413 20.5495 25.4069 20.6058 25.5101 20.6433C25.6038 20.6714 25.6976 20.662 25.7913 20.6058C25.8851 20.5589 25.9413 20.4558 25.9882 20.3058C26.0351 20.1652 26.0351 20.0527 25.9882 19.9589C25.9697 19.9144 25.9416 19.8746 25.906 19.8422C25.8703 19.8098 25.828 19.7856 25.7819 19.7714C25.7358 19.7555 25.6868 19.7497 25.6382 19.7546C25.5897 19.7595 25.5427 19.7748 25.5007 19.7995C25.4069 19.8558 25.3413 19.9495 25.2944 20.0995Z" fill="white"/>
<path d="M27.5908 21.8529L28.1908 20.6904L28.6877 20.9436C28.7814 20.9885 28.8669 21.0487 28.9408 21.1217C28.9877 21.1686 29.0158 21.2248 29.0158 21.2998C29.0158 21.3748 29.0158 21.4404 28.9783 21.5061C28.9423 21.5904 28.8751 21.6575 28.7908 21.6936C28.6971 21.7123 28.6033 21.7123 28.5002 21.6748C28.5377 21.7311 28.5564 21.7873 28.5752 21.8342C28.5939 21.8904 28.6033 21.9748 28.6127 22.0967L28.6314 22.3967L28.3502 22.2561L28.3127 21.9092C28.3083 21.8305 28.2989 21.7523 28.2846 21.6748C28.2782 21.6397 28.2619 21.6072 28.2377 21.5811L28.1252 21.5154L28.0783 21.4873L27.8252 21.9748L27.5908 21.8529Z" fill="#309E3A"/>
<path d="M28.1719 21.3L28.35 21.3937C28.4625 21.45 28.5375 21.4875 28.5656 21.4875C28.5938 21.4875 28.6313 21.4875 28.6594 21.4688C28.6875 21.4594 28.7062 21.4312 28.725 21.3937C28.7437 21.3562 28.7531 21.3187 28.7438 21.2812C28.7322 21.2439 28.7092 21.2111 28.6781 21.1875C28.6233 21.1538 28.567 21.1225 28.5094 21.0938L28.3219 21L28.1719 21.3Z" fill="white"/>
<path d="M32.4468 24.2536C32.5075 24.1572 32.5873 24.0742 32.6812 24.0098C32.7443 23.9695 32.8142 23.9409 32.8875 23.9255C32.9555 23.9116 33.0257 23.9116 33.0937 23.9255C33.1875 23.9442 33.2718 23.9817 33.3562 24.038C33.4292 24.0834 33.4919 24.1436 33.5403 24.2146C33.5887 24.2856 33.6218 24.3659 33.6375 24.4505C33.6656 24.6098 33.6187 24.788 33.5062 24.9661C33.4121 25.121 33.2604 25.2323 33.0843 25.2755C33.0004 25.2936 32.9136 25.2938 32.8296 25.276C32.7456 25.2582 32.6662 25.2229 32.5968 25.1723C32.5239 25.1269 32.4612 25.0667 32.4128 24.9957C32.3643 24.9247 32.3312 24.8444 32.3156 24.7598C32.2875 24.5911 32.3343 24.4223 32.4468 24.2536Z" fill="#309E3A"/>
<path d="M32.6809 24.404C32.5871 24.5259 32.559 24.6384 32.5777 24.7415C32.5847 24.789 32.6016 24.8345 32.6275 24.8749C32.6533 24.9153 32.6875 24.9497 32.7277 24.9759C32.8215 25.0415 32.9152 25.0603 33.009 25.0321C33.1027 25.004 33.1965 24.9384 33.2809 24.8071C33.3652 24.6759 33.4027 24.5634 33.384 24.4696C33.3746 24.3759 33.3184 24.2915 33.234 24.2259C33.1496 24.1603 33.0465 24.1509 32.9527 24.179C32.859 24.1978 32.7652 24.2728 32.6715 24.404H32.6809Z" fill="white"/>
<path d="M20.7939 19.1717L21.0096 18.2529L21.6846 18.4123L21.6564 18.5623L21.1596 18.4498L21.1127 18.6561L21.5721 18.7592L21.5346 18.9186L21.0752 18.8061L21.0189 19.0592L21.5346 19.1811L21.4971 19.3311L20.7939 19.1717Z" fill="#309E3A"/>
</g>
<defs>
<clipPath id="clip0_200_83031">
<rect width="60" height="45" fill="white" transform="translate(-7.5)"/>
</clipPath>
</defs>
</svg>
