<svg width="45" height="45" viewBox="0 0 45 45" fill="none" xmlns="http://www.w3.org/2000/svg">
<g clip-path="url(#clip0_200_81443)">
<path fill-rule="evenodd" clip-rule="evenodd" d="M-7.5 0H82.5096V29.8916H-7.5V0Z" fill="#B20000"/>
<path fill-rule="evenodd" clip-rule="evenodd" d="M-7.5 29.8916H82.5096V45H-7.5V29.8916Z" fill="#429F00"/>
<path fill-rule="evenodd" clip-rule="evenodd" d="M-7.5 0H2.46786V45H-7.5V0Z" fill="white"/>
<path fill-rule="evenodd" clip-rule="evenodd" d="M-7.02539 0.764648H-6.55073V1.5293H-7.02539V0.764648ZM-5.60141 0.764648H-4.17743V1.5293H-5.60141V0.764648ZM-5.12675 0H-4.65209V0.764648H-5.12675V0ZM-2.75345 0H-2.27879V0.764648H-2.75345V0ZM-0.854811 0.764648H0.56917V1.5293H-0.854811V0.764648ZM-0.380151 0H0.0945096V0.764648H-0.380151V0ZM-6.07607 1.5293H-5.12675V2.28516H-6.07607V1.5293ZM-4.65209 1.5293H-3.70277V2.28516H-4.65209V1.5293ZM-1.32947 1.5293H-0.380151V2.28516H-1.32947V1.5293ZM0.0945096 1.5293H1.04383V2.28516H0.0945096V1.5293ZM-6.55073 2.28516H-5.60141V3.0498H-6.55073V2.28516ZM-4.17743 2.28516H-3.22811V3.0498H-4.17743V2.28516ZM-1.80413 2.28516H-0.854811V3.0498H-1.80413V2.28516ZM0.56917 2.28516H1.51849V3.0498H0.56917V2.28516ZM1.51849 0.764648H1.99315V1.5293H1.51849V0.764648ZM-7.02539 3.0498H-6.07607V3.81445H-7.02539V3.0498ZM-3.70277 3.0498H-2.75345V3.81445H-3.70277V3.0498ZM1.04383 3.0498H1.99315V3.81445H1.04383V3.0498ZM-6.55073 5.33496H-5.60141V6.09961H-6.55073V5.33496ZM-6.07607 6.09961H-5.12675V6.86426H-6.07607V6.09961ZM-4.17743 5.34375H-3.22811V6.09961H-4.17743V5.34375ZM-4.65209 6.09961H-3.70277V6.86426H-4.65209V6.09961ZM-5.60141 6.86426H-4.17743V7.62891H-5.60141V6.86426Z" fill="#B20000"/>
<path fill-rule="evenodd" clip-rule="evenodd" d="M-5.1267 7.62891H-4.65204V8.39356H-5.1267V7.62891ZM-1.80408 5.34375H-0.85476V6.09961H-1.80408V5.34375ZM-1.32942 6.09961H-0.3801V6.86426H-1.32942V6.09961ZM0.569221 5.34375H1.51854V6.09961H0.569221V5.34375ZM0.0945606 6.09961H1.04388V6.86426H0.0945606V6.09961ZM-0.85476 6.86426H0.569221V7.62891H-0.85476V6.86426ZM-0.3801 7.62891H0.0945606V8.39356H-0.3801V7.62891ZM-2.7534 6.85547H-2.27874V7.62012H-2.7534V6.85547ZM-7.5 6.85547H-7.02534V7.62012H-7.5V6.85547ZM1.9932 6.85547H2.46786V7.62012H1.9932V6.85547ZM-5.1267 10.6699H-4.65204V11.4346H-5.1267V10.6699ZM-5.60136 11.4434H-4.17738V12.1992H-5.60136V11.4434ZM-6.07602 12.1992H-3.70272V12.9639H-6.07602V12.1992ZM-0.3801 10.6787H0.0945606V11.4434H-0.3801V10.6787ZM-0.85476 11.4434H0.569221V12.1992H-0.85476V11.4434ZM-1.32942 12.1992H1.04388V12.9639H-1.32942V12.1992ZM-0.85476 16.0137H1.51854V16.7783H-0.85476V16.0137ZM-1.80408 12.9639H1.51854V13.7285H-1.80408V12.9639ZM-6.55068 12.9639H-3.22806V13.7285H-6.55068V12.9639ZM-6.07602 16.7783H-4.65204V17.543H-6.07602V16.7783ZM-6.55068 16.0137H-4.17738V16.7783H-6.55068V16.0137ZM0.0945606 14.502H2.46786V15.2666H0.0945606V14.502ZM-0.3801 16.7871H1.04388V17.5518H-0.3801V16.7871Z" fill="#B20000"/>
<path fill-rule="evenodd" clip-rule="evenodd" d="M-5.60136 17.543H-5.1267V18.3076H-5.60136V17.543ZM0.0945606 17.543H0.569221V18.3076H0.0945606V17.543ZM-7.5 14.4932H-5.1267V15.2578H-7.5V14.4932ZM-3.22806 16.0137H-1.80408V16.7783H-3.22806V16.0137ZM-2.7534 16.7871H-2.27874V17.5518H-2.7534V16.7871ZM-4.17738 14.502H-0.85476V15.2666H-4.17738V14.502ZM-2.27874 3.0498H-1.32942V3.81445H-2.27874V3.0498ZM-3.22806 3.81445H-1.80408V4.5791H-3.22806V3.81445ZM-3.70272 4.5791H-2.7534V5.33496H-3.70272V4.5791ZM-2.27874 4.5791H-1.32942V5.33496H-2.27874V4.5791ZM-7.5 3.81445H-6.55068V4.5791H-7.5V3.81445ZM-7.02534 4.5791H-6.07602V5.33496H-7.02534V4.5791ZM1.51854 3.81445H2.46786V4.57031H1.51854V3.81445ZM1.04388 4.57031H1.9932V5.32617H1.04388V4.57031ZM-7.5 11.4258H-7.02534V12.1904H-7.5V11.4258ZM1.9932 11.4258H2.46786V12.1904H1.9932V11.4258ZM-3.22806 17.5342H-1.80408V18.2988H-3.22806V17.5342ZM-3.70272 18.2988H-2.7534V19.0547H-3.70272V18.2988ZM-2.27874 18.2988H-1.32942V19.0547H-2.27874V18.2988ZM-4.17738 19.0547H-3.22806V19.8193H-4.17738V19.0547ZM-1.80408 19.0547H-0.85476V19.8193H-1.80408V19.0547ZM-4.65204 19.8193H-3.70272V20.584H-4.65204V19.8193ZM-1.32942 19.8193H-0.3801V20.584H-1.32942V19.8193ZM-5.1267 20.5928H-4.17738V21.3574H-5.1267V20.5928ZM-0.85476 20.5928H0.0945606V21.3574H-0.85476V20.5928ZM-6.07602 21.3574H-4.65204V22.1221H-6.07602V21.3574ZM-0.3801 21.3574H1.04388V22.1221H-0.3801V21.3574ZM0.569221 20.5928H1.51854V21.3574H0.569221V20.5928ZM1.04388 19.8281H1.9932V20.5928H1.04388V19.8281ZM1.51854 19.0635H2.46786V19.8281H1.51854V19.0635ZM-6.55068 20.5928H-5.60136V21.3574H-6.55068V20.5928ZM-7.02534 19.8281H-6.07602V20.5928H-7.02534V19.8281ZM-7.5 19.0723H-6.55068V19.8369H-7.5V19.0723ZM-5.60136 22.1309H-5.1267V22.8867H-5.60136V22.1309ZM0.0945606 22.1309H0.569221V22.8867H0.0945606V22.1309ZM-2.7534 19.8457H-2.27874V20.6016H-2.7534V19.8457ZM-4.17738 22.1309H-3.70272V22.8867H-4.17738V22.1309ZM-1.32942 22.1309H-0.85476V22.8867H-1.32942V22.1309ZM-2.7534 22.1309H-2.27874V22.8867H-2.7534V22.1309ZM-7.5 22.1309H-7.02534V22.8867H-7.5L-7.5 22.1309ZM1.9932 22.1309H2.46786V22.8867H1.9932V22.1309ZM-2.7534 11.4434H-2.27874V12.1992H-2.7534V11.4434ZM-5.1267 3.81445H-4.65204V4.5791H-5.1267V3.81445ZM-0.3801 3.81445H0.0945606V4.5791H-0.3801V3.81445ZM-3.22806 9.14941H-1.80408V9.91406H-3.22806V9.14941ZM-4.17738 9.91406H-2.7534V10.6787H-4.17738V9.91406ZM-3.70272 10.6787H-3.22806V11.4434H-3.70272V10.6787ZM-4.65204 9.14941H-3.70272V9.91406H-4.65204V9.14941ZM-4.17738 8.39355H-2.7534V9.14941H-4.17738V8.39355ZM-3.70272 7.62891H-3.22806V8.39355H-3.70272V7.62891ZM-2.27874 8.39355H-0.85476V9.14941H-2.27874V8.39355ZM-1.80408 7.62891H-1.32942V8.39355H-1.80408V7.62891ZM-1.32942 9.14941H-0.3801V9.91406H-1.32942V9.14941ZM-2.27874 9.91406H-0.85476V10.6787H-2.27874V9.91406ZM-1.80408 10.6787H-1.32942V11.4434H-1.80408V10.6787ZM0.0945606 9.14941H1.04388V9.91406H0.0945606V9.14941ZM0.569221 8.39355H1.9932V9.14941H0.569221V8.39355ZM1.51854 9.14941H2.46786V9.91406H1.51854V9.14941ZM0.569221 9.91406H1.9932V10.6787H0.569221V9.91406ZM1.04388 10.6787H1.51854V11.4434H1.04388V10.6787ZM1.04388 7.62891H1.51854V8.39355H1.04388V7.62891ZM-7.5 9.14062H-6.55068V9.90527H-7.5V9.14062ZM-7.02534 8.38477H-5.60136V9.14062H-7.02534V8.38477ZM-6.07602 9.14062H-5.1267V9.90527H-6.07602V9.14062ZM-7.02534 9.90527H-5.60136V10.6699H-7.02534V9.90527Z" fill="#B20000"/>
<path fill-rule="evenodd" clip-rule="evenodd" d="M-6.55068 10.6787H-6.07602V11.4434H-6.55068V10.6787ZM-6.55068 7.62891H-6.07602V8.39355H-6.55068V7.62891ZM-7.02534 13.7285H-5.1267V14.4932H-7.02534V13.7285ZM-4.65204 13.7285H-2.7534V14.4932H-4.65204V13.7285ZM-2.27874 13.7285H-0.3801V14.4932H-2.27874V13.7285ZM0.0945606 13.7285H1.9932V14.4932H0.0945606V13.7285ZM-3.70272 15.2578H-1.32942V16.0137H-3.70272V15.2578ZM-7.02534 15.2578H-4.65204V16.0137H-7.02534V15.2578ZM-0.3801 15.2578H1.9932V16.0137H-0.3801V15.2578ZM1.9932 18.3076H2.46786V19.0635H1.9932V18.3076ZM-7.5 18.3076H-7.02534V19.0635H-7.5V18.3076ZM-7.02534 44.2354H-6.55068V43.4795H-7.02534V44.2354ZM-5.60136 44.2354H-4.17738V43.4795H-5.60136V44.2354ZM-5.1267 45H-4.65204V44.2354H-5.1267V45ZM-2.7534 45H-2.27874V44.2354H-2.7534V45ZM-0.85476 44.2354H0.569221V43.4707H-0.85476V44.2354ZM-0.3801 45H0.0945606V44.2354H-0.3801V45ZM-6.07602 43.4707H-5.1267V42.7148H-6.07602V43.4707ZM-4.65204 43.4707H-3.70272V42.7148H-4.65204V43.4707ZM-1.32942 43.4707H-0.3801V42.7148H-1.32942V43.4707ZM0.0945606 43.4707H1.04388V42.7148H0.0945606V43.4707ZM-4.17738 42.7148H-3.22806V41.9502H-4.17738V42.7148ZM-1.80408 42.7148H-0.85476V41.9502H-1.80408V42.7148ZM0.569221 42.7148H1.51854V41.9502H0.569221V42.7148ZM1.51854 44.2354H1.9932V43.4707H1.51854V44.2354ZM-7.02534 41.9502H-6.07602V41.1855H-7.02534V41.9502ZM-3.70272 41.9502H-2.7534V41.1855H-3.70272V41.9502ZM1.04388 41.9502H1.9932V41.1855H1.04388V41.9502ZM-6.55068 39.665H-5.60136V38.9004H-6.55068V39.665ZM-6.07602 38.9004H-5.1267V38.1357H-6.07602V38.9004ZM-4.17738 39.665H-3.22806V38.9004H-4.17738V39.665ZM-4.65204 38.9004H-3.70272V38.1357H-4.65204V38.9004ZM-5.60136 38.1357H-4.17738V37.3711H-5.60136V38.1357ZM-5.1267 37.3711H-4.65204V36.6152H-5.1267V37.3711ZM-1.80408 39.6563H-0.85476V38.9004H-1.80408V39.6563ZM-1.32942 38.9004H-0.3801V38.1357H-1.32942V38.9004ZM0.569221 39.665H1.51854V38.9004H0.569221V39.665ZM0.0945606 38.9004H1.04388V38.1357H0.0945606V38.9004ZM-0.85476 38.1357H0.569221V37.3711H-0.85476V38.1357ZM-0.3801 37.3711H0.0945606V36.6152H-0.3801V37.3711ZM-2.7534 38.1445H-2.27874V37.3799H-2.7534V38.1445ZM-7.5 38.1445H-7.02534V37.3799H-7.5V38.1445ZM1.9932 38.1445H2.46786V37.3799H1.9932V38.1445ZM-5.1267 34.3301H-4.65204V33.5654H-5.1267V34.3301ZM-5.60136 33.5566H-4.17738V32.8008H-5.60136V33.5566ZM-6.07602 32.8008H-3.70272V32.0361H-6.07602V32.8008ZM-0.3801 34.3213H0.0945606V33.5566H-0.3801V34.3213Z" fill="#B20000"/>
<path fill-rule="evenodd" clip-rule="evenodd" d="M-0.85476 33.5566H0.569221V32.8008H-0.85476V33.5566ZM-1.32942 32.8008H1.04388V32.0361H-1.32942V32.8008ZM-0.85476 28.9863H1.51854V28.2129H-0.85476V28.9863ZM-1.80408 32.0361H1.51854V31.2715H-1.80408V32.0361ZM-6.55068 32.0361H-3.22806V31.2715H-6.55068V32.0361ZM-6.07602 28.2217H-4.65204V27.457H-6.07602V28.2217ZM-6.55068 28.9863H-4.17738V28.2129H-6.55068V28.9863ZM0.0945606 30.498H2.46786V29.7334H0.0945606V30.498ZM-0.3801 28.2129H1.04388V27.4482H-0.3801V28.2129ZM-7.5 30.498H-5.1267V29.7334H-7.5V30.498ZM-3.22806 28.9775H-1.80408V28.2129H-3.22806V28.9775ZM-2.7534 28.2129H-2.27874V27.4482H-2.7534V28.2129ZM-4.17738 30.498H-0.85476V29.7334H-4.17738V30.498ZM-2.27874 41.9414H-1.32942V41.1768H-2.27874V41.9414ZM-3.22806 41.1768H-1.80408V40.4297H-3.22806V41.1768ZM-3.70272 40.4121H-2.7534V39.6475H-3.70272V40.4121ZM-2.27874 40.4121H-1.32942V39.6475H-2.27874V40.4121ZM-7.5 41.1855H-6.55068V40.4297H-7.5V41.1855ZM-7.02534 40.4209H-6.07602V39.665H-7.02534V40.4209ZM1.51854 41.1855H2.46786V40.4297H1.51854V41.1855ZM1.04388 40.4209H1.9932V39.665H1.04388V40.4209ZM-7.5 33.5742H-7.02534V32.8096H-7.5V33.5742ZM1.9932 33.5742H2.46786V32.8096H1.9932V33.5742ZM-3.70272 26.7012H-2.7534V25.9453H-3.70272V26.7012ZM-2.27874 26.7012H-1.32942V25.9453H-2.27874V26.7012ZM-4.17738 25.9453H-3.22806V25.1807H-4.17738V25.9453ZM-1.80408 25.9453H-0.85476V25.1807H-1.80408V25.9453ZM-4.65204 25.1807H-3.70272V24.416H-4.65204V25.1807ZM-1.32942 25.1807H-0.3801V24.416H-1.32942V25.1807ZM-5.1267 24.4072H-4.17738V23.6426H-5.1267V24.4072ZM-0.85476 24.4072H0.0945606V23.6426H-0.85476V24.4072ZM-6.07602 23.6426H-4.65204V22.8779H-6.07602V23.6426ZM-0.3801 23.6426H1.04388V22.8779H-0.3801V23.6426ZM0.569221 24.4072H1.51854V23.6426H0.569221V24.4072ZM1.04388 25.1719H1.9932V24.4072H1.04388V25.1719ZM1.51854 25.9365H2.46786V25.1719H1.51854V25.9365ZM-6.55068 24.4072H-5.60136V23.6426H-6.55068V24.4072ZM-7.02534 25.1719H-6.07602V24.4072H-7.02534V25.1719ZM-7.5 25.9277H-6.55068V25.1631H-7.5V25.9277ZM-5.60136 22.8691H-5.1267V22.1133H-5.60136V22.8691ZM-2.7534 25.1543H-2.27874V24.3984H-2.7534V25.1543ZM-2.7534 33.5479H-2.27874V32.792H-2.7534V33.5479ZM-5.1267 41.1768H-4.65204V40.4297H-5.1267V41.1768ZM-0.3801 41.1768H0.0945606V40.4297H-0.3801V41.1768ZM-3.22806 35.8594H-1.80408V35.0947H-3.22806V35.8594ZM-4.17738 35.0947H-2.7534V34.3301H-4.17738V35.0947ZM-3.70272 34.3301H-3.22806V33.5654H-3.70272V34.3301ZM-4.65204 35.8594H-3.70272V35.0947H-4.65204V35.8594ZM-4.17738 36.6064H-2.7534V35.8594H-4.17738V36.6064ZM-3.70272 37.3711H-3.22806V36.6152H-3.70272V37.3711ZM-2.27874 36.6064H-0.85476V35.8594H-2.27874V36.6064ZM-1.80408 37.3711H-1.32942V36.6152H-1.80408V37.3711ZM-1.32942 35.8506H-0.3801V35.0859H-1.32942V35.8506ZM-2.27874 35.0859H-0.85476V34.3213H-2.27874V35.0859ZM-1.80408 34.3213H-1.32942V33.5566H-1.80408V34.3213ZM0.0945606 35.8594H1.04388V35.0947H0.0945606V35.8594ZM0.569221 36.6064H1.9932V35.8594H0.569221V36.6064ZM1.51854 35.8506H2.46786V35.0859H1.51854V35.8506ZM0.569221 35.0859H1.9932V34.3213H0.569221V35.0859ZM1.04388 34.3213H1.51854V33.5566H1.04388V34.3213ZM1.04388 37.3711H1.51854V36.6152H1.04388V37.3711ZM-7.5 35.8594H-6.55068V35.0947H-7.5V35.8594ZM-7.02534 36.6064H-5.60136V35.8594H-7.02534V36.6064Z" fill="#B20000"/>
<path fill-rule="evenodd" clip-rule="evenodd" d="M-6.07602 35.8506H-5.1267V35.0859H-6.07602V35.8506ZM-7.02534 35.0859H-5.60136V34.3213H-7.02534V35.0859ZM-6.55068 34.3213H-6.07602V33.5566H-6.55068V34.3213ZM-6.55068 37.3711H-6.07602V36.6152H-6.55068V37.3711ZM-7.02534 31.2715H-5.1267V30.5068H-7.02534V31.2715ZM-4.65204 31.2715H-2.7534V30.5068H-4.65204V31.2715ZM-2.27874 31.2715H-0.3801V30.5068H-2.27874V31.2715ZM0.0945606 31.2715H1.9932V30.5068H0.0945606V31.2715ZM-3.70272 29.7422H-1.32942V28.9863H-3.70272V29.7422ZM-7.02534 29.7422H-4.65204V28.9863H-7.02534V29.7422ZM-0.3801 29.7422H1.9932V28.9863H-0.3801V29.7422ZM1.9932 26.7012H2.46786V25.9277H1.9932V26.7012ZM-7.5 26.7012H-7.02534V25.9277H-7.5V26.7012ZM-3.22806 22.8779H-2.7534V23.6426H-3.22806V22.8779ZM-2.27874 22.8779H-1.80408V23.6426H-2.27874V22.8779ZM-2.27874 21.3574H-1.80408V22.1221H-2.27874V21.3574ZM-3.22806 21.3574H-2.7534V22.1221H-3.22806V21.3574ZM-6.55068 41.9502H-5.60136V42.7148H-6.55068V41.9502ZM0.0945606 27.457H0.569221V26.6924H0.0945606V27.457ZM-5.60136 27.457H-5.1267V26.6924H-5.60136V27.457ZM-3.22806 26.6924H-1.80408V27.457H-3.22806V26.6924Z" fill="#B20000"/>
</g>
<defs>
<clipPath id="clip0_200_81443">
<rect width="60" height="45" fill="white" transform="translate(-7.5)"/>
</clipPath>
</defs>
</svg>
