<svg width="45" height="45" viewBox="0 0 45 45" fill="none" xmlns="http://www.w3.org/2000/svg">
<g clip-path="url(#clip0_200_83085)">
<path d="M6.57188 0H38.4187V45H6.5625L6.57188 0Z" fill="white"/>
<path d="M-9.34668 0H6.57207V45H-9.34668V0ZM38.4189 0H54.3377V45H38.4283L38.4189 0ZM11.3439 21.75L10.0971 22.1625L15.8533 27.225C16.2939 28.5094 15.7033 28.8937 15.3283 29.5687L21.5721 28.7812L21.4221 35.0625L22.7252 35.0344L22.4346 28.7906L28.6877 29.5406C28.3033 28.725 27.9564 28.2937 28.3127 26.9906L34.0596 22.2094L33.0564 21.8344C32.2314 21.1969 33.4127 18.7781 33.5814 17.25C33.5814 17.25 30.2346 18.4031 30.0189 17.7938L29.1564 16.1531L26.1002 19.5094C25.7721 19.5938 25.6314 19.4625 25.5471 19.1813L26.9533 12.1688L24.7221 13.425C24.5346 13.5094 24.3471 13.4344 24.2346 13.2188L22.0783 8.90625L19.8658 13.3875C19.6971 13.5469 19.5283 13.5656 19.3971 13.4531L17.2502 12.2625L18.5346 19.2094C18.4314 19.4906 18.1877 19.5656 17.9064 19.4156L14.9814 16.1063C14.6064 16.7156 14.3439 17.7094 13.8377 17.9344C13.3314 18.15 11.6346 17.5125 10.5002 17.2781C10.8939 18.6656 12.0939 20.9906 11.3439 21.75Z" fill="#D52B1E"/>
</g>
<defs>
<clipPath id="clip0_200_83085">
<rect width="60" height="45" fill="white" transform="translate(-7.5)"/>
</clipPath>
</defs>
</svg>
