<svg width="45" height="45" viewBox="0 0 45 45" fill="none" xmlns="http://www.w3.org/2000/svg">
<g clip-path="url(#clip0_200_80216)">
<path d="M-7.5 0H52.5V45H-7.5V0Z" fill="#008000"/>
<path d="M22.5002 28.7533C25.9537 28.7533 28.7533 25.9537 28.7533 22.5002C28.7533 19.0467 25.9537 16.2471 22.5002 16.2471C19.0467 16.2471 16.2471 19.0467 16.2471 22.5002C16.2471 25.9537 19.0467 28.7533 22.5002 28.7533Z" fill="#FFE000"/>
<path d="M24.4496 27.6473C27.2921 27.6473 29.5965 25.3429 29.5965 22.5004C29.5965 19.6578 27.2921 17.3535 24.4496 17.3535C21.6071 17.3535 19.3027 19.6578 19.3027 22.5004C19.3027 25.3429 21.6071 27.6473 24.4496 27.6473Z" fill="#008000"/>
<path d="M2.79375 22.7906C6.40776 22.7906 9.3375 19.8609 9.3375 16.2469C9.3375 12.6329 6.40776 9.70312 2.79375 9.70312C-0.820263 9.70312 -3.75 12.6329 -3.75 16.2469C-3.75 19.8609 -0.820263 22.7906 2.79375 22.7906Z" fill="#FFE000"/>
<path d="M2.34375 21.1875H3.98438C3.98438 21.1875 4.05 21.0375 3.96563 20.9625C3.87188 20.8875 3.525 20.8688 3.61875 20.6063C3.80625 20.0625 3.84375 20.2312 3.96563 18.9375C4.05481 17.8298 4.11733 16.7201 4.15313 15.6094H3.90937C3.90937 15.6094 3.95625 16.2375 3.81562 17.0625C3.68437 17.8875 3.6375 17.9531 3.4875 18.5906C3.41684 18.9494 3.31328 19.3009 3.17813 19.6406C3.04688 20.0156 3.02812 20.025 2.82187 20.3719C2.60625 20.7094 2.68125 20.5781 2.56875 20.7844C2.50313 20.8875 2.4375 20.8594 2.39062 20.9344C2.35312 21.0094 2.34375 21.1875 2.34375 21.1875Z" fill="#802000"/>
<path fill-rule="evenodd" clip-rule="evenodd" d="M3.83352 15.5391H4.22564L4.2233 15.6116C4.18747 16.7235 4.12489 17.8343 4.03561 18.9431L4.03554 18.9441C3.97467 19.5902 3.93445 19.8769 3.88481 20.0706C3.85972 20.1685 3.83242 20.2419 3.80025 20.3238C3.7952 20.3366 3.79004 20.3497 3.78473 20.363C3.75637 20.4347 3.7241 20.5161 3.68512 20.6292L3.68487 20.6299C3.66651 20.6813 3.67261 20.7107 3.68245 20.7296C3.69383 20.7514 3.71712 20.7722 3.75521 20.7928C3.79064 20.812 3.83111 20.827 3.87366 20.8427C3.87678 20.8439 3.8799 20.845 3.88304 20.8462L3.88422 20.8466C3.92466 20.8616 3.97558 20.8805 4.00945 20.9076L4.01088 20.9087L4.01224 20.9099C4.08083 20.9709 4.0831 21.0575 4.07631 21.1118C4.0727 21.1407 4.06594 21.1662 4.06023 21.1842C4.05734 21.1933 4.05464 21.2007 4.05258 21.2061C4.05155 21.2088 4.05067 21.211 4.05001 21.2126L4.04917 21.2146L4.04889 21.2152L4.04878 21.2155L4.04873 21.2156C4.04872 21.2156 4.04869 21.2157 3.98428 21.1875L4.04869 21.2157L4.03026 21.2578H2.34365V21.1875C2.27344 21.1838 2.27344 21.1838 2.27344 21.1838L2.27345 21.1836L2.27348 21.1831L2.27358 21.1814L2.27397 21.1751C2.27432 21.1697 2.27486 21.1621 2.27563 21.1528C2.27715 21.1341 2.27961 21.1083 2.28331 21.08C2.29023 21.0269 2.30291 20.9524 2.32764 20.9029L2.32913 20.8999L2.3309 20.8971C2.36348 20.845 2.40567 20.8244 2.43386 20.8106C2.43639 20.8094 2.43882 20.8082 2.44111 20.807C2.46488 20.7951 2.48518 20.7839 2.50813 20.7485C2.5544 20.6637 2.56949 20.6351 2.58616 20.6075C2.60991 20.5681 2.63688 20.5307 2.76192 20.335C2.7877 20.2916 2.81041 20.2538 2.83067 20.22C2.89221 20.1174 2.93117 20.0524 2.9653 19.985C3.00992 19.8969 3.04615 19.8046 3.11166 19.6174L3.11215 19.616L3.11269 19.6146C3.24625 19.2789 3.34859 18.9316 3.41841 18.577L3.41866 18.5758L3.41896 18.5745C3.46121 18.3949 3.49521 18.2609 3.52514 18.1429C3.602 17.8399 3.65201 17.6428 3.74609 17.0515L3.74621 17.0507C3.81583 16.6423 3.83904 16.2825 3.84484 16.025C3.84774 15.8963 3.84629 15.7932 3.84412 15.7226C3.84304 15.6872 3.84178 15.66 3.8408 15.6417C3.84031 15.6326 3.83989 15.6257 3.8396 15.6211L3.83926 15.6161L3.83918 15.6149L3.83916 15.6146L3.83352 15.5391ZM3.98333 15.6797C3.98379 15.6913 3.98425 15.7042 3.98468 15.7183C3.98691 15.7912 3.98839 15.8967 3.98543 16.0281C3.97951 16.2909 3.95586 16.6575 3.8849 17.0739C3.78982 17.6715 3.7383 17.8747 3.6609 18.1798C3.63113 18.2972 3.59752 18.4296 3.55614 18.6055C3.48475 18.9676 3.38023 19.3223 3.24391 19.6652C3.17846 19.8522 3.13976 19.9518 3.09076 20.0486C3.05417 20.1208 3.01173 20.1916 2.94908 20.296C2.92902 20.3294 2.90689 20.3663 2.88221 20.4078L2.88164 20.4088L2.88103 20.4097C2.75286 20.6103 2.72737 20.6454 2.7051 20.6825C2.68967 20.7082 2.6758 20.7348 2.63038 20.818L2.62924 20.8201L2.62797 20.8221C2.58579 20.8884 2.54076 20.9144 2.504 20.9328C2.50253 20.9335 2.5011 20.9343 2.49971 20.935C2.47169 20.9489 2.4621 20.9537 2.45199 20.9688C2.43984 20.9953 2.42962 21.0455 2.42275 21.0982C2.4219 21.1047 2.42112 21.111 2.42041 21.1172H3.93278C3.93438 21.11 3.93578 21.1023 3.93677 21.0944C3.94157 21.0561 3.93499 21.0305 3.92013 21.0163C3.90689 21.0064 3.88022 20.9951 3.83414 20.978C3.83062 20.9767 3.82701 20.9754 3.82332 20.974C3.78262 20.959 3.73299 20.9407 3.68834 20.9165C3.63972 20.8903 3.58801 20.8525 3.55779 20.7946C3.52607 20.7339 3.52393 20.6627 3.5523 20.583C3.59233 20.4669 3.62575 20.3826 3.65414 20.3109C3.65939 20.2976 3.66446 20.2848 3.66938 20.2723C3.70078 20.1924 3.72563 20.1253 3.74859 20.0357C3.79504 19.8544 3.8345 19.5787 3.89548 18.9314C3.98261 17.8491 4.04426 16.7649 4.08037 15.6797H3.98333Z" fill="#7B3100"/>
<path d="M3.59082 11.4844C3.6123 11.7765 3.57402 12.07 3.47832 12.3469C3.34841 12.6365 3.27521 12.9484 3.2627 13.2656C3.09395 13.3219 2.91582 12.9 2.74707 13.1531C2.86895 13.5 3.15957 13.7719 3.34707 14.0812C3.38457 14.175 3.66582 14.4281 3.49707 14.4844C3.09395 14.3438 2.99082 13.8281 2.74707 13.5187C2.60441 13.2519 2.39615 13.0259 2.14191 12.8618C1.88767 12.6978 1.59584 12.6012 1.29395 12.5812C1.05957 12.5906 0.318945 12.5344 0.506445 12.9281C0.787695 13.1156 1.14395 13.2469 1.4252 13.4625C1.64082 13.4813 2.01582 13.8375 1.99707 13.9688C1.62207 13.8187 1.45332 13.6406 1.05957 13.4813C0.515821 13.275 -0.224804 13.3969 -0.534179 13.9313C-0.581054 14.0719 -0.665429 14.475 -0.487304 14.5219C-0.281054 14.2031 0.00957012 13.8375 0.44082 13.9406C0.77832 13.9687 0.0658202 14.5688 0.337695 14.4469C0.431445 14.4094 0.618945 14.2781 0.768945 14.2594C0.90957 14.2594 0.98457 14.3531 1.0877 14.3719C1.30332 14.4 1.36895 14.4844 1.34082 14.5406C1.32207 14.5969 1.24707 14.5406 1.03145 14.6156C0.92832 14.6531 0.87207 14.7469 0.750196 14.7938C0.618945 14.8313 0.356446 14.8406 0.262696 14.7938C-0.0841793 14.6531 -0.64668 14.6719 -0.749805 15.1031C-0.749805 15.2906 -0.918554 15.0844 -0.993554 15.1688C-1.05918 15.375 -1.06855 15.5813 -1.36855 15.5625C-1.55605 15.75 -1.74355 15.9562 -1.9873 16.0969C-1.84668 16.4156 -1.30293 15.7781 -1.33105 16.05C-1.56543 16.3781 -1.1998 16.4437 -1.0498 16.1906C-0.777929 15.9094 -0.44043 15.5625 -0.0466796 15.8531C0.140821 16.0313 0.25332 15.7594 0.393945 15.7594C0.487695 15.9938 0.590821 15.7781 0.693945 15.7125C0.853321 15.6938 0.806445 15.9188 0.993945 15.7781C1.37832 15.525 1.84707 15.7406 2.22207 15.4969C2.6252 15.3094 2.27832 15.6375 2.1752 15.7687C1.99707 16.1062 2.14707 16.5563 1.77207 16.7625C1.6127 17.1656 1.9502 17.7 1.6127 18C1.56582 18.1875 2.04395 18.1688 2.1752 18.2438C2.41895 18.2438 2.1752 17.7 2.40957 17.625C2.72832 17.8125 2.70957 17.2687 2.64395 17.1C2.68145 16.725 2.7002 16.2938 2.8877 15.9469C3.09395 15.525 3.28145 16.125 3.05645 16.2938C2.9252 16.6781 2.7377 17.175 3.02832 17.5406C3.12207 17.5594 3.1877 17.7656 3.29082 17.8219C3.40332 17.8875 3.55332 17.8125 3.57207 17.625C3.72207 17.0625 3.64707 16.4625 3.85332 15.9094C3.99395 15.7406 4.19082 15.8813 4.2752 16.0406C4.55645 16.3688 4.75332 16.7719 5.09082 17.0438C5.4103 17.1744 5.67057 17.418 5.82207 17.7281C5.82207 17.9719 6.51582 18.0094 6.30957 17.7281C6.1127 17.475 6.24395 17.2031 6.44082 17.025C6.55332 17.0531 6.5252 16.8563 6.44082 16.9313C6.30019 16.9031 6.29082 16.65 6.47832 16.7719C6.80645 16.875 6.45957 16.5375 6.3377 16.5281C6.06582 16.3594 5.75644 16.1719 5.6252 15.8719C5.98144 15.8719 6.34707 16.0687 6.70332 15.9562C6.99395 15.8062 7.28457 15.9563 7.3877 16.2188C7.6127 16.1813 7.51895 15.9562 7.3877 15.8812C7.54707 15.8156 7.66895 15.675 7.4627 15.5531C7.36895 15.4219 7.60332 15.1781 7.30332 15.1969C7.31269 14.9625 7.22832 14.7562 6.97519 14.6719C6.72207 14.4656 5.98145 14.9906 6.00957 14.5125C5.93457 14.25 6.30957 14.475 6.41269 14.3438C6.51582 14.0625 5.89707 14.1 6.10332 13.875C6.23457 13.8 6.86269 13.6781 6.37519 13.5844C6.26498 13.6167 6.14897 13.6242 6.03551 13.6064C5.92205 13.5885 5.81394 13.5458 5.71895 13.4813C5.54082 13.7719 5.04394 13.3125 5.12832 13.8375C5.06269 14.0344 4.6127 14.55 4.49082 14.1562C4.58457 13.8469 5.12832 13.7531 4.95957 13.3312C4.93144 13.0781 4.71582 13.3781 4.62207 13.3594C4.56582 13.2 4.77207 13.0031 4.92207 12.9656C5.20332 13.1906 5.20332 12.6844 5.48457 12.7313C5.68145 12.6844 5.41894 12.6 5.36269 12.5625C5.41894 12.4219 5.72832 12.3469 5.42832 12.2156C5.15644 12.0281 4.95957 12.4125 4.74395 12.4313C4.5377 12.1969 4.93145 12.0844 5.04395 11.9625C5.05332 11.8687 4.81895 11.9344 4.88457 11.85C4.9502 11.7469 5.37207 11.7375 5.16582 11.5688C4.8506 11.4726 4.51134 11.4925 4.20957 11.625C4.02207 11.6813 3.97519 12.0938 3.81582 12.075C3.7502 11.8875 3.84395 11.5312 3.59082 11.4844ZM4.99707 15.45C5.22207 15.4125 4.99707 15.7969 4.90332 15.7875C4.90332 15.6562 4.56582 15.6656 4.78145 15.5438C4.84737 15.5003 4.92033 15.4686 4.99707 15.45Z" fill="#008000"/>
<path d="M37.5056 30.3604L37.9187 31.645L39.1808 31.167L38.4342 32.2915L39.5951 32.9803L38.2497 33.0976L38.4348 34.4347L37.5056 33.456L36.5757 34.4341L36.7608 33.0976L35.416 32.9797L36.5769 32.2909L35.8298 31.1664L37.0918 31.6444L37.5056 30.3604Z" fill="#FFE000"/>
<path d="M30.0046 18.4834L30.4177 19.7681L31.6798 19.29L30.9333 20.4146L32.0941 21.1034L30.7487 21.2206L30.9339 22.5577L30.0046 21.579L29.0747 22.5571L29.2599 21.2206L27.915 21.1028L29.0759 20.414L28.3288 19.2895L29.5908 19.7675L30.0046 18.4834Z" fill="#FFE000"/>
<path d="M37.5056 10.3574L37.9187 11.6421L39.1808 11.1641L38.4342 12.2886L39.5951 12.9774L38.2497 13.0947L38.4348 14.4317L37.5056 13.453L36.5757 14.4311L36.7608 13.0947L35.416 12.9768L36.5769 12.288L35.8298 11.1635L37.0918 11.6415L37.5056 10.3574Z" fill="#FFE000"/>
<path d="M44.1726 16.4834L44.5857 17.7681L45.8478 17.29L45.1012 18.4146L46.2621 19.1034L44.9167 19.2206L45.1018 20.5577L44.1726 19.579L43.2427 20.5571L43.4278 19.2206L42.083 19.1028L43.2439 18.414L42.4967 17.2895L43.7588 17.7675L44.1726 16.4834Z" fill="#FFE000"/>
<path d="M40.5058 22.502L40.8327 23.3026L41.6947 23.3658L41.0339 23.9242L41.2405 24.7635L40.5058 24.3075L39.7712 24.7641L39.9772 23.9247L39.3164 23.3663L40.1796 23.3032L40.5058 22.502Z" fill="#FFE000"/>
</g>
<defs>
<clipPath id="clip0_200_80216">
<rect width="60" height="45" fill="white" transform="translate(-7.5)"/>
</clipPath>
</defs>
</svg>
