<svg width="45" height="45" viewBox="0 0 45 45" fill="none" xmlns="http://www.w3.org/2000/svg">
<g clip-path="url(#clip0_200_81431)">
<path d="M-7.5 0H52.5V45H-7.5V0Z" fill="#003399"/>
<path fill-rule="evenodd" clip-rule="evenodd" d="M22.5004 21.8574C21.6383 21.8574 20.9395 22.5563 20.9395 23.4184C20.9395 24.2804 21.6383 24.9793 22.5004 24.9793C23.3625 24.9793 24.0613 24.2804 24.0613 23.4184C24.0613 22.5563 23.3625 21.8574 22.5004 21.8574ZM18.3613 23.4184C18.3613 21.1324 20.2144 19.2793 22.5004 19.2793C24.7863 19.2793 26.6395 21.1324 26.6395 23.4184C26.6395 25.7043 24.7863 27.5574 22.5004 27.5574C20.2144 27.5574 18.3613 25.7043 18.3613 23.4184Z" fill="#FFCC00"/>
<path fill-rule="evenodd" clip-rule="evenodd" d="M22.4998 16.4297C18.6399 16.4297 15.5107 19.5588 15.5107 23.4188C15.5107 27.2787 18.6399 30.4078 22.4998 30.4078C26.3598 30.4078 29.4889 27.2787 29.4889 23.4188C29.4889 19.5588 26.3598 16.4297 22.4998 16.4297ZM12.9326 23.4188C12.9326 18.1349 17.216 13.8516 22.4998 13.8516C27.7836 13.8516 32.067 18.1349 32.067 23.4188C32.067 28.7026 27.7836 32.9859 22.4998 32.9859C17.216 32.9859 12.9326 28.7026 12.9326 23.4188Z" fill="#FFCC00"/>
<path d="M30.4406 15.4785L38.3812 23.4191L30.4406 31.3598L22.5 23.4191L30.4406 15.4785Z" fill="#003399"/>
<path d="M8.97168 22.1348H14.5217V24.7129H8.97168V22.1348ZM33.2623 22.1348H41.5404V24.7129H33.2623V22.1348ZM26.5311 17.5691L30.1686 13.9316L31.9873 15.7598L28.3592 19.3879L26.5311 17.5691ZM21.2154 4.55664H23.7936V14.5973H21.2154V4.55664Z" fill="#FFCC00"/>
<path d="M13.6027 16.2465C14.3121 16.2465 14.8871 15.6715 14.8871 14.9621C14.8871 14.2528 14.3121 13.6777 13.6027 13.6777C12.8934 13.6777 12.3184 14.2528 12.3184 14.9621C12.3184 15.6715 12.8934 16.2465 13.6027 16.2465Z" fill="#FFCC00"/>
<path d="M6.02852 24.7035C6.73786 24.7035 7.31289 24.1285 7.31289 23.4191C7.31289 22.7098 6.73786 22.1348 6.02852 22.1348C5.31917 22.1348 4.74414 22.7098 4.74414 23.4191C4.74414 24.1285 5.31917 24.7035 6.02852 24.7035Z" fill="#FFCC00"/>
<path d="M22.5002 37.0404C23.2095 37.0404 23.7846 36.4654 23.7846 35.7561C23.7846 35.0467 23.2095 34.4717 22.5002 34.4717C21.7909 34.4717 21.2158 35.0467 21.2158 35.7561C21.2158 36.4654 21.7909 37.0404 22.5002 37.0404Z" fill="#FFCC00"/>
<path d="M22.5002 41.1752C23.2095 41.1752 23.7846 40.6002 23.7846 39.8908C23.7846 39.1815 23.2095 38.6064 22.5002 38.6064C21.7909 38.6064 21.2158 39.1815 21.2158 39.8908C21.2158 40.6002 21.7909 41.1752 22.5002 41.1752Z" fill="#FFCC00"/>
<path d="M30.7785 24.7035C31.4879 24.7035 32.0629 24.1285 32.0629 23.4191C32.0629 22.7098 31.4879 22.1348 30.7785 22.1348C30.0692 22.1348 29.4941 22.7098 29.4941 23.4191C29.4941 24.1285 30.0692 24.7035 30.7785 24.7035Z" fill="#FFCC00"/>
<path d="M12.0283 32.016L13.8564 30.1973L15.6752 32.016L13.8564 33.8441L12.0283 32.016ZM31.2189 33.9848L33.0471 32.1566L34.8752 33.9848L33.0471 35.8035L31.2189 33.9848Z" fill="#FFCC00"/>
</g>
<defs>
<clipPath id="clip0_200_81431">
<rect width="60" height="45" fill="white" transform="translate(-7.5)"/>
</clipPath>
</defs>
</svg>
