<svg width="45" height="45" viewBox="0 0 45 45" fill="none" xmlns="http://www.w3.org/2000/svg">
<g clip-path="url(#clip0_200_81423)">
<path d="M-7.5 0H52.5V45H-7.5V0Z" fill="#000066"/>
<path fill-rule="evenodd" clip-rule="evenodd" d="M36.7121 19.9688L37.1996 18.4031L35.8871 17.4094L37.5371 17.3906L38.0996 15.8438L38.6246 17.3906L40.284 17.4375L38.9621 18.4219L39.4309 19.9875L38.0715 19.05M40.6121 20.2687L41.5871 18.9656L40.6777 17.5781L42.2434 18.1219L43.2746 16.8563V18.5062L44.8121 19.1063L43.2371 19.575L43.1621 21.2156L42.2059 19.8656M32.9809 21.2719L32.9152 19.6312L31.3402 19.1437L32.9059 18.5625V16.9313L33.9277 18.1969L35.5027 17.6719L34.584 19.05L35.5496 20.3625L33.9559 19.9406M30.2434 23.775L29.5496 22.2938L27.9184 22.4625L29.1184 21.3094L28.4996 19.7812L29.9246 20.55L31.1715 19.4437L30.8527 21.075L32.2496 21.9094L30.6277 22.1437M28.9684 27.3562L27.7215 26.3156L26.3152 27.1781L26.9152 25.6125L25.7059 24.525L27.3277 24.5906L27.984 23.0531L28.3871 24.6656L29.9996 24.8063L28.6309 25.725M28.9309 31.3875L27.384 30.9375L26.4371 32.2969L26.3715 30.6188L24.834 30.1031L26.3434 29.5219V27.8344L27.3465 29.1562L28.884 28.6312L27.984 30.0375M30.7496 34.8L29.1559 35.025L28.8277 36.6562L28.0965 35.1562L26.4934 35.3063L27.6371 34.1531L26.9715 32.6156L28.4059 33.4125L29.6059 32.3063L29.3434 33.9375M33.5621 37.5L32.1465 38.2688L32.3902 39.9187L31.1996 38.7562L29.7371 39.4688L30.4215 37.9781L29.2684 36.7688L30.8902 37.0125L31.6402 35.5594L31.959 37.1906M37.0027 38.0344L36.2246 39.4688L37.3215 40.7063L35.6902 40.3969L34.8559 41.8031L34.6309 40.1813L33.0184 39.8063L34.4996 39.1125L34.3402 37.4719L35.484 38.6719M40.8652 37.4437L40.8184 39.075L42.3465 39.675L40.7527 40.1438L40.6402 41.7844L39.7027 40.4437L38.109 40.8562L39.1215 39.5531L38.2402 38.175L39.7965 38.7094M44.9059 19.6688L46.0309 20.85L47.5215 20.1562L46.7434 21.6375L47.8215 22.8656L46.2277 22.6031L45.384 24.0563L45.1871 22.4062L43.5934 22.0781L45.0652 21.3281M48.2715 23.2969L48.7871 24.8531L50.4277 24.8812L49.0965 25.8844L49.5371 27.4594L48.2152 26.5219L46.8465 27.4688L47.3527 25.8938L46.059 24.9L47.709 24.8625M49.5371 27.975L49.3496 29.6062L50.8215 30.3281L49.1996 30.6656L48.9465 32.2875L48.1309 30.8719L46.4996 31.1438L47.6246 29.925L46.8652 28.4719L48.3652 29.1469M48.6465 32.8781L47.9152 34.3406L49.0309 35.5312L47.3996 35.2781L46.6121 36.7125L46.3309 35.0906L44.6996 34.7812L46.1621 34.0312L45.9465 32.4L47.1277 33.5531M46.209 37.2188L44.8309 38.0813L45.1871 39.7031L43.9215 38.625L42.5152 39.4313L43.1059 37.9031L41.8777 36.7688L43.509 36.9094L44.1652 35.4094L44.5777 37.0219" fill="white"/>
<path d="M-7.5 0H22.5V22.5H-7.5V0Z" fill="#000066"/>
<path d="M-3.98438 0L7.45312 8.48438L18.8438 0H22.5V2.90625L11.25 11.2969L22.5 19.6406V22.5H18.75L7.5 14.1094L-3.70312 22.5H-7.5V19.6875L3.70312 11.3438L-7.5 3V0H-3.98438Z" fill="white"/>
<path d="M12.375 13.1719L22.5 20.625V22.5L9.79688 13.1719H12.375ZM3.75 14.1094L4.03125 15.75L-4.96875 22.5H-7.5L3.75 14.1094ZM22.5 0V0.140625L10.8281 8.95312L10.9219 6.89062L20.1562 0H22.5ZM-7.5 0L3.70312 8.25H0.890625L-7.5 1.96875V0Z" fill="#C8102E"/>
<path d="M3.79688 0V22.5H11.2969V0H3.79688ZM-7.5 7.5V15H22.5V7.5H-7.5Z" fill="white"/>
<path d="M-7.5 9.04688V13.5469H22.5V9.04688H-7.5ZM5.29688 0V22.5H9.79688V0H5.29688Z" fill="#C8102E"/>
</g>
<defs>
<clipPath id="clip0_200_81423">
<rect width="60" height="45" fill="white" transform="translate(-7.5)"/>
</clipPath>
</defs>
</svg>
