<svg width="45" height="45" viewBox="0 0 45 45" fill="none" xmlns="http://www.w3.org/2000/svg">
<g clip-path="url(#clip0_200_83066)">
<path d="M-7.5 0H52.5V45H-7.5V0Z" fill="#EE1C25"/>
<path d="M-0.300034 16.65L3.74992 4.5L7.79987 16.65L-3 9.225H10.4998L-0.300034 16.65Z" fill="#FFFF00"/>
<path d="M17.2663 4.73324L13.0984 5.65687L15.8786 2.41719L15.6059 6.77738L13.293 2.9173L17.2663 4.73324Z" fill="#FFFF00"/>
<path d="M21.4723 10.064L17.2724 9.29887L21.0914 7.39102L19.1491 11.3042L18.5142 6.84918L21.4723 10.064Z" fill="#FFFF00"/>
<path d="M20.8591 17.5432L17.3364 15.1317L21.6015 14.9473L18.232 17.728L19.4694 13.4015L20.8591 17.5432Z" fill="#FFFF00"/>
<path d="M15.561 22.4291L13.2431 18.8441L17.2484 20.3214L13.0664 21.5849L15.8788 18.072L15.561 22.4291Z" fill="#FFFF00"/>
</g>
<defs>
<clipPath id="clip0_200_83066">
<rect width="60" height="45" fill="white" transform="translate(-7.5)"/>
</clipPath>
</defs>
</svg>
