<svg width="45" height="45" viewBox="0 0 45 45" fill="none" xmlns="http://www.w3.org/2000/svg">
<g clip-path="url(#clip0_200_79804)">
<path fill-rule="evenodd" clip-rule="evenodd" d="M-7.52732 20.5332H67.0617V38.687H-7.53613L-7.52732 20.5332Z" fill="white"/>
<path fill-rule="evenodd" clip-rule="evenodd" d="M-7.47461 0H67.0791V22.6129H-7.47461V0ZM-7.44817 34.0074H67.6431V45.12H-7.44817V34.0074Z" fill="#081873"/>
<path fill-rule="evenodd" clip-rule="evenodd" d="M-7.44824 26.667H67.1055V30.1567H-7.44824V26.667Z" fill="#DE3929"/>
<path fill-rule="evenodd" clip-rule="evenodd" d="M14.8921 35.1793L15.4737 36.977H17.3596L15.8262 38.0962L16.4079 39.9028L14.8921 38.7748L13.3587 39.894L13.9492 38.0874L12.4158 36.9682H14.3105M31.2834 22.0663L31.8738 23.8729H33.7509L32.2175 24.9832L32.7991 26.7898L31.2657 25.6706L29.7324 26.7898L30.314 24.9832L28.7806 23.8729H30.6841M11.1204 29.5481L11.702 31.3547H13.5967L12.0721 32.4827L12.6625 34.2804L11.1292 33.17L9.5958 34.2804L10.1774 32.4827L8.64405 31.3635H10.5387M31.2834 29.037L31.8738 30.8347H33.7509L32.2175 31.9539L32.7991 33.7517L31.2657 32.6413L29.7324 33.7605L30.314 31.9539L28.7806 30.8347H30.6841M27.115 16.5849L27.7055 18.3827H29.609L28.0756 19.5019L28.6572 21.3084L27.1239 20.1892L25.5905 21.3084L26.1809 19.5019L24.6387 18.3827H26.5422M20.8582 14.3994L21.4486 16.206H23.3433L21.8099 17.3164L22.3915 19.1229L20.8582 18.0125L19.3248 19.1229L19.9152 17.3164L18.3819 16.206H20.2677M14.5837 16.4615L15.1741 18.2681H17.0688L15.5354 19.3785L16.1259 21.185L14.5837 20.0659L13.0503 21.185L13.6407 19.3785L12.1074 18.2681H14.0109M10.9441 22.0751L11.5257 23.8817H13.4292L11.887 24.992L12.4775 26.7986L10.9441 25.6794L9.41073 26.7986L9.99236 24.992L8.45898 23.8817H10.3537M20.8582 37.0475L21.4486 38.8541H23.3433L21.8099 39.9645L22.4004 41.771L20.8582 40.6519L19.3248 41.771L19.9152 39.9645L18.3819 38.8541H20.2677M27.5116 35.1793L28.0932 36.977H29.9879L28.4634 38.0962L29.0538 39.9028L27.5204 38.7836L25.9782 39.9028L26.5687 38.0962L25.0353 36.977H26.93" fill="#FFCE08"/>
</g>
<defs>
<clipPath id="clip0_200_79804">
<rect width="60" height="45" fill="white" transform="translate(-7.5)"/>
</clipPath>
</defs>
</svg>
