<svg width="45" height="45" viewBox="0 0 45 45" fill="none" xmlns="http://www.w3.org/2000/svg">
<g clip-path="url(#clip0_200_79780)">
<path d="M-7.5 0H52.5V45H-7.5V0Z" fill="#0021AD"/>
<path d="M-7.5 0H52.5V45L-7.5 0Z" fill="#1C8A42"/>
<path d="M22.4998 27.9186C25.4925 27.9186 27.9186 25.4925 27.9186 22.4998C27.9186 19.5071 25.4925 17.0811 22.4998 17.0811C19.5071 17.0811 17.0811 19.5071 17.0811 22.4998C17.0811 25.4925 19.5071 27.9186 22.4998 27.9186Z" fill="#FFC639"/>
<path d="M19.1902 20.0623C19.5652 20.5779 20.1277 21.4311 20.5777 21.2061C20.9245 21.2061 21.112 21.2342 21.1589 21.4686C21.746 21.5266 22.3383 21.434 22.8796 21.1994C23.421 20.9648 23.8936 20.5961 24.2527 20.1279C24.2527 20.1279 24.3277 20.1279 24.2995 19.7061C24.2995 19.5186 24.562 19.5561 24.562 19.6123C24.5995 19.7061 24.5995 19.7717 24.6464 19.7811C24.7402 19.7436 24.8995 19.4998 25.0214 19.3498C25.0495 19.2842 25.0308 19.2092 25.0402 19.1248C25.1058 18.9654 25.2652 19.0029 25.3027 19.0873L25.3589 19.2373C25.5277 19.3498 25.8277 19.2373 25.8464 19.2373C25.8745 19.1061 25.9589 19.1248 25.9589 19.1248C26.0714 19.0967 26.0245 19.1061 26.0995 19.1436C26.0339 19.8654 26.2402 19.8936 26.2214 20.2686C26.2308 20.6811 26.0995 20.7936 26.0995 20.9529C26.137 21.1404 26.7558 21.1498 26.5308 21.3186C26.3433 21.4123 26.5308 21.5998 26.2495 21.6748C25.4245 22.0967 25.2745 22.4529 25.2745 22.4529C25.2745 22.4529 25.0683 22.8467 25.0402 22.8467C24.8995 23.1092 24.7308 22.9592 24.6277 23.0904C24.5808 23.2498 24.5339 23.6061 24.6277 23.7842C24.6745 24.0373 24.6277 24.1779 24.562 24.4311C24.5058 24.9561 24.2995 25.0404 24.2714 25.2186C24.1777 25.4248 24.2902 26.3436 24.1964 26.3436C23.587 26.3623 23.1183 26.2311 22.8745 26.1842C23.1089 25.1623 23.0152 24.2717 23.0152 24.1779C22.9589 23.4467 21.9277 23.6248 21.7683 23.5217C21.637 23.5029 21.5527 23.3998 21.5152 23.3529C21.3652 23.3342 21.3089 23.2967 21.1683 23.2873C21.0933 23.3248 21.1402 23.3623 20.9808 23.4092C20.5589 23.4561 20.3808 23.0529 20.3808 23.0529C20.3995 22.9123 19.4527 23.0811 18.9464 22.9592C18.7308 23.0811 18.637 23.4279 18.4683 23.4654C18.4683 23.5686 18.187 23.3717 18.1308 23.2779C18.112 22.9592 18.3933 22.8279 18.3933 22.8279C18.6183 22.6686 18.7495 22.6404 18.862 22.5373C18.9089 22.2654 18.8808 22.0686 19.0027 21.8717C19.0964 21.7123 19.237 21.7779 19.3308 21.7217C19.4339 21.6467 19.4808 21.1967 19.387 21.0654L18.9464 20.6717C18.8152 20.2873 19.1058 20.0342 19.1902 20.0623Z" fill="#1C8A42"/>
<path d="M45.178 13.3503C44.9343 12.3847 42.7405 10.2847 41.0811 8.95341C40.6874 8.69091 40.4249 8.85028 40.4811 9.23466C40.6874 9.57216 40.8374 9.94716 41.0436 10.294C41.0999 10.5284 41.2124 10.6878 41.2686 10.9128C41.2686 10.9128 41.2874 11.3065 41.3249 11.344C41.8311 11.9065 41.9061 12.3847 41.9061 12.3847C42.1645 12.9391 42.5311 13.4363 42.9843 13.8472C43.5655 14.2128 43.1342 15.3472 43.153 15.9565C43.153 16.3315 42.8811 16.294 42.6374 16.2378C40.753 14.5034 38.878 14.5034 37.2186 13.9972C36.5811 13.9315 36.5624 14.2409 36.778 14.4097C37.8112 15.5605 39.0555 16.5026 40.4436 17.1847L41.1655 17.6347L41.9905 18.319C42.628 18.7315 42.6749 19.1065 42.6749 19.144C42.6936 19.9128 42.2811 20.5128 42.1593 20.7565C41.9436 21.5722 41.503 21.7128 41.503 21.7128C37.978 24.094 36.1217 24.7128 30.403 23.9722C30.3092 23.9347 29.7655 24.019 30.403 24.2534C31.8561 24.7409 35.4374 25.519 38.8967 23.8784C39.7405 23.2972 40.2843 23.4847 40.8936 23.1284C41.7503 22.5979 42.6361 22.1159 43.5468 21.6847C44.3249 21.2628 46.4811 20.8034 46.978 20.3909C47.5499 20.344 48.1405 20.269 48.178 19.7815C48.3655 19.6597 48.6467 19.7534 48.853 19.3503C49.303 19.2659 49.228 19.1065 49.228 19.1065C49.1155 18.7878 48.6842 18.6565 48.3842 18.4222C47.9342 18.2722 47.6342 18.2347 47.3061 18.3847L46.9967 18.5253C46.9967 18.5253 46.5186 18.4597 46.5186 18.4222C45.4499 18.3659 45.553 14.8315 45.178 13.3597V13.3503Z" fill="#FFC639"/>
<path d="M3.7919 18.96L3.0239 18.24L2.2499 18.948L2.3339 17.904L1.2959 17.736L2.1659 17.148L1.6499 16.236L2.6519 16.554L3.0419 15.582L3.4199 16.56L4.4219 16.26L3.8939 17.16L4.7579 17.76L3.7199 17.91L3.7919 18.954V18.96Z" fill="white"/>
<path d="M6.50375 27.6301L5.67575 27.0841L4.87175 27.6601L5.15975 26.7301L4.34375 26.1601L5.33975 26.1361L5.63975 25.2061L5.97575 26.1241L6.97775 26.1181L6.17975 26.7001L6.49775 27.6241L6.50375 27.6301Z" fill="white"/>
</g>
<defs>
<clipPath id="clip0_200_79780">
<rect width="60" height="45" fill="white" transform="translate(-7.5)"/>
</clipPath>
</defs>
</svg>
