<svg width="45" height="45" viewBox="0 0 45 45" fill="none" xmlns="http://www.w3.org/2000/svg">
<g clip-path="url(#clip0_200_80308)">
<path d="M-7.5 0H52.5V45H-7.5V0Z" fill="white"/>
<path d="M21.3558 37.3691C21.3485 37.364 21.3421 37.3577 21.337 37.3503H21.3277L21.2058 37.2191L20.8495 36.7972L20.3902 36.2066L20.3339 36.1222L19.7527 35.9441L19.3214 35.7472L19.5464 35.4941L20.3339 35.8222L20.9152 35.9441L21.9933 36.741L21.6839 37.0128C21.5738 37.1154 21.4705 37.225 21.3745 37.341L21.4402 37.2941L21.5152 37.3503L21.3652 37.3691H21.3558ZM17.362 36.1691C16.8334 36.1644 16.3156 36.0188 15.862 35.7472C15.862 35.7472 15.9277 35.6253 16.0777 35.5222C16.2277 35.4097 16.4902 35.2878 16.9214 35.2785C17.4277 35.2785 18.0464 35.4566 18.7495 35.7847C18.3294 36.0328 17.8499 36.1624 17.362 36.1597V36.1691ZM15.1589 35.6816C15.0652 35.6816 14.9714 35.6441 14.9152 35.5878C14.862 35.523 14.8265 35.4455 14.812 35.3628C14.7871 35.2585 14.7777 35.1511 14.7839 35.0441C14.823 35.0302 14.8643 35.0238 14.9058 35.0253C15.0933 35.0253 15.2433 35.1847 15.3089 35.3441C15.3464 35.4378 15.3558 35.5128 15.3277 35.5785C15.3089 35.6347 15.2339 35.6722 15.1589 35.6722V35.6816ZM19.0308 35.2316C17.7277 35.0441 17.1745 34.5753 16.9402 34.2097C16.6964 33.8253 16.7527 33.4597 16.7527 33.4597C16.7527 33.4597 16.8277 33.441 16.9402 33.441C17.2964 33.441 18.1777 33.6191 19.0308 35.2222V35.2316ZM16.3589 34.9691C15.8058 34.9691 15.3839 34.8753 15.1027 34.6878C14.9825 34.6123 14.8852 34.5053 14.8214 34.3785C14.8013 34.3307 14.7887 34.2801 14.7839 34.2285C14.9977 34.1394 15.2273 34.0947 15.4589 34.0972C15.7935 34.1092 16.1224 34.1875 16.4266 34.3275C16.7307 34.4675 17.0041 34.6665 17.2308 34.9128C16.912 34.9503 16.6214 34.9691 16.3589 34.9691ZM13.6683 34.8753C13.087 34.8753 12.2808 34.6878 11.7745 34.191C11.7745 34.191 12.3277 34.0503 12.937 34.0316H13.0495C13.6027 34.0316 14.0245 34.1347 14.3058 34.3503C14.3995 34.4253 14.4558 34.491 14.4652 34.5566C14.4745 34.6128 14.4464 34.6691 14.3902 34.716C14.2589 34.8097 14.0339 34.866 13.7152 34.866H13.6683V34.8753ZM11.7652 33.891C11.7289 33.8903 11.6933 33.8815 11.6608 33.8653C11.6284 33.8491 11.6 33.8258 11.5777 33.7972C11.5385 33.7414 11.5128 33.6772 11.5027 33.6097C11.4745 33.4785 11.4839 33.3472 11.4839 33.3378C11.5135 33.3249 11.5454 33.3186 11.5777 33.3191C11.662 33.3191 11.7277 33.366 11.7652 33.4128C11.8222 33.4649 11.867 33.5289 11.8964 33.6003C11.9152 33.6847 11.9245 33.7503 11.8964 33.8066C11.8964 33.8441 11.8402 33.9003 11.7745 33.9003L11.7652 33.891ZM16.162 33.7972C16.0683 33.7972 15.9745 33.7597 15.9183 33.7035C15.8651 33.6386 15.8296 33.5611 15.8152 33.4785C15.7903 33.3742 15.7808 33.2668 15.787 33.1597C15.8261 33.1458 15.8675 33.1395 15.9089 33.141C16.0964 33.141 16.2558 33.3003 16.312 33.4597C16.3495 33.5535 16.3589 33.6285 16.3402 33.6941C16.312 33.7503 16.2464 33.7878 16.1527 33.7878L16.162 33.7972ZM14.0245 33.7035C12.8433 33.666 12.2245 33.3285 11.9245 33.0472C11.7938 32.9342 11.6856 32.7974 11.6058 32.6441C11.5589 32.5503 11.5402 32.4753 11.5402 32.4566C11.5402 32.4378 11.6527 32.4191 11.8214 32.4191H11.8589C12.2527 32.4191 13.0683 32.5878 14.0152 33.7035H14.0245ZM15.2995 33.591C14.6248 33.5176 13.9975 33.2089 13.5277 32.7191C13.3547 32.5299 13.2237 32.3062 13.1433 32.0628C13.1433 32.0628 13.2558 32.0347 13.4245 32.0253C13.4558 32.0242 13.4871 32.0242 13.5183 32.0253C13.987 32.0347 14.8589 32.2503 15.2995 33.591ZM10.4245 33.1222C10.1251 33.1249 9.82626 33.0935 9.53392 33.0285C9.03704 32.8972 8.82142 32.7097 8.72767 32.5691C8.68934 32.5128 8.66375 32.4488 8.65267 32.3816C8.64972 32.3567 8.64972 32.3315 8.65267 32.3066C8.65267 32.3066 8.98079 32.2128 9.44017 32.2035C9.67276 32.1976 9.90532 32.2164 10.1339 32.2597C10.6121 32.3605 11.0381 32.63 11.3339 33.0191C11.3339 33.0191 10.9589 33.1316 10.4245 33.1316V33.1222ZM12.6277 32.3347C12.5843 32.3359 12.5411 32.3282 12.5008 32.312C12.4605 32.2959 12.4239 32.2717 12.3933 32.241C12.3401 32.1761 12.3046 32.0986 12.2902 32.016C12.2527 31.866 12.262 31.716 12.262 31.6972C12.2976 31.6812 12.3357 31.6717 12.3745 31.6691H12.3839C12.5714 31.6691 12.7214 31.8378 12.787 31.9972C12.8245 32.091 12.8245 32.166 12.8058 32.2222C12.7777 32.2878 12.712 32.3253 12.6277 32.3253V32.3347ZM10.9777 32.1003C10.6612 32.0106 10.3584 31.8781 10.0777 31.7066C9.66517 31.4535 9.14954 31.0035 9.09329 30.3003L9.18704 30.291H9.21517C9.33704 30.291 9.59017 30.3191 9.89954 30.5535C10.2933 30.8535 10.6495 31.3785 10.9777 32.1003ZM12.0558 32.0628C11.7972 31.9451 11.5572 31.7904 11.3433 31.6035C10.7946 31.1299 10.3671 30.532 10.0964 29.8597C10.0964 29.8597 10.1808 29.8128 10.312 29.8035C10.3183 29.8033 10.3245 29.8033 10.3308 29.8035H10.3683C10.5558 29.8035 10.8277 29.8878 11.1277 30.216C11.4839 30.591 11.7933 31.2097 12.0652 32.0628H12.0558ZM9.25267 31.9785C8.88704 31.9785 8.76517 31.791 8.72767 31.6972C8.69134 31.6082 8.67843 31.5114 8.69017 31.416C8.75171 31.4023 8.81465 31.396 8.87767 31.3972C8.99411 31.3935 9.1098 31.4171 9.21557 31.4659C9.32134 31.5147 9.41429 31.5875 9.48704 31.6785C9.50579 31.716 9.56204 31.8097 9.51517 31.8941C9.47767 31.9503 9.39329 31.9878 9.25267 31.9878V31.9785ZM8.45579 30.966C8.17316 30.969 7.89081 30.9471 7.61204 30.9003C7.29329 30.8441 7.11517 30.5722 7.01204 30.3472C6.91829 30.1128 6.88079 29.8785 6.88079 29.8785C7.87454 29.9066 8.35267 30.1972 8.56829 30.441C8.70445 30.5811 8.7902 30.7625 8.81204 30.9566C8.81204 30.9566 8.66204 30.9753 8.45579 30.9753V30.966ZM9.48704 29.9347C9.40691 29.8322 9.33182 29.7258 9.26204 29.616C9.14017 29.4285 9.03704 29.241 9.03704 29.091C9.03704 28.9316 8.99954 28.6222 8.98079 28.4347L8.92454 28.0128C8.95267 28.0128 9.54329 28.2378 9.54329 28.8003C9.54329 29.3628 9.48704 29.9253 9.48704 29.9253V29.9347ZM8.71829 29.8785H8.69954C8.05643 29.6859 7.4705 29.3382 6.99329 28.866C6.83392 28.6785 6.73079 28.3785 6.70267 27.9847C6.68392 27.7035 6.70267 27.4691 6.70267 27.441C6.73627 27.4321 6.77114 27.4289 6.80579 27.4316C6.93704 27.4316 7.08704 27.4878 7.27454 27.6191C7.44859 27.7423 7.61169 27.8803 7.76204 28.0316C8.06204 28.3316 8.29642 28.6316 8.29642 28.6316C8.32454 28.6691 8.48392 28.9785 8.62454 29.2785C8.69035 29.4162 8.74066 29.5609 8.77454 29.7097C8.78392 29.766 8.79329 29.8035 8.77454 29.841C8.77011 29.8565 8.76009 29.8699 8.74642 29.8785C8.73408 29.8813 8.72126 29.8813 8.70892 29.8785H8.71829Z" fill="#435125"/>
<path d="M41.1564 7.16211L40.9877 7.22773L40.9127 7.25586L40.7064 7.24648L40.5002 7.34023L40.1439 7.58398L40.1346 7.59336L39.9939 7.63086L39.8721 7.57461L39.8064 7.61211L39.7783 7.75273L39.7127 7.85586L39.6283 7.91211L39.3471 7.94023L39.1127 8.07148L38.7939 7.97773L38.6533 8.04336L38.3439 8.32461L38.1846 8.39023H38.1377L37.9221 8.38086L37.8377 8.40898L37.7064 8.53086L37.4627 8.54961L37.3783 8.60586L37.2564 8.84961L37.1252 8.99961L37.0502 9.00898L36.9752 8.98086L36.9096 8.99023L36.8814 9.14961L36.8252 9.21523L36.6564 9.27148L36.5252 9.38398L36.4033 9.44023H36.2158L36.0564 9.53398L35.7658 9.55273L35.6439 9.66523L35.6158 9.69336L35.5596 9.72148L35.4658 9.77773L35.4471 9.79648L35.3346 9.77773L35.2033 9.82461L35.1471 9.74961L35.0533 9.79648L34.9408 9.80586L34.7908 9.74023L34.6689 9.68398L34.5846 9.70273L34.5564 9.84336V9.86211L34.4627 9.97461L34.3033 10.0777L34.2846 10.1059L34.0971 10.3496L33.7408 10.7246L33.4408 10.8746L33.1314 10.9684L32.9158 11.1465L32.3533 11.4277L31.4439 11.8777L31.2564 11.934L30.9939 11.9715L30.5252 12.1496L30.1127 12.2715L30.0846 12.2809L30.0096 12.309L29.4189 12.4871L29.1471 12.4496L28.9877 12.5152L28.5658 12.4684H28.2752L28.0877 12.5059L27.7408 12.6746L27.1502 12.9559L26.9627 13.1434L26.6627 13.2934L26.3064 13.4059V13.2559L26.1846 13.2934L26.0908 13.3215L25.8096 13.359H25.6502L25.5471 13.3309H25.5283L24.9471 13.5277L24.2908 13.5934L23.9627 13.6965H23.7189L23.5689 13.7434L23.2689 13.7809L23.1564 13.7527L23.1377 13.7434L22.2564 13.7809L21.8533 13.734L21.6658 13.7809L21.3377 13.6684L20.8689 13.6121L20.7564 13.584L20.5127 13.509L20.4002 13.5746L20.3064 13.584L20.1189 13.509H20.0439L19.8752 13.5652L19.7814 13.5465L19.6877 13.4715L19.4908 13.4434L19.3596 13.3402L18.6564 13.434L18.4689 13.3777L17.8221 13.1902H17.7283L17.5971 13.284L17.4096 13.359L17.2314 13.3965L17.0064 13.4059L16.7439 13.3402L16.4814 13.209L16.3783 13.1809L16.1533 13.209H16.0877L15.6752 12.9934L15.1502 12.6652L14.7939 12.4871L14.6533 12.4684L14.6346 12.534L14.7002 12.7402L14.7283 12.9559V13.1434L14.7189 13.2652L14.7471 13.3684L14.8783 13.5184L14.9346 13.659L14.9721 14.0527V14.4559L14.9064 15.0934L14.8877 15.1871L14.8127 15.5246L14.7471 15.834L14.4752 16.6496L14.4096 16.7434L14.2221 16.8652L13.8189 17.1465L13.5189 17.3152L13.4252 17.3527L13.1814 17.3715H13.0314L12.8439 17.2684L12.6564 17.2215L12.4127 17.0434L12.1502 16.9871L11.8502 16.8184L11.7752 16.7246L11.6158 16.7059L11.3908 16.6402L11.3064 16.6121L11.2502 16.6027L10.9689 16.5934L10.6971 16.4715L10.5564 16.434H10.3689L10.1721 16.5277L10.0689 16.5652L9.9377 16.5184H9.84395L9.7502 16.6777L9.73145 16.7059L9.65645 16.7434H9.49707L9.42207 16.7715L9.31894 16.8184L9.22519 16.8559L9.17832 16.8746H9.1502L9.10332 16.8934H9.04707L8.93457 16.8371L8.87832 16.809L8.78457 16.7902L8.73769 16.8184L8.72832 16.9965L8.68145 17.0996L8.53145 17.2309L8.38144 17.3621L8.28769 17.5121L8.00644 18.1402L7.82832 18.3934L7.78145 18.459L7.59395 18.6559L7.43457 18.7777L7.06894 19.059L6.72207 19.1996L6.42207 19.2559H6.27207L5.99082 19.2184L5.74707 19.1434L5.46582 18.9746L5.17519 18.7309L4.73457 18.309L4.67832 18.2715L4.65957 18.2621L4.52832 18.1684H4.42519L4.3877 18.2434L4.35957 18.3371L4.34082 18.4215L4.29395 18.8902V18.9184L4.32207 19.1152L4.65957 19.584L4.75332 19.8277L4.77207 19.8559L4.8377 19.9684L4.89394 20.0621L5.01582 20.3996L4.93145 20.5871L4.96895 20.7184L4.8752 20.7934L4.85645 20.9059L5.14707 21.2809L5.2127 21.4402L5.14707 21.6652L5.0252 21.7965L4.99707 21.8246L5.01582 21.9184L5.14707 22.0496L5.38144 22.2559L5.50332 22.5559L5.59707 22.6496L5.70957 22.6215L5.76582 22.6684H5.85957L5.95332 22.7621L6.00957 22.7809L6.10332 22.8277L6.17832 22.9215L6.1877 23.2215L6.32832 23.5777V23.8121L6.42207 23.9527L6.44082 24.0652L6.39394 24.3746L6.50644 24.4684L6.61895 24.4496L6.69394 24.459L6.81582 24.5621L6.96582 24.7871L7.11582 24.7684L7.20957 24.8059L7.6502 25.209L7.74395 25.2652L7.82832 25.3027L7.92207 25.3965L8.05332 25.3027H8.07207L8.22207 25.284L8.28769 25.3309L8.41895 25.4152H8.57832L8.95332 25.5277L9.10332 25.5652L9.42207 25.7621L9.5627 25.8465L9.6377 25.9121L9.7502 26.0059L9.95644 26.0996L10.1439 26.1371L10.2377 26.1559L10.3221 26.184L10.7158 26.3434L10.9314 26.3902L11.1189 26.4652L11.2689 26.5121H11.3814L11.5314 26.3902H11.6721L11.7939 26.409L11.9158 26.3902L12.1033 26.2777L12.1314 26.2215L12.2627 26.1652L12.7127 26.109L12.8439 26.1465L13.1814 26.0059L13.4064 26.0621L13.5939 25.9965L14.0346 26.0902L14.1471 26.1746L14.2783 26.3152H14.4377L14.3721 26.4184L14.5596 26.6246L14.7377 26.8777L14.7471 26.9152L14.8689 27.2809L14.9627 27.4121L15.0283 27.5902V27.7027L14.9346 27.7871L14.9158 27.8246V27.8434L14.9346 27.8902L14.9721 27.8715L15.0377 27.834L15.1314 27.8152L15.2814 27.834L15.3846 27.8434L15.5439 27.7684L15.6564 27.7121L15.8252 27.7871H16.0127L16.0971 27.8152L16.3221 27.9184L16.4346 27.9277L16.4721 27.8996L16.5002 27.8434L16.4908 27.7684L16.3971 27.6652L16.2096 27.4402L16.1346 27.3277L16.0783 27.1684L16.0596 26.9621L16.0408 26.8215L16.0689 26.634L16.1158 26.5684L16.1533 26.4184L16.1627 26.3809L16.2752 26.2402L16.5564 26.0527L16.8564 25.7902L17.0908 25.6309L17.3346 25.5277V25.4996L17.3721 25.509L17.9908 25.2934L18.2721 25.2465L20.1471 25.3777L20.2127 25.359L20.2783 25.1809L20.3064 25.1527L20.3346 25.134L20.5408 25.0402L20.6346 25.0215L20.8971 25.0871L21.0096 25.1152L21.1877 25.0215H21.3096L21.5627 24.8809H21.7221L21.7877 24.8621L22.0971 24.6371L22.3877 24.5527L22.4627 24.5152L22.4908 24.4965L22.8002 24.3371L22.9877 24.1871L23.1564 24.0934L23.3439 24.0559L23.8127 24.0184L23.9158 23.859L24.1221 23.8309L24.2439 23.6902L24.3846 23.634L24.4877 23.484L24.5814 23.3621L24.6939 23.2965L25.0783 23.2684L25.5283 23.3246L25.5939 23.2871L25.6877 22.9215L25.8002 22.8559L26.0814 22.434V22.284L26.0908 22.1527L26.1377 21.9652L26.1096 21.6465L26.1471 21.309L26.3252 20.8871L26.4846 20.7184L26.7377 20.5402L26.8689 20.484L27.0564 20.4559H27.0752L27.1221 20.4371H27.9846L28.2002 20.4277L28.7346 20.5215H28.7721L28.9502 20.5871L29.1564 20.7465L29.3814 20.9621L29.4189 20.9996L29.5596 21.0652L29.6064 21.084L29.7189 21.0652L29.8877 20.9715L30.0189 20.8777L30.1877 20.784V20.7652L30.2908 20.6246L30.3283 20.559L30.6658 20.4277L31.0596 20.409L31.1064 20.3809H31.1252L31.2283 20.2496H31.3221L31.5658 20.3434L31.7252 20.3059L31.8564 20.3527L31.9596 20.3434L32.1471 20.3152L32.3627 20.4652L32.4846 20.484L32.9064 20.7277H32.9439L32.9627 20.7371L33.0096 20.7184L33.0846 20.6996H33.0939L33.1033 20.709L33.1596 20.7746L33.2252 20.784L33.3002 20.6902L33.2721 20.634L33.2627 20.6152L33.1033 20.5871L32.9721 20.3527L33.1033 20.2121L32.8971 19.9684L32.8596 19.9215V19.9121L32.7846 19.7996L32.4283 19.2559L31.9596 18.8809L31.8002 18.759L31.7439 18.7121L31.4908 18.459L31.3127 18.2246L31.2939 18.1777L31.2564 18.0934L31.1533 17.8684L30.9658 17.7277L30.8158 17.559L30.4971 17.1277L30.4502 17.0621L30.3752 17.0152H30.2158L30.2064 16.9965H30.1971V16.9871L30.2721 16.9121L30.3658 16.8934L30.3939 16.809L30.2346 16.3496V16.3309L30.2252 16.1902L30.3471 15.5246L30.3658 15.4402L30.5908 14.9996L30.7221 14.8871L30.8721 14.5965L31.0033 14.409L31.1252 14.2871L31.1439 14.2777L31.3596 14.1465L31.5471 14.1184L31.7252 14.0902L32.0346 14.184H32.3158L32.3814 14.1746L32.5127 14.1559L32.7283 14.0902L32.8314 14.0246L32.8877 13.9496L33.0002 13.5746L33.0377 13.4527L33.1033 13.3215L33.5064 12.8621L33.8064 12.5809L34.4814 12.0934L34.8096 11.8965L34.9783 11.7934L36.4877 11.1184L36.8814 10.7246L37.0877 10.5184L37.4439 10.2746L37.8658 10.0965L38.2408 9.81523L38.3158 9.71211L38.4096 9.38398L38.5033 9.36523L38.5689 9.20586L38.5971 9.15898L38.8877 8.95273L38.9252 8.93398L40.0783 8.35273L40.2471 8.38086L40.3408 8.24023L40.6689 8.18398H40.7346L40.8189 8.13711L40.8846 8.01523V7.98711L40.8939 7.66836L40.9689 7.58398L41.0064 7.37773L41.0439 7.32148L41.0814 7.27461L41.1752 7.20898L41.1564 7.17148V7.16211Z" fill="#D47600"/>
</g>
<defs>
<clipPath id="clip0_200_80308">
<rect width="60" height="45" fill="white" transform="translate(-7.5)"/>
</clipPath>
</defs>
</svg>
