<svg width="45" height="45" viewBox="0 0 45 45" fill="none" xmlns="http://www.w3.org/2000/svg">
<g clip-path="url(#clip0_200_72858)">
<path d="M22.5 0H52.5V45H22.5V0Z" fill="white"/>
<path d="M-7.5 0H22.5V45H-7.5V0Z" fill="#006233"/>
<path d="M32.2496 16.875C31.0114 14.7303 29.1 13.0541 26.812 12.1064C24.524 11.1586 21.9872 10.9924 19.5951 11.6333C17.203 12.2743 15.0892 13.6867 13.5816 15.6514C12.074 17.6162 11.2568 20.0235 11.2568 22.5C11.2568 24.9765 12.074 27.3838 13.5816 29.3486C15.0892 31.3133 17.203 32.7257 19.5951 33.3667C21.9872 34.0076 24.524 33.8414 26.812 32.8936C29.1 31.9459 31.0114 30.2697 32.2496 28.125C31.0842 29.5806 29.4955 30.6383 27.703 31.1519C25.9105 31.6655 24.0027 31.6096 22.2433 30.9921C20.4839 30.3745 18.9597 29.2257 17.8814 27.7045C16.8032 26.1832 16.224 24.3646 16.224 22.5C16.224 20.6354 16.8032 18.8168 17.8814 17.2955C18.9597 15.7743 20.4839 14.6255 22.2433 14.0079C24.0027 13.3904 25.9105 13.3345 27.703 13.8481C29.4955 14.3617 31.0842 15.4194 32.2496 16.875ZM32.6246 22.5L22.4996 19.2L28.7996 27.825V17.175L22.4996 25.8L32.6246 22.5Z" fill="#D21034"/>
</g>
<defs>
<clipPath id="clip0_200_72858">
<rect width="60" height="45" fill="white" transform="translate(-7.5)"/>
</clipPath>
</defs>
</svg>
