<svg width="45" height="45" viewBox="0 0 45 45" fill="none" xmlns="http://www.w3.org/2000/svg">
<g clip-path="url(#clip0_200_71803)">
<path d="M-7.5 30H52.5V45H-7.5V30Z" fill="black"/>
<path d="M-7.5 15H52.5V30H-7.5V15Z" fill="white"/>
<path d="M-7.5 0H52.5V15H-7.5V0Z" fill="#CE1126"/>
<path d="M22.5602 22.6807L27.6977 27.4507L27.3302 18.7882C27.2777 17.4757 26.1377 17.7757 25.3052 18.2482C24.4727 18.7882 23.5052 18.7882 22.5002 18.4357C21.4877 18.7882 20.5277 18.7882 19.6952 18.2482C18.8702 17.7757 17.7227 17.4757 17.6702 18.7882L17.3027 27.4507L22.5602 22.6807Z" fill="white"/>
<path fill-rule="evenodd" clip-rule="evenodd" d="M18.3893 17.8001C18.8011 17.7689 19.305 17.9684 19.7194 18.2058C19.7202 18.2062 19.7209 18.2067 19.7217 18.2072C20.5376 18.7364 21.4807 18.7389 22.4841 18.3895C22.4945 18.3859 22.5059 18.3859 22.5163 18.3896C23.5121 18.7389 24.4627 18.7364 25.2786 18.2072C25.2794 18.2067 25.2803 18.2062 25.2811 18.2057C25.6991 17.9685 26.203 17.7689 26.6138 17.8001C26.8214 17.8158 27.0082 17.8908 27.1457 18.0519C27.2825 18.2121 27.3655 18.4515 27.3789 18.7861L27.7464 27.4485C27.7472 27.4683 27.736 27.4866 27.7181 27.4948C27.7001 27.5031 27.679 27.4998 27.6645 27.4863L22.5598 22.7467L17.3354 27.4867C17.3209 27.4999 17.2998 27.5031 17.282 27.4947C17.2642 27.4864 17.2531 27.4682 17.254 27.4485L17.6214 18.7861C17.6214 18.7861 17.6214 18.7861 17.6214 18.7861C17.6348 18.4514 17.7183 18.212 17.8557 18.0518C17.9938 17.8907 18.1813 17.8158 18.3893 17.8001ZM22.5602 22.6806L22.5933 22.6449L27.6439 27.3342L27.2815 18.7901L27.2814 18.79C27.2686 18.4684 27.1893 18.2531 27.0716 18.1152C26.9546 17.9782 26.7945 17.9116 26.6065 17.8973C26.2265 17.8685 25.7447 18.0548 25.3305 18.2898C24.4862 18.8368 23.5081 18.8371 22.5001 18.4872C21.4848 18.8371 20.5141 18.8369 19.6698 18.2897C19.2594 18.0549 18.7776 17.8685 18.3966 17.8973C18.2081 17.9116 18.0472 17.9782 17.9297 18.1153C17.8114 18.2532 17.7317 18.4685 17.7189 18.79L17.7189 18.7901L17.3563 27.3361L22.5274 22.6445L22.5602 22.6806Z" fill="#C09300"/>
<path d="M18.2627 18.4873L17.9027 26.9098L17.3027 27.4498L17.6702 18.7873C17.8474 18.6514 18.0483 18.5497 18.2627 18.4873ZM18.9827 19.0873L18.6827 26.1373L18.0827 26.7523L18.4427 18.6148C18.5627 18.7348 18.9152 19.0273 18.9827 19.0873ZM19.6352 19.6273L19.4027 25.5073L18.9152 25.9798L19.2152 19.2748C19.3352 19.3873 19.5752 19.5598 19.6352 19.6273ZM20.3477 19.9273L20.1152 24.9373L19.6427 25.3198L19.8752 19.7473C19.9952 19.7998 20.2277 19.9273 20.3477 19.9273ZM21.0077 19.9273L20.8352 24.1048L20.3477 24.5773L20.5352 19.9798C20.6477 19.9798 20.9552 19.9798 21.0077 19.9273Z" fill="#C09300"/>
<path d="M22.74 23.625L23.46 26.91L23.22 27.15L22.9725 26.9625L22.5675 24.0375L22.74 26.9625L22.5 27.2625L22.2675 26.9625L22.44 24.0375L22.0275 26.9625L21.78 27.15L21.54 26.91L22.26 23.6325H22.74V23.625Z" fill="#C09300"/>
<path fill-rule="evenodd" clip-rule="evenodd" d="M22.2271 23.5918H22.7403V23.6211L22.7805 23.6167L23.5054 26.9238L23.224 27.2051L22.9342 26.9856L22.6706 25.0818L22.7824 26.9764L22.4997 27.3297L22.2257 26.9761L22.3393 25.0494L22.0662 26.9857L21.7765 27.2051L21.4951 26.9237L22.2271 23.5918ZM22.7087 23.6743H22.2934L21.5854 26.8973L21.784 27.096L21.9893 26.9404L22.3994 24.0323L22.4814 24.0405L22.3098 26.95L22.5008 27.1964L22.6981 26.9497L22.5266 24.0405L22.6086 24.0324L23.0113 26.9405L23.2165 27.096L23.4151 26.8973L22.7087 23.6743Z" fill="#C09300"/>
<path d="M20.8876 22.1855L19.4551 27.263L21.4276 27.563L22.2601 23.7455L20.8876 22.1855Z" fill="white"/>
<path fill-rule="evenodd" clip-rule="evenodd" d="M20.8777 22.1417C20.8938 22.1381 20.9106 22.1435 20.9214 22.1559L22.2939 23.7159C22.3034 23.7266 22.3072 23.7412 22.3041 23.7552L21.4716 27.5727C21.4666 27.5959 21.4444 27.6112 21.4209 27.6076L19.4484 27.3076C19.4356 27.3057 19.4243 27.2984 19.4173 27.2875C19.4103 27.2767 19.4083 27.2633 19.4118 27.2509L20.8443 22.1734C20.8488 22.1575 20.8616 22.1454 20.8777 22.1417ZM20.9085 22.2775L19.5123 27.2263L21.3927 27.5123L22.2113 23.7583L20.9085 22.2775Z" fill="#C09300"/>
<path fill-rule="evenodd" clip-rule="evenodd" d="M21.5512 23.4886L20.6212 24.3736C20.6096 24.3847 20.5933 24.3893 20.5776 24.386C20.5619 24.3827 20.5488 24.3719 20.5426 24.3571L20.3701 23.9446L20.4601 23.907L20.6053 24.2542L21.484 23.418L21.5512 23.4886Z" fill="#C09300"/>
<path fill-rule="evenodd" clip-rule="evenodd" d="M21.2066 24.703L21.0116 22.8805L21.1086 22.8701L21.2905 24.5706L21.8088 23.8883L21.8864 23.9473L21.6645 24.2394L21.904 25.0748L22.0169 24.9035L22.0983 24.9571L21.9394 25.1983L21.9769 25.3294L21.8832 25.3562L21.8687 25.3055L21.4513 25.9387L21.6553 26.9002L21.5599 26.9204L21.3743 26.0453L20.9884 26.6369C20.9781 26.6527 20.9598 26.6611 20.9411 26.6586C20.9225 26.6561 20.907 26.6432 20.9012 26.6253L20.7011 26.0058L20.3216 26.6209C20.3114 26.6375 20.2923 26.6463 20.2731 26.6435C20.2538 26.6407 20.2381 26.6268 20.233 26.608L19.9255 25.468C19.921 25.4514 19.9257 25.4336 19.9377 25.4212L20.5527 24.7912C20.5649 24.7788 20.5829 24.7737 20.5998 24.7781C20.6167 24.7825 20.63 24.7955 20.6346 24.8124L20.7957 25.3988L21.1785 24.8861C21.1901 24.8706 21.2099 24.8634 21.2288 24.8679C21.2477 24.8723 21.2621 24.8876 21.2656 24.9067L21.4256 25.8005L21.8333 25.182L21.5909 24.3364L21.2939 24.7273C21.2818 24.7432 21.2613 24.7501 21.242 24.7448C21.2228 24.7394 21.2087 24.7229 21.2066 24.703ZM21.3462 25.9099L21.1894 25.0345L20.8141 25.537C20.803 25.5519 20.7843 25.5592 20.766 25.5557C20.7477 25.5523 20.733 25.5387 20.7281 25.5207L20.5631 24.9202L20.0269 25.4695L20.2978 26.4738L20.6736 25.8647C20.6836 25.8485 20.7021 25.8396 20.7209 25.8419C20.7398 25.8442 20.7556 25.8572 20.7615 25.8753L20.9626 26.4981L21.3462 25.9099Z" fill="#C09300"/>
<path fill-rule="evenodd" clip-rule="evenodd" d="M20.2802 26.5397C20.2987 26.5428 20.3137 26.5561 20.319 26.574L20.5426 27.3301L20.8455 26.8252C20.8553 26.8088 20.8738 26.7997 20.8928 26.8019C20.9118 26.8041 20.9278 26.8171 20.9337 26.8353L21.1662 27.5553L21.0734 27.5853L20.8739 26.9674L20.5691 27.4754C20.5591 27.492 20.5403 27.5011 20.5211 27.4987C20.5019 27.4962 20.486 27.4827 20.4805 27.4641L20.254 26.6981L19.9146 27.1784L19.835 27.1222L20.2325 26.5597C20.2432 26.5444 20.2618 26.5367 20.2802 26.5397Z" fill="#C09300"/>
<path d="M22.5004 29.5354C24.0004 29.5354 25.4254 29.4154 26.2654 29.1829C26.6179 29.1154 26.6179 28.9354 26.6179 28.6954C26.9779 28.5754 26.7979 28.1554 27.0454 28.1554C26.7904 28.2304 26.7454 27.7429 26.4454 27.8029C26.4454 27.3829 26.0179 27.3304 25.6654 27.4504C24.9529 27.6829 23.6929 27.7429 22.5004 27.7429C21.3004 27.6829 20.0554 27.6829 19.3354 27.4429C18.9829 27.3304 18.5629 27.3829 18.5629 27.8029C18.2629 27.7429 18.2104 28.2229 17.9629 28.1554C18.2104 28.1554 18.0229 28.5829 18.3829 28.6954C18.3829 28.9354 18.3829 29.1154 18.7429 29.1829C19.5679 29.4154 21.0079 29.5354 22.5004 29.5354Z" fill="white"/>
<path fill-rule="evenodd" clip-rule="evenodd" d="M18.7877 27.3383C18.9617 27.2781 19.1761 27.2977 19.3629 27.3573L19.364 27.3577L19.364 27.3577C19.7122 27.4738 20.1934 27.5333 20.7442 27.5708C21.0835 27.5939 21.4439 27.6083 21.8119 27.6231C22.0404 27.6323 22.2718 27.6415 22.5028 27.6531C23.6967 27.653 24.9408 27.5922 25.6371 27.3652C25.8244 27.3015 26.0406 27.28 26.2164 27.339C26.3059 27.369 26.3872 27.4208 26.4458 27.5007C26.4888 27.5592 26.5169 27.6292 26.5289 27.7097C26.5875 27.716 26.6384 27.7387 26.6824 27.7702C26.7454 27.8153 26.7947 27.8792 26.8338 27.9301L26.8352 27.9319C26.8776 27.9872 26.9083 28.0271 26.9411 28.0522C26.956 28.0636 26.9693 28.0704 26.9836 28.0726C27.0033 28.0678 27.0241 28.0656 27.0456 28.0656C27.0903 28.0656 27.1283 28.0984 27.1346 28.1427C27.141 28.187 27.1139 28.2293 27.0709 28.2419C27.0516 28.2476 27.033 28.2511 27.015 28.2526C27.012 28.2549 27.008 28.2592 27.0031 28.2677C26.9895 28.2915 26.9813 28.3239 26.9681 28.3756C26.966 28.3842 26.9636 28.3933 26.9611 28.403C26.9454 28.464 26.9235 28.5407 26.8767 28.6106C26.8379 28.6687 26.7838 28.7195 26.7079 28.7561C26.707 28.8534 26.7003 28.9576 26.6536 29.046C26.592 29.1626 26.4741 29.2342 26.2861 29.2708C25.4335 29.506 24.0004 29.6256 22.5006 29.6256C21.0087 29.6256 19.5605 29.5061 18.7225 29.2708C18.5316 29.2343 18.4116 29.1632 18.3488 29.0467C18.3011 28.9583 18.2942 28.8542 18.2932 28.7572C18.2175 28.7217 18.1637 28.6715 18.1253 28.6133C18.079 28.5433 18.0581 28.4658 18.0434 28.4044C18.0408 28.394 18.0385 28.3842 18.0364 28.375C18.0242 28.3237 18.0166 28.2912 18.0035 28.2673C17.9982 28.2576 17.9939 28.2534 17.9912 28.2514C17.9745 28.2502 17.9572 28.2473 17.9394 28.2424C17.8959 28.2305 17.8679 28.1883 17.8739 28.1436C17.8798 28.0989 17.918 28.0656 17.9631 28.0656C17.9824 28.0656 18.0012 28.0674 18.0192 28.0714C18.0336 28.0692 18.0475 28.0622 18.0637 28.0495C18.0958 28.0245 18.1259 27.9861 18.1667 27.934C18.1686 27.9316 18.1706 27.9291 18.1725 27.9266C18.2124 27.8758 18.2624 27.8128 18.3261 27.7685C18.3703 27.7377 18.4213 27.7156 18.4797 27.7095C18.4915 27.6294 18.519 27.5596 18.5612 27.5012C18.6189 27.4212 18.6991 27.369 18.7877 27.3383ZM18.1689 28.1957C18.1902 28.2406 18.2026 28.2945 18.2129 28.3388C18.2148 28.347 18.2166 28.3549 18.2184 28.3624C18.2327 28.4219 18.2479 28.4724 18.2755 28.5141C18.301 28.5528 18.3398 28.5877 18.4099 28.6097C18.4475 28.6214 18.4731 28.6562 18.4731 28.6956C18.4731 28.8225 18.4752 28.9019 18.5073 28.9613C18.534 29.0109 18.5929 29.0633 18.7596 29.0946C18.7623 29.0951 18.7649 29.0957 18.7675 29.0964C19.58 29.3254 21.0097 29.4456 22.5006 29.4456C23.9987 29.4456 25.4137 29.3255 26.2415 29.0963C26.2439 29.0957 26.2462 29.0951 26.2486 29.0947C26.4111 29.0636 26.4682 29.0116 26.4944 28.962C26.5259 28.9023 26.5281 28.8224 26.5281 28.6956C26.5281 28.6568 26.5528 28.6224 26.5896 28.6102C26.6605 28.5866 26.7005 28.5504 26.7271 28.5105C26.7556 28.4679 26.7716 28.4171 26.7868 28.3581C26.7887 28.3509 26.7906 28.3433 26.7926 28.3353C26.8031 28.2931 26.8158 28.2421 26.8363 28.1986C26.8348 28.1975 26.8333 28.1964 26.8318 28.1952C26.7793 28.1551 26.7352 28.0974 26.6991 28.0503C26.6964 28.0467 26.6937 28.0432 26.691 28.0398C26.6495 27.9857 26.6154 27.9436 26.5776 27.9166C26.5444 27.8928 26.5103 27.8819 26.4632 27.8913C26.4368 27.8966 26.4093 27.8898 26.3885 27.8727C26.3676 27.8556 26.3556 27.83 26.3556 27.8031C26.3556 27.7138 26.3331 27.6513 26.3007 27.6072C26.2681 27.5628 26.2205 27.5302 26.1591 27.5096C26.0332 27.4674 25.8597 27.4796 25.6946 27.5358L25.6935 27.5361L25.6935 27.5361C24.9652 27.7738 23.6907 27.8331 22.5006 27.8331C22.4991 27.8331 22.4976 27.833 22.4961 27.833C22.2684 27.8216 22.0378 27.8123 21.8091 27.8031C21.4387 27.7883 21.0731 27.7736 20.7319 27.7504C20.1805 27.7128 19.6794 27.6524 19.3077 27.5286C19.1421 27.4759 18.9705 27.4656 18.8465 27.5084C18.7861 27.5294 18.7393 27.562 18.7072 27.6065C18.6752 27.6508 18.6531 27.7135 18.6531 27.8031C18.6531 27.83 18.641 27.8556 18.6201 27.8727C18.5993 27.8898 18.5718 27.8966 18.5454 27.8913C18.4978 27.8818 18.4628 27.8926 18.429 27.9162C18.3907 27.9429 18.3559 27.9844 18.3142 28.0377C18.311 28.0418 18.3077 28.046 18.3043 28.0503C18.2683 28.0964 18.2248 28.1522 18.1743 28.1916C18.1725 28.1929 18.1707 28.1943 18.1689 28.1957Z" fill="#C09300"/>
<path d="M20.4678 27.263C20.9478 27.3305 21.4878 27.383 21.9078 27.3305C22.1478 27.3305 22.3203 27.743 21.8403 27.803C21.4278 27.8555 20.7678 27.803 20.4153 27.743C19.9514 27.6618 19.491 27.5617 19.0353 27.443C18.6153 27.263 18.9153 26.918 19.1553 26.963C19.5834 27.1002 20.0225 27.2005 20.4678 27.263ZM24.5328 27.263C24.0528 27.3305 23.5128 27.383 23.1078 27.3305C22.8528 27.3305 22.6803 27.743 23.1603 27.803C23.5803 27.8555 24.2328 27.803 24.5853 27.743C24.8853 27.683 25.5453 27.5705 25.9653 27.443C26.3853 27.263 26.0853 26.918 25.8453 26.963C25.4171 27.1002 24.978 27.2006 24.5328 27.263Z" fill="white"/>
<path fill-rule="evenodd" clip-rule="evenodd" d="M19.0511 27.3967C18.9547 27.3548 18.9071 27.3067 18.887 27.2647C18.8673 27.2235 18.8706 27.1809 18.8911 27.1407C18.9121 27.0994 18.951 27.0617 18.9987 27.0369C19.0453 27.0125 19.0969 27.0024 19.1434 27.0103C19.5732 27.1478 20.014 27.2485 20.4609 27.3112M19.0511 27.3967C19.5043 27.5146 19.9622 27.6141 20.4235 27.6949C20.7736 27.7545 21.4283 27.8062 21.834 27.7546L21.8341 27.7545C21.9477 27.7404 22.0153 27.7062 22.0527 27.6691C22.089 27.6332 22.1004 27.5912 22.0955 27.5499C22.0852 27.4625 22.0026 27.3808 21.9105 27.3792C21.484 27.4319 20.9398 27.3785 20.4609 27.3112M18.9536 26.9504C19.0166 26.9175 19.0914 26.9014 19.1642 26.915C19.1662 26.9154 19.1681 26.9159 19.1701 26.9165C19.5956 27.0528 20.032 27.1526 20.4745 27.2146L20.4677 27.2629L20.4745 27.2146C20.9543 27.2821 21.4887 27.3337 21.9016 27.282C21.9037 27.2818 21.9057 27.2817 21.9077 27.2817C22.0545 27.2817 22.1766 27.4054 22.1924 27.5384C22.2006 27.6078 22.1801 27.6802 22.1213 27.7384C22.0635 27.7956 21.9728 27.8355 21.8463 27.8513C21.4272 27.9046 20.7619 27.8514 20.407 27.791L20.4068 27.7909C19.9416 27.7095 19.4799 27.6091 19.0229 27.4901C19.0205 27.4895 19.0182 27.4887 19.016 27.4877C18.9046 27.44 18.8331 27.378 18.799 27.3067C18.7643 27.2339 18.7722 27.1593 18.8042 27.0964C18.8358 27.0345 18.8906 26.9832 18.9536 26.9504ZM26.2014 27.3067C26.1673 27.378 26.0958 27.44 25.9844 27.4877C25.9827 27.4884 25.9811 27.489 25.9794 27.4896C25.6428 27.5917 25.1536 27.6843 24.8179 27.7478C24.7316 27.7642 24.6555 27.7786 24.5948 27.7907L24.5934 27.791C24.2385 27.8514 23.5807 27.9046 23.1541 27.8513C23.0277 27.8355 22.9368 27.7956 22.8792 27.7383C22.8205 27.6799 22.8006 27.6073 22.81 27.5376C22.8282 27.4036 22.955 27.2817 23.1077 27.2817C23.1098 27.2817 23.1119 27.2818 23.114 27.2821C23.5118 27.3336 24.0459 27.2821 24.5259 27.2146L24.5327 27.2629L24.5259 27.2146C24.9684 27.1526 25.4048 27.0529 25.8303 26.9165C25.8322 26.9159 25.8342 26.9154 25.8362 26.915C25.9089 26.9014 25.9838 26.9175 26.0468 26.9504C26.1097 26.9832 26.1646 27.0345 26.1961 27.0964C26.2281 27.1593 26.2361 27.2339 26.2014 27.3067ZM24.5395 27.3112C24.0608 27.3785 23.5166 27.4319 23.1047 27.3792C23.0037 27.3808 22.9183 27.4643 22.9066 27.5507C22.9011 27.5917 22.9121 27.6334 22.948 27.6692C22.9851 27.7062 23.0527 27.7404 23.1662 27.7545C23.5794 27.8062 24.2261 27.7545 24.5763 27.695C24.6388 27.6825 24.7162 27.6678 24.8035 27.6513C25.1385 27.5879 25.6177 27.4972 25.9484 27.3971C26.0454 27.355 26.0932 27.3069 26.1134 27.2647C26.1331 27.2235 26.1297 27.1809 26.1092 27.1407C26.0883 27.0994 26.0494 27.0617 26.0017 27.0369C25.9551 27.0125 25.9035 27.0024 25.857 27.0103C25.4272 27.1479 24.9864 27.2485 24.5395 27.3112" fill="#C09300"/>
<path d="M18.9757 27.0307C18.6157 26.9632 18.4507 27.3832 18.5632 27.6232C18.6157 27.5032 18.8632 27.5032 18.9157 27.3832C18.9832 27.2032 18.8632 27.2032 18.9832 27.0307H18.9757ZM20.4157 28.1332C20.4157 27.8932 20.6482 27.9232 20.6482 27.6832C20.6482 27.5707 20.5882 27.3832 20.4682 27.3832C20.4058 27.3868 20.3468 27.4132 20.3025 27.4575C20.2583 27.5017 20.2318 27.5607 20.2282 27.6232C20.1757 27.8557 20.4157 27.8932 20.4157 28.1332ZM22.1182 27.4507C22.4707 27.4507 22.4332 27.9232 22.2682 28.1632C22.2682 27.9907 21.9682 27.9232 21.9682 27.8032C21.9682 27.6232 22.2382 27.6232 22.1182 27.4507ZM26.0182 27.0307C26.3857 26.9632 26.5582 27.3832 26.4382 27.6232C26.3857 27.5032 26.1382 27.5032 26.0857 27.3832C26.0182 27.2032 26.1382 27.2032 26.0182 27.0307ZM24.6007 28.1257C24.6007 27.8857 24.3607 27.9157 24.3607 27.6757C24.3607 27.5632 24.4207 27.3757 24.5407 27.3757C24.6032 27.3793 24.6622 27.4057 24.7065 27.45C24.7507 27.4942 24.7772 27.5532 24.7807 27.6157C24.8332 27.8482 24.5932 27.8857 24.5932 28.1257H24.6007ZM22.8757 27.4507C22.5232 27.4507 22.5607 27.9232 22.7257 28.1632C22.7257 27.9907 23.0257 27.9232 23.0257 27.8032C23.0257 27.6232 22.7557 27.6232 22.8757 27.4507Z" fill="white"/>
<path fill-rule="evenodd" clip-rule="evenodd" d="M18.9801 26.9819C18.7783 26.946 18.6298 27.0473 18.5499 27.1874C18.4711 27.3256 18.4551 27.5074 18.519 27.6438C18.5272 27.6612 18.5447 27.6721 18.5638 27.6719C18.5829 27.6716 18.6002 27.6602 18.6078 27.6427C18.6152 27.6259 18.6308 27.61 18.658 27.5937C18.6855 27.5774 18.7192 27.5638 18.7575 27.5484L18.7594 27.5477C18.7956 27.5332 18.8361 27.517 18.8708 27.4963C18.9064 27.475 18.9414 27.4459 18.9603 27.4027C18.9607 27.4019 18.961 27.4011 18.9613 27.4003C18.98 27.3505 18.9864 27.311 18.9866 27.2766C18.9867 27.25 18.9828 27.2264 18.9798 27.2085C18.9791 27.2043 18.9785 27.2004 18.978 27.1969C18.9751 27.1778 18.9743 27.1632 18.9788 27.1449C18.9836 27.1256 18.9952 27.0987 19.0232 27.0585C19.0336 27.0436 19.0348 27.0242 19.0264 27.0081C19.018 26.992 19.0013 26.9819 18.9832 26.9819H18.9801ZM18.9021 27.0722C18.7794 27.0715 18.6893 27.1399 18.6346 27.2357C18.5838 27.3247 18.5662 27.4336 18.5834 27.5263C18.5914 27.5204 18.5997 27.515 18.608 27.51C18.6428 27.4893 18.6833 27.4731 18.7194 27.4586L18.7213 27.4579C18.7597 27.4425 18.7934 27.4289 18.8208 27.4125C18.8475 27.3966 18.863 27.3811 18.8705 27.3647C18.8852 27.3251 18.889 27.2975 18.8891 27.2762C18.8892 27.2585 18.8869 27.2448 18.8842 27.228C18.8833 27.2228 18.8824 27.2173 18.8815 27.2113C18.8778 27.1863 18.8753 27.1573 18.8842 27.1215C18.888 27.1058 18.8939 27.0895 18.9021 27.0722ZM26.0182 27.0306L25.9782 27.0585C26.0062 27.0987 26.0178 27.1256 26.0225 27.1449C26.027 27.1632 26.0262 27.1778 26.0234 27.1969C26.0229 27.2004 26.0222 27.2043 26.0215 27.2085C26.0186 27.2264 26.0147 27.25 26.0148 27.2766C26.0149 27.311 26.0214 27.3505 26.04 27.4003C26.0403 27.4011 26.0407 27.4019 26.041 27.4027C26.0599 27.4459 26.095 27.475 26.1305 27.4963C26.1653 27.517 26.2058 27.5332 26.2419 27.5477L26.2438 27.5484C26.2822 27.5638 26.3159 27.5774 26.3433 27.5937C26.3706 27.61 26.3862 27.6259 26.3935 27.6427C26.4011 27.66 26.418 27.6714 26.4369 27.6719C26.4558 27.6724 26.4733 27.6619 26.4818 27.6449C26.5503 27.5078 26.534 27.3253 26.4531 27.187C26.3704 27.0456 26.2165 26.9447 26.0094 26.9827L26.0182 27.0306ZM26.3689 27.2362C26.3138 27.142 26.2226 27.0737 26.0993 27.0722C26.1075 27.0895 26.1133 27.1058 26.1172 27.1215C26.126 27.1573 26.1236 27.1863 26.1198 27.2113C26.1189 27.2173 26.118 27.2228 26.1172 27.228C26.1144 27.2448 26.1122 27.2585 26.1123 27.2762C26.1124 27.2975 26.1161 27.3251 26.1308 27.3647C26.1383 27.381 26.1538 27.3966 26.1805 27.4125C26.208 27.4289 26.2417 27.4425 26.28 27.4579L26.2819 27.4586C26.3181 27.4731 26.3586 27.4893 26.3933 27.51C26.4022 27.5154 26.4111 27.5212 26.4197 27.5276C26.4389 27.435 26.4213 27.3257 26.3689 27.2362ZM24.4494 27.505C24.4229 27.5588 24.4094 27.6263 24.4094 27.6756C24.4094 27.7266 24.4219 27.7604 24.4391 27.7869C24.4573 27.815 24.482 27.837 24.5128 27.864L24.5146 27.8656C24.5393 27.8872 24.5681 27.9123 24.5923 27.9445C24.6127 27.9083 24.6367 27.8778 24.6585 27.8502C24.6618 27.846 24.665 27.8419 24.6682 27.8378C24.6949 27.8036 24.7157 27.7748 24.7279 27.7424C24.7395 27.7117 24.7442 27.6755 24.7331 27.6264C24.7325 27.6238 24.7322 27.6211 24.732 27.6184C24.7291 27.5679 24.7077 27.5202 24.6719 27.4844C24.6365 27.4489 24.5894 27.4276 24.5394 27.4244C24.5086 27.4251 24.4766 27.4497 24.4494 27.505ZM24.6462 28.0763C24.6584 28.0085 24.6954 27.9613 24.7375 27.9075C24.74 27.9043 24.7425 27.9011 24.745 27.8978C24.7718 27.8636 24.8011 27.8245 24.8191 27.7769C24.8374 27.7287 24.8432 27.6742 24.8291 27.6088C24.8239 27.5359 24.7926 27.4672 24.7409 27.4154C24.6882 27.3627 24.6179 27.3312 24.5435 27.327C24.543 27.3269 24.5424 27.3269 24.5419 27.3269C24.5415 27.3269 24.5411 27.3269 24.5407 27.3269C24.4519 27.3269 24.3943 27.3961 24.3619 27.4619C24.3284 27.53 24.3119 27.6125 24.3119 27.6756C24.3119 27.7447 24.3295 27.7971 24.3573 27.84C24.3835 27.8804 24.4179 27.9105 24.4467 27.9357L24.4486 27.9373C24.4793 27.9642 24.5041 27.9863 24.5223 28.0144C24.5333 28.0314 24.5424 28.0514 24.5475 28.077C24.5455 28.0924 24.5444 28.1086 24.5444 28.1256C24.5444 28.1526 24.5663 28.1744 24.5932 28.1744H24.6007C24.6276 28.1744 24.6494 28.1526 24.6494 28.1256C24.6494 28.1082 24.6483 28.0917 24.6462 28.0763ZM20.4654 27.3345C20.4663 27.3344 20.4672 27.3344 20.4682 27.3344C20.557 27.3344 20.6145 27.4036 20.6469 27.4694C20.6804 27.5375 20.6969 27.62 20.6969 27.6831C20.6969 27.7519 20.68 27.8041 20.6531 27.8469C20.6277 27.8873 20.5944 27.9174 20.5664 27.9427L20.5646 27.9443C20.5348 27.9712 20.5109 27.9932 20.4933 28.0213C20.4766 28.0478 20.4644 28.0819 20.4644 28.1331H20.3669C20.3669 28.037 20.323 27.9809 20.2714 27.915C20.2689 27.9118 20.2664 27.9086 20.2638 27.9053C20.2371 27.8711 20.2077 27.832 20.1897 27.7844C20.1715 27.7362 20.1657 27.6817 20.1798 27.6163C20.1849 27.5434 20.2162 27.4747 20.268 27.4229C20.3207 27.3702 20.391 27.3387 20.4654 27.3345ZM20.4192 27.9567C20.3983 27.9185 20.3731 27.8865 20.3504 27.8577C20.3471 27.8535 20.3438 27.8494 20.3407 27.8453C20.3139 27.8111 20.2932 27.7823 20.2809 27.7499C20.2693 27.7192 20.2646 27.683 20.2757 27.6339C20.2763 27.6313 20.2767 27.6286 20.2768 27.6259C20.2797 27.5754 20.3011 27.5277 20.3369 27.4919C20.3724 27.4564 20.4195 27.4351 20.4694 27.4319C20.5002 27.4326 20.5322 27.4572 20.5594 27.5125C20.5859 27.5663 20.5994 27.6338 20.5994 27.6831C20.5994 27.7344 20.5873 27.7685 20.5706 27.795C20.5529 27.8231 20.529 27.8451 20.4993 27.872L20.4975 27.8736C20.4725 27.8961 20.4433 27.9225 20.4192 27.9567ZM22.075 27.4281C22.0834 27.412 22.1 27.4019 22.1182 27.4019C22.2182 27.4019 22.2958 27.4359 22.3497 27.4955C22.4024 27.5538 22.4281 27.6316 22.4358 27.7123C22.451 27.8726 22.3969 28.062 22.3084 28.1908C22.2963 28.2084 22.2741 28.216 22.2537 28.2097C22.2333 28.2034 22.2194 28.1845 22.2194 28.1631C22.2194 28.1355 22.2078 28.1098 22.1845 28.0829C22.1605 28.0553 22.1274 28.0299 22.0899 28.0032C22.0837 27.9987 22.0773 27.9943 22.0708 27.9897C22.0403 27.9682 22.0077 27.9452 21.982 27.9216C21.9515 27.8935 21.9194 27.8545 21.9194 27.8031C21.9194 27.6976 21.9935 27.6379 22.0415 27.5992C22.047 27.5948 22.0522 27.5907 22.0568 27.5867C22.0836 27.5643 22.0951 27.5506 22.0988 27.5387C22.1011 27.5314 22.1034 27.5148 22.0782 27.4785C22.0678 27.4636 22.0666 27.4442 22.075 27.4281ZM22.1962 27.5101C22.2309 27.5208 22.2573 27.5387 22.2774 27.5609C22.3116 27.5987 22.3323 27.6541 22.3387 27.7215C22.3485 27.8242 22.3239 27.9445 22.2784 28.0452C22.2721 28.036 22.2653 28.0273 22.2581 28.0191C22.2258 27.9818 22.184 27.9505 22.1465 27.9238C22.1391 27.9185 22.1318 27.9134 22.1249 27.9085C22.0946 27.8871 22.0685 27.8687 22.0481 27.8499C22.0224 27.8262 22.0169 27.8118 22.0169 27.8031C22.0169 27.7465 22.0525 27.7171 22.1037 27.6746C22.1088 27.6704 22.1141 27.666 22.1195 27.6614C22.1452 27.6398 22.1787 27.6099 22.1919 27.5677C22.1978 27.5487 22.1991 27.5295 22.1962 27.5101ZM22.6442 27.4955C22.6981 27.4359 22.7757 27.4019 22.8757 27.4019C22.8938 27.4019 22.9105 27.412 22.9189 27.4281C22.9273 27.4442 22.9261 27.4636 22.9157 27.4785C22.8904 27.5148 22.8928 27.5314 22.895 27.5387C22.8987 27.5506 22.9102 27.5643 22.937 27.5867C22.9417 27.5907 22.9468 27.5948 22.9523 27.5992C23.0004 27.6379 23.0744 27.6976 23.0744 27.8031C23.0744 27.8545 23.0424 27.8935 23.0118 27.9216C22.9862 27.9452 22.9535 27.9682 22.923 27.9897C22.9165 27.9943 22.9102 27.9987 22.904 28.0032C22.8665 28.0299 22.8333 28.0553 22.8094 28.0829C22.7861 28.1098 22.7744 28.1355 22.7744 28.1631C22.7744 28.1845 22.7605 28.2034 22.7401 28.2097C22.7197 28.216 22.6976 28.2084 22.6855 28.1908C22.597 28.062 22.5429 27.8726 22.5581 27.7123C22.5657 27.6316 22.5914 27.5538 22.6442 27.4955ZM22.7155 28.0452C22.6699 27.9445 22.6454 27.8242 22.6551 27.7215C22.6616 27.6541 22.6823 27.5987 22.7165 27.5609C22.7366 27.5387 22.7629 27.5208 22.7976 27.5101C22.7947 27.5295 22.796 27.5487 22.8019 27.5677C22.8151 27.6099 22.8486 27.6398 22.8743 27.6614C22.8798 27.666 22.885 27.6704 22.8902 27.6746C22.9414 27.7171 22.9769 27.7465 22.9769 27.8031C22.9769 27.8118 22.9715 27.8262 22.9458 27.8499C22.9253 27.8687 22.8993 27.8871 22.869 27.9085C22.862 27.9134 22.8548 27.9185 22.8474 27.9238C22.8099 27.9505 22.768 27.9818 22.7357 28.0191C22.7286 28.0273 22.7217 28.036 22.7155 28.0452Z" fill="#C09300"/>
<path d="M19.1035 27.1504C19.2235 27.1504 19.4035 27.2029 19.456 27.2704L19.1035 27.1504ZM19.696 27.3304C19.756 27.3304 19.996 27.3829 20.1085 27.4504L19.696 27.3304ZM21.841 27.5704C21.7285 27.5704 21.4885 27.5704 21.4285 27.6229L21.841 27.5629V27.5704ZM21.1885 27.5704C21.121 27.5029 20.8885 27.5029 20.7685 27.5704H21.1885ZM25.8985 27.1504C25.7713 27.152 25.6478 27.194 25.546 27.2704L25.8985 27.1504ZM25.3135 27.3304C25.2385 27.3304 25.0135 27.3829 24.8935 27.4504L25.3135 27.3304ZM23.161 27.5704C23.2735 27.5704 23.5135 27.5704 23.581 27.6229L23.161 27.5629V27.5704ZM23.8135 27.5704C23.881 27.5029 24.1135 27.5029 24.2335 27.5704H23.8135Z" fill="white"/>
<path fill-rule="evenodd" clip-rule="evenodd" d="M25.9313 27.1442C25.9342 27.1606 25.9247 27.1766 25.909 27.1819L25.5565 27.3019C25.5408 27.3073 25.5235 27.3004 25.5157 27.2857C25.508 27.271 25.5121 27.2529 25.5253 27.243C25.6329 27.1623 25.7633 27.1179 25.8977 27.1162C25.9143 27.116 25.9285 27.1279 25.9313 27.1442ZM19.0698 27.1444C19.0725 27.1282 19.0866 27.1162 19.1031 27.1162C19.1673 27.1162 19.2458 27.1301 19.3151 27.1525C19.3498 27.1638 19.3831 27.1775 19.4115 27.1932C19.4396 27.2086 19.4651 27.2272 19.4822 27.2492C19.4914 27.261 19.4917 27.2774 19.4831 27.2895C19.4744 27.3017 19.4588 27.3067 19.4447 27.3019L19.0922 27.1819C19.0766 27.1766 19.0671 27.1607 19.0698 27.1444ZM19.6622 27.3252C19.6645 27.3086 19.6788 27.2962 19.6956 27.2962C19.7304 27.2962 19.8091 27.3104 19.8908 27.332C19.973 27.3537 20.0649 27.3847 20.1255 27.421C20.14 27.4297 20.1458 27.4479 20.139 27.4635C20.1322 27.479 20.115 27.4871 20.0987 27.4824L19.6862 27.3624C19.67 27.3577 19.6598 27.3418 19.6622 27.3252ZM25.1112 27.332C25.1924 27.3104 25.2709 27.2962 25.3131 27.2962C25.3299 27.2962 25.3442 27.3086 25.3465 27.3253C25.3488 27.3419 25.3385 27.3578 25.3224 27.3624L24.9024 27.4824C24.8859 27.4871 24.8685 27.4788 24.8619 27.463C24.8554 27.4472 24.8616 27.4289 24.8765 27.4205C24.9402 27.3848 25.0296 27.3539 25.1112 27.332ZM21.1192 27.4993C21.1549 27.5084 21.1889 27.523 21.212 27.5461C21.2216 27.5557 21.2245 27.5703 21.2193 27.5829C21.214 27.5955 21.2017 27.6037 21.1881 27.6037H20.7681C20.7527 27.6037 20.7393 27.5934 20.7354 27.5785C20.7316 27.5637 20.7382 27.5481 20.7515 27.5405C20.8183 27.503 20.9128 27.4856 20.9978 27.4856C21.0407 27.4856 21.0827 27.49 21.1192 27.4993ZM24.0034 27.4856C24.0884 27.4856 24.1829 27.503 24.2496 27.5405C24.263 27.5481 24.2696 27.5637 24.2657 27.5785C24.2618 27.5934 24.2484 27.6037 24.2331 27.6037H23.8131C23.7994 27.6037 23.7871 27.5955 23.7819 27.5829C23.7767 27.5703 23.7796 27.5557 23.7892 27.5461C23.8123 27.523 23.8463 27.5084 23.882 27.4993C23.9185 27.49 23.9605 27.4856 24.0034 27.4856ZM21.8627 27.5369C21.8701 27.5433 21.8743 27.5527 21.8743 27.5625V27.57C21.8743 27.5886 21.8592 27.6037 21.8406 27.6037C21.8258 27.6037 21.8089 27.6037 21.7906 27.6038L21.4329 27.6559C21.4181 27.658 21.4037 27.6502 21.3974 27.6366C21.3912 27.623 21.3946 27.6069 21.4059 27.5971C21.4277 27.578 21.4612 27.5667 21.4946 27.5592C21.5295 27.5513 21.5704 27.5462 21.6119 27.5429C21.6714 27.5381 21.7341 27.5367 21.7855 27.5364L21.8357 27.5291C21.8454 27.5277 21.8553 27.5305 21.8627 27.5369ZM23.1385 27.537C23.1459 27.5306 23.1557 27.5277 23.1654 27.5291L23.2166 27.5364C23.2679 27.5368 23.3304 27.5381 23.3901 27.5429C23.4321 27.5462 23.4737 27.5513 23.5095 27.5591C23.5442 27.5667 23.5782 27.5778 23.6013 27.5958C23.6134 27.6052 23.6176 27.6216 23.6117 27.6356C23.6057 27.6497 23.591 27.658 23.5758 27.6559L23.2116 27.6038C23.1929 27.6037 23.1756 27.6037 23.1606 27.6037C23.1419 27.6037 23.1268 27.5886 23.1268 27.57V27.5625C23.1268 27.5527 23.1311 27.5434 23.1385 27.537Z" fill="#C09300"/>
<path d="M18.9979 28.0946C18.9604 28.0871 18.9379 28.0496 18.9529 28.0196C18.9604 27.9671 18.9979 27.9446 19.0279 27.9596C19.0579 27.9596 19.0954 28.0046 19.0954 28.0196L19.0654 28.0721L19.0504 28.0796C19.0504 28.0946 19.0204 28.0946 18.9979 28.0946ZM23.1229 28.3871C23.1079 28.3871 23.0779 28.3496 23.0779 28.3346C23.0779 28.3046 23.1229 28.2596 23.1529 28.2596L23.2129 28.2896C23.2354 28.3121 23.2354 28.3571 23.2054 28.3796C23.1904 28.3946 23.1454 28.3946 23.1229 28.3796V28.3871ZM23.1454 28.5746C23.1154 28.5596 23.1079 28.5446 23.1004 28.5146C23.1004 28.4771 23.1004 28.4696 23.1379 28.4471L23.1679 28.4321L23.1979 28.4471C23.2279 28.4621 23.2504 28.4771 23.2504 28.5071C23.2504 28.5296 23.2279 28.5521 23.1979 28.5671C23.1754 28.5821 23.1679 28.5821 23.1454 28.5671V28.5746Z" fill="#C09300"/>
<path d="M19.3358 27.75C19.3058 27.75 19.2683 27.78 19.2458 27.795C19.2008 27.8025 19.1408 27.8325 19.0958 27.795C19.0508 27.7875 18.9908 27.795 18.9833 27.855C18.9908 27.9075 19.0583 27.93 19.1033 27.9C19.1333 27.8625 19.2158 27.8325 19.2308 27.9C19.1933 27.96 19.2008 28.0275 19.1708 28.08C19.1708 28.1175 19.1483 28.1475 19.1333 28.1775C19.0958 28.1775 19.0583 28.1775 19.0283 28.2C19.005 28.2 18.9821 28.2054 18.9612 28.2158C18.9404 28.2263 18.9223 28.2414 18.9083 28.26C18.8783 28.305 18.8483 28.35 18.8408 28.41C18.8483 28.455 18.9158 28.47 18.9608 28.4775L19.1108 28.5225L19.3508 28.59C19.4708 28.6275 19.5908 28.6425 19.7108 28.6725L19.7483 28.68C19.8008 28.695 19.8233 28.6425 19.8233 28.605L19.8983 28.335C19.9133 28.2975 19.9358 28.2225 19.8683 28.2375C19.8308 28.26 19.7933 28.2975 19.7483 28.2975C19.6808 28.2975 19.7183 28.3725 19.7483 28.395C19.7483 28.44 19.7333 28.4925 19.7108 28.53C19.6658 28.5525 19.6208 28.53 19.5758 28.515C19.5383 28.515 19.4483 28.4925 19.4858 28.44L19.5233 28.305C19.5458 28.26 19.5458 28.2075 19.5608 28.155C19.5308 28.1025 19.4858 28.1775 19.4483 28.185C19.4183 28.2 19.3283 28.2075 19.3733 28.26C19.4183 28.29 19.3883 28.3425 19.3733 28.3875C19.3733 28.44 19.3133 28.4625 19.2683 28.44C19.2233 28.44 19.1558 28.4025 19.1933 28.3575L19.2308 28.2225L19.2833 28.0725C19.2833 28.02 19.3058 27.9825 19.3283 27.9375C19.3283 27.885 19.3658 27.84 19.3658 27.7875C19.3658 27.765 19.3508 27.7575 19.3358 27.7575V27.75ZM19.0583 28.2975C19.0617 28.2955 19.0656 28.2945 19.0696 28.2945C19.0735 28.2945 19.0774 28.2955 19.0808 28.2975C19.0958 28.3125 19.0958 28.3275 19.0808 28.3425L19.0583 28.3575C19.0208 28.3575 19.0133 28.35 19.0133 28.335C19.0133 28.3275 19.0133 28.32 19.0358 28.3125C19.045 28.3059 19.0551 28.3009 19.0658 28.2975H19.0583ZM18.9833 28.6725C18.9458 28.6425 18.9533 28.62 19.0058 28.575C19.0358 28.56 19.0433 28.56 19.0733 28.5825C19.1183 28.62 19.1183 28.6425 19.0733 28.68C19.0583 28.695 19.0508 28.695 19.0358 28.695C19.0133 28.695 19.0058 28.695 18.9833 28.68V28.6725ZM19.2083 28.7475C19.1916 28.7423 19.1775 28.7308 19.1691 28.7154C19.1607 28.7 19.1586 28.6819 19.1633 28.665C19.1783 28.635 19.1858 28.6275 19.2308 28.6275C19.2833 28.6275 19.2908 28.635 19.2983 28.68C19.2983 28.71 19.2983 28.7175 19.2758 28.7325C19.2675 28.7391 19.2578 28.7439 19.2474 28.7465C19.2371 28.7491 19.2263 28.7494 19.2158 28.7475H19.2083ZM25.8983 28.7475C25.8833 28.74 25.8758 28.7325 25.8758 28.71C25.8758 28.68 25.8908 28.6575 25.9358 28.6425C25.9808 28.62 26.0108 28.62 26.0258 28.6575C26.0483 28.7025 26.0483 28.7175 26.0183 28.7475C26.0033 28.77 25.9958 28.77 25.9583 28.77C25.9208 28.77 25.9133 28.77 25.8983 28.755V28.7475ZM19.5233 28.8375C19.4933 28.8375 19.4783 28.8075 19.4783 28.7775C19.4783 28.755 19.4783 28.7475 19.4933 28.7325L19.5383 28.7175L19.5833 28.725C19.6208 28.755 19.6283 28.785 19.6058 28.815C19.5833 28.845 19.5608 28.845 19.5158 28.8375H19.5233ZM21.1583 28.9125L21.1433 28.89C21.1433 28.845 21.1433 28.8075 21.1583 28.7625C21.1658 28.725 21.1583 28.6875 21.1733 28.65L21.2033 28.44C21.2033 28.4025 21.2033 28.365 21.2183 28.335C21.2258 28.275 21.2183 28.2225 21.2333 28.17C21.2333 28.1475 21.2558 28.095 21.2783 28.125C21.3083 28.17 21.3458 28.2 21.3833 28.2375C21.4133 28.26 21.3833 28.29 21.3608 28.2975C21.3308 28.305 21.3233 28.3425 21.3233 28.3725L21.3083 28.4625C21.3083 28.515 21.3083 28.56 21.2933 28.6125L21.2858 28.7475L21.2708 28.8375C21.2708 28.8675 21.2708 28.905 21.2408 28.92C21.2183 28.935 21.1808 28.935 21.1658 28.9125H21.1583ZM23.3858 28.1775L23.2883 28.2675C23.2433 28.305 23.3258 28.32 23.3333 28.35C23.3483 28.395 23.3483 28.44 23.3483 28.485C23.3633 28.53 23.3708 28.5675 23.3633 28.6125C23.3633 28.665 23.3033 28.65 23.2733 28.68C23.2358 28.695 23.2208 28.7325 23.1983 28.755C23.1805 28.7926 23.1703 28.8334 23.1683 28.875C23.1683 28.9125 23.1458 28.95 23.1683 28.98L23.1758 28.995H23.2133L23.3258 28.9875C23.4158 28.9725 23.5133 28.9725 23.6033 28.965L23.7683 28.95C23.8133 28.9575 23.8358 28.9125 23.8358 28.875C23.8058 28.8225 23.8283 28.77 23.8058 28.725C23.7908 28.665 23.7983 28.6125 23.7908 28.56C23.7908 28.515 23.7383 28.5 23.7158 28.53C23.6858 28.56 23.6408 28.5675 23.6258 28.5975C23.6033 28.6425 23.6708 28.6425 23.6858 28.6725L23.6933 28.785C23.7008 28.83 23.6558 28.83 23.6183 28.8375C23.5808 28.8525 23.5283 28.86 23.5058 28.815C23.4908 28.7775 23.4908 28.74 23.4908 28.7025C23.4908 28.6275 23.4683 28.5675 23.4683 28.5C23.4683 28.425 23.4458 28.3425 23.4458 28.26C23.4458 28.2225 23.4383 28.17 23.3858 28.1775ZM23.3408 28.7925H23.3633V28.8525L23.3408 28.86C23.331 28.8631 23.321 28.8656 23.3108 28.8675C23.3058 28.8677 23.3008 28.8677 23.2958 28.8675C23.2808 28.8525 23.2808 28.83 23.3033 28.8075L23.3408 28.7925ZM21.0908 28.1025C21.0683 28.1025 21.0308 28.155 21.0008 28.1475C20.9333 28.155 20.9408 28.2225 20.9933 28.245V28.305C21.0008 28.365 20.9633 28.4175 20.9708 28.4775C20.9708 28.5375 20.9483 28.605 20.9483 28.6725C20.9258 28.74 20.9258 28.8075 20.9183 28.875C20.9108 28.935 20.8658 28.9125 20.8283 28.8975V28.8225C20.8358 28.755 20.7908 28.74 20.7383 28.7325C20.6858 28.7325 20.6633 28.695 20.6783 28.65C20.7008 28.62 20.7533 28.6275 20.7908 28.6275C20.8658 28.6425 20.8583 28.545 20.8208 28.5075C20.7908 28.4625 20.7308 28.4325 20.7158 28.3875C20.7158 28.3275 20.6783 28.26 20.6258 28.23C20.5433 28.2225 20.4758 28.29 20.4533 28.365C20.4158 28.365 20.3783 28.38 20.3483 28.395C20.2958 28.41 20.2208 28.5 20.2958 28.5375C20.3333 28.545 20.4608 28.575 20.4008 28.6275C20.3708 28.6875 20.3108 28.6875 20.2583 28.6725C20.2058 28.6725 20.1458 28.6425 20.1458 28.5825C20.1383 28.5225 20.1383 28.4625 20.1158 28.41C20.1008 28.35 20.0333 28.365 20.0258 28.425C19.9733 28.4625 19.9808 28.53 20.0183 28.575C20.0408 28.6275 20.0183 28.695 19.9958 28.74C19.9808 28.815 19.9058 28.815 19.8533 28.83C19.8308 28.845 19.7333 28.83 19.7708 28.8825C19.8271 28.9084 19.8899 28.9163 19.9508 28.905C20.0108 28.905 20.0633 28.8525 20.1008 28.8C20.1383 28.7625 20.2058 28.785 20.2658 28.785C20.3183 28.785 20.3783 28.8225 20.4383 28.7925C20.4533 28.755 20.5283 28.68 20.5508 28.755C20.5508 28.8225 20.6033 28.8525 20.6633 28.845C20.7308 28.845 20.7008 28.89 20.7008 28.935C20.7008 29.0025 20.7533 29.04 20.8133 29.07H20.8733C20.9258 29.0475 20.9858 29.025 21.0083 28.965C21.0308 28.9125 21.0308 28.8525 21.0458 28.8C21.0608 28.7175 21.0758 28.6275 21.0758 28.545C21.0983 28.47 21.0908 28.3875 21.1058 28.305L21.1283 28.1325C21.1283 28.095 21.1133 28.095 21.0908 28.1025ZM20.5883 28.41C20.5958 28.41 20.6033 28.425 20.6033 28.4475C20.6033 28.4775 20.6183 28.5 20.6408 28.5075V28.53L20.5808 28.545C20.5433 28.545 20.5133 28.53 20.4908 28.5075L20.4758 28.4925L20.4983 28.4775L20.5358 28.44C20.5583 28.4175 20.5733 28.41 20.5883 28.41ZM25.5383 27.8175C25.4952 27.8206 25.4524 27.8281 25.4108 27.84C25.3358 27.84 25.2983 27.915 25.3733 27.96C25.4183 28.0725 25.4858 27.93 25.5608 27.945C25.6658 27.96 25.6733 28.08 25.6958 28.17C25.6958 28.2525 25.7258 28.335 25.7483 28.4175C25.8233 28.5 25.6958 28.5525 25.6433 28.4925C25.5983 28.44 25.4933 28.38 25.4408 28.4475C25.3733 28.4775 25.3658 28.5675 25.3133 28.5975C25.2233 28.62 25.2158 28.5075 25.1633 28.4625C25.1183 28.395 25.0358 28.3875 24.9683 28.3725C24.9383 28.305 24.9533 28.1925 24.8933 28.1475C24.8333 28.17 24.7283 28.275 24.8183 28.3275C24.8933 28.4025 24.7808 28.4325 24.7433 28.4775C24.6833 28.545 24.6683 28.6275 24.6683 28.7025C24.5708 28.755 24.5558 28.6425 24.5408 28.575C24.5408 28.4925 24.4658 28.515 24.4133 28.545C24.3383 28.575 24.3083 28.6425 24.2633 28.695V28.845C24.2783 28.9125 24.3533 28.8825 24.3983 28.875C24.4733 28.845 24.5033 28.9275 24.4433 28.9725C24.3983 29.0175 24.2783 28.995 24.2933 29.0775H24.4133C24.4883 29.055 24.5783 28.995 24.5858 28.905C24.6008 28.83 24.7133 28.8375 24.7733 28.8225C24.8483 28.8 24.9458 28.7925 24.9683 28.8975C25.0208 28.95 25.1333 29.01 25.1933 28.935C25.2219 28.9169 25.2448 28.8911 25.2594 28.8606C25.274 28.8301 25.2797 28.7961 25.2758 28.7625C25.2683 28.7025 25.3733 28.7025 25.4033 28.74C25.4408 28.8 25.5608 28.785 25.6208 28.74C25.6808 28.7025 25.6958 28.62 25.7858 28.62L26.1908 28.5075C26.2958 28.485 26.1758 28.4175 26.1458 28.3725C26.0708 28.335 25.9958 28.5 25.9058 28.4175C25.8308 28.365 25.8383 28.2675 25.8158 28.185C25.7933 28.08 25.8008 27.96 25.7258 27.885C25.6808 27.8325 25.6058 27.8175 25.5383 27.8175ZM25.0283 28.53C25.0358 28.53 25.0508 28.53 25.0658 28.545C25.0958 28.56 25.1183 28.59 25.1183 28.62C25.1183 28.635 25.1183 28.635 25.0958 28.6425L25.0583 28.6575C25.0433 28.6575 25.0058 28.635 25.0058 28.62V28.59C24.9908 28.56 24.9908 28.56 25.0058 28.545L25.0283 28.53ZM25.5158 28.56C25.5458 28.56 25.5608 28.56 25.5758 28.5825C25.5833 28.6125 25.5758 28.6275 25.5458 28.6425L25.5083 28.6575L25.4783 28.635C25.4633 28.6275 25.4558 28.62 25.4558 28.605C25.4558 28.5825 25.4858 28.56 25.5158 28.5525V28.56ZM24.8408 28.56C24.8558 28.56 24.8633 28.56 24.8708 28.575C24.8858 28.59 24.8933 28.5975 24.8933 28.62V28.665C24.8933 28.6875 24.8933 28.68 24.8483 28.68C24.8033 28.68 24.7958 28.68 24.7958 28.635C24.7958 28.605 24.7958 28.5975 24.8183 28.5825C24.8258 28.5675 24.8408 28.5675 24.8483 28.5675L24.8408 28.56ZM24.4358 28.6725C24.4429 28.6746 24.4493 28.6785 24.4546 28.6837C24.4598 28.689 24.4637 28.6954 24.4658 28.7025C24.4658 28.725 24.4658 28.74 24.4508 28.7475C24.4283 28.755 24.3908 28.7625 24.3758 28.7475C24.3756 28.745 24.3756 28.7425 24.3758 28.74C24.3608 28.7325 24.3608 28.725 24.3758 28.7175V28.71L24.3908 28.6875C24.3954 28.6802 24.4024 28.6747 24.4106 28.672C24.4188 28.6692 24.4277 28.6694 24.4358 28.6725ZM25.1258 28.7625L25.1633 28.77V28.815H25.0733L25.0658 28.8C25.0658 28.785 25.0658 28.7775 25.0808 28.77L25.1258 28.7625ZM23.8433 29.1225C23.8358 29.1225 23.8208 29.115 23.8358 29.1075C23.8433 29.085 23.8733 29.0775 23.8958 29.0625C23.9367 29.0469 23.9728 29.0211 24.0008 28.9875C24.0008 28.9575 24.0308 28.9425 24.0308 28.9125L24.0233 28.8075C24.0132 28.776 23.9918 28.7493 23.9633 28.7325C23.9408 28.725 23.9108 28.7175 23.9033 28.6875C23.9033 28.665 23.9258 28.6425 23.9333 28.62L23.9783 28.53C24.0008 28.5075 24.0308 28.53 24.0383 28.545L24.0758 28.62C24.0983 28.6425 24.1133 28.665 24.1208 28.695C24.1358 28.725 24.1508 28.7475 24.1508 28.77L24.1658 28.8675C24.1658 28.905 24.1658 28.95 24.1508 28.9875L24.1058 29.0475C24.0833 29.07 24.0608 29.0925 24.0308 29.1C24.0083 29.1075 23.9933 29.13 23.9633 29.13H23.8508L23.8433 29.1225ZM23.3258 29.1525C23.3108 29.1375 23.3033 29.13 23.3033 29.1075C23.3033 29.085 23.3033 29.085 23.3258 29.0625C23.3558 29.0325 23.3708 29.0325 23.4308 29.0625C23.4833 29.0925 23.5058 29.0925 23.5058 29.07C23.5133 29.055 23.5433 29.0325 23.5808 29.0325C23.5947 29.033 23.6079 29.0383 23.6183 29.0475C23.6333 29.0625 23.6408 29.07 23.6408 29.1C23.6408 29.1375 23.6408 29.1375 23.6183 29.16C23.5958 29.175 23.5958 29.175 23.5658 29.175C23.5525 29.1743 23.5397 29.1696 23.529 29.1616C23.5183 29.1536 23.5102 29.1426 23.5058 29.13C23.5058 29.115 23.5058 29.1075 23.4908 29.1225L23.4758 29.13C23.4608 29.13 23.4308 29.1525 23.4158 29.1675L23.3783 29.175C23.3483 29.175 23.3483 29.175 23.3258 29.1525ZM21.8408 28.485C21.7883 28.485 21.7358 28.53 21.7283 28.5825C21.7433 28.635 21.7883 28.695 21.7583 28.7475C21.7808 28.8225 21.6983 28.8525 21.6458 28.815C21.6158 28.74 21.6008 28.665 21.5483 28.59C21.4883 28.575 21.4658 28.6725 21.4208 28.71C21.4433 28.7625 21.5033 28.815 21.5108 28.8825C21.5258 28.9575 21.4808 29.0325 21.4283 29.0625C21.3758 29.115 21.3008 29.1 21.2408 29.1075C21.1658 29.1525 21.2933 29.1675 21.3308 29.1675C21.4058 29.175 21.4883 29.1675 21.5558 29.1075C21.6083 29.085 21.6008 28.98 21.6683 28.9725L22.0283 28.995C22.0883 29.01 22.1858 28.9875 22.2308 29.0325C22.2308 29.1075 22.3058 29.1675 22.3733 29.1975C22.4108 29.2125 22.4483 29.16 22.4858 29.1525C22.5608 29.13 22.5383 29.04 22.5833 29.0025H22.9583C22.9733 29.0025 22.9808 28.965 23.0033 28.95L22.9883 28.8075C22.9658 28.7475 22.9883 28.6725 22.9508 28.62C22.8833 28.605 22.8308 28.6575 22.7708 28.665C22.6958 28.695 22.6433 28.7625 22.6358 28.8375C22.5983 28.905 22.5308 28.8225 22.5608 28.7625L22.5533 28.6875C22.5158 28.65 22.4483 28.665 22.3958 28.6575L22.1708 28.6425C22.0958 28.6425 22.0283 28.65 21.9683 28.635C21.8933 28.635 21.8933 28.56 21.8933 28.5C21.8783 28.4886 21.8596 28.4832 21.8408 28.485ZM21.9908 28.7625L22.0658 28.77H22.1633C22.2383 28.785 22.3133 28.785 22.3883 28.785C22.4033 28.785 22.4183 28.8 22.4333 28.815V28.965C22.4333 28.9875 22.4333 29.0175 22.4183 29.025C22.4144 29.031 22.4093 29.0361 22.4033 29.04C22.3923 29.0381 22.3819 29.0337 22.3728 29.0272C22.3637 29.0207 22.3562 29.0123 22.3508 29.0025V28.8975C22.336 28.8849 22.3177 28.8771 22.2983 28.875L22.1033 28.8675L21.9533 28.86C21.9308 28.8525 21.9008 28.86 21.8858 28.83C21.8708 28.815 21.8933 28.785 21.9158 28.7775C21.9394 28.767 21.965 28.7618 21.9908 28.7625ZM22.8383 28.785C22.8458 28.785 22.8533 28.785 22.8533 28.8075L22.8683 28.845C22.8683 28.8525 22.8683 28.86 22.8533 28.86C22.8158 28.875 22.7783 28.875 22.7633 28.86C22.7633 28.8525 22.7633 28.8225 22.7783 28.815L22.8383 28.785Z" fill="#C09300"/>
<path d="M22.4997 24.5404C24.9447 22.6654 24.7347 19.9054 24.7347 19.9054L24.5472 19.9204C24.0297 19.9204 22.8072 19.6204 22.5222 19.2529C22.2222 19.5904 20.9622 19.9279 20.4522 19.9279L20.2647 19.9054C20.2647 19.9054 20.0472 22.6579 22.4997 24.5404Z" fill="white"/>
<path fill-rule="evenodd" clip-rule="evenodd" d="M22.5246 19.1885L22.555 19.2277C22.6204 19.312 22.7432 19.3962 22.9045 19.4753C23.0646 19.5538 23.258 19.625 23.4595 19.685C23.8625 19.8051 24.2923 19.8789 24.5458 19.8792L24.7729 19.8611L24.7761 19.9024L24.7349 19.9055C24.7761 19.9024 24.7761 19.9023 24.7761 19.9024L24.7761 19.903L24.7762 19.9047L24.7766 19.911C24.777 19.9164 24.7774 19.9245 24.7779 19.9351C24.7789 19.9562 24.7799 19.9872 24.7804 20.0272C24.7814 20.1073 24.78 20.2235 24.7707 20.3687C24.752 20.659 24.7015 21.0654 24.5741 21.5308C24.3192 22.4617 23.7563 23.629 22.525 24.5732L22.4999 24.5925L22.4748 24.5732C21.2399 23.6253 20.6769 22.4579 20.423 21.5279C20.296 21.063 20.2462 20.6573 20.2281 20.3676C20.2191 20.2227 20.218 20.1067 20.2191 20.0268C20.2197 19.9869 20.2209 19.9559 20.2219 19.9349C20.2224 19.9244 20.2229 19.9163 20.2232 19.9108L20.2236 19.9046L20.2238 19.9029L20.2238 19.9024L20.2238 19.9023C20.2238 19.9023 20.2238 19.9022 20.2649 19.9055L20.2238 19.9023L20.2272 19.8594L20.4549 19.8867C20.7043 19.8862 21.1408 19.8033 21.5542 19.6776C21.761 19.6147 21.9606 19.5415 22.1266 19.4635C22.2938 19.3849 22.4224 19.3034 22.4916 19.2256L22.5246 19.1885ZM20.3037 19.9517C20.3029 19.971 20.3021 19.9966 20.3016 20.0281C20.3005 20.106 20.3015 20.2198 20.3104 20.3624C20.3282 20.6476 20.3773 21.0477 20.5025 21.5062C20.7512 22.4167 21.2999 23.5574 22.4999 24.4884C23.6963 23.5611 24.2449 22.4205 24.4945 21.509C24.6202 21.05 24.67 20.6492 24.6884 20.3634C24.6976 20.2205 24.6989 20.1064 24.6979 20.0283C24.6975 19.9958 24.6968 19.9696 24.696 19.95L24.5491 19.9617H24.5474C24.2832 19.9617 23.844 19.8856 23.436 19.7641C23.2316 19.7032 23.0336 19.6305 22.8681 19.5494C22.7238 19.4786 22.6006 19.3997 22.5205 19.3141C22.4369 19.3928 22.31 19.4685 22.1617 19.5382C21.9911 19.6184 21.7876 19.6929 21.5782 19.7565C21.1605 19.8835 20.7134 19.9692 20.4524 19.9692H20.45L20.3037 19.9517Z" fill="#C09300"/>
<path d="M24.54 20.1003H24.48C24.015 20.1003 22.935 19.8678 22.515 19.5078C22.08 19.8378 20.9775 20.1078 20.52 20.1078C20.4998 20.107 20.4797 20.1045 20.46 20.1003C20.4641 20.5743 20.5296 21.0457 20.655 21.5028C20.9558 22.6041 21.6026 23.5796 22.5 24.2853C23.3979 23.5769 24.0446 22.5989 24.345 21.4953C24.4697 21.0406 24.5352 20.5718 24.54 20.1003Z" fill="white"/>
<path fill-rule="evenodd" clip-rule="evenodd" d="M22.5162 19.4648L22.5369 19.4826C22.7408 19.6573 23.1095 19.8039 23.4893 19.9069C23.8683 20.0095 24.2514 20.0669 24.4799 20.0669H24.5399V20.1007L24.5736 20.101C24.5689 20.5754 24.5029 21.0471 24.3774 21.5046C24.0752 22.6151 23.4244 23.5993 22.5208 24.3122L22.4999 24.3286L22.479 24.3122C21.576 23.602 20.9251 22.6204 20.6223 21.5121C20.4962 21.0522 20.4303 20.5778 20.4261 20.101L20.4258 20.0589L20.4669 20.0677C20.4846 20.0714 20.5025 20.0737 20.5206 20.0744C20.7449 20.0743 21.1311 20.0078 21.5167 19.8994C21.9032 19.7909 22.2824 19.6422 22.4945 19.4813L22.5162 19.4648ZM24.5057 20.1344H24.4799C24.2434 20.1344 23.854 20.0756 23.4717 19.972C23.1022 19.8719 22.7328 19.7283 22.5137 19.5511C22.2878 19.7137 21.9106 19.8589 21.535 19.9644C21.1466 20.0735 20.7532 20.1419 20.5199 20.1419H20.5186L20.5186 20.1419C20.5104 20.1416 20.5023 20.141 20.4941 20.1402C20.5014 20.5978 20.5664 21.0528 20.6874 21.4943L20.6875 21.4943C20.984 22.58 21.619 23.5427 22.4999 24.2426C23.3813 23.54 24.0162 22.5749 24.3123 21.4868L24.3123 21.4868C24.4333 21.0458 24.4982 20.5915 24.5057 20.1344Z" fill="#C09300"/>
<path d="M21.705 19.8757C21.3021 20.0069 20.8833 20.0825 20.46 20.1007L20.4675 20.4082C20.4931 20.7761 20.5559 21.1404 20.655 21.4957C20.8566 22.2333 21.2147 22.9188 21.705 23.5057V19.8757ZM23.25 19.8757V23.5657C23.7638 22.9653 24.1379 22.2583 24.345 21.4957C24.4439 21.1404 24.5067 20.7761 24.5325 20.4082L24.54 20.1082H24.48C24.195 20.1082 23.7 20.0182 23.25 19.8682V19.8757Z" fill="#C09300"/>
<path d="M23.4228 18.9752C23.4753 18.9827 23.3553 18.7127 23.3553 18.7127C23.4903 18.8477 23.9853 18.8852 23.9853 18.8852C23.6853 18.7502 23.3853 17.7527 23.4228 16.9502C23.4528 16.1552 23.3103 15.8402 23.1978 15.7202C23.0478 15.5702 22.5603 15.4352 22.2453 15.4202C22.0578 15.4127 22.0953 15.5552 22.0953 15.5552C21.7578 15.4727 21.4203 15.4352 21.2703 15.5402C21.1353 15.6302 21.1053 16.1027 21.2103 16.0202C21.4578 15.8177 21.6753 16.0052 21.8253 16.2227C21.9603 16.4102 21.9528 16.9502 21.7578 17.5877C21.5851 18.0696 21.3315 18.5186 21.0078 18.9152C21.3078 18.9152 21.7278 18.6527 21.7278 18.6527L21.6303 19.0652C21.9453 18.9152 22.1928 18.6827 22.1928 18.6827L22.4928 18.9977C22.5903 18.8627 22.7928 18.6827 22.7928 18.6827C22.7928 18.6827 23.0403 18.9452 23.4228 18.9827V18.9752Z" fill="white"/>
<path fill-rule="evenodd" clip-rule="evenodd" d="M22.1215 15.3986C22.1536 15.3813 22.195 15.3732 22.2472 15.3753L22.2475 15.3753C22.4095 15.383 22.6138 15.4214 22.7965 15.4766C22.8881 15.5042 22.9751 15.5364 23.0494 15.5716C23.1229 15.6064 23.1869 15.6456 23.2297 15.6885L23.2302 15.689L23.2307 15.6895C23.3561 15.8233 23.498 16.1542 23.4679 16.952L23.4678 16.9524C23.4494 17.348 23.5141 17.7929 23.6208 18.1554C23.674 18.3366 23.7374 18.4957 23.805 18.6169C23.8737 18.7403 23.9428 18.8168 24.0039 18.8442L23.982 18.9302L23.9854 18.8853C23.982 18.9302 23.982 18.9302 23.982 18.9302L23.9819 18.9301L23.9815 18.9301L23.9804 18.93L23.976 18.9297C23.9722 18.9294 23.9667 18.9289 23.9597 18.9282C23.9456 18.9269 23.9254 18.9249 23.9008 18.922C23.8516 18.9163 23.7844 18.9073 23.7128 18.8939C23.6413 18.8806 23.5644 18.8627 23.4961 18.8392C23.4796 18.8336 23.4632 18.8274 23.4473 18.8208C23.4486 18.8245 23.45 18.8282 23.4513 18.8319C23.4631 18.8655 23.4744 18.9018 23.4789 18.9303C23.481 18.9434 23.4829 18.9613 23.4786 18.9775C23.477 18.9837 23.4739 18.9919 23.4679 18.9996V19.0324L23.4185 19.0276C23.2181 19.0079 23.0538 18.9295 22.9402 18.8566C22.8832 18.8201 22.8386 18.7848 22.8081 18.7584C22.8023 18.7534 22.797 18.7487 22.7921 18.7443C22.7915 18.7449 22.7909 18.7455 22.7903 18.746C22.77 18.7648 22.742 18.7912 22.711 18.8217C22.6485 18.8833 22.5758 18.9599 22.5294 19.0241L22.4977 19.068L22.1904 18.7454C22.1867 18.7486 22.1828 18.752 22.1786 18.7556C22.1499 18.7802 22.1084 18.8146 22.057 18.8536C21.9543 18.9316 21.811 19.0291 21.6497 19.1059L21.565 19.1463L21.6601 18.7438C21.6173 18.7672 21.5619 18.7961 21.4992 18.8249C21.3559 18.8909 21.1683 18.9603 21.0079 18.9603H20.9131L20.973 18.8868C21.2933 18.4945 21.5442 18.0503 21.7152 17.5736C21.8116 17.2582 21.8612 16.9681 21.8704 16.7348C21.875 16.6179 21.8694 16.5163 21.8549 16.4333C21.8402 16.3496 21.8171 16.2882 21.7889 16.2491L21.7883 16.2483C21.7147 16.1415 21.6284 16.0484 21.5354 16.0048C21.4897 15.9834 21.4433 15.9743 21.3956 15.9805C21.3479 15.9868 21.2955 16.0088 21.2389 16.0551L21.2382 16.0557C21.2179 16.0716 21.1863 16.0843 21.1547 16.066C21.1299 16.0515 21.1188 16.0246 21.1133 16.0052C21.1011 15.963 21.0998 15.9021 21.1056 15.8407C21.1115 15.7782 21.1253 15.7094 21.147 15.6495C21.1679 15.5919 21.199 15.534 21.245 15.5031C21.333 15.4418 21.4679 15.4259 21.6146 15.4325C21.7475 15.4385 21.8983 15.4635 22.0498 15.4982C22.0515 15.4886 22.0542 15.4784 22.0584 15.4681C22.069 15.4419 22.0887 15.4163 22.1215 15.3986ZM21.7041 18.6146L21.7969 18.5566L21.6965 18.9811C21.8157 18.9166 21.9216 18.8434 22.0026 18.7819C22.0524 18.7441 22.0924 18.711 22.12 18.6873C22.1338 18.6755 22.1444 18.6661 22.1515 18.6596C22.1551 18.6564 22.1578 18.654 22.1596 18.6523L22.1615 18.6505L22.1621 18.65M21.7041 18.6146L21.7038 18.6148L21.703 18.6153L21.6997 18.6173C21.6967 18.6192 21.6921 18.6219 21.6863 18.6254C21.6745 18.6324 21.6573 18.6424 21.6356 18.6545C21.5923 18.6787 21.5315 18.711 21.4616 18.7432C21.3525 18.7934 21.2251 18.8417 21.1085 18.8612C21.4042 18.4813 21.6377 18.0566 21.8003 17.603L21.8006 17.602L21.8009 17.6009C21.8993 17.2792 21.9508 16.981 21.9604 16.7383C21.9651 16.617 21.9595 16.5087 21.9435 16.4178C21.9278 16.3277 21.9014 16.2515 21.8622 16.1969C21.7859 16.0863 21.6885 15.9771 21.5735 15.9233C21.5151 15.8959 21.4514 15.8825 21.384 15.8913C21.322 15.8994 21.2597 15.9259 21.1979 15.9729C21.1919 15.9458 21.1902 15.9018 21.1952 15.8492C21.2005 15.7927 21.213 15.7316 21.2316 15.6802C21.251 15.6267 21.2741 15.5919 21.2954 15.5777L21.2962 15.5772C21.3582 15.5338 21.4669 15.5159 21.6106 15.5224C21.7518 15.5288 21.9174 15.5581 22.0847 15.599L22.1582 15.617L22.139 15.5442C22.139 15.5441 22.139 15.5441 22.139 15.544C22.1389 15.5436 22.1387 15.5428 22.1385 15.5416C22.1381 15.5393 22.1376 15.5356 22.1374 15.5311C22.137 15.5219 22.138 15.5113 22.1418 15.5019C22.1452 15.4934 22.1513 15.4848 22.1642 15.4778C22.1778 15.4705 22.202 15.4636 22.2434 15.4652C22.3965 15.4726 22.5933 15.5092 22.7705 15.5627C22.859 15.5895 22.9416 15.6201 23.0108 15.6529C23.0803 15.6859 23.1334 15.7196 23.1656 15.7516C23.2651 15.8583 23.4077 16.1576 23.3779 16.9484C23.3589 17.3553 23.4254 17.8102 23.5344 18.1808C23.5889 18.3662 23.6545 18.5319 23.7264 18.6608C23.7609 18.7228 23.798 18.7781 23.8372 18.8231" fill="#C09300"/>
<path fill-rule="evenodd" clip-rule="evenodd" d="M22.4287 17.0303L22.4774 17.0332C22.5261 17.0361 22.5261 17.0361 22.5261 17.0361L22.5258 17.0398L22.5252 17.0505C22.5246 17.0598 22.5236 17.0736 22.5224 17.0912C22.5199 17.1264 22.5162 17.1771 22.511 17.2391C22.5006 17.3632 22.4846 17.5329 22.462 17.7151C22.4394 17.8972 22.4102 18.0926 22.3732 18.2677C22.3365 18.4417 22.2914 18.6002 22.2355 18.706L22.1493 18.6604C22.1984 18.5674 22.2414 18.4203 22.2778 18.2476C22.314 18.0761 22.3429 17.8838 22.3653 17.7031C22.3877 17.5225 22.4035 17.3542 22.4138 17.231C22.419 17.1695 22.4227 17.1192 22.4251 17.0844C22.4264 17.0669 22.4273 17.0534 22.4279 17.0442L22.4285 17.0338L22.4287 17.0303ZM22.1591 17.0642L22.2074 17.0707C22.2557 17.0772 22.2557 17.0772 22.2557 17.0772L22.2556 17.0781L22.2552 17.0809L22.2537 17.0914C22.2524 17.1006 22.2505 17.1141 22.2479 17.1314C22.2427 17.166 22.235 17.2157 22.2248 17.2764C22.2043 17.3977 22.1736 17.5632 22.133 17.7397C22.0925 17.9161 22.0418 18.1043 21.9811 18.2707C21.9209 18.4358 21.8489 18.5849 21.7634 18.6786L21.6914 18.6128C21.7634 18.5339 21.8302 18.3999 21.8895 18.2373C21.9483 18.0761 21.9979 17.8922 22.038 17.7179C22.0781 17.5438 22.1084 17.3802 22.1286 17.2601C22.1388 17.2001 22.1464 17.151 22.1515 17.117C22.154 17.1 22.1559 17.0867 22.1572 17.0778L22.1586 17.0676L22.159 17.065L22.1591 17.0642ZM22.6612 17.0857C22.6612 17.0857 22.6612 17.0857 22.7099 17.0857C22.7587 17.0857 22.7587 17.0857 22.7587 17.0857L22.7587 17.101C22.7587 17.111 22.7587 17.1257 22.7588 17.1446C22.7589 17.1823 22.7592 17.2365 22.7598 17.3022C22.761 17.4336 22.7633 17.6112 22.768 17.796C22.7727 17.9809 22.7797 18.1726 22.7902 18.3323C22.7954 18.4122 22.8015 18.4836 22.8085 18.542C22.8157 18.6013 22.8235 18.644 22.8313 18.6682L22.7385 18.6981C22.7276 18.6643 22.719 18.6134 22.7117 18.5536C22.7044 18.4928 22.6982 18.4195 22.6929 18.3387C22.6823 18.1771 22.6752 17.9839 22.6705 17.7985C22.6658 17.613 22.6635 17.4348 22.6623 17.303C22.6617 17.2371 22.6614 17.1828 22.6613 17.145C22.6612 17.1261 22.6612 17.1112 22.6612 17.1012L22.6612 17.0857ZM22.9612 17.1557C22.9612 17.1557 22.9612 17.1557 23.0099 17.1532L23.0586 17.1506L23.0586 17.1514L23.0588 17.1538L23.0593 17.1633C23.0598 17.1716 23.0606 17.184 23.0617 17.2C23.0639 17.2319 23.0673 17.278 23.0723 17.3346C23.0823 17.448 23.0986 17.6033 23.1237 17.7713C23.1489 17.9394 23.1828 18.1194 23.2278 18.2824C23.273 18.4464 23.3285 18.5891 23.395 18.6855L23.3148 18.7409C23.2389 18.631 23.1799 18.4756 23.1338 18.3084C23.0874 18.1402 23.0528 17.956 23.0273 17.7857C23.0018 17.6153 22.9853 17.4579 22.9752 17.3432C22.9701 17.2858 22.9666 17.2391 22.9644 17.2066C22.9633 17.1904 22.9625 17.1777 22.962 17.1691L22.9614 17.1592L22.9613 17.1566L22.9612 17.1557Z" fill="#C09300"/>
<path d="M21.9 16.4703C21.8933 16.3834 21.8677 16.2989 21.825 16.2228C21.675 15.9978 21.4575 15.8178 21.21 16.0203C21.21 16.0203 21.2925 15.7578 21.48 15.7503C21.615 15.7428 21.9375 15.8553 22.2225 16.3353C22.2225 16.3353 22.0125 16.2903 21.96 16.3353C21.87 16.4103 21.9075 16.4703 21.9075 16.4703H21.9Z" fill="#C09300"/>
<path fill-rule="evenodd" clip-rule="evenodd" d="M22.2003 16.3191C21.9199 15.8595 21.6085 15.754 21.4811 15.7611L21.481 15.7611C21.3927 15.7646 21.328 15.8283 21.2846 15.8939C21.263 15.9265 21.2471 15.9589 21.2367 15.9832C21.2361 15.9846 21.2355 15.9859 21.2349 15.9873C21.2871 15.9508 21.3384 15.9303 21.3883 15.9233C21.4483 15.9149 21.5056 15.9259 21.5593 15.9506C21.6662 15.9997 21.7595 16.1031 21.8349 16.2161L21.8353 16.2169C21.8658 16.2711 21.8876 16.3295 21.9004 16.39C21.9099 16.3704 21.9263 16.3488 21.9532 16.3263C21.9693 16.3125 21.9955 16.3068 22.0228 16.3047C22.0508 16.3025 22.0827 16.304 22.1125 16.3068C22.1424 16.3096 22.1706 16.3139 22.1913 16.3175C22.1945 16.318 22.1975 16.3185 22.2003 16.3191ZM21.9176 16.4639L21.9175 16.4637C21.9173 16.4635 21.917 16.463 21.9167 16.4623C21.9161 16.461 21.9152 16.4588 21.9143 16.456C21.9125 16.4503 21.9109 16.4419 21.9117 16.4314C21.9133 16.4106 21.9245 16.3795 21.9677 16.3435L21.9678 16.3434C21.978 16.3347 21.9977 16.3292 22.0245 16.3271C22.0507 16.3251 22.0811 16.3264 22.1104 16.3292C22.1395 16.332 22.1671 16.3362 22.1875 16.3396C22.1976 16.3414 22.2059 16.3429 22.2117 16.3441C22.2146 16.3446 22.2168 16.3451 22.2184 16.3454L22.2201 16.3458L22.2205 16.3458L22.2206 16.3459L22.2458 16.3513L22.2327 16.3291C21.9465 15.8471 21.6207 15.7309 21.48 15.7386C21.3807 15.7426 21.3105 15.814 21.2658 15.8815C21.2433 15.9155 21.2268 15.9491 21.216 15.9743C21.2106 15.9869 21.2065 15.9974 21.2038 16.0047C21.2025 16.0084 21.2015 16.0113 21.2008 16.0133L21.2 16.0156L21.1998 16.0163L21.1998 16.0164C21.1998 16.0164 21.1998 16.0165 21.2105 16.0199L21.1998 16.0164L21.1885 16.0524L21.2176 16.0286C21.2782 15.979 21.3364 15.9533 21.3915 15.9456C21.4466 15.9378 21.4995 15.9479 21.5499 15.971C21.651 16.0175 21.7413 16.1165 21.8159 16.2283C21.8577 16.3028 21.8827 16.3855 21.8893 16.4707L21.8901 16.4811H21.9283L21.9176 16.4639C21.9176 16.4639 21.9176 16.4639 21.9176 16.4639Z" fill="#C09300"/>
<path d="M21.1807 15.6977C21.2032 15.6227 21.2332 15.5627 21.2782 15.5402C21.4282 15.4352 21.7582 15.4652 22.0957 15.5552C22.0957 15.5552 22.0657 15.4127 22.2457 15.4202C22.5607 15.4352 23.0407 15.5702 23.1907 15.7202C23.2387 15.7729 23.2768 15.8339 23.3032 15.9002C23.2282 15.7952 23.0182 15.8027 22.9657 15.8102C22.8907 15.8177 22.8382 15.8102 22.7332 15.8402C22.6807 15.8552 22.6057 15.8702 22.5607 15.9002C22.5307 15.9302 22.5007 16.0202 22.4557 16.0202C22.3807 16.0202 22.3807 16.0052 22.3582 15.9827C22.3357 15.9452 22.3207 15.9002 22.2907 15.9077C22.2157 15.9152 22.0807 15.8552 21.9157 15.7202C21.7432 15.5852 21.6757 15.5552 21.4657 15.5702C21.2407 15.5852 21.1807 15.7127 21.1807 15.7127V15.6977Z" fill="#C09300"/>
<path fill-rule="evenodd" clip-rule="evenodd" d="M22.1062 15.5534L22.1062 15.5532L22.106 15.5522C22.1058 15.5514 22.1056 15.55 22.1054 15.5483C22.105 15.5447 22.1046 15.5397 22.1046 15.5336C22.1046 15.5213 22.1063 15.5054 22.113 15.4899C22.1196 15.4746 22.1312 15.4595 22.1512 15.4485C22.1714 15.4375 22.2011 15.4301 22.2447 15.432C22.4011 15.4394 22.5989 15.4767 22.7763 15.5309C22.865 15.5579 22.9483 15.5891 23.0187 15.6228C23.0891 15.6565 23.1459 15.6924 23.1821 15.7285C23.216 15.7658 23.2449 15.8074 23.2681 15.852C23.2277 15.8243 23.1759 15.8097 23.1272 15.8024C23.0578 15.7919 22.9912 15.7957 22.9638 15.7995C22.9639 15.7995 22.964 15.7995 22.9641 15.7995L22.9652 15.8107L22.9636 15.7996C22.9637 15.7996 22.9638 15.7996 22.9638 15.7995M22.3667 15.9763C22.3623 15.969 22.3583 15.9614 22.3542 15.9538C22.3534 15.9523 22.3526 15.9508 22.3518 15.9493C22.3468 15.9399 22.3416 15.9305 22.336 15.9225C22.3305 15.9145 22.3241 15.9069 22.3162 15.902C22.3081 15.8969 22.2987 15.8947 22.2883 15.8971C22.254 15.9003 22.204 15.8882 22.1414 15.8578C22.0786 15.8273 22.0043 15.7791 21.9223 15.712L21.9223 15.712L21.9221 15.7119C21.8359 15.6444 21.7746 15.602 21.708 15.5788C21.6411 15.5556 21.5699 15.552 21.4644 15.5595C21.3498 15.5671 21.2763 15.6035 21.2314 15.6387C21.2204 15.6473 21.2112 15.6558 21.2035 15.6637C21.2115 15.642 21.2203 15.6223 21.2302 15.6055C21.2455 15.5793 21.2629 15.5607 21.2827 15.5508L21.2835 15.5504L21.2841 15.5499C21.356 15.4996 21.4728 15.4807 21.6157 15.4863C21.758 15.4919 21.924 15.5217 22.0923 15.5666L22.11 15.5713L22.1062 15.5534L22.1062 15.5534L22.1062 15.5534M21.1914 15.6999C21.1952 15.6873 21.1992 15.6752 21.2035 15.6637C21.1954 15.672 21.189 15.6797 21.1841 15.6863C21.181 15.6904 21.1785 15.694 21.1765 15.6971L21.1694 15.695C21.1808 15.6571 21.1942 15.6224 21.2108 15.5941C21.2272 15.5662 21.2471 15.5437 21.2719 15.531C21.2717 15.5312 21.2715 15.5313 21.2712 15.5315L21.2777 15.5407L21.2727 15.5307C21.2724 15.5308 21.2722 15.5309 21.2719 15.531C21.3501 15.4767 21.473 15.4582 21.6166 15.4638C21.7566 15.4693 21.9184 15.4979 22.0822 15.5407C22.0824 15.5447 22.0828 15.5482 22.0831 15.551C22.0833 15.5531 22.0836 15.5548 22.0838 15.556L22.0841 15.5574L22.0841 15.5578L22.0842 15.558L22.0842 15.558L22.0842 15.558C22.0842 15.558 22.0842 15.558 22.0952 15.5557L22.0981 15.5448C22.0928 15.5434 22.0875 15.542 22.0822 15.5407C22.0821 15.5385 22.0821 15.5361 22.0821 15.5336C22.0821 15.5194 22.0841 15.5001 22.0924 15.4809C22.1008 15.4615 22.1155 15.4424 22.1404 15.4288C22.1652 15.4152 22.1993 15.4075 22.2457 15.4095L22.2457 15.4095V15.4095C22.4043 15.417 22.604 15.4547 22.7829 15.5093C22.8723 15.5366 22.9568 15.5682 23.0284 15.6025C23.0999 15.6367 23.1593 15.6739 23.1982 15.7128L23.1985 15.7131L23.1985 15.7131C23.2475 15.7669 23.2863 15.829 23.3132 15.8966L23.2935 15.9073C23.2588 15.8587 23.1916 15.8349 23.1238 15.8247C23.0566 15.8145 22.9921 15.8182 22.9668 15.8219L22.9663 15.8219L22.9663 15.8219C22.9441 15.8241 22.9241 15.8251 22.9045 15.826C22.8561 15.8283 22.8096 15.8305 22.7358 15.8515C22.7244 15.8548 22.7126 15.8579 22.7003 15.8611C22.6831 15.8656 22.6651 15.8703 22.6469 15.8759C22.6166 15.885 22.5884 15.8957 22.5674 15.9094C22.5612 15.9159 22.5545 15.9258 22.5471 15.938C22.5444 15.9424 22.5415 15.9471 22.5386 15.952C22.5335 15.9606 22.5282 15.9696 22.5228 15.978C22.5142 15.9914 22.5047 16.0045 22.494 16.0144C22.4833 16.0243 22.4704 16.032 22.4552 16.032C22.4174 16.032 22.3962 16.0283 22.3814 16.0203C22.3739 16.0162 22.3685 16.0113 22.3637 16.0063C22.3615 16.0039 22.3597 16.0019 22.3579 15.9999C22.3555 15.9972 22.3531 15.9945 22.3497 15.9912L22.3488 15.9902L22.348 15.989C22.3432 15.9808 22.3386 15.9723 22.3343 15.9643C22.3335 15.9628 22.3327 15.9614 22.332 15.9599C22.3269 15.9505 22.3223 15.9421 22.3175 15.9352C22.3127 15.9282 22.3083 15.9236 22.3043 15.921C22.3006 15.9188 22.2972 15.9181 22.2929 15.9191L22.2921 15.9193L22.2913 15.9194C22.2507 15.9235 22.1959 15.9093 22.1315 15.878C22.0668 15.8466 21.9911 15.7974 21.9082 15.7295C21.822 15.662 21.7633 15.6219 21.7006 15.6001C21.638 15.5783 21.5705 15.5745 21.466 15.5819L21.4659 15.5819C21.3556 15.5893 21.2865 15.6241 21.2453 15.6564C21.2246 15.6727 21.2107 15.6883 21.2021 15.6998C21.1978 15.7056 21.1948 15.7102 21.1929 15.7134C21.192 15.715 21.1913 15.7162 21.1909 15.717L21.1904 15.7179L21.1904 15.718C21.1904 15.718 21.1904 15.718 21.1903 15.718L21.1689 15.7132V15.6982H21.1758C21.1761 15.6979 21.1763 15.6975 21.1765 15.6971L21.1802 15.6982M21.4644 15.5595C21.4644 15.5595 21.4644 15.5595 21.4644 15.5595L21.4652 15.5707L21.4644 15.5595C21.4644 15.5595 21.4644 15.5595 21.4644 15.5595ZM22.2883 15.8971C22.2881 15.8972 22.2878 15.8972 22.2875 15.8973L22.2902 15.9082L22.2891 15.897C22.2888 15.897 22.2886 15.8971 22.2883 15.8971ZM22.3667 15.9763C22.3669 15.9767 22.3671 15.977 22.3673 15.9774L22.3577 15.9832L22.3657 15.9753C22.366 15.9756 22.3663 15.9759 22.3667 15.9763Z" fill="#C09300"/>
<path d="M22.4103 15.8929C22.46 15.8929 22.5003 15.8526 22.5003 15.8029C22.5003 15.7532 22.46 15.7129 22.4103 15.7129C22.3606 15.7129 22.3203 15.7532 22.3203 15.8029C22.3203 15.8526 22.3606 15.8929 22.4103 15.8929Z" fill="white"/>
</g>
<defs>
<clipPath id="clip0_200_71803">
<rect width="60" height="45" fill="white" transform="translate(-7.5)"/>
</clipPath>
</defs>
</svg>
