<svg width="45" height="45" viewBox="0 0 45 45" fill="none" xmlns="http://www.w3.org/2000/svg">
<g clip-path="url(#clip0_200_83206)">
<path d="M0 0H45V45H0V0Z" fill="#012169"/>
<path d="M5.27344 0L22.4297 16.9688L39.5156 0H45V5.8125L28.125 22.5938L45 39.2812V45H39.375L22.5 28.2188L5.69531 45H0V39.375L16.8047 22.6875L0 6V0H5.27344Z" fill="white"/>
<path d="M29.8125 26.3438L45 41.25V45L25.9453 26.3438H29.8125ZM16.875 28.2188L17.2969 31.5L3.79688 45H0L16.875 28.2188ZM45 0V0.28125L27.4922 17.9062L27.6328 13.7812L41.4844 0H45ZM0 0L16.8047 16.5H12.5859L0 3.9375V0Z" fill="#C8102E"/>
<path d="M16.9453 0V45H28.1953V0H16.9453ZM0 15V30H45V15H0Z" fill="white"/>
<path d="M0 18.0938V27.0938H45V18.0938H0ZM19.1953 0V45H25.9453V0H19.1953Z" fill="#C8102E"/>
</g>
<defs>
<clipPath id="clip0_200_83206">
<rect width="45" height="45" fill="white"/>
</clipPath>
</defs>
</svg>
