<svg width="45" height="45" viewBox="0 0 45 45" fill="none" xmlns="http://www.w3.org/2000/svg">
<g clip-path="url(#clip0_200_71784)">
<path fill-rule="evenodd" clip-rule="evenodd" d="M-7.5 0H52.5V45H-7.5V0Z" fill="#BE0027"/>
<path fill-rule="evenodd" clip-rule="evenodd" d="M-7.5 45L52.5 44.9719V22.5L-7.5 45Z" fill="#B4D7F4"/>
<path fill-rule="evenodd" clip-rule="evenodd" d="M-7.5 0L52.5 0.028125V22.5L-7.5 0Z" fill="#239E46"/>
<path fill-rule="evenodd" clip-rule="evenodd" d="M9.95586 33.7875C8.95273 34.0687 8.38086 34.8469 8.39023 35.5781L13.3402 35.5594C13.3777 34.7719 12.7309 34.0406 11.7465 33.75C16.584 33.6562 20.784 31.8375 21.5527 30.675C20.8027 30.3469 19.9215 30.8719 19.3027 30.75C20.7746 30.0656 25.209 27.1969 24.4871 24.1219C23.9246 25.8281 22.2371 27.2438 21.5059 27.6281C23.1652 25.1156 25.4246 22.4906 23.4652 20.4656C23.559 21.6375 22.7152 22.9312 22.3402 23.0344C23.3059 20.3719 24.2152 17.0344 22.1434 14.8406C22.4152 15.6375 22.3027 17.8781 21.9277 17.9813C21.8152 16.1719 21.5059 12.375 19.6027 12.4219C20.2027 12.9656 20.4652 14.4281 20.484 15.9094C20.0972 14.8842 19.4072 14.0012 18.5059 13.3781C17.5652 11.751 16.2264 10.3897 14.6152 9.42188C14.784 10.6125 14.9246 11.55 16.584 12.7875C15.7215 12.7312 14.859 11.0906 13.9309 11.0438C13.1902 11.0063 12.6184 11.7094 11.409 11.3062C11.5402 11.7 12.1027 11.8781 12.2246 12.1688C11.9621 12.3563 11.3527 12.1406 10.8465 11.8875C11.5496 12.825 12.6277 13.3875 13.5465 13.2C14.6434 12.9938 15.8152 13.1063 16.9402 13.7438C16.2462 13.889 15.5317 13.908 14.8309 13.8C15.4777 14.4562 15.909 14.8969 17.0434 14.8875C18.0465 14.8875 18.5809 14.3438 18.834 14.6813C19.4715 15.4313 19.8934 16.1813 20.4277 17.0625C19.2559 17.1844 19.6121 15.7406 18.309 15C17.5684 16.5 19.1527 18.3 20.2121 19.05C20.1821 20.0747 20.411 21.0904 20.8777 22.0031C21.2059 22.6125 21.6277 23.2406 21.4684 24.6188C20.8215 24.15 20.2027 22.575 20.4371 21.3281C19.6309 21.5437 19.3121 22.9594 19.6871 23.6719C19.9684 24.2063 20.1559 25.2469 19.8371 25.7063C19.5184 26.1375 19.4902 26.0813 19.4902 27.0188C19.4996 27.5625 19.1902 28.2188 18.6934 28.6781C18.8388 28.1984 18.8741 27.6921 18.7965 27.1969C18.4027 27.8719 17.3996 28.5656 17.0902 29.2969C16.7809 30.0187 16.7059 31.2844 15.2152 31.575C13.284 31.95 12.6184 32.2875 11.3902 32.7937C11.2496 31.8562 11.6621 29.8875 12.4496 30.0094C13.209 30.1406 15.5434 29.2031 14.6996 27.2438C14.5402 27.8625 13.9965 28.4625 13.3965 28.4906C14.0434 27.6656 15.1777 26.8031 14.6246 25.4156C14.2897 26.1145 13.7588 26.7008 13.0965 27.1031C13.884 25.6031 13.1902 25.1344 12.2527 26.3906C11.8965 26.8687 11.6809 27.8344 11.4559 29.0625C11.0809 28.0688 11.109 26.7563 10.6684 25.6875C10.2184 24.5344 11.2777 24.2344 11.7746 24.3281C12.9934 24.6562 15.0465 24.6562 14.8965 22.6312C14.3621 23.3156 13.4434 23.5219 12.4402 23.2875C13.5652 22.4625 14.4465 20.9156 13.1902 20.1C13.1341 20.5784 12.9599 21.0353 12.6833 21.4297C12.4068 21.8241 12.0365 22.1436 11.6059 22.3594C11.4045 21.5986 11.3949 20.7998 11.5777 20.0344C11.0902 20.5594 10.734 21.6281 10.4434 22.8656C10.4152 21.6469 10.6496 20.775 10.8184 20.1188C11.0809 19.1719 11.7184 19.7906 12.6934 19.8563C13.6496 19.9125 14.9434 19.3875 14.6996 18.1031C14.3809 18.6188 13.7152 18.8156 13.0402 18.7594C13.8559 18.2625 15.2715 17.3906 14.4934 16.0406C14.1652 16.5469 14.0621 16.9781 13.1152 17.1375C13.359 16.575 13.3965 15.7594 14.1465 15.45C12.834 15.1781 12.084 16.0406 11.6902 17.3906C11.5402 16.4531 11.3527 16.1156 11.3152 15.4219C12.0277 14.6438 12.1027 13.0969 10.5652 12.7594C10.4645 13.3039 10.5032 13.8651 10.6777 14.3906C9.95586 13.9594 8.94336 13.725 8.25898 14.325C8.72773 14.8219 9.43086 15.2625 10.5277 14.7188C10.2652 15.5625 9.59023 15.4219 8.67148 15.0938C9.23398 16.1531 9.94648 16.3406 10.734 16.2188C11.1465 17.3063 11.1652 18.1312 9.95586 19.7062C10.0121 18.7312 9.94648 18 9.16836 17.2031C8.49336 16.5469 7.94961 17.2313 8.99961 18.6844C8.36211 18.2156 7.64961 17.2781 7.43398 16.3312C7.22773 17.4937 7.41523 18.8719 8.06211 19.65C7.75273 19.9781 7.40586 19.6125 6.89023 18.8063C7.07773 21.375 8.17461 21.8719 9.64648 21.3C9.68398 22.7062 9.68398 24.0094 9.76836 25.7063C8.91523 24.4688 7.82773 23.55 7.22773 23.325C7.04023 24.0094 7.74336 24.9188 8.14648 25.4156C7.53711 25.2844 6.22461 24.2906 6.22461 24.2906C6.09336 25.425 7.56523 26.4844 8.52148 26.9531C7.39648 26.9062 6.89961 26.4844 6.17773 25.7906C6.19648 28.9594 9.60898 28.4062 10.2559 27.9187L10.5371 32.8406C9.57148 32.6719 9.64648 32.3719 8.82148 32.3063C6.52461 32.2125 4.70586 29.55 4.10586 27.5906C3.92773 27.9094 4.06836 28.2469 3.90898 28.65C3.53398 27.6844 3.06523 26.4375 2.41836 25.8562C2.58711 26.4187 2.60586 26.9906 2.54961 28.0406C2.32461 27.3656 2.12773 27.15 2.10898 26.3531C2.11836 25.7438 2.69961 25.2938 2.67148 24.4313C2.64336 23.8031 2.07148 22.4344 1.98711 21.3844C1.70586 22.4719 1.53711 23.6156 1.10586 24.2906C1.32148 23.1281 1.25586 22.3219 1.61211 21.5438C2.02461 20.7281 2.37148 19.9875 2.09961 19.1625C1.83711 19.4812 1.92148 19.7719 1.25586 20.55C1.11523 19.7062 2.11836 18.3469 3.09336 17.8031C3.77773 17.4469 4.64023 16.1531 4.07773 15.2719C3.43086 15.7406 3.14023 16.3594 2.23086 17.4281C2.88711 14.8969 4.57461 14.2219 6.59023 14.2125C7.03086 14.2125 7.93086 14.0531 8.18398 13.4625C7.62148 13.6781 6.94648 13.7063 6.34648 13.5938C6.78711 12.9469 7.69648 13.0312 8.55898 13.0312C9.22461 13.0312 10.2746 12.9375 10.6965 11.9813C9.77009 12.3426 8.75383 12.4049 7.79023 12.1594C9.07461 11.5031 11.0715 11.4281 12.1027 10.5562C10.9309 9.68437 8.00586 10.7625 6.15898 12.0281C6.67461 11.5594 7.49023 10.7156 7.94023 10.0406C6.92773 9.55312 4.37773 12.3844 3.49648 14.0719C2.65273 14.5406 2.32461 15.2906 1.99648 15.8063C2.43711 14.2969 2.48398 13.2 2.85898 11.9625C-0.000390768 12.9375 1.18086 18.2437 0.562109 19.5187C0.637109 18.1125 0.571484 16.3219 -0.000390768 15.3937C-0.881641 16.0687 -0.956641 20.0344 -0.131641 23.3344C-0.431641 22.4531 -0.994141 21.6281 -1.17227 20.55C-2.48477 22.9312 -0.403516 25.7531 1.33086 27.975C0.0183589 27.2906 -1.26602 25.8281 -2.11914 24.6C-1.88477 28.875 2.56836 29.7563 3.26211 30.8063C2.32461 30.3656 0.533984 29.5031 -0.234766 30.4125C0.833211 30.6105 1.85814 30.9945 2.79336 31.5469C3.95586 32.9906 6.14023 33.6281 9.95586 33.7875Z" fill="#F3E295"/>
</g>
<defs>
<clipPath id="clip0_200_71784">
<rect width="60" height="45" fill="white" transform="translate(-7.5)"/>
</clipPath>
</defs>
</svg>
