<svg width="45" height="45" viewBox="0 0 45 45" fill="none" xmlns="http://www.w3.org/2000/svg">
<g clip-path="url(#clip0_200_80205)">
<path fill-rule="evenodd" clip-rule="evenodd" d="M-23.084 0.308594H68.3898V44.1948H-23.084V0.308594Z" fill="#FFC621"/>
<path fill-rule="evenodd" clip-rule="evenodd" d="M-23.2598 30.1826H68.3286V45.1198H-23.2598V30.1826Z" fill="#EF2118"/>
<path fill-rule="evenodd" clip-rule="evenodd" d="M-23.084 0H68.3898V15.8625H-23.084V0Z" fill="#298C08"/>
<path d="M21.0374 32.8229C26.2859 32.8229 30.5406 28.5681 30.5406 23.3196C30.5406 18.0711 26.2859 13.8164 21.0374 13.8164C15.7889 13.8164 11.5342 18.0711 11.5342 23.3196C11.5342 28.5681 15.7889 32.8229 21.0374 32.8229Z" fill="#006BC6"/>
<path fill-rule="evenodd" clip-rule="evenodd" d="M16.7758 16.5855L16.203 16.982L18.2739 19.8902L18.8291 19.5377L16.767 16.5855H16.7758ZM19.3666 23.4592L18.5118 22.86L18.8643 21.7408L14.6255 21.8025L13.3918 20.8595L19.1816 20.7979L20.2567 17.546L20.8383 18.8679L19.3666 23.4504V23.4592ZM26.1082 17.2288L25.553 16.8058L23.4116 19.661L23.9051 20.0752L26.1082 17.2288ZM20.3448 21.7672L20.6533 20.7802H21.8253L20.4858 16.7441L21.0146 15.29L22.8211 20.789L26.2404 20.8331L25.1653 21.776L20.3448 21.7584V21.7672ZM28.329 26.2792L28.5669 25.6271L25.1917 24.455L24.945 25.0719L28.329 26.2792ZM22.2395 22.1902L23.2706 22.1814L23.6319 23.2918L27.0511 20.7802L28.6021 20.8331L23.9227 24.2435L24.9361 27.5218L23.7024 26.7815L22.2395 22.1902ZM20.4946 31.179L21.1908 31.1966L21.2173 27.6275L20.5651 27.5835L20.4946 31.1878V31.179ZM22.4334 24.1025L22.7683 25.0807L21.8253 25.7857L25.2975 28.2268L25.7381 29.7073L21.0146 26.3585L18.2386 28.359L18.5471 26.949L22.4246 24.1025H22.4334ZM13.3301 25.2482L13.5328 25.9091L16.9432 24.834L16.767 24.1995L13.3301 25.2482ZM20.6621 24.8957L19.8337 25.5214L18.882 24.8428L17.6306 28.8965L16.3616 29.7778L18.08 24.2524L15.3129 22.2255L16.7493 22.0845L20.6621 24.8957Z" fill="#FFC621"/>
</g>
<defs>
<clipPath id="clip0_200_80205">
<rect width="60" height="45" fill="white" transform="translate(-7.5)"/>
</clipPath>
</defs>
</svg>
