<svg width="45" height="45" viewBox="0 0 45 45" fill="none" xmlns="http://www.w3.org/2000/svg">
<g clip-path="url(#clip0_200_71578)">
<path d="M-7.5 0H52.5V45H-7.5V0Z" fill="#003399"/>
<path d="M22.7895 8.1107L23.1698 9.25076L24.3715 9.2601C24.5272 9.26129 24.5916 9.4598 24.4665 9.55229L23.4997 10.2662L23.8621 11.412C23.909 11.5602 23.7402 11.6831 23.6135 11.5925L22.6359 10.8937L21.6582 11.5925C21.5317 11.683 21.3627 11.5603 21.4097 11.412L21.7721 10.2662L20.8053 9.55229C20.6802 9.4598 20.7446 9.26129 20.9003 9.2601L22.102 9.25076L22.4823 8.1107C22.5314 7.9631 22.7403 7.9631 22.7895 8.1107Z" fill="#FFE15A"/>
<path d="M22.7895 32.5882L23.1698 33.7283L24.3715 33.7376C24.5272 33.7388 24.5916 33.9373 24.4665 34.0298L23.4997 34.7438L23.8621 35.8895C23.909 36.0377 23.7402 36.1606 23.6135 36.0701L22.6359 35.3712L21.6582 36.0701C21.5317 36.1605 21.3627 36.0379 21.4097 35.8895L21.7721 34.7438L20.8053 34.0298C20.6802 33.9373 20.7446 33.7388 20.9003 33.7376L22.102 33.7283L22.4823 32.5882C22.5314 32.4406 22.7403 32.4406 22.7895 32.5882Z" fill="#FFE15A"/>
<path d="M35.0278 20.35L35.408 21.49L36.6098 21.4994C36.7654 21.5005 36.8299 21.6991 36.7047 21.7915L35.7379 22.5055L36.1004 23.6512C36.1473 23.7995 35.9785 23.9224 35.8518 23.8318L34.8742 23.1329L33.8965 23.8318C33.77 23.9222 33.601 23.7996 33.6479 23.6512L34.0104 22.5055L33.0436 21.7915C32.9184 21.6991 32.9829 21.5005 33.1385 21.4994L34.3403 21.49L34.7205 20.35C34.7696 20.2024 34.9786 20.2024 35.0278 20.35Z" fill="#FFE15A"/>
<path d="M10.5502 20.35L10.9305 21.49L12.1322 21.4994C12.2879 21.5005 12.3524 21.6991 12.2272 21.7915L11.2604 22.5055L11.6228 23.6512C11.6698 23.7995 11.5009 23.9224 11.3743 23.8318L10.3966 23.1329L9.41897 23.8318C9.29243 23.9222 9.12346 23.7996 9.1704 23.6512L9.53284 22.5055L8.56604 21.7915C8.4409 21.6991 8.50535 21.5005 8.661 21.4994L9.86273 21.49L10.243 20.35C10.2922 20.2024 10.5011 20.2024 10.5502 20.35Z" fill="#FFE15A"/>
<path d="M12.3881 13.9584L12.7684 15.0984L13.9701 15.1078C14.1258 15.1089 14.1902 15.3075 14.0651 15.3999L13.0983 16.1139L13.4607 17.2596C13.5077 17.4079 13.3388 17.5308 13.2122 17.4402L12.2345 16.7413L11.2569 17.4402C11.1303 17.5306 10.9613 17.408 11.0083 17.2596L11.3707 16.1139L10.4039 15.3999C10.2788 15.3075 10.3432 15.1089 10.4989 15.1078L11.7006 15.0984L12.0809 13.9584C12.1301 13.8108 12.3388 13.8108 12.3881 13.9584Z" fill="#FFE15A"/>
<path d="M33.5854 26.1966L33.9657 27.3367L35.1674 27.346C35.3231 27.3472 35.3875 27.5457 35.2624 27.6382L34.2956 28.3522L34.658 29.4979C34.7049 29.6461 34.5361 29.769 34.4094 29.6785L33.4318 28.9796L32.4541 29.6785C32.3276 29.7689 32.1586 29.6463 32.2056 29.4979L32.568 28.3522L31.6012 27.6382C31.4761 27.5457 31.5405 27.3472 31.6962 27.346L32.8979 27.3367L33.2782 26.1966C33.3274 26.049 33.5362 26.049 33.5854 26.1966Z" fill="#FFE15A"/>
<path d="M29.1069 9.47886L29.4871 10.6189L30.6889 10.6283C30.8445 10.6294 30.909 10.828 30.7838 10.9205L29.817 11.6344L30.1795 12.7801C30.2264 12.9284 30.0576 13.0513 29.9309 12.9607L28.9533 12.2618L27.9756 12.9607C27.8491 13.0511 27.6801 12.9285 27.727 12.7801L28.0895 11.6344L27.1227 10.9205C26.9975 10.828 27.062 10.6294 27.2176 10.6283L28.4194 10.6189L28.7996 9.47886C28.8487 9.33126 29.0575 9.33126 29.1069 9.47886Z" fill="#FFE15A"/>
<path d="M16.8666 30.6761L17.2469 31.8162L18.4486 31.8255C18.6043 31.8267 18.6688 32.0252 18.5436 32.1177L17.5768 32.8316L17.9392 33.9774C17.9862 34.1256 17.8173 34.2485 17.6907 34.158L16.713 33.4591L15.7354 34.158C15.6088 34.2484 15.4399 34.1257 15.4868 33.9774L15.8492 32.8316L14.8824 32.1177C14.7573 32.0252 14.8218 31.8267 14.9774 31.8255L16.1791 31.8162L16.5594 30.6761C16.6086 30.5285 16.8173 30.5285 16.8666 30.6761Z" fill="#FFE15A"/>
<path d="M33.2782 13.9584L32.8979 15.0984L31.6962 15.1078C31.5405 15.1089 31.4761 15.3075 31.6012 15.3999L32.568 16.1139L32.2056 17.2596C32.1586 17.4079 32.3275 17.5308 32.4541 17.4402L33.4318 16.7413L34.4094 17.4402C34.536 17.5306 34.7049 17.408 34.658 17.2596L34.2956 16.1139L35.2624 15.3999C35.3875 15.3075 35.3231 15.1089 35.1674 15.1078L33.9657 15.0984L33.5854 13.9584C33.5362 13.8108 33.3274 13.8108 33.2782 13.9584Z" fill="#FFE15A"/>
<path d="M12.0809 26.1966L11.7006 27.3367L10.4989 27.346C10.3432 27.3472 10.2788 27.5457 10.4039 27.6382L11.3707 28.3522L11.0083 29.4979C10.9613 29.6461 11.1302 29.769 11.2569 29.6785L12.2345 28.9796L13.2122 29.6785C13.3387 29.7689 13.5077 29.6463 13.4607 29.4979L13.0983 28.3522L14.0651 27.6382C14.1902 27.5457 14.1258 27.3472 13.9701 27.346L12.7684 27.3367L12.3881 26.1966C12.3388 26.049 12.1301 26.049 12.0809 26.1966Z" fill="#FFE15A"/>
<path d="M16.5594 9.47886L16.1791 10.6189L14.9774 10.6283C14.8218 10.6294 14.7573 10.828 14.8824 10.9205L15.8492 11.6344L15.4868 12.7801C15.4399 12.9284 15.6087 13.0513 15.7354 12.9607L16.713 12.2618L17.6907 12.9607C17.8172 13.0511 17.9862 12.9285 17.9392 12.7801L17.5768 11.6344L18.5436 10.9205C18.6688 10.828 18.6043 10.6294 18.4486 10.6283L17.2469 10.6189L16.8666 9.47886C16.8173 9.33126 16.6086 9.33126 16.5594 9.47886Z" fill="#FFE15A"/>
<path d="M28.7987 30.6761L28.4184 31.8162L27.2167 31.8255C27.061 31.8267 26.9966 32.0252 27.1217 32.1177L28.0885 32.8316L27.7261 33.9774C27.6791 34.1256 27.848 34.2485 27.9746 34.158L28.9523 33.4591L29.9299 34.158C30.0565 34.2484 30.2254 34.1257 30.1785 33.9774L29.8161 32.8316L30.7829 32.1177C30.908 32.0252 30.8436 31.8267 30.6879 31.8255L29.4862 31.8162L29.1059 30.6761C29.0566 30.5285 28.8479 30.5285 28.7987 30.6761Z" fill="#FFE15A"/>
</g>
<defs>
<clipPath id="clip0_200_71578">
<rect width="60" height="45" fill="white" transform="translate(-7.5)"/>
</clipPath>
</defs>
</svg>
