<svg width="45" height="45" viewBox="0 0 45 45" fill="none" xmlns="http://www.w3.org/2000/svg">
<g clip-path="url(#clip0_200_71567)">
<path fill-rule="evenodd" clip-rule="evenodd" d="M-22.5547 0H67.6853V45.12H-22.5547V0Z" fill="#6797D6"/>
<path fill-rule="evenodd" clip-rule="evenodd" d="M22.5478 10.8391L19.6926 12.7955L20.7853 9.63178L17.9213 7.67541H21.4551L22.5478 4.51172L23.6406 7.68422H27.1656L24.3103 9.63178L25.4031 12.7955M22.5478 34.3685L19.6926 32.4121L20.7853 35.5846L17.9213 37.5322H21.4551L22.5478 40.6958L23.6406 37.5233L27.1656 37.5322L24.3103 35.5758L25.4031 32.4121M8.80034 24.2693L6.64127 26.966L6.76465 23.6172L3.45996 22.5862L6.84396 21.5551L6.95852 18.2063L8.92371 20.9206L12.3077 19.8807L10.1398 22.5862L12.1138 25.2916M36.2777 24.2605L38.4456 26.966L38.3222 23.6172L41.6269 22.5862L38.2429 21.5551L38.1283 18.2063L36.1631 20.9206L32.7791 19.8807L34.947 22.5862L32.973 25.2916" fill="white"/>
</g>
<defs>
<clipPath id="clip0_200_71567">
<rect width="60" height="45" fill="white" transform="translate(-7.5)"/>
</clipPath>
</defs>
</svg>
