<svg width="45" height="45" viewBox="0 0 45 45" fill="none" xmlns="http://www.w3.org/2000/svg">
<g clip-path="url(#clip0_200_80301)">
<path d="M-7.5 0H52.5V45H-7.5V0Z" fill="#CE1126"/>
<path d="M-1.2002 6.2998H46.1998V38.6998H-1.2002V6.2998Z" fill="#007A5E"/>
<path d="M-1.2002 6.30957H46.1998L-1.2002 38.7096H46.1998L-1.2002 6.30957Z" fill="#FCD116"/>
<path d="M22.4908 27.9094C25.4732 27.9094 27.8908 25.4917 27.8908 22.5094C27.8908 19.527 25.4732 17.1094 22.4908 17.1094C19.5085 17.1094 17.0908 19.527 17.0908 22.5094C17.0908 25.4917 19.5085 27.9094 22.4908 27.9094Z" fill="#CE1126"/>
<path d="M2.09082 22.5652C2.803 23.8934 3.89696 24.9775 5.23145 25.6777C5.17944 24.2126 4.81843 22.7749 4.17207 21.459L2.09082 22.5652Z" fill="#CE1126"/>
<path d="M0.947146 18.2529C1.92215 20.2873 -1.59348 25.1623 4.27527 26.3061C3.48279 25.1578 3.12092 23.7668 3.2534 22.3779C4.55777 22.9809 5.62818 23.9953 6.30027 25.2654C7.83777 19.6873 2.36277 20.0342 0.947146 18.2529Z" fill="#FCD116"/>
</g>
<defs>
<clipPath id="clip0_200_80301">
<rect width="60" height="45" fill="white" transform="translate(-7.5)"/>
</clipPath>
</defs>
</svg>
