<svg width="45" height="45" viewBox="0 0 45 45" fill="none" xmlns="http://www.w3.org/2000/svg">
<g clip-path="url(#clip0_200_71479)">
<path d="M-7.5 0H52.5V45H-7.5V0Z" fill="white"/>
<path d="M18 0H27V45H18V0Z" fill="#FF0000"/>
<path d="M-7.5 18H52.5V27H-7.5V18Z" fill="#FF0000"/>
<g style="mix-blend-mode:multiply">
<path fill-rule="evenodd" clip-rule="evenodd" d="M6.2625 34.9781C6.35625 33.4031 6.6375 32.0625 6.6375 32.0625C6.6375 32.0625 5.71875 32.1562 5.25 32.1562C4.79063 32.1562 3.8625 32.0625 3.8625 32.0625C3.8625 32.0625 4.14375 33.4031 4.2375 34.9875C2.65312 34.8938 1.3125 34.6125 1.3125 34.6125C1.3125 34.6125 1.40625 35.3062 1.40625 36C1.40625 36.6938 1.3125 37.3875 1.3125 37.3875C1.3125 37.3875 2.65312 37.1062 4.2375 37.0125C4.14375 38.5969 3.8625 39.9375 3.8625 39.9375C3.8625 39.9375 4.55625 39.8438 5.25 39.8438C5.94375 39.8438 6.6375 39.9375 6.6375 39.9375C6.6375 39.9375 6.35625 38.5969 6.2625 37.0125C7.84688 37.1062 9.1875 37.3875 9.1875 37.3875C9.1875 37.3875 9.09375 36.4688 9.09375 36C9.09375 35.5406 9.1875 34.6125 9.1875 34.6125C9.1875 34.6125 7.84687 34.8938 6.27187 34.9875L6.2625 34.9781ZM40.7625 7.97812C40.8562 6.40312 41.1375 5.0625 41.1375 5.0625C41.1375 5.0625 40.2188 5.15625 39.75 5.15625C39.2906 5.15625 38.3625 5.0625 38.3625 5.0625C38.3625 5.0625 38.6438 6.40312 38.7375 7.97812C37.1531 7.88437 35.8125 7.6125 35.8125 7.6125C35.8125 7.6125 35.9062 8.30625 35.9062 9C35.9062 9.69375 35.8125 10.3875 35.8125 10.3875C35.8125 10.3875 37.1531 10.1063 38.7375 10.0125C38.6438 11.5969 38.3625 12.9375 38.3625 12.9375C38.3625 12.9375 39.0563 12.8438 39.75 12.8438C40.4437 12.8438 41.1375 12.9375 41.1375 12.9375C41.1375 12.9375 40.8562 11.5969 40.7625 10.0219C42.3469 10.1156 43.6875 10.3969 43.6875 10.3969C43.6875 10.3969 43.5938 9.45937 43.5938 9C43.5938 8.54063 43.6875 7.6125 43.6875 7.6125C43.6875 7.6125 42.3469 7.89375 40.7625 7.9875V7.97812ZM6.2625 7.97812C6.35625 6.40312 6.6375 5.0625 6.6375 5.0625C6.6375 5.0625 5.71875 5.15625 5.25 5.15625C4.79063 5.15625 3.8625 5.0625 3.8625 5.0625C3.8625 5.0625 4.14375 6.40312 4.2375 7.9875C2.65312 7.89375 1.3125 7.6125 1.3125 7.6125C1.3125 7.6125 1.40625 8.30625 1.40625 9C1.40625 9.69375 1.3125 10.3875 1.3125 10.3875C1.3125 10.3875 2.65312 10.1063 4.2375 10.0125C4.14375 11.5969 3.8625 12.9375 3.8625 12.9375C3.8625 12.9375 4.55625 12.8438 5.25 12.8438C5.94375 12.8438 6.6375 12.9375 6.6375 12.9375C6.6375 12.9375 6.35625 11.5969 6.2625 10.0125C7.84688 10.1063 9.1875 10.3875 9.1875 10.3875C9.1875 10.3875 9.09375 9.46875 9.09375 9C9.09375 8.54063 9.1875 7.6125 9.1875 7.6125C9.1875 7.6125 7.84687 7.89375 6.27187 7.9875L6.2625 7.97812ZM40.7625 34.9781C40.8562 33.4031 41.1375 32.0625 41.1375 32.0625C41.1375 32.0625 40.2188 32.1562 39.75 32.1562C39.2906 32.1562 38.3625 32.0625 38.3625 32.0625C38.3625 32.0625 38.6438 33.4031 38.7375 34.9875C37.1531 34.8938 35.8125 34.6125 35.8125 34.6125C35.8125 34.6125 35.9062 35.3062 35.9062 36C35.9062 36.6938 35.8125 37.3875 35.8125 37.3875C35.8125 37.3875 37.1531 37.1062 38.7375 37.0125C38.6438 38.5969 38.3625 39.9375 38.3625 39.9375C38.3625 39.9375 39.0563 39.8438 39.75 39.8438C40.4437 39.8438 41.1375 39.9375 41.1375 39.9375C41.1375 39.9375 40.8562 38.5969 40.7625 37.0125C42.3469 37.1062 43.6875 37.3875 43.6875 37.3875C43.6875 37.3875 43.5938 36.4688 43.5938 36C43.5938 35.5406 43.6875 34.6125 43.6875 34.6125C43.6875 34.6125 42.3469 34.8938 40.7625 34.9875V34.9781Z" fill="#FF0000"/>
</g>
</g>
<defs>
<clipPath id="clip0_200_71479">
<rect width="60" height="45" fill="white" transform="translate(-7.5)"/>
</clipPath>
</defs>
</svg>
