<svg width="45" height="45" viewBox="0 0 45 45" fill="none" xmlns="http://www.w3.org/2000/svg">
<g clip-path="url(#clip0_200_71515)">
<path d="M-7.5 0H52.5V45H-7.5V0Z" fill="#DA000C"/>
<path d="M-7.5 0H52.5V30.15H-7.5V0Z" fill="white"/>
<path d="M12.0586 20.4434H23.3086V28.1777H12.0586V20.4434Z" fill="black"/>
<path d="M17.8945 27.0527H11.0391L9.50977 28.0547V29.1094H17.8945M15.0293 22.6055C16.0137 22.6055 16.8223 23.4316 16.8223 24.4512V27.0352H18.1055V17.1914H11.0215V27.0352H13.2363V24.4512C13.2363 23.4668 14.0273 22.6055 15.0293 22.6055Z" fill="#DA000C"/>
<path fill-rule="evenodd" clip-rule="evenodd" d="M10.9336 17.1035H18.1934V27.123H17.9824V27.1406H11.0653L9.59766 28.1022V29.0215H17.9824V29.1973H9.42188V28.0072L10.9336 27.0168V17.1035ZM13.3242 26.9648V24.4512C13.3242 23.5114 14.0797 22.6934 15.0293 22.6934C15.9629 22.6934 16.7344 23.478 16.7344 24.4512V26.9648H13.3242ZM16.9102 26.9473H18.0176V17.2793H11.1094V26.9473H13.1484V24.4512C13.1484 23.4222 13.975 22.5176 15.0293 22.5176C16.0644 22.5176 16.9102 23.3853 16.9102 24.4512V26.9473Z" fill="black"/>
<path d="M13.4473 10.5469H16.7168V16.5234H13.4473V10.5469Z" fill="black"/>
<path d="M16.6992 15.5918H13.8516V14.5723H11.7598V15.5918H10.3535V14.5723H9.49219V16.4004H16.6992M10.3359 16.4004H16.4883V17.1914H10.3359V16.4004ZM19.1602 7.55859V14.5898H20.2148V12.8848C20.2148 12.252 20.6543 11.7246 21.2871 11.6895H21.3574C21.6744 11.6895 21.9785 11.8154 22.2026 12.0396C22.4268 12.2637 22.5527 12.5678 22.5527 12.8848V14.5898H23.5547V8.36719L19.1602 7.55859ZM18.7559 6.71484V7.55859H23.9062V6.71484H18.7559ZM18.1055 5.11523V6.71484H24.2578V5.11523H23.3262V5.94141H22.166V5.11523H20.4082V5.94141H19.2656V5.11523H18.1055ZM9.49219 28.0547H17.9297H9.49219ZM23.3789 27.5625H17.6836L15.9609 28.3887V29.6191H23.3789" fill="#DA000C"/>
<path fill-rule="evenodd" clip-rule="evenodd" d="M18.0176 5.02734H19.3535V5.85352H20.3203V5.02734H22.2539V5.85352H23.2383V5.02734H24.3457V6.80273H23.9941V7.64648H20.1235L23.6426 8.29399V14.6777H22.4648V12.8848C22.4648 12.5911 22.3482 12.3094 22.1405 12.1017C21.9328 11.894 21.6511 11.7773 21.3574 11.7773H21.2896C20.7105 11.8108 20.3027 12.2933 20.3027 12.8848V14.6777H19.0723V7.64648H18.668V6.80273H18.0176V5.02734ZM24.1699 6.62695V5.20312H23.4141V6.0293H22.0781V5.20312H20.4961V6.0293H19.1777V5.20312H18.1934V6.62695H24.1699ZM18.8437 6.80273V7.4707H19.0723V7.45306L19.1682 7.4707H23.8184V6.80273H18.8437ZM19.248 7.66413V14.502H20.127V12.8848C20.127 12.2115 20.5969 11.6398 21.2822 11.6017L21.2847 11.6016H21.3574C21.6977 11.6016 22.0241 11.7368 22.2648 11.9774C22.5054 12.2181 22.6406 12.5444 22.6406 12.8848V14.502H23.4668V8.44038L19.248 7.66413ZM9.4043 14.4844H10.4414V15.5039H11.6719V14.4844H13.9395V15.5039H16.7871V15.6797H13.7637V14.6602H11.8477V15.6797H10.2656V14.6602H9.58008V16.3125H16.7871V16.4883H16.5762V17.2793H10.248V16.4883H9.4043V14.4844ZM10.4238 16.4883V17.1035H16.4004V16.4883H10.4238ZM17.6636 27.4746H23.4668V27.6504H17.7036L17.0438 27.9668H18.0176V28.1426H16.6773L16.0488 28.444V29.5312H23.4668V29.707H15.873V28.3333L16.2708 28.1426H9.4043V27.9668H16.6373L17.6636 27.4746Z" fill="black"/>
<path fill-rule="evenodd" clip-rule="evenodd" d="M23.5547 28.4766H15.9609V28.3008H23.5547V28.4766Z" fill="black"/>
<path d="M25.5407 26.3672C25.066 26.543 24.6618 26.7891 24.2223 27.0352C23.6754 27.3475 23.1525 27.7001 22.6578 28.0898C22.4821 28.2129 22.3063 28.3359 22.1832 28.5117C22.0075 28.6523 21.8317 28.8633 21.8668 29.127C21.8668 29.2324 22.0075 28.9863 22.1129 28.9688C22.2798 28.8794 22.4737 28.8544 22.6578 28.8984C22.8864 28.6523 23.1852 28.4941 23.4313 28.3008C24.1478 27.7823 24.9131 27.3348 25.7164 26.9648L25.5407 26.3672Z" fill="#F8D80E"/>
<path fill-rule="evenodd" clip-rule="evenodd" d="M25.5869 26.2754L25.8011 27.0036L25.7459 27.029C24.9471 27.3969 24.1861 27.8417 23.4737 28.3572C23.3875 28.4248 23.2939 28.4891 23.2013 28.5526C23.1599 28.581 23.1188 28.6092 23.0785 28.6376C22.9457 28.7312 22.8186 28.829 22.7094 28.9466L22.6815 28.9767L22.6415 28.9671C22.4741 28.9271 22.2979 28.9498 22.1462 29.031L22.1359 29.0365L22.1245 29.0384C22.1184 29.0394 22.1023 29.0468 22.0757 29.0695C22.0523 29.0895 22.0289 29.1139 22.0052 29.1387C22.0039 29.1401 22.0025 29.1415 22.0012 29.1429C21.9892 29.1554 21.9768 29.1683 21.9653 29.1792C21.9547 29.1893 21.9407 29.2018 21.9255 29.2105C21.9166 29.2156 21.8707 29.2405 21.8285 29.2058C21.8107 29.1912 21.8036 29.1727 21.8005 29.161C21.7978 29.151 21.7969 29.141 21.7966 29.1323C21.7593 28.8364 21.9542 28.6073 22.1315 28.4634C22.2614 28.2819 22.4429 28.1548 22.6129 28.0358L22.6159 28.0337C23.1129 27.6422 23.6382 27.2882 24.1875 26.9744L24.188 26.9741C24.2547 26.9368 24.3207 26.8993 24.3866 26.862C24.7516 26.655 25.1086 26.4525 25.5163 26.3015L25.5869 26.2754ZM24.257 27.0967C23.7132 27.4073 23.1933 27.7578 22.7014 28.1454L22.6998 28.1466L22.6982 28.1477C22.5206 28.2721 22.3556 28.3884 22.2409 28.5523L22.2351 28.5606L22.2272 28.5669C22.0845 28.6811 21.9571 28.8312 21.9358 29.0081C21.9511 28.9927 21.9676 28.9769 21.9844 28.9625C22.011 28.9398 22.0473 28.913 22.0886 28.9024C22.2565 28.8151 22.4487 28.7868 22.6341 28.8218C22.7466 28.7065 22.8726 28.6107 22.9975 28.5227C23.041 28.492 23.084 28.4625 23.1263 28.4335C23.2173 28.371 23.3051 28.3108 23.3879 28.2458L23.389 28.2449L23.3901 28.2441C24.0939 27.7348 24.8446 27.2937 25.6319 26.9268L25.4947 26.4602C25.1276 26.6036 24.8012 26.7886 24.4579 26.9832C24.3917 27.0208 24.3248 27.0586 24.257 27.0967ZM21.9372 29.1291C21.9372 29.1291 21.9372 29.1291 21.9372 29.129L21.9372 29.1291Z" fill="black"/>
<path d="M23.2734 27.668V28.3535V27.668ZM23.6953 27.3691V28.0547V27.3691ZM24.1172 27.1055V27.7734V27.1055ZM24.5566 26.8418V27.5449V26.8418Z" fill="#F8D80E"/>
<path fill-rule="evenodd" clip-rule="evenodd" d="M24.5566 26.7539C24.6052 26.7539 24.6445 26.7933 24.6445 26.8418V27.5449C24.6445 27.5935 24.6052 27.6328 24.5566 27.6328C24.5081 27.6328 24.4688 27.5935 24.4688 27.5449V26.8418C24.4688 26.7933 24.5081 26.7539 24.5566 26.7539ZM24.1172 27.0176C24.1657 27.0176 24.2051 27.0569 24.2051 27.1055V27.7734C24.2051 27.822 24.1657 27.8613 24.1172 27.8613C24.0687 27.8613 24.0293 27.822 24.0293 27.7734V27.1055C24.0293 27.0569 24.0687 27.0176 24.1172 27.0176ZM23.6953 27.2812C23.7439 27.2812 23.7832 27.3206 23.7832 27.3691V28.0547C23.7832 28.1032 23.7439 28.1426 23.6953 28.1426C23.6468 28.1426 23.6074 28.1032 23.6074 28.0547V27.3691C23.6074 27.3206 23.6468 27.2812 23.6953 27.2812ZM23.2734 27.5801C23.322 27.5801 23.3613 27.6194 23.3613 27.668V28.3535C23.3613 28.4021 23.322 28.4414 23.2734 28.4414C23.2249 28.4414 23.1855 28.4021 23.1855 28.3535V27.668C23.1855 27.6194 23.2249 27.5801 23.2734 27.5801Z" fill="black"/>
<path d="M19.4941 26.4023L19.2832 26.9824C20.2546 27.355 21.1853 27.8262 22.0605 28.3887C22.3594 28.5996 22.6758 28.793 22.9043 29.0742C22.957 29.2148 22.8164 29.3379 22.6758 29.2852C22.5527 29.25 22.4121 29.1973 22.2891 29.2852C22.0957 29.373 21.9199 29.6719 22.2012 29.7598C22.623 30.041 23.2734 29.918 23.4668 29.4434C23.5723 29.1973 23.5898 28.8809 23.3789 28.6699C23.0273 28.2656 22.5352 27.9668 22.0781 27.668C21.2574 27.1678 20.3924 26.7441 19.4941 26.4023Z" fill="#F8D80E"/>
<path fill-rule="evenodd" clip-rule="evenodd" d="M19.519 26.3369C20.4213 26.6802 21.2902 27.1058 22.1146 27.6082L22.1155 27.6088L22.1165 27.6094C22.1638 27.6404 22.2117 27.6714 22.2599 27.7027C22.6724 27.9702 23.1084 28.2529 23.4302 28.6223C23.6685 28.8624 23.6417 29.2132 23.5315 29.4708C23.4245 29.7329 23.1923 29.8949 22.9352 29.9538C22.6816 30.012 22.3972 29.9718 22.1702 29.824C22.0922 29.7976 22.0351 29.7532 22.0055 29.6916C21.9751 29.6283 21.98 29.5599 22.0004 29.5001C22.0395 29.3854 22.1434 29.2766 22.2537 29.2243C22.3314 29.1711 22.4137 29.1618 22.4893 29.1693C22.5513 29.1755 22.6138 29.194 22.666 29.2094C22.6761 29.2123 22.6857 29.2152 22.6949 29.2178L22.6977 29.2186L22.7003 29.2196C22.7454 29.2365 22.7881 29.2249 22.8152 29.2003C22.8394 29.1785 22.8518 29.1463 22.8415 29.109C22.659 28.8882 22.4209 28.7239 22.1732 28.553C22.1228 28.5182 22.072 28.4832 22.0211 28.4473C21.1502 27.8878 20.2243 27.4191 19.2579 27.0484L19.1934 27.0236L19.4279 26.3786L19.494 26.4026L19.519 26.3369ZM19.5356 26.4939L19.3727 26.942C20.3253 27.3123 21.2384 27.7772 22.0984 28.3298L22.0997 28.3306L22.1009 28.3315C22.1493 28.3657 22.1986 28.3996 22.2484 28.4339C22.4999 28.6071 22.7613 28.7872 22.9587 29.0302L22.9659 29.0391L22.97 29.0498C23.0072 29.1489 22.9756 29.2448 22.9096 29.3046C22.845 29.363 22.7484 29.3866 22.6538 29.3523C22.6431 29.3493 22.6327 29.3462 22.6225 29.3432C22.5703 29.3279 22.523 29.314 22.4753 29.3093C22.4208 29.3038 22.3735 29.3114 22.3298 29.3427L22.3242 29.3466L22.318 29.3495C22.2372 29.3862 22.1596 29.4689 22.1335 29.5454C22.121 29.5823 22.1226 29.6105 22.1323 29.6307C22.1416 29.6501 22.1645 29.675 22.222 29.6929L22.2316 29.696L22.24 29.7015C22.4336 29.8306 22.6816 29.8677 22.9038 29.8168C23.1255 29.7659 23.3151 29.6292 23.4015 29.4171L23.402 29.4159C23.5023 29.182 23.5105 28.9014 23.329 28.7199L23.3273 28.7182L23.3257 28.7163C23.0176 28.362 22.5984 28.09 22.1827 27.8202C22.1352 27.7894 22.0877 27.7586 22.0404 27.7277C21.244 27.2424 20.4057 26.8295 19.5356 26.4939Z" fill="black"/>
<path d="M22.1484 27.7734L22.0957 28.3711L22.1484 27.7734ZM22.6406 28.0723L22.5 28.6523L22.6406 28.0723ZM23.168 28.4766L22.8516 28.9336L23.168 28.4766ZM23.3262 29.5664L22.8691 29.3203L23.3262 29.5664ZM23.4668 29.0742L22.9395 29.127L23.4668 29.0742ZM22.7988 29.8301L22.7637 29.373L22.7988 29.8301ZM22.5879 29.3203L22.166 29.6367L22.5879 29.3203ZM20.5137 26.877V27.4219V26.877ZM21.6211 27.4746V28.0898V27.4746ZM21.0586 27.1758V27.7559V27.1758Z" fill="#F8D80E"/>
<path fill-rule="evenodd" clip-rule="evenodd" d="M20.5137 26.7891C20.5622 26.7891 20.6016 26.8284 20.6016 26.877V27.4219C20.6016 27.4704 20.5622 27.5098 20.5137 27.5098C20.4651 27.5098 20.4258 27.4704 20.4258 27.4219V26.877C20.4258 26.8284 20.4651 26.7891 20.5137 26.7891ZM21.0586 27.0879C21.1071 27.0879 21.1465 27.1272 21.1465 27.1758V27.7559C21.1465 27.8044 21.1071 27.8438 21.0586 27.8438C21.0101 27.8438 20.9707 27.8044 20.9707 27.7559V27.1758C20.9707 27.1272 21.0101 27.0879 21.0586 27.0879ZM21.6211 27.3867C21.6696 27.3867 21.709 27.4261 21.709 27.4746V28.0898C21.709 28.1384 21.6696 28.1777 21.6211 28.1777C21.5726 28.1777 21.5332 28.1384 21.5332 28.0898V27.4746C21.5332 27.4261 21.5726 27.3867 21.6211 27.3867ZM22.1562 27.6859C22.2045 27.6902 22.2403 27.7328 22.236 27.7812L22.1833 28.3788C22.179 28.4272 22.1363 28.4629 22.088 28.4586C22.0396 28.4544 22.0039 28.4117 22.0082 28.3634L22.0609 27.7657C22.0652 27.7174 22.1078 27.6816 22.1562 27.6859ZM22.6613 27.9868C22.7085 27.9983 22.7375 28.0458 22.726 28.093L22.5854 28.6731C22.574 28.7202 22.5265 28.7492 22.4793 28.7378C22.4321 28.7263 22.4031 28.6788 22.4146 28.6316L22.5552 28.0516C22.5666 28.0044 22.6142 27.9754 22.6613 27.9868ZM23.218 28.4043C23.2579 28.4319 23.2679 28.4867 23.2402 28.5266L22.9238 28.9836C22.8962 29.0235 22.8414 29.0335 22.8015 29.0059C22.7616 28.9782 22.7517 28.9235 22.7793 28.8836L23.0957 28.4265C23.1233 28.3866 23.1781 28.3767 23.218 28.4043ZM23.5543 29.0655C23.5591 29.1138 23.5238 29.1568 23.4755 29.1617L22.9482 29.2144C22.8999 29.2192 22.8568 29.184 22.852 29.1357C22.8472 29.0874 22.8824 29.0443 22.9307 29.0395L23.4581 28.9868C23.5064 28.9819 23.5494 29.0172 23.5543 29.0655ZM22.7918 29.2786C22.8148 29.2359 22.8681 29.2199 22.9108 29.2429L23.3678 29.489C23.4106 29.512 23.4266 29.5653 23.4036 29.6081C23.3805 29.6508 23.3272 29.6668 23.2845 29.6438L22.8549 29.4124L22.8865 29.8233C22.8902 29.8717 22.854 29.914 22.8056 29.9177C22.7572 29.9214 22.7149 29.8852 22.7112 29.8368L22.676 29.3798C22.6723 29.3314 22.7085 29.2891 22.7569 29.2854C22.7674 29.2846 22.7777 29.2857 22.7873 29.2884C22.7885 29.2851 22.79 29.2818 22.7918 29.2786ZM22.6582 29.2676C22.6873 29.3064 22.6795 29.3615 22.6406 29.3906L22.2188 29.707C22.1799 29.7362 22.1248 29.7283 22.0957 29.6895C22.0666 29.6506 22.0745 29.5955 22.1133 29.5664L22.5352 29.25C22.574 29.2209 22.6291 29.2287 22.6582 29.2676Z" fill="black"/>
<path d="M18.9492 40.0078V41.4141H19.8281V40.7109H21.041V41.4141H21.9902V40.0078H18.9492ZM18.9492 41.9414V43.3477H21.9727V41.9414H21.0234V42.6445H19.8105V41.9414H18.9492Z" fill="#F8D80E"/>
<path fill-rule="evenodd" clip-rule="evenodd" d="M18.8613 39.9199H22.0781V41.502H20.9531V40.7988H19.916V41.502H18.8613V39.9199ZM19.0371 40.0957V41.3262H19.7402V40.623H21.1289V41.3262H21.9023V40.0957H19.0371ZM18.8613 41.8535H19.8984V42.5566H20.9355V41.8535H22.0605V43.4355H18.8613V41.8535ZM19.0371 42.0293V43.2598H21.8848V42.0293H21.1113V42.7324H19.7227V42.0293H19.0371Z" fill="black"/>
<path d="M21.9727 34.0488H22.8516V44.2441H21.9727V34.0488Z" fill="#F8D80E"/>
<path fill-rule="evenodd" clip-rule="evenodd" d="M21.8848 33.9609H22.9395V44.332H21.8848V33.9609ZM22.0605 34.1367V44.1562H22.7637V34.1367H22.0605Z" fill="black"/>
<path d="M21.9727 34.9277H22.8516V43.7168H21.9727V34.9277ZM22.4297 31.5352L24.293 32.625L22.4297 33.7148L20.5488 32.625L22.4297 31.5352ZM19.916 32.2383H19.4414V33.0117H19.916L22.4297 34.4707L24.9258 33.0117H25.418V32.2383H24.9258L22.4297 30.7793L19.916 32.2383Z" fill="#F8D80E"/>
<path fill-rule="evenodd" clip-rule="evenodd" d="M22.4298 30.6777L24.9496 32.1505H25.5059V33.0998H24.9496L22.4298 34.5726L19.8924 33.0998H19.3535V32.1505H19.8924L22.4298 30.6777ZM22.4295 30.8812L19.9397 32.3263H19.5293V32.924H19.9397L22.4295 34.3691L24.902 32.924H25.3301V32.3263H24.902L22.4295 30.8812ZM22.4299 31.4336L24.4671 32.6252L22.4299 33.8167L20.3735 32.6252L22.4299 31.4336ZM20.7241 32.6252L22.4295 33.6133L24.1189 32.6251L22.4295 31.637L20.7241 32.6252ZM21.8848 34.84H22.9395V43.8048H21.8848V34.84ZM22.0605 35.0158V43.6291H22.7637V35.0158H22.0605Z" fill="black"/>
<path d="M22.3767 28.8809C22.1721 28.9224 21.989 29.0355 21.8602 29.1997C21.7314 29.364 21.6652 29.5688 21.6736 29.7773V31.7461C21.6897 31.9552 21.7801 32.1516 21.9284 32.2999C22.0767 32.4482 22.2731 32.5385 22.4821 32.5547C22.6561 32.5677 22.8299 32.5277 22.9805 32.4398C23.1312 32.3519 23.2516 32.2203 23.3259 32.0625L23.0271 31.8867C22.9856 31.9897 22.9117 32.0763 22.8165 32.1334C22.7213 32.1905 22.6101 32.215 22.4997 32.2031C22.2185 32.2031 21.99 31.9219 22.0251 31.6582V29.6895C22.0384 29.5605 22.1004 29.4415 22.1983 29.3566C22.2963 29.2717 22.4229 29.2273 22.5525 29.2324C22.6579 29.1973 22.8161 29.3555 22.8864 29.2324C22.9919 29.0742 22.8161 28.9688 22.7107 28.8809H22.3767ZM23.3962 29.5664C23.3103 29.6868 23.1954 29.7835 23.0622 29.8477V31.166L23.4138 31.3594V29.5664H23.3962Z" fill="#F8D80E"/>
<path fill-rule="evenodd" clip-rule="evenodd" d="M22.3767 28.793H22.7425L22.7669 28.8133C22.7788 28.8233 22.7919 28.8335 22.8065 28.8451L22.8073 28.8457C22.8219 28.8573 22.8379 28.8699 22.8537 28.8831C22.885 28.9092 22.9194 28.9404 22.9473 28.9767C22.9754 29.0132 23.0003 29.0592 23.0058 29.1145C23.0113 29.1706 22.9957 29.226 22.9612 29.2788C22.9301 29.3314 22.8834 29.3605 22.8294 29.3667C22.7828 29.3721 22.7374 29.3592 22.7057 29.3491C22.6899 29.344 22.6771 29.3394 22.6655 29.3354C22.6484 29.3294 22.6342 29.3244 22.6172 29.32C22.5916 29.3133 22.5822 29.3152 22.5803 29.3158L22.565 29.3209L22.549 29.3202C22.4418 29.316 22.337 29.3527 22.2559 29.423C22.1759 29.4923 22.1249 29.5891 22.113 29.6942V31.664L22.1122 31.6698C22.0985 31.7731 22.1362 31.8851 22.2107 31.9726C22.2849 32.0597 22.3891 32.1152 22.4997 32.1152H22.5044L22.5091 32.1157C22.6005 32.1256 22.6925 32.1053 22.7713 32.058C22.85 32.0108 22.9112 31.9391 22.9455 31.8539L22.9837 31.7592L23.4396 32.0274L23.4054 32.0999C23.3236 32.2738 23.1909 32.4188 23.0248 32.5157C22.8588 32.6125 22.6673 32.6567 22.4756 32.6423L22.4754 32.6423C22.2454 32.6245 22.0293 32.5251 21.8662 32.362C21.7031 32.1989 21.6037 31.9829 21.5859 31.7529L21.5857 31.7495V29.7791C21.5769 29.5502 21.6497 29.3257 21.791 29.1455C21.9327 28.9648 22.1341 28.8405 22.3592 28.7947L22.3767 28.8809V28.793ZM22.3858 28.9688C22.205 29.0075 22.0435 29.1084 21.9293 29.254C21.8134 29.4018 21.7539 29.5861 21.7614 29.7738L21.7614 29.7756V31.7426C21.7767 31.9296 21.8578 32.105 21.9905 32.2377C22.1239 32.3711 22.3006 32.4525 22.4887 32.467C22.6449 32.4787 22.801 32.4428 22.9363 32.3638C23.0485 32.2984 23.142 32.206 23.2087 32.0955L23.063 32.0098C23.0131 32.0909 22.9442 32.1593 22.8617 32.2088C22.7515 32.2749 22.6228 32.3037 22.495 32.291C22.3263 32.2894 22.1775 32.2048 22.0768 32.0865C21.9768 31.969 21.9181 31.811 21.9372 31.6527V29.6849L21.9377 29.6804C21.9533 29.5292 22.0259 29.3897 22.1408 29.2901C22.2521 29.1937 22.395 29.1418 22.542 29.1442C22.5866 29.134 22.6295 29.1416 22.6613 29.1498C22.6843 29.1558 22.7121 29.1654 22.7343 29.1731C22.744 29.1765 22.7528 29.1795 22.7595 29.1817C22.7873 29.1906 22.8013 29.1925 22.808 29.1922C22.8086 29.1914 22.8093 29.1903 22.8101 29.1888L22.8116 29.1862L22.8133 29.1837C22.8304 29.1581 22.8318 29.1418 22.8308 29.1317C22.8297 29.12 22.8239 29.1045 22.808 29.0839C22.7919 29.063 22.7692 29.0415 22.7412 29.0181C22.7274 29.0066 22.7131 28.9954 22.6984 28.9837L22.6967 28.9824C22.691 28.9779 22.6853 28.9734 22.6795 28.9688H22.3858ZM23.351 29.4785H23.5017V31.508L22.9743 31.218V29.7924L23.0241 29.7685C23.144 29.7107 23.2474 29.6237 23.3247 29.5153L23.351 29.4785ZM23.3259 29.7759C23.2723 29.824 23.2133 29.866 23.1501 29.9011V31.114L23.3259 31.2107V29.7759Z" fill="black"/>
<path d="M19.8281 6.75H24.9785V16.1016H19.8281V6.75Z" fill="black"/>
<path d="M19.4766 6.75V14.5723H21.1113V12.252C21.1113 11.7246 21.4629 10.9688 22.5 10.9688C23.5371 10.9688 23.9062 11.7246 23.9062 12.252V14.5898H25.5234V6.75H19.4766ZM22.2539 7.62891H22.7461V10.3008H22.2539V7.62891ZM20.7949 8.15625H21.3223V10.1074H20.7949V8.15625ZM23.6953 8.15625H24.2051V10.1074H23.6777L23.6953 8.15625ZM18.9141 5.625V6.73242H26.0859V5.625H18.9141ZM18.2461 4.32422V5.625H26.7715V4.32422H25.6992V5.02734H24.4688V4.32422H23.0977V5.02734H21.9023V4.32422H20.5137V5.02734H19.3359V4.32422H18.2461ZM16.6641 17.1914V18H28.3535V17.1914H16.6641Z" fill="#DA000C"/>
<path fill-rule="evenodd" clip-rule="evenodd" d="M18.1582 4.23633H19.4238V4.93945H20.4258V4.23633H21.9902V4.93945H23.0098V4.23633H24.5566V4.93945H25.6113V4.23633H26.8594V5.71289H26.1738V6.82031H25.6113V14.6777H23.8184V12.252C23.8184 12.0068 23.7321 11.7073 23.5258 11.4703C23.3217 11.2359 22.995 11.0566 22.5 11.0566C22.0051 11.0566 21.6831 11.2358 21.4836 11.4697C21.2817 11.7062 21.1992 12.0058 21.1992 12.252V14.6602H19.3887V6.82031H18.8262V5.71289H18.1582V4.23633ZM26.6836 5.53711V4.41211H25.7871V5.11523H24.3809V4.41211H23.1855V5.11523H21.8145V4.41211H20.6016V5.11523H19.248V4.41211H18.334V5.53711H26.6836ZM19.002 5.71289V6.64453H25.998V5.71289H19.002ZM19.5645 6.83789V14.4844H21.0234V12.252C21.0234 11.9708 21.1167 11.6288 21.3499 11.3555C21.5854 11.0796 21.9578 10.8809 22.5 10.8809C23.0421 10.8809 23.4185 11.0795 23.6583 11.3549C23.8959 11.6277 23.9941 11.9698 23.9941 12.252V14.502H25.4355V6.83789H19.5645ZM22.166 7.54102H22.834V10.3887H22.166V7.54102ZM22.3418 7.7168V10.2129H22.6582V7.7168H22.3418ZM20.707 8.06836H21.4102V10.1953H20.707V8.06836ZM20.8828 8.24414V10.0195H21.2344V8.24414H20.8828ZM23.6082 8.06836H24.293V10.1953H23.5891L23.6082 8.06836ZM23.7824 8.24414L23.7664 10.0195H24.1172V8.24414H23.7824ZM16.5762 17.1035H28.4414V18.0879H16.5762V17.1035ZM16.752 17.2793V17.9121H28.2656V17.2793H16.752Z" fill="black"/>
<path d="M16.1719 14.5723V17.209H28.8281V14.5723H27.6328V15.5918H26.0156V14.5723H23.8711V15.5918H21.0938V14.5723H18.9492V15.5918H17.3672V14.5723H16.1719Z" fill="#DA000C"/>
<path fill-rule="evenodd" clip-rule="evenodd" d="M16.084 14.4844H17.4551V15.5039H18.8613V14.4844H21.1816V15.5039H23.7832V14.4844H26.1035V15.5039H27.5449V14.4844H28.916V17.2969H16.084V14.4844ZM16.2598 14.6602V17.1211H28.7402V14.6602H27.7207V15.6797H25.9277V14.6602H23.959V15.6797H21.0059V14.6602H19.0371V15.6797H17.2793V14.6602H16.2598Z" fill="black"/>
<path d="M17.7012 18V27.5625H19.9512V23.9766C19.9512 22.3066 21.0762 21.5156 22.5 21.5156C23.8711 21.5156 25.0488 22.3066 25.0488 23.9766V27.5625H27.2988V18H17.7012Z" fill="#DA000C"/>
<path fill-rule="evenodd" clip-rule="evenodd" d="M17.6133 18C17.6133 17.9515 17.6526 17.9121 17.7012 17.9121H27.2988C27.3474 17.9121 27.3867 17.9515 27.3867 18V27.5625C27.3867 27.611 27.3474 27.6504 27.2988 27.6504H25.0488C25.0003 27.6504 24.9609 27.611 24.9609 27.5625V23.9766C24.9609 23.1639 24.6753 22.574 24.2308 22.1861C23.7845 21.7966 23.1695 21.6035 22.5 21.6035C21.8035 21.6035 21.1891 21.797 20.7499 22.1857C20.3124 22.5729 20.0391 23.1626 20.0391 23.9766V27.5625C20.0391 27.611 19.9997 27.6504 19.9512 27.6504H17.7012C17.6526 27.6504 17.6133 27.611 17.6133 27.5625V18ZM17.7891 18.0879V27.4746H19.8633V23.9766C19.8633 23.1206 20.1524 22.4798 20.6334 22.0541C21.1127 21.6298 21.7727 21.4277 22.5 21.4277C23.2016 21.4277 23.861 21.6301 24.3464 22.0537C24.8335 22.4788 25.1367 23.1193 25.1367 23.9766V27.4746H27.2109V18.0879H17.7891Z" fill="black"/>
</g>
<defs>
<clipPath id="clip0_200_71515">
<rect width="60" height="45" fill="white" transform="translate(-7.5)"/>
</clipPath>
</defs>
</svg>
