<svg width="45" height="45" viewBox="0 0 45 45" fill="none" xmlns="http://www.w3.org/2000/svg">
<g clip-path="url(#clip0_200_81411)">
<path d="M-7.5 0H52.5V45H-7.5V0Z" fill="white"/>
<path d="M-7.5 22.5H52.5V45H-7.5V22.5ZM0 22.5C0 26.4782 1.58035 30.2936 4.3934 33.1066C7.20644 35.9196 11.0218 37.5 15 37.5C18.9782 37.5 22.7936 35.9196 25.6066 33.1066C28.4196 30.2936 30 26.4782 30 22.5C30 18.5218 28.4196 14.7064 25.6066 11.8934C22.7936 9.08035 18.9782 7.5 15 7.5C11.0218 7.5 7.20644 9.08035 4.3934 11.8934C1.58035 14.7064 0 18.5218 0 22.5Z" fill="#D00C33"/>
</g>
<defs>
<clipPath id="clip0_200_81411">
<rect width="60" height="45" fill="white" transform="translate(-7.5)"/>
</clipPath>
</defs>
</svg>
