<svg width="45" height="45" viewBox="0 0 45 45" fill="none" xmlns="http://www.w3.org/2000/svg">
<g clip-path="url(#clip0_200_80514)">
<path d="M-7.5 0H52.5V45H-7.5V0Z" fill="#E32118"/>
<path d="M-7.5 0H52.5V30H-7.5V0Z" fill="white"/>
<path d="M-7.5 0H52.5V15H-7.5V0Z" fill="#3E9A00"/>
<path d="M-7.5 0V45L9.375 22.5L-7.5 0Z" fill="#0073CE"/>
<path d="M18.9004 17.9814H26.0816V25.5002C26.0816 28.0314 22.7816 26.0814 22.5004 27.4314C22.0129 26.0439 18.9191 28.0502 18.9191 25.3502L18.9004 17.9814Z" fill="white"/>
<path fill-rule="evenodd" clip-rule="evenodd" d="M18.9474 18.0283L18.966 25.3502C18.966 26.0162 19.1564 26.3798 19.4375 26.5812C19.7223 26.7853 20.111 26.8315 20.5275 26.8361C20.663 26.8377 20.7993 26.8348 20.9351 26.832C21.0078 26.8305 21.0803 26.8291 21.1525 26.8282C21.358 26.8259 21.5586 26.829 21.7415 26.8541C21.9244 26.8792 22.0926 26.9266 22.2316 27.0148C22.339 27.0829 22.4277 27.1744 22.4923 27.2959C22.5391 27.1801 22.613 27.0919 22.7084 27.0261C22.8342 26.9393 22.9945 26.8934 23.1724 26.8697C23.3506 26.8459 23.5505 26.8438 23.758 26.8477C23.8383 26.8492 23.9193 26.8515 24.0009 26.8539C24.1319 26.8577 24.2642 26.8616 24.3966 26.8619C24.8265 26.8631 25.2355 26.8267 25.5369 26.6401C25.8332 26.4568 26.0348 26.1217 26.0348 25.5002V18.0283H18.9474ZM18.9004 17.9814V17.9346H26.1285V25.5002C26.1285 26.1443 25.9176 26.5147 25.5863 26.7198C25.2602 26.9217 24.8266 26.9568 24.3964 26.9557C24.2631 26.9553 24.1281 26.9514 23.996 26.9475C23.9146 26.9452 23.8344 26.9429 23.7562 26.9414C23.5496 26.9376 23.3556 26.9398 23.1848 26.9626C23.0138 26.9854 22.8701 27.0284 22.7616 27.1033C22.6547 27.177 22.5791 27.2836 22.5463 27.441L22.512 27.6058L22.4562 27.447C22.3987 27.2835 22.3038 27.1715 22.1814 27.094C22.058 27.0158 21.9045 26.9711 21.7288 26.947C21.5531 26.9229 21.3582 26.9196 21.1536 26.922C21.0832 26.9228 21.0116 26.9242 20.9392 26.9257C20.8024 26.9286 20.6632 26.9314 20.5264 26.9299C20.1086 26.9252 19.6933 26.8799 19.3829 26.6574C19.0686 26.4323 18.8723 26.0341 18.8723 25.3502L18.8535 17.9816L18.9004 17.9814Z" fill="black"/>
<path d="M23.0066 26.2314C23.0066 26.2314 22.9129 26.3252 22.7441 26.2502C22.5754 26.1752 22.5566 21.4314 22.5566 21.4314C22.9316 21.0189 23.2316 20.8877 23.2316 20.8877L23.4566 21.0752C22.6129 21.5064 22.6879 22.1252 22.7629 23.1939C22.7816 23.5877 22.7816 24.0939 22.8754 24.5814C23.0066 25.2002 23.2691 25.7252 23.2879 26.1189C23.3066 26.3627 23.0066 26.2314 23.0066 26.2314Z" fill="#73452B"/>
<path fill-rule="evenodd" clip-rule="evenodd" d="M23.2328 20.877L23.4732 21.0773L23.4605 21.0837C23.2504 21.1911 23.0981 21.3099 22.9886 21.444C22.8792 21.5781 22.8124 21.7278 22.774 21.8977C22.7023 22.2151 22.7298 22.6017 22.7643 23.0861C22.7668 23.1213 22.7693 23.1571 22.7719 23.1935L22.7719 23.1937C22.7755 23.2705 22.7785 23.3516 22.7815 23.4359C22.7942 23.7842 22.8089 24.188 22.8842 24.5798C22.9428 24.8558 23.0275 25.1131 23.1051 25.3489C23.1143 25.3769 23.1234 25.4045 23.1324 25.4318C23.2166 25.6893 23.2874 25.9202 23.2969 26.1185C23.3017 26.1812 23.2861 26.2221 23.2576 26.2466C23.2295 26.2708 23.1909 26.2773 23.1536 26.2761C23.1161 26.2749 23.0783 26.2659 23.0501 26.2573C23.036 26.253 23.0241 26.2487 23.0158 26.2455C23.0127 26.2444 23.0102 26.2434 23.0081 26.2425C23.008 26.2426 23.008 26.2426 23.0079 26.2427C23.0048 26.2453 23.0002 26.2489 22.9942 26.2529C22.9821 26.2609 22.9644 26.2707 22.9411 26.2781C22.8944 26.2928 22.8264 26.2974 22.74 26.2589C22.7353 26.2569 22.7315 26.2532 22.7285 26.2491C22.7253 26.2449 22.7225 26.2397 22.7198 26.2338C22.7145 26.2218 22.7095 26.2058 22.7047 26.1861C22.6952 26.1467 22.6863 26.0915 22.678 26.0229C22.6613 25.8857 22.6467 25.694 22.6339 25.4663C22.6084 25.0109 22.5903 24.4107 22.5774 23.8131C22.5645 23.2154 22.5569 22.62 22.5525 22.1741C22.5503 21.9511 22.5489 21.7655 22.548 21.6357C22.5476 21.5707 22.5473 21.5197 22.5471 21.485L22.5469 21.4317C22.5469 21.4317 22.5469 21.4317 22.5563 21.4316L22.5469 21.4317L22.5469 21.428L22.5493 21.4253C22.7373 21.2185 22.9066 21.0821 23.0291 20.9973C23.0903 20.955 23.1398 20.9255 23.174 20.9066C23.1911 20.8972 23.2044 20.8904 23.2135 20.8859C23.218 20.8837 23.2215 20.882 23.2239 20.8809L23.2265 20.8797L23.2272 20.8794L23.2274 20.8793C23.2274 20.8793 23.2275 20.8793 23.2313 20.8879L23.2274 20.8793L23.2328 20.877ZM23.2298 20.8989C23.2277 20.8998 23.225 20.9011 23.2218 20.9027C23.213 20.9071 23.1999 20.9137 23.1831 20.923C23.1493 20.9416 23.1004 20.9708 23.0397 21.0128C22.9189 21.0964 22.7517 21.231 22.5657 21.4352L22.5659 21.4849C22.5661 21.5196 22.5664 21.5706 22.5668 21.6355C22.5676 21.7654 22.569 21.951 22.5712 22.1739C22.5756 22.6198 22.5832 23.2151 22.5961 23.8127C22.609 24.4103 22.6272 25.0102 22.6526 25.4653C22.6654 25.6929 22.6799 25.8841 22.6966 26.0206C22.7049 26.089 22.7137 26.1434 22.723 26.1817C22.7276 26.2009 22.7323 26.2157 22.7369 26.2261C22.7393 26.2313 22.7415 26.2352 22.7435 26.2378C22.7455 26.2406 22.7469 26.2415 22.7476 26.2418C22.8298 26.2784 22.8931 26.2736 22.9355 26.2602C22.9568 26.2534 22.973 26.2445 22.9838 26.2373C22.9892 26.2337 22.9932 26.2305 22.9959 26.2283C22.9972 26.2272 22.9982 26.2263 22.9988 26.2257L22.9995 26.2251L22.9996 26.225C22.9996 26.225 22.9996 26.225 23.0063 26.2316L23.01 26.223L23.0102 26.2231L23.0108 26.2234L23.0132 26.2244C23.0153 26.2252 23.0185 26.2265 23.0225 26.228C23.0305 26.2311 23.0419 26.2352 23.0556 26.2393C23.083 26.2477 23.1191 26.2563 23.1542 26.2574C23.1896 26.2585 23.2225 26.2522 23.2454 26.2324C23.2678 26.213 23.2827 26.179 23.2782 26.1198L23.2781 26.1196C23.2688 25.9242 23.199 25.6957 23.1145 25.4377C23.1056 25.4104 23.0965 25.3827 23.0873 25.3548C23.0097 25.1191 22.9246 24.8607 22.8658 24.5836L22.8658 24.5834C22.7902 24.19 22.7754 23.7844 22.7628 23.436C22.7597 23.3519 22.7568 23.2711 22.7532 23.1947C22.7506 23.158 22.748 23.1218 22.7455 23.0862C22.7111 22.6032 22.6833 22.2138 22.7557 21.8936C22.7947 21.7213 22.8626 21.5688 22.9741 21.4321C23.0833 21.2983 23.2341 21.1801 23.4394 21.0735L23.2298 20.8989Z" fill="black"/>
<path d="M22.4256 20.7754H22.7631C22.4818 23.4941 22.7256 25.1066 22.7256 25.8941C22.7256 26.1566 22.8756 26.2504 22.8568 26.2504C22.5193 26.6254 22.3506 26.2316 22.3506 26.2316L22.4256 20.7754Z" fill="#73452B"/>
<path fill-rule="evenodd" clip-rule="evenodd" d="M22.416 20.7656H22.7731L22.772 20.776C22.5602 22.8236 22.6463 24.2426 22.7016 25.1554C22.7198 25.4544 22.7346 25.6991 22.7346 25.8938C22.7346 26.0231 22.7715 26.1104 22.8058 26.1653C22.823 26.1928 22.8396 26.2123 22.8509 26.225C22.8521 26.2264 22.8533 26.2277 22.8544 26.229C22.8584 26.2334 22.8617 26.2371 22.8637 26.2398C22.8644 26.2408 22.8652 26.2418 22.8658 26.2429C22.8663 26.2439 22.8672 26.2457 22.8674 26.248C22.8677 26.251 22.8667 26.2549 22.8631 26.2574C22.8626 26.2578 22.8621 26.258 22.8616 26.2583C22.7773 26.3515 22.7025 26.398 22.6373 26.4144C22.5712 26.4309 22.5159 26.4161 22.4719 26.3892C22.4281 26.3625 22.3956 26.3238 22.3741 26.2922C22.3633 26.2763 22.3552 26.2621 22.3498 26.2518C22.3471 26.2467 22.3451 26.2425 22.3437 26.2396C22.343 26.2381 22.3425 26.237 22.3422 26.2362L22.3418 26.2353L22.3417 26.235L22.3416 26.235C22.3416 26.2349 22.3416 26.2349 22.3502 26.2312L22.3416 26.235L22.3408 26.2331L22.416 20.7656ZM22.3596 26.2293C22.3599 26.2299 22.3603 26.2307 22.3607 26.2316C22.3619 26.2343 22.3639 26.2382 22.3664 26.2431C22.3716 26.2529 22.3793 26.2665 22.3896 26.2816C22.4103 26.3121 22.4411 26.3484 22.4817 26.3732C22.522 26.3979 22.5722 26.4113 22.6327 26.3962C22.6927 26.3812 22.7638 26.3379 22.8459 26.2477C22.8446 26.2461 22.8429 26.2443 22.841 26.2421C22.8397 26.2407 22.8384 26.2392 22.8369 26.2375C22.8253 26.2244 22.8079 26.204 22.7899 26.1753C22.7539 26.1177 22.7158 26.0269 22.7158 25.8938C22.7158 25.7001 22.7011 25.4563 22.683 25.158C22.6277 24.2469 22.5417 22.8283 22.7523 20.7844H22.4345L22.3596 26.2293Z" fill="black"/>
<path d="M21.9001 26.2312C21.5813 26.3812 21.5438 26.0812 21.5626 26.0437C22.2563 24.6375 22.5563 21.5437 21.9188 21.2062L21.9563 20.9062C22.2001 20.9813 22.4251 21.3 22.4251 21.3C22.5188 24.7687 22.4251 26.1937 22.3688 26.25C22.0313 26.6062 21.9001 26.1937 21.8813 26.1562" fill="#A36629"/>
<path fill-rule="evenodd" clip-rule="evenodd" d="M21.948 20.8945L21.9587 20.8978C22.0829 20.936 22.2015 21.0359 22.2884 21.1252C22.332 21.17 22.368 21.2125 22.393 21.2437C22.4055 21.2593 22.4154 21.2721 22.422 21.2811C22.4254 21.2855 22.4279 21.289 22.4297 21.2914L22.4316 21.2942L22.4321 21.2949L22.4323 21.295L22.434 21.2974L22.434 21.3003C22.4809 23.0348 22.4809 24.2584 22.4622 25.0554C22.4528 25.454 22.4387 25.7459 22.4235 25.9419C22.4158 26.0398 22.4079 26.1139 22.4001 26.1654C22.3962 26.1911 22.3923 26.2113 22.3884 26.2261C22.3865 26.2336 22.3845 26.2398 22.3825 26.2448C22.3805 26.2495 22.3782 26.254 22.3751 26.2571C22.2901 26.3468 22.217 26.3893 22.1542 26.4007C22.0909 26.4121 22.0395 26.3916 21.9992 26.3586C21.9591 26.3258 21.9297 26.2806 21.9092 26.2417C21.899 26.2222 21.8909 26.2042 21.8848 26.1899C21.8822 26.1838 21.88 26.1785 21.8782 26.1741C21.8756 26.1679 21.8738 26.1635 21.8725 26.161L21.8893 26.1526C21.8909 26.1557 21.8931 26.1612 21.896 26.1682C21.8978 26.1725 21.8998 26.1773 21.902 26.1825C21.908 26.1965 21.9159 26.2141 21.9258 26.233C21.9458 26.2709 21.9738 26.3136 22.0111 26.3441C22.0481 26.3743 22.094 26.3925 22.1508 26.3822C22.2081 26.3719 22.2779 26.3324 22.3616 26.2441L22.3618 26.2439C22.3622 26.2435 22.3634 26.2418 22.3651 26.2377C22.3667 26.2337 22.3685 26.2284 22.3703 26.2214C22.3739 26.2075 22.3777 26.188 22.3816 26.1625C22.3893 26.1118 22.3972 26.0382 22.4048 25.9404C22.42 25.745 22.4341 25.4533 22.4434 25.055C22.4622 24.2588 22.4622 23.0364 22.4154 21.3037L22.4145 21.3024C22.4128 21.3001 22.4103 21.2967 22.407 21.2923C22.4004 21.2835 22.3908 21.2709 22.3784 21.2554C22.3536 21.2245 22.3181 21.1826 22.275 21.1383C22.1911 21.0521 22.0796 20.9583 21.9638 20.9192L21.9285 21.2016C22.0083 21.2462 22.0726 21.3324 22.1232 21.4502C22.1751 21.5708 22.2131 21.7258 22.2385 21.906C22.2894 22.2664 22.2899 22.7294 22.2489 23.2255C22.1668 24.2175 21.9182 25.3438 21.5706 26.0484C21.5692 26.0511 21.5677 26.0581 21.5676 26.0694C21.5675 26.0802 21.5686 26.0938 21.5714 26.1087C21.577 26.1388 21.5895 26.1736 21.6118 26.2026C21.634 26.2314 21.6659 26.2546 21.7113 26.2618C21.7569 26.269 21.8171 26.2603 21.8957 26.2233L21.9037 26.2403C21.8229 26.2783 21.7588 26.2883 21.7084 26.2803C21.6576 26.2723 21.6216 26.2462 21.5969 26.2141C21.5724 26.1821 21.559 26.1443 21.553 26.1122C21.5499 26.0962 21.5487 26.0813 21.5488 26.0691C21.549 26.0574 21.5504 26.0468 21.5538 26.0401C21.8999 25.3385 22.1482 24.2148 22.2302 23.224C22.2712 22.7286 22.2705 22.2671 22.22 21.9086C22.1947 21.7293 22.157 21.5762 22.106 21.4576C22.0549 21.3388 21.991 21.2558 21.914 21.2151L21.9083 21.212L21.948 20.8945Z" fill="black"/>
<path fill-rule="evenodd" clip-rule="evenodd" d="M21.9424 25.8721C21.8998 25.9991 21.8773 26.1012 21.8908 26.1735L21.8724 26.177C21.8578 26.0993 21.8822 25.9928 21.9246 25.8661C21.9523 25.7835 21.9881 25.6911 22.0267 25.5913C22.0475 25.5377 22.0692 25.4819 22.0908 25.4243C22.215 25.094 22.3409 24.7017 22.3223 24.3007L22.341 24.2998C22.3598 24.705 22.2326 25.1003 22.1084 25.4309C22.0865 25.489 22.0648 25.545 22.044 25.5987C22.0054 25.6982 21.9699 25.7898 21.9424 25.8721ZM22.9973 26.2306C23.0346 25.8387 22.96 25.4276 22.7915 24.9597L22.8092 24.9533C22.9782 25.4228 23.0536 25.8368 23.016 26.2324L22.9973 26.2306Z" fill="black"/>
<path d="M23.5315 19.5003C23.644 19.369 23.644 19.369 23.8502 19.369C23.8877 19.0878 24.3565 19.0878 24.394 19.444C24.769 19.369 24.844 19.594 24.694 19.819C25.0502 19.7253 25.369 19.819 25.2752 20.2315C25.9127 20.4003 25.669 20.8503 25.3877 20.944C25.3502 21.2253 25.0877 21.319 24.7315 21.2065C24.2815 21.5253 24.019 21.4128 23.8127 21.094C23.3065 21.169 23.269 21.0565 23.044 20.7753C22.6502 20.944 22.5752 20.944 22.2377 20.7378C22.219 21.0003 22.1252 20.9253 21.9565 20.9065C21.9752 21.244 21.844 21.394 21.544 21.2815C21.769 21.7503 21.1877 21.9565 20.9065 21.5628C20.644 21.5815 20.6252 21.5065 20.494 21.4128C20.3815 21.7878 19.969 21.7315 19.894 21.5253C19.369 21.4503 19.4252 21.169 19.8565 21.1503C19.894 20.8503 20.1565 20.9065 20.3252 20.944C20.344 20.7565 20.4565 20.794 20.5502 20.8315C20.494 20.7003 20.5315 20.6253 20.7002 20.5878C20.4565 20.269 20.6065 20.1565 20.8502 20.044C20.719 19.744 20.944 19.7628 21.1127 19.744C21.094 19.4253 21.1877 19.369 21.5252 19.3315C21.4877 19.219 21.544 19.1253 21.7315 19.1253C21.619 18.8065 21.769 18.7315 22.1065 18.7878C22.1627 18.319 23.1565 18.544 23.0815 19.1815C23.3627 19.219 23.4565 19.2753 23.5315 19.5003Z" fill="#009A3B"/>
<path fill-rule="evenodd" clip-rule="evenodd" d="M22.2958 18.5704C22.1988 18.6042 22.129 18.6754 22.1154 18.7885L22.1142 18.7982L22.1045 18.7966C22.0205 18.7826 21.9487 18.7769 21.8899 18.7809C21.8311 18.7849 21.7864 18.7987 21.7556 18.8229C21.7253 18.8467 21.7075 18.8816 21.7041 18.9304C21.7007 18.9796 21.712 19.0426 21.7399 19.1218L21.7443 19.1343H21.7311C21.6385 19.1343 21.5809 19.1574 21.5506 19.192C21.5207 19.2262 21.5156 19.2739 21.5337 19.3282L21.5374 19.3392L21.5259 19.3404C21.4416 19.3498 21.3731 19.3603 21.3179 19.3756C21.2627 19.3909 21.2215 19.4109 21.1914 19.4388C21.1315 19.4942 21.1123 19.5839 21.1217 19.7431L21.1222 19.752L21.1134 19.7529C21.095 19.755 21.076 19.7566 21.057 19.7582C21.054 19.7584 21.051 19.7587 21.048 19.7589C21.026 19.7608 21.004 19.7628 20.9829 19.7655C20.9404 19.7711 20.9021 19.7797 20.8733 19.7963C20.845 19.8126 20.8259 19.8365 20.8211 19.874C20.8161 19.9123 20.8259 19.9655 20.8584 20.0399L20.8621 20.0483L20.8538 20.0521C20.7929 20.0802 20.7385 20.1081 20.6947 20.1389C20.6509 20.1697 20.6183 20.2031 20.6006 20.2421C20.5654 20.319 20.5858 20.4229 20.7073 20.5817L20.7162 20.5933L20.7019 20.5965C20.618 20.6152 20.5699 20.6425 20.5485 20.6789C20.5274 20.7148 20.5307 20.7627 20.5585 20.8274L20.5674 20.8482L20.5464 20.8398C20.5229 20.8305 20.4989 20.8213 20.4755 20.8156C20.4522 20.8099 20.4303 20.8079 20.4112 20.8122C20.3925 20.8163 20.3759 20.8266 20.3626 20.8468C20.3491 20.8674 20.3388 20.8985 20.3342 20.9446L20.3331 20.9551L20.3228 20.9528C20.238 20.9339 20.1322 20.9111 20.0431 20.9294C19.9989 20.9384 19.9593 20.9576 19.9284 20.9921C19.8975 21.0266 19.8746 21.0774 19.8654 21.151L19.8644 21.1589L19.8565 21.1592C19.7496 21.1639 19.6667 21.1848 19.6105 21.2141C19.5541 21.2436 19.5266 21.2805 19.5256 21.3166C19.5246 21.3526 19.5498 21.3928 19.6104 21.4292C19.6708 21.4656 19.7644 21.4969 19.8949 21.5156L19.9005 21.5164L19.9024 21.5217C19.9381 21.6199 20.0554 21.6841 20.179 21.6772C20.3016 21.6704 20.4295 21.5935 20.4846 21.4097L20.4884 21.3971L20.499 21.4047C20.5257 21.4238 20.5479 21.4422 20.5681 21.4589C20.573 21.463 20.5778 21.4669 20.5824 21.4708C20.6067 21.4906 20.6289 21.5077 20.655 21.5213C20.7067 21.5482 20.775 21.5623 20.9054 21.553L20.9107 21.5527L20.9137 21.5569C21.052 21.7506 21.2632 21.7957 21.4112 21.7365C21.4852 21.7069 21.5433 21.6514 21.5696 21.5751C21.5958 21.4989 21.5906 21.4007 21.5351 21.2852L21.525 21.2642L21.5469 21.2724C21.6956 21.3281 21.7988 21.3175 21.8629 21.2556C21.9277 21.193 21.9561 21.0749 21.9467 20.9066L21.9461 20.8956L21.9571 20.8968C21.9875 20.9002 22.0158 20.9054 22.0412 20.9101C22.0513 20.912 22.061 20.9138 22.0702 20.9153C22.103 20.9209 22.1294 20.9235 22.1507 20.9181C22.1711 20.913 22.1877 20.9005 22.2007 20.8731C22.214 20.8451 22.2233 20.802 22.228 20.7367L22.2291 20.7213L22.2422 20.7294C22.4112 20.8326 22.5123 20.8828 22.6198 20.8874C22.7274 20.892 22.8427 20.8508 23.0399 20.7663L23.0465 20.7635L23.0509 20.769C23.0696 20.7924 23.0869 20.8145 23.1033 20.8354C23.1365 20.8777 23.1658 20.9151 23.1945 20.9477C23.2372 20.9962 23.2779 21.0334 23.3269 21.0596C23.4248 21.1119 23.5581 21.1218 23.811 21.0844L23.8169 21.0835L23.8202 21.0885C23.9228 21.247 24.0381 21.3523 24.1821 21.3797C24.3261 21.4072 24.5016 21.3572 24.7257 21.1985L24.7295 21.1958L24.7339 21.1972C24.9109 21.2531 25.0632 21.2573 25.1754 21.2138C25.2868 21.1706 25.3597 21.0799 25.378 20.9424L25.3788 20.9366L25.3844 20.9347C25.5223 20.8887 25.6504 20.7554 25.6663 20.6145C25.6742 20.5445 25.6546 20.4722 25.594 20.4068C25.5333 20.3412 25.4308 20.2821 25.2724 20.2402L25.2637 20.2379L25.2657 20.2291C25.2889 20.127 25.2863 20.0457 25.2648 19.9825C25.2433 19.9195 25.2027 19.8738 25.1484 19.8432C25.039 19.7817 24.8732 19.781 24.696 19.8277L24.6721 19.834L24.6858 19.8134C24.7601 19.702 24.7764 19.5939 24.7325 19.5236C24.6889 19.4538 24.5819 19.4155 24.3954 19.4528L24.3853 19.4548L24.3843 19.4446C24.366 19.2714 24.2435 19.1855 24.121 19.1764C23.9979 19.1673 23.877 19.2355 23.8591 19.3699L23.858 19.378H23.8498C23.7982 19.378 23.7598 19.378 23.7295 19.38C23.6992 19.3821 23.6775 19.3861 23.6589 19.3937C23.6216 19.4091 23.595 19.4397 23.5382 19.506L23.5311 19.4999L23.5222 19.5028C23.485 19.3912 23.4436 19.3231 23.3781 19.2779C23.3121 19.2324 23.2204 19.2092 23.0799 19.1904L23.0707 19.1892L23.0718 19.18C23.1086 18.8673 22.8835 18.6549 22.64 18.5784C22.5183 18.5401 22.3933 18.5363 22.2958 18.5704ZM23.5347 19.4813C23.5836 19.4243 23.6121 19.3927 23.6517 19.3764C23.673 19.3676 23.697 19.3634 23.7282 19.3613C23.7577 19.3594 23.7943 19.3593 23.8418 19.3593C23.8651 19.2178 23.9948 19.1483 24.1224 19.1577C24.2506 19.1672 24.3788 19.2562 24.4017 19.4325C24.5845 19.398 24.6992 19.4349 24.7484 19.5137C24.7953 19.5887 24.7794 19.6966 24.7142 19.8038C24.8848 19.7625 25.0469 19.7646 25.1576 19.8269C25.2157 19.8596 25.2595 19.9088 25.2825 19.9764C25.3049 20.042 25.3075 20.1242 25.2859 20.2244C25.4415 20.2667 25.5449 20.3262 25.6078 20.3941C25.672 20.4635 25.6934 20.5412 25.6849 20.6166C25.6683 20.7643 25.537 20.9012 25.3958 20.9506C25.3754 21.0912 25.2988 21.186 25.1821 21.2313C25.0655 21.2765 24.9101 21.2718 24.7327 21.2165C24.5086 21.3744 24.329 21.4268 24.1786 21.3982C24.0288 21.3696 23.9107 21.2613 23.8078 21.1038C23.5582 21.1403 23.4209 21.1311 23.3181 21.0761C23.2663 21.0484 23.2238 21.0094 23.1804 20.9601C23.1513 20.9271 23.1215 20.889 23.0881 20.8464C23.0731 20.8273 23.0574 20.8072 23.0407 20.7863C22.8481 20.8687 22.7304 20.9109 22.619 20.9061C22.509 20.9014 22.4065 20.8511 22.2455 20.7533C22.2404 20.8112 22.2313 20.8524 22.2177 20.8811C22.2026 20.9129 22.1817 20.9297 22.1552 20.9363C22.1297 20.9427 22.0998 20.9394 22.067 20.9338C22.0573 20.9322 22.0474 20.9303 22.0371 20.9284C22.015 20.9244 21.9915 20.92 21.966 20.9168C21.9736 21.0804 21.9454 21.202 21.8759 21.2691C21.8074 21.3353 21.702 21.3457 21.5614 21.2975C21.6097 21.4078 21.6139 21.504 21.5873 21.5813C21.5591 21.6632 21.4966 21.7225 21.4182 21.7539C21.2626 21.8161 21.0445 21.7686 20.9015 21.5721C20.7727 21.5808 20.7016 21.5667 20.6463 21.5379C20.6184 21.5233 20.595 21.5053 20.5706 21.4853C20.5657 21.4813 20.5609 21.4773 20.556 21.4732C20.5385 21.4588 20.5201 21.4435 20.4986 21.4276C20.4392 21.6099 20.3077 21.6889 20.18 21.696C20.0527 21.703 19.9282 21.6383 19.8868 21.5334C19.7577 21.5144 19.6632 21.4829 19.6008 21.4453C19.5378 21.4074 19.5056 21.362 19.5069 21.316C19.5082 21.27 19.5428 21.2284 19.6018 21.1975C19.6597 21.1673 19.7429 21.1463 19.8478 21.1409C19.858 21.0686 19.8815 21.0164 19.9144 20.9796C19.9486 20.9414 19.9922 20.9207 20.0394 20.911C20.1293 20.8926 20.2342 20.914 20.3167 20.9322C20.3219 20.8899 20.3323 20.8587 20.3469 20.8365C20.3629 20.8122 20.3837 20.7991 20.4072 20.7939C20.4303 20.7887 20.4553 20.7914 20.48 20.7974C20.4977 20.8017 20.5157 20.8079 20.5331 20.8145C20.5118 20.757 20.5093 20.7086 20.5324 20.6693C20.5565 20.6284 20.6067 20.6004 20.6837 20.5815C20.5689 20.4277 20.5447 20.3192 20.5835 20.2343C20.6032 20.1912 20.6386 20.1554 20.6839 20.1236C20.7271 20.0932 20.7798 20.0659 20.8376 20.039C20.8073 19.9675 20.7971 19.9132 20.8025 19.8716C20.8081 19.8277 20.8312 19.7989 20.8639 19.78C20.8961 19.7615 20.9374 19.7525 20.9805 19.7469C21.0021 19.7441 21.0244 19.7421 21.0464 19.7403C21.0494 19.74 21.0524 19.7398 21.0554 19.7395C21.0714 19.7382 21.0871 19.7368 21.1025 19.7353C21.0943 19.5809 21.1132 19.4856 21.1786 19.425C21.2118 19.3943 21.2561 19.3733 21.3129 19.3575C21.367 19.3425 21.4331 19.3322 21.5125 19.3231C21.4972 19.2689 21.5031 19.2179 21.5365 19.1796C21.5703 19.1411 21.6302 19.1178 21.718 19.1157C21.6927 19.041 21.682 18.9792 21.6854 18.9291C21.6891 18.876 21.7088 18.8358 21.744 18.8081C21.7789 18.7807 21.828 18.7664 21.8886 18.7622C21.9471 18.7582 22.0174 18.7636 22.0981 18.7766C22.1154 18.6609 22.1896 18.5875 22.2896 18.5526C22.3919 18.517 22.5212 18.5214 22.6456 18.5605C22.8919 18.6379 23.1242 18.8533 23.0914 19.1731C23.2272 19.1916 23.3203 19.2153 23.3888 19.2625C23.4559 19.3088 23.4981 19.3769 23.5347 19.4813Z" fill="black"/>
<path fill-rule="evenodd" clip-rule="evenodd" d="M22.9905 19.2425C23.0268 19.2221 23.0566 19.2019 23.074 19.1758L23.0896 19.1862C23.0695 19.2163 23.0361 19.2383 22.9997 19.2589C22.989 19.2649 22.978 19.2709 22.9669 19.2769C22.9397 19.2915 22.9119 19.3066 22.8856 19.3246C22.8488 19.3499 22.8162 19.3805 22.7949 19.4225C22.7736 19.4645 22.7632 19.5188 22.7724 19.5923L22.7554 19.5989C22.71 19.5352 22.6419 19.4946 22.5766 19.4856C22.5117 19.4766 22.4502 19.4989 22.415 19.5606L22.3987 19.5513C22.4384 19.4818 22.5082 19.4572 22.5792 19.467C22.6408 19.4755 22.7038 19.5098 22.7509 19.5631C22.7475 19.5019 22.7582 19.4534 22.7781 19.414C22.8014 19.3682 22.8367 19.3355 22.8749 19.3092C22.9021 19.2905 22.9314 19.2747 22.9589 19.2598C22.9698 19.254 22.9804 19.2482 22.9905 19.2425ZM21.5774 19.358C21.5592 19.3535 21.5398 19.3486 21.5214 19.3394L21.5298 19.3226C21.5463 19.3309 21.5638 19.3353 21.5823 19.34C21.5836 19.3403 21.5849 19.3406 21.5862 19.3409C21.6058 19.3459 21.6263 19.3514 21.6452 19.3628C21.6805 19.384 21.7075 19.4237 21.7193 19.5089C21.7532 19.456 21.7891 19.422 21.8251 19.4051C21.8667 19.3856 21.9076 19.3893 21.9431 19.4122C21.9782 19.4347 22.0073 19.4753 22.0277 19.5286C22.0481 19.582 22.0599 19.6488 22.0599 19.7247H22.0412C22.0412 19.6507 22.0296 19.5862 22.0102 19.5353C21.9907 19.4843 21.9636 19.4476 21.933 19.4279C21.9029 19.4086 21.8688 19.4053 21.8331 19.4221C21.7968 19.4391 21.7582 19.4771 21.7212 19.5419L21.7064 19.5677L21.7037 19.5381C21.6945 19.4362 21.667 19.3977 21.6356 19.3789C21.6193 19.3691 21.6013 19.3641 21.5816 19.3591C21.5802 19.3588 21.5788 19.3584 21.5774 19.358ZM23.5038 19.6903C23.5178 19.6111 23.5224 19.5367 23.5224 19.4997H23.5412C23.5412 19.5378 23.5365 19.6133 23.5223 19.6935C23.5082 19.7735 23.4845 19.8595 23.4459 19.9174L23.4303 19.907C23.4666 19.8525 23.4898 19.7697 23.5038 19.6903ZM24.6858 19.8204C24.6859 19.8233 24.6875 19.8249 24.6877 19.8251L24.701 19.8119C24.7023 19.8132 24.7045 19.8159 24.7046 19.8199C24.7047 19.8242 24.7023 19.8272 24.7006 19.8287C24.6989 19.8302 24.6969 19.8311 24.6955 19.8316C24.6939 19.8322 24.6921 19.8327 24.6903 19.8332C24.6834 19.8348 24.6728 19.836 24.66 19.8372C24.6516 19.838 24.642 19.8387 24.6315 19.8396C24.6094 19.8413 24.5833 19.8434 24.5547 19.8465C24.4703 19.8559 24.3694 19.8746 24.306 19.9199L24.2951 19.9046C24.363 19.8562 24.4684 19.8373 24.5527 19.8279C24.5815 19.8247 24.6083 19.8226 24.6305 19.8208C24.6409 19.82 24.6502 19.8193 24.6583 19.8185C24.6713 19.8173 24.6806 19.8162 24.686 19.8149C24.6873 19.8146 24.6881 19.8143 24.6887 19.8142C24.6893 19.8139 24.6889 19.8139 24.6883 19.8145C24.6876 19.8151 24.6858 19.8171 24.6858 19.8204ZM21.676 20.0267C21.6112 20.0468 21.5236 20.1148 21.4209 20.2736L21.4103 20.29L21.4042 20.2714C21.3906 20.2308 21.3705 20.2031 21.3469 20.1841C21.3232 20.1651 21.2954 20.1544 21.266 20.1488C21.2365 20.1431 21.2057 20.1425 21.176 20.1434C21.1639 20.1437 21.1516 20.1444 21.1398 20.145C21.1234 20.1458 21.1079 20.1466 21.0943 20.1466V20.1279C21.1077 20.1279 21.1222 20.1271 21.1379 20.1263C21.1497 20.1257 21.1623 20.125 21.1755 20.1246C21.2056 20.1238 21.2381 20.1243 21.2695 20.1304C21.3011 20.1364 21.3319 20.1481 21.3586 20.1695C21.3816 20.1879 21.4011 20.2133 21.4154 20.2479C21.5147 20.0986 21.6017 20.0301 21.6705 20.0087C21.7425 19.9864 21.7943 20.0161 21.8152 20.058L21.7984 20.0664C21.7819 20.0333 21.7399 20.0068 21.676 20.0267ZM22.4582 20.0913C22.356 20.0286 22.2561 20.0069 22.1851 20.0335L22.1785 20.016C22.2576 19.9863 22.3639 20.0115 22.468 20.0753C22.568 20.1367 22.6678 20.2349 22.7425 20.3594C22.7795 20.2675 22.8255 20.2269 22.8771 20.2081C22.904 20.1983 22.932 20.1947 22.9597 20.1923C22.967 20.1917 22.9743 20.1912 22.9815 20.1907C23.0021 20.1891 23.0223 20.1876 23.0428 20.1842L23.0459 20.2027C23.0245 20.2063 23.003 20.2079 22.9822 20.2094C22.9751 20.2099 22.9682 20.2104 22.9613 20.211C22.934 20.2134 22.908 20.2168 22.8835 20.2257C22.8352 20.2433 22.79 20.2828 22.7531 20.3842L22.7462 20.4032L22.7362 20.3856C22.6619 20.2557 22.5599 20.1537 22.4582 20.0913ZM24.0491 20.4145C23.9739 20.362 23.879 20.3349 23.7608 20.3895L23.7529 20.3725C23.8784 20.3146 23.9803 20.3437 24.0598 20.3991C24.1275 20.4462 24.1793 20.5127 24.216 20.5599C24.2193 20.5641 24.2224 20.5681 24.2254 20.572C24.2797 20.5022 24.3304 20.4659 24.3817 20.4472C24.4349 20.4279 24.4878 20.4279 24.5436 20.4279H24.5443V20.4466C24.4878 20.4466 24.4379 20.4467 24.3882 20.4648C24.3387 20.4828 24.2885 20.5189 24.2331 20.5929L24.2258 20.6025L24.2183 20.5931C24.2128 20.5863 24.207 20.5789 24.2009 20.571C24.1641 20.5238 24.1142 20.4598 24.0491 20.4145ZM23.0297 20.7178C23.0324 20.7386 23.0349 20.7583 23.0349 20.7747H23.0162C23.0162 20.7597 23.0138 20.7414 23.0111 20.7206C23.0106 20.7166 23.0101 20.7124 23.0095 20.7082C23.0063 20.6827 23.0033 20.6545 23.0045 20.6267C23.0057 20.5988 23.0112 20.5708 23.0253 20.546C23.0396 20.5209 23.0623 20.4997 23.0969 20.4849L23.1043 20.5021C23.0732 20.5154 23.0537 20.534 23.0416 20.5553C23.0294 20.5767 23.0244 20.6014 23.0232 20.6275C23.0221 20.6536 23.0249 20.6804 23.0281 20.7059C23.0286 20.7099 23.0292 20.7139 23.0297 20.7178ZM20.8924 20.5474C20.8229 20.5451 20.7606 20.5592 20.726 20.5939L20.7127 20.5806C20.753 20.5403 20.822 20.5263 20.8931 20.5286C20.9646 20.531 21.041 20.5501 21.0985 20.5788L21.0901 20.5956C21.0352 20.5681 20.9615 20.5497 20.8924 20.5474ZM21.8252 20.6009C21.7925 20.6336 21.7695 20.6915 21.7786 20.7737L21.7807 20.7925L21.7645 20.7828C21.6742 20.7286 21.5491 20.7474 21.4961 20.8358L21.48 20.8262C21.5364 20.7322 21.6627 20.7106 21.7585 20.7581C21.7538 20.6805 21.7769 20.6226 21.8119 20.5876C21.8494 20.5502 21.9005 20.5392 21.9423 20.5601L21.9339 20.5769C21.9006 20.5602 21.858 20.5681 21.8252 20.6009ZM25.0598 20.9363C25.0589 20.8967 25.0548 20.8403 25.0334 20.7898C25.02 20.7582 24.9997 20.7285 24.969 20.7067C24.9382 20.6849 24.8975 20.6716 24.8443 20.6716V20.6904C24.8943 20.6904 24.931 20.7028 24.9581 20.722C24.9854 20.7413 25.0038 20.7679 25.0162 20.7971C25.0411 20.8561 25.0412 20.9245 25.0412 20.9622V20.9904L25.0581 20.9679C25.0853 20.9316 25.1144 20.9105 25.1435 20.8995C25.1727 20.8885 25.2027 20.8873 25.232 20.8918C25.2824 20.8996 25.3296 20.9239 25.3661 20.9428C25.3724 20.946 25.3783 20.9491 25.3839 20.9519L25.3923 20.9351C25.387 20.9325 25.3813 20.9295 25.3752 20.9264C25.3389 20.9076 25.2886 20.8816 25.2348 20.8733C25.2031 20.8684 25.1698 20.8696 25.1369 20.882C25.1102 20.8921 25.0841 20.9094 25.0598 20.9363ZM24.0025 20.8969C24.04 20.8953 24.0796 20.9067 24.1187 20.936L24.1074 20.951C24.0716 20.9241 24.0361 20.9143 24.0033 20.9156C23.9703 20.917 23.9392 20.9297 23.9122 20.9488C23.8852 20.9679 23.8627 20.9933 23.8469 21.0195C23.831 21.0459 23.8224 21.0723 23.8224 21.0935H23.8037C23.8037 21.0678 23.8139 21.038 23.8308 21.0098C23.8478 20.9816 23.8721 20.9542 23.9014 20.9335C23.9307 20.9128 23.9652 20.8985 24.0025 20.8969ZM24.7173 21.0039C24.7318 21.0497 24.7412 21.1117 24.7412 21.206H24.7224C24.7224 21.1128 24.7131 21.0529 24.6994 21.0096C24.6858 20.9664 24.6677 20.9392 24.649 20.9112L24.6646 20.9008L24.6647 20.9009C24.6835 20.9291 24.7029 20.9581 24.7173 21.0039ZM21.0457 21.2687C21.033 21.1951 20.9854 21.127 20.9147 21.1011C20.8398 21.0736 20.7424 21.0947 20.6377 21.1994L20.651 21.2126C20.7525 21.111 20.8426 21.0946 20.9083 21.1187C20.9747 21.143 21.0197 21.2099 21.0288 21.2821L21.0287 21.2821L21.0289 21.2828C21.0331 21.3037 21.029 21.3189 21.0199 21.3331C21.0118 21.3459 20.9998 21.3577 20.9852 21.3722C20.9828 21.3746 20.9802 21.3772 20.9775 21.3798C20.9417 21.4156 20.8981 21.4641 20.8789 21.5604L20.8973 21.5641C20.9155 21.4729 20.9563 21.4276 20.9908 21.3931C20.9933 21.3906 20.9957 21.3882 20.9982 21.3857C21.0126 21.3714 21.0264 21.3579 21.0357 21.3431C21.0459 21.3271 21.0512 21.3095 21.0486 21.2874C21.101 21.2712 21.1529 21.2674 21.1961 21.2738C21.2416 21.2807 21.2761 21.2987 21.2928 21.3237L21.3084 21.3133C21.2876 21.282 21.247 21.2625 21.1988 21.2553C21.1533 21.2485 21.0997 21.2524 21.0457 21.2687Z" fill="black"/>
<path d="M22.2562 16.9217L21.8438 16.9404L21.6375 17.3154L21.4125 16.9592L21 16.9779L21.1875 16.6029L20.9625 16.2561L21.3938 16.2373L21.5813 15.8623L21.8063 16.2186L22.2188 16.1998L22.0312 16.5748L22.2562 16.9217ZM20.4938 17.0623L20.0813 17.1561L19.9688 17.5592L19.6687 17.2592L19.275 17.3529L19.3875 16.9592L19.1062 16.6592L19.5 16.5561L19.6125 16.1529L19.9125 16.4529L20.325 16.3592L20.1937 16.7623L20.4938 17.0623ZM18.7875 17.4092L18.4125 17.5967L18.3938 18.0092L18.0375 17.7842L17.6625 17.9717L17.7 17.5498L17.3438 17.3248L17.7188 17.1373L17.7562 16.7154L18.0938 16.9498L18.4688 16.7623L18.45 17.1748L18.7875 17.4092ZM22.8 16.9217L23.2125 16.9404L23.4 17.3154L23.625 16.9592L24.0375 16.9779L23.85 16.6029L24.075 16.2561L23.6625 16.2373L23.4563 15.8623L23.2312 16.2186L22.8187 16.1998L23.0062 16.5748L22.8 16.9217ZM24.5625 17.0623L24.9563 17.1561L25.0687 17.5592L25.3688 17.2592L25.7625 17.3529L25.65 16.9592L25.95 16.6592L25.5375 16.5561L25.425 16.1529L25.125 16.4529L24.7312 16.3592L24.8438 16.7623L24.5625 17.0623ZM26.25 17.4092L26.625 17.5967L26.6438 18.0092L27 17.7842L27.375 17.9717L27.3562 17.5498L27.6937 17.3248L27.3187 17.1373L27.3 16.7154L26.9437 16.9498L26.5687 16.7623L26.6062 17.1748L26.25 17.4092Z" fill="#FFD700"/>
<path fill-rule="evenodd" clip-rule="evenodd" d="M21.5782 15.7959L21.8241 16.1852L22.2734 16.1648L22.0693 16.573L22.3152 16.9522L21.8639 16.9727L21.6398 17.3803L21.3952 16.9931L20.946 17.0136L21.1501 16.6054L20.9041 16.2261L21.3733 16.2057L21.5782 15.7959ZM23.4585 15.7981L23.6827 16.2057L24.134 16.2262L23.8881 16.6054L24.0922 17.0136L23.6429 16.9931L23.397 17.3825L23.1921 16.9726L22.7441 16.9523L22.9692 16.5738L22.7647 16.1648L23.214 16.1852L23.4585 15.7981ZM23.4546 15.9272L23.2491 16.2525L22.8734 16.2354L23.0439 16.5765L22.8565 16.8917L23.2335 16.9088L23.4036 17.249L23.6077 16.9258L23.9835 16.9429L23.8126 16.6011L24.0166 16.2865L23.6429 16.2696L23.4546 15.9272ZM21.5849 15.9293L21.789 16.2525L22.1647 16.2354L21.9938 16.5772L22.1979 16.8918L21.8242 16.9088L21.6359 17.2512L21.4304 16.9258L21.0547 16.9429L21.2256 16.6011L21.0216 16.2867L21.4148 16.2696L21.5849 15.9293ZM19.5963 16.0903L19.9232 16.4172L20.3744 16.3147L20.2315 16.7536L20.5593 17.0814L20.1079 17.184L19.9856 17.6224L19.6588 17.2957L19.2284 17.3982L19.3511 16.9684L19.0449 16.6417L19.4738 16.5294L19.5963 16.0903ZM25.4418 16.0903L25.5643 16.5292L26.0145 16.6417L25.6872 16.969L25.8098 17.3982L25.3793 17.2957L25.0525 17.6224L24.9302 17.1838L24.5002 17.0814L24.8075 16.7536L24.685 16.3147L25.1151 16.4171L25.4418 16.0903ZM25.4088 16.2162L25.1355 16.4894L24.7781 16.4043L24.8806 16.7716L24.6254 17.0438L24.983 17.1289L25.0856 17.4966L25.3588 17.2233L25.7159 17.3083L25.6135 16.9499L25.8861 16.6773L25.5113 16.5836L25.4088 16.2162ZM19.6293 16.2162L19.5268 16.5833L19.1682 16.6773L19.4245 16.9506L19.3223 17.3083L19.6793 17.2233L19.9526 17.4966L20.0552 17.1287L20.4288 17.0438L20.1566 16.7716L20.2762 16.4043L19.9024 16.4893L19.6293 16.2162ZM17.7289 16.6566L18.0968 16.9121L18.5044 16.7083L18.4839 17.1585L18.852 17.4141L18.4447 17.6177L18.4243 18.0674L18.0359 17.8221L17.6249 18.0276L17.6659 17.5672L17.2773 17.3218L17.688 17.1165L17.7289 16.6566ZM27.3305 16.6566L27.351 17.1169L27.7593 17.3211L27.3902 17.5671L27.4106 18.0263L27.0022 17.8221L26.6138 18.0674L26.5934 17.6177L26.1847 17.4134L26.5721 17.1585L26.531 16.7069L26.9418 16.9123L27.3305 16.6566ZM27.2701 16.7749L26.9463 16.9879L26.6071 16.8183L26.641 17.1917L26.3159 17.4056L26.6572 17.5763L26.6743 17.9516L26.9984 17.7469L27.34 17.9177L27.323 17.5331L27.6288 17.3292L27.2871 17.1583L27.2701 16.7749ZM17.7842 16.7749L17.7501 17.1588L17.4108 17.3284L17.7348 17.5331L17.7007 17.9164L18.0397 17.7469L18.3638 17.9516L18.3809 17.5763L18.7237 17.4049L18.4167 17.1917L18.4337 16.817L18.0913 16.9882L17.7842 16.7749Z" fill="black"/>
<path d="M26.7564 25.351L27.2252 26.026L27.6564 25.3885L27.3564 24.8447L26.7564 25.351ZM23.7752 27.3197L23.8127 27.9947C23.8127 27.9947 24.0002 27.9947 24.1689 27.9385C24.3189 27.8822 24.4502 27.7697 24.4502 27.7697L24.4314 27.4135L23.7752 27.3197ZM21.2627 27.3197L21.2252 27.976C21.2252 27.976 21.0564 27.976 20.8877 27.9385C20.7377 27.901 20.6064 27.8072 20.6064 27.8072L20.4189 27.3572L21.2627 27.3197ZM18.2439 25.351L17.7564 26.026L17.2314 25.1635L17.6252 24.751L18.2439 25.351Z" fill="white"/>
<path fill-rule="evenodd" clip-rule="evenodd" d="M17.6244 24.7041L18.2873 25.3469L17.7542 26.085L17.1904 25.1587L17.6244 24.7041ZM17.6262 24.7973L17.2727 25.1676L17.7589 25.9664L18.2008 25.3545L17.6262 24.7973ZM27.366 24.7936L27.695 25.3899L27.2257 26.0837L26.7126 25.3449L27.366 24.7936ZM26.8005 25.3565L27.2249 25.9676L27.6181 25.3864L27.3471 24.8953L26.8005 25.3565ZM23.7403 27.2813L24.4629 27.3845L24.4839 27.7838L24.4717 27.7943L24.4503 27.7694C24.4717 27.7943 24.4717 27.7943 24.4717 27.7943L24.4715 27.7945L24.4711 27.7948L24.4699 27.7958C24.4688 27.7968 24.4672 27.7981 24.4652 27.7997C24.4611 27.8031 24.4552 27.8079 24.4476 27.8138C24.4325 27.8255 24.4109 27.8418 24.3844 27.8598C24.3317 27.8957 24.259 27.9395 24.1806 27.9689L24.1794 27.9693C24.0919 27.9985 24.0002 28.0129 23.931 28.02C23.8963 28.0236 23.8669 28.0254 23.8462 28.0263C23.8358 28.0268 23.8275 28.027 23.8218 28.0271C23.819 28.0272 23.8168 28.0272 23.8153 28.0272L23.8135 28.0272L23.813 28.0272H23.8129C23.8129 28.0272 23.8128 28.0272 23.8128 27.9944L23.8129 28.0272L23.7818 28.0272L23.7403 27.2813ZM23.8438 27.9607C23.8634 27.9599 23.8913 27.9582 23.9243 27.9548C23.9908 27.9479 24.077 27.9342 24.1581 27.9072C24.2295 27.8804 24.2971 27.8399 24.3474 27.8056C24.3725 27.7885 24.3931 27.7731 24.4073 27.762C24.4108 27.7593 24.4139 27.7568 24.4167 27.7546L24.4002 27.4418L23.8103 27.3576L23.8438 27.9607ZM21.2976 27.285L21.2563 28.0085H21.2253H21.2251L21.2247 28.0085L21.2231 28.0085L21.2172 28.0084C21.2121 28.0083 21.2047 28.0082 21.1953 28.0079C21.1764 28.0073 21.1496 28.0061 21.1174 28.0037C21.0532 27.999 20.9671 27.9894 20.8807 27.9702L20.8798 27.97C20.8011 27.9503 20.7281 27.9161 20.6752 27.8873C20.6486 27.8728 20.6269 27.8595 20.6117 27.8498C20.6041 27.8449 20.5982 27.841 20.594 27.8382C20.592 27.8368 20.5904 27.8357 20.5893 27.8349L20.588 27.834L20.5875 27.8337C20.5875 27.8337 20.5875 27.8336 20.6065 27.8069L20.5875 27.8337L20.5799 27.8282L20.3707 27.3262L21.2976 27.285ZM20.6331 27.7854C20.6366 27.7877 20.6413 27.7908 20.6471 27.7945C20.6612 27.8036 20.6816 27.8161 20.7066 27.8297C20.7568 27.857 20.8242 27.8884 20.8953 27.9062C20.9775 27.9245 21.06 27.9337 21.1223 27.9383C21.1517 27.9405 21.1765 27.9416 21.1943 27.9422L21.228 27.3538L20.4674 27.3876L20.6331 27.7854Z" fill="black"/>
<path d="M20.5879 28.6695C20.5879 29.307 24.4504 29.307 24.4504 28.6695V27.7695C24.4504 28.2383 20.5879 28.1445 20.5879 27.7695V28.6695Z" fill="white"/>
<path fill-rule="evenodd" clip-rule="evenodd" d="M24.3849 27.8263C24.4089 27.8051 24.4172 27.7863 24.4172 27.7695H24.4828V28.6695C24.4828 28.7678 24.4085 28.846 24.3002 28.9073C24.1904 28.9694 24.0359 29.02 23.8535 29.0602C23.4883 29.1405 23.0029 29.1805 22.5187 29.1805C22.0346 29.1805 21.5492 29.1405 21.184 29.0602C21.0016 29.02 20.8471 28.9694 20.7373 28.9073C20.629 28.846 20.5547 28.7678 20.5547 28.6695V27.7695H20.6203C20.6203 27.7776 20.6255 27.7915 20.6505 27.8102C20.675 27.8285 20.7129 27.8472 20.7645 27.8655C20.8671 27.902 21.0155 27.9342 21.1959 27.9612C21.556 28.0151 22.0373 28.0473 22.5191 28.0531C23.0011 28.059 23.4821 28.0385 23.8419 27.9875C24.0221 27.962 24.17 27.9291 24.272 27.889C24.3231 27.8688 24.3607 27.8477 24.3849 27.8263ZM24.4172 27.8848C24.3859 27.9094 24.3445 27.9309 24.296 27.95C24.1868 27.993 24.033 28.0268 23.8511 28.0525C23.4867 28.1041 23.002 28.1246 22.5184 28.1187C22.0346 28.1129 21.5502 28.0806 21.1862 28.0261C21.0044 27.9989 20.8511 27.9659 20.7425 27.9273C20.6933 27.9099 20.6516 27.8907 20.6203 27.8693V28.6695C20.6203 28.7307 20.6667 28.7919 20.7696 28.8502C20.8711 28.9076 21.0183 28.9565 21.1981 28.9961C21.5571 29.0751 22.0373 29.1148 22.5187 29.1148C23.0002 29.1148 23.4804 29.0751 23.8394 28.9961C24.0192 28.9565 24.1664 28.9076 24.2679 28.8502C24.3708 28.7919 24.4172 28.7307 24.4172 28.6695V27.8848Z" fill="black"/>
<path d="M17.1377 26.5885C17.4752 28.3135 20.5877 28.351 20.5877 28.351V27.7697C20.5127 27.5447 20.6439 27.4697 21.1502 27.3947C21.3564 27.376 21.2627 27.076 21.2627 27.076C21.2627 27.076 19.9127 27.3197 18.9564 26.9447C17.6627 26.4197 17.4752 25.4072 17.4752 25.4072C17.4752 25.4072 17.3814 26.1947 17.1377 26.5885ZM27.8814 26.5885C27.5627 28.3135 24.4502 28.351 24.4502 28.351V27.7697C24.5064 27.5447 24.3752 27.4697 23.8689 27.3947C23.6627 27.376 23.7752 27.076 23.7752 27.076C23.7752 27.076 25.1252 27.3197 26.0814 26.9447C27.3564 26.4197 27.5064 25.4072 27.5064 25.4072C27.5064 25.4072 27.6377 26.1947 27.8814 26.5885Z" fill="white"/>
<path fill-rule="evenodd" clip-rule="evenodd" d="M17.7581 25.9603C17.9634 26.274 18.3286 26.6537 18.9686 26.9134C19.4405 27.0984 20.0117 27.1314 20.4671 27.1173C20.6945 27.1103 20.8921 27.0917 21.0329 27.0748C21.1032 27.0663 21.1594 27.0583 21.1978 27.0524C21.2171 27.0495 21.2319 27.0471 21.2419 27.0454C21.2445 27.045 21.2467 27.0446 21.2487 27.0443C21.2505 27.044 21.2519 27.0437 21.2531 27.0435L21.256 27.043L21.2566 27.0429L21.2568 27.0429L21.2627 27.0751C21.294 27.0654 21.294 27.0654 21.294 27.0654L21.2941 27.0657L21.2944 27.0665L21.2952 27.0694C21.2959 27.0718 21.2969 27.0753 21.298 27.0797C21.3003 27.0885 21.3034 27.101 21.3063 27.116C21.3121 27.1458 21.3178 27.1865 21.3166 27.2285C21.3153 27.27 21.3071 27.3162 21.2822 27.3542C21.2563 27.3936 21.2145 27.4207 21.1541 27.4265C21.0283 27.4451 20.9268 27.4636 20.8463 27.4843C20.7653 27.505 20.7078 27.5274 20.6688 27.5527C20.6307 27.5774 20.6119 27.6038 20.6046 27.6337C20.597 27.6649 20.6009 27.7049 20.6188 27.7585L20.6205 27.7636V28.3833L20.5873 28.3829L20.5877 28.3501C20.5873 28.3829 20.5873 28.3829 20.5873 28.3829L20.5871 28.3829L20.5866 28.3829L20.5849 28.3829L20.578 28.3828C20.572 28.3827 20.5632 28.3824 20.5516 28.3821C20.5285 28.3814 20.4947 28.3801 20.4516 28.3779C20.3654 28.3735 20.2419 28.3653 20.0927 28.35C19.7945 28.3194 19.393 28.2605 18.9806 28.1474C18.1594 27.9222 17.2782 27.4769 17.1055 26.5939L17.1377 26.5876L17.1098 26.5704C17.2285 26.3786 17.312 26.0881 17.3658 25.8423C17.3926 25.7201 17.4118 25.61 17.4243 25.5305C17.4306 25.4907 17.4351 25.4587 17.4382 25.4366C17.4397 25.4255 17.4408 25.417 17.4415 25.4112L17.4423 25.4047L17.4425 25.403L17.4426 25.4025L17.5073 25.4004C17.5074 25.4004 17.5074 25.4004 17.5074 25.4004L17.5075 25.4009L17.5079 25.4027C17.5083 25.4045 17.5088 25.4072 17.5096 25.4107C17.5112 25.4179 17.5138 25.4286 17.5175 25.4425C17.5249 25.4703 17.537 25.5109 17.5555 25.5615C17.5926 25.6626 17.6554 25.8033 17.7581 25.9603ZM17.4858 25.5616C17.4731 25.6399 17.4547 25.7429 17.4299 25.8564C17.3769 26.0984 17.2937 26.392 17.1724 26.5938C17.3429 27.4277 18.1825 27.8605 18.9979 28.0841C19.4058 28.196 19.8035 28.2543 20.0994 28.2847C20.2473 28.2999 20.3697 28.308 20.455 28.3124C20.4976 28.3146 20.531 28.3158 20.5536 28.3165C20.554 28.3165 20.5545 28.3165 20.5549 28.3165V27.7741C20.5365 27.7173 20.5294 27.6652 20.5408 27.6182C20.5529 27.5684 20.5845 27.5292 20.6331 27.4976C20.6809 27.4666 20.7464 27.4421 20.83 27.4207C20.914 27.3992 21.0184 27.3802 21.1454 27.3614L21.1463 27.3613L21.1472 27.3612C21.1894 27.3574 21.213 27.34 21.2273 27.3182C21.2428 27.2946 21.2499 27.2623 21.251 27.2265C21.252 27.1912 21.2472 27.1557 21.2419 27.1286C21.2408 27.1228 21.2396 27.1174 21.2385 27.1125C21.23 27.1139 21.2197 27.1155 21.2078 27.1173C21.1687 27.1233 21.1118 27.1314 21.0407 27.1399C20.8985 27.157 20.6988 27.1759 20.4692 27.1829C20.0106 27.197 19.4288 27.1644 18.9444 26.9744L18.9441 26.9743C18.2905 26.7091 17.9151 26.32 17.7032 25.9962C17.5973 25.8345 17.5324 25.6892 17.4939 25.5841C17.491 25.5764 17.4884 25.5688 17.4858 25.5616ZM21.2627 27.0751L21.294 27.0654L21.2853 27.0377L21.2568 27.0429L21.2627 27.0751ZM27.4741 25.4016L27.5388 25.401L27.5389 25.4015L27.5392 25.4032L27.5403 25.4097C27.5413 25.4155 27.5428 25.4241 27.5448 25.4351C27.5489 25.4572 27.5549 25.4893 27.5629 25.5291C27.5789 25.6087 27.6028 25.7188 27.6343 25.8412C27.6975 26.087 27.7903 26.3781 27.9093 26.5704L27.8814 26.5876L27.9137 26.5936C27.7505 27.4768 26.8738 27.9222 26.055 28.1474C25.6437 28.2605 25.2428 28.3194 24.9448 28.35C24.7958 28.3653 24.6724 28.3735 24.5862 28.3779C24.5431 28.3801 24.5093 28.3814 24.4862 28.3821C24.4747 28.3824 24.4658 28.3827 24.4598 28.3828L24.453 28.3829L24.4512 28.3829L24.4507 28.3829L24.4506 28.3829C24.4506 28.3829 24.4506 28.3829 24.4502 28.3501L24.4506 28.3829L24.4174 28.3833V27.7649L24.4183 27.7609C24.4317 27.7075 24.4327 27.6674 24.4229 27.6356C24.4134 27.6049 24.3925 27.5778 24.353 27.5529C24.3127 27.5274 24.2544 27.505 24.1731 27.4843C24.0923 27.4636 23.9908 27.4451 23.865 27.4265C23.8045 27.4207 23.7633 27.3934 23.7391 27.3531C23.716 27.3145 23.7107 27.2679 23.7119 27.2265C23.7132 27.1845 23.7214 27.1438 23.729 27.1141C23.7329 27.0992 23.7367 27.0867 23.7395 27.0779C23.741 27.0736 23.7421 27.0701 23.743 27.0676L23.744 27.0648L23.7443 27.064L23.7444 27.0637L23.7444 27.0636C23.7444 27.0636 23.7445 27.0636 23.7752 27.0751L23.781 27.0428L23.7812 27.0429L23.7819 27.043L23.7847 27.0435C23.7872 27.0439 23.791 27.0446 23.796 27.0454C23.806 27.0471 23.8208 27.0495 23.84 27.0524C23.8785 27.0583 23.9346 27.0663 24.005 27.0748C24.1457 27.0917 24.3434 27.1103 24.5707 27.1173C25.0261 27.1314 25.5973 27.0984 26.0692 26.9134C26.6996 26.6538 27.0506 26.2744 27.2441 25.961C27.341 25.8042 27.3986 25.6636 27.4319 25.5625C27.4485 25.512 27.4591 25.4714 27.4655 25.4436C27.4687 25.4297 27.4708 25.419 27.4722 25.4119C27.4728 25.4083 27.4733 25.4056 27.4736 25.4039L27.4739 25.402L27.474 25.4016C27.474 25.4016 27.474 25.4016 27.4741 25.4016ZM27.502 25.5589C27.4995 25.5667 27.497 25.5748 27.4942 25.5831C27.4596 25.6883 27.3999 25.8336 27.3 25.9955C27.0998 26.3196 26.7384 26.7089 26.0939 26.9742L26.0934 26.9744C25.6091 27.1644 25.0272 27.197 24.5687 27.1829C24.339 27.1759 24.1394 27.157 23.9971 27.1399C23.926 27.1314 23.8692 27.1233 23.8301 27.1173C23.8173 27.1154 23.8065 27.1136 23.7976 27.1122C23.796 27.1176 23.7943 27.1238 23.7926 27.1305C23.7856 27.1576 23.7786 27.1931 23.7775 27.2285C23.7764 27.2644 23.7816 27.2963 23.7954 27.3193C23.808 27.3402 23.8298 27.3574 23.8719 27.3612L23.8728 27.3613L23.8737 27.3614C24.0007 27.3802 24.1051 27.3992 24.1893 27.4207C24.2733 27.4421 24.3392 27.4666 24.388 27.4974C24.4376 27.5287 24.4705 27.5673 24.4856 27.6162C24.5001 27.6631 24.4969 27.7154 24.483 27.7729V28.3165C24.4834 28.3165 24.4838 28.3165 24.4842 28.3165C24.5069 28.3158 24.5402 28.3146 24.5829 28.3124C24.6681 28.308 24.7904 28.2999 24.9381 28.2847C25.2338 28.2543 25.6309 28.196 26.0376 28.0841C26.8507 27.8605 27.6854 27.4277 27.8468 26.594C27.7254 26.3927 27.633 26.0995 27.5707 25.8575C27.5411 25.7422 27.5181 25.6377 27.502 25.5589ZM23.7752 27.0751L23.781 27.0428L23.7541 27.038L23.7444 27.0636L23.7752 27.0751Z" fill="black"/>
<path d="M17.3818 25.9316C16.5193 25.4629 17.1943 24.9754 17.2693 23.5879C17.4005 24.4316 18.3568 24.7879 18.2443 25.3316C17.8505 25.3504 17.663 24.7504 17.4755 25.4066L17.3818 25.9316ZM27.638 25.9316C28.5005 25.4441 27.788 24.9754 27.713 23.5879C27.5818 24.4316 26.6443 24.7879 26.7568 25.3316C27.1318 25.3504 27.3193 24.7504 27.5068 25.4066L27.638 25.9129V25.9316Z" fill="white"/>
<path fill-rule="evenodd" clip-rule="evenodd" d="M17.2361 23.5863L17.3013 23.583C17.3652 23.9937 17.6298 24.2869 17.8719 24.5502C17.8754 24.554 17.8789 24.5578 17.8824 24.5616C17.9986 24.6879 18.1098 24.8087 18.1854 24.9314C18.2638 25.0586 18.3064 25.1915 18.276 25.3384L18.2709 25.3634L18.2454 25.3646C18.1382 25.3697 18.0462 25.3325 17.9677 25.2876C17.9285 25.2652 17.892 25.2405 17.8586 25.2179L17.8583 25.2177C17.8246 25.1948 17.7945 25.1745 17.7664 25.159C17.738 25.1434 17.7143 25.1344 17.6936 25.1323C17.6742 25.1303 17.6565 25.1342 17.6382 25.1474C17.619 25.1614 17.5976 25.1869 17.575 25.2309C17.5527 25.2744 17.5301 25.3341 17.5071 25.4142L17.4137 25.9376L17.3814 25.9318L17.3657 25.9606C17.1468 25.8417 17.0201 25.7187 16.9592 25.5758C16.8984 25.4333 16.9058 25.277 16.9414 25.0981C16.9624 24.9922 16.9932 24.8779 17.0272 24.7518C17.1092 24.4477 17.2097 24.0749 17.2361 23.5863ZM17.3572 25.8807L17.4431 25.3994L17.4436 25.3978C17.4673 25.3146 17.4915 25.25 17.5167 25.2009C17.5417 25.1521 17.5689 25.1167 17.5997 25.0943C17.6316 25.0712 17.6655 25.0634 17.7003 25.067C17.7338 25.0704 17.7665 25.0842 17.7979 25.1015C17.8288 25.1184 17.861 25.1403 17.8935 25.1623L17.8954 25.1636C17.9291 25.1864 17.9636 25.2097 18.0003 25.2307C18.0664 25.2684 18.1372 25.2972 18.2163 25.2993C18.2326 25.1842 18.1977 25.0764 18.1295 24.9658C18.0573 24.8487 17.9499 24.7319 17.8316 24.6033C17.8289 24.6004 17.8263 24.5975 17.8236 24.5946C17.6225 24.3759 17.3944 24.1257 17.2856 23.7965C17.2455 24.1946 17.1593 24.5147 17.0887 24.7767C17.0554 24.9004 17.0256 25.011 17.0057 25.1109C16.971 25.2858 16.9667 25.426 17.0196 25.5501C17.0689 25.6659 17.1704 25.7728 17.3572 25.8807ZM27.1187 24.5505C27.3561 24.2872 27.6163 23.9939 27.6802 23.583L27.7454 23.5863C27.7725 24.0876 27.8827 24.4651 27.972 24.7714C28.0057 24.8868 28.0365 24.9922 28.0587 25.0902C28.099 25.2678 28.1113 25.4235 28.0543 25.5672C27.997 25.7112 27.8726 25.8367 27.6538 25.9604L27.6048 25.988V25.9172L27.4748 25.4158C27.4748 25.4157 27.4748 25.4156 27.4747 25.4154C27.4516 25.3347 27.4289 25.2747 27.4065 25.2309C27.3839 25.1869 27.3626 25.1613 27.3435 25.1474C27.3254 25.1342 27.3079 25.1303 27.2889 25.1323C27.2687 25.1344 27.2454 25.1433 27.2177 25.1589C27.1901 25.1743 27.1607 25.1947 27.1278 25.2177L27.1263 25.2187C27.0943 25.241 27.0594 25.2653 27.0221 25.2874C26.9464 25.3322 26.8577 25.3697 26.7547 25.3646L26.7294 25.3633L26.7242 25.3384C26.6939 25.1917 26.7351 25.059 26.8118 24.9317C26.8859 24.8085 26.9953 24.6872 27.1098 24.5604L27.1187 24.5505ZM27.6627 25.8792C27.8483 25.7676 27.9472 25.659 27.9933 25.5429C28.0428 25.4182 28.0341 25.2786 27.9947 25.1047C27.9736 25.0118 27.9438 24.9097 27.9108 24.7965C27.8336 24.5319 27.7387 24.2067 27.6962 23.7967C27.5886 24.1255 27.3647 24.3757 27.1675 24.5944L27.1611 24.6015C27.0445 24.7307 26.9388 24.8479 26.868 24.9655C26.8014 25.0761 26.7675 25.184 26.784 25.2993C26.8581 25.2968 26.9253 25.2685 26.9887 25.2309C27.0239 25.2101 27.0571 25.1869 27.0896 25.1643L27.0903 25.1638C27.1226 25.1413 27.1547 25.119 27.1857 25.1016C27.2165 25.0843 27.2489 25.0704 27.2822 25.067C27.3167 25.0634 27.3505 25.0712 27.3822 25.0944C27.4128 25.1167 27.4399 25.1521 27.4649 25.201C27.49 25.25 27.5142 25.3146 27.5379 25.3978L27.5381 25.3986L27.6627 25.8792Z" fill="black"/>
<path d="M17.9063 26.5687L18 26.6438L17.7938 26.8688C17.7 26.9625 17.6906 27.0187 17.7469 27.075C17.8125 27.1406 17.8688 27.1125 17.9344 27.0375L18.1688 26.7937L18.2438 26.8688L18.0188 27.1312C17.8969 27.2719 17.7844 27.2438 17.6813 27.15C17.6063 27.075 17.55 26.9625 17.6813 26.8219L17.9063 26.5687ZM18.2813 26.8875L18.375 26.9437L18.3563 27.3938L18.5625 27.075L18.6563 27.1312L18.3563 27.6188L18.2438 27.5625L18.2625 27.1125L18.0563 27.4313L17.9625 27.375L18.2813 26.8875ZM18.45 27.675L18.7125 27.15L18.8063 27.2063L18.5625 27.7125L18.45 27.675ZM18.8625 27.225L18.6563 27.7688L18.8625 27.8438C19.05 27.9094 19.1438 27.825 19.2 27.6656C19.2656 27.4969 19.2375 27.3844 19.05 27.3L18.8625 27.225ZM18.9375 27.3562C19.125 27.4219 19.1438 27.4969 19.0875 27.6375C19.0313 27.7594 18.9938 27.8063 18.8063 27.7125L18.9375 27.3562ZM19.4813 27.4313L19.1438 27.9375L19.275 27.975L19.35 27.8438L19.575 27.9L19.5938 28.0312L19.725 28.05L19.5938 27.45L19.4813 27.4313ZM19.5188 27.5625L19.5563 27.7875L19.4063 27.7688L19.5188 27.5625ZM19.8 27.4781L19.7813 28.0594H19.9969C20.2031 28.0687 20.2594 27.9656 20.2688 27.7781C20.2688 27.6094 20.2031 27.4969 19.9969 27.4969L19.8 27.4781ZM19.9125 27.5719C20.1188 27.5813 20.1469 27.6469 20.1469 27.7875C20.1375 27.9281 20.1094 27.9844 19.9031 27.9563V27.5813L19.9125 27.5719ZM21.7688 28.2937V28.8938H21.9V28.6687C21.9 28.6687 22.0125 28.6688 22.1063 28.65C22.1719 28.6313 22.2281 28.5844 22.2281 28.4625C22.2281 28.35 22.1625 28.2937 22.05 28.2937H21.7688ZM21.9 28.3875H22.0313C22.1344 28.3875 22.125 28.5563 22.0313 28.5563H21.9V28.3875ZM22.4438 28.2937L22.2 28.8938H22.3313L22.3875 28.7438H22.6313L22.6875 28.8938H22.8188L22.575 28.2937H22.4438ZM22.5 28.425L22.5938 28.65H22.425L22.5 28.425ZM22.8188 28.7812L23.1375 28.3875H22.8563V28.2937H23.3063V28.3875L22.9688 28.7812H23.3063V28.8938H22.8188V28.7812ZM24.7125 27.6188L24.825 27.6L24.8813 27.9375C24.9 28.0594 24.8438 28.1344 24.7594 28.1719C24.6656 28.2094 24.5344 28.1719 24.525 28.0125L24.6188 27.9938C24.6375 28.0875 24.675 28.0969 24.7125 28.0875C24.7594 28.0688 24.7781 28.0125 24.7688 27.9563L24.7125 27.6188ZM24.9 27.5813L25.0031 27.5625L25.0594 27.8438C25.0781 27.9656 25.1156 28.0125 25.2 28.0031C25.2938 27.9844 25.3031 27.9281 25.2844 27.8156L25.2188 27.525L25.3313 27.5062L25.4063 27.8156C25.4438 28.0031 25.35 28.0688 25.2188 28.0969C25.1156 28.1156 24.9938 28.0969 24.9563 27.9094L24.9 27.5813ZM25.4813 27.8438L25.575 27.8063C25.6219 27.8906 25.6875 27.8813 25.7438 27.8625C25.8188 27.825 25.8375 27.7594 25.7906 27.7312C25.7344 27.7031 25.6031 27.75 25.5375 27.7312C25.4531 27.6937 25.4156 27.6375 25.425 27.5719C25.425 27.4781 25.5 27.4406 25.5844 27.4125C25.6781 27.3844 25.7719 27.3937 25.8375 27.5062L25.725 27.5437C25.6875 27.4781 25.6313 27.4875 25.5938 27.5062C25.5563 27.525 25.5 27.5531 25.5375 27.6C25.5563 27.6469 25.6969 27.6188 25.7719 27.6188C25.8469 27.6188 25.9031 27.675 25.9125 27.7406C25.9313 27.8437 25.8938 27.9 25.7719 27.9469C25.6313 28.0031 25.5 27.9469 25.4813 27.8438ZM25.9875 27.375L25.8375 27.45L25.8 27.3562L26.2125 27.1875L26.25 27.2625L26.1 27.3375L26.2688 27.75L26.175 27.8063L25.9875 27.375ZM26.2313 27.1687L26.325 27.1125L26.5875 27.6L26.4938 27.6562L26.2313 27.1687ZM26.8688 27.2063L26.9813 27.1687C26.9957 27.2042 27.0009 27.2428 26.9963 27.2808C26.9917 27.3189 26.9774 27.3551 26.9549 27.3861C26.9324 27.4171 26.9023 27.4418 26.8675 27.4579C26.8328 27.474 26.7945 27.481 26.7563 27.4781C26.475 27.4781 26.4375 27.1594 26.4844 27.0563C26.5594 26.8781 26.7656 26.8875 26.8594 26.9812L26.7656 27.0563C26.7094 26.9813 26.5781 27.0281 26.5781 27.0938C26.5657 27.1485 26.5718 27.2059 26.5956 27.2569C26.6194 27.3078 26.6594 27.3493 26.7094 27.375C26.8031 27.4125 26.9344 27.3 26.8688 27.2063ZM26.8125 26.8125L26.9063 26.7375L27.2438 27.1875L27.15 27.2625L26.8125 26.8125ZM27.1688 26.5312L27.075 26.6062L27.2813 27.1687L27.375 27.075L27.3188 26.9625L27.4875 26.8125L27.6 26.8688L27.6938 26.7937L27.1688 26.5312ZM27.2063 26.6625L27.3938 26.7562L27.2813 26.8688L27.2063 26.6625Z" fill="black"/>
</g>
<defs>
<clipPath id="clip0_200_80514">
<rect width="60" height="45" fill="white" transform="translate(-7.5)"/>
</clipPath>
</defs>
</svg>
