<svg width="45" height="45" viewBox="0 0 45 45" fill="none" xmlns="http://www.w3.org/2000/svg">
<g clip-path="url(#clip0_200_71443)">
<path fill-rule="evenodd" clip-rule="evenodd" d="M-7.5 0H52.5V4.99687H-7.5V0Z" fill="#0D5EAF"/>
<path fill-rule="evenodd" clip-rule="evenodd" d="M-7.5 4.99707H52.5V10.0033H-7.5V4.99707Z" fill="white"/>
<path fill-rule="evenodd" clip-rule="evenodd" d="M-7.5 10.0029H52.5V14.9998H-7.5V10.0029Z" fill="#0D5EAF"/>
<path fill-rule="evenodd" clip-rule="evenodd" d="M-7.5 15H52.5V19.9969H-7.5V15Z" fill="white"/>
<path d="M-7.5 0H17.5031V25.0031H-7.5V0Z" fill="#0D5EAF"/>
<path fill-rule="evenodd" clip-rule="evenodd" d="M-7.5 19.9971H52.5V25.0033H-7.5V19.9971Z" fill="#0D5EAF"/>
<path fill-rule="evenodd" clip-rule="evenodd" d="M-7.5 25.0029H52.5V29.9998H-7.5V25.0029Z" fill="white"/>
<path fill-rule="evenodd" clip-rule="evenodd" d="M-7.5 30H52.5V34.9969H-7.5V30Z" fill="#0D5EAF"/>
<path fill-rule="evenodd" clip-rule="evenodd" d="M-7.5 34.9971H52.5V40.0033H-7.5V34.9971Z" fill="white"/>
<path fill-rule="evenodd" clip-rule="evenodd" d="M2.50293 0H7.4998V25.0031H2.50293V0Z" fill="white"/>
<path fill-rule="evenodd" clip-rule="evenodd" d="M-7.5 10.0029H17.5031V14.9998H-7.5V10.0029Z" fill="white"/>
<path d="M-7.5 40.0029H52.5V44.9998H-7.5V40.0029Z" fill="#0D5EAF"/>
</g>
<defs>
<clipPath id="clip0_200_71443">
<rect width="60" height="45" fill="white" transform="translate(-7.5)"/>
</clipPath>
</defs>
</svg>
