<svg width="45" height="45" viewBox="0 0 45 45" fill="none" xmlns="http://www.w3.org/2000/svg">
<g clip-path="url(#clip0_200_71185)">
<path fill-rule="evenodd" clip-rule="evenodd" d="M-7.5 0H52.5V45H-7.5V0Z" fill="#BE0027"/>
<path fill-rule="evenodd" clip-rule="evenodd" d="M-5.09961 2.55957H50.166V42.7221H-5.09961V2.55957Z" fill="#3B5AA3"/>
<path fill-rule="evenodd" clip-rule="evenodd" d="M21.9746 38.7376C22.0973 38.7962 22.2313 38.8273 22.3673 38.829C22.5033 38.8306 22.638 38.8026 22.7621 38.7469C35.6809 31.8751 35.6809 13.0313 22.7715 6.25319C22.6429 6.19466 22.5028 6.16595 22.3615 6.16919C22.2203 6.17244 22.0816 6.20756 21.9559 6.27194C9.36524 13.1532 9.32774 31.7813 21.9652 38.7376H21.9746Z" fill="#CBE0E5"/>
<path fill-rule="evenodd" clip-rule="evenodd" d="M21.9746 39.0848C22.1621 39.2441 22.5746 39.2254 22.7621 39.0848C32.2777 31.9598 32.3246 27.5254 31.9121 27.5254H13.0683C12.7871 27.5254 13.2371 32.0441 21.9746 39.0848Z" fill="#ADD2D9"/>
<path fill-rule="evenodd" clip-rule="evenodd" d="M14.5592 31.0503C15.421 30.7802 16.3521 30.837 17.1748 31.2097C17.8873 31.5847 18.2998 31.5847 19.0686 31.5847C19.8748 31.6034 20.5029 32.1941 21.3748 32.2222C22.9779 32.2597 23.6529 33.0566 22.4061 33.0659C21.8248 33.0659 20.5592 32.6628 19.9498 32.7472C18.6748 32.8784 17.8686 33.1597 16.6686 34.5003L18.0561 35.4378C19.2561 34.9597 19.4529 34.4066 20.1186 34.3878C20.8686 34.3597 21.1217 33.9003 21.9936 33.9003C23.0345 33.9873 24.0825 33.8856 25.0873 33.6003C26.4748 33.2816 25.8186 32.3066 24.9748 31.9597C24.2904 31.6691 23.0248 31.9503 22.2373 31.6597C21.6373 31.4253 22.1248 31.0503 22.4529 30.9753C22.7717 30.9097 23.1186 31.0222 23.5217 31.0878C24.2436 31.1441 25.1529 31.0784 25.7811 30.9753C27.0936 30.7784 27.0373 30.3941 27.6561 30.3847C28.1248 30.3566 28.4717 30.2253 28.7811 30.0003C29.1561 29.7472 29.5404 29.2503 29.9904 29.2691L31.1811 29.3159L29.4936 33.1034L24.7404 37.9503L22.2748 38.8878L16.8561 35.3534L14.1279 31.1628L14.5686 31.0503H14.5592Z" fill="#FDF9A1"/>
<path fill-rule="evenodd" clip-rule="evenodd" d="M20.7936 27.375L31.6686 27.3188L31.8561 26.3531C31.8561 26.3531 31.4717 26.2969 31.1529 26.2781C30.7686 26.25 30.0936 26.6906 29.6529 26.6813C29.3248 26.6813 28.9686 26.1188 28.6498 26.1188C28.0873 26.1188 28.0498 26.6156 27.5248 26.6344C27.1029 26.6156 26.9248 26.2969 26.3717 26.3344C25.8092 26.3625 25.8467 26.6813 25.1248 26.6625C24.1686 26.6344 23.7842 25.8094 23.0154 25.8C21.7404 25.7813 21.7029 27.0188 20.7842 27.3656L20.7936 27.375Z" fill="#179A3B"/>
<path fill-rule="evenodd" clip-rule="evenodd" d="M20.7937 27.6004L31.9875 27.5441V27.2441L20.5312 27.3004L20.7844 27.6004H20.7937Z" fill="#FDF9A1"/>
<path fill-rule="evenodd" clip-rule="evenodd" d="M25.3875 30.966C25.5656 31.6223 25.7438 31.8473 26.4375 32.0254C27.1219 32.1848 28.1719 31.5191 27.525 30.8723C26.9063 30.2723 26.25 30.1223 25.6969 29.5785C24.525 28.4254 22.7625 25.5941 22.7625 23.5973C22.7625 21.8816 22.5938 18.366 22.5938 15.0379C22.5938 14.8223 21.9375 15.6379 21.9375 15.8629C21.975 18.7973 21.975 21.0191 22.0875 23.9816C22.275 26.1473 23.3062 27.6098 24.2156 28.9223C24.6187 29.5598 25.2094 30.2348 25.3875 30.966Z" fill="#A79270"/>
<path d="M18.329 21.7836C18.304 21.7072 18.2712 21.6388 18.2304 21.5784C18.1903 21.5172 18.1423 21.465 18.0864 21.422C18.0312 21.3789 17.9685 21.346 17.8982 21.3234C17.828 21.3007 17.7509 21.2893 17.667 21.2893C17.5295 21.2893 17.4044 21.3249 17.2918 21.3959C17.1792 21.4669 17.0897 21.5716 17.0232 21.7099C16.9567 21.8482 16.9234 22.0178 16.9234 22.2188C16.9234 22.4198 16.957 22.5895 17.0243 22.7278C17.0916 22.8661 17.1826 22.9707 17.2975 23.0418C17.4123 23.1128 17.5416 23.1483 17.6851 23.1483C17.8181 23.1483 17.9353 23.12 18.0365 23.0633C18.1385 23.0059 18.2179 22.925 18.2746 22.8207C18.332 22.7157 18.3607 22.5921 18.3607 22.4501L18.4469 22.4682H17.7486V22.2188H18.6328V22.4682C18.6328 22.6594 18.592 22.8256 18.5103 22.967C18.4295 23.1083 18.3176 23.2178 18.1748 23.2957C18.0328 23.3728 17.8695 23.4113 17.6851 23.4113C17.4796 23.4113 17.299 23.3629 17.1433 23.2662C16.9884 23.1695 16.8675 23.0319 16.7806 22.8536C16.6944 22.6753 16.6514 22.4637 16.6514 22.2188C16.6514 22.0352 16.6759 21.8701 16.725 21.7235C16.7749 21.5761 16.8452 21.4507 16.9359 21.3472C17.0266 21.2436 17.1339 21.1643 17.2578 21.1091C17.3817 21.0539 17.5181 21.0264 17.667 21.0264C17.7894 21.0264 17.9035 21.0449 18.0093 21.0819C18.1159 21.1182 18.2107 21.1699 18.2938 21.2372C18.3777 21.3037 18.4476 21.3834 18.5035 21.4764C18.5595 21.5686 18.598 21.671 18.6192 21.7836H18.329Z" fill="#BD0728"/>
<path fill-rule="evenodd" clip-rule="evenodd" d="M17.6671 21.1263C17.5309 21.1263 17.4085 21.1514 17.2985 21.2004C17.188 21.2496 17.0924 21.3202 17.0111 21.413C16.9301 21.5055 16.8659 21.619 16.8197 21.7555C16.7746 21.8901 16.7513 22.0442 16.7513 22.219C16.7513 22.4522 16.7923 22.6482 16.8705 22.8102C16.9499 22.9731 17.0586 23.0958 17.1962 23.1817C17.3342 23.2674 17.4961 23.3117 17.6853 23.3117C17.8554 23.3117 18.0018 23.2763 18.1273 23.2082C18.2539 23.1392 18.3522 23.0428 18.4239 22.9176L18.4241 22.9172C18.4956 22.7935 18.5332 22.6451 18.5332 22.4683V22.3187H17.8485V22.3686H18.2611V22.3273L18.4676 22.3707L18.4593 22.4502H18.4606C18.4606 22.6058 18.4291 22.7464 18.3623 22.8686C18.2968 22.9891 18.2042 23.0836 18.0856 23.1504L18.0854 23.1505C17.9672 23.2167 17.8328 23.2482 17.6853 23.2482C17.5244 23.2482 17.3768 23.2082 17.2452 23.1267C17.1121 23.0445 17.0091 22.9244 16.9347 22.7716C16.8592 22.6162 16.8238 22.4306 16.8238 22.219C16.8238 22.0074 16.8587 21.8221 16.9334 21.6668C17.0068 21.5143 17.108 21.3942 17.2387 21.3117C17.3678 21.2302 17.5114 21.1897 17.6671 21.1897C17.76 21.1897 17.8476 21.2023 17.929 21.2286C18.0097 21.2546 18.0829 21.2927 18.1477 21.3433C18.2125 21.3932 18.2678 21.4535 18.3136 21.5233C18.3469 21.5728 18.3752 21.6264 18.3987 21.684H18.4906C18.4719 21.6285 18.4478 21.5767 18.4184 21.5282L18.4182 21.5279C18.3684 21.4451 18.3064 21.3745 18.232 21.3155L18.2312 21.3149C18.1577 21.2554 18.0734 21.2092 17.9773 21.1765L17.9765 21.1762C17.8822 21.1432 17.7794 21.1263 17.6671 21.1263ZM18.2531 22.5681H17.649V22.1192H18.7327V22.4683C18.7327 22.6739 18.6887 22.8579 18.597 23.0168C18.507 23.1741 18.3817 23.2968 18.2227 23.3834L18.2225 23.3835C18.0639 23.4696 17.8839 23.5112 17.6853 23.5112C17.4635 23.5112 17.2642 23.4588 17.0908 23.3511L17.0906 23.351C16.9185 23.2435 16.7854 23.0911 16.6911 22.8974L16.6909 22.8971C16.5969 22.7025 16.5518 22.4754 16.5518 22.219C16.5518 22.0265 16.5775 21.8505 16.6306 21.6919L16.6307 21.6916C16.6842 21.5335 16.7606 21.3962 16.861 21.2816C16.961 21.1673 17.0801 21.0793 17.2174 21.0181C17.3553 20.9567 17.5057 20.9268 17.6671 20.9268C17.7996 20.9268 17.9248 20.9468 18.042 20.9878C18.1588 21.0276 18.2638 21.0847 18.3563 21.1595C18.4495 21.2334 18.5272 21.3221 18.5891 21.4249C18.6515 21.528 18.6941 21.6417 18.7173 21.7653L18.7395 21.8835H18.2568L18.2343 21.8147C18.212 21.7463 18.183 21.6864 18.1478 21.6343L18.1474 21.6337L18.147 21.6331C18.1129 21.5809 18.0724 21.5371 18.0257 21.5011L18.0252 21.5007C17.9797 21.4652 17.9275 21.4377 17.8678 21.4184C17.8086 21.3993 17.742 21.3892 17.6671 21.3892C17.5478 21.3892 17.4413 21.4198 17.3452 21.4804C17.2507 21.54 17.1728 21.6292 17.1132 21.7533C17.0549 21.8745 17.0233 22.0285 17.0233 22.219C17.0233 22.4093 17.0552 22.5631 17.1141 22.6843C17.1743 22.808 17.2534 22.8973 17.3501 22.9571C17.4482 23.0177 17.559 23.0487 17.6853 23.0487C17.8037 23.0487 17.9036 23.0236 17.9878 22.9765C18.0732 22.9284 18.1392 22.8613 18.1871 22.7732L18.1872 22.773C18.2197 22.7136 18.242 22.6456 18.2531 22.5681Z" fill="white"/>
<path d="M21.1328 21.0713H21.4139V22.6083C21.4139 22.767 21.3765 22.9087 21.3017 23.0334C21.2277 23.1573 21.123 23.2552 20.9877 23.327C20.8525 23.398 20.6938 23.4336 20.5117 23.4336C20.3295 23.4336 20.1708 23.398 20.0356 23.327C19.9003 23.2552 19.7953 23.1573 19.7205 23.0334C19.6464 22.9087 19.6094 22.767 19.6094 22.6083V21.0713H19.8905V22.5857C19.8905 22.699 19.9154 22.7999 19.9653 22.8883C20.0152 22.976 20.0862 23.0451 20.1784 23.0958C20.2714 23.1456 20.3824 23.1706 20.5117 23.1706C20.6409 23.1706 20.752 23.1456 20.8449 23.0958C20.9379 23.0451 21.0089 22.976 21.058 22.8883C21.1079 22.7999 21.1328 22.699 21.1328 22.5857V21.0713Z" fill="#BD0728"/>
<path fill-rule="evenodd" clip-rule="evenodd" d="M19.5098 20.9717H19.9904V22.5858C19.9904 22.684 20.0118 22.7676 20.0522 22.8393C20.0925 22.91 20.1497 22.9661 20.2261 23.0082C20.3016 23.0486 20.3956 23.071 20.5118 23.071C20.6281 23.071 20.7221 23.0486 20.7976 23.0082C20.8749 22.966 20.9317 22.91 20.9711 22.8397L20.9713 22.8395C21.0118 22.7677 21.0332 22.684 21.0332 22.5858V20.9717H21.5138V22.6085C21.5138 22.7835 21.4724 22.9432 21.3875 23.0847C21.3035 23.2253 21.185 23.3355 21.0346 23.4153L21.0343 23.4155C20.8822 23.4953 20.707 23.5334 20.5118 23.5334C20.3166 23.5334 20.1414 23.4953 19.9893 23.4155L19.989 23.4153C19.8387 23.3355 19.7199 23.2254 19.6352 23.0851L19.6348 23.0845C19.5508 22.943 19.5098 22.7834 19.5098 22.6085V20.9717ZM19.7093 21.1712V22.6085C19.7093 22.7509 19.7423 22.8745 19.8062 22.9823C19.8711 23.0897 19.9622 23.1752 20.0823 23.2389C20.2007 23.3011 20.3428 23.3339 20.5118 23.3339C20.6808 23.3339 20.8229 23.3011 20.9413 23.2389C21.0614 23.1751 21.1521 23.0897 21.2162 22.9824L21.2163 22.9822C21.281 22.8745 21.3143 22.7508 21.3143 22.6085V21.1712H21.2327V22.5858C21.2327 22.7142 21.2043 22.8323 21.1451 22.9373C21.0863 23.0422 21.0013 23.1244 20.8928 23.1835L20.8922 23.1838C20.7819 23.243 20.6538 23.2705 20.5118 23.2705C20.3698 23.2705 20.2417 23.243 20.1314 23.1838L20.1305 23.1833C20.0229 23.1242 19.9381 23.0422 19.8787 22.9378L19.8786 22.9375C19.8193 22.8324 19.7909 22.7143 19.7909 22.5858V21.1712H19.7093Z" fill="white"/>
<path d="M23.1834 23.3927H22.8887L23.7411 21.0713H24.0313L24.8837 23.3927H24.589L23.8952 21.4386H23.8771L23.1834 23.3927ZM23.2922 22.4859H24.4801V22.7353H23.2922V22.4859Z" fill="#BD0728"/>
<path fill-rule="evenodd" clip-rule="evenodd" d="M23.6718 20.9717H24.1012L25.0269 23.4926H24.5188L24.2854 22.8352H23.4875L23.2541 23.4926H22.7461L23.6718 20.9717ZM23.5583 22.6357H24.2146L24.1969 22.5858H23.576L23.5583 22.6357ZM23.6469 22.3863H24.1261L23.8865 21.7113L23.6469 22.3863ZM24.3378 22.3863L23.966 21.3389H23.807L23.4352 22.3863H23.3648L23.811 21.1712H23.9619L24.4081 22.3863H24.3378ZM24.4971 22.8352L24.6597 23.2931H24.7411L24.5729 22.8352H24.4971ZM23.2 22.8352H23.2758L23.1133 23.2931H23.0319L23.2 22.8352Z" fill="white"/>
<path d="M26.0186 21.0586H26.3541L27.143 22.9856H27.1702L27.9591 21.0586H28.2947V23.38H28.0317V21.6163H28.009L27.2836 23.38H27.0297L26.3042 21.6163H26.2815V23.38H26.0186V21.0586Z" fill="#BD0728"/>
<path fill-rule="evenodd" clip-rule="evenodd" d="M25.9189 20.959H26.4212L27.1568 22.7557L27.8923 20.959H28.3946V23.4799H27.9321V22.0661L27.3505 23.4799H26.963L26.3814 22.0661V23.4799H25.9189V20.959ZM26.1184 21.1585V23.2804H26.1819V21.5167H26.3712L27.0966 23.2804H27.2169L27.9423 21.5167H28.1316V23.2804H28.1951V21.1585H28.0262L27.2373 23.0855H27.0762L26.2873 21.1585H26.1184Z" fill="white"/>
<path fill-rule="evenodd" clip-rule="evenodd" d="M16.8372 15.0839C16.6966 15.3651 17.1747 14.9995 17.2872 14.962C17.9153 14.737 18.1591 13.9495 19.2372 14.4276C20.0809 14.7933 21.2153 14.5776 20.6247 14.9526C19.8934 15.3933 18.4216 15.8808 18.3934 18.0651C18.5153 18.2714 18.5247 18.2433 18.6278 18.0089C18.8528 17.5026 19.9122 16.1245 20.4372 16.237C20.6528 16.2933 21.2716 15.6089 21.2809 15.8058C21.3466 16.3495 20.4372 17.4558 20.4559 18.9276C20.4559 19.2745 20.8778 19.387 21.0747 19.1433C21.2809 18.9276 21.3934 18.712 21.7497 18.4308C22.3684 17.9245 22.1997 15.7495 22.2747 15.8526C22.7153 16.4151 22.7809 18.037 23.4372 18.6933C23.9903 19.2464 24.4309 18.9745 24.3091 18.2245C24.0747 16.687 23.3528 17.1276 23.0059 15.5433C22.9309 15.2339 22.9122 14.962 23.3247 15.0839C23.8216 15.2339 24.1216 15.4589 24.4872 16.0214C24.8622 16.5651 25.5559 17.0808 25.9591 17.3901C26.6622 17.9339 26.9153 17.4651 26.5778 16.7714C26.1492 15.9835 25.4499 15.3774 24.6091 15.0651C24.0278 14.8589 23.8216 14.8401 23.3153 14.7464C23.1747 14.7183 23.0341 14.4276 23.2778 14.2683C23.82 13.8773 24.4519 13.6291 25.1153 13.5464C25.7434 13.5276 26.2403 14.0339 26.6809 14.1651C27.5622 14.3901 27.5622 13.837 27.1684 13.4151C26.8497 13.0683 26.1747 12.4776 25.5466 12.562C24.2809 12.7214 24.3653 12.6839 23.5778 13.1995C23.2966 13.3683 22.9778 13.5558 23.0997 13.3495C23.3809 12.8339 23.1184 12.9276 23.5591 12.4026C23.8966 12.0276 24.1497 11.7464 24.4966 11.6526C24.8153 11.5683 25.2466 11.2308 25.3684 11.0526C25.6872 10.6214 25.4153 10.3683 24.9278 10.5183C24.4966 10.6308 24.2716 10.912 23.9903 10.987C23.2966 11.212 22.7434 12.7683 22.6591 12.9933C22.5559 13.2558 22.4341 13.1245 22.4528 12.8995C22.5466 11.8026 22.6403 9.94639 22.2653 9.18701C21.6653 8.06201 21.7216 8.58701 21.4966 9.12139C21.1591 9.96514 21.2809 10.762 21.4966 11.587C21.5903 11.9995 21.9278 12.4683 21.9934 12.7964C22.0403 13.0495 21.8434 12.7214 21.7309 12.562C21.3653 11.9995 21.0934 11.6245 20.4934 11.3151C19.8942 11.0686 19.2357 11.0034 18.5997 11.1276C18.4309 11.1839 18.7872 11.4276 18.9278 11.5401C19.3309 11.8589 20.0903 11.962 20.6153 12.2808C21.0466 12.5526 21.3841 12.7214 21.5341 13.0964C21.5903 13.3776 21.6841 13.7901 21.4966 13.7808C21.0184 13.7526 20.2778 13.3308 18.7403 13.4995C17.9528 13.612 17.2778 14.2776 16.8372 15.0839Z" fill="#239E46"/>
<path fill-rule="evenodd" clip-rule="evenodd" d="M20.1846 29.1191H20.6252V29.8598H20.1846V29.1191Z" fill="black"/>
<path fill-rule="evenodd" clip-rule="evenodd" d="M17.9719 24.1777C19.7344 26.6152 22.5656 28.0402 22.6219 29.1465H17.1094C18.375 27.6277 19.1531 26.5965 17.9719 24.1777Z" fill="#FDF9FF"/>
<path fill-rule="evenodd" clip-rule="evenodd" d="M16.3684 29.2029C18.7684 29.7373 21.6278 30.0373 23.4559 29.1279C23.4747 29.6623 22.8653 30.4404 22.359 30.4404H17.7653C18.2997 30.3561 18.609 30.1967 19.4715 30.1592L17.034 30.1779C16.7528 30.1873 16.284 29.4654 16.3684 29.2029Z" fill="#A68861"/>
<path fill-rule="evenodd" clip-rule="evenodd" d="M21.8059 39.8436C22.0496 39.9842 22.434 39.9749 22.6496 39.8624C36.5059 32.4842 36.5152 12.2624 22.6684 4.98736C22.5297 4.92318 22.3783 4.89151 22.2256 4.89476C22.0728 4.89801 21.9229 4.93609 21.7871 5.00611C8.28711 12.3936 8.24961 32.3811 21.8059 39.853V39.8436ZM21.8715 38.1842C21.9879 38.2415 22.1157 38.2721 22.2454 38.2737C22.3752 38.2753 22.5037 38.248 22.6215 38.1936C34.209 31.3686 34.3496 13.3405 22.6309 6.88111C22.4059 6.71236 22.0777 6.76861 21.8527 6.88111C10.7527 13.453 10.134 30.7405 21.8715 38.1842Z" fill="#BE0027"/>
<path d="M17.7002 21.1309C17.9127 21.1309 18.1002 21.1746 18.2627 21.2621C18.4814 21.3746 18.6158 21.5809 18.6658 21.8809H18.3752C18.3377 21.7184 18.2564 21.5934 18.1314 21.5059C18.0189 21.4309 17.8721 21.3934 17.6908 21.3934C17.4846 21.3934 17.3064 21.4777 17.1564 21.6465C17.0127 21.8027 16.9408 22.0402 16.9408 22.359C16.9408 22.6215 17.0002 22.8402 17.1189 23.0152C17.2439 23.184 17.4408 23.2684 17.7096 23.2684C17.9158 23.2684 18.0846 23.209 18.2158 23.0902C18.3596 22.9715 18.4314 22.7777 18.4314 22.509H17.7189V22.2559H18.7127V23.4746H18.5158L18.4408 23.1746C18.3408 23.2934 18.2471 23.3777 18.1596 23.4277C18.0221 23.5027 17.8502 23.5402 17.6439 23.5402C17.3752 23.5402 17.1408 23.4527 16.9408 23.2777C16.7283 23.0527 16.6221 22.7496 16.6221 22.3684C16.6221 21.9871 16.7252 21.684 16.9314 21.459C17.1314 21.2402 17.3877 21.1309 17.7002 21.1309Z" fill="#BD0728"/>
<path d="M19.9125 21.1969V22.6219C19.9125 22.7844 19.9437 22.9188 20.0062 23.025C20.0937 23.1938 20.25 23.2781 20.475 23.2781C20.7312 23.2781 20.9094 23.1906 21.0094 23.0156C21.0594 22.9156 21.0844 22.7844 21.0844 22.6219V21.1875H21.4031V22.4813C21.4031 22.7563 21.3594 22.975 21.2719 23.1375C21.1406 23.4063 20.8844 23.5406 20.5031 23.5406C20.1094 23.5406 19.8438 23.4031 19.7063 23.1281C19.6313 22.9719 19.5938 22.7563 19.5938 22.4813V21.1875L19.9125 21.1969Z" fill="#BD0728"/>
<path d="M24.2252 22.5469L23.8783 21.5438L23.5033 22.5469H24.2252ZM23.7189 21.1875H24.0658L24.9096 23.4844H24.5533L24.3283 22.8H23.4189L23.1658 23.4844H22.8564L23.7189 21.1875Z" fill="#BD0728"/>
<path d="M25.9688 21.1875H26.4281L27.075 23.1281L27.7312 21.1875H28.1719V23.475H27.8719V21.5438L27.2156 23.475H26.925L26.2688 21.5438V23.475H25.9688V21.1875Z" fill="#BD0728"/>
</g>
<defs>
<clipPath id="clip0_200_71185">
<rect width="60" height="45" fill="white" transform="translate(-7.5)"/>
</clipPath>
</defs>
</svg>
