<svg width="45" height="45" viewBox="0 0 45 45" fill="none" xmlns="http://www.w3.org/2000/svg">
<g clip-path="url(#clip0_200_71150)">
<path fill-rule="evenodd" clip-rule="evenodd" d="M54.7896 45.12H-9.66504V0H54.7896V45.12Z" fill="#BA0000"/>
<path fill-rule="evenodd" clip-rule="evenodd" d="M21.6456 21.8371C21.6456 21.8371 17.0984 19.8807 17.7505 14.8047C18.3762 12.3636 19.4954 10.6981 21.5134 9.7904C22.4652 9.49959 23.4346 9.3674 24.4216 9.28809C24.1572 9.53484 23.9457 9.78159 23.8311 10.0812C23.6196 10.6452 23.7783 11.174 24.0691 11.7115C24.4304 12.3284 24.6507 12.9629 24.7212 13.7913C24.7874 14.3558 24.7033 14.9277 24.4774 15.4492C24.2514 15.9708 23.8917 16.4233 23.4346 16.7611C22.853 17.2105 22.1656 17.3691 21.6016 17.8803C21.1609 18.3033 20.8966 18.7351 20.8084 19.4753C20.7908 20.8941 21.1698 21.0968 21.6456 21.8371Z" fill="white"/>
<path fill-rule="evenodd" clip-rule="evenodd" d="M20.8657 14.4697V14.4962H20.6807V14.4697H20.8657Z" fill="black"/>
<path fill-rule="evenodd" clip-rule="evenodd" d="M19.8583 17.8095C19.8725 19.141 20.2725 20.4846 21.1258 21.2397L21.0032 21.3783C20.094 20.5737 19.6877 19.1677 19.6733 17.8114C19.666 17.131 19.7571 16.4573 19.9363 15.869C20.1151 15.2818 20.3836 14.7735 20.7356 14.4307L20.8647 14.5632C20.5426 14.877 20.2867 15.3535 20.1133 15.9229C19.9402 16.4912 19.8512 17.146 19.8583 17.8095Z" fill="#BA0000"/>
<path fill-rule="evenodd" clip-rule="evenodd" d="M21.8838 13.6154L22.1746 14.1001L21.6459 13.8797L21.2317 14.3204L21.3022 13.7476L20.7734 13.5272L21.3462 13.3951L21.4168 12.8311L21.7076 13.3157L22.2892 13.1836" fill="#BA0000"/>
<path fill-rule="evenodd" clip-rule="evenodd" d="M22.0332 21.5022C22.0332 21.5022 22.562 16.576 27.6115 15.7124C30.1319 15.6066 32.053 16.1794 33.5159 17.8538C34.0711 18.6734 34.4765 19.5634 34.8378 20.4799C34.5293 20.3037 34.2385 20.1715 33.9036 20.1539C33.3132 20.1098 32.8461 20.4182 32.4231 20.85C31.9292 21.3969 31.3133 21.8195 30.6254 22.0838C30.1057 22.3136 29.5345 22.402 28.9697 22.3401C28.4049 22.2782 27.8664 22.0682 27.4088 21.7313C26.8096 21.2995 26.4571 20.6914 25.805 20.3037C25.275 19.9886 24.6468 19.8818 24.0425 20.004C22.6765 20.4094 22.606 20.8324 22.0332 21.5022Z" fill="white"/>
<path fill-rule="evenodd" clip-rule="evenodd" d="M28.8194 18.6167H28.793V18.4316H28.8194V18.6167Z" fill="black"/>
<path fill-rule="evenodd" clip-rule="evenodd" d="M25.3607 18.6145C24.0914 19.0183 22.9216 19.7949 22.4436 20.8364L22.2754 20.7592C22.7844 19.6503 24.0115 18.8495 25.3046 18.4382C25.9532 18.2318 26.6238 18.1215 27.2382 18.1201C27.8516 18.1187 28.4155 18.2258 28.8457 18.4605L28.7571 18.623C28.3634 18.4082 27.8334 18.3038 27.2387 18.3052C26.645 18.3065 25.9932 18.4133 25.3607 18.6145Z" fill="#BA0000"/>
<path fill-rule="evenodd" clip-rule="evenodd" d="M29.9652 19.3262L29.5862 19.7404L29.6391 19.1675L29.1104 18.9032L29.6655 18.815L29.7184 18.2246L30.018 18.7534L30.582 18.6476L30.2031 19.0618L30.4939 19.5905" fill="#BA0000"/>
<path fill-rule="evenodd" clip-rule="evenodd" d="M22.3682 21.8555C22.3682 21.8555 27.215 20.798 29.6297 25.3188C30.5374 27.6717 30.599 29.6722 29.4798 31.5845C28.8806 32.3776 28.158 33.0385 27.4089 33.6818C27.4794 33.3293 27.5059 33.0121 27.4177 32.6948C27.2767 32.1132 26.8361 31.7695 26.2897 31.5052C25.6118 31.2087 25.0138 30.7557 24.5448 30.1833C24.1647 29.7633 23.9018 29.2506 23.7826 28.6968C23.6635 28.143 23.6924 27.5676 23.8663 27.0284C24.0778 26.3234 24.5449 25.7947 24.7035 25.0544C24.8354 24.4534 24.7379 23.8248 24.4303 23.2919C23.6107 22.1287 23.1877 22.1903 22.3682 21.8555Z" fill="white"/>
<path fill-rule="evenodd" clip-rule="evenodd" d="M27.3389 27.3271L27.3565 27.3448L27.3389 27.3271Z" fill="#BA0000"/>
<path fill-rule="evenodd" clip-rule="evenodd" d="M27.2911 27.4102L27.2734 27.3926L27.4043 27.2617L27.4219 27.2793L27.2911 27.4102Z" fill="black"/>
<path fill-rule="evenodd" clip-rule="evenodd" d="M26.1677 24.0976C25.383 23.0216 24.2778 22.1593 23.1426 22.0355L23.1626 21.8516C24.3716 21.9834 25.5179 22.8924 26.3173 23.9886C26.7182 24.5385 27.0354 25.14 27.2319 25.7235C27.4281 26.3059 27.506 26.8764 27.4209 27.3616L27.2386 27.3296C27.3165 26.8851 27.2468 26.3474 27.0566 25.7826C26.8667 25.2188 26.5588 24.6339 26.1677 24.0976Z" fill="#BA0000"/>
<path fill-rule="evenodd" clip-rule="evenodd" d="M26.9506 28.6939L26.4307 28.4648L27.0035 28.3326L27.074 27.7422L27.3472 28.2445L27.92 28.1123L27.5234 28.5529L27.7878 29.0553L27.2767 28.8261L26.8801 29.2756" fill="#BA0000"/>
<path fill-rule="evenodd" clip-rule="evenodd" d="M22.2628 22.3574C22.2628 22.3574 24.6333 26.7108 20.985 30.2887C18.9757 31.8221 17.0722 32.4478 14.922 31.9102C13.9966 31.5577 13.1595 31.0554 12.3223 30.509C12.6748 30.4826 13.0008 30.4209 13.2828 30.2446C13.794 29.945 13.9966 29.4251 14.1024 28.8346C14.1941 28.0983 14.46 27.3944 14.8779 26.7813C15.1736 26.2975 15.5916 25.9002 16.0898 25.6295C16.588 25.3587 17.1487 25.2241 17.7155 25.2391C18.4558 25.2479 19.0903 25.5564 19.8481 25.5035C20.4562 25.4242 20.9321 25.2568 21.4696 24.728C22.3509 23.6264 22.1746 23.2299 22.2628 22.3486V22.3574Z" fill="white"/>
<path fill-rule="evenodd" clip-rule="evenodd" d="M18.4024 28.667L18.3936 28.6846L18.4024 28.667Z" fill="#BA0000"/>
<path fill-rule="evenodd" clip-rule="evenodd" d="M18.3115 28.6436L18.3203 28.626L18.4859 28.7087L18.477 28.7264L18.3115 28.6436Z" fill="black"/>
<path fill-rule="evenodd" clip-rule="evenodd" d="M21.1784 26.6304C21.9903 25.574 22.5045 24.2677 22.2954 23.1412L22.4773 23.1074C22.7001 24.3074 22.1523 25.6669 21.3251 26.7431C20.9101 27.2831 20.4215 27.7564 19.916 28.1077C19.4115 28.4584 18.885 28.6912 18.395 28.7418L18.376 28.5577C18.8245 28.5114 19.3213 28.2958 19.8104 27.9558C20.2986 27.6164 20.7738 27.1568 21.1784 26.6304Z" fill="#BA0000"/>
<path fill-rule="evenodd" clip-rule="evenodd" d="M16.9839 28.6763L17.0633 28.1123L17.3541 28.6146L17.9357 28.5265L17.5303 28.9319L17.8211 29.4342L17.2836 29.1786L16.8782 29.584L16.9487 29.02L16.4111 28.7644" fill="#BA0000"/>
<path fill-rule="evenodd" clip-rule="evenodd" d="M21.7248 22.2608C21.7248 22.2608 18.4113 25.9445 13.8112 23.7061C11.6962 22.3225 10.48 20.7275 10.2773 18.5243C10.3038 17.5285 10.4888 16.5768 10.7268 15.6162C10.8766 15.9335 11.044 16.2155 11.2996 16.427C11.749 16.8059 12.313 16.8235 12.9123 16.7266C13.6316 16.5691 14.3782 16.5872 15.089 16.7795C15.6455 16.8966 16.1612 17.1588 16.5837 17.5396C17.0062 17.9203 17.3205 18.406 17.4948 18.9473C17.7327 19.6435 17.6534 20.3485 17.9618 21.0447C18.2262 21.5911 18.5435 21.9788 19.222 22.3137C20.5615 22.7808 20.87 22.4811 21.7248 22.2696V22.2608Z" fill="white"/>
<path fill-rule="evenodd" clip-rule="evenodd" d="M14.4903 20.7266L14.4727 20.7178L14.4903 20.7266Z" fill="#BA0000"/>
<path fill-rule="evenodd" clip-rule="evenodd" d="M14.5134 20.6357L14.531 20.6446L14.4483 20.8101L14.4307 20.8013L14.5134 20.6357Z" fill="black"/>
<path fill-rule="evenodd" clip-rule="evenodd" d="M17.3342 22.6597C18.6002 23.0744 20.0016 23.1269 20.9914 22.5594L21.0835 22.72C20.0288 23.3246 18.5662 23.258 17.2765 22.8356C16.6296 22.6237 16.0206 22.3205 15.5208 21.9614C15.0219 21.6029 14.6267 21.1848 14.415 20.7408L14.5821 20.6611C14.7758 21.0675 15.1451 21.4635 15.6288 21.8111C16.1116 22.1581 16.7033 22.4531 17.3342 22.6597Z" fill="#BA0000"/>
<path fill-rule="evenodd" clip-rule="evenodd" d="M14.0141 19.3871L14.5693 19.2726L14.1904 19.7132L14.4635 20.2331L13.9524 19.9864L13.5735 20.427L13.6352 19.8277L13.1152 19.581L13.6704 19.4664L13.7321 18.8672" fill="#BA0000"/>
</g>
<defs>
<clipPath id="clip0_200_71150">
<rect width="60" height="45" fill="white" transform="translate(-7.5)"/>
</clipPath>
</defs>
</svg>
