<svg width="45" height="45" viewBox="0 0 45 45" fill="none" xmlns="http://www.w3.org/2000/svg">
<g clip-path="url(#clip0_200_71143)">
<path d="M-7.5 0H52.5V45H-7.5V0Z" fill="#00008B"/>
<path d="M-3.98438 0L7.45312 8.48438L18.8438 0H22.5V2.90625L11.25 11.2969L22.5 19.6406V22.5H18.75L7.5 14.1094L-3.70312 22.5H-7.5V19.6875L3.70312 11.3438L-7.5 3V0H-3.98438Z" fill="white"/>
<path d="M12.375 13.1719L22.5 20.625V22.5L9.79688 13.1719H12.375ZM3.75 14.1094L4.03125 15.75L-4.96875 22.5H-7.5L3.75 14.1094ZM22.5 0V0.140625L10.8281 8.95312L10.9219 6.89062L20.1562 0H22.5ZM-7.5 0L3.70312 8.25H0.890625L-7.5 1.96875V0Z" fill="#FF0000"/>
<path d="M3.79688 0V22.5H11.2969V0H3.79688ZM-7.5 7.5V15H22.5V7.5H-7.5Z" fill="white"/>
<path d="M-7.5 9.04688V13.5469H22.5V9.04688H-7.5ZM5.29688 0V22.5H9.79688V0H5.29688Z" fill="#FF0000"/>
<path d="M41.9066 37.1902L39.9848 37.434L40.191 39.3559L38.8035 38.0059L37.4254 39.3652L37.6129 37.4434L35.691 37.2184L37.3129 36.1684L36.291 34.5277L38.1285 35.1371L38.7754 33.309L39.441 35.1277L41.2691 34.4996L40.266 36.1496L41.8973 37.1902H41.9066ZM41.5598 26.2027L41.8129 24.984L40.8941 24.1402L42.1316 23.9996L42.6473 22.8652L43.1629 23.9996L44.4004 24.1402L43.4816 24.984L43.7348 26.2027L42.6473 25.584L41.5598 26.2027ZM31.8004 20.5777L29.8973 20.784L30.066 22.6871L28.716 21.3277L27.3285 22.6496L27.5535 20.7465L25.6598 20.4934L27.2816 19.4809L26.2973 17.8402L28.1066 18.4777L28.7816 16.6871L29.4098 18.4965L31.2285 17.9059L30.2066 19.5277L31.8098 20.5777H31.8004ZM50.9066 17.5027L48.9473 17.7559L49.1629 19.7152L47.7473 18.3371L46.341 19.7246L46.5379 17.7559L44.5785 17.5309L46.2379 16.4527L45.1973 14.7746L47.0723 15.4027L47.7285 13.5465L48.4035 15.4027L50.2691 14.7559L49.2379 16.4434L50.9066 17.5027ZM41.8973 9.67461L39.9566 9.89023L40.1348 11.8402L38.7566 10.4527L37.341 11.8027L37.566 9.86211L35.6254 9.59961L37.2848 8.56836L36.2816 6.89023L38.1285 7.53711L38.8129 5.70898L39.4504 7.55586L41.3066 6.94648L40.266 8.59648L41.8973 9.67461ZM14.4379 36.159L10.1441 36.6652L10.5754 40.9684L7.50039 37.9309L4.40664 40.9496L4.86602 36.6465L0.572266 36.1027L4.21914 33.7777L1.96914 30.084L6.05664 31.4902L7.53789 27.4215L8.99102 31.4996L13.0879 30.1215L10.8098 33.7965L14.4473 36.1496L14.4379 36.159Z" fill="white"/>
</g>
<defs>
<clipPath id="clip0_200_71143">
<rect width="60" height="45" fill="white" transform="translate(-7.5)"/>
</clipPath>
</defs>
</svg>
