<svg width="45" height="45" viewBox="0 0 45 45" fill="none" xmlns="http://www.w3.org/2000/svg">
<g clip-path="url(#clip0_200_83073)">
<path fill-rule="evenodd" clip-rule="evenodd" d="M54.7818 45.12H-9.67285V0H54.7818V45.12Z" fill="white"/>
<path fill-rule="evenodd" clip-rule="evenodd" d="M54.7818 10.1525H-9.67285V4.23047H54.7818V10.1525ZM54.7818 41.0403H-9.67285V35.1183H54.7818V41.0403ZM12.2174 16.8059L21.92 33.6907L31.834 16.8852L12.2174 16.8147V16.8059Z" fill="#0038B8"/>
<path fill-rule="evenodd" clip-rule="evenodd" d="M20.0957 28.0059L21.9375 31.1343L23.8234 28.0235L20.0869 28.0059H20.0957Z" fill="white"/>
<path fill-rule="evenodd" clip-rule="evenodd" d="M12.1826 28.2529L21.894 11.3682L31.7992 28.1824L12.1826 28.2529Z" fill="#0038B8"/>
<path fill-rule="evenodd" clip-rule="evenodd" d="M20.0954 16.8843L21.9372 13.7559L23.8231 16.8755L20.0866 16.8843H20.0954ZM16.2356 23.8902L14.3232 27.0627L17.9364 27.0539L16.2356 23.8814V23.8902ZM14.3585 18.0299L17.9892 18.0564L16.2444 21.2553L14.3585 18.0299ZM27.683 23.9343L29.5248 27.0627L25.85 27.0187L27.683 23.9343ZM29.4896 18.0299L25.8588 18.0564L27.6037 21.2553L29.4896 18.0299ZM19.4169 18.0299L16.9141 22.5595L19.4521 26.9922L24.1051 27.098L26.9251 22.5595L24.3166 17.977L19.4169 18.0211V18.0299Z" fill="white"/>
</g>
<defs>
<clipPath id="clip0_200_83073">
<rect width="60" height="45" fill="white" transform="translate(-7.5)"/>
</clipPath>
</defs>
</svg>
