<svg width="45" height="45" viewBox="0 0 45 45" fill="none" xmlns="http://www.w3.org/2000/svg">
<g clip-path="url(#clip0_200_71024)">
<path d="M-7.5 0H52.5V15H-7.5V0Z" fill="#FF9933"/>
<path d="M-7.5 15H52.5V30H-7.5V15Z" fill="white"/>
<path d="M-7.5 30H52.5V45H-7.5V30Z" fill="#128807"/>
<path d="M22.5 28.5C25.8137 28.5 28.5 25.8137 28.5 22.5C28.5 19.1863 25.8137 16.5 22.5 16.5C19.1863 16.5 16.5 19.1863 16.5 22.5C16.5 25.8137 19.1863 28.5 22.5 28.5Z" fill="#000088"/>
<path d="M22.5 27.75C25.3995 27.75 27.75 25.3995 27.75 22.5C27.75 19.6005 25.3995 17.25 22.5 17.25C19.6005 17.25 17.25 19.6005 17.25 22.5C17.25 25.3995 19.6005 27.75 22.5 27.75Z" fill="white"/>
<path d="M22.5002 23.5502C23.0801 23.5502 23.5502 23.0801 23.5502 22.5002C23.5502 21.9203 23.0801 21.4502 22.5002 21.4502C21.9203 21.4502 21.4502 21.9203 21.4502 22.5002C21.4502 23.0801 21.9203 23.5502 22.5002 23.5502Z" fill="#000088"/>
<path d="M27.6699 23.4554C27.8177 23.4749 27.9533 23.3708 27.9728 23.2229C27.9923 23.0751 27.8882 22.9395 27.7403 22.92C27.5925 22.9005 27.4569 23.0046 27.4374 23.1525C27.418 23.3003 27.522 23.4359 27.6699 23.4554Z" fill="#000088"/>
<path d="M22.5003 27.7506L22.6803 24.6006L22.5003 23.1006L22.3203 24.6006L22.5003 27.7506Z" fill="#000088"/>
</g>
<defs>
<clipPath id="clip0_200_71024">
<rect width="60" height="45" fill="white" transform="translate(-7.5)"/>
</clipPath>
</defs>
</svg>
