<svg width="45" height="45" viewBox="0 0 45 45" fill="none" xmlns="http://www.w3.org/2000/svg">
<g clip-path="url(#clip0_200_70827)">
<path d="M-7.5 15H52.5V30H-7.5V15Z" fill="white"/>
<path d="M-7.5 0H52.5V15H-7.5V0Z" fill="#CE1126"/>
<path d="M-7.5 30H52.5V45H-7.5V30Z" fill="black"/>
<path d="M29.1481 19.7456C29.0626 19.7046 28.9848 19.649 28.9182 19.5814C28.8689 19.4993 28.9018 19.4993 29.1153 19.5486C29.493 19.6635 29.7394 19.6143 29.9857 19.4172L30.1992 19.2365L30.4456 19.3515C30.5934 19.4336 30.7412 19.4829 30.774 19.4665C30.889 19.4336 31.1189 19.138 31.1025 19.0394C31.1025 18.9245 31.201 18.9573 31.2667 19.0887C31.3653 19.3515 31.2175 19.6635 30.9383 19.7292C30.8233 19.7621 30.7083 19.7456 30.5113 19.68C30.2813 19.5978 30.2321 19.5978 30.1171 19.68C29.9795 19.784 29.8145 19.8456 29.6424 19.8572C29.4703 19.8689 29.2985 19.8301 29.1481 19.7456ZM30.1007 18.8752C29.9895 18.6743 29.9328 18.4478 29.9364 18.2183C29.9529 18.1197 29.9857 18.0869 30.0678 18.1197C30.2321 18.169 30.2649 18.284 30.2321 18.6124C30.2321 18.9081 30.1828 18.9902 30.1007 18.8752ZM18.9985 18.5632C18.9821 18.7767 19.3927 19.3186 19.5733 19.4172C19.442 19.4665 19.2941 19.45 19.1792 19.4993C18.5222 20.1562 16.1573 22.4555 15.7303 23.0139C17.0113 23.0467 18.4237 22.9975 19.6226 22.9482C19.6226 22.0778 20.4438 22.0285 21.0022 21.7164C21.2814 22.1599 21.9876 22.127 22.0861 22.8004V25.6909H11.1646C11.1233 25.9101 11.0364 26.1181 10.9096 26.3016C10.7828 26.485 10.6189 26.6398 10.4285 26.756C10.238 26.8721 10.0254 26.9469 9.8042 26.9756C9.58302 27.0043 9.35829 26.9863 9.14453 26.9226C9.473 26.5942 10.0314 26.4628 10.2285 25.9865C10.3927 24.9354 9.9 24.2949 9.57154 23.6872C9.98468 23.5548 10.3731 23.355 10.7212 23.096C10.3434 24.2456 11.7394 24.1307 12.7577 24.0978C12.7905 23.7037 12.7741 23.2438 12.4785 23.1781C12.8562 23.0303 12.9219 22.981 13.5624 22.4555V24.0321L21.1336 24.0157C21.1336 23.523 21.2649 22.7183 20.8708 22.7183C20.5095 22.7183 20.8708 23.7365 20.5752 23.7365H14.712V22.7511C14.9584 22.4883 14.9255 22.5048 16.6171 20.8132C16.7814 20.6489 17.9803 19.565 19.0149 18.5632H18.9985ZM33.6317 18.5139C34.0423 18.7438 34.3707 19.0394 34.8634 19.1708C34.8142 19.3843 34.6171 19.4665 34.5678 19.68V24.1142C35.1262 24.2292 35.2576 23.9007 35.5204 23.7365C35.5861 24.4427 36.0459 25.1325 36.0131 25.7073H33.6317V18.5303V18.5139ZM30.4456 20.8953C30.4456 20.8953 31.316 20.1562 31.316 20.1234V23.9829H31.9401L31.9237 19.6635C32.17 19.4008 32.6791 19.0394 32.7941 18.7767V25.6745H27.3087C27.2266 24.2456 27.2102 22.7675 28.8854 23.0796V22.5048C28.8361 22.4062 28.7375 22.5212 28.7211 22.3898C28.9839 22.127 29.066 22.0613 29.7886 21.4372L29.8051 23.9829H30.4456V20.8953ZM28.3762 23.95C28.4912 24.1142 28.9018 24.1142 28.8689 23.8186C28.8197 23.5723 28.2941 23.6544 28.3762 23.95Z" fill="#007A3D"/>
<path d="M12.4789 26.8405C12.6603 26.8405 12.8073 26.6935 12.8073 26.5121C12.8073 26.3307 12.6603 26.1836 12.4789 26.1836C12.2974 26.1836 12.1504 26.3307 12.1504 26.5121C12.1504 26.6935 12.2974 26.8405 12.4789 26.8405Z" fill="#007A3D"/>
<path d="M22.8252 18.5303C23.2358 18.7438 23.5642 19.0558 24.0734 19.1872C24.0077 19.3843 23.827 19.4664 23.7777 19.6799V24.1142C24.3361 24.2292 24.4511 23.9171 24.7139 23.7365C24.796 24.4427 25.2394 25.1489 25.223 25.7073H22.8252V18.5303Z" fill="#007A3D"/>
</g>
<defs>
<clipPath id="clip0_200_70827">
<rect width="60" height="45" fill="white" transform="translate(-7.5)"/>
</clipPath>
</defs>
</svg>
