<svg width="45" height="45" viewBox="0 0 45 45" fill="none" xmlns="http://www.w3.org/2000/svg">
<g clip-path="url(#clip0_200_70638)">
<path fill-rule="evenodd" clip-rule="evenodd" d="M-16.875 0H61.875V45H-16.875V0Z" fill="white"/>
<path fill-rule="evenodd" clip-rule="evenodd" d="M-16.875 30.2168H61.875V45H-16.875V30.2168Z" fill="#DA0000"/>
<path fill-rule="evenodd" clip-rule="evenodd" d="M-1.89844 30.8496H2.4082V31.1396H-1.89844V30.8496ZM-1.25684 32.3262H-0.958008V32.6162H-1.25684V32.3262ZM2.42578 32.3262V32.6162H1.56445V32.3174L2.42578 32.3262ZM2.88281 30.8496H3.18164V32.6074H2.88281V30.8496Z" fill="white"/>
<path fill-rule="evenodd" clip-rule="evenodd" d="M4.60547 32.3174V32.6162H2.9707V32.3174H4.60547ZM1.56445 31.623H1.8457V32.6162H1.55566L1.56445 31.623Z" fill="white"/>
<path fill-rule="evenodd" clip-rule="evenodd" d="M4.35938 30.8496H4.6582V32.6074H4.35938V30.8496ZM3.62109 30.8496H3.91113V32.6074H3.62109V30.8496ZM-0.316406 31.5527V31.8516H-1.89844V31.5527H-0.316406ZM3.1377 31.5527V31.8516H1.55566V31.5527H3.1377Z" fill="white"/>
<path fill-rule="evenodd" clip-rule="evenodd" d="M1.56445 31.6318H1.8457V32.6074H1.55566L1.56445 31.6318Z" fill="white"/>
<path fill-rule="evenodd" clip-rule="evenodd" d="M1.56445 31.6318H1.8457V32.6074H1.55566L1.56445 31.6318Z" fill="white"/>
<path fill-rule="evenodd" clip-rule="evenodd" d="M1.56445 31.6318H1.8457V32.6074H1.55566L1.56445 31.6318ZM-1.88965 31.6318H-1.59961V32.6074H-1.88965V31.6318ZM0.641602 31.6318H0.94043V32.6074H0.641602V31.6318ZM-0.615234 31.6318H-0.316406V32.6074H-0.615234V31.6318Z" fill="white"/>
<path fill-rule="evenodd" clip-rule="evenodd" d="M0.84375 32.3174V32.6162H-0.483398V32.3174H0.84375ZM0.931641 31.5527V31.8516H0.0878906V31.5527H0.931641Z" fill="white"/>
<path fill-rule="evenodd" clip-rule="evenodd" d="M5.12402 30.8496H9.43066V31.1396H5.12402V30.8496ZM5.76562 32.3262H6.06445V32.6162H5.76562V32.3262ZM9.44824 32.3262V32.6162H8.58691V32.3174L9.44824 32.3262ZM9.91406 30.8496H10.2129V32.6074H9.91406V30.8496Z" fill="white"/>
<path fill-rule="evenodd" clip-rule="evenodd" d="M11.6279 32.3174V32.6162H9.99316V32.3174H11.6279ZM8.58691 31.623H8.88574V32.6162H8.58691V31.623Z" fill="white"/>
<path fill-rule="evenodd" clip-rule="evenodd" d="M11.3818 30.8496H11.6807V32.6074H11.3818V30.8496ZM10.6436 30.8496H10.9424V32.6074H10.6348L10.6436 30.8496ZM6.70606 31.5527V31.8516H5.12402V31.5527H6.70606ZM10.1602 31.5527V31.8516H8.57812V31.5527H10.1602Z" fill="white"/>
<path fill-rule="evenodd" clip-rule="evenodd" d="M8.58691 31.6318H8.88574V32.6074H8.58691V31.6318Z" fill="white"/>
<path fill-rule="evenodd" clip-rule="evenodd" d="M8.58691 31.6318H8.88574V32.6074H8.58691V31.6318Z" fill="white"/>
<path fill-rule="evenodd" clip-rule="evenodd" d="M8.58691 31.6318H8.88574V32.6074H8.58691V31.6318ZM5.13281 31.6318H5.43164V32.6074H5.13281V31.6318ZM7.66406 31.6318H7.96289V32.6074H7.66406V31.6318ZM6.40723 31.6318H6.70605V32.6074H6.40723V31.6318Z" fill="white"/>
<path fill-rule="evenodd" clip-rule="evenodd" d="M7.875 32.3174V32.6162H6.53906V32.3174H7.875ZM7.96289 31.5527V31.8516H7.11914V31.5527H7.96289Z" fill="white"/>
<path fill-rule="evenodd" clip-rule="evenodd" d="M12.1904 30.8496H16.5059V31.1396H12.1992L12.1904 30.8496ZM12.8408 32.3262H13.1309V32.6162H12.8408V32.3262ZM16.5146 32.3262V32.6162H15.6533V32.3174L16.5146 32.3262ZM16.9805 30.8496H17.2793V32.6074H16.9805V30.8496Z" fill="white"/>
<path fill-rule="evenodd" clip-rule="evenodd" d="M18.7031 32.3174V32.6162H17.0684V32.3174H18.7031ZM15.6533 31.623H15.9521V32.6162H15.6533V31.623Z" fill="white"/>
<path fill-rule="evenodd" clip-rule="evenodd" d="M18.457 30.8496H18.7559V32.6074H18.457V30.8496ZM17.71 30.8496H18.0088V32.6074H17.71V30.8496ZM13.7725 31.5527V31.8516H12.1992V31.5527H13.7725ZM17.2266 31.5527V31.8516H15.6533V31.5527H17.2266Z" fill="white"/>
<path fill-rule="evenodd" clip-rule="evenodd" d="M15.6533 31.6318H15.9521V32.6074H15.6533V31.6318Z" fill="white"/>
<path fill-rule="evenodd" clip-rule="evenodd" d="M15.6533 31.6318H15.9521V32.6074H15.6533V31.6318Z" fill="white"/>
<path fill-rule="evenodd" clip-rule="evenodd" d="M15.6533 31.6318H15.9521V32.6074H15.6533V31.6318ZM12.1992 31.6318H12.498V32.6074H12.1992V31.6318ZM14.7305 31.6318H15.0293V32.6074H14.7305V31.6318ZM13.4824 31.6318H13.7725V32.6074H13.4824V31.6318Z" fill="white"/>
<path fill-rule="evenodd" clip-rule="evenodd" d="M14.9414 32.3174V32.6162H13.6143V32.3174H14.9414ZM15.0293 31.5527V31.8516H14.1855V31.5527H15.0293Z" fill="white"/>
<path fill-rule="evenodd" clip-rule="evenodd" d="M19.292 30.8496H23.5986V31.1396H19.292V30.8496ZM19.9336 32.3262H20.2324V32.6162H19.9336V32.3262ZM23.6162 32.3262V32.6162H22.7549V32.3174L23.6162 32.3262ZM24.082 30.8496H24.3721V32.6074H24.082V30.8496Z" fill="white"/>
<path fill-rule="evenodd" clip-rule="evenodd" d="M25.7959 32.3174V32.6162H24.1611V32.3174H25.7959ZM22.7549 31.623H23.0537V32.6162H22.7549V31.623Z" fill="white"/>
<path fill-rule="evenodd" clip-rule="evenodd" d="M25.5498 30.8496H25.8486V32.6074H25.5498V30.8496ZM24.8115 30.8496H25.1104V32.6074H24.8115V30.8496ZM20.874 31.5527V31.8516H19.292V31.5527H20.874ZM24.3281 31.5527V31.8516H22.7461V31.5527H24.3281Z" fill="white"/>
<path fill-rule="evenodd" clip-rule="evenodd" d="M22.7549 31.6318H23.0537V32.6074H22.7549V31.6318Z" fill="white"/>
<path fill-rule="evenodd" clip-rule="evenodd" d="M22.7549 31.6318H23.0537V32.6074H22.7549V31.6318Z" fill="white"/>
<path fill-rule="evenodd" clip-rule="evenodd" d="M22.7549 31.6318H23.0537V32.6074H22.7549V31.6318ZM19.3008 31.6318H19.5908V32.6074H19.3008V31.6318ZM21.832 31.6318H22.1309V32.6074H21.832V31.6318ZM20.5752 31.6318H20.874V32.6074H20.5664L20.5752 31.6318Z" fill="white"/>
<path fill-rule="evenodd" clip-rule="evenodd" d="M22.043 32.3174V32.6162H20.707V32.3174H22.043ZM22.1309 31.5527V31.8516H21.2695V31.5527H22.1309Z" fill="white"/>
<path fill-rule="evenodd" clip-rule="evenodd" d="M-16.875 0H61.875V14.7832H-16.875V0Z" fill="#239F40"/>
<path fill-rule="evenodd" clip-rule="evenodd" d="M26.4287 30.8496H30.7354V31.1396H26.4287V30.8496ZM27.0703 32.3262H27.3691V32.6162H27.0703V32.3262ZM30.7529 32.3262V32.6162H29.8828V32.3174L30.7529 32.3262ZM31.2188 30.8496H31.5088V32.6074H31.2188V30.8496Z" fill="white"/>
<path fill-rule="evenodd" clip-rule="evenodd" d="M32.9326 32.3174V32.6162H31.2979V32.3174H32.9326ZM29.8916 31.623H30.1904V32.6162H29.8828L29.8916 31.623Z" fill="white"/>
<path fill-rule="evenodd" clip-rule="evenodd" d="M32.6953 30.8496H32.9853V32.6074H32.6953V30.8496ZM31.9482 30.8496H32.2471V32.6074H31.9482V30.8496ZM28.0107 31.5527V31.8516H26.4287V31.5527H28.0107ZM31.4648 31.5527V31.8516H29.8828V31.5527H31.4648Z" fill="white"/>
<path fill-rule="evenodd" clip-rule="evenodd" d="M29.8828 31.6318H30.1904V32.6074H29.8828V31.6318Z" fill="white"/>
<path fill-rule="evenodd" clip-rule="evenodd" d="M29.8828 31.6318H30.1904V32.6074H29.8828V31.6318Z" fill="white"/>
<path fill-rule="evenodd" clip-rule="evenodd" d="M29.8828 31.6318H30.1904V32.6074H29.8828V31.6318ZM26.4375 31.6318H26.7363V32.6074H26.4375V31.6318ZM28.9688 31.6318H29.2676V32.6074H28.9688V31.6318ZM27.7119 31.6318H28.0107V32.6074H27.7119V31.6318Z" fill="white"/>
<path fill-rule="evenodd" clip-rule="evenodd" d="M29.1797 32.3174V32.6162H27.8438V32.3174H29.1797ZM29.2676 31.5527V31.8516H28.4238V31.5527H29.2676Z" fill="white"/>
<path fill-rule="evenodd" clip-rule="evenodd" d="M33.5215 30.8496H37.8281V31.1396H33.5215V30.8496ZM34.1631 32.3262H34.4619V32.6162H34.1631V32.3262ZM37.8545 32.3262V32.6162H36.9844V32.3174L37.8545 32.3262ZM38.3115 30.8496H38.6104V32.6074H38.3115V30.8496Z" fill="white"/>
<path fill-rule="evenodd" clip-rule="evenodd" d="M40.0254 32.3174V32.6162H38.3906V32.3174H40.0254ZM36.9844 31.623H37.2832V32.6162H36.9844V31.623Z" fill="white"/>
<path fill-rule="evenodd" clip-rule="evenodd" d="M39.7881 30.8496H40.0781V32.6074H39.7881V30.8496ZM39.041 30.8496H39.3398V32.6074H39.041V30.8496ZM35.1035 31.5527V31.8516H33.5303V31.5527H35.1035ZM38.5576 31.5527V31.8516H36.9844V31.5527H38.5576Z" fill="white"/>
<path fill-rule="evenodd" clip-rule="evenodd" d="M36.9844 31.6318H37.2832V32.6074H36.9844V31.6318Z" fill="white"/>
<path fill-rule="evenodd" clip-rule="evenodd" d="M36.9844 31.6318H37.2832V32.6074H36.9844V31.6318Z" fill="white"/>
<path fill-rule="evenodd" clip-rule="evenodd" d="M36.9844 31.6318H37.2832V32.6074H36.9844V31.6318ZM33.5303 31.6318H33.8291V32.6074H33.5303V31.6318ZM36.0615 31.6318H36.3604V32.6074H36.0615V31.6318ZM34.8047 31.6318H35.1035V32.6074H34.8135L34.8047 31.6318Z" fill="white"/>
<path fill-rule="evenodd" clip-rule="evenodd" d="M36.2725 32.3174V32.6162H34.9453V32.3174H36.2725ZM36.3604 31.5527V31.8516H35.5078V31.5527H36.3604Z" fill="white"/>
<path fill-rule="evenodd" clip-rule="evenodd" d="M40.623 30.8496H44.9297V31.1396H40.623V30.8496ZM41.2646 32.3262H41.5635V32.6162H41.2646V32.3262ZM44.9473 32.3262V32.6162H44.0859V32.3174L44.9473 32.3262ZM45.4043 30.8496H45.7031V32.6074H45.4043V30.8496Z" fill="white"/>
<path fill-rule="evenodd" clip-rule="evenodd" d="M47.127 32.3174V32.6162H45.4922V32.3174H47.127ZM44.0771 31.623H44.376V32.6162H44.0771V31.623Z" fill="white"/>
<path fill-rule="evenodd" clip-rule="evenodd" d="M46.8809 30.8496H47.1797V32.6074H46.8809V30.8496ZM46.1426 30.8496H46.4326V32.6074H46.1426V30.8496ZM42.2051 31.5527V31.8516H40.623V31.5527H42.2051ZM45.6592 31.5527V31.8516H44.0771V31.5527H45.6592Z" fill="white"/>
<path fill-rule="evenodd" clip-rule="evenodd" d="M44.0859 31.6318H44.376V32.6074H44.0859V31.6318Z" fill="white"/>
<path fill-rule="evenodd" clip-rule="evenodd" d="M44.0859 31.6318H44.376V32.6074H44.0859V31.6318Z" fill="white"/>
<path fill-rule="evenodd" clip-rule="evenodd" d="M44.0859 31.6318H44.376V32.6074H44.0859V31.6318ZM40.623 31.6318H40.9219V32.6074H40.623V31.6318ZM43.1631 31.6318H43.4531V32.6074H43.1631V31.6318ZM41.9062 31.6318H42.2051V32.6074H41.9062V31.6318Z" fill="white"/>
<path fill-rule="evenodd" clip-rule="evenodd" d="M43.3652 32.3174V32.6162H42.0381V32.3174H43.3652ZM43.4531 31.5527V31.8516H42.6094V31.5527H43.4531Z" fill="white"/>
<path fill-rule="evenodd" clip-rule="evenodd" d="M-1.89844 12.6035H2.4082V12.9023H-1.89844V12.6035ZM-1.25684 14.0977H-0.958008V14.3789H-1.25684V14.0977ZM2.42578 14.0801V14.3789H1.56445V14.0801H2.42578ZM2.88281 12.6035H3.18164V14.3789H2.88281V12.6035Z" fill="white"/>
<path fill-rule="evenodd" clip-rule="evenodd" d="M4.60547 14.0801V14.3789H2.9707V14.0801H4.60547ZM1.56445 13.3857H1.8457V14.3789H1.55566L1.56445 13.3857Z" fill="white"/>
<path fill-rule="evenodd" clip-rule="evenodd" d="M4.35938 12.6035H4.6582V14.3789H4.35938V12.6035ZM3.62109 12.6035H3.91113V14.3789H3.62109V12.6035ZM-0.316406 13.3066V13.6055H-1.89844V13.3154L-0.316406 13.3066ZM3.1377 13.3066V13.6055H1.55566V13.3154L3.1377 13.3066Z" fill="white"/>
<path fill-rule="evenodd" clip-rule="evenodd" d="M1.56445 13.3857H1.8457V14.3789H1.55566L1.56445 13.3857Z" fill="white"/>
<path fill-rule="evenodd" clip-rule="evenodd" d="M1.56445 13.3857H1.8457V14.3789H1.55566L1.56445 13.3857Z" fill="white"/>
<path fill-rule="evenodd" clip-rule="evenodd" d="M1.56445 13.3857H1.8457V14.3789H1.55566L1.56445 13.3857ZM-1.88965 13.3857H-1.59961V14.3789H-1.88965V13.3857ZM0.641602 13.3857H0.94043V14.3789H0.641602V13.3857ZM-0.615234 13.3857H-0.316406V14.3789H-0.615234V13.3857Z" fill="white"/>
<path fill-rule="evenodd" clip-rule="evenodd" d="M0.84375 14.0801V14.3789H-0.483398V14.0801H0.84375ZM0.931641 13.3154V13.6055H0.0878906V13.3154H0.931641Z" fill="white"/>
<path fill-rule="evenodd" clip-rule="evenodd" d="M5.12402 12.6035H9.43066V12.9023H5.12402V12.6035ZM5.76562 14.0977H6.06445V14.3789H5.76562V14.0977ZM9.44824 14.0801V14.3789H8.58691V14.0801H9.44824ZM9.91406 12.6035H10.2129V14.3789H9.91406V12.6035Z" fill="white"/>
<path fill-rule="evenodd" clip-rule="evenodd" d="M11.6279 14.0801V14.3789H9.99316V14.0801H11.6279ZM8.58691 13.3857H8.88574V14.3789H8.58691V13.3857Z" fill="white"/>
<path fill-rule="evenodd" clip-rule="evenodd" d="M11.3818 12.6035H11.6807V14.3789H11.3818V12.6035ZM10.6436 12.6035H10.9424V14.3789H10.6348L10.6436 12.6035ZM6.70606 13.3066V13.6055H5.12402V13.3154L6.70606 13.3066ZM10.1602 13.3066V13.6055H8.57812V13.3154L10.1602 13.3066Z" fill="white"/>
<path fill-rule="evenodd" clip-rule="evenodd" d="M8.58691 13.3857H8.88574V14.3789H8.58691V13.3857Z" fill="white"/>
<path fill-rule="evenodd" clip-rule="evenodd" d="M8.58691 13.3857H8.88574V14.3789H8.58691V13.3857Z" fill="white"/>
<path fill-rule="evenodd" clip-rule="evenodd" d="M8.58691 13.3857H8.88574V14.3789H8.58691V13.3857ZM5.13281 13.3857H5.43164V14.3789H5.13281V13.3857ZM7.66406 13.3857H7.96289V14.3789H7.66406V13.3857ZM6.40723 13.3857H6.70605V14.3789H6.40723V13.3857Z" fill="white"/>
<path fill-rule="evenodd" clip-rule="evenodd" d="M7.875 14.0801V14.3789H6.53906V14.0801H7.875ZM7.96289 13.3154V13.6055H7.11914V13.3154H7.96289Z" fill="white"/>
<path fill-rule="evenodd" clip-rule="evenodd" d="M12.1904 12.6035H16.5059V12.9023H12.1992L12.1904 12.6035ZM12.8408 14.0977H13.1309V14.3789H12.8408V14.0977ZM16.5146 14.0801V14.3789H15.6533V14.0801H16.5146ZM16.9805 12.6035H17.2793V14.3789H16.9805V12.6035Z" fill="white"/>
<path fill-rule="evenodd" clip-rule="evenodd" d="M18.7031 14.0801V14.3789H17.0684V14.0801H18.7031ZM15.6533 13.3857H15.9521V14.3789H15.6533V13.3857Z" fill="white"/>
<path fill-rule="evenodd" clip-rule="evenodd" d="M18.457 12.6035H18.7559V14.3789H18.457V12.6035ZM17.71 12.6035H18.0088V14.3789H17.71V12.6035ZM13.7725 13.3066V13.6055H12.1992V13.3154L13.7725 13.3066ZM17.2266 13.3066V13.6055H15.6533V13.3154L17.2266 13.3066Z" fill="white"/>
<path fill-rule="evenodd" clip-rule="evenodd" d="M15.6533 13.3857H15.9521V14.3789H15.6533V13.3857Z" fill="white"/>
<path fill-rule="evenodd" clip-rule="evenodd" d="M15.6533 13.3857H15.9521V14.3789H15.6533V13.3857Z" fill="white"/>
<path fill-rule="evenodd" clip-rule="evenodd" d="M15.6533 13.3857H15.9521V14.3789H15.6533V13.3857ZM12.1992 13.3857H12.498V14.3789H12.1992V13.3857ZM14.7305 13.3857H15.0293V14.3789H14.7305V13.3857ZM13.4824 13.3857H13.7725V14.3789H13.4824V13.3857Z" fill="white"/>
<path fill-rule="evenodd" clip-rule="evenodd" d="M14.9414 14.0801V14.3789H13.6143V14.0801H14.9414ZM15.0293 13.3154V13.6055H14.1855V13.3154H15.0293Z" fill="white"/>
<path fill-rule="evenodd" clip-rule="evenodd" d="M19.292 12.6035H23.5986V12.9023H19.292V12.6035ZM19.9336 14.0977H20.2324V14.3789H19.9336V14.0977ZM23.6162 14.0801V14.3789H22.7549V14.0801H23.6162ZM24.082 12.6035H24.3721V14.3789H24.082V12.6035Z" fill="white"/>
<path fill-rule="evenodd" clip-rule="evenodd" d="M25.7959 14.0801V14.3789H24.1611V14.0801H25.7959ZM22.7549 13.3857H23.0537V14.3789H22.7549V13.3857Z" fill="white"/>
<path fill-rule="evenodd" clip-rule="evenodd" d="M25.5498 12.6035H25.8486V14.3789H25.5498V12.6035ZM24.8115 12.6035H25.1104V14.3789H24.8115V12.6035ZM20.874 13.3066V13.6055H19.292V13.3154L20.874 13.3066ZM24.3281 13.3066V13.6055H22.7461V13.3154L24.3281 13.3066Z" fill="white"/>
<path fill-rule="evenodd" clip-rule="evenodd" d="M22.7549 13.3857H23.0537V14.3789H22.7549V13.3857Z" fill="white"/>
<path fill-rule="evenodd" clip-rule="evenodd" d="M22.7549 13.3857H23.0537V14.3789H22.7549V13.3857Z" fill="white"/>
<path fill-rule="evenodd" clip-rule="evenodd" d="M22.7549 13.3857H23.0537V14.3789H22.7549V13.3857ZM19.3008 13.3857H19.5908V14.3789H19.3008V13.3857ZM21.832 13.3857H22.1309V14.3789H21.832V13.3857ZM20.5752 13.3857H20.874V14.3789H20.5664L20.5752 13.3857Z" fill="white"/>
<path fill-rule="evenodd" clip-rule="evenodd" d="M22.043 14.0801V14.3789H20.707V14.0801H22.043ZM22.1309 13.3154V13.6055H21.2695V13.3154H22.1309Z" fill="white"/>
<path fill-rule="evenodd" clip-rule="evenodd" d="M26.4287 12.6035H30.7354V12.9023H26.4287V12.6035ZM27.0703 14.0977H27.3691V14.3789H27.0703V14.0977ZM30.7529 14.0801V14.3789H29.8828V14.0801H30.7529ZM31.2188 12.6035H31.5088V14.3789H31.2188V12.6035Z" fill="white"/>
<path fill-rule="evenodd" clip-rule="evenodd" d="M32.9326 14.0801V14.3789H31.2979V14.0801H32.9326ZM29.8916 13.3857H30.1904V14.3789H29.8828L29.8916 13.3857Z" fill="white"/>
<path fill-rule="evenodd" clip-rule="evenodd" d="M32.6953 12.6035H32.9853V14.3789H32.6953V12.6035ZM31.9482 12.6035H32.2471V14.3789H31.9482V12.6035ZM28.0107 13.3066V13.6055H26.4287V13.3154L28.0107 13.3066ZM31.4648 13.3066V13.6055H29.8828V13.3154L31.4648 13.3066Z" fill="white"/>
<path fill-rule="evenodd" clip-rule="evenodd" d="M29.8828 13.3857H30.1904V14.3789H29.8828V13.3857Z" fill="white"/>
<path fill-rule="evenodd" clip-rule="evenodd" d="M29.8828 13.3857H30.1904V14.3789H29.8828V13.3857Z" fill="white"/>
<path fill-rule="evenodd" clip-rule="evenodd" d="M29.8828 13.3857H30.1904V14.3789H29.8828V13.3857ZM26.4375 13.3857H26.7363V14.3789H26.4375V13.3857ZM28.9688 13.3857H29.2676V14.3789H28.9688V13.3857ZM27.7119 13.3857H28.0107V14.3789H27.7119V13.3857Z" fill="white"/>
<path fill-rule="evenodd" clip-rule="evenodd" d="M29.1797 14.0801V14.3789H27.8438V14.0801H29.1797ZM29.2676 13.3154V13.6055H28.4238V13.3154H29.2676Z" fill="white"/>
<path fill-rule="evenodd" clip-rule="evenodd" d="M33.5215 12.6035H37.8281V12.9023H33.5215V12.6035ZM34.1631 14.0977H34.4619V14.3789H34.1631V14.0977ZM37.8545 14.0801V14.3789H36.9844V14.0801H37.8545ZM38.3115 12.6035H38.6104V14.3789H38.3115V12.6035Z" fill="white"/>
<path fill-rule="evenodd" clip-rule="evenodd" d="M40.0254 14.0801V14.3789H38.3906V14.0801H40.0254ZM36.9844 13.3857H37.2832V14.3789H36.9844V13.3857Z" fill="white"/>
<path fill-rule="evenodd" clip-rule="evenodd" d="M39.7881 12.6035H40.0781V14.3789H39.7881V12.6035ZM39.041 12.6035H39.3398V14.3789H39.041V12.6035ZM35.1035 13.3066V13.6055H33.5303V13.3154L35.1035 13.3066ZM38.5576 13.3066V13.6055H36.9844V13.3154L38.5576 13.3066Z" fill="white"/>
<path fill-rule="evenodd" clip-rule="evenodd" d="M36.9844 13.3857H37.2832V14.3789H36.9844V13.3857Z" fill="white"/>
<path fill-rule="evenodd" clip-rule="evenodd" d="M36.9844 13.3857H37.2832V14.3789H36.9844V13.3857Z" fill="white"/>
<path fill-rule="evenodd" clip-rule="evenodd" d="M36.9844 13.3857H37.2832V14.3789H36.9844V13.3857ZM33.5303 13.3857H33.8291V14.3789H33.5303V13.3857ZM36.0615 13.3857H36.3604V14.3789H36.0615V13.3857ZM34.8047 13.3857H35.1035V14.3789H34.8135L34.8047 13.3857Z" fill="white"/>
<path fill-rule="evenodd" clip-rule="evenodd" d="M36.2725 14.0801V14.3789H34.9453V14.0801H36.2725ZM36.3604 13.3154V13.6055H35.5078V13.3154H36.3604Z" fill="white"/>
<path fill-rule="evenodd" clip-rule="evenodd" d="M40.623 12.6035H44.9297V12.9023H40.623V12.6035ZM41.2646 14.0977H41.5635V14.3789H41.2646V14.0977ZM44.9473 14.0801V14.3789H44.0859V14.0801H44.9473ZM45.4043 12.6035H45.7031V14.3789H45.4043V12.6035Z" fill="white"/>
<path fill-rule="evenodd" clip-rule="evenodd" d="M47.127 14.0801V14.3789H45.4922V14.0801H47.127ZM44.0771 13.3857H44.376V14.3789H44.0771V13.3857Z" fill="white"/>
<path fill-rule="evenodd" clip-rule="evenodd" d="M46.8809 12.6035H47.1797V14.3789H46.8809V12.6035ZM46.1426 12.6035H46.4326V14.3789H46.1426V12.6035ZM42.2051 13.3066V13.6055H40.623V13.3154L42.2051 13.3066ZM45.6592 13.3066V13.6055H44.0771V13.3154L45.6592 13.3066Z" fill="white"/>
<path fill-rule="evenodd" clip-rule="evenodd" d="M44.0859 13.3857H44.376V14.3789H44.0859V13.3857Z" fill="white"/>
<path fill-rule="evenodd" clip-rule="evenodd" d="M44.0859 13.3857H44.376V14.3789H44.0859V13.3857Z" fill="white"/>
<path fill-rule="evenodd" clip-rule="evenodd" d="M44.0859 13.3857H44.376V14.3789H44.0859V13.3857ZM40.623 13.3857H40.9219V14.3789H40.623V13.3857ZM43.1631 13.3857H43.4531V14.3789H43.1631V13.3857ZM41.9062 13.3857H42.2051V14.3789H41.9062V13.3857Z" fill="white"/>
<path fill-rule="evenodd" clip-rule="evenodd" d="M43.3652 14.0801V14.3789H42.0381V14.0801H43.3652ZM43.4531 13.3154V13.6055H42.6094V13.3154H43.4531Z" fill="white"/>
<path fill-rule="evenodd" clip-rule="evenodd" d="M-6.04688 29.8389H-5.51953V30.7617H-6.04688V29.8389ZM8.05957 29.8389H8.58691V30.7617H8.05957V29.8389ZM-16.875 29.8389H-16.3477V30.7617H-16.875V29.8389ZM-9.71191 29.8389H-9.18457V30.7617H-9.71191V29.8389ZM-2.60156 29.8389H-2.07422V30.7617H-2.60156V29.8389ZM0.914062 29.8389H1.44141V30.7617H0.914062V29.8389ZM4.50879 29.8389H5.03613V30.7617H4.50879V29.8389ZM11.5752 29.8389H12.1025V30.7617H11.5752V29.8389ZM29.417 29.8389H29.9531V30.7617H29.4258L29.417 29.8389ZM15.1699 29.8389H15.6973V30.7617H15.1699V29.8389ZM18.6855 29.8389H19.2129V30.7617H18.6855V29.8389ZM22.2451 29.8389H22.7725V30.7617H22.2451V29.8389ZM25.7959 29.8389H26.3232V30.7617H25.7959V29.8389ZM54.2021 29.8389H54.7295V30.7617H54.2021V29.8389ZM32.8711 29.8389H33.3984V30.7617H32.8711V29.8389ZM36.457 29.8389H36.9844V30.7617H36.457V29.8389ZM40.0869 29.8389H40.6143V30.7617H40.0869V29.8389ZM43.4971 29.8389H44.0244V30.7617H43.4971V29.8389ZM47.127 29.8389H47.6543V30.7617H47.127V29.8389ZM50.6777 29.8389H51.2051V30.7617H50.6777V29.8389ZM61.1982 29.8389H61.7256V30.7617H61.1982V29.8389ZM57.7881 29.8389H58.3154V30.7617H57.7881V29.8389ZM-13.3066 29.8389H-12.7793V30.7617H-13.3066V29.8389Z" fill="#D90000"/>
<path fill-rule="evenodd" clip-rule="evenodd" d="M-6.04688 14.291H-5.51953V15.2139H-6.04688V14.291ZM8.05957 14.291H8.58691V15.2139H8.05957V14.291ZM-16.875 14.291H-16.3477V15.2139H-16.875V14.291ZM-9.71191 14.291H-9.18457V15.2139H-9.71191V14.291ZM-2.60156 14.291H-2.07422V15.2139H-2.60156V14.291ZM0.914062 14.291H1.44141V15.2139H0.914062V14.291ZM4.50879 14.291H5.03613V15.2139H4.50879V14.291ZM11.5752 14.291H12.1025V15.2139H11.5752V14.291ZM29.417 14.291H29.9531V15.2139H29.4258L29.417 14.291ZM15.1699 14.291H15.6973V15.2139H15.1699V14.291ZM18.6855 14.291H19.2129V15.2139H18.6855V14.291ZM22.2451 14.291H22.7725V15.2139H22.2451V14.291ZM25.7959 14.291H26.3232V15.2139H25.7959V14.291ZM54.2021 14.291H54.7295V15.2139H54.2021V14.291ZM32.8711 14.291H33.3984V15.2139H32.8711V14.291ZM36.457 14.291H36.9844V15.2139H36.457V14.291ZM40.0869 14.291H40.6143V15.2139H40.0869V14.291ZM43.4971 14.291H44.0244V15.2139H43.4971V14.291ZM47.127 14.291H47.6543V15.2139H47.127V14.291ZM50.6777 14.291H51.2051V15.2139H50.6777V14.291ZM61.1982 14.291H61.7256V15.2139H61.1982V14.291ZM57.7881 14.291H58.3154V15.2139H57.7881V14.291ZM-13.3066 14.291H-12.7793V15.2139H-13.3066V14.291Z" fill="#239E3F"/>
<path fill-rule="evenodd" clip-rule="evenodd" d="M24.5918 17.3584C25.3301 18.2725 27.6241 23.2998 23.212 26.6045C21.129 28.1689 22.421 28.2393 22.4825 28.5029C25.8223 26.7363 26.9034 24.3281 26.877 22.1748C26.8594 20.0303 25.7168 18.1318 24.5918 17.3584Z" fill="#DA0000"/>
<path fill-rule="evenodd" clip-rule="evenodd" d="M25.031 17.1211C25.8465 17.6173 26.5415 18.2885 27.0658 19.0862C27.5901 19.8839 27.9306 20.7881 28.0626 21.7335C28.1947 22.6788 28.115 23.6418 27.8293 24.5526C27.5437 25.4634 27.0592 26.2994 26.4109 27C28.8015 26.4727 31.8601 19.4062 25.031 17.1211ZM19.9685 17.1211C19.1537 17.618 18.4595 18.2898 17.936 19.0879C17.4126 19.8859 17.073 20.7903 16.9418 21.7356C16.8106 22.6809 16.8911 23.6436 17.1774 24.5541C17.4637 25.4645 17.9488 26.2999 18.5974 27C16.198 26.4727 13.1482 19.4062 19.9685 17.1211Z" fill="#DA0000"/>
<path fill-rule="evenodd" clip-rule="evenodd" d="M20.4077 17.3584C19.6694 18.2725 17.3755 23.2998 21.7876 26.6045C23.8618 28.1689 22.5786 28.2393 22.5171 28.5029C19.1772 26.7363 18.0962 24.3281 18.1225 22.1748C18.1401 20.0303 19.2827 18.1318 20.4077 17.3584Z" fill="#DA0000"/>
<path fill-rule="evenodd" clip-rule="evenodd" d="M26.7363 28.0459C25.4268 28.0635 23.7832 27.8701 22.5615 27.2285C22.7637 27.624 22.9307 27.8701 23.1328 28.2568C24.293 28.3711 25.9014 28.5029 26.7363 28.0459ZM18.3867 28.0459C19.6963 28.0635 21.3398 27.8701 22.5615 27.2285C22.3594 27.624 22.1924 27.8701 21.9902 28.2568C20.8301 28.3711 19.2217 28.5029 18.3867 28.0459ZM20.7861 15.8555C21.0498 16.5586 21.7441 16.6641 22.4824 16.251C23.0273 16.5674 23.8623 16.5938 24.1523 15.8906C24.3721 17.6309 22.5439 17.209 22.4824 16.875C21.7969 17.5342 20.5313 17.1562 20.7861 15.8555Z" fill="#DA0000"/>
<path fill-rule="evenodd" clip-rule="evenodd" d="M22.5352 29.1445L23.2207 28.3535L23.3174 17.7979L22.5 17.0771L21.6826 17.7627L21.8496 28.3975L22.5352 29.1445Z" fill="#DA0000"/>
</g>
<defs>
<clipPath id="clip0_200_70638">
<rect width="60" height="45" fill="white" transform="translate(-7.5)"/>
</clipPath>
</defs>
</svg>
