<svg width="45" height="45" viewBox="0 0 45 45" fill="none" xmlns="http://www.w3.org/2000/svg">
<g clip-path="url(#clip0_200_80471)">
<path d="M-7.5 0H52.5V45H-7.5V0Z" fill="white"/>
<path fill-rule="evenodd" clip-rule="evenodd" d="M-15 0V3L17.85 22.5L-14.85 42V45H-10.05L22.65 25.5L55.2 45H60V42L27.45 22.5L60.15 3V0H55.2L22.5 19.5L-10.05 0H-14.85H-15Z" fill="#DF112D"/>
<path d="M26.4007 6.74959C27.4507 10.6496 26.8507 15.4496 22.5007 18.1496C18.1507 15.4496 17.5507 10.6496 18.6007 6.74959C19.6507 5.84959 24.3007 5.24959 26.4007 6.74959Z" fill="#E8112D"/>
<path d="M22.5002 5.99981C24.0002 5.99981 25.2002 6.29981 26.4002 6.89981C26.6162 5.60027 27.1295 4.36822 27.9002 3.29981C27.1502 3.29981 26.8502 3.59981 26.8502 4.04981C26.7002 3.59981 25.9502 3.59981 25.6502 3.89981C26.5502 4.34981 25.9502 5.39981 25.2002 5.24981C24.7502 5.09981 24.6002 4.79981 24.6002 4.49981C24.7115 4.481 24.8116 4.42109 24.8807 4.33194C24.9499 4.24278 24.9831 4.13091 24.9736 4.01847C24.9642 3.90603 24.9129 3.80124 24.8298 3.72486C24.7467 3.64849 24.638 3.6061 24.5252 3.6061C24.4124 3.6061 24.3036 3.64849 24.2206 3.72486C24.1375 3.80124 24.0862 3.90603 24.0768 4.01847C24.0673 4.13091 24.1005 4.24278 24.1696 4.33194C24.2388 4.42109 24.3389 4.481 24.4502 4.49981C24.1732 4.78243 23.7958 4.94417 23.4002 4.94981C23.2279 4.86835 23.0811 4.74156 22.9754 4.58301C22.8697 4.42446 22.8091 4.24014 22.8002 4.04981C22.8002 3.29981 23.7002 3.14981 23.8502 3.29981C23.8502 2.84981 22.9502 2.24981 22.8002 2.84981C22.9551 2.55854 23.0096 2.22434 22.9554 1.89894C22.9012 1.57354 22.7412 1.27509 22.5002 1.0498C22.2915 1.26368 22.1515 1.53499 22.0981 1.82896C22.0446 2.12294 22.0802 2.42618 22.2002 2.69981C21.9002 2.24981 21.1502 2.69981 21.1502 3.29981C21.3002 3.14981 22.0502 3.29981 22.0502 4.04981C22.0502 4.34981 22.0502 4.79981 21.6002 4.79981C21.4165 4.87181 21.2142 4.88146 21.0245 4.82725C20.8348 4.77304 20.6681 4.65799 20.5502 4.49981L20.8502 4.34981C20.936 4.30028 21.003 4.22382 21.0409 4.1323C21.0789 4.04078 21.0855 3.93931 21.0599 3.84363C21.0342 3.74794 20.9777 3.66339 20.8991 3.60308C20.8205 3.54278 20.7243 3.51009 20.6252 3.51009C20.5261 3.51009 20.4298 3.54278 20.3513 3.60308C20.2727 3.66339 20.2162 3.74794 20.1905 3.84363C20.1649 3.93931 20.1715 4.04078 20.2094 4.1323C20.2474 4.22382 20.3144 4.30028 20.4002 4.34981C20.4002 4.79981 20.1002 5.09981 19.8002 5.09981C19.6428 5.09981 19.4894 5.05028 19.3617 4.95824C19.234 4.8662 19.1385 4.73631 19.0887 4.58698C19.0389 4.43764 19.0374 4.27643 19.0843 4.12618C19.1312 3.97593 19.2243 3.84425 19.3502 3.74981C19.0502 3.44981 18.3002 3.44981 18.1502 4.04981C18.1502 3.59981 17.8502 3.29981 16.9502 3.29981C17.7209 4.36822 18.2342 5.60027 18.4502 6.89981C19.6967 6.24663 21.0943 5.93605 22.5002 5.99981Z" fill="#F9DD16"/>
<path d="M25.951 9.89987H25.651H26.101C26.251 9.89987 26.401 9.74987 26.251 9.59987H26.551L26.251 9.29987H26.551L26.251 8.99987H26.401C26.3746 8.95426 26.3608 8.90253 26.3608 8.84987C26.3608 8.79721 26.3746 8.74548 26.401 8.69987H25.351L24.601 8.54987L25.501 8.09987C25.501 7.79987 25.051 7.34987 24.301 7.64987L22.651 7.49987L23.701 7.19987L24.901 7.04987H23.851C23.401 7.04987 22.351 6.89987 22.351 7.49987C22.351 8.09987 23.401 7.94987 24.451 7.79987L25.351 7.94987L24.451 8.24987C24.0068 8.1473 23.5451 8.1473 23.101 8.24987H22.051C21.751 8.24987 21.301 8.24987 21.001 7.94987C21.001 7.94987 20.401 8.24987 20.401 8.54987V8.99987C20.701 9.29987 20.401 9.14987 20.101 9.14987L19.351 8.99987C19.201 8.69987 19.051 8.54987 18.751 8.69987V8.99987H19.051C19.0054 8.97354 18.9536 8.95968 18.901 8.95968C18.8483 8.95968 18.7966 8.97354 18.751 8.99987V9.29987H19.201H18.901V9.44987H19.501C19.4214 9.44987 19.3451 9.48148 19.2888 9.53774C19.2326 9.594 19.201 9.6703 19.201 9.74987C19.351 9.59987 19.501 9.74987 19.801 9.74987L19.501 9.89987C19.651 9.89987 20.551 10.0499 20.551 9.74987V9.89987C20.551 9.89987 21.001 9.89987 21.001 9.59987V9.89987C21.001 9.89987 21.301 9.89987 21.451 9.59987V9.29987H22.201C22.501 8.99987 22.651 9.29987 22.801 9.14987H23.101C23.251 9.14987 23.401 9.14987 23.551 8.84987C23.851 8.99987 24.301 9.14987 25.201 8.99987C25.651 8.99987 25.951 9.14987 25.951 9.44987H25.201C25.201 9.44987 25.051 9.59987 25.201 9.74987C25.351 9.89987 25.201 9.74987 25.351 9.74987C25.351 9.74987 25.201 9.89987 25.351 10.0499L25.801 9.89987H25.951ZM19.951 7.34987V7.49987L20.101 7.79987L20.251 7.34987H19.951Z" fill="#F9DD16"/>
<path d="M21.001 7.49961C21.151 7.34961 21.301 7.34961 21.301 7.49961L21.151 7.79961L21.001 7.34961V7.49961Z" fill="#F9DD16"/>
<path d="M20.5502 7.2002C21.0002 7.2002 21.1502 7.5002 21.1502 7.8002L20.8502 8.4002L20.5502 8.5502L20.2502 8.4002C20.2502 7.9502 19.9502 8.1002 19.9502 7.8002C19.9502 7.5002 19.9502 7.2002 20.5502 7.2002Z" fill="#F9DD16"/>
<path d="M19.3506 8.4002H19.0506C19.2006 8.4002 19.2006 8.7002 19.6506 8.7002H19.3506C19.5006 8.7002 19.6506 9.0002 20.1006 9.0002C20.1006 9.0002 20.2506 9.0002 20.1006 9.0002C20.1006 9.1502 20.4006 9.0002 20.5506 9.3002C20.5506 9.1502 20.2506 8.8502 20.5506 8.5502C19.9506 8.5502 19.8006 8.2502 19.6506 8.1002C19.3506 7.9502 19.3506 7.6502 19.2006 7.3502C19.2006 7.3502 19.0506 7.0502 18.9006 7.2002V7.5002H18.7506C18.9006 7.5002 18.7506 7.8002 19.0506 7.9502C18.9006 7.8002 18.7506 7.6502 18.6006 7.8002H18.7506L19.3506 8.4002ZM23.2506 9.9002H24.0006L24.3006 9.7502V9.4502C24.1506 9.4502 24.0006 9.3002 24.1506 9.1502C23.7006 8.5502 22.8006 8.8502 22.8006 9.1502L23.4006 9.4502H23.5506H22.5006L22.6506 9.6002L22.3506 9.7502C22.3506 10.0502 22.6506 9.7502 22.6506 9.7502V9.9002C22.6506 9.9002 22.6506 10.0502 22.8006 9.9002C22.8976 9.86589 23.0035 9.86589 23.1006 9.9002H23.2506Z" fill="#F9DD16"/>
<path d="M20.55 8.39961H20.7V8.09961H20.25V8.24961L20.55 8.39961Z" fill="#FF0016"/>
<path d="M18.9002 7.19948C18.9002 7.04948 18.6002 7.19948 18.6002 7.19948H18.9002ZM18.9002 7.34948L18.4502 7.49948H18.7502L18.9002 7.34948ZM18.9002 7.79948H18.4502H18.7502H18.9002ZM18.9002 8.84948C18.7502 8.84948 18.6002 8.84948 18.6002 9.14948C18.6002 8.99948 18.7502 9.14948 18.9002 9.14948V8.84948ZM18.9002 9.14948L18.6002 9.44948L18.9002 9.29948V8.99948V9.14948ZM18.9002 9.29948C18.9002 9.29948 18.7502 9.44948 18.9002 9.59948V9.14948V9.29948ZM22.6502 9.74948C22.5002 9.74948 22.3502 9.74948 22.3502 10.0495L22.6502 9.89948V9.74948ZM22.8002 9.74948C22.6502 9.74948 22.5002 10.0495 22.6502 10.1995L22.8002 10.0495V9.89948V9.74948ZM22.8002 9.44948C22.5002 9.44948 22.3502 9.44948 22.3502 9.74948L22.6502 9.59948L22.8002 9.44948ZM25.2002 9.74948C25.2002 9.74948 24.9002 9.89948 25.0502 10.0495L25.2002 9.89948V9.74948ZM25.2002 9.59948L24.9002 9.74948H25.2002V9.29948V9.59948ZM25.2002 9.89948C25.2002 9.89948 25.0502 10.1995 25.2002 10.1995H25.3502V9.74948L25.2002 9.89948ZM20.7002 8.39948V8.99948C20.4002 8.99948 20.4002 8.99948 20.4002 8.69948V8.39948H20.5502H20.7002Z" fill="#0051BA"/>
<path d="M25.3508 13.0496H25.6508C25.6508 13.0496 25.8008 13.0496 25.6508 12.8996H25.9508L25.8008 12.5996H25.9508L25.8008 12.2996C25.7745 12.254 25.7606 12.2023 25.7606 12.1496C25.7606 12.0969 25.7745 12.0452 25.8008 11.9996H25.0508L24.3008 11.8496C24.7508 11.9996 25.2008 11.6996 25.2008 11.3996C25.2008 11.0996 24.7508 10.7996 24.1508 11.0996L22.5008 10.9496L23.4008 10.6496H24.6008L23.5508 10.4996C23.1008 10.3496 22.2008 10.4996 22.2008 10.9496C22.2008 11.3996 23.2508 11.3996 24.1508 11.2496H24.9008L24.1508 11.5496C23.7558 11.4596 23.3457 11.4596 22.9508 11.5496L21.9008 11.6996C21.7508 11.6996 21.3008 11.6996 21.0008 11.3996L20.4008 11.8496L20.5508 12.4496C20.7008 12.5996 20.5508 12.4496 20.2508 12.4496H19.5008C19.5008 12.1496 19.2008 11.9996 19.0508 12.1496V12.2996H19.3508C19.3052 12.2733 19.2534 12.2594 19.2008 12.2594C19.1481 12.2594 19.0964 12.2733 19.0508 12.2996V12.5996H19.3508H19.2008C19.5008 12.5996 19.5008 12.8996 19.6508 12.7496C19.6016 12.7369 19.55 12.7369 19.5008 12.7496C19.5008 12.7496 19.8008 13.0496 19.9508 12.8996L19.8008 13.1996C19.8008 13.0496 20.7008 13.1996 20.7008 12.8996V13.1996C20.7008 13.1996 21.0008 13.1996 21.1508 12.8996H21.4508V12.5996H21.7508L22.2008 12.4496H22.9508C23.1008 12.4496 23.2508 12.4496 23.4008 12.1496C23.7008 12.2996 24.0008 12.4496 24.9008 12.2996C25.2008 12.2996 25.3508 12.2996 25.3508 12.5996V12.7496H24.7508V13.0496C24.7508 13.1996 24.9008 13.0496 25.0508 13.0496C24.9008 13.0496 24.7508 13.0496 24.9008 13.1996H25.0508L25.3508 13.0496ZM20.2508 10.7996H19.9508L20.1008 11.2496L20.2508 10.7996Z" fill="#F9DD16"/>
<path d="M21 10.7998H21.3L21.15 11.2498L21 10.7998Z" fill="#F9DD16"/>
<path d="M20.7006 10.6494C21.1506 10.6494 21.1506 10.9494 21.1506 11.2494C21.1506 11.5494 21.0006 11.2494 20.8506 11.6994L20.5506 11.8494H20.4006C20.4006 11.3994 20.1006 11.3994 20.1006 11.2494C20.1006 11.0994 20.1006 10.6494 20.7006 10.6494Z" fill="#F9DD16"/>
<path d="M19.5004 11.6994H19.3504C19.3504 11.6994 19.3504 11.9994 19.8004 11.9994H19.5004L20.1004 12.2994C20.1004 12.2994 20.4004 12.2994 20.1004 12.2994L20.7004 12.5994C20.7004 12.2994 20.4004 12.1494 20.5504 11.8494C20.1004 11.8494 19.9504 11.5494 19.8004 11.3994C19.5004 11.3994 19.5004 11.0994 19.5004 10.7994L19.2004 10.6494C19.0504 10.6494 19.2004 10.6494 19.2004 10.6494V10.9494H19.0504L19.2004 11.2494H18.9004C19.2004 11.2494 19.3504 11.6994 19.5004 11.6994ZM23.1004 13.0494H22.9504H24.1504V12.7494C24.0004 12.7494 23.8504 12.5994 24.0004 12.2994C23.5504 11.8494 22.8004 12.1494 22.8004 12.2994L23.4004 12.5994C23.4004 12.5994 23.7004 12.5994 23.4004 12.7494H23.1004C22.8004 12.7494 22.6504 12.5994 22.5004 12.7494V13.0494H22.6504C22.6504 13.0494 22.6504 13.1994 22.8004 13.0494C22.8974 13.0151 23.0033 13.0151 23.1004 13.0494Z" fill="#F9DD16"/>
<path d="M20.7004 11.8494V11.6994C20.7004 11.6994 20.8504 11.5494 20.7004 11.3994C20.7004 11.5494 20.8504 11.5494 20.7004 11.3994C20.7004 11.5494 20.4004 11.5494 20.4004 11.3994V11.6994H20.7004V11.8494Z" fill="#FF0016"/>
<path d="M20.55 11.5494L20.25 11.3994L20.55 11.5494ZM20.55 11.3994H20.25H20.55ZM20.55 11.3994L20.25 11.5494L20.55 11.3994ZM20.7 11.5494L21 11.3994L20.7 11.5494ZM20.7 11.3994H21H20.7ZM20.7 11.3994L21 11.5494L20.7 11.3994Z" fill="black"/>
<path d="M19.2 10.5L18.9 10.65H19.2V10.5ZM19.2 10.8L18.75 10.95H19.05L19.2 10.8ZM19.05 11.25C19.05 11.1 18.75 11.25 18.75 11.25H19.05ZM19.05 12.15L18.75 12.3H19.2L19.05 12.15ZM19.05 12.45C19.05 12.45 18.75 12.45 19.05 12.75V12.45ZM19.35 12.45L19.05 12.9L19.35 12.75V12.6V12.45ZM22.35 12.9C22.35 12.9 22.2 12.9 22.35 13.2L22.5 13.05V12.9H22.35ZM22.65 13.05C22.65 13.05 22.35 13.2 22.5 13.35L22.65 13.2V13.05ZM22.65 12.6C22.5 12.6 22.2 12.75 22.35 12.9H22.5V12.75L22.65 12.6ZM24.75 13.05C24.75 13.05 24.6 13.05 24.75 13.2V12.9V13.05ZM24.75 12.75L24.6 12.9H24.9V12.75H24.75ZM24.9 13.2C24.9 13.2 24.75 13.2 24.9 13.35V13.2ZM20.7 11.7V12.3V12C20.7 11.85 20.7 11.7 20.55 11.85V11.7H20.7Z" fill="#0051BA"/>
<path d="M25.3469 15.6448C25.2629 15.6448 25.2629 15.7573 25.2419 15.7573C25.4099 15.7573 25.4939 15.6898 25.5359 15.5998V15.7348C25.6619 15.6898 25.7039 15.5773 25.6619 15.5098L25.8089 15.5548C25.7249 15.4873 25.7879 15.3298 25.6409 15.2398C25.6829 15.2398 25.7669 15.2848 25.8089 15.3523C25.7879 15.1948 25.7669 15.1048 25.6409 15.0148H25.7459C25.7185 14.9952 25.6963 14.9683 25.6815 14.9368C25.6668 14.9052 25.66 14.87 25.6619 14.8348C25.6619 14.7448 25.6199 14.7448 25.5359 14.7673L25.1579 14.7898C24.9479 14.7898 24.7379 14.7898 24.5699 14.6548C24.8429 14.7898 25.1999 14.5198 25.1999 14.3173C25.1999 14.0923 24.9059 13.8673 24.3599 14.0023C23.8139 14.1373 23.1419 14.0923 23.1419 13.8898C23.1419 13.6873 23.6249 13.6648 23.8769 13.7098C24.1289 13.7548 24.2969 13.7773 24.7589 13.5973C24.6539 13.6423 24.2759 13.6648 23.9819 13.5748C23.6879 13.4848 22.9739 13.4848 22.9739 13.8898C22.9739 14.3173 23.7299 14.2723 24.4019 14.1598C24.7799 14.1148 24.9899 14.1598 24.9899 14.2723C24.9899 14.4073 24.6329 14.4523 24.3599 14.4298C24.0716 14.3882 23.7784 14.4112 23.4989 14.4973C23.2259 14.5873 23.0369 14.4973 22.7429 14.5648C22.5959 14.5648 22.2389 14.5648 22.0709 14.2498C21.9659 14.3398 21.6509 14.4973 21.5879 14.6773C21.5249 14.8123 21.5879 14.9698 21.6719 15.1273C21.7979 15.3073 21.6089 15.2848 21.4619 15.2848C21.2939 15.2848 21.0419 15.2848 20.9159 15.1048C20.7899 14.9698 20.6429 14.8573 20.5169 14.9473C20.4539 15.0148 20.5169 15.0823 20.5589 15.0598L20.7269 15.1048C20.6931 15.0884 20.6559 15.0818 20.6191 15.0857C20.5822 15.0897 20.5469 15.104 20.5169 15.1273C20.4539 15.1723 20.5169 15.2623 20.5799 15.2398C20.6219 15.2173 20.7269 15.1948 20.7899 15.2398C20.7269 15.2398 20.6429 15.2398 20.6219 15.2848C20.6009 15.3298 20.6219 15.3748 20.6849 15.3748C20.8109 15.3748 20.8319 15.4648 20.9579 15.4423C20.9285 15.444 20.9 15.4531 20.8745 15.4687C20.8489 15.4843 20.8272 15.5061 20.8109 15.5323C20.9369 15.4648 21.0419 15.6223 21.1889 15.5773C21.1469 15.5998 21.0419 15.6673 21.0419 15.7123C21.1259 15.5998 21.7139 15.8023 21.7139 15.5548L21.6929 15.7348C21.7559 15.6898 21.9869 15.6673 22.0709 15.5098C22.0709 15.5548 22.0709 15.6223 22.0289 15.6448C22.0919 15.6448 22.1969 15.5998 22.3019 15.4423C22.3439 15.3748 22.3439 15.3298 22.3439 15.2848C22.4489 15.2848 22.5119 15.2623 22.5959 15.1948C22.6799 15.1273 22.7639 15.2623 22.9109 15.1498C23.0369 15.0598 23.1629 15.1498 23.2469 15.1048C23.3099 15.0598 23.4149 15.1048 23.4989 15.0598C23.5829 15.0148 23.7089 15.0823 23.8349 14.9698C24.0449 15.0598 24.3179 15.1948 24.9269 15.0823C25.2629 15.0148 25.3889 15.1498 25.3889 15.3073C25.3889 15.4423 25.3049 15.4423 25.2629 15.4423C25.0529 15.4648 24.9899 15.3748 24.9059 15.3973C24.8639 15.4198 24.8219 15.5098 24.9059 15.5548C24.8429 15.5773 24.8429 15.6448 24.8849 15.6673C24.9269 15.6898 24.9899 15.6673 25.0529 15.6448C24.9689 15.6673 24.9059 15.7348 24.9479 15.8023C24.9689 15.8473 25.0319 15.8698 25.0949 15.8023C25.1579 15.7123 25.2629 15.6448 25.3469 15.6448ZM21.4409 13.8448C21.2729 13.7773 21.2309 13.7773 21.2519 13.9348C21.2519 14.0023 21.3149 14.0923 21.3569 14.1373C21.3569 14.0698 21.3779 13.9123 21.4409 13.8673V13.8448Z" fill="#F9DD16"/>
<path fill-rule="evenodd" clip-rule="evenodd" d="M23.3658 13.5361C23.5828 13.4964 23.8365 13.519 23.9852 13.5645C24.1309 13.6091 24.2977 13.6259 24.4414 13.6259C24.5132 13.6259 24.579 13.6217 24.6333 13.6148C24.6805 13.6087 24.7184 13.6006 24.7438 13.5917C24.7476 13.5902 24.7513 13.5888 24.7551 13.5873L24.7633 13.6074C24.7596 13.609 24.7557 13.6105 24.7514 13.612C24.5262 13.6991 24.3707 13.7377 24.2402 13.7489C24.1074 13.7603 24.0012 13.7431 23.8751 13.7206C23.7502 13.6983 23.5677 13.6927 23.4168 13.7178C23.3413 13.7304 23.2746 13.7505 23.2271 13.7793C23.1797 13.8081 23.1529 13.8445 23.1529 13.8899C23.1529 13.9335 23.1891 13.9717 23.2598 14.0019C23.3298 14.0319 23.4296 14.0521 23.5472 14.0619C23.7822 14.0815 24.0855 14.0591 24.3574 13.9919C24.6321 13.924 24.8448 13.9462 24.9894 14.0151C25.1341 14.084 25.2109 14.1998 25.2109 14.3174C25.2109 14.3711 25.1873 14.4282 25.1488 14.481C25.1101 14.5339 25.0559 14.5834 24.9931 14.622C24.8911 14.6848 24.765 14.7198 24.6455 14.6931C24.7969 14.7787 24.9755 14.7791 25.1577 14.7791L25.5343 14.7566C25.555 14.7511 25.5736 14.7468 25.5899 14.745C25.6064 14.7432 25.6217 14.7437 25.6346 14.7489C25.6623 14.7601 25.6729 14.7893 25.6729 14.8349V14.8355C25.6711 14.869 25.6776 14.9024 25.6915 14.9323C25.7055 14.9622 25.7265 14.9876 25.7523 15.0061L25.78 15.0258H25.6733C25.7223 15.0655 25.7533 15.1064 25.7743 15.154C25.7987 15.209 25.8093 15.2723 25.8198 15.351L25.7998 15.3582C25.7799 15.3261 25.7497 15.2991 25.7193 15.2801C25.7093 15.2739 25.6996 15.2686 25.6903 15.2644C25.7332 15.3066 25.7488 15.3567 25.7593 15.4035C25.7613 15.4128 25.7632 15.4219 25.765 15.4307C25.769 15.4506 25.7728 15.4692 25.7784 15.4866C25.7862 15.5111 25.7971 15.5314 25.8158 15.5465L25.8058 15.5653L25.6823 15.5275C25.708 15.6025 25.6567 15.7034 25.5397 15.7452L25.5252 15.7503V15.6418C25.5047 15.673 25.4776 15.7005 25.4418 15.7218C25.3925 15.7511 25.3275 15.7683 25.242 15.7683V15.7466C25.2406 15.7466 25.2397 15.7471 25.2395 15.7473C25.2396 15.7472 25.2398 15.7469 25.2402 15.7463C25.2416 15.7443 25.2433 15.741 25.2454 15.7358C25.2466 15.7327 25.248 15.7291 25.2495 15.7251C25.2527 15.7166 25.2565 15.7063 25.261 15.6966C25.2652 15.6877 25.2702 15.6786 25.2766 15.6701C25.2575 15.6773 25.238 15.6871 25.2189 15.6991C25.1755 15.7265 25.1346 15.7649 25.1039 15.8087L25.1035 15.8093L25.103 15.8098C25.0698 15.8453 25.0352 15.8587 25.0046 15.8554C24.9744 15.8522 24.9505 15.8329 24.9384 15.8076C24.9271 15.7891 24.9226 15.7701 24.9241 15.7516C24.9256 15.733 24.9331 15.7157 24.9446 15.7003C24.9486 15.6948 24.9532 15.6896 24.9583 15.6846C24.9303 15.6895 24.9029 15.6893 24.8799 15.677C24.8547 15.6635 24.8422 15.6365 24.8454 15.6099C24.8479 15.5882 24.8606 15.5673 24.8836 15.5535C24.8703 15.5434 24.8609 15.5318 24.8549 15.5192C24.8465 15.5017 24.8451 15.4832 24.8481 15.4659C24.8538 15.4319 24.8767 15.4008 24.9009 15.3878L24.902 15.3872L24.9032 15.3869C24.9265 15.3807 24.9481 15.3824 24.9702 15.3875C24.9854 15.3911 25.0015 15.3965 25.0186 15.4023C25.0257 15.4047 25.0331 15.4072 25.0406 15.4096C25.0921 15.4261 25.1588 15.4427 25.2619 15.4316L25.263 15.4315C25.2844 15.4315 25.3127 15.4313 25.3359 15.4164C25.358 15.4022 25.3782 15.3726 25.3782 15.3074C25.3782 15.2317 25.348 15.1625 25.2783 15.1198C25.2081 15.0768 25.0958 15.0596 24.9292 15.0931L24.929 15.0931C24.6234 15.1496 24.4016 15.144 24.2295 15.1128C24.0723 15.0843 23.957 15.0345 23.8584 14.9918C23.8512 14.9887 23.8441 14.9856 23.837 14.9826C23.7732 15.0372 23.7093 15.0483 23.6518 15.0511C23.6384 15.0517 23.6254 15.0519 23.6128 15.0521L23.6092 15.0522C23.5955 15.0524 23.5825 15.0527 23.57 15.0535C23.545 15.0553 23.5232 15.0593 23.5042 15.0695C23.4597 15.0933 23.4101 15.0933 23.3663 15.0933H23.3651C23.3195 15.0933 23.2815 15.0937 23.2533 15.1138L23.2528 15.1142L23.2522 15.1145C23.2288 15.127 23.203 15.1299 23.1765 15.1291C23.1587 15.1287 23.1396 15.1265 23.1203 15.1243C23.1115 15.1232 23.1026 15.1222 23.0937 15.1214C23.0368 15.1158 22.9772 15.1161 22.9175 15.1587C22.8795 15.1877 22.845 15.2012 22.8131 15.2057C22.7813 15.2102 22.7529 15.2056 22.7275 15.1999C22.7205 15.1983 22.7138 15.1967 22.7074 15.1951C22.69 15.1908 22.6745 15.1871 22.6593 15.1861C22.6395 15.1848 22.6213 15.1885 22.6028 15.2034C22.5603 15.2376 22.5224 15.2609 22.4816 15.2755C22.4435 15.2891 22.4033 15.295 22.3549 15.2957C22.3548 15.3149 22.354 15.3351 22.3494 15.3574C22.3439 15.3841 22.3329 15.4134 22.3112 15.4482L22.3111 15.4485C22.2049 15.6077 22.097 15.6558 22.029 15.6558L22.0239 15.6353C22.0406 15.6264 22.0501 15.6079 22.0551 15.5837C22.0575 15.5723 22.0587 15.5603 22.0594 15.5484C22.0133 15.6103 21.9439 15.648 21.8782 15.6747C21.8475 15.6872 21.8171 15.6974 21.79 15.7066C21.7832 15.7089 21.7767 15.7111 21.7704 15.7132C21.7381 15.7242 21.7135 15.7336 21.6993 15.7438L21.6794 15.758L21.6933 15.6391C21.6755 15.6574 21.6516 15.6699 21.6241 15.6785C21.5657 15.6967 21.4878 15.698 21.4091 15.6952C21.3795 15.6941 21.3498 15.6925 21.3207 15.6909C21.2717 15.6882 21.2245 15.6856 21.1826 15.686C21.1494 15.6864 21.1205 15.6886 21.0975 15.6941C21.0743 15.6996 21.059 15.7079 21.0507 15.7189L21.0312 15.7451V15.7124C21.0312 15.6973 21.0397 15.6822 21.0506 15.6687C21.0618 15.6548 21.0769 15.6409 21.093 15.628C21.107 15.6167 21.1221 15.606 21.1364 15.5965C21.0843 15.597 21.0374 15.5773 20.9943 15.5592C20.9922 15.5583 20.99 15.5574 20.9879 15.5565C20.927 15.531 20.8741 15.511 20.8162 15.542L20.7804 15.5612L20.8018 15.5267C20.8189 15.4991 20.8419 15.4761 20.8689 15.4595C20.8728 15.4571 20.8768 15.4549 20.8809 15.4528C20.8797 15.4525 20.8785 15.4522 20.8774 15.4519C20.8543 15.4463 20.8349 15.4366 20.8164 15.4267C20.8138 15.4253 20.8112 15.4239 20.8086 15.4225C20.7745 15.404 20.7407 15.3858 20.685 15.3858C20.651 15.3858 20.6258 15.3735 20.6128 15.3525C20.5999 15.3318 20.6006 15.3052 20.6122 15.2803C20.6251 15.2526 20.6564 15.2406 20.6884 15.2348C20.7049 15.2319 20.7227 15.2305 20.7404 15.2297C20.7206 15.225 20.6991 15.2239 20.6779 15.2255C20.6398 15.2282 20.6046 15.2391 20.5852 15.2495L20.5844 15.2499L20.5837 15.2502C20.5461 15.2636 20.5097 15.2432 20.492 15.2147C20.4831 15.2003 20.4783 15.183 20.4807 15.1657C20.4831 15.1481 20.4926 15.1316 20.5105 15.1187C20.5347 15.1 20.5621 15.0868 20.5911 15.0798L20.5601 15.0715C20.5333 15.0828 20.5036 15.0674 20.4893 15.0429C20.4734 15.0157 20.4748 14.9768 20.5091 14.94L20.5098 14.9392L20.5107 14.9386C20.578 14.8905 20.6508 14.8972 20.7213 14.9321C20.7914 14.9667 20.8608 15.0298 20.924 15.0975L20.9245 15.0981L20.9249 15.0987C20.9858 15.1857 21.0774 15.2297 21.1757 15.2518C21.274 15.274 21.3779 15.2741 21.462 15.2741C21.477 15.2741 21.4922 15.2743 21.5074 15.2745C21.53 15.2748 21.5525 15.2752 21.5744 15.2748C21.6107 15.2741 21.6427 15.2712 21.6659 15.2634C21.6889 15.2556 21.7005 15.244 21.7022 15.2269C21.7041 15.2078 21.6944 15.1783 21.6631 15.1337L21.6624 15.1326C21.6203 15.0536 21.583 14.9739 21.5643 14.8965C21.5456 14.8193 21.5453 14.7436 21.5779 14.6733C21.5945 14.6264 21.6271 14.5817 21.6675 14.5398C21.7081 14.4977 21.7572 14.4579 21.8073 14.4212C21.8523 14.3882 21.8983 14.3575 21.9399 14.3298C21.9447 14.3266 21.9494 14.3234 21.9541 14.3203C21.9995 14.29 22.0383 14.2637 22.0639 14.2417L22.0742 14.2329L22.0806 14.2448C22.2447 14.5526 22.5932 14.554 22.7418 14.5541C22.8802 14.5224 22.9957 14.5254 23.1062 14.5282C23.1139 14.5284 23.1215 14.5286 23.1292 14.5287C23.2471 14.5316 23.361 14.5315 23.4956 14.4871L23.4958 14.487C23.7768 14.4005 24.0715 14.3773 24.3612 14.4191C24.4969 14.4303 24.6532 14.4246 24.7752 14.3996C24.8364 14.387 24.8881 14.3698 24.9243 14.3479C24.9607 14.3259 24.9792 14.3006 24.9792 14.2724C24.9792 14.2483 24.9681 14.2274 24.9448 14.2097C24.921 14.1918 24.8848 14.1775 24.8357 14.1678C24.7376 14.1484 24.592 14.1483 24.4036 14.1707C24.0675 14.2269 23.7094 14.2665 23.4349 14.2382C23.2977 14.2241 23.1802 14.1929 23.0966 14.1373C23.0125 14.0813 22.9632 14.0007 22.9632 13.8899C22.9632 13.7849 23.0097 13.706 23.0835 13.6486C23.157 13.5916 23.2573 13.556 23.3658 13.5361ZM20.6516 15.096L20.7242 15.1154L20.7318 15.0952C20.7075 15.0833 20.6816 15.0763 20.6551 15.0744L20.5577 15.0483L20.5539 15.0503C20.5397 15.058 20.5192 15.0511 20.508 15.0319C20.4977 15.0143 20.4963 14.9861 20.5242 14.9556C20.5827 14.9144 20.6461 14.9191 20.7117 14.9515C20.7779 14.9843 20.8449 15.0447 20.9076 15.1118C20.9727 15.2044 21.0699 15.2502 21.1709 15.273C21.2718 15.2958 21.3778 15.2958 21.4616 15.2958H21.462C21.4763 15.2958 21.4912 15.296 21.5063 15.2962C21.5293 15.2966 21.5528 15.2969 21.5748 15.2965C21.6113 15.2958 21.6462 15.293 21.6729 15.284C21.6998 15.2749 21.721 15.2583 21.7239 15.229C21.7266 15.2018 21.7128 15.1668 21.6813 15.1217C21.6395 15.0434 21.6035 14.9658 21.5855 14.8914C21.5675 14.817 21.5677 14.7466 21.5979 14.682L21.5983 14.681C21.6133 14.6381 21.6436 14.5958 21.6831 14.5549C21.7225 14.514 21.7706 14.4751 21.8202 14.4387C21.8647 14.406 21.9103 14.3756 21.952 14.3478C21.9568 14.3447 21.9615 14.3415 21.9662 14.3384C22.0058 14.3119 22.0415 14.2878 22.0678 14.2667C22.2414 14.5758 22.5973 14.5758 22.7421 14.5758H22.7443L22.7455 14.5755C22.8816 14.5442 22.995 14.5471 23.106 14.5499C23.1136 14.5501 23.1211 14.5503 23.1286 14.5505C23.2469 14.5533 23.364 14.5534 23.5023 14.5078C23.7803 14.4221 24.0718 14.3993 24.3585 14.4407L24.3591 14.4408C24.4964 14.4521 24.655 14.4464 24.7796 14.4209C24.8418 14.4081 24.8963 14.3902 24.9356 14.3664C24.9748 14.3427 25.0009 14.3117 25.0009 14.2724C25.0009 14.2403 24.9857 14.2134 24.9579 14.1924C24.9304 14.1716 24.8905 14.1564 24.8399 14.1464C24.7385 14.1264 24.5902 14.1266 24.4007 14.1491L24.4002 14.1492C24.0644 14.2054 23.7086 14.2446 23.4371 14.2166C23.3013 14.2026 23.1879 14.1719 23.1087 14.1192C23.0301 14.067 22.9849 13.9929 22.9849 13.8899C22.9849 13.7924 23.0276 13.7195 23.0968 13.6658C23.1665 13.6117 23.263 13.577 23.3697 13.5575C23.5833 13.5184 23.8335 13.5408 23.9788 13.5853C24.1272 13.6307 24.2963 13.6477 24.4414 13.6477C24.505 13.6477 24.5641 13.6444 24.6149 13.6388C24.4579 13.6927 24.34 13.7185 24.2383 13.7272C24.1086 13.7383 24.0049 13.7217 23.8789 13.6992C23.7518 13.6765 23.5668 13.6709 23.4132 13.6964C23.3365 13.7091 23.2667 13.7298 23.2158 13.7608C23.1647 13.7918 23.1312 13.8341 23.1312 13.8899C23.1312 13.9476 23.179 13.991 23.2513 14.0219C23.3243 14.0532 23.4267 14.0737 23.5454 14.0836C23.7828 14.1034 24.0885 14.0807 24.3626 14.013C24.6339 13.9459 24.8412 13.9686 24.9801 14.0347C25.119 14.1009 25.1892 14.21 25.1892 14.3174C25.1892 14.365 25.1681 14.4176 25.1312 14.4682C25.0944 14.5186 25.0423 14.5662 24.9817 14.6035C24.8602 14.6783 24.7068 14.7104 24.5748 14.6452L24.5632 14.6634C24.7342 14.8008 24.9476 14.8008 25.1562 14.8008H25.158L25.5378 14.7782L25.5388 14.7779C25.5597 14.7723 25.5775 14.7683 25.5924 14.7666C25.6074 14.7649 25.6184 14.7658 25.6265 14.7691C25.6407 14.7748 25.6511 14.7905 25.6512 14.8347C25.6493 14.8715 25.6564 14.9084 25.6718 14.9415C25.6829 14.9651 25.6979 14.9863 25.7161 15.0041H25.6071L25.6347 15.0238C25.6964 15.0678 25.7317 15.1114 25.7545 15.1628C25.7732 15.2052 25.7836 15.2534 25.7925 15.3128C25.7739 15.2924 25.7523 15.2751 25.7308 15.2616C25.6986 15.2415 25.665 15.2291 25.641 15.2291H25.6025L25.6353 15.2492C25.7051 15.2919 25.7251 15.3502 25.738 15.4082C25.7399 15.4166 25.7416 15.4252 25.7434 15.4337C25.7476 15.4542 25.7517 15.4746 25.7577 15.4932C25.7622 15.5073 25.7679 15.5209 25.7757 15.5333L25.6375 15.491L25.6528 15.5157C25.6882 15.5725 25.6574 15.6724 25.5469 15.719V15.5999L25.5262 15.5953C25.5059 15.6387 25.4758 15.6762 25.4307 15.7031C25.3898 15.7275 25.3359 15.7434 25.2646 15.7461C25.265 15.7454 25.2653 15.7447 25.2656 15.7439C25.2672 15.7399 25.2687 15.7357 25.2703 15.7314C25.2733 15.7234 25.2765 15.7148 25.2807 15.7058C25.2933 15.6789 25.3115 15.6558 25.347 15.6558V15.6341C25.3023 15.6341 25.253 15.6519 25.2074 15.6807C25.1617 15.7095 25.1189 15.7496 25.0866 15.7955C25.0569 15.8271 25.0287 15.8361 25.0069 15.8338C24.9848 15.8314 24.9669 15.8172 24.9579 15.7978L24.9573 15.7967C24.9479 15.7816 24.9446 15.767 24.9457 15.7534C24.9468 15.7396 24.9525 15.7261 24.962 15.7133C24.9759 15.6947 24.9978 15.6783 25.0242 15.6666C25.0349 15.6629 25.0456 15.6591 25.0562 15.6553L25.0567 15.6552L25.0502 15.6344C25.0385 15.6376 25.0272 15.6415 25.0164 15.6463C24.9964 15.653 24.9772 15.6589 24.9591 15.6624C24.931 15.6678 24.9078 15.6673 24.8902 15.6578C24.8734 15.6488 24.8648 15.6308 24.8669 15.6124C24.869 15.5944 24.8817 15.5752 24.9097 15.5652L24.9328 15.5569L24.9112 15.5453C24.8919 15.535 24.8806 15.5225 24.8745 15.5098C24.8684 15.497 24.8672 15.4832 24.8695 15.4696C24.8741 15.4422 24.8926 15.4175 24.9101 15.4076C24.9283 15.403 24.9458 15.4041 24.9652 15.4087C24.9794 15.412 24.9939 15.4169 25.0105 15.4225C25.0179 15.425 25.0256 15.4276 25.0339 15.4303C25.0873 15.4474 25.157 15.4646 25.2636 15.4533H25.2638C25.2845 15.4533 25.3187 15.4533 25.3476 15.4347C25.378 15.4152 25.3999 15.3773 25.3999 15.3074C25.3999 15.2256 25.367 15.1486 25.2897 15.1013C25.2129 15.0543 25.0943 15.0378 24.925 15.0718C24.6216 15.1278 24.4025 15.1221 24.2333 15.0914C24.0788 15.0634 23.9656 15.0145 23.8669 14.9718C23.8576 14.9678 23.8484 14.9638 23.8393 14.9599L23.8329 14.9572L23.8278 14.9618C23.7674 15.0158 23.7072 15.0266 23.6507 15.0294C23.6378 15.03 23.625 15.0302 23.6125 15.0304L23.6089 15.0305C23.5952 15.0307 23.5816 15.031 23.5685 15.0319C23.5423 15.0337 23.5169 15.038 23.4939 15.0503C23.4547 15.0713 23.4102 15.0716 23.3651 15.0716L23.3631 15.0716C23.3204 15.0715 23.2756 15.0715 23.2413 15.0956C23.2228 15.1054 23.2016 15.1081 23.1771 15.1074C23.1602 15.107 23.1427 15.1049 23.124 15.1028C23.1149 15.1018 23.1056 15.1007 23.0958 15.0997C23.0373 15.094 22.971 15.0938 22.9047 15.1411L22.9044 15.1413C22.869 15.1684 22.8379 15.1802 22.8101 15.1842C22.7821 15.1881 22.7568 15.1842 22.7323 15.1787C22.7263 15.1773 22.7203 15.1759 22.7142 15.1744C22.6962 15.17 22.678 15.1655 22.6607 15.1644C22.6365 15.1628 22.6127 15.1676 22.5892 15.1865C22.5478 15.2197 22.5121 15.2415 22.4742 15.255C22.4364 15.2685 22.3957 15.2741 22.344 15.2741H22.3332V15.2849C22.3332 15.3075 22.3331 15.3289 22.3281 15.353C22.3232 15.3769 22.3132 15.4038 22.2929 15.4365C22.2056 15.5674 22.1196 15.6178 22.0599 15.6306C22.0683 15.6179 22.0733 15.603 22.0764 15.5881C22.0819 15.5617 22.0819 15.5326 22.0819 15.5104V15.5099L22.0614 15.5048C22.0213 15.5801 21.9456 15.6239 21.8701 15.6545C21.84 15.6668 21.8104 15.6768 21.7833 15.6859C21.7765 15.6882 21.7698 15.6904 21.7633 15.6926C21.7419 15.7 21.7222 15.7071 21.7063 15.7148L21.721 15.5885C21.7236 15.5782 21.7249 15.567 21.7249 15.5549L21.7032 15.5537L21.6996 15.5846C21.6959 15.599 21.6893 15.6109 21.6805 15.6209C21.666 15.6373 21.6447 15.6493 21.6176 15.6577C21.5631 15.6747 21.4887 15.6763 21.4099 15.6734C21.3813 15.6724 21.352 15.6708 21.3231 15.6692C21.2734 15.6665 21.2248 15.6638 21.1823 15.6643C21.1486 15.6646 21.1178 15.6669 21.0925 15.6729C21.0843 15.6749 21.0766 15.6772 21.0694 15.6801C21.079 15.6686 21.0921 15.6566 21.1066 15.645C21.1375 15.6202 21.1736 15.598 21.1942 15.587L21.1858 15.567C21.1184 15.5877 21.0603 15.5633 21.0008 15.5383C20.9993 15.5377 20.9978 15.5371 20.9963 15.5365C20.9475 15.516 20.8969 15.4956 20.8429 15.5086C20.854 15.4967 20.8666 15.4864 20.8803 15.4781C20.8975 15.4675 20.9161 15.4602 20.9355 15.4563C20.9432 15.4557 20.9514 15.4547 20.9599 15.4531L20.9574 15.4316C20.949 15.4321 20.9407 15.4331 20.9326 15.4347C20.9133 15.4361 20.897 15.4343 20.8825 15.4308C20.8623 15.4259 20.8449 15.4173 20.8267 15.4075C20.824 15.4061 20.8214 15.4047 20.8187 15.4033C20.7844 15.3846 20.7464 15.3641 20.685 15.3641C20.6561 15.3641 20.6392 15.3538 20.6313 15.3411C20.6232 15.3281 20.6225 15.3096 20.6319 15.2895C20.6399 15.2723 20.6611 15.2618 20.6922 15.2562C20.7226 15.2508 20.7583 15.2508 20.79 15.2508H20.8239L20.7963 15.2311C20.7619 15.2065 20.717 15.2009 20.6764 15.2038C20.6362 15.2066 20.5983 15.218 20.5757 15.2299C20.5504 15.2385 20.5242 15.2252 20.5105 15.2032C20.5037 15.1924 20.5006 15.1801 20.5022 15.1686C20.5037 15.1574 20.5098 15.1459 20.5233 15.1363L20.5237 15.136C20.5522 15.1139 20.5855 15.1004 20.6204 15.0967C20.6308 15.0955 20.6412 15.0953 20.6516 15.096ZM25.2394 15.7474C25.2394 15.7474 25.2394 15.7473 25.2395 15.7473L25.2394 15.7474ZM21.3404 13.7978C21.3684 13.8051 21.4031 13.818 21.4451 13.8348L21.4519 13.8376V13.873L21.4473 13.8763C21.4337 13.886 21.4215 13.9025 21.4111 13.9239C21.4007 13.9451 21.3924 13.9703 21.386 13.9966C21.373 14.0491 21.3679 14.1045 21.3679 14.1374V14.165L21.3491 14.1448C21.3276 14.1218 21.3008 14.0874 21.2793 14.05C21.2582 14.0132 21.2414 13.9721 21.2412 13.9357C21.236 13.8965 21.2345 13.8658 21.2384 13.8431C21.2423 13.8198 21.2524 13.8029 21.2717 13.7954C21.2896 13.7885 21.3128 13.7907 21.3404 13.7978ZM21.2598 13.8468C21.2565 13.8661 21.2576 13.8943 21.2628 13.9335L21.2629 13.9342V13.9349C21.2629 13.9658 21.2775 14.0031 21.2982 14.0392C21.3131 14.0651 21.3307 14.0896 21.3471 14.1095C21.3491 14.0761 21.3546 14.0329 21.3648 13.9914C21.3715 13.9642 21.3803 13.9374 21.3916 13.9143C21.4018 13.8934 21.4145 13.8748 21.4302 13.8621V13.8523C21.3913 13.8368 21.36 13.8253 21.3349 13.8189C21.308 13.8119 21.2906 13.8114 21.2796 13.8157C21.27 13.8194 21.263 13.8278 21.2598 13.8468Z" fill="black"/>
<path d="M22.0078 13.8675C22.1758 13.7775 22.2388 13.7775 22.1968 13.935C22.1968 14.0025 22.1338 14.0925 22.0918 14.1375C22.0918 14.07 22.0918 13.9125 22.0078 13.8675Z" fill="#F9DD16"/>
<path fill-rule="evenodd" clip-rule="evenodd" d="M22.0297 13.8686C22.0653 13.8966 22.0832 13.9447 22.0925 13.992C22.1006 14.0332 22.1026 14.0758 22.1031 14.1087C22.1192 14.089 22.1365 14.0649 22.1512 14.0393C22.1719 14.0033 22.1865 13.9659 22.1865 13.9351V13.9337L22.1869 13.9323C22.1973 13.8932 22.2007 13.8654 22.1984 13.8468C22.1972 13.8377 22.1948 13.8315 22.1916 13.8273C22.1886 13.8233 22.1846 13.8206 22.1788 13.819C22.1665 13.8157 22.1469 13.8182 22.1183 13.8283C22.0939 13.8369 22.0644 13.8505 22.0297 13.8686ZM22.2082 13.9365C22.2185 13.8975 22.2228 13.8667 22.22 13.8441C22.2185 13.8325 22.2151 13.8223 22.209 13.8142C22.2028 13.806 22.1944 13.8007 22.1844 13.798C22.1653 13.7929 22.1402 13.7975 22.1111 13.8078C22.0814 13.8182 22.0454 13.8354 22.0032 13.858L21.9854 13.8676L22.0032 13.8772C22.0406 13.8972 22.0608 13.9433 22.0712 13.9962C22.0815 14.0485 22.0815 14.1037 22.0815 14.1376V14.1651L22.1003 14.145C22.1218 14.1219 22.1486 14.0875 22.17 14.0502C22.191 14.0136 22.2078 13.9728 22.2082 13.9365Z" fill="black"/>
<path d="M21.7354 13.7549C22.0714 13.7549 22.1134 13.9349 22.0924 14.1374C22.0924 14.3624 21.9874 14.2724 21.9244 14.5874C21.9034 14.6774 21.8194 14.6999 21.7144 14.6999C21.6514 14.6999 21.5674 14.6999 21.5254 14.5649C21.4624 14.2724 21.3574 14.3399 21.3574 14.1149C21.3574 13.9349 21.3994 13.7549 21.7354 13.7549Z" fill="#F9DD16"/>
<path fill-rule="evenodd" clip-rule="evenodd" d="M21.4282 13.8742C21.378 13.9386 21.3674 14.0254 21.3674 14.115C21.3674 14.1704 21.3739 14.2071 21.3842 14.2354C21.3945 14.2638 21.4088 14.2845 21.4258 14.3084C21.4266 14.3096 21.4275 14.3107 21.4283 14.3119C21.4447 14.3349 21.4633 14.3609 21.4815 14.3982C21.5006 14.4373 21.5192 14.4887 21.5351 14.5622C21.5554 14.6273 21.5852 14.6582 21.616 14.6734C21.6475 14.689 21.6817 14.6891 21.7136 14.6891C21.7656 14.6891 21.8109 14.6835 21.8455 14.6676C21.8794 14.6521 21.9032 14.6266 21.9129 14.5852C21.9288 14.5059 21.9474 14.4516 21.9666 14.4113C21.9858 14.3709 22.0054 14.3448 22.0225 14.3222L22.023 14.3216C22.0399 14.2992 22.0539 14.2808 22.064 14.2545C22.0742 14.2281 22.0807 14.193 22.0807 14.1375V14.1364L22.0808 14.1364C22.0912 14.0356 22.0855 13.9435 22.0381 13.8766C21.9911 13.8104 21.9009 13.7659 21.7346 13.7659C21.5684 13.7659 21.4778 13.8103 21.4282 13.8742ZM21.411 13.8608C21.4663 13.7897 21.5648 13.7441 21.7346 13.7441C21.9043 13.7441 22.003 13.7896 22.0558 13.864C22.108 13.9376 22.1129 14.0365 22.1024 14.1381C22.1024 14.1948 22.0958 14.2327 22.0843 14.2624C22.0731 14.2915 22.0575 14.3121 22.0409 14.3339L22.0399 14.3353C22.0229 14.3577 22.0044 14.3823 21.9862 14.4206C21.968 14.459 21.9498 14.5116 21.9342 14.5896L21.9342 14.59L21.9342 14.59C21.9228 14.6385 21.8942 14.6692 21.8546 14.6874C21.8157 14.7052 21.7666 14.7109 21.7136 14.7109H21.7127C21.6817 14.7109 21.6428 14.7109 21.6064 14.6929C21.569 14.6744 21.5359 14.6379 21.5142 14.5682L21.5139 14.5673L21.5139 14.5673C21.4983 14.4949 21.4802 14.4451 21.462 14.4077C21.4446 14.3721 21.4269 14.3474 21.4105 14.3244C21.4097 14.3233 21.4089 14.3221 21.4081 14.321C21.391 14.2971 21.3751 14.2742 21.3637 14.2428C21.3524 14.2114 21.3457 14.1721 21.3457 14.115C21.3457 14.0247 21.3561 13.9314 21.411 13.8608Z" fill="black"/>
<path d="M20.8739 14.587C20.7899 14.542 20.7269 14.587 20.6849 14.587C20.8109 14.6095 20.8109 14.767 21.0629 14.812C20.9999 14.812 20.9789 14.857 20.9159 14.812C21.0209 14.902 21.1259 15.0145 21.3779 15.0145C21.5249 15.0145 21.4199 15.082 21.3359 15.037C21.4199 15.1495 21.6089 15.0595 21.7349 15.262C21.7349 15.1045 21.5249 14.8795 21.6299 14.722C21.2729 14.6995 21.2519 14.497 21.0629 14.3395C20.8949 14.2045 20.8739 14.0695 20.8109 13.822C20.7899 13.7095 20.6639 13.642 20.6009 13.6645C20.5379 13.6645 20.4959 13.732 20.5589 13.777C20.6009 13.822 20.6849 13.822 20.6849 13.9345C20.6219 13.8445 20.5169 13.822 20.4749 13.867C20.4539 13.912 20.4749 13.9795 20.5169 13.9795C20.6219 13.9795 20.5589 14.1145 20.6639 14.2045C20.5589 14.092 20.4749 14.0695 20.4119 14.137C20.3909 14.182 20.4119 14.2495 20.4959 14.2495C20.6009 14.2495 20.7059 14.5195 20.8739 14.587ZM23.6039 15.622C23.5619 15.622 23.5829 15.7345 23.4989 15.7345C23.6669 15.7345 23.7719 15.6895 23.8349 15.622L23.7929 15.7345C23.8769 15.667 24.1079 15.6445 24.2129 15.667C24.3179 15.6895 24.3389 15.6445 24.3809 15.577C24.4229 15.487 24.3809 15.442 24.3179 15.397C24.2549 15.3295 24.2339 15.2395 24.2549 15.1045C23.9609 14.6545 23.4149 14.8795 23.4149 15.0595C23.6039 15.307 23.6249 15.2845 23.7929 15.307C23.9399 15.352 24.0449 15.352 23.9399 15.442C23.8979 15.487 23.7299 15.442 23.6249 15.4645C23.3519 15.4645 23.2049 15.262 23.1419 15.3745C23.0789 15.4645 23.1419 15.5095 23.2679 15.5095C23.1839 15.5095 23.0579 15.5095 23.0789 15.5995C23.1209 15.757 23.2469 15.577 23.3099 15.622C23.2679 15.622 23.1839 15.6445 23.1839 15.6895C23.1839 15.7345 23.2889 15.802 23.3939 15.6895C23.4549 15.6424 23.5288 15.6187 23.6039 15.622Z" fill="#F9DD16"/>
<path fill-rule="evenodd" clip-rule="evenodd" d="M20.8216 13.8197C20.827 13.8409 20.8321 13.8612 20.837 13.8808C20.8893 14.0903 20.9193 14.2102 21.0698 14.3311L21.07 14.3312C21.118 14.3713 21.1553 14.4141 21.1895 14.4557C21.1961 14.4638 21.2026 14.4718 21.2091 14.4797C21.236 14.5129 21.2619 14.5446 21.2912 14.5738C21.3628 14.645 21.4548 14.7002 21.6307 14.7112L21.6495 14.7124L21.639 14.7281C21.59 14.8016 21.6136 14.892 21.6532 14.988C21.662 15.0094 21.6715 15.0308 21.681 15.0523C21.682 15.0546 21.683 15.0569 21.684 15.0592C21.6945 15.0828 21.7048 15.1063 21.7139 15.1294C21.7321 15.1754 21.7459 15.2206 21.7459 15.2621V15.3001L21.7258 15.2678C21.6649 15.1701 21.5894 15.143 21.5173 15.1264C21.5066 15.124 21.4957 15.1217 21.4849 15.1195C21.4598 15.1142 21.4351 15.1091 21.4126 15.1015C21.3798 15.0906 21.35 15.0741 21.3273 15.0436L21.3411 15.0275C21.3603 15.0378 21.3808 15.0417 21.3987 15.0417C21.4168 15.0417 21.431 15.0377 21.4379 15.0334C21.4381 15.0333 21.4383 15.0332 21.4385 15.0331C21.4351 15.0315 21.4293 15.0296 21.4201 15.0281C21.4098 15.0265 21.396 15.0255 21.378 15.0255C21.2502 15.0255 21.1591 14.9969 21.0866 14.9566C21.0267 14.9233 20.9796 14.882 20.9356 14.8435C20.9266 14.8356 20.9177 14.8279 20.9089 14.8203L20.9223 14.8032C20.9371 14.8138 20.9488 14.8186 20.9586 14.8204C20.9683 14.8221 20.9771 14.821 20.9867 14.8185C20.9914 14.8172 20.9965 14.8155 21.0021 14.8136C21.0044 14.8128 21.0068 14.812 21.0092 14.8111C20.914 14.7849 20.8605 14.7407 20.819 14.6988C20.8105 14.6901 20.8026 14.6818 20.7951 14.6738C20.7812 14.659 20.7685 14.6455 20.7547 14.6337C20.7341 14.6159 20.7122 14.603 20.6831 14.5978L20.685 14.5762C20.6939 14.5762 20.7044 14.5738 20.7176 14.5703C20.7197 14.5697 20.7218 14.5691 20.724 14.5685C20.7354 14.5654 20.7481 14.562 20.7618 14.5595C20.7737 14.5574 20.7863 14.556 20.7997 14.5562C20.7828 14.5434 20.7666 14.5289 20.7512 14.5136C20.7155 14.4783 20.683 14.4377 20.6529 14.3998C20.6517 14.3983 20.6504 14.3968 20.6492 14.3952C20.6203 14.3588 20.5937 14.3254 20.5682 14.3006C20.5413 14.2746 20.5177 14.2605 20.496 14.2605C20.4508 14.2605 20.4206 14.2421 20.4052 14.2157C20.3902 14.1898 20.3903 14.1579 20.4021 14.1325L20.4029 14.1309L20.4041 14.1297C20.4208 14.1117 20.4395 14.0992 20.46 14.093C20.4806 14.0867 20.5024 14.0868 20.5251 14.0928C20.5488 14.0992 20.5737 14.1121 20.5997 14.1313C20.5911 14.1093 20.5861 14.0878 20.5817 14.0686C20.5811 14.066 20.5805 14.0634 20.5799 14.0608C20.5746 14.0379 20.5697 14.0205 20.5608 14.0086C20.5527 13.9978 20.5405 13.9905 20.517 13.9905C20.4892 13.9905 20.4707 13.9682 20.4621 13.9438C20.4534 13.919 20.4533 13.8879 20.4651 13.8625L20.4659 13.8609L20.4671 13.8597C20.4919 13.833 20.5337 13.8279 20.5751 13.8398C20.6078 13.8491 20.6418 13.8692 20.6707 13.8999C20.6685 13.8898 20.6654 13.8812 20.6616 13.8738C20.654 13.8592 20.6434 13.8484 20.6312 13.8392C20.6213 13.8318 20.6108 13.8257 20.5997 13.8193C20.5968 13.8177 20.5939 13.816 20.5909 13.8142C20.5773 13.8063 20.5633 13.7974 20.5518 13.7853C20.5351 13.7731 20.5244 13.7589 20.5197 13.7438C20.5149 13.7283 20.5166 13.7129 20.5229 13.6994C20.5352 13.6731 20.5647 13.6544 20.5991 13.6537C20.6171 13.6478 20.6384 13.6483 20.6599 13.6533C20.6823 13.6586 20.7058 13.669 20.7278 13.6837C20.7715 13.713 20.8104 13.7602 20.8216 13.8197ZM20.6325 14.188C20.6395 14.1965 20.6476 14.2049 20.6569 14.2128L20.6719 14.1972C20.664 14.1887 20.6562 14.1807 20.6485 14.1732C20.6201 14.1381 20.611 14.0987 20.6027 14.063C20.6022 14.0606 20.6016 14.0582 20.6011 14.0559C20.5959 14.0338 20.5903 14.0118 20.5782 13.9956C20.5653 13.9783 20.546 13.9687 20.517 13.9687C20.5028 13.9687 20.4898 13.9572 20.4826 13.9366C20.4758 13.917 20.4757 13.8926 20.4841 13.8733C20.5015 13.8559 20.5327 13.8503 20.5691 13.8607C20.606 13.8712 20.6459 13.8978 20.6761 13.9408L20.6959 13.9691V13.9346C20.6959 13.9051 20.6903 13.8822 20.6809 13.8639C20.6714 13.8455 20.6583 13.8324 20.6443 13.8218C20.6332 13.8136 20.6212 13.8066 20.61 13.8002C20.6072 13.7986 20.6045 13.797 20.6019 13.7955C20.5882 13.7875 20.5763 13.7797 20.5669 13.7697L20.5662 13.7689L20.5653 13.7682C20.5511 13.7581 20.5436 13.7472 20.5405 13.7373C20.5374 13.7274 20.5384 13.7175 20.5426 13.7086C20.5511 13.6903 20.5732 13.6755 20.601 13.6755H20.6029L20.6047 13.6748C20.6178 13.6701 20.6352 13.6699 20.655 13.6745C20.6745 13.6791 20.6957 13.6883 20.7157 13.7017C20.7559 13.7286 20.7905 13.7713 20.8003 13.8241L20.8005 13.8248C20.8059 13.8463 20.8111 13.8669 20.8161 13.8869C20.8681 14.0955 20.8998 14.2223 21.0561 14.348C21.1025 14.3867 21.1387 14.4282 21.1727 14.4695C21.1792 14.4774 21.1855 14.4852 21.1919 14.493C21.2189 14.5263 21.2457 14.5592 21.2758 14.5892C21.3487 14.6617 21.4418 14.7177 21.6116 14.7317C21.5685 14.8124 21.5962 14.9068 21.6331 14.9962C21.642 15.018 21.6516 15.0397 21.6611 15.061C21.6621 15.0633 21.6631 15.0656 21.6642 15.0679C21.6746 15.0916 21.6848 15.1148 21.6937 15.1374C21.7054 15.1671 21.7148 15.1952 21.7199 15.2216C21.6593 15.1448 21.588 15.1204 21.5222 15.1053C21.5104 15.1025 21.499 15.1002 21.4879 15.0979C21.4635 15.0928 21.4407 15.088 21.4195 15.0809C21.4047 15.076 21.391 15.0699 21.3787 15.0621C21.3855 15.063 21.3923 15.0634 21.3987 15.0634C21.4192 15.0634 21.4378 15.059 21.4493 15.052C21.4546 15.0487 21.4611 15.0433 21.4622 15.0351C21.4636 15.0255 21.4571 15.0188 21.4508 15.0151C21.4443 15.0113 21.4351 15.0085 21.4236 15.0067C21.4118 15.0048 21.3967 15.0037 21.378 15.0037C21.2538 15.0037 21.1664 14.976 21.0972 14.9376C21.0471 14.9098 21.0066 14.8764 20.968 14.843C20.9766 14.843 20.9846 14.8415 20.9923 14.8395C20.9993 14.8376 21.0057 14.8354 21.012 14.8332C21.0272 14.828 21.0421 14.823 21.063 14.823L21.0649 14.8014C20.9416 14.7794 20.8806 14.7302 20.8345 14.6835C20.8268 14.6758 20.8194 14.6679 20.8121 14.6601C20.7976 14.6447 20.7835 14.6298 20.7689 14.6172C20.7565 14.6065 20.7433 14.5972 20.7284 14.5899C20.7289 14.5897 20.7294 14.5896 20.73 14.5894C20.7413 14.5864 20.753 14.5832 20.7657 14.5809C20.7902 14.5765 20.8177 14.5758 20.8486 14.5874C20.8556 14.591 20.8627 14.5943 20.8699 14.5972L20.874 14.5871L20.8791 14.5775C20.8718 14.5736 20.8645 14.5703 20.8575 14.5675C20.8252 14.5509 20.7951 14.5265 20.7665 14.4982C20.7319 14.4639 20.7001 14.4243 20.6699 14.3863C20.6685 14.3846 20.6672 14.3828 20.6658 14.3811C20.6373 14.3452 20.6099 14.3108 20.5833 14.285C20.5557 14.2584 20.5268 14.2387 20.496 14.2387C20.4572 14.2387 20.4349 14.2233 20.424 14.2047C20.4131 14.1861 20.4127 14.1625 20.4212 14.1432C20.4355 14.1282 20.4506 14.1186 20.4664 14.1137C20.4825 14.1088 20.5001 14.1087 20.5194 14.1138C20.5525 14.1227 20.5902 14.1469 20.6325 14.188ZM23.7233 14.8351C23.9002 14.8121 24.1145 14.8697 24.2641 15.0986L24.2664 15.1021L24.2657 15.1063C24.2451 15.2388 24.2659 15.3248 24.3252 15.3889C24.3564 15.4113 24.3844 15.435 24.3987 15.4656C24.4136 15.4974 24.4128 15.5346 24.3908 15.5817L24.3903 15.5829C24.3881 15.5864 24.3859 15.5898 24.3838 15.5933C24.3759 15.6061 24.3683 15.6183 24.3606 15.6291C24.3508 15.6429 24.3401 15.6553 24.3269 15.6647C24.2999 15.684 24.2648 15.6893 24.2107 15.6777C24.1599 15.6668 24.0773 15.6667 23.9966 15.6779C23.9564 15.6834 23.917 15.6917 23.8826 15.7028C23.8481 15.7138 23.8193 15.7274 23.7998 15.7431L23.769 15.7678L23.809 15.6605C23.742 15.713 23.6424 15.7455 23.499 15.7455V15.7237C23.5172 15.7237 23.5288 15.7178 23.5372 15.7093C23.546 15.7005 23.5519 15.6883 23.5571 15.6745C23.5588 15.6699 23.5604 15.6653 23.5619 15.6607C23.5627 15.6585 23.5634 15.6563 23.5642 15.6541C23.5665 15.6475 23.569 15.6408 23.572 15.6348C23.5722 15.6343 23.5725 15.6337 23.5728 15.6332C23.5114 15.6367 23.4518 15.6589 23.4013 15.6977C23.3469 15.7557 23.2909 15.7686 23.2473 15.7593C23.2258 15.7547 23.2075 15.7446 23.1946 15.7323C23.1818 15.7202 23.1731 15.7049 23.1731 15.6896C23.1731 15.6818 23.1751 15.6746 23.1783 15.6682C23.1594 15.6753 23.1393 15.6795 23.1206 15.6736C23.0967 15.6659 23.0794 15.6432 23.0685 15.6024L23.0684 15.6021C23.0626 15.577 23.0667 15.5565 23.0794 15.5408C23.0916 15.5256 23.1105 15.5163 23.1311 15.5104C23.1402 15.5078 23.15 15.5058 23.1601 15.5042C23.1468 15.4989 23.1355 15.4921 23.1266 15.4837C23.1126 15.4703 23.1054 15.4532 23.1065 15.433C23.1077 15.4135 23.1166 15.392 23.1328 15.3688C23.1414 15.3536 23.152 15.3428 23.1648 15.3364C23.1778 15.33 23.192 15.3287 23.2069 15.3304C23.2359 15.3338 23.2705 15.3495 23.3093 15.3675C23.3114 15.3685 23.3135 15.3695 23.3156 15.3705C23.3934 15.4066 23.4941 15.4535 23.6239 15.4537C23.6709 15.4439 23.7296 15.447 23.7829 15.4497C23.791 15.4502 23.7989 15.4506 23.8066 15.4509C23.8368 15.4523 23.8643 15.453 23.8867 15.4506C23.9096 15.4482 23.9244 15.4429 23.9321 15.4347L23.9329 15.4338C23.9457 15.4228 23.955 15.4135 23.9613 15.4056C23.9677 15.3975 23.9705 15.3916 23.9713 15.3873C23.9721 15.3835 23.9714 15.3807 23.9695 15.3779C23.9673 15.3747 23.963 15.3711 23.9559 15.3673C23.9414 15.3596 23.919 15.3528 23.8899 15.345C23.8831 15.3432 23.8759 15.3413 23.8684 15.3393C23.8449 15.3332 23.8185 15.3262 23.7907 15.3177C23.7748 15.3156 23.7602 15.3139 23.7465 15.3123C23.6894 15.3056 23.6485 15.3009 23.6065 15.2772C23.5544 15.2478 23.5007 15.1897 23.4064 15.0662L23.4041 15.0633V15.0596C23.4041 15.0093 23.4418 14.9586 23.4986 14.9185C23.556 14.878 23.6351 14.8465 23.7233 14.8351ZM23.268 15.4987V15.5205C23.2255 15.5205 23.1747 15.5205 23.1371 15.5313C23.1184 15.5367 23.1045 15.5442 23.0963 15.5544C23.0887 15.5639 23.085 15.5771 23.0895 15.597C23.0997 15.6348 23.1138 15.6486 23.1273 15.6529C23.1418 15.6575 23.16 15.6529 23.1822 15.6431C23.1913 15.6391 23.2004 15.6345 23.2098 15.6298C23.2117 15.6289 23.2136 15.6279 23.2154 15.627C23.2266 15.6214 23.2382 15.6158 23.2494 15.6116C23.2713 15.6033 23.2958 15.5986 23.3163 15.6132L23.3439 15.633H23.31C23.2905 15.633 23.2604 15.6383 23.2355 15.649C23.2231 15.6543 23.2126 15.6607 23.2054 15.6678C23.1983 15.6748 23.1949 15.6821 23.1949 15.6896C23.1949 15.6968 23.1993 15.7068 23.2095 15.7165C23.2195 15.726 23.2341 15.7342 23.2519 15.738C23.2869 15.7455 23.3357 15.7361 23.3861 15.6822L23.3867 15.6815L23.3874 15.681C23.4503 15.6324 23.5268 15.6078 23.6045 15.6112L23.604 15.6221V15.633C23.5999 15.633 23.5961 15.6351 23.5914 15.6445C23.5891 15.6491 23.587 15.6547 23.5847 15.6613C23.5841 15.6632 23.5834 15.6652 23.5826 15.6673C23.581 15.6721 23.5793 15.6772 23.5774 15.6821C23.5725 15.6955 23.5659 15.7101 23.5553 15.7219C23.6886 15.7129 23.7739 15.6716 23.8271 15.6147L23.8452 15.6259L23.8147 15.7074C23.8327 15.6977 23.8535 15.6892 23.876 15.6821C23.9118 15.6706 23.9525 15.662 23.9936 15.6563C24.0757 15.645 24.1611 15.6448 24.2153 15.6565C24.2662 15.6674 24.2941 15.6614 24.3143 15.647C24.3247 15.6395 24.3338 15.6294 24.3429 15.6165C24.3502 15.6063 24.3572 15.5949 24.365 15.5822C24.3671 15.5789 24.3692 15.5755 24.3714 15.5719C24.3912 15.5293 24.3904 15.4992 24.379 15.4748C24.3672 15.4495 24.3431 15.4284 24.3117 15.4059L24.3108 15.4053L24.3101 15.4045C24.2446 15.3344 24.2234 15.2417 24.2436 15.1071C24.0993 14.8889 23.8949 14.8347 23.7261 14.8566C23.6411 14.8677 23.5654 14.898 23.5112 14.9363C23.458 14.9738 23.4277 15.0172 23.4259 15.056C23.5192 15.1779 23.57 15.2316 23.6172 15.2583C23.6551 15.2796 23.6907 15.2838 23.7471 15.2905C23.7614 15.2921 23.7771 15.294 23.7944 15.2963L23.7953 15.2964L23.7962 15.2967C23.8238 15.3052 23.8499 15.312 23.8736 15.3182C23.8812 15.3202 23.8885 15.3221 23.8956 15.324C23.9242 15.3317 23.9491 15.339 23.9661 15.3481C23.9747 15.3527 23.9823 15.3583 23.9873 15.3655C23.9926 15.3731 23.9945 15.3819 23.9927 15.3915C23.9909 15.4005 23.9858 15.4097 23.9784 15.419C23.971 15.4284 23.9607 15.4386 23.9475 15.45C23.9341 15.464 23.9124 15.4698 23.889 15.4722C23.8648 15.4748 23.8358 15.474 23.8056 15.4726C23.7976 15.4723 23.7896 15.4719 23.7815 15.4714C23.7273 15.4686 23.6714 15.4658 23.6273 15.4752L23.6261 15.4755H23.625C23.4898 15.4755 23.385 15.4267 23.3071 15.3905C23.3048 15.3894 23.3025 15.3883 23.3002 15.3873C23.2602 15.3687 23.2292 15.3549 23.2044 15.352C23.1924 15.3506 23.1826 15.3519 23.1745 15.3559C23.1663 15.3599 23.1586 15.3673 23.1515 15.3799L23.1509 15.3809C23.1358 15.4025 23.1291 15.4202 23.1282 15.4343C23.1274 15.4479 23.132 15.4589 23.1416 15.468C23.1516 15.4774 23.1673 15.4852 23.1889 15.4906C23.2104 15.496 23.2371 15.4987 23.268 15.4987Z" fill="black"/>
<path fill-rule="evenodd" clip-rule="evenodd" d="M21.9253 14.0275C21.9392 14.0323 21.9522 14.036 21.966 14.036V14.0578C21.9484 14.0578 21.9325 14.053 21.9182 14.048C21.9149 14.0469 21.9117 14.0457 21.9087 14.0446C21.8977 14.0407 21.8878 14.0371 21.8773 14.0351C21.8645 14.0325 21.8515 14.0326 21.837 14.0381C21.8267 14.042 21.8152 14.0488 21.8023 14.06C21.8062 14.0622 21.8104 14.0649 21.8144 14.0675C21.8147 14.0677 21.8151 14.068 21.8154 14.0682C21.82 14.0712 21.8246 14.0741 21.8294 14.0767C21.839 14.0818 21.8485 14.085 21.8586 14.0839C21.8684 14.0828 21.8806 14.0775 21.8951 14.062L21.911 14.0768C21.894 14.095 21.8773 14.1037 21.8609 14.1055C21.8447 14.1072 21.8306 14.1019 21.8192 14.0958C21.8135 14.0928 21.8082 14.0894 21.8036 14.0864C21.8033 14.0862 21.803 14.086 21.8028 14.0859C21.7984 14.083 21.7948 14.0807 21.7916 14.079C21.7901 14.0782 21.7889 14.0776 21.7879 14.0772V14.1362C21.7919 14.1659 21.7966 14.1922 21.8008 14.2158C21.8021 14.223 21.8033 14.2299 21.8045 14.2366C21.8094 14.2649 21.8129 14.2894 21.8115 14.3092C21.81 14.3296 21.8031 14.3467 21.7859 14.358C21.7697 14.3686 21.746 14.3728 21.714 14.3728C21.6872 14.3728 21.6668 14.3686 21.6533 14.3572C21.6391 14.3454 21.6349 14.328 21.6349 14.3084C21.6349 14.289 21.6391 14.2648 21.6443 14.2365C21.6449 14.233 21.6456 14.2294 21.6463 14.2257C21.6511 14.1997 21.6566 14.1701 21.6612 14.1362V14.0772C21.6602 14.0776 21.659 14.0782 21.6575 14.079C21.6543 14.0807 21.6507 14.083 21.6463 14.0859C21.646 14.086 21.6458 14.0862 21.6455 14.0864C21.6409 14.0894 21.6356 14.0928 21.6299 14.0958C21.6185 14.1019 21.6044 14.1072 21.5882 14.1055C21.5718 14.1037 21.5551 14.095 21.5381 14.0768L21.554 14.062C21.5685 14.0775 21.5807 14.0828 21.5905 14.0839C21.6005 14.085 21.6101 14.0818 21.6197 14.0767C21.6245 14.0741 21.629 14.0712 21.6336 14.0682C21.634 14.068 21.6343 14.0677 21.6347 14.0675C21.6386 14.065 21.6427 14.0623 21.6466 14.0602C21.634 14.0497 21.6229 14.0441 21.6131 14.0411C21.5992 14.0369 21.5867 14.038 21.5746 14.0406C21.5703 14.0416 21.5663 14.0426 21.5622 14.0437C21.5602 14.0442 21.5582 14.0447 21.5561 14.0452C21.55 14.0467 21.5435 14.0482 21.5369 14.0486C21.5301 14.049 21.5231 14.0484 21.516 14.0457C21.5089 14.043 21.5023 14.0385 21.4961 14.0318L21.512 14.017C21.5163 14.0216 21.5202 14.024 21.5237 14.0254C21.5273 14.0267 21.5311 14.0272 21.5355 14.0269C21.5401 14.0266 21.545 14.0256 21.5509 14.0241C21.5525 14.0237 21.5543 14.0232 21.5562 14.0228C21.5605 14.0216 21.5653 14.0204 21.57 14.0194C21.5841 14.0164 21.6005 14.0147 21.6194 14.0203C21.6381 14.0259 21.6581 14.0385 21.68 14.062L21.672 14.0694H21.6829V14.1376L21.6828 14.1383C21.6782 14.1731 21.6725 14.2036 21.6677 14.2297C21.667 14.2334 21.6663 14.237 21.6657 14.2405C21.6604 14.2692 21.6567 14.2913 21.6567 14.3084C21.6567 14.3254 21.6603 14.3348 21.6672 14.3405C21.6746 14.3468 21.6884 14.351 21.714 14.351C21.7451 14.351 21.7634 14.3468 21.774 14.3398C21.7837 14.3334 21.7887 14.3238 21.7898 14.3077C21.791 14.2909 21.788 14.269 21.7831 14.2403C21.7819 14.2338 21.7807 14.227 21.7794 14.2199C21.7752 14.1961 21.7703 14.1688 21.7663 14.1383L21.7662 14.1376V14.0694H21.777L21.7691 14.062C21.7908 14.0387 21.8105 14.0248 21.8293 14.0177C21.8483 14.0106 21.8655 14.0106 21.8815 14.0137C21.8938 14.0161 21.9058 14.0205 21.9169 14.0245C21.9198 14.0255 21.9226 14.0265 21.9253 14.0275ZM23.5388 14.9138C23.6467 14.8906 23.7543 14.9138 23.8402 14.9598L23.8299 14.979C23.7478 14.935 23.6454 14.9131 23.5433 14.935L23.5388 14.9138ZM22.3043 15.1386C22.3016 15.0804 22.3126 15.0112 22.3552 14.9198L22.3749 14.929C22.3335 15.0176 22.3235 15.0834 22.326 15.1376C22.3279 15.1788 22.337 15.2133 22.3459 15.2475C22.3489 15.2589 22.3519 15.2703 22.3546 15.2819L22.3335 15.2869C22.331 15.2763 22.3282 15.2655 22.3253 15.2545C22.3162 15.2198 22.3063 15.1823 22.3043 15.1386Z" fill="black"/>
<path d="M21.7351 14.6323C21.8191 14.6323 21.8611 14.6323 21.8611 14.4973C21.8611 14.4523 21.9241 14.4298 21.8821 14.3398C21.9241 14.4298 21.7351 14.4298 21.7351 14.3848C21.7351 14.4298 21.5251 14.4298 21.5671 14.3398C21.5461 14.4298 21.6091 14.4523 21.5881 14.4973C21.5881 14.6323 21.6301 14.6323 21.7351 14.6323Z" fill="#FF0016"/>
<path fill-rule="evenodd" clip-rule="evenodd" d="M21.7199 14.3905C21.724 14.3875 21.7243 14.3854 21.7243 14.3846H21.7461C21.7461 14.3859 21.7467 14.388 21.7501 14.3908C21.7536 14.3937 21.7593 14.3965 21.7671 14.3987C21.7825 14.4032 21.8033 14.4046 21.823 14.4019C21.843 14.3992 21.8599 14.3927 21.8692 14.3832C21.8737 14.3787 21.8764 14.3736 21.8772 14.3677C21.878 14.3617 21.877 14.354 21.8724 14.3442L21.8921 14.335C21.9031 14.3586 21.9075 14.3784 21.9075 14.3958C21.9075 14.4133 21.903 14.4275 21.8973 14.4398C21.8945 14.4459 21.8913 14.4515 21.8883 14.4566C21.8876 14.4579 21.8868 14.4592 21.8861 14.4604C21.8839 14.4642 21.8819 14.4677 21.88 14.4712C21.875 14.4805 21.8721 14.4885 21.8721 14.4971C21.8721 14.5645 21.8619 14.6033 21.8365 14.6237C21.8239 14.6338 21.8085 14.6385 21.7918 14.6407C21.7753 14.6429 21.7563 14.6429 21.7358 14.6429H21.7347C21.7089 14.6429 21.686 14.6429 21.6667 14.6407C21.6472 14.6386 21.63 14.634 21.616 14.624C21.5875 14.6037 21.5773 14.5644 21.5773 14.4971V14.4946L21.5784 14.4925C21.5855 14.4771 21.5804 14.4663 21.5709 14.4462C21.5699 14.4442 21.5689 14.442 21.5679 14.4398C21.5598 14.4225 21.5515 14.4015 21.552 14.3727C21.5519 14.3722 21.5518 14.3718 21.5517 14.3713C21.5494 14.36 21.5514 14.3478 21.5574 14.335L21.5778 14.342C21.5754 14.3523 21.5742 14.3615 21.5738 14.37C21.5754 14.3746 21.5784 14.3788 21.5829 14.3827C21.5942 14.3925 21.6139 14.3992 21.6367 14.4019C21.6592 14.4046 21.6828 14.4032 21.7003 14.3986C21.7092 14.3964 21.7157 14.3935 21.7199 14.3905ZM21.8858 14.3974C21.8854 14.3978 21.885 14.3982 21.8847 14.3985C21.8704 14.413 21.8479 14.4205 21.8259 14.4235C21.8036 14.4264 21.7798 14.425 21.7611 14.4196C21.7518 14.4169 21.743 14.4131 21.7364 14.4077C21.7359 14.4072 21.7353 14.4068 21.7348 14.4063C21.7341 14.4069 21.7334 14.4075 21.7327 14.408C21.7255 14.4133 21.716 14.417 21.7058 14.4197C21.6852 14.425 21.6589 14.4264 21.6342 14.4235C21.6141 14.4211 21.5936 14.4156 21.578 14.406C21.5806 14.4151 21.5841 14.4231 21.5876 14.4306C21.5886 14.4328 21.5896 14.435 21.5907 14.4372C21.5996 14.4554 21.6092 14.4753 21.5991 14.4993C21.5993 14.5653 21.6101 14.5931 21.6286 14.6063C21.6383 14.6132 21.6512 14.6171 21.6692 14.6191C21.6871 14.6212 21.7088 14.6212 21.7352 14.6212C21.7564 14.6212 21.774 14.6212 21.7889 14.6192C21.8036 14.6172 21.8146 14.6134 21.8229 14.6067C21.8395 14.5933 21.8503 14.5646 21.8503 14.4971C21.8503 14.4832 21.8552 14.4714 21.8608 14.461C21.8629 14.4571 21.8652 14.453 21.8675 14.4492C21.8682 14.448 21.8689 14.4469 21.8695 14.4457C21.8724 14.4407 21.8752 14.4358 21.8776 14.4306C21.8822 14.4208 21.8855 14.4102 21.8858 14.3974Z" fill="black"/>
<path d="M21.6299 14.3624L21.4199 14.2949L21.6299 14.3624ZM21.6299 14.3624H21.4199H21.6299ZM21.6299 14.3849L21.4409 14.4524L21.6299 14.3849ZM21.7979 14.3624L22.0079 14.2949L21.7979 14.3624ZM21.7979 14.3624H22.0499H21.7979ZM21.7979 14.3849L22.0079 14.4524L21.7979 14.3849Z" fill="black"/>
<path fill-rule="evenodd" clip-rule="evenodd" d="M21.4236 14.2842L21.6336 14.3517L21.6303 14.362V14.3729H21.4203V14.3512H21.561L21.417 14.3049L21.4236 14.2842ZM21.8676 14.3512L22.0116 14.3049L22.005 14.2842L21.795 14.3517L21.7983 14.362V14.3729H22.0503V14.3512H21.8676ZM22.005 14.4624L21.795 14.3949L21.8016 14.3742L22.0116 14.4417L22.005 14.4624ZM21.4377 14.4418L21.6267 14.3743L21.634 14.3948L21.445 14.4623L21.4377 14.4418Z" fill="black"/>
<path d="M19.9504 13.7998H20.1004H19.9504ZM19.9504 13.9498H19.6504H19.9504ZM19.9504 14.2498H19.6504H19.8004H19.9504ZM19.9504 15.1498C19.9504 14.9998 19.8004 15.1498 19.8004 15.1498H19.9504ZM19.9504 15.1498C19.9504 15.1498 19.8004 15.4498 19.9504 15.4498V15.2998V15.1498ZM22.5004 15.5998C22.5004 15.5998 22.2004 15.7498 22.3504 15.8998V15.5998H22.5004ZM22.5004 15.7498V16.0498V15.8998V15.7498ZM22.5004 15.4498L22.3504 15.5998H22.5004V15.4498ZM24.1504 15.7498V15.8998V15.7498ZM24.1504 15.5998C24.0004 15.5998 24.1504 15.5998 24.1504 15.5998V15.5998ZM24.1504 15.8998V16.0498H24.3004V15.8998H24.1504ZM21.1504 14.6998V15.1498V14.6998Z" fill="#0051BA"/>
</g>
<defs>
<clipPath id="clip0_200_80471">
<rect width="60" height="45" fill="white" transform="translate(-7.5)"/>
</clipPath>
</defs>
</svg>
