<svg width="45" height="45" viewBox="0 0 45 45" fill="none" xmlns="http://www.w3.org/2000/svg">
<g clip-path="url(#clip0_200_65805)">
<path d="M-7.5 0H52.5V45H-7.5V0Z" fill="white"/>
<path d="M-7.5 0H52.5V13.5H-7.5V0Z" fill="black"/>
<path d="M-7.5 31.5H52.5V45H-7.5V31.5Z" fill="#006600"/>
<path d="M14.4561 35.8594L14.9623 36.1406L28.0967 13.3594C28.8561 13.1906 29.2779 12.4594 29.6998 11.7281C29.9811 11.2219 31.1061 9.28125 31.5842 6.75C30.2499 7.93572 29.1192 9.33241 28.2373 10.8844C27.8154 11.6156 27.3936 12.3469 27.5904 13.1062L14.4561 35.8594Z" fill="black"/>
<path fill-rule="evenodd" clip-rule="evenodd" d="M31.7988 6.37109L31.7223 6.77609C31.2595 9.22597 30.197 11.1266 29.8618 11.7262C29.8474 11.752 29.8343 11.7755 29.8226 11.7964L29.8221 11.7974L29.8178 11.8049C29.6095 12.1659 29.3931 12.5409 29.1315 12.8462C28.8793 13.1403 28.5777 13.3789 28.1883 13.4818L15.0149 36.3308L14.2627 35.9129L27.4405 13.0846C27.3523 12.6886 27.4164 12.3048 27.5495 11.9369C27.6873 11.5561 27.9034 11.1815 28.1119 10.8201L28.1149 10.8149C28.115 10.8148 28.1151 10.8146 28.1152 10.8145C29.0046 9.2493 30.145 7.84072 31.4907 6.64488L31.7988 6.37109ZM31.3592 7.14565C30.1742 8.25655 29.1628 9.54023 28.3595 10.9538L28.359 10.9546C28.1467 11.3227 27.9426 11.6773 27.814 12.0326C27.6863 12.3854 27.6375 12.7277 27.7265 13.071L27.7409 13.1267L14.6492 35.8059L14.9095 35.9505L28.0057 13.2355L28.0661 13.2221C28.4062 13.1465 28.6769 12.9444 28.9179 12.6632C29.1607 12.3799 29.3651 12.0267 29.5773 11.6589C29.5887 11.6384 29.6015 11.6155 29.6155 11.5905C29.9284 11.0306 30.8705 9.34492 31.3592 7.14565Z" fill="black"/>
<path d="M14.4561 35.8594L14.9623 36.1406L28.0967 13.3594C28.8561 13.1906 29.2779 12.4594 29.6998 11.7281C29.9811 11.2219 31.1061 9.28125 31.5842 6.75C30.2499 7.93572 29.1192 9.33241 28.2373 10.8844C27.8154 11.6156 27.3936 12.3469 27.5904 13.1062L14.4561 35.8594Z" fill="white"/>
<path d="M52.5471 15.75H27.8439C27.0002 13.5 24.1877 9 22.5002 9C20.8127 9 18.0002 13.5 17.1564 15.75H-7.51855V29.25H17.1564C18.0002 31.5 20.8127 36 22.5002 36C24.1877 36 27.0002 31.5 27.8439 29.25H52.5471V15.75Z" fill="#BB0000"/>
<path d="M27.8438 29.25C28.6875 27 29.25 24.75 29.25 22.5C29.25 20.25 28.6875 18 27.8438 15.75C27 18 26.4375 20.25 26.4375 22.5C26.4375 24.75 27 27 27.8438 29.25Z" fill="black"/>
<path d="M22.5 24.1875C23.1213 24.1875 23.625 23.432 23.625 22.5C23.625 21.568 23.1213 20.8125 22.5 20.8125C21.8787 20.8125 21.375 21.568 21.375 22.5C21.375 23.432 21.8787 24.1875 22.5 24.1875Z" fill="white"/>
<path d="M22.7812 24.1309C22.7812 24.1309 23.9062 26.3809 23.9062 30.0371C23.9062 33.6934 22.7812 35.9434 22.7812 35.9434V24.1309Z" fill="white"/>
</g>
<defs>
<clipPath id="clip0_200_65805">
<rect width="60" height="45" fill="white" transform="translate(-7.5)"/>
</clipPath>
</defs>
</svg>
