<svg width="45" height="45" viewBox="0 0 45 45" fill="none" xmlns="http://www.w3.org/2000/svg">
<g clip-path="url(#clip0_200_65836)">
<path fill-rule="evenodd" clip-rule="evenodd" d="M-11.2871 0H56.2832V45H-11.2871V0Z" fill="#FF0000"/>
<path fill-rule="evenodd" clip-rule="evenodd" d="M9.23535 22.9482C10.4307 21.4893 12.918 22.9131 14.9482 21.8672C12.54 21.999 11.2305 20.707 9.33203 20.8916C11.3008 19.6787 12.9795 21.2871 15.1768 20.6455C12.2676 20.3994 12.3906 19.0898 9.73633 18.9053C12.0918 17.9033 13.252 19.9424 15.5635 19.4766C12.8389 18.8525 12.4873 17.2529 10.4658 16.9102C13.4189 16.4707 13.2256 18.2109 16.1172 18.4219C13.1816 17.165 13.9463 16.0664 11.4941 15.1084C14.2451 15.0469 14.0605 16.9541 16.8555 17.4463C14.4648 15.9346 14.7549 14.5547 12.7949 13.4736C15.124 13.5176 15.3438 15.8994 17.7256 16.6377C15.6074 14.959 16.1611 13.5352 14.333 12.0322C16.6533 12.5771 16.3105 14.6338 18.7275 15.9521C16.9346 13.9658 17.6201 12.542 16.0645 10.916C18.2969 11.6279 17.4443 13.5879 19.7559 15.4512C18.4375 13.2627 19.2549 11.8652 17.9453 10.0283C20.0195 11.0918 19.0176 13.0957 20.9336 15.082C20.0283 12.8408 20.9336 11.4521 20.0107 9.46582C21.7861 10.7842 20.7314 12.9199 22.1641 14.959C21.6367 12.1465 22.8496 11.6895 22.4717 9.22852C23.8164 10.8809 22.3135 12.5332 23.3506 14.9678C23.2188 12.1992 24.6953 11.5576 24.4404 9.34277C25.7676 11.3291 23.6934 13.0605 24.5635 15.1875C24.7832 12.5684 26.5059 11.8828 26.5322 9.84375C27.5869 11.7158 25.3018 13.0693 25.6709 15.5566C26.418 12.8145 28.2549 12.4805 28.4834 10.6348C29.1074 12.7969 26.6025 13.7988 26.752 16.207C27.499 13.7725 29.793 13.4824 30.2676 11.6895C30.5576 13.9746 28.2988 14.3877 27.6572 16.9189C28.8438 14.8535 30.9268 14.6865 31.8584 13.0518C31.7881 15.3193 29.2393 15.6182 28.457 17.7363C29.9248 15.9346 31.7705 16.2422 33.2383 14.6514C33.0801 16.6992 30.4873 16.585 29.1074 18.7031C30.6982 17.2354 33.0977 17.6748 34.3193 16.4092C34.2578 18.2197 31.0762 18.0791 29.5732 19.7051C31.4189 18.6855 33.7744 19.2832 35.1279 18.3428C34.8818 19.9248 31.5244 19.5557 29.916 20.8037C32.1309 20.1885 33.8447 21.1289 35.6289 20.4521C34.7588 21.9902 31.709 21.0147 30.0918 22.0166C32.0254 21.6914 34.0645 22.8604 35.8135 22.4824C35.2422 23.8184 31.8936 22.3945 30.1006 23.2295C32.2451 23.2119 33.6426 24.5918 35.6377 24.4951C34.5566 25.708 31.6211 24.0469 29.9072 24.3281C31.999 24.7676 33.5986 26.4902 35.1807 26.5781C33.8711 27.5713 31.4453 25.3037 29.4678 25.585C31.5068 26.1299 33.2119 28.4414 34.3721 28.4941C33.1152 29.3555 30.6367 26.5166 28.9404 26.6221C31.0059 27.5537 31.9463 29.918 33.3086 30.252C31.6299 30.7881 29.9775 27.6856 28.1758 27.5713C30.2676 28.8897 30.3818 30.9111 31.9902 31.8076C30.2939 32.2207 29.0898 28.7139 27.3057 28.415C29.0195 29.6719 29.2832 32.3701 30.417 33.2139C28.6943 33.3018 28.0703 29.6367 26.3037 29.1094C27.8154 30.375 27.4551 33.1172 28.6328 34.2949C26.8398 33.917 27.0684 30.7266 25.1963 29.6455C26.541 31.3506 25.8555 33.7676 26.7344 35.1299C24.9854 34.4268 25.7412 31.5615 24.0801 29.9443C24.9854 31.7549 24.0098 33.8643 24.7305 35.6133C23.1309 34.8311 24.2031 31.4473 22.9814 30.1025C23.5439 32.1943 22.5068 33.9258 22.9287 35.7979C21.2939 33.9082 23.1748 32.001 21.7598 30.0762C22.1289 32.2822 20.582 33.8291 20.8281 35.6748C19.5361 34.1631 21.5312 31.7461 20.5205 29.8389C20.7314 32.0098 18.7363 33.917 18.877 35.2881C17.8223 33.5303 20.0459 31.4561 19.4482 29.4609C19.3252 31.5352 17.3037 32.6602 16.9258 34.5498C16.249 32.4668 18.6484 30.9639 18.4375 28.916C17.752 30.8584 15.8008 31.6406 15.1152 33.5303C14.5527 31.4473 17.4004 30.3486 17.4707 28.1689C16.5918 30.208 14.2627 30.665 13.4893 32.2295C13.1992 30.1641 16.46 29.2412 16.583 27.2812C15.5283 29.1621 12.9795 29.2412 12.1006 30.7354C11.9688 28.6787 15.4053 28.4238 15.9414 26.2705C14.8955 27.8701 12.1006 27.668 10.9316 28.9688C11.1162 27.0615 14.834 26.9473 15.4316 25.2246C14.043 26.5605 11.4766 26.0156 10.0264 27.0703C10.835 25.1895 14.3242 25.585 15.1064 24.2314C13.5684 25.0313 10.835 24.249 9.48145 25.0576C10.7119 23.2822 13.4189 24.3457 14.957 23.124C12.4609 23.4844 10.958 22.4912 9.22656 22.9482H9.23535Z" fill="#FFFF00"/>
<path fill-rule="evenodd" clip-rule="evenodd" d="M31.252 22.5088C31.252 24.8223 30.3329 27.0411 28.697 28.677C27.0611 30.3129 24.8423 31.2319 22.5288 31.2319C20.2153 31.2319 17.9965 30.3129 16.3606 28.677C14.7247 27.0411 13.8057 24.8223 13.8057 22.5088C13.8057 20.1964 14.7242 17.9788 16.3593 16.3437C17.9944 14.7086 20.2121 13.79 22.5244 13.79C24.8368 13.79 27.0544 14.7086 28.6895 16.3437C30.3246 17.9788 31.2432 20.1964 31.2432 22.5088H31.252Z" fill="#FFFF00"/>
<path fill-rule="evenodd" clip-rule="evenodd" d="M30.127 22.5264C30.127 24.538 29.3278 26.4673 27.9054 27.8897C26.4829 29.3122 24.5536 30.1113 22.542 30.1113C20.5303 30.1113 18.6011 29.3122 17.1786 27.8897C15.7562 26.4673 14.957 24.538 14.957 22.5264C14.957 20.5147 15.7562 18.5854 17.1786 17.163C18.6011 15.7405 20.5303 14.9414 22.542 14.9414C24.5536 14.9414 26.4829 15.7405 27.9054 17.163C29.3278 18.5854 30.127 20.5147 30.127 22.5264Z" fill="#FF0000"/>
<path fill-rule="evenodd" clip-rule="evenodd" d="M29.0723 22.5439C29.0723 24.2712 28.3861 25.9277 27.1647 27.1491C25.9434 28.3705 24.2868 29.0566 22.5596 29.0566C20.8323 29.0566 19.1758 28.3705 17.9544 27.1491C16.733 25.9277 16.0469 24.2712 16.0469 22.5439C16.0469 20.8167 16.733 19.1601 17.9544 17.9388C19.1758 16.7174 20.8323 16.0313 22.5596 16.0312C24.2868 16.0313 25.9434 16.7174 27.1647 17.9388C28.3861 19.1601 29.0723 20.8167 29.0723 22.5439Z" fill="#FFFF00"/>
<path fill-rule="evenodd" clip-rule="evenodd" d="M17.0137 18.2813C18.8154 18.2373 21.0566 18.4043 22.542 19.582C24.1288 18.5917 25.9971 18.1501 27.8594 18.3252L28.8262 20.0918C27.3239 19.9547 25.8115 20.2028 24.4316 20.8125C25.4178 21.5398 26.2106 22.4978 26.7408 23.6025C27.2709 24.7072 27.5222 25.9251 27.4727 27.1494C27.2354 27.4482 26.8574 27.7734 26.6201 28.0723C26.9717 25.5674 25.6533 22.7725 23.7285 21.3047C25.293 23.5547 26.2158 25.5762 25.9609 28.3711L25.082 28.9336C25.4863 26.4727 24.9062 23.5723 23.0869 21.9023C24.1416 23.4404 25.1787 26.209 24.5283 29.0215C24.2471 29.1094 23.8076 29.3467 23.5264 29.4258C23.8709 28.2719 23.9645 27.0576 23.8008 25.8645C23.637 24.6714 23.2198 23.5272 22.5771 22.5088C21.3643 24.249 20.9687 26.9033 21.6543 29.3643C21.3203 29.2764 21.0654 29.1709 20.7227 29.0918C20.2217 26.4551 20.916 23.4668 22.1201 21.9111C20.8896 22.623 19.7383 25.6641 20.0635 28.7666L19.2461 28.3887C18.8506 26.0771 19.8965 23.0625 21.3994 21.3223C19.6943 22.3945 18.3057 25.04 18.543 27.8789C18.2793 27.6504 18.042 27.5361 17.7783 27.2988C17.4795 24.8203 18.9209 22.3242 20.5996 20.8301C19.1846 20.1885 17.9629 20.0654 16.2051 20.0918C16.4775 19.5205 16.7324 18.8525 17.0137 18.2725V18.2813Z" fill="#FF0000"/>
</g>
<defs>
<clipPath id="clip0_200_65836">
<rect width="60" height="45" fill="white" transform="translate(-7.5)"/>
</clipPath>
</defs>
</svg>
