<svg width="45" height="45" viewBox="0 0 45 45" fill="none" xmlns="http://www.w3.org/2000/svg">
<g clip-path="url(#clip0_200_65358)">
<path d="M-7.5 0H52.5V45H-7.5V0Z" fill="#032EA1"/>
<path d="M-7.5 11.25H52.5V33.75H-7.5V11.25Z" fill="#E00025"/>
<path d="M16.1621 21.207H28.9646V26.1345H16.1621V21.207Z" fill="white"/>
<path fill-rule="evenodd" clip-rule="evenodd" d="M16.1055 21.2066L16.1617 21.1504H28.9642L29.0205 21.2066V26.1341L28.9642 26.1904H16.1617L16.1055 26.1341V21.2066ZM16.218 21.2629V26.0779H28.908V21.2629H16.218Z" fill="black"/>
<path d="M28.3121 23.9175H28.7059V25.7737H28.3121V23.9175ZM16.1621 23.0063H28.9646V23.5688H16.1621V23.0063ZM16.1621 22.2188H28.9646V22.7362H16.1621V22.2188Z" fill="white"/>
<path fill-rule="evenodd" clip-rule="evenodd" d="M16.1055 22.2193L16.1617 22.1631H28.9642L29.0205 22.2193V22.7368L28.9642 22.7931H16.1617L16.1055 22.7368V22.2193ZM16.218 22.2756V22.6806H28.908V22.2756H16.218ZM16.1055 23.0068L16.1617 22.9506H28.9642L29.0205 23.0068V23.5693L28.9642 23.6256H16.1617L16.1055 23.5693V23.0068ZM16.218 23.0631V23.5131H28.908V23.0631H16.218ZM28.2555 23.9181L28.3117 23.8618H28.7055L28.7617 23.9181V25.7743L28.7055 25.8306H28.3117L28.2555 25.7743V23.9181ZM28.368 23.9743V25.7181H28.6492V23.9743H28.368Z" fill="black"/>
<path d="M16.1621 21.4541H28.9646V21.9379H16.1621V21.4541Z" fill="white"/>
<path fill-rule="evenodd" clip-rule="evenodd" d="M16.1113 21.4539L16.162 21.4033H28.9645L29.0151 21.4539V21.9377L28.9645 21.9883H16.162L16.1113 21.9377V21.4539ZM16.2126 21.5046V21.8871H28.9138V21.5046H16.2126Z" fill="black"/>
<path d="M19.5369 23.918H19.9419V25.7742H19.5369V23.918ZM25.0494 23.918H25.4544V25.7742H25.0494V23.918ZM16.2744 23.918H16.6682V25.7742H16.2744V23.918ZM17.0619 23.918H17.4557V25.7742H17.0619V23.918ZM17.9057 23.918H18.2994V25.7742H17.9057V23.918ZM18.7494 23.918H19.1432V25.7742H18.7494V23.918ZM25.8144 23.918H26.2194V25.7742H25.8144V23.918ZM26.6582 23.918H27.0632V25.7742H26.6582V23.918ZM27.5019 23.918H27.9069V25.7742H27.5019V23.918Z" fill="white"/>
<path fill-rule="evenodd" clip-rule="evenodd" d="M16.2188 23.9176L16.275 23.8613H16.6688L16.725 23.9176V25.7738L16.6688 25.8301H16.275L16.2188 25.7738V23.9176ZM16.3313 23.9738V25.7176H16.6125V23.9738H16.3313ZM17.0063 23.9176L17.0625 23.8613H17.4563L17.5125 23.9176V25.7738L17.4563 25.8301H17.0625L17.0063 25.7738V23.9176ZM17.1188 23.9738V25.7176H17.4V23.9738H17.1188ZM17.85 23.9176L17.9063 23.8613H18.3L18.3563 23.9176V25.7738L18.3 25.8301H17.9063L17.85 25.7738V23.9176ZM17.9625 23.9738V25.7176H18.2438V23.9738H17.9625ZM18.6938 23.9176L18.75 23.8613H19.1438L19.2 23.9176V25.7738L19.1438 25.8301H18.75L18.6938 25.7738V23.9176ZM18.8063 23.9738V25.7176H19.0875V23.9738H18.8063ZM19.4812 23.9176L19.5375 23.8613H19.9425L19.9988 23.9176V25.7738L19.9425 25.8301H19.5375L19.4812 25.7738V23.9176ZM19.5938 23.9738V25.7176H19.8863V23.9738H19.5938ZM24.9937 23.9176L25.05 23.8613H25.455L25.5113 23.9176V25.7738L25.455 25.8301H25.05L24.9937 25.7738V23.9176ZM25.1063 23.9738V25.7176H25.3988V23.9738H25.1063ZM25.7588 23.9176L25.815 23.8613H26.22L26.2762 23.9176V25.7738L26.22 25.8301H25.815L25.7588 25.7738V23.9176ZM25.8713 23.9738V25.7176H26.1637V23.9738H25.8713ZM26.6025 23.9176L26.6588 23.8613H27.0637L27.12 23.9176V25.7738L27.0637 25.8301H26.6588L26.6025 25.7738V23.9176ZM26.715 23.9738V25.7176H27.0075V23.9738H26.715ZM27.4463 23.9176L27.5025 23.8613H27.9075L27.9637 23.9176V25.7738L27.9075 25.8301H27.5025L27.4463 25.7738V23.9176ZM27.5588 23.9738V25.7176H27.8512V23.9738H27.5588Z" fill="black"/>
<path d="M11.1562 26.3814C11.3915 26.2533 11.5687 26.0399 11.6513 25.7852H33.375C33.4576 26.0399 33.6348 26.2533 33.87 26.3814H11.1562Z" fill="white"/>
<path fill-rule="evenodd" clip-rule="evenodd" d="M11.6099 25.7295H33.4154L33.4281 25.7684C33.5062 26.0095 33.6739 26.2114 33.8964 26.3326L33.8696 26.4382H11.1558L11.1289 26.3326C11.3515 26.2114 11.5191 26.0095 11.5973 25.7684L11.6099 25.7295ZM11.6909 25.842C11.621 26.0331 11.4998 26.2002 11.3421 26.3257H33.6833C33.5255 26.2002 33.4044 26.0331 33.3345 25.842H11.6909Z" fill="black"/>
<path d="M22.2369 13.703C22.2369 13.703 22.2257 13.2417 22.4957 13.2305C22.7544 13.2305 22.7432 13.703 22.7432 13.703H22.2369ZM20.8307 19.8342V19.2155C20.8307 18.9005 20.5157 18.878 20.5157 18.653C20.5157 18.653 20.4707 18.3155 20.5607 18.158C20.6844 18.608 20.8982 18.5292 20.8982 18.338C20.8982 18.1805 20.7857 18.023 20.5269 17.6292C20.4369 17.5055 20.4932 17.1117 20.6057 16.9655C20.6507 17.303 20.7069 17.4717 20.8532 17.4717C20.9432 17.4717 21.0107 17.4155 21.0107 17.2467C21.0107 17.0217 20.8644 16.9092 20.7857 16.7067C20.7469 16.6059 20.7379 16.4961 20.7599 16.3904C20.7818 16.2847 20.8337 16.1875 20.9094 16.1105C20.9657 16.448 20.9544 16.583 21.1007 16.583C21.4044 16.4817 21.1007 16.043 21.0332 15.9305C20.9657 15.8067 21.1457 15.548 21.1457 15.548C21.2357 15.8517 21.2582 15.8742 21.3707 15.8405C21.5057 15.8067 21.4832 15.6155 21.3257 15.458C21.2244 15.3455 21.2357 15.1992 21.3482 15.0867C21.4607 15.3005 21.5957 15.2892 21.6069 15.1542L21.5169 14.6592H23.4744L23.3732 15.143C23.3507 15.278 23.5307 15.3117 23.6432 15.0867C23.7557 15.1992 23.7669 15.3567 23.6657 15.458C23.5082 15.6155 23.4857 15.8067 23.6207 15.8405C23.7332 15.8742 23.7557 15.8405 23.8457 15.548C23.8457 15.548 24.0144 15.7167 23.9582 15.9305C23.8907 16.043 23.5869 16.493 23.8907 16.583C24.0369 16.583 24.0257 16.448 24.0819 16.1105C24.1557 16.1887 24.2055 16.2865 24.2255 16.3921C24.2454 16.4978 24.2346 16.607 24.1944 16.7067C24.1269 16.9092 23.9694 17.0217 23.9694 17.2467C23.9694 17.4155 24.0482 17.4717 24.1382 17.4717C24.2844 17.4717 24.3407 17.3142 24.3857 16.9655C24.4982 17.1117 24.5544 17.5055 24.4644 17.6405C24.2057 18.023 24.0819 18.1805 24.0819 18.338C24.0819 18.5292 24.3069 18.608 24.4194 18.158C24.5207 18.3155 24.4757 18.653 24.4757 18.653C24.4757 18.878 24.1719 18.9005 24.1607 19.2155V19.8342H20.8307ZM21.6407 14.6592L21.5957 14.3105H23.3844L23.3394 14.6592H21.6407ZM21.7532 14.2992L21.7307 14.018H23.2494L23.2157 14.2992H21.7532ZM22.0119 14.0067L21.9782 13.7142H22.9907L22.9794 14.0067H22.0119ZM25.7244 26.3817C25.4994 26.303 25.1619 26.0555 25.1619 25.8192V23.0855L25.4544 22.703H19.5369L19.8182 23.0855V25.8192C19.8182 26.0555 19.5932 26.303 19.3682 26.3817H25.7244Z" fill="white"/>
<path d="M20.5723 23.918H20.9773V25.7742H20.5723V23.918ZM23.9923 23.918H24.3973V25.7742H23.9923V23.918Z" fill="white"/>
<path fill-rule="evenodd" clip-rule="evenodd" d="M20.5156 23.9176L20.5719 23.8613H20.9769L21.0331 23.9176V25.7738L20.9769 25.8301H20.5719L20.5156 25.7738V23.9176ZM20.6281 23.9738V25.7176H20.9206V23.9738H20.6281ZM23.9356 23.9176L23.9919 23.8613H24.3969L24.4531 23.9176V25.7738L24.3969 25.8301H23.9919L23.9356 25.7738V23.9176ZM24.0481 23.9738V25.7176H24.3406V23.9738H24.0481Z" fill="black"/>
<path d="M19.4243 19.5977V22.7027H25.4993V19.5977C25.4291 19.6233 25.366 19.6652 25.3152 19.72C25.2643 19.7747 25.2272 19.8408 25.2068 19.9127V21.2402H19.7281V19.9127C19.7281 19.9127 19.6606 19.6877 19.4131 19.5977H19.4243Z" fill="white"/>
<path fill-rule="evenodd" clip-rule="evenodd" d="M25.5557 19.5176V22.7593H19.3682V19.598H19.4033L19.4132 19.5418H19.4807V19.5651C19.5903 19.6162 19.6631 19.6915 19.7094 19.7567C19.7357 19.7939 19.7536 19.8281 19.765 19.8532C19.7707 19.8658 19.7748 19.8762 19.7776 19.8837C19.7789 19.8875 19.78 19.8905 19.7807 19.8927L19.7816 19.8954L19.7819 19.8963L19.782 19.8966L19.782 19.8967C19.782 19.8968 19.782 19.8968 19.7282 19.913L19.782 19.8968L19.7844 19.9047V21.1843H25.1507V19.9052L25.1528 19.8977C25.1756 19.8172 25.2171 19.7433 25.274 19.682C25.3309 19.6208 25.4016 19.5739 25.4801 19.5452L25.5557 19.5176ZM19.6719 19.9224C19.67 19.9172 19.6669 19.9094 19.6625 19.8997C19.6535 19.8798 19.6391 19.8521 19.6176 19.8218C19.5872 19.7789 19.5431 19.7312 19.4807 19.6927V22.6468H25.4432V19.6874C25.4113 19.7071 25.3821 19.731 25.3565 19.7586C25.3134 19.805 25.2815 19.8606 25.2632 19.9211V21.2968H19.6719V19.9224Z" fill="black"/>
<path d="M24.6671 26.382C24.4646 26.3032 24.0371 26.0557 24.0371 25.8195V22.7594C24.0821 22.5907 24.3071 22.4895 24.4534 22.377H20.4371C20.6284 22.4895 20.8421 22.5682 20.9209 22.7594V25.8195C20.9209 26.0557 20.5834 26.3032 20.3809 26.382H24.6671Z" fill="white"/>
<path fill-rule="evenodd" clip-rule="evenodd" d="M20.2305 22.3203H24.6187L24.4876 22.4211C24.4491 22.4507 24.4059 22.4793 24.3639 22.507L24.3629 22.5077C24.3205 22.5356 24.2792 22.5629 24.2411 22.5916C24.1654 22.6487 24.1124 22.7045 24.0933 22.7669V25.8191C24.0933 25.8612 24.1126 25.9092 24.152 25.9618C24.1911 26.0139 24.2466 26.0659 24.3103 26.1147C24.4379 26.2124 24.5907 26.2915 24.6874 26.3291L24.667 26.4378H20.3808L20.3604 26.3291C20.4547 26.2925 20.5838 26.2148 20.6886 26.118C20.7957 26.0191 20.8645 25.9124 20.8645 25.8191V22.7706C20.8304 22.6948 20.7695 22.6377 20.6901 22.5852C20.6486 22.5578 20.6034 22.5324 20.5554 22.5063C20.5457 22.5011 20.5359 22.4958 20.526 22.4904C20.4874 22.4696 20.4474 22.4479 20.4085 22.425L20.2305 22.3203ZM20.6551 22.4328C20.6881 22.4514 20.7209 22.4707 20.7521 22.4914C20.8437 22.5519 20.9273 22.6272 20.9728 22.7376L20.977 22.7479V25.8191C20.977 25.9619 20.8771 26.0971 20.7649 26.2007C20.715 26.2467 20.6602 26.2889 20.6052 26.3253H24.4249C24.3635 26.2898 24.3004 26.2488 24.2419 26.204C24.1734 26.1516 24.1094 26.0925 24.062 26.0293C24.0149 25.9665 23.9808 25.895 23.9808 25.8191V22.7517L23.9827 22.7446C24.0103 22.6409 24.0913 22.5637 24.1733 22.5018C24.2053 22.4777 24.2391 22.4547 24.2721 22.4328H20.6551Z" fill="black"/>
<path d="M25.2073 22.4109V20.2059H24.656V19.9922H20.291V20.2172H19.7285V22.4109H25.2073ZM23.8123 26.3822C23.6098 26.3034 23.3285 26.0559 23.3285 25.8197V23.2097L23.486 22.9734H21.4948L21.6635 23.1984V25.8197C21.6635 26.0559 21.371 26.3034 21.1798 26.3822H23.8123Z" fill="white"/>
<path fill-rule="evenodd" clip-rule="evenodd" d="M20.2344 19.9355H24.7119V20.1493H25.2631V22.4668H19.6719V20.1605H20.2344V19.9355ZM20.3469 20.048V20.273H19.7844V22.3543H25.1506V20.2618H24.5994V20.048H20.3469ZM21.3819 22.9168H23.5907L23.3844 23.2263V25.8193C23.3844 25.9163 23.4433 26.024 23.535 26.121C23.6256 26.2169 23.7397 26.2934 23.8323 26.3294L23.8119 26.438H21.1794L21.158 26.3298C21.2456 26.2937 21.3601 26.2169 21.4524 26.1207C21.5459 26.0231 21.6069 25.9157 21.6069 25.8193V23.2168L21.3819 22.9168ZM21.6069 23.0293L21.7194 23.1793V25.8193C21.7194 25.9592 21.6341 26.0936 21.5336 26.1985C21.4886 26.2454 21.4387 26.2884 21.3881 26.3255H23.5983C23.5472 26.2883 23.4976 26.2452 23.4532 26.1982C23.3536 26.0928 23.2719 25.9585 23.2719 25.8193V23.1923L23.3805 23.0293H21.6069Z" fill="black"/>
<path d="M21.9785 22.9727H22.991V26.3814H21.9785V22.9727Z" fill="white"/>
<path fill-rule="evenodd" clip-rule="evenodd" d="M21.9219 22.917H23.0469V26.4382H21.9219V22.917ZM22.0344 23.0295V26.3257H22.9344V23.0295H22.0344Z" fill="black"/>
<path d="M23.52 22.2195C23.52 21.9945 24.1725 21.9832 24.51 21.792H20.46C20.7975 21.9832 21.4387 21.9945 21.4387 22.2195L21.5737 22.6582L23.2612 22.7257L23.52 22.2195Z" fill="white"/>
<path fill-rule="evenodd" clip-rule="evenodd" d="M20.4316 21.8405L20.4594 21.7354H24.5094L24.5371 21.8405C24.4469 21.8916 24.3378 21.9296 24.228 21.9615C24.1592 21.9814 24.0874 21.9996 24.0186 22.017C23.9784 22.0273 23.9392 22.0372 23.9023 22.047C23.7995 22.0745 23.7132 22.1016 23.6532 22.1338C23.5915 22.167 23.5756 22.1953 23.5756 22.2191L23.5695 22.2447L23.3107 22.751L23.2584 22.7816L21.5709 22.7141L21.5194 22.6744L21.3844 22.2356L21.3819 22.2191C21.3819 22.1949 21.366 22.1665 21.3057 22.1337C21.2468 22.1015 21.162 22.0744 21.0606 22.047C21.0238 22.037 20.9846 22.027 20.9443 22.0166C20.8769 21.9993 20.8064 21.9812 20.7389 21.9614C20.6301 21.9296 20.5217 21.8916 20.4316 21.8405ZM20.7516 21.8479C20.7578 21.8497 20.7641 21.8516 20.7705 21.8535C20.8368 21.8728 20.9033 21.8899 20.969 21.9068C21.0097 21.9172 21.0501 21.9276 21.09 21.9384C21.1911 21.9658 21.2877 21.9957 21.3596 22.0349C21.4276 22.072 21.4898 22.1268 21.4941 22.2099L21.6152 22.6032L23.2269 22.6677L23.4637 22.2043C23.4706 22.1239 23.5328 22.0708 23.6 22.0347C23.6729 21.9956 23.7708 21.9657 23.8733 21.9384C23.9131 21.9277 23.9535 21.9175 23.9942 21.9072C24.0613 21.8901 24.1292 21.8729 24.1967 21.8534C24.203 21.8516 24.2093 21.8497 24.2156 21.8479H20.7516Z" fill="black"/>
<path d="M24.307 19.8346C24.307 19.2834 24.3295 19.0809 24.4982 19.0809V20.8134C24.082 20.9709 23.7895 21.4884 23.7895 21.4884H21.1795C21.1795 21.4884 20.887 20.9709 20.4707 20.8134V19.0696C20.6732 19.0696 20.6732 19.2946 20.6732 19.8234L24.307 19.8346ZM24.4982 19.6096C24.4982 18.9796 25.0495 18.9121 25.0495 18.9121V19.4746C24.8357 19.4634 24.7345 19.6546 24.7345 19.9246C24.7345 20.2059 24.9032 20.2059 24.9032 20.2059V21.8034H24.4982V19.6096Z" fill="white"/>
<path fill-rule="evenodd" clip-rule="evenodd" d="M25.1063 18.8486V19.534L25.0471 19.5309C24.961 19.5263 24.901 19.5609 24.8596 19.6248C24.8158 19.6923 24.7913 19.7953 24.7913 19.9247C24.7913 20.0537 24.8295 20.106 24.8554 20.1276C24.8693 20.1391 24.8829 20.1447 24.8925 20.1473C24.8973 20.1487 24.901 20.1493 24.9032 20.1495C24.9039 20.1496 24.9044 20.1497 24.9047 20.1497H24.96V21.8597H24.4425V20.8997C24.2798 20.982 24.1381 21.1191 24.0314 21.2462C23.9705 21.3188 23.9221 21.3866 23.8891 21.4363C23.8726 21.4611 23.8599 21.4813 23.8515 21.4952C23.8472 21.5021 23.844 21.5075 23.842 21.511L23.8396 21.515L23.8391 21.5159L23.839 21.5161L23.8229 21.5447H21.1472L21.1311 21.5161L21.131 21.5159L21.1304 21.515L21.1281 21.511C21.126 21.5075 21.1229 21.5021 21.1186 21.4952C21.1102 21.4813 21.0975 21.4611 21.081 21.4363C21.048 21.3866 20.9996 21.3188 20.9387 21.2462C20.8157 21.0997 20.6461 20.9397 20.4514 20.8661L20.415 20.8523V19.0134H20.4713C20.5332 19.0134 20.5872 19.0312 20.6287 19.0739C20.6681 19.1145 20.69 19.1715 20.7036 19.2369C20.7284 19.3569 20.7299 19.534 20.73 19.7674L24.2514 19.7783C24.2522 19.5338 24.2586 19.3567 24.285 19.2388C24.2992 19.1751 24.3208 19.1211 24.3567 19.0827C24.3949 19.0419 24.4439 19.0247 24.4988 19.0247H24.555V19.1745C24.6083 19.0889 24.675 19.0252 24.7423 18.9785C24.8171 18.9266 24.8915 18.8963 24.9471 18.8789C24.975 18.8702 24.9984 18.8646 25.0151 18.8612C25.0235 18.8595 25.0302 18.8583 25.0349 18.8576C25.0373 18.8572 25.0392 18.8569 25.0406 18.8567L25.0423 18.8565L25.0429 18.8564L25.0431 18.8564C25.0431 18.8564 25.0432 18.8564 25.05 18.9122L25.0432 18.8564L25.1063 18.8486ZM24.9938 18.9823C24.9896 18.9835 24.9852 18.9849 24.9807 18.9863C24.933 19.0012 24.8696 19.0271 24.8065 19.0709C24.6827 19.1568 24.555 19.3145 24.555 19.6097V21.7472H24.8475V20.251C24.8282 20.244 24.8057 20.2326 24.7834 20.214C24.725 20.1653 24.6788 20.077 24.6788 19.9247C24.6788 19.7841 24.7049 19.6565 24.7652 19.5636C24.8177 19.4827 24.8949 19.4307 24.9938 19.42V18.9823ZM24.4425 19.1559C24.4412 19.1571 24.44 19.1583 24.4388 19.1596C24.423 19.1765 24.4073 19.2075 24.3948 19.2634C24.3697 19.3756 24.3638 19.5573 24.3638 19.8347V19.8911L20.6175 19.8795V19.8234C20.6175 19.556 20.6172 19.3749 20.5934 19.2597C20.5816 19.2027 20.5656 19.1704 20.548 19.1523C20.5422 19.1464 20.5356 19.1412 20.5275 19.1371V20.7755C20.733 20.8642 20.9045 21.0306 21.0248 21.1738C21.089 21.2503 21.1399 21.3217 21.1747 21.374C21.1904 21.3977 21.203 21.4175 21.212 21.4322H23.7581C23.7671 21.4175 23.7796 21.3977 23.7954 21.374C23.8302 21.3217 23.881 21.2503 23.9452 21.1738C24.0655 21.0306 24.2371 20.8642 24.4425 20.7755V19.1559Z" fill="black"/>
<path d="M20.4712 19.6096C20.4712 18.9796 19.9199 18.9121 19.9199 18.9121V19.4746C20.1337 19.4634 20.2349 19.6546 20.2349 19.9246C20.2349 20.2059 20.0662 20.2059 20.0662 20.2059V21.8034H20.4712V19.6096Z" fill="white"/>
<path fill-rule="evenodd" clip-rule="evenodd" d="M19.9264 18.8564L19.9195 18.9122C19.9264 18.8564 19.9263 18.8564 19.9264 18.8564L19.9265 18.8564L19.9267 18.8564L19.9273 18.8565L19.929 18.8567C19.9303 18.8569 19.9323 18.8572 19.9346 18.8576C19.9394 18.8583 19.9461 18.8595 19.9545 18.8612C19.9712 18.8646 19.9946 18.8702 20.0225 18.8789C20.0781 18.8963 20.1525 18.9266 20.2272 18.9785C20.379 19.0838 20.527 19.2749 20.527 19.6097V21.8597H20.0095V20.1497H20.0648C20.0651 20.1497 20.0657 20.1496 20.0664 20.1495C20.0685 20.1493 20.0723 20.1487 20.0771 20.1473C20.0867 20.1447 20.1003 20.1391 20.1141 20.1276C20.1401 20.106 20.1783 20.0537 20.1783 19.9247C20.1783 19.7953 20.1538 19.6923 20.11 19.6248C20.0685 19.5609 20.0086 19.5263 19.9225 19.5309L19.8633 19.534V18.8486L19.9264 18.8564ZM20.122 20.251V21.7472H20.4145V19.6097C20.4145 19.3145 20.2869 19.1568 20.1631 19.0709C20.1 19.0271 20.0366 19.0012 19.9889 18.9863C19.9844 18.9849 19.98 18.9835 19.9758 18.9823V19.42C20.0747 19.4307 20.1518 19.4827 20.2044 19.5636C20.2647 19.6565 20.2908 19.7841 20.2908 19.9247C20.2908 20.077 20.2446 20.1653 20.1862 20.214C20.1639 20.2326 20.1414 20.244 20.122 20.251Z" fill="black"/>
<path fill-rule="evenodd" clip-rule="evenodd" d="M23.4754 15.3009H21.5404V15.2109H23.4754V15.3009ZM23.6779 15.9084H21.3154V15.8184H23.6779V15.9084ZM23.8916 16.6397H21.0904V16.5497H23.8916V16.6397ZM24.1729 17.5284H20.8541V17.4384H24.1729V17.5284ZM24.1954 18.5409H20.7754V18.4509H24.1954V18.5409Z" fill="black"/>
<path fill-rule="evenodd" clip-rule="evenodd" d="M21.4165 21.882H19.7402V21.7695H25.2077V21.882H23.554V22.6245H21.4165V21.882ZM21.529 21.882V22.512H23.4415V21.882H21.529Z" fill="black"/>
<path d="M21.2246 20.1605C21.5621 20.5655 21.5171 21.2518 21.5171 21.6568H23.4746C23.4746 21.2518 23.4296 20.5655 23.7671 20.1605H21.2246ZM22.3159 15.548L22.0459 15.4018V15.008C22.1584 15.0418 22.2709 15.053 22.2934 15.233C22.3271 14.9743 22.4059 14.9968 22.5071 14.8955C22.6196 14.9968 22.6759 14.9743 22.7209 15.233C22.7209 15.053 22.8559 15.0418 22.9571 15.008V15.4018L22.6984 15.5368L22.3159 15.548Z" fill="white"/>
<path fill-rule="evenodd" clip-rule="evenodd" d="M22.505 14.8184L22.5447 14.8541C22.5675 14.8745 22.5874 14.8893 22.6073 14.904C22.6099 14.9059 22.6125 14.9078 22.6151 14.9098C22.6371 14.9261 22.6606 14.9441 22.682 14.969C22.7011 14.9912 22.717 15.0173 22.7308 15.0505C22.7432 15.038 22.7568 15.0275 22.7708 15.0186C22.8 15 22.8318 14.988 22.8603 14.9789C22.8735 14.9747 22.8868 14.9708 22.899 14.9672L22.9022 14.9663C22.9156 14.9624 22.9278 14.9588 22.9393 14.955L23.0133 14.9303V15.4362L22.7129 15.593L22.3024 15.605L21.9896 15.4356V14.9328L22.062 14.9545C22.0713 14.9573 22.0822 14.9603 22.0936 14.9635C22.1112 14.9685 22.1301 14.9738 22.1461 14.9789C22.1749 14.9882 22.2056 15.0003 22.2342 15.019C22.2503 15.0295 22.2649 15.0417 22.2781 15.0559C22.2932 15.0193 22.3116 14.9911 22.3337 14.9673C22.3554 14.9439 22.3792 14.9265 22.4 14.9114C22.4008 14.9107 22.4017 14.9101 22.4026 14.9095C22.4246 14.8934 22.4454 14.878 22.4673 14.8561L22.505 14.8184ZM22.5084 14.9703C22.4942 14.9819 22.4808 14.9916 22.4689 15.0004C22.4459 15.0171 22.4301 15.0288 22.4161 15.0438C22.391 15.0709 22.3653 15.1164 22.3491 15.2406L22.2375 15.2403C22.2279 15.1637 22.2013 15.132 22.1725 15.1131C22.156 15.1023 22.1361 15.0939 22.1115 15.086C22.1083 15.085 22.1052 15.084 22.1021 15.083V15.3686L22.3293 15.4917L22.6838 15.4813L22.9008 15.368V15.0841C22.8988 15.0847 22.8967 15.0854 22.8946 15.086C22.8694 15.0941 22.8484 15.1026 22.8312 15.1135C22.8147 15.124 22.8021 15.1365 22.7932 15.1533C22.7842 15.1704 22.7771 15.1954 22.7771 15.2334L22.6654 15.243C22.6434 15.1162 22.6201 15.0697 22.5966 15.0422C22.5842 15.0277 22.5697 15.0161 22.5481 15.0001C22.5457 14.9983 22.5432 14.9965 22.5406 14.9946C22.5309 14.9874 22.5201 14.9794 22.5084 14.9703ZM21.1045 20.1046H23.8872L23.8103 20.1969C23.6519 20.3869 23.5806 20.6467 23.5502 20.9153C23.5258 21.1299 23.528 21.3437 23.5299 21.5258C23.5304 21.5718 23.5308 21.6157 23.5308 21.6571V21.7134H21.4608V21.6571C21.4608 21.6157 21.4613 21.5718 21.4618 21.5258C21.4636 21.3437 21.4658 21.1299 21.4415 20.9153C21.411 20.6467 21.3397 20.3869 21.1814 20.1969L21.1045 20.1046ZM21.3358 20.2171C21.4667 20.4181 21.5262 20.6637 21.5533 20.9027C21.5785 21.1249 21.5762 21.3477 21.5743 21.5302C21.574 21.5545 21.5738 21.5781 21.5736 21.6009H23.4181C23.4179 21.5781 23.4177 21.5545 23.4174 21.5302C23.4155 21.3477 23.4132 21.1249 23.4384 20.9027C23.4655 20.6637 23.525 20.4181 23.6559 20.2171H21.3358Z" fill="black"/>
<path d="M22.2937 16.1891L21.8438 15.8741V15.5254C22.0125 15.5591 22.1812 15.5816 22.2037 15.7729C22.2487 15.4916 22.35 15.3566 22.5075 15.2441C22.6537 15.3566 22.755 15.4916 22.8113 15.7729C22.8225 15.5816 23.0025 15.5591 23.1488 15.5254V15.8854L22.71 16.1891H22.2937Z" fill="white"/>
<path fill-rule="evenodd" clip-rule="evenodd" d="M22.5083 15.1738L22.5414 15.1993C22.6185 15.2585 22.6857 15.3253 22.7408 15.4156C22.773 15.4685 22.8006 15.5286 22.8238 15.5986C22.8471 15.5738 22.8744 15.5548 22.903 15.5399C22.9642 15.5079 23.0389 15.4916 23.1014 15.4779C23.1133 15.4753 23.1248 15.4728 23.1357 15.4703L23.2046 15.4544V15.9146L22.7272 16.2451H22.2756L21.7871 15.9031V15.4565L21.8544 15.4699C21.8633 15.4717 21.8724 15.4735 21.8816 15.4753C21.9553 15.4897 22.0373 15.5057 22.1038 15.5397C22.1332 15.5547 22.161 15.5738 22.1849 15.5987C22.2061 15.5288 22.2326 15.4687 22.265 15.4156C22.3206 15.3245 22.3914 15.2574 22.4744 15.1981L22.5083 15.1738ZM22.3611 15.4742C22.3152 15.5493 22.2806 15.6459 22.2589 15.7815L22.1475 15.7792C22.1428 15.7397 22.1311 15.7119 22.116 15.6912C22.1007 15.6704 22.0798 15.6537 22.0526 15.6399C22.0105 15.6183 21.9591 15.6058 21.8996 15.5936V15.8446L22.3111 16.1326H22.692L23.0921 15.8556V15.5953C23.0409 15.607 22.9944 15.6191 22.955 15.6396C22.9284 15.6535 22.9081 15.67 22.8938 15.6903C22.8798 15.7103 22.8693 15.7372 22.867 15.7759L22.7557 15.7836C22.7285 15.6476 22.6911 15.5502 22.6447 15.4742C22.6061 15.411 22.5603 15.3608 22.5059 15.315C22.4472 15.361 22.3995 15.4112 22.3611 15.4742Z" fill="black"/>
<path d="M22.2601 17.1909L21.7539 16.7409V16.2121C21.9339 16.2571 22.1364 16.2796 22.1589 16.5609C22.2151 16.1671 22.3276 15.9534 22.4964 15.7959C22.6764 15.9534 22.7889 16.1671 22.8564 16.5609C22.8789 16.2796 23.0814 16.2571 23.2614 16.2121V16.7409L22.7439 17.1909H22.2601ZM23.2051 17.7871L22.7551 18.4284H22.2264L21.7651 17.7871H23.2051ZM21.4951 18.8559C21.7201 18.9796 21.8101 19.2384 21.8326 19.7109H23.1376C23.1601 19.2384 23.2501 18.9796 23.4751 18.8559H21.4951Z" fill="white"/>
<path fill-rule="evenodd" clip-rule="evenodd" d="M22.4949 15.7197L22.5332 15.7532C22.6904 15.8908 22.7969 16.0673 22.8681 16.3448C22.8958 16.3049 22.9305 16.2739 22.9702 16.2496C23.0418 16.2058 23.1292 16.1853 23.2049 16.1674C23.2196 16.164 23.2339 16.1606 23.2475 16.1572L23.3174 16.1397V16.7662L22.7647 17.2468H22.2385L21.6974 16.7658V16.1397L21.7673 16.1572C21.7809 16.1606 21.7952 16.164 21.8099 16.1674C21.8856 16.1853 21.973 16.2058 22.0445 16.2496C22.0824 16.2727 22.1157 16.302 22.1427 16.3392C22.2076 16.0652 22.3117 15.8907 22.4578 15.7544L22.4949 15.7197ZM22.4974 15.8734C22.3606 16.0166 22.2649 16.2145 22.2143 16.5685L22.1026 16.565C22.0926 16.4408 22.0451 16.3818 21.9859 16.3456C21.9361 16.3151 21.8769 16.2994 21.8099 16.2832V16.7153L22.2813 17.1343H22.7226L23.2049 16.7149V16.2832C23.1378 16.2994 23.0787 16.3151 23.0289 16.3456C22.9696 16.3818 22.9221 16.4408 22.9122 16.565L22.8007 16.57C22.7397 16.2142 22.6428 16.0165 22.4974 15.8734ZM21.6551 17.7305H23.3131L22.7841 18.4843H22.1973L21.6551 17.7305ZM21.8746 17.843L22.255 18.3718H22.7256L23.0967 17.843H21.8746ZM21.4678 18.9048L21.4949 18.7993H23.4749L23.502 18.9048C23.306 19.0126 23.216 19.2411 23.1936 19.7132L23.191 19.7668H21.7787L21.7762 19.7132C21.7537 19.2411 21.6638 19.0126 21.4678 18.9048ZM21.6588 18.9118C21.8029 19.0649 21.8646 19.3074 21.8857 19.6543H23.0841C23.1051 19.3074 23.1669 19.0649 23.3109 18.9118H21.6588Z" fill="black"/>
<path d="M23.4977 17.7755V17.1455C23.4008 17.1662 23.3108 17.2111 23.236 17.276C23.1612 17.3409 23.1042 17.4238 23.0702 17.5168C23.0702 17.2918 22.7889 16.808 22.4852 16.5605C22.1814 16.8305 21.8889 17.2805 21.9002 17.5055C21.8439 17.3368 21.6977 17.2018 21.4727 17.1455V17.7868L23.4977 17.7755Z" fill="white"/>
<path fill-rule="evenodd" clip-rule="evenodd" d="M22.4474 16.5182L22.5203 16.5166C22.6785 16.6455 22.8288 16.8339 22.9394 17.0178C22.9948 17.11 23.0411 17.2022 23.0736 17.2867C23.0815 17.3074 23.0887 17.3278 23.0951 17.3478C23.1248 17.3058 23.1595 17.2672 23.1987 17.2332C23.2807 17.162 23.3794 17.1128 23.4855 17.0902L23.5535 17.1452V17.7752L23.4976 17.8315L21.4726 17.8427L21.416 17.7865V17.1452L21.4859 17.0906C21.6561 17.1332 21.7876 17.2191 21.8724 17.3328C21.878 17.3154 21.8844 17.2978 21.8913 17.2801C21.9235 17.1979 21.9703 17.1089 22.0265 17.0196C22.1388 16.8412 22.2912 16.657 22.4474 16.5182ZM22.4861 16.6352C22.3511 16.762 22.2202 16.9231 22.1218 17.0795C22.0682 17.1646 22.0251 17.2472 21.9961 17.3211C21.9667 17.396 21.9537 17.4577 21.9559 17.5024L21.8464 17.523C21.8029 17.3925 21.697 17.2811 21.5285 17.2209V17.7299L23.441 17.7193V17.2195C23.3794 17.2416 23.3222 17.275 23.2725 17.3181C23.2049 17.3768 23.1533 17.4517 23.1226 17.5358L23.0135 17.5165C23.0135 17.4703 22.9987 17.4053 22.9686 17.3271C22.9389 17.2499 22.8958 17.1636 22.843 17.0758C22.746 16.9146 22.6186 16.7524 22.4861 16.6352Z" fill="black"/>
<path d="M23.5868 18.8556V18.2256C23.3506 18.2931 23.1931 18.4169 23.1256 18.5969C23.1256 18.3719 22.8218 17.8881 22.4843 17.6406C22.1468 17.9219 21.8318 18.3606 21.8431 18.5969C21.7868 18.4281 21.6181 18.2931 21.3818 18.2256V18.8669L23.5868 18.8556Z" fill="white"/>
<path fill-rule="evenodd" clip-rule="evenodd" d="M22.4489 17.5969L22.5182 17.5947C22.6936 17.7234 22.8583 17.9117 22.9791 18.0958C23.0397 18.1881 23.09 18.2804 23.1253 18.3651C23.1351 18.3885 23.1438 18.4116 23.1514 18.4342C23.2444 18.3103 23.3884 18.2235 23.572 18.171L23.6437 18.2251V18.8551L23.5877 18.9113L21.3827 18.9226L21.3262 18.8663V18.2251L21.3979 18.171C21.5755 18.2218 21.723 18.3109 21.8156 18.429C21.8226 18.4078 21.8308 18.3864 21.8398 18.3649C21.8749 18.2818 21.9259 18.1926 21.9871 18.1033C22.1096 17.9246 22.2762 17.7408 22.4489 17.5969ZM22.4869 17.7123C22.3343 17.8449 22.1885 18.0085 22.0799 18.1669C22.0216 18.2519 21.9748 18.3343 21.9435 18.4087C21.9118 18.4839 21.8976 18.5466 21.8999 18.5937L21.7903 18.6141C21.7474 18.4853 21.6246 18.3716 21.4387 18.3026V18.8098L23.5312 18.7991V18.3024C23.3478 18.3694 23.2316 18.4755 23.1788 18.6161L23.0699 18.5963C23.0699 18.5509 23.0541 18.4866 23.0215 18.4085C22.9894 18.3315 22.9427 18.2452 22.8851 18.1575C22.778 17.9944 22.6362 17.8301 22.4869 17.7123Z" fill="black"/>
<path d="M23.8568 20.1721V19.4296C23.6226 19.5027 23.4202 19.6535 23.2831 19.8571C23.2831 19.4633 22.8331 18.8446 22.4843 18.6533C22.1243 18.8558 21.6856 19.4858 21.6856 19.8571C21.545 19.6521 21.3386 19.5013 21.1006 19.4296V20.1721H23.8568Z" fill="white"/>
<path fill-rule="evenodd" clip-rule="evenodd" d="M22.4573 18.6038L22.512 18.6035C22.697 18.705 22.9027 18.9153 23.0615 19.147C23.1855 19.328 23.2863 19.53 23.324 19.7121C23.4613 19.5551 23.6398 19.4381 23.8407 19.3754L23.9137 19.4291V20.1716L23.8574 20.2278H21.1012L21.0449 20.1716V19.4291L21.1174 19.3752C21.3227 19.4371 21.5056 19.5549 21.6463 19.7142C21.6839 19.5392 21.7821 19.3404 21.9039 19.16C22.0612 18.927 22.2668 18.711 22.4573 18.6038ZM22.4852 18.718C22.3226 18.8186 22.1412 19.0095 21.9972 19.2229C21.8442 19.4496 21.7424 19.6882 21.7424 19.8566L21.6398 19.8884C21.5209 19.7151 21.3525 19.5827 21.1574 19.5077V20.1153H23.8012V19.5087C23.6102 19.5846 23.4458 19.7166 23.3303 19.888L23.2274 19.8566C23.2274 19.677 23.1228 19.4355 22.9687 19.2106C22.8237 18.999 22.6428 18.8135 22.4852 18.718Z" fill="black"/>
<path d="M23.6995 21.8258V21.0608C23.4295 21.1621 23.362 21.4096 23.272 21.5896C23.3058 20.8133 22.8445 19.9921 22.4845 19.7783C22.1245 19.9921 21.652 20.8358 21.697 21.5783C21.607 21.4208 21.5283 21.1621 21.2695 21.0608V21.8146L23.6995 21.8258Z" fill="white"/>
<path fill-rule="evenodd" clip-rule="evenodd" d="M21.8887 20.4554C22.0481 20.121 22.2623 19.8448 22.4564 19.7295H22.5138C22.7079 19.8447 22.9193 20.1152 23.0773 20.4484C23.2039 20.7153 23.2993 21.0286 23.3242 21.3468C23.3936 21.2139 23.4937 21.0777 23.6804 21.0077L23.7564 21.0604V21.8254L23.6999 21.8816L21.2699 21.8704L21.2139 21.8141V21.0604L21.2906 21.008C21.4345 21.0643 21.5271 21.1643 21.5943 21.2673C21.612 21.2945 21.6281 21.322 21.6429 21.3492C21.6643 21.0381 21.7605 20.7244 21.8887 20.4554ZM21.9903 20.5038C21.8355 20.8284 21.732 21.2154 21.7538 21.5745L21.6488 21.6058C21.6306 21.5739 21.6127 21.5378 21.5947 21.5015C21.5894 21.491 21.5842 21.4805 21.579 21.47C21.5551 21.4225 21.5299 21.3745 21.5 21.3287C21.455 21.2597 21.4003 21.197 21.3264 21.1511V21.7581L23.6439 21.7688V21.1487C23.498 21.233 23.4344 21.3727 23.3703 21.5135C23.3549 21.5473 23.3395 21.5811 23.3229 21.6143L23.2164 21.5867C23.2328 21.2098 23.1289 20.8196 22.9757 20.4967C22.8304 20.1903 22.645 19.9532 22.4851 19.8445C22.3251 19.9537 22.137 20.1958 21.9903 20.5038Z" fill="black"/>
<path d="M23.5202 22.9725V22.2075C23.2389 22.275 23.2277 22.3763 23.1377 22.545C23.1714 22.0838 22.8452 21.555 22.4852 21.3525C22.1252 21.555 21.8102 22.0838 21.8327 22.545C21.7427 22.3763 21.7314 22.275 21.4502 22.2075V22.9725H23.5202Z" fill="white"/>
<path fill-rule="evenodd" clip-rule="evenodd" d="M22.4848 21.2881L22.5124 21.3036C22.7032 21.4109 22.8814 21.6021 23.0076 21.824C23.0977 21.9824 23.1629 22.1595 23.1864 22.3368C23.1951 22.3245 23.2045 22.3125 23.215 22.3008C23.2747 22.2342 23.3602 22.1881 23.5067 22.1529L23.5761 22.1363V23.0289H21.3936V22.1363L21.4629 22.1529C21.6094 22.1881 21.6949 22.2342 21.7546 22.3008C21.7663 22.3138 21.7767 22.3273 21.7861 22.341C21.8111 22.1626 21.8762 21.9841 21.9661 21.8243C22.0907 21.6025 22.2661 21.4111 22.4572 21.3036L22.4848 21.2881ZM22.0642 21.8794C21.947 22.0878 21.8779 22.3248 21.8885 22.5424L21.7827 22.5716C21.771 22.5497 21.7607 22.5291 21.7512 22.51C21.7504 22.5083 21.7495 22.5066 21.7487 22.505C21.7401 22.4877 21.7323 22.4719 21.7244 22.457C21.7072 22.4244 21.691 22.3984 21.6709 22.376C21.6396 22.3411 21.5938 22.3094 21.5061 22.2815V22.9164H23.4636V22.2815C23.3758 22.3094 23.33 22.3411 23.2987 22.376C23.2786 22.3984 23.2624 22.4244 23.2452 22.457C23.2373 22.4719 23.2295 22.4876 23.2209 22.505C23.2201 22.5066 23.2193 22.5083 23.2184 22.51C23.2089 22.5291 23.1986 22.5497 23.1869 22.5716L23.0812 22.541C23.0971 22.3244 23.0283 22.088 22.9098 21.8796C22.7978 21.6826 22.6442 21.5159 22.4848 21.4179C22.3259 21.5158 22.175 21.6822 22.0642 21.8794Z" fill="black"/>
<path d="M11.663 25.7849V23.4899C11.5843 23.1974 11.3255 22.9274 11.1455 22.8824V20.8574L11.5618 21.0824L12.0455 23.2087V25.7962L11.663 25.7849Z" fill="white"/>
<path fill-rule="evenodd" clip-rule="evenodd" d="M11.0889 20.7637L11.6106 21.0457L12.1014 23.2029V25.8547L11.6064 25.8401V23.4981C11.5689 23.3643 11.4906 23.234 11.3997 23.1312C11.3059 23.0252 11.2055 22.9561 11.1315 22.9376L11.0889 22.9269V20.7637ZM11.2014 20.9524V22.8421C11.2958 22.8787 11.3969 22.9583 11.484 23.0567C11.5855 23.1715 11.6749 23.3196 11.7169 23.4759L11.7189 23.4831V25.7309L11.9889 25.7388V23.2156L11.5122 21.1204L11.2014 20.9524Z" fill="black"/>
<path d="M11.663 25.7964V23.4902C11.5843 23.1977 11.3255 22.9277 11.1455 22.8827V20.7227C11.4268 20.7227 11.5618 21.0827 11.5618 21.0827L12.0455 23.2089V25.7852L11.663 25.7964Z" fill="white"/>
<path fill-rule="evenodd" clip-rule="evenodd" d="M11.0889 20.667H11.1451C11.3117 20.667 11.4304 20.7737 11.5034 20.869C11.5405 20.9176 11.5679 20.9657 11.5861 21.0016C11.5952 21.0196 11.602 21.0348 11.6067 21.0455C11.609 21.0509 11.6108 21.0552 11.612 21.0583L11.6134 21.0619L11.6138 21.0629L11.614 21.0633L11.614 21.0634C11.614 21.0634 11.614 21.0635 11.5614 21.0832L11.614 21.0634L11.6154 21.0671L12.1014 23.2032V25.8404L11.6064 25.8549V23.4983C11.5689 23.3645 11.4906 23.2342 11.3997 23.1314C11.3059 23.0254 11.2055 22.9563 11.1315 22.9378L11.0889 22.9272V20.667ZM11.5075 21.0998C11.5066 21.0976 11.5052 21.0943 11.5034 21.09C11.4995 21.0811 11.4936 21.0681 11.4857 21.0524C11.4697 21.0208 11.4458 20.9789 11.414 20.9374C11.3603 20.8672 11.2894 20.8047 11.2014 20.7855V22.8423C11.2958 22.879 11.3969 22.9585 11.484 23.0569C11.5855 23.1717 11.6749 23.3199 11.7169 23.4761L11.7189 23.4833V25.7391L11.9889 25.7311V23.2158L11.5075 21.0998Z" fill="black"/>
<path d="M11.3584 26.3814C11.5496 26.3026 11.8309 26.0551 11.8309 25.8189V22.9389L11.6959 22.7139H16.6121L16.4209 22.9389V25.8189C16.4292 25.9381 16.4689 26.053 16.5361 26.1518C16.6033 26.2506 16.6956 26.3299 16.8034 26.3814H11.3584Z" fill="white"/>
<path fill-rule="evenodd" clip-rule="evenodd" d="M11.5975 22.6582H16.7347L16.4781 22.9601V25.8175C16.4859 25.9261 16.5223 26.0307 16.5835 26.1208C16.6451 26.2114 16.7297 26.284 16.8285 26.3312L16.8043 26.4382H11.3593L11.3379 26.3299C11.4251 26.294 11.5367 26.2175 11.6261 26.1214C11.7165 26.0242 11.7756 25.9166 11.7756 25.8195V22.955L11.5975 22.6582ZM11.7962 22.7707L11.8881 22.9239V25.8195C11.8881 25.9586 11.8064 26.0928 11.7085 26.1981C11.6646 26.2452 11.6157 26.2884 11.5659 26.3257H16.6166C16.5688 26.2843 16.5264 26.2368 16.4905 26.184C16.4177 26.077 16.3746 25.9525 16.3657 25.8233L16.3656 25.8214V22.9188L16.4914 22.7707H11.7962Z" fill="black"/>
<path d="M15.8029 26.3819C15.6116 26.3031 15.3304 26.0556 15.3304 25.8194V23.0856L15.7354 22.7031H12.4054L12.8104 23.0856V25.8194C12.8104 26.0556 12.5291 26.3031 12.3379 26.3819H15.8029Z" fill="white"/>
<path fill-rule="evenodd" clip-rule="evenodd" d="M12.2637 22.6465H15.8766L15.3864 23.1095V25.819C15.3864 25.9161 15.4454 26.0238 15.5359 26.121C15.6253 26.2171 15.7369 26.2936 15.8241 26.3295L15.8027 26.4377H12.3377L12.3162 26.3295C12.4034 26.2936 12.515 26.2171 12.6044 26.121C12.6949 26.0238 12.7539 25.9161 12.7539 25.819V23.1095L12.2637 22.6465ZM12.5466 22.759L12.8664 23.061V25.819C12.8664 25.9581 12.7848 26.0923 12.6868 26.1976C12.643 26.2447 12.5941 26.288 12.5442 26.3252H15.5961C15.5462 26.288 15.4973 26.2447 15.4535 26.1976C15.3555 26.0923 15.2739 25.9581 15.2739 25.819V23.061L15.5937 22.759H12.5466Z" fill="black"/>
<path d="M15.3413 26.3814C15.1501 26.3027 14.8576 26.0552 14.8576 25.8189V23.3439L15.1276 22.9727H13.0126L13.2826 23.3439V25.8189C13.2826 26.0552 13.0013 26.3027 12.7988 26.3814H15.3413Z" fill="white"/>
<path fill-rule="evenodd" clip-rule="evenodd" d="M12.902 22.917H15.2379L14.9137 23.3628V25.8195C14.9137 25.9158 14.9747 26.0233 15.0682 26.1209C15.1605 26.2171 15.275 26.2939 15.3626 26.33L15.3412 26.4382H12.7987L12.7783 26.3296C12.8709 26.2936 12.985 26.2171 13.0756 26.1212C13.1673 26.0241 13.2262 25.9165 13.2262 25.8195V23.3628L12.902 22.917ZM13.1229 23.0295L13.3387 23.3262V25.8195C13.3387 25.9587 13.257 26.093 13.1574 26.1984C13.113 26.2454 13.0634 26.2885 13.0123 26.3257H15.1325C15.0819 26.2886 15.0319 26.2456 14.987 26.1987C14.8864 26.0938 14.8012 25.9594 14.8012 25.8195V23.3262L15.017 23.0295H13.1229Z" fill="black"/>
<path d="M13.5747 22.9727H14.576V26.3927H13.5635L13.5747 22.9727Z" fill="white"/>
<path fill-rule="evenodd" clip-rule="evenodd" d="M13.5194 22.917H14.633V26.4495H13.5078L13.5194 22.917ZM13.6316 23.0295L13.6207 26.337H14.5205V23.0295H13.6316Z" fill="black"/>
<path d="M12.1915 23.9182H12.5965V25.7744H12.1915V23.9182ZM15.6565 23.9182H16.0503V25.7744H15.6453L15.6565 23.9182ZM11.8428 20.7907H12.3378V22.7032H11.8428V20.7907ZM11.8428 20.4307H12.3265V20.7907H11.8428V20.4307ZM15.8478 21.2069H16.534V22.6694H15.8478V21.2069Z" fill="white"/>
<path fill-rule="evenodd" clip-rule="evenodd" d="M11.7861 20.4303L11.8424 20.374H12.3261L12.3824 20.4303V20.779L12.3936 20.7903V22.7028L12.3374 22.759H11.8424L11.7861 22.7028V20.4303ZM11.8986 20.8465V22.6465H12.2811V20.8465H11.8986ZM12.2699 20.734H11.8986V20.4865H12.2699V20.734ZM15.7911 21.2065L15.8474 21.1503H16.5336L16.5899 21.2065V22.669L16.5336 22.7253H15.8474L15.7911 22.669V21.2065ZM15.9036 21.2628V22.6128H16.4774V21.2628H15.9036ZM12.1349 23.9178L12.1911 23.8615H12.5961L12.6524 23.9178V25.774L12.5961 25.8303H12.1911L12.1349 25.774V23.9178ZM12.2474 23.974V25.7178H12.5399V23.974H12.2474ZM15.5999 23.9174L15.6561 23.8615H16.0499L16.1061 23.9178V25.774L16.0499 25.8303H15.6449L15.5886 25.7737L15.5999 23.9174ZM15.712 23.974L15.7015 25.7178H15.9936V23.974H15.712Z" fill="black"/>
<path d="M12.3261 22.6807V19.4182C12.4611 19.4182 12.4836 19.9019 12.7986 19.9019C12.9673 19.9019 12.9561 19.6994 12.8548 19.5419C12.7761 19.3957 12.6748 19.2044 12.8098 18.8332C12.9111 19.1144 13.1586 19.2044 13.1136 19.0357C13.0348 18.7319 12.7986 18.6757 12.9786 18.2144C13.0348 18.5969 13.2823 18.5857 13.2261 18.3607C13.1586 18.1019 13.0123 17.9894 13.1923 17.6294C13.2936 18.0457 13.4173 18.0232 13.4173 17.7644C13.4173 17.3819 13.4173 16.9769 13.8898 16.8307C13.8898 16.8307 13.9236 16.4932 14.1036 16.4932C14.2723 16.4932 14.3061 16.8307 14.3061 16.8307C14.7898 16.9769 14.7786 17.3932 14.7786 17.7644C14.7786 18.0232 14.9023 18.0457 15.0036 17.6294C15.1836 17.9894 15.0373 18.1019 14.9698 18.3607C14.9136 18.5857 15.1611 18.5969 15.2173 18.2144C15.3973 18.6757 15.1611 18.7319 15.0823 19.0357C15.0373 19.2044 15.2848 19.1144 15.3861 18.8332C15.5211 19.2044 15.4198 19.3957 15.3411 19.5419C15.2511 19.6994 15.2286 19.9019 15.3973 19.9019C15.7123 19.9019 15.7348 19.4294 15.8698 19.4294V22.6807H12.3261ZM11.5498 20.2169V22.7032H11.8311V20.2169C11.7298 20.1607 11.6398 20.1607 11.5498 20.2169Z" fill="white"/>
<path fill-rule="evenodd" clip-rule="evenodd" d="M13.9464 16.8359L13.9427 16.873L13.907 16.884C13.6881 16.9518 13.5833 17.0763 13.53 17.2273C13.4747 17.3838 13.4741 17.5704 13.4741 17.764C13.4741 17.8317 13.4663 17.8902 13.449 17.9321C13.4404 17.9528 13.4274 17.9749 13.4067 17.9901C13.3833 18.0073 13.3544 18.0123 13.3261 18.0032C13.3011 17.9951 13.2811 17.9776 13.2656 17.9592C13.2495 17.9401 13.2345 17.9157 13.2203 17.887C13.2081 17.8623 13.196 17.8331 13.1841 17.7995C13.1569 17.8909 13.1588 17.9593 13.172 18.0209C13.1821 18.0686 13.1994 18.1141 13.22 18.1671L13.222 18.1723C13.2418 18.2232 13.2638 18.28 13.2811 18.3461L13.2812 18.3466C13.2972 18.4106 13.2947 18.4708 13.2677 18.5153C13.2539 18.5382 13.2337 18.5563 13.2081 18.5662C13.1827 18.576 13.1557 18.5762 13.1303 18.5692C13.0806 18.5557 13.036 18.5155 13.0015 18.4593C12.9933 18.4459 12.9854 18.4312 12.978 18.4154C12.9727 18.4448 12.9701 18.4714 12.9695 18.4957C12.9678 18.5613 12.9808 18.6131 13.0014 18.6618C13.0171 18.699 13.0363 18.7326 13.058 18.7707C13.0662 18.7852 13.0748 18.8003 13.0838 18.8165C13.1152 18.8736 13.1472 18.9387 13.1685 19.021C13.1811 19.0683 13.1819 19.1313 13.1285 19.1628C13.1049 19.1768 13.0788 19.1783 13.0567 19.1752C13.0344 19.1721 13.0119 19.1637 12.9907 19.1525C12.9348 19.1228 12.8736 19.0658 12.8229 18.986C12.7965 19.0985 12.7962 19.1883 12.8083 19.2625C12.8247 19.3639 12.8649 19.4405 12.9039 19.513C12.9581 19.5979 12.9914 19.6993 12.9846 19.7851C12.9811 19.8291 12.9665 19.8733 12.9335 19.9069C12.8997 19.9412 12.8531 19.9578 12.7991 19.9578C12.6058 19.9578 12.5074 19.8066 12.4453 19.6853C12.432 19.6592 12.4196 19.633 12.4082 19.6089C12.4059 19.6041 12.4037 19.5995 12.4016 19.5949C12.3951 19.5812 12.3889 19.5683 12.3829 19.5563V22.624H15.8141V19.5649C15.8081 19.5767 15.8018 19.5895 15.7952 19.6031C15.7931 19.6075 15.7909 19.6121 15.7886 19.6167C15.7772 19.6403 15.7648 19.6659 15.7515 19.6914C15.6891 19.8105 15.5906 19.9578 15.3979 19.9578C15.344 19.9578 15.2975 19.9412 15.2643 19.906C15.2321 19.8719 15.2192 19.8273 15.2166 19.784C15.2115 19.6989 15.2446 19.5981 15.2924 19.5142C15.3317 19.4414 15.3722 19.3645 15.3888 19.2625C15.4008 19.1883 15.4005 19.0985 15.3742 18.986C15.3235 19.0658 15.2622 19.1228 15.2063 19.1525C15.1851 19.1637 15.1627 19.1721 15.1403 19.1752C15.1183 19.1783 15.0922 19.1768 15.0685 19.1628C15.0151 19.1313 15.0159 19.0683 15.0285 19.021C15.0499 18.9386 15.0818 18.8736 15.1133 18.8165C15.1222 18.8003 15.1308 18.7852 15.139 18.7707C15.1607 18.7326 15.1799 18.699 15.1956 18.6618C15.2162 18.6131 15.2293 18.5613 15.2276 18.4957C15.2269 18.4714 15.2243 18.4448 15.219 18.4154C15.2116 18.4312 15.2038 18.4459 15.1955 18.4593C15.161 18.5155 15.1164 18.5557 15.0668 18.5692C15.0413 18.5762 15.0143 18.576 14.9889 18.5662C14.9634 18.5564 14.9432 18.5382 14.9293 18.5153C14.9024 18.4708 14.8998 18.4106 14.9158 18.3466L14.916 18.3461C14.9332 18.28 14.9553 18.2232 14.975 18.1723L14.977 18.1671C14.9976 18.1141 15.0149 18.0686 15.0251 18.0209C15.0382 17.9593 15.0401 17.8909 15.013 17.7995C15.001 17.8331 14.9889 17.8623 14.9767 17.887C14.9626 17.9157 14.9475 17.9401 14.9315 17.9592C14.9159 17.9776 14.896 17.9951 14.8709 18.0032C14.8426 18.0123 14.8137 18.0073 14.7903 17.9901C14.7696 17.9749 14.7566 17.9528 14.7481 17.9321C14.7308 17.8902 14.7229 17.8317 14.7229 17.764C14.7229 17.757 14.7229 17.75 14.7229 17.743C14.723 17.5615 14.723 17.3831 14.6711 17.231C14.6191 17.0789 14.5144 16.9519 14.2904 16.8841L14.2544 16.8732L14.2507 16.8359L14.2506 16.8353L14.2503 16.833C14.2501 16.8309 14.2497 16.8276 14.2491 16.8233C14.248 16.8148 14.2461 16.8025 14.2434 16.7877C14.2379 16.7578 14.2291 16.7186 14.2156 16.6801C14.2019 16.6409 14.1846 16.6061 14.1641 16.5819C14.1443 16.5587 14.125 16.549 14.1041 16.549C14.0791 16.549 14.0574 16.56 14.0366 16.5831C14.0149 16.6073 13.9969 16.642 13.9826 16.6809C13.9685 16.7192 13.9594 16.7582 13.9537 16.788C13.951 16.8028 13.9491 16.815 13.9479 16.8235C13.9473 16.8277 13.9469 16.8309 13.9467 16.8331L13.9464 16.8354L13.9464 16.8359ZM14.3575 16.7876C14.3565 16.7815 14.3554 16.7747 14.3541 16.7674C14.3479 16.734 14.3378 16.6888 14.3218 16.6429C14.3059 16.5977 14.2831 16.5482 14.2498 16.5091C14.2158 16.4691 14.1676 16.4365 14.1041 16.4365C14.0392 16.4365 13.9892 16.4677 13.953 16.5079C13.9177 16.547 13.8936 16.5967 13.877 16.6422C13.8601 16.6882 13.8495 16.7336 13.8432 16.7671C13.8418 16.7746 13.8406 16.7815 13.8395 16.7878C13.6082 16.869 13.4858 17.0146 13.4239 17.1898C13.3616 17.3663 13.3616 17.5713 13.3616 17.7586V17.764C13.3616 17.8194 13.3555 17.8584 13.3477 17.8818C13.3401 17.8719 13.3311 17.8574 13.3212 17.8372C13.2979 17.7899 13.2723 17.7176 13.2475 17.6157L13.2113 17.4665L13.1426 17.6039C13.0481 17.7928 13.0362 17.9239 13.0619 18.0444C13.0743 18.1022 13.0949 18.1558 13.1151 18.2078L13.1165 18.2115C13.1366 18.2631 13.1566 18.3146 13.1721 18.3742C13.1842 18.4225 13.1769 18.4481 13.1715 18.457C13.1703 18.459 13.1692 18.4601 13.1687 18.4606C13.1684 18.4608 13.1683 18.4609 13.1681 18.461C13.1679 18.4612 13.1677 18.4612 13.1676 18.4613C13.1675 18.4613 13.1654 18.4622 13.1599 18.4607C13.1477 18.4574 13.1233 18.4427 13.0974 18.4004C13.0721 18.3592 13.048 18.2959 13.0348 18.2058L13.0039 17.9958L12.9267 18.1936C12.8802 18.3129 12.8591 18.4095 12.857 18.4928C12.8548 18.5769 12.872 18.6446 12.8978 18.7056C12.9163 18.7494 12.9402 18.7914 12.963 18.8313C12.9706 18.8447 12.9781 18.8579 12.9852 18.8708C13.0146 18.9241 13.0417 18.9799 13.0597 19.0494L13.0598 19.0498C13.061 19.0543 13.0618 19.0582 13.0624 19.0614C13.0573 19.0597 13.0509 19.057 13.0435 19.0531C12.9892 19.0243 12.9102 18.9438 12.8633 18.8137L12.8107 18.6675L12.7575 18.8136C12.6873 19.0067 12.6772 19.1571 12.6972 19.2806C12.7172 19.4033 12.7664 19.495 12.8059 19.5682L12.8069 19.5701L12.8081 19.5719C12.8545 19.6441 12.8768 19.7219 12.8724 19.7761C12.8703 19.8024 12.8624 19.8187 12.8533 19.828C12.8449 19.8365 12.8296 19.8453 12.7991 19.8453C12.6775 19.8453 12.6071 19.7546 12.5455 19.634C12.533 19.6096 12.5215 19.5853 12.5101 19.5612C12.5078 19.5564 12.5055 19.5515 12.5032 19.5467C12.4898 19.5185 12.4761 19.4902 12.4619 19.4654C12.4479 19.441 12.4314 19.4164 12.4112 19.3975C12.3903 19.3779 12.3621 19.3615 12.3266 19.3615H12.2704V22.7365H15.9266V19.3728H15.8704C15.8354 19.3728 15.8074 19.3886 15.7863 19.4078C15.766 19.4263 15.7494 19.4505 15.7354 19.4744C15.7211 19.4987 15.7074 19.5264 15.694 19.554C15.6917 19.5587 15.6895 19.5634 15.6872 19.5681C15.6758 19.5917 15.6643 19.6154 15.6518 19.6392C15.5904 19.7563 15.5202 19.8453 15.3979 19.8453C15.3674 19.8453 15.3534 19.8365 15.3462 19.8288C15.3379 19.8201 15.3305 19.8042 15.3289 19.7772C15.3256 19.7219 15.3485 19.6429 15.3905 19.5694L15.3908 19.5688L15.3912 19.5682C15.4306 19.495 15.4799 19.4033 15.4998 19.2806C15.5199 19.1571 15.5097 19.0067 15.4395 18.8136L15.3864 18.6675L15.3337 18.8137C15.2869 18.9438 15.2078 19.0243 15.1536 19.0531C15.1461 19.057 15.1398 19.0597 15.1346 19.0614C15.1352 19.0582 15.136 19.0543 15.1372 19.0498L15.1373 19.0494C15.1553 18.9799 15.1824 18.9241 15.2118 18.8708C15.2189 18.8579 15.2264 18.8447 15.234 18.8313C15.2568 18.7914 15.2807 18.7494 15.2992 18.7056C15.325 18.6446 15.3422 18.5769 15.34 18.4928C15.3379 18.4095 15.3169 18.3129 15.2703 18.1936L15.1931 17.9958L15.1622 18.2058C15.149 18.2959 15.125 18.3592 15.0996 18.4004C15.0737 18.4427 15.0493 18.4574 15.0372 18.4607C15.0317 18.4622 15.0295 18.4613 15.0294 18.4613C15.0293 18.4612 15.0292 18.4612 15.0291 18.4611C15.0289 18.461 15.0287 18.4609 15.0284 18.4606C15.0278 18.4601 15.0268 18.459 15.0255 18.457C15.0201 18.4481 15.0129 18.4225 15.0249 18.3742C15.0404 18.3146 15.0604 18.2631 15.0805 18.2115L15.0819 18.2078C15.1021 18.1558 15.1228 18.1022 15.1351 18.0444C15.1608 17.9239 15.1489 17.7928 15.0545 17.6039L14.9858 17.4665L14.9495 17.6157C14.9247 17.7176 14.8992 17.7899 14.8758 17.8372C14.8659 17.8574 14.8569 17.8719 14.8493 17.8818C14.8415 17.8584 14.8354 17.8194 14.8354 17.764C14.8354 17.7548 14.8354 17.7456 14.8354 17.7363C14.8356 17.5607 14.8358 17.365 14.7775 17.1946C14.7171 17.0176 14.5944 16.869 14.3575 16.7876ZM15.1341 19.0755C15.134 19.0755 15.1338 19.075 15.1336 19.0737C15.1341 19.0747 15.1342 19.0754 15.1341 19.0755ZM13.0629 19.0755C13.0629 19.0754 13.0629 19.0747 13.0634 19.0737C13.0633 19.075 13.063 19.0755 13.0629 19.0755ZM13.0759 19.0641C13.0761 19.0641 13.0761 19.064 13.0761 19.0641L13.0759 19.0641ZM11.6868 20.1181C11.745 20.1181 11.8022 20.1358 11.859 20.1674L11.8879 20.1834V22.759H11.4941V20.1854L11.5206 20.1688C11.5731 20.136 11.6282 20.1181 11.6868 20.1181ZM11.6066 20.2497V22.6465H11.7754V20.2512C11.7429 20.2369 11.7137 20.2306 11.6868 20.2306C11.6607 20.2306 11.6343 20.2365 11.6066 20.2497Z" fill="black"/>
<path d="M11.5723 21.8249C11.921 22.0049 12.2698 22.2187 12.3598 22.7024H11.5723V21.8249ZM16.4323 21.0824V22.7024H16.6573V21.0824C16.5898 21.0487 16.4885 21.0374 16.4323 21.0824Z" fill="white"/>
<path fill-rule="evenodd" clip-rule="evenodd" d="M16.5431 20.9973C16.5921 20.9989 16.6422 21.0123 16.683 21.0327L16.7141 21.0482V22.7592H16.3766V21.056L16.3977 21.0391C16.4402 21.0051 16.4948 20.9956 16.5431 20.9973ZM16.4891 21.1159V22.6467H16.6016V21.1208C16.5817 21.1144 16.5601 21.1104 16.5392 21.1097C16.519 21.109 16.5023 21.1114 16.4891 21.1159ZM11.5166 21.7332L11.5987 21.7755C11.9484 21.9561 12.3204 22.1806 12.4157 22.6927L12.428 22.7592H11.5166V21.7332ZM11.6291 21.9187V22.6467H12.2905C12.1962 22.2717 11.9276 22.0794 11.6291 21.9187Z" fill="black"/>
<path d="M16.6581 21.825C16.3093 21.9938 15.9606 22.1963 15.8706 22.6913H16.6581V21.825ZM14.3406 18.0338L14.5431 17.865V17.64C14.4756 17.64 14.4306 17.6738 14.3743 17.7525C14.3525 17.6803 14.3163 17.6132 14.268 17.5552C14.2197 17.4972 14.1602 17.4495 14.0931 17.415C14.025 17.4471 13.964 17.4925 13.9138 17.5485C13.8635 17.6046 13.825 17.6701 13.8006 17.7413C13.7443 17.6625 13.7106 17.6513 13.6318 17.6288V17.8538L13.8343 18.0338H14.3406Z" fill="white"/>
<path fill-rule="evenodd" clip-rule="evenodd" d="M14.0938 17.3525L14.1184 17.3652C14.1923 17.4032 14.2577 17.4556 14.3108 17.5194C14.3429 17.5579 14.3702 17.6001 14.392 17.6449C14.4017 17.6359 14.4118 17.6277 14.4223 17.6205C14.4589 17.5955 14.4982 17.584 14.5427 17.584H14.5989V17.8916L14.3606 18.0902H13.8126L13.5752 17.8792V17.5544L13.6469 17.5749C13.685 17.5858 13.7207 17.596 13.7536 17.6161C13.7641 17.6226 13.7741 17.6298 13.7836 17.6379C13.8075 17.5923 13.8369 17.5497 13.8715 17.5112C13.9268 17.4495 13.9938 17.3996 14.0687 17.3643L14.0938 17.3525ZM14.0916 17.4788C14.0404 17.5064 13.9942 17.5428 13.9553 17.5862C13.91 17.6367 13.8754 17.6957 13.8534 17.7597L13.8179 17.8631L13.7544 17.7742C13.7286 17.738 13.7113 17.7221 13.6949 17.7121C13.6926 17.7107 13.6902 17.7093 13.6877 17.708V17.8287L13.8553 17.9777H14.3198L14.4864 17.8389V17.713C14.4863 17.7131 14.4861 17.7132 14.4859 17.7134C14.4672 17.7261 14.4465 17.748 14.4197 17.7854L14.3532 17.8785L14.3201 17.769C14.3004 17.704 14.2679 17.6436 14.2244 17.5914C14.1869 17.5464 14.142 17.5083 14.0916 17.4788ZM16.7139 21.7355V22.7477H15.8028L15.8149 22.6814C15.9101 22.1573 16.2828 21.9441 16.6332 21.7746L16.7139 21.7355ZM15.9396 22.6352H16.6014V21.9157C16.3025 22.067 16.0336 22.2513 15.9396 22.6352Z" fill="black"/>
<path d="M14.4531 18.5852L14.5431 18.3715V18.0902C14.4756 18.0902 14.4306 18.124 14.3743 18.2027C14.3525 18.1305 14.3163 18.0634 14.268 18.0054C14.2197 17.9474 14.1602 17.8997 14.0931 17.8652C14.025 17.8973 13.964 17.9427 13.9138 17.9987C13.8635 18.0548 13.825 18.1203 13.8006 18.1915C13.7443 18.1127 13.7106 18.1015 13.6318 18.0902V18.3715L13.7218 18.5852H14.4531Z" fill="white"/>
<path fill-rule="evenodd" clip-rule="evenodd" d="M14.0938 17.8027L14.1184 17.8154C14.1923 17.8534 14.2577 17.9058 14.3108 17.9696C14.3429 18.0081 14.3702 18.0503 14.392 18.0951C14.4017 18.0861 14.4118 18.0779 14.4223 18.0707C14.4589 18.0457 14.4982 18.0342 14.5427 18.0342H14.5989V18.383L14.49 18.6417H13.6841L13.5752 18.383V18.0256L13.6394 18.0347C13.6789 18.0404 13.7163 18.047 13.7516 18.0666C13.7629 18.0728 13.7734 18.0801 13.7835 18.0885C13.8073 18.0427 13.8369 18 13.8715 17.9613C13.9268 17.8997 13.9938 17.8498 14.0687 17.8145L14.0938 17.8027ZM14.0916 17.929C14.0404 17.9566 13.9942 17.993 13.9553 18.0364C13.91 18.0869 13.8754 18.1459 13.8534 18.2099L13.8179 18.3133L13.7544 18.2244C13.7283 18.1878 13.7116 18.1731 13.6969 18.1649C13.694 18.1633 13.691 18.1618 13.6877 18.1604V18.3603L13.7588 18.5292H14.4153L14.4864 18.3603V18.1632C14.4863 18.1633 14.4861 18.1634 14.4859 18.1636C14.4672 18.1763 14.4465 18.1982 14.4197 18.2356L14.3532 18.3287L14.3201 18.2192C14.3004 18.1542 14.2679 18.0938 14.2244 18.0416C14.1869 17.9966 14.142 17.9585 14.0916 17.929Z" fill="black"/>
<path d="M14.475 19.3274L14.7675 18.9561V18.5961C14.655 18.5961 14.5988 18.6524 14.52 18.7761C14.4413 18.5174 14.295 18.4724 14.0925 18.3486C13.8787 18.4611 13.7325 18.5174 13.665 18.7649C13.575 18.6411 13.5188 18.6074 13.4062 18.5961V18.9561L13.71 19.3274H14.475Z" fill="white"/>
<path fill-rule="evenodd" clip-rule="evenodd" d="M14.0952 18.2842L14.1224 18.3008C14.1505 18.318 14.1788 18.3343 14.2066 18.3503C14.2724 18.3882 14.3358 18.4247 14.389 18.4685C14.4478 18.5169 14.4968 18.5755 14.5354 18.6575C14.5549 18.6336 14.5751 18.6127 14.5971 18.5955C14.6461 18.5575 14.7008 18.5401 14.7681 18.5401H14.8243V18.9758L14.5029 19.3838H13.6839L13.3506 18.9764V18.5342L13.4124 18.5404C13.4736 18.5465 13.5255 18.5593 13.5751 18.5912C13.6 18.6072 13.623 18.6272 13.6459 18.6516C13.6816 18.5709 13.7294 18.5118 13.7887 18.4629C13.8534 18.4096 13.9322 18.3689 14.0164 18.3254C14.033 18.3167 14.0499 18.308 14.0669 18.2991L14.0952 18.2842ZM13.8603 18.5498C13.798 18.601 13.7507 18.6667 13.7199 18.7799L13.689 18.8929L13.6201 18.7982C13.5764 18.7381 13.5447 18.7055 13.5142 18.6858C13.4989 18.676 13.4826 18.6686 13.4631 18.6631V18.9363L13.7372 19.2713H14.4483L14.7118 18.9368V18.6601C14.6947 18.6654 14.6801 18.6735 14.6662 18.6843C14.6365 18.7075 14.6071 18.7452 14.568 18.8065L14.5024 18.9097L14.4668 18.7927C14.4305 18.6734 14.3802 18.607 14.3175 18.5554C14.2717 18.5177 14.2211 18.4886 14.1599 18.4534C14.1384 18.441 14.1155 18.4279 14.0911 18.4133C14.0822 18.418 14.0734 18.4225 14.0649 18.427C13.9809 18.4705 13.9149 18.5047 13.8603 18.5498Z" fill="black"/>
<path d="M14.554 20.0587C14.554 20.0587 14.914 19.755 14.9253 19.5862V19.1925C14.7903 19.2037 14.6665 19.2375 14.5653 19.4063C14.4753 19.08 14.3403 18.99 14.0928 18.8438C13.834 18.99 13.699 19.08 13.6203 19.4063C13.5078 19.2375 13.3953 19.2038 13.249 19.1813V19.5862C13.3435 19.7647 13.4693 19.9247 13.6203 20.0587H14.554Z" fill="white"/>
<path fill-rule="evenodd" clip-rule="evenodd" d="M14.093 18.7793L14.121 18.7958C14.2439 18.8685 14.3466 18.9313 14.4289 19.0197C14.4936 19.0892 14.544 19.1724 14.5851 19.2847C14.6227 19.2434 14.6633 19.2129 14.7066 19.1907C14.7767 19.1549 14.8499 19.1428 14.9202 19.137L14.9811 19.1319V19.5886L14.981 19.5905C14.9771 19.6484 14.9451 19.7095 14.9087 19.7633C14.871 19.819 14.8227 19.8753 14.776 19.9249C14.7291 19.9747 14.6827 20.0189 14.6481 20.0506C14.6308 20.0665 14.6163 20.0793 14.6062 20.0882C14.6011 20.0927 14.5971 20.0961 14.5943 20.0985L14.5911 20.1012L14.5903 20.102L14.59 20.1022L14.5899 20.1022C14.5899 20.1022 14.5899 20.1023 14.5536 20.0593L14.5899 20.1022L14.5742 20.1155H13.5985L13.5825 20.1013C13.4265 19.9628 13.2966 19.7975 13.1989 19.6131L13.1924 19.6007V19.1162L13.2572 19.1262C13.3317 19.1376 13.4042 19.1528 13.4734 19.1898C13.5167 19.213 13.5572 19.2438 13.596 19.2853C13.6337 19.1731 13.6825 19.0895 13.7475 19.0197C13.8302 18.9308 13.9362 18.868 14.0647 18.7953L14.093 18.7793ZM14.5327 20.003C14.5422 19.9946 14.5558 19.9826 14.572 19.9677C14.6053 19.9372 14.6496 19.8949 14.6941 19.8477C14.7388 19.8003 14.7826 19.749 14.8155 19.7003C14.8491 19.6506 14.8663 19.6111 14.8686 19.5846V19.2564C14.8286 19.263 14.792 19.2734 14.7578 19.2909C14.7079 19.3164 14.6591 19.3591 14.6131 19.4357L14.5456 19.5483L14.5107 19.4217C14.4673 19.2647 14.4147 19.1695 14.3465 19.0963C14.2823 19.0273 14.2018 18.9749 14.0918 18.9093C13.9765 18.9751 13.8938 19.0276 13.8298 19.0963C13.7623 19.1689 13.7124 19.2632 13.6746 19.42L13.6444 19.5449L13.5731 19.438C13.5209 19.3597 13.4712 19.3162 13.4204 19.289C13.3853 19.2702 13.3478 19.2582 13.3049 19.249V19.5727C13.3921 19.734 13.5059 19.8795 13.6415 20.003H14.5327Z" fill="black"/>
<path d="M14.6998 21.4088C14.6998 21.4088 15.1948 20.8801 15.206 20.6663V20.0588C15.026 20.0813 14.846 20.2051 14.711 20.4638C14.5985 19.9576 14.4185 19.6088 14.0923 19.3613C13.7548 19.6088 13.5748 19.9576 13.4623 20.4638C13.3273 20.2051 13.1585 20.0813 12.9785 20.0588V20.6663C13.0123 20.8801 13.4735 21.4088 13.4735 21.4088H14.6998Z" fill="white"/>
<path fill-rule="evenodd" clip-rule="evenodd" d="M14.0934 19.291L14.1268 19.3164C14.437 19.5517 14.618 19.8736 14.734 20.3169C14.8657 20.1252 15.0295 20.0241 15.1996 20.0029L15.2629 19.995V20.6677L15.2628 20.6691C15.2592 20.7379 15.219 20.8217 15.1709 20.9014C15.1212 20.9839 15.0567 21.0721 14.9934 21.1524C14.93 21.2329 14.8671 21.3065 14.8201 21.3599C14.7966 21.3866 14.777 21.4084 14.7632 21.4234C14.7563 21.431 14.7509 21.4369 14.7472 21.4409L14.743 21.4455L14.7418 21.4467L14.7415 21.4471C14.7414 21.4471 14.7414 21.4471 14.7004 21.4087L14.7415 21.4471L14.7247 21.4649H13.4485L13.4317 21.4457L13.4741 21.4087C13.4317 21.4457 13.4317 21.4457 13.4317 21.4457L13.4303 21.444L13.4263 21.4394C13.4229 21.4354 13.4178 21.4296 13.4114 21.422C13.3986 21.407 13.3802 21.3853 13.3582 21.3586C13.314 21.3052 13.2547 21.2318 13.1943 21.1514C13.134 21.0712 13.0719 20.9834 13.0225 20.9014C12.9744 20.8216 12.9338 20.7402 12.9235 20.675L12.9229 20.6706V19.995L12.9861 20.0029C13.1568 20.0242 13.3122 20.1258 13.4407 20.316C13.5568 19.8731 13.7389 19.551 14.0596 19.3158L14.0934 19.291ZM13.4999 21.3524H14.6757C14.6771 21.3509 14.6785 21.3493 14.6801 21.3477C14.6934 21.333 14.7126 21.3117 14.7357 21.2856C14.7818 21.2331 14.8433 21.1612 14.9051 21.0828C14.967 21.0042 15.0283 20.9201 15.0746 20.8433C15.122 20.7647 15.1478 20.7028 15.1504 20.6645V20.1272C15.0128 20.1656 14.8731 20.2757 14.7615 20.4897L14.6901 20.6264L14.6567 20.4759C14.5498 19.9951 14.3833 19.667 14.0923 19.4321C13.7913 19.667 13.6247 19.9948 13.5178 20.4759L13.4843 20.6264L13.413 20.4897C13.301 20.275 13.1696 20.1657 13.0354 20.1274V20.6614C13.0431 20.7031 13.0725 20.7664 13.1189 20.8433C13.1654 20.9207 13.225 21.0051 13.2842 21.0838C13.3433 21.1623 13.4014 21.2344 13.4448 21.2869C13.4665 21.3131 13.4845 21.3344 13.497 21.3491C13.498 21.3502 13.499 21.3514 13.4999 21.3524Z" fill="black"/>
<path d="M14.6998 22.2073C14.6998 22.2073 15.116 21.7911 15.206 21.6111V21.0036C15.026 21.0261 14.846 21.1498 14.711 21.3973C14.6809 21.1926 14.6108 20.9958 14.5046 20.8182C14.3984 20.6407 14.2583 20.4857 14.0923 20.3623C13.7548 20.6098 13.5748 20.8911 13.4623 21.3973C13.3273 21.1498 13.1585 21.0261 12.9785 21.0036V21.6111C13.091 21.7911 13.4735 22.2073 13.4735 22.2073H14.6998Z" fill="white"/>
<path fill-rule="evenodd" clip-rule="evenodd" d="M14.0931 20.293L14.1264 20.3177C14.2984 20.4456 14.4435 20.606 14.5535 20.79C14.6386 20.9324 14.7014 21.0867 14.7399 21.2476C14.8707 21.0676 15.0322 20.9693 15.1996 20.9483L15.2629 20.9404V21.6249L15.2569 21.6368C15.2315 21.6876 15.1853 21.7513 15.1334 21.816C15.0807 21.8816 15.0194 21.9514 14.9613 22.0151C14.9032 22.0789 14.8479 22.137 14.8072 22.1791C14.7869 22.2002 14.7702 22.2173 14.7585 22.2291C14.7527 22.235 14.7481 22.2397 14.745 22.2428L14.7414 22.2464L14.7402 22.2476L14.7401 22.2477C14.7401 22.2477 14.7401 22.2477 14.7004 22.2079L14.7401 22.2477L14.7237 22.2641H13.4494L13.4327 22.2459L13.4741 22.2079C13.4327 22.2459 13.4327 22.246 13.4327 22.2459L13.4283 22.2411L13.4158 22.2275C13.4051 22.2157 13.3896 22.1987 13.3708 22.1776C13.333 22.1356 13.2814 22.0777 13.2263 22.0141C13.1172 21.8882 12.9904 21.7358 12.9314 21.6414L12.9229 21.6278V20.9404L12.9861 20.9483C13.1564 20.9696 13.3116 21.0707 13.4401 21.254C13.4926 21.0576 13.5587 20.895 13.6456 20.7539C13.7513 20.582 13.8862 20.4447 14.0596 20.3175L14.0931 20.293ZM13.4989 22.1516H14.6769C14.6774 22.1512 14.6779 22.1507 14.6783 22.1502C14.6898 22.1386 14.7063 22.1217 14.7263 22.1009C14.7665 22.0594 14.821 22.0021 14.8781 21.9394C14.9354 21.8765 14.995 21.8086 15.0457 21.7455C15.0923 21.6874 15.1293 21.6361 15.1504 21.5978V21.0726C15.0124 21.1109 14.8726 21.2202 14.761 21.4248L14.6804 21.5725L14.656 21.4061C14.6269 21.2087 14.5593 21.0189 14.4569 20.8477C14.3617 20.6884 14.2382 20.548 14.0925 20.4334C13.945 20.5464 13.8314 20.6666 13.7414 20.8128C13.6444 20.9704 13.5731 21.1609 13.5178 21.4101L13.4852 21.5564L13.4135 21.4248C13.3015 21.2195 13.17 21.111 13.0354 21.0728V21.5951C13.0924 21.682 13.2065 21.8196 13.3113 21.9404C13.3659 22.0034 13.4169 22.0608 13.4544 22.1024C13.473 22.1232 13.4883 22.14 13.4989 22.1516Z" fill="black"/>
<path d="M14.8685 22.6805C14.756 22.1518 14.6435 21.758 14.0698 21.3643C13.4848 21.758 13.3835 22.1518 13.2598 22.6805H14.8685Z" fill="white"/>
<path fill-rule="evenodd" clip-rule="evenodd" d="M14.0707 21.2959L14.1022 21.3175C14.3954 21.5188 14.5736 21.7221 14.6924 21.945C14.8104 22.1664 14.8679 22.404 14.9242 22.6684L14.9386 22.7364H13.1895L13.2056 22.6673C13.2673 22.4039 13.3249 22.1662 13.4428 21.945C13.5616 21.722 13.7399 21.5185 14.039 21.3172L14.0707 21.2959ZM13.3314 22.6239H14.7995C14.7479 22.3888 14.6934 22.186 14.5931 21.9979C14.4882 21.801 14.3316 21.6173 14.0701 21.4323C13.8036 21.6173 13.647 21.801 13.5421 21.9979C13.4418 22.186 13.3873 22.3885 13.3314 22.6239Z" fill="black"/>
<path d="M15.1723 22.9723V22.2073C14.9023 22.3198 14.666 22.4661 14.576 22.6348C14.486 22.2073 14.2948 22.0273 14.0585 21.7686C13.8223 22.0273 13.6648 22.2186 13.5635 22.6348C13.4735 22.4661 13.2373 22.3086 12.9785 22.2073V22.9723H15.1723Z" fill="white"/>
<path fill-rule="evenodd" clip-rule="evenodd" d="M14.0591 21.6855L14.1006 21.731C14.1189 21.7511 14.137 21.7707 14.1549 21.79C14.3447 21.996 14.508 22.1732 14.6019 22.503C14.6497 22.4493 14.7091 22.3997 14.7753 22.3541C14.8836 22.2794 15.0139 22.213 15.1512 22.1558L15.2291 22.1233V23.029H12.9229V22.1253L12.9996 22.1553C13.1325 22.2074 13.2605 22.2741 13.3675 22.3503C13.4338 22.3975 13.4933 22.4493 13.5411 22.5046C13.6462 22.1535 13.8015 21.9676 14.0176 21.731L14.0591 21.6855ZM14.0593 21.8524C13.8491 22.0856 13.7109 22.2699 13.6188 22.6485L13.5839 22.7919L13.5145 22.6617C13.4752 22.588 13.4012 22.5125 13.3022 22.442C13.2242 22.3864 13.1327 22.3354 13.0354 22.2921V22.9165H15.1166V22.2935C15.0139 22.3402 14.9191 22.3916 14.8391 22.4467C14.7386 22.516 14.6652 22.5885 14.6262 22.6617L14.5534 22.7982L14.5216 22.6468C14.4418 22.2678 14.2819 22.0942 14.0711 21.8652C14.0672 21.861 14.0633 21.8567 14.0593 21.8524Z" fill="black"/>
<path d="M8.70391 29.1716H36.3002V30.5779H8.70391V29.1716ZM7.97266 30.5779H37.0314V31.9841H7.97266V30.5779ZM10.1552 27.0566H34.8377V27.9679H10.1552V27.0566Z" fill="white"/>
<path fill-rule="evenodd" clip-rule="evenodd" d="M10.0985 27H34.8935V28.0237H10.0985V27ZM10.211 27.1125V27.9112H34.781V27.1125H10.211ZM8.64727 29.115H36.356V30.5212H37.0873V32.04H7.91602V30.5212H8.64727V29.115ZM8.75977 30.5212H36.2435V29.2275H8.75977V30.5212ZM8.02852 30.6337V31.9275H36.9748V30.6337H8.02852Z" fill="black"/>
<path d="M9.43457 27.9681H35.5796V29.1606H9.43457V27.9681ZM10.5821 26.3594H34.4321V27.0569H10.5821V26.3594Z" fill="white"/>
<path fill-rule="evenodd" clip-rule="evenodd" d="M10.5264 26.3027H34.4889V27.1127H10.5264V26.3027ZM10.6389 26.4152V27.0002H34.3764V26.4152H10.6389ZM9.37891 27.9115H35.6364V29.2165H9.37891V27.9115ZM9.49141 28.024V29.104H35.5239V28.024H9.49141Z" fill="black"/>
<path d="M13.1699 26.3594H14.9699V31.9844H13.1699V26.3594Z" fill="white"/>
<path fill-rule="evenodd" clip-rule="evenodd" d="M13.1133 26.3027H15.0258V32.0402H13.1133V26.3027ZM13.2258 26.4152V31.9277H14.9133V26.4152H13.2258Z" fill="black"/>
<path d="M13.5747 26.3594H14.576V31.9844H13.5635L13.5747 26.3594ZM21.5622 26.3594H23.3622V31.9844H21.5622V26.3594Z" fill="white"/>
<path fill-rule="evenodd" clip-rule="evenodd" d="M13.5183 26.3027H14.6319V32.0402H13.5068L13.5183 26.3027ZM13.6306 26.4152L13.6196 31.9277H14.5194V26.4152H13.6306ZM21.5057 26.3027H23.4182V32.0402H21.5057V26.3027ZM21.6182 26.4152V31.9277H23.3057V26.4152H21.6182Z" fill="black"/>
<path d="M21.9785 26.3594H22.991V31.9844H21.9785V26.3594ZM30.0223 26.3594H31.8223V31.9844H30.0223V26.3594Z" fill="white"/>
<path fill-rule="evenodd" clip-rule="evenodd" d="M21.9219 26.3027H23.0469V32.0402H21.9219V26.3027ZM22.0344 26.4152V31.9277H22.9344V26.4152H22.0344ZM29.9656 26.3027H31.8781V32.0402H29.9656V26.3027ZM30.0781 26.4152V31.9277H31.7656V26.4152H30.0781Z" fill="black"/>
<path d="M30.416 26.3594H31.4285V31.9844H30.416V26.3594Z" fill="white"/>
<path fill-rule="evenodd" clip-rule="evenodd" d="M30.3594 26.3027H31.4844V32.0402H30.3594V26.3027ZM30.4719 26.4152V31.9277H31.3719V26.4152H30.4719Z" fill="black"/>
<path fill-rule="evenodd" clip-rule="evenodd" d="M33.3746 25.842H11.6621V25.7295H33.3746V25.842ZM14.5871 27.1132H13.5521V27.0007H14.5871V27.1132ZM22.9571 27.1132H21.9896V27.0007H22.9571V27.1132ZM31.4396 27.1132H30.4046V27.0007H31.4396V27.1132ZM14.5871 27.8107H13.5521V27.6982H14.5871V27.8107ZM22.9571 27.8107H21.9896V27.6982H22.9571V27.8107ZM31.4396 27.8107H30.4046V27.6982H31.4396V27.8107ZM14.5871 28.5195H13.5521V28.407H14.5871V28.5195ZM22.9571 28.5195H21.9896V28.407H22.9571V28.5195ZM31.4396 28.5195H30.4046V28.407H31.4396V28.5195ZM14.5871 29.217H13.5521V29.1045H14.5871V29.217ZM22.9571 29.217H21.9896V29.1045H22.9571V29.217ZM31.4396 29.217H30.4046V29.1045H31.4396V29.217ZM14.5871 29.9257H13.5521V29.8132H14.5871V29.9257ZM22.9571 29.9257H21.9896V29.8132H22.9571V29.9257ZM31.4396 29.9257H30.4046V29.8132H31.4396V29.9257ZM14.5871 30.6232H13.5521V30.5107H14.5871V30.6232ZM22.9571 30.6232H21.9896V30.5107H22.9571V30.6232ZM31.4396 30.6232H30.4046V30.5107H31.4396V30.6232ZM14.5871 31.332H13.5521V31.2195H14.5871V31.332ZM22.9571 31.332H21.9896V31.2195H22.9571V31.332ZM31.4396 31.332H30.4046V31.2195H31.4396V31.332Z" fill="black"/>
</g>
<defs>
<clipPath id="clip0_200_65358">
<rect width="60" height="45" fill="white" transform="translate(-7.5)"/>
</clipPath>
</defs>
</svg>
