<svg width="45" height="45" viewBox="0 0 45 45" fill="none" xmlns="http://www.w3.org/2000/svg">
<g clip-path="url(#clip0_200_65661)">
<path fill-rule="evenodd" clip-rule="evenodd" d="M-14.3467 0H59.1123V26.9385H-14.3467V0Z" fill="#E73E2D"/>
<path fill-rule="evenodd" clip-rule="evenodd" d="M18.0498 24.7939C16.3447 23.458 13.1631 23.915 12.6357 20.2852C15.0703 22.1748 14.6309 20.1797 18.2607 21.9814L18.0498 24.7939Z" fill="#FEC74A"/>
<path fill-rule="evenodd" clip-rule="evenodd" d="M12.5352 20.1123L12.6815 20.2259C13.2867 20.6956 13.7073 20.9191 14.0526 21.0222C14.3967 21.1249 14.6716 21.1101 14.9957 21.0915L15.001 21.0911C15.3249 21.0725 15.6928 21.0513 16.2067 21.1484C16.7225 21.2458 17.3822 21.4618 18.2939 21.9143L18.339 21.9367L18.1138 24.9388L18.0037 24.8525C17.5872 24.5262 17.078 24.3075 16.5328 24.1062C16.3918 24.0541 16.2482 24.0031 16.1033 23.9517C15.6915 23.8056 15.2696 23.6558 14.8693 23.4671C14.326 23.2111 13.815 22.8802 13.4065 22.3802C12.9976 21.8797 12.6953 21.2145 12.5618 20.2957L12.5352 20.1123ZM12.7392 20.4577C12.8811 21.2585 13.16 21.8423 13.5222 22.2857C13.9119 22.7626 14.4018 23.0816 14.933 23.332C15.326 23.5172 15.7375 23.6633 16.1473 23.8087C16.2936 23.8606 16.4396 23.9125 16.5845 23.966C17.0865 24.1514 17.5721 24.3561 17.9855 24.6522L18.1825 22.0259C17.3027 21.5928 16.6694 21.3879 16.179 21.2952C15.6831 21.2015 15.3301 21.2218 15.0081 21.2404L15.0043 21.2406C14.6802 21.2593 14.3816 21.2764 14.0099 21.1654C13.6703 21.064 13.2744 20.8575 12.7392 20.4577Z" fill="#D8AA3F"/>
<path fill-rule="evenodd" clip-rule="evenodd" d="M18.5071 23.1504C17.2854 21.3574 14.1125 20.8125 14.7278 17.2002C16.4768 19.7402 16.6613 17.7012 19.5793 20.5313L18.5071 23.1504Z" fill="#FEC74A"/>
<path fill-rule="evenodd" clip-rule="evenodd" d="M14.6845 17.0068L14.7888 17.1583C15.2235 17.7896 15.5568 18.1301 15.8549 18.333C16.1518 18.5351 16.4184 18.6043 16.7333 18.6851L16.7362 18.6858C17.0514 18.7667 17.4093 18.8585 17.8713 19.1088C18.3339 19.3594 18.898 19.7673 19.6308 20.4781L19.6671 20.5133L18.5231 23.3078L18.4448 23.1929C18.1463 22.7549 17.7269 22.3905 17.2681 22.0316C17.1506 21.9396 17.0304 21.8479 16.9091 21.7555C16.5598 21.4891 16.202 21.2162 15.8771 20.9126C15.4377 20.5021 15.0523 20.0304 14.8169 19.4295C14.5812 18.8279 14.4979 18.1025 14.6536 17.1881L14.6845 17.0068ZM14.7727 17.3955C14.6611 18.2008 14.7471 18.8419 14.956 19.3749C15.1806 19.9482 15.5494 20.402 15.9791 20.8034C16.298 21.1014 16.6471 21.3677 16.9948 21.6328C17.1172 21.7262 17.2395 21.8194 17.3602 21.9139C17.7828 22.2446 18.1841 22.5886 18.4887 22.9972L19.4905 20.5503C18.7822 19.8678 18.24 19.4785 17.8001 19.2402C17.3543 18.9987 17.0109 18.9105 16.6976 18.8302L16.695 18.8295C16.3808 18.7489 16.0912 18.6746 15.7708 18.4565C15.4775 18.2569 15.1624 17.9397 14.7727 17.3955Z" fill="#D8AA3F"/>
<path fill-rule="evenodd" clip-rule="evenodd" d="M19.0603 21.9727C18.6208 19.8545 15.8962 18.1406 17.8474 15.0293C18.4802 18.0527 19.4294 16.2422 21.0466 19.9687L19.0603 21.9727Z" fill="#FEC74A"/>
<path fill-rule="evenodd" clip-rule="evenodd" d="M17.8831 14.833L17.921 15.0144C18.0783 15.7659 18.2538 16.2096 18.45 16.5123C18.6454 16.8138 18.8641 16.9806 19.1233 17.1761L19.13 17.1811C19.3885 17.3761 19.6824 17.5978 20.0119 18.0033C20.3437 18.4115 20.7095 19.0034 21.1156 19.9394L21.1358 19.9858L19.0159 22.1245L18.9876 21.9882C18.8803 21.4708 18.6327 20.975 18.3465 20.4688C18.2733 20.3394 18.1974 20.2091 18.121 20.0777C17.9002 19.6983 17.674 19.3095 17.4898 18.9047C17.241 18.3576 17.0654 17.7741 17.0778 17.1279C17.0901 16.4811 17.2907 15.7775 17.7846 14.99L17.8831 14.833ZM19.1032 21.8242L20.9584 19.9525C20.5641 19.0522 20.2115 18.4857 19.896 18.0975C19.578 17.7061 19.2958 17.4933 19.0388 17.2995L19.0334 17.2954C18.774 17.0998 18.5357 16.9194 18.3246 16.5936C18.1318 16.2959 17.964 15.8812 17.8149 15.2284C17.4038 15.9314 17.2381 16.5578 17.2271 17.1307C17.2153 17.7472 17.3825 18.3079 17.6259 18.8429C17.8066 19.2403 18.0273 19.6195 18.247 19.997C18.3242 20.1298 18.4013 20.2623 18.4765 20.3953C18.7401 20.8614 18.9788 21.3315 19.1032 21.8242Z" fill="#D8AA3F"/>
<path fill-rule="evenodd" clip-rule="evenodd" d="M20.3351 20.8828C20.5724 18.7295 18.507 16.2598 21.3107 13.9043C20.9943 16.9717 22.4533 15.5479 22.8488 19.582L20.3351 20.8828Z" fill="#FEC74A"/>
<path fill-rule="evenodd" clip-rule="evenodd" d="M21.4035 13.7285L21.3845 13.9121C21.3059 14.6745 21.3385 15.1503 21.4335 15.4987C21.5282 15.8457 21.6861 16.0719 21.8734 16.3377L21.8773 16.3433C22.0643 16.6087 22.2767 16.9101 22.4662 17.3974C22.6568 17.8872 22.8233 18.5616 22.9226 19.5749L22.9276 19.6253L20.369 20.9493L20.3346 20.8829L20.2604 20.8748C20.3183 20.3487 20.2359 19.8003 20.1197 19.2303C20.0896 19.0824 20.0571 18.9329 20.0243 18.7821C19.9315 18.3551 19.8365 17.9176 19.7858 17.4781C19.7169 16.8809 19.7285 16.272 19.9377 15.6615C20.147 15.0504 20.5524 14.4435 21.2622 13.8472L21.4035 13.7285ZM20.421 20.7541L22.7689 19.5391C22.67 18.5635 22.5082 17.9173 22.327 17.4515C22.144 16.9813 21.9402 16.692 21.7543 16.4281L21.7512 16.4238C21.5639 16.1579 21.3916 15.9128 21.2894 15.538C21.1959 15.1955 21.162 14.7495 21.2184 14.0829C20.6132 14.6244 20.2645 15.1686 20.079 15.7099C19.8795 16.2923 19.8669 16.877 19.9342 17.4609C19.984 17.8925 20.0767 18.3192 20.169 18.7441C20.2021 18.8964 20.2351 19.0485 20.2661 19.2004C20.3731 19.7254 20.455 20.2465 20.421 20.7541Z" fill="#D8AA3F"/>
<path fill-rule="evenodd" clip-rule="evenodd" d="M21.4775 20.0127C22.5674 18.1406 21.6973 15.0469 25.2217 14.0449C23.6748 16.708 25.5908 16.0049 24.2988 19.8457L21.4775 20.0127Z" fill="#FEC74A"/>
<path fill-rule="evenodd" clip-rule="evenodd" d="M25.3793 13.9229L25.2864 14.0828C24.9019 14.7448 24.7365 15.191 24.6805 15.5467C24.6246 15.901 24.676 16.1712 24.7381 16.4898L24.7394 16.4964C24.8014 16.8144 24.8718 17.1759 24.8453 17.6977C24.8186 18.2221 24.6943 18.9052 24.3697 19.8699L24.3537 19.9177L21.4821 20.0877L21.4776 20.0131L21.4131 19.9755C21.6794 19.5181 21.8274 18.9834 21.9539 18.4155C21.9861 18.2709 22.017 18.124 22.0481 17.9758C22.1384 17.5456 22.2309 17.1047 22.3655 16.6803C22.5472 16.1076 22.8074 15.5572 23.2486 15.0861C23.6903 14.6146 24.3092 14.2271 25.2014 13.9734L25.3793 13.9229ZM21.6088 19.9305L24.2441 19.7745C24.5536 18.8442 24.6707 18.1888 24.6961 17.6901C24.7217 17.1866 24.6541 16.8397 24.5925 16.5235L24.5915 16.5183C24.5294 16.1997 24.4726 15.9063 24.5329 15.5234C24.588 15.1737 24.7399 14.7541 25.0645 14.1706C24.2903 14.417 23.7489 14.7706 23.3577 15.1883C22.9368 15.6376 22.6856 16.1655 22.508 16.7255C22.3758 17.1421 22.2855 17.5722 22.1956 18.0004C22.1642 18.1501 22.1328 18.2995 22.0997 18.448C21.9832 18.9709 21.8458 19.4803 21.6088 19.9305Z" fill="#D8AA3F"/>
<path fill-rule="evenodd" clip-rule="evenodd" d="M23.1211 20.2416C24.7559 18.8178 24.9141 15.601 28.5703 15.768C26.2588 17.807 28.3066 17.7455 25.8457 20.9887L23.1211 20.2416Z" fill="#FEC74A"/>
<path fill-rule="evenodd" clip-rule="evenodd" d="M23.2717 20.205L25.8165 20.9028C26.4094 20.116 26.731 19.5298 26.9149 19.0636C27.1014 18.591 27.1476 18.2388 27.1897 17.9179L27.19 17.9152C27.2322 17.5934 27.2711 17.297 27.449 16.9531C27.6118 16.6383 27.8885 16.2879 28.3815 15.8365C27.57 15.8248 26.945 15.9889 26.4417 16.2615C25.9003 16.5548 25.4944 16.9765 25.1479 17.4518C24.8917 17.803 24.6704 18.1799 24.45 18.555C24.371 18.6895 24.2921 18.8238 24.2118 18.9566C23.9344 19.4155 23.641 19.8545 23.2717 20.205ZM26.3706 16.1301C26.9387 15.8224 27.648 15.6506 28.5736 15.6929L28.7581 15.7013L28.6196 15.8235C28.0451 16.3303 27.7472 16.7017 27.5817 17.0217C27.4168 17.3405 27.3803 17.6135 27.338 17.936L27.3376 17.9388C27.2952 18.2617 27.2471 18.6287 27.0539 19.1184C26.8606 19.6086 26.5232 20.2188 25.9051 21.0334L25.8745 21.0736L22.9668 20.2763L23.0719 20.1848C23.4713 19.8369 23.7827 19.3775 24.084 18.8793C24.1621 18.7501 24.2397 18.618 24.3179 18.4849C24.5394 18.1078 24.7663 17.7215 25.0271 17.3637C25.3815 16.8777 25.803 16.4375 26.3706 16.1301Z" fill="#D8AA3F"/>
<path fill-rule="evenodd" clip-rule="evenodd" d="M24.5801 21.0853C26.5576 20.1976 27.6475 17.1741 31.0928 18.4046C28.2803 19.679 30.2578 20.2239 26.9619 22.597L24.5801 21.0853Z" fill="#FEC74A"/>
<path fill-rule="evenodd" clip-rule="evenodd" d="M24.5801 21.0848L24.54 21.1479L26.9645 22.6867L27.0056 22.6571C27.8334 22.0611 28.3333 21.5775 28.6608 21.166C28.9874 20.7556 29.1402 20.4193 29.2749 20.1231L29.2766 20.1192C29.4112 19.8231 29.5262 19.5724 29.7777 19.3154C30.0301 19.0573 30.4246 18.7889 31.1236 18.4722L31.2919 18.3959L31.1179 18.3338C30.2457 18.0223 29.5178 17.9785 28.885 18.1058C28.2529 18.233 27.7216 18.5299 27.2412 18.8904C26.8863 19.1566 26.5557 19.4604 26.233 19.757C26.1205 19.8604 26.0089 19.963 25.8976 20.0628C25.4643 20.4511 25.0326 20.7997 24.5495 21.0166L24.5801 21.0848ZM25.9973 20.174C25.5982 20.5318 25.1896 20.8662 24.7343 21.0942L26.9592 22.5063C27.7547 21.9295 28.2325 21.4643 28.5438 21.073C28.859 20.677 29.0057 20.3543 29.1395 20.0599L29.1406 20.0574C29.2752 19.7614 29.3992 19.4886 29.6709 19.2109C29.9192 18.9571 30.2873 18.7025 30.8922 18.4148C30.1201 18.166 29.4749 18.1395 28.9145 18.2523C28.3115 18.3736 27.8007 18.6574 27.3308 19.0099C26.9824 19.2713 26.66 19.5677 26.3388 19.8628C26.2252 19.9672 26.1117 20.0715 25.9973 20.174Z" fill="#D8AA3F"/>
<path fill-rule="evenodd" clip-rule="evenodd" d="M25.8018 22.4121C27.9463 22.1132 29.8447 19.5117 32.8066 21.6738C29.7568 22.1044 31.4883 23.1767 27.665 24.5302L25.8018 22.4033V22.4121Z" fill="#FEC74A"/>
<path fill-rule="evenodd" clip-rule="evenodd" d="M25.7785 22.4912L27.6417 24.618L27.6895 24.6011C28.6497 24.2612 29.2649 23.9376 29.695 23.635C30.1232 23.3337 30.3651 23.0551 30.578 22.8098L30.5818 22.8054C30.7949 22.5598 30.9765 22.3524 31.2902 22.1772C31.6052 22.0013 32.0586 21.8553 32.8166 21.7482L32.9989 21.7225L32.8502 21.6139C32.1004 21.0666 31.4137 20.8179 30.7702 20.761C30.1274 20.7043 29.5337 20.8395 28.971 21.0506C28.5538 21.2071 28.1495 21.4071 27.7551 21.6022C27.6195 21.6693 27.4851 21.7358 27.3517 21.7997C26.8424 22.0439 26.3452 22.2528 25.8375 22.3317L25.7266 22.2051V22.4984L25.7785 22.4912ZM27.4163 21.9344C26.9349 22.1653 26.4512 22.3714 25.953 22.4636L27.6873 24.4433C28.6112 24.1128 29.2001 23.8006 29.609 23.5128C30.0223 23.222 30.2545 22.9546 30.4662 22.7107L30.469 22.7075C30.6821 22.4619 30.8785 22.236 31.2174 22.0467C31.5271 21.8737 31.9514 21.7336 32.6113 21.628C31.9396 21.169 31.3272 20.9602 30.7571 20.9099C30.1439 20.8557 29.5736 20.9841 29.0234 21.1905C28.6139 21.3441 28.2195 21.5392 27.8269 21.7334C27.69 21.8011 27.5533 21.8687 27.4163 21.9344Z" fill="#D8AA3F"/>
<path fill-rule="evenodd" clip-rule="evenodd" d="M33.4482 22.8164L23.5957 23.0361L24.0088 25.6904L33.4482 22.8164Z" fill="#FEC74A"/>
<path fill-rule="evenodd" clip-rule="evenodd" d="M33.4466 22.7422L33.47 22.8883L23.9482 25.7874L23.5088 22.9638L33.4466 22.7422ZM23.6827 23.1094L24.0694 25.5944L32.9067 22.9037L23.6827 23.1094Z" fill="#D8AA3F"/>
<path fill-rule="evenodd" clip-rule="evenodd" d="M31.998 19.1953L22.875 22.7021L24.3955 25.6289L31.998 19.1953Z" fill="#FEC74A"/>
<path fill-rule="evenodd" clip-rule="evenodd" d="M31.9716 19.126L31.9984 19.1957L32.0466 19.2527L24.3727 25.7468L22.7705 22.6628L31.9716 19.126ZM31.6132 19.4238L22.9802 22.7423L24.419 25.5118L31.6132 19.4238Z" fill="#D8AA3F"/>
<path fill-rule="evenodd" clip-rule="evenodd" d="M24.7559 24.6709L29.4756 16.0928L22.2334 22.834L24.7559 24.6709Z" fill="#FEC74A"/>
<path fill-rule="evenodd" clip-rule="evenodd" d="M29.4247 16.0381L29.5411 16.1288L24.7805 24.7812L22.1162 22.841L29.4247 16.0381ZM22.3507 22.8269L24.7313 24.5606L29.1857 16.4647L22.3507 22.8269Z" fill="#D8AA3F"/>
<path fill-rule="evenodd" clip-rule="evenodd" d="M24.6592 23.959L26.1709 14.3438L21.4424 22.8867L24.6592 23.959Z" fill="#FEC74A"/>
<path fill-rule="evenodd" clip-rule="evenodd" d="M26.106 14.3076L26.2452 14.3554L24.7198 24.0578L21.334 22.9292L26.106 14.3076ZM21.5518 22.8443L24.5996 23.8603L26.0319 14.7501L21.5518 22.8443Z" fill="#D8AA3F"/>
<path fill-rule="evenodd" clip-rule="evenodd" d="M24.0879 23.1768L22.5059 13.4912L20.748 23.2207L24.0879 23.1768Z" fill="#FEC74A"/>
<path fill-rule="evenodd" clip-rule="evenodd" d="M22.4321 13.4775L22.5794 13.4788L24.1754 23.2499L20.6582 23.2962L22.4321 13.4775ZM20.8375 23.1444L24 23.1028L22.5019 13.9315L20.8375 23.1444Z" fill="#D8AA3F"/>
<path fill-rule="evenodd" clip-rule="evenodd" d="M23.2705 22.3506L18.6738 14.2646L20.4316 24.0908L23.2705 22.3506Z" fill="#FEC74A"/>
<path fill-rule="evenodd" clip-rule="evenodd" d="M18.6006 14.2776L18.7391 14.2275L23.3715 22.3763L20.3777 24.2115L18.6006 14.2776ZM18.8243 14.6798L20.4862 23.9697L23.1701 22.3245L18.8243 14.6798Z" fill="#D8AA3F"/>
<path fill-rule="evenodd" clip-rule="evenodd" d="M22.5586 22.2891L15.4307 16.2686L20.4932 24.8818L22.5586 22.2891Z" fill="#FEC74A"/>
<path fill-rule="evenodd" clip-rule="evenodd" d="M15.3662 16.3068L15.4788 16.2119L22.6068 22.2324L22.5585 22.2895L22.617 22.336L20.4838 25.0139L15.3662 16.3068ZM22.4549 22.2997L15.7168 16.6085L20.5024 24.7507L22.4549 22.2997Z" fill="#D8AA3F"/>
<path fill-rule="evenodd" clip-rule="evenodd" d="M12.9258 19.2393L20.5723 25.5586L21.75 22.2539L12.9258 19.2393Z" fill="#FEC74A"/>
<path fill-rule="evenodd" clip-rule="evenodd" d="M12.8779 19.2972L12.9497 19.1689L21.8455 22.2081L20.6066 25.6845L12.8779 19.2972ZM13.2883 19.4425L20.5374 25.4335L21.654 22.3005L13.2883 19.4425Z" fill="#D8AA3F"/>
<path fill-rule="evenodd" clip-rule="evenodd" d="M20.4932 22.9307L11.502 22.7988L20.458 25.7871L20.4932 22.9307Z" fill="#FEC74A"/>
<path fill-rule="evenodd" clip-rule="evenodd" d="M11.4785 22.8702L11.5033 22.7246L20.4945 22.8564L20.4934 22.9311L20.5681 22.9321L20.5317 25.8909L11.4785 22.8702ZM20.4178 23.0048L11.9833 22.8811L20.3848 25.6843L20.4178 23.0048Z" fill="#D8AA3F"/>
<path fill-rule="evenodd" clip-rule="evenodd" d="M27.7886 24.5391C27.8179 25.2655 27.7002 25.9904 27.4424 26.6701C27.1846 27.3499 26.7922 27.9706 26.2886 28.4949C25.785 29.0193 25.1807 29.4365 24.5118 29.7214C23.843 30.0064 23.1235 30.1533 22.3965 30.1533C21.6695 30.1533 20.95 30.0064 20.2811 29.7214C19.6123 29.4365 19.008 29.0193 18.5044 28.4949C18.0008 27.9706 17.6083 27.3499 17.3506 26.6701C17.0928 25.9904 16.9751 25.2655 17.0044 24.5391C17.0606 23.1467 17.6533 21.83 18.6584 20.8647C19.6634 19.8994 21.0029 19.3604 22.3965 19.3604C23.79 19.3604 25.1295 19.8994 26.1346 20.8647C27.1397 21.83 27.7323 23.1467 27.7886 24.5391Z" fill="#FEC74A"/>
<path fill-rule="evenodd" clip-rule="evenodd" d="M22.396 19.4346C21.0218 19.4346 19.7008 19.9662 18.7096 20.9181C17.7185 21.87 17.134 23.1685 17.0786 24.5416C17.0496 25.258 17.1657 25.9728 17.4199 26.6432C17.6741 27.3135 18.0611 27.9256 18.5578 28.4427C19.0544 28.9598 19.6504 29.3712 20.3099 29.6522C20.9695 29.9333 21.6791 30.0781 22.396 30.0781C23.1129 30.0781 23.8225 29.9333 24.4821 29.6522C25.1416 29.3712 25.7376 28.9598 26.2342 28.4427C26.7309 27.9256 27.1179 27.3135 27.3721 26.6432C27.6263 25.9728 27.7424 25.258 27.7134 24.5416C27.658 23.1685 27.0735 21.87 26.0824 20.9181C25.0912 19.9662 23.7702 19.4346 22.396 19.4346ZM18.6061 20.8104C19.6251 19.8317 20.9832 19.2852 22.396 19.2852C23.8088 19.2852 25.1669 19.8317 26.1859 20.8104C27.2048 21.789 27.8057 23.1239 27.8627 24.5356C27.8925 25.2721 27.7731 26.007 27.5118 26.6961C27.2504 27.3853 26.8526 28.0146 26.342 28.5462C25.8314 29.0778 25.2187 29.5008 24.5406 29.7897C23.8625 30.0786 23.1331 30.2275 22.396 30.2275C21.6589 30.2275 20.9295 30.0786 20.2514 29.7897C19.5733 29.5008 18.9606 29.0778 18.45 28.5462C17.9394 28.0146 17.5416 27.3853 17.2802 26.6961C17.0189 26.007 16.8995 25.2721 16.9293 24.5356C16.9863 23.1239 17.5872 21.789 18.6061 20.8104Z" fill="#D8AA3F"/>
<path fill-rule="evenodd" clip-rule="evenodd" d="M-14.417 26.666H59.4023V45H-14.4258L-14.417 26.666Z" fill="#005989"/>
<path fill-rule="evenodd" clip-rule="evenodd" d="M-14.4609 39.9023C-13.0898 40.5352 -11.1211 42.126 -9.01172 42.126C-5.49609 42.0996 -5.4082 39.7178 -1.83984 39.832C1.7373 39.9199 1.08691 42.4336 5.91211 42.4248C9.90234 42.4072 11.1855 39.375 14.6309 39.7354C17.1797 39.6035 18.2168 42.6094 22.1279 42.6533C26.1885 42.7412 27.6738 39.375 30.2139 39.6563C32.9385 39.6563 33.8174 42.3633 37.623 42.3809C42.4746 42.4072 43.3271 39.5684 46.3506 39.7441C48.5127 39.7002 50.2178 41.8272 53.3818 41.8799C55.8955 41.9238 58.0137 40.0166 59.4463 39.3311L59.5078 36.0967C58.0137 36.6504 55.7812 38.4785 53.5576 38.4961C50.3408 38.6191 48.3633 36.3867 46.1309 36.4131C43.459 36.4395 42.3955 39.1641 37.8691 39.1641C33.7207 39.1641 32.7715 36.4131 30.0996 36.4131C27.4893 36.4307 26.6895 39.4014 22.1631 39.3486C18.4717 39.3047 17.0391 36.5098 14.4287 36.5361C11.6602 36.5361 8.80371 39.252 5.72754 39.1201C1.50879 38.9443 0.585938 36.5361 -2.18262 36.5361C-4.24805 36.5361 -6.48926 38.7861 -8.97656 38.8213C-11.4551 38.8652 -14.2412 36.5801 -14.4961 36.5361L-14.4609 39.9023ZM-14.4609 33.4863C-13.0898 34.1279 -11.1211 35.7188 -9.01172 35.7188C-5.49609 35.6924 -5.4082 33.3105 -1.83984 33.416C1.7373 33.5039 1.08691 36.0264 5.91211 36.0088C9.90234 36.0088 11.1855 32.9678 14.6309 33.3281C17.1797 33.1963 18.2168 36.2021 22.1279 36.2373C26.1885 36.3252 27.6738 32.9678 30.2139 33.249C32.9385 33.249 33.8174 35.9561 37.623 35.9736C42.4746 36 43.3271 33.1611 46.3506 33.3369C48.5127 33.293 50.2178 35.4199 53.3818 35.4727C55.8955 35.5166 58.0137 33.6094 59.4463 32.9238L59.5078 29.6895C58.0137 30.2432 55.7812 32.0625 53.5576 32.0889C50.3408 32.2031 48.3633 29.9795 46.1309 30.0059C43.459 30.0322 42.3955 32.7568 37.8691 32.7568C33.7207 32.7568 32.7715 30.0059 30.0996 30.0059C27.4893 30.0234 26.6895 32.9941 22.1631 32.9414C18.4717 32.8975 17.0391 30.1025 14.4287 30.1289C11.6602 30.1289 8.80371 32.8359 5.72754 32.7041C1.50879 32.5283 0.585938 30.1201 -2.18262 30.1201C-4.24805 30.1201 -6.48926 32.3789 -8.97656 32.4141C-11.4551 32.4492 -14.2412 30.1729 -14.4961 30.1289L-14.4609 33.4951V33.4863Z" fill="white"/>
<path fill-rule="evenodd" clip-rule="evenodd" d="M-14.4609 27.1582C-13.0898 27.791 -11.1211 29.373 -9.02051 29.373C-5.50488 29.3555 -5.41699 26.9648 -1.84863 27.0791C1.71973 27.167 1.06934 29.6807 5.89453 29.6719C9.87598 29.6631 11.168 26.6221 14.5957 26.9912C17.1445 26.8594 18.1816 29.8652 22.0928 29.9004C26.1445 29.9883 27.6299 26.6221 30.1787 26.9033C32.8857 26.9033 33.7822 29.6104 37.5791 29.6279C42.4131 29.6543 43.2656 26.8154 46.2979 26.9912C48.4512 26.9473 50.1562 29.0742 53.3115 29.127C55.834 29.1709 57.9434 27.2637 59.376 26.5781L59.4375 23.3438C57.9434 23.9062 55.7197 25.7256 53.4873 25.7432C50.2881 25.8662 48.3018 23.6426 46.0693 23.6602C43.4062 23.6865 42.3428 26.4111 37.8076 26.4111C33.6768 26.4111 32.7275 23.6602 30.0557 23.6602C27.4453 23.6865 26.6455 26.6484 22.1367 26.5957C18.4453 26.5518 17.0127 23.7656 14.4023 23.7832C11.6338 23.7832 8.77734 26.499 5.71875 26.3672C1.49121 26.1914 0.577148 23.7832 -2.19141 23.7832C-4.25684 23.7832 -6.48926 26.0332 -8.97656 26.0684C-11.4551 26.1123 -14.2324 23.8359 -14.4961 23.7832L-14.4609 27.1494V27.1582Z" fill="white"/>
<path fill-rule="evenodd" clip-rule="evenodd" d="M12.1172 6.67969C17.4785 6.31055 16.5117 5.85352 18.665 5.50195C21.3896 5.87988 21.6973 7.52344 23.2178 8.53418C23.2178 8.53418 22.6465 10.4678 20.7832 10.1953C20.5283 9.42187 21.6797 9.17578 18.3662 7.1543C16.4326 7.04004 12.9785 7.49707 12.126 6.67969H12.1172ZM28.7549 9.65918L24.8877 9.81738V10.7754C27.498 10.8633 27.9639 10.5117 28.7549 9.65918Z" fill="#FFC84B"/>
<path fill-rule="evenodd" clip-rule="evenodd" d="M18.6641 5.42188L18.676 5.42352C20.0571 5.61509 20.83 6.1293 21.4478 6.72367C21.6515 6.91955 21.8398 7.12588 22.0262 7.33001C22.1193 7.432 22.2119 7.53344 22.3057 7.63275C22.5892 7.93305 22.8887 8.22035 23.2616 8.46822L23.3102 8.50053L23.2937 8.55651L23.2178 8.53409C23.2937 8.55651 23.2937 8.55655 23.2937 8.5566L23.2936 8.55673L23.2935 8.55713L23.2931 8.55846L23.2917 8.56317C23.2904 8.56721 23.2886 8.57302 23.2861 8.58047C23.2812 8.59538 23.2738 8.61688 23.2639 8.64396C23.244 8.6981 23.2135 8.77465 23.1711 8.86543C23.0865 9.04673 22.9534 9.28623 22.76 9.51757C22.3716 9.98206 21.7375 10.4147 20.7718 10.2735L20.7234 10.2664L20.7081 10.22C20.6415 10.0178 20.663 9.8472 20.6825 9.69235C20.6835 9.68429 20.6845 9.67626 20.6855 9.66828C20.7056 9.50705 20.7196 9.35729 20.6479 9.17116C20.5753 8.9825 20.411 8.7481 20.0536 8.43273C19.699 8.11982 19.1591 7.73136 18.3419 7.23204C17.7563 7.19877 17.037 7.21698 16.2904 7.23588C15.8089 7.24807 15.3162 7.26054 14.8406 7.25968C14.2336 7.25858 13.6566 7.23551 13.1766 7.16068C12.7005 7.08645 12.3032 6.95909 12.0713 6.7367L12.1149 6.69119L12.1118 6.60069C14.7909 6.41622 15.8827 6.21012 16.5719 6.00823C16.7859 5.94556 16.9637 5.88216 17.1403 5.81921C17.5277 5.6811 17.9091 5.54515 18.6523 5.4238L18.6641 5.42188ZM12.3431 6.74304C12.5475 6.86331 12.8398 6.94805 13.201 7.00437C13.6688 7.0773 14.2361 7.10038 14.8409 7.10148C15.3058 7.10232 15.7942 7.09003 16.2743 7.07795C17.0359 7.05878 17.7768 7.04014 18.3709 7.07525L18.3906 7.07641L18.4075 7.08668C19.2376 7.59314 19.7913 7.99031 20.1583 8.31411C20.5249 8.6376 20.71 8.89208 20.7956 9.11431C20.8821 9.33907 20.8631 9.5222 20.8425 9.68781C20.8418 9.69387 20.841 9.69991 20.8403 9.70592C20.8224 9.84904 20.8064 9.97645 20.8446 10.1238C21.714 10.2333 22.2823 9.84218 22.6386 9.41609C22.8209 9.19809 22.9471 8.97123 23.0278 8.79849C23.0681 8.71225 23.0968 8.63987 23.1154 8.58933C23.1185 8.58096 23.1213 8.57319 23.1238 8.56606C22.7598 8.31654 22.4651 8.03204 22.1906 7.74135C22.093 7.63791 21.9985 7.53439 21.9045 7.43146C21.7204 7.22972 21.5383 7.03018 21.3382 6.83768C20.7427 6.2648 20.0021 5.76949 18.666 5.58187C17.9446 5.7004 17.5848 5.82889 17.2056 5.96428C17.0268 6.02811 16.8437 6.09348 16.6164 6.16005C15.93 6.3611 14.8661 6.56231 12.3431 6.74304ZM28.9435 9.57221L28.8129 9.7129C28.4157 10.141 28.0903 10.4546 27.529 10.6448C26.9728 10.8332 26.1914 10.8983 24.8851 10.8544L24.8087 10.8518V9.74136L28.9435 9.57221ZM24.9669 9.89323V10.6987C26.2242 10.7375 26.9615 10.67 27.4782 10.4949C27.9403 10.3384 28.2307 10.0944 28.5645 9.74605L24.9669 9.89323Z" fill="#D8AA3F"/>
<path fill-rule="evenodd" clip-rule="evenodd" d="M15.457 9.49176C16.1338 9.14899 16.4678 9.28962 17.0566 9.27204C17.4521 10.0015 17.8301 10.0631 18.709 10.1509C19.0979 10.7273 19.6192 11.202 20.2294 11.5354C20.8396 11.8688 21.5207 12.0511 22.2158 12.067C24.8437 11.9966 25.6787 10.1597 27.4453 9.95758H29.3086C29.001 9.43024 28.7549 9.12262 28.0781 9.08747C26.6895 9.01715 24.8965 9.05231 23.332 9.40387L21.126 9.95758C20.4756 9.64118 18.9023 7.98883 17.8916 8.02399C17.3027 8.18219 17.3027 8.38434 17.0127 8.61286C16.4414 8.85895 15.8701 8.7359 15.457 9.49176Z" fill="#FFC84B"/>
<path fill-rule="evenodd" clip-rule="evenodd" d="M21.1349 9.87885L23.314 9.3319L23.3158 9.33147C24.8896 8.97781 26.6901 8.94287 28.082 9.01334L28.0821 9.01335C28.4324 9.03154 28.6791 9.12102 28.8785 9.28004C29.075 9.43675 29.2193 9.65654 29.3732 9.92043C29.3867 9.94354 29.3868 9.97208 29.3735 9.99528C29.3602 10.0185 29.3355 10.0328 29.3087 10.0328H27.4497C26.7072 10.1189 26.1349 10.5001 25.4994 10.9233C25.3996 10.9898 25.2983 11.0573 25.1944 11.1248C24.4316 11.6212 23.552 12.1064 22.2179 12.1421C22.2167 12.1422 22.2155 12.1422 22.2142 12.1421C21.5072 12.126 20.8143 11.9405 20.1937 11.6015C19.5834 11.268 19.0604 10.7954 18.667 10.2223C18.2479 10.18 17.9305 10.1409 17.6703 10.0204C17.4071 9.89845 17.2085 9.69692 17.0132 9.34829C16.8743 9.35077 16.7513 9.34551 16.6357 9.34056C16.2695 9.32491 15.9775 9.31242 15.4909 9.5589L15.4572 9.49225L15.3916 9.45642C15.608 9.06051 15.8696 8.89112 16.1506 8.79124C16.2678 8.74959 16.3889 8.71989 16.5078 8.69074C16.5282 8.68573 16.5485 8.68074 16.5688 8.6757C16.7055 8.64173 16.8403 8.60533 16.9742 8.5486C17.0386 8.49704 17.0879 8.44671 17.1351 8.3962C17.1439 8.38675 17.1527 8.37718 17.1617 8.36753C17.2015 8.32443 17.2428 8.27973 17.2902 8.23702C17.4106 8.12871 17.569 8.03382 17.8723 7.95233C17.8778 7.95086 17.8835 7.95001 17.8891 7.94982C18.1609 7.94036 18.4626 8.04394 18.7663 8.20091C19.0715 8.3586 19.3871 8.57457 19.6887 8.79956C19.8967 8.95469 20.0999 9.11557 20.2892 9.26533C20.374 9.33251 20.4561 9.39745 20.5345 9.45863C20.7776 9.6484 20.9827 9.7998 21.1349 9.87885ZM15.6568 9.32038C16.0539 9.16486 16.3431 9.17738 16.6608 9.19113C16.785 9.1965 16.9135 9.20206 17.0545 9.19785C17.0827 9.19701 17.109 9.21212 17.1224 9.23692C17.3155 9.59297 17.4986 9.7762 17.7331 9.88479C17.9732 9.99604 18.274 10.0328 18.7165 10.0771C18.7386 10.0793 18.7586 10.0912 18.771 10.1096C19.1533 10.6761 19.6657 11.1427 20.2653 11.4703C20.8645 11.7977 21.5333 11.9768 22.2158 11.9927C23.5086 11.9577 24.36 11.4895 25.1129 10.9996C25.2142 10.9337 25.314 10.8671 25.4132 10.801C26.0479 10.3777 26.6539 9.97346 27.4369 9.88385C27.4398 9.88353 27.4426 9.88336 27.4454 9.88336H29.1773C29.0505 9.67522 28.9325 9.51424 28.7853 9.39685C28.6156 9.26144 28.4009 9.17953 28.0744 9.16256C26.6893 9.09243 24.9043 9.12778 23.3494 9.47705L21.1443 10.0305C21.1272 10.0348 21.1092 10.0329 21.0934 10.0253C20.9225 9.94208 20.6959 9.77421 20.4425 9.57641C20.3626 9.51401 20.2797 9.44837 20.1943 9.38081C20.0059 9.23168 19.8056 9.07315 19.5994 8.91932C19.3001 8.69607 18.9921 8.48577 18.6977 8.33365C18.4055 8.18263 18.1345 8.09318 17.9027 8.09889C17.6229 8.17502 17.4886 8.25951 17.3902 8.34807C17.3483 8.38575 17.3126 8.42435 17.2732 8.46706C17.2638 8.47718 17.2542 8.48753 17.2443 8.49815C17.1933 8.55278 17.1359 8.61144 17.0591 8.67203C17.054 8.67605 17.0483 8.67939 17.0424 8.68196C16.8936 8.74604 16.7458 8.78568 16.6048 8.8207C16.5837 8.82595 16.5628 8.83109 16.5421 8.83617C16.423 8.86542 16.3102 8.89312 16.2007 8.93203C16.005 9.00158 15.8215 9.10645 15.6568 9.32038Z" fill="#D8AA3F"/>
<path fill-rule="evenodd" clip-rule="evenodd" d="M18.1206 8.70145C18.1278 8.74194 18.1261 8.78352 18.1156 8.82327C18.105 8.86301 18.0858 8.89996 18.0594 8.93149C18.033 8.96303 18 8.9884 17.9628 9.0058C17.9255 9.02321 17.8849 9.03223 17.8437 9.03223C17.8026 9.03223 17.762 9.02321 17.7247 9.0058C17.6875 8.9884 17.6545 8.96303 17.6281 8.93149C17.6017 8.89996 17.5825 8.86301 17.5719 8.82327C17.5614 8.78352 17.5597 8.74194 17.5669 8.70145C17.5785 8.63648 17.6126 8.57767 17.6632 8.5353C17.7138 8.49294 17.7777 8.46973 17.8437 8.46973C17.9098 8.46973 17.9737 8.49294 18.0243 8.5353C18.0749 8.57767 18.109 8.63648 18.1206 8.70145Z" fill="#FFC84B"/>
<path fill-rule="evenodd" clip-rule="evenodd" d="M17.8433 8.54395C17.7948 8.54395 17.7479 8.56099 17.7107 8.5921C17.6735 8.62321 17.6485 8.66641 17.6399 8.71412C17.6346 8.74385 17.6359 8.77439 17.6437 8.80358C17.6514 8.83276 17.6655 8.85989 17.6849 8.88306C17.7043 8.90622 17.7285 8.92484 17.7559 8.93763C17.7832 8.95041 17.8131 8.95703 17.8433 8.95703C17.8735 8.95703 17.9033 8.95041 17.9307 8.93763C17.958 8.92484 17.9823 8.90622 18.0016 8.88306C18.021 8.85989 18.0351 8.83276 18.0429 8.80358C18.0506 8.77439 18.0519 8.74385 18.0466 8.71412C18.038 8.66641 18.013 8.62321 17.9758 8.5921C17.9387 8.56099 17.8917 8.54395 17.8433 8.54395ZM17.6148 8.47753C17.6789 8.42391 17.7597 8.39453 17.8433 8.39453C17.9268 8.39453 18.0077 8.42391 18.0717 8.47753C18.1358 8.53114 18.1789 8.60558 18.1937 8.68781C18.2028 8.73905 18.2006 8.79168 18.1873 8.84198C18.1739 8.89228 18.1496 8.93904 18.1162 8.97896C18.0828 9.01887 18.0411 9.05097 17.9939 9.073C17.9467 9.09503 17.8953 9.10645 17.8433 9.10645C17.7912 9.10645 17.7398 9.09503 17.6926 9.073C17.6455 9.05097 17.6037 9.01887 17.5703 8.97896C17.5369 8.93904 17.5126 8.89228 17.4993 8.84198C17.4859 8.79167 17.4837 8.73905 17.4929 8.68781C17.5076 8.60558 17.5507 8.53114 17.6148 8.47753Z" fill="#D8AA3F"/>
<path fill-rule="evenodd" clip-rule="evenodd" d="M19.9216 9.47461C23.8679 4.71973 27.3132 5.2998 31.8132 4.97461C31.9626 5.52832 31.9011 6.35449 29.7654 7.08398C26.8298 7.52344 21.5828 10.6172 21.5564 10.6172C20.5808 10.5645 19.8953 9.54492 19.9216 9.47461Z" fill="#FFC84B"/>
<path fill-rule="evenodd" clip-rule="evenodd" d="M31.8726 4.89062L31.8896 4.95362C31.9682 5.24477 31.9925 5.61665 31.7105 6.00915C31.4326 6.39591 30.8646 6.79173 29.791 7.15845L29.7842 7.16077L29.7771 7.16183C28.323 7.37951 26.2875 8.25732 24.6049 9.08596C23.7652 9.49948 23.0162 9.89936 22.4754 10.1959C22.205 10.3442 21.9867 10.4666 21.8351 10.5519C21.8044 10.5693 21.7763 10.5851 21.7511 10.5993C21.7142 10.6201 21.6835 10.6374 21.6594 10.6509C21.6391 10.6623 21.623 10.6713 21.6117 10.6774C21.6062 10.6804 21.6012 10.6831 21.5972 10.6851C21.5954 10.686 21.5929 10.6873 21.5902 10.6885C21.589 10.689 21.5866 10.69 21.5837 10.6911C21.5822 10.6916 21.5786 10.6928 21.5764 10.6934C21.5729 10.6942 21.5629 10.6956 21.5564 10.6959H21.5543L21.5521 10.6958C21.0382 10.668 20.6061 10.3865 20.3094 10.11C20.1603 9.9711 20.0431 9.83139 19.9644 9.72093C19.9251 9.66585 19.8945 9.61686 19.8742 9.57796C19.8641 9.55875 19.8556 9.54009 19.85 9.52326C19.8471 9.51492 19.8444 9.50498 19.8429 9.4944C19.8417 9.48569 19.8399 9.46697 19.8476 9.44645L19.9216 9.47422L19.8608 9.42371C21.8435 7.03468 23.7054 5.98096 25.6402 5.48645C27.0331 5.13044 28.4657 5.06482 29.9989 4.99458C30.5859 4.96769 31.1876 4.94012 31.8075 4.89533L31.8726 4.89062ZM20.0087 9.4933C20.0103 9.49675 20.0122 9.50056 20.0144 9.50473C20.0304 9.53525 20.0566 9.57786 20.0932 9.62907C20.166 9.73119 20.2762 9.86285 20.4172 9.99423C20.6962 10.2542 21.0869 10.5051 21.5396 10.5365C21.5498 10.531 21.5639 10.5231 21.582 10.513C21.606 10.4995 21.6364 10.4823 21.6731 10.4617C21.6983 10.4474 21.7265 10.4316 21.7575 10.4141C21.9094 10.3286 22.1282 10.2058 22.3993 10.0572C22.9415 9.75991 23.6927 9.35888 24.535 8.94403C26.2138 8.11726 28.2657 7.22999 29.7466 7.00644C30.8041 6.64436 31.3331 6.26323 31.582 5.91683C31.808 5.60233 31.8092 5.30762 31.7525 5.05786C31.1459 5.10063 30.56 5.12747 29.9906 5.15355C28.464 5.22349 27.0555 5.28802 25.6794 5.63973C23.7884 6.12304 21.9623 7.14972 20.0087 9.4933Z" fill="#D8AA3F"/>
<path fill-rule="evenodd" clip-rule="evenodd" d="M27.9552 6.36849C27.9571 6.32485 27.9941 6.29107 28.0378 6.29305L30.9469 6.42489C30.9906 6.42687 31.0244 6.46385 31.0224 6.50749C31.0204 6.55113 30.9834 6.58491 30.9398 6.58293L28.0306 6.45109C27.987 6.44911 27.9532 6.41213 27.9552 6.36849ZM27.6389 6.84893C27.6426 6.80539 27.6808 6.77303 27.7243 6.77664L29.8425 6.95242C29.886 6.95603 29.9184 6.99426 29.9148 7.03779C29.9112 7.08133 29.8729 7.1137 29.8294 7.11008L27.7112 6.9343C27.6677 6.93069 27.6353 6.89247 27.6389 6.84893Z" fill="#D9A43E"/>
</g>
<defs>
<clipPath id="clip0_200_65661">
<rect width="60" height="45" fill="white" transform="translate(-7.5)"/>
</clipPath>
</defs>
</svg>
