<svg width="45" height="45" viewBox="0 0 45 45" fill="none" xmlns="http://www.w3.org/2000/svg">
<g clip-path="url(#clip0_200_65338)">
<path fill-rule="evenodd" clip-rule="evenodd" d="M-9.93359 0.0175781H54.8945V44.9561H-9.93359V0.0175781Z" fill="#FFE900"/>
<path fill-rule="evenodd" clip-rule="evenodd" d="M-9.96875 0.0175781L-9.89844 32.4141L40.5508 0L-9.96875 0.0175781Z" fill="#35A100"/>
<path fill-rule="evenodd" clip-rule="evenodd" d="M54.9736 44.9561L54.8506 11.2764L3.96191 44.9824L54.9736 44.9561Z" fill="#C70000"/>
<path fill-rule="evenodd" clip-rule="evenodd" d="M-9.94238 34.8574L-9.89844 45L1.11426 44.9824L54.877 8.93848L54.8242 0.123047L43.9434 0.0175781L-9.93359 34.8574H-9.94238Z" fill="black"/>
<path fill-rule="evenodd" clip-rule="evenodd" d="M32.9746 13.7637L32.1133 10.0547L35.04 12.4277L38.3799 10.2656L36.8506 13.8955L39.7861 16.2686L35.9014 16.1367L34.3809 19.7666L33.5107 16.0576L29.6348 15.9258L32.9746 13.7637ZM8.78711 29.4961L7.91699 25.7783L10.8438 28.1514L14.1836 25.9893L12.6543 29.6191L15.5898 31.9922L11.7139 31.8604L10.1846 35.4902L9.32324 31.7813L5.44727 31.6494L8.78711 29.4961Z" fill="white"/>
</g>
<defs>
<clipPath id="clip0_200_65338">
<rect width="60" height="45" fill="white" transform="translate(-7.5)"/>
</clipPath>
</defs>
</svg>
