<svg width="45" height="45" viewBox="0 0 45 45" fill="none" xmlns="http://www.w3.org/2000/svg">
<g clip-path="url(#clip0_200_65773)">
<rect x="-7.5" width="60" height="45" fill="white"/>
<path fill-rule="evenodd" clip-rule="evenodd" d="M38.1348 39.2037L41.092 34.8193L42.8458 36.0022L39.8885 40.3866L38.1348 39.2037Z" fill="black"/>
<path fill-rule="evenodd" clip-rule="evenodd" d="M41.5645 34.1177L44.5217 29.7334L46.2755 30.9163L43.3182 35.3006L41.5645 34.1177Z" fill="black"/>
<path fill-rule="evenodd" clip-rule="evenodd" d="M35.6797 37.5474L38.637 33.1631L40.3907 34.346L37.4334 38.7303L35.6797 37.5474Z" fill="black"/>
<path fill-rule="evenodd" clip-rule="evenodd" d="M39.1094 32.4615L42.0666 28.0771L43.8204 29.2601L40.8631 33.6444L39.1094 32.4615Z" fill="black"/>
<path fill-rule="evenodd" clip-rule="evenodd" d="M33.2236 35.8921L36.1809 31.5078L37.9346 32.6907L34.9774 37.075L33.2236 35.8921Z" fill="black"/>
<path fill-rule="evenodd" clip-rule="evenodd" d="M36.6543 30.8052L39.6116 26.4209L41.3653 27.6038L38.408 31.9881L36.6543 30.8052Z" fill="black"/>
<path fill-rule="evenodd" clip-rule="evenodd" d="M0.253733 29.7334L6.64143 39.2035L4.8877 40.3865L-1.5 30.9163L0.253733 29.7334Z" fill="black"/>
<path fill-rule="evenodd" clip-rule="evenodd" d="M6.13947 33.1631L9.09674 37.5474L7.34301 38.7303L4.38574 34.346L6.13947 33.1631Z" fill="black"/>
<path fill-rule="evenodd" clip-rule="evenodd" d="M2.70881 28.0771L5.66608 32.4615L3.91235 33.6444L0.955078 29.2601L2.70881 28.0771Z" fill="black"/>
<path fill-rule="evenodd" clip-rule="evenodd" d="M5.16389 26.4209L11.5516 35.891L9.79786 37.074L3.41016 27.6038L5.16389 26.4209Z" fill="black"/>
<path fill-rule="evenodd" clip-rule="evenodd" d="M22.5909 33.1166C16.17 33.1166 10.9648 27.9073 10.9648 21.4812C10.9648 19.4059 11.5077 17.4575 12.4591 15.7705C12.0539 16.5813 11.826 17.4963 11.826 18.4646C11.826 21.7966 14.525 24.0669 17.8544 24.0669C19.2926 24.0669 20.4783 23.7783 21.5144 22.5062C21.5872 22.4091 21.6598 22.3137 21.7321 22.2199L21.949 21.9435C22.0212 21.8531 22.0933 21.7644 22.1654 21.6774L22.3818 21.4217C23.7538 19.8361 25.1558 18.8955 27.1122 18.8955C30.3227 18.8955 33.3476 20.6383 32.9252 25.1442C32.776 26.7364 32.2827 28.187 31.2423 29.2382L31.2568 29.238C29.128 31.6185 26.0343 33.1166 22.5909 33.1166Z" fill="#0047A0"/>
<path fill-rule="evenodd" clip-rule="evenodd" d="M22.1854 10.2705C28.6063 10.2705 33.8115 15.4799 33.8115 21.906C33.8115 23.9812 33.2686 25.9296 32.3173 27.6166C32.7224 26.8058 32.9503 25.8908 32.9503 24.9225C32.9503 21.5905 30.2513 19.3203 26.922 19.3203C25.4838 19.3203 24.2981 19.6088 23.2619 20.881C21.5884 23.1134 20.0324 24.4916 17.6642 24.4916C14.4537 24.4916 11.4288 22.7488 11.8511 18.2429C12.0003 16.6508 12.4937 15.2001 13.5341 14.1489L13.5196 14.1491C15.6484 11.7686 18.7421 10.2705 22.1854 10.2705Z" fill="#CD2E3A"/>
<path fill-rule="evenodd" clip-rule="evenodd" d="M38.408 11.3984L41.3653 15.7828L39.6116 16.9657L36.6543 12.5813L38.408 11.3984Z" fill="black"/>
<path fill-rule="evenodd" clip-rule="evenodd" d="M34.9774 6.31152L37.9346 10.6959L36.1809 11.8788L33.2236 7.49443L34.9774 6.31152Z" fill="black"/>
<path fill-rule="evenodd" clip-rule="evenodd" d="M37.4334 4.65527L43.8211 14.1254L42.0674 15.3083L35.6797 5.83818L37.4334 4.65527Z" fill="black"/>
<path fill-rule="evenodd" clip-rule="evenodd" d="M43.3182 8.08496L46.2755 12.4693L44.5217 13.6522L41.5645 9.26787L43.3182 8.08496Z" fill="black"/>
<path fill-rule="evenodd" clip-rule="evenodd" d="M39.8885 3L42.8458 7.38433L41.092 8.56723L38.1348 4.18291L39.8885 3Z" fill="black"/>
<path fill-rule="evenodd" clip-rule="evenodd" d="M3.41016 15.7817L9.79786 6.31152L11.5516 7.49443L5.16389 16.9646L3.41016 15.7817Z" fill="black"/>
<path fill-rule="evenodd" clip-rule="evenodd" d="M0.955078 14.1254L7.34278 4.65527L9.09651 5.83818L2.70881 15.3083L0.955078 14.1254Z" fill="black"/>
<path fill-rule="evenodd" clip-rule="evenodd" d="M-1.5 12.4701L4.8877 3L6.64143 4.18291L0.253733 13.6531L-1.5 12.4701Z" fill="black"/>
</g>
<defs>
<clipPath id="clip0_200_65773">
<rect width="60" height="45" fill="white" transform="translate(-7.5)"/>
</clipPath>
</defs>
</svg>
