<svg width="45" height="45" viewBox="0 0 45 45" fill="none" xmlns="http://www.w3.org/2000/svg">
<g clip-path="url(#clip0_200_65818)">
<path fill-rule="evenodd" clip-rule="evenodd" d="M-7.5 0H52.5V45H-7.5V0Z" fill="#00ABC2"/>
<path fill-rule="evenodd" clip-rule="evenodd" d="M-1.85605 43.7812C-1.54668 44.0812 -1.6498 44.5781 -0.796679 44.5125C0.49707 44.5125 0.53457 43.725 0.53457 43.1719C0.53457 42.6187 -1.40605 41.85 -1.4998 41.0344C-1.59355 40.2187 -1.0498 40.0031 -0.599805 40.0031C-0.15918 40.0031 0.150195 40.2562 0.150195 40.4812C0.150195 40.7062 -0.0560546 40.7812 -0.374804 40.7812C-0.693555 40.7812 -0.23418 40.6219 -0.506055 40.5C-0.77793 40.3781 -0.956054 40.6875 -0.956054 40.875C-0.956054 41.0812 -0.281054 41.1375 0.168946 40.9969C0.262696 41.4375 0.300195 41.4656 -0.327929 42.2156C0.12207 41.925 0.15957 41.8594 0.656446 42.0281C0.15957 41.5969 0.534571 40.7344 0.543946 40.5187C0.553321 40.3031 0.450196 40.0406 0.262696 39.9094C-0.102929 39.5812 -0.881055 39.5625 -1.3498 39.7781C-2.03418 40.0781 -2.07168 40.9781 -1.89355 41.2781L0.000195503 43.1906C0.131445 43.4156 0.187696 44.0531 -0.618555 44.0812C-1.4623 44.1469 -1.7623 42.9937 -1.9123 42.6094C-2.10918 43.0312 -2.33418 44.1844 -3.1873 44.1187C-3.99355 44.0906 -4.14355 43.4625 -4.0123 43.2281L-2.07168 41.2594C-1.88418 40.9594 -1.92168 40.0594 -2.60605 39.7594C-3.0748 39.5437 -3.85293 39.5719 -4.20918 39.8906C-4.41543 40.0219 -4.52793 40.275 -4.50918 40.5C-4.49043 40.725 -4.1248 41.5781 -4.6123 42C-4.1248 41.8406 -4.07793 41.9062 -3.62793 42.1875C-4.25605 41.4469 -4.20918 41.4187 -4.1248 40.9687C-3.6748 41.1187 -2.9998 41.0625 -2.9998 40.8656C-2.9998 40.6687 -3.1873 40.3406 -3.45918 40.4719C-3.72168 40.6031 -3.27168 40.7625 -3.59043 40.7625C-3.8998 40.7625 -4.1248 40.6969 -4.1248 40.4812C-4.1248 40.2656 -3.81543 39.9844 -3.36543 39.9844C-2.91543 39.9844 -2.38105 40.2094 -2.4748 41.025C-2.56855 41.8406 -4.5373 42.7219 -4.5373 43.275C-4.5373 43.8375 -4.40605 44.5031 -3.1123 44.5031C-2.26855 44.5687 -2.16543 44.0719 -1.85605 43.7719V43.7812Z" fill="#FFEC2D"/>
<path fill-rule="evenodd" clip-rule="evenodd" d="M-1.95957 32.1842C-1.6502 31.8842 -1.39707 31.003 -0.55332 31.0592C0.740429 31.0592 1.22793 31.7811 1.22793 32.3342C1.22793 32.8873 -1.39707 37.3967 -1.49082 38.2123C-1.58457 39.028 -1.04082 39.253 -0.600195 39.253C-0.150196 39.253 0.159179 38.9998 0.159179 38.7655C0.159179 38.5311 -0.0658202 38.4842 -0.375196 38.4842C-0.68457 38.4842 -0.243946 38.6436 -0.506445 38.7655C-0.768946 38.8873 -0.956445 38.578 -0.956445 38.3811C-0.956445 38.1842 -0.281445 38.1186 0.168555 38.2686C0.25293 37.828 0.29043 37.7998 -0.328321 37.0498C0.12168 37.3311 0.15918 37.4061 0.656054 37.2373C0.15918 37.6686 0.524805 38.5217 0.543555 38.7373C0.562305 38.953 0.449804 39.2248 0.252929 39.3561C-0.103321 39.6842 -0.890821 39.6936 -1.35957 39.4873C-2.03457 39.178 -2.07207 38.2873 -1.89395 37.9873L0.656054 32.4936C0.796679 32.2686 0.44043 31.5186 -0.36582 31.4905C-1.20957 31.4248 -1.5002 32.3155 -1.6502 32.6998L-0.497071 32.6061C-0.497071 32.6061 -0.450196 32.7936 -0.497071 32.9061C-0.883961 32.9344 -1.26895 32.9844 -1.6502 33.0561L-1.69707 33.6373H-1.13457L-1.17207 33.8998C-1.17207 33.8998 -1.6502 33.8623 -1.69707 33.8998C-1.74395 33.928 -1.79082 34.4811 -1.79082 34.4811C-1.79082 34.4811 -1.88457 34.5186 -1.97832 34.5186C-2.07207 34.5186 -2.16582 34.4811 -2.16582 34.4811C-2.16582 34.4811 -2.20332 33.928 -2.2502 33.8998C-2.29707 33.8623 -2.7752 33.8998 -2.7752 33.8998L-2.82207 33.6373H-2.2502L-2.29707 33.0561C-2.29707 33.0561 -2.85957 32.9436 -3.4502 32.9061C-3.4877 32.7936 -3.4502 32.6155 -3.4502 32.6155L-2.29707 32.6998C-2.44707 32.3155 -2.7377 31.4248 -3.58145 31.4811C-4.3877 31.5186 -4.74395 32.2686 -4.6127 32.4936L-2.0627 37.9873C-1.88457 38.278 -1.92207 39.178 -2.59707 39.4873C-3.06582 39.6936 -3.85332 39.6748 -4.20957 39.3561C-4.40645 39.2248 -4.51895 38.9623 -4.5002 38.7467C-4.48145 38.5311 -4.1252 37.6592 -4.6127 37.2467C-4.11582 37.4061 -4.06895 37.3405 -3.62832 37.0498C-4.24707 37.7998 -4.20957 37.828 -4.11582 38.2686C-3.6752 38.1186 -3.0002 38.1748 -3.0002 38.3811C-3.0002 38.5686 -3.1877 38.8967 -3.4502 38.7655C-3.7127 38.6342 -3.2627 38.4842 -3.58145 38.4842C-3.89082 38.4842 -4.11582 38.5405 -4.11582 38.7655C-4.11582 38.9905 -3.80645 39.253 -3.36582 39.253C-2.9252 39.253 -2.38145 39.028 -2.46582 38.2217C-2.55957 37.4061 -5.18457 32.878 -5.18457 32.3342C-5.18457 31.7717 -4.69707 31.0686 -3.40332 31.0686C-2.55957 31.003 -2.2502 31.8842 -1.9502 32.1842H-1.95957Z" fill="#FFEC2D"/>
<path fill-rule="evenodd" clip-rule="evenodd" d="M-1.95957 29.9433C-1.6502 30.2433 -1.39707 31.1246 -0.55332 31.0683C0.740429 31.0683 1.22793 30.3464 1.22793 29.7933C1.22793 29.2402 -1.39707 24.7308 -1.49082 23.9152C-1.58457 23.0996 -1.04082 22.8746 -0.600195 22.8746C-0.150196 22.8746 0.159179 23.1277 0.159179 23.3621C0.159179 23.5964 -0.0658202 23.6433 -0.375196 23.6433C-0.68457 23.6433 -0.243946 23.4933 -0.506445 23.3621C-0.768946 23.2308 -0.956445 23.5496 -0.956445 23.7464C-0.956445 23.9433 -0.281445 24.0089 0.168555 23.8589C0.25293 24.2996 0.29043 24.3277 -0.328321 25.0777C0.12168 24.7964 0.15918 24.7214 0.656054 24.8902C0.15918 24.4589 0.524805 23.6058 0.543555 23.3902C0.562305 23.1746 0.449804 22.9027 0.252929 22.7714C-0.103321 22.4527 -0.890821 22.4339 -1.35957 22.6402C-2.03457 22.9496 -2.07207 23.8402 -1.89395 24.1402L0.656054 29.6246C0.796679 29.8496 0.44043 30.5996 -0.36582 30.6277C-1.20957 30.6933 -1.5002 29.8027 -1.6502 29.4183L-0.497071 29.5121C-0.497071 29.5121 -0.450196 29.3246 -0.497071 29.2121C-0.883961 29.1838 -1.26895 29.1337 -1.6502 29.0621L-1.69707 28.4808H-1.13457L-1.17207 28.2183C-1.17207 28.2183 -1.6502 28.2558 -1.69707 28.2183C-1.74395 28.1902 -1.79082 27.6371 -1.79082 27.6371C-1.79082 27.6371 -1.88457 27.5996 -1.97832 27.5996C-2.07207 27.5996 -2.16582 27.6371 -2.16582 27.6371C-2.16582 27.6371 -2.20332 28.1902 -2.2502 28.2183C-2.29707 28.2558 -2.7752 28.2183 -2.7752 28.2183L-2.82207 28.4808H-2.2502L-2.29707 29.0621C-2.29707 29.0621 -2.85957 29.1746 -3.4502 29.2121C-3.4877 29.3246 -3.4502 29.5027 -3.4502 29.5027L-2.29707 29.4183C-2.44707 29.8027 -2.7377 30.6933 -3.58145 30.6371C-4.3877 30.5996 -4.74395 29.8496 -4.6127 29.6246L-2.0627 24.1402C-1.88457 23.8402 -1.92207 22.9496 -2.59707 22.6402C-3.06582 22.4339 -3.85332 22.4527 -4.20957 22.7714C-4.40645 22.9027 -4.51895 23.1652 -4.5002 23.3808C-4.48145 23.5964 -4.1252 24.4589 -4.6127 24.8808C-4.11582 24.7214 -4.06895 24.7871 -3.62832 25.0777C-4.24707 24.3277 -4.20957 24.2996 -4.11582 23.8589C-3.6752 24.0089 -3.0002 23.9527 -3.0002 23.7464C-3.0002 23.5589 -3.1877 23.2308 -3.4502 23.3621C-3.7127 23.4933 -3.2627 23.6433 -3.58145 23.6433C-3.89082 23.6433 -4.11582 23.5871 -4.11582 23.3621C-4.11582 23.1371 -3.80645 22.8746 -3.36582 22.8746C-2.9252 22.8746 -2.38145 23.0996 -2.46582 23.9058C-2.55957 24.7214 -5.18457 29.2496 -5.18457 29.7933C-5.18457 30.3558 -4.69707 31.0589 -3.40332 31.0589C-2.55957 31.1246 -2.2502 30.2433 -1.9502 29.9433H-1.95957Z" fill="#FFEC2D"/>
<path fill-rule="evenodd" clip-rule="evenodd" d="M-1.95957 15.0563C-1.6502 14.7563 -1.39707 13.875 -0.55332 13.9313C0.740429 13.9313 1.22793 14.6532 1.22793 15.2063C1.22793 15.7594 -1.39707 20.2688 -1.49082 21.0938C-1.58457 21.9 -1.04082 22.125 -0.600195 22.125C-0.150196 22.125 0.159179 21.8719 0.159179 21.6469C0.159179 21.4219 -0.0658202 21.3469 -0.375196 21.3469C-0.68457 21.3469 -0.243946 21.5157 -0.506445 21.6469C-0.768946 21.7782 -0.956445 21.45 -0.956445 21.2532C-0.956445 21.0657 -0.281445 20.9907 0.168555 21.1407C0.25293 20.7 0.29043 20.6719 -0.328321 19.9219C0.12168 20.2125 0.15918 20.2782 0.656054 20.1094C0.15918 20.5407 0.524805 21.4032 0.543555 21.6094C0.562305 21.8157 0.449804 22.0969 0.252929 22.2282C-0.103321 22.5563 -0.890821 22.5657 -1.35957 22.3594C-2.03457 22.05 -2.07207 21.1594 -1.89395 20.8594L0.656054 15.375C0.796679 15.15 0.44043 14.4 -0.36582 14.3719C-1.20957 14.3063 -1.5002 15.1969 -1.6502 15.5813L-0.497071 15.4875C-0.497071 15.4875 -0.450196 15.675 -0.497071 15.7875C-1.09707 15.825 -1.6502 15.9375 -1.6502 15.9375L-1.69707 16.5188H-1.13457L-1.17207 16.7813C-1.17207 16.7813 -1.6502 16.7532 -1.69707 16.7813C-1.74395 16.8094 -1.79082 17.3719 -1.79082 17.3719C-1.79082 17.3719 -1.88457 17.4 -1.97832 17.4C-2.07207 17.4 -2.16582 17.3719 -2.16582 17.3719C-2.16582 17.3719 -2.20332 16.8094 -2.2502 16.7813C-2.29707 16.7532 -2.7752 16.7813 -2.7752 16.7813L-2.82207 16.5188H-2.2502L-2.29707 15.9375C-2.29707 15.9375 -2.85957 15.825 -3.4502 15.7875C-3.4877 15.675 -3.4502 15.4969 -3.4502 15.4969L-2.29707 15.5813C-2.44707 15.1969 -2.7377 14.3063 -3.58145 14.3625C-4.3877 14.4 -4.74395 15.15 -4.6127 15.375L-2.0627 20.8594C-1.88457 21.1594 -1.92207 22.05 -2.59707 22.3594C-3.06582 22.5657 -3.85332 22.5469 -4.20957 22.2282C-4.40645 22.0969 -4.51895 21.8344 -4.5002 21.6188C-4.48145 21.4032 -4.1252 20.5407 -4.6127 20.1188C-4.11582 20.2782 -4.06895 20.2125 -3.62832 19.9219C-4.24707 20.6719 -4.20957 20.7 -4.11582 21.1407C-3.6752 20.9907 -3.0002 21.0563 -3.0002 21.2532C-3.0002 21.4407 -3.1877 21.7688 -3.4502 21.6375C-3.7127 21.5157 -3.2627 21.3563 -3.58145 21.3563C-3.89082 21.3563 -4.11582 21.4125 -4.11582 21.6375C-4.11582 21.8625 -3.80645 22.125 -3.36582 22.125C-2.9252 22.125 -2.38145 21.9 -2.46582 21.0938C-2.55957 20.2782 -5.18457 15.7594 -5.18457 15.2063C-5.18457 14.6532 -4.69707 13.9407 -3.40332 13.9407C-2.55957 13.875 -2.2502 14.7563 -1.9502 15.0657L-1.95957 15.0563Z" fill="#FFEC2D"/>
<path fill-rule="evenodd" clip-rule="evenodd" d="M-1.95957 12.8154C-1.6502 13.1154 -1.39707 14.006 -0.55332 13.9404C0.740429 13.9404 1.22793 13.2185 1.22793 12.6654C1.22793 12.1122 -1.39707 7.60287 -1.49082 6.78725C-1.58457 5.97162 -1.04082 5.74662 -0.600195 5.74662C-0.150196 5.74662 0.159179 6.00912 0.159179 6.23412C0.159179 6.45912 -0.0658202 6.52475 -0.375196 6.52475C-0.68457 6.52475 -0.243946 6.36537 -0.506445 6.23412C-0.768946 6.10287 -0.956445 6.42162 -0.956445 6.6185C-0.956445 6.81537 -0.281445 6.881 0.168555 6.731C0.25293 7.17162 0.29043 7.19975 -0.328321 7.94975C0.12168 7.6685 0.15918 7.5935 0.656054 7.76225C0.15918 7.34037 0.524805 6.47787 0.543555 6.26225C0.562305 6.04662 0.449804 5.77475 0.252929 5.6435C-0.103321 5.32475 -0.890821 5.306 -1.35957 5.52162C-2.03457 5.82162 -2.07207 6.72162 -1.89395 7.01225L0.656054 12.506C0.796679 12.731 0.44043 13.481 -0.36582 13.5185C-1.20957 13.5747 -1.5002 12.6935 -1.6502 12.2997L-0.497071 12.3935C-0.497071 12.3935 -0.450196 12.206 -0.497071 12.0935C-0.883755 12.068 -1.26872 12.0211 -1.6502 11.9529L-1.69707 11.3622H-1.13457L-1.17207 11.0997C-1.17207 11.0997 -1.6502 11.1372 -1.69707 11.0997C-1.74395 11.0716 -1.79082 10.5185 -1.79082 10.5185C-1.79082 10.5185 -1.88457 10.481 -1.97832 10.481C-2.07207 10.481 -2.16582 10.5185 -2.16582 10.5185C-2.16582 10.5185 -2.20332 11.0716 -2.2502 11.0997C-2.29707 11.1372 -2.7752 11.0997 -2.7752 11.0997L-2.82207 11.3622H-2.2502L-2.29707 11.9529C-2.29707 11.9529 -2.85957 12.056 -3.4502 12.0935C-3.4877 12.2154 -3.4502 12.3935 -3.4502 12.3935L-2.29707 12.2997C-2.44707 12.6935 -2.7377 13.5747 -3.58145 13.5185C-4.3877 13.481 -4.74395 12.731 -4.6127 12.506L-2.0627 7.01225C-1.88457 6.72162 -1.92207 5.82162 -2.59707 5.51225C-3.06582 5.306 -3.85332 5.32475 -4.20957 5.6435C-4.40645 5.77475 -4.51895 6.03725 -4.5002 6.25287C-4.48145 6.4685 -4.1252 7.34037 -4.6127 7.75287C-4.11582 7.5935 -4.06895 7.65912 -3.62832 7.94975C-4.24707 7.19975 -4.20957 7.17162 -4.11582 6.731C-3.66582 6.881 -3.0002 6.82475 -3.0002 6.6185C-3.0002 6.431 -3.1877 6.10287 -3.4502 6.23412C-3.7127 6.36537 -3.2627 6.52475 -3.58145 6.52475C-3.89082 6.52475 -4.11582 6.45912 -4.11582 6.23412C-4.11582 6.00912 -3.80645 5.74662 -3.36582 5.74662C-2.9252 5.74662 -2.37207 5.97162 -2.46582 6.77787C-2.55957 7.5935 -5.18457 12.1216 -5.18457 12.6654C-5.18457 13.2279 -4.69707 13.9404 -3.40332 13.9404C-2.55957 14.006 -2.2502 13.1154 -1.9502 12.8154H-1.95957Z" fill="#FFEC2D"/>
<path fill-rule="evenodd" clip-rule="evenodd" d="M-1.85605 1.2186C-1.54668 0.918598 -1.6498 0.421723 -0.796679 0.487348C0.49707 0.487348 0.53457 1.27485 0.53457 1.82797C0.53457 2.3811 -1.40605 3.14985 -1.4998 3.96547C-1.59355 4.7811 -1.0498 4.99672 -0.599805 4.99672C-0.15918 4.99672 0.150195 4.7436 0.150195 4.5186C0.150195 4.2936 -0.0560546 4.2186 -0.374804 4.2186C-0.693555 4.2186 -0.23418 4.37797 -0.506055 4.49985C-0.77793 4.62172 -0.956054 4.31235 -0.956054 4.12485C-0.956054 3.9186 -0.281054 3.85297 0.168946 4.00297C0.262696 3.56235 0.300195 3.53422 -0.327929 2.78422C0.12207 3.07485 0.15957 3.14047 0.656446 2.97172C0.15957 3.40297 0.534571 4.26547 0.543946 4.4811C0.553321 4.69672 0.450196 4.95922 0.262696 5.09047C-0.112304 5.43735 -0.890429 5.43735 -1.35918 5.2311C-2.04355 4.9311 -2.08105 4.0311 -1.90293 3.7311L0.000195503 1.80922C0.131445 1.58422 0.187696 0.946723 -0.618555 0.918598C-1.4623 0.852973 -1.7623 2.0061 -1.9123 2.39047C-2.10918 1.9686 -2.33418 0.806098 -3.1873 0.871723C-3.99355 0.899848 -4.14355 1.52797 -4.0123 1.76235L-2.07168 3.7311C-1.88418 4.0311 -1.92168 4.9311 -2.60605 5.2311C-3.0748 5.44672 -3.85293 5.42797 -4.20918 5.09985C-4.41543 4.9686 -4.52793 4.71547 -4.50918 4.49047C-4.49043 4.26547 -4.1248 3.41235 -4.6123 2.99047C-4.1248 3.14985 -4.07793 3.08422 -3.6373 2.80297C-4.25605 3.5436 -4.20918 3.57172 -4.1248 4.02172C-3.6748 3.87172 -2.9998 3.92797 -2.9998 4.12485C-2.9998 4.32172 -3.1873 4.64985 -3.45918 4.5186C-3.72168 4.38735 -3.27168 4.22797 -3.59043 4.22797C-3.8998 4.22797 -4.1248 4.2936 -4.1248 4.50922C-4.1248 4.72485 -3.81543 5.0061 -3.36543 5.0061C-2.91543 5.0061 -2.38105 4.7811 -2.4748 3.96547C-2.56855 3.14985 -4.5373 2.2686 -4.5373 1.71547C-4.5373 1.15297 -4.40605 0.487348 -3.1123 0.487348C-2.26855 0.421723 -2.16543 0.918598 -1.85605 1.2186Z" fill="#FFEC2D"/>
<path d="M33.8924 19.3042C33.8924 14.8473 30.0801 11.2344 25.3774 11.2344C20.6746 11.2344 16.8623 14.8473 16.8623 19.3042C16.8623 23.761 20.6746 27.374 25.3774 27.374C30.0801 27.374 33.8924 23.761 33.8924 19.3042Z" fill="#FFEC2D"/>
<path fill-rule="evenodd" clip-rule="evenodd" d="M24.9775 6.42114C24.8974 6.42114 24.5172 9.10273 24.3771 9.70309C24.2371 11.0539 26.1782 11.0039 25.858 9.65306L24.9775 6.41113V6.42114ZM25.6579 32.4166C25.7279 32.4166 26.3083 29.765 26.4984 29.1746C26.7285 27.8438 24.7874 27.7738 24.9975 29.1346L25.6579 32.4166ZM12.0898 19.2488C12.0898 19.3188 14.8815 19.8791 15.5019 20.0592C16.9027 20.2894 17.0028 18.4583 15.5619 18.6584L12.0898 19.2588V19.2488ZM39.276 19.5689C39.276 19.4989 36.4543 19.0386 35.8239 18.8785C34.4131 18.7084 34.4031 20.5395 35.8239 20.2894L39.276 19.5689ZM14.9515 10.7437C14.9015 10.7937 16.7426 12.875 17.1128 13.3853C18.0734 14.3859 19.3441 12.985 18.0734 12.3046L14.9515 10.7537V10.7437ZM36.0741 27.8539C36.1241 27.8038 34.1029 25.8827 33.6827 25.4124C32.632 24.4919 31.5014 25.9827 32.8221 26.5631L36.0741 27.8639V27.8539ZM19.164 7.84198C19.104 7.872 19.9645 10.4535 20.1046 11.0639C20.5849 12.3346 22.3259 11.5042 21.4254 10.4135L19.174 7.84198H19.164ZM31.4813 31.0958C31.5514 31.0658 30.881 28.4342 30.7909 27.8238C30.4007 26.5231 28.6096 27.2235 29.4201 28.3842L31.4914 31.0858L31.4813 31.0958ZM34.5131 9.64305C34.4531 9.59302 32.2318 11.304 31.6915 11.6442C30.6208 12.5448 32.0717 13.7655 32.8121 12.5748L34.5131 9.64305ZM16.2023 29.0245C16.2523 29.0746 18.6037 27.5237 19.164 27.2135C20.2947 26.393 18.9439 25.0722 18.1134 26.2129L16.2123 29.0245H16.2023ZM12.7002 14.606C12.6702 14.666 15.1016 16.0769 15.6319 16.4471C16.8827 17.0975 17.6131 15.3965 16.1823 15.1263L12.7002 14.606ZM38.0853 24.4518C38.1153 24.3918 35.7839 22.8209 35.2836 22.4206C34.0829 21.6802 33.2324 23.3312 34.6432 23.6914L38.0853 24.4518ZM30.0205 7.15157C29.9504 7.13156 28.5596 9.49296 28.1894 10.0033C28.1901 10.1662 28.2418 10.3249 28.3372 10.457C28.4326 10.5891 28.567 10.688 28.7215 10.7399C28.876 10.7917 29.0428 10.7939 29.1986 10.7462C29.3544 10.6984 29.4913 10.6031 29.5902 10.4735L30.0205 7.15157ZM20.6249 31.5961C20.6949 31.6261 22.2559 29.3547 22.6561 28.8645C23.3865 27.7038 21.6155 26.9633 21.2853 28.3041L20.6249 31.5961ZM12.8703 24.662C12.9003 24.722 15.672 24.0616 16.3224 23.9615C17.6832 23.5813 16.9227 21.9003 15.722 22.6808L12.8703 24.662ZM38.0953 14.3859C38.0753 14.3258 35.2636 14.7961 34.6132 14.8561C33.2124 15.1463 33.8628 16.8773 35.1135 16.1769L38.0953 14.3859Z" fill="#FFEC2D"/>
<path fill-rule="evenodd" clip-rule="evenodd" d="M27.7388 6.59106C27.6688 6.58105 26.7282 9.13257 26.4481 9.6929C26.0378 10.9937 27.949 11.3139 27.9189 9.93304L27.7488 6.58105L27.7388 6.59106ZM22.8859 32.1963C22.956 32.2163 24.0867 29.7248 24.4068 29.1745C24.9071 27.9137 23.026 27.4735 22.956 28.8443L22.8759 32.1963H22.8859ZM21.9154 6.84121C21.8453 6.86122 22.1055 9.56282 22.1055 10.1832C22.2956 11.514 24.1667 11.0537 23.5463 9.81297L21.9154 6.84121ZM28.7194 32.0462C28.7895 32.0362 28.7194 29.3246 28.7694 28.7042C28.6794 27.3534 26.7682 27.6936 27.3086 28.9743L28.7094 32.0462H28.7194ZM17.0925 9.08254C17.0325 9.12256 18.3633 11.514 18.6134 12.0843C19.3338 13.255 20.8848 12.1544 19.7941 11.2238L17.0925 9.08254ZM33.5823 29.8849C33.6423 29.8449 32.4816 27.3634 32.2815 26.783C31.6511 25.5723 30.0302 26.5729 31.0408 27.5635L33.5823 29.8849ZM13.5704 12.4445C13.5304 12.5046 15.6817 14.2856 16.1319 14.7459C17.2426 15.5864 18.2732 14.0255 16.9124 13.5352L13.5704 12.4445ZM37.0043 26.4228C37.0443 26.3628 35.0332 24.4417 34.6129 23.9614C33.5723 23.0508 32.4316 24.5417 33.7524 25.1221L37.0043 26.4228ZM12.0295 16.637C12.0095 16.7071 14.6611 17.7177 15.2414 18.0078C16.5822 18.4581 17.0125 16.667 15.5516 16.627L12.0295 16.637ZM38.7854 22.4205C38.8154 22.3604 36.2439 21.1797 35.6835 20.8495C34.3828 20.3092 33.8124 22.0702 35.2633 22.2103L38.7854 22.4205ZM11.9395 21.7901C11.9495 21.8501 14.8112 21.8101 15.4615 21.8601C16.8824 21.7901 16.5422 19.979 15.1814 20.4693L11.9395 21.7901ZM38.9755 17.2874C38.9755 17.2174 36.1138 17.0673 35.4734 16.9772C34.0426 16.9572 34.2527 18.7883 35.6435 18.3781L38.9755 17.2774V17.2874ZM14.3909 27.1332C14.4309 27.1933 16.9925 25.9726 17.5928 25.7424C18.8335 25.092 17.6929 23.6012 16.7023 24.6118L14.3909 27.1332ZM36.6341 11.8942C36.5941 11.8342 33.9625 12.8848 33.3321 13.0749C32.0414 13.6452 33.072 15.2062 34.1326 14.2656L36.6341 11.8942ZM18.5534 30.6754C18.6134 30.7054 20.4445 28.6241 20.9048 28.1839C21.7753 27.1132 20.1043 26.1827 19.614 27.4835L18.5534 30.6754ZM32.5317 8.28206C32.4816 8.24204 30.5005 10.1932 30.0102 10.6034C29.0696 11.614 30.6706 12.6547 31.2509 11.3939L32.5217 8.28206H32.5317Z" fill="#FFEC2D"/>
<path fill-rule="evenodd" clip-rule="evenodd" d="M12.358 24.6715C12.5108 25.1876 12.5327 28.0773 15.6117 30.8639C18.6689 33.6298 23.9097 34.2491 23.9097 34.2491C23.9097 34.2491 23.9316 34.6413 23.5603 34.6619C23.1891 34.7032 21.3985 34.3523 20.5032 34.0839C19.6297 33.8363 18.8436 33.3821 18.7562 33.4028C18.647 33.4441 18.4723 33.733 18.2103 33.6918C17.9482 33.6505 16.6817 32.412 16.1139 32.0817C14.9783 31.1539 13.9729 30.0926 13.1223 28.9236C12.5108 27.9948 12.358 27.3755 12.1614 27.3755C11.9649 27.3755 11.2443 27.8297 11.2443 27.8297C11.2443 27.8297 10.5892 26.9008 10.0214 25.4146C9.43182 23.9285 9.49734 23.0615 9.62836 22.9996C9.78122 22.9377 9.78121 24.0936 10.218 25.1463C10.6547 26.2196 11.2661 26.5499 11.2661 26.5499C11.2661 26.5499 10.8731 25.9926 10.5673 24.6096C10.2616 23.2267 10.1306 21.885 10.349 21.4721C10.5673 21.0593 10.7639 20.9355 10.7857 20.9561C10.8294 20.9974 10.4145 21.596 10.6984 23.1854C10.9823 24.7747 11.7465 26.1164 11.9212 26.0545C12.0959 25.9926 11.8121 25.6623 11.7029 24.7335C11.5937 23.8046 11.8121 23.2267 12.0523 23.1441C12.1614 23.0615 12.3361 24.1761 12.358 24.6715ZM10.218 27.3136C9.62836 26.7976 8.71121 25.0018 8.51467 25.0844C8.2963 25.1876 9.99959 27.7677 10.0433 27.9741C10.0869 28.2218 10.4582 28.9236 10.1743 28.8204C9.8904 28.7172 7.85957 26.6944 8.09977 27.0866C8.33998 27.4788 9.86856 29.2539 9.78121 29.3571C9.69387 29.4603 8.51467 28.3663 8.471 28.5108C8.44916 28.6347 9.62836 29.708 9.60652 29.8319C9.58469 29.9557 8.84223 29.1507 8.84223 29.3158C8.84223 29.4809 9.60652 30.286 9.60652 30.4098C9.60652 30.5337 8.95141 29.8319 9.16978 30.2034C9.36632 30.6162 9.93407 30.9671 9.91224 31.091C9.8904 31.2148 9.43183 30.9258 9.43183 30.9878C9.43183 31.0497 10.2835 31.3387 10.48 31.5657C10.6984 31.7928 12.0959 33.3202 13.1441 34.0839C14.1923 34.8477 17.2058 36.1894 17.4241 36.1894C17.6207 36.1894 17.9264 35.7765 17.8609 35.6114C17.7954 35.4463 14.8474 34.4968 14.0394 33.795C13.2096 33.0932 11.2006 31.4006 11.0259 31.318C10.8731 31.2148 10.4145 31.2561 10.4145 31.1529C10.4145 31.0497 11.0041 31.2148 10.9604 31.1529C10.9386 31.091 10.1524 30.7607 10.1743 30.6988C10.218 30.6369 10.7202 30.8226 10.7202 30.7607C10.7202 30.6988 9.80306 30.224 9.84673 30.1208C9.86857 30.0176 10.5237 30.4098 10.5237 30.3272C10.5237 30.286 9.65019 29.708 9.67203 29.6048C9.69387 29.5016 10.349 30.0589 10.3271 29.9351C10.3053 29.8112 9.80305 29.1094 9.80305 29.0268C9.80305 28.9236 10.5892 29.7286 10.6765 29.5635C10.7202 29.419 10.3927 28.0773 10.4145 28.0567C10.4363 28.0361 11.0041 28.3457 11.0914 28.1599C11.2006 27.9535 10.6984 27.6852 10.218 27.3136ZM20.2848 37.4691C19.8699 37.531 19.6734 37.3865 19.9136 37.0563C20.2411 37.0563 21.1146 36.788 21.4203 36.6641C21.726 36.5403 22.0536 36.3751 22.3156 36.1481C22.5777 35.8797 22.7524 36.2926 22.5995 36.5196C22.4903 36.6641 21.9881 36.9324 21.6168 37.0769C21.0709 37.2421 20.5905 37.4898 20.2848 37.4691ZM23.0144 36.4164C22.7305 36.1274 22.9707 35.921 23.3856 35.694C23.9971 35.3843 23.8224 34.9509 24.6085 34.6C24.9579 34.3936 29.8494 32.5359 31.4435 31.5451C33.0376 30.5543 37.5142 27.3549 38.7152 25.1463C39.8944 22.9583 39.3266 22.7932 39.5013 22.7106C39.6542 22.6074 39.8289 23.0202 39.807 23.5156C39.7634 23.9904 39.3703 25.4353 39.5013 25.5798C39.6323 25.7242 41.2919 24.4445 41.9907 22.8964C42.6895 21.3483 43.2136 19.7383 43.5412 19.7383C43.8905 19.7383 42.9734 22.3804 42.3838 23.4124C41.816 24.4445 41.1391 24.9605 41.2919 25.1876C41.4666 25.394 43.1699 24.0523 43.7595 23.0615C44.3273 22.0501 44.8732 21.1625 44.9824 21.3483C44.8086 22.5574 44.3044 23.7029 43.5193 24.6715C42.6022 25.6623 41.5103 26.3848 41.685 26.5293C41.8379 26.6944 43.0826 26.8595 44.371 26.0339C45.6812 25.1876 45.8122 23.9697 45.9651 24.0317C46.1398 24.0936 45.8122 25.7655 44.5675 26.7976C43.3228 27.8297 41.685 27.9329 41.7287 28.1599C41.816 28.3663 45.2881 27.2104 45.2226 27.4787C45.1571 27.7264 40.7242 29.3777 40.6805 29.5429C40.6805 29.6667 41.4448 29.708 42.6458 29.4397C43.825 29.192 44.9606 28.3044 45.1134 28.5108C45.1571 28.7998 44.2618 29.5016 42.9079 29.8319C41.5322 30.1621 40.8552 30.5956 40.8115 30.6988C40.7897 30.802 43.2573 30.4098 43.2573 30.5337C43.2573 30.6575 40.0254 31.2561 40.0036 31.4212C39.9599 31.5657 43.0607 30.8226 43.0171 31.0084C42.9297 31.1529 38.8025 32.3088 38.8462 32.3707C38.868 32.4533 42.2964 31.6689 42.2309 31.7928C42.1436 31.9373 36.466 33.4441 36.4223 33.5473C36.3786 33.6298 41.4448 32.4739 41.4011 32.5771C41.3575 32.6803 38.7807 33.2789 38.7807 33.3409C38.7807 33.4028 40.8552 33.0312 40.8115 33.1345C40.7897 33.217 35.5707 34.4761 35.4615 34.6619C35.3523 34.8683 38.1693 34.1459 38.1256 34.5174C38.0819 34.889 32.0767 36.788 32.0549 36.437C32.0112 36.0861 35.7017 35.1986 35.6798 35.0954C35.6362 34.9922 33.5617 35.3018 33.518 35.116C33.4962 34.9096 34.8937 34.4968 34.7845 34.4142C34.6753 34.311 33.6272 34.7032 33.7145 34.4761C33.8237 34.2491 35.8109 33.3821 35.7672 33.3202C35.7454 33.2583 35.0466 33.5266 35.1121 33.3202C35.1994 33.0932 39.414 31.9373 39.3485 31.7928C39.2829 31.6689 37.405 32.0817 37.2303 32.123C37.1648 31.9992 39.8507 31.0497 39.807 30.8846C39.7197 30.7401 38.3658 31.4419 38.2784 31.2561C38.2348 31.0497 40.6587 30.1621 40.5058 30.0176C40.353 29.8731 39.2611 30.3892 39.1083 30.2447C38.9554 30.1002 41.4011 28.5108 41.0299 28.4695C40.6587 28.4489 40.2001 28.9649 40.1564 28.6347C40.2001 28.2218 42.0562 27.5407 41.6413 27.2104C40.9862 27.0246 38.7807 27.3549 37.8635 27.8709C36.9464 28.387 33.8892 31.2561 33.1468 31.7102C32.4043 32.1437 29.8712 33.1551 29.3908 33.3615C28.6483 33.6092 28.5173 33.9807 27.753 34.3523C26.3773 34.7032 26.3991 35.0954 25.744 35.3224C25.5038 35.3843 23.0362 36.499 23.0144 36.4164ZM19.5642 37.8613C19.1493 38.0677 18.778 38.5631 19.0183 38.7695C19.1493 39.0172 19.5642 38.2122 19.8917 38.2535L21.6387 38.336C22.5777 38.398 23.0362 38.1503 23.5603 38.1916C24.0844 38.2328 25.2418 37.9232 25.7877 37.9232C26.3336 37.9232 26.4428 37.9851 26.4865 37.7581C26.552 37.5517 24.7832 37.6962 23.9971 37.6755C23.2109 37.6342 22.2283 37.82 21.6387 37.82C21.0928 37.7994 20.1538 37.6342 19.5642 37.8613Z" fill="#FFEC2D"/>
<path d="M22.1848 37.6133C22.1848 37.4423 22.0186 37.3037 21.8136 37.3037C21.6086 37.3037 21.4424 37.4423 21.4424 37.6133C21.4424 37.7843 21.6086 37.9229 21.8136 37.9229C22.0186 37.9229 22.1848 37.7843 22.1848 37.6133Z" fill="#FFEC2D"/>
<path fill-rule="evenodd" clip-rule="evenodd" d="M30.8975 37.0155C31.2687 36.9535 32.2732 37.2838 32.972 37.4283C34.2385 37.903 36.5969 37.676 36.5969 37.903C36.5969 38.1301 36.444 38.3984 35.8981 38.4397C35.3522 38.481 33.9765 38.2333 34.0201 38.2333C34.0638 38.2333 35.112 38.708 34.8063 38.8319C34.5006 38.9557 33.6052 38.5636 33.4524 38.6668C33.2995 38.77 34.2822 38.9557 34.1075 39.0177C33.9765 39.0796 33.2995 38.9351 33.0812 38.9557C32.8628 38.997 33.2558 39.2241 32.9938 39.3066C32.7318 39.4098 32.295 39.1828 32.1203 39.2447C31.9238 39.3066 32.5134 39.6575 32.2513 39.6988C31.9893 39.7401 31.3779 39.5337 31.0285 39.4924C30.6791 39.4924 31.356 39.8227 31.1377 39.8639C30.9193 39.8846 30.3079 39.5956 30.155 39.5956C30.0021 39.5956 30.155 40.0084 29.9366 40.0084C29.7183 40.0084 29.4562 39.6575 29.3252 39.6575C29.1942 39.6575 29.3252 40.0704 29.1068 40.0704C28.8885 40.0704 28.8011 39.6369 28.6264 39.6575C28.408 39.6988 28.6264 40.2148 28.3207 40.1736C28.0368 40.1529 27.9931 39.6369 27.7529 39.6575C27.5346 39.6988 27.7966 40.1736 27.5782 40.1736C27.3599 40.1736 27.3162 39.6988 27.0978 39.6575C26.8795 39.6369 26.9668 40.1116 26.8358 40.1116C26.7048 40.1116 26.5737 39.6575 26.4864 39.6575C26.4209 39.6575 26.4864 40.1116 26.2243 40.0704C25.9623 40.0291 25.9623 39.575 25.8968 39.5956C25.8094 39.6369 25.8094 39.9672 25.6347 39.9672C25.4601 39.9672 25.4382 39.6369 25.3727 39.6782C25.2854 39.6988 25.0233 40.1116 24.8486 40.0497C24.6521 39.9878 24.8923 39.6575 24.8049 39.6575C24.7176 39.6575 24.4992 39.8846 24.3682 39.8639C24.2372 39.8433 24.3682 39.575 24.3245 39.575C24.2809 39.575 23.9533 39.7401 23.8004 39.7401C23.6476 39.7401 23.2327 39.9465 23.1235 39.7607C23.0143 39.5543 23.4074 39.5543 23.4947 39.3686C23.5602 39.1828 23.2764 38.6255 23.5821 38.4397C23.866 38.2333 24.8049 38.708 26.2025 38.3778C28.7356 37.7379 30.7009 36.9948 30.8975 37.0155Z" fill="#FFEC2D"/>
</g>
<defs>
<clipPath id="clip0_200_65818">
<rect width="60" height="45" fill="white" transform="translate(-7.5)"/>
</clipPath>
</defs>
</svg>
