<svg width="45" height="45" viewBox="0 0 45 45" fill="none" xmlns="http://www.w3.org/2000/svg">
<g clip-path="url(#clip0_200_65712)">
<path fill-rule="evenodd" clip-rule="evenodd" d="M-11.25 33.75H56.25V45H-11.25V33.75ZM-11.25 0H56.25V11.25H-11.25V0Z" fill="#EE161F"/>
<path fill-rule="evenodd" clip-rule="evenodd" d="M-11.25 11.25H56.25V33.75H-11.25V11.25Z" fill="white"/>
<path d="M22.1572 11.4258C21.4717 12.7881 21.0146 12.7881 19.8721 13.7109C19.415 14.1592 18.7295 14.3877 19.6436 14.8535C18.7207 15.3018 18.2637 15.5303 17.8066 16.4443L18.0352 16.6729C18.0352 16.6729 18.9141 16.251 18.9492 16.4443C19.1074 16.6289 17.8066 17.3232 17.6396 17.4375L16.6729 18.0527C15.5215 18.958 14.8271 18.7295 14.1504 20.1006L16.4355 19.8721C16.8926 21.4717 15.293 21.7002 14.1504 22.3857L12.3135 23.5283C12.7793 25.1279 14.1504 24.2139 15.293 23.7568L15.5215 23.9854V24.4424L13.2363 25.585C13.2363 25.585 10.5293 27.1318 10.4854 27.1846C10.4678 27.2725 10.4854 27.6416 10.4854 27.6416C11.3994 27.8701 12.7705 28.0986 13.6934 27.6416C14.8359 27.1846 15.0645 26.7275 16.4355 26.7275C15.1159 27.7572 13.531 28.3912 11.8652 28.5557V29.4697C13.2363 29.4697 14.1504 29.4697 15.293 29.2412L18.2637 28.3271C18.9492 28.3271 19.6436 29.0127 19.4062 29.6982C18.7295 32.2119 15.9785 31.7549 15.0645 33.8115L18.7207 32.4316C19.6348 31.9746 20.5488 31.5264 21.6914 31.7549C23.0625 32.2119 23.0625 33.126 24.8906 33.583L24.4336 32.4404C24.8906 32.6689 25.3477 32.6689 25.8135 32.8975C26.9561 33.3545 27.1846 33.8115 28.5557 33.583C27.4131 32.2119 27.1846 32.4404 26.2705 31.5264C25.3564 30.1553 24.8906 28.0986 26.2705 27.8701L27.8701 28.3271C29.4697 28.5557 29.4697 28.0986 31.7549 29.0127C33.1348 29.4697 33.5918 30.1553 35.1826 29.6982C34.5059 28.0986 31.9922 26.9561 30.3838 26.499C32.2207 25.3564 31.7549 26.9561 34.2773 26.2705V25.8135C32.458 24.4336 31.7637 23.291 29.25 23.291L33.1436 22.834V22.377C33.1436 22.377 29.3027 21.375 29.2148 21.3311C29.2412 21.2168 29.3379 21.041 29.5928 20.9355C30.3223 21.4102 32.5195 21.3574 32.6514 21.3486C32.5811 20.7861 31.5352 20.3203 30.6299 19.8633C30.6299 19.8633 26.7012 17.4463 26.6836 17.2354C26.7627 16.6201 28.292 17.332 29.9355 17.8066C29.4785 16.8926 28.5645 16.4355 27.6504 16.207L29.0215 15.9785C28.1074 13.9219 25.8223 14.1504 24.4512 13.2363C23.5283 12.5508 23.5283 12.0938 22.1572 11.417V11.4258Z" fill="#00A850"/>
<path fill-rule="evenodd" clip-rule="evenodd" d="M19.6875 26.6313C19.8545 26.0952 20.0742 25.6118 19.0547 25.146C18.0352 24.6802 19.5645 27.0005 19.6875 26.6401V26.6313ZM20.8916 25.5503C20.6895 25.5766 20.5752 26.3237 20.9883 26.5346C21.4453 26.605 21.0762 25.5591 20.8916 25.5503ZM22.0781 25.4624C21.8672 25.5327 21.8584 26.5874 22.6055 26.394C23.3613 26.2094 22.6055 25.3833 22.0781 25.4712V25.4624ZM23.4668 22.7641C23.625 22.5005 23.458 21.4458 22.8164 21.8852C22.166 22.3335 23.2559 22.8344 23.4668 22.7641ZM22.0605 21.8852C22.2627 21.8061 22.2803 21.1557 21.709 21.3315C21.1553 21.4985 21.9111 22.0171 22.0605 21.8852ZM20.7949 22.1401C20.7949 22.1401 20.3994 21.5952 20.0918 21.7094C19.7139 22.0786 20.8213 22.1489 20.7949 22.1401ZM16.4355 23.8803C16.6025 23.8979 17.8418 23.6782 18.2725 23.1948C18.7031 22.7114 16.0664 23.3969 16.0664 23.4057C16.0664 23.4145 16.3125 23.8364 16.4355 23.8803ZM28.8369 20.8042C28.8984 20.6899 28.1777 20.1802 27.7471 20.3823C27.6328 20.7602 28.8369 20.8833 28.8369 20.8042ZM26.3936 19.5737C26.5342 19.3803 26.0859 18.5805 25.1895 19.0288C24.293 19.4682 26.1299 19.8901 26.3936 19.5825V19.5737ZM23.5723 19.1079C23.5723 19.1079 23.792 18.3872 24.3281 18.5278C24.9434 18.9936 23.5986 19.1343 23.5723 19.1079ZM23.0449 18.563C22.957 18.3608 22.4033 18.4751 21.7617 18.9057C21.1113 19.3188 23.2383 19.0288 23.0449 18.5542V18.563ZM24.6885 16.6206C24.6885 16.6206 25.2598 16.3569 25.4355 16.6206C25.6729 16.9985 24.6797 16.6206 24.6885 16.6206ZM24.2051 16.3657C24.0908 16.1372 23.458 16.1108 23.4756 16.4536C23.3701 16.7173 24.3018 16.6645 24.2051 16.3657ZM22.6934 16.3657C22.6318 16.2339 21.7266 16.3657 21.4629 16.9106C21.9023 17.1216 22.8955 16.7085 22.6934 16.3657ZM20.7598 16.9194C20.7598 16.9194 19.582 17.6489 19.5029 18.1762C19.5381 18.6333 20.9795 17.3501 20.9795 17.3501C20.9795 17.3501 21.1025 16.8403 20.7686 16.9194H20.7598ZM19.4502 16.2602C19.4854 16.1108 20.0391 15.768 20.083 15.7944C20.127 15.9438 19.6348 16.3481 19.4502 16.2602ZM19.8281 19.0376C19.8545 18.8178 18.4219 18.8354 18.958 19.4946C19.415 20.0483 19.9248 19.1343 19.8281 19.0376ZM18.5098 19.978C18.4395 19.8374 18.334 19.4507 18.1406 19.4155C17.9736 19.4155 17.1123 19.5913 17.042 19.7319C17.0068 19.8462 17.4023 20.5581 17.5342 20.5757C17.6924 20.6372 18.4922 20.0483 18.5186 19.978H18.5098ZM26.2793 24.8296C26.3232 24.6714 27.7998 24.1704 28.3008 24.6538C28.8984 25.4712 26.2441 25.0932 26.2793 24.8296ZM30.3223 25.7876C30.6475 25.2426 29.3291 24.5923 28.7754 25.2163C28.9687 25.9634 30.0586 26.2358 30.3223 25.7876Z" fill="white"/>
<path fill-rule="evenodd" clip-rule="evenodd" d="M20.0846 15.6526C20.0994 15.6533 20.1268 15.6567 20.1554 15.6738C20.1856 15.692 20.208 15.7209 20.2179 15.7547C20.2356 15.815 20.2224 15.8717 20.2074 15.9111C20.1916 15.9524 20.1675 15.9916 20.1414 16.0266C20.0891 16.0969 20.016 16.1675 19.9383 16.2275C19.8607 16.2876 19.7716 16.3424 19.6843 16.3765C19.6052 16.4074 19.4913 16.4356 19.3897 16.3872C19.33 16.3587 19.2981 16.2925 19.3133 16.228C19.3247 16.1795 19.3522 16.1384 19.3752 16.1093C19.4001 16.0776 19.4307 16.0464 19.4627 16.017C19.5269 15.9582 19.6067 15.898 19.6841 15.8452C19.7618 15.7923 19.8408 15.7443 19.9052 15.7105C19.9369 15.6939 19.9684 15.6789 19.9961 15.6687C20.0095 15.6638 20.0269 15.6582 20.0455 15.655C20.0549 15.6534 20.0686 15.6517 20.0846 15.6526ZM24.0914 16.1038C24.1829 16.1394 24.2804 16.2018 24.3309 16.3028C24.334 16.3091 24.3367 16.3157 24.3389 16.3224C24.3626 16.3957 24.3555 16.4692 24.3208 16.5331C24.2886 16.5925 24.2379 16.6344 24.1889 16.6635C24.0918 16.7212 23.9644 16.7509 23.8489 16.7607C23.7339 16.7704 23.6065 16.7624 23.5079 16.7243C23.4592 16.7054 23.4009 16.6728 23.363 16.6148C23.3259 16.5582 23.3187 16.4938 23.3347 16.4327C23.3368 16.3093 23.396 16.2122 23.484 16.1489C23.572 16.0856 23.6827 16.0595 23.7845 16.0549C23.888 16.0503 23.9969 16.067 24.0914 16.1038ZM23.6482 16.3773C23.6255 16.3936 23.6143 16.4118 23.616 16.4464C23.6163 16.4524 23.6163 16.4583 23.6158 16.4643C23.6604 16.4796 23.7369 16.4879 23.8252 16.4805C23.9173 16.4727 23.9981 16.4497 24.0452 16.4217C24.0533 16.4169 24.0593 16.4126 24.0636 16.4091C24.0496 16.396 24.0263 16.3802 23.9894 16.3659C23.9337 16.3442 23.8641 16.3329 23.7972 16.3359C23.7288 16.339 23.6774 16.3563 23.6482 16.3773ZM22.8171 16.2988C22.7795 16.2269 22.7058 16.2022 22.6684 16.1926C22.6202 16.1803 22.5647 16.1767 22.5089 16.178C22.3958 16.1807 22.2554 16.2047 22.1115 16.2503C21.8288 16.3399 21.4927 16.5262 21.3363 16.8494C21.32 16.883 21.3178 16.9217 21.3301 16.957C21.3425 16.9923 21.3683 17.0212 21.402 17.0374C21.544 17.1055 21.7173 17.1183 21.8823 17.1027C22.0496 17.0868 22.2229 17.0402 22.3744 16.9749C22.5236 16.9107 22.6641 16.8228 22.755 16.7165C22.8011 16.6627 22.8397 16.5979 22.8545 16.5235C22.8696 16.4475 22.8578 16.37 22.8171 16.2988ZM21.689 16.8245C21.7394 16.8289 21.7954 16.8284 21.8557 16.8227C21.9918 16.8097 22.1366 16.7711 22.2631 16.7166C22.3918 16.6612 22.4892 16.5946 22.5413 16.5337C22.5668 16.5039 22.576 16.4818 22.5786 16.4688C22.5791 16.4664 22.5794 16.4641 22.5795 16.4617C22.5642 16.4598 22.543 16.4585 22.5156 16.4592C22.4334 16.4611 22.3194 16.4794 22.1964 16.5184C22.0053 16.579 21.816 16.6814 21.689 16.8245ZM22.6067 16.4677C22.6065 16.4678 22.6052 16.4674 22.603 16.4663C22.6057 16.4671 22.6068 16.4677 22.6067 16.4677ZM25.2666 16.3704C25.3701 16.3868 25.4802 16.4341 25.5526 16.5426C25.5533 16.5436 25.554 16.5447 25.5546 16.5458C25.5887 16.6 25.6234 16.6737 25.6098 16.7528C25.5929 16.8514 25.5161 16.8975 25.4578 16.9148C25.403 16.9311 25.3422 16.931 25.29 16.9268C25.235 16.9225 25.1757 16.9123 25.1179 16.8997C25.002 16.8746 24.8806 16.8374 24.7902 16.8071C24.7447 16.7918 24.7061 16.778 24.6789 16.7679C24.6653 16.7629 24.6541 16.7586 24.6461 16.7554C24.6423 16.7539 24.6381 16.7522 24.6343 16.7506C24.6333 16.7501 24.6286 16.7481 24.6234 16.7454C24.6219 16.7446 24.6191 16.7431 24.6158 16.7411C24.6137 16.7398 24.6054 16.7348 24.5963 16.7269C24.591 16.722 24.578 16.7076 24.5708 16.6977C24.5598 16.6775 24.5479 16.6154 24.5552 16.5754C24.5706 16.5458 24.6056 16.5125 24.6308 16.4955C24.6296 16.4929 24.6296 16.4929 24.6296 16.4929L24.6299 16.4927L24.6305 16.4925L24.6322 16.4917C24.6337 16.491 24.6356 16.4901 24.6381 16.489C24.6431 16.4868 24.6501 16.4838 24.659 16.4801C24.6767 16.4727 24.7017 16.4626 24.7322 16.4514C24.7926 16.4293 24.8768 16.4022 24.9685 16.3838C25.0587 16.3658 25.1651 16.3544 25.2666 16.3704ZM21.1162 17.383C21.1162 17.383 21.1162 17.3831 20.9795 17.3501C21.073 17.4551 21.073 17.4551 21.073 17.4551L21.0718 17.4562L21.0685 17.4591C21.0657 17.4616 21.0615 17.4652 21.0561 17.47C21.0453 17.4795 21.0296 17.4933 21.0096 17.5106C20.9695 17.5453 20.9124 17.5942 20.8438 17.6514C20.7068 17.7656 20.5228 17.914 20.3368 18.0485C20.1537 18.1809 19.9582 18.3076 19.8007 18.3705C19.7265 18.4002 19.6342 18.4271 19.5486 18.4098C19.5004 18.4 19.4517 18.3756 19.4152 18.3298C19.3802 18.2858 19.3664 18.2343 19.3627 18.187C19.3619 18.1765 19.3623 18.1659 19.3639 18.1554C19.3897 17.9834 19.4997 17.8139 19.6257 17.6662C19.7549 17.5146 19.9167 17.3679 20.0721 17.2411C20.2282 17.1138 20.3812 17.0038 20.4949 16.9257C20.5519 16.8866 20.5993 16.8553 20.6325 16.8338C20.6491 16.823 20.6623 16.8146 20.6713 16.8089C20.6758 16.806 20.6793 16.8038 20.6818 16.8023L20.6846 16.8006L20.6856 16.7999C20.6856 16.7999 20.6857 16.7999 20.7598 16.9194L20.6857 16.7999C20.7059 16.7873 20.729 16.7802 20.7526 16.779C20.8637 16.7567 20.968 16.7775 21.0435 16.8556C21.1124 16.9269 21.1328 17.0225 21.1393 17.092C21.1462 17.1658 21.1399 17.2389 21.1328 17.2906C21.1293 17.3171 21.1253 17.3395 21.1221 17.3555C21.1205 17.3635 21.1191 17.37 21.1181 17.3747C21.1176 17.377 21.1172 17.3789 21.1168 17.3803L21.1164 17.3821L21.1163 17.3827L21.1162 17.3829L21.1162 17.383ZM20.8093 17.0544C20.8026 17.0587 20.7947 17.0638 20.7855 17.0698C20.754 17.0902 20.7088 17.12 20.6541 17.1576C20.5445 17.2328 20.3982 17.3381 20.2499 17.459C20.101 17.5805 19.9536 17.7151 19.8397 17.8486C19.7525 17.9509 19.6932 18.0433 19.6629 18.1216C19.6726 18.1184 19.6837 18.1144 19.6962 18.1094C19.8189 18.0603 19.9904 17.9519 20.172 17.8206C20.3507 17.6914 20.5292 17.5475 20.6637 17.4354C20.7307 17.3795 20.7865 17.3317 20.8254 17.298C20.8349 17.2899 20.8433 17.2825 20.8507 17.2761C20.8518 17.269 20.853 17.2611 20.8542 17.2527C20.8598 17.2114 20.8633 17.1619 20.8593 17.1182C20.8553 17.0755 20.8458 17.0573 20.8423 17.0523C20.8389 17.0517 20.8288 17.0506 20.8093 17.0544ZM20.9795 17.3501L21.073 17.4551C21.0944 17.4361 21.1095 17.4108 21.1162 17.383L20.9795 17.3501ZM23.1433 18.4536C23.0877 18.3785 23.0003 18.3437 22.9181 18.3316C22.8185 18.3168 22.7009 18.3298 22.577 18.3606C22.3275 18.4227 22.0143 18.567 21.6848 18.788C21.6401 18.8165 21.6012 18.8457 21.571 18.8763C21.5432 18.9044 21.5076 18.9488 21.4989 19.0085C21.4881 19.0829 21.5234 19.1424 21.5679 19.1776C21.6055 19.2074 21.6499 19.2214 21.6843 19.229C21.7558 19.2451 21.8471 19.247 21.941 19.2416C22.0375 19.236 22.1465 19.222 22.2579 19.201C22.4785 19.1596 22.7215 19.0882 22.9013 18.9912C22.9901 18.9432 23.0759 18.8825 23.1322 18.8054C23.1931 18.722 23.2214 18.6146 23.1752 18.5011C23.1677 18.4828 23.1567 18.4668 23.1433 18.4536ZM22.9157 18.6208C22.9109 18.6179 22.8997 18.6132 22.877 18.6098C22.8281 18.6026 22.7507 18.6072 22.6449 18.6335C22.4572 18.6802 22.2097 18.7877 21.936 18.9601C22.016 18.9549 22.1088 18.9429 22.2059 18.9246C22.4117 18.8859 22.6234 18.8216 22.7677 18.7437C22.841 18.7041 22.8846 18.6675 22.9051 18.6395C22.9111 18.6312 22.9143 18.6253 22.9157 18.6208ZM21.7661 19.0796C21.766 19.0796 21.7664 19.0792 21.7671 19.0782C21.7665 19.0792 21.7661 19.0796 21.7661 19.0796ZM23.5723 19.1079L23.4378 19.0669C23.4226 19.1166 23.4361 19.1706 23.4728 19.2073C23.4977 19.2322 23.5252 19.2409 23.5319 19.243L23.5321 19.2431C23.5429 19.2465 23.5522 19.2481 23.5577 19.2489C23.5691 19.2506 23.58 19.2512 23.588 19.2514C23.6049 19.2519 23.6249 19.2512 23.6458 19.25C23.6884 19.2475 23.7445 19.2419 23.8074 19.2332C23.9325 19.2157 24.0935 19.1845 24.2364 19.1354C24.3078 19.1109 24.3791 19.0805 24.4404 19.0425C24.5 19.0055 24.562 18.9541 24.5985 18.8826C24.6389 18.8036 24.6404 18.7149 24.6013 18.6292C24.5655 18.5507 24.4987 18.4805 24.413 18.4157C24.3983 18.4046 24.3816 18.3965 24.3638 18.3918C24.0155 18.3004 23.7742 18.4974 23.6366 18.6807C23.5673 18.7732 23.5181 18.869 23.4864 18.9405C23.4704 18.9765 23.4586 19.0072 23.4506 19.0292C23.4466 19.0402 23.4435 19.0491 23.4414 19.0555C23.4403 19.0587 23.4395 19.0613 23.4389 19.0632L23.4382 19.0656L23.4379 19.0664L23.4378 19.0668C23.4378 19.0668 23.4378 19.0669 23.5723 19.1079ZM23.8616 18.8495C23.8367 18.8828 23.8147 18.9173 23.7958 18.9507C23.9056 18.9341 24.0347 18.9073 24.1452 18.8694C24.2051 18.8488 24.255 18.8265 24.2922 18.8035C24.331 18.7794 24.3446 18.7615 24.348 18.7547C24.3482 18.7545 24.3483 18.7543 24.3483 18.7541C24.3481 18.7528 24.3473 18.7501 24.3454 18.7459C24.3381 18.7299 24.3173 18.6999 24.2659 18.6577C24.0917 18.6236 23.9629 18.7144 23.8616 18.8495ZM26.5288 19.6209C26.5233 19.6403 26.5136 19.6585 26.5003 19.674C26.4383 19.7464 26.3454 19.7825 26.261 19.8021C26.1726 19.8225 26.0705 19.8298 25.9658 19.8282C25.7564 19.8248 25.5164 19.7848 25.3135 19.7197C25.2119 19.6871 25.1154 19.6469 25.035 19.599C24.9576 19.5529 24.8804 19.4911 24.8376 19.4089C24.7885 19.3146 24.7929 19.2087 24.8557 19.1138C24.9111 19.03 25.0068 18.9618 25.1271 18.9027C25.6205 18.6562 26.0165 18.7459 26.2692 18.9516C26.3913 19.0509 26.477 19.1753 26.5222 19.2939C26.5448 19.3532 26.5587 19.415 26.5596 19.4744C26.5602 19.5208 26.5528 19.5729 26.5288 19.6209ZM26.0917 19.1697C25.9314 19.0393 25.6551 18.9532 25.2523 19.1546L25.2514 19.1551C25.1477 19.2059 25.1049 19.2468 25.0903 19.2689C25.0847 19.2773 25.0851 19.2775 25.0861 19.2781C25.0864 19.2783 25.0868 19.2785 25.087 19.279C25.0945 19.2933 25.1194 19.3219 25.1789 19.3574C25.2355 19.3911 25.3109 19.4235 25.3994 19.4519C25.5766 19.5087 25.7892 19.544 25.9704 19.5469C26.061 19.5484 26.1387 19.5417 26.1977 19.528C26.2367 19.519 26.2601 19.5087 26.2731 19.5011C26.2744 19.499 26.2757 19.4969 26.2771 19.4949C26.2776 19.4927 26.2785 19.4875 26.2783 19.4783C26.2781 19.4588 26.2731 19.4299 26.2594 19.394C26.2321 19.3223 26.1761 19.2384 26.0917 19.1697ZM19.9666 18.9982C19.9523 18.9146 19.8833 18.8651 19.8432 18.8434C19.7874 18.8132 19.7177 18.7952 19.6494 18.7846C19.5104 18.7631 19.3337 18.7658 19.1735 18.7988C19.0218 18.83 18.8441 18.8969 18.7532 19.0381C18.704 19.1147 18.6856 19.2055 18.7045 19.3034C18.7226 19.397 18.7732 19.4903 18.8489 19.5833L18.8496 19.5841C18.9858 19.7492 19.1452 19.8246 19.3122 19.8105C19.4693 19.7972 19.6021 19.7069 19.6998 19.6097C19.7992 19.511 19.8775 19.3905 19.9252 19.286C19.9488 19.2341 19.9676 19.1804 19.9759 19.131C19.98 19.1065 19.9826 19.0774 19.9789 19.0475C19.9772 19.0338 19.9737 19.0165 19.9666 18.9982ZM19.0668 19.4054C19.0087 19.3339 18.9869 19.2826 18.9806 19.25C18.9751 19.2216 18.9805 19.2046 18.9897 19.1903C19.0159 19.1496 19.0942 19.1023 19.2303 19.0742C19.358 19.0479 19.5009 19.0462 19.6064 19.0626C19.6477 19.069 19.6771 19.0772 19.6956 19.0845C19.6962 19.0863 19.6968 19.088 19.6975 19.0898C19.6939 19.1072 19.6852 19.1344 19.6693 19.1693C19.6343 19.246 19.5747 19.3376 19.5016 19.4102C19.4268 19.4845 19.3526 19.5249 19.2885 19.5303C19.2345 19.5348 19.1589 19.5169 19.0668 19.4054ZM19.7153 19.0943C19.7153 19.0943 19.7148 19.094 19.714 19.0934C19.7149 19.094 19.7153 19.0943 19.7153 19.0943ZM17.8838 19.3067C17.9883 19.2882 18.0849 19.2749 18.1406 19.2749C18.1491 19.2749 18.1575 19.2756 18.1658 19.2771C18.2574 19.2938 18.3264 19.3497 18.3756 19.4056C18.4252 19.462 18.4651 19.5302 18.4971 19.5943C18.5295 19.6592 18.5572 19.7264 18.5801 19.7832C18.5831 19.7907 18.586 19.798 18.5888 19.805C18.6008 19.8347 18.6108 19.8596 18.6196 19.8802C18.6249 19.8857 18.6297 19.8916 18.6341 19.8979C18.6604 19.9358 18.6664 19.9842 18.6502 20.0274C18.6384 20.0589 18.6171 20.0826 18.6098 20.0906L18.6094 20.0911C18.5979 20.1038 18.5843 20.1171 18.5704 20.1299C18.5421 20.1559 18.5051 20.1868 18.4631 20.22C18.3787 20.2867 18.2682 20.3672 18.1537 20.4434C18.0398 20.5191 17.9183 20.5929 17.8127 20.6445C17.7603 20.6701 17.7073 20.6924 17.6586 20.706C17.6209 20.7165 17.5592 20.73 17.4983 20.7119C17.4437 20.6992 17.4017 20.6638 17.3788 20.6428C17.3472 20.6139 17.3156 20.5773 17.2856 20.5387C17.2252 20.4607 17.1608 20.3605 17.1033 20.2597C17.0457 20.1588 16.9925 20.053 16.9555 19.963C16.9371 19.9183 16.9213 19.8742 16.9113 19.8348C16.9063 19.8151 16.902 19.7937 16.9002 19.7722C16.8985 19.7526 16.8978 19.7225 16.9076 19.6906C16.9099 19.6831 16.9127 19.6759 16.9162 19.669C16.9442 19.613 16.9963 19.5776 17.0305 19.5572C17.0705 19.5333 17.1187 19.5116 17.1689 19.4921C17.2699 19.4528 17.3957 19.416 17.5208 19.3846C17.6466 19.353 17.7754 19.3259 17.8838 19.3067ZM18.4028 19.9C18.4029 19.8999 18.4023 19.9007 18.4009 19.9023C18.402 19.9008 18.4027 19.9 18.4028 19.9ZM18.3454 19.9532C18.3394 19.9387 18.3335 19.924 18.3277 19.9094C18.3248 19.9023 18.322 19.8952 18.3192 19.8883C18.2965 19.8319 18.2725 19.7739 18.2456 19.7201C18.2183 19.6655 18.1911 19.6217 18.1644 19.5913C18.1458 19.5702 18.1321 19.5609 18.1237 19.5568C18.0883 19.5592 18.0221 19.5678 17.933 19.5836C17.8308 19.6017 17.7085 19.6274 17.5893 19.6574C17.4694 19.6875 17.3563 19.721 17.2708 19.7542C17.2376 19.7671 17.211 19.779 17.1909 19.7896C17.1968 19.8079 17.2049 19.8301 17.2156 19.856C17.2469 19.9321 17.2942 20.0268 17.3476 20.1203C17.4011 20.214 17.4581 20.3022 17.5078 20.3663C17.5329 20.3986 17.5535 20.4215 17.5687 20.4353C17.5697 20.4362 17.5707 20.4371 17.5716 20.4379C17.5746 20.4373 17.5784 20.4364 17.583 20.4351C17.6084 20.428 17.6441 20.4138 17.6893 20.3917C17.779 20.348 17.8888 20.2817 17.9979 20.2092C18.1065 20.137 18.2107 20.061 18.2887 19.9994C18.3101 19.9824 18.3291 19.967 18.3454 19.9532ZM17.5616 20.4395C17.5616 20.4395 17.5618 20.4395 17.562 20.4395L17.5616 20.4395ZM17.581 20.4453C17.581 20.4453 17.5806 20.4451 17.5797 20.4444C17.5805 20.4449 17.581 20.4452 17.581 20.4453ZM17.1804 19.7479C17.1803 19.7469 17.1804 19.7471 17.1804 19.7482C17.1804 19.748 17.1804 19.7479 17.1804 19.7479ZM28.9706 20.8493C28.9999 20.7714 28.9623 20.6998 28.9461 20.6727C28.9217 20.632 28.8862 20.5931 28.8486 20.5584C28.772 20.4875 28.6632 20.4125 28.5409 20.3495C28.4184 20.2865 28.2759 20.2323 28.1308 20.2081C27.9864 20.1841 27.8293 20.1884 27.6873 20.255C27.6512 20.2719 27.624 20.3034 27.6125 20.3416C27.5866 20.4271 27.5986 20.5097 27.6383 20.5807C27.6754 20.6472 27.7332 20.6978 27.7921 20.7364C27.9093 20.8132 28.0678 20.8661 28.2166 20.9014C28.3681 20.9374 28.5233 20.9584 28.6426 20.9652C28.7014 20.9685 28.7566 20.9687 28.8002 20.9641C28.8206 20.9619 28.8477 20.9579 28.8735 20.948C28.8861 20.9432 28.9077 20.9337 28.9282 20.9149C28.9438 20.9007 28.9612 20.8787 28.9706 20.8493ZM27.9165 20.4794C27.9246 20.4862 27.9345 20.4934 27.9462 20.5012C28.0227 20.5513 28.1438 20.5951 28.2816 20.6278C28.3695 20.6487 28.4587 20.6638 28.5387 20.6735C28.5008 20.6484 28.4582 20.6233 28.4122 20.5996C28.3084 20.5462 28.1939 20.5038 28.0846 20.4856C28.0235 20.4754 27.9671 20.4733 27.9165 20.4794ZM28.7072 20.822C28.7071 20.8219 28.7063 20.8206 28.7053 20.8181C28.7069 20.8208 28.7074 20.8221 28.7072 20.822ZM22.1325 22.0071C22.228 21.9601 22.2808 21.8634 22.3057 21.7816C22.3341 21.6885 22.3388 21.578 22.3103 21.4752C22.2813 21.3706 22.2149 21.2659 22.0959 21.2068C21.9781 21.1483 21.8326 21.1464 21.668 21.197C21.5092 21.245 21.3795 21.3394 21.369 21.4977C21.36 21.6326 21.4472 21.7478 21.5233 21.8215C21.6059 21.9015 21.7129 21.9693 21.8133 22.0087C21.8634 22.0284 21.9183 22.0435 21.972 22.0465C22.017 22.049 22.0785 22.0437 22.1325 22.0071ZM21.9708 21.4587C21.9377 21.4422 21.8713 21.4287 21.7503 21.4659L21.7496 21.4662C21.6926 21.4833 21.6659 21.5013 21.6549 21.5115C21.6519 21.5143 21.6503 21.5163 21.6496 21.5173C21.6501 21.5252 21.6596 21.5619 21.7189 21.6194C21.7747 21.6734 21.8501 21.721 21.9161 21.7469C21.9484 21.7596 21.9723 21.7647 21.9865 21.7657C21.9935 21.7614 22.0008 21.7577 22.0084 21.7546C22.0079 21.7548 22.0076 21.7549 22.0076 21.7549C22.0073 21.7544 22.0234 21.7434 22.0367 21.6996C22.0506 21.654 22.0525 21.5981 22.0393 21.5504C22.0265 21.5044 22.0029 21.4746 21.9708 21.4587ZM21.9947 21.7657C21.9947 21.7657 21.9943 21.7658 21.9934 21.7658C21.9942 21.7657 21.9947 21.7656 21.9947 21.7657ZM20.9039 22.0509C20.9036 22.0505 20.9033 22.0501 20.9029 22.0497C20.8995 22.0451 20.8946 22.0386 20.8883 22.0306C20.8758 22.0145 20.8579 21.9921 20.8355 21.9657C20.7909 21.9132 20.7272 21.8435 20.6521 21.7768C20.5779 21.7109 20.487 21.6429 20.3876 21.5996C20.2881 21.5563 20.166 21.5319 20.0428 21.5776C20.0244 21.5845 20.0076 21.5951 19.9935 21.6088C19.9355 21.6656 19.8883 21.733 19.8757 21.8121C19.862 21.8983 19.893 21.9716 19.9394 22.0255C19.9825 22.0755 20.0401 22.1111 20.0945 22.1371C20.1503 22.1638 20.2126 22.185 20.274 22.202C20.3968 22.236 20.5287 22.2565 20.6265 22.2681C20.6759 22.2739 20.7179 22.2776 20.7474 22.2796C20.7619 22.2805 20.7748 22.2812 20.7846 22.2814C20.7879 22.2814 20.7969 22.2816 20.8063 22.2808C20.8089 22.2806 20.8148 22.28 20.822 22.2786C20.8255 22.2779 20.8319 22.2765 20.8395 22.274C20.8452 22.2721 20.8616 22.2664 20.8792 22.2533C20.8958 22.241 20.9374 22.2031 20.936 22.1373C20.9351 22.0971 20.9182 22.0683 20.9039 22.0509ZM20.1671 21.8351C20.1631 21.8402 20.1603 21.8444 20.1582 21.8477C20.1678 21.8564 20.1857 21.869 20.2158 21.8834C20.2519 21.9006 20.2973 21.9166 20.349 21.931C20.3721 21.9374 20.3958 21.9432 20.4198 21.9486C20.3711 21.9098 20.3219 21.8778 20.2752 21.8574C20.2299 21.8377 20.1948 21.8321 20.1671 21.8351ZM23.6627 22.45C23.6664 22.5872 23.6479 22.7357 23.5874 22.8365C23.5701 22.8653 23.5431 22.8869 23.5113 22.8975C23.4515 22.9175 23.3835 22.9125 23.3293 22.9038C23.2698 22.8942 23.2037 22.8759 23.1368 22.8517C23.0036 22.8035 22.854 22.7267 22.7312 22.6293C22.613 22.5356 22.4956 22.4034 22.4745 22.2395C22.4513 22.0591 22.5494 21.8984 22.7366 21.7694L22.7369 21.7692C22.9209 21.6432 23.1014 21.6051 23.263 21.6694C23.4165 21.7306 23.5132 21.8694 23.5711 22.0063C23.6302 22.1461 23.6589 22.3067 23.6627 22.45ZM22.8961 22.0011C22.7582 22.0962 22.7487 22.1662 22.7535 22.2036C22.7604 22.2575 22.8067 22.3302 22.906 22.409C23.0008 22.4841 23.1225 22.5474 23.2326 22.5873C23.285 22.6063 23.3317 22.6188 23.3688 22.6252C23.3776 22.5837 23.3834 22.527 23.3816 22.4575C23.3785 22.3427 23.3551 22.2177 23.312 22.1158C23.2677 22.0109 23.2122 21.952 23.1589 21.9307C23.1137 21.9127 23.0328 21.9075 22.8961 22.0011ZM18.4565 23.1452C18.4448 23.2031 18.4104 23.2513 18.3775 23.2883C18.2527 23.4284 18.0765 23.5424 17.8894 23.6345C17.7007 23.7274 17.4922 23.8023 17.2948 23.8603C17.0972 23.9185 16.908 23.9606 16.7567 23.9871C16.6811 24.0004 16.614 24.0099 16.5593 24.0156C16.5083 24.0209 16.4577 24.0241 16.4208 24.0202L16.4355 23.8803L16.3882 24.0128C16.3494 23.9989 16.3169 23.975 16.2932 23.9548C16.2678 23.9332 16.2432 23.9077 16.2204 23.8818C16.1747 23.8299 16.1288 23.7676 16.0889 23.7094C16.0486 23.6507 16.0125 23.5934 15.9863 23.55C15.9733 23.5283 15.9624 23.5096 15.9545 23.4955C15.9506 23.4886 15.947 23.4819 15.944 23.4761C15.9426 23.4734 15.9406 23.4693 15.9386 23.4648C15.9377 23.4627 15.9359 23.4586 15.934 23.4533C15.9331 23.4507 15.9315 23.4461 15.9301 23.4403C15.9291 23.4363 15.9258 23.4231 15.9258 23.4057C15.9297 23.3729 15.9505 23.3261 15.9619 23.3116C15.9691 23.3042 15.9819 23.2933 15.9871 23.2896C15.9964 23.2832 16.0045 23.2793 16.0069 23.2782C16.0132 23.2753 16.0185 23.2733 16.0202 23.2727C16.0248 23.271 16.0293 23.2696 16.0324 23.2686C16.0392 23.2665 16.048 23.264 16.0579 23.2612C16.0783 23.2555 16.1072 23.2477 16.1433 23.2383C16.2155 23.2194 16.3177 23.1935 16.4387 23.1644C16.6805 23.1061 16.9993 23.0341 17.3053 22.9774C17.6078 22.9214 17.9097 22.8781 18.1121 22.882C18.1636 22.883 18.2135 22.887 18.2579 22.8964C18.2991 22.9052 18.3523 22.9218 18.3948 22.9597C18.4472 23.0063 18.4708 23.0742 18.4565 23.1452ZM16.4751 23.7403C16.4895 23.7396 16.5079 23.7382 16.5302 23.7359C16.5769 23.731 16.6374 23.7225 16.7082 23.7101C16.8497 23.6853 17.0285 23.6455 17.2154 23.5905C17.4026 23.5354 17.5951 23.4659 17.7651 23.3822C17.9014 23.3151 18.0178 23.2415 18.1053 23.1632C17.9344 23.1601 17.6586 23.1981 17.3565 23.254C17.0572 23.3094 16.7437 23.3802 16.5046 23.4378C16.4196 23.4583 16.3442 23.4771 16.2824 23.4928C16.2945 23.5115 16.3074 23.5308 16.3208 23.5503C16.3577 23.6041 16.3964 23.6561 16.4315 23.696C16.4489 23.7157 16.4635 23.7304 16.4751 23.7403ZM26.3967 24.902C26.3967 24.9019 26.3971 24.9014 26.3983 24.9003C26.3973 24.9015 26.3967 24.902 26.3967 24.902ZM26.5113 24.8346C26.5363 24.8228 26.5645 24.8105 26.596 24.7977C26.7396 24.7397 26.9352 24.6798 27.1454 24.6391C27.3561 24.5984 27.5751 24.5781 27.7674 24.5951C27.9561 24.6118 28.1018 24.6628 28.1945 24.7469C28.2518 24.8286 28.2489 24.8669 28.2469 24.8757C28.2455 24.882 28.2369 24.9062 28.1735 24.9354C28.0422 24.9956 27.7974 25.0191 27.5071 25.0066C27.2239 24.9943 26.9237 24.9492 26.6991 24.892C26.6247 24.8731 26.5615 24.8535 26.5113 24.8346ZM27.7921 24.315C28.0166 24.3348 28.2401 24.3998 28.3984 24.5526C28.4042 24.5582 28.4095 24.5643 28.4143 24.5708C28.4989 24.6865 28.5497 24.8124 28.5212 24.938C28.492 25.0664 28.3916 25.1447 28.2908 25.191C28.0935 25.2815 27.789 25.3003 27.4949 25.2876C27.1936 25.2745 26.8742 25.2268 26.6297 25.1646C26.5084 25.1337 26.3989 25.0975 26.3178 25.0571C26.278 25.0372 26.2367 25.0123 26.2042 24.9804C26.1735 24.9502 26.1292 24.8916 26.1399 24.811C26.1408 24.8045 26.1421 24.7982 26.1438 24.7919C26.1573 24.7432 26.1898 24.7099 26.2087 24.6926C26.2311 24.672 26.2577 24.6534 26.2848 24.6368C26.3393 24.6034 26.4103 24.5695 26.4905 24.537C26.6518 24.4718 26.8649 24.4069 27.0919 24.363C27.3184 24.3192 27.5653 24.2949 27.7921 24.315ZM30.4121 25.3019C30.5215 25.4635 30.5586 25.6657 30.4432 25.8594C30.3507 26.0162 30.1912 26.1001 30.0216 26.1308C29.8522 26.1616 29.6616 26.1423 29.4796 26.0841C29.1184 25.9685 28.7514 25.6848 28.6392 25.2515C28.6275 25.2062 28.6391 25.158 28.6702 25.1229C29.0051 24.7456 29.5494 24.7704 29.9336 24.9342C30.1294 25.0177 30.3061 25.1453 30.4121 25.3019ZM28.9351 25.2559C29.1605 25.0621 29.5172 25.0624 29.8233 25.1929C29.9856 25.2621 30.1121 25.3604 30.1792 25.4595C30.2427 25.5534 30.2485 25.6368 30.2015 25.7155L30.2011 25.7163C30.1617 25.7832 30.0862 25.8333 29.9714 25.8541C29.8563 25.875 29.7129 25.8635 29.5653 25.8162C29.2916 25.7286 29.0376 25.5308 28.9351 25.2559ZM18.9192 24.9519C18.9784 24.9634 19.0432 24.9861 19.1131 25.0181C19.6391 25.2584 19.8885 25.5227 19.9537 25.8334C19.9852 25.9835 19.9702 26.1306 19.9398 26.2688C19.9161 26.3764 19.8809 26.487 19.8474 26.5921C19.8406 26.6135 19.8338 26.6346 19.8273 26.6555C19.8262 26.6657 19.8239 26.6758 19.8206 26.6856C19.8007 26.7439 19.7531 26.803 19.6717 26.8164C19.6073 26.827 19.5507 26.8027 19.516 26.7838C19.4424 26.7438 19.3634 26.6695 19.2892 26.5876C19.136 26.4188 18.9594 26.1682 18.8203 25.9228C18.7505 25.7997 18.6886 25.6752 18.6435 25.5605C18.5996 25.4487 18.5668 25.3343 18.5655 25.2354C18.5649 25.1853 18.5721 25.1286 18.5994 25.0765C18.6289 25.0202 18.6774 24.9781 18.7404 24.9576C18.7988 24.9384 18.8608 24.9406 18.9192 24.9519ZM19.5855 26.4875C19.5606 26.4651 19.5311 26.4357 19.4975 26.3987C19.3612 26.2484 19.1962 26.0156 19.065 25.7841C18.9996 25.6688 18.9442 25.5566 18.9053 25.4576C18.8653 25.3556 18.8474 25.2793 18.8468 25.2317C18.8467 25.2294 18.8467 25.2272 18.8468 25.2252C18.8519 25.2257 18.8582 25.2265 18.8657 25.228C18.896 25.2339 18.9387 25.2476 18.9962 25.2739C19.4898 25.4994 19.6403 25.7097 19.6784 25.8912C19.6986 25.9872 19.691 26.0906 19.6651 26.2084C19.6453 26.2984 19.6168 26.3889 19.5855 26.4875ZM19.6581 26.5403C19.6581 26.5404 19.6575 26.5402 19.6563 26.5397C19.6574 26.54 19.658 26.5403 19.6581 26.5403ZM22.1113 25.3257C22.086 25.3196 22.0591 25.3205 22.0337 25.329C21.9582 25.3541 21.9122 25.4147 21.8858 25.4638C21.8576 25.516 21.8392 25.5776 21.828 25.6402C21.8057 25.7655 21.8088 25.9184 21.8465 26.0626C21.8839 26.2061 21.9598 26.3558 22.096 26.454C22.2369 26.5556 22.4211 26.5868 22.6398 26.5304C22.8539 26.4779 23.0062 26.3675 23.052 26.1958C23.0951 26.0341 23.0277 25.8717 22.9364 25.7472C22.8422 25.6188 22.7043 25.5042 22.5532 25.4271C22.4196 25.3589 22.2644 25.3145 22.1113 25.3257ZM22.1288 25.6065C22.1203 25.6251 22.1114 25.6528 22.1049 25.6894C22.0896 25.7756 22.0914 25.8875 22.1186 25.9916C22.146 26.0963 22.1948 26.1785 22.2605 26.2258C22.3212 26.2696 22.4158 26.2978 22.5702 26.2579L22.5721 26.2574C22.7354 26.2175 22.7717 26.1555 22.7802 26.1234C22.7915 26.081 22.7787 26.0077 22.7096 25.9136C22.6434 25.8234 22.5407 25.7364 22.4254 25.6776C22.3203 25.624 22.2163 25.5994 22.1288 25.6065ZM22.1411 25.5853C22.1411 25.5854 22.1409 25.5856 22.1404 25.5861C22.1409 25.5855 22.1411 25.5853 22.1411 25.5853ZM20.8734 25.4108C20.8817 25.4097 20.89 25.4094 20.8983 25.4098C20.9805 25.4137 21.0398 25.4687 21.0711 25.5029C21.1086 25.5437 21.1426 25.5958 21.1724 25.6505C21.2323 25.7606 21.2858 25.9021 21.3176 26.0407C21.3483 26.1744 21.3642 26.3284 21.3265 26.4525C21.3067 26.5177 21.2689 26.5852 21.2002 26.6304C21.1305 26.6762 21.0487 26.6862 20.9669 26.6736C20.9521 26.6713 20.9377 26.6667 20.9243 26.6599C20.6477 26.5186 20.5662 26.2104 20.5686 25.9718C20.5699 25.8486 20.5928 25.7275 20.6339 25.6306C20.6544 25.5823 20.6817 25.5347 20.7177 25.4959C20.7535 25.4572 20.8054 25.4197 20.8734 25.4108ZM20.8954 25.7346C20.9047 25.7488 20.9148 25.7656 20.9253 25.7849C20.9722 25.8711 21.017 25.9884 21.0435 26.1036C21.071 26.2236 21.0733 26.3185 21.0574 26.3709C21.0521 26.3882 21.047 26.3941 21.0456 26.3954C21.044 26.3961 21.0396 26.3974 21.031 26.3974C20.9087 26.3215 20.848 26.1586 20.8498 25.9747C20.8508 25.8814 20.8685 25.7977 20.8928 25.7405C20.8936 25.7384 20.8945 25.7365 20.8954 25.7346ZM20.8512 25.6811C20.8512 25.6811 20.8518 25.6814 20.853 25.6824C20.8518 25.6817 20.8512 25.6812 20.8512 25.6811Z" fill="white"/>
</g>
<defs>
<clipPath id="clip0_200_65712">
<rect width="60" height="45" fill="white" transform="translate(-7.5)"/>
</clipPath>
</defs>
</svg>
