<svg width="45" height="45" viewBox="0 0 45 45" fill="none" xmlns="http://www.w3.org/2000/svg">
<g clip-path="url(#clip0_200_65592)">
<path d="M-7.5 0H52.5V22.5H-7.5V0Z" fill="#002B7F"/>
<path d="M-7.5 22.5H52.5V45H-7.5V22.5Z" fill="#CE1126"/>
<path d="M8.73008 9.1734L8.58758 13.8609H3.83258C3.24758 12.7209 2.76758 11.7609 2.76758 10.4484C2.76758 9.3534 3.63008 8.4834 4.86758 8.4834C6.18008 8.4834 7.62758 8.9259 8.73008 9.1734Z" fill="#FFD83D"/>
<path d="M3.33789 9.39086V12.0909V9.39086ZM3.71289 9.11336V12.7134V9.11336ZM4.10289 8.92586V13.2159V8.92586ZM4.47789 8.83586V12.2034V8.83586ZM4.86039 8.82086V12.2184V8.82086ZM5.24289 8.69336V12.2184V8.69336ZM5.62539 8.69336V12.2184V8.69336ZM6.00789 8.73086V12.2559V8.73086ZM6.39039 8.76836V12.2859V8.76836ZM6.77289 8.98586V12.5109V8.98586ZM7.14789 9.02336V12.9909V9.02336ZM7.53789 9.02336V12.5484V9.02336ZM7.91289 9.02336V12.5484V9.02336Z" fill="#FFD83D"/>
<path fill-rule="evenodd" clip-rule="evenodd" d="M5.24348 8.63672C5.27454 8.63672 5.29973 8.6619 5.29973 8.69297V12.218C5.29973 12.249 5.27454 12.2742 5.24348 12.2742C5.21241 12.2742 5.18723 12.249 5.18723 12.218V8.69297C5.18723 8.6619 5.21241 8.63672 5.24348 8.63672ZM5.62598 8.63672C5.65704 8.63672 5.68223 8.6619 5.68223 8.69297V12.218C5.68223 12.249 5.65704 12.2742 5.62598 12.2742C5.59491 12.2742 5.56973 12.249 5.56973 12.218V8.69297C5.56973 8.6619 5.59491 8.63672 5.62598 8.63672ZM6.00848 8.67422C6.03954 8.67422 6.06473 8.6994 6.06473 8.73047V12.2555C6.06473 12.2865 6.03954 12.3117 6.00848 12.3117C5.97741 12.3117 5.95223 12.2865 5.95223 12.2555V8.73047C5.95223 8.6994 5.97741 8.67422 6.00848 8.67422ZM6.39098 8.71172C6.42204 8.71172 6.44723 8.7369 6.44723 8.76797V12.2855C6.44723 12.3165 6.42204 12.3417 6.39098 12.3417C6.35991 12.3417 6.33473 12.3165 6.33473 12.2855V8.76797C6.33473 8.7369 6.35991 8.71172 6.39098 8.71172ZM4.86098 8.76422C4.89204 8.76422 4.91723 8.7894 4.91723 8.82047V12.218C4.91723 12.249 4.89204 12.2742 4.86098 12.2742C4.82991 12.2742 4.80473 12.249 4.80473 12.218V8.82047C4.80473 8.7894 4.82991 8.76422 4.86098 8.76422ZM4.47848 8.77922C4.50954 8.77922 4.53473 8.8044 4.53473 8.83547V12.203C4.53473 12.234 4.50954 12.2592 4.47848 12.2592C4.44741 12.2592 4.42223 12.234 4.42223 12.203V8.83547C4.42223 8.8044 4.44741 8.77922 4.47848 8.77922ZM4.10348 8.86922C4.13454 8.86922 4.15973 8.8944 4.15973 8.92547V13.2155C4.15973 13.2465 4.13454 13.2717 4.10348 13.2717C4.07241 13.2717 4.04723 13.2465 4.04723 13.2155V8.92547C4.04723 8.8944 4.07241 8.86922 4.10348 8.86922ZM6.77348 8.92922C6.80454 8.92922 6.82973 8.9544 6.82973 8.98547V12.5105C6.82973 12.5415 6.80454 12.5667 6.77348 12.5667C6.74241 12.5667 6.71723 12.5415 6.71723 12.5105V8.98547C6.71723 8.9544 6.74241 8.92922 6.77348 8.92922ZM7.14848 8.96672C7.17954 8.96672 7.20473 8.9919 7.20473 9.02297V12.9905C7.20473 13.0215 7.17954 13.0467 7.14848 13.0467C7.11741 13.0467 7.09223 13.0215 7.09223 12.9905V9.02297C7.09223 8.9919 7.11741 8.96672 7.14848 8.96672ZM7.53848 8.96672C7.56954 8.96672 7.59473 8.9919 7.59473 9.02297V12.548C7.59473 12.579 7.56954 12.6042 7.53848 12.6042C7.50741 12.6042 7.48223 12.579 7.48223 12.548V9.02297C7.48223 8.9919 7.50741 8.96672 7.53848 8.96672ZM7.91348 8.96672C7.94454 8.96672 7.96973 8.9919 7.96973 9.02297V12.548C7.96973 12.579 7.94454 12.6042 7.91348 12.6042C7.88241 12.6042 7.85723 12.579 7.85723 12.548V9.02297C7.85723 8.9919 7.88241 8.96672 7.91348 8.96672ZM3.71348 9.05672C3.74454 9.05672 3.76973 9.0819 3.76973 9.11297V12.713C3.76973 12.744 3.74454 12.7692 3.71348 12.7692C3.68241 12.7692 3.65723 12.744 3.65723 12.713V9.11297C3.65723 9.0819 3.68241 9.05672 3.71348 9.05672ZM3.33848 9.33422C3.36954 9.33422 3.39473 9.3594 3.39473 9.39047V12.0905C3.39473 12.1215 3.36954 12.1467 3.33848 12.1467C3.30741 12.1467 3.28223 12.1215 3.28223 12.0905V9.39047C3.28223 9.3594 3.30741 9.33422 3.33848 9.33422Z" fill="black"/>
<path d="M5.73094 8.85059C6.54094 8.97809 8.31094 9.81059 8.10844 10.9281C7.82344 12.5181 6.89344 11.8806 5.66344 11.6556L4.73344 11.9631C4.39594 12.3006 3.90844 12.6156 3.57844 12.2031H3.02344V14.3631H9.12844V9.15059L5.73094 8.85059Z" fill="black"/>
<path fill-rule="evenodd" clip-rule="evenodd" d="M5.67472 8.84335C5.67841 8.81325 5.70529 8.7915 5.73549 8.79417L9.13299 9.09417C9.16203 9.09673 9.1843 9.12105 9.1843 9.1502V14.3627C9.1843 14.3938 9.15911 14.4189 9.12805 14.4189H3.02305C2.99198 14.4189 2.9668 14.3938 2.9668 14.3627V12.2027C2.9668 12.1716 2.99198 12.1464 3.02305 12.1464H3.57805C3.59513 12.1464 3.6113 12.1542 3.62197 12.1676C3.69768 12.2622 3.77964 12.312 3.86331 12.332C3.94774 12.3521 4.03911 12.343 4.13473 12.3107C4.32767 12.2455 4.52649 12.0897 4.69327 11.9229C4.69948 11.9167 4.70705 11.912 4.71539 11.9093L5.64539 11.6018C5.65434 11.5988 5.66389 11.5982 5.67317 11.5999C5.91189 11.6435 6.14001 11.7028 6.3522 11.7578C6.41547 11.7743 6.47733 11.7903 6.53763 11.8055C6.80253 11.8721 7.03612 11.9212 7.23842 11.9158C7.43795 11.9105 7.60339 11.8523 7.73722 11.7058C7.87332 11.5569 7.98223 11.3108 8.05268 10.9178L8.0527 10.9177C8.14766 10.3936 7.78153 9.92498 7.26668 9.56374C6.75494 9.20469 6.11794 8.96812 5.7218 8.90576C5.69185 8.90105 5.67102 8.87344 5.67472 8.84335ZM6.34296 8.96074C6.66662 9.08016 7.02124 9.25411 7.33129 9.47165C7.8533 9.8379 8.27091 10.3442 8.16341 10.9377C8.09135 11.3396 7.97714 11.6101 7.82028 11.7817C7.66114 11.9559 7.46377 12.0224 7.24142 12.0283C7.02185 12.0342 6.7745 11.9811 6.51018 11.9146C6.44827 11.899 6.38535 11.8827 6.3214 11.8661C6.11413 11.8123 5.89613 11.7557 5.66702 11.7131L4.76331 12.0119C4.59421 12.1795 4.3844 12.345 4.17074 12.4172C4.06105 12.4543 3.94757 12.4677 3.83724 12.4414C3.73334 12.4166 3.63676 12.3578 3.55164 12.2589H3.0793V14.3064H9.0718V9.2017L6.34296 8.96074Z" fill="black"/>
<path d="M8.46027 8.8434C8.66324 8.8434 8.82777 8.67886 8.82777 8.4759C8.82777 8.27293 8.66324 8.1084 8.46027 8.1084C8.25731 8.1084 8.09277 8.27293 8.09277 8.4759C8.09277 8.67886 8.25731 8.8434 8.46027 8.8434Z" fill="#FFD83D"/>
<path fill-rule="evenodd" clip-rule="evenodd" d="M8.46008 8.1832C8.29854 8.1832 8.16758 8.31416 8.16758 8.4757C8.16758 8.63725 8.29854 8.7682 8.46008 8.7682C8.62162 8.7682 8.75258 8.63725 8.75258 8.4757C8.75258 8.31416 8.62162 8.1832 8.46008 8.1832ZM8.01758 8.4757C8.01758 8.23132 8.21569 8.0332 8.46008 8.0332C8.70447 8.0332 8.90258 8.23132 8.90258 8.4757C8.90258 8.72009 8.70447 8.9182 8.46008 8.9182C8.21569 8.9182 8.01758 8.72009 8.01758 8.4757Z" fill="black"/>
<path d="M7.62824 8.64027C7.83121 8.64027 7.99574 8.47574 7.99574 8.27277C7.99574 8.06981 7.83121 7.90527 7.62824 7.90527C7.42528 7.90527 7.26074 8.06981 7.26074 8.27277C7.26074 8.47574 7.42528 8.64027 7.62824 8.64027Z" fill="#FFD83D"/>
<path fill-rule="evenodd" clip-rule="evenodd" d="M7.62805 7.98008C7.4665 7.98008 7.33555 8.11103 7.33555 8.27258C7.33555 8.43412 7.4665 8.56508 7.62805 8.56508C7.78959 8.56508 7.92055 8.43412 7.92055 8.27258C7.92055 8.11104 7.78959 7.98008 7.62805 7.98008ZM7.18555 8.27258C7.18555 8.02819 7.38366 7.83008 7.62805 7.83008C7.87243 7.83008 8.07055 8.02819 8.07055 8.27258C8.07055 8.51696 7.87243 8.71508 7.62805 8.71508C7.38366 8.71508 7.18555 8.51696 7.18555 8.27258Z" fill="black"/>
<path d="M6.78059 8.43031C6.98355 8.43031 7.14809 8.26578 7.14809 8.06281C7.14809 7.85985 6.98355 7.69531 6.78059 7.69531C6.57762 7.69531 6.41309 7.85985 6.41309 8.06281C6.41309 8.26578 6.57762 8.43031 6.78059 8.43031Z" fill="#FFD83D"/>
<path fill-rule="evenodd" clip-rule="evenodd" d="M6.78039 7.77012C6.61885 7.77012 6.48789 7.90107 6.48789 8.06262C6.48789 8.22416 6.61885 8.35512 6.78039 8.35512C6.94193 8.35512 7.07289 8.22416 7.07289 8.06262C7.07289 7.90107 6.94193 7.77012 6.78039 7.77012ZM6.33789 8.06262C6.33789 7.81823 6.536 7.62012 6.78039 7.62012C7.02478 7.62012 7.22289 7.81823 7.22289 8.06262C7.22289 8.307 7.02478 8.50512 6.78039 8.50512C6.536 8.50512 6.33789 8.307 6.33789 8.06262Z" fill="black"/>
<path d="M5.93293 8.28773C6.1359 8.28773 6.30043 8.1232 6.30043 7.92023C6.30043 7.71727 6.1359 7.55273 5.93293 7.55273C5.72997 7.55273 5.56543 7.71727 5.56543 7.92023C5.56543 8.1232 5.72997 8.28773 5.93293 8.28773Z" fill="#FFD83D"/>
<path fill-rule="evenodd" clip-rule="evenodd" d="M5.93274 7.62754C5.77119 7.62754 5.64023 7.7585 5.64023 7.92004C5.64023 8.08158 5.77119 8.21254 5.93274 8.21254C6.09428 8.21254 6.22523 8.08158 6.22523 7.92004C6.22523 7.7585 6.09428 7.62754 5.93274 7.62754ZM5.49023 7.92004C5.49023 7.67565 5.68835 7.47754 5.93274 7.47754C6.17712 7.47754 6.37523 7.67565 6.37523 7.92004C6.37523 8.16443 6.17712 8.36254 5.93274 8.36254C5.68835 8.36254 5.49023 8.16443 5.49023 7.92004Z" fill="black"/>
<path d="M5.08527 8.2057C5.28824 8.2057 5.45277 8.04117 5.45277 7.8382C5.45277 7.63524 5.28824 7.4707 5.08527 7.4707C4.88231 7.4707 4.71777 7.63524 4.71777 7.8382C4.71777 8.04117 4.88231 8.2057 5.08527 8.2057Z" fill="#FFD83D"/>
<path fill-rule="evenodd" clip-rule="evenodd" d="M5.08508 7.54551C4.92354 7.54551 4.79258 7.67646 4.79258 7.83801C4.79258 7.99955 4.92354 8.13051 5.08508 8.13051C5.24662 8.13051 5.37758 7.99955 5.37758 7.83801C5.37758 7.67646 5.24662 7.54551 5.08508 7.54551ZM4.64258 7.83801C4.64258 7.59362 4.84069 7.39551 5.08508 7.39551C5.32947 7.39551 5.52758 7.59362 5.52758 7.83801C5.52758 8.08239 5.32947 8.28051 5.08508 8.28051C4.84069 8.28051 4.64258 8.08239 4.64258 7.83801Z" fill="black"/>
<path d="M4.26008 8.25063C4.46304 8.25063 4.62758 8.08609 4.62758 7.88313C4.62758 7.68016 4.46304 7.51562 4.26008 7.51562C4.05711 7.51562 3.89258 7.68016 3.89258 7.88313C3.89258 8.08609 4.05711 8.25063 4.26008 8.25063Z" fill="#FFD83D"/>
<path fill-rule="evenodd" clip-rule="evenodd" d="M4.26086 7.59043C4.09932 7.59043 3.96836 7.72139 3.96836 7.88293C3.96836 8.04447 4.09932 8.17543 4.26086 8.17543C4.4224 8.17543 4.55336 8.04447 4.55336 7.88293C4.55336 7.72139 4.4224 7.59043 4.26086 7.59043ZM3.81836 7.88293C3.81836 7.63854 4.01647 7.44043 4.26086 7.44043C4.50525 7.44043 4.70336 7.63854 4.70336 7.88293C4.70336 8.12732 4.50525 8.32543 4.26086 8.32543C4.01647 8.32543 3.81836 8.12732 3.81836 7.88293Z" fill="black"/>
<path d="M3.46516 8.52016C3.66812 8.52016 3.83266 8.35562 3.83266 8.15266C3.83266 7.94969 3.66812 7.78516 3.46516 7.78516C3.26219 7.78516 3.09766 7.94969 3.09766 8.15266C3.09766 8.35562 3.26219 8.52016 3.46516 8.52016Z" fill="#FFD83D"/>
<path fill-rule="evenodd" clip-rule="evenodd" d="M3.46496 7.86094C3.30342 7.86094 3.17246 7.99189 3.17246 8.15344C3.17246 8.31498 3.30342 8.44594 3.46496 8.44594C3.6265 8.44594 3.75746 8.31498 3.75746 8.15344C3.75746 7.99189 3.6265 7.86094 3.46496 7.86094ZM3.02246 8.15344C3.02246 7.90905 3.22057 7.71094 3.46496 7.71094C3.70935 7.71094 3.90746 7.90905 3.90746 8.15344C3.90746 8.39782 3.70935 8.59594 3.46496 8.59594C3.22057 8.59594 3.02246 8.39782 3.02246 8.15344Z" fill="black"/>
<path d="M2.79816 9.01527C3.00113 9.01527 3.16566 8.85074 3.16566 8.64777C3.16566 8.44481 3.00113 8.28027 2.79816 8.28027C2.5952 8.28027 2.43066 8.44481 2.43066 8.64777C2.43066 8.85074 2.5952 9.01527 2.79816 9.01527Z" fill="#FFD83D"/>
<path fill-rule="evenodd" clip-rule="evenodd" d="M2.79797 8.35508C2.63643 8.35508 2.50547 8.48604 2.50547 8.64758C2.50547 8.80912 2.63643 8.94008 2.79797 8.94008C2.95951 8.94008 3.09047 8.80912 3.09047 8.64758C3.09047 8.48603 2.95951 8.35508 2.79797 8.35508ZM2.35547 8.64758C2.35547 8.40319 2.55358 8.20508 2.79797 8.20508C3.04236 8.20508 3.24047 8.40319 3.24047 8.64758C3.24047 8.89196 3.04236 9.09008 2.79797 9.09008C2.55358 9.09008 2.35547 8.89196 2.35547 8.64758Z" fill="black"/>
<path d="M2.32551 9.69789C2.52847 9.69789 2.69301 9.53336 2.69301 9.33039C2.69301 9.12743 2.52847 8.96289 2.32551 8.96289C2.12254 8.96289 1.95801 9.12743 1.95801 9.33039C1.95801 9.53336 2.12254 9.69789 2.32551 9.69789Z" fill="#FFD83D"/>
<path fill-rule="evenodd" clip-rule="evenodd" d="M2.32531 9.0377C2.16377 9.0377 2.03281 9.16865 2.03281 9.3302C2.03281 9.49174 2.16377 9.6227 2.32531 9.6227C2.48686 9.6227 2.61781 9.49174 2.61781 9.3302C2.61781 9.16865 2.48686 9.0377 2.32531 9.0377ZM1.88281 9.3302C1.88281 9.08581 2.08093 8.8877 2.32531 8.8877C2.5697 8.8877 2.76781 9.08581 2.76781 9.3302C2.76781 9.57458 2.5697 9.7727 2.32531 9.7727C2.08093 9.7727 1.88281 9.57458 1.88281 9.3302Z" fill="black"/>
<path d="M2.09309 10.5084C2.29605 10.5084 2.46059 10.3439 2.46059 10.1409C2.46059 9.93797 2.29605 9.77344 2.09309 9.77344C1.89012 9.77344 1.72559 9.93797 1.72559 10.1409C1.72559 10.3439 1.89012 10.5084 2.09309 10.5084Z" fill="#FFD83D"/>
<path fill-rule="evenodd" clip-rule="evenodd" d="M2.09289 9.84824C1.93135 9.84824 1.80039 9.9792 1.80039 10.1407C1.80039 10.3023 1.93135 10.4332 2.09289 10.4332C2.25443 10.4332 2.38539 10.3023 2.38539 10.1407C2.38539 9.9792 2.25443 9.84824 2.09289 9.84824ZM1.65039 10.1407C1.65039 9.89636 1.8485 9.69824 2.09289 9.69824C2.33728 9.69824 2.53539 9.89636 2.53539 10.1407C2.53539 10.3851 2.33728 10.5832 2.09289 10.5832C1.8485 10.5832 1.65039 10.3851 1.65039 10.1407Z" fill="black"/>
<path d="M2.09992 11.3405C2.30289 11.3405 2.46742 11.1759 2.46742 10.973C2.46742 10.77 2.30289 10.6055 2.09992 10.6055C1.89696 10.6055 1.73242 10.77 1.73242 10.973C1.73242 11.1759 1.89696 11.3405 2.09992 11.3405Z" fill="#FFD83D"/>
<path fill-rule="evenodd" clip-rule="evenodd" d="M2.1007 10.6803C1.93916 10.6803 1.8082 10.8112 1.8082 10.9728C1.8082 11.1343 1.93916 11.2653 2.1007 11.2653C2.26225 11.2653 2.3932 11.1343 2.3932 10.9728C2.3932 10.8112 2.26225 10.6803 2.1007 10.6803ZM1.6582 10.9728C1.6582 10.7284 1.85632 10.5303 2.1007 10.5303C2.34509 10.5303 2.5432 10.7284 2.5432 10.9728C2.5432 11.2172 2.34509 11.4153 2.1007 11.4153C1.85632 11.4153 1.6582 11.2172 1.6582 10.9728Z" fill="black"/>
<path d="M2.26496 12.1579C2.46793 12.1579 2.63246 11.9933 2.63246 11.7904C2.63246 11.5874 2.46793 11.4229 2.26496 11.4229C2.062 11.4229 1.89746 11.5874 1.89746 11.7904C1.89746 11.9933 2.062 12.1579 2.26496 12.1579Z" fill="#FFD83D"/>
<path fill-rule="evenodd" clip-rule="evenodd" d="M2.26574 11.4977C2.1042 11.4977 1.97324 11.6286 1.97324 11.7902C1.97324 11.9517 2.1042 12.0827 2.26574 12.0827C2.42729 12.0827 2.55824 11.9517 2.55824 11.7902C2.55824 11.6286 2.42729 11.4977 2.26574 11.4977ZM1.82324 11.7902C1.82324 11.5458 2.02136 11.3477 2.26574 11.3477C2.51013 11.3477 2.70824 11.5458 2.70824 11.7902C2.70824 12.0345 2.51013 12.2327 2.26574 12.2327C2.02136 12.2327 1.82324 12.0345 1.82324 11.7902Z" fill="black"/>
<path d="M8.62551 8.96344L8.58801 9.45094C7.66551 9.30094 6.36051 8.79094 5.13801 8.79094C4.01301 8.79094 3.14301 9.24094 3.14301 10.3809C3.14301 11.4984 3.61551 12.5184 4.24551 13.5534L3.59301 13.8534C3.00801 12.7284 2.52051 11.7534 2.52051 10.4484C2.52051 9.35344 3.38301 8.27344 4.86801 8.27344C6.18051 8.27344 7.52301 8.72344 8.62551 8.96344Z" fill="#FFD83D"/>
<path fill-rule="evenodd" clip-rule="evenodd" d="M4.86781 8.34824C3.42521 8.34824 2.59531 9.39368 2.59531 10.4482C2.59531 11.7087 3.05618 12.6568 3.62641 13.7552L4.13764 13.5202C3.52741 12.5063 3.06781 11.4932 3.06781 10.3807C3.06781 9.78886 3.29518 9.36754 3.67493 9.09715C4.0507 8.82959 4.56713 8.71574 5.13781 8.71574C5.75849 8.71574 6.39761 8.84511 6.99323 8.99166C7.17722 9.03694 7.35647 9.08367 7.52978 9.12885C7.88869 9.22242 8.22211 9.30934 8.51935 9.3629L8.54554 9.02246C8.28764 8.96497 8.01747 8.89698 7.73933 8.82691L7.73033 8.82464C7.43157 8.74937 7.12339 8.67172 6.80895 8.60144C6.17356 8.45941 5.516 8.34824 4.86781 8.34824ZM8.62531 8.96324L8.64127 8.88996C8.36704 8.83026 8.07762 8.75745 7.77598 8.68145L7.76615 8.67898C7.46793 8.60384 7.15809 8.52578 6.84167 8.45505C6.20206 8.31208 5.53212 8.19824 4.86781 8.19824C3.34041 8.19824 2.44531 9.31281 2.44531 10.4482C2.44531 11.7736 2.94159 12.7634 3.52627 13.8878C3.54473 13.9233 3.58779 13.9381 3.62414 13.9214L4.27664 13.6214C4.29609 13.6124 4.31079 13.5956 4.31704 13.5752C4.32329 13.5547 4.3205 13.5325 4.30938 13.5142C3.68118 12.4822 3.21781 11.4769 3.21781 10.3807C3.21781 9.83262 3.42544 9.45894 3.76194 9.21934C4.10243 8.97689 4.5835 8.86574 5.13781 8.86574C5.73963 8.86574 6.36427 8.99138 6.95739 9.13732C7.13572 9.1812 7.3118 9.2271 7.48354 9.27186C7.87899 9.37494 8.25148 9.47204 8.57578 9.52477C8.59649 9.52814 8.61768 9.52267 8.63418 9.5097C8.65067 9.49672 8.66098 9.47742 8.66259 9.45649L8.70009 8.96899L8.62531 8.96324Z" fill="black"/>
<path d="M9.15051 3.98309L8.76051 4.71059L9.15051 5.43059L9.53301 4.71059L9.15051 3.97559V3.98309ZM9.15051 5.81309L8.76051 6.53309L9.15051 7.26059L9.52551 6.52559L9.14301 5.80559L9.15051 5.81309ZM7.77051 5.62559L8.37801 6.00809L8.98551 5.62559L8.38551 5.23559L7.77051 5.62559ZM9.30801 5.62559L9.91551 6.00809L10.5305 5.62559L9.91551 5.23559L9.31551 5.62559H9.30801Z" fill="#FFD83D"/>
<path fill-rule="evenodd" clip-rule="evenodd" d="M9.13249 3.90255C9.16606 3.89433 9.20089 3.91012 9.21684 3.94077L9.59934 4.67577C9.61074 4.69768 9.61063 4.72378 9.59905 4.74558L9.21655 5.46558C9.20358 5.48999 9.17825 5.50529 9.15062 5.5054C9.12298 5.50551 9.09753 5.49042 9.08437 5.46612L8.69437 4.74612C8.68235 4.72394 8.68229 4.6972 8.69421 4.67496L9.07656 3.96173C9.08185 3.93314 9.10344 3.90965 9.13249 3.90255ZM9.15131 4.13978L8.84551 4.71021L9.14967 5.27174L9.44808 4.71004L9.15131 4.13978ZM8.34515 5.17206C8.36992 5.15635 8.40159 5.15653 8.42619 5.17251L9.02619 5.56251C9.04763 5.57645 9.0605 5.60036 9.06031 5.62594C9.06013 5.65152 9.04692 5.67524 9.02527 5.68887L8.41777 6.07137C8.39335 6.08674 8.36227 6.08674 8.33785 6.07137L7.73035 5.68887C7.70858 5.67516 7.69535 5.65125 7.69531 5.62552C7.69527 5.59979 7.70842 5.57584 7.73015 5.56206L8.34515 5.17206ZM9.87444 5.17251C9.89904 5.15653 9.9307 5.15635 9.95548 5.17206L10.5705 5.56206C10.5923 5.57588 10.6054 5.59992 10.6053 5.62573C10.6052 5.65153 10.5918 5.67546 10.5699 5.68908L9.95492 6.07158C9.93054 6.08675 9.89965 6.08666 9.87535 6.07137L9.26785 5.68887C9.23958 5.67106 9.22649 5.6367 9.23575 5.6046C9.24329 5.57848 9.26415 5.55898 9.28966 5.55262L9.87444 5.17251ZM9.45079 5.62679L9.91556 5.91942L10.3893 5.62478L9.91581 5.32452L9.45079 5.62679ZM7.91071 5.62517L8.37781 5.91927L8.84615 5.62439L8.38481 5.32452L7.91071 5.62517ZM9.09821 5.7451C9.12806 5.72302 9.16958 5.72611 9.19584 5.75236L9.20334 5.75986C9.21405 5.77057 9.22097 5.78391 9.22382 5.79803L9.59155 6.49021C9.60303 6.51182 9.60324 6.53768 9.59212 6.55948L9.21712 7.29448C9.20443 7.31935 9.17899 7.33511 9.15107 7.33539C9.12316 7.33568 9.0974 7.32044 9.08421 7.29583L8.69421 6.56833C8.68229 6.5461 8.68235 6.51936 8.69437 6.49718L9.06784 5.80769C9.06712 5.78378 9.07787 5.76014 9.09821 5.7451ZM9.1479 5.97483L8.84551 6.53308L9.14867 7.09859L9.44076 6.5261L9.1479 5.97483Z" fill="black"/>
<path d="M9.1509 5.92582C9.31244 5.92582 9.4434 5.79486 9.4434 5.63332C9.4434 5.47178 9.31244 5.34082 9.1509 5.34082C8.98935 5.34082 8.8584 5.47178 8.8584 5.63332C8.8584 5.79486 8.98935 5.92582 9.1509 5.92582Z" fill="#FFD83D"/>
<path fill-rule="evenodd" clip-rule="evenodd" d="M9.1507 5.41562C9.03058 5.41562 8.9332 5.513 8.9332 5.63313C8.9332 5.75325 9.03058 5.85063 9.1507 5.85063C9.27082 5.85063 9.3682 5.75325 9.3682 5.63313C9.3682 5.513 9.27082 5.41562 9.1507 5.41562ZM8.7832 5.63313C8.7832 5.43016 8.94774 5.26562 9.1507 5.26562C9.35367 5.26562 9.5182 5.43016 9.5182 5.63313C9.5182 5.83609 9.35367 6.00063 9.1507 6.00063C8.94774 6.00063 8.7832 5.83609 8.7832 5.63313Z" fill="black"/>
<path d="M9.15078 8.28789C9.58571 8.28789 9.93828 7.93531 9.93828 7.50039C9.93828 7.06547 9.58571 6.71289 9.15078 6.71289C8.71586 6.71289 8.36328 7.06547 8.36328 7.50039C8.36328 7.93531 8.71586 8.28789 9.15078 8.28789Z" fill="#FFD83D"/>
<path fill-rule="evenodd" clip-rule="evenodd" d="M9.15059 6.7877C8.75708 6.7877 8.43809 7.10669 8.43809 7.5002C8.43809 7.8937 8.75708 8.2127 9.15059 8.2127C9.54409 8.2127 9.86309 7.8937 9.86309 7.5002C9.86309 7.10669 9.54409 6.7877 9.15059 6.7877ZM8.28809 7.5002C8.28809 7.02385 8.67424 6.6377 9.15059 6.6377C9.62693 6.6377 10.0131 7.02385 10.0131 7.5002C10.0131 7.97654 9.62693 8.3627 9.15059 8.3627C8.67424 8.3627 8.28809 7.97654 8.28809 7.5002Z" fill="black"/>
<path fill-rule="evenodd" clip-rule="evenodd" d="M8.94786 6.68652C8.97893 6.68652 9.00411 6.71171 9.00411 6.74277V7.23777C9.00411 7.26779 8.98055 7.29251 8.95057 7.29396C8.76677 7.30281 8.58367 7.3226 8.40223 7.35324C8.37159 7.35841 8.34257 7.33777 8.3374 7.30714C8.33222 7.27651 8.35286 7.24748 8.38349 7.24231C8.55172 7.2139 8.72134 7.1946 8.89161 7.18447V6.74277C8.89161 6.71171 8.91679 6.68652 8.94786 6.68652ZM9.34536 6.68652C9.37643 6.68652 9.40161 6.71171 9.40161 6.74277V7.18433C9.5744 7.19418 9.74653 7.21353 9.91721 7.24231C9.94785 7.24747 9.96849 7.27649 9.96333 7.30713C9.95816 7.33776 9.92914 7.35841 9.89851 7.35324C9.71465 7.32224 9.52907 7.30245 9.3428 7.29397C9.31276 7.2926 9.28911 7.26784 9.28911 7.23777V6.74277C9.28911 6.71171 9.31429 6.68652 9.34536 6.68652ZM9.15011 7.57152L9.15036 7.57152C9.40858 7.57152 9.66706 7.5943 9.91073 7.63999C9.94126 7.64571 9.96137 7.67511 9.95565 7.70564C9.94992 7.73617 9.92053 7.75628 9.88999 7.75056C9.6537 7.70625 9.40223 7.68403 9.1505 7.68402C8.89723 7.68518 8.64451 7.70748 8.39496 7.7507C8.36435 7.756 8.33524 7.73548 8.32994 7.70487C8.32463 7.67426 8.34515 7.64515 8.37576 7.63985C8.63152 7.59555 8.89054 7.5727 9.15011 7.57152Z" fill="black"/>
<path d="M8.3857 8.82812C8.3107 10.1031 8.1607 11.4156 7.6582 12.3606L8.4682 12.0306C8.7532 10.9581 8.8132 9.57063 8.8957 8.91063L8.3857 8.82812ZM9.9157 8.82812L9.3982 8.91063C9.4882 9.57063 9.5482 10.9581 9.8257 12.0306L10.6357 12.3606C10.1407 11.4156 9.9907 10.1106 9.9157 8.82812Z" fill="#FFD83D"/>
<path fill-rule="evenodd" clip-rule="evenodd" d="M9.3862 8.83641L9.9037 8.75391L9.91551 8.82797L9.99038 8.82359C10.0654 10.1069 10.2153 11.3967 10.7019 12.3257C10.7166 12.3536 10.7122 12.3876 10.691 12.4109C10.6698 12.4342 10.6364 12.4418 10.6072 12.4299L9.79721 12.0999C9.77527 12.091 9.75884 12.0722 9.7529 12.0493C9.61274 11.5076 9.52791 10.8882 9.46688 10.3238C9.44032 10.0782 9.41835 9.84429 9.39835 9.63122C9.37208 9.35138 9.34919 9.10755 9.3237 8.9206C9.31819 8.88022 9.34595 8.84282 9.3862 8.83641ZM9.84558 8.91507L9.48177 8.97307C9.50393 9.15145 9.52486 9.37416 9.54824 9.62281C9.56827 9.83591 9.59009 10.0681 9.61601 10.3077C9.67547 10.8575 9.75696 11.4531 9.88881 11.9753L10.4814 12.2167C10.0577 11.296 9.91746 10.0929 9.84558 8.91507ZM8.39749 8.75393L8.90749 8.83643C8.94734 8.84288 8.97494 8.87972 8.96993 8.91977C8.94911 9.08632 8.92959 9.30224 8.90723 9.54945C8.84237 10.2667 8.7537 11.2474 8.54049 12.0497C8.53445 12.0725 8.51809 12.0911 8.49631 12.0999L7.68631 12.4299C7.65707 12.4418 7.6235 12.4342 7.60235 12.4107C7.58119 12.3873 7.57697 12.3531 7.59179 12.3253C8.08567 11.3965 8.23558 10.0995 8.31064 8.82357L8.38551 8.82797L8.39749 8.75393ZM8.4554 8.91525C8.38353 10.0861 8.24321 11.2947 7.81366 12.2161L8.40499 11.9752C8.6077 11.1936 8.69261 10.2549 8.75638 9.54986C8.77616 9.33124 8.7939 9.13508 8.8125 8.97302L8.4554 8.91525Z" fill="black"/>
<path d="M9.15066 11.6025C8.17566 11.6025 7.46316 12.0525 7.42566 13.2225C7.18566 12.8025 6.18816 11.4975 5.25066 11.67C4.69566 11.775 4.20066 12.5475 4.29066 13.425C3.82566 12.105 2.48316 11.8875 1.49316 12.675C2.37066 13.3875 2.76066 15.51 3.49566 16.425H14.7982C15.5332 15.51 15.9232 13.3875 16.8007 12.675C15.8182 11.8875 14.4682 12.105 14.0107 13.425C14.0857 12.5475 13.5982 11.775 13.0357 11.67C12.1057 11.4975 11.1082 12.8025 10.8682 13.2225C10.8307 12.06 10.1182 11.6025 9.14316 11.6025H9.15066Z" fill="#FFD83D"/>
<path fill-rule="evenodd" clip-rule="evenodd" d="M9.1416 11.5283C9.14206 11.5283 9.14251 11.5283 9.14297 11.5283H9.15047M9.15184 11.5283C9.64629 11.5297 10.0847 11.6467 10.4057 11.9203C10.6872 12.1602 10.87 12.5133 10.9262 12.9921C11.0853 12.7603 11.3389 12.4435 11.6427 12.1692C12.0409 11.8097 12.5469 11.5039 13.0491 11.5971L13.0492 11.5971C13.3589 11.6549 13.6373 11.8933 13.8269 12.2211C13.9653 12.4601 14.0593 12.7511 14.0856 13.0664C14.3443 12.5852 14.7428 12.2923 15.1915 12.1875C15.7344 12.0606 16.3407 12.2112 16.8474 12.6173C16.8651 12.6315 16.8754 12.6529 16.8755 12.6756C16.8755 12.6983 16.8653 12.7198 16.8477 12.734C16.6394 12.9032 16.4561 13.1596 16.2865 13.4697C16.1173 13.7791 15.9647 14.1363 15.8152 14.5032C15.78 14.5897 15.7449 14.6768 15.7098 14.7639C15.5967 15.0446 15.4837 15.3251 15.3658 15.585C15.2115 15.9255 15.0462 16.2366 14.8564 16.4728C14.8422 16.4905 14.8207 16.5008 14.798 16.5008H3.49547C3.47274 16.5008 3.45123 16.4905 3.437 16.4728C3.24725 16.2366 3.08197 15.9255 2.92759 15.585C2.80972 15.3251 2.69671 15.0446 2.58361 14.7639C2.54853 14.6768 2.51344 14.5897 2.4782 14.5032C2.32875 14.1363 2.17612 13.7791 2.00689 13.4697C1.83732 13.1596 1.65401 12.9032 1.44569 12.734C1.42805 12.7197 1.41786 12.6982 1.41797 12.6754C1.41808 12.6527 1.42849 12.6313 1.44628 12.6171C1.95659 12.2112 2.56275 12.0606 3.10566 12.1875C3.55281 12.292 3.94993 12.5831 4.21072 13.061C4.23423 12.7478 4.32682 12.4588 4.46359 12.2212C4.65231 11.8934 4.93063 11.655 5.23653 11.5971L5.2369 11.5971C5.74264 11.504 6.25043 11.8095 6.64972 12.1692C6.95416 12.4434 7.20794 12.7602 7.36715 12.992C7.42313 12.5102 7.60601 12.1568 7.88786 11.9174C8.20896 11.6447 8.64741 11.5297 9.1416 11.5283M9.1467 11.6783C8.67117 11.6789 8.27056 11.7892 7.98495 12.0317C7.70032 12.2735 7.51869 12.6561 7.50043 13.2257C7.49935 13.2593 7.47613 13.288 7.44355 13.2961C7.41098 13.3042 7.377 13.2897 7.36035 13.2605C7.24394 13.0568 6.93944 12.632 6.54934 12.2806C6.15556 11.9259 5.69593 11.6652 5.26423 11.7445C5.01519 11.7917 4.76859 11.9921 4.59359 12.2961C4.41949 12.5985 4.3217 12.9952 4.36508 13.4182C4.36895 13.456 4.34395 13.4907 4.30687 13.499C4.26979 13.5073 4.23235 13.4866 4.21973 13.4507C3.99488 12.8125 3.56169 12.4481 3.07153 12.3335C2.60389 12.2243 2.07483 12.3402 1.61172 12.6795C1.81133 12.8632 1.9834 13.1141 2.1385 13.3977C2.31216 13.7152 2.4675 14.0794 2.61711 14.4466C2.6529 14.5344 2.68834 14.6224 2.72363 14.71C2.83646 14.99 2.94779 15.2664 3.0642 15.5231C3.21073 15.8462 3.36296 16.1327 3.53184 16.3508H14.7616C14.9305 16.1327 15.0827 15.8462 15.2292 15.5231C15.3457 15.2664 15.457 14.99 15.5698 14.71C15.6051 14.6224 15.6405 14.5344 15.6763 14.4466C15.8259 14.0794 15.9813 13.7152 16.1549 13.3977C16.3101 13.114 16.4822 12.863 16.682 12.6793C16.2222 12.3402 15.6933 12.2243 15.2257 12.3335C14.7355 12.4481 14.3024 12.8124 14.0813 13.4504C14.0689 13.4861 14.0319 13.507 13.9949 13.4992C13.9579 13.4913 13.9325 13.4571 13.9357 13.4194C13.9719 12.9959 13.8722 12.5988 13.6971 12.2962C13.5212 11.9921 13.2746 11.7918 13.0217 11.7446C12.594 11.6652 12.1363 11.9257 11.7432 12.2806C11.354 12.6319 11.0495 13.0568 10.9331 13.2605C10.9164 13.2897 10.8825 13.3042 10.8499 13.2961C10.8173 13.288 10.7941 13.2593 10.793 13.2257C10.7748 12.66 10.5932 12.2772 10.3084 12.0345C10.0227 11.7909 9.62199 11.6789 9.1467 11.6783Z" fill="black"/>
<path d="M14.7832 16.4256C14.7832 16.8456 12.2632 17.3031 9.15074 17.3031C6.03824 17.3031 3.51074 16.8531 3.51074 16.4256C3.51074 16.0131 6.03824 15.7881 9.15074 15.7881C12.2557 15.7881 14.7832 16.0131 14.7832 16.4256Z" fill="black"/>
<path fill-rule="evenodd" clip-rule="evenodd" d="M3.65422 16.3275C3.58266 16.3709 3.5666 16.4049 3.5666 16.4252C3.5666 16.4498 3.58576 16.4889 3.65753 16.5397C3.72666 16.5887 3.83207 16.6393 3.97288 16.6897C4.25377 16.7903 4.66312 16.886 5.17219 16.9687C6.18956 17.1341 7.59647 17.2464 9.15035 17.2464C10.7042 17.2464 12.1092 17.1322 13.1247 16.9659C13.6328 16.8827 14.0413 16.7868 14.3215 16.6865C14.462 16.6363 14.5672 16.5859 14.6361 16.5375C14.708 16.487 14.7266 16.4486 14.7266 16.4252C14.7266 16.4049 14.7105 16.3709 14.639 16.3275C14.5704 16.2858 14.4653 16.2448 14.3244 16.2058C14.0434 16.1279 13.6341 16.0615 13.1251 16.0077C12.1078 15.9002 10.7019 15.8439 9.15035 15.8439C7.59509 15.8439 6.18726 15.9002 5.16907 16.0077C4.65954 16.0615 4.24999 16.1279 3.96892 16.2058C3.82795 16.2448 3.72286 16.2858 3.65422 16.3275ZM5.15726 15.8958C6.18094 15.7877 7.59311 15.7314 9.15035 15.7314C10.7038 15.7314 12.1141 15.7877 13.1369 15.8958C13.6478 15.9498 14.0645 16.017 14.3544 16.0974C14.499 16.1374 14.6157 16.1817 14.6974 16.2313C14.7762 16.2791 14.8391 16.3424 14.8391 16.4252C14.8391 16.5068 14.779 16.5746 14.7008 16.6295C14.6198 16.6864 14.5038 16.7408 14.3594 16.7925C14.0699 16.8961 13.6538 16.9933 13.1429 17.077C12.1203 17.2444 10.709 17.3589 9.15035 17.3589C7.59173 17.3589 6.17864 17.2463 5.15414 17.0798C4.64227 16.9966 4.22522 16.8996 3.93494 16.7956C3.79015 16.7437 3.67379 16.6891 3.59254 16.6316C3.51393 16.5759 3.4541 16.5075 3.4541 16.4252C3.4541 16.3424 3.51703 16.2791 3.59585 16.2313C3.67759 16.1817 3.79428 16.1374 3.93889 16.0974C4.22899 16.017 4.64585 15.9498 5.15726 15.8958Z" fill="black"/>
<path d="M9.15117 8.84336C9.29615 8.84336 9.41367 8.72583 9.41367 8.58086C9.41367 8.43588 9.29615 8.31836 9.15117 8.31836C9.0062 8.31836 8.88867 8.43588 8.88867 8.58086C8.88867 8.72583 9.0062 8.84336 9.15117 8.84336Z" fill="#FFD83D"/>
<path fill-rule="evenodd" clip-rule="evenodd" d="M9.15078 8.37422C9.03687 8.37422 8.94453 8.46656 8.94453 8.58047C8.94453 8.69438 9.03687 8.78672 9.15078 8.78672C9.26469 8.78672 9.35703 8.69438 9.35703 8.58047C9.35703 8.46656 9.26469 8.37422 9.15078 8.37422ZM8.83203 8.58047C8.83203 8.40443 8.97474 8.26172 9.15078 8.26172C9.32682 8.26172 9.46953 8.40443 9.46953 8.58047C9.46953 8.75651 9.32682 8.89922 9.15078 8.89922C8.97474 8.89922 8.83203 8.75651 8.83203 8.58047Z" fill="black"/>
<path d="M9.15055 9.42805C9.30381 9.42805 9.42805 9.30381 9.42805 9.15055C9.42805 8.99729 9.30381 8.87305 9.15055 8.87305C8.99729 8.87305 8.87305 8.99729 8.87305 9.15055C8.87305 9.30381 8.99729 9.42805 9.15055 9.42805Z" fill="#FFD83D"/>
<path fill-rule="evenodd" clip-rule="evenodd" d="M9.15113 8.92891C9.02894 8.92891 8.92988 9.02796 8.92988 9.15016C8.92988 9.27235 9.02894 9.37141 9.15113 9.37141C9.27333 9.37141 9.37238 9.27235 9.37238 9.15016C9.37238 9.02796 9.27333 8.92891 9.15113 8.92891ZM8.81738 9.15016C8.81738 8.96583 8.96681 8.81641 9.15113 8.81641C9.33546 8.81641 9.48488 8.96583 9.48488 9.15016C9.48488 9.33448 9.33546 9.48391 9.15113 9.48391C8.96681 9.48391 8.81738 9.33448 8.81738 9.15016Z" fill="black"/>
<path d="M9.15125 10.073C9.32108 10.073 9.45875 9.93534 9.45875 9.76551C9.45875 9.59568 9.32108 9.45801 9.15125 9.45801C8.98142 9.45801 8.84375 9.59568 8.84375 9.76551C8.84375 9.93534 8.98142 10.073 9.15125 10.073Z" fill="#FFD83D"/>
<path fill-rule="evenodd" clip-rule="evenodd" d="M9.15086 9.51387C9.0121 9.51387 8.89961 9.62636 8.89961 9.76512C8.89961 9.90388 9.0121 10.0164 9.15086 10.0164C9.28962 10.0164 9.40211 9.90388 9.40211 9.76512C9.40211 9.62636 9.28962 9.51387 9.15086 9.51387ZM8.78711 9.76512C8.78711 9.56422 8.94997 9.40137 9.15086 9.40137C9.35175 9.40137 9.51461 9.56422 9.51461 9.76512C9.51461 9.96601 9.35175 10.1289 9.15086 10.1289C8.94997 10.1289 8.78711 9.96601 8.78711 9.76512Z" fill="black"/>
<path d="M9.15035 10.8007C9.34503 10.8007 9.50285 10.6429 9.50285 10.4482C9.50285 10.2535 9.34503 10.0957 9.15035 10.0957C8.95567 10.0957 8.79785 10.2535 8.79785 10.4482C8.79785 10.6429 8.95567 10.8007 9.15035 10.8007Z" fill="#FFD83D"/>
<path fill-rule="evenodd" clip-rule="evenodd" d="M9.15094 10.1516C8.98732 10.1516 8.85469 10.2842 8.85469 10.4478C8.85469 10.6114 8.98732 10.7441 9.15094 10.7441C9.31455 10.7441 9.44719 10.6114 9.44719 10.4478C9.44719 10.2842 9.31455 10.1516 9.15094 10.1516ZM8.74219 10.4478C8.74219 10.2221 8.92519 10.0391 9.15094 10.0391C9.37668 10.0391 9.55969 10.2221 9.55969 10.4478C9.55969 10.6736 9.37668 10.8566 9.15094 10.8566C8.92519 10.8566 8.74219 10.6736 8.74219 10.4478Z" fill="black"/>
<path d="M9.15106 11.5882C9.3623 11.5882 9.53356 11.417 9.53356 11.2057C9.53356 10.9945 9.3623 10.8232 9.15106 10.8232C8.93981 10.8232 8.76855 10.9945 8.76855 11.2057C8.76855 11.417 8.93981 11.5882 9.15106 11.5882Z" fill="#FFD83D"/>
<path fill-rule="evenodd" clip-rule="evenodd" d="M9.15066 10.8791C8.97048 10.8791 8.82441 11.0252 8.82441 11.2054C8.82441 11.3855 8.97048 11.5316 9.15066 11.5316C9.33085 11.5316 9.47691 11.3855 9.47691 11.2054C9.47691 11.0252 9.33085 10.8791 9.15066 10.8791ZM8.71191 11.2054C8.71191 10.963 8.90835 10.7666 9.15066 10.7666C9.39298 10.7666 9.58942 10.963 9.58942 11.2054C9.58942 11.4477 9.39298 11.6441 9.15066 11.6441C8.90835 11.6441 8.71191 11.4477 8.71191 11.2054Z" fill="black"/>
<path d="M9.00083 11.9404C8.95583 11.9404 8.91833 11.9779 8.92583 12.0454L8.97083 12.3679C8.98583 12.4804 9.04583 12.4429 9.06833 12.3679C9.08333 12.2779 9.07583 12.2179 9.08333 12.0604C9.08333 11.9779 9.03833 11.9404 8.99333 11.9404H9.00083ZM9.30083 11.9404C9.25583 11.9404 9.21833 11.9779 9.21833 12.0604C9.21833 12.2179 9.21833 12.2779 9.23333 12.3604C9.24833 12.4504 9.30833 12.4804 9.33083 12.3604L9.36833 12.0454C9.38333 11.9704 9.33833 11.9404 9.30083 11.9404ZM8.72333 11.9854C8.70344 11.9854 8.68436 11.9933 8.6703 12.0074C8.65623 12.0215 8.64833 12.0405 8.64833 12.0604C8.64833 12.1354 8.67083 12.2329 8.67833 12.3454C8.69333 12.4579 8.77583 12.4204 8.78333 12.3454C8.78333 12.2854 8.79833 12.1804 8.78333 12.0529C8.78333 12.0079 8.76833 11.9854 8.73833 11.9779C8.73335 11.9773 8.72831 11.9773 8.72333 11.9779V11.9854ZM9.55583 11.9854C9.53333 11.9854 9.51083 12.0079 9.50333 12.0604C9.4993 12.1557 9.50433 12.2511 9.51833 12.3454C9.51833 12.4204 9.60833 12.4579 9.61583 12.3454C9.61583 12.2329 9.64583 12.1429 9.64583 12.0679C9.64583 12.0229 9.60833 11.9929 9.57083 11.9854C9.56585 11.9848 9.56081 11.9848 9.55583 11.9854ZM8.40083 12.1129C8.36333 12.1204 8.32583 12.1654 8.34083 12.2104C8.36333 12.3079 8.38583 12.4129 8.38583 12.5104C8.38583 12.5929 8.45333 12.5629 8.46083 12.5104C8.46667 12.4105 8.46918 12.3105 8.46833 12.2104C8.46833 12.1354 8.43083 12.1054 8.39333 12.1129H8.40083ZM9.87083 12.1129C9.84833 12.1204 9.82583 12.1504 9.82583 12.2104L9.84083 12.5104C9.84083 12.5629 9.91583 12.5929 9.91583 12.5104C9.91583 12.4129 9.93083 12.3079 9.95333 12.2104C9.96833 12.1654 9.93083 12.1204 9.90083 12.1129C9.89345 12.111 9.88571 12.111 9.87833 12.1129H9.87083ZM5.44583 12.1279C5.40083 12.1279 5.37083 12.1804 5.40083 12.2404C5.44583 12.3454 5.49833 12.4054 5.54333 12.5104C5.58083 12.6079 5.64833 12.5479 5.62583 12.4804L5.52083 12.2029C5.49833 12.1504 5.46833 12.1279 5.44583 12.1279ZM12.8558 12.1279C12.8258 12.1279 12.8033 12.1504 12.7808 12.2029C12.7133 12.3454 12.6908 12.4129 12.6683 12.4804C12.6533 12.5554 12.7133 12.6079 12.7583 12.5104L12.8933 12.2404C12.9233 12.1804 12.8933 12.1279 12.8558 12.1279ZM5.74583 12.1279C5.70833 12.1429 5.69333 12.1804 5.70833 12.2254C5.75333 12.3154 5.80583 12.4129 5.84333 12.5104C5.87333 12.5929 5.94833 12.5704 5.91833 12.4954L5.84333 12.2179C5.81333 12.1429 5.76833 12.1204 5.74583 12.1279ZM12.5333 12.1279C12.5033 12.1354 12.4733 12.1654 12.4583 12.2179C12.4058 12.3679 12.3983 12.4129 12.3758 12.4954C12.3458 12.5704 12.4208 12.5929 12.4508 12.5104L12.5858 12.2254C12.6008 12.1804 12.5858 12.1429 12.5558 12.1279C12.5484 12.126 12.5407 12.126 12.5333 12.1279ZM6.12083 12.2029C6.07583 12.2104 6.04583 12.2704 6.07583 12.3454C6.10583 12.4354 6.15083 12.5179 6.19583 12.6229C6.24083 12.7279 6.30833 12.7054 6.29333 12.6379C6.27083 12.5704 6.25583 12.4654 6.20333 12.3004C6.18083 12.2254 6.15083 12.1954 6.12083 12.2029ZM12.1808 12.2029C12.1508 12.2029 12.1133 12.2254 12.0908 12.3004C12.0458 12.4654 12.0158 12.5704 12.0083 12.6379C11.9858 12.7129 12.0608 12.7279 12.0983 12.6229C12.1433 12.5179 12.1883 12.4354 12.2183 12.3454C12.2483 12.2704 12.2183 12.2104 12.1808 12.2029ZM5.19083 12.2554C5.14583 12.2554 5.11583 12.3304 5.13833 12.3829C5.17583 12.4579 5.20583 12.4879 5.24333 12.5779C5.28833 12.6679 5.33333 12.6004 5.31833 12.5404C5.29583 12.4804 5.27333 12.4129 5.25833 12.3304C5.24333 12.2704 5.21333 12.2554 5.18333 12.2554H5.19083ZM13.1108 12.2554C13.0808 12.2554 13.0583 12.2704 13.0358 12.3304L12.9833 12.5404C12.9683 12.6004 13.0133 12.6679 13.0583 12.5779C13.0958 12.4879 13.1183 12.4654 13.1633 12.3829C13.1858 12.3304 13.1483 12.2629 13.1108 12.2554ZM8.08583 12.4654C8.03333 12.4654 7.98833 12.5254 8.01083 12.5779C8.02583 12.6679 8.07083 12.7429 8.09333 12.8554C8.12333 12.9529 8.19083 12.9079 8.18333 12.8404C8.17788 12.7397 8.16534 12.6394 8.14583 12.5404C8.13083 12.4879 8.10833 12.4654 8.07833 12.4654H8.08583ZM10.2158 12.4654C10.1933 12.4654 10.1633 12.4879 10.1558 12.5404C10.1338 12.6392 10.1188 12.7395 10.1108 12.8404C10.1108 12.9079 10.1783 12.9529 10.2008 12.8554L10.2908 12.5779C10.3058 12.5254 10.2608 12.4654 10.2158 12.4654ZM9.15083 12.5554C9.09083 12.5554 9.08333 12.6304 9.08333 12.6829C9.07875 12.8537 9.02682 13.0199 8.93333 13.1629C8.85833 13.2529 8.76083 13.2304 8.67083 13.1779C8.58359 13.1304 8.50076 13.0752 8.42333 13.0129C8.31833 12.9379 8.24333 12.9829 8.36333 13.1554C8.70833 13.6504 9.08333 14.0704 9.08333 14.8804C9.08333 14.9779 9.10583 15.0079 9.15083 15.0079C9.19583 15.0079 9.21083 14.9779 9.21083 14.8729C9.21083 14.0704 9.58583 13.6504 9.93083 13.1479C10.0508 12.9829 9.97583 12.9379 9.87833 13.0129C9.80122 13.0756 9.71835 13.1309 9.63083 13.1779C9.53333 13.2304 9.43583 13.2529 9.36833 13.1629C9.27484 13.0199 9.22291 12.8537 9.21833 12.6829C9.21083 12.6304 9.20333 12.5554 9.14333 12.5554H9.15083ZM6.50333 12.4354C6.49836 12.4346 6.49329 12.4346 6.48833 12.4354C6.46583 12.4429 6.45833 12.4654 6.46583 12.5104L6.54833 12.8029C6.57083 12.8779 6.65333 12.8554 6.63833 12.7654L6.59333 12.5329C6.57833 12.4729 6.53333 12.4354 6.50333 12.4354ZM11.7983 12.4354C11.7608 12.4354 11.7233 12.4729 11.7083 12.5329C11.6783 12.6379 11.6783 12.6679 11.6633 12.7579C11.6408 12.8554 11.7308 12.8704 11.7458 12.8029L11.8358 12.5029C11.8358 12.4654 11.8283 12.4429 11.8058 12.4354C11.8009 12.4346 11.7958 12.4346 11.7908 12.4354H11.7983ZM4.92833 12.4654C4.88333 12.4654 4.85333 12.5254 4.89833 12.6004C4.94333 12.6904 5.02583 12.7954 5.06333 12.8629C5.10083 12.9229 5.16833 12.8779 5.12333 12.8029C5.07833 12.7279 5.06333 12.6304 5.00333 12.5179C4.99838 12.5021 4.98834 12.4884 4.97477 12.4789C4.9612 12.4694 4.94487 12.4647 4.92833 12.4654ZM13.3658 12.4654C13.3433 12.4654 13.3133 12.4804 13.2908 12.5179C13.2383 12.6304 13.2158 12.7204 13.1783 12.8029C13.1333 12.8779 13.1933 12.9229 13.2308 12.8629C13.2683 12.7954 13.3508 12.6904 13.3958 12.6004C13.4408 12.5254 13.4108 12.4654 13.3658 12.4654ZM2.55083 12.7129C2.50583 12.7129 2.49083 12.8029 2.53583 12.8629C2.59407 12.9366 2.65938 13.0045 2.73083 13.0654C2.79083 13.1254 2.80583 13.0504 2.77583 12.9904L2.64083 12.7879C2.60333 12.7354 2.57333 12.7129 2.55083 12.7129ZM15.7433 12.7129C15.7208 12.7129 15.6908 12.7354 15.6608 12.7879L15.5183 12.9904C15.4883 13.0504 15.5033 13.1254 15.5708 13.0654C15.6423 13.0045 15.7077 12.9367 15.7658 12.8629C15.8108 12.8029 15.7958 12.7129 15.7433 12.7129ZM2.93333 12.7879C2.88833 12.7879 2.85833 12.8179 2.89583 12.8854L3.03833 13.1704C3.07583 13.2454 3.18833 13.2679 3.14333 13.1554L3.04583 12.8704C3.02333 12.8179 2.97083 12.7954 2.93333 12.7954V12.7879ZM15.3683 12.7879C15.3233 12.7879 15.2708 12.8179 15.2483 12.8704L15.1583 13.1554C15.1133 13.2679 15.2258 13.2454 15.2633 13.1704C15.3008 13.0954 15.3608 12.9829 15.3983 12.8854C15.4358 12.8179 15.4058 12.7879 15.3683 12.7879ZM2.19833 12.8179C2.13833 12.8179 2.13833 12.8704 2.19083 12.9079C2.25833 12.9604 2.34083 13.0129 2.41583 13.0804C2.51333 13.1554 2.54333 13.0804 2.49083 13.0204C2.44583 12.9604 2.40083 12.9004 2.27333 12.8329C2.24333 12.8179 2.22083 12.8179 2.19833 12.8179ZM16.0958 12.8179C16.0808 12.8179 16.0508 12.8179 16.0208 12.8329C15.9008 12.9004 15.8483 12.9604 15.7958 13.0204C15.7508 13.0879 15.7883 13.1554 15.8783 13.0804C15.9533 13.0129 16.0433 12.9604 16.1033 12.9079C16.1633 12.8704 16.1558 12.8179 16.1033 12.8179H16.0958ZM7.87583 12.8704C7.83833 12.8704 7.81583 12.9079 7.82333 12.9604L7.89833 13.2304C7.91333 13.3129 8.01083 13.3129 7.99583 13.2304C7.98083 13.1554 7.97333 13.0579 7.94333 12.9379C7.93583 12.8929 7.91333 12.8704 7.88333 12.8629C7.88083 12.8627 7.87832 12.8627 7.87583 12.8629V12.8704ZM10.4108 12.8704C10.3883 12.8704 10.3658 12.8929 10.3508 12.9454C10.3208 13.0579 10.3133 13.1554 10.2983 13.2379C10.2833 13.3129 10.3808 13.3129 10.3958 13.2304L10.4708 12.9604C10.4858 12.9079 10.4558 12.8704 10.4258 12.8704C10.4209 12.8696 10.4158 12.8696 10.4108 12.8704ZM5.61083 12.7204C5.58833 12.7204 5.57333 12.7729 5.59583 12.8479C5.67538 13.0641 5.71601 13.2926 5.71583 13.5229C5.69333 13.6129 5.64083 13.6204 5.57333 13.5979C5.49975 13.5616 5.42949 13.519 5.36333 13.4704C5.30333 13.4329 5.23583 13.4779 5.32583 13.5529C5.77583 13.9279 6.09833 14.3554 6.22583 14.8729C6.24083 14.9779 6.30833 14.9929 6.29333 14.8729C6.18833 14.2204 6.16583 13.6804 6.32333 13.3504C6.38333 13.2229 6.32333 13.1029 6.23333 13.3054C6.16583 13.4404 6.06833 13.4929 5.98583 13.3804C5.86856 13.1974 5.76815 13.0041 5.68583 12.8029C5.67083 12.7504 5.64833 12.7279 5.62583 12.7204C5.62335 12.72 5.62081 12.72 5.61833 12.7204H5.61083ZM12.6683 12.7204C12.6458 12.7204 12.6233 12.7504 12.6083 12.7954C12.5558 12.9454 12.3908 13.2604 12.3083 13.3804C12.2258 13.5004 12.1283 13.4404 12.0683 13.3054C11.9708 13.1029 11.9183 13.2229 11.9708 13.3504C12.1283 13.6804 12.1058 14.2204 12.0083 14.8729C11.9858 14.9929 12.0533 14.9779 12.0833 14.8729C12.222 14.3462 12.5337 13.8813 12.9683 13.5529C13.0583 13.4779 12.9908 13.4329 12.9308 13.4779C12.8643 13.5215 12.794 13.5592 12.7208 13.5904C12.6458 13.6204 12.6008 13.6129 12.5783 13.5154C12.5633 13.4254 12.5933 13.2229 12.7058 12.8404C12.7208 12.7804 12.7058 12.7279 12.6833 12.7204C12.6785 12.7187 12.6732 12.7187 12.6683 12.7204ZM3.33083 12.9004C3.29333 12.9004 3.25583 12.9304 3.27833 12.9904C3.30833 13.0954 3.36833 13.2004 3.39083 13.2604C3.41333 13.3279 3.48083 13.2979 3.46583 13.2079L3.42833 12.9754C3.42833 12.9304 3.37583 12.9004 3.33083 12.9004ZM14.9633 12.9004C14.9183 12.9004 14.8733 12.9304 14.8658 12.9754L14.8358 13.2079C14.8208 13.2979 14.8883 13.3279 14.9108 13.2604C14.9258 13.2004 14.9858 13.0954 15.0158 12.9904C15.0383 12.9304 15.0083 12.9004 14.9633 12.9004ZM4.74083 12.7729C4.69583 12.7654 4.68833 12.8854 4.72583 12.9379L4.93583 13.1704C4.99583 13.2454 5.03333 13.1779 4.99583 13.1179L4.80083 12.8329C4.77833 12.7954 4.75583 12.7729 4.74083 12.7729ZM13.5533 12.7729C13.5383 12.7729 13.5158 12.7954 13.4933 12.8329L13.2983 13.1179C13.2608 13.1779 13.2983 13.2454 13.3658 13.1704L13.5683 12.9379C13.6058 12.8854 13.6058 12.7654 13.5533 12.7729ZM3.65333 13.0729C3.62333 13.0729 3.60083 13.0879 3.61583 13.1479C3.63083 13.2379 3.65333 13.2979 3.67583 13.3804C3.69833 13.4554 3.75083 13.4479 3.75083 13.3729L3.72833 13.1329C3.72506 13.115 3.71592 13.0986 3.70235 13.0864C3.68878 13.0742 3.67154 13.0668 3.65333 13.0654V13.0729ZM14.6408 13.0729C14.6233 13.0726 14.6062 13.0784 14.5925 13.0893C14.5788 13.1003 14.5693 13.1157 14.5658 13.1329L14.5433 13.3729C14.5433 13.4479 14.6033 13.4629 14.6183 13.3804L14.6858 13.1554C14.7008 13.0879 14.6708 13.0654 14.6408 13.0654V13.0729ZM4.63583 13.1779C4.59083 13.1779 4.55333 13.2304 4.60583 13.2979C4.68833 13.4104 4.78583 13.4854 4.82333 13.5229C4.85333 13.5679 4.93583 13.5529 4.88333 13.4704L4.71083 13.2079C4.69583 13.1779 4.66583 13.1704 4.63583 13.1779ZM13.6358 13.1779C13.6208 13.1779 13.5983 13.1854 13.5908 13.2079L13.4108 13.4704C13.3583 13.5529 13.4408 13.5679 13.4783 13.5304C13.5083 13.4854 13.6058 13.4104 13.6958 13.2979C13.7483 13.2229 13.7033 13.1779 13.6583 13.1779C13.6533 13.1774 13.6483 13.1774 13.6433 13.1779H13.6358ZM3.08333 13.4854C3.05333 13.4854 3.03833 13.5154 3.08333 13.5829C3.19916 13.7234 3.28355 13.8871 3.33083 14.0629C3.33833 14.1679 3.29333 14.1679 3.24833 14.1679C3.10583 14.1679 3.03833 14.0629 2.91833 14.0329C2.79083 14.0104 2.76833 14.0704 2.85833 14.1379C3.28822 14.4098 3.66239 14.7611 3.96083 15.1729C4.03583 15.3154 4.13333 15.3604 4.08083 15.2329C3.93511 14.9405 3.87283 14.6135 3.90083 14.2879C3.93833 14.0779 3.99083 13.9429 3.98333 13.8229C3.98333 13.7104 3.90833 13.7179 3.88583 13.8229L3.81083 14.0329C3.78083 14.0704 3.67583 14.0929 3.58583 13.9654C3.45828 13.8089 3.31778 13.6634 3.16583 13.5304C3.14333 13.5079 3.11333 13.4929 3.09083 13.4854H3.08333ZM15.2108 13.4854C15.1883 13.4854 15.1583 13.5004 15.1283 13.5304C14.979 13.6638 14.841 13.8093 14.7158 13.9654C14.6183 14.0929 14.5133 14.0704 14.4908 14.0404C14.4566 13.9714 14.4314 13.8983 14.4158 13.8229C14.3858 13.7179 14.3183 13.7104 14.3108 13.8229C14.3108 13.9429 14.3558 14.0779 14.3933 14.2879C14.4308 14.4979 14.3933 14.8279 14.2208 15.2329C14.1608 15.3604 14.2658 15.3079 14.3408 15.1729C14.6365 14.7613 15.0082 14.41 15.4358 14.1379C15.5258 14.0704 15.5108 14.0104 15.3833 14.0329C15.2558 14.0629 15.1883 14.1679 15.0533 14.1679C15.0083 14.1679 14.9558 14.1679 14.9633 14.0629C14.9708 13.9654 15.0983 13.7329 15.2108 13.5829C15.2558 13.5079 15.2483 13.4854 15.2108 13.4854Z" fill="black"/>
<path d="M3.75879 15.9531L3.90879 16.4106L3.75879 15.9531ZM4.05879 15.8631L4.19379 16.3281L4.05879 15.8631ZM4.38879 15.8031L4.47879 16.2831L4.38879 15.8031ZM4.68879 15.7506L4.78629 16.2231L4.68879 15.7506ZM5.07129 15.7131L5.14629 16.1931L5.07129 15.7131ZM5.48379 15.7131L5.56629 16.1856L5.48379 15.7131ZM5.88879 15.5781L5.94879 16.0581L5.88879 15.5781ZM6.26379 15.6006L6.32379 16.0806L6.26379 15.6006ZM6.63129 15.5556L6.69129 16.0356L6.63129 15.5556ZM6.99129 15.5106L7.02879 15.9981L6.99129 15.5106ZM7.38879 15.5106L7.41879 15.9981L7.38879 15.5106ZM7.74879 15.4881L7.77129 15.9756L7.74879 15.4881ZM8.13879 15.4656L8.16129 15.9456L8.13879 15.4656ZM8.58879 15.4506L8.61129 15.9381L8.58879 15.4506ZM14.5363 15.9531L14.3863 16.4106L14.5363 15.9531ZM14.2363 15.8631L14.1088 16.3281L14.2363 15.8631ZM13.9138 15.8031L13.8238 16.2831L13.9138 15.8031ZM13.6138 15.7506L13.5163 16.2231L13.6138 15.7506ZM13.2163 15.7131L13.1413 16.1931L13.2163 15.7131ZM12.8113 15.7131L12.7288 16.1931L12.8113 15.7131ZM12.4138 15.5781L12.3538 16.0581L12.4138 15.5781ZM12.0313 15.6006L11.9713 16.0806L12.0313 15.6006ZM11.6713 15.5556L11.6038 16.0356L11.6713 15.5556ZM11.3038 15.5106L11.2663 15.9981L11.3038 15.5106ZM10.9063 15.5106L10.8763 15.9981L10.9063 15.5106ZM10.5538 15.4881L10.5313 15.9756L10.5538 15.4881ZM10.1563 15.4656L10.1413 15.9456L10.1563 15.4656ZM9.70629 15.4506L9.69129 15.9381L9.70629 15.4506ZM9.15129 15.4131V15.9531V15.4131Z" fill="#FFD83D"/>
<path fill-rule="evenodd" clip-rule="evenodd" d="M9.15091 15.3564C9.18198 15.3564 9.20716 15.3816 9.20716 15.4127V15.9527C9.20716 15.9838 9.18198 16.0089 9.15091 16.0089C9.11985 16.0089 9.09466 15.9838 9.09466 15.9527V15.4127C9.09466 15.3816 9.11985 15.3564 9.15091 15.3564ZM8.58582 15.394C8.61685 15.3926 8.64317 15.4166 8.6446 15.4476L8.6671 15.9351C8.66854 15.9661 8.64454 15.9925 8.61351 15.9939C8.58247 15.9953 8.55616 15.9713 8.55472 15.9403L8.53222 15.4528C8.53079 15.4218 8.55479 15.3954 8.58582 15.394ZM9.70764 15.394C9.73869 15.3949 9.76309 15.4209 9.76214 15.4519L9.74714 15.9394C9.74618 15.9705 9.72023 15.9949 9.68918 15.9939C9.65813 15.993 9.63373 15.967 9.63469 15.936L9.64969 15.4485C9.65065 15.4174 9.67659 15.393 9.70764 15.394ZM8.13578 15.409C8.16681 15.4076 8.19315 15.4315 8.1946 15.4626L8.2171 15.9426C8.21856 15.9736 8.19458 15.9999 8.16355 16.0014C8.13252 16.0028 8.10618 15.9789 8.10473 15.9478L8.08222 15.4678C8.08077 15.4368 8.10475 15.4105 8.13578 15.409ZM10.1577 15.409C10.1887 15.4099 10.2131 15.4359 10.2121 15.467L10.1971 15.947C10.1962 15.978 10.1702 16.0024 10.1392 16.0014C10.1081 16.0004 10.0837 15.9745 10.0847 15.9434L10.0997 15.4634C10.1007 15.4324 10.1266 15.408 10.1577 15.409ZM7.74582 15.4315C7.77685 15.4301 7.80317 15.4541 7.8046 15.4851L7.8271 15.9726C7.82854 16.0036 7.80454 16.03 7.77351 16.0314C7.74247 16.0328 7.71616 16.0088 7.71472 15.9778L7.69222 15.4903C7.69079 15.4593 7.71479 15.4329 7.74582 15.4315ZM10.556 15.4315C10.587 15.4329 10.611 15.4593 10.6096 15.4903L10.5871 15.9778C10.5857 16.0088 10.5594 16.0328 10.5283 16.0314C10.4973 16.03 10.4733 16.0036 10.4747 15.9726L10.4972 15.4851C10.4987 15.4541 10.525 15.4301 10.556 15.4315ZM6.9866 15.4541C7.01757 15.4517 7.04461 15.4749 7.047 15.5059L7.0845 15.9934C7.08688 16.0244 7.0637 16.0514 7.03273 16.0538C7.00175 16.0562 6.97471 16.033 6.97233 16.002L6.93483 15.5145C6.93245 15.4835 6.95562 15.4565 6.9866 15.4541ZM11.3077 15.4541C11.3387 15.4565 11.3619 15.4835 11.3595 15.5145L11.322 16.002C11.3196 16.033 11.2926 16.0562 11.2616 16.0538C11.2306 16.0514 11.2074 16.0244 11.2098 15.9934L11.2473 15.5059C11.2497 15.4749 11.2768 15.4517 11.3077 15.4541ZM7.38496 15.4541C7.41597 15.4521 7.44265 15.4757 7.44456 15.5067L7.47456 15.9942C7.47646 16.0252 7.45288 16.0519 7.42187 16.0538C7.39086 16.0557 7.36418 16.0322 7.36227 16.0012L7.33227 15.5137C7.33036 15.4826 7.35395 15.456 7.38496 15.4541ZM10.9094 15.4541C10.9404 15.456 10.964 15.4826 10.9621 15.5137L10.9321 16.0012C10.9301 16.0322 10.9035 16.0557 10.8725 16.0538C10.8415 16.0519 10.8179 16.0252 10.8198 15.9942L10.8498 15.5067C10.8517 15.4757 10.8784 15.4521 10.9094 15.4541ZM11.6787 15.4995C11.7095 15.5038 11.7309 15.5323 11.7266 15.563L11.6591 16.043C11.6548 16.0738 11.6263 16.0952 11.5956 16.0909C11.5648 16.0866 11.5434 16.0581 11.5477 16.0274L11.6152 15.5474C11.6195 15.5166 11.648 15.4952 11.6787 15.4995ZM6.62394 15.4994C6.65476 15.4955 6.68288 15.5174 6.68673 15.5482L6.74673 16.0282C6.75058 16.059 6.72872 16.0872 6.69789 16.091C6.66706 16.0949 6.63895 16.073 6.6351 16.0422L6.5751 15.5622C6.57124 15.5313 6.59311 15.5032 6.62394 15.4994ZM5.88144 15.5219C5.91226 15.518 5.94038 15.5399 5.94423 15.5707L6.00423 16.0507C6.00808 16.0815 5.98622 16.1097 5.95539 16.1135C5.92456 16.1174 5.89645 16.0955 5.8926 16.0647L5.8326 15.5847C5.82874 15.5538 5.85061 15.5257 5.88144 15.5219ZM12.4204 15.5219C12.4512 15.5257 12.4731 15.5538 12.4692 15.5847L12.4092 16.0647C12.4054 16.0955 12.3773 16.1174 12.3464 16.1135C12.3156 16.1097 12.2937 16.0815 12.2976 16.0507L12.3576 15.5707C12.3615 15.5399 12.3896 15.518 12.4204 15.5219ZM6.25644 15.5444C6.28726 15.5405 6.31538 15.5624 6.31923 15.5932L6.37923 16.0732C6.38308 16.104 6.36122 16.1322 6.33039 16.136C6.29956 16.1399 6.27145 16.118 6.2676 16.0872L6.2076 15.6072C6.20374 15.5763 6.22561 15.5482 6.25644 15.5444ZM12.0379 15.5444C12.0687 15.5482 12.0906 15.5763 12.0867 15.6072L12.0267 16.0872C12.0229 16.118 11.9948 16.1399 11.9639 16.136C11.9331 16.1322 11.9112 16.104 11.9151 16.0732L11.9751 15.5932C11.9789 15.5624 12.0071 15.5405 12.0379 15.5444ZM5.47374 15.6573C5.50434 15.6519 5.53348 15.6724 5.53883 15.703L5.62132 16.1755C5.62667 16.2061 5.60619 16.2353 5.57559 16.2406C5.54499 16.246 5.51584 16.2255 5.5105 16.1949L5.428 15.7224C5.42266 15.6918 5.44314 15.6626 5.47374 15.6573ZM12.8204 15.6573C12.8511 15.6625 12.8716 15.6916 12.8663 15.7222L12.7839 16.2022C12.7786 16.2328 12.7495 16.2534 12.7189 16.2481C12.6883 16.2429 12.6677 16.2138 12.673 16.1832L12.7555 15.7032C12.7607 15.6726 12.7898 15.652 12.8204 15.6573ZM5.06223 15.6571C5.09292 15.6523 5.12169 15.6733 5.12649 15.704L5.20149 16.184C5.20629 16.2147 5.18529 16.2435 5.1546 16.2483C5.1239 16.2531 5.09513 16.2321 5.09034 16.2014L5.01534 15.7214C5.01054 15.6907 5.03154 15.6619 5.06223 15.6571ZM13.2246 15.6571C13.2553 15.6619 13.2763 15.6907 13.2715 15.7214L13.1965 16.2014C13.1917 16.2321 13.1629 16.2531 13.1322 16.2483C13.1015 16.2435 13.0805 16.2147 13.0853 16.184L13.1603 15.704C13.1651 15.6733 13.1939 15.6523 13.2246 15.6571ZM4.67705 15.6951C4.70747 15.6888 4.73722 15.7084 4.7435 15.7388L4.841 16.2113C4.84728 16.2418 4.82771 16.2715 4.79728 16.2778C4.76686 16.2841 4.7371 16.2645 4.73082 16.2341L4.63332 15.7616C4.62705 15.7311 4.64662 15.7014 4.67705 15.6951ZM13.6248 15.6951C13.6552 15.7014 13.6748 15.7311 13.6685 15.7616L13.571 16.2341C13.5647 16.2645 13.535 16.2841 13.5045 16.2778C13.4741 16.2715 13.4545 16.2418 13.4608 16.2113L13.5583 15.7388C13.5646 15.7084 13.5944 15.6888 13.6248 15.6951ZM4.37805 15.7474C4.40858 15.7417 4.43797 15.7618 4.4437 15.7923L4.5337 16.2723C4.53942 16.3029 4.51931 16.3323 4.48878 16.338C4.45825 16.3437 4.42885 16.3236 4.42313 16.2931L4.33313 15.8131C4.3274 15.7825 4.34751 15.7531 4.37805 15.7474ZM13.9238 15.7474C13.9543 15.7531 13.9744 15.7825 13.9687 15.8131L13.8787 16.2931C13.873 16.3236 13.8436 16.3437 13.813 16.338C13.7825 16.3323 13.7624 16.3029 13.7681 16.2723L13.8581 15.7923C13.8639 15.7618 13.8932 15.7417 13.9238 15.7474ZM4.04273 15.8087C4.07256 15.8 4.10377 15.8172 4.11243 15.847L4.24743 16.312C4.25609 16.3418 4.23893 16.3731 4.2091 16.3817C4.17926 16.3904 4.14805 16.3732 4.13939 16.3434L4.00439 15.8784C3.99573 15.8485 4.0129 15.8173 4.04273 15.8087ZM14.2508 15.8084C14.2807 15.8167 14.2984 15.8476 14.2902 15.8776L14.1627 16.3426C14.1544 16.3725 14.1235 16.3902 14.0935 16.3819C14.0636 16.3737 14.046 16.3428 14.0542 16.3128L14.1817 15.8478C14.1899 15.8179 14.2208 15.8002 14.2508 15.8084ZM3.74089 15.8992C3.77041 15.8896 3.80219 15.9057 3.81186 15.9352L3.96186 16.3927C3.97154 16.4222 3.95546 16.454 3.92594 16.4636C3.89642 16.4733 3.86464 16.4572 3.85496 16.4277L3.70496 15.9702C3.69528 15.9407 3.71137 15.9089 3.74089 15.8992ZM14.5534 15.8992C14.583 15.9089 14.599 15.9407 14.5894 15.9702L14.4394 16.4277C14.4297 16.4572 14.3979 16.4733 14.3684 16.4636C14.3389 16.454 14.3228 16.4222 14.3325 16.3927L14.4825 15.9352C14.4921 15.9057 14.5239 15.8896 14.5534 15.8992Z" fill="black"/>
</g>
<defs>
<clipPath id="clip0_200_65592">
<rect width="60" height="45" fill="white" transform="translate(-7.5)"/>
</clipPath>
</defs>
</svg>
