<svg width="45" height="45" viewBox="0 0 45 45" fill="none" xmlns="http://www.w3.org/2000/svg">
<g clip-path="url(#clip0_200_65463)">
<path d="M-7.5 0H52.5V45H-7.5V0Z" fill="#FFB700"/>
<path d="M-4.99707 22.4998L3.25293 2.50293H11.5029V42.4967H3.25293L-4.99707 22.4998Z" fill="#FF5B00"/>
<path d="M-4.99707 2.50293H3.25293V42.4967H-4.99707V2.50293Z" fill="#005641"/>
<path d="M13.9971 2.50293H50.2502V42.4967H13.9971V2.50293Z" fill="#8D2029"/>
<path d="M26.5789 31.857L26.7945 31.7258L26.8883 31.857C27.0102 32.0258 27.357 32.0164 27.582 31.857L27.7602 31.7164L27.9102 31.8477C28.0977 32.0258 28.4539 32.0258 28.6883 31.8477C28.8477 31.7352 28.8758 31.7258 28.9695 31.8195C29.0352 31.8758 29.2227 31.932 29.382 31.9602C29.682 31.9977 29.682 31.9977 29.8508 31.7352C30.0008 31.5195 30.0195 31.4352 29.9914 31.2195C29.9652 31.0548 29.9465 30.8891 29.9352 30.7227C29.9164 30.4789 29.9258 30.4789 30.2727 30.3477C30.4448 30.2948 30.6139 30.2322 30.7789 30.1602C30.9195 30.0758 31.3133 29.6164 31.3133 29.5227C31.3133 29.5039 31.1633 29.4664 30.9758 29.4477C30.2258 29.3539 30.1039 28.9602 30.5914 28.2289C31.3695 27.0102 31.8477 25.8383 31.8477 25.0977C31.8477 24.7602 31.8758 24.6477 31.9133 24.7227C32.0914 25.0133 31.7727 26.2602 31.3039 27.1602L31.1164 27.5164L31.2945 27.4789C31.3883 27.4508 31.9883 27.1977 32.607 26.9164C34.3133 26.1477 34.8945 25.9977 36.0008 26.0445C36.9289 26.082 37.3133 26.2602 37.9695 26.9445C38.3164 27.3195 38.6539 27.5727 39.2633 27.957C40.557 28.7633 40.6133 28.8383 40.6789 29.7945C40.7445 30.7602 40.707 30.8164 39.9758 30.9758C39.3477 31.1164 38.9539 31.407 38.8508 31.8195C38.7945 32.0258 38.9164 32.0352 39.2258 31.8289L39.4602 31.6789L39.5633 31.8289C39.7039 32.0258 39.9852 32.0258 40.2195 31.8289L40.407 31.6883L40.5945 31.8289C40.8758 32.0633 41.2508 32.007 41.3633 31.7164C41.382 31.6695 41.4383 31.6789 41.5508 31.782C41.7664 31.9695 42.3008 32.0445 42.357 31.8945C42.3758 31.8383 42.3383 31.707 42.2633 31.5945C41.9539 31.1258 41.8508 30.9102 41.8508 30.657C41.8508 30.3008 41.9445 30.1227 42.357 29.8414C42.8445 29.4852 42.9945 29.0352 42.6195 29.0352C42.3945 29.0352 42.1602 28.8289 42.0102 28.5008C41.7102 27.8258 41.7758 27.0758 42.2258 25.8195C42.5708 25.0804 42.7439 24.2727 42.732 23.457C42.732 22.7633 42.7133 22.6508 42.5633 22.2664C42.4459 21.9992 42.3014 21.7447 42.132 21.507L41.8695 21.1602L42.1977 20.8789C43.2102 20.0445 43.0039 18.6758 41.7852 18.1508C41.4102 17.982 41.3164 17.9727 40.6602 17.9727C40.2852 17.9727 39.6758 18.0289 39.3477 18.0945C38.9072 18.1642 38.4623 18.2018 38.0164 18.207C37.3789 18.207 37.2664 18.1883 37.0227 18.057C36.7695 17.9258 36.7227 17.8602 36.6758 17.5414C36.6713 17.5114 36.6595 17.4829 36.6416 17.4584C36.6236 17.4339 36.6 17.4141 36.5727 17.4008C36.4789 17.3727 36.0852 17.7195 36.0289 17.8695C35.9914 17.9539 35.9727 17.9445 35.8883 17.8414C35.8088 17.7392 35.7455 17.6254 35.7008 17.5039C35.607 17.1945 35.7289 16.9695 36.0945 16.7914L36.3758 16.6602L36.207 16.557C35.8695 16.3414 35.2883 16.4914 35.082 16.8383C35.0164 16.932 34.9508 17.0258 34.932 17.0258C34.9133 17.0258 34.8008 16.932 34.6883 16.8102C34.2477 16.3789 34.3977 15.7414 34.9883 15.5539C35.2977 15.4508 35.5789 15.5258 35.6352 15.7414C35.7289 16.0508 35.9914 15.6383 35.9445 15.2539C35.9164 15.0008 35.9164 14.9914 36.0945 14.9914C36.3383 14.9914 36.8445 15.3102 37.0133 15.5539C37.2008 15.8445 37.182 16.3039 36.9758 16.6414L36.8164 16.9039L37.032 16.8664C37.332 16.8008 37.632 16.6133 37.782 16.3789C37.8611 16.2296 37.9055 16.0645 37.912 15.8957C37.9185 15.7269 37.8869 15.5588 37.8195 15.4039C37.6789 15.1508 37.6977 15.1133 37.9039 15.1977C38.2414 15.3383 38.4289 15.4977 38.5602 15.7695C38.6914 16.0133 38.7008 16.0695 38.6352 16.332C38.5903 16.4919 38.5207 16.6437 38.4289 16.782C38.3164 16.932 38.307 16.9602 38.4008 16.9602C38.5695 16.9602 38.907 16.8008 39.0289 16.6789C39.0945 16.6039 39.1883 16.4445 39.2352 16.3039L39.3289 16.0695L39.4227 16.257C39.5633 16.5102 39.8445 16.7445 40.182 16.8945C40.5477 17.0445 40.6977 17.0539 40.5102 16.9133C40.3789 16.8195 40.1352 16.1164 40.2195 16.0508C40.6241 16.2774 40.9936 16.5616 41.3164 16.8945C41.8508 17.3727 42.1883 17.532 42.6758 17.532C43.3039 17.532 43.6695 16.9883 43.3883 16.4727C43.2289 16.1727 42.8633 16.1258 42.6383 16.3789C42.5445 16.5008 42.5164 16.5945 42.5445 16.7258C42.582 16.8758 42.5727 16.8945 42.432 16.8945C42.2445 16.8945 41.8883 16.6602 41.2508 16.1258C40.3634 15.3621 39.3434 14.7679 38.2414 14.3727C37.4949 14.2001 36.724 14.1589 35.9633 14.2508C35.3633 14.3633 34.6508 14.7102 34.257 15.0758C33.5727 15.732 33.5633 16.6039 34.2289 17.4008L34.4164 17.6258L34.2945 17.832C34.2029 17.9798 34.1574 18.1515 34.1641 18.3253C34.1708 18.499 34.2293 18.6668 34.332 18.807C34.4258 18.9383 34.5195 19.0414 34.5477 19.0414C34.5664 19.0414 34.5852 18.957 34.5945 18.8539C34.6133 18.6008 34.7258 18.432 34.9133 18.3664C35.082 18.3008 35.1945 18.3383 35.9633 18.6477C36.7789 18.9664 38.1195 18.9852 39.5445 18.7039C40.1622 18.5613 40.8049 18.5677 41.4195 18.7227C42.0945 19.0039 42.2445 19.7258 41.757 20.2695C41.5414 20.5133 41.3445 20.607 40.6602 20.7945C40.0643 20.9517 39.4449 20.9993 38.832 20.9352C37.8195 20.9258 37.4539 20.9445 37.0508 21.0289C36.5914 21.1227 36.3195 21.132 35.007 21.1039L33.4789 21.0664L33.6477 21.1977C33.738 21.2779 33.8353 21.3501 33.9383 21.4133C34.0602 21.4789 34.0508 21.4883 33.882 21.5539C33.7883 21.5914 33.5633 21.6195 33.3852 21.6195H33.0758L33.0383 21.882C33.013 22.0058 33.013 22.1333 33.0383 22.257C33.0758 22.3508 33.057 22.3695 32.9633 22.332C32.8977 22.3039 32.7195 22.257 32.5602 22.2289C32.3994 22.1944 32.2423 22.1442 32.0914 22.0789C31.9133 21.9852 31.8945 21.9852 31.8289 22.107C31.7727 22.2008 31.2477 22.5945 31.1727 22.5945C31.1388 22.3513 31.0693 22.1144 30.9664 21.8914C30.8727 21.6945 30.7883 21.4695 30.7602 21.4039C30.732 21.3008 30.7133 21.2914 30.6664 21.3758C30.6383 21.4227 30.6008 21.5633 30.5727 21.6758C30.5398 21.8276 30.4828 21.9732 30.4039 22.107L30.2633 22.3133L30.1695 22.1352C30.0758 21.9477 29.9258 21.7414 29.8695 21.7414C29.8508 21.7414 29.8227 21.7977 29.8039 21.882C29.757 22.032 29.3914 22.4727 29.2977 22.4727C29.2695 22.4727 29.2414 22.3508 29.2414 22.1914C29.2414 22.0508 29.2133 21.9195 29.1758 21.9195C29.1383 21.9195 29.1102 21.9664 29.1102 22.0133C29.1102 22.1258 28.8008 22.482 28.6883 22.482C28.6508 22.482 28.5758 22.5195 28.5289 22.5758C28.4164 22.6977 28.3227 22.6789 28.3695 22.5383C28.3827 22.4182 28.3699 22.2967 28.332 22.182L28.2383 21.882C28.2195 21.8352 28.107 21.8539 27.8633 21.9289C27.4883 22.0508 27.357 22.0227 27.5539 21.8727C27.6289 21.8164 27.7414 21.6195 27.7977 21.4414C27.8633 21.2539 27.957 21.0945 28.0039 21.0758C28.0695 21.057 28.0695 21.0758 27.9852 21.1883C27.9309 21.2596 27.8954 21.3434 27.882 21.432C27.882 21.4789 27.8352 21.6008 27.7883 21.7039C27.732 21.7977 27.6945 21.8914 27.7039 21.9008C27.7133 21.9102 27.8633 21.8539 28.032 21.7789L28.332 21.6289V21.7602C28.332 21.8352 28.3695 22.0227 28.4164 22.182L28.5008 22.4633L28.707 22.3695C28.9133 22.2758 29.1102 21.9383 29.1102 21.6664C29.1102 21.5352 29.1852 21.5539 29.2227 21.6945C29.2227 21.732 29.2789 21.8914 29.3164 22.0414L29.4102 22.3039L29.5508 22.1352C29.6352 22.0414 29.7289 21.8539 29.7664 21.732C29.8414 21.507 29.9539 21.4039 29.9539 21.5727C29.9539 21.6852 30.2727 22.1164 30.3289 22.0789C30.3664 22.0602 30.4227 21.9008 30.4695 21.7227C30.5633 21.3477 30.7039 21.1039 30.7977 21.1602C30.8352 21.1789 30.8445 21.2164 30.8258 21.2539C30.807 21.2727 30.882 21.5164 30.9945 21.7789C31.076 21.9757 31.1573 22.1726 31.2383 22.3695C31.2758 22.4633 31.3133 22.4633 31.5477 22.2477C31.6883 22.1164 31.8289 21.9758 31.8383 21.9289C31.8664 21.8539 31.8945 21.8633 32.0258 21.9477C32.3022 22.0937 32.605 22.1829 32.9164 22.2102C32.9352 22.1914 32.9539 22.0227 32.9539 21.8352L32.9633 21.4883L33.1508 21.5258C33.2445 21.5539 33.4602 21.5539 33.6195 21.5258L33.9008 21.4883L33.6477 21.3008C33.507 21.207 33.3664 21.0852 33.3289 21.0289C33.3008 20.9727 33.1695 20.9164 33.0289 20.907C32.6445 20.8695 31.9602 20.4945 31.9602 20.307C31.9602 20.2695 32.0539 20.3352 32.1664 20.4383C32.4289 20.6727 32.7852 20.8133 33.1039 20.8133H33.3289L33.1883 20.6258C33.0881 20.4804 33.0238 20.3133 33.0008 20.1383C32.982 19.857 32.9539 19.8195 32.6633 19.6227C32.4948 19.5033 32.3378 19.3683 32.1945 19.2195L32.0352 19.0414L31.9508 19.257C31.9039 19.3789 31.857 19.4727 31.8289 19.4727C31.8102 19.4727 31.7164 19.3977 31.6414 19.3133C31.5887 19.2522 31.5251 19.2013 31.4539 19.1633C31.4258 19.1633 31.3602 19.2758 31.2852 19.4164L31.1539 19.6695L31.0602 19.5289C30.9768 19.414 30.8826 19.3072 30.7789 19.2102C30.6664 19.1164 30.6195 19.0414 30.657 19.0414C30.6945 19.0414 30.8164 19.1352 30.9383 19.257L31.1445 19.4727L31.2383 19.3133C31.2924 19.2029 31.3089 19.0777 31.2852 18.957C31.2477 18.7883 31.257 18.7789 31.3133 18.8914C31.3941 18.9972 31.4887 19.0918 31.5945 19.1727L31.8008 19.3414L31.9414 19.0883C32.082 18.8258 32.082 18.8258 32.1383 18.9852C32.232 19.182 32.8414 19.6883 33.357 19.9789C33.4508 20.0258 33.4133 19.8758 33.2633 19.5102C33.2182 19.39 33.1929 19.2634 33.1883 19.1352C33.1883 18.9664 33.1414 18.8914 32.9258 18.7227C32.7917 18.637 32.6796 18.5211 32.5982 18.3844C32.5168 18.2477 32.4685 18.0939 32.457 17.9352C32.4289 17.7758 32.3727 17.607 32.3258 17.5508C32.2695 17.457 32.2508 17.5133 32.2695 17.7945C32.2883 17.9914 32.2602 18.2352 32.2133 18.3383L32.1383 18.5258L32.082 18.3664C32.0445 18.282 31.8945 18.132 31.7539 18.0383C31.6133 17.9445 31.5102 17.8508 31.5289 17.832C31.5477 17.8133 31.6977 17.8977 31.857 18.0195C32.1102 18.2164 32.157 18.2352 32.1945 18.1508C32.232 18.057 32.1945 17.6258 32.1195 17.3258C32.082 17.1758 32.082 17.1758 32.2695 17.3633C32.4008 17.4945 32.4758 17.6633 32.5414 17.9445C32.6164 18.3008 32.6539 18.3664 32.982 18.657C33.1789 18.8352 33.357 18.9664 33.3664 18.957C33.3852 18.9383 33.4039 18.4883 33.4227 17.9445C33.4602 16.9039 33.4227 16.6508 33.1695 16.332L33.0383 16.1633L33.2445 15.9477C33.4756 15.7267 33.63 15.4376 33.6852 15.1227L33.7227 14.8695L33.4977 15.0852C33.3102 15.2633 33.2164 15.3008 33.0008 15.3008C32.7852 15.3008 32.7008 15.2633 32.5602 15.1133C32.3411 14.9024 32.0741 14.748 31.782 14.6633C31.6695 14.6258 31.632 14.6445 31.632 14.7195C31.632 14.7758 31.5758 14.9258 31.5008 15.0664L31.3695 15.3102L31.0883 15.0289C30.9102 14.8695 30.7133 14.7289 30.5539 14.6914C30.1695 14.5977 30.1508 14.5977 30.1508 14.8883C30.1508 15.3289 29.9633 15.4133 29.6258 15.1227C29.3633 14.8977 29.157 14.8414 28.6602 14.907L28.2852 14.9445L28.3508 15.1133C28.407 15.2539 28.3977 15.3195 28.2758 15.4789C28.0789 15.7414 27.8258 15.8539 27.432 15.8539C27.2445 15.8539 27.0195 15.8914 26.9258 15.9383C26.832 15.9852 26.5883 16.032 26.3914 16.0508C26.2039 16.0695 25.9883 16.107 25.9227 16.1258C25.8289 16.1633 25.8289 16.1258 25.857 15.9195C25.9039 15.6008 25.6695 15.357 25.3227 15.357C24.8633 15.357 24.657 15.7695 24.8352 16.3133C24.8716 16.4306 24.9029 16.5495 24.9289 16.6695C25.052 16.904 25.2173 17.1137 25.4164 17.2883C25.6602 17.532 25.8852 17.7852 25.9227 17.8508C25.9981 17.9486 26.0941 18.0286 26.2039 18.0852L26.4102 18.1977L26.382 17.9727C26.3539 17.7289 26.4008 17.6914 26.532 17.8695C26.5789 17.9258 26.7008 18.0289 26.7945 18.0852C26.9539 18.1789 26.982 18.1789 26.982 18.1039C26.982 18.0477 27.0102 17.9258 27.0477 17.832L27.1133 17.6633L27.2352 17.8977C27.3008 18.0289 27.5164 18.3195 27.7133 18.5539C28.0977 18.9945 28.3414 19.4914 28.2195 19.6039C28.1633 19.6508 28.032 19.6508 27.7508 19.5945C27.5445 19.557 27.282 19.5289 27.1695 19.5477C26.9539 19.5758 26.9352 19.5477 27.0758 19.3789C27.2164 19.1914 27.1883 19.1633 26.907 19.1633C26.5789 19.1633 25.7633 19.0039 25.4445 18.882C25.1445 18.7602 25.0695 18.7883 24.9758 19.0789L24.8164 19.6039L24.7227 19.8852L25.0602 19.857C25.2341 19.8388 25.4065 19.8075 25.5758 19.7633C25.6422 19.7412 25.7121 19.7316 25.782 19.7352C25.8008 19.7445 25.7539 19.857 25.6883 19.9883L25.557 20.2133L25.7633 20.1758C25.8758 20.1477 26.0445 20.0914 26.1383 20.0445C26.307 19.9695 26.3258 19.9695 26.457 20.1852C26.6164 20.4383 26.7383 20.4289 26.7664 20.157C26.7945 19.8758 26.8883 19.9133 27.0664 20.2883C27.2352 20.6445 27.4039 20.7758 27.4414 20.5695C27.4508 20.4945 27.5352 20.382 27.6383 20.307C27.8445 20.1664 27.9945 20.2133 28.0789 20.4289C28.1727 20.6633 27.9664 20.8977 27.3852 21.2539C26.8469 21.5511 26.3837 21.9675 26.0311 22.4712C25.6785 22.975 25.4458 23.5527 25.3508 24.1602C25.1727 25.2664 25.7258 26.4102 26.8133 27.2445C27.3383 27.6383 28.1727 28.0508 28.1164 27.9008C27.8914 27.2164 27.9008 25.932 28.1258 25.7164C28.1633 25.6789 28.1539 25.8102 28.0977 26.007C27.9102 26.7477 28.0039 27.3289 28.4727 28.6977C28.8852 29.9352 28.8289 30.4695 28.2289 30.8164C28.0414 30.9289 27.9195 30.9477 27.4039 30.9383C26.8414 30.9383 26.7758 30.9383 26.5977 31.0883C26.3823 31.3083 26.2413 31.5902 26.1945 31.8945C26.1945 32.0164 26.3258 31.9977 26.5695 31.857H26.5789Z" fill="#FFB700"/>
<path d="M35.6722 31.8287L35.9066 31.6787L36.0659 31.8287C36.2722 32.0256 36.5253 32.0162 36.7222 31.8193C36.8159 31.7256 36.8909 31.6693 36.9003 31.6787L36.9847 31.8287C37.0316 31.9131 37.1347 31.9506 37.3222 31.9693C37.5378 31.9787 37.6034 31.9693 37.6972 31.8381L37.7909 31.6787L38.0253 31.8287C38.6628 32.2412 39.0003 31.8099 38.7097 30.9568C38.5691 30.5256 38.6534 30.2818 39.1128 29.7381C39.3097 29.5037 39.4691 29.2506 39.4691 29.1756C39.4691 29.0724 39.4316 29.0537 39.1691 29.0631C38.9253 29.0631 38.8503 29.0349 38.7191 28.8943C38.5034 28.6599 38.5222 28.3881 38.7566 28.0881L38.9441 27.8537L38.6066 27.6287C38.3372 27.4297 38.0862 27.2069 37.8566 26.9631C37.6519 26.7215 37.4017 26.5227 37.1202 26.3779C36.8387 26.2332 36.5314 26.1453 36.2159 26.1193L35.7753 26.0724V26.4099C35.7753 26.8318 35.9816 27.2443 36.5253 27.9381C37.1441 28.7256 37.1816 28.8474 37.2097 29.8787L37.2378 30.7506L37.0503 30.9193C36.8909 31.0693 36.8253 31.0974 36.3003 31.1256C35.8034 31.1537 35.6909 31.1818 35.5503 31.3131C35.3858 31.4331 35.2721 31.6103 35.2316 31.8099C35.2034 31.9506 35.2128 31.9787 35.3159 31.9787C35.3816 31.9787 35.5409 31.9131 35.6722 31.8287ZM22.3409 29.5787C22.3976 29.4954 22.4301 29.3981 22.4347 29.2974C22.4347 29.2037 22.4909 29.1662 22.7347 29.1287L23.0253 29.0912L22.8378 28.9318C22.6034 28.7443 22.5753 28.6037 22.7816 28.6037C22.9878 28.6037 23.3253 28.3974 23.3816 28.2381C23.4097 28.1631 23.3816 28.0693 23.3441 28.0224C23.2316 27.8912 23.0159 27.9099 22.9784 28.0599C22.9316 28.2099 22.8659 28.2099 22.6972 28.0599C22.4628 27.8256 22.4534 27.3474 22.6972 27.0662C22.8003 26.9349 22.8003 26.9349 22.6597 26.7943C22.5097 26.6443 22.3972 26.3631 22.4722 26.2881C22.4909 26.2693 22.6128 26.2881 22.7347 26.3349C22.9222 26.3912 22.9878 26.3912 23.0628 26.3349C23.2784 26.1568 23.0441 25.9318 22.6878 25.9881C22.5378 26.0068 22.4816 25.9881 22.4628 25.9131C22.4441 25.8568 22.3222 25.7818 22.1816 25.7443C21.9284 25.6787 21.9284 25.6787 21.9284 25.8568C21.9284 26.0443 21.8159 26.0818 21.6097 25.9599C21.4409 25.8662 21.2816 25.9412 21.2816 26.1193C21.2816 26.2881 21.4409 26.3631 21.7503 26.3443C21.9753 26.3349 21.9847 26.5037 21.7691 26.7474L21.6097 26.9349L21.7316 27.1131C21.9191 27.3756 21.9003 27.8162 21.7034 28.0412L21.5441 28.2099L21.4409 28.0693C21.2909 27.8818 21.0941 27.8912 21.0378 28.0974C21.0097 28.2287 21.0378 28.2849 21.2066 28.4349C21.3191 28.5287 21.4878 28.6037 21.5722 28.6037C21.7878 28.6037 21.7784 28.7818 21.5534 28.9506L21.3659 29.0912L21.6472 29.1287C21.7972 29.1568 21.9284 29.1943 21.9284 29.2224C21.9284 29.3443 22.1159 29.7099 22.1722 29.7099C22.2097 29.7099 22.2847 29.6443 22.3409 29.5693V29.5787Z" fill="#FFB700"/>
<path d="M25.9221 28.0223C26.1752 27.9285 26.7189 27.4598 26.7189 27.3566C26.7189 27.3191 26.5689 27.1504 26.3814 26.9816C26.0064 26.6441 25.5846 26.0535 25.4721 25.716C25.4158 25.5285 25.1439 25.2285 24.3752 24.4785L23.3533 23.4941L23.0627 23.5691C22.8939 23.6066 22.6971 23.6441 22.6221 23.6441C22.4814 23.6441 22.4814 23.6441 22.6689 23.7941L22.8564 23.9441L23.1377 23.7941C23.3908 23.6441 23.4002 23.6441 23.4283 23.766C23.4471 23.8316 23.4096 23.9535 23.3346 24.0379C23.2689 24.1223 23.2314 24.2254 23.2408 24.2535C23.2689 24.2816 23.2033 24.3473 23.1002 24.4035C22.9127 24.4973 22.7721 24.8066 22.9221 24.8066C23.0627 24.8066 23.3627 24.4316 23.3252 24.3098C23.3064 24.2441 23.3252 24.1785 23.3439 24.1598C23.4658 24.0941 23.4564 24.3848 23.3439 24.5348C23.2689 24.6098 23.2314 24.7035 23.2502 24.741C23.2689 24.7691 23.2033 24.8348 23.1002 24.891C22.9127 24.9848 22.7721 25.2941 22.9221 25.2941C23.0721 25.2941 23.3627 24.9379 23.3346 24.8066C23.3158 24.741 23.3158 24.666 23.3439 24.6473C23.4283 24.6098 23.4658 24.8348 23.4002 24.9473C23.383 24.9789 23.3739 25.0144 23.3739 25.0504C23.3739 25.0864 23.383 25.1219 23.4002 25.1535C23.4658 25.2754 23.4002 25.5004 23.2783 25.5754C23.2314 25.6035 23.2596 25.6691 23.3908 25.7629C23.5783 25.8941 23.5783 25.9129 23.5783 26.5129C23.5783 27.0191 23.5971 27.1504 23.6908 27.2348C23.7846 27.3285 23.8033 27.3285 23.8033 27.2348C23.8033 27.141 23.9908 27.0098 24.1314 27.0098C24.1783 27.0098 24.4502 27.2441 24.7408 27.5254C25.0314 27.8066 25.3408 28.0598 25.4252 28.0691L25.6314 28.1066C25.6596 28.1066 25.7908 28.0785 25.9221 28.0129V28.0223ZM22.8002 25.5754C22.8002 25.416 22.4627 25.2379 22.0596 25.2004C21.7314 25.1535 21.7314 25.1629 21.7314 25.3223C21.7314 25.4535 21.7783 25.5098 22.0127 25.6035C22.3689 25.7629 22.8002 25.7441 22.8002 25.5754Z" fill="#FFB700"/>
<path d="M23.166 25.5564C23.3347 25.4064 23.4097 25.2376 23.3066 25.2376C23.1941 25.2376 22.8941 25.5001 22.8941 25.6126C22.8941 25.7626 22.9504 25.7533 23.1754 25.5564H23.166ZM22.8191 25.0783C22.8285 24.9845 22.7722 24.9283 22.6035 24.8439C22.2285 24.6845 21.7972 24.6001 21.6941 24.6845C21.4972 24.8439 21.6285 25.0501 21.9379 25.0876C22.0691 25.097 22.2379 25.1345 22.3222 25.172C22.566 25.2658 22.791 25.2189 22.8191 25.0783ZM22.8191 24.5814C22.8379 24.4595 22.7535 24.4126 22.0691 24.1689C21.5535 23.9814 21.3285 24.0751 21.4972 24.3845C21.5535 24.4876 21.6472 24.5345 21.8629 24.572C22.0222 24.5908 22.2379 24.6376 22.341 24.6751C22.6222 24.7689 22.791 24.7314 22.8097 24.5814H22.8191ZM23.1566 24.122C23.2597 24.0189 23.3441 23.897 23.3441 23.8408C23.3441 23.7001 22.941 23.9626 22.8847 24.1501C22.8285 24.3658 22.9316 24.3564 23.166 24.122H23.1566ZM22.8191 24.0939C22.8379 23.9439 22.5941 23.8126 22.1066 23.7095C21.741 23.6251 21.5816 23.672 21.6097 23.8408C21.6285 23.9345 21.7504 24.0001 22.0785 24.1033C22.6316 24.272 22.791 24.272 22.8191 24.0939ZM23.2879 23.4001C23.9254 23.1189 23.9722 22.4158 23.3816 22.2283C23.1379 22.1533 22.9879 22.2001 22.8941 22.3595C22.8191 22.4908 22.866 22.7158 22.9597 22.7158C22.9972 22.7158 23.0254 22.7626 23.0254 22.8095C23.0254 23.0626 22.0691 23.1658 21.6754 22.9689C21.5347 22.9033 21.4879 22.7158 21.591 22.7158C21.6847 22.7158 21.741 22.5283 21.6941 22.4064C21.6379 22.2189 21.4504 22.1626 21.1972 22.2376C20.6066 22.3876 20.6254 23.0814 21.2254 23.3626C21.8892 23.6063 22.6156 23.6195 23.2879 23.4001Z" fill="#FFB700"/>
<path d="M22.9037 22.8566C22.9412 22.8191 22.9225 22.7629 22.8662 22.7254C22.735 22.6223 22.7443 22.4629 22.885 22.2848C22.9975 22.1535 23.0068 21.9473 23.0443 19.9316C23.11 16.4535 23.3725 13.8379 23.71 13.2004C23.8506 12.9566 23.8318 12.9566 23.4756 13.2004C23.0082 13.526 22.6309 13.9646 22.3787 14.4754C21.7975 15.5535 21.6006 17.0066 21.6006 20.1191C21.6006 21.8816 21.61 22.116 21.7131 22.2754C21.8068 22.4441 21.8068 22.5004 21.7506 22.6691C21.7037 22.7723 21.685 22.8848 21.7037 22.9035C21.835 23.0254 22.7725 22.9973 22.9037 22.8566ZM28.1631 19.5379C28.1912 19.5098 28.1443 19.3504 28.0693 19.2004C27.9568 18.9566 27.91 18.9191 27.7506 18.9191C27.001 18.854 26.2699 18.6506 25.5943 18.3191C25.1162 18.1035 24.9381 18.0566 24.8912 18.1129C24.7412 18.2535 24.985 18.5816 25.36 18.7598C25.9118 18.9586 26.4898 19.0755 27.0756 19.1066C27.3287 19.1066 27.3381 19.1066 27.1881 19.3223L27.0943 19.4723H27.3756L27.8443 19.5285C28.1256 19.5941 28.1256 19.5941 28.1631 19.5379Z" fill="#FFB700"/>
<path d="M31.1252 21.1039C31.1252 21.0102 30.8533 20.7758 30.5908 20.6164C30.3752 20.4945 30.3377 20.4852 30.3377 20.5883C30.3377 20.7383 30.2065 21.1227 30.1502 21.1227C30.1221 21.1227 30.0752 21.0477 30.0565 20.9633C30.0283 20.8695 29.9252 20.682 29.8221 20.5602L29.6346 20.3258L29.5033 20.5414C29.3721 20.7477 29.1377 20.9445 29.0346 20.9445C29.0158 20.9445 29.0065 20.832 29.0346 20.7102C29.044 20.5602 29.0346 20.4477 28.9877 20.4289C28.9502 20.4008 28.9127 20.4102 28.9127 20.4477C28.9127 20.5227 28.594 20.8789 28.5377 20.8789C28.5002 20.8789 28.4627 20.7852 28.444 20.6539L28.369 20.2039C28.3502 20.0914 28.3971 20.1664 28.4627 20.3914L28.6127 20.7758L28.7627 20.5414C28.8306 20.4445 28.8814 20.3367 28.9127 20.2227C28.9127 20.1758 28.9408 20.157 28.9783 20.1758C29.0158 20.1945 29.0627 20.3539 29.0815 20.5227L29.1283 20.8414L29.2971 20.6539C29.3854 20.5599 29.4669 20.4596 29.5408 20.3539C29.6065 20.2414 29.6158 20.2414 29.7565 20.3539C29.8315 20.4289 29.9533 20.5883 30.0283 20.7195C30.1033 20.8508 30.169 20.9445 30.1783 20.9352L30.2346 20.6352L30.2721 20.3539C30.2815 20.307 30.7783 20.6352 30.9658 20.7945C31.0783 20.8977 31.1908 20.9727 31.2096 20.9539C31.2283 20.9352 31.2471 20.7852 31.2471 20.607C31.2471 20.3445 31.219 20.2695 31.0596 20.1289C30.8721 19.9602 30.8721 19.9602 30.7971 20.082C30.7033 20.2414 30.6002 20.2414 30.6002 20.082C30.6002 19.9695 30.244 19.5289 30.1596 19.5289C30.1315 19.5289 30.0565 19.6227 29.9908 19.7445C29.9252 19.8664 29.8502 19.9602 29.8315 19.9602C29.7377 19.9602 29.2408 19.3977 29.2408 19.3039C29.2408 19.2289 29.2783 19.2477 29.3627 19.3789C29.4465 19.502 29.544 19.6153 29.6533 19.7164C29.8408 19.8852 29.9158 19.8477 29.9908 19.5195C30.019 19.4258 30.0565 19.3508 30.0846 19.3508C30.1596 19.3508 30.5908 19.8102 30.6471 19.9602L30.7127 20.1102L30.7596 19.9414C30.8158 19.7352 30.8815 19.7352 30.9752 19.9227C31.0127 19.9977 31.2002 20.1664 31.3877 20.2789L31.7346 20.5039L31.8002 20.2789C31.8377 20.157 31.894 20.0914 31.9127 20.1289C31.9502 20.1758 31.8565 20.5508 31.7908 20.6258C31.7908 20.6352 31.669 20.5695 31.5471 20.4852L31.3127 20.3164V20.6164C31.3127 20.7758 31.294 20.9727 31.2752 21.0477C31.2283 21.1977 31.1158 21.2352 31.1158 21.1039H31.1252ZM29.3908 18.7227C28.9783 18.3852 28.9221 18.3102 28.9221 18.1414L28.9315 17.9727L28.9596 18.132C28.9783 18.2258 29.0908 18.3758 29.2221 18.4883L29.4658 18.6758L29.6065 18.507C29.6908 18.4133 29.7565 18.3008 29.7565 18.2633C29.7565 18.1508 29.7752 18.1602 30.0565 18.4039C30.3002 18.6195 30.3096 18.6195 30.3377 18.4789C30.3658 18.4039 30.3565 18.2539 30.3377 18.1508C30.244 17.8695 30.2627 17.832 30.3846 18.0008L30.6096 18.2633C30.7033 18.3664 30.7127 18.3664 30.7502 18.2352C30.7783 18.1508 30.7971 18.0102 30.7971 17.9164V17.7383L31.0127 17.9914C31.2283 18.2352 31.2471 18.2445 31.3033 18.1227C31.3502 18.057 31.3783 17.8977 31.3783 17.7758C31.3783 17.607 31.3971 17.5695 31.4346 17.6258C31.5096 17.7383 31.4627 18.0195 31.3315 18.2633L31.2377 18.4508L31.1158 18.2539C30.9565 18.0102 30.9002 18.0102 30.8065 18.2727C30.7127 18.5258 30.6471 18.5445 30.5533 18.3477C30.4971 18.2258 30.4783 18.2445 30.4408 18.507L30.394 18.7883L30.1127 18.5727L29.8315 18.357L29.6908 18.4977C29.6252 18.582 29.569 18.6852 29.569 18.7227C29.569 18.8164 29.494 18.8164 29.3908 18.7227ZM33.0471 17.4477C32.9065 17.3164 32.8033 17.1852 32.8221 17.1664C32.8502 17.1383 32.869 17.1289 32.8783 17.1477C32.9691 17.2443 33.0629 17.3381 33.1596 17.4289C33.4783 17.7664 33.4127 17.7758 33.0565 17.4477H33.0471ZM28.1721 16.9414C28.0408 16.7539 28.0502 16.6414 28.219 16.4352C28.3315 16.2945 28.3877 16.2758 28.594 16.3039C28.7346 16.3133 29.0252 16.4352 29.2408 16.5664C29.5525 16.7526 29.9091 16.8498 30.2721 16.8477L30.1127 16.5852C29.9065 16.2758 29.9065 16.2383 30.1502 16.4258C30.394 16.6227 30.6846 16.6789 31.3408 16.6602L31.6596 16.6508L31.4721 16.4633C31.219 16.2102 31.294 16.182 31.5846 16.4352C31.8471 16.6695 31.8377 16.6883 31.2658 16.7445C31.0274 16.7686 30.7866 16.7528 30.5533 16.6977C30.2346 16.6039 30.2158 16.6133 30.2815 16.7164C30.319 16.782 30.3752 16.8289 30.4033 16.8289C30.4408 16.8289 30.469 16.8664 30.469 16.9039C30.469 17.0258 29.7752 16.9133 29.4377 16.7539C28.6877 16.3695 28.594 16.332 28.4065 16.3883C28.3565 16.4075 28.3109 16.4365 28.2723 16.4735C28.2337 16.5105 28.2028 16.5548 28.1815 16.6039C28.0596 16.9133 28.5002 17.157 28.6783 16.8852C28.7346 16.8008 28.7252 16.7539 28.6315 16.6508C28.5002 16.5195 28.519 16.5008 28.6877 16.557C28.8096 16.6039 28.819 16.8945 28.7065 17.007C28.5846 17.1289 28.2846 17.1008 28.1721 16.9414Z" fill="black"/>
<path d="M31.1629 16.1814C31.0691 16.0877 31.1441 16.0689 31.566 16.0595C32.091 16.0502 32.4097 15.9658 32.7847 15.722C33.0847 15.5345 33.1691 15.572 32.8785 15.7689C32.6254 15.9564 32.2222 16.0877 31.8191 16.1252L31.341 16.1908C31.266 16.2095 31.1816 16.2002 31.1535 16.1814H31.1629Z" fill="black"/>
</g>
<defs>
<clipPath id="clip0_200_65463">
<rect width="60" height="45" fill="white" transform="translate(-7.5)"/>
</clipPath>
</defs>
</svg>
