<svg width="45" height="45" viewBox="0 0 45 45" fill="none" xmlns="http://www.w3.org/2000/svg">
<g clip-path="url(#clip0_200_65720)">
<path d="M-7.5 0H52.5V45H-7.5V0Z" fill="white"/>
<path d="M-7.5 31.5H52.5V45H-7.5V31.5Z" fill="#009543"/>
<path d="M-7.5 0H52.5V13.5H-7.5V0Z" fill="#00209F"/>
<path d="M22.4629 14.3436C22.2098 14.3436 21.9566 14.6248 21.9566 14.6248L21.9848 17.6623L21.0191 18.6655H21.7973V20.3998L17.2035 26.5873L16.5285 26.3436L15.3379 28.8748C15.3379 28.8748 18.2723 30.7123 22.5285 30.6561C27.1973 30.6092 29.7379 28.7905 29.7379 28.7905L28.5191 26.2967L27.9098 26.5592L23.2598 20.4092V18.6186H24.0285L22.9785 17.6248V14.6061C22.9785 14.6061 22.7254 14.3248 22.4629 14.3342V14.3436Z" fill="black"/>
<path fill-rule="evenodd" clip-rule="evenodd" d="M23.0337 14.5557C23.0337 14.5557 23.0338 14.5557 22.978 14.6059L23.0337 14.5557L23.053 14.5771V17.5924L24.2164 18.6934H23.3343V20.3839L27.9336 26.4669L28.5546 26.1994L29.8326 28.8143L29.781 28.8513L29.7374 28.7903C29.781 28.8513 29.781 28.8513 29.781 28.8513L29.7808 28.8514L29.7804 28.8517L29.7788 28.8529C29.7774 28.8538 29.7754 28.8552 29.7728 28.8571C29.7676 28.8607 29.7598 28.866 29.7497 28.8729C29.7294 28.8866 29.6992 28.9065 29.6593 28.9319C29.5794 28.9825 29.4606 29.0545 29.3036 29.1409C28.9897 29.3137 28.523 29.544 27.91 29.7757C26.684 30.239 24.8729 30.7073 22.5289 30.7309C20.3899 30.7591 18.5833 30.3116 17.3114 29.857C16.6753 29.6297 16.1727 29.4005 15.8288 29.2279C15.6568 29.1416 15.5244 29.0695 15.4348 29.0188C15.39 28.9934 15.356 28.9734 15.333 28.9597C15.3214 28.9528 15.3127 28.9475 15.3068 28.9439L15.3001 28.9397L15.2983 28.9386L15.2977 28.9383C15.2976 28.9382 15.2976 28.9382 15.3374 28.8746L15.2977 28.9383L15.2412 28.9029L16.4892 26.2496L17.176 26.4977L21.7218 20.3748V18.7403H20.8423L21.909 17.6322L21.8809 14.5962L21.9004 14.5745L21.9561 14.6246C21.9004 14.5745 21.9004 14.5745 21.9004 14.5745L21.9005 14.5743L21.9008 14.574L21.9015 14.5732L21.9041 14.5704C21.9063 14.568 21.9095 14.5647 21.9135 14.5605C21.9216 14.5521 21.9332 14.5404 21.9479 14.5264C21.9772 14.4985 22.0192 14.4612 22.0697 14.4238C22.1515 14.3632 22.2644 14.2957 22.3874 14.2749V14.2616L22.4597 14.2591C22.6164 14.2535 22.7624 14.3336 22.8624 14.4056C22.9138 14.4425 22.9562 14.4796 22.9858 14.5075C23.0006 14.5215 23.0124 14.5332 23.0205 14.5416C23.0246 14.5458 23.0277 14.5492 23.03 14.5516L23.0326 14.5544L23.0334 14.5553L23.0336 14.5556L23.0337 14.5557ZM22.0314 14.6545L22.0595 17.6921L21.1949 18.5903H21.8718V20.4244L17.23 26.6766L16.5668 26.4371L15.4341 28.8452C15.4539 28.8569 15.4788 28.8713 15.5087 28.8882C15.5963 28.9378 15.7264 29.0087 15.896 29.0938C16.2353 29.264 16.7323 29.4907 17.3618 29.7157C18.6212 30.1658 20.4098 30.6089 22.527 30.5809L22.5273 30.5809C24.8519 30.5576 26.6455 30.0931 27.857 29.6353C28.4627 29.4064 28.923 29.1792 29.2313 29.0095C29.3855 28.9246 29.5016 28.8542 29.5789 28.8052C29.6038 28.7894 29.6246 28.7759 29.6414 28.7648L28.4826 26.3937L27.8849 26.6512L23.1843 20.4342V18.5434H23.8397L22.903 17.6569V14.6361C22.8974 14.6306 22.8907 14.624 22.8829 14.6167C22.8568 14.5921 22.8196 14.5595 22.7748 14.5273C22.7035 14.476 22.6204 14.4309 22.5374 14.415V14.4184H22.4624C22.3608 14.4184 22.2507 14.4764 22.159 14.5443C22.1146 14.5772 22.0774 14.6102 22.0514 14.635C22.0437 14.6423 22.037 14.6489 22.0314 14.6545ZM22.5289 30.7309C22.5288 30.7309 22.5289 30.7309 22.5289 30.7309L22.528 30.6559L22.529 30.7309C22.529 30.7309 22.5289 30.7309 22.5289 30.7309Z" fill="black"/>
<path fill-rule="evenodd" clip-rule="evenodd" d="M22.4197 15.2911C21.8426 15.2996 21.3636 15.4812 21.0079 15.8254C20.65 16.1718 20.3819 16.7169 20.295 17.5153C20.2147 18.2817 20.4345 19.2498 20.6951 20.0594C20.8232 20.4575 20.957 20.8046 21.0586 21.052C21.0854 21.1172 21.1099 21.1753 21.1314 21.2255H23.8248C23.848 21.1728 23.8746 21.1112 23.9038 21.0418C24.0095 20.7901 24.1478 20.4373 24.2786 20.0331C24.5449 19.2097 24.76 18.2311 24.6508 17.4626L24.6507 17.462C24.5348 16.6367 24.293 16.1061 23.952 15.7801C23.6182 15.4609 23.1352 15.287 22.4197 15.2911ZM24.0658 21.6005V21.9755H20.6498L20.5485 21.7603L20.8877 21.6005C20.5485 21.7603 20.5484 21.7602 20.5484 21.7601L20.5481 21.7594L20.5472 21.7576L20.5444 21.7515C20.5419 21.7462 20.5384 21.7387 20.534 21.7289C20.525 21.7094 20.5122 21.6812 20.4961 21.6449C20.464 21.5724 20.4186 21.4677 20.3649 21.3371C20.2577 21.0762 20.1167 20.7103 19.9811 20.2892C19.7145 19.4607 19.4515 18.3667 19.5491 17.4363L19.5492 17.4356L19.5493 17.435C19.65 16.5087 19.9724 15.7838 20.4863 15.2865C21.0021 14.7873 21.6757 14.5516 22.4105 14.5411L22.412 14.5411L22.4136 14.5411C23.2534 14.536 23.9513 14.7418 24.4703 15.238C24.9824 15.7276 25.2656 16.4485 25.3934 17.3574C25.5279 18.3045 25.2648 19.421 24.9922 20.2639C24.8534 20.693 24.707 21.0661 24.5953 21.3321C24.5394 21.4653 24.4919 21.5721 24.4582 21.6462C24.4414 21.6832 24.4279 21.7121 24.4186 21.732C24.4168 21.7357 24.4151 21.7392 24.4137 21.7423C24.4112 21.7474 24.4092 21.7517 24.4076 21.755L24.4046 21.7613L24.4037 21.7632L24.4033 21.7639C24.4033 21.764 24.4033 21.7641 24.0658 21.6005Z" fill="black"/>
<path d="M16.9221 27.384C16.8658 27.4496 16.4814 28.2184 16.4814 28.2184L17.1377 28.0777L16.9221 27.384ZM17.2971 28.3684L16.6033 28.5934L17.4377 28.9215L17.2971 28.3684ZM17.6064 27.4027L17.9533 28.4246L18.7971 28.1809L18.5814 27.6934L17.6064 27.4027ZM18.1502 28.7902L18.2627 29.2027L19.3877 29.484L18.9377 28.5277L18.1502 28.7902ZM19.3877 27.9184L19.7908 28.8746L20.6346 28.5465L20.3533 28.1246L19.3877 27.9184ZM19.9502 29.2215L20.0814 29.5777L21.3939 29.7652L20.8408 28.9027L19.9408 29.2215H19.9502ZM21.2064 28.1902L21.6939 29.0434L22.9127 28.5934L22.7814 28.2652L21.2064 28.1996V28.1902ZM21.9189 29.3527L22.1721 29.8027L23.6908 29.7559L23.1283 28.9121L21.9096 29.3527H21.9189ZM23.5221 28.2277L23.9346 28.9402L24.9096 28.4715L24.6471 28.0965L23.5221 28.2277ZM25.1158 28.7715L24.1502 29.2496L24.4033 29.6715L25.6971 29.4652L25.1158 28.7715ZM25.4252 28.0215L25.9221 28.6496L26.7377 28.0027L26.4564 27.7215L25.4252 28.0215ZM26.9158 28.3496L26.1377 28.9402L26.3439 29.3059L27.4127 29.0246L26.9158 28.3496ZM27.9846 27.1309L28.1721 27.4027L27.6377 28.1996L27.0846 27.4871L27.9846 27.1309ZM28.3502 27.8152L28.6783 28.4715L28.0221 28.6965L27.9658 28.3871L28.3408 27.8246L28.3502 27.8152Z" fill="white"/>
</g>
<defs>
<clipPath id="clip0_200_65720">
<rect width="60" height="45" fill="white" transform="translate(-7.5)"/>
</clipPath>
</defs>
</svg>
