<svg width="45" height="45" viewBox="0 0 45 45" fill="none" xmlns="http://www.w3.org/2000/svg">
<g clip-path="url(#clip0_200_65225)">
<path d="M-22.5 0H67.5V45H-22.5V0Z" fill="#239E46"/>
<path d="M-22.5 0H67.5V33.75H-22.5V0Z" fill="black"/>
<path d="M-22.5 0H67.5V11.25H-22.5V0Z" fill="#E70013"/>
<path d="M26.4779 18.522C25.7472 18.0005 24.8869 17.6904 23.9915 17.6257C23.0961 17.561 22.2002 17.7442 21.402 18.1551C20.6039 18.5661 19.9344 19.189 19.4669 19.9554C18.9995 20.7219 18.7522 21.6023 18.7522 22.5C18.7522 23.3977 18.9995 24.2781 19.4669 25.0446C19.9344 25.811 20.6039 26.4339 21.402 26.8449C22.2002 27.2558 23.0961 27.439 23.9915 27.3743C24.8869 27.3096 25.7472 26.9995 26.4779 26.478C25.6912 27.2645 24.6889 27.8001 23.5978 28.017C22.5067 28.234 21.3758 28.1225 20.348 27.6967C19.3203 27.2709 18.4419 26.5499 17.8239 25.6249C17.2058 24.6999 16.876 23.6125 16.876 22.5C16.876 21.3875 17.2058 20.3001 17.8239 19.3751C18.4419 18.4501 19.3203 17.7291 20.348 17.3033C21.3758 16.8775 22.5067 16.7661 23.5978 16.983C24.6889 17.1999 25.6912 17.7355 26.4779 18.522ZM25.2359 22.5L32.8049 20.043L28.1249 26.478V18.522L32.8049 24.957L25.2359 22.5Z" fill="white"/>
</g>
<defs>
<clipPath id="clip0_200_65225">
<rect width="60" height="45" fill="white" transform="translate(-7.5)"/>
</clipPath>
</defs>
</svg>
