<svg width="45" height="45" viewBox="0 0 45 45" fill="none" xmlns="http://www.w3.org/2000/svg">
<g clip-path="url(#clip0_200_65222)">
<path d="M52.5 0H-7.5V45H52.5V0Z" fill="#C1272D"/>
<path fill-rule="evenodd" clip-rule="evenodd" d="M22.5004 15.0439L24.1778 20.2083H29.5906L25.2099 23.3857L26.8801 28.5277L22.5004 25.351L18.1206 28.5277L19.7908 23.3857L15.4102 20.2083H20.8229L22.5004 15.0439ZM20.4666 21.3052H18.7906L20.147 22.289L20.4666 21.3052ZM21.0804 22.966L21.6199 21.3052H23.3808L23.9203 22.966L22.5004 23.996L21.0804 22.966ZM20.7242 24.0627L20.2051 25.6607L21.5663 24.6735L20.7242 24.0627ZM23.4345 24.6735L24.7956 25.6607L24.2765 24.0627L23.4345 24.6735ZM24.8537 22.289L26.2102 21.3052H24.5341L24.8537 22.289ZM23.0246 20.2083H21.9762L22.5004 18.5945L23.0246 20.2083Z" fill="#006233"/>
</g>
<defs>
<clipPath id="clip0_200_65222">
<rect width="60" height="45" fill="white" transform="translate(-7.5)"/>
</clipPath>
</defs>
</svg>
