<svg width="45" height="45" viewBox="0 0 45 45" fill="none" xmlns="http://www.w3.org/2000/svg">
<g clip-path="url(#clip0_200_65235)">
<path fill-rule="evenodd" clip-rule="evenodd" d="M-7.5 0H12.4969V45H-7.5V0Z" fill="#00319C"/>
<path fill-rule="evenodd" clip-rule="evenodd" d="M12.4971 0H32.5033V45H12.4971V0Z" fill="#FFDE00"/>
<path fill-rule="evenodd" clip-rule="evenodd" d="M32.5029 0H52.4998V45H32.5029V0Z" fill="#DE2110"/>
<path fill-rule="evenodd" clip-rule="evenodd" d="M26.2871 30.0371L28.5559 33.3184C28.6871 33.5059 28.809 33.684 28.6215 33.8059C28.434 33.9277 28.4902 34.4059 28.6215 34.5934C28.8746 34.959 29.184 35.0152 29.3715 34.8934L31.0965 33.8059C31.284 33.6934 31.3496 33.384 31.0965 33.0184C30.9559 32.8309 30.534 32.5965 30.3465 32.7184C30.1496 32.8402 30.0184 32.6527 29.8965 32.4746L27.6184 29.1934" fill="#FF1900"/>
<path fill-rule="evenodd" clip-rule="evenodd" d="M27.6459 29.1748L29.9242 32.4562C29.986 32.5466 30.0462 32.6328 30.1135 32.6828C30.1465 32.7072 30.1794 32.7216 30.2134 32.7242C30.2471 32.7268 30.2852 32.7182 30.3295 32.6908C30.3852 32.6548 30.4553 32.6468 30.5273 32.655C30.5999 32.6633 30.678 32.6883 30.7533 32.7226C30.9032 32.791 31.0488 32.8995 31.1234 32.9988L31.1241 32.9998C31.382 33.3723 31.3256 33.7069 31.1143 33.834L29.39 34.921C29.3899 34.9211 29.3899 34.9211 29.3898 34.9212C29.1812 35.0565 28.8535 34.9854 28.5952 34.6123C28.5248 34.5117 28.477 34.3385 28.4698 34.1766C28.4662 34.0951 28.4727 34.0142 28.4931 33.9449C28.5133 33.8758 28.5484 33.8148 28.6042 33.7785C28.6466 33.751 28.6685 33.7223 28.6784 33.6939C28.6885 33.6654 28.6877 33.6331 28.6772 33.5958C28.6556 33.5191 28.5963 33.4326 28.5296 33.3373L28.5295 33.3372L26.2607 30.0559L26.3147 30.0186L28.5834 33.2997C28.5833 33.2997 28.5834 33.2997 28.5834 33.2997C28.6479 33.3919 28.7151 33.4883 28.7404 33.578C28.7533 33.6239 28.7561 33.6707 28.7404 33.7157C28.7245 33.7608 28.6914 33.8001 28.64 33.8335C28.6021 33.8582 28.5738 33.9026 28.556 33.9634C28.5383 34.0238 28.5319 34.097 28.5354 34.1737C28.5422 34.3282 28.5881 34.4878 28.649 34.5747L28.6491 34.5748C28.8969 34.9328 29.1878 34.9742 29.3542 34.866L29.3546 34.8658L31.0802 33.7779C31.2436 33.6798 31.3183 33.3961 31.0705 33.0377C31.0043 32.9497 30.8689 32.8475 30.7261 32.7824C30.6549 32.7499 30.5836 32.7275 30.5199 32.7202C30.4559 32.7129 30.4031 32.7213 30.365 32.746L30.3644 32.7464C30.3104 32.7799 30.2584 32.7935 30.2084 32.7896C30.1586 32.7858 30.1142 32.765 30.0744 32.7355C29.9965 32.6777 29.9301 32.5811 29.8701 32.4934C29.8701 32.4934 29.8701 32.4933 29.87 32.4933L27.592 29.2122L27.6459 29.1748Z" fill="black"/>
<path fill-rule="evenodd" clip-rule="evenodd" d="M27.1776 27.725C28.1922 28.8776 28.5452 30.1991 27.9669 30.664C27.3885 31.1289 26.0864 30.5704 25.0717 29.4178C24.057 28.2652 23.709 26.9397 24.2873 26.4748C24.8657 26.0099 26.1637 26.5637 27.1825 27.721L27.1776 27.725Z" fill="#A77B3B"/>
<path fill-rule="evenodd" clip-rule="evenodd" d="M24.1608 27.67C24.2988 28.19 24.6327 28.7992 25.1337 29.3683C25.6349 29.9376 26.2047 30.3572 26.716 30.5771C27.2332 30.7995 27.663 30.8074 27.9152 30.6047C28.1673 30.402 28.2327 29.996 28.0919 29.471C27.9528 28.952 27.6176 28.3438 27.1165 27.7745L27.0643 27.7152L27.0688 27.7116C26.5787 27.17 26.0307 26.7717 25.5376 26.56C25.0211 26.3383 24.5923 26.3313 24.34 26.5341C24.0877 26.7369 24.0213 27.144 24.1608 27.67ZM27.2913 27.7352L27.2967 27.7309L27.2445 27.6716C26.7289 27.0859 26.1403 26.65 25.6028 26.4192C25.071 26.1909 24.5617 26.1535 24.2356 26.4156C23.9095 26.6777 23.8608 27.1658 24.0044 27.7069C24.1496 28.254 24.497 28.8839 25.0106 29.4673C25.5242 30.0506 26.1128 30.4865 26.6508 30.7179C27.1829 30.9467 27.6933 30.9855 28.0195 30.7233C28.3457 30.4611 28.393 29.9739 28.2482 29.4337C28.1068 28.9062 27.7766 28.3015 27.2913 27.7352Z" fill="black"/>
<path fill-rule="evenodd" clip-rule="evenodd" d="M17.0622 28.6973L15.0466 32.1379C14.9341 32.3254 14.8216 32.5129 14.6247 32.4191C14.4278 32.3066 14.0059 32.5785 13.8934 32.7754C13.6684 33.1504 13.7528 33.4504 13.9591 33.5629L15.7591 34.5191C15.9466 34.6223 16.2653 34.5379 16.4903 34.1629C16.5934 33.9566 16.6216 33.4785 16.4247 33.3754C16.2278 33.2723 16.3309 33.0754 16.4528 32.8879L18.4591 29.4473" fill="#FF1900"/>
<path fill-rule="evenodd" clip-rule="evenodd" d="M15.019 32.121L17.0345 28.6807L17.0911 28.7138L15.0755 32.1545L15.0753 32.1548L15.0734 32.1579C15.0186 32.2493 14.9602 32.3466 14.8895 32.4086C14.8531 32.4406 14.8118 32.4647 14.7644 32.4734C14.7165 32.4821 14.6656 32.4747 14.6112 32.4487L14.6101 32.4482L14.609 32.4476C14.5692 32.4248 14.5148 32.4199 14.4498 32.4319C14.3852 32.4438 14.3138 32.4719 14.2437 32.51C14.1026 32.5869 13.9747 32.7004 13.9225 32.7917L13.9222 32.7923C13.8125 32.9751 13.7802 33.1364 13.7976 33.2631C13.815 33.3893 13.8819 33.483 13.9752 33.534C13.9753 33.534 13.9753 33.534 13.9754 33.5341L15.7755 34.4904C15.9408 34.5813 16.2418 34.5134 16.4621 34.1471C16.5103 34.0499 16.5424 33.8852 16.5378 33.7314C16.5355 33.6546 16.5241 33.5826 16.5024 33.5244C16.4805 33.4661 16.4495 33.4251 16.4101 33.4044C16.3559 33.376 16.3193 33.3395 16.2996 33.2955C16.2799 33.2517 16.2785 33.2043 16.2876 33.1571C16.3053 33.0646 16.365 32.9637 16.4255 32.8707L18.4313 29.4307L18.488 29.4638L16.4814 32.9051L16.4809 32.9058C16.4196 33.0001 16.3671 33.0911 16.352 33.1694C16.3447 33.2077 16.3468 33.2406 16.3594 33.2686C16.3719 33.2964 16.3963 33.3231 16.4405 33.3463C16.4995 33.3772 16.5388 33.4347 16.5638 33.5014C16.5889 33.5684 16.601 33.6481 16.6034 33.7295C16.6082 33.8915 16.5749 34.0683 16.5203 34.1775L16.5197 34.1787L16.519 34.1798C16.2895 34.5623 15.9536 34.6631 15.7441 34.548C15.744 34.548 15.7439 34.5479 15.7438 34.5479L13.9443 33.5919L13.9439 33.5917C13.8311 33.5301 13.7527 33.4176 13.7326 33.272C13.7126 33.127 13.7506 32.9508 13.8657 32.7588C13.9262 32.6532 14.0653 32.5325 14.2123 32.4524C14.2864 32.4121 14.3644 32.3809 14.4378 32.3674C14.5104 32.354 14.5821 32.3571 14.6405 32.39C14.684 32.4105 14.7206 32.4147 14.7525 32.4088C14.785 32.4029 14.8158 32.386 14.8462 32.3593C14.9083 32.3048 14.9618 32.2163 15.0189 32.1211C15.019 32.1211 15.019 32.121 15.019 32.121Z" fill="black"/>
<path fill-rule="evenodd" clip-rule="evenodd" d="M23.5504 26.3058H21.7129C21.6566 26.362 21.1316 29.6433 20.5691 30.8995C19.8848 32.4277 17.8316 33.7777 17.8316 33.7777C17.8316 33.7777 19.0598 34.1527 19.4254 34.3964C19.5191 34.3683 21.4879 33.9558 21.7129 31.5558C21.9379 33.9558 20.3441 35.0527 20.3441 35.0527C20.3441 35.0527 22.6316 35.7089 22.6316 37.237C22.6316 35.7089 24.9191 35.0527 24.9191 35.0527C24.9191 35.0527 23.7754 33.9558 23.541 31.5558C24.0098 33.9558 25.7441 34.3683 25.8379 34.3964C26.2035 34.1527 27.4316 33.7777 27.4316 33.7777C27.4316 33.7777 25.3785 32.4277 24.6941 30.8995C24.1316 29.6433 23.6066 26.362 23.5504 26.3058ZM15.7691 15.3652L19.2004 16.462C20.3348 16.462 21.4879 15.3652 21.4879 14.2683C21.5254 11.8308 20.5691 10.987 20.3441 10.987L20.7941 10.5558L20.1098 9.89954C20.1098 9.89954 20.3441 8.76517 22.6316 8.80267C24.9191 8.84954 24.9191 9.89954 24.9191 10.987C24.9191 12.0745 23.7754 12.0839 23.7754 14.2683C23.7754 15.3652 24.9191 16.462 26.0629 16.462L29.4941 15.3652V26.3058H15.7598V15.3652H15.7691Z" fill="#A77B3B"/>
<path fill-rule="evenodd" clip-rule="evenodd" d="M20.1997 9.87629L20.9089 10.5564L20.4922 10.9558C20.4945 10.9571 20.4969 10.9585 20.4993 10.9598C20.5536 10.9916 20.6143 11.0384 20.6782 11.1004C20.8061 11.2245 20.9505 11.4136 21.0851 11.678C21.3545 12.2072 21.586 13.0407 21.5672 14.2695C21.567 14.8451 21.2653 15.4128 20.8242 15.8347C20.3828 16.2569 19.792 16.5423 19.2 16.5423H19.1876L15.8391 15.4719V26.2267H29.4141V15.4749L26.0749 16.5423H26.0625C25.4659 16.5423 24.8751 16.2569 24.4347 15.8346C23.9945 15.4124 23.6953 14.8444 23.6953 14.2689C23.6953 13.1588 23.9872 12.5947 24.2814 12.1714C24.3334 12.0967 24.3843 12.0275 24.433 11.9614C24.6607 11.6518 24.8391 11.4094 24.8391 10.9876C24.8391 10.437 24.8363 9.93092 24.5678 9.55122C24.3039 9.17822 23.7648 8.90621 22.6298 8.88293C21.4993 8.86442 20.8888 9.1355 20.5626 9.39956C20.3991 9.53191 20.3049 9.66421 20.2517 9.76164C20.2256 9.8095 20.2093 9.84908 20.1997 9.87629ZM23.492 26.3861H21.7705C21.7644 26.4109 21.757 26.444 21.7482 26.485C21.7275 26.5818 21.7003 26.7189 21.6673 26.8866C21.6609 26.9194 21.6542 26.9534 21.6473 26.9885C21.5839 27.3112 21.5026 27.7252 21.4084 28.1698C21.2002 29.1525 20.9268 30.2955 20.6415 30.9327C20.2921 31.7128 19.5971 32.4416 18.9961 32.972C18.6946 33.2381 18.4147 33.456 18.2102 33.6075C18.1318 33.6655 18.0645 33.7138 18.0112 33.7513C18.0246 33.7556 18.0386 33.7601 18.0533 33.7648C18.1746 33.8039 18.3403 33.8586 18.5175 33.9211C18.6946 33.9834 18.8839 34.0537 19.0524 34.1239C19.2029 34.1867 19.3408 34.251 19.4385 34.3111C19.5717 34.2761 20.0146 34.1518 20.4711 33.8028C20.9872 33.4084 21.5229 32.7248 21.6332 31.5489H21.7918C21.9062 32.7691 21.5581 33.6609 21.1795 34.248C20.9904 34.5412 20.7941 34.758 20.6445 34.9018C20.5937 34.9507 20.5482 34.9912 20.5102 35.0235C20.5693 35.0439 20.6443 35.0713 20.7307 35.1056C20.948 35.1922 21.2384 35.324 21.5295 35.5047C21.981 35.785 22.4487 36.1927 22.6312 36.7431C22.8138 36.1927 23.2815 35.785 23.733 35.5047C24.024 35.324 24.3145 35.1922 24.5318 35.1056C24.6296 35.0667 24.7128 35.0368 24.775 35.0157C24.7467 34.9834 24.7126 34.9428 24.6739 34.8938C24.5605 34.7503 24.4077 34.5345 24.2477 34.2432C23.9278 33.6603 23.5796 32.7758 23.4613 31.5641L23.6188 31.5411C23.8495 32.722 24.3899 33.4088 24.8797 33.8041C25.3087 34.1503 25.7017 34.2754 25.8247 34.3106C25.9224 34.2507 26.0599 34.1865 26.2101 34.1239C26.3786 34.0537 26.5679 33.9834 26.745 33.9211C26.9222 33.8586 27.0879 33.8039 27.2092 33.7648C27.2239 33.7601 27.2379 33.7556 27.2513 33.7513C27.198 33.7138 27.1307 33.6655 27.0523 33.6075C26.8478 33.456 26.5679 33.2381 26.2664 32.972C25.6654 32.4416 24.9704 31.7128 24.621 30.9327C24.3357 30.2955 24.0623 29.1525 23.8541 28.1698C23.7599 27.7252 23.6785 27.3112 23.6152 26.9885C23.6083 26.9534 23.6016 26.9194 23.5951 26.8866C23.5622 26.7189 23.535 26.5818 23.5143 26.485C23.5055 26.444 23.4981 26.4109 23.492 26.3861ZM24.9739 34.9958L25.0739 35.0916L24.9405 35.1299L24.9394 35.1302L24.9349 35.1316C24.9309 35.1328 24.9247 35.1346 24.9166 35.1371C24.9004 35.1421 24.8764 35.1497 24.8457 35.16C24.7844 35.1805 24.6965 35.2116 24.5908 35.2537C24.3792 35.338 24.0978 35.4658 23.817 35.6401C23.2508 35.9917 22.7109 36.517 22.7109 37.2376H22.5516C22.5516 36.517 22.0117 35.9917 21.4455 35.6401C21.1647 35.4658 20.8833 35.338 20.6717 35.2537C20.566 35.2116 20.4781 35.1805 20.4168 35.16C20.3861 35.1497 20.3621 35.1421 20.3459 35.1371C20.3378 35.1346 20.3316 35.1328 20.3276 35.1316L20.3231 35.1302L20.322 35.1299L20.3218 35.1298L20.1595 35.0833L20.2985 34.9877L20.2986 34.9876L20.2992 34.9872L20.302 34.9852C20.3046 34.9833 20.3087 34.9804 20.3141 34.9764C20.3249 34.9683 20.3411 34.956 20.3619 34.9393C20.4033 34.906 20.4629 34.8553 20.534 34.7869C20.6763 34.6501 20.8643 34.4427 21.0455 34.1616C21.3217 33.7335 21.5828 33.1335 21.6421 32.3492C21.413 33.1121 20.9866 33.6095 20.5679 33.9295C20.0638 34.3147 19.5728 34.4411 19.4662 34.4685C19.4574 34.4707 19.4512 34.4723 19.4479 34.4733L19.412 34.4841L19.3808 34.4633C19.2963 34.407 19.1571 34.3403 18.9911 34.271C18.8264 34.2024 18.6402 34.1332 18.4645 34.0714C18.289 34.0096 18.1248 33.9553 18.0044 33.9165C17.9442 33.8971 17.895 33.8816 17.8609 33.8709C17.8439 33.8656 17.8306 33.8614 17.8216 33.8587L17.8114 33.8555L17.8088 33.8547L17.8082 33.8545L17.808 33.8545L17.6457 33.8049L17.7875 33.7117L17.7877 33.7115L17.7888 33.7108L17.793 33.708C17.7968 33.7055 17.8024 33.7017 17.8099 33.6967C17.8248 33.6866 17.8469 33.6715 17.8754 33.6518C17.9322 33.6123 18.0145 33.5541 18.1153 33.4794C18.3171 33.33 18.5933 33.1149 18.8906 32.8525C19.4873 32.3259 20.161 31.6156 20.496 30.8676C20.7732 30.2485 21.0436 29.1228 21.2525 28.1367C21.3465 27.6934 21.4276 27.2805 21.4909 26.9577C21.4978 26.9227 21.5045 26.8887 21.511 26.8558C21.5439 26.6884 21.5713 26.5501 21.5923 26.4517C21.5975 26.4276 21.6023 26.4056 21.6068 26.3861H15.6797V15.2861H15.7812L19.2123 16.3829C19.7507 16.379 20.2985 16.1169 20.7141 15.7195C21.133 15.3189 21.4078 14.79 21.4078 14.2689V14.2677C21.4264 13.0593 21.1986 12.2523 20.943 11.7503C20.8152 11.4991 20.6807 11.3249 20.5671 11.2147C20.5103 11.1595 20.4597 11.1213 20.4188 11.0974C20.3756 11.0722 20.3509 11.0673 20.3437 11.0673H20.1454L20.6786 10.5564L20.0224 9.92715L20.0313 9.884L20.1094 9.90013C20.0313 9.884 20.0314 9.88393 20.0314 9.88384L20.0314 9.88366L20.0315 9.8832L20.0318 9.88199C20.032 9.88104 20.0323 9.87982 20.0326 9.87833C20.0333 9.87536 20.0343 9.87134 20.0357 9.86633C20.0385 9.85631 20.0426 9.84236 20.0487 9.82503C20.0609 9.79039 20.0807 9.74226 20.1118 9.6853C20.1741 9.5712 20.2813 9.42225 20.4624 9.27569C20.8252 8.98195 21.4756 8.70461 22.6326 8.72358L22.6329 8.72358C23.7852 8.7472 24.3898 9.02361 24.6979 9.45919C24.9985 9.88424 24.9985 10.4407 24.9984 10.9732V10.9876C24.9984 11.4658 24.7851 11.7542 24.5541 12.0666C24.507 12.1303 24.4592 12.195 24.4123 12.2624C24.1347 12.6618 23.8547 13.1946 23.8547 14.2689C23.8547 14.7902 24.1274 15.3191 24.545 15.7196C24.9593 16.1169 25.5071 16.379 26.0502 16.3829L29.5734 15.2566V26.3861H23.6557C23.6602 26.4056 23.665 26.4276 23.6702 26.4517C23.6912 26.5501 23.7186 26.6884 23.7515 26.8558C23.758 26.8887 23.7647 26.9227 23.7716 26.9578C23.835 27.2806 23.916 27.6934 24.01 28.1367C24.2189 29.1228 24.4893 30.2485 24.7665 30.8676C25.1015 31.6156 25.7752 32.3259 26.3719 32.8525C26.6692 33.1149 26.9454 33.33 27.1472 33.4794C27.248 33.5541 27.3303 33.6123 27.3871 33.6518C27.4156 33.6715 27.4377 33.6866 27.4526 33.6967C27.4601 33.7017 27.4657 33.7055 27.4695 33.708L27.4737 33.7108L27.4748 33.7115L27.475 33.7116L27.6168 33.8049L27.4545 33.8545L27.4543 33.8545L27.4537 33.8547L27.4511 33.8555L27.4409 33.8587C27.4319 33.8614 27.4186 33.8656 27.4016 33.8709C27.3675 33.8816 27.3183 33.8971 27.2581 33.9165C27.1377 33.9553 26.9735 34.0096 26.798 34.0714C26.6223 34.1332 26.4361 34.2024 26.2714 34.271C26.1054 34.3403 25.9662 34.407 25.8817 34.4633L25.8505 34.4841L25.8146 34.4733C25.8118 34.4725 25.8076 34.4713 25.8019 34.4698C25.7116 34.4446 25.2663 34.3209 24.7796 33.9282C24.4408 33.6548 24.0836 33.2524 23.8103 32.6656C23.968 33.2985 24.1842 33.7964 24.3874 34.1665C24.5427 34.4494 24.6905 34.6578 24.7989 34.795C24.8531 34.8635 24.8974 34.9143 24.9279 34.9476C24.9432 34.9643 24.955 34.9766 24.9628 34.9846C24.9667 34.9886 24.9696 34.9915 24.9715 34.9934L24.9735 34.9954L24.9739 34.9958ZM20.1873 9.91664C20.1873 9.91671 20.1873 9.9167 20.1873 9.91664V9.91664Z" fill="black"/>
<path fill-rule="evenodd" clip-rule="evenodd" d="M21.4847 15.7832L21.7148 16.4466L22.173 15.7885L22.3945 16.4751L22.6277 15.7859L22.9665 16.4812L23.316 15.7863L23.5431 16.4409L23.7667 15.801L23.7791 15.8053L23.5431 16.4808L23.3138 15.8199L22.9663 16.5107L22.6299 15.8203L22.3942 16.5168L22.1686 15.8177L21.7109 16.4751L21.4846 15.823L21.2549 16.4808L21.0205 15.8053L21.0329 15.801L21.2549 16.4409L21.4847 15.7832Z" fill="black"/>
<path fill-rule="evenodd" clip-rule="evenodd" d="M21.4805 15.8068L21.9391 13.3994L21.9515 13.4018L21.4929 15.8092L21.4805 15.8068ZM23.3085 15.8086L23.0824 13.4012L23.095 13.4L23.3211 15.8074L23.3085 15.8086ZM23.7672 15.8086L23.5411 13.4012L23.5536 13.4L23.7797 15.8074L23.7672 15.8086ZM22.1651 15.808V13.4006H22.1777V15.808H22.1651ZM22.6237 15.808V13.4006H22.6364V15.808H22.6237Z" fill="black"/>
<path fill-rule="evenodd" clip-rule="evenodd" d="M13.4687 8.80859C11.1819 9.90118 11.1819 12.0925 11.1819 13.1851C11.2594 14.1789 11.1819 35.0553 11.1819 35.0553C11.1819 35.0553 11.3305 33.8207 12.3253 32.8701L13.4622 31.7775L14.6056 30.6849C15.4454 29.9565 15.749 28.4936 15.749 27.401V12.0925C15.749 12.0925 15.749 10.9938 13.4622 8.80859H13.4687Z" fill="#A77B3B"/>
<path fill-rule="evenodd" clip-rule="evenodd" d="M13.4811 8.78783L13.4679 8.72949H13.2646L13.3275 8.78961C11.1022 9.92009 11.1022 12.1057 11.1022 13.1804V13.188L11.1024 13.1911C11.1215 13.4356 11.1312 14.9219 11.1349 17.0215C11.1385 19.1183 11.1361 21.8209 11.1312 24.4925C11.1264 27.1642 11.1191 29.8047 11.1131 31.7774C11.11 32.7637 11.1073 33.5831 11.1054 34.1558C11.1044 34.4422 11.1036 34.667 11.103 34.8201L11.1022 35.0546C11.1022 35.0547 11.1022 35.0548 11.1811 35.0551L11.1022 35.0548L11.259 35.0645C11.2595 35.0646 11.2595 35.0646 11.2595 35.0646L11.2595 35.0641L11.2598 35.0618C11.2601 35.0598 11.2605 35.0565 11.2612 35.0522C11.2624 35.0435 11.2644 35.0305 11.2673 35.0133C11.2731 34.979 11.2825 34.9285 11.2969 34.8647C11.3257 34.7371 11.3743 34.5567 11.4536 34.3469C11.6122 33.927 11.8925 33.3919 12.379 32.927L12.3792 32.9268L13.516 31.8344L13.5161 31.8343L14.658 30.7431C15.0926 30.3655 15.3839 29.8027 15.5669 29.2024C15.7504 28.6005 15.8271 27.9537 15.8271 27.4008V12.0923H15.7482C15.8271 12.0923 15.8271 12.0923 15.8271 12.0922L15.8271 12.092L15.8271 12.0915L15.8271 12.0903C15.8271 12.0893 15.8271 12.0881 15.827 12.0866C15.8269 12.0836 15.8268 12.0795 15.8264 12.0743C15.8258 12.0641 15.8245 12.0495 15.822 12.0307C15.8171 11.993 15.8075 11.9383 15.7889 11.8666C15.7515 11.7232 15.6778 11.512 15.5323 11.2333C15.2416 10.676 14.6639 9.84832 13.516 8.75136L13.4811 8.78783ZM13.4486 8.90551C11.2653 9.98239 11.26 12.0945 11.26 13.1819C11.2796 13.4433 11.2891 14.9356 11.2927 17.0213C11.2964 19.1183 11.294 21.8212 11.2891 24.4928C11.2843 27.1645 11.277 29.8052 11.2709 31.7779C11.2679 32.7642 11.2652 33.5836 11.2632 34.1564C11.2629 34.248 11.2626 34.3332 11.2623 34.4119C11.2758 34.3728 11.2903 34.3325 11.3059 34.2911C11.4703 33.8561 11.7617 33.2986 12.2699 32.8129C12.2699 32.8129 12.2699 32.8129 12.27 32.8129" fill="black"/>
<path fill-rule="evenodd" clip-rule="evenodd" d="M14.6125 11.9824L13.4685 13.0756L12.3251 11.983L11.1272 13.1277L11.2362 13.2418L12.3251 12.2014L13.4685 13.294L14.6113 12.2019C14.6415 12.2314 14.6828 12.2717 14.7318 12.3195C14.837 12.4219 14.9776 12.5586 15.119 12.6952C15.2604 12.8319 15.4028 12.9687 15.5115 13.0714C15.5658 13.1228 15.6121 13.1659 15.6458 13.1964C15.6625 13.2115 15.6768 13.2241 15.6876 13.2332C15.6929 13.2375 15.6985 13.242 15.7036 13.2457C15.706 13.2475 15.7099 13.2501 15.7144 13.2527C15.7166 13.254 15.7205 13.256 15.7254 13.258C15.7288 13.2593 15.7401 13.2637 15.7553 13.2637V13.1058C15.77 13.1058 15.7808 13.1101 15.7835 13.1112C15.7878 13.1129 15.7908 13.1145 15.7921 13.1153C15.7948 13.1168 15.7963 13.1179 15.7958 13.1176C15.7952 13.1171 15.793 13.1155 15.7887 13.1119C15.7803 13.1049 15.768 13.094 15.7517 13.0793C15.7193 13.05 15.674 13.0078 15.6199 12.9567C15.5118 12.8546 15.37 12.7183 15.2287 12.5817C15.0875 12.4453 14.9471 12.3088 14.842 12.2064C14.7894 12.1552 14.7457 12.1125 14.7151 12.0827L14.6671 12.0358C14.6671 12.0358 14.667 12.0358 14.6119 12.0922L14.6671 12.0358L14.6125 11.9824Z" fill="black"/>
<path fill-rule="evenodd" clip-rule="evenodd" d="M14.6125 15.4766L13.4685 14.3834L12.3251 15.476L11.1272 14.3313L11.2362 14.2171L12.3251 15.2576L13.4685 14.165L14.6113 15.257C14.6415 15.2276 14.6828 15.1873 14.7318 15.1395C14.837 15.0371 14.9776 14.9004 15.119 14.7637C15.2604 14.6271 15.4028 14.4903 15.5115 14.3875C15.5658 14.3362 15.6121 14.2931 15.6458 14.2626C15.6625 14.2475 15.6768 14.2349 15.6876 14.2258C15.6929 14.2214 15.6985 14.217 15.7036 14.2133C15.706 14.2115 15.7099 14.2089 15.7144 14.2063C15.7166 14.205 15.7205 14.203 15.7254 14.201C15.7288 14.1997 15.7401 14.1953 15.7553 14.1953V14.3531C15.77 14.3531 15.7808 14.3489 15.7835 14.3478C15.7878 14.3461 15.7908 14.3444 15.7921 14.3437C15.7948 14.3422 15.7963 14.3411 15.7958 14.3414C15.7952 14.3418 15.793 14.3435 15.7887 14.3471C15.7803 14.3541 15.768 14.365 15.7517 14.3797C15.7193 14.409 15.674 14.4512 15.6199 14.5023C15.5118 14.6044 15.37 14.7407 15.2287 14.8773C15.0875 15.0137 14.9471 15.1502 14.842 15.2526C14.7894 15.3038 14.7457 15.3465 14.7151 15.3763L14.6671 15.4232C14.6671 15.4232 14.667 15.4232 14.6119 15.3668L14.6671 15.4232L14.6125 15.4766Z" fill="black"/>
<path fill-rule="evenodd" clip-rule="evenodd" d="M14.6125 16.3516L13.4685 17.4447L12.3251 16.3522L11.1272 17.4969L11.2362 17.611L12.3251 16.5705L13.4685 17.6631L14.6113 16.5711C14.6415 16.6005 14.6828 16.6409 14.7318 16.6886C14.837 16.7911 14.9776 16.9277 15.119 17.0644C15.2604 17.201 15.4028 17.3378 15.5115 17.4406C15.5658 17.4919 15.6121 17.535 15.6458 17.5655C15.6625 17.5807 15.6768 17.5932 15.6876 17.6023C15.6929 17.6067 15.6985 17.6112 15.7036 17.6149C15.706 17.6166 15.7099 17.6193 15.7144 17.6218C15.7166 17.6231 15.7205 17.6252 15.7254 17.6271C15.7288 17.6285 15.7401 17.6329 15.7553 17.6329V17.475C15.77 17.475 15.7808 17.4792 15.7835 17.4803C15.7878 17.482 15.7908 17.4837 15.7921 17.4844C15.7948 17.4859 15.7963 17.487 15.7958 17.4867C15.7952 17.4863 15.793 17.4846 15.7887 17.481C15.7803 17.4741 15.768 17.4632 15.7517 17.4484C15.7193 17.4192 15.674 17.3769 15.6199 17.3258C15.5118 17.2237 15.37 17.0874 15.2287 16.9509C15.0875 16.8144 14.9471 16.6779 14.842 16.5755C14.7894 16.5243 14.7457 16.4817 14.7151 16.4518L14.6671 16.4049C14.6671 16.4049 14.667 16.4049 14.6119 16.4613L14.6671 16.4049L14.6125 16.3516Z" fill="black"/>
<path fill-rule="evenodd" clip-rule="evenodd" d="M14.7207 30.686L14.7078 12.0898L14.4903 12.09L14.5033 30.6861L14.7207 30.686Z" fill="black"/>
<path fill-rule="evenodd" clip-rule="evenodd" d="M13.5898 31.7335L13.5769 13.1826L13.3709 13.1828L13.3838 31.7336L13.5898 31.7335Z" fill="black"/>
<path fill-rule="evenodd" clip-rule="evenodd" d="M12.4521 32.8759L12.4392 12.0947L12.2212 12.0949L12.2341 32.8761L12.4521 32.8759Z" fill="black"/>
<path fill-rule="evenodd" clip-rule="evenodd" d="M31.7852 8.80859C34.072 9.90118 34.072 12.0925 34.072 13.1851C33.9945 14.1789 34.072 35.0553 34.072 35.0553C34.072 35.0553 33.9234 33.8207 32.9286 32.8701L31.7917 31.7775L30.6483 30.6849C29.8085 29.9565 29.5049 28.4936 29.5049 27.401V12.0925C29.5049 12.0925 29.5049 10.9938 31.7917 8.80859H31.7852Z" fill="#A77B3B"/>
<path fill-rule="evenodd" clip-rule="evenodd" d="M31.7718 8.78783L31.785 8.72949H31.9884L31.9254 8.78961C34.1508 9.92009 34.1508 12.1057 34.1508 13.1804V13.188L34.1505 13.1911C34.1314 13.4356 34.1217 14.9219 34.1181 17.0215C34.1144 19.1183 34.1168 21.8209 34.1217 24.4925C34.1265 27.1642 34.1338 29.8047 34.1399 31.7774C34.1429 32.7637 34.1456 33.5831 34.1476 34.1558C34.1486 34.4422 34.1494 34.667 34.1499 34.8201L34.1508 35.0546C34.1508 35.0547 34.1508 35.0548 34.0718 35.0551L34.1508 35.0548L33.994 35.0645C33.9935 35.0646 33.9935 35.0646 33.9935 35.0646L33.9934 35.0641L33.9931 35.0618C33.9928 35.0598 33.9924 35.0565 33.9918 35.0522C33.9905 35.0435 33.9886 35.0305 33.9857 35.0133C33.9799 34.979 33.9705 34.9285 33.9561 34.8647C33.9273 34.7371 33.8786 34.5567 33.7993 34.3469C33.6407 33.927 33.3604 33.3919 32.8739 32.927L32.8737 32.9268L31.737 31.8344L31.7368 31.8343L30.5949 30.7431C30.1604 30.3655 29.869 29.8027 29.686 29.2024C29.5025 28.6005 29.4258 27.9537 29.4258 27.4008V12.0923H29.5047C29.4258 12.0923 29.4258 12.0923 29.4258 12.0922L29.4258 12.092L29.4258 12.0915L29.4258 12.0903C29.4258 12.0893 29.4258 12.0881 29.4259 12.0866C29.426 12.0836 29.4262 12.0795 29.4265 12.0743C29.4272 12.0641 29.4285 12.0495 29.4309 12.0307C29.4358 11.993 29.4454 11.9383 29.4641 11.8666C29.5014 11.7232 29.5751 11.512 29.7206 11.2333C30.0114 10.676 30.589 9.84832 31.737 8.75136L31.7718 8.78783ZM31.8043 8.90551C33.9877 9.98239 33.9929 12.0945 33.9929 13.1819C33.9734 13.4433 33.9638 14.9356 33.9602 17.0213C33.9566 19.1183 33.959 21.8212 33.9638 24.4928C33.9687 27.1645 33.9759 29.8052 33.982 31.7779C33.985 32.7642 33.9877 33.5836 33.9897 34.1564C33.99 34.248 33.9903 34.3332 33.9906 34.4119C33.9772 34.3728 33.9627 34.3325 33.947 34.2911C33.7827 33.8561 33.4913 33.2986 32.9831 32.8129C32.983 32.8129 32.983 32.8129 32.983 32.8129" fill="black"/>
<path fill-rule="evenodd" clip-rule="evenodd" d="M30.6414 11.9824L31.7854 13.0756L32.9288 11.983L34.1267 13.1277L34.0177 13.2418L32.9288 12.2014L31.7854 13.294L30.6426 12.2019C30.6124 12.2314 30.5711 12.2717 30.5221 12.3195C30.4169 12.4219 30.2763 12.5586 30.1349 12.6952C29.9935 12.8319 29.8512 12.9687 29.7424 13.0714C29.6881 13.1228 29.6418 13.1659 29.6081 13.1964C29.5914 13.2115 29.5771 13.2241 29.5663 13.2332C29.561 13.2375 29.5554 13.242 29.5503 13.2457C29.5479 13.2475 29.5441 13.2501 29.5395 13.2527C29.5373 13.254 29.5334 13.256 29.5285 13.258C29.5251 13.2593 29.5138 13.2637 29.4986 13.2637V13.1058C29.4839 13.1058 29.4731 13.1101 29.4704 13.1112C29.4661 13.1129 29.4631 13.1145 29.4618 13.1153C29.4591 13.1168 29.4576 13.1179 29.4581 13.1176C29.4587 13.1171 29.4609 13.1155 29.4652 13.1119C29.4736 13.1049 29.486 13.094 29.5022 13.0793C29.5346 13.05 29.5799 13.0078 29.634 12.9567C29.7421 12.8546 29.8839 12.7183 30.0252 12.5817C30.1664 12.4453 30.3068 12.3088 30.4119 12.2064C30.4645 12.1552 30.5082 12.1125 30.5388 12.0827L30.5868 12.0358C30.5868 12.0358 30.5869 12.0358 30.642 12.0922L30.5868 12.0358L30.6414 11.9824Z" fill="black"/>
<path fill-rule="evenodd" clip-rule="evenodd" d="M30.6414 15.4766L31.7854 14.3834L32.9288 15.476L34.1267 14.3313L34.0177 14.2171L32.9288 15.2576L31.7854 14.165L30.6426 15.257C30.6124 15.2276 30.5711 15.1873 30.5221 15.1395C30.4169 15.0371 30.2763 14.9004 30.1349 14.7637C29.9935 14.6271 29.8512 14.4903 29.7424 14.3875C29.6881 14.3362 29.6418 14.2931 29.6081 14.2626C29.5914 14.2475 29.5771 14.2349 29.5663 14.2258C29.561 14.2214 29.5554 14.217 29.5503 14.2133C29.5479 14.2115 29.5441 14.2089 29.5395 14.2063C29.5373 14.205 29.5334 14.203 29.5285 14.201C29.5251 14.1997 29.5138 14.1953 29.4986 14.1953V14.3531C29.4839 14.3531 29.4731 14.3489 29.4704 14.3478C29.4661 14.3461 29.4631 14.3444 29.4618 14.3437C29.4591 14.3422 29.4576 14.3411 29.4581 14.3414C29.4587 14.3418 29.4609 14.3435 29.4652 14.3471C29.4736 14.3541 29.486 14.365 29.5022 14.3797C29.5346 14.409 29.5799 14.4512 29.634 14.5023C29.7421 14.6044 29.8839 14.7407 30.0252 14.8773C30.1664 15.0137 30.3068 15.1502 30.4119 15.2526C30.4645 15.3038 30.5082 15.3465 30.5388 15.3763L30.5868 15.4232C30.5868 15.4232 30.5869 15.4232 30.642 15.3668L30.5868 15.4232L30.6414 15.4766Z" fill="black"/>
<path fill-rule="evenodd" clip-rule="evenodd" d="M30.6414 16.3516L31.7854 17.4447L32.9288 16.3522L34.1267 17.4969L34.0177 17.611L32.9288 16.5705L31.7854 17.6631L30.6426 16.5711C30.6124 16.6005 30.5711 16.6409 30.5221 16.6886C30.4169 16.7911 30.2763 16.9277 30.1349 17.0644C29.9935 17.201 29.8512 17.3378 29.7424 17.4406C29.6881 17.4919 29.6418 17.535 29.6081 17.5655C29.5914 17.5807 29.5771 17.5932 29.5663 17.6023C29.561 17.6067 29.5554 17.6112 29.5503 17.6149C29.5479 17.6166 29.5441 17.6193 29.5395 17.6218C29.5373 17.6231 29.5334 17.6252 29.5285 17.6271C29.5251 17.6285 29.5138 17.6329 29.4986 17.6329V17.475C29.4839 17.475 29.4731 17.4792 29.4704 17.4803C29.4661 17.482 29.4631 17.4837 29.4618 17.4844C29.4591 17.4859 29.4576 17.487 29.4581 17.4867C29.4587 17.4863 29.4609 17.4846 29.4652 17.481C29.4736 17.4741 29.486 17.4632 29.5022 17.4484C29.5346 17.4192 29.5799 17.3769 29.634 17.3258C29.7421 17.2237 29.8839 17.0874 30.0252 16.9509C30.1664 16.8144 30.3068 16.6779 30.4119 16.5755C30.4645 16.5243 30.5082 16.4817 30.5388 16.4518L30.5868 16.4049C30.5868 16.4049 30.5869 16.4049 30.642 16.4613L30.5868 16.4049L30.6414 16.3516Z" fill="black"/>
<path fill-rule="evenodd" clip-rule="evenodd" d="M30.5332 30.686L30.5461 12.0898L30.7636 12.09L30.7506 30.6861L30.5332 30.686Z" fill="black"/>
<path fill-rule="evenodd" clip-rule="evenodd" d="M31.6729 31.7335L31.6858 13.1826L31.8918 13.1828L31.8788 31.7336L31.6729 31.7335Z" fill="black"/>
<path fill-rule="evenodd" clip-rule="evenodd" d="M32.8105 32.8759L32.8235 12.0947L33.0415 12.0949L33.0286 32.8761L32.8105 32.8759Z" fill="black"/>
<path fill-rule="evenodd" clip-rule="evenodd" d="M19.6193 28.3939C19.013 29.7842 17.9461 30.6902 17.2485 30.4124C16.5508 30.1347 16.4728 28.7729 17.079 27.3826C17.6853 25.9923 18.7581 25.0887 19.4558 25.3664C20.1534 25.6442 20.2339 27.0003 19.6252 28.3963L19.6193 28.3939Z" fill="#A77B3B"/>
<path fill-rule="evenodd" clip-rule="evenodd" d="M18.2844 25.8075C17.8644 26.163 17.4514 26.7256 17.1522 27.4118C16.8529 28.0981 16.7242 28.774 16.7543 29.3087C16.7848 29.8489 16.9742 30.2184 17.2798 30.3401C17.5855 30.4618 17.9934 30.3301 18.4163 29.9704C18.8348 29.6143 19.2464 29.0511 19.5457 28.3647L19.5773 28.2924L19.5827 28.2945C19.861 27.6306 19.9798 26.9833 19.9505 26.4681C19.9197 25.9288 19.7298 25.5606 19.424 25.4388C19.1182 25.3171 18.7088 25.4483 18.2844 25.8075ZM19.6603 28.4953L19.6668 28.4979L19.6984 28.4255C20.0066 27.7187 20.142 27.0186 20.1099 26.4559C20.0782 25.8988 19.879 25.4501 19.4871 25.2941C19.0952 25.1381 18.6195 25.3198 18.1814 25.6905C17.739 26.065 17.3125 26.6493 17.0055 27.3534C16.6985 28.0574 16.5631 28.7575 16.5949 29.3208C16.6263 29.8784 16.8247 30.3288 17.2167 30.4848C17.6087 30.6409 18.0831 30.4584 18.5196 30.0871C18.9454 29.7249 19.3562 29.1671 19.6603 28.4953Z" fill="black"/>
<path fill-rule="evenodd" clip-rule="evenodd" d="M15.7598 16.4629H29.4941V23.0254H15.7598V16.4629Z" fill="#FF0000"/>
<path fill-rule="evenodd" clip-rule="evenodd" d="M15.7594 23.0254H29.4938V26.3066C29.4938 28.491 26.0625 28.491 22.6312 30.6754C19.1906 28.5004 15.75 28.5004 15.75 26.3066V23.0254H15.7594Z" fill="#564DFF"/>
<path fill-rule="evenodd" clip-rule="evenodd" d="M15.6992 16.3994H29.5591V26.3143C29.5591 26.8805 29.3356 27.3066 28.9488 27.6586C28.5651 28.0078 28.0203 28.2846 27.376 28.5584C27.0705 28.6882 26.7419 28.8178 26.3957 28.9543C25.2759 29.3957 23.9711 29.9101 22.6631 30.7441L22.6291 30.7657L22.5952 30.744C21.29 29.9102 19.9861 29.3959 18.8663 28.9542C18.5197 28.8175 18.1907 28.6877 17.8847 28.5576C17.2401 28.2834 16.6947 28.0061 16.3104 27.6559C15.9232 27.3031 15.6992 26.8759 15.6992 26.3082V16.3994ZM15.8255 16.5257V26.3082C15.8255 26.8361 16.0312 27.2306 16.3955 27.5626C16.7628 27.8972 17.2909 28.1677 17.9342 28.4414C18.2353 28.5695 18.561 28.6979 18.9054 28.8338C20.0171 29.2722 21.3239 29.7876 22.6292 30.616C23.9372 29.7874 25.2449 29.272 26.3565 28.8338C26.7006 28.6982 27.0259 28.57 27.3266 28.4421C27.9695 28.1689 28.497 27.899 28.8638 27.5652C29.2276 27.2341 29.4328 26.8407 29.4328 26.3143V16.5257H15.8255Z" fill="#FFFF00"/>
<path fill-rule="evenodd" clip-rule="evenodd" d="M20.1084 16.8994C20.1084 16.8994 17.8203 18.5081 17.8203 20.0472C17.8203 21.5862 20.2215 22.1022 20.2215 22.1022C20.2215 22.1022 19.4211 22.1022 19.4211 24.1543C19.4211 25.1832 21.8222 24.6702 21.8222 25.1832C21.8222 25.6963 21.7906 26.9368 21.8222 27.7513C21.8222 28.2643 20.2215 27.7513 20.2215 28.2643C20.2215 28.5194 21.4243 29.8034 22.6271 29.8034C23.83 29.8034 25.0283 28.5194 25.0283 28.2643C25.0283 27.7513 23.4275 28.2643 23.4275 27.7513V25.1832C23.4275 24.6702 25.8287 25.1832 25.8287 24.1543C25.8287 22.1022 25.0283 22.1022 25.0283 22.1022C25.0283 22.1022 27.434 21.5891 27.434 20.0472C27.434 18.5052 25.1413 16.8994 25.1413 16.8994C25.1413 16.8994 26.4301 19.0211 26.4301 20.0472C26.4301 20.5602 25.8287 21.5891 24.2279 21.5891C24.2279 21.5891 23.8209 21.0732 23.4275 21.5891C23.4275 21.5891 22.9663 21.0732 22.6271 21.5891C22.5096 21.763 22.3016 21.0732 21.8222 21.5891C21.6233 21.7254 21.4605 21.0732 21.0218 21.5891C20.2215 21.5891 18.6207 21.0732 18.6207 20.0472C18.6207 19.0211 20.1084 16.8994 20.1084 16.8994Z" fill="#FFFF00"/>
<path fill-rule="evenodd" clip-rule="evenodd" d="M25.103 16.9229L25.1676 16.8623L25.1417 16.8994L25.103 16.9229ZM25.2001 22.1058C25.2598 22.0895 25.3339 22.068 25.4183 22.041C25.6455 21.9682 25.9489 21.855 26.2528 21.6928C26.8573 21.3701 27.4795 20.8448 27.4795 20.0471C27.4795 19.6507 27.3323 19.2532 27.1151 18.8819C26.8978 18.5104 26.6086 18.1622 26.3205 17.8636C26.0324 17.5648 25.7443 17.3147 25.5284 17.1392C25.4204 17.0515 25.3304 16.9824 25.2673 16.9352C25.2357 16.9115 25.2109 16.8934 25.1939 16.8811C25.1854 16.875 25.1789 16.8703 25.1745 16.8671L25.1694 16.8636L25.1681 16.8626L25.1678 16.8624L25.1676 16.8623C25.1676 16.8623 25.1676 16.8623 25.1417 16.8994C25.103 16.9229 25.103 16.9229 25.103 16.9229L25.103 16.9229L25.1039 16.9243L25.1066 16.9289C25.109 16.9329 25.1126 16.9388 25.1173 16.9467C25.1267 16.9624 25.1405 16.9856 25.158 17.0155C25.1931 17.0753 25.2433 17.1619 25.3036 17.2691C25.4241 17.4835 25.5848 17.78 25.7454 18.1084C25.9061 18.4368 26.0663 18.7965 26.1864 19.1374C26.3067 19.4793 26.3852 19.7984 26.3852 20.0471C26.3852 20.5294 25.8129 21.5349 24.2491 21.5438C24.2474 21.5418 24.2455 21.5397 24.2435 21.5375C24.2308 21.5235 24.2123 21.5043 24.1889 21.4831C24.1425 21.4408 24.0751 21.3889 23.9934 21.354C23.9113 21.3189 23.8131 21.3003 23.7075 21.3276C23.613 21.3521 23.5171 21.4122 23.4243 21.5214C23.412 21.5098 23.3969 21.4963 23.3794 21.4817C23.3288 21.4398 23.2566 21.3883 23.172 21.3537C23.0872 21.3191 22.9873 21.3002 22.884 21.3277C22.78 21.3553 22.6792 21.4281 22.5898 21.5639C22.5855 21.5702 22.5827 21.5723 22.582 21.5727C22.5819 21.5727 22.5819 21.5727 22.5818 21.5727C22.5779 21.5724 22.5673 21.569 22.5464 21.5535C22.5302 21.5415 22.5127 21.5263 22.4919 21.5082C22.4872 21.504 22.4823 21.4997 22.4772 21.4953C22.4506 21.4722 22.4201 21.4466 22.3861 21.4234C22.3181 21.3771 22.2325 21.3386 22.1286 21.351C22.0264 21.3632 21.9157 21.4236 21.7932 21.5542C21.7793 21.5627 21.7676 21.5641 21.756 21.5623C21.7413 21.56 21.7235 21.552 21.7006 21.5365C21.6787 21.5217 21.6558 21.5026 21.6294 21.4806L21.6265 21.4782C21.5997 21.4558 21.5698 21.4311 21.5376 21.4092C21.4728 21.3654 21.3932 21.3297 21.2968 21.346C21.2056 21.3614 21.1089 21.4218 21.0016 21.5437C20.6088 21.5394 20.0276 21.4123 19.5422 21.1626C19.0462 20.9076 18.6663 20.5338 18.6663 20.0471C18.6663 19.7996 18.7565 19.4813 18.8954 19.1394C19.0339 18.7987 19.2188 18.4392 19.4043 18.1107C19.5897 17.7824 19.7751 17.486 19.9143 17.2715C19.9838 17.1644 20.0417 17.0777 20.0823 17.0179C20.1025 16.988 20.1185 16.9648 20.1293 16.9492C20.1347 16.9413 20.1388 16.9353 20.1416 16.9313L20.1448 16.9268L20.1457 16.9254C20.1458 16.9254 20.1458 16.9254 20.1087 16.8994C20.0827 16.8624 20.0827 16.8624 20.0827 16.8624L20.0826 16.8624L20.0822 16.8627L20.0809 16.8636L20.0759 16.8672C20.0715 16.8704 20.0649 16.875 20.0565 16.8812C20.0395 16.8935 20.0147 16.9117 19.9833 16.9353C19.9203 16.9826 19.8304 17.0518 19.7226 17.1397C19.5072 17.3153 19.2197 17.5658 18.9321 17.8647C18.6446 18.1635 18.356 18.5118 18.1391 18.8831C17.9223 19.2543 17.7754 19.6514 17.7754 20.0471C17.7754 20.8433 18.3964 21.3686 18.9999 21.6917C19.3031 21.854 19.606 21.9676 19.8328 22.0405C19.9171 22.0677 19.991 22.0892 20.0507 22.1056C19.9732 22.1438 19.879 22.2115 19.7859 22.3308C19.5769 22.5987 19.3762 23.1235 19.3762 24.1542C19.3762 24.2924 19.4167 24.4067 19.4887 24.5004C19.5601 24.5934 19.6607 24.6637 19.7775 24.718C20.0101 24.8261 20.3169 24.8749 20.6172 24.9072C20.7228 24.9185 20.8273 24.9278 20.9281 24.9368C21.1175 24.9536 21.2937 24.9693 21.4394 24.9952C21.5508 25.0151 21.6384 25.0401 21.6971 25.0733C21.7545 25.1057 21.7773 25.1412 21.7773 25.1832C21.7773 25.3262 21.7748 25.5268 21.7719 25.7593C21.7645 26.3566 21.7545 27.165 21.7773 27.7521C21.7771 27.8019 21.7584 27.8371 21.725 27.8646C21.6893 27.894 21.635 27.916 21.563 27.9314C21.4186 27.9623 21.224 27.9625 21.0222 27.9625H21.0183C20.8211 27.9625 20.6172 27.9625 20.4625 27.9956C20.3844 28.0122 20.3137 28.0383 20.2618 28.081C20.2078 28.1255 20.1765 28.1863 20.1765 28.2643C20.1765 28.2882 20.1834 28.3141 20.1934 28.34C20.2037 28.3664 20.2184 28.3955 20.2369 28.4267C20.2738 28.489 20.3271 28.5622 20.3939 28.6415C20.5276 28.8003 20.7179 28.9869 20.9457 29.1651C21.4 29.5205 22.0113 29.8486 22.6275 29.8486C23.2437 29.8486 23.8538 29.5205 24.307 29.1651C24.5343 28.9868 24.7239 28.8003 24.8572 28.6414C24.9238 28.5621 24.977 28.4889 25.0138 28.4266C25.0321 28.3955 25.0468 28.3663 25.0571 28.3399C25.0671 28.3141 25.0739 28.2882 25.0739 28.2643C25.0739 28.1863 25.0426 28.1255 24.9886 28.081C24.9367 28.0383 24.866 28.0122 24.7879 27.9956C24.6332 27.9625 24.4293 27.9625 24.2322 27.9625H24.2282C24.0264 27.9625 23.8318 27.9623 23.6874 27.9314C23.6154 27.916 23.5611 27.894 23.5254 27.8646C23.4918 27.8369 23.4731 27.8015 23.4731 27.7512V25.1832C23.4731 25.1412 23.4959 25.1057 23.5533 25.0733C23.612 25.0401 23.6996 25.0151 23.811 24.9952C23.9567 24.9693 24.1329 24.9536 24.3223 24.9368C24.4231 24.9278 24.5276 24.9185 24.6333 24.9072C24.9335 24.8749 25.2403 24.8261 25.4729 24.718C25.5897 24.6637 25.6903 24.5934 25.7617 24.5004C25.8337 24.4067 25.8742 24.2924 25.8742 24.1542C25.8742 23.1235 25.6735 22.5987 25.4645 22.3308C25.3715 22.2116 25.2774 22.144 25.2001 22.1058ZM25.0285 22.1467L25.0192 22.0579L25.0195 22.0578L25.0207 22.0575L25.0256 22.0564C25.03 22.0555 25.0366 22.054 25.0453 22.0519C25.0626 22.0479 25.0881 22.0417 25.1206 22.0333C25.1857 22.0164 25.2789 21.9906 25.3907 21.9548C25.6146 21.8831 25.9126 21.7718 26.2101 21.6129C26.8084 21.2936 27.389 20.7914 27.389 20.0471C27.389 19.6726 27.2497 19.2911 27.037 18.9276C26.8245 18.5644 26.5405 18.222 26.2554 17.9264C25.9704 17.631 25.6853 17.3833 25.4713 17.2095C25.4045 17.1551 25.3446 17.108 25.2938 17.069C25.3199 17.1142 25.3497 17.1665 25.3825 17.2247C25.5036 17.4402 25.6651 17.7383 25.8267 18.0686C25.9882 18.3988 26.1501 18.7619 26.2717 19.1074C26.393 19.4519 26.4757 19.7828 26.4757 20.0471C26.4757 20.5887 25.8502 21.6343 24.2282 21.6343H24.2063L24.1927 21.6172L24.1926 21.617L24.192 21.6162C24.1913 21.6154 24.1903 21.6142 24.189 21.6126C24.1862 21.6093 24.182 21.6045 24.1765 21.5984C24.1654 21.5861 24.149 21.569 24.128 21.55C24.0859 21.5117 24.027 21.4668 23.9578 21.4372C23.889 21.4078 23.8116 21.3942 23.7302 21.4152C23.6489 21.4363 23.5577 21.4935 23.4638 21.6165L23.4306 21.6601L23.3941 21.6193L23.394 21.6191L23.3932 21.6183C23.3925 21.6175 23.3913 21.6162 23.3897 21.6146C23.3866 21.6112 23.3818 21.6063 23.3756 21.6001C23.3631 21.5878 23.3447 21.5706 23.3216 21.5514C23.275 21.5127 23.2108 21.4674 23.1377 21.4375C23.0648 21.4077 22.9857 21.3943 22.9072 21.4152C22.8294 21.4359 22.7454 21.492 22.6653 21.614L22.665 21.6144C22.6439 21.6456 22.6139 21.6656 22.5757 21.663C22.5439 21.6609 22.5152 21.643 22.4926 21.6263C22.4732 21.6119 22.4522 21.5936 22.4313 21.5754C22.4268 21.5714 22.4223 21.5675 22.4179 21.5637C22.3917 21.541 22.3646 21.5182 22.3352 21.4982C22.2767 21.4584 22.213 21.432 22.1394 21.4408C22.0651 21.4497 21.9714 21.4953 21.8557 21.6199L21.8523 21.6236L21.8481 21.6264C21.814 21.6498 21.7781 21.6574 21.7421 21.6518C21.7081 21.6465 21.6771 21.6299 21.6499 21.6115C21.624 21.594 21.5979 21.5722 21.5729 21.5513L21.5685 21.5477C21.5414 21.5251 21.5148 21.5031 21.4869 21.4842C21.4312 21.4465 21.3755 21.4244 21.3119 21.4352C21.2468 21.4462 21.1631 21.4932 21.0567 21.6184L21.0431 21.6343H21.0222C20.6146 21.6343 20.0072 21.5036 19.5008 21.2431C18.9962 20.9837 18.5758 20.5865 18.5758 20.0471C18.5758 19.7816 18.6715 19.4499 18.8116 19.1054C18.952 18.7597 19.139 18.3965 19.3255 18.0662C19.512 17.7358 19.6985 17.4377 19.8383 17.2223C19.8676 17.1771 19.8949 17.1356 19.9197 17.0982C19.8778 17.1309 19.8308 17.1683 19.7798 17.2098C19.5663 17.3839 19.2817 17.6319 18.9973 17.9275C18.7128 18.2232 18.4293 18.5657 18.2172 18.9288C18.005 19.2922 17.8659 19.6733 17.8659 20.0471C17.8659 20.79 18.4454 21.2922 19.0426 21.6119C19.3396 21.7709 19.637 21.8825 19.8605 21.9544C19.9721 21.9903 20.0651 22.0162 20.13 22.0332C20.1625 22.0416 20.188 22.0478 20.2052 22.0519C20.2139 22.054 20.2205 22.0555 20.2248 22.0564L20.2298 22.0575L20.231 22.0578L20.2312 22.0579L20.2219 22.1467C20.2219 22.1474 20.2219 22.1474 20.2219 22.1474L20.2214 22.1474C20.2205 22.1474 20.2189 22.1475 20.2167 22.1477C20.2122 22.1481 20.205 22.1489 20.1956 22.1506C20.1767 22.1541 20.1487 22.1612 20.1145 22.1758C20.0465 22.2049 19.9526 22.2643 19.8573 22.3865C19.6661 22.6316 19.4667 23.1328 19.4667 24.1542C19.4667 24.2733 19.5011 24.368 19.5605 24.4453C19.6203 24.5232 19.7074 24.5856 19.8157 24.6359C20.0333 24.7371 20.3268 24.785 20.6268 24.8172C20.728 24.8281 20.8303 24.8372 20.9302 24.8461C21.1225 24.8632 21.3059 24.8795 21.4553 24.9061C21.5691 24.9264 21.6691 24.9535 21.7416 24.9945C21.8156 25.0362 21.8678 25.0969 21.8678 25.1832C21.8678 25.3281 21.8653 25.5302 21.8624 25.7639C21.855 26.3611 21.8451 27.1649 21.8678 27.7495L21.8678 27.7504V27.7512C21.8678 27.8292 21.8365 27.89 21.7826 27.9345C21.7307 27.9772 21.6599 28.0033 21.5819 28.0199C21.4271 28.053 21.2233 28.053 21.0261 28.053H21.0222C20.8203 28.053 20.6257 28.0532 20.4814 28.0841C20.4093 28.0995 20.355 28.1215 20.3194 28.1509C20.2858 28.1786 20.267 28.214 20.267 28.2643C20.267 28.2722 20.2696 28.2862 20.2778 28.3072C20.2857 28.3276 20.298 28.3522 20.3148 28.3806C20.3483 28.4373 20.3984 28.5063 20.4631 28.5832C20.5925 28.7369 20.7782 28.9191 21.0015 29.0938C21.4493 29.4442 22.0408 29.7581 22.6275 29.7581C23.2141 29.7581 23.8045 29.4442 24.2512 29.0939C24.4739 28.9192 24.6589 28.7369 24.7879 28.5833C24.8525 28.5064 24.9023 28.4374 24.9358 28.3806C24.9525 28.3523 24.9647 28.3277 24.9727 28.3072C24.9808 28.2862 24.9834 28.2723 24.9834 28.2643C24.9834 28.214 24.9646 28.1786 24.931 28.1509C24.8954 28.1215 24.8411 28.0995 24.769 28.0841C24.6247 28.0532 24.4301 28.053 24.2282 28.053H24.2243C24.0272 28.053 23.8233 28.053 23.6685 28.0199C23.5905 28.0033 23.5197 27.9772 23.4678 27.9345C23.4139 27.89 23.3826 27.8292 23.3826 27.7512V25.1832C23.3826 25.0969 23.4348 25.0362 23.5088 24.9945C23.5813 24.9535 23.6813 24.9264 23.7951 24.9061C23.9445 24.8795 24.1279 24.8632 24.3202 24.8461C24.4201 24.8372 24.5224 24.8281 24.6236 24.8172C24.9236 24.785 25.2171 24.7371 25.4347 24.6359C25.543 24.5856 25.6301 24.5232 25.6899 24.4453C25.7493 24.368 25.7837 24.2733 25.7837 24.1542C25.7837 23.1328 25.5843 22.6316 25.3931 22.3865C25.2978 22.2643 25.2039 22.2049 25.1359 22.1758C25.1017 22.1612 25.0737 22.1541 25.0549 22.1506C25.0454 22.1489 25.0383 22.1481 25.0337 22.1477C25.0328 22.1476 25.032 22.1476 25.0312 22.1475C25.0303 22.1475 25.0295 22.1474 25.029 22.1474L25.0286 22.1474H25.0285C25.0285 22.1474 25.0285 22.1474 25.0285 22.1467Z" fill="black"/>
<path fill-rule="evenodd" clip-rule="evenodd" d="M20.1559 26.0885C19.9932 26.1929 20.364 27.8653 20.4725 27.9378C20.6353 28.0392 21.5984 28.0392 21.7567 27.9378C21.8698 27.8653 21.7567 26.2943 21.5984 26.1929C21.4356 26.0885 20.269 26.019 20.1514 26.0885H20.1559Z" fill="#FFFF00"/>
<path fill-rule="evenodd" clip-rule="evenodd" d="M21.5045 26.111C21.5524 26.1228 21.5949 26.1367 21.6221 26.1541C21.6415 26.1665 21.6557 26.1865 21.6664 26.2058C21.6777 26.2261 21.6879 26.251 21.6974 26.2788C21.7164 26.3344 21.7339 26.4068 21.7496 26.489C21.7811 26.6538 21.8067 26.8637 21.8237 27.0719C21.8407 27.2801 21.8493 27.488 21.8465 27.649C21.845 27.7293 21.8407 27.7992 21.8329 27.8521C21.829 27.8785 21.824 27.9022 21.8174 27.9214C21.8116 27.9381 21.8014 27.9618 21.7804 27.9752C21.7537 27.9924 21.7149 28.0048 21.6721 28.0145C21.628 28.0246 21.575 28.0327 21.5164 28.0392C21.3992 28.0521 21.2572 28.0585 21.1156 28.0585C20.9739 28.0585 20.8316 28.0521 20.7139 28.0392C20.6551 28.0327 20.6017 28.0246 20.5572 28.0146C20.514 28.0048 20.4749 27.9924 20.4478 27.9755L20.4472 27.9752L20.4466 27.9748C20.4369 27.9683 20.4296 27.9596 20.4243 27.9525C20.4188 27.9449 20.4135 27.9361 20.4086 27.9268C20.3987 27.9082 20.3885 27.8846 20.3781 27.8573C20.3571 27.8026 20.334 27.7294 20.3101 27.6446C20.2622 27.4745 20.2105 27.2542 20.1673 27.0331C20.1242 26.8122 20.0894 26.5893 20.0756 26.4142C20.0688 26.327 20.067 26.2498 20.0726 26.1901C20.0745 26.1698 20.0773 26.1506 20.0814 26.1332H19.9854L20.1277 26.049C20.1414 26.0408 20.1586 26.0358 20.1749 26.0323C20.1921 26.0285 20.2126 26.0255 20.2352 26.0231C20.2807 26.0184 20.338 26.0158 20.4029 26.0149C20.5329 26.0133 20.6961 26.0188 20.8603 26.0297C21.0244 26.0406 21.1905 26.057 21.3262 26.0774C21.394 26.0876 21.4549 26.0988 21.5045 26.111ZM20.1841 26.1232L20.1804 26.1255C20.18 26.126 20.1771 26.1294 20.1736 26.1398C20.169 26.1531 20.1651 26.1724 20.1627 26.1986C20.1578 26.2506 20.1592 26.3218 20.1659 26.4071C20.1792 26.5773 20.2134 26.7965 20.2562 27.0158C20.2989 27.2349 20.3501 27.4528 20.3972 27.62C20.4208 27.7037 20.4431 27.7739 20.4626 27.825C20.4724 27.8506 20.4811 27.8704 20.4885 27.8843C20.4922 27.8913 20.4952 27.896 20.4973 27.899C20.4977 27.8995 20.4981 27.9 20.4983 27.9003C20.5126 27.9084 20.5385 27.9176 20.5771 27.9263C20.6171 27.9353 20.6669 27.943 20.7238 27.9492C20.8374 27.9617 20.9763 27.968 21.1156 27.968C21.2549 27.968 21.3935 27.9617 21.5065 27.9492C21.5631 27.943 21.6125 27.9353 21.652 27.9263C21.6894 27.9178 21.7142 27.9089 21.728 27.9012C21.7288 27.8996 21.7302 27.8967 21.7318 27.892C21.7358 27.8802 21.7399 27.8627 21.7434 27.8389C21.7504 27.7916 21.7546 27.7261 21.756 27.6474C21.7588 27.4903 21.7504 27.2855 21.7335 27.0792C21.7166 26.873 21.6914 26.6665 21.6607 26.506C21.6453 26.4256 21.6288 26.3579 21.6118 26.308C21.6032 26.283 21.595 26.2636 21.5873 26.2497C21.5834 26.2428 21.5801 26.2379 21.5774 26.2346C21.5747 26.2313 21.5733 26.2303 21.5733 26.2303C21.5733 26.2303 21.5733 26.2303 21.5733 26.2303C21.5598 26.2217 21.5303 26.2106 21.4828 26.1989C21.437 26.1876 21.3791 26.1768 21.3128 26.1669C21.1803 26.147 21.0168 26.1308 20.8543 26.12C20.6917 26.1092 20.531 26.1038 20.4041 26.1054C20.3405 26.1062 20.2862 26.1088 20.2447 26.1131C20.2239 26.1153 20.207 26.1179 20.1942 26.1207C20.1903 26.1215 20.1869 26.1224 20.1841 26.1232Z" fill="black"/>
<path fill-rule="evenodd" clip-rule="evenodd" d="M25.1068 26.0885C25.2695 26.1929 24.8987 27.8653 24.7902 27.9378C24.6274 28.0392 23.6643 28.0392 23.506 27.9378C23.3929 27.8653 23.506 26.2943 23.6643 26.1929C23.827 26.0885 24.9937 26.019 25.1113 26.0885H25.1068Z" fill="#FFFF00"/>
<path fill-rule="evenodd" clip-rule="evenodd" d="M23.7582 26.111C23.7103 26.1228 23.6677 26.1367 23.6405 26.1541C23.6212 26.1665 23.607 26.1865 23.5963 26.2058C23.585 26.2261 23.5747 26.251 23.5653 26.2788C23.5463 26.3344 23.5288 26.4068 23.5131 26.489C23.4816 26.6538 23.456 26.8637 23.439 27.0719C23.422 27.2801 23.4134 27.488 23.4162 27.649C23.4177 27.7293 23.422 27.7992 23.4298 27.8521C23.4337 27.8785 23.4387 27.9022 23.4453 27.9214C23.451 27.9381 23.4613 27.9618 23.4823 27.9752C23.509 27.9924 23.5478 28.0048 23.5906 28.0145C23.6347 28.0246 23.6877 28.0327 23.7463 28.0392C23.8635 28.0521 24.0055 28.0585 24.1471 28.0585C24.2888 28.0585 24.4311 28.0521 24.5488 28.0392C24.6076 28.0327 24.661 28.0246 24.7054 28.0146C24.7487 28.0048 24.7878 27.9924 24.8149 27.9755L24.8155 27.9752L24.8161 27.9748C24.8258 27.9683 24.8331 27.9596 24.8383 27.9525C24.8439 27.9449 24.8492 27.9361 24.8541 27.9268C24.864 27.9082 24.8742 27.8846 24.8846 27.8573C24.9055 27.8026 24.9287 27.7294 24.9526 27.6446C25.0005 27.4745 25.0522 27.2542 25.0954 27.0331C25.1385 26.8122 25.1733 26.5893 25.1871 26.4142C25.1939 26.327 25.1957 26.2498 25.1901 26.1901C25.1882 26.1698 25.1854 26.1506 25.1813 26.1332H25.2773L25.135 26.049C25.1213 26.0408 25.1041 26.0358 25.0878 26.0323C25.0706 26.0285 25.0501 26.0255 25.0274 26.0231C24.982 26.0184 24.9247 26.0158 24.8598 26.0149C24.7298 26.0133 24.5666 26.0188 24.4024 26.0297C24.2383 26.0406 24.0722 26.057 23.9365 26.0774C23.8687 26.0876 23.8078 26.0988 23.7582 26.111ZM25.0786 26.1232L25.0823 26.1255C25.0827 26.126 25.0856 26.1294 25.0891 26.1398C25.0937 26.1531 25.0976 26.1724 25.1 26.1986C25.1049 26.2506 25.1035 26.3218 25.0968 26.4071C25.0835 26.5773 25.0493 26.7965 25.0065 27.0158C24.9638 27.2349 24.9126 27.4528 24.8655 27.62C24.8419 27.7037 24.8196 27.7739 24.8001 27.825C24.7903 27.8506 24.7816 27.8704 24.7742 27.8843C24.7705 27.8913 24.7675 27.896 24.7654 27.899C24.765 27.8995 24.7646 27.9 24.7644 27.9003C24.7501 27.9084 24.7242 27.9176 24.6856 27.9263C24.6456 27.9353 24.5958 27.943 24.5389 27.9492C24.4253 27.9617 24.2864 27.968 24.1471 27.968C24.0078 27.968 23.8692 27.9617 23.7562 27.9492C23.6996 27.943 23.6502 27.9353 23.6107 27.9263C23.5733 27.9178 23.5485 27.9089 23.5347 27.9012C23.5339 27.8996 23.5325 27.8967 23.5309 27.892C23.5268 27.8802 23.5228 27.8627 23.5193 27.8389C23.5123 27.7916 23.5081 27.7261 23.5067 27.6474C23.5039 27.4903 23.5123 27.2855 23.5292 27.0792C23.5461 26.873 23.5713 26.6665 23.602 26.506C23.6174 26.4256 23.6339 26.3579 23.6509 26.308C23.6595 26.283 23.6677 26.2636 23.6754 26.2497C23.6793 26.2428 23.6826 26.2379 23.6853 26.2346C23.688 26.2313 23.6894 26.2303 23.6894 26.2303C23.6894 26.2303 23.6894 26.2303 23.6894 26.2303C23.7029 26.2217 23.7324 26.2106 23.7799 26.1989C23.8257 26.1876 23.8836 26.1768 23.9499 26.1669C24.0824 26.147 24.2459 26.1308 24.4084 26.12C24.571 26.1092 24.7317 26.1038 24.8586 26.1054C24.9222 26.1062 24.9765 26.1088 25.018 26.1131C25.0388 26.1153 25.0557 26.1179 25.0685 26.1207C25.0724 26.1215 25.0758 26.1224 25.0786 26.1232Z" fill="black"/>
<path fill-rule="evenodd" clip-rule="evenodd" d="M21.8019 25.4785C21.8019 25.6319 21.7143 25.7789 21.5583 25.8873C21.4023 25.9957 21.1908 26.0567 20.9703 26.0567C20.7497 26.0567 20.5382 25.9957 20.3822 25.8873C20.2263 25.7789 20.1387 25.6319 20.1387 25.4785C20.1387 25.3252 20.2263 25.1781 20.3822 25.0697C20.5382 24.9613 20.7497 24.9004 20.9703 24.9004C21.1908 24.9004 21.4023 24.9613 21.5583 25.0697C21.7143 25.1781 21.8019 25.3252 21.8019 25.4785Z" fill="#FFFF00"/>
<path fill-rule="evenodd" clip-rule="evenodd" d="M20.9707 24.954C20.7594 24.954 20.5591 25.0125 20.4136 25.1137C20.2683 25.2147 20.1933 25.3467 20.1933 25.478C20.1933 25.6093 20.2683 25.7413 20.4136 25.8423C20.5591 25.9435 20.7594 26.002 20.9707 26.002C21.1821 26.002 21.3824 25.9435 21.5278 25.8423C21.6732 25.7413 21.7482 25.6093 21.7482 25.478C21.7482 25.3467 21.6732 25.2147 21.5278 25.1137C21.3824 25.0125 21.1821 24.954 20.9707 24.954ZM20.3518 25.0247C20.5182 24.909 20.741 24.8457 20.9707 24.8457C21.2005 24.8457 21.4233 24.909 21.5897 25.0247C21.7563 25.1405 21.8565 25.3026 21.8565 25.478C21.8565 25.6534 21.7563 25.8155 21.5897 25.9313C21.4233 26.047 21.2005 26.1103 20.9707 26.1103C20.741 26.1103 20.5182 26.047 20.3518 25.9313C20.1852 25.8155 20.085 25.6534 20.085 25.478C20.085 25.3026 20.1852 25.1405 20.3518 25.0247Z" fill="black"/>
<path fill-rule="evenodd" clip-rule="evenodd" d="M25.1115 25.4785C25.1115 25.6319 25.0239 25.7789 24.8679 25.8873C24.7119 25.9958 24.5004 26.0567 24.2799 26.0567C24.0593 26.0567 23.8478 25.9958 23.6918 25.8873C23.5359 25.7789 23.4482 25.6319 23.4482 25.4785C23.4482 25.3252 23.5359 25.1781 23.6918 25.0697C23.8478 24.9613 24.0593 24.9004 24.2799 24.9004C24.5004 24.9004 24.7119 24.9613 24.8679 25.0697C25.0239 25.1781 25.1115 25.3252 25.1115 25.4785Z" fill="#FFFF00"/>
<path fill-rule="evenodd" clip-rule="evenodd" d="M24.2803 24.955C24.069 24.955 23.8687 25.0135 23.7232 25.1147C23.5779 25.2157 23.5029 25.3477 23.5029 25.479C23.5029 25.6103 23.5779 25.7423 23.7232 25.8433C23.8687 25.9445 24.069 26.003 24.2803 26.003C24.4917 26.003 24.692 25.9445 24.8374 25.8433C24.9828 25.7423 25.0578 25.6103 25.0578 25.479C25.0578 25.3477 24.9828 25.2157 24.8374 25.1147C24.692 25.0135 24.4917 24.955 24.2803 24.955ZM23.6614 25.0257C23.8278 24.91 24.0505 24.8467 24.2803 24.8467C24.5101 24.8467 24.7328 24.91 24.8993 25.0257C25.0659 25.1415 25.1661 25.3036 25.1661 25.479C25.1661 25.6544 25.0659 25.8165 24.8993 25.9323C24.7328 26.048 24.5101 26.1113 24.2803 26.1113C24.0505 26.1113 23.8278 26.048 23.6614 25.9323C23.4948 25.8165 23.3945 25.6544 23.3945 25.479C23.3945 25.3036 23.4948 25.1415 23.6614 25.0257Z" fill="black"/>
<path fill-rule="evenodd" clip-rule="evenodd" d="M24.075 28.8283C24.075 28.9689 23.8875 29.0814 23.6719 29.0814C23.4469 29.0814 23.2688 28.9689 23.2688 28.8283C23.2688 28.6877 23.4562 28.5752 23.6719 28.5752C23.8875 28.5752 24.075 28.6877 24.075 28.8283ZM21.9844 28.8283C21.9844 28.9689 21.8062 29.0814 21.5906 29.0814C21.3656 29.0814 21.1875 28.9689 21.1875 28.8283C21.1875 28.6877 21.3656 28.5752 21.5906 28.5752C21.8062 28.5752 21.9844 28.6877 21.9844 28.8283Z" fill="black"/>
<path fill-rule="evenodd" clip-rule="evenodd" d="M22.6299 20.625L22.1383 20.0048L21.3316 20.1071L21.445 19.3363L20.7959 18.8726L21.445 18.4028L21.3316 17.632L22.1383 17.7404L22.6299 17.1201L23.1215 17.7404L23.9219 17.632L23.8147 18.4028L24.4576 18.8726L23.8147 19.3423L23.9219 20.1071L23.1152 20.0048L22.6299 20.625Z" fill="#FFFF00"/>
<path fill-rule="evenodd" clip-rule="evenodd" d="M22.6303 17.0654L23.1365 17.7041L23.962 17.5923L23.8515 18.3873L24.5154 18.8725L23.8515 19.3576L23.962 20.1462L23.1304 20.0407L22.6305 20.6797L22.124 20.0406L21.292 20.1462L21.4089 19.3517L20.7383 18.8726L21.409 18.3873L21.292 17.5923L22.1241 17.7041L22.6303 17.0654ZM22.6303 17.1745L22.1533 17.7764L21.3721 17.6714L21.482 18.4181L20.8544 18.8723L21.482 19.3206L21.372 20.0678L22.1534 19.9686L22.6301 20.5701L23.1008 19.9686L23.8826 20.0678L23.7788 19.3268L24.4006 18.8725L23.7788 18.4181L23.8826 17.6714L23.1073 17.7764L22.6303 17.1745Z" fill="black"/>
<path fill-rule="evenodd" clip-rule="evenodd" d="M26.0596 23.0244L27.4355 23.6849L28.8115 23.0244L27.4355 22.3701L26.066 23.0244H26.0596Z" fill="#FFFF00"/>
<path fill-rule="evenodd" clip-rule="evenodd" d="M27.4359 22.332L28.8924 23.0247L27.4359 23.7238L26.0449 23.0561L26.0567 23.0045L26.0514 22.9935L27.4359 22.332ZM26.1436 23.0264L27.4359 23.6468L28.7313 23.025L27.4359 22.409L26.1436 23.0264Z" fill="black"/>
<path fill-rule="evenodd" clip-rule="evenodd" d="M16.2158 23.0244L17.5918 23.6849L18.9677 23.0244L17.5918 22.3701L16.2223 23.0244H16.2158Z" fill="#FFFF00"/>
<path fill-rule="evenodd" clip-rule="evenodd" d="M17.5921 22.332L19.0487 23.0247L17.5921 23.7238L16.2012 23.0561L16.2129 23.0045L16.2077 22.9935L17.5921 22.332ZM16.2998 23.0264L17.5921 23.6468L18.8875 23.025L17.5922 22.409L16.2998 23.0264Z" fill="black"/>
<path fill-rule="evenodd" clip-rule="evenodd" d="M28.1829 26.9387C27.7617 26.6716 27.0521 26.8047 26.6543 27.023C26.2566 27.2412 25.8589 27.4595 25.8054 28.2505C25.3485 27.4904 25.7083 26.7876 26.3133 26.4556C26.6341 26.3049 27.0015 26.2713 27.3464 26.3613C27.6913 26.4512 27.9899 26.6585 28.1861 26.944L28.1829 26.9387Z" fill="#FFFF00"/>
<path fill-rule="evenodd" clip-rule="evenodd" d="M25.781 28.1336C25.8206 27.7959 25.9283 27.5681 26.0739 27.3992C26.2338 27.2138 26.4373 27.1022 26.6347 26.9938L26.6369 26.9926C26.8402 26.8811 27.1217 26.7919 27.4061 26.7642C27.6327 26.7422 27.8647 26.759 28.0611 26.8378C27.8744 26.6235 27.6226 26.4677 27.3384 26.3936C27.0022 26.3059 26.6439 26.3385 26.3308 26.4853C26.0349 26.6479 25.8004 26.9003 25.6952 27.2033C25.5995 27.4787 25.6098 27.798 25.781 28.1336ZM28.2077 26.913C28.0064 26.6264 27.7039 26.4186 27.3555 26.3277C27.0023 26.2356 26.6262 26.27 26.2979 26.4242L26.2969 26.4247L26.2959 26.4252C25.9872 26.5946 25.7397 26.8593 25.6281 27.1805C25.5163 27.5024 25.5421 27.8784 25.7754 28.2666L25.8336 28.3635L25.8411 28.2528C25.8675 27.863 25.9783 27.6178 26.1286 27.4435C26.2798 27.2681 26.4731 27.1617 26.6727 27.0522C26.8672 26.9454 27.1394 26.8589 27.4145 26.8322C27.6903 26.8054 27.9635 26.8391 28.1645 26.9665L28.1741 26.952L28.2171 26.9267L28.2096 26.9142L28.2077 26.913Z" fill="black"/>
<path fill-rule="evenodd" clip-rule="evenodd" d="M18.7321 25.65C18.7321 25.7654 18.6841 25.8761 18.5987 25.9577C18.5133 26.0394 18.3975 26.0852 18.2767 26.0852C18.1559 26.0852 18.0401 26.0394 17.9547 25.9577C17.8693 25.8761 17.8213 25.7654 17.8213 25.65C17.8213 25.5346 17.8693 25.4239 17.9547 25.3423C18.0401 25.2607 18.1559 25.2148 18.2767 25.2148C18.3975 25.2148 18.5133 25.2607 18.5987 25.3423C18.6841 25.4239 18.7321 25.5346 18.7321 25.65Z" fill="#FFFF00"/>
<path fill-rule="evenodd" clip-rule="evenodd" d="M18.2773 25.2491C18.1652 25.2491 18.058 25.2917 17.9792 25.367C17.9005 25.4422 17.8566 25.5439 17.8566 25.6496C17.8566 25.7553 17.9005 25.857 17.9792 25.9322C18.058 26.0075 18.1652 26.05 18.2773 26.05C18.3893 26.05 18.4965 26.0075 18.5753 25.9322C18.654 25.857 18.6979 25.7553 18.6979 25.6496C18.6979 25.5439 18.654 25.4422 18.5753 25.367C18.4965 25.2917 18.3893 25.2491 18.2773 25.2491ZM17.9312 25.3168C18.0233 25.2288 18.1478 25.1797 18.2773 25.1797C18.4068 25.1797 18.5313 25.2288 18.6233 25.3168C18.7154 25.4048 18.7674 25.5244 18.7674 25.6496C18.7674 25.7747 18.7154 25.8944 18.6233 25.9824C18.5313 26.0704 18.4068 26.1195 18.2773 26.1195C18.1478 26.1195 18.0233 26.0704 17.9312 25.9824C17.8392 25.8944 17.7871 25.7747 17.7871 25.6496C17.7871 25.5244 17.8392 25.4048 17.9312 25.3168Z" fill="black"/>
<path fill-rule="evenodd" clip-rule="evenodd" d="M18.2731 27.1774C18.2731 27.2928 18.2252 27.4035 18.1398 27.4851C18.0543 27.5667 17.9385 27.6125 17.8177 27.6125C17.6969 27.6125 17.5811 27.5667 17.4957 27.4851C17.4103 27.4035 17.3623 27.2928 17.3623 27.1774C17.3623 27.062 17.4103 26.9513 17.4957 26.8696C17.5811 26.788 17.6969 26.7422 17.8177 26.7422C17.9385 26.7422 18.0543 26.788 18.1398 26.8696C18.2252 26.9513 18.2731 27.062 18.2731 27.1774Z" fill="#FFFF00"/>
<path fill-rule="evenodd" clip-rule="evenodd" d="M17.8173 26.7775C17.7052 26.7775 17.598 26.82 17.5193 26.8953C17.4405 26.9705 17.3966 27.0722 17.3966 27.1779C17.3966 27.2836 17.4405 27.3853 17.5193 27.4605C17.598 27.5358 17.7052 27.5784 17.8173 27.5784C17.9294 27.5784 18.0365 27.5358 18.1153 27.4605C18.1941 27.3853 18.238 27.2836 18.238 27.1779C18.238 27.0722 18.1941 26.9705 18.1153 26.8953C18.0365 26.82 17.9294 26.7775 17.8173 26.7775ZM17.4713 26.8451C17.5633 26.7571 17.6878 26.708 17.8173 26.708C17.9468 26.708 18.0713 26.7571 18.1633 26.8451C18.2554 26.9331 18.3074 27.0528 18.3074 27.1779C18.3074 27.3031 18.2554 27.4228 18.1633 27.5107C18.0713 27.5987 17.9468 27.6478 17.8173 27.6478C17.6878 27.6478 17.5633 27.5987 17.4713 27.5107C17.3792 27.4228 17.3271 27.3031 17.3271 27.1779C17.3271 27.0528 17.3792 26.9331 17.4713 26.8451Z" fill="black"/>
<path fill-rule="evenodd" clip-rule="evenodd" d="M18.0476 26.3063C18.0476 26.4217 17.9996 26.5324 17.9142 26.614C17.8288 26.6956 17.7129 26.7415 17.5921 26.7415C17.4714 26.7415 17.3555 26.6956 17.2701 26.614C17.1847 26.5324 17.1367 26.4217 17.1367 26.3063C17.1367 26.1909 17.1847 26.0802 17.2701 25.9986C17.3555 25.9169 17.4714 25.8711 17.5921 25.8711C17.7129 25.8711 17.8288 25.9169 17.9142 25.9986C17.9996 26.0802 18.0476 26.1909 18.0476 26.3063Z" fill="#FFFF00"/>
<path fill-rule="evenodd" clip-rule="evenodd" d="M17.5927 25.9054C17.4806 25.9054 17.3734 25.948 17.2947 26.0232C17.2159 26.0985 17.172 26.2002 17.172 26.3058C17.172 26.4115 17.2159 26.5132 17.2947 26.5885C17.3734 26.6637 17.4806 26.7063 17.5927 26.7063C17.7048 26.7063 17.8119 26.6637 17.8907 26.5885C17.9695 26.5132 18.0134 26.4115 18.0134 26.3058C18.0134 26.2002 17.9695 26.0985 17.8907 26.0232C17.8119 25.948 17.7048 25.9054 17.5927 25.9054ZM17.2467 25.973C17.3387 25.8851 17.4632 25.8359 17.5927 25.8359C17.7222 25.8359 17.8467 25.8851 17.9387 25.973C18.0308 26.061 18.0828 26.1807 18.0828 26.3058C18.0828 26.431 18.0308 26.5507 17.9387 26.6387C17.8467 26.7266 17.7222 26.7758 17.5927 26.7758C17.4632 26.7758 17.3387 26.7266 17.2467 26.6387C17.1546 26.5507 17.1025 26.431 17.1025 26.3058C17.1025 26.1807 17.1546 26.061 17.2467 25.973Z" fill="black"/>
<path fill-rule="evenodd" clip-rule="evenodd" d="M19.1921 27.1774C19.1921 27.2928 19.1441 27.4035 19.0587 27.4851C18.9733 27.5667 18.8575 27.6125 18.7367 27.6125C18.6159 27.6125 18.5 27.5667 18.4146 27.4851C18.3292 27.4035 18.2812 27.2928 18.2812 27.1774C18.2812 27.062 18.3292 26.9513 18.4146 26.8696C18.5 26.788 18.6159 26.7422 18.7367 26.7422C18.8575 26.7422 18.9733 26.788 19.0587 26.8696C19.1441 26.9513 19.1921 27.062 19.1921 27.1774Z" fill="#FFFF00"/>
<path fill-rule="evenodd" clip-rule="evenodd" d="M18.7362 26.7775C18.6242 26.7775 18.517 26.82 18.4382 26.8953C18.3595 26.9705 18.3156 27.0722 18.3156 27.1779C18.3156 27.2836 18.3595 27.3853 18.4382 27.4605C18.517 27.5358 18.6242 27.5784 18.7362 27.5784C18.8483 27.5784 18.9555 27.5358 19.0343 27.4605C19.113 27.3853 19.1569 27.2836 19.1569 27.1779C19.1569 27.0722 19.113 26.9705 19.0343 26.8953C18.9555 26.82 18.8483 26.7775 18.7362 26.7775ZM18.3902 26.8451C18.4822 26.7571 18.6067 26.708 18.7362 26.708C18.8657 26.708 18.9902 26.7571 19.0823 26.8451C19.1743 26.9331 19.2264 27.0528 19.2264 27.1779C19.2264 27.3031 19.1743 27.4228 19.0823 27.5107C18.9902 27.5987 18.8657 27.6478 18.7362 27.6478C18.6067 27.6478 18.4822 27.5987 18.3902 27.5107C18.2981 27.4228 18.2461 27.3031 18.2461 27.1779C18.2461 27.0528 18.2981 26.9331 18.3902 26.8451Z" fill="black"/>
<path fill-rule="evenodd" clip-rule="evenodd" d="M19.4167 26.3063C19.4167 26.4217 19.3687 26.5324 19.2833 26.614C19.1979 26.6956 19.0821 26.7415 18.9613 26.7415C18.8405 26.7415 18.7247 26.6956 18.6392 26.614C18.5538 26.5324 18.5059 26.4217 18.5059 26.3063C18.5059 26.1909 18.5538 26.0802 18.6392 25.9986C18.7247 25.9169 18.8405 25.8711 18.9613 25.8711C19.0821 25.8711 19.1979 25.9169 19.2833 25.9986C19.3687 26.0802 19.4167 26.1909 19.4167 26.3063Z" fill="#FFFF00"/>
<path fill-rule="evenodd" clip-rule="evenodd" d="M18.9609 25.9054C18.8488 25.9054 18.7416 25.948 18.6628 26.0232C18.5841 26.0985 18.5402 26.2002 18.5402 26.3058C18.5402 26.4115 18.5841 26.5132 18.6628 26.5885C18.7416 26.6637 18.8488 26.7063 18.9609 26.7063C19.0729 26.7063 19.1801 26.6637 19.2589 26.5885C19.3376 26.5132 19.3815 26.4115 19.3815 26.3058C19.3815 26.2002 19.3376 26.0985 19.2589 26.0232C19.1801 25.948 19.0729 25.9054 18.9609 25.9054ZM18.6148 25.973C18.7069 25.8851 18.8314 25.8359 18.9609 25.8359C19.0904 25.8359 19.2148 25.8851 19.3069 25.973C19.399 26.061 19.451 26.1807 19.451 26.3058C19.451 26.431 19.399 26.5507 19.3069 26.6387C19.2148 26.7266 19.0904 26.7758 18.9609 26.7758C18.8314 26.7758 18.7069 26.7266 18.6148 26.6387C18.5227 26.5507 18.4707 26.431 18.4707 26.3058C18.4707 26.1807 18.5227 26.061 18.6148 25.973Z" fill="black"/>
<path fill-rule="evenodd" clip-rule="evenodd" d="M18.7321 26.5211C18.7321 26.6365 18.6841 26.7472 18.5987 26.8288C18.5133 26.9104 18.3975 26.9563 18.2767 26.9563C18.1559 26.9563 18.0401 26.9104 17.9547 26.8288C17.8693 26.7472 17.8213 26.6365 17.8213 26.5211C17.8213 26.4057 17.8693 26.295 17.9547 26.2134C18.0401 26.1318 18.1559 26.0859 18.2767 26.0859C18.3975 26.0859 18.5133 26.1318 18.5987 26.2134C18.6841 26.295 18.7321 26.4057 18.7321 26.5211Z" fill="#FFFF00"/>
<path fill-rule="evenodd" clip-rule="evenodd" d="M18.2773 26.1212C18.1652 26.1212 18.058 26.1638 17.9792 26.2391C17.9005 26.3143 17.8566 26.416 17.8566 26.5217C17.8566 26.6274 17.9005 26.729 17.9792 26.8043C18.058 26.8796 18.1652 26.9221 18.2773 26.9221C18.3893 26.9221 18.4965 26.8796 18.5753 26.8043C18.654 26.729 18.6979 26.6274 18.6979 26.5217C18.6979 26.416 18.654 26.3143 18.5753 26.2391C18.4965 26.1638 18.3893 26.1212 18.2773 26.1212ZM17.9312 26.1888C18.0233 26.1009 18.1478 26.0518 18.2773 26.0518C18.4068 26.0518 18.5313 26.1009 18.6233 26.1888C18.7154 26.2768 18.7674 26.3965 18.7674 26.5217C18.7674 26.6468 18.7154 26.7665 18.6233 26.8545C18.5313 26.9424 18.4068 26.9916 18.2773 26.9916C18.1478 26.9916 18.0233 26.9424 17.9312 26.8545C17.8392 26.7665 17.7871 26.6468 17.7871 26.5217C17.7871 26.3965 17.8392 26.2768 17.9312 26.1888Z" fill="black"/>
<path fill-rule="evenodd" clip-rule="evenodd" d="M20.4186 11.2869C19.2561 11.2869 19.1061 11.4744 18.5811 11.6525C18.5811 11.1463 19.8748 10.5557 21.0186 10.5557C21.0186 10.9213 20.7186 11.2869 20.4186 11.2869Z" fill="#DA4500"/>
<path fill-rule="evenodd" clip-rule="evenodd" d="M22.1717 10.1242C22.1717 10.3586 21.9654 10.5555 21.7123 10.5555C21.4592 10.5555 21.2529 10.3586 21.2529 10.1148C21.2529 9.87109 21.4592 9.68359 21.7123 9.68359C21.9654 9.68359 22.1717 9.87109 22.1717 10.1148V10.1242Z" fill="#CAC9C7"/>
<path fill-rule="evenodd" clip-rule="evenodd" d="M17.3649 8.59235V9.24667H18.5083V12.5244H19.1995V9.24667H20.3428V8.59235H19.1995V7.71582H18.5018V8.59235H17.3584H17.3649Z" fill="#FFFF00"/>
<path fill-rule="evenodd" clip-rule="evenodd" d="M18.467 7.68066H19.2341V8.5572H20.3775V9.28097H19.2341V12.5587H18.4735V9.28097H17.3301V8.59193H17.3583V8.5572H18.467V7.68066ZM17.3995 8.62666H18.5365V7.75013H19.1647V8.62666H20.3081V9.21151H19.1647V12.4893H18.5429V9.21151H17.3995V8.62666Z" fill="black"/>
<path fill-rule="evenodd" clip-rule="evenodd" d="M21.0281 10.5559C20.0976 10.5027 19.1655 10.6268 18.2812 10.9215C18.2813 10.2465 19.0687 9.45898 20.4187 9.45898C20.7187 9.45898 21.0281 10.1902 21.0281 10.5559Z" fill="#DA4500"/>
<path fill-rule="evenodd" clip-rule="evenodd" d="M9.11838 22.1712C8.78893 21.4611 8.79657 21.2344 9.38266 22.047L16.4425 35.431L16.2264 35.492L9.12202 22.174L9.11838 22.1712Z" fill="#008500"/>
<path fill-rule="evenodd" clip-rule="evenodd" d="M9.12754 22.1629C9.04596 21.9869 8.9854 21.8411 8.94939 21.734C8.93126 21.6801 8.91953 21.6365 8.91437 21.604C8.91179 21.5877 8.91095 21.5747 8.91158 21.5648C8.91223 21.5548 8.91434 21.5494 8.91643 21.5467C8.91808 21.5445 8.92053 21.543 8.92557 21.5434C8.9311 21.5438 8.93912 21.5466 8.95007 21.5531C8.97191 21.5662 9.00187 21.5921 9.04066 21.6328C9.11793 21.714 9.22769 21.8514 9.37385 22.0539L16.4256 35.4228L16.232 35.4774L9.13086 22.1654L9.12754 22.1629ZM9.05588 21.6148C9.13449 21.6973 9.24528 21.8361 9.39189 22.0394L9.39244 22.0401L16.4603 35.4394L16.2217 35.5067L9.11416 22.1827L9.11021 22.1797L9.10882 22.1767C9.02637 21.999 8.96483 21.8511 8.92813 21.742C8.9098 21.6875 8.8975 21.6421 8.89198 21.6073C8.88922 21.5899 8.88807 21.5747 8.8889 21.5619C8.88971 21.5494 8.89253 21.5379 8.89894 21.5296C8.90578 21.5208 8.91541 21.5173 8.92613 21.5181C8.93637 21.5189 8.94782 21.5236 8.96014 21.5309C8.98485 21.5457 9.01668 21.5736 9.05588 21.6148Z" fill="black"/>
<path fill-rule="evenodd" clip-rule="evenodd" d="M13.9127 30.9755C13.9877 29.9818 12.1689 28.913 12.0939 28.9786C12.0283 29.0536 12.2064 29.6349 12.5533 29.9255C11.897 29.588 11.2033 29.3818 11.1845 29.5224C11.1283 29.7286 12.2158 30.1974 12.3095 30.3849C12.3095 30.5161 11.5033 30.4974 11.522 30.6286C11.5408 30.7599 13.8002 31.9036 13.9127 30.9755ZM12.0939 28.088C12.1689 27.0943 10.3502 26.0255 10.2845 26.0911C10.2095 26.1568 10.3877 26.738 10.7345 27.038C10.0783 26.7005 9.38453 26.4849 9.36578 26.6349C9.3189 26.8318 10.397 27.3099 10.4908 27.4974C10.5002 27.6286 9.6939 27.6099 9.70328 27.7411C9.72203 27.8724 11.9814 29.0068 12.0939 28.088ZM10.7064 25.463C10.7814 24.4693 8.96266 23.4005 8.88766 23.4661C8.82203 23.5318 9.00015 24.113 9.34703 24.413C8.69078 24.0755 7.99703 23.8599 7.97828 24.0099C7.93141 24.2068 9.00953 24.6849 9.10328 24.8724C9.10328 25.0036 8.3064 24.9849 8.31578 25.1161C8.33453 25.2474 10.5939 26.3911 10.7064 25.463ZM9.33766 22.613C9.40328 21.6286 7.5939 20.5505 7.5189 20.6161C7.4439 20.6911 7.6314 21.2724 7.9689 21.5724C7.31265 21.2255 6.6189 21.0193 6.60953 21.1693C6.55328 21.3661 7.64078 21.8443 7.72515 22.0224C7.73453 22.1536 6.92828 22.1443 6.94703 22.2755C6.95641 22.4068 9.21578 23.5411 9.33766 22.613Z" fill="#008F00"/>
<path fill-rule="evenodd" clip-rule="evenodd" d="M9.80697 22.4908C10.6882 21.9564 10.5101 19.9221 10.4163 19.9033C10.3132 19.8939 9.92885 20.3721 9.88197 20.8221C9.77885 20.1096 9.54447 19.4533 9.41322 19.5283C9.21635 19.6033 9.45072 20.7189 9.3476 20.8971C9.25385 20.9908 8.7851 20.3533 8.69135 20.4471C8.57885 20.5408 8.95385 22.9502 9.81635 22.4908H9.80697ZM11.082 24.9846C12.0945 24.7596 12.6476 22.7908 12.5538 22.7439C12.4601 22.6971 11.9351 23.0252 11.7382 23.4377C11.8882 22.7346 11.8976 22.0408 11.7382 22.0689C11.5226 22.0783 11.3632 23.2033 11.2038 23.3346C11.082 23.3908 10.857 22.6502 10.7351 22.6971C10.6038 22.7533 10.1163 25.1439 11.082 24.9846ZM12.6007 27.5346C13.5288 27.0846 13.5382 25.0408 13.4445 25.0221C13.3507 24.9939 12.9288 25.4439 12.8351 25.8846C12.7976 25.1627 12.6288 24.4971 12.4882 24.5627C12.282 24.6189 12.4132 25.7439 12.3007 25.9127C12.1882 25.9971 11.7851 25.3221 11.6726 25.4064C11.5601 25.4814 11.7101 27.919 12.6101 27.5346H12.6007ZM14.2507 30.8721C15.2163 30.5064 15.4507 28.4814 15.357 28.4439C15.2632 28.4158 14.7945 28.8189 14.6538 29.2502C14.6913 28.5283 14.5976 27.8439 14.4476 27.9002C14.232 27.9377 14.2507 29.0721 14.1195 29.2314C13.9976 29.2971 13.6695 28.5939 13.557 28.6689C13.4351 28.7252 13.3226 31.1721 14.2507 30.8721Z" fill="#008F00"/>
<path fill-rule="evenodd" clip-rule="evenodd" d="M16.3769 34.3507C16.1313 34.7711 15.3544 34.8091 14.6324 34.4239C13.9105 34.0388 13.5367 33.3869 13.7823 32.9665C14.028 32.5461 14.8105 32.5111 15.5268 32.8933C16.2431 33.2754 16.6225 33.9303 16.3769 34.3507Z" fill="#FF1900"/>
<path fill-rule="evenodd" clip-rule="evenodd" d="M14.4783 32.6625C14.169 32.6758 13.9267 32.7868 13.8124 32.9823C13.6981 33.178 13.7251 33.4327 13.8749 33.6907C14.0242 33.9481 14.2931 34.2033 14.6494 34.3934C15.0058 34.5835 15.3742 34.6683 15.6819 34.6547C15.9903 34.6411 16.2314 34.5295 16.3457 34.3338C16.46 34.1383 16.4317 33.8829 16.2812 33.6243C16.1311 33.3665 15.8622 33.1113 15.5087 32.9227C15.1552 32.7342 14.7868 32.6493 14.4783 32.6625ZM14.4766 32.5943C14.7999 32.5804 15.1809 32.6692 15.5438 32.8627C15.9066 33.0563 16.1856 33.3197 16.3429 33.5899C16.4998 33.8594 16.5384 34.1417 16.407 34.3665C16.2757 34.5912 16.0055 34.7088 15.6836 34.723C15.361 34.7372 14.98 34.6485 14.6144 34.4534C14.2488 34.2584 13.9697 33.995 13.8131 33.7251C13.6569 33.4558 13.6198 33.1744 13.7511 32.9496C13.8825 32.7248 14.1542 32.6081 14.4766 32.5943Z" fill="black"/>
<path fill-rule="evenodd" clip-rule="evenodd" d="M35.0177 20.269L35.1392 19.9553L35.4666 20.0584L35.5881 19.7447L35.9155 19.8478L35.7957 20.1571L36.1324 20.2631L36.0092 20.5813L35.6724 20.4752L35.3694 21.2573L35.042 21.1542L35.345 20.3721L35.0177 20.269ZM34.3145 23.032L34.6419 23.1351L31.124 32.215L30.7966 32.1119L34.3145 23.032Z" fill="#FFFF00"/>
<path fill-rule="evenodd" clip-rule="evenodd" d="M35.5803 19.7301L35.9307 19.8404L35.8109 20.1497L36.1476 20.2557L36.0156 20.5963L35.6789 20.4903L35.3759 21.2723L35.0255 21.162L35.3285 20.3799L35.0126 20.2805L35.017 20.2692L35.0055 20.2656L35.1314 19.9407L35.4588 20.0438L35.5803 19.7301ZM35.0328 20.2616L35.3602 20.3647L35.0572 21.1468L35.3616 21.2426L35.6646 20.4606L36.0013 20.5666L36.1159 20.271L35.7792 20.1649L35.899 19.8556L35.5946 19.7598L35.4731 20.0735L35.1457 19.9704L35.0328 20.2616ZM34.3067 23.0174L34.657 23.1277L31.1304 32.2301L30.7801 32.1197L34.3067 23.0174ZM34.321 23.0471L30.8118 32.1045L31.1162 32.2004L34.6254 23.1429L34.321 23.0471Z" fill="black"/>
<path fill-rule="evenodd" clip-rule="evenodd" d="M30.6875 31.9047L31.3516 32.1138L30.3809 34.6191L29.7168 34.4099L30.6875 31.9047ZM34.5924 21.3652L35.5886 21.679C36.2481 21.8866 34.7526 23.3491 34.7526 23.3491L34.0932 23.1415C34.0932 23.1415 33.9283 21.1561 34.5924 21.3652ZM35.508 21.3859C35.4567 21.5184 35.2706 21.5788 35.0882 21.5214C34.9058 21.4639 34.7972 21.3108 34.8469 21.1826C34.8965 21.0545 35.0843 20.9897 35.2667 21.0471C35.4491 21.1046 35.5577 21.2577 35.5063 21.3903L35.508 21.3859Z" fill="#FFFF00"/>
<path fill-rule="evenodd" clip-rule="evenodd" d="M35.0107 21.0566C34.9375 21.0808 34.8818 21.1267 34.8587 21.1864C34.8356 21.2459 34.8489 21.3124 34.8911 21.3717C34.9333 21.431 35.0038 21.4823 35.0928 21.5103C35.1819 21.5384 35.2712 21.5375 35.3442 21.5139C35.4162 21.4906 35.4715 21.4455 35.4959 21.3847C35.5188 21.3234 35.5056 21.2568 35.4642 21.1977C35.4222 21.1379 35.3516 21.0866 35.2626 21.0586C35.1737 21.0306 35.0839 21.0325 35.0107 21.0566ZM35.5198 21.3897C35.5448 21.3203 35.5289 21.2467 35.4848 21.1838C35.4397 21.1195 35.3647 21.0655 35.2713 21.0361C35.1778 21.0066 35.0825 21.0084 35.0038 21.0343C34.9252 21.0603 34.8622 21.1108 34.8357 21.1792C34.8091 21.2478 34.8253 21.3221 34.8706 21.3857C34.8912 21.4147 34.918 21.4417 34.9498 21.4653L34.5971 21.3542C34.5113 21.3272 34.4374 21.3353 34.3747 21.3717C34.3125 21.4078 34.263 21.4706 34.2235 21.5501C34.1445 21.709 34.1027 21.9394 34.0818 22.1747C34.0609 22.4104 34.0607 22.6525 34.0658 22.8356C34.0684 22.9272 34.0722 23.0041 34.0754 23.058C34.077 23.085 34.0785 23.1063 34.0795 23.1208C34.0801 23.1281 34.0805 23.1337 34.0808 23.1374L34.0811 23.1417L34.0812 23.1431C34.0812 23.1431 34.0812 23.1432 34.0935 23.1417L34.0812 23.1432L34.0818 23.1506L34.7559 23.3629L34.7615 23.3574L34.7529 23.3493C34.7615 23.3574 34.7615 23.3574 34.7615 23.3574L34.7626 23.3563L34.7658 23.3531C34.7686 23.3503 34.7728 23.3462 34.7782 23.3408C34.789 23.33 34.8048 23.3142 34.8246 23.2939C34.8643 23.2535 34.9202 23.1954 34.9853 23.1252C35.1153 22.9846 35.282 22.795 35.4281 22.5987C35.574 22.4027 35.7002 22.1989 35.7483 22.0303C35.7724 21.946 35.7773 21.8691 35.7539 21.8061C35.7303 21.7425 35.6785 21.6948 35.5933 21.6679L35.2347 21.555C35.2757 21.5543 35.315 21.5478 35.3509 21.5362C35.4279 21.5114 35.4898 21.4624 35.518 21.3941L35.5198 21.3897ZM34.5884 21.3767C34.5082 21.3514 34.442 21.3596 34.3866 21.3917C34.3306 21.4242 34.284 21.4822 34.2456 21.5594C34.1687 21.714 34.1272 21.9407 34.1063 22.1755C34.0855 22.41 34.0853 22.6512 34.0904 22.8338C34.0929 22.9251 34.0968 23.0017 34.1 23.0555C34.1016 23.0824 34.103 23.1036 34.1041 23.118C34.1045 23.1242 34.1049 23.1291 34.1051 23.1327L34.7499 23.3358C34.7527 23.3331 34.7563 23.3295 34.7609 23.3249C34.7717 23.3142 34.7874 23.2984 34.8071 23.2782C34.8467 23.2379 34.9024 23.1801 34.9673 23.11C35.097 22.9698 35.263 22.7809 35.4083 22.5856C35.5539 22.39 35.6778 22.1892 35.7247 22.0252C35.7481 21.9432 35.7518 21.8717 35.7307 21.815C35.7099 21.7589 35.6642 21.7155 35.5846 21.6904L34.5884 21.3767ZM30.6806 31.89L31.3677 32.1064L30.3884 34.6341L29.7013 34.4178L30.6806 31.89ZM31.336 32.1217L30.6949 31.9198L29.733 34.4025L30.3741 34.6044L31.336 32.1217Z" fill="black"/>
<path fill-rule="evenodd" clip-rule="evenodd" d="M31.2203 33.2059C31.4986 33.6073 31.1775 34.2843 30.4881 34.7206C29.7987 35.1569 29.0211 35.1752 28.7428 34.7738C28.4646 34.3723 28.7911 33.6919 29.4751 33.259C30.1591 32.8261 30.9421 32.8044 31.2203 33.2059Z" fill="#FF1900"/>
<path fill-rule="evenodd" clip-rule="evenodd" d="M28.7806 34.0432C28.6511 34.3118 28.643 34.5685 28.7725 34.7554C28.9021 34.9424 29.1514 35.0362 29.46 35.0275C29.7678 35.0188 30.1284 34.9076 30.4686 34.6923C30.8089 34.4769 31.0567 34.2031 31.1852 33.9357C31.314 33.6676 31.3209 33.4116 31.1913 33.2247C31.0618 33.0378 30.8112 32.9447 30.5019 32.9538C30.1933 32.963 29.8327 33.0742 29.4952 33.2878C29.1577 33.5014 28.9098 33.7752 28.7806 34.0432ZM28.7163 34.0136C28.8517 33.7328 29.1091 33.45 29.4556 33.2307C29.8021 33.0114 30.175 32.8953 30.4985 32.8857C30.8212 32.8762 31.1013 32.9729 31.25 33.1875C31.3987 33.4019 31.3841 33.6852 31.2496 33.9651C31.1148 34.2456 30.8574 34.5284 30.5082 34.7494C30.1591 34.9703 29.7861 35.0864 29.4632 35.0956C29.1411 35.1047 28.8624 35.007 28.7138 34.7926C28.5651 34.578 28.5812 34.2938 28.7163 34.0136Z" fill="black"/>
</g>
<defs>
<clipPath id="clip0_200_65235">
<rect width="60" height="45" fill="white" transform="translate(-7.5)"/>
</clipPath>
</defs>
</svg>
