<svg width="45" height="45" viewBox="0 0 45 45" fill="none" xmlns="http://www.w3.org/2000/svg">
<g clip-path="url(#clip0_200_65093)">
<path fill-rule="evenodd" clip-rule="evenodd" d="M-7.5 0H52.4906V45H-7.5V0Z" fill="#3B5AA3"/>
<path fill-rule="evenodd" clip-rule="evenodd" d="M-7.5 43.7812L52.4906 0V8.15625L-7.5 45V43.7812Z" fill="#E2AE57"/>
<path fill-rule="evenodd" clip-rule="evenodd" d="M-5.4 44.9998L52.5 16.7998L52.4906 7.84668L-7.5 44.9998H-5.4ZM8.94375 1.4248L8.34375 11.0623L5.8125 4.9123L6.7875 11.4561L2.85938 6.16855L5.4375 12.1967L0.28125 8.20293L4.29375 13.2279L-1.52812 10.6404L3.57187 14.5029L-2.775 13.6592L3.225 16.0404L-6.1875 16.9029L3.24375 17.5311L-2.72812 19.9873L3.55313 19.1436L-1.5375 22.8936L4.36875 20.3061L0.3375 25.3686L5.45625 21.4967L2.925 27.3936L7.0125 22.2654L5.90625 28.6498L8.48438 22.6779L9.06562 32.1186L9.975 22.7061L12.1969 28.7061L11.3531 22.2373L15.4219 27.3748L12.7406 21.3748L17.8594 25.4998L13.7906 20.3529L19.875 22.8842L14.4938 18.9561L21.0469 20.0623L14.7656 17.6529L24.525 17.0436L14.775 16.1342L21.1969 13.9967L14.5406 14.8404L20.0344 10.9967L13.8469 13.4811L18.1219 8.29668L12.9094 12.3654L15.4125 6.14043L11.3719 11.4279L12.2438 4.82793L9.83437 11.0623L8.93438 1.4248H8.94375Z" fill="white"/>
</g>
<defs>
<clipPath id="clip0_200_65093">
<rect width="60" height="45" fill="white" transform="translate(-7.5)"/>
</clipPath>
</defs>
</svg>
