<svg width="45" height="45" viewBox="0 0 45 45" fill="none" xmlns="http://www.w3.org/2000/svg">
<g clip-path="url(#clip0_200_65088)">
<path d="M-7.5 0H52.5V45H-7.5V0Z" fill="#D20000"/>
<path d="M-7.5 0H1.5L22.5 21.6937L43.5 0H52.5L-7.5 45H1.5L22.5 23.3063L43.5 45H52.5L-7.5 0ZM52.5 18V27L-7.5 18V27L52.5 18ZM18.75 0L22.5 19.2844L26.25 0H18.75ZM18.75 45L22.5 25.7156L26.25 45H18.75Z" fill="#FFE600"/>
<path d="M22.4996 29.7277C26.4916 29.7277 29.7277 26.4916 29.7277 22.4996C29.7277 18.5076 26.4916 15.2715 22.4996 15.2715C18.5076 15.2715 15.2715 18.5076 15.2715 22.4996C15.2715 26.4916 18.5076 29.7277 22.4996 29.7277Z" fill="#FFE600"/>
<path fill-rule="evenodd" clip-rule="evenodd" d="M22.5004 16.0738C18.9511 16.0738 16.0738 18.9511 16.0738 22.5004C16.0738 26.0497 18.9511 28.927 22.5004 28.927C26.0497 28.927 28.927 26.0497 28.927 22.5004C28.927 18.9511 26.0497 16.0738 22.5004 16.0738ZM14.4707 22.5004C14.4707 18.0657 18.0657 14.4707 22.5004 14.4707C26.9351 14.4707 30.5301 18.0657 30.5301 22.5004C30.5301 26.9351 26.9351 30.5301 22.5004 30.5301C18.0657 30.5301 14.4707 26.9351 14.4707 22.5004Z" fill="#D20000"/>
</g>
<defs>
<clipPath id="clip0_200_65088">
<rect width="60" height="45" fill="white" transform="translate(-7.5)"/>
</clipPath>
</defs>
</svg>
