<svg width="45" height="45" viewBox="0 0 45 45" fill="none" xmlns="http://www.w3.org/2000/svg">
<g clip-path="url(#clip0_200_65065)">
<path d="M-7.5 0H52.5V45H-7.5V0Z" fill="#DA2032"/>
<path d="M12.4971 0H32.5033V45H12.4971V0Z" fill="#0066B3"/>
<path d="M2.50293 20.7939C4.574 20.7939 6.25293 19.115 6.25293 17.0439C6.25293 14.9729 4.574 13.2939 2.50293 13.2939C0.431862 13.2939 -1.24707 14.9729 -1.24707 17.0439C-1.24707 19.115 0.431862 20.7939 2.50293 20.7939Z" fill="#FFD900"/>
<path d="M2.50352 19.425C4.76098 19.425 6.59102 17.595 6.59102 15.3375C6.59102 13.08 4.76098 11.25 2.50352 11.25C0.246052 11.25 -1.58398 13.08 -1.58398 15.3375C-1.58398 17.595 0.246052 19.425 2.50352 19.425Z" fill="#DA2032"/>
<path d="M2.50352 18.7502C4.01022 18.7502 5.23164 17.5288 5.23164 16.0221C5.23164 14.5154 4.01022 13.2939 2.50352 13.2939C0.996814 13.2939 -0.224609 14.5154 -0.224609 16.0221C-0.224609 17.5288 0.996814 18.7502 2.50352 18.7502Z" fill="#FFD900"/>
<path d="M2.78418 7.16211C2.64578 7.22266 2.52691 7.32047 2.44083 7.44462C2.35476 7.56877 2.30485 7.71438 2.29668 7.86523C2.27793 8.09961 2.38105 8.36211 2.39043 8.58711C2.39043 8.98086 1.9873 9.11211 1.9873 9.66523C1.9873 9.85273 2.16543 10.0684 2.16543 10.5652C2.12793 10.8277 1.97793 10.8934 1.81855 10.9121C1.77343 10.9121 1.72877 10.9031 1.6872 10.8856C1.64563 10.868 1.60799 10.8423 1.57653 10.81C1.54506 10.7776 1.5204 10.7393 1.504 10.6973C1.4876 10.6552 1.4798 10.6103 1.48106 10.5652C1.48081 10.4779 1.51442 10.3939 1.57481 10.3309C1.58664 10.3206 1.59917 10.3112 1.6123 10.3027C1.6873 10.2184 1.7998 10.1902 1.7998 9.98398C1.7998 9.88086 1.7248 9.77773 1.65918 9.59023C1.59355 9.40273 1.64043 9.10273 1.79043 8.92461C1.54668 9.01836 1.40605 9.24336 1.32168 9.44961C1.24668 9.70273 1.32168 9.84336 1.20918 10.059C1.14355 10.1902 1.06855 10.2465 0.993555 10.359C0.899805 10.4902 0.806055 10.7715 0.806055 10.9121C0.837954 11.3416 1.03107 11.7431 1.34666 12.0361C1.66225 12.3291 2.07697 12.492 2.50762 12.492C2.93826 12.492 3.35298 12.3291 3.66857 12.0361C3.98416 11.7431 4.17728 11.3416 4.20918 10.9121C4.20918 10.7715 4.10605 10.4902 4.02168 10.359C3.9373 10.2465 3.8623 10.1902 3.79668 10.059C3.68418 9.84336 3.75918 9.70273 3.6748 9.44961C3.5998 9.24336 3.45918 9.01836 3.21543 8.92461C3.36543 9.11211 3.40293 9.41211 3.34668 9.59023C3.28105 9.77773 3.21543 9.87148 3.21543 9.98398C3.21543 10.1902 3.31855 10.2184 3.40293 10.3027C3.41285 10.3115 3.42224 10.3209 3.43105 10.3309C3.49144 10.3939 3.52505 10.4779 3.5248 10.5652C3.52606 10.6103 3.51826 10.6552 3.50186 10.6973C3.48546 10.7393 3.4608 10.7776 3.42933 10.81C3.39787 10.8423 3.36023 10.868 3.31866 10.8856C3.27709 10.9031 3.23243 10.9121 3.18731 10.9121C2.9998 10.884 2.85918 10.7996 2.84043 10.5652C2.84043 9.90898 3.12168 9.87148 3.12168 9.38398C3.12168 8.69023 2.50293 8.36211 2.50293 7.85586C2.50293 7.68711 2.54043 7.38711 2.78418 7.16211ZM-4.99707 21.4684H-1.59395V37.8277H-4.99707V21.4684ZM6.59043 21.4684H10.0029V37.8277H6.59043V21.4684ZM-0.90957 21.4684H5.90606L2.50293 23.5121L-0.90957 21.4684ZM-0.90957 24.1871H5.90606V25.5559H-0.90957V24.1871ZM-0.90957 33.7402H5.90606V35.109H-0.90957V33.7402ZM-0.90957 35.784H5.90606L2.50293 37.8277L-0.90957 35.784Z" fill="#FFD900"/>
<path d="M2.50332 33.075C4.38799 33.075 5.91582 31.5472 5.91582 29.6625C5.91582 27.7778 4.38799 26.25 2.50332 26.25C0.618648 26.25 -0.90918 27.7778 -0.90918 29.6625C-0.90918 31.5472 0.618648 33.075 2.50332 33.075Z" fill="#FFD900"/>
<path d="M2.49822 28.5306C2.87478 28.5306 3.18004 28.2254 3.18004 27.8488C3.18004 27.4723 2.87478 27.167 2.49822 27.167C2.12167 27.167 1.81641 27.4723 1.81641 27.8488C1.81641 28.2254 2.12167 28.5306 2.49822 28.5306Z" fill="#DA2032"/>
<path d="M2.49822 32.1449C2.87478 32.1449 3.18004 31.8396 3.18004 31.4631C3.18004 31.0865 2.87478 30.7812 2.49822 30.7812C2.12167 30.7812 1.81641 31.0865 1.81641 31.4631C1.81641 31.8396 2.12167 32.1449 2.49822 32.1449Z" fill="#DA2032"/>
<path d="M2.49866 25.8379C3.03211 25.8379 3.5437 26.0498 3.9209 26.427C4.29811 26.8042 4.51002 27.3158 4.51002 27.8492C4.51002 28.3827 4.29811 28.8943 3.9209 29.2715C3.5437 29.6487 3.03211 29.8606 2.49866 29.8606C2.07371 29.8606 1.66617 30.0294 1.36569 30.3299C1.0652 30.6304 0.896394 31.0379 0.896394 31.4629C0.896394 31.8878 1.0652 32.2954 1.36569 32.5958C1.66617 32.8963 2.07371 33.0651 2.49866 33.0651V33.4742C1.96522 33.4742 1.45362 33.2623 1.07642 32.8851C0.699215 32.5079 0.487305 31.9963 0.487305 31.4629C0.487305 30.9294 0.699215 30.4178 1.07642 30.0406C1.45362 29.6634 1.96522 29.4515 2.49866 29.4515C2.92361 29.4515 3.33115 29.2827 3.63163 28.9822C3.93212 28.6817 4.10093 28.2742 4.10093 27.8492C4.10093 27.4243 3.93212 27.0168 3.63163 26.7163C3.33115 26.4158 2.92361 26.247 2.49866 26.247V25.8379Z" fill="#DA2032"/>
</g>
<defs>
<clipPath id="clip0_200_65065">
<rect width="60" height="45" fill="white" transform="translate(-7.5)"/>
</clipPath>
</defs>
</svg>
