<svg width="45" height="45" viewBox="0 0 45 45" fill="none" xmlns="http://www.w3.org/2000/svg">
<g clip-path="url(#clip0_200_65762)">
<path d="M-7.5 0H52.5V45H-7.5V0Z" fill="#00785E"/>
<path d="M20.1562 10.1906L23.9531 12.9562L22.5 8.48438L21.0469 12.9562L24.8531 10.1906H20.1562Z" fill="#FBD116"/>
<path d="M22.4998 31.0869H12.8904C12.7693 30.9642 12.6506 30.8391 12.5342 30.7119H22.4998C22.5385 30.7256 22.5719 30.751 22.5955 30.7846C22.619 30.8183 22.6314 30.8584 22.6311 30.8994C22.6311 30.9744 22.5842 31.0588 22.4998 31.0869ZM22.4998 28.1525C22.6083 27.9318 22.6476 27.6835 22.6123 27.44C22.5943 27.316 22.5563 27.1957 22.4998 27.0838C21.6361 27.9058 20.593 28.5156 19.4529 28.865C18.7387 29.0821 17.9963 29.1927 17.2498 29.1932H11.3342C11.5068 29.4493 11.6882 29.6994 11.8779 29.9432H17.5967C19.4717 29.9432 21.1779 29.2682 22.4998 28.1525ZM12.2248 25.8369C11.9331 25.9458 11.6264 26.009 11.3154 26.0244C12.0279 26.8343 12.9048 27.4832 13.8876 27.9277C14.8705 28.3723 15.9367 28.6023 17.0154 28.6025C18.0405 28.6028 19.055 28.3952 19.9977 27.9924C20.9403 27.5895 21.7915 26.9998 22.4998 26.2588C22.7633 24.4328 22.9042 22.5911 22.9217 20.7463C22.9443 18.623 22.8032 16.5011 22.4998 14.3994C21.8811 14.9619 20.7186 16.1525 20.1748 17.99C19.9709 18.6937 19.8698 19.4231 19.8748 20.1557C19.8745 21.6583 20.3216 23.1269 21.1592 24.3744C20.1271 23.0475 19.5664 21.4148 19.5654 19.7338C19.5654 18.5713 19.8279 17.465 20.2967 16.4807C19.9704 16.1348 19.7296 15.7175 19.5936 15.2619C18.9453 16.4052 18.606 17.6976 18.6092 19.0119C18.6092 20.6994 19.1623 22.265 20.0998 23.5213C19.218 22.5947 18.147 21.8689 16.9596 21.3932C15.7721 20.9176 14.4962 20.7034 13.2186 20.765C13.4776 21.0043 13.6933 21.2866 13.8561 21.5994C15.0586 21.6009 16.2484 21.8458 17.3537 22.3195C18.459 22.7932 19.4569 23.4859 20.2873 24.3557C18.6846 23.012 16.66 22.2752 14.5686 22.2744C13.3876 22.2722 12.2181 22.5048 11.1279 22.9588C11.7126 24.5045 12.7843 25.818 14.1813 26.7008C15.5783 27.5836 17.2247 27.9879 18.8717 27.8525C18.4311 27.9275 17.9811 27.9744 17.5217 27.9744C15.548 27.9779 13.6509 27.211 12.2342 25.8369H12.2248ZM22.4998 34.1619H17.5217C19.1061 34.79 20.7954 35.1114 22.4998 35.1088C22.5771 34.9644 22.6188 34.8037 22.6217 34.64C22.6203 34.4732 22.5785 34.3091 22.4998 34.1619ZM22.4998 31.865H13.7248C13.9618 32.0672 14.2057 32.261 14.4561 32.4463H22.4998C22.5756 32.3683 22.6192 32.2644 22.6217 32.1557C22.6237 32.1013 22.6138 32.0471 22.5928 31.9969C22.5717 31.9467 22.54 31.9017 22.4998 31.865ZM22.4998 33.0369H15.3092C15.7445 33.3125 16.1952 33.563 16.6592 33.7869H22.4998C22.575 33.6695 22.6141 33.5326 22.6123 33.3932C22.6076 33.2664 22.5687 33.1433 22.4998 33.0369Z" fill="white"/>
<path d="M11.2969 16.3871L13.6781 18.5996L13.05 15.4121L11.6813 18.3559L14.5219 16.7809L11.2969 16.3871ZM14.7562 13.3871L18.0094 13.4434L15.4125 11.4746L16.3594 14.5965L17.4187 11.5121L14.7562 13.3871Z" fill="#FBD116"/>
</g>
<defs>
<clipPath id="clip0_200_65762">
<rect width="60" height="45" fill="white" transform="translate(-7.5)"/>
</clipPath>
</defs>
</svg>
