<svg width="45" height="45" viewBox="0 0 45 45" fill="none" xmlns="http://www.w3.org/2000/svg">
<g clip-path="url(#clip0_200_65728)">
<path d="M-7.5 0H52.5V45H-7.5V0Z" fill="#012169"/>
<path d="M28.5848 10.4062H47.8504L47.8223 24.1219C47.9816 29.625 44.5504 33.0469 38.2316 34.5938C33.741 33.4688 28.5754 31.1719 28.5566 24.2812L28.5848 10.4062Z" fill="white"/>
<path d="M29.0061 10.8184H47.4186L47.3998 23.9621C47.5498 29.2402 44.2686 32.5121 38.2311 33.9934C33.9373 32.9246 28.9967 30.7121 28.9873 24.1121L29.0061 10.8184Z" fill="#00A2BD"/>
<path fill-rule="evenodd" clip-rule="evenodd" d="M29.0907 10.9031L29.0721 24.1124C29.0767 27.3878 30.3035 29.5675 32.0577 31.0631C33.8102 32.5573 36.0946 33.3734 38.2316 33.9068C41.231 33.1682 43.5367 31.9875 45.0745 30.3443C46.6139 28.6994 47.3903 26.5843 47.3158 23.9649L47.3158 23.9636L47.3344 10.9031H29.0907ZM29.0064 10.8187V10.7344H47.5034L47.4846 23.9613C47.5598 26.6195 46.7706 28.779 45.1977 30.4596C43.6265 32.1385 41.2798 33.3327 38.2515 34.0757L38.2313 34.0807L38.2111 34.0756C36.0601 33.5402 33.7362 32.7161 31.9482 31.1916C30.1563 29.6638 28.908 27.4372 28.9033 24.1126V24.1124L28.9221 10.8186L29.0064 10.8187Z" fill="black"/>
<path d="M47.2783 25.5186C46.6033 30.5529 42.7221 32.7561 38.2314 33.9279C34.2471 32.8592 29.9627 31.1529 29.1377 25.5373L47.2783 25.5186Z" fill="#A53D08"/>
<path d="M37.4998 13.2652L37.4717 11.6152L38.7842 11.6246L38.7936 13.2652H42.3748L42.3842 14.5496L38.7936 14.5684L38.7654 29.6996L37.4904 29.709L37.4717 14.5496L33.9092 14.5684V13.2559L37.4998 13.2652Z" fill="black"/>
<path fill-rule="evenodd" clip-rule="evenodd" d="M34.5937 26.1371L37.875 29.5402C39.0093 28.2934 38.2218 23.634 36.7312 22.7809C36.5531 23.334 36.2531 23.9996 35.925 24.2059C35.2218 24.6934 33.4781 25.2559 34.0593 25.6121C34.1906 25.434 34.5375 25.2652 34.7062 25.6684C34.8937 26.3152 33.975 26.3527 33.975 26.3527C33.975 26.3527 33.3937 26.2777 33.2906 25.6965C33.1968 25.0965 34.1625 24.5527 34.2468 24.5152C34.3218 24.4871 35.5875 24.1402 35.8031 23.0246C36.075 21.9184 36.3468 22.0871 36.3937 22.0684C38.0531 22.2277 39.1312 25.1902 39.1968 27.2715C39.2531 29.3527 38.3531 30.7402 38.1843 30.834C38.025 30.9184 34.2468 26.3434 34.2468 26.3434L34.6031 26.1371H34.5937Z" fill="#FF9A08"/>
<path fill-rule="evenodd" clip-rule="evenodd" d="M36.3886 22.0303L36.3977 22.0311C36.8236 22.0721 37.2098 22.2927 37.5493 22.6294C37.8888 22.966 38.1834 23.4204 38.4272 23.9332C38.9147 24.9588 39.2017 26.2248 39.2347 27.2704L39.2347 27.2706C39.263 28.3168 39.0509 29.189 38.8103 29.8117C38.6901 30.123 38.5625 30.3723 38.4541 30.5501C38.3998 30.639 38.3502 30.7104 38.3083 30.7628C38.2874 30.7891 38.2682 30.8109 38.251 30.828C38.2343 30.8447 38.218 30.8585 38.2029 30.8669L38.2023 30.8672C38.1886 30.8745 38.1749 30.8731 38.1667 30.8713C38.1579 30.8694 38.1494 30.8657 38.142 30.8619C38.1271 30.8541 38.1098 30.8419 38.091 30.827C38.0529 30.7968 38.003 30.7508 37.9434 30.6921C37.8241 30.5743 37.6629 30.4018 37.4744 30.1932C37.0974 29.7757 36.6099 29.2114 36.1277 28.6447C35.6453 28.078 35.168 27.5087 34.8113 27.081C34.6329 26.8672 34.4847 26.6888 34.381 26.5638C34.3292 26.5014 34.2885 26.4522 34.2608 26.4187L34.2184 26.3674C34.2183 26.3674 34.2183 26.3674 34.2394 26.3499L34.2184 26.3674L34.2097 26.3569C34.1784 26.3639 34.1489 26.3695 34.122 26.3739C34.0794 26.3809 34.0434 26.385 34.0179 26.3873C34.0052 26.3885 33.9951 26.3892 33.9881 26.3897C33.9846 26.3899 33.9818 26.3901 33.9799 26.3902L33.9778 26.3903L33.9772 26.3903L33.977 26.3903C33.977 26.3903 33.9769 26.3903 33.9754 26.3528C33.9706 26.39 33.9705 26.39 33.9705 26.39L33.9703 26.39L33.9699 26.3899L33.9683 26.3897C33.967 26.3895 33.9652 26.3893 33.9628 26.3889C33.9581 26.3881 33.9514 26.387 33.9429 26.3853C33.9259 26.3819 33.9018 26.3765 33.8726 26.3681C33.8143 26.3514 33.7354 26.3227 33.6531 26.2752C33.4878 26.1797 33.308 26.0072 33.2541 25.7031L33.2539 25.7024C33.2288 25.5413 33.2751 25.3861 33.3565 25.2454C33.4379 25.1048 33.5555 24.9764 33.6773 24.8671C33.9204 24.6489 34.1862 24.5015 34.232 24.4811L34.233 24.4806L34.2341 24.4802C34.2388 24.4785 34.2475 24.4756 34.2598 24.4716C34.352 24.4417 34.6448 24.3466 34.9522 24.1464C35.3002 23.9198 35.6615 23.5617 35.7667 23.0176L35.7668 23.0167L35.7671 23.0158C35.9033 22.4616 36.0413 22.2176 36.1579 22.1111C36.2176 22.0566 36.2718 22.038 36.3161 22.033C36.3375 22.0305 36.3557 22.0315 36.3684 22.0321L36.3686 22.0321C36.3753 22.0325 36.3792 22.0327 36.3822 22.0327C36.3824 22.0326 36.3826 22.0326 36.3827 22.0326L36.3886 22.0303ZM36.3841 22.0326C36.3841 22.0326 36.384 22.0326 36.3839 22.0326L36.3841 22.0326ZM33.9754 26.3528L33.9705 26.39L33.9737 26.3904L33.9769 26.3903L33.9754 26.3528ZM33.9771 26.3152C33.9787 26.3151 33.9807 26.315 33.9832 26.3148C33.9896 26.3144 33.999 26.3137 34.011 26.3126C34.0351 26.3104 34.0693 26.3065 34.1099 26.2999C34.183 26.2879 34.2756 26.2672 34.3655 26.2317L34.5372 26.1323L34.5059 26.0997H34.5813C34.6036 26.078 34.6233 26.0543 34.6398 26.0283C34.6928 25.9445 34.7147 25.8328 34.6712 25.681C34.6312 25.5863 34.5824 25.5287 34.5323 25.496C34.4822 25.4632 34.4279 25.4535 34.3733 25.4596C34.262 25.4722 34.151 25.5516 34.0899 25.6345L34.0695 25.6622L34.0401 25.6442C33.9629 25.5969 33.9157 25.5408 33.907 25.4744C33.8984 25.4087 33.9293 25.3452 33.9784 25.2866C34.0763 25.17 34.268 25.0481 34.4929 24.9254C34.658 24.8354 34.8448 24.743 35.0316 24.6506C35.101 24.6163 35.1704 24.582 35.2387 24.5477C35.4921 24.4208 35.7307 24.2953 35.904 24.1752L35.9047 24.1747L35.9054 24.1742C36.0606 24.0767 36.2138 23.8664 36.3516 23.606C36.4886 23.3472 36.6073 23.0446 36.6959 22.7695L36.7101 22.7255L36.7502 22.7484C37.1331 22.9676 37.466 23.4274 37.7328 24.006C38.0001 24.5859 38.2037 25.2905 38.3248 26.0068C38.446 26.723 38.4849 27.4524 38.4221 28.0819C38.3595 28.7099 38.1949 29.2448 37.9031 29.5656L37.8762 29.5952L34.5926 26.1896C34.5417 26.2302 34.4843 26.2622 34.4263 26.2876C34.417 26.2917 34.4077 26.2956 34.3983 26.2993L34.3044 26.3537L34.3186 26.3709C34.3463 26.4044 34.387 26.4535 34.4388 26.516C34.5424 26.6409 34.6905 26.8192 34.8689 27.033C35.2255 27.4605 35.7027 28.0296 36.1848 28.5961C36.6669 29.1627 37.1539 29.7263 37.5301 30.1429C37.7183 30.3513 37.8784 30.5224 37.9961 30.6387C38.0551 30.6969 38.1027 30.7406 38.1375 30.7682C38.1545 30.7816 38.1672 30.7902 38.1759 30.7949C38.1816 30.7904 38.189 30.784 38.198 30.775C38.2126 30.7604 38.2299 30.7408 38.2497 30.7161C38.2891 30.6666 38.337 30.598 38.39 30.5111C38.496 30.3373 38.6216 30.0921 38.7404 29.7846C38.9779 29.1699 39.1877 28.3077 39.1598 27.2728C39.1271 26.2371 38.8423 24.9813 38.3595 23.9654C38.1181 23.4576 37.8279 23.0113 37.4965 22.6826C37.1669 22.3558 36.7982 22.1468 36.3969 22.1064C36.3916 22.1074 36.3867 22.1076 36.3833 22.1076C36.3776 22.1077 36.3713 22.1074 36.3659 22.1071L36.3644 22.107C36.3522 22.1064 36.3393 22.1058 36.3245 22.1075C36.2961 22.1107 36.2566 22.1226 36.2085 22.1665C36.1095 22.2568 35.9757 22.4813 35.8401 23.0328C35.7294 23.6038 35.3503 23.9766 34.9931 24.2093C34.6753 24.4162 34.3706 24.5147 34.2827 24.5431C34.2727 24.5463 34.2655 24.5486 34.2614 24.5501C34.2195 24.5692 33.9627 24.7117 33.7274 24.9229C33.6089 25.0293 33.4974 25.1517 33.4214 25.283C33.3456 25.414 33.3064 25.5516 33.328 25.6904C33.3772 25.9674 33.5396 26.123 33.6906 26.2102C33.7664 26.254 33.8393 26.2805 33.8933 26.296C33.9202 26.3037 33.9423 26.3087 33.9575 26.3117C33.9651 26.3132 33.9709 26.3142 33.9748 26.3148C33.9757 26.315 33.9765 26.3151 33.9771 26.3152ZM34.6577 26.1492L37.8741 29.485C38.1334 29.1789 38.2874 28.6772 38.3475 28.0744C38.4095 27.4529 38.3712 26.7304 38.2509 26.0193C38.1306 25.3081 37.9287 24.6101 37.6646 24.0374C37.4097 23.4845 37.0991 23.0536 36.7527 22.8373C36.6649 23.1031 36.55 23.3914 36.4179 23.6411C36.2793 23.9029 36.1187 24.1284 35.946 24.2373C35.7678 24.3607 35.5251 24.4882 35.2723 24.6148C35.2031 24.6494 35.1332 24.684 35.0636 24.7185C34.8772 24.8106 34.6925 24.902 34.5289 24.9912C34.3027 25.1146 34.1234 25.2306 34.0359 25.3349C33.9923 25.3868 33.9768 25.4295 33.9814 25.4647C33.9852 25.494 34.0042 25.527 34.0519 25.5619C34.125 25.477 34.2413 25.3991 34.3649 25.3851C34.4346 25.3772 34.5068 25.3897 34.5733 25.4332C34.6395 25.4764 34.6969 25.5482 34.7412 25.654L34.742 25.656L34.7426 25.658C34.7921 25.8286 34.7694 25.9636 34.7031 26.0684C34.6963 26.0792 34.689 26.0896 34.6813 26.0997H34.7431L34.6577 26.1492Z" fill="black"/>
<path d="M36.9936 22.9688L37.0123 29.1094L36.9936 22.9688ZM36.6186 23.0906L36.6467 28.6594L36.6186 23.0906ZM36.2248 23.8969L36.2436 28.3219L36.2248 23.8969ZM35.8967 24.2063L35.9154 27.8719L35.8967 24.2063ZM35.5498 24.375V27.4688V24.375ZM35.1748 24.6188V27.0656V24.6188ZM34.8467 24.8156V26.6906V24.8156Z" fill="#FF9A08"/>
<path fill-rule="evenodd" clip-rule="evenodd" d="M36.9752 29.1096L36.9564 22.969L37.0314 22.9688L37.0502 29.1094L36.9752 29.1096ZM36.6096 28.6597L36.5814 23.0909L36.6564 23.0906L36.6846 28.6593L36.6096 28.6597ZM36.2064 28.3221L36.1877 23.8971L36.2627 23.8968L36.2814 28.3218L36.2064 28.3221ZM35.8783 27.8722L35.8596 24.2066L35.9346 24.2062L35.9533 27.8718L35.8783 27.8722ZM35.5127 27.4689V24.3751H35.5877V27.4689H35.5127ZM35.1377 27.0657V24.6189H35.2127V27.0657H35.1377ZM34.8096 26.6907V24.8157H34.8846V26.6907H34.8096Z" fill="black"/>
<path fill-rule="evenodd" clip-rule="evenodd" d="M34.5226 26.5034C34.5382 26.4898 34.5619 26.4914 34.5755 26.507L37.9505 30.3695C37.9641 30.3851 37.9625 30.4088 37.9469 30.4224C37.9313 30.436 37.9077 30.4344 37.894 30.4188L34.519 26.5563C34.5054 26.5407 34.507 26.517 34.5226 26.5034Z" fill="#FFDF00"/>
<path fill-rule="evenodd" clip-rule="evenodd" d="M38.0627 24.0325C38.0966 24.017 38.1367 24.0318 38.1522 24.0657L38.0909 24.0939C38.1522 24.0657 38.1522 24.0657 38.1522 24.0657L38.1526 24.0665L38.1535 24.0685L38.1569 24.076C38.1598 24.0827 38.1642 24.0925 38.1697 24.1053C38.1809 24.131 38.1969 24.1687 38.2167 24.2177C38.2564 24.3156 38.3113 24.4583 38.3727 24.6379C38.4955 24.9971 38.6441 25.5048 38.748 26.0991C38.9555 27.2862 38.9854 28.8267 38.2633 30.2187C38.2461 30.2518 38.2054 30.2647 38.1723 30.2476C38.1392 30.2304 38.1263 30.1896 38.1435 30.1566C38.8463 28.8017 38.82 27.2953 38.615 26.1223C38.5126 25.5365 38.366 25.0357 38.245 24.6816C38.1845 24.5045 38.1304 24.3643 38.0916 24.2684C38.0722 24.2205 38.0566 24.1837 38.0459 24.159C38.0405 24.1466 38.0364 24.1373 38.0336 24.1311L38.0305 24.1242L38.0297 24.1225L38.0296 24.1221C38.0296 24.1221 38.0296 24.1221 38.0296 24.1221M38.0627 24.0325C38.0288 24.0481 38.014 24.0883 38.0296 24.1221L38.0627 24.0325ZM33.942 24.9216C33.9663 24.9498 33.9632 24.9925 33.935 25.0168L33.9348 25.017L33.9337 25.018C33.9327 25.0188 33.9312 25.0202 33.9291 25.022C33.9251 25.0257 33.919 25.0313 33.9112 25.0386C33.8958 25.0531 33.8738 25.0745 33.8485 25.1012C33.7975 25.155 33.7339 25.2294 33.6808 25.3135C33.6272 25.3983 33.5873 25.4883 33.5783 25.574C33.5696 25.6567 33.5892 25.7367 33.6586 25.81C33.6843 25.837 33.6831 25.8797 33.6561 25.9054C33.629 25.931 33.5863 25.9299 33.5606 25.9028C33.4613 25.798 33.4317 25.6776 33.4441 25.5599C33.4561 25.4451 33.5077 25.3348 33.5666 25.2414C33.626 25.1474 33.696 25.0659 33.7505 25.0084C33.7779 24.9795 33.8016 24.9563 33.8187 24.9403C33.8272 24.9322 33.8341 24.926 33.8389 24.9217C33.8413 24.9195 33.8432 24.9178 33.8445 24.9166L33.8461 24.9153L33.8465 24.9149L33.8467 24.9147C33.8467 24.9147 33.8468 24.9147 33.8909 24.9658L33.8468 24.9147C33.875 24.8903 33.9176 24.8934 33.942 24.9216ZM34.2163 25.8433L34.2164 25.843L34.2172 25.8412C34.2178 25.8395 34.2189 25.8369 34.2204 25.8335C34.2233 25.8268 34.2277 25.8171 34.2335 25.8057C34.2451 25.7825 34.2612 25.7545 34.28 25.7308C34.2999 25.7058 34.3171 25.6931 34.329 25.6891C34.3343 25.6874 34.3432 25.6846 34.3623 25.7011C34.3905 25.7256 34.4331 25.7225 34.4575 25.6943C34.4819 25.6662 34.4789 25.6235 34.4507 25.5991C34.3995 25.5548 34.3416 25.5426 34.2863 25.561C34.2375 25.5773 34.2002 25.6144 34.1744 25.6468C34.1475 25.6805 34.1267 25.7175 34.1129 25.7451C34.1058 25.759 34.1003 25.7711 34.0966 25.7797C34.0947 25.7841 34.0932 25.7876 34.0922 25.7901L34.091 25.7931L34.0906 25.794L34.0905 25.7943L34.0905 25.7944C34.0905 25.7945 34.0904 25.7945 34.1534 25.8189L34.0905 25.7944C34.077 25.8292 34.0942 25.8684 34.129 25.8818C34.1638 25.8953 34.2029 25.878 34.2163 25.8433Z" fill="#FFDF00"/>
<path d="M38.8129 16.4439C39.0286 16.2564 39.1504 16.1345 39.2911 16.1627C39.4317 16.1814 39.6192 16.1627 39.7598 16.1252C40.1288 16.0395 40.511 16.0267 40.8848 16.0877C40.9786 16.1064 41.1192 16.1533 41.3161 16.322C41.5129 16.4908 41.8036 16.7908 41.7098 17.597C41.6161 18.4033 41.6442 18.7502 41.5973 19.2095C41.5223 20.0064 41.3442 20.6627 41.0348 20.6158C41.4567 21.3658 41.5036 22.022 41.7848 22.5377C42.0661 23.0533 42.2348 24.1127 42.1317 25.2564C42.0192 26.4095 41.7192 28.9783 42.6286 30.7127C42.4786 30.8158 42.1129 30.7127 41.7848 30.3658C41.4567 30.0189 41.3161 30.0283 41.0536 30.2345C40.2286 30.8627 39.4598 31.622 38.3254 30.8627C38.0629 30.6939 37.9879 30.4877 38.1754 29.9533C38.6442 28.6408 38.8786 26.822 38.8036 25.9783V16.4439H38.8129Z" fill="#008021"/>
<path fill-rule="evenodd" clip-rule="evenodd" d="M39.7626 16.1382C39.6207 16.176 39.4314 16.195 39.2886 16.176L39.2877 16.1759C39.2228 16.1629 39.1611 16.184 39.0874 16.2335C39.0268 16.2742 38.9599 16.3328 38.8782 16.4044C38.8601 16.4203 38.8412 16.4368 38.8216 16.4539L38.8176 16.4574H38.817V25.9771C38.8546 26.4006 38.8146 27.0672 38.7067 27.7915C38.5988 28.5163 38.4229 29.3 38.1881 29.9574C38.0946 30.224 38.0675 30.4061 38.0949 30.5417C38.122 30.6761 38.203 30.767 38.3325 30.8502L38.3327 30.8504C38.6147 31.0392 38.8733 31.1331 39.1151 31.1586C39.3569 31.1841 39.5829 31.1413 39.7997 31.0552C40.1574 30.9133 40.489 30.6547 40.8258 30.392C40.8983 30.3354 40.971 30.2787 41.0443 30.2228C41.1757 30.1197 41.2807 30.0621 41.3959 30.0782C41.5103 30.0942 41.6304 30.1821 41.7944 30.3555C41.9573 30.5277 42.1289 30.6388 42.2778 30.6942C42.4203 30.7472 42.5387 30.7481 42.6095 30.7071C42.158 29.8391 42.0068 28.7659 41.9823 27.7663C41.9596 26.8428 42.0451 25.9807 42.1028 25.3999C42.1078 25.3493 42.1126 25.3007 42.1171 25.2545C42.1686 24.6837 42.1522 24.134 42.0879 23.6628C42.0235 23.1914 41.9114 22.7995 41.7719 22.5438C41.6461 22.3131 41.5669 22.0545 41.481 21.7739C41.4703 21.739 41.4595 21.7037 41.4485 21.6682C41.349 21.3461 41.2322 20.9957 41.022 20.6221L41.0078 20.597L41.0363 20.6013C41.1077 20.6121 41.1724 20.5829 41.2317 20.5178C41.2913 20.4524 41.3441 20.3519 41.3901 20.2237C41.4821 19.9676 41.5453 19.6057 41.5827 19.2076L41.5827 19.2075C41.6017 19.0219 41.6083 18.8548 41.6158 18.6677C41.6176 18.6238 41.6193 18.5788 41.6214 18.5322C41.6319 18.287 41.6483 17.9984 41.6953 17.5948C41.7419 17.1936 41.6928 16.9196 41.6084 16.7255C41.5241 16.5314 41.4041 16.4159 41.3063 16.3321C41.1114 16.165 40.973 16.1192 40.8817 16.1009C40.5098 16.0403 40.1297 16.053 39.7626 16.1382ZM38.8071 16.4293C38.825 16.4137 38.8423 16.3985 38.8591 16.3838C38.9408 16.3121 39.0094 16.252 39.0717 16.2102C39.1479 16.159 39.2173 16.1333 39.2928 16.1482C39.4311 16.1665 39.6165 16.1481 39.7556 16.111L39.756 16.1109C40.1268 16.0248 40.5108 16.012 40.8865 16.0732L40.887 16.0733C40.9832 16.0925 41.126 16.1405 41.3246 16.3108C41.4238 16.3957 41.5475 16.5146 41.6342 16.7143C41.721 16.9139 41.7703 17.1931 41.7232 17.5981C41.6764 18.0008 41.66 18.2887 41.6495 18.5334C41.6475 18.5798 41.6457 18.6246 41.6439 18.6685C41.6365 18.8557 41.6298 19.0238 41.6107 19.2103C41.5732 19.6091 41.5098 19.9738 41.4166 20.2332C41.3701 20.3629 41.3157 20.4674 41.2525 20.5368C41.196 20.5988 41.1316 20.6335 41.0595 20.6316C41.263 20.9992 41.3778 21.344 41.4754 21.6599C41.4864 21.6955 41.4972 21.7307 41.5079 21.7655C41.5939 22.0466 41.6722 22.3023 41.7966 22.5303C41.9384 22.7903 42.0512 23.1859 42.1157 23.659C42.1803 24.1323 42.1968 24.6842 42.1451 25.2571L42.1451 25.2572C42.1406 25.3034 42.1358 25.352 42.1308 25.4026C42.0731 25.9835 41.9878 26.8439 42.0104 27.7656C42.035 28.7679 42.1872 29.8412 42.6404 30.7055L42.6462 30.7166L42.6359 30.7237C42.5552 30.7792 42.4205 30.7773 42.268 30.7206C42.1145 30.6635 41.9393 30.5496 41.774 30.3749C41.6099 30.2014 41.4957 30.1206 41.3921 30.1061C41.2894 30.0917 41.1928 30.142 41.0617 30.245L41.0615 30.2451C40.9888 30.3004 40.9165 30.3569 40.8443 30.4133C40.5075 30.676 40.1719 30.9378 39.8101 31.0814C39.5899 31.1688 39.3594 31.2127 39.1122 31.1866C38.8651 31.1605 38.6022 31.0647 38.3171 30.8738C38.1841 30.7883 38.0965 30.6918 38.0673 30.5473C38.0384 30.404 38.0676 30.2158 38.1616 29.948C38.3956 29.2929 38.5712 28.5109 38.6789 27.7873C38.7867 27.0636 38.8263 26.3992 38.789 25.9789L38.7889 25.9777L38.7889 16.4293H38.8071Z" fill="black"/>
<path d="M39.5905 15.6367C39.6652 15.8432 39.6619 16.07 39.5811 16.2742C39.4873 16.4992 39.4592 16.743 39.628 17.0617C39.8811 16.6867 40.2467 16.7617 40.4717 16.5555C40.678 16.3398 40.7248 16.1336 40.8842 16.0867C40.7248 15.9461 40.4811 15.7867 40.528 15.3836C40.5842 14.9711 41.1561 14.6336 40.6405 14.0148C40.5634 13.9158 40.4627 13.8377 40.3476 13.7876C40.2325 13.7376 40.1067 13.7172 39.9816 13.7284C39.8566 13.7396 39.7364 13.782 39.6321 13.8517C39.5277 13.9214 39.4425 14.0162 39.3842 14.1273C39.3561 14.2023 39.403 14.3523 39.3186 14.4461C39.2623 14.5211 39.1967 14.5867 39.1217 14.6336C39.0748 14.6711 39.0467 14.718 39.103 14.7836C39.1217 14.8117 39.1592 14.8117 39.1967 14.8211L39.1217 14.9617C39.0936 14.9898 39.103 15.018 39.1405 15.0555C39.0936 15.1773 39.178 15.1961 39.1217 15.2898C39.0655 15.3742 39.0092 15.4773 39.178 15.5711C39.2342 15.5992 39.4592 15.6461 39.5905 15.6367ZM37.4811 17.793C37.1811 17.868 36.6936 17.7367 36.328 17.7742C36.1592 17.793 36.028 17.7086 36.0467 17.5492C36.0748 17.3898 36.103 17.1367 36.0655 16.9117C36.0689 16.427 36.1912 15.9506 36.4217 15.5242C36.6071 15.187 36.7279 14.8182 36.778 14.4367C36.778 14.2586 36.7967 14.0711 36.9467 13.968C37.0592 13.9023 37.078 13.8367 37.1155 13.7805C37.2092 13.6398 37.303 13.6117 37.303 13.6867C37.3123 13.7336 37.303 13.7805 37.2561 13.8367C37.3498 13.7617 37.5186 13.668 37.5561 13.6492C37.5936 13.6117 37.7811 13.4805 37.7905 13.6117C37.8655 13.5742 37.9217 13.5742 37.9405 13.6117C37.9592 13.6586 37.9405 13.6773 37.9123 13.7055C37.9686 13.7055 38.0248 13.7898 37.9123 13.8742C37.978 13.8555 38.0342 13.9492 37.9311 14.0336C37.8373 14.1273 37.7061 14.1836 37.678 14.2586C37.6405 14.3336 37.378 14.5305 37.2748 14.568C37.1717 14.6148 37.1623 14.6711 37.1623 14.8211C37.1623 16.4898 36.9748 16.3492 36.9748 16.7617C36.9748 16.8555 36.9467 16.9586 37.0498 16.9305C37.1623 16.893 37.3217 16.8461 37.4811 16.8461V17.7836V17.793ZM37.5467 21.3742C38.0342 21.1305 38.5967 21.0367 38.8873 20.9617C39.2241 20.854 39.5505 20.7159 39.8623 20.5492C40.0967 20.4273 40.2842 20.268 40.4155 20.2211C40.5692 20.1722 40.6974 20.0643 40.7717 19.9211C41.1411 19.2984 41.3624 18.5992 41.4186 17.8773C41.4186 17.5023 41.3248 17.0711 40.9498 17.3711C40.5674 17.7008 40.2821 18.1287 40.1248 18.6086C39.9748 19.2086 39.8436 19.3492 39.8155 19.4617C39.778 19.5836 39.6655 19.5836 39.5155 19.6117C39.0418 19.6855 38.5992 19.8938 38.2405 20.2117C37.815 20.5266 37.3704 20.8146 36.9092 21.0742C36.5623 21.2711 36.4967 21.2898 36.4217 21.4492C36.3467 21.5992 36.2717 21.7305 36.2155 21.7867C36.1405 21.8617 36.1217 21.9367 36.1405 22.0305C36.1498 22.1055 36.1217 22.4242 36.1123 22.5367C36.1123 22.6492 36.1405 22.668 36.178 22.6773C36.2155 22.6773 36.2717 22.6586 36.2998 22.5273C36.2811 22.6586 36.4592 22.6211 36.4686 22.518C36.4686 22.6586 36.6561 22.5742 36.6561 22.443C36.6561 22.5367 36.8155 22.4711 36.8155 22.443C36.853 22.3211 36.8811 22.2086 36.928 22.1242C36.9842 21.993 37.0498 21.8242 37.1811 21.7492C37.3217 21.6367 37.2561 21.5242 37.5467 21.3742ZM41.053 30.2336C41.0811 30.3555 41.1467 30.4867 41.1655 30.5711C41.1842 30.6461 41.1467 30.6742 41.128 30.7211C41.002 30.9823 40.9136 31.2601 40.8655 31.5461C40.8655 31.6586 40.7717 31.7711 40.7436 31.8461C40.6967 31.9211 40.7155 31.9867 40.8186 32.0617C40.8561 32.0898 41.0061 32.043 41.0155 31.968C41.0811 32.0242 41.1655 32.0055 41.2123 31.9211C41.2686 31.968 41.353 31.9398 41.3998 31.8555C41.4467 31.8836 41.5217 31.8273 41.5498 31.7805C41.6248 31.818 41.6998 31.7805 41.6998 31.6305C41.6998 31.593 41.728 31.5367 41.7467 31.5086C41.7655 31.4711 41.7748 31.4055 41.7748 31.3492C41.7748 31.2836 41.803 31.1617 41.8592 31.0867C41.9155 30.993 41.9998 30.8523 41.9623 30.7117C41.9248 30.5805 41.8686 30.5898 41.8217 30.4117C41.6998 30.2805 41.5405 30.1117 41.3717 30.093C41.203 30.093 41.1092 30.1961 41.053 30.2336ZM37.9686 31.1617C38.128 31.3117 38.4655 31.3117 38.6998 31.068C38.6155 31.0305 38.4186 30.9367 38.3436 30.8805C38.239 30.9987 38.1114 31.0944 37.9686 31.1617Z" fill="#FFE1CF"/>
<path fill-rule="evenodd" clip-rule="evenodd" d="M37.6897 13.5815C37.6391 13.6017 37.5845 13.6427 37.567 13.6602L37.5653 13.6619L37.5631 13.663C37.526 13.6816 37.3583 13.7748 37.2658 13.8488L37.2449 13.8275C37.2893 13.7742 37.297 13.7318 37.2886 13.69L37.2883 13.6886V13.6871C37.2883 13.671 37.2834 13.6653 37.2799 13.6634C37.2757 13.6611 37.2666 13.66 37.2507 13.6669C37.2194 13.6804 37.1745 13.7198 37.1283 13.7891C37.1211 13.7999 37.1145 13.8114 37.1076 13.8233C37.08 13.871 37.0479 13.9268 36.9551 13.981C36.8126 14.0793 36.7933 14.2585 36.7933 14.4371V14.4381L36.7932 14.439C36.7428 14.8224 36.6215 15.1929 36.4352 15.5318C36.2061 15.9556 36.0845 16.4291 36.0808 16.9109C36.1184 17.1379 36.0901 17.3921 36.0619 17.5517C36.0533 17.6263 36.0795 17.6817 36.1264 17.7169C36.174 17.7526 36.2449 17.7687 36.3267 17.7597L36.3268 17.7596C36.4946 17.7424 36.6875 17.7604 36.8747 17.7779C36.8935 17.7796 36.9122 17.7814 36.9308 17.7831C37.1313 17.8014 37.3208 17.8148 37.4664 17.7815V16.8616C37.3146 16.8644 37.1636 16.9088 37.0549 16.9451L37.0541 16.9453C37.0269 16.9528 37.0043 16.9527 36.9872 16.9423C36.9698 16.9318 36.9625 16.9134 36.9592 16.8947C36.956 16.8759 36.9564 16.8536 36.9574 16.8313C36.9577 16.8249 36.958 16.8185 36.9584 16.8121C36.9593 16.7954 36.9602 16.7787 36.9602 16.7621C36.9602 16.6575 36.9721 16.5878 36.9899 16.5159C36.9958 16.4921 37.0023 16.4683 37.0092 16.443C37.0231 16.3919 37.0386 16.335 37.0542 16.2598C37.1008 16.0362 37.1477 15.6554 37.1477 14.8214C37.1477 14.747 37.1498 14.6925 37.1663 14.6507C37.1834 14.6072 37.2153 14.5791 37.269 14.5547L37.27 14.5542C37.3193 14.5363 37.4091 14.479 37.4923 14.4158C37.5336 14.3843 37.5727 14.3519 37.6037 14.3227C37.6349 14.2935 37.6563 14.269 37.6646 14.2529C37.6728 14.2315 37.6878 14.2124 37.7061 14.1946C37.7246 14.1765 37.7473 14.159 37.7714 14.1414C37.7803 14.1349 37.7894 14.1283 37.7986 14.1217C37.8399 14.0921 37.8834 14.0608 37.9208 14.0233L37.9214 14.0228L37.9219 14.0223C37.9705 13.9826 37.9781 13.9439 37.971 13.9198C37.9637 13.8955 37.9411 13.8821 37.9168 13.889L37.9037 13.8626C37.9573 13.8224 37.9666 13.7856 37.9613 13.7618C37.9558 13.7369 37.9337 13.7208 37.9127 13.7208H37.8765L37.9021 13.6952C37.9168 13.6805 37.926 13.671 37.9305 13.6602C37.9343 13.6509 37.9353 13.6389 37.9271 13.6183C37.921 13.6064 37.9086 13.5989 37.8869 13.5989C37.8644 13.5989 37.834 13.6073 37.7975 13.6255L37.7774 13.6355L37.7758 13.6131C37.7748 13.5985 37.7714 13.589 37.7672 13.5829C37.7632 13.5771 37.758 13.5736 37.7514 13.5717C37.7369 13.5676 37.7155 13.5712 37.6897 13.5815ZM37.8025 13.59C37.8002 13.5809 37.7967 13.5729 37.792 13.566C37.7837 13.554 37.7725 13.5465 37.7596 13.5429C37.7351 13.5359 37.7056 13.5428 37.6786 13.5536C37.6253 13.5749 37.5691 13.6165 37.5476 13.6372C37.5142 13.6542 37.4012 13.7169 37.3096 13.7795C37.3225 13.7472 37.3242 13.7165 37.3183 13.6856C37.318 13.6648 37.3111 13.6465 37.2945 13.6372C37.2782 13.6281 37.258 13.631 37.2387 13.6393C37.1997 13.6562 37.1509 13.7012 37.1033 13.7725C37.0951 13.7848 37.0879 13.7972 37.0807 13.8098C37.0534 13.8568 37.0253 13.9053 36.9395 13.9554L36.9386 13.956C36.7817 14.0638 36.7634 14.2588 36.7633 14.4361C36.7134 14.8154 36.5932 15.1821 36.4089 15.5173L36.4089 15.5174C36.1772 15.946 36.0543 16.4248 36.0508 16.912L36.0508 16.9133L36.051 16.9145C36.0881 17.137 36.0603 17.3882 36.0323 17.547L36.0322 17.5478C36.0222 17.6324 36.0522 17.6988 36.1084 17.7409C36.1638 17.7825 36.243 17.7991 36.3299 17.7895M37.0458 16.9165C37.0218 16.9229 37.0093 16.9207 37.0027 16.9167C36.9963 16.9128 36.9914 16.9049 36.9888 16.8896C36.9862 16.8744 36.9864 16.8551 36.9874 16.8326C36.9877 16.8268 36.988 16.8207 36.9883 16.8145C36.9892 16.7975 36.9902 16.7796 36.9902 16.7621C36.9902 16.6603 37.0017 16.593 37.019 16.5231C37.0247 16.5004 37.031 16.4771 37.0378 16.4522C37.0518 16.4006 37.0678 16.3419 37.0836 16.2659C37.1308 16.0395 37.1777 15.6563 37.1777 14.8214C37.1777 14.7459 37.1802 14.6973 37.1942 14.6617C37.2075 14.628 37.2318 14.6046 37.2809 14.5822C37.3349 14.5624 37.4275 14.5027 37.5104 14.4396C37.5523 14.4078 37.5923 14.3746 37.6243 14.3446C37.6557 14.315 37.681 14.2871 37.6917 14.2657L37.6921 14.265L37.6924 14.2642C37.6983 14.2484 37.7101 14.2326 37.727 14.2161C37.7439 14.1996 37.7652 14.1831 37.7891 14.1656C37.7976 14.1594 37.8064 14.1531 37.8154 14.1466C37.8566 14.117 37.9023 14.0842 37.9415 14.0451C37.9956 14.0005 38.0113 13.9504 37.9997 13.9113C37.9924 13.8866 37.9743 13.8679 37.9515 13.8606C37.9868 13.8242 37.9977 13.7872 37.9906 13.7553C37.9845 13.7278 37.9653 13.7067 37.942 13.6968C37.9486 13.6892 37.9543 13.6809 37.9582 13.6717C37.966 13.653 37.9651 13.6324 37.9547 13.6065L37.9542 13.6054C37.9415 13.58 37.9164 13.5689 37.8869 13.5689C37.8625 13.5689 37.8338 13.5763 37.8025 13.59C37.8041 13.5965 37.8052 13.6035 37.8058 13.611M37.942 13.6968C37.9327 13.6929 37.9227 13.6908 37.9127 13.6908V13.7058L37.9233 13.7164L37.9245 13.7152C37.9304 13.7093 37.9365 13.7032 37.942 13.6968ZM37.9515 13.8606C37.9384 13.8563 37.9237 13.8558 37.9086 13.8601L37.9127 13.8746L37.9217 13.8866C37.9331 13.878 37.943 13.8693 37.9515 13.8606ZM37.9415 14.0451C37.9417 14.0449 37.9419 14.0447 37.942 14.0446L37.9314 14.0339L37.9409 14.0456C37.9411 14.0454 37.9413 14.0452 37.9415 14.0451ZM37.2809 14.5822C37.281 14.5821 37.2812 14.5821 37.2814 14.582L37.2752 14.5683L37.2803 14.5824C37.2805 14.5823 37.2807 14.5823 37.2809 14.5822ZM37.0458 16.9165C37.046 16.9164 37.0461 16.9164 37.0462 16.9164L37.0502 16.9308L37.0454 16.9166C37.0456 16.9165 37.0457 16.9165 37.0458 16.9165ZM39.9807 13.7138C40.1082 13.7024 40.2365 13.7232 40.3539 13.7742C40.4712 13.8252 40.5739 13.9048 40.6525 14.0058C40.7826 14.162 40.845 14.3015 40.8635 14.43C40.882 14.5585 40.8563 14.6743 40.8129 14.7825C40.7799 14.8647 40.7363 14.9434 40.694 15.0198C40.6808 15.0435 40.6679 15.0669 40.6553 15.0902C40.602 15.1893 40.5569 15.2856 40.5432 15.3858C40.5202 15.5836 40.5685 15.7205 40.6414 15.8254C40.7006 15.9104 40.7758 15.9744 40.845 16.0333C40.862 16.0477 40.8786 16.0618 40.8945 16.0758L40.9148 16.0938L40.8888 16.1015C40.8148 16.1232 40.7658 16.1821 40.7083 16.2666C40.6984 16.2812 40.6882 16.2965 40.6777 16.3124C40.6277 16.3876 40.569 16.4762 40.4829 16.5662L40.4822 16.5669C40.4241 16.6202 40.3572 16.655 40.2864 16.6831C40.2436 16.7002 40.1984 16.7152 40.1528 16.7303C40.1238 16.7399 40.0946 16.7495 40.0658 16.7598C39.916 16.8132 39.7648 16.8867 39.6407 17.0705L39.6268 17.0912L39.6151 17.0691C39.5297 16.9079 39.4938 16.765 39.4914 16.6334C39.489 16.5019 39.5201 16.3827 39.5675 16.2689C39.6456 16.0716 39.6501 15.8529 39.5804 15.6527C39.5144 15.6558 39.4295 15.6464 39.3538 15.6331C39.3136 15.626 39.2757 15.6177 39.2442 15.6094C39.213 15.6011 39.1871 15.5926 39.1716 15.5849L39.171 15.5846C39.084 15.5362 39.0508 15.4829 39.0508 15.4273C39.0508 15.3742 39.0816 15.3239 39.1094 15.2822C39.1223 15.2606 39.1265 15.2443 39.1271 15.2305C39.1278 15.2162 39.1246 15.2034 39.1204 15.1873L39.1202 15.1863C39.1161 15.1708 39.1115 15.1529 39.111 15.131C39.1106 15.1106 39.1138 15.0875 39.1235 15.0595C39.1077 15.0427 39.0962 15.026 39.0922 15.0088C39.0874 14.9881 39.0942 14.9695 39.1098 14.9531L39.1745 14.8319C39.1726 14.8315 39.1707 14.8311 39.1687 14.8308L39.1664 14.8303C39.1573 14.8286 39.1479 14.8267 39.139 14.8242C39.1214 14.8191 39.1036 14.8108 39.0914 14.793C39.0617 14.7581 39.0521 14.7255 39.0594 14.6949C39.0665 14.6653 39.0885 14.6416 39.1127 14.6222L39.1134 14.6217L39.1141 14.6212C39.1871 14.5756 39.2515 14.5114 39.3069 14.4374L39.3073 14.4369L39.3078 14.4364C39.3463 14.3937 39.3555 14.3374 39.3579 14.2794C39.3584 14.2651 39.3586 14.2508 39.3587 14.2367L39.3587 14.2331C39.3588 14.2203 39.3589 14.2076 39.3593 14.1955C39.3602 14.1692 39.3626 14.1436 39.3705 14.1224L39.3708 14.1216L39.3713 14.1207C39.4307 14.0073 39.5176 13.9107 39.6241 13.8396C39.7305 13.7685 39.8531 13.7252 39.9807 13.7138ZM39.5908 15.6371L39.6049 15.632C39.6809 15.8419 39.6775 16.0724 39.5954 16.2801L39.5953 16.2803C39.549 16.3915 39.5191 16.5066 39.5214 16.6329C39.5236 16.7532 39.555 16.8846 39.6302 17.0331C39.7566 16.8568 39.9087 16.784 40.0557 16.7315C40.086 16.7207 40.1157 16.7109 40.1449 16.7013C40.1896 16.6865 40.2331 16.6721 40.2753 16.6553C40.3442 16.6278 40.4073 16.5948 40.4616 16.5451C40.5454 16.4574 40.6024 16.3714 40.6523 16.2964C40.6629 16.2803 40.6733 16.2647 40.6835 16.2497C40.735 16.174 40.784 16.1116 40.8554 16.0816C40.8461 16.0736 40.8365 16.0655 40.8268 16.0572C40.7574 15.9982 40.6784 15.9311 40.6168 15.8425C40.5397 15.7317 40.4895 15.5875 40.5134 15.3822L40.5134 15.3819C40.5279 15.2759 40.5754 15.1754 40.6289 15.076C40.6418 15.052 40.6551 15.0281 40.6683 15.0041C40.7105 14.9281 40.7529 14.8517 40.7851 14.7713C40.8272 14.6663 40.8513 14.5559 40.8338 14.4342C40.8163 14.3125 40.7569 14.1779 40.6293 14.0248L40.629 14.0244C40.5534 13.9273 40.4547 13.8508 40.3419 13.8017C40.2291 13.7527 40.1058 13.7327 39.9833 13.7437C39.8608 13.7547 39.743 13.7962 39.6407 13.8645C39.5387 13.9326 39.4554 14.0252 39.3983 14.1338C39.3924 14.15 39.3902 14.171 39.3893 14.1965C39.3889 14.2082 39.3888 14.2205 39.3887 14.2334L39.3887 14.2369C39.3886 14.251 39.3884 14.2657 39.3878 14.2806C39.3855 14.3397 39.376 14.405 39.3305 14.456C39.2738 14.5316 39.2072 14.5982 39.1308 14.6462C39.1084 14.6642 39.0932 14.6824 39.0886 14.7019C39.0842 14.7204 39.0886 14.7437 39.1147 14.7742L39.1153 14.7749L39.1158 14.7756C39.1223 14.7854 39.1324 14.791 39.1473 14.7953C39.1548 14.7974 39.1629 14.7991 39.1721 14.8009L39.1745 14.8013C39.1828 14.8029 39.1917 14.8047 39.2007 14.8069L39.2193 14.8116L39.1342 14.9711L39.1327 14.9727C39.1213 14.984 39.1194 14.993 39.1214 15.0021C39.124 15.013 39.133 15.0268 39.1514 15.0452L39.1583 15.0521L39.1548 15.0612C39.1437 15.0901 39.1406 15.1121 39.141 15.1304C39.1414 15.1487 39.1453 15.1638 39.1494 15.1797L39.1495 15.1798L39.1495 15.18C39.1536 15.1956 39.1579 15.2125 39.1571 15.2318C39.1562 15.2516 39.15 15.2728 39.1349 15.2979L39.1346 15.2985C39.1061 15.3411 39.0808 15.3844 39.0808 15.4273C39.0808 15.4678 39.1038 15.5128 39.1853 15.5582C39.198 15.5644 39.2212 15.5723 39.2519 15.5804C39.2825 15.5885 39.3195 15.5966 39.359 15.6035C39.4383 15.6175 39.5259 15.6267 39.5897 15.6221L39.5908 15.6371ZM41.4132 17.5958C41.428 17.6853 41.4339 17.7834 41.4339 17.8777V17.8789C41.3776 18.6028 41.1556 19.3042 40.7852 19.9287C40.709 20.0752 40.5779 20.1856 40.4206 20.2357C40.3571 20.2584 40.2792 20.3087 40.1862 20.3699C40.1816 20.3729 40.1769 20.376 40.1723 20.3791C40.0832 20.4378 39.9818 20.5045 39.8697 20.5628C39.557 20.7299 39.2299 20.8683 38.8923 20.9764L38.8914 20.9766C38.8312 20.9922 38.7597 21.0084 38.6798 21.0266C38.3718 21.0967 37.9395 21.1952 37.5539 21.3879C37.4108 21.4618 37.3567 21.5256 37.3208 21.584C37.3124 21.5976 37.3049 21.6112 37.2973 21.625C37.2723 21.6704 37.2469 21.7164 37.1908 21.7613L37.1899 21.762L37.1889 21.7626C37.1265 21.7982 37.0789 21.8567 37.0397 21.9236C37.005 21.9827 36.9776 22.0472 36.9521 22.1069C36.9488 22.1149 36.9454 22.1227 36.9421 22.1305L36.9418 22.1312L36.9414 22.1319C36.9046 22.1981 36.8796 22.2822 36.8516 22.3765C36.8448 22.3991 36.8379 22.4224 36.8306 22.4461C36.8296 22.4547 36.8239 22.4616 36.8195 22.4659C36.8139 22.4714 36.8065 22.4767 36.7984 22.4814C36.7821 22.4908 36.7607 22.4993 36.7391 22.5037C36.718 22.5081 36.6944 22.509 36.6753 22.5006C36.671 22.4986 36.6669 22.4963 36.6631 22.4933C36.6465 22.5423 36.6075 22.58 36.5685 22.5966C36.5428 22.6075 36.5141 22.6104 36.4909 22.5975C36.4801 22.5914 36.4715 22.5825 36.4653 22.571C36.4442 22.6019 36.4088 22.6213 36.376 22.6258C36.3514 22.6291 36.3256 22.6244 36.3071 22.607C36.303 22.6032 36.2994 22.5989 36.2963 22.5941C36.284 22.6255 36.2692 22.6476 36.2531 22.6628C36.2274 22.6872 36.1999 22.6927 36.1783 22.6927H36.1765L36.1747 22.6922C36.1542 22.6871 36.1332 22.6786 36.1185 22.6537C36.1047 22.6301 36.0977 22.5939 36.0977 22.5371V22.5358C36.0984 22.5274 36.0992 22.5178 36.1001 22.5072C36.1052 22.4473 36.1128 22.3564 36.1188 22.2689C36.1223 22.2174 36.1252 22.1672 36.1267 22.1252C36.1282 22.0833 36.1281 22.0507 36.126 22.0332C36.1164 21.9848 36.1162 21.9403 36.1288 21.8977C36.1413 21.8549 36.1663 21.8153 36.2052 21.7765C36.232 21.7497 36.264 21.7042 36.299 21.6458C36.3339 21.5877 36.3712 21.5178 36.4086 21.443C36.447 21.3614 36.4837 21.3148 36.5552 21.2639C36.6066 21.2273 36.6768 21.188 36.779 21.1308C36.8157 21.1102 36.8566 21.0874 36.9022 21.0615C37.3626 20.8023 37.8066 20.5147 38.2314 20.2004C38.5921 19.8808 39.0371 19.6715 39.5133 19.5973C39.534 19.5934 39.5547 19.5899 39.5744 19.5866C39.5898 19.5841 39.6045 19.5816 39.618 19.5791C39.65 19.5733 39.6783 19.5671 39.7029 19.5581C39.7273 19.5492 39.7476 19.5379 39.7638 19.5222C39.7798 19.5066 39.7926 19.4862 39.8014 19.458C39.8088 19.4283 39.823 19.3972 39.8414 19.3591C39.8453 19.3511 39.8495 19.3426 39.8538 19.3338C39.8702 19.3004 39.8894 19.2611 39.9111 19.2122C39.9658 19.0889 40.0358 18.9045 40.1106 18.6053L40.1109 18.6043C40.269 18.1218 40.5558 17.6916 40.9404 17.3601L40.9408 17.3597C41.0357 17.2838 41.1156 17.2518 41.1826 17.2563C41.2507 17.2608 41.3013 17.3025 41.338 17.3637C41.3746 17.4247 41.3984 17.5065 41.4132 17.5958ZM36.6414 22.4433H36.6714C36.6714 22.4529 36.6735 22.4593 36.6761 22.4636C36.6786 22.4678 36.6823 22.4709 36.6874 22.4731C36.6981 22.4778 36.7144 22.4782 36.7331 22.4743C36.7514 22.4706 36.7698 22.4632 36.7834 22.4554C36.7902 22.4514 36.7953 22.4477 36.7984 22.4446C36.7998 22.4432 36.8005 22.4423 36.8008 22.4418V22.4411L36.8015 22.4389C36.8087 22.4155 36.8155 22.3924 36.8223 22.3696C36.8503 22.2752 36.8764 22.1873 36.9148 22.118C36.918 22.1105 36.9212 22.1029 36.9245 22.0952C36.9499 22.0357 36.9781 21.9693 37.0138 21.9084C37.0541 21.8397 37.1046 21.7765 37.173 21.7371C37.2233 21.6966 37.2451 21.6571 37.2695 21.6131C37.2774 21.5987 37.2856 21.5838 37.2952 21.5683C37.3343 21.5048 37.3927 21.4374 37.5402 21.3612L37.5471 21.3746L37.5403 21.3612C37.9297 21.1665 38.367 21.067 38.675 20.9969C38.754 20.9789 38.8245 20.9629 38.8835 20.9477C39.2193 20.8402 39.5447 20.7025 39.8556 20.5363L39.8558 20.5363C39.9665 20.4787 40.0667 20.4127 40.1561 20.3538C40.1606 20.3508 40.1652 20.3478 40.1697 20.3449C40.2617 20.2843 40.3431 20.2315 40.4108 20.2073L40.4113 20.2071C40.5613 20.1595 40.6862 20.0542 40.7587 19.9145L40.7591 19.9138C41.1272 19.2932 41.3478 18.5964 41.4039 17.8771C41.4039 17.7841 41.3981 17.6879 41.3836 17.6007C41.3691 17.513 41.3461 17.4354 41.3123 17.3792C41.2787 17.3232 41.2356 17.2899 41.1806 17.2862C41.1247 17.2825 41.0523 17.309 40.9598 17.383C40.5796 17.7108 40.296 18.1361 40.1396 18.6131C40.0645 18.9136 39.9939 19.0994 39.9385 19.2244C39.9166 19.2738 39.897 19.3138 39.8806 19.3472C39.8763 19.356 39.8723 19.3643 39.8684 19.3722C39.8498 19.4107 39.837 19.4393 39.8304 19.4657L39.8302 19.4665C39.8201 19.4991 39.8048 19.5242 39.7846 19.5437C39.7645 19.5632 39.7402 19.5765 39.7131 19.5863C39.6861 19.5961 39.6558 19.6028 39.6234 19.6087C39.6085 19.6114 39.5937 19.6138 39.5785 19.6164C39.5594 19.6196 39.5398 19.6228 39.5186 19.6268L39.5181 19.6269C39.0473 19.7002 38.6074 19.9072 38.2508 20.2233L38.2498 20.2242C37.8239 20.5394 37.3787 20.8277 36.9169 21.0876C36.8704 21.114 36.829 21.1372 36.7921 21.1579C36.6907 21.2146 36.6226 21.2527 36.5726 21.2884C36.5057 21.3359 36.4722 21.3783 36.4356 21.456L36.4355 21.4563C36.3979 21.5315 36.3602 21.6021 36.3248 21.6612C36.2895 21.72 36.2559 21.7682 36.2264 21.7977C36.1903 21.8338 36.1684 21.8692 36.1575 21.9061C36.1467 21.9431 36.1465 21.9827 36.1555 22.0279L36.1557 22.029C36.1582 22.0491 36.1581 22.0842 36.1567 22.1263C36.1552 22.1687 36.1523 22.2193 36.1487 22.2709C36.1428 22.3587 36.1351 22.4499 36.13 22.5098C36.1292 22.5201 36.1284 22.5294 36.1277 22.5377C36.1277 22.5929 36.1348 22.6222 36.1444 22.6385C36.1528 22.6528 36.1641 22.6585 36.1801 22.6627C36.1957 22.6624 36.2143 22.6582 36.2324 22.641C36.2517 22.6228 36.2718 22.5886 36.2855 22.5246L36.315 22.5298C36.3108 22.5595 36.318 22.5762 36.3276 22.5852C36.3375 22.5945 36.3532 22.5986 36.372 22.596C36.4104 22.5908 36.4501 22.5598 36.454 22.517L36.4839 22.5183C36.4839 22.5503 36.4944 22.5651 36.5055 22.5713C36.5175 22.578 36.5357 22.578 36.5568 22.569C36.5992 22.551 36.6414 22.5019 36.6414 22.4433ZM41.0777 30.1969C41.1355 30.1513 41.2283 30.0783 41.3721 30.0783H41.3729L41.3737 30.0784C41.4623 30.0882 41.547 30.1372 41.624 30.1988C41.7012 30.2605 41.7722 30.3363 41.833 30.4019L41.8356 30.4046L41.8366 30.4083C41.8595 30.4954 41.8844 30.536 41.9083 30.5712C41.9105 30.5745 41.9127 30.5777 41.9149 30.5809C41.9372 30.6135 41.9594 30.6458 41.9771 30.7079L41.9772 30.7082C41.997 30.7825 41.9844 30.8562 41.9604 30.9223C41.9364 30.9881 41.9007 31.0477 41.8727 31.0944L41.872 31.0955L41.8716 31.0961C41.8449 31.1316 41.8244 31.179 41.8107 31.226C41.7969 31.2731 41.7902 31.3185 41.7902 31.3496C41.7902 31.4066 41.7808 31.475 41.7605 31.5157L41.7601 31.5165L41.7595 31.5173C41.7507 31.5305 41.7394 31.5508 41.7304 31.5722C41.7213 31.5939 41.7152 31.6151 41.7152 31.6308C41.7152 31.7076 41.6961 31.76 41.6629 31.7877C41.6322 31.8133 41.5931 31.8147 41.5557 31.7997C41.5396 31.822 41.5156 31.8443 41.4898 31.8594C41.4646 31.8741 41.4339 31.8839 41.4063 31.875C41.3819 31.9134 41.3495 31.9401 41.3148 31.952C41.2818 31.9634 41.2469 31.9612 41.2171 31.943C41.1928 31.98 41.1604 32.0039 41.1247 32.0122C41.0909 32.0201 41.0558 32.0136 41.0241 31.9932C41.0178 32.007 41.0079 32.0192 40.9964 32.0297C40.9789 32.0457 40.9564 32.0585 40.9336 32.0678C40.9107 32.077 40.8866 32.083 40.8654 32.0848C40.8452 32.0865 40.824 32.0846 40.81 32.0741M41.0533 30.2339L41.045 30.2215C41.0544 30.2152 41.0652 30.2067 41.0777 30.1969M41.0703 30.2404C41.0843 30.2972 41.106 30.356 41.1271 30.4114C41.1289 30.4161 41.1306 30.4207 41.1324 30.4254C41.1525 30.4782 41.1715 30.528 41.1804 30.568C41.1905 30.6087 41.1855 30.6377 41.1749 30.6628C41.1701 30.6742 41.1642 30.6847 41.1587 30.6945L41.1578 30.6961C41.1519 30.7066 41.1465 30.7163 41.1422 30.727L41.1419 30.728C41.0167 30.9876 40.9288 31.2635 40.8808 31.5477C40.8805 31.6074 40.8557 31.6659 40.8287 31.7175C40.819 31.7361 40.8087 31.7543 40.799 31.7713C40.7952 31.7781 40.7915 31.7847 40.7879 31.7911C40.7752 31.8139 40.7646 31.8341 40.758 31.8517L40.7574 31.8531L40.7566 31.8544C40.7348 31.8893 40.7295 31.9198 40.7394 31.9495C40.7497 31.9803 40.7771 32.0131 40.8278 32.0499L40.8279 32.0501C40.8327 32.0536 40.8442 32.0564 40.863 32.0549C40.8807 32.0534 40.9018 32.0483 40.9223 32.04C40.9428 32.0317 40.9619 32.0205 40.9763 32.0075C40.9907 31.9944 40.9992 31.9804 41.0009 31.9665L41.0044 31.9388L41.0256 31.9569C41.0552 31.9823 41.0879 31.99 41.1179 31.983C41.1481 31.976 41.1777 31.9535 41.1996 31.9142L41.2084 31.8983L41.2223 31.9099C41.246 31.9297 41.2755 31.9339 41.3051 31.9237C41.3349 31.9134 41.3651 31.8881 41.3871 31.8485L41.3946 31.835L41.4079 31.843C41.424 31.8526 41.4479 31.8491 41.4747 31.8335C41.5007 31.8183 41.5246 31.7943 41.5373 31.7731L41.5445 31.7612L41.5569 31.7674C41.5909 31.7844 41.6216 31.7831 41.6437 31.7646C41.6668 31.7454 41.6852 31.7041 41.6852 31.6308C41.6852 31.609 41.6932 31.5833 41.7028 31.5605C41.7123 31.5378 41.7242 31.5163 41.734 31.5014C41.751 31.4669 41.7602 31.4046 41.7602 31.3496C41.7602 31.315 41.7675 31.2667 41.7819 31.2176C41.7962 31.1688 41.8177 31.1181 41.8471 31.0787C41.8752 31.0318 41.9094 30.9746 41.9322 30.912C41.955 30.8493 41.9658 30.7823 41.9482 30.7161C41.9318 30.6588 41.9121 30.6299 41.8901 30.5978C41.8879 30.5946 41.8857 30.5914 41.8835 30.5881C41.8584 30.5511 41.8322 30.5081 41.8085 30.4195C41.7481 30.3545 41.6794 30.2815 41.6053 30.2222C41.5302 30.1622 41.4511 30.1174 41.3712 30.1083C41.2396 30.1086 41.1569 30.1732 41.0986 30.2188C41.0885 30.2267 41.0791 30.2341 41.0703 30.2404ZM38.3419 30.8605L38.3529 30.8688C38.3893 30.8961 38.4561 30.933 38.5253 30.9682C38.5942 31.0033 38.6643 31.036 38.7063 31.0546L38.7258 31.0633L38.711 31.0787C38.4722 31.3271 38.1253 31.3298 37.9587 31.173L37.9689 31.1621L37.9625 31.1485C38.1035 31.0821 38.2294 30.9876 38.3327 30.8709L38.3419 30.8605ZM37.9959 31.1657C38.1507 31.2914 38.4535 31.2888 38.6743 31.0731C38.6316 31.0537 38.5712 31.0252 38.5117 30.995C38.4489 30.963 38.3861 30.9287 38.3461 30.9009C38.247 31.0104 38.1282 31.1002 37.9959 31.1657Z" fill="black"/>
<path d="M39.5059 13.9687C39.5621 13.5937 39.834 13.5937 40.0027 13.6406C40.0777 13.65 40.2465 13.6687 40.4152 13.6218C40.734 13.5375 40.9777 13.65 40.9402 13.9593C41.034 14.025 41.1277 14.175 41.0996 14.3062C41.0902 14.4375 41.1184 14.4937 41.2309 14.5031C41.3527 14.5218 41.6059 14.6718 41.4371 14.8781C41.5965 14.9718 41.7184 15.225 41.634 15.3843C41.5496 15.5531 41.2965 15.5812 41.184 15.4312C41.0621 15.4875 40.8746 15.4968 40.7527 15.375C40.6684 15.4687 40.4715 15.4593 40.4246 15.375C40.3871 15.2812 40.3309 15.2437 40.2465 15.2156C40.1621 15.1875 40.1527 14.9531 40.284 14.925C40.2746 14.85 40.284 14.775 40.3121 14.7375C40.3402 14.7 40.3121 14.625 40.2371 14.5687C40.1621 14.5031 40.0965 14.2875 40.1715 14.1562C40.0402 14.2031 39.759 14.0718 39.7027 13.9875C39.6371 13.8937 39.5527 13.8937 39.5059 13.9687Z" fill="#870F00"/>
<path fill-rule="evenodd" clip-rule="evenodd" d="M40.8045 13.6555C40.7129 13.6019 40.5767 13.5941 40.4192 13.6358C40.2475 13.6835 40.0764 13.6643 40.0012 13.6549L40.0002 13.6548L39.9992 13.6545C39.9162 13.6315 39.8097 13.6206 39.7179 13.6598C39.6356 13.6949 39.5624 13.7714 39.5289 13.9227C39.5494 13.9072 39.5731 13.8995 39.5984 13.9012C39.6393 13.9039 39.6802 13.9309 39.7145 13.9798L39.7147 13.9801L39.7147 13.9801C39.7271 13.9987 39.7532 14.0215 39.7891 14.0446C39.8246 14.0675 39.8683 14.0899 39.9144 14.1084C39.9606 14.1269 40.0088 14.1412 40.0532 14.148C40.0978 14.1549 40.1373 14.154 40.167 14.1434L40.2028 14.1306L40.1839 14.1636C40.1488 14.225 40.146 14.3078 40.162 14.3846C40.1781 14.4613 40.2121 14.5281 40.2462 14.5582C40.2851 14.5875 40.3125 14.622 40.3265 14.655C40.3403 14.6877 40.342 14.7218 40.3236 14.7463C40.3115 14.7624 40.3027 14.7878 40.2981 14.8195C40.2937 14.851 40.2936 14.8872 40.2982 14.9236L40.2998 14.9364L40.2872 14.9391C40.2309 14.9512 40.202 15.0082 40.1987 15.0714C40.197 15.1025 40.2017 15.1332 40.2116 15.1574C40.2215 15.1819 40.2356 15.1975 40.2512 15.2026C40.2942 15.217 40.3312 15.2341 40.3624 15.2603C40.3936 15.2865 40.4182 15.3211 40.4376 15.3693C40.4474 15.3865 40.4654 15.4009 40.4896 15.4112C40.514 15.4217 40.5438 15.4275 40.5751 15.4281C40.6382 15.4292 40.7039 15.4088 40.7425 15.366L40.7524 15.3549L40.7629 15.3654C40.8791 15.4816 41.0596 15.4737 41.1783 15.4188L41.1886 15.4141L41.1955 15.4232C41.2482 15.4935 41.3344 15.5227 41.4183 15.5137C41.5022 15.5048 41.5819 15.4579 41.6216 15.3784L41.6218 15.3782L41.6218 15.3782C41.6612 15.3037 41.6532 15.2053 41.6142 15.1124C41.5753 15.0198 41.5068 14.9357 41.4302 14.8906L41.4161 14.8823L41.4265 14.8696C41.467 14.8201 41.4811 14.7753 41.4794 14.7361C41.4777 14.6968 41.4599 14.6611 41.4326 14.6299C41.3778 14.5673 41.2876 14.5265 41.2294 14.5175C41.1715 14.5125 41.1311 14.4952 41.1079 14.4582C41.0853 14.4225 41.0811 14.3715 41.0858 14.3056L41.0859 14.3046L41.0861 14.3037C41.0993 14.2422 41.084 14.1752 41.0533 14.1149C41.0226 14.0547 40.9772 14.0026 40.9324 13.9713L40.9255 13.9664L40.9265 13.958C40.9447 13.8076 40.8947 13.7083 40.8045 13.6555ZM39.5061 13.9691L39.4922 13.967C39.5209 13.7759 39.6053 13.6773 39.7068 13.6339C39.8068 13.5913 39.9201 13.6035 40.0057 13.6272C40.081 13.6365 40.2466 13.6545 40.4117 13.6087L40.4119 13.6086L40.4119 13.6086C40.5731 13.566 40.718 13.5723 40.8187 13.6312C40.9189 13.6898 40.9718 13.7986 40.9554 13.9531C41.0019 13.9877 41.0473 14.0412 41.0784 14.1022C41.1108 14.1658 41.1284 14.2391 41.1138 14.3086C41.1093 14.3734 41.1144 14.4159 41.1317 14.4433C41.1482 14.4695 41.178 14.4849 41.2323 14.4895L41.2332 14.4896L41.2332 14.4896C41.297 14.4994 41.3939 14.543 41.4538 14.6114C41.484 14.6459 41.5054 14.6875 41.5075 14.7349C41.5094 14.7787 41.4947 14.8257 41.4581 14.8748C41.5351 14.9249 41.6016 15.0097 41.6402 15.1016C41.6808 15.1985 41.6916 15.3063 41.6467 15.3912C41.602 15.4804 41.5131 15.5319 41.4213 15.5417C41.3328 15.5511 41.24 15.5221 41.1799 15.4489C41.0582 15.5011 40.8773 15.509 40.7533 15.3951C40.7071 15.4386 40.6379 15.4573 40.5746 15.4562C40.5403 15.4556 40.5068 15.4492 40.4785 15.4371C40.4503 15.425 40.4262 15.4068 40.4126 15.3822L40.4121 15.3814L40.4118 15.3806C40.3937 15.3355 40.3715 15.3047 40.3443 15.2818C40.3169 15.2588 40.2837 15.2431 40.2423 15.2293C40.2156 15.2204 40.1969 15.1961 40.1855 15.168C40.1739 15.1394 40.1687 15.1045 40.1706 15.0699C40.174 15.0058 40.2027 14.9361 40.2689 14.9149C40.2655 14.8804 40.2659 14.8462 40.2703 14.8156C40.2751 14.7816 40.285 14.7509 40.3011 14.7294C40.3109 14.7164 40.3125 14.6943 40.3006 14.666C40.2888 14.6382 40.2648 14.6073 40.2289 14.5804L40.2281 14.5797L40.2281 14.5797C40.1873 14.544 40.1512 14.4703 40.1345 14.3903C40.1199 14.3204 40.1195 14.2426 40.146 14.1775C40.1165 14.1823 40.0832 14.1811 40.0489 14.1758C40.0019 14.1686 39.9516 14.1536 39.904 14.1345C39.8564 14.1155 39.811 14.0922 39.7739 14.0682C39.7372 14.0445 39.7071 14.0193 39.6914 13.9958C39.66 13.9511 39.626 13.9312 39.5966 13.9292C39.5678 13.9273 39.5394 13.9424 39.518 13.9766L39.5061 13.9691Z" fill="black"/>
<path fill-rule="evenodd" clip-rule="evenodd" d="M39.6737 13.9177C39.6753 13.9314 39.6818 13.9454 39.6949 13.9585L39.6737 13.9797C39.6563 13.9623 39.6464 13.9423 39.6439 13.9211C39.6415 13.9001 39.6467 13.8791 39.6576 13.8599C39.6793 13.8217 39.7238 13.7896 39.7821 13.773C39.8996 13.7396 40.076 13.7679 40.2571 13.9394L40.2574 13.9397C40.2914 13.9738 40.3461 13.9919 40.3999 13.9987C40.4264 14.0021 40.4521 14.0027 40.4739 14.0013C40.496 13.9999 40.5129 13.9965 40.5225 13.9927L40.5336 14.0205C40.5197 14.026 40.4992 14.0297 40.4758 14.0312C40.4522 14.0327 40.4245 14.0321 40.3961 14.0285C40.3397 14.0213 40.2773 14.0019 40.2363 13.9611C40.0612 13.7953 39.8955 13.772 39.7903 13.8019C39.7373 13.8169 39.7004 13.8452 39.6837 13.8747C39.6754 13.8893 39.6722 13.904 39.6737 13.9177ZM40.4429 14.1619C40.3567 14.1437 40.2583 14.1527 40.175 14.1712L40.1685 14.1419C40.254 14.1229 40.3571 14.1132 40.4491 14.1325C40.5415 14.152 40.6239 14.2013 40.6638 14.301C40.6817 14.3456 40.7028 14.37 40.7255 14.3856C40.7472 14.4006 40.7711 14.4082 40.7985 14.417C40.8005 14.4176 40.8025 14.4182 40.8045 14.4189C40.834 14.4283 40.8665 14.4394 40.8987 14.4633C40.9311 14.4872 40.9624 14.5231 40.9914 14.581C41.0475 14.6886 41.1167 14.7986 41.1937 14.8609C41.2321 14.8919 41.2712 14.9102 41.3108 14.9117C41.35 14.9131 41.3921 14.8981 41.4367 14.8579L41.4568 14.8802C41.4077 14.9244 41.3584 14.9434 41.3097 14.9416C41.2614 14.9399 41.2162 14.9177 41.1748 14.8843C41.0926 14.8177 41.0211 14.7027 40.9647 14.5948L40.9646 14.5945C40.9373 14.54 40.9089 14.508 40.8809 14.4874C40.8529 14.4667 40.8244 14.4567 40.7953 14.4474C40.7931 14.4467 40.7909 14.446 40.7887 14.4453C40.762 14.4368 40.734 14.428 40.7085 14.4103C40.6802 14.3908 40.6556 14.3613 40.636 14.3121C40.6009 14.2244 40.5286 14.1799 40.4429 14.1619ZM40.6918 14.9215C40.6884 14.9788 40.6979 15.0324 40.7268 15.0655L40.7323 15.0717L40.7299 15.0796C40.7156 15.1275 40.7114 15.1778 40.7176 15.2274C40.7238 15.277 40.7402 15.3247 40.7659 15.3676L40.7402 15.383C40.7124 15.3366 40.6945 15.2849 40.6878 15.2311C40.6814 15.1801 40.6852 15.1283 40.6989 15.0788C40.6666 15.0369 40.6585 14.9766 40.6619 14.9197C40.6655 14.8593 40.6824 14.7987 40.7021 14.7592L40.7289 14.7727C40.7112 14.8082 40.6952 14.8648 40.6918 14.9215ZM39.2828 14.8913L39.1891 14.8351L39.2045 14.8093L39.2982 14.8656L39.2828 14.8913ZM40.2877 14.9895C40.2762 14.9673 40.2693 14.945 40.2693 14.9253H40.2993C40.2993 14.9385 40.3041 14.956 40.3143 14.9757C40.3244 14.9952 40.3393 15.016 40.3583 15.0356C40.3964 15.0748 40.4498 15.1079 40.5114 15.1167L40.5072 15.1464C40.4376 15.1365 40.3784 15.0993 40.3368 15.0565C40.316 15.035 40.2992 15.0119 40.2877 14.9895ZM39.179 15.0878L39.1328 15.0601L39.1482 15.0343L39.1958 15.0629L39.1964 15.0633C39.2302 15.0886 39.2826 15.0978 39.3187 15.0978V15.1278C39.2799 15.1278 39.2203 15.1184 39.179 15.0878ZM41.1522 15.134C41.1335 15.2464 41.1254 15.334 41.196 15.4222L41.1726 15.4409C41.0931 15.3416 41.1038 15.2418 41.1226 15.1291L41.1522 15.134ZM39.8343 15.5655C39.7709 15.5996 39.6986 15.6382 39.5926 15.6527L39.5885 15.623C39.6888 15.6093 39.757 15.573 39.8202 15.5391L39.8225 15.5378C39.8845 15.5045 39.9435 15.4728 40.0218 15.4728V15.5028C39.9511 15.5028 39.898 15.5313 39.8343 15.5655Z" fill="black"/>
<path fill-rule="evenodd" clip-rule="evenodd" d="M40.4564 13.71C40.6406 13.7461 40.8116 13.8316 40.9511 13.9573L40.931 13.9796C40.7955 13.8575 40.6295 13.7745 40.4506 13.7394L40.4564 13.71ZM40.4237 14.5119C40.3969 14.4584 40.3823 14.3975 40.3823 14.3434H40.4123C40.4123 14.3925 40.4257 14.4488 40.4505 14.4984C40.4754 14.5482 40.5109 14.5897 40.554 14.6113L40.5584 14.6135L40.5607 14.618C40.5875 14.6716 40.686 14.8153 40.9023 14.7972L40.9048 14.8271C40.6766 14.8461 40.5685 14.6977 40.5361 14.6358C40.4875 14.6099 40.4496 14.5637 40.4237 14.5119ZM39.3887 18.152C39.3131 17.6608 39.4264 17.3098 39.6165 17.0533L39.6406 17.0711C39.4556 17.3208 39.3439 17.6635 39.4183 18.1471C39.4651 18.3906 39.5216 18.6919 39.5228 18.9723C39.524 19.2523 39.4701 19.5157 39.2918 19.6795L39.2715 19.6574C39.4401 19.5025 39.494 19.2502 39.4928 18.9724C39.4916 18.6951 39.4357 18.3965 39.3888 18.1525L39.3887 18.152L39.3887 18.152ZM40.6083 20.5617C40.7541 20.551 40.9058 20.5676 41.0293 20.6008L41.0215 20.6298C40.9012 20.5974 40.7529 20.5812 40.6105 20.5916C40.4678 20.602 40.3328 20.6391 40.2376 20.7116L40.2375 20.7117C40.1406 20.7843 40.0062 20.8224 39.8694 20.8283C39.7325 20.8343 39.5915 20.8082 39.4809 20.7505L39.4948 20.7239C39.5999 20.7787 39.7354 20.8041 39.8681 20.7984C40.0008 20.7926 40.1288 20.7557 40.2195 20.6877" fill="black"/>
<path fill-rule="evenodd" clip-rule="evenodd" d="M40.879 20.709C40.9274 20.8118 40.9554 20.981 40.9554 21.2439H40.9254C40.9254 20.9819 40.8973 20.8183 40.8519 20.7218C40.8293 20.6738 40.8028 20.6433 40.7742 20.6251C40.7539 20.6122 40.7318 20.6052 40.7081 20.603C40.6983 20.6028 40.6883 20.6027 40.6779 20.6027L40.677 20.5727C40.688 20.572 40.6989 20.5721 40.7097 20.573C40.7499 20.574 40.7889 20.5778 40.8257 20.591C40.8727 20.6079 40.9151 20.6398 40.953 20.6979C41.0278 20.8125 41.0866 21.0316 41.1335 21.4485L41.1335 21.4489L41.1335 21.4489C41.1752 21.9215 41.258 22.1551 41.3635 22.4529C41.3998 22.5554 41.4388 22.6656 41.4797 22.7957L41.4798 22.7959C41.6726 23.4355 41.7195 24.246 41.7429 24.9829C41.7469 25.1066 41.7501 25.2282 41.7533 25.3466C41.7596 25.5813 41.7656 25.8034 41.7757 26.0044C41.791 26.3069 41.8155 26.5597 41.8643 26.7337L41.8354 26.7417C41.7856 26.5642 41.761 26.3083 41.7458 26.0059C41.7356 25.8046 41.7296 25.5819 41.7233 25.3469C41.7201 25.2286 41.7169 25.1072 41.7129 24.9839C41.6895 24.2466 41.6426 23.44 41.4511 22.8046C41.4106 22.6761 41.3719 22.5668 41.3357 22.4646C41.2299 22.1658 41.1457 21.9282 41.1036 21.4517C41.0567 21.0344 40.9983 20.8222 40.9279 20.7143C40.8932 20.6612 40.856 20.6339 40.8159 20.6194C40.8398 20.641 40.8609 20.6706 40.879 20.709ZM40.251 20.7436C40.3039 20.6439 40.3856 20.5923 40.4972 20.5729L40.5024 20.6025C40.3984 20.6206 40.3254 20.6674 40.2775 20.7576C40.2289 20.8492 40.2054 20.9868 40.2054 21.1877C40.2054 21.3161 40.1955 21.4647 40.1847 21.6261C40.1789 21.7128 40.1728 21.8033 40.1679 21.8963C40.1539 22.1632 40.1492 22.4527 40.1866 22.742L40.1568 22.7459C40.1191 22.4539 40.1239 22.1622 40.138 21.8947C40.1429 21.8005 40.149 21.7095 40.1548 21.6226C40.1656 21.4619 40.1754 21.3151 40.1754 21.1877C40.1754 20.9855 40.1988 20.8418 40.251 20.7436ZM40.0767 20.7596C40.0886 20.7568 40.1003 20.7541 40.1118 20.7513L40.1191 20.7804C40.1063 20.7836 40.0939 20.7864 40.0818 20.7892C40.057 20.7949 40.0333 20.8003 40.0105 20.8078C39.9772 20.8186 39.9481 20.8332 39.9246 20.8572C39.8779 20.9049 39.8492 20.995 39.8679 21.1862L39.838 21.1892C39.8192 20.996 39.8467 20.8939 39.9031 20.8362C39.9313 20.8075 39.9654 20.7909 40.0012 20.7792C40.0253 20.7714 40.0512 20.7654 40.0767 20.7596ZM39.4572 20.8911C39.4176 20.967 39.3944 21.0771 39.3898 21.1883L39.3598 21.1871C39.3646 21.0733 39.3883 20.9584 39.4307 20.8772C39.4519 20.8366 39.4784 20.8033 39.5106 20.7834C39.5435 20.7631 39.5814 20.7572 39.623 20.7703L39.6141 20.7989C39.5807 20.7885 39.5519 20.7932 39.5264 20.8089C39.5004 20.825 39.4771 20.8532 39.4572 20.8911ZM40.5889 26.0105C41.1485 24.5266 41.1618 22.8919 40.6263 21.399L40.6546 21.3889C41.1918 22.8867 41.1791 24.5267 40.6189 26.016C40.7997 26.5201 40.9803 26.9682 41.1372 27.3576C41.175 27.4514 41.2114 27.5417 41.2462 27.6286C41.4253 28.077 41.5596 28.4349 41.6021 28.6947L41.5725 28.6995C41.5306 28.4436 41.3978 28.089 41.2183 27.6397C41.1836 27.553 41.1473 27.4627 41.1095 27.369C40.952 26.9783 40.7704 26.5278 40.5888 26.0209L40.587 26.0157L40.5889 26.0105ZM39.4906 22.4521C39.4811 22.5822 39.4504 22.7473 39.3987 22.9538L39.3987 22.9539C39.2772 23.4259 39.287 23.6674 39.3169 23.8239C39.3244 23.8632 39.3332 23.8974 39.3417 23.9288C39.3432 23.9344 39.3447 23.9398 39.3462 23.9452C39.353 23.9704 39.3595 23.9942 39.3646 24.0175C39.377 24.0749 39.3807 24.1302 39.3611 24.2011L39.3322 24.1931C39.3502 24.128 39.3469 24.0778 39.3352 24.0239C39.3304 24.0014 39.3242 23.9785 39.3173 23.9534C39.3158 23.9479 39.3143 23.9423 39.3128 23.9367C39.3042 23.905 39.2951 23.87 39.2874 23.8296C39.2564 23.6674 39.2474 23.4213 39.3696 22.9465C39.4211 22.7406 39.4514 22.5775 39.4606 22.4499C39.4699 22.322 39.458 22.2314 39.427 22.1694L39.4539 22.156C39.4885 22.2252 39.5 22.3222 39.4906 22.4521Z" fill="black"/>
<path fill-rule="evenodd" clip-rule="evenodd" d="M39.4315 23.0979C39.4099 22.9566 39.4019 22.8277 39.426 22.7217L39.4552 22.7283C39.4324 22.8286 39.4397 22.9528 39.4611 23.0933C39.4765 23.1939 39.4989 23.3016 39.5223 23.4138C39.5316 23.4584 39.541 23.5036 39.5502 23.5494C39.6146 23.8702 39.6672 24.2161 39.5673 24.5111L39.5389 24.5014C39.6359 24.2151 39.5853 23.8767 39.5208 23.5553C39.5117 23.5101 39.5024 23.4651 39.4931 23.4208C39.4697 23.3082 39.447 23.1993 39.4315 23.0979ZM39.0561 25.1506C39.0392 24.9632 39.0225 24.777 39.0225 24.6094H39.0525C39.0525 24.7755 39.0691 24.9603 39.086 25.1479C39.0881 25.1711 39.0902 25.1942 39.0922 25.2174C39.111 25.4283 39.1275 25.6402 39.1181 25.8289L39.1181 25.8289C39.1036 26.1103 39.1899 26.2716 39.3093 26.4952C39.3429 26.5581 39.3792 26.6259 39.4165 26.7027C40.0539 27.9588 40.4682 28.8526 40.4212 30.0381L40.4212 30.0388L40.4212 30.0388C40.4168 30.0909 40.4176 30.1556 40.4184 30.2266L40.4186 30.2398C40.4195 30.3156 40.4201 30.3977 40.4141 30.4769C40.4082 30.5561 40.3958 30.6333 40.3701 30.6995C40.3444 30.7658 40.305 30.8217 40.245 30.8567L40.2299 30.8308C40.2824 30.8002 40.3181 30.7507 40.3421 30.6886C40.3663 30.6264 40.3784 30.5525 40.3842 30.4747C40.39 30.3969 40.3895 30.316 40.3886 30.2401C40.3885 30.2355 40.3885 30.2309 40.3884 30.2264C40.3876 30.1561 40.3868 30.0902 40.3912 30.0366C40.4379 28.8598 40.0272 27.9724 39.3897 26.7162L39.3896 26.7159C39.3533 26.6414 39.3177 26.5748 39.2844 26.5125C39.164 26.2874 39.0732 26.1177 39.0881 25.8274C39.0881 25.8274 39.0881 25.8274 39.0881 25.8274L39.1031 25.8281L39.0881 25.8274C39.0881 25.8274 39.0881 25.8274 39.0881 25.8274C39.0974 25.6411 39.0811 25.4311 39.0624 25.2201C39.0603 25.1969 39.0582 25.1737 39.0561 25.1506ZM39.5118 28.7801C39.5668 29.5083 39.4904 30.2405 39.2862 30.9417L39.2859 30.9427L39.2855 30.9437C39.243 31.0381 39.2045 31.0965 39.1672 31.1313C39.1292 31.1668 39.0927 31.1775 39.0562 31.1775V31.1475C39.0854 31.1475 39.1145 31.1395 39.1468 31.1094C39.1796 31.0787 39.216 31.0248 39.2577 30.9323C39.4607 30.2349 39.5366 29.5067 39.4819 28.7824L39.5118 28.7801ZM39.4922 30.8383C39.6504 30.4289 39.6505 29.9255 39.6133 29.6835L39.6429 29.679C39.6807 29.9246 39.6808 30.4336 39.5202 30.8492L39.4922 30.8383Z" fill="black"/>
<path fill-rule="evenodd" clip-rule="evenodd" d="M37.3597 13.9193L37.7816 13.6006L37.7997 13.6245L37.3778 13.9433L37.3597 13.9193ZM37.8841 13.6986C37.8938 13.6943 37.9036 13.6913 37.9125 13.6913V13.7213C37.9098 13.7213 37.9045 13.7224 37.8961 13.7261C37.8879 13.7297 37.8778 13.7352 37.8657 13.7428C37.8414 13.7579 37.8102 13.7804 37.7716 13.8097C37.7379 13.8351 37.699 13.8655 37.6543 13.9003C37.6478 13.9054 37.6411 13.9106 37.6343 13.9159C37.5813 13.9572 37.5209 14.0041 37.4528 14.0558L37.4347 14.0319C37.5026 13.9804 37.5629 13.9335 37.6159 13.8922C37.6227 13.8869 37.6294 13.8817 37.6359 13.8766C37.6805 13.8419 37.7197 13.8114 37.7535 13.7858C37.7922 13.7564 37.8243 13.7332 37.8498 13.7173C37.8626 13.7094 37.874 13.703 37.8841 13.6986ZM37.0957 13.9863L37.2457 13.8363L37.2669 13.8575L37.1169 14.0075L37.0957 13.9863ZM37.7366 13.9854C37.8041 13.9295 37.8669 13.8809 37.9163 13.8611L37.9275 13.889C37.8832 13.9067 37.8241 13.9519 37.7557 14.0085C37.7376 14.0235 37.7188 14.0392 37.6997 14.0553C37.6476 14.0992 37.5923 14.1457 37.5371 14.1871L37.5191 14.1631C37.5736 14.1222 37.6279 14.0766 37.6798 14.0329C37.6991 14.0166 37.718 14.0007 37.7366 13.9854ZM36.3134 22.3871C36.3142 22.4289 36.315 22.4753 36.315 22.5282H36.285C36.285 22.4772 36.2842 22.4315 36.2834 22.3901C36.282 22.3108 36.2808 22.2468 36.2863 22.1893C36.2947 22.1 36.319 22.025 36.3812 21.9294L36.4063 21.9457C36.3467 22.0376 36.3241 22.1079 36.3161 22.1921C36.3108 22.248 36.312 22.3093 36.3134 22.3871ZM36.4881 22.4208C36.4868 22.4511 36.4854 22.4838 36.4838 22.5195L36.4538 22.5181C36.4554 22.483 36.4568 22.4505 36.4581 22.4204C36.4643 22.2749 36.4681 22.1855 36.481 22.1221C36.4889 22.0832 36.5004 22.0532 36.5181 22.0255C36.5357 21.9981 36.5591 21.9737 36.5898 21.9453L36.6102 21.9673C36.58 21.9952 36.5589 22.0176 36.5434 22.0418C36.528 22.0657 36.5178 22.092 36.5104 22.128C36.4981 22.1889 36.4943 22.2752 36.4881 22.4208ZM36.6744 22.3884C36.6736 22.4071 36.6728 22.4258 36.6712 22.4451L36.6413 22.4426C36.6427 22.4256 36.6435 22.4081 36.6443 22.39C36.646 22.3506 36.6478 22.3084 36.6568 22.2628C36.6701 22.1949 36.6991 22.118 36.7659 22.0227L36.7904 22.0399C36.7259 22.1321 36.6987 22.2052 36.6862 22.2686C36.6777 22.312 36.6761 22.3503 36.6744 22.3884ZM41.1532 29.0685C40.9899 28.5826 40.8194 28.0751 40.628 27.7769L40.6533 27.7607C40.8467 28.0621 41.0183 28.5728 41.1809 29.0567C41.1888 29.0802 41.1966 29.1036 41.2045 29.1269C41.2895 29.3795 41.3722 29.6219 41.4547 29.821C41.5376 30.0208 41.6192 30.1744 41.7009 30.2516L41.6803 30.2735C41.5934 30.1913 41.5097 30.032 41.427 29.8325C41.344 29.6323 41.261 29.3889 41.176 29.1365C41.1684 29.1139 41.1608 29.0912 41.1532 29.0685ZM40.0355 30.2777C40.1192 29.9429 40.1194 29.4671 40.0259 28.9433L40.0554 28.938C40.1494 29.4643 40.1496 29.9447 40.0646 30.2849L40.0355 30.2777ZM40.9754 29.7329C40.9908 29.8302 40.9931 29.9343 40.9931 30.0188H40.9631C40.9631 29.9346 40.9608 29.8324 40.9458 29.7376C40.9306 29.6422 40.9031 29.5568 40.8546 29.5039L40.8767 29.4837C40.9314 29.5433 40.96 29.6361 40.9754 29.7329ZM39.823 30.4001C39.8177 30.3552 39.813 30.315 39.8101 30.2827L39.84 30.2799C39.8428 30.311 39.8474 30.3503 39.8526 30.3946C39.8644 30.4954 39.8793 30.6223 39.8834 30.739C39.8863 30.8231 39.8837 30.9034 39.87 30.9661C39.8565 31.0275 39.8309 31.0783 39.7824 31.0926L39.7739 31.0638C39.8051 31.0546 39.8275 31.0198 39.8407 30.9597C39.8536 30.9008 39.8563 30.8235 39.8534 30.74C39.8494 30.6246 39.8348 30.5004 39.823 30.4001ZM41.544 31.7674C41.5437 31.7671 41.5427 31.7663 41.5406 31.7663V31.7963C41.5269 31.7963 41.5189 31.7858 41.5151 31.7765C41.5111 31.7669 41.5092 31.7541 41.5092 31.7391C41.5092 31.7088 41.5168 31.6649 41.5358 31.6078L41.5643 31.6173C41.5458 31.6727 41.5392 31.7132 41.5392 31.7391C41.5392 31.7522 41.5409 31.7605 41.5428 31.765C41.5438 31.7676 41.5444 31.7678 41.544 31.7674ZM41.3834 31.7901C41.3845 31.8205 41.3951 31.8371 41.4067 31.8429L41.3933 31.8697C41.3674 31.8568 41.3546 31.8265 41.3534 31.7912C41.3521 31.7553 41.3623 31.7106 41.3866 31.6621L41.4134 31.6755C41.3908 31.7208 41.3823 31.7604 41.3834 31.7901ZM41.2213 31.8826C41.2227 31.8992 41.2269 31.9069 41.2309 31.9099L41.2129 31.9339C41.1981 31.9229 41.193 31.9037 41.1914 31.8851C41.1898 31.8658 41.1918 31.8428 41.1953 31.8189C41.2006 31.7838 41.2098 31.7446 41.218 31.7098C41.2208 31.6975 41.2236 31.6857 41.226 31.6749L41.2553 31.6814C41.2527 31.693 41.2499 31.7052 41.2469 31.7178C41.2388 31.7523 41.2301 31.7896 41.225 31.8234C41.2216 31.8464 41.22 31.8667 41.2213 31.8826ZM41.0254 31.957C41.026 31.9579 41.0263 31.9582 41.0263 31.9582L41.005 31.9794C41.0005 31.9748 40.9975 31.9688 40.9954 31.963C40.9933 31.9569 40.9917 31.9499 40.9907 31.9423C40.9886 31.927 40.9883 31.908 40.9902 31.8867C40.9938 31.844 41.0059 31.7908 41.0301 31.7376L41.0574 31.75C41.0347 31.7999 41.0234 31.8498 41.02 31.8892C41.0184 31.9089 41.0187 31.9257 41.0204 31.9382C41.0213 31.9445 41.0224 31.9494 41.0237 31.953C41.0243 31.9548 41.0249 31.9561 41.0254 31.957Z" fill="black"/>
<path d="M39.4214 14.316C39.4964 14.4098 39.5808 14.4098 39.5901 14.466C39.6089 14.541 39.6183 14.541 39.6276 14.5598C39.6464 14.5785 39.5901 14.5785 39.5714 14.5598H39.4401C39.4026 14.5598 39.3651 14.5129 39.3839 14.5129C39.412 14.5035 39.412 14.4941 39.4026 14.4754C39.4026 14.4473 39.4214 14.4191 39.4401 14.4098L39.4308 14.3816C39.412 14.3535 39.4026 14.2879 39.4214 14.3066V14.316ZM39.4683 14.2129C39.5871 14.2299 39.6982 14.2821 39.787 14.3629C39.8526 14.4379 39.7964 14.4191 39.7683 14.4191C39.7401 14.4191 39.6745 14.4004 39.637 14.3629C39.5879 14.3112 39.5267 14.2726 39.4589 14.2504C39.4308 14.2504 39.4026 14.2129 39.4589 14.2129H39.4683Z" fill="black"/>
<path d="M-7.5 0H22.5V22.5H-7.5V0Z" fill="#012169"/>
<path d="M-3.98438 0L7.45312 8.48438L18.8438 0H22.5V2.90625L11.25 11.2969L22.5 19.6406V22.5H18.75L7.5 14.1094L-3.70312 22.5H-7.5V19.6875L3.70312 11.3438L-7.5 3V0H-3.98438Z" fill="white"/>
<path d="M12.375 13.1719L22.5 20.625V22.5L9.79688 13.1719H12.375ZM3.75 14.1094L4.03125 15.75L-4.96875 22.5H-7.5L3.75 14.1094ZM22.5 0V0.140625L10.8281 8.95312L10.9219 6.89062L20.1562 0H22.5ZM-7.5 0L3.70312 8.25H0.890625L-7.5 1.96875V0Z" fill="#C8102E"/>
<path d="M3.79688 0V22.5H11.2969V0H3.79688ZM-7.5 7.5V15H22.5V7.5H-7.5Z" fill="white"/>
<path d="M-7.5 9.04688V13.5469H22.5V9.04688H-7.5ZM5.29688 0V22.5H9.79688V0H5.29688Z" fill="#C8102E"/>
</g>
<defs>
<clipPath id="clip0_200_65728">
<rect width="60" height="45" fill="white" transform="translate(-7.5)"/>
</clipPath>
</defs>
</svg>
