<svg width="45" height="45" viewBox="0 0 45 45" fill="none" xmlns="http://www.w3.org/2000/svg">
<g clip-path="url(#clip0_200_70542)">
<path fill-rule="evenodd" clip-rule="evenodd" d="M22.5 0H52.5V45H22.5V0Z" fill="#CE0000"/>
<path fill-rule="evenodd" clip-rule="evenodd" d="M-7.5 0H22.5V45H-7.5V0Z" fill="white"/>
<path fill-rule="evenodd" clip-rule="evenodd" d="M7.04381 13.2977C7.04381 13.4326 6.90893 13.5225 6.74407 13.5225C6.56423 13.5225 6.44434 13.4326 6.44434 13.3127C6.44434 13.1928 6.56423 13.0879 6.74407 13.0879C6.90893 13.0879 7.04381 13.1928 7.04381 13.3127V13.2977Z" fill="#F1EEEE"/>
<path fill-rule="evenodd" clip-rule="evenodd" d="M-2.5625 12.2489V17.824H3.0276C3.0276 18.7532 3.95679 19.6824 4.88598 19.6824V25.2575H10.4761V19.6824C11.4053 19.6824 12.3345 18.7532 12.3345 17.824H17.9096V12.2489H12.3195C12.3195 11.3197 11.3903 10.3905 10.4611 10.3905V4.81543H4.88598V10.3905C3.9418 10.3905 3.01262 11.3197 3.01262 12.2489H-2.5625Z" fill="#CC0000"/>
<path fill-rule="evenodd" clip-rule="evenodd" d="M-2.36719 12.4286V17.644H3.20793C3.20793 18.5732 4.13712 19.5024 5.0663 19.5024V25.0775H10.2667V19.5174C11.1959 19.5174 12.1251 18.5882 12.1251 17.659H17.7152V12.4436H12.1401C12.1401 11.5144 11.2109 10.5852 10.2817 10.5852V4.99512H5.0663V10.5702C4.13712 10.5702 3.20793 11.4994 3.20793 12.4286H-2.36719Z" fill="#FFE600"/>
<path fill-rule="evenodd" clip-rule="evenodd" d="M-2.1875 12.6239V17.4497H3.38762C3.38762 18.3789 4.3168 19.3081 5.24599 19.3081V24.8832H10.0868V19.3081C11.0159 19.3081 11.9451 18.3789 11.9451 17.4497H17.5202V12.6239H11.9451C11.9451 11.6947 11.0159 10.7655 10.0868 10.7655V5.19043H5.24599V10.7506C4.3168 10.7506 3.38762 11.6797 3.38762 12.6089H-2.1875V12.6239Z" fill="#707070"/>
<path fill-rule="evenodd" clip-rule="evenodd" d="M-1.99283 12.8036V17.2697H3.58229C3.58229 18.1989 4.51148 19.1281 5.44066 19.1281V24.6882H9.89177V19.1131C10.821 19.1131 11.7501 18.1839 11.7501 17.2547H17.3253V12.7886H11.7501C11.7501 11.8594 10.821 10.9302 9.89177 10.9302V5.37012H5.44066V10.9452C4.51148 10.9452 3.58229 11.8744 3.58229 12.8036H-2.00781H-1.99283Z" fill="#A0A0A0"/>
<path fill-rule="evenodd" clip-rule="evenodd" d="M5.48521 10.48C5.79993 10.8097 5.54516 11.604 4.88573 12.2634C4.22631 12.9229 3.44699 13.1626 3.11728 12.8629C2.78757 12.5182 3.05733 11.7239 3.71676 11.0645C4.37618 10.4051 5.1555 10.1653 5.48521 10.48Z" fill="#D0D0D0"/>
<path fill-rule="evenodd" clip-rule="evenodd" d="M5.08033 10.8699C5.41005 11.1996 5.32012 11.8141 4.88551 12.2637C4.45089 12.7133 3.83642 12.7882 3.50671 12.4585C3.177 12.1288 3.26692 11.5143 3.70154 11.0797C4.13616 10.6451 4.75062 10.5552 5.08033 10.8699Z" fill="#808080"/>
<path fill-rule="evenodd" clip-rule="evenodd" d="M3.44727 11.8589L3.56716 11.739L4.0917 11.9938L3.83692 11.4692L3.97181 11.3343L4.49635 12.3834L3.44727 11.8589ZM4.22658 11.0796L4.37645 10.9297L5.15577 11.739L5.02089 11.8589L4.22658 11.0796Z" fill="#D0D0D0"/>
<path fill-rule="evenodd" clip-rule="evenodd" d="M12.215 12.8485C11.8853 13.1782 11.091 12.9084 10.4465 12.249C9.8021 11.5896 9.51735 10.8103 9.84706 10.4806C10.1768 10.1509 10.9711 10.4206 11.6305 11.08C12.2899 11.7395 12.5297 12.5188 12.23 12.8485H12.215Z" fill="#D0D0D0"/>
<path fill-rule="evenodd" clip-rule="evenodd" d="M11.8257 12.4592C11.496 12.789 10.8815 12.699 10.4469 12.2644C10.0123 11.8298 9.92236 11.2153 10.2371 10.8856C10.5668 10.5559 11.1962 10.6458 11.6309 11.0804C12.0655 11.5151 12.1554 12.1295 11.8257 12.4592Z" fill="#808080"/>
<path fill-rule="evenodd" clip-rule="evenodd" d="M10.8361 10.8105L10.9709 10.9454L10.7012 11.47L11.2257 11.2002L11.3756 11.3501L10.3115 11.8596L10.8361 10.8105ZM11.6304 11.6049L11.7503 11.7247L10.9709 12.5191L10.8361 12.3842L11.6304 11.6049Z" fill="#D0D0D0"/>
<path fill-rule="evenodd" clip-rule="evenodd" d="M9.84677 19.5923C9.51706 19.2625 9.78683 18.4682 10.4462 17.8088C11.1057 17.1494 11.885 16.8946 12.2147 17.2093C12.5444 17.5391 12.2746 18.3334 11.6152 18.9928C10.9558 19.6522 10.1765 19.907 9.84677 19.5923Z" fill="#D0D0D0"/>
<path fill-rule="evenodd" clip-rule="evenodd" d="M10.2518 19.1878C9.92212 18.858 10.012 18.2436 10.4467 17.809C10.8813 17.3743 11.4957 17.2844 11.8255 17.6141C12.1552 17.9438 12.0652 18.5583 11.6306 18.9929C11.196 19.4275 10.5815 19.5175 10.2368 19.1878H10.2518Z" fill="#808080"/>
<path fill-rule="evenodd" clip-rule="evenodd" d="M11.8849 18.1984L11.75 18.3482L11.2255 18.0785L11.4953 18.603L11.3604 18.7229L10.8358 17.6738L11.8849 18.1984ZM11.1206 18.9927L10.9707 19.1276L10.1914 18.3333L10.3263 18.1984L11.1206 18.9927Z" fill="#D0D0D0"/>
<path fill-rule="evenodd" clip-rule="evenodd" d="M3.11718 17.2241C3.44689 16.8944 4.2412 17.1641 4.88564 17.8086C5.53007 18.453 5.79983 19.2623 5.48511 19.577C5.1554 19.9067 4.36109 19.652 3.70167 18.9925C3.04225 18.3331 2.80246 17.5388 3.1022 17.2241H3.11718Z" fill="#D0D0D0"/>
<path fill-rule="evenodd" clip-rule="evenodd" d="M3.50671 17.6141C3.83642 17.2844 4.45089 17.3743 4.88551 17.809C5.32012 18.2436 5.41005 18.858 5.08033 19.1878C4.76561 19.5175 4.13616 19.4275 3.70154 18.9929C3.26692 18.5583 3.177 17.9438 3.50671 17.6141Z" fill="#808080"/>
<path fill-rule="evenodd" clip-rule="evenodd" d="M4.49623 19.2622L4.36135 19.1123L4.63111 18.6028L4.10657 18.8576L3.9567 18.7227L5.02077 18.1981L4.49623 19.2472V19.2622ZM3.70193 18.4679L3.58203 18.333L4.36135 17.5537L4.49623 17.6736L3.70193 18.4679Z" fill="#D0D0D0"/>
<path fill-rule="evenodd" clip-rule="evenodd" d="M7.68249 11.1632C5.53952 11.1632 3.8038 12.8984 3.8038 15.0402C3.8038 17.1819 5.53444 18.9172 7.67736 18.9172C9.82031 18.9172 11.5561 17.1767 11.5561 15.0402V15.0142H11.5611C11.5472 12.8845 9.8168 11.1632 7.68249 11.1632ZM11.6078 15.0661H11.613V15.0402C11.613 12.8698 9.85407 11.1113 7.68249 11.1113C5.51091 11.1113 3.75195 12.8698 3.75195 15.0402C3.75195 17.2105 5.50574 18.969 7.67736 18.969C9.84029 18.969 11.5938 17.2193 11.6078 15.0661Z" fill="#707070"/>
<path fill-rule="evenodd" clip-rule="evenodd" d="M7.66263 12.0776C6.02991 12.0776 4.70747 13.3997 4.70747 15.0315C4.70747 16.6633 6.02604 17.9854 7.65873 17.9854C9.29142 17.9854 10.6139 16.6593 10.6139 15.0315V15.0117H10.6177C10.6071 13.389 9.28875 12.0776 7.66263 12.0776ZM10.6533 15.0512H10.6573V15.0315C10.6573 13.3779 9.31715 12.0381 7.66263 12.0381C6.00811 12.0381 4.66797 13.3779 4.66797 15.0315C4.66797 16.6851 6.00417 18.0249 7.65873 18.0249C9.30665 18.0249 10.6427 16.6918 10.6533 15.0512Z" fill="#707070"/>
<path fill-rule="evenodd" clip-rule="evenodd" d="M6.36979 18.1991C6.36979 18.2487 6.35005 18.2964 6.31492 18.3315C6.27979 18.3667 6.23214 18.3864 6.18245 18.3864C6.13277 18.3864 6.08512 18.3667 6.04999 18.3315C6.01485 18.2964 5.99512 18.2487 5.99512 18.1991C5.99512 18.1494 6.01485 18.1017 6.04999 18.0666C6.08512 18.0315 6.13277 18.0117 6.18245 18.0117C6.23214 18.0117 6.27979 18.0315 6.31492 18.0666C6.35005 18.1017 6.36979 18.1494 6.36979 18.1991ZM9.33719 18.1991C9.33719 18.2487 9.31745 18.2964 9.28232 18.3315C9.24719 18.3667 9.19954 18.3864 9.14985 18.3864C9.10017 18.3864 9.05252 18.3667 9.01739 18.3315C8.98226 18.2964 8.96252 18.2487 8.96252 18.1991C8.96252 18.1494 8.98226 18.1017 9.01739 18.0666C9.05252 18.0315 9.10017 18.0117 9.14985 18.0117C9.19954 18.0117 9.24719 18.0315 9.28232 18.0666C9.31745 18.1017 9.33719 18.1494 9.33719 18.1991ZM7.53876 18.1991V18.3939H7.29897C7.0442 18.3939 7.0442 18.5887 7.29897 18.5887H7.53876V18.7686C7.53876 18.9784 7.76357 18.9934 7.77855 18.7835V18.5737H8.03333C8.28811 18.5737 8.28811 18.3939 8.03333 18.3939H7.79354V18.1991C7.79354 18.0042 7.53876 18.0042 7.53876 18.1991Z" fill="#D0D0D0"/>
<path fill-rule="evenodd" clip-rule="evenodd" d="M6.74388 15.4408V15.5607C6.74388 15.5607 6.68393 15.6356 6.30926 15.6656C5.93459 15.6956 5.87464 15.6656 5.87464 15.6656C5.88963 15.7705 5.96456 15.9503 5.93459 16.1601C5.94958 16.4149 5.87464 16.6397 5.87464 16.6397C5.87464 16.6547 5.82968 16.6697 5.75475 16.6547C5.81469 16.5948 5.81469 16.4449 5.81469 16.2051C5.81469 15.9953 5.58989 15.6506 5.63485 15.5607C5.67981 15.4708 6.74388 15.4408 6.74388 15.4408ZM8.21259 15.0511L9.18674 15.0361C9.18674 15.0361 9.33661 15.3359 9.32162 15.4857C9.32162 15.6356 9.26167 15.7855 9.20173 15.7105C9.12679 15.6356 9.2317 15.6506 9.24669 15.4857C9.24669 15.3059 9.12679 15.141 9.12679 15.141C9.12679 15.141 8.85703 15.2459 8.46737 15.231C8.07771 15.201 8.25755 15.0511 8.21259 15.0511Z" fill="#D0D0D0"/>
<path fill-rule="evenodd" clip-rule="evenodd" d="M9.1941 15.0335L9.19422 15.0337L9.19454 15.0344L9.19581 15.037C9.19691 15.0392 9.19852 15.0425 9.20057 15.0468C9.20465 15.0553 9.21047 15.0677 9.2174 15.0829C9.23127 15.1135 9.2496 15.1558 9.26746 15.2028C9.28532 15.2498 9.30277 15.3016 9.31481 15.3512C9.32678 15.4005 9.33357 15.4482 9.32977 15.4868C9.32972 15.5624 9.31463 15.6384 9.29157 15.6864C9.28017 15.7102 9.26603 15.7288 9.24929 15.7358C9.24059 15.7394 9.23135 15.7398 9.2221 15.7363C9.21316 15.7329 9.20473 15.7261 9.1968 15.7163C9.17807 15.6975 9.16879 15.6827 9.1682 15.668C9.16762 15.6533 9.17593 15.641 9.18505 15.6282C9.18607 15.6268 9.18712 15.6253 9.1882 15.6238C9.20669 15.5982 9.2329 15.5618 9.23985 15.4861C9.23978 15.3979 9.21032 15.313 9.18062 15.2499C9.16577 15.2183 9.15093 15.1923 9.1398 15.1743C9.13424 15.1652 9.12962 15.1582 9.12639 15.1534C9.12575 15.1524 9.12516 15.1516 9.12463 15.1508C9.12275 15.1515 9.12039 15.1523 9.11757 15.1533C9.10934 15.1562 9.09719 15.1603 9.0814 15.1651C9.04983 15.1748 9.00372 15.1875 8.9454 15.1997C8.82878 15.2241 8.6633 15.2467 8.46774 15.2392L8.46745 15.2392C8.36967 15.2316 8.3068 15.2166 8.26695 15.1977C8.22687 15.1788 8.2094 15.1556 8.20407 15.1322C8.19897 15.1097 8.20547 15.0885 8.20985 15.0742L8.21007 15.0735C8.2112 15.0699 8.21214 15.0668 8.21279 15.0641C8.21332 15.0619 8.21356 15.0604 8.21362 15.0593C8.21351 15.0593 8.21339 15.0593 8.21325 15.0593L8.21314 15.0444L8.21325 15.0444L9.19199 15.0293L9.1941 15.0335ZM8.22862 15.0591L9.18277 15.0444C9.18383 15.0466 9.18528 15.0496 9.18705 15.0533C9.1911 15.0617 9.19687 15.074 9.20376 15.0891C9.21753 15.1195 9.23573 15.1615 9.25345 15.2081C9.27119 15.2548 9.2884 15.306 9.30025 15.3548C9.31212 15.4037 9.31844 15.4495 9.31482 15.4857L9.31479 15.4865C9.31479 15.5606 9.29992 15.6344 9.27806 15.6799C9.26698 15.703 9.25489 15.7172 9.24353 15.7219C9.23818 15.7241 9.2329 15.7243 9.22739 15.7223C9.22168 15.7201 9.21521 15.7153 9.20824 15.7066L9.20768 15.706C9.18913 15.6874 9.18352 15.6761 9.18318 15.6674C9.18283 15.6587 9.18763 15.6504 9.19724 15.6369C9.19825 15.6355 9.19929 15.6341 9.20036 15.6326C9.21939 15.6062 9.24754 15.5671 9.25481 15.4871L9.25484 15.4865C9.25484 15.395 9.22438 15.3077 9.19418 15.2435C9.17905 15.2113 9.16392 15.1849 9.15257 15.1664C9.14689 15.1572 9.14215 15.15 9.13881 15.145C9.13715 15.1425 9.13583 15.1406 9.13493 15.1394L9.13389 15.1379L9.13362 15.1375L9.13354 15.1374L9.13012 15.1327L9.12473 15.1348L9.12457 15.1349L9.12401 15.1351L9.12173 15.1359C9.1197 15.1367 9.11665 15.1378 9.11263 15.1392C9.10458 15.142 9.09261 15.146 9.07702 15.1508C9.04583 15.1603 9.00016 15.1729 8.94232 15.185C8.82668 15.2093 8.6625 15.2317 8.46846 15.2242C8.37149 15.2167 8.31077 15.2019 8.27336 15.1842C8.23617 15.1666 8.22272 15.1466 8.21869 15.1289C8.21451 15.1105 8.21988 15.0927 8.2244 15.0779C8.22549 15.0744 8.22657 15.0708 8.22735 15.0677C8.22802 15.0649 8.22859 15.0619 8.22862 15.0591ZM5.65874 15.5519C5.64876 15.5569 5.64388 15.5614 5.64221 15.5648C5.63752 15.5741 5.636 15.5877 5.63778 15.6056C5.63956 15.6233 5.6445 15.6444 5.65181 15.6683C5.6661 15.7151 5.68907 15.7712 5.71375 15.8315L5.71551 15.8358C5.74078 15.8976 5.76759 15.9634 5.78806 16.027C5.80851 16.0904 5.82284 16.1522 5.82284 16.2058V16.2062C5.82284 16.3258 5.82284 16.4235 5.81531 16.4988C5.80856 16.5663 5.79565 16.6175 5.76982 16.6504C5.8005 16.6554 5.82499 16.6549 5.84211 16.6518C5.85189 16.65 5.85888 16.6475 5.86321 16.6448C5.86758 16.6422 5.86779 16.6404 5.86781 16.6404C5.86781 16.6404 5.86781 16.6404 5.86781 16.6404L5.86781 16.6392L5.86819 16.6381L5.86824 16.6379L5.86839 16.6375L5.869 16.6356C5.86953 16.6339 5.87032 16.6314 5.87132 16.6281C5.87332 16.6215 5.87617 16.6118 5.87954 16.5994C5.88629 16.5745 5.89514 16.5386 5.90353 16.4948C5.92032 16.4071 5.93521 16.2879 5.92777 16.1613L5.92772 16.1606L5.92783 16.1598C5.94265 16.0561 5.93156 15.9596 5.91479 15.8757C5.90703 15.8369 5.89807 15.8009 5.8899 15.7681C5.88924 15.7654 5.88858 15.7628 5.88793 15.7601C5.87929 15.7253 5.87169 15.694 5.86788 15.6674L5.86586 15.6532L5.87856 15.6596L5.87885 15.6597C5.8792 15.6598 5.87986 15.6601 5.8809 15.6604C5.88297 15.6611 5.8865 15.6621 5.89202 15.6632C5.90306 15.6654 5.9219 15.6682 5.95256 15.6701C6.0139 15.6738 6.12218 15.6738 6.30932 15.6588C6.49625 15.6439 6.60419 15.6178 6.66517 15.5956C6.69564 15.5845 6.71431 15.5744 6.72522 15.5673C6.73067 15.5637 6.73418 15.5609 6.73625 15.5591C6.73654 15.5588 6.73681 15.5586 6.73704 15.5584V15.4492L6.73281 15.4494C6.72501 15.4496 6.71357 15.45 6.69898 15.4505C6.66982 15.4515 6.6281 15.453 6.57789 15.4551C6.47747 15.4593 6.34313 15.4659 6.2074 15.4752C6.07163 15.4846 5.93464 15.4967 5.82884 15.5121C5.77591 15.5199 5.73104 15.5284 5.69811 15.5376C5.68162 15.5423 5.6684 15.5471 5.65874 15.5519ZM6.74454 15.4415C6.74433 15.434 6.74432 15.434 6.74431 15.434L6.74126 15.4341L6.73235 15.4344C6.72453 15.4346 6.71307 15.435 6.69847 15.4355C6.66927 15.4365 6.62751 15.438 6.57726 15.4401C6.47676 15.4443 6.34228 15.4509 6.20637 15.4603C6.0705 15.4696 5.93305 15.4818 5.82668 15.4973C5.77353 15.5051 5.7279 15.5137 5.69404 15.5232C5.67712 15.528 5.66288 15.5331 5.65201 15.5385C5.64146 15.5438 5.63276 15.5501 5.62881 15.5581C5.62226 15.5712 5.62097 15.588 5.62287 15.6071C5.62479 15.6262 5.63003 15.6484 5.63748 15.6727C5.65197 15.7201 5.67517 15.7768 5.6997 15.8368L5.70163 15.8415C5.72694 15.9034 5.75353 15.9687 5.7738 16.0316C5.79409 16.0946 5.80786 16.1546 5.80786 16.2058C5.80786 16.3259 5.80785 16.4229 5.8004 16.4973C5.79292 16.5722 5.77805 16.6222 5.7501 16.6501L5.7402 16.66L5.75393 16.6628C5.79209 16.6704 5.82304 16.6705 5.84479 16.6666C5.85562 16.6646 5.86455 16.6616 5.871 16.6576C5.87675 16.6541 5.88211 16.6489 5.88273 16.6418L5.88328 16.6401C5.88383 16.6384 5.88464 16.6358 5.88566 16.6325C5.8877 16.6258 5.89059 16.6159 5.89401 16.6033C5.90084 16.5781 5.90978 16.5419 5.91825 16.4976C5.93515 16.4094 5.95021 16.2891 5.94277 16.1612C5.95776 16.0554 5.94639 15.9573 5.92948 15.8728C5.92165 15.8336 5.91261 15.7973 5.90446 15.7645C5.90379 15.7618 5.90313 15.7592 5.90248 15.7565C5.89507 15.7267 5.8886 15.7001 5.88457 15.6769C5.88592 15.6772 5.8874 15.6775 5.88902 15.6779C5.90093 15.6803 5.9205 15.6831 5.95165 15.685C6.01395 15.6888 6.12299 15.6888 6.31052 15.6738C6.49826 15.6588 6.60763 15.6324 6.67029 15.6097C6.70164 15.5983 6.72137 15.5877 6.73341 15.5799C6.73944 15.5759 6.74354 15.5727 6.74621 15.5703C6.74754 15.5691 6.74852 15.5681 6.7492 15.5674C6.74953 15.5671 6.7498 15.5668 6.74999 15.5666L6.75024 15.5663L6.75033 15.5662C6.75033 15.5662 6.75039 15.5661 6.74454 15.5614L6.75039 15.5661L6.75203 15.564V15.4415H6.74454Z" fill="#707070"/>
<path fill-rule="evenodd" clip-rule="evenodd" d="M8.33281 15.3362C8.69249 15.3212 8.93228 15.3661 8.93228 15.3661C8.93228 15.3661 9.08215 15.6659 9.08215 15.8158C9.06716 15.9656 9.0222 16.1155 8.94727 16.0406C8.88732 15.9806 8.97724 15.9956 8.99223 15.8158C8.99223 15.6509 8.87234 15.4711 8.87234 15.4711C8.87234 15.4711 8.61756 15.576 8.2279 15.561C7.83824 15.531 7.95814 15.516 7.91317 15.501C7.86821 15.501 7.85323 15.6209 7.26874 15.6359C6.66926 15.6359 6.36953 15.501 6.36953 15.501C6.36953 15.501 6.30958 15.591 5.94989 15.6209H5.50029C5.51527 15.7108 5.59021 15.8907 5.57522 16.1155C5.57522 16.3553 5.50029 16.5951 5.50029 16.5951H5.39538C5.45533 16.5501 5.44034 16.3853 5.45533 16.1605C5.45533 15.9356 5.21554 15.6059 5.2605 15.501C5.32045 15.4111 5.59021 15.501 5.63517 15.4561C5.68013 15.3961 5.39538 15.0514 5.45533 14.7367C5.50029 14.422 5.81501 14.5119 6.18968 14.5119C6.56436 14.5269 7.38863 14.6318 7.59845 14.5119C7.80827 14.407 7.71835 14.0023 7.89819 13.7476C7.95788 13.6747 8.03352 13.6165 8.11928 13.5775C8.20503 13.5386 8.2986 13.5198 8.39276 13.5228C8.52764 13.5228 8.69249 13.9724 8.69249 14.0773L8.64753 14.1372H8.58758V14.1822C8.43772 14.1972 8.42273 14.0623 8.33281 13.9724C8.30283 14.1222 8.4527 14.6318 8.4527 14.9615C8.4527 15.2313 8.34779 15.3512 8.33281 15.3362Z" fill="#D0D0D0"/>
<path fill-rule="evenodd" clip-rule="evenodd" d="M8.3922 13.5299C8.2992 13.527 8.20677 13.5455 8.12206 13.584C8.03743 13.6225 7.96277 13.6799 7.90384 13.7518C7.82287 13.8666 7.79728 14.0124 7.77338 14.1487C7.77113 14.1615 7.76889 14.1743 7.76662 14.1869C7.75351 14.26 7.73935 14.3291 7.7151 14.3866C7.69081 14.4443 7.65613 14.4909 7.60167 14.5182C7.54752 14.549 7.45513 14.565 7.34263 14.5717C7.2296 14.5786 7.09488 14.5762 6.95522 14.5696C6.81553 14.5631 6.67071 14.5523 6.53748 14.5422C6.53149 14.5418 6.52553 14.5413 6.51959 14.5409C6.39338 14.5313 6.27849 14.5226 6.18921 14.5191C6.11735 14.5191 6.04764 14.5158 5.9818 14.5126C5.96168 14.5117 5.94191 14.5107 5.92256 14.5099C5.83966 14.5064 5.76437 14.505 5.6995 14.5134C5.63466 14.5217 5.58104 14.5397 5.54092 14.5742C5.50094 14.6085 5.47348 14.6601 5.46243 14.7374L5.46238 14.7378C5.43286 14.8927 5.48816 15.0557 5.54618 15.1886C5.56065 15.2218 5.57525 15.2529 5.58868 15.2816L5.58956 15.2835C5.60263 15.3113 5.61461 15.3369 5.62418 15.3594C5.63394 15.3823 5.64138 15.4025 5.6449 15.419C5.64832 15.435 5.64858 15.4499 5.64085 15.4602L5.6402 15.4611C5.63293 15.4684 5.62186 15.4722 5.60957 15.4743C5.59708 15.4764 5.58206 15.4769 5.56561 15.4766C5.5436 15.4761 5.51818 15.474 5.49178 15.4719C5.47886 15.4708 5.46571 15.4698 5.45261 15.4688C5.41238 15.466 5.37232 15.4647 5.33875 15.4695C5.30528 15.4743 5.28008 15.4849 5.2668 15.5043C5.26213 15.5156 5.26095 15.5306 5.26309 15.5491C5.26526 15.5679 5.27077 15.5897 5.27877 15.6141C5.29415 15.6609 5.31835 15.7159 5.34436 15.7751L5.34759 15.7824C5.37474 15.8442 5.40344 15.9101 5.42534 15.9746C5.44722 16.0391 5.4625 16.1027 5.4625 16.1601V16.1606C5.45876 16.2167 5.45688 16.269 5.45524 16.3168L5.45502 16.3232C5.45347 16.3684 5.45206 16.4095 5.44937 16.4454C5.44655 16.4831 5.44229 16.5155 5.43481 16.5416C5.4296 16.5597 5.42269 16.5752 5.41323 16.5873H5.49441C5.49485 16.5858 5.49539 16.584 5.496 16.5819C5.49803 16.5749 5.50094 16.5647 5.50444 16.5516C5.51143 16.5255 5.52077 16.4882 5.5301 16.4434C5.54878 16.3537 5.56741 16.2344 5.56741 16.1152V16.1147C5.57484 16.0032 5.56 15.9028 5.54136 15.8189C5.53238 15.7785 5.52252 15.742 5.51385 15.7098L5.51287 15.7062C5.50401 15.6733 5.4964 15.6448 5.49258 15.6218L5.49112 15.6131H5.94926C6.12838 15.5982 6.23234 15.5683 6.29127 15.5426C6.32074 15.5297 6.3389 15.5178 6.34957 15.5094C6.35491 15.5051 6.35837 15.5018 6.36044 15.4995C6.36148 15.4984 6.36217 15.4976 6.36257 15.4971L6.36297 15.4966L6.36649 15.4913L6.37228 15.4939L6.37246 15.494L6.37308 15.4942L6.37563 15.4953C6.37792 15.4963 6.38138 15.4977 6.386 15.4995C6.39526 15.5032 6.40919 15.5084 6.42781 15.5147C6.46503 15.5272 6.52098 15.544 6.59566 15.5608C6.74498 15.5944 6.9692 15.6281 7.26832 15.6281C7.5601 15.6206 7.70898 15.5869 7.79026 15.5555C7.8308 15.5399 7.85464 15.5247 7.87117 15.5135C7.87305 15.5122 7.87486 15.511 7.87662 15.5097C7.8825 15.5057 7.88776 15.5021 7.89254 15.4994C7.89896 15.4957 7.90543 15.4932 7.91286 15.4932H7.91407L7.91523 15.4936C7.92136 15.4956 7.92576 15.498 7.92877 15.5012C7.93175 15.5044 7.93273 15.5078 7.9333 15.5097C7.93333 15.5099 7.93336 15.51 7.93339 15.5101C7.93391 15.5118 7.93416 15.5124 7.9349 15.5132C7.93583 15.5142 7.93807 15.5159 7.94365 15.5181C7.95491 15.5224 7.97707 15.5275 8.02132 15.5333C8.06536 15.5391 8.13073 15.5457 8.22801 15.5532C8.42204 15.5606 8.58247 15.5382 8.69433 15.514C8.75028 15.5019 8.79407 15.4893 8.82383 15.4798C8.83871 15.475 8.85009 15.471 8.85772 15.4682C8.86154 15.4668 8.86442 15.4657 8.86634 15.4649L8.86848 15.4641L8.86901 15.4639L8.86913 15.4638L8.87484 15.4615L8.87825 15.4666L8.87835 15.4667L8.87862 15.4671L8.87965 15.4687C8.88055 15.4701 8.88186 15.4722 8.88352 15.4748C8.88684 15.4801 8.89157 15.4879 8.89724 15.4977C8.90857 15.5173 8.92367 15.5451 8.93878 15.5781C8.96891 15.6441 8.9994 15.7314 8.9994 15.8154V15.8161C8.99178 15.9076 8.9649 15.95 8.94763 15.9768L8.94753 15.977C8.94329 15.9836 8.93995 15.9888 8.93758 15.9935C8.93524 15.9982 8.93415 16.0019 8.93407 16.0053C8.93391 16.0118 8.93747 16.0202 8.95225 16.0349C8.9699 16.0526 8.98373 16.0551 8.9948 16.0508C9.007 16.0461 9.01905 16.032 9.03012 16.0089C9.05198 15.9634 9.06685 15.8897 9.07434 15.8151C9.07428 15.7787 9.06515 15.7328 9.05121 15.684C9.03725 15.6352 9.01862 15.5839 8.99994 15.5372C8.98127 15.4905 8.96259 15.4485 8.94858 15.4181C8.94157 15.403 8.93574 15.3907 8.93166 15.3823C8.92961 15.378 8.92801 15.3748 8.92692 15.3725C8.92515 15.3722 8.92275 15.3718 8.91974 15.3713C8.91253 15.3701 8.90182 15.3684 8.88783 15.3665C8.85984 15.3625 8.81876 15.3574 8.76644 15.3527C8.6638 15.3435 8.51796 15.3361 8.34304 15.3429C8.34107 15.3438 8.339 15.3444 8.33687 15.3446C8.33362 15.3448 8.33 15.344 8.32719 15.3412L8.33249 15.3359L8.33218 15.3284C8.3345 15.3283 8.33683 15.3282 8.33915 15.3281C8.34234 15.3261 8.34671 15.3224 8.35196 15.3166C8.36327 15.3039 8.3774 15.2826 8.39123 15.2522C8.41885 15.1914 8.44489 15.0951 8.44489 14.9612C8.44489 14.7971 8.40758 14.588 8.37382 14.4005L8.37275 14.3946C8.3563 14.3032 8.3408 14.2171 8.33115 14.1444C8.32133 14.0706 8.31737 14.0094 8.32514 13.9706L8.32789 13.9568L8.33779 13.9667C8.36083 13.9898 8.37897 14.0156 8.39543 14.0408C8.39945 14.0469 8.40335 14.053 8.4072 14.059C8.41924 14.0777 8.43071 14.0956 8.4433 14.1117C8.45978 14.1327 8.47771 14.1501 8.50023 14.1613C8.52125 14.1719 8.54679 14.1773 8.57977 14.175V14.1294H8.64347L8.68465 14.0745C8.68404 14.049 8.67415 14.0033 8.65715 13.9483C8.63968 13.8917 8.61498 13.8259 8.58609 13.7635C8.55717 13.701 8.5242 13.6421 8.49028 13.599C8.47332 13.5774 8.45632 13.56 8.43967 13.5481C8.42301 13.5361 8.40719 13.5299 8.39244 13.5299L8.3922 13.5299ZM8.36253 15.3272C8.52928 15.3217 8.66856 15.3289 8.76777 15.3378C8.82037 15.3425 8.86171 15.3476 8.88993 15.3516C8.90404 15.3536 8.91487 15.3553 8.92218 15.3565C8.92584 15.3571 8.92862 15.3576 8.93049 15.3579L8.93261 15.3583L8.93315 15.3584L8.93329 15.3585L8.93196 15.3658L8.93867 15.3625L8.93878 15.3627L8.93911 15.3634L8.94037 15.3659C8.94148 15.3682 8.94309 15.3715 8.94515 15.3757C8.94927 15.3843 8.95514 15.3966 8.96218 15.4119C8.97627 15.4424 8.99506 15.4847 9.01386 15.5316C9.03264 15.5786 9.05148 15.6304 9.06562 15.6799C9.07973 15.7293 9.08933 15.7769 9.08933 15.8154V15.8162C9.08181 15.8913 9.06669 15.9673 9.04363 16.0154C9.03221 16.0392 9.01804 16.0578 9.00026 16.0648C8.98136 16.0722 8.96146 16.0653 8.94165 16.0455C8.92645 16.0303 8.91877 16.0181 8.91909 16.0049C8.91924 15.9985 8.92131 15.9926 8.92418 15.9868C8.92691 15.9814 8.93064 15.9756 8.93462 15.9694L8.93503 15.9687C8.95146 15.9432 8.97703 15.9032 8.98442 15.8151C8.98434 15.7344 8.95492 15.6495 8.92515 15.5844C8.91028 15.5519 8.89541 15.5244 8.88426 15.5052C8.87869 15.4955 8.87405 15.4879 8.87082 15.4828C8.87017 15.4817 8.86958 15.4808 8.86904 15.4799C8.86735 15.4806 8.8653 15.4814 8.86289 15.4822C8.85507 15.4851 8.8435 15.4892 8.8284 15.494C8.79822 15.5037 8.75396 15.5164 8.69751 15.5286C8.5846 15.5531 8.42285 15.5757 8.22729 15.5681L8.22701 15.5681C8.12954 15.5606 8.06381 15.5541 8.01936 15.5482C7.9751 15.5423 7.95135 15.5371 7.93827 15.5321C7.93167 15.5295 7.92711 15.5268 7.92401 15.5235C7.92071 15.52 7.91966 15.5165 7.91901 15.5143C7.91839 15.5122 7.91825 15.5119 7.91784 15.5115C7.91733 15.5109 7.91587 15.5097 7.9117 15.5082C7.90826 15.5085 7.90467 15.5097 7.89992 15.5124C7.89577 15.5148 7.89127 15.5179 7.88556 15.5218C7.88371 15.5231 7.88174 15.5244 7.8796 15.5259C7.86242 15.5376 7.83755 15.5533 7.79566 15.5695C7.7121 15.6018 7.56126 15.6356 7.26861 15.6431L7.26842 15.6431C6.96812 15.6431 6.74276 15.6093 6.59237 15.5755C6.51717 15.5585 6.46072 15.5416 6.42301 15.5289C6.40416 15.5225 6.38999 15.5172 6.38051 15.5135C6.37671 15.512 6.37367 15.5107 6.37137 15.5098C6.36876 15.5126 6.36474 15.5165 6.35887 15.5211C6.34706 15.5305 6.32776 15.5429 6.29728 15.5563C6.23635 15.5829 6.13057 15.613 5.9502 15.6281L5.94958 15.6281L5.50895 15.6281C5.51294 15.6486 5.51955 15.6734 5.52734 15.7023L5.52834 15.706C5.537 15.7381 5.54693 15.7749 5.55599 15.8157C5.5748 15.9003 5.58992 16.0022 5.5824 16.1154C5.58237 16.2359 5.56355 16.3563 5.54477 16.4464C5.53537 16.4915 5.52597 16.5291 5.51892 16.5555C5.51539 16.5686 5.51245 16.579 5.51038 16.5861C5.50935 16.5896 5.50854 16.5923 5.50798 16.5942L5.50735 16.5963L5.50718 16.5968L5.50714 16.5969L5.50548 16.6022H5.37258L5.39057 16.5888C5.40366 16.5789 5.41334 16.562 5.42041 16.5374C5.42745 16.5129 5.43162 16.4816 5.43442 16.4443C5.4371 16.4087 5.43849 16.3679 5.44005 16.3225L5.44026 16.3163C5.4419 16.2686 5.44377 16.2161 5.44751 16.1599C5.44747 16.1049 5.43279 16.0432 5.41115 15.9794C5.38949 15.9156 5.36105 15.8503 5.33387 15.7885L5.33048 15.7808C5.30462 15.7219 5.28015 15.6663 5.26453 15.6187C5.25638 15.5939 5.25053 15.571 5.2482 15.5508C5.24587 15.5307 5.24695 15.5126 5.25329 15.4978L5.25356 15.4971L5.25394 15.4966C5.27075 15.4713 5.30158 15.4597 5.33663 15.4547C5.3719 15.4496 5.41334 15.4511 5.45366 15.4539C5.46721 15.4548 5.4806 15.4559 5.49363 15.457C5.51973 15.4591 5.54437 15.4611 5.56593 15.4616C5.58203 15.462 5.59594 15.4614 5.60704 15.4595C5.61797 15.4576 5.62511 15.4546 5.62916 15.4508C5.63243 15.4461 5.63346 15.4372 5.63024 15.4221C5.62704 15.4071 5.62008 15.388 5.61039 15.3653C5.60093 15.343 5.58905 15.3177 5.57591 15.2896L5.57511 15.288C5.56168 15.2593 5.54701 15.228 5.53244 15.1946C5.47433 15.0615 5.41725 14.8949 5.44761 14.7351C5.45906 14.6552 5.48779 14.6001 5.53115 14.5628C5.57439 14.5256 5.6313 14.507 5.69759 14.4985C5.76386 14.49 5.84031 14.4914 5.9232 14.495C5.9427 14.4958 5.96256 14.4967 5.98275 14.4977C6.04857 14.5008 6.11784 14.5041 6.18937 14.5041H6.18966C6.27924 14.5077 6.39443 14.5164 6.52056 14.5259C6.52655 14.5264 6.53257 14.5268 6.53861 14.5273C6.67186 14.5374 6.81648 14.5481 6.95592 14.5547C7.09539 14.5612 7.22949 14.5636 7.34173 14.5568C7.45438 14.55 7.54363 14.5341 7.59441 14.5051L7.59478 14.5049C7.64511 14.4797 7.67783 14.4365 7.70129 14.3808C7.72481 14.325 7.73874 14.2574 7.75187 14.1843C7.75415 14.1716 7.7564 14.1587 7.75868 14.1457C7.78245 14.01 7.8086 13.8607 7.89175 13.7429L7.89206 13.7425C7.95247 13.6687 8.02906 13.6099 8.11586 13.5704C8.20263 13.531 8.29729 13.512 8.39256 13.5149C8.41148 13.515 8.43028 13.5229 8.44841 13.5359C8.4666 13.5489 8.4846 13.5675 8.50206 13.5897C8.537 13.6341 8.57053 13.6942 8.59969 13.7572C8.62887 13.8203 8.65381 13.8866 8.67147 13.9438C8.68903 14.0008 8.69967 14.0495 8.69967 14.077V14.0795L8.65096 14.1444H8.59476V14.1886L8.58801 14.1893C8.54936 14.1932 8.51886 14.1874 8.49352 14.1748C8.46827 14.1621 8.44873 14.1429 8.4315 14.1209C8.41844 14.1042 8.40644 14.0855 8.3943 14.0666C8.39052 14.0608 8.38673 14.0549 8.38289 14.049C8.36924 14.0281 8.35479 14.0074 8.3376 13.9883C8.33362 14.0247 8.3374 14.0778 8.34601 14.1425C8.35561 14.2148 8.37106 14.3006 8.38754 14.3921L8.38857 14.3978C8.42225 14.585 8.45988 14.7955 8.45988 14.9612C8.45988 15.097 8.43346 15.1955 8.40488 15.2584C8.39061 15.2898 8.37571 15.3125 8.36313 15.3266C8.36293 15.3268 8.36273 15.327 8.36253 15.3272ZM8.93196 15.3658L8.93867 15.3625L8.937 15.3591L8.93329 15.3585L8.93196 15.3658Z" fill="#707070"/>
<path fill-rule="evenodd" clip-rule="evenodd" d="M7.14862 14.857C7.14862 14.9619 6.68403 15.2167 6.63907 15.3066C6.6091 15.4115 6.75896 15.4565 6.714 15.5164C6.66904 15.5763 6.62408 15.5464 6.6091 15.5614L6.42925 15.1867C6.42925 15.1867 6.87886 14.9769 6.86387 14.887C6.84889 14.797 6.53416 14.7371 6.47421 14.5273C6.41427 14.3174 6.44424 13.8828 6.39928 13.7929C6.35432 13.703 5.7998 13.6131 5.7998 13.4932C5.7998 13.3433 6.36931 12.9836 6.42925 12.9237C6.4892 12.8637 6.54915 12.9836 6.4892 13.0286C6.42925 13.0885 5.99463 13.4332 5.99463 13.4782C5.99463 13.5381 6.35432 13.5981 6.47421 13.5981C6.6091 13.5981 6.66904 13.5381 6.66904 13.4782C6.66904 13.4332 6.53416 13.4332 6.53416 13.3283C6.53416 13.2234 6.6091 13.1485 6.72899 13.1485C6.78894 13.1485 6.90883 13.2234 6.90883 13.3133C6.90883 13.4033 6.80393 13.4182 6.78894 13.4782C6.77395 13.5531 6.90883 13.5981 7.02873 13.5981C7.14862 13.5981 7.56826 13.9128 7.6282 13.9728C7.70314 14.0177 7.76308 14.0177 7.70314 14.0777C7.64319 14.1376 7.67316 14.1976 7.61322 14.1376C7.58403 14.1088 7.5633 14.0725 7.55327 14.0327C7.55327 13.9877 7.10366 13.7629 7.02873 13.8079C6.96878 13.8678 7.02873 14.5273 7.02873 14.5872C7.02873 14.6921 7.16361 14.6921 7.14862 14.857Z" fill="#D0D0D0"/>
<path fill-rule="evenodd" clip-rule="evenodd" d="M6.47106 12.9154C6.4611 12.9127 6.44876 12.9151 6.43521 12.9287C6.42726 12.9366 6.41134 12.9491 6.39013 12.9649C6.36876 12.9808 6.34154 13.0004 6.31065 13.0226L6.31005 13.0231C6.24832 13.0675 6.17187 13.1225 6.0973 13.1803C6.02244 13.2383 5.94971 13.299 5.89575 13.3543C5.86876 13.382 5.84666 13.4082 5.83134 13.4319C5.81592 13.4558 5.80796 13.4763 5.80796 13.4929C5.80796 13.5048 5.81487 13.5175 5.82947 13.531C5.84397 13.5444 5.8651 13.5577 5.89119 13.5709C5.94334 13.5974 6.01357 13.6225 6.08574 13.6469C6.10252 13.6525 6.11941 13.6582 6.13618 13.6637C6.19129 13.6821 6.24517 13.7001 6.29005 13.7177C6.31933 13.7292 6.34508 13.7408 6.36503 13.7523C6.38465 13.7637 6.39996 13.7759 6.40664 13.7892C6.41277 13.8015 6.41736 13.819 6.42099 13.8401C6.42465 13.8613 6.42742 13.8867 6.42965 13.9152C6.43362 13.9657 6.43591 14.0261 6.43834 14.0901C6.43865 14.0982 6.43896 14.1064 6.43927 14.1145C6.4449 14.261 6.45241 14.421 6.48208 14.5249C6.51117 14.6267 6.60233 14.6929 6.6904 14.7453C6.70681 14.7551 6.72321 14.7645 6.73901 14.7735C6.76507 14.7883 6.78954 14.8023 6.80989 14.8158C6.82635 14.8267 6.84064 14.8376 6.85137 14.8488C6.86207 14.86 6.86971 14.8721 6.87192 14.8854C6.87432 14.8998 6.86732 14.9151 6.85613 14.9299C6.84474 14.9449 6.82788 14.9609 6.80765 14.9772C6.76715 15.0099 6.71195 15.0448 6.65658 15.0767C6.60115 15.1087 6.54528 15.1378 6.50329 15.1589C6.48229 15.1694 6.46475 15.178 6.45245 15.1839C6.44732 15.1864 6.4431 15.1884 6.43993 15.1899L6.61303 15.5506C6.61729 15.5491 6.62183 15.5488 6.6259 15.5486C6.62871 15.5485 6.63143 15.5485 6.63417 15.5486C6.6392 15.5486 6.64431 15.5486 6.65022 15.548C6.66704 15.5463 6.68755 15.5398 6.70867 15.5116C6.71351 15.5051 6.71543 15.4993 6.71563 15.4939C6.71584 15.4884 6.71428 15.4826 6.71103 15.4762C6.70506 15.4644 6.69435 15.4524 6.6819 15.4383C6.68036 15.4366 6.67879 15.4348 6.6772 15.433C6.64926 15.4013 6.61631 15.361 6.63252 15.3042L6.63271 15.3035L6.63302 15.3029C6.63929 15.2904 6.65236 15.2758 6.66943 15.2599C6.6867 15.2439 6.70875 15.226 6.73376 15.2069C6.76895 15.18 6.81035 15.1503 6.85296 15.1198C6.87088 15.107 6.889 15.094 6.90697 15.081C6.96786 15.037 7.02704 14.9927 7.07096 14.953C7.09293 14.9331 7.11085 14.9146 7.12322 14.8979C7.13577 14.8811 7.14179 14.8673 7.14179 14.8567H7.14928L7.14182 14.856C7.14547 14.8158 7.13997 14.7862 7.12997 14.7626C7.11995 14.739 7.1052 14.7211 7.08951 14.7044C7.0854 14.7001 7.08119 14.6958 7.07697 14.6915C7.04953 14.6637 7.02189 14.6356 7.02189 14.5869C7.02189 14.5752 7.01952 14.5396 7.01617 14.4893C7.01533 14.4767 7.01442 14.4631 7.01348 14.4488C7.00879 14.3776 7.00317 14.2876 6.99942 14.1976C6.99567 14.1076 6.99379 14.0174 6.99661 13.9459C6.99802 13.9102 7.00061 13.8789 7.00479 13.8546C7.00688 13.8424 7.00939 13.8318 7.01244 13.8231C7.01543 13.8145 7.01916 13.8072 7.02409 13.8023L7.02474 13.8016L7.02553 13.8012C7.03711 13.7942 7.05447 13.7931 7.07418 13.795C7.0943 13.797 7.1185 13.8024 7.14507 13.8102C7.19824 13.8258 7.26183 13.8513 7.3229 13.8795C7.38398 13.9077 7.4428 13.9387 7.48644 13.9656C7.50822 13.979 7.52642 13.9915 7.53926 14.0022C7.54566 14.0075 7.55094 14.0126 7.55469 14.0173C7.55795 14.0213 7.56099 14.0261 7.56138 14.0313C7.57115 14.0695 7.59111 14.1043 7.61914 14.132C7.62656 14.1394 7.63244 14.1448 7.63714 14.1485C7.64195 14.1523 7.645 14.1539 7.64684 14.1544C7.64804 14.1548 7.64825 14.1546 7.64838 14.1545C7.64836 14.1545 7.64839 14.1545 7.64838 14.1545C7.64909 14.154 7.65036 14.1525 7.65213 14.1489C7.65352 14.1462 7.65498 14.1426 7.65669 14.1384C7.66332 14.1222 7.67375 14.0968 7.6985 14.072C7.7134 14.0571 7.71934 14.0473 7.72054 14.0407C7.72108 14.0377 7.72065 14.0353 7.71952 14.0331C7.71829 14.0307 7.71604 14.0281 7.71231 14.0252C7.70466 14.0192 7.69288 14.0135 7.67739 14.0061L7.67622 14.0056C7.66128 13.9985 7.64361 13.99 7.62501 13.9789L7.62421 13.9784L7.62356 13.9777C7.59414 13.9483 7.47477 13.855 7.3474 13.7688C7.28382 13.7258 7.21849 13.6848 7.16168 13.6545C7.13327 13.6394 7.10712 13.627 7.08446 13.6184C7.06164 13.6098 7.043 13.6053 7.02939 13.6053C6.96867 13.6053 6.9039 13.5939 6.85589 13.5728C6.83191 13.5622 6.81157 13.549 6.79815 13.533C6.78454 13.5169 6.77798 13.4978 6.78225 13.4764L6.78232 13.4761C6.78656 13.4591 6.7971 13.4457 6.80952 13.434C6.81806 13.426 6.82806 13.4183 6.83793 13.4106C6.84218 13.4074 6.8464 13.4041 6.85048 13.4008C6.87823 13.3786 6.902 13.3544 6.902 13.313C6.902 13.2714 6.87408 13.2321 6.83737 13.2027C6.80062 13.1733 6.75727 13.1557 6.72965 13.1557C6.67127 13.1557 6.62452 13.1739 6.59242 13.2042C6.56034 13.2345 6.54231 13.2774 6.54231 13.328C6.54231 13.3762 6.5728 13.4005 6.6059 13.4189C6.61281 13.4227 6.61971 13.4262 6.62644 13.4296C6.62778 13.4303 6.62911 13.431 6.63043 13.4317C6.63833 13.4357 6.64598 13.4397 6.65262 13.4439C6.66541 13.452 6.67719 13.4623 6.67719 13.4779C6.67719 13.5106 6.66079 13.5427 6.62719 13.5664C6.59371 13.5901 6.54333 13.6053 6.47487 13.6053C6.41419 13.6053 6.29372 13.5902 6.18855 13.5676C6.13595 13.5564 6.08677 13.5431 6.05061 13.5289C6.03258 13.5217 6.01738 13.5142 6.00655 13.5063C5.99611 13.4986 5.9878 13.4892 5.9878 13.4779C5.9878 13.4751 5.98861 13.4723 5.98963 13.4699C5.99067 13.4674 5.99213 13.4648 5.99387 13.462C5.99735 13.4566 6.00231 13.4502 6.00842 13.4432C6.02066 13.4291 6.03808 13.4115 6.05898 13.3916C6.10081 13.3519 6.15714 13.3026 6.21523 13.253C6.25813 13.2163 6.30206 13.1794 6.3419 13.1459C6.35601 13.134 6.36961 13.1226 6.38246 13.1118C6.43178 13.0702 6.46986 13.0377 6.48456 13.023L6.48532 13.0222C6.51128 13.0027 6.51218 12.9661 6.49823 12.94C6.49135 12.9271 6.48153 12.9182 6.47106 12.9154ZM7.15677 14.857C7.15665 14.8725 7.14818 14.8895 7.13524 14.9069C7.12203 14.9246 7.1033 14.9439 7.08101 14.9641C7.03642 15.0044 6.97663 15.0491 6.91575 15.0932C6.89763 15.1063 6.87942 15.1193 6.86146 15.1322C6.81894 15.1626 6.77786 15.192 6.74287 15.2188C6.718 15.2378 6.69638 15.2554 6.67963 15.2709C6.66303 15.2863 6.65186 15.2992 6.64674 15.309C6.63343 15.3568 6.66031 15.3912 6.68843 15.4231C6.69001 15.4249 6.69159 15.4266 6.69317 15.4284C6.70534 15.4421 6.71748 15.4558 6.72439 15.4694C6.72839 15.4773 6.73093 15.4856 6.73061 15.4944C6.73028 15.5034 6.72705 15.5121 6.72066 15.5206C6.69682 15.5524 6.67236 15.5608 6.65171 15.5629C6.64512 15.5635 6.6385 15.5635 6.63303 15.5636C6.63054 15.5636 6.62829 15.5636 6.6264 15.5636C6.61937 15.5639 6.61654 15.5649 6.61505 15.5663L6.60757 15.5738L6.41988 15.1828L6.42674 15.1796L6.42801 15.179L6.43175 15.1772C6.43502 15.1757 6.43983 15.1734 6.44595 15.1704C6.45818 15.1645 6.47565 15.156 6.49656 15.1455C6.5384 15.1245 6.594 15.0955 6.6491 15.0637C6.70426 15.0319 6.75865 14.9975 6.79824 14.9656C6.81805 14.9496 6.83386 14.9345 6.84418 14.9208C6.85472 14.9069 6.85849 14.896 6.85714 14.8879C6.85561 14.8787 6.85013 14.8692 6.84052 14.8591C6.83093 14.8491 6.81771 14.8389 6.80162 14.8283C6.78161 14.815 6.75796 14.8015 6.73231 14.7869C6.71642 14.7778 6.69977 14.7683 6.68273 14.7582C6.5947 14.7058 6.49852 14.637 6.46767 14.529C6.43739 14.423 6.4299 14.2609 6.4243 14.1151C6.42398 14.1069 6.42367 14.0988 6.42337 14.0907C6.42093 14.0267 6.41865 13.9665 6.41471 13.9164C6.4125 13.8881 6.40977 13.8632 6.40622 13.8426C6.40265 13.8219 6.39835 13.8062 6.39323 13.7959C6.38867 13.7868 6.37682 13.7765 6.35751 13.7653C6.33853 13.7543 6.31358 13.7431 6.28456 13.7317C6.24009 13.7142 6.18676 13.6964 6.13174 13.6781C6.11489 13.6725 6.09789 13.6668 6.08094 13.6611C6.00886 13.6367 5.93765 13.6113 5.88442 13.5843C5.85782 13.5708 5.83528 13.5568 5.81929 13.542C5.80338 13.5273 5.79297 13.5109 5.79297 13.4929C5.79297 13.472 5.8028 13.4485 5.81876 13.4238C5.83482 13.3989 5.85768 13.3719 5.88502 13.3438C5.93971 13.2877 6.0131 13.2266 6.08812 13.1685C6.1629 13.1105 6.23953 13.0554 6.30122 13.011L6.30189 13.0105C6.33282 12.9882 6.35993 12.9687 6.38118 12.9529C6.40259 12.9369 6.41758 12.9251 6.42461 12.9181C6.44103 12.9016 6.45867 12.8965 6.47494 12.9009C6.49069 12.9051 6.50335 12.9177 6.51146 12.9329C6.52742 12.9629 6.52833 13.0084 6.49479 13.0339C6.47926 13.0494 6.44076 13.0822 6.39212 13.1232C6.37924 13.1341 6.36562 13.1455 6.35149 13.1574C6.31167 13.1909 6.26781 13.2278 6.22496 13.2644C6.1669 13.314 6.11083 13.3631 6.0693 13.4025C6.04851 13.4222 6.03151 13.4394 6.01975 13.453C6.01385 13.4598 6.00942 13.4655 6.0065 13.4701C6.00505 13.4724 6.00406 13.4742 6.00345 13.4757C6.00316 13.4764 6.00298 13.4769 6.00288 13.4773C6.00278 13.4777 6.00279 13.4779 6.00279 13.4779C6.00279 13.4815 6.00571 13.4871 6.01541 13.4942C6.02472 13.501 6.03856 13.508 6.05612 13.5149C6.09115 13.5288 6.13939 13.5418 6.19169 13.553C6.29634 13.5754 6.41566 13.5903 6.47487 13.5903C6.54129 13.5903 6.58833 13.5755 6.61855 13.5542C6.64864 13.5329 6.66221 13.5051 6.66221 13.4779C6.66221 13.4709 6.65713 13.4644 6.64463 13.4566C6.63863 13.4528 6.63153 13.4491 6.62361 13.445C6.62233 13.4444 6.62102 13.4437 6.6197 13.443C6.61297 13.4396 6.60579 13.436 6.59862 13.432C6.56428 13.4129 6.52733 13.3847 6.52733 13.328C6.52733 13.2737 6.54676 13.2267 6.58213 13.1933C6.61747 13.1599 6.66813 13.1407 6.72965 13.1407C6.76197 13.1407 6.80855 13.1605 6.84673 13.191C6.88496 13.2216 6.91698 13.2647 6.91698 13.313C6.91698 13.3616 6.8883 13.3898 6.85984 13.4125C6.85528 13.4162 6.85078 13.4197 6.84639 13.423C6.83682 13.4304 6.82778 13.4374 6.81979 13.4449C6.80837 13.4557 6.80019 13.4666 6.79691 13.4795C6.79376 13.4956 6.79844 13.5101 6.80961 13.5234C6.82101 13.5369 6.83907 13.549 6.86193 13.5591C6.90759 13.5792 6.9702 13.5903 7.02939 13.5903C7.04575 13.5903 7.06644 13.5956 7.08976 13.6044C7.11323 13.6133 7.14 13.626 7.16873 13.6413C7.22619 13.6719 7.292 13.7133 7.3558 13.7564C7.4823 13.842 7.60192 13.9353 7.63349 13.9665C7.65119 13.977 7.66803 13.9851 7.68283 13.9921L7.68384 13.9926C7.69878 13.9997 7.71229 14.0062 7.72151 14.0134C7.72621 14.017 7.73028 14.0212 7.73286 14.0262C7.73553 14.0315 7.73639 14.0372 7.73529 14.0433C7.73321 14.0549 7.72416 14.0676 7.70909 14.0826C7.68677 14.105 7.67783 14.1266 7.67111 14.1429C7.66916 14.1476 7.66739 14.1519 7.66554 14.1556C7.66356 14.1596 7.66104 14.1638 7.65731 14.1665C7.65299 14.1697 7.64795 14.1703 7.64273 14.1689C7.63801 14.1675 7.6331 14.1644 7.62784 14.1603C7.62247 14.156 7.61615 14.1502 7.60859 14.1426M7.03407 13.8135C7.03167 13.8162 7.02908 13.8209 7.02658 13.828C7.02391 13.8356 7.02157 13.8454 7.01956 13.8571C7.01554 13.8805 7.01298 13.911 7.01158 13.9465C7.00879 14.0174 7.01065 14.1071 7.01439 14.1969C7.01814 14.2868 7.02375 14.3766 7.02843 14.4478C7.02936 14.4619 7.03026 14.4753 7.03109 14.4878C7.03445 14.5383 7.03688 14.5746 7.03688 14.5869C7.03688 14.629 7.0598 14.6525 7.08725 14.6805C7.09154 14.6849 7.09595 14.6894 7.1004 14.6942C7.11656 14.7113 7.13272 14.7308 7.14377 14.7568C7.15482 14.7828 7.16056 14.8149 7.15677 14.857" fill="#707070"/>
<path fill-rule="evenodd" clip-rule="evenodd" d="M6.37012 13.583H7.11946V14.3473H6.37012V13.583Z" fill="#A7A7A7"/>
<path d="M8.75395 16.3411L6.29447 12.6493C6.27153 12.6148 6.24109 12.5932 6.22648 12.601C6.21187 12.6088 6.21863 12.643 6.24158 12.6775L8.70105 16.3694C8.72399 16.4038 8.75444 16.4254 8.76904 16.4176C8.78365 16.4098 8.77689 16.3756 8.75395 16.3411Z" fill="#808080"/>
<path fill-rule="evenodd" clip-rule="evenodd" d="M6.56346 12.9831C6.56346 13.0123 6.5505 13.0403 6.52742 13.061C6.50435 13.0816 6.47305 13.0932 6.44042 13.0932C6.40779 13.0932 6.37649 13.0816 6.35342 13.061C6.33035 13.0403 6.31738 13.0123 6.31738 12.9831C6.31738 12.9539 6.33035 12.9259 6.35342 12.9053C6.37649 12.8846 6.40779 12.873 6.44042 12.873C6.47305 12.873 6.50435 12.8846 6.52742 12.9053C6.5505 12.9259 6.56346 12.9539 6.56346 12.9831Z" fill="#D0D0D0"/>
<path fill-rule="evenodd" clip-rule="evenodd" d="M6.4408 12.8806C6.41007 12.8806 6.38075 12.8916 6.35927 12.9108C6.33781 12.93 6.32596 12.9558 6.32596 12.9825C6.32596 13.0092 6.33781 13.0351 6.35927 13.0543C6.38075 13.0735 6.41007 13.0844 6.4408 13.0844C6.47154 13.0844 6.50086 13.0735 6.52234 13.0543C6.5438 13.0351 6.55565 13.0092 6.55565 12.9825C6.55565 12.9558 6.5438 12.93 6.52234 12.9108C6.50086 12.8916 6.47154 12.8806 6.4408 12.8806ZM6.34834 12.8986C6.373 12.8765 6.40628 12.8643 6.4408 12.8643C6.47533 12.8643 6.50861 12.8765 6.53327 12.8986C6.55796 12.9207 6.57204 12.9509 6.57204 12.9825C6.57204 13.0142 6.55796 13.0444 6.53327 13.0665C6.50861 13.0885 6.47533 13.1008 6.4408 13.1008C6.40628 13.1008 6.373 13.0885 6.34834 13.0665C6.32365 13.0444 6.30957 13.0142 6.30957 12.9825C6.30957 12.9509 6.32365 12.9207 6.34834 12.8986Z" fill="#707070"/>
<path fill-rule="evenodd" clip-rule="evenodd" d="M8.70744 13.972C8.70744 14.017 8.4077 14.0769 8.09298 14.0769C7.76327 14.0769 7.47852 14.017 7.47852 13.972C7.47852 13.927 7.76327 14.0469 8.07799 14.0469C8.42269 14.0469 8.70744 13.927 8.70744 13.972Z" fill="#808080"/>
<path fill-rule="evenodd" clip-rule="evenodd" d="M6.42969 14.3467H7.04415V14.5715H6.44468L6.42969 14.3467Z" fill="#A7A7A7"/>
<path fill-rule="evenodd" clip-rule="evenodd" d="M8.42263 13.8078C8.36268 13.9277 8.31772 14.0026 8.30273 13.9877C8.30273 13.9877 8.33271 13.8678 8.39266 13.7628L8.51255 13.583C8.52754 13.598 8.48258 13.7029 8.42263 13.8078ZM8.5725 14.1075L8.4526 14.1825C8.48367 14.1303 8.52436 14.0846 8.5725 14.0476C8.64743 13.9877 8.70738 13.9577 8.70738 13.9727L8.58749 14.0926L8.5725 14.1075Z" fill="#808080"/>
<path fill-rule="evenodd" clip-rule="evenodd" d="M8.51252 13.9575L8.58746 14.1373L8.46756 13.9875L8.39263 13.8076L8.51252 13.9575ZM8.45258 14.4371C8.45258 14.4371 8.27273 14.467 8.03294 14.467C7.79315 14.467 7.59832 14.4521 7.59832 14.4371L8.03294 14.4071C8.27273 14.4071 8.45258 14.4071 8.45258 14.4371ZM7.04381 14.3771C7.04381 14.3921 6.90893 14.4071 6.74407 14.4071C6.56423 14.4071 6.44434 14.4071 6.44434 14.3771C6.44434 14.3771 6.56423 14.3471 6.74407 14.3471C6.90893 14.3471 7.04381 14.3621 7.04381 14.3771Z" fill="#808080"/>
<path fill-rule="evenodd" clip-rule="evenodd" d="M5.69531 16.2957C5.69531 16.2957 5.80022 16.5355 6.23484 16.5355C6.65447 16.5355 6.80434 16.4606 6.63948 16.3407C6.47463 16.2208 6.12993 16.2508 6.18988 16.3557C6.21985 16.4756 6.055 16.5055 6.02502 16.4306C5.98006 16.3557 5.83019 16.1159 6.09996 16.1009C6.38471 16.0859 6.9692 15.996 7.11907 16.1608C7.26893 16.3257 6.95421 16.4606 7.194 16.5055C7.4188 16.5355 7.46376 16.4606 7.86841 16.4456C8.27306 16.4156 8.43791 16.5205 8.57279 16.5055C8.72266 16.5055 8.69269 16.2508 8.57279 16.2058C8.46788 16.1309 8.25807 16.1159 8.19812 16.0559C8.15316 15.981 8.00329 16.0559 8.01828 15.966C8.01828 15.8911 8.22809 16.011 8.22809 15.981L8.25807 15.951H8.21311L8.22809 15.9211L8.19812 15.936L8.21311 15.9061C8.21311 15.9061 8.16815 15.936 8.16815 15.9061H8.13817C8.16815 15.8761 8.15316 15.8761 8.13817 15.8611H8.09321V15.8161C8.06324 15.8161 8.06324 15.8161 8.04825 15.8461V15.7712C8.04825 15.7562 8.07823 15.7412 8.12319 15.7412C8.22809 15.7412 8.27306 15.8611 8.31802 15.8611C8.34799 15.8611 8.39295 15.7412 8.52783 15.7862L8.75263 15.8761C8.82757 15.9211 8.70767 15.966 8.75263 16.026C8.79759 16.0859 9.06736 16.2807 8.99242 16.5055C8.91749 16.7154 8.69269 16.7453 8.69269 16.8353C8.66271 16.9252 9.33712 16.8952 9.50198 16.9252C9.61661 16.946 9.7187 17.0104 9.78673 17.105L9.48699 17.12C9.48699 17.12 9.33712 17.0451 8.96245 17.0301C8.58778 17.0301 8.4529 16.8802 8.30303 16.8502L7.70355 16.8802L7.25395 16.8353C7.16403 16.8203 6.6245 17.075 6.6245 17.135H6.26481C6.26481 17.135 6.30977 17.0001 6.51959 16.9851C6.71442 16.9551 6.92424 16.8652 6.90925 16.8053L6.9692 16.4156C6.9692 16.3257 7.05912 16.2658 7.04413 16.2358C7.02914 16.1758 6.78935 16.1309 6.56455 16.1309C6.33975 16.1309 6.09996 16.1459 6.055 16.1908C6.02502 16.2508 6.055 16.4156 6.09996 16.3856C6.14492 16.3856 6.08497 16.2658 6.12993 16.2508C6.22704 16.2209 6.32807 16.2058 6.42967 16.2058C6.54956 16.2058 6.74439 16.3107 6.74439 16.3557C6.74439 16.3707 6.80434 16.4756 6.71442 16.5205C6.56483 16.5701 6.4071 16.5905 6.24983 16.5805C6.09324 16.5723 5.94009 16.5315 5.80022 16.4606C5.74027 16.4156 5.69531 16.3107 5.69531 16.2957Z" fill="#D0D0D0"/>
<path fill-rule="evenodd" clip-rule="evenodd" d="M8.05862 15.7652C8.05598 15.7678 8.05543 15.7697 8.05543 15.7709V15.818C8.05698 15.8162 8.05868 15.8146 8.06064 15.8133C8.06484 15.8105 8.06946 15.8094 8.07455 15.8088C8.07939 15.8083 8.08534 15.8083 8.0925 15.8083L8.10039 15.8083V15.8533H8.14096L8.14315 15.8555C8.14562 15.858 8.14793 15.8598 8.15031 15.8618C8.15127 15.8626 8.15224 15.8634 8.15323 15.8642C8.15622 15.8667 8.16015 15.8703 8.16182 15.8753C8.1637 15.8809 8.16225 15.8865 8.15909 15.8919C8.15795 15.8939 8.1565 15.896 8.15475 15.8983H8.17532V15.9057C8.17532 15.9086 8.17587 15.91 8.17619 15.9105C8.17641 15.9109 8.17666 15.9111 8.17722 15.9113C8.17898 15.9119 8.18257 15.9117 8.18794 15.9099C8.19293 15.9082 8.1981 15.9056 8.20212 15.9034C8.20411 15.9023 8.20576 15.9013 8.20691 15.9006L8.20822 15.8998L8.20855 15.8996L8.20863 15.8995M8.0854 15.8233C8.08161 15.8234 8.07862 15.8235 8.07611 15.8237C8.0723 15.8241 8.07036 15.8249 8.06895 15.8258C8.06746 15.8268 8.0658 15.8285 8.06346 15.8324C8.06109 15.8363 8.05844 15.8415 8.05463 15.8492L8.04044 15.8458V15.7709C8.04044 15.7645 8.04363 15.7589 8.04802 15.7546C8.05241 15.7502 8.05847 15.7464 8.06559 15.7434C8.07985 15.7373 8.09964 15.7334 8.12287 15.7334C8.17846 15.7334 8.21779 15.7653 8.24806 15.7955C8.25468 15.8022 8.2607 15.8085 8.26637 15.8145C8.27407 15.8226 8.28112 15.8301 8.28812 15.8365C8.30028 15.8478 8.30961 15.8533 8.3177 15.8533C8.31903 15.8533 8.3214 15.8526 8.32536 15.8497C8.32921 15.8469 8.33359 15.8427 8.33886 15.8375C8.3405 15.8358 8.34221 15.8341 8.344 15.8323C8.35343 15.8227 8.3649 15.8111 8.37871 15.8005C8.39526 15.7879 8.41547 15.7765 8.44051 15.7713C8.4656 15.766 8.49504 15.7671 8.52988 15.7787L8.5303 15.7789L8.75622 15.8693L8.75617 15.8693C8.77611 15.8813 8.7851 15.8946 8.7851 15.9097C8.7851 15.9237 8.77724 15.9372 8.76994 15.949C8.76908 15.9504 8.76823 15.9518 8.76739 15.9531C8.76053 15.9642 8.75412 15.9745 8.7511 15.9853C8.74792 15.9966 8.7486 16.0082 8.75831 16.0211C8.76356 16.0282 8.77233 16.0374 8.78389 16.0489C8.78976 16.0548 8.7961 16.061 8.80291 16.0677C8.80966 16.0742 8.81687 16.0813 8.82457 16.0889C8.85509 16.1192 8.89098 16.1565 8.92315 16.1991C8.98732 16.284 9.03788 16.3916 8.99921 16.5076L8.99916 16.5077C8.96087 16.6149 8.88428 16.676 8.81837 16.7212C8.80876 16.7278 8.79944 16.734 8.79052 16.74C8.76857 16.7546 8.74904 16.7676 8.73349 16.7807C8.71165 16.7991 8.69986 16.8159 8.69986 16.8349V16.8362L8.69948 16.8373C8.69839 16.8406 8.69882 16.8433 8.70083 16.8461C8.70312 16.8494 8.70764 16.853 8.71509 16.8567C8.72995 16.864 8.75357 16.8702 8.78423 16.8753C8.8453 16.8855 8.93152 16.8911 9.02425 16.8949C9.08112 16.8972 9.14018 16.8988 9.19722 16.9003C9.2332 16.9013 9.26838 16.9022 9.30169 16.9033C9.38747 16.9061 9.46113 16.9099 9.503 16.9175C9.61954 16.9386 9.72333 17.0042 9.79249 17.1003L9.80053 17.1115L9.48508 17.1273M8.52493 15.7929C8.49243 15.7821 8.46574 15.7813 8.44357 15.7859C8.4213 15.7906 8.40312 15.8007 8.38782 15.8124C8.37491 15.8223 8.36427 15.8331 8.35484 15.8426C8.353 15.8445 8.35121 15.8463 8.34946 15.8481C8.34419 15.8533 8.33909 15.8582 8.33421 15.8618C8.32945 15.8653 8.32386 15.8683 8.3177 15.8683C8.3033 15.8683 8.29015 15.8588 8.27796 15.8476C8.27077 15.8409 8.26298 15.8327 8.25485 15.8242C8.24919 15.8182 8.24337 15.812 8.23746 15.8061C8.20778 15.7765 8.17218 15.7484 8.12287 15.7484C8.10113 15.7484 8.08345 15.752 8.07149 15.7571C8.06549 15.7597 8.06125 15.7625 8.05862 15.7652M6.06083 16.195C6.0544 16.2085 6.0509 16.2283 6.05023 16.2507C6.04954 16.2735 6.05183 16.2982 6.05639 16.3201C6.061 16.3422 6.06776 16.3607 6.07554 16.3716C6.07943 16.3771 6.08304 16.3799 6.08602 16.3809C6.08857 16.3818 6.09153 16.3817 6.09548 16.3791L6.09737 16.3778H6.09964C6.10338 16.3778 6.10511 16.3767 6.10623 16.3754C6.10765 16.3736 6.1089 16.3706 6.10953 16.3654C6.1108 16.3551 6.10911 16.3407 6.10719 16.3245C6.10535 16.3088 6.10332 16.2914 6.10483 16.2771C6.10634 16.2627 6.11174 16.2485 6.12724 16.2433L6.12741 16.2433C6.22524 16.2132 6.32701 16.198 6.42935 16.198M6.06083 16.195C6.06552 16.1906 6.07289 16.1862 6.08315 16.1819C6.09395 16.1774 6.10747 16.1733 6.12339 16.1695C6.15524 16.1618 6.19608 16.1558 6.24276 16.1511C6.33608 16.1418 6.45195 16.138 6.56423 16.138C6.6762 16.138 6.79183 16.1492 6.88117 16.1679C6.92588 16.1772 6.9637 16.1883 6.99109 16.2006C7.0048 16.2068 7.01562 16.2131 7.02335 16.2195C7.03114 16.226 7.03521 16.2319 7.03654 16.2373L7.03674 16.2381L7.03711 16.2388C7.03896 16.2425 7.03824 16.2486 7.0319 16.2599C7.02753 16.2676 7.02148 16.2762 7.01452 16.2861C7.01174 16.2901 7.00881 16.2943 7.00579 16.2987C6.98519 16.3286 6.96158 16.3676 6.96139 16.4147L6.90129 16.8053L6.90166 16.8068C6.90293 16.8119 6.90201 16.8178 6.89796 16.825C6.89388 16.8322 6.88688 16.84 6.87694 16.8484C6.8571 16.8651 6.82689 16.8826 6.78971 16.8993C6.71551 16.9327 6.61514 16.9624 6.51843 16.9774C6.41201 16.985 6.34675 17.0231 6.30804 17.0599C6.28872 17.0783 6.27612 17.0962 6.26832 17.1096C6.26442 17.1163 6.26172 17.1219 6.25998 17.1258C6.25911 17.1278 6.25848 17.1294 6.25805 17.1305L6.25757 17.1318L6.25744 17.1321L6.25741 17.1322M6.74139 16.3314C6.74729 16.339 6.75157 16.3472 6.75157 16.3554C6.75157 16.3553 6.75159 16.3558 6.75198 16.3573C6.75233 16.3586 6.75287 16.3604 6.75358 16.3625C6.7543 16.3647 6.75514 16.3671 6.75609 16.3698C6.75704 16.3725 6.75808 16.3755 6.75915 16.3787C6.76342 16.3916 6.7683 16.4081 6.77026 16.4257C6.77222 16.4434 6.77131 16.4626 6.76361 16.4805C6.75583 16.4987 6.74139 16.5149 6.71745 16.5269L6.71648 16.5274C6.566 16.5773 6.4073 16.5977 6.24908 16.5876C6.09146 16.5794 5.9373 16.5383 5.79651 16.4669L5.79534 16.4663L5.79541 16.4663C5.76417 16.4428 5.73732 16.4043 5.71842 16.3702C5.70891 16.3531 5.70129 16.3369 5.69602 16.324C5.69338 16.3175 5.69131 16.3118 5.68988 16.3071C5.68854 16.3028 5.6875 16.2985 5.6875 16.2954M6.74139 16.3314C6.73534 16.3236 6.72677 16.3154 6.71645 16.3071L6.74139 16.3314ZM6.71645 16.3071C6.69577 16.2905 6.66718 16.2729 6.63502 16.2569L6.71645 16.3071ZM6.63502 16.2569C6.57091 16.2248 6.49099 16.198 6.42935 16.198L6.63502 16.2569Z" fill="#808080"/>
<path fill-rule="evenodd" clip-rule="evenodd" d="M8.42293 15.9209C8.42293 15.9268 8.42177 15.9327 8.41951 15.9381C8.41725 15.9436 8.41394 15.9486 8.40976 15.9527C8.40559 15.9569 8.40063 15.9602 8.39517 15.9625C8.38972 15.9647 8.38387 15.9659 8.37797 15.9659C8.37206 15.9659 8.36622 15.9647 8.36076 15.9625C8.35531 15.9602 8.35035 15.9569 8.34618 15.9527C8.342 15.9486 8.33869 15.9436 8.33643 15.9381C8.33417 15.9327 8.33301 15.9268 8.33301 15.9209C8.33301 15.909 8.33774 15.8976 8.34618 15.8891C8.35461 15.8807 8.36604 15.876 8.37797 15.876C8.38989 15.876 8.40133 15.8807 8.40976 15.8891C8.41819 15.8976 8.42293 15.909 8.42293 15.9209Z" fill="black"/>
<path d="M10.7458 15.2163L10.9856 15.2613L11.3902 14.9915L11.3602 15.1414L11.1504 15.2762L11.0305 15.3362L11.1055 15.4561L11.2404 15.6659L11.2104 15.8158L10.9556 15.3812L10.7158 15.3362L10.7458 15.2163ZM10.3411 13.4478L10.7907 13.238L10.6709 12.9683L10.7308 12.9383L11.0305 13.5977L10.9856 13.6277L10.8507 13.3429L10.4011 13.5677L10.3411 13.4478ZM9.62177 12.5786L10.0414 12.189L10.1313 12.2789V12.9383L10.461 12.6386L10.536 12.7285L10.1163 13.1181L10.0264 13.0282V12.3688L9.6967 12.6685L9.62177 12.5786ZM7.7634 11.8293L7.83833 11.2598H7.95823L7.88329 11.7843L8.3329 11.8293V11.9042L7.7634 11.8293ZM6.8492 11.9192L6.74429 11.3497L6.86418 11.3197L6.95411 11.8293L7.40371 11.7393V11.8143L6.8492 11.9192ZM5.15568 12.7435L5.11072 12.6985L5.41046 12.4587L5.56033 12.6086C5.52814 12.6734 5.48785 12.7338 5.44043 12.7884C5.40155 12.8435 5.35627 12.8938 5.30555 12.9383C5.24227 12.9889 5.17148 13.0294 5.09573 13.0582C5.0208 13.0732 4.94587 13.0882 4.9009 13.0582C4.84356 13.052 4.79036 13.0254 4.75104 12.9833C4.7207 12.9393 4.70497 12.8868 4.70607 12.8334C4.70607 12.7734 4.72106 12.6985 4.76602 12.6386C4.796 12.5786 4.85594 12.5187 4.91589 12.4737C4.96582 12.4314 5.02128 12.3961 5.08075 12.3688L5.21563 12.3388C5.2456 12.3388 5.29056 12.3388 5.32054 12.3688L5.26059 12.4437C5.23222 12.4317 5.20141 12.4266 5.17067 12.4287L5.08075 12.4437C5.04256 12.4639 5.00728 12.4891 4.97584 12.5187C4.93088 12.5486 4.88592 12.5786 4.87093 12.6236C4.84567 12.6497 4.82535 12.6801 4.81098 12.7135V12.7884C4.81098 12.8334 4.82597 12.8783 4.85594 12.9083L4.96085 12.9833L5.11072 12.9683C5.24864 12.91 5.36055 12.8034 5.42545 12.6685L5.3655 12.5786L5.15568 12.7435ZM5.14069 16.8948L4.66111 17.2395L4.30143 16.73L4.36138 16.685L4.66111 17.0897L4.796 16.9848L4.55621 16.6401L4.60117 16.6101L4.85594 16.9548L5.06576 16.8049L5.14069 16.8948ZM4.43631 16.1455C4.51125 16.1305 4.55621 16.0855 4.58618 16.0106V15.7858C4.56254 15.7084 4.51539 15.6403 4.4513 15.591C4.40634 15.546 4.3314 15.531 4.27146 15.546C4.22403 15.5564 4.18165 15.5828 4.15156 15.6209C4.13657 15.6509 4.1066 15.6959 4.1066 15.7408L4.12159 15.9057C4.15156 15.9956 4.18153 16.0556 4.24148 16.1155C4.28644 16.1605 4.36138 16.1755 4.43631 16.1455ZM4.48127 16.2654C4.43735 16.2794 4.39046 16.2812 4.3456 16.2706C4.30073 16.2601 4.25957 16.2375 4.2265 16.2054C4.14653 16.1334 4.08925 16.0397 4.06164 15.9357C4.03167 15.8457 4.03167 15.7858 4.03167 15.6959C4.03167 15.606 4.06164 15.576 4.09161 15.531C4.12574 15.4776 4.17963 15.4399 4.24148 15.4261C4.29175 15.4149 4.3443 15.4201 4.39135 15.4411C4.4513 15.4711 4.49626 15.5011 4.54122 15.561C4.63326 15.6919 4.67575 15.8513 4.66111 16.0106C4.65568 16.0698 4.63503 16.1266 4.60117 16.1755C4.57119 16.2204 4.52623 16.2504 4.48127 16.2654ZM4.52623 15.0964H3.92676V14.6768L3.95673 14.4969L4.01668 14.392C4.02884 14.3812 4.04309 14.3729 4.05855 14.3678C4.07401 14.3626 4.09036 14.3607 4.1066 14.362C4.15156 14.362 4.18153 14.377 4.21151 14.422C4.2265 14.467 4.25647 14.5269 4.25647 14.6168C4.27624 14.5536 4.31244 14.4967 4.36138 14.452L4.52623 14.3021V14.452L4.40634 14.5569L4.31642 14.6468C4.29856 14.6645 4.28341 14.6847 4.27146 14.7067C4.26895 14.7267 4.26895 14.7468 4.27146 14.7667V14.8266L4.25647 14.9765H4.52623V15.0964ZM4.19652 14.9615V14.7067C4.2016 14.6619 4.2016 14.6167 4.19652 14.5719C4.19118 14.5499 4.18094 14.5294 4.16655 14.5119C4.15581 14.4967 4.13978 14.486 4.12159 14.4819C4.09161 14.4819 4.06164 14.4969 4.04665 14.5269L4.01668 14.6768V14.9765H4.21151L4.19652 14.9615ZM5.80012 12.4287V11.7543L5.92001 11.6794L6.53447 11.9791L6.41458 12.0541L6.23474 11.9641L5.92001 12.159V12.3688L5.80012 12.4287ZM5.90502 12.084L6.17479 11.9342L6.02492 11.8443C5.97845 11.8221 5.9334 11.7971 5.89004 11.7693L5.90502 11.8892V12.084ZM8.69258 11.9042L9.32203 11.6494L9.42694 11.7244L9.38198 12.4138L9.27707 12.3238L9.29206 12.129L8.99232 11.9042L8.79749 11.9791L8.69258 11.9042ZM9.05227 11.8742L9.30705 12.0541V11.8742C9.31399 11.8237 9.324 11.7737 9.33702 11.7244C9.30508 11.7533 9.26988 11.7785 9.23211 11.7993L9.05227 11.8742ZM10.5959 14.0174L11.1654 13.8825L11.2553 14.2871L11.2853 14.467L11.2553 14.5719C11.2476 14.5865 11.237 14.5993 11.2241 14.6097C11.2112 14.62 11.1963 14.6275 11.1804 14.6318C11.1354 14.6318 11.0905 14.6318 11.0605 14.6018C11.011 14.5517 10.9749 14.4898 10.9556 14.422C10.9581 14.4469 10.9581 14.472 10.9556 14.4969L10.8957 14.6168L10.7758 14.7967L10.7458 14.6468L10.8357 14.4969L10.8957 14.407C10.9159 14.3703 10.9263 14.329 10.9256 14.2871C10.9224 14.2618 10.9174 14.2368 10.9106 14.2122L10.8807 14.0773L10.6259 14.1372L10.5959 14.0174ZM10.9406 14.0623L11.0006 14.3171C11.0006 14.362 11.0305 14.407 11.0455 14.437C11.0455 14.467 11.0755 14.4819 11.0905 14.4969L11.1504 14.5119C11.1654 14.5119 11.1954 14.4819 11.1954 14.452C11.2075 14.4027 11.2075 14.3513 11.1954 14.3021L11.1205 14.0174L10.9406 14.0623Z" fill="#D0D0D0"/>
</g>
<defs>
<clipPath id="clip0_200_70542">
<rect width="60" height="45" fill="white" transform="translate(-7.5)"/>
</clipPath>
</defs>
</svg>
