<svg width="45" height="45" viewBox="0 0 45 45" fill="none" xmlns="http://www.w3.org/2000/svg">
<g clip-path="url(#clip0_200_68855)">
<path d="M-7.5 0H52.5V45H-7.5V0Z" fill="#D21034"/>
<path d="M3.75 11.25H41.25V33.75H3.75V11.25Z" fill="#007E3A"/>
<path d="M25.3125 30C29.4546 30 32.8125 26.6421 32.8125 22.5C32.8125 18.3579 29.4546 15 25.3125 15C21.1704 15 17.8125 18.3579 17.8125 22.5C17.8125 26.6421 21.1704 30 25.3125 30Z" fill="white"/>
<path d="M28.125 30C32.2671 30 35.625 26.6421 35.625 22.5C35.625 18.3579 32.2671 15 28.125 15C23.9829 15 20.625 18.3579 20.625 22.5C20.625 26.6421 23.9829 30 28.125 30Z" fill="#007E3A"/>
</g>
<defs>
<clipPath id="clip0_200_68855">
<rect width="60" height="45" fill="white" transform="translate(-7.5)"/>
</clipPath>
</defs>
</svg>
