<svg width="45" height="45" viewBox="0 0 45 45" fill="none" xmlns="http://www.w3.org/2000/svg">
<g clip-path="url(#clip0_200_65899)">
<path fill-rule="evenodd" clip-rule="evenodd" d="M-7.5 0H52.5V45H-7.5V0Z" fill="#F41408"/>
<path fill-rule="evenodd" clip-rule="evenodd" d="M-7.5 30H52.5V45H-7.5V30Z" fill="#21873B"/>
<path fill-rule="evenodd" clip-rule="evenodd" d="M-7.5 0H52.5V15H-7.5V0Z" fill="black"/>
<path fill-rule="evenodd" clip-rule="evenodd" d="M13.1718 13.2188C15.2624 8.60625 21.0937 6.39375 26.1843 8.29688C27.379 8.7019 28.478 9.34765 29.4132 10.1942C30.3485 11.0408 31.1001 12.0702 31.6218 13.2188H13.1718ZM10.7343 13.8187C9.07995 13.7061 7.43723 13.4616 5.8218 13.0875C5.43742 12.9656 5.41867 12.75 5.46555 12.5906C5.51242 12.4313 5.75617 12.2531 6.0468 12.3094C6.5718 12.4406 8.7468 12.9656 10.7343 13.8187ZM22.4155 5.76562C22.0218 3.79688 21.928 1.64062 21.9655 1.26562C22.003 0.9 22.2187 0.84375 22.4062 0.84375C22.5937 0.84375 22.8468 1.0125 22.8468 1.28437C22.8468 1.78125 22.8374 3.81563 22.4155 5.78438V5.76562ZM23.503 5.8125C23.3476 4.3107 23.3381 2.79737 23.4749 1.29375C23.5499 0.928125 23.7749 0.88125 23.953 0.9C24.1405 0.909375 24.3749 1.09688 24.3468 1.36875C24.2999 1.86563 24.103 3.89062 23.503 5.8125ZM24.478 5.93437C24.4593 3.9375 24.7593 1.78125 24.8624 1.43438C24.9655 1.06875 25.1999 1.04062 25.378 1.06875C25.5655 1.09687 25.7812 1.30313 25.7343 1.56563C25.6405 2.0625 25.2468 4.05937 24.478 5.93437ZM25.5093 6.14062C25.678 4.15312 26.1937 2.03437 26.3343 1.6875C26.4749 1.34062 26.7093 1.33125 26.878 1.36875C27.0655 1.41563 27.253 1.63125 27.1874 1.89375C27.0374 2.37188 26.4655 4.33125 25.5187 6.14062H25.5093ZM26.5312 6.44062C26.8968 4.47187 27.6093 2.4 27.778 2.0625C27.9562 1.73438 28.1812 1.73438 28.3593 1.79063C28.528 1.84688 28.7062 2.09062 28.6124 2.33437C28.0478 3.76481 27.351 5.13951 26.5312 6.44062ZM27.478 6.79688C28.0218 4.85625 28.9312 2.85938 29.1374 2.53125C29.3437 2.2125 29.5687 2.24063 29.7374 2.31563C29.9062 2.38125 30.0562 2.63438 29.9343 2.87813C29.6999 3.32812 28.7624 5.16563 27.478 6.79688ZM28.4155 7.2375C28.9731 5.80428 29.6637 4.4264 30.4781 3.12187C30.703 2.82187 30.9374 2.86875 31.0968 2.95312C31.144 2.98107 31.1851 3.01814 31.2178 3.06217C31.2505 3.10619 31.2741 3.1563 31.2872 3.20954C31.3002 3.26279 31.3026 3.31811 31.2941 3.37228C31.2855 3.42644 31.2663 3.47836 31.2374 3.525C30.9562 3.95625 29.8405 5.71875 28.4155 7.2375ZM29.2968 7.75312C30.2062 5.93437 31.4812 4.09688 31.7437 3.81563C32.0062 3.53438 32.2312 3.6 32.3812 3.69375C32.4259 3.72543 32.4639 3.76571 32.4929 3.81223C32.5219 3.85875 32.5413 3.91059 32.55 3.9647C32.5587 4.01882 32.5566 4.07413 32.5437 4.12741C32.5308 4.18069 32.5074 4.23086 32.4749 4.275C32.1468 4.6875 30.8624 6.34687 29.2874 7.74375L29.2968 7.75312ZM30.1218 8.33438C31.2093 6.59063 32.653 4.86562 32.9437 4.6125C33.2249 4.35 33.4499 4.425 33.5905 4.5375C33.6316 4.57319 33.6649 4.6168 33.6886 4.66571C33.7124 4.71462 33.726 4.76783 33.7286 4.82213C33.7312 4.87642 33.7228 4.93069 33.7039 4.98167C33.685 5.03264 33.656 5.07927 33.6187 5.11875C33.2624 5.50312 31.828 7.05938 30.1218 8.33438ZM30.8999 8.98125C31.851 7.72738 32.9114 6.56031 34.0687 5.49375C34.378 5.25937 34.5843 5.35313 34.7155 5.46562C34.7544 5.50526 34.7847 5.55249 34.8045 5.60436C34.8242 5.65623 34.8331 5.71163 34.8304 5.76708C34.8278 5.82253 34.8137 5.87683 34.7891 5.92659C34.7645 5.97635 34.7299 6.02049 34.6874 6.05625C34.303 6.4125 32.7187 7.84688 30.8999 8.98125ZM31.6124 9.68438C32.6749 8.50886 33.8422 7.43254 35.0999 6.46875C35.4374 6.25313 35.6343 6.36563 35.7562 6.49688C35.8687 6.61875 35.8968 6.90938 35.6624 7.07812C34.3879 8.05886 33.0331 8.93068 31.6124 9.68438ZM32.2218 10.4156C33.3939 9.32447 34.658 8.33643 35.9999 7.4625C36.3468 7.275 36.5343 7.40625 36.6374 7.54688C36.7499 7.67812 36.7405 7.96875 36.5062 8.11875C36.0562 8.4 34.2281 9.58125 32.2218 10.4156ZM32.7749 11.1938C34.0427 10.2046 35.3912 9.32334 36.8062 8.55938C37.1812 8.4 37.3593 8.54062 37.453 8.68125C37.5468 8.83125 37.5093 9.1125 37.2655 9.24375C35.8211 10.0152 34.3161 10.6673 32.7655 11.1938H32.7749ZM33.2812 12.0938C34.6467 11.2139 36.0829 10.4487 37.5749 9.80625C37.9593 9.675 38.1187 9.83438 38.1937 9.98438C38.278 10.1344 38.2218 10.4156 37.9499 10.5281C37.453 10.7344 35.4187 11.5969 33.2812 12.0938ZM33.6749 12.9562C35.1192 12.1845 36.6242 11.5323 38.1749 11.0063C38.5687 10.9125 38.7093 11.0813 38.7749 11.2406C38.8312 11.3906 38.7468 11.6719 38.4749 11.7563C37.9593 11.9344 35.8499 12.6281 33.6749 12.9562ZM33.9937 13.875C35.5045 13.2214 37.0659 12.6916 38.6624 12.2906C39.0562 12.2344 39.1874 12.4031 39.2343 12.5719C39.2812 12.7313 39.1687 12.9937 38.8874 13.0687C38.353 13.1906 36.1874 13.725 33.9937 13.875ZM21.3562 5.8125C20.9114 4.36379 20.6069 2.8757 20.4468 1.36875C20.4468 1.00313 20.6624 0.91875 20.8405 0.9C21.028 0.890625 21.3093 1.04062 21.328 1.30312C21.3749 1.8 21.5718 3.825 21.3655 5.8125H21.3562ZM20.3249 5.93437C19.7385 4.53111 19.2895 3.07429 18.9843 1.58437C18.9468 1.20937 19.153 1.11563 19.3312 1.0875C19.5187 1.05938 19.7999 1.18125 19.8562 1.44375C20.1494 2.92314 20.3063 4.42631 20.3249 5.93437ZM19.2937 6.14062C18.5737 4.78694 17.9836 3.3681 17.5312 1.90312C17.4562 1.5375 17.653 1.425 17.8312 1.37812C18.0093 1.34062 18.2999 1.43438 18.3843 1.69688C18.5249 2.175 19.1062 4.13438 19.2843 6.13125L19.2937 6.14062ZM18.3093 6.42188C17.4716 5.13187 16.756 3.76659 16.1718 2.34375C16.0687 1.9875 16.2468 1.85625 16.4155 1.8C16.5937 1.74375 16.8937 1.81875 16.9968 2.0625C17.1843 2.53125 17.953 4.44375 18.3093 6.4125V6.42188ZM17.3624 6.75C16.4015 5.53326 15.5542 4.23093 14.8312 2.85938C14.6999 2.5125 14.8687 2.3625 15.0374 2.29688C15.2062 2.22187 15.5062 2.27812 15.6374 2.52187C15.8718 2.97187 16.8093 4.81875 17.3624 6.75ZM16.3968 7.21875C15.3187 6.08429 14.346 4.85424 13.4905 3.54375C13.3312 3.21562 13.4812 3.05625 13.6405 2.97188C13.7999 2.8875 14.1093 2.91562 14.2593 3.15C14.5405 3.58125 15.6655 5.33437 16.3968 7.21875ZM15.5155 7.725C14.3381 6.67576 13.2557 5.5244 12.2812 4.28438C12.0843 3.96563 12.2155 3.79688 12.3749 3.69375C12.5155 3.6 12.8437 3.6 13.003 3.825C13.3218 4.22812 14.6062 5.8875 15.5155 7.71563V7.725ZM14.6999 8.2875C13.4254 7.33339 12.2366 6.26999 11.1468 5.10938C10.9218 4.80938 11.0437 4.64062 11.1843 4.52812C11.2834 4.46672 11.4004 4.44071 11.5161 4.45433C11.6319 4.46795 11.7397 4.5204 11.8218 4.60312C12.178 4.97812 13.6218 6.54375 14.6999 8.2875ZM13.903 8.94375C12.5418 8.09609 11.2559 7.13318 10.0593 6.06562C9.7968 5.78437 9.89992 5.59688 10.0312 5.475C10.126 5.40509 10.2419 5.36975 10.3596 5.37487C10.4773 5.37998 10.5897 5.42525 10.678 5.50313C11.0718 5.85 12.6468 7.28438 13.903 8.93438V8.94375ZM13.2093 9.6C11.7739 8.86034 10.4035 8.00105 9.11242 7.03125C8.83117 6.76875 8.91555 6.58125 9.03742 6.45C9.14992 6.31875 9.4593 6.25313 9.6843 6.42188C10.9495 7.38018 12.1289 8.4467 13.2093 9.60938V9.6ZM12.553 10.3687C11.0499 9.74635 9.6012 9.00003 8.2218 8.1375C7.91242 7.90313 7.97805 7.69687 8.08117 7.56562C8.1843 7.425 8.4843 7.33125 8.72805 7.48125C9.17805 7.77188 11.0062 8.93437 12.553 10.3687ZM11.9624 11.1938C9.88117 10.5375 7.75305 9.54375 7.42492 9.32812C7.08742 9.12187 7.14367 8.91562 7.22805 8.76562C7.31242 8.61562 7.60305 8.50312 7.86555 8.63437C8.3343 8.8875 10.2843 9.9 11.9624 11.1938ZM11.4655 12.0375C9.32805 11.5406 7.12492 10.725 6.76867 10.5375C6.4218 10.35 6.44055 10.1438 6.52492 9.99375C6.59992 9.84375 6.8718 9.70312 7.14367 9.80625C7.64055 10.0219 9.67492 10.875 11.4655 12.0375ZM11.0718 12.8812C9.43745 12.63 7.82599 12.2475 6.25305 11.7375C5.87805 11.5875 5.8968 11.3719 5.95305 11.2219C6.01867 11.0625 6.28117 10.9031 6.55305 10.9875C7.07805 11.1656 9.17805 11.8594 11.0718 12.8812Z" fill="#F31509"/>
<path fill-rule="evenodd" clip-rule="evenodd" d="M10.7343 13.8188C9.07995 13.7062 7.43724 13.4616 5.8218 13.0876C5.43742 12.9657 5.41867 12.7501 5.46555 12.5907C5.51242 12.4313 5.75617 12.2532 6.0468 12.3094C6.5718 12.4407 8.7468 12.9657 10.7343 13.8188Z" fill="#F31509"/>
<path fill-rule="evenodd" clip-rule="evenodd" d="M4.63086 13.2656H40.3684V14.4469H4.63086V13.2656Z" fill="black"/>
</g>
<defs>
<clipPath id="clip0_200_65899">
<rect width="60" height="45" fill="white" transform="translate(-7.5)"/>
</clipPath>
</defs>
</svg>
