<svg width="45" height="45" viewBox="0 0 45 45" fill="none" xmlns="http://www.w3.org/2000/svg">
<g clip-path="url(#clip0_200_68685)">
<path d="M-7.5 0H52.5V45H-7.5V0Z" fill="#CC0000"/>
<path d="M-7.45312 3.74023H52.4531V7.34023H-7.45312V3.74023ZM-7.45312 11.1184H52.4531V14.7184H-7.45312V11.1184ZM-7.45312 18.5059H52.4531V22.1059H-7.45312V18.5059Z" fill="white"/>
<path d="M-7.5 0.046875H22.5V26.2969H-7.5V0.046875Z" fill="#000066"/>
<path d="M11.9531 6.91875L12.5156 10.7344L14.6718 7.54688L13.5093 11.2219L16.8374 9.27188L14.2031 12.0844L18.0468 11.7844L14.4562 13.1719L18.0468 14.5594L14.2031 14.2594L16.8374 17.0719L13.5093 15.1219L14.6624 18.8063L12.5062 15.6094L11.9437 19.425L11.3906 15.6094L9.23432 18.7969L10.3968 15.1219L7.06869 17.0719L9.69369 14.2594L5.84994 14.5594L9.44994 13.1719L5.85932 11.7844L9.70307 12.0844L7.06869 9.27188L10.3968 11.2219L9.23432 7.5375L11.3906 10.7344L11.9531 6.91875ZM8.83119 7.07813C7.81641 6.62829 6.70535 6.439 5.59886 6.52744C4.49237 6.61588 3.42549 6.97925 2.49504 7.58457C1.56459 8.18988 0.800042 9.01798 0.270783 9.9937C-0.258475 10.9694 -0.535685 12.0619 -0.535685 13.1719C-0.535685 14.2819 -0.258475 15.3743 0.270783 16.3501C0.800042 17.3258 1.56459 18.1539 2.49504 18.7592C3.42549 19.3645 4.49237 19.7279 5.59886 19.8163C6.70535 19.9048 7.81641 19.7155 8.83119 19.2656C7.71045 20.0698 6.38965 20.5492 5.01406 20.6513C3.63846 20.7534 2.26136 20.4741 1.03419 19.8443C-0.192976 19.2144 -1.22267 18.2583 -1.94164 17.0811C-2.66061 15.9039 -3.04102 14.5513 -3.04102 13.1719C-3.04102 11.7925 -2.66061 10.4398 -1.94164 9.26266C-1.22267 8.08547 -0.192976 7.12937 1.03419 6.49949C2.26136 5.86961 3.63846 5.59036 5.01406 5.69245C6.38965 5.79453 7.71045 6.274 8.83119 7.07813Z" fill="#FFCC00"/>
<path d="M-7.45312 25.8936H52.4531V29.4936H-7.45312V25.8936ZM-7.45312 33.2248H52.4531V36.8248H-7.45312V33.2248ZM-7.5 41.3998H52.4062V44.9998H-7.5V41.3998Z" fill="white"/>
</g>
<defs>
<clipPath id="clip0_200_68685">
<rect width="60" height="45" fill="white" transform="translate(-7.5)"/>
</clipPath>
</defs>
</svg>
