<svg width="45" height="45" viewBox="0 0 45 45" fill="none" xmlns="http://www.w3.org/2000/svg">
<g clip-path="url(#clip0_200_70173)">
<path fill-rule="evenodd" clip-rule="evenodd" d="M-7.5 0H60V14.0625H-7.5V0Z" fill="#009A00"/>
<path fill-rule="evenodd" clip-rule="evenodd" d="M-7.5 14.0625H60V15.4688H-7.5V14.0625Z" fill="white"/>
<path fill-rule="evenodd" clip-rule="evenodd" d="M-7.5 15.4688H60V29.5312H-7.5V15.4688Z" fill="black"/>
<path fill-rule="evenodd" clip-rule="evenodd" d="M-7.5 29.5312H60V30.9375H-7.5V29.5312Z" fill="white"/>
<path fill-rule="evenodd" clip-rule="evenodd" d="M-7.5 30.9375H60V45H-7.5V30.9375Z" fill="#FFCA00"/>
<path fill-rule="evenodd" clip-rule="evenodd" d="M-7.5 0V45L22.0312 22.5L-7.5 0Z" fill="#FF0000"/>
<path fill-rule="evenodd" clip-rule="evenodd" d="M9.94629 29.2676L5.44629 25.9717L0.946289 29.2676L2.69531 23.9678L-1.83105 20.707L3.75 20.7246L5.44629 15.416L7.15137 20.7334L12.7324 20.707L8.20605 23.9678L9.94629 29.2676Z" fill="#FFCA00"/>
<path fill-rule="evenodd" clip-rule="evenodd" d="M1.53516 25.5674H4.78711C5.05078 25.8574 5.62207 25.9805 6.17578 25.5674C7.19531 25.0049 9.16406 25.5674 9.16406 25.5674L9.55078 25.1543L8.61035 22.0605L8.26758 21.6914C8.26758 21.6914 7.53809 21.252 6.1582 21.4014C4.77832 21.5508 4.29492 21.3574 4.29492 21.3574C4.29492 21.3574 3.09082 21.498 2.74805 21.6738L2.36133 22.0605L1.53516 25.5674Z" fill="white"/>
<path fill-rule="evenodd" clip-rule="evenodd" d="M4.31239 21.3121C4.31237 21.312 4.3124 21.3121 4.31239 21.3121C4.31237 21.312 4.31227 21.312 4.31226 21.312C4.30482 21.3091 4.29677 21.308 4.28883 21.3089L4.29443 21.3569C4.28883 21.3089 4.28884 21.3089 4.28883 21.3089L4.28528 21.3093L4.27504 21.3106C4.26608 21.3116 4.25291 21.3132 4.23604 21.3154C4.20231 21.3196 4.15378 21.3258 4.09448 21.3337C3.97592 21.3497 3.81418 21.3729 3.64161 21.4015C3.46915 21.4302 3.28534 21.4644 3.12279 21.5027C2.96151 21.5406 2.8169 21.5835 2.7255 21.6303C2.72102 21.6326 2.71693 21.6356 2.71338 21.6392L2.32666 22.0259C2.3203 22.0322 2.31585 22.0402 2.31379 22.049L1.48786 25.5548C1.48686 25.5586 1.48633 25.5627 1.48633 25.5669C1.48633 25.5936 1.50797 25.6152 1.53467 25.6152H4.76567C5.0533 25.9135 5.64082 26.0242 6.2015 25.6077C6.69686 25.3359 7.42869 25.3339 8.04631 25.404C8.35406 25.4389 8.63032 25.4913 8.82968 25.535C8.92932 25.5569 9.00966 25.5765 9.06501 25.5907C9.09268 25.5977 9.1141 25.6034 9.12855 25.6074C9.13238 25.6084 9.13572 25.6093 9.13856 25.6101C9.14108 25.6108 9.1432 25.6114 9.14492 25.6119L9.14901 25.613L9.15001 25.6133L9.15024 25.6134C9.16767 25.6183 9.18648 25.6132 9.19886 25.5999L9.58558 25.1868C9.59739 25.1742 9.60157 25.1563 9.59654 25.1398L8.65611 22.046C8.65398 22.039 8.65028 22.0325 8.64529 22.0272L8.30251 21.658C8.29944 21.6547 8.29591 21.6518 8.29203 21.6495L8.26709 21.6909C8.29203 21.6495 8.29206 21.6495 8.29203 21.6495L8.29174 21.6493L8.29118 21.649L8.28925 21.6479C8.28761 21.6469 8.28525 21.6456 8.28219 21.6438C8.27606 21.6404 8.26708 21.6355 8.25528 21.6294C8.23167 21.6172 8.19677 21.6001 8.15072 21.5802C8.05861 21.5404 7.92192 21.4893 7.74189 21.443C7.38172 21.3505 6.84854 21.2775 6.15251 21.3528C5.46534 21.4272 5.00294 21.4161 4.71348 21.3868C4.56877 21.3722 4.46731 21.353 4.40263 21.3378C4.37029 21.3301 4.34715 21.3235 4.33238 21.3188C4.32499 21.3165 4.3197 21.3147 4.3164 21.3135C4.31476 21.3129 4.31361 21.3125 4.31294 21.3123L4.31239 21.3121ZM8.23661 21.7291C8.23609 21.7288 8.23553 21.7285 8.23493 21.7282C8.22971 21.7253 8.22166 21.7209 8.21082 21.7153C8.18914 21.704 8.15627 21.6879 8.11237 21.669C8.02458 21.631 7.89265 21.5816 7.71783 21.5367C7.36828 21.4469 6.84677 21.3749 6.16292 21.4489C5.4702 21.5239 5.00096 21.5131 4.70375 21.483C4.55513 21.468 4.44949 21.4482 4.38042 21.4319C4.34588 21.4237 4.32048 21.4164 4.30342 21.4111C4.29758 21.4092 4.29271 21.4076 4.2888 21.4063L4.28661 21.4065C4.27777 21.4076 4.26473 21.4092 4.24801 21.4113C4.21455 21.4155 4.16633 21.4216 4.10739 21.4296C3.98948 21.4454 3.82877 21.4684 3.65746 21.4969C3.48605 21.5254 3.30457 21.5592 3.14494 21.5968C2.98841 21.6336 2.85692 21.6731 2.77624 21.713L2.40474 22.0845L1.59572 25.5186H4.78662C4.80024 25.5186 4.81323 25.5243 4.82239 25.5344C5.06741 25.8039 5.61026 25.9281 6.14639 25.5281C6.14816 25.5268 6.15001 25.5256 6.15194 25.5246C6.67607 25.2354 7.43676 25.2375 8.05721 25.3079C8.36909 25.3433 8.64873 25.3964 8.85038 25.4406C8.95124 25.4627 9.03267 25.4826 9.08897 25.497C9.11376 25.5033 9.13368 25.5086 9.14824 25.5125L9.49592 25.1412L8.56686 22.0848L8.23661 21.7291Z" fill="black"/>
<path fill-rule="evenodd" clip-rule="evenodd" d="M4.8276 25.5831C5.04439 25.7345 5.25246 25.8022 5.46092 25.7963C5.66968 25.7904 5.88441 25.7106 6.1141 25.5571C5.96058 25.3709 5.74747 25.2254 5.49734 25.1126C5.29829 25.208 5.14531 25.3071 5.03378 25.393C4.96125 25.4488 4.90639 25.4989 4.86788 25.5386C4.85103 25.5559 4.83773 25.5709 4.8276 25.5831ZM5.37975 25.063C5.21081 25.1496 5.07683 25.2378 4.97481 25.3163C4.89888 25.3748 4.84051 25.428 4.79851 25.4712C4.75755 25.5134 4.72971 25.5487 4.71761 25.5714C4.70633 25.5925 4.71224 25.6187 4.73148 25.633C4.97535 25.8136 5.21642 25.8999 5.46365 25.893C5.71017 25.886 5.95655 25.7865 6.21185 25.6074C6.22259 25.5998 6.2298 25.5883 6.23184 25.5753C6.23388 25.5623 6.23056 25.5491 6.22265 25.5386C6.0705 25.3373 5.85868 25.181 5.6127 25.0601C5.63755 25.0493 5.66302 25.0387 5.68912 25.0281C6.27932 24.7899 7.1914 24.6104 8.50666 24.7895C8.53312 24.7931 8.55748 24.7746 8.56108 24.7481C8.56469 24.7217 8.54616 24.6973 8.51971 24.6937C7.18947 24.5125 6.26024 24.6933 5.65293 24.9385C5.598 24.9607 5.54571 24.9834 5.49601 25.0064C5.40009 24.965 5.29994 24.9285 5.19688 24.8961C4.77556 24.7639 4.30047 24.7006 3.8556 24.6747C3.41043 24.6487 2.99373 24.6601 2.68845 24.6778C2.53575 24.6867 2.4108 24.6973 2.32394 24.7056C2.2805 24.7097 2.24658 24.7133 2.22348 24.7159C2.21192 24.7172 2.20307 24.7182 2.19708 24.7189L2.19026 24.7197L2.1885 24.7199L2.18791 24.72C2.18788 24.72 2.18786 24.72 2.19385 24.768L2.18791 24.72C2.16142 24.7233 2.14257 24.7475 2.14589 24.774C2.1492 24.8005 2.17336 24.8193 2.19985 24.816L2.19385 24.768C2.19985 24.816 2.19983 24.816 2.19985 24.816L2.20033 24.8159L2.20194 24.8157L2.20843 24.8149C2.2142 24.8142 2.22283 24.8132 2.23415 24.812C2.2568 24.8095 2.29023 24.8059 2.33314 24.8018C2.41897 24.7936 2.54272 24.7832 2.69407 24.7744C2.99688 24.7567 3.40964 24.7455 3.84997 24.7712C4.2906 24.7969 4.75704 24.8594 5.16793 24.9884C5.24057 25.0112 5.31132 25.036 5.37975 25.063Z" fill="black"/>
<path fill-rule="evenodd" clip-rule="evenodd" d="M5.42871 25.084L5.45508 21.6738L5.56054 21.6746L5.53418 25.0848L5.42871 25.084ZM8.79608 24.445L8.21601 21.7292L8.31915 21.7072L8.89923 24.423L8.79608 24.445Z" fill="black"/>
<path fill-rule="evenodd" clip-rule="evenodd" d="M2.79362 21.6263C2.81963 21.6323 2.83584 21.6582 2.82982 21.6842L2.50463 23.0905C2.49861 23.1165 2.47265 23.1327 2.44664 23.1267C2.42063 23.1207 2.40442 23.0947 2.41043 23.0687L2.73563 21.6625C2.74164 21.6364 2.76761 21.6202 2.79362 21.6263Z" fill="black"/>
<path fill-rule="evenodd" clip-rule="evenodd" d="M-0.56543 25.9365L0.19043 26.833C0.27832 26.8857 0.366211 26.8857 0.445312 26.833L1.57031 25.4795L2.04492 24.8906C2.12402 24.8027 2.1416 24.7061 2.13281 24.627L3.04687 23.8096L3.24023 23.8271C3.15234 23.8096 3.09082 23.7656 3.15234 23.6689L3.36328 23.5107L3.52148 23.7129C3.52148 23.7129 3.29297 24.0117 3.2666 24.0117H3.02051L2.5459 24.4424L2.75684 24.6182L3.06445 25.4795L3.45117 25.207L3.20508 24.3281L3.74121 23.7393L3.53906 23.4229L3.67969 23.2471C3.67969 23.2471 5.55176 24.4248 6.28125 24.1084C6.29883 24.1084 6.3252 23.2646 6.3252 23.2646C6.3252 23.2646 4.37402 23.0625 4.33008 22.6758C4.28613 22.2891 4.76953 22.2363 4.76953 22.2363L4.55859 21.9551L4.60254 21.7969L4.94531 22.2188L5.70996 21.5684L10.2363 26.7187C10.4824 26.6221 10.5352 26.5605 10.5527 26.3145L6.12305 21.2256L6.45703 20.8652C6.52734 20.7861 6.54492 20.7598 6.54492 20.6367L7.07227 20.1885C7.21035 20.2358 7.32816 20.3288 7.40625 20.4521L8.84766 19.248C8.88281 19.2832 8.99707 19.3184 9.07617 19.2832L11.4404 17.0068L8.86523 18.8262L8.77734 18.7646C8.77734 18.6855 8.86523 18.6768 8.77734 18.5361C8.67187 18.4131 8.52246 18.6504 8.50488 18.6504C8.47852 18.6504 8.12695 18.5273 8.04785 18.3691L8.03027 18.7822L7.37109 19.3975L6.87012 19.3711L6.14941 20.0742L6.06152 20.3379L6.17578 20.5752C6.17578 20.5752 5.78906 20.9092 5.78906 20.8916C5.78906 20.8652 5.70996 20.7861 5.70117 20.7773L6.03516 20.4785L6.0791 20.2764L5.97363 20.1006C5.93848 20.127 5.5166 20.5752 5.49023 20.5225L4.25977 19.1602L4.33008 18.9053L3.56543 18.0703C3.28418 17.9736 2.83594 17.9561 2.74805 18.5713C2.67773 18.7119 2.09766 18.5889 2.09766 18.5889L1.78125 18.6592L-0.0117192 21.1816L0.981445 22.377L3.02051 19.8018L3.08203 19.0723L3.50391 19.5469C3.65332 19.5645 3.78516 19.5732 3.91699 19.5029L5.12109 20.8477L4.91894 21.0498L5.09473 21.2432L5.30566 21.1025L5.38477 21.2168C5.28809 21.2695 5.20898 21.3486 5.1123 21.4014C4.9541 21.2959 4.7959 21.1641 4.80469 20.9619L4.12793 21.5244L4.10156 21.6299L2.08887 23.2998L1.91309 23.3262L1.86914 23.8535L3.17871 22.7637V22.6055L3.31055 22.7197L4.33008 21.9023C4.33008 21.9023 4.40039 21.9902 4.37402 21.9902C4.34766 21.9902 3.46875 22.8076 3.46875 22.8076L3.45117 22.8955L3.29297 23.0361L3.20508 22.9658L1.97461 24.0557H1.79883L1.12207 24.7324C0.946289 24.75 0.796875 24.7676 0.64746 24.8643L-0.56543 25.9365Z" fill="black"/>
<path fill-rule="evenodd" clip-rule="evenodd" d="M11.4775 16.9756C11.4936 16.995 11.492 17.0236 11.4738 17.0412L9.10955 19.3175C9.10549 19.3214 9.10079 19.3246 9.09565 19.3269C9.04358 19.35 8.98403 19.3488 8.93557 19.3389C8.90549 19.3327 8.87514 19.3222 8.85007 19.3084L7.43709 20.4888C7.4264 20.4977 7.41238 20.5016 7.39863 20.4994C7.38487 20.4973 7.37271 20.4893 7.36526 20.4775C7.2979 20.3712 7.19858 20.2892 7.08191 20.2431L6.5929 20.6588C6.59186 20.7102 6.58675 20.7495 6.57186 20.7855C6.55509 20.826 6.52747 20.8581 6.49301 20.8969L6.49234 20.8976L6.18786 21.2261L10.589 26.2822C10.5975 26.2919 10.6017 26.3046 10.6008 26.3174C10.5919 26.4416 10.5739 26.5316 10.518 26.6022C10.4629 26.6716 10.3766 26.715 10.2538 26.7633C10.2349 26.7707 10.2133 26.7655 10.1999 26.7502L5.7049 21.6355L4.97648 22.2551C4.96657 22.2635 4.95368 22.2676 4.94073 22.2664C4.92777 22.2652 4.91585 22.2588 4.90764 22.2487L4.62391 21.8995L4.61138 21.9446L4.80805 22.2068C4.81847 22.2207 4.82064 22.2391 4.81373 22.2551C4.80682 22.271 4.7919 22.282 4.77465 22.2839L4.77386 22.284C4.77316 22.2841 4.77202 22.2842 4.77048 22.2844C4.76741 22.2848 4.76272 22.2855 4.75667 22.2865C4.74456 22.2886 4.72705 22.2919 4.70609 22.2971C4.66391 22.3074 4.60895 22.3249 4.55592 22.3532C4.50279 22.3815 4.45374 22.4196 4.4204 22.4701C4.38768 22.5197 4.36821 22.5841 4.37796 22.6698C4.38117 22.6981 4.40323 22.733 4.457 22.7728C4.50959 22.8116 4.58489 22.8494 4.67768 22.8854C4.86287 22.9572 5.10765 23.0181 5.35346 23.0674C5.59878 23.1165 5.84298 23.1537 6.02601 23.1786C6.11748 23.1911 6.19357 23.2005 6.24676 23.2067C6.27336 23.2098 6.29422 23.2122 6.30841 23.2137C6.31551 23.2145 6.32093 23.2151 6.32458 23.2155L6.32868 23.2159L6.32995 23.2161C6.32996 23.2161 6.33002 23.2161 6.32504 23.2642C6.37336 23.2657 6.37336 23.2657 6.37336 23.2657L6.37335 23.2658L6.37334 23.2663L6.37219 23.302C6.37143 23.3251 6.37033 23.3581 6.36896 23.3977C6.36621 23.4768 6.36236 23.5824 6.35796 23.6881C6.35356 23.7936 6.3486 23.8995 6.34363 23.9791C6.34114 24.0188 6.33862 24.0526 6.33611 24.0767C6.33488 24.0885 6.33353 24.0992 6.332 24.1073C6.3313 24.1111 6.33018 24.1164 6.32834 24.1216C6.32753 24.1239 6.32557 24.1291 6.32176 24.1347C6.32012 24.1371 6.31229 24.1483 6.29739 24.1535C6.10028 24.2377 5.83461 24.22 5.5557 24.1538C5.27327 24.0869 4.96766 23.9679 4.68671 23.8399C4.40546 23.7117 4.14737 23.5737 3.95969 23.4678C3.86581 23.4148 3.78945 23.3698 3.73652 23.338C3.71837 23.3271 3.70296 23.3178 3.69055 23.3102L3.59829 23.4255L3.78179 23.7127C3.79356 23.7312 3.79151 23.7552 3.7768 23.7713L3.25869 24.3404L3.49757 25.1935C3.50309 25.2132 3.49559 25.2343 3.47886 25.2461L3.09214 25.5185C3.07979 25.5272 3.06409 25.5296 3.04969 25.5251C3.03529 25.5205 3.02386 25.5095 3.01878 25.4953L2.7156 24.6464L2.5148 24.479C2.50405 24.4701 2.49771 24.4569 2.49742 24.4429C2.49712 24.4289 2.5029 24.4155 2.51326 24.4061L2.98787 23.9754C2.99676 23.9674 3.00834 23.9629 3.02035 23.9629H3.25216C3.25933 23.9562 3.26924 23.9458 3.28141 23.9323C3.3057 23.9052 3.33612 23.8686 3.36619 23.8314C3.39616 23.7944 3.42535 23.7573 3.44709 23.7294C3.45181 23.7233 3.45618 23.7177 3.46012 23.7126L3.35425 23.5773L3.18864 23.7015C3.17929 23.7177 3.17634 23.7288 3.17578 23.7355C3.17524 23.7419 3.17667 23.7454 3.17898 23.7485C3.18623 23.7583 3.20759 23.7709 3.24956 23.7793C3.27476 23.7843 3.29161 23.8082 3.28792 23.8336C3.28423 23.859 3.26129 23.8771 3.2357 23.8748L3.06328 23.8591L2.18268 24.6466C2.18645 24.7319 2.16222 24.8314 2.0816 24.9215L1.60734 25.5099L0.482335 26.8634C0.47935 26.867 0.47586 26.8702 0.471974 26.8727C0.375848 26.9368 0.26773 26.9354 0.165406 26.874C0.160838 26.8712 0.156754 26.8678 0.15332 26.8637L-0.602539 25.9672L-0.565582 25.936L-0.5976 25.8998L0.615291 24.8276C0.617098 24.826 0.619022 24.8245 0.621047 24.8232C0.776132 24.7228 0.931303 24.7026 1.09993 24.6856L1.76449 24.021C1.77356 24.0119 1.78586 24.0068 1.79868 24.0068H1.95613L3.17287 22.9291C3.19048 22.9136 3.21676 22.9129 3.23512 22.9276L3.29118 22.9724L3.4068 22.8697L3.4212 22.7977C3.42319 22.7877 3.42825 22.7786 3.43568 22.7717L3.4686 22.8071C3.43568 22.7717 3.43567 22.7717 3.43568 22.7717L3.47353 22.7366C3.49763 22.7142 3.53208 22.6823 3.57351 22.6439C3.65635 22.5673 3.7671 22.465 3.87869 22.3628C3.99024 22.2606 4.10279 22.1582 4.18916 22.0814C4.20999 22.0628 4.22937 22.0457 4.24689 22.0304L3.34063 22.757C3.32242 22.7716 3.29637 22.7711 3.27874 22.7558L3.2269 22.7108V22.7632C3.2269 22.7775 3.22052 22.7912 3.20948 22.8003L1.89991 23.8902C1.88494 23.9026 1.86395 23.9049 1.84667 23.8959C1.82939 23.8869 1.8192 23.8684 1.82081 23.849L1.86476 23.3217C1.86662 23.2993 1.8836 23.2812 1.90576 23.2779L2.06822 23.2535L4.05835 21.6023L4.08088 21.5122C4.08337 21.5022 4.08898 21.4933 4.09688 21.4868L4.77364 20.9243C4.78834 20.912 4.80888 20.9096 4.82601 20.9181C4.84315 20.9266 4.85366 20.9444 4.85283 20.9635C4.84572 21.127 4.96563 21.2417 5.11416 21.3439C5.14953 21.3222 5.1834 21.2969 5.21938 21.2699L5.22064 21.269C5.25051 21.2466 5.2819 21.223 5.31546 21.2014L5.2928 21.1686L5.12139 21.2829C5.10149 21.2962 5.07489 21.2929 5.05881 21.2752L4.88302 21.0818C4.86567 21.0627 4.86637 21.0334 4.88461 21.0151L5.05441 20.8453L3.90515 19.5619C3.77034 19.6214 3.63583 19.6106 3.49811 19.5944C3.48634 19.593 3.47549 19.5874 3.46762 19.5785L3.12058 19.1881L3.06852 19.8053C3.06772 19.8148 3.06415 19.8238 3.05825 19.8313L1.01919 22.4065C1.01015 22.4179 0.996431 22.4246 0.981862 22.4248C0.967293 22.425 0.953424 22.4186 0.944112 22.4074L-0.0490522 21.212C-0.06306 21.1952 -0.0639712 21.171 -0.0512723 21.1531L1.7417 18.6307C1.74863 18.6209 1.75893 18.6141 1.77061 18.6115L2.08702 18.5412C2.09377 18.5397 2.10077 18.5397 2.10753 18.5411L2.10786 18.5412L2.109 18.5414L2.11366 18.5424C2.11778 18.5432 2.1239 18.5444 2.13173 18.5459C2.14741 18.549 2.16996 18.5531 2.19726 18.5577C2.25198 18.567 2.3253 18.5777 2.40046 18.5842C2.47616 18.5907 2.55126 18.5925 2.61046 18.5849C2.6401 18.5811 2.6634 18.5752 2.68004 18.5678C2.6917 18.5626 2.69808 18.5576 2.70156 18.5536C2.70104 18.5571 2.70053 18.5605 2.70004 18.564L2.74789 18.5708L2.70466 18.5492C2.70405 18.5504 2.70308 18.5519 2.70156 18.5536C2.74889 18.24 2.89019 18.0757 3.06683 18.0082C3.2404 17.9419 3.43578 17.9742 3.58099 18.0241C3.58862 18.0267 3.59548 18.0312 3.60093 18.0372L4.36557 18.8721C4.37681 18.8844 4.38095 18.9016 4.37652 18.9176L4.31327 19.147L4.29549 19.1273L4.25961 19.1597L4.30621 19.1725L4.31327 19.147L5.50772 20.4694C5.50265 20.4727 5.49837 20.4753 5.49488 20.4771C5.4924 20.4784 5.49123 20.4788 5.49117 20.4788C5.49109 20.4788 5.49259 20.4783 5.49531 20.4781C5.4983 20.4778 5.50516 20.4777 5.51329 20.4813C5.51806 20.4834 5.52223 20.4863 5.52569 20.4898C5.52885 20.493 5.53142 20.4966 5.53332 20.5004C5.53136 20.4964 5.52889 20.4928 5.52595 20.4896L5.50772 20.4694C5.51662 20.4635 5.52794 20.4552 5.54161 20.4443C5.58358 20.4107 5.63854 20.3601 5.69499 20.3058C5.75117 20.2518 5.80769 20.1953 5.85264 20.1504L5.85305 20.15C5.87527 20.1277 5.89478 20.1082 5.90983 20.0935C5.92362 20.0799 5.93685 20.0671 5.94448 20.0614C5.95542 20.0532 5.96934 20.05 5.98277 20.0527C5.9962 20.0553 6.00789 20.0635 6.01493 20.0752L6.06821 20.164L6.03417 20.2661L6.03171 20.2656L6.02764 20.2843L5.96309 20.1767C5.9683 20.1716 5.97313 20.1668 5.97756 20.1625C5.98494 20.1552 5.99099 20.1494 5.99563 20.145C5.99975 20.1411 6.00178 20.1394 6.00234 20.1389C6.00249 20.1388 6.00254 20.1387 6.00248 20.1388L5.97348 20.1001L5.93203 20.125L5.96309 20.1767C5.95094 20.1888 5.93677 20.203 5.92101 20.2187L5.9208 20.2189C5.87597 20.2638 5.81887 20.3209 5.76198 20.3756C5.70527 20.4301 5.64762 20.4833 5.60198 20.5198C5.57961 20.5376 5.55772 20.5535 5.53908 20.5631C5.5304 20.5675 5.51772 20.5732 5.50363 20.5744C5.49609 20.575 5.48536 20.5747 5.47409 20.5697C5.4649 20.5656 5.45735 20.5593 5.45177 20.5517L5.45421 20.5544L5.49008 20.522L5.44685 20.5436C5.44826 20.5464 5.4499 20.5491 5.45177 20.5517L4.22374 19.1921C4.21267 19.1798 4.20862 19.1627 4.21301 19.1468L4.27621 18.9177L4.29428 18.9374L4.32993 18.9048L4.28333 18.8919L4.27621 18.9177L3.53804 18.1117C3.54191 18.1129 3.54575 18.1142 3.54956 18.1155L3.56528 18.0698L3.52963 18.1025L3.53804 18.1117C3.40405 18.0674 3.24015 18.0455 3.10132 18.0985C2.96349 18.1512 2.83787 18.2828 2.79575 18.5776C2.79501 18.5828 2.79345 18.5878 2.79113 18.5924C2.77555 18.6236 2.7479 18.6434 2.71948 18.6561C2.69094 18.6688 2.65738 18.6764 2.62275 18.6808C2.55341 18.6897 2.47031 18.6872 2.3922 18.6805C2.31355 18.6737 2.23746 18.6625 2.18122 18.6531C2.15304 18.6483 2.12972 18.644 2.1134 18.6409C2.10719 18.6397 2.10199 18.6386 2.09791 18.6378L2.10799 18.6356L2.0975 18.5884C2.08747 18.6357 2.08748 18.6357 2.08749 18.6357L2.08799 18.6358L2.08933 18.6361L2.09441 18.6371C2.09546 18.6373 2.09663 18.6376 2.09791 18.6378M1.80973 18.7019L1.8205 18.6867L1.7811 18.6587L1.79158 18.7059L1.80973 18.7019ZM6.02677 20.2883L6.02764 20.2843L6.02794 20.2848L6.02677 20.2883ZM6.014 20.3471C6.01233 20.3388 6.01281 20.3302 6.01551 20.3221L6.02677 20.2883L6.014 20.3471ZM6.08161 20.4909L6.01782 20.3584C6.01607 20.3547 6.0148 20.3509 6.014 20.3471L5.99109 20.4525L5.66879 20.7408C5.65888 20.7497 5.65307 20.7622 5.6527 20.7755C5.65233 20.7888 5.65744 20.8016 5.66684 20.811C5.67111 20.8153 5.69203 20.8362 5.71167 20.859C5.72159 20.8705 5.7303 20.8814 5.73627 20.8903C5.73871 20.8939 5.74025 20.8966 5.74113 20.8983C5.74291 20.91 5.74934 20.9246 5.76531 20.9337C5.77996 20.942 5.79379 20.9401 5.79761 20.9395C5.80653 20.9381 5.81352 20.9344 5.81551 20.9334L5.81565 20.9333C5.8215 20.9302 5.82786 20.926 5.83337 20.9221C5.84515 20.9138 5.86117 20.9014 5.87943 20.8869C5.91622 20.8577 5.96497 20.8172 6.01338 20.7765C6.06187 20.7357 6.11032 20.6944 6.14664 20.6633C6.1648 20.6478 6.17994 20.6348 6.19054 20.6257L6.20694 20.6115L6.20715 20.6114L6.17563 20.5747L6.20722 20.6113C6.22376 20.597 6.22866 20.5734 6.21918 20.5537L6.11504 20.3374L6.12014 20.314L6.19141 20.1001L6.88857 19.42L7.3684 19.4452C7.38151 19.4459 7.39433 19.4413 7.40392 19.4323L8.0631 18.8171C8.07238 18.8084 8.07788 18.7965 8.07842 18.7838L8.09072 18.4946C8.10008 18.5026 8.10974 18.5104 8.11954 18.5178C8.1672 18.554 8.22221 18.5858 8.27437 18.6118C8.32668 18.638 8.37721 18.659 8.41656 18.6735C8.43622 18.6808 8.45342 18.6866 8.46692 18.6906C8.47363 18.6926 8.47983 18.6943 8.48518 18.6956C8.48903 18.6965 8.49689 18.6982 8.50473 18.6982C8.51754 18.6982 8.5269 18.6933 8.53023 18.6915C8.53455 18.6891 8.53797 18.6865 8.54016 18.6847C8.54458 18.681 8.54877 18.6768 8.5521 18.6734C8.55743 18.6678 8.56397 18.6604 8.57066 18.6529C8.57242 18.6509 8.5742 18.6489 8.57596 18.6469C8.59397 18.6267 8.61556 18.6033 8.63895 18.5838C8.66318 18.5636 8.68426 18.552 8.70069 18.5492C8.71184 18.5474 8.72355 18.5486 8.73825 18.5646C8.75691 18.595 8.76425 18.6152 8.76677 18.6285C8.7691 18.6409 8.76758 18.6487 8.76482 18.6562C8.76317 18.6606 8.7609 18.6654 8.75759 18.6717C8.75684 18.6731 8.75595 18.6747 8.75498 18.6766C8.75227 18.6816 8.74892 18.6879 8.74606 18.6938C8.73737 18.7117 8.72885 18.7345 8.72885 18.7642C8.72885 18.7799 8.73655 18.7947 8.74947 18.8038L8.83736 18.8653C8.85407 18.877 8.87632 18.8769 8.89297 18.8652L10.9476 17.4136L9.04925 19.2414C9.02302 19.2507 8.98905 19.2511 8.955 19.2442C8.91654 19.2363 8.88976 19.2215 8.88168 19.2134C8.86399 19.1957 8.83572 19.1944 8.81651 19.2105L7.41574 20.3806C7.33302 20.2705 7.2189 20.1872 7.08779 20.1423C7.07166 20.1367 7.0538 20.1401 7.04081 20.1512L6.51346 20.5994C6.50266 20.6086 6.49643 20.6221 6.49643 20.6362C6.49643 20.6965 6.4919 20.7258 6.48252 20.7485C6.47296 20.7716 6.4567 20.7922 6.4211 20.8322L6.42142 20.8319L6.45688 20.8647L6.42075 20.8326L6.08744 21.1922C6.07065 21.2104 6.07022 21.2382 6.08643 21.2568L10.5028 26.3304C10.4937 26.4395 10.4765 26.4988 10.4422 26.5421C10.4083 26.5849 10.3528 26.6184 10.2499 26.6607L5.74612 21.536C5.72869 21.5161 5.69859 21.514 5.67849 21.5311L4.9515 22.1494L4.6399 21.7659C4.6285 21.7519 4.61022 21.7454 4.59251 21.7491C4.57481 21.7528 4.56065 21.766 4.55581 21.7835L4.51186 21.9417C4.50785 21.9561 4.51077 21.9716 4.51977 21.9836L4.68423 22.2029C4.68382 22.203 4.6834 22.2031 4.68298 22.2032C4.6359 22.2148 4.57275 22.2347 4.51042 22.2679C4.4482 22.3011 4.38464 22.3487 4.3397 22.4169C4.29414 22.4859 4.26967 22.5731 4.2819 22.6808C4.28967 22.7491 4.33819 22.8052 4.39954 22.8505C4.46207 22.8967 4.54641 22.9382 4.64272 22.9755C4.83574 23.0504 5.08699 23.1125 5.33446 23.1621C5.58244 23.2119 5.82878 23.2494 6.01297 23.2744C6.1051 23.287 6.18179 23.2964 6.23547 23.3027C6.25063 23.3045 6.26396 23.306 6.27528 23.3073C6.27455 23.3297 6.27355 23.3594 6.27234 23.3943C6.26959 23.4734 6.26575 23.5787 6.26136 23.684C6.25697 23.7894 6.25204 23.8945 6.24713 23.9731C6.24467 24.0125 6.24225 24.0446 6.23995 24.0666C6.23973 24.0688 6.23951 24.0708 6.2393 24.0727C6.07323 24.1351 5.84172 24.1223 5.578 24.0598C5.30424 23.9949 5.00506 23.8787 4.7268 23.7519C4.44885 23.6252 4.19333 23.4886 4.0072 23.3836C3.91417 23.3311 3.83857 23.2865 3.78628 23.2551C3.76014 23.2394 3.73982 23.227 3.72607 23.2186C3.7192 23.2143 3.71397 23.2111 3.71047 23.2089L3.70654 23.2065L3.70557 23.2059L3.70534 23.2057C3.70533 23.2057 3.70528 23.2057 3.67953 23.2466L3.70534 23.2057C3.68453 23.1926 3.65715 23.1972 3.64179 23.2164L3.50116 23.3922C3.48823 23.4083 3.48703 23.4309 3.49817 23.4484L3.68039 23.7336L3.16918 24.2951C3.15797 24.3074 3.15388 24.3246 3.15838 24.3407L3.39526 25.1867L3.08844 25.4029L2.80221 24.6014C2.7993 24.5933 2.79427 24.5861 2.78763 24.5805L2.61939 24.4403L3.03902 24.0596H3.26645C3.27759 24.0596 3.28614 24.056 3.29002 24.0541C3.29464 24.052 3.29853 24.0495 3.3014 24.0475C3.30717 24.0434 3.31284 24.0385 3.31792 24.0338C3.32828 24.0241 3.3405 24.0112 3.35338 23.9968C3.37935 23.9679 3.41101 23.9297 3.44136 23.8922C3.47182 23.8546 3.5014 23.817 3.52334 23.7888C3.53432 23.7747 3.5434 23.763 3.54974 23.7548L3.5571 23.7452L3.55955 23.742L3.55968 23.7418C3.57306 23.7243 3.57297 23.7 3.5594 23.6826L3.4012 23.4805C3.38498 23.4597 3.35517 23.4558 3.33412 23.4716L3.12319 23.6298C3.11853 23.6333 3.11454 23.6376 3.11141 23.6425C3.09345 23.6707 3.08182 23.6991 3.07944 23.7274C3.07838 23.7401 3.07922 23.7522 3.08181 23.7637L3.0511 23.7609C3.03775 23.7597 3.02449 23.7641 3.0145 23.773L2.10044 24.5904C2.08878 24.6009 2.08289 24.6163 2.08462 24.6318C2.09209 24.6991 2.0775 24.7815 2.00884 24.8578C2.00825 24.8585 2.00768 24.8591 2.00713 24.8598L1.53298 25.4481L1.57016 25.479L1.53252 25.4487L0.412709 26.7959C0.354081 26.8325 0.290518 26.8338 0.221848 26.795L-0.498187 25.941L0.676561 24.9024C0.814055 24.8145 0.951728 24.7975 1.12673 24.78C1.13783 24.7789 1.14821 24.774 1.1561 24.7661L1.8187 24.1035H1.97446C1.98627 24.1035 1.99767 24.0992 2.00651 24.0914L3.20651 23.0285L3.26262 23.0734C3.28101 23.0881 3.30733 23.0874 3.32493 23.0718L3.48313 22.9312C3.49099 22.9242 3.49636 22.9148 3.49842 22.9045L3.51294 22.8319L3.5393 22.8074C3.56337 22.7851 3.59778 22.7532 3.63917 22.7149C3.72195 22.6383 3.83257 22.5362 3.944 22.4341C4.05547 22.3319 4.1676 22.23 4.25344 22.1536C4.2964 22.1153 4.3325 22.0838 4.35853 22.0619C4.37162 22.0508 4.38168 22.0427 4.38859 22.0374C4.38964 22.0366 4.39055 22.036 4.39134 22.0354C4.39582 22.0339 4.40053 22.0318 4.40517 22.0286C4.4174 22.0201 4.42381 22.0083 4.42645 21.9977C4.43073 21.9806 4.42563 21.9654 4.42375 21.96C4.41879 21.9459 4.40961 21.9307 4.40232 21.9195C4.39435 21.9072 4.38568 21.8953 4.37917 21.8866C4.37588 21.8822 4.37306 21.8785 4.37104 21.8759L4.36864 21.8729L4.36796 21.872L4.36777 21.8718L4.36771 21.8717C4.36771 21.8717 4.36768 21.8717 4.36511 21.8737L4.36771 21.8717C4.35969 21.8617 4.34799 21.8552 4.33524 21.8538C4.32249 21.8524 4.3097 21.8561 4.29969 21.8641L3.3116 22.6563L3.21022 22.5685C3.19591 22.5561 3.17569 22.5531 3.15848 22.561C3.14126 22.5689 3.13022 22.5861 3.13022 22.605V22.7405L1.92674 23.7421L1.95793 23.3678L2.09588 23.3471C2.1046 23.3458 2.1128 23.3422 2.11958 23.3365L4.13228 21.6666C4.14019 21.66 4.14581 21.6511 4.14831 21.6411L4.17084 21.551L4.76398 21.058C4.80036 21.2339 4.95217 21.3523 5.08534 21.4411C5.10029 21.4511 5.11953 21.4519 5.1353 21.4433C5.18671 21.4153 5.23301 21.3806 5.27613 21.3482L5.27739 21.3473C5.3218 21.314 5.36299 21.2832 5.40776 21.2587C5.4198 21.2522 5.42848 21.2408 5.43165 21.2275C5.43481 21.2141 5.43216 21.2001 5.42436 21.1888L5.34525 21.0745C5.33025 21.0529 5.30063 21.0472 5.2787 21.0618L5.10237 21.1794L4.98557 21.0509L5.15512 20.8814C5.17327 20.8632 5.17407 20.834 5.15695 20.8149L3.95285 19.4702C3.938 19.4536 3.91374 19.4493 3.89409 19.4598C3.7816 19.5198 3.66846 19.5164 3.52762 19.5005L3.11801 19.0397C3.10517 19.0252 3.08495 19.0198 3.06661 19.0259C3.04828 19.032 3.03533 19.0485 3.03371 19.0677L2.97341 19.7827L0.980389 22.2997L0.0490683 21.1789L0.0275289 21.2092L-0.0118717 21.1812L0.0253087 21.1503L0.0490683 21.1789M0.980389 22.2997L0.943395 22.3465L0.981293 22.3765L1.01847 22.3456L0.980389 22.2997ZM2.97341 19.7827L2.97219 19.7972L3.02035 19.8013L2.98246 19.7713L2.97341 19.7827ZM3.52762 19.5005C3.5216 19.4998 3.51553 19.4991 3.5094 19.4984L3.50375 19.5464L3.53988 19.5143L3.52762 19.5005ZM4.98557 21.0509L4.95456 21.0168L4.91879 21.0493L4.95297 21.0835L4.98557 21.0509ZM5.10237 21.1794L5.06776 21.2025L5.09457 21.2427L5.13034 21.2102L5.10237 21.1794ZM4.76398 21.058L4.83543 20.9986L4.80453 20.9614L4.75624 20.9593C4.75473 20.9941 4.75755 21.0269 4.76398 21.058ZM4.17084 21.551L4.17467 21.5357L4.12778 21.5239L4.15868 21.5611L4.17084 21.551ZM1.95793 23.3678L1.96111 23.3297L1.91293 23.3257L1.9201 23.3735L1.95793 23.3678ZM1.92674 23.7421L1.83807 23.8159L1.86899 23.853L1.91716 23.857L1.92674 23.7421ZM3.13022 22.7405V22.7632H3.17856L3.14764 22.726L3.13022 22.7405ZM3.3116 22.6563L3.28016 22.6815L3.31039 22.7192L3.34205 22.6827L3.3116 22.6563ZM4.39134 22.0354C4.3932 22.034 4.39433 22.0332 4.39486 22.0329C4.3953 22.0326 4.39451 22.0332 4.39287 22.034C4.39204 22.0343 4.39028 22.0352 4.38784 22.0359C4.38584 22.0366 4.38072 22.0381 4.37387 22.0381C4.37862 22.0381 4.38474 22.0375 4.39134 22.0354ZM3.20651 23.0285L3.23698 23.0015L3.20493 22.9653L3.17473 23.0031L3.20651 23.0285ZM1.8187 24.1035L1.83286 24.0894L1.79868 24.0552V24.1035H1.8187ZM0.676561 24.9024L0.679325 24.9L0.647308 24.8638L0.673569 24.9044C0.674566 24.9037 0.675564 24.9031 0.676561 24.9024ZM0.221848 26.795C0.21962 26.7937 0.217386 26.7924 0.215148 26.7911L0.190277 26.8325L0.227234 26.8014L0.221848 26.795ZM0.412709 26.7959L0.407985 26.8016L0.44516 26.8325L0.418346 26.7923C0.416472 26.7935 0.414593 26.7948 0.412709 26.7959ZM3.08181 23.7637C3.08527 23.7791 3.09187 23.7933 3.10123 23.806C3.13133 23.8467 3.18468 23.8649 3.2306 23.8741L3.24008 23.8267L3.24446 23.7785L3.08181 23.7637ZM3.03902 24.0596L3.05284 24.047L3.02035 24.0112V24.0596H3.03902ZM2.61939 24.4403L2.57669 24.4048L2.54575 24.4419L2.57823 24.4777L2.61939 24.4403ZM3.08844 25.4029L3.03646 25.4395L3.0643 25.479L3.10982 25.4627L3.08844 25.4029ZM3.39526 25.1867L3.40447 25.2196L3.45102 25.2065L3.42318 25.167L3.39526 25.1867ZM3.68039 23.7336L3.70032 23.7648L3.74106 23.7388L3.70531 23.7062L3.68039 23.7336ZM6.26126 24.0638C6.24941 24.0693 6.24323 24.0783 6.2421 24.0799C6.2389 24.0846 6.23749 24.0885 6.23722 24.0893C6.23684 24.0904 6.23665 24.0911 6.23665 24.0911C6.23664 24.0911 6.23676 24.0907 6.23698 24.0895C6.23761 24.0861 6.2384 24.0806 6.2393 24.0727C6.24675 24.0699 6.25408 24.0669 6.26126 24.0638ZM6.26126 24.0638C6.26667 24.0613 6.27326 24.0596 6.2811 24.0596C6.27448 24.0596 6.26793 24.0609 6.26186 24.0636C6.26166 24.0637 6.26146 24.0637 6.26126 24.0638ZM4.76938 22.2358L4.73071 22.2648L4.68423 22.2029C4.70735 22.1972 4.72682 22.1935 4.74072 22.1912C4.7478 22.19 4.75346 22.1892 4.75744 22.1886C4.75943 22.1884 4.761 22.1882 4.76213 22.188L4.76348 22.1879L4.7639 22.1878L4.76404 22.1878C4.76406 22.1878 4.76414 22.1878 4.76938 22.2358ZM4.9515 22.1494L4.91384 22.1814L4.94516 22.2183L4.98268 22.1878L4.9515 22.1494ZM10.2499 26.6607C10.2399 26.6648 10.2294 26.669 10.2185 26.6733L10.2362 26.7183L10.2725 26.6864L10.2499 26.6607ZM10.5028 26.3304L10.5161 26.3457L10.5526 26.314L10.5044 26.3105C10.5039 26.3173 10.5034 26.324 10.5028 26.3304ZM7.41574 20.3806L7.37511 20.4146L7.4061 20.4517L7.44694 20.4258C7.43711 20.4103 7.4267 20.3952 7.41574 20.3806ZM9.04925 19.2414L9.04249 19.2479L9.07602 19.2827L9.05639 19.2385C9.05408 19.2396 9.0517 19.2405 9.04925 19.2414ZM8.73825 18.5646C8.73899 18.5654 8.73973 18.5662 8.74049 18.5671L8.77719 18.5356L8.7362 18.5613C8.7369 18.5624 8.73758 18.5635 8.73825 18.5646ZM8.09072 18.4946L8.09599 18.3707L8.0477 18.3687L8.00446 18.3903C8.02391 18.4292 8.05521 18.464 8.09072 18.4946ZM6.88857 19.42L6.90372 19.4052L6.86996 19.3706L6.86742 19.4189L6.88857 19.42ZM6.19141 20.1001L6.19512 20.089L6.14926 20.0737L6.18302 20.1083L6.19141 20.1001ZM6.11343 20.3341L6.11504 20.3374L6.08224 20.4883C6.08205 20.4892 6.08184 20.49 6.08161 20.4909L6.11599 20.5623C6.10695 20.57 6.09606 20.5794 6.08377 20.5899C6.04757 20.6209 5.99935 20.662 5.95116 20.7025C5.90288 20.7431 5.85496 20.7829 5.81924 20.8113C5.81456 20.815 5.81014 20.8185 5.80599 20.8217C5.79922 20.8128 5.7919 20.804 5.78484 20.7958C5.78003 20.7902 5.77516 20.7848 5.77046 20.7796L6.06724 20.5141C6.07417 20.5079 6.07915 20.4998 6.08161 20.4909M5.80599 20.8217C5.79418 20.8309 5.78461 20.8382 5.77768 20.843C5.77341 20.8461 5.77136 20.8473 5.77093 20.8476C5.77085 20.8476 5.7709 20.8476 5.77093 20.8476C5.77114 20.8475 5.77196 20.847 5.77337 20.8465C5.77445 20.846 5.77776 20.8448 5.78242 20.844C5.78551 20.8435 5.79879 20.8415 5.81307 20.8497C5.83215 20.8605 5.83725 20.8794 5.83725 20.8911C5.83725 20.8773 5.83252 20.8655 5.82935 20.8587C5.82572 20.8508 5.82111 20.8432 5.81656 20.8364C5.8133 20.8316 5.80973 20.8266 5.80599 20.8217ZM5.77046 20.7796L5.73325 20.8129L5.70102 20.7769L5.7352 20.7427C5.73873 20.7462 5.75358 20.761 5.77046 20.7796ZM6.11343 20.3341L6.12014 20.314L6.12618 20.2861C6.1288 20.2741 6.12673 20.2616 6.1204 20.251L6.06821 20.164L6.1034 20.0584C6.10584 20.0511 6.10999 20.0445 6.1155 20.0391L6.83621 19.336C6.84587 19.3266 6.85903 19.3216 6.8725 19.3223L7.35297 19.3476L7.33796 19.3616L7.37094 19.397L7.37348 19.3487L7.35297 19.3476L7.98267 18.7599L7.98182 18.7797L8.03012 18.7817L7.99714 18.7464L7.98267 18.7599L7.9994 18.3666C8.00034 18.3446 8.01604 18.326 8.03759 18.3214C8.05914 18.3168 8.08108 18.3273 8.09093 18.347C8.10591 18.377 8.13602 18.409 8.178 18.4408C8.21933 18.4722 8.26869 18.5009 8.31761 18.5254C8.36637 18.5498 8.41362 18.5694 8.45008 18.5829C8.46643 18.5889 8.48035 18.5936 8.49104 18.5969C8.48764 18.6007 8.48475 18.6039 8.48222 18.6065C8.47958 18.6093 8.47865 18.6101 8.4789 18.6099C8.479 18.6098 8.48057 18.6085 8.48328 18.607C8.48502 18.606 8.49302 18.6016 8.50473 18.6016C8.50712 18.6016 8.50881 18.6018 8.50926 18.6019C8.50968 18.6019 8.50908 18.6019 8.50707 18.6014C8.50433 18.6008 8.50019 18.5997 8.49461 18.598C8.49346 18.5977 8.49228 18.5973 8.49104 18.5969C8.49302 18.5947 8.49516 18.5923 8.49752 18.5896C8.49947 18.5875 8.50156 18.5851 8.50381 18.5826C8.52205 18.5621 8.54771 18.5339 8.57705 18.5095C8.60556 18.4857 8.6427 18.461 8.6845 18.4539C8.73102 18.446 8.77692 18.4611 8.81389 18.5042C8.81547 18.506 8.8169 18.508 8.81818 18.51C8.84194 18.548 8.85613 18.5807 8.86177 18.6106C8.86768 18.6419 8.8637 18.6676 8.85548 18.6898C8.85163 18.7002 8.84704 18.7093 8.84314 18.7167C8.84167 18.7195 8.84037 18.7219 8.83919 18.7241C8.83689 18.7284 8.83501 18.7319 8.83304 18.736C8.83197 18.7382 8.83103 18.7402 8.83019 18.7423L8.80491 18.7246L8.77719 18.7642H8.82553C8.82553 18.7564 8.82706 18.7498 8.83019 18.7423L8.86495 18.7666L8.83719 18.7862L8.86508 18.8257L8.8928 18.7861L8.86495 18.7666L11.4124 16.9669C11.433 16.9523 11.4614 16.9561 11.4775 16.9756M6.11599 20.5623C6.12025 20.5586 6.1241 20.5553 6.12748 20.5524L6.14397 20.5382L6.17563 20.5747L6.13207 20.5957L6.11599 20.5623ZM5.74113 20.8983C5.74133 20.8987 5.7415 20.899 5.74163 20.8993C5.74282 20.9019 5.74057 20.8984 5.74057 20.8911C5.74057 20.8933 5.74074 20.8957 5.74113 20.8983ZM5.99109 20.4525L5.98777 20.4678L6.035 20.478L6.00277 20.442L5.99109 20.4525ZM6.32504 23.2642L6.37336 23.2657C6.37415 23.2403 6.35517 23.2187 6.32995 23.2161L6.32504 23.2642Z" fill="black"/>
</g>
<defs>
<clipPath id="clip0_200_70173">
<rect width="60" height="45" fill="white" transform="translate(-7.5)"/>
</clipPath>
</defs>
</svg>
