<svg width="45" height="45" viewBox="0 0 45 45" fill="none" xmlns="http://www.w3.org/2000/svg">
<g clip-path="url(#clip0_200_69998)">
<path fill-rule="evenodd" clip-rule="evenodd" d="M-7.5 0H52.5V45H-7.5V0Z" fill="white"/>
<path fill-rule="evenodd" clip-rule="evenodd" d="M-9.97461 0.01875L-9.89961 32.4187L40.5473 0L-9.97461 0.01875Z" fill="#3662A2"/>
<path fill-rule="evenodd" clip-rule="evenodd" d="M54.9752 44.9627L54.8439 11.2783L3.96582 44.9814L54.9658 44.9627H54.9752Z" fill="#38A100"/>
<path fill-rule="evenodd" clip-rule="evenodd" d="M-9.9375 34.8564L-9.9 45.0002L1.11563 44.9908L54.8813 8.94395L54.8156 0.12207L43.9406 0.0283203L-9.9375 34.8471V34.8564Z" fill="#C70000"/>
<path fill-rule="evenodd" clip-rule="evenodd" d="M13.0877 16.125L11.0439 14.8875L9.86269 16.9594L8.71895 14.8781L6.65645 16.0875L6.7127 13.7062L4.33144 13.725L5.56894 11.6812L3.49707 10.5094L5.57832 9.35625L4.37832 7.29375L6.75957 7.35L6.7502 4.95938L8.78457 6.19687L9.96582 4.125L11.1096 6.20625L13.1721 4.99687L13.1158 7.37812L15.4971 7.35938L14.2596 9.40313L16.3314 10.575L14.2502 11.7281L15.4502 13.7906L13.0689 13.7344L13.0877 16.125Z" fill="#FFE700"/>
<path fill-rule="evenodd" clip-rule="evenodd" d="M14.2883 10.5373C14.2883 12.9373 12.3289 14.8779 9.91953 14.8779C7.51016 14.8779 5.55078 12.9373 5.55078 10.5373C5.55078 8.13731 7.50078 6.20605 9.91953 6.20605C12.3383 6.20605 14.2883 8.14668 14.2883 10.5373Z" fill="#3662A2"/>
<path fill-rule="evenodd" clip-rule="evenodd" d="M13.3408 10.5371C13.3408 11.4446 12.9803 12.315 12.3386 12.9567C11.6968 13.5985 10.8265 13.959 9.91895 13.959C9.01141 13.959 8.14104 13.5985 7.49931 12.9567C6.85759 12.315 6.49707 11.4446 6.49707 10.5371C6.49707 9.62957 6.85759 8.7592 7.49931 8.11748C8.14104 7.47575 9.01141 7.11523 9.91895 7.11523C10.8265 7.11523 11.6968 7.47575 12.3386 8.11748C12.9803 8.7592 13.3408 9.62957 13.3408 10.5371Z" fill="#FFE700"/>
</g>
<defs>
<clipPath id="clip0_200_69998">
<rect width="60" height="45" fill="white" transform="translate(-7.5)"/>
</clipPath>
</defs>
</svg>
