<svg width="45" height="45" viewBox="0 0 45 45" fill="none" xmlns="http://www.w3.org/2000/svg">
<g clip-path="url(#clip0_200_70113)">
<path d="M-7.5 0H52.5V45H-7.5V0Z" fill="#009543"/>
<path d="M-7.5 0H52.5V30H-7.5V0Z" fill="#ED4135"/>
<path d="M-7.5 0H52.5V15H-7.5V0Z" fill="#0035AD"/>
<path d="M14.9998 37.2467C23.1443 37.2467 29.7467 30.6443 29.7467 22.4998C29.7467 14.3553 23.1443 7.75293 14.9998 7.75293C6.85533 7.75293 0.25293 14.3553 0.25293 22.4998C0.25293 30.6443 6.85533 37.2467 14.9998 37.2467Z" fill="#FAE600"/>
<path fill-rule="evenodd" clip-rule="evenodd" d="M15.0002 8.00176C6.99293 8.00176 0.501758 14.4929 0.501758 22.5002C0.501758 30.5075 6.99293 36.9986 15.0002 36.9986C23.0075 36.9986 29.4986 30.5075 29.4986 22.5002C29.4986 14.4929 23.0075 8.00176 15.0002 8.00176ZM0.00488281 22.5002C0.00488281 14.2185 6.71851 7.50488 15.0002 7.50488C23.2819 7.50488 29.9955 14.2185 29.9955 22.5002C29.9955 30.7819 23.2819 37.4955 15.0002 37.4955C6.71851 37.4955 0.00488281 30.7819 0.00488281 22.5002Z" fill="black"/>
<path d="M12.4971 24.7029H17.4939H12.4971ZM12.4971 20.9998H17.4939H12.4971ZM15.0002 7.7998V32.9998V7.7998Z" fill="black"/>
<path fill-rule="evenodd" clip-rule="evenodd" d="M14.7002 20.6998V7.7998H15.3002V20.6998H17.4939V21.2998H15.3002V24.4029H17.4939V25.0029H15.3002V32.9998H14.7002V25.0029H12.4971V24.4029H14.7002V21.2998H12.4971V20.6998H14.7002Z" fill="black"/>
<path d="M9.05664 36.0376C15.0754 38.5032 20.7191 36.197 20.7191 36.197C20.7191 36.197 18.591 33.8907 17.5035 32.9907C16.4348 32.1095 13.3035 32.147 12.2348 32.9907C11.1272 33.9548 10.0666 34.9716 9.05664 36.0376Z" fill="black"/>
<path d="M14.9996 31.6965C15.9109 31.6965 16.6496 30.622 16.6496 29.2965C16.6496 27.971 15.9109 26.8965 14.9996 26.8965C14.0883 26.8965 13.3496 27.971 13.3496 29.2965C13.3496 30.622 14.0883 31.6965 14.9996 31.6965Z" fill="black"/>
<path d="M14.9998 24.1123C16.1026 24.1123 16.9967 23.5457 16.9967 22.8467C16.9967 22.1477 16.1026 21.5811 14.9998 21.5811C13.897 21.5811 13.0029 22.1477 13.0029 22.8467C13.0029 23.5457 13.897 24.1123 14.9998 24.1123Z" fill="black"/>
<path d="M14.9998 18.9938C16.1026 18.9938 16.9967 18.0997 16.9967 16.9969C16.9967 15.894 16.1026 15 14.9998 15C13.897 15 13.0029 15.894 13.0029 16.9969C13.0029 18.0997 13.897 18.9938 14.9998 18.9938Z" fill="black"/>
<path d="M17.3998 9.55332C17.3998 9.55332 17.5686 9.83457 17.2123 10.4908C15.4686 13.6314 13.7154 13.6971 13.3873 13.9689C13.0123 14.2689 12.8623 14.2502 12.8623 14.2502C12.8904 13.9783 12.9092 12.8814 12.9279 12.7783C13.1998 11.3064 15.4123 11.3252 17.1467 9.8252C17.4186 9.59082 17.3998 9.54395 17.3998 9.54395V9.55332ZM11.5498 16.3033C11.5498 16.3033 11.9529 17.4283 11.9998 18.5533C12.0936 20.3533 13.8186 20.4002 14.9998 20.4002V19.3971C14.1092 19.3971 13.3404 19.2658 12.7029 17.9533C12.3675 17.3707 11.9817 16.8186 11.5498 16.3033ZM11.5029 30.7971C11.5029 30.7971 12.1311 30.0189 12.8717 28.2002C13.2467 27.2533 14.1654 26.7002 14.9998 26.7002V25.2939C13.0967 25.2939 12.1873 25.9971 12.0936 27.0377C11.9742 28.3018 11.777 29.5573 11.5029 30.7971Z" fill="black"/>
<path d="M18.45 16.3027C18.45 16.3027 18.0469 17.4277 18 18.5527C17.9062 20.3527 16.1813 20.3996 15 20.3996V19.4059C15.8906 19.4059 16.6594 19.2746 17.2969 17.9527C17.6344 17.3715 18.0187 16.8184 18.45 16.3027ZM18.4969 30.8059C18.4969 30.8059 17.8688 30.0184 17.1281 28.1996C16.7531 27.2527 15.8344 26.6996 15 26.6996V25.3121C16.9031 25.3121 17.8125 26.0152 17.9062 27.0559C18.0259 28.3168 18.2232 29.5692 18.4969 30.8059Z" fill="black"/>
</g>
<defs>
<clipPath id="clip0_200_70113">
<rect width="60" height="45" fill="white" transform="translate(-7.5)"/>
</clipPath>
</defs>
</svg>
