<svg width="45" height="45" viewBox="0 0 45 45" fill="none" xmlns="http://www.w3.org/2000/svg">
<g clip-path="url(#clip0_200_70295)">
<path d="M-7.5 0H52.5V45H-7.5V0Z" fill="#0067C6"/>
<path d="M-7.5 15H52.5V30H-7.5V15Z" fill="white"/>
<path d="M15.75 22.4531L16.5 22.5V22.3875L16.2188 22.3688L16.2375 22.0125L16.5469 21.7875L16.5563 21.6469L16.2281 21.8812C16.2188 21.8062 16.1719 21.7219 16.0969 21.6937C16.0219 21.675 15.9469 21.675 15.8812 21.7219C15.8062 21.7781 15.7875 21.8719 15.7875 21.9562L15.75 22.4531ZM15.8625 22.35L15.8906 21.975C15.9 21.9187 15.9094 21.8438 15.9656 21.8063C15.9775 21.7983 15.9911 21.7932 16.0052 21.7912C16.0194 21.7893 16.0339 21.7907 16.0474 21.7952C16.061 21.7997 16.0734 21.8073 16.0836 21.8173C16.0938 21.8274 16.1015 21.8396 16.1063 21.8531C16.1438 21.9469 16.125 22.05 16.1156 22.1531L16.1063 22.3594L15.8625 22.35ZM15.8438 21.3L16.575 21.4688L16.7438 20.7562C16.7094 20.7501 16.675 20.7438 16.6406 20.7375L16.5 21.3375L16.275 21.2906L16.4062 20.7469L16.3031 20.7188L16.1719 21.2625L15.9844 21.2156L16.1156 20.6344L16.0031 20.6156L15.8438 21.3ZM16.1063 20.3156L16.8187 20.5687L16.8562 20.4656L16.575 20.3719L16.6875 20.0438C16.7063 19.95 16.725 19.8563 16.6781 19.7625C16.6563 19.7334 16.628 19.7098 16.5954 19.6935C16.5629 19.6772 16.527 19.6688 16.4906 19.6688C16.3969 19.6688 16.3406 19.7344 16.3031 19.8094C16.2469 19.9031 16.2094 20.0156 16.1813 20.1281L16.1063 20.3156ZM16.2469 20.25L16.3594 19.9313C16.3875 19.875 16.4156 19.8094 16.4813 19.7906C16.4943 19.7879 16.5077 19.788 16.5207 19.7909C16.5337 19.7938 16.5459 19.7994 16.5565 19.8074C16.5672 19.8154 16.576 19.8256 16.5824 19.8372C16.5888 19.8489 16.5927 19.8617 16.5938 19.875C16.6125 19.9688 16.5656 20.0625 16.5375 20.1562L16.4719 20.3344L16.2469 20.25ZM16.5 19.4062L16.9031 19.65C16.9781 19.6875 17.0719 19.7063 17.1562 19.6688C17.2579 19.5998 17.3363 19.5018 17.3812 19.3875C17.4187 19.2938 17.4563 19.1813 17.4 19.0875C17.3438 18.9938 17.2406 18.9563 17.1469 18.9L16.8938 18.75L16.8375 18.8438L17.2125 19.0687C17.2781 19.1062 17.325 19.1625 17.3156 19.2469C17.2969 19.3327 17.2584 19.413 17.2031 19.4813C17.1656 19.5375 17.0906 19.5844 17.0156 19.575C16.9406 19.5563 16.875 19.5 16.8094 19.4625L16.5563 19.3219L16.5 19.4156V19.4062ZM17.0437 18.5344L17.6344 18.9844L17.9156 18.6281C17.9719 18.5437 18.0094 18.4406 17.9812 18.3469C17.9638 18.3108 17.9374 18.2798 17.9046 18.2568C17.8718 18.2338 17.8336 18.2197 17.7937 18.2156C17.7469 18.2156 17.7 18.2437 17.6813 18.2531C17.7 18.1687 17.6344 18.0938 17.5687 18.075C17.475 18.0469 17.3812 18.1031 17.325 18.1688L17.1375 18.4031L17.0437 18.5344ZM17.1937 18.5062C17.2594 18.4125 17.325 18.3188 17.4 18.2438C17.4375 18.2063 17.4938 18.15 17.5406 18.1875C17.5875 18.2062 17.6063 18.2719 17.5781 18.3094C17.5406 18.3938 17.4844 18.45 17.4281 18.525L17.3531 18.6281L17.1937 18.5062ZM17.4375 18.6937L17.6531 18.4125C17.6906 18.375 17.7469 18.3188 17.8031 18.3375C17.8594 18.3469 17.8969 18.4031 17.8781 18.4594C17.85 18.5531 17.775 18.6281 17.7094 18.7125L17.6156 18.8344L17.4281 18.6937H17.4375ZM17.7188 17.7375L18.2344 18.2812L18.675 17.8594L18.6 17.7844L18.2438 18.1219H18.2344L17.7937 17.6531L17.7188 17.7375ZM18.375 17.1562L18.8344 17.7469L18.9281 17.6813L18.4594 17.0906L18.375 17.1562ZM19.05 16.6969C18.9767 16.7399 18.9129 16.7973 18.8625 16.8656C18.8199 16.922 18.7961 16.9903 18.7944 17.061C18.7927 17.1316 18.8133 17.201 18.8531 17.2594C18.8894 17.319 18.9413 17.3676 19.0031 17.4C19.0607 17.4303 19.1258 17.4433 19.1906 17.4375C19.2809 17.4256 19.3674 17.3935 19.4437 17.3438C19.5218 17.299 19.5865 17.2343 19.6312 17.1562C19.6687 17.0812 19.6781 17.0063 19.6594 16.9313L19.5656 16.9688C19.5844 17.1187 19.4906 17.1938 19.3781 17.25C19.2094 17.3625 19.05 17.3531 18.9469 17.2031C18.8438 17.025 18.9469 16.8844 19.0969 16.7906C19.2 16.725 19.3031 16.6781 19.3969 16.7438L19.4812 16.6688C19.4268 16.6296 19.3608 16.6098 19.2937 16.6125C19.2094 16.6125 19.1344 16.65 19.05 16.7062V16.6969ZM19.9406 16.2562L19.8562 17.1L19.9781 17.0531L19.9969 16.7906L20.3719 16.6406L20.5781 16.8094L20.6906 16.7625L20.0531 16.2094L19.9406 16.2562ZM20.0344 16.35L20.2875 16.5563L20.0062 16.6688L20.0344 16.3406V16.35ZM21.5813 15.7875L21.6281 16.5375L22.0312 16.5187C22.1438 16.5 22.2563 16.4813 22.3219 16.3875C22.4156 16.2938 22.4344 16.1344 22.3875 16.0031C22.3698 15.9461 22.3368 15.8951 22.2922 15.8554C22.2476 15.8158 22.193 15.7891 22.1344 15.7781C22.0219 15.7594 21.9094 15.7781 21.7969 15.7781L21.5813 15.7969V15.7875ZM21.6937 15.8906L22.0219 15.8812C22.0817 15.8785 22.1408 15.8949 22.1906 15.9281C22.2656 15.9844 22.3125 16.0687 22.3031 16.1625C22.299 16.2148 22.2788 16.2646 22.2452 16.3049C22.2116 16.3452 22.1663 16.3741 22.1156 16.3875C22.0594 16.4063 21.9938 16.4063 21.9375 16.4156L21.7312 16.425L21.6937 15.8906ZM22.6312 15.75L22.5844 16.5L23.3156 16.5375V16.4344L22.6969 16.3969L22.7063 16.1719L23.2688 16.2V16.0969L22.7156 16.0687L22.725 15.8625L23.325 15.9V15.7875L22.6219 15.75H22.6312ZM24.5813 16.0594L24.3094 16.7625L24.4031 16.8L24.6281 16.2375V16.2188L24.6469 16.2469L24.9094 16.9969L25.0312 17.0438L25.3031 16.3406L25.2094 16.3031L24.9938 16.8656L24.9844 16.8844L24.9656 16.8563L24.7125 16.1063L24.5813 16.0594ZM25.5938 16.5L25.2469 17.1562L25.1531 17.1094L25.4906 16.4437L25.5938 16.5ZM26.1562 16.8281C26.0881 16.7825 26.0117 16.7506 25.9313 16.7344C25.8619 16.7147 25.7881 16.7177 25.7206 16.7431C25.6532 16.7684 25.5956 16.8146 25.5563 16.875C25.52 16.9343 25.5006 17.0024 25.5 17.0719C25.5 17.1375 25.5094 17.2031 25.5563 17.2687C25.5938 17.3344 25.65 17.3906 25.7438 17.4562C25.8193 17.5076 25.9061 17.5398 25.9969 17.55C26.0711 17.5521 26.1438 17.5289 26.2031 17.4844L26.1281 17.4C25.9969 17.4938 25.8938 17.4281 25.7906 17.3625C25.6219 17.25 25.5563 17.1 25.6594 16.9406C25.7719 16.7719 25.95 16.8187 26.1 16.9125C26.1937 16.9781 26.2875 17.0531 26.2688 17.1656L26.3625 17.2031C26.3736 17.1392 26.3638 17.0734 26.3344 17.0156C26.2969 16.9406 26.2406 16.8844 26.1562 16.8281ZM26.8688 17.3625L26.0906 17.6813L26.1844 17.7656L26.4281 17.6719L26.7375 17.9344L26.6719 18.1875L26.7656 18.2719L26.9625 17.4469L26.8688 17.3625ZM26.8406 17.4938L26.7656 17.8125L26.5312 17.625L26.8406 17.4938ZM27.4406 17.8875L26.8594 18.3563L26.925 18.45L27.1594 18.2625L27.3844 18.5438L27.3187 18.9188L27.4031 19.0219L27.4781 18.6281C27.5438 18.675 27.6375 18.7031 27.7125 18.6656C27.7781 18.6281 27.8438 18.5719 27.8438 18.4969C27.8438 18.3938 27.7781 18.3094 27.7219 18.2344L27.4406 17.8875ZM27.4219 18.0375L27.6656 18.3375C27.7031 18.3938 27.75 18.4688 27.7031 18.525C27.675 18.5813 27.6 18.5813 27.5531 18.5438C27.4594 18.4781 27.4031 18.3844 27.3281 18.3L27.2344 18.1969L27.4219 18.0375ZM28.3125 19.0781L27.4688 19.1156L27.5344 19.2281L27.7969 19.2188L28.0031 19.575L27.8531 19.7906L27.9187 19.9031L28.3781 19.1906L28.3125 19.0781ZM28.2469 19.1906L28.0594 19.4719L27.9187 19.2094L28.2469 19.1906ZM28.8 20.0719C28.7531 19.95 28.6781 19.8187 28.5469 19.7531C28.476 19.7204 28.3963 19.7118 28.3201 19.7287C28.2439 19.7457 28.1753 19.7872 28.125 19.8469C28.0312 19.9406 28.0312 20.0813 28.0594 20.2125C28.0875 20.3531 28.1531 20.4937 28.2469 20.5969L28.1906 20.6156L28.2281 20.7188L28.5844 20.5969L28.4437 20.2125L28.3688 20.2406L28.4625 20.5219L28.35 20.5687C28.2483 20.4739 28.1793 20.3491 28.1531 20.2125C28.125 20.1094 28.125 19.9875 28.2 19.9125C28.2937 19.8187 28.4438 19.7906 28.5469 19.8656C28.65 19.9406 28.7063 20.0625 28.7344 20.1844C28.7625 20.2688 28.7531 20.3625 28.6969 20.4281C28.6781 20.4281 28.6969 20.4563 28.7063 20.4656L28.7344 20.5125C28.7661 20.4882 28.7919 20.457 28.8098 20.4213C28.8277 20.3856 28.8371 20.3462 28.8375 20.3063C28.8394 20.2265 28.8266 20.1471 28.8 20.0719ZM29.0156 20.6625L28.5938 20.7375C28.529 20.7469 28.4676 20.7727 28.4156 20.8125C28.375 20.8492 28.3484 20.8989 28.3406 20.9531V21.1781C28.3687 21.2719 28.3969 21.3375 28.4344 21.3937C28.4625 21.45 28.5 21.4875 28.5469 21.4875C28.6084 21.5034 28.6729 21.5034 28.7344 21.4875L29.1562 21.4125L29.1375 21.3094L28.725 21.3844C28.5375 21.4219 28.4812 21.3281 28.4437 21.1594C28.4156 20.9906 28.4437 20.8781 28.6219 20.85L29.0344 20.7656L29.0156 20.6625ZM29.2406 21.9375L28.4625 21.6L28.4719 21.7313L28.7156 21.825L28.7438 22.2375L28.5188 22.3781L28.5281 22.5L29.25 22.0594L29.2406 21.9375ZM29.1281 22.0031L28.8469 22.1813L28.8281 21.8812L29.1281 22.0031ZM16.3312 23.8781L16.2188 23.9062L16.3406 24.3656L16.4531 24.3375L16.3312 23.8781ZM28.6687 23.8781L28.7812 23.9062L28.6594 24.3656L28.5469 24.3375L28.6687 23.8781ZM17.4938 25.8L16.65 25.8938L16.725 25.9969L16.9875 25.9688L17.2125 26.3063L17.0813 26.5406L17.1562 26.6344L17.5594 25.9031L17.4938 25.8ZM17.4281 25.9219L17.2688 26.2031L17.1 25.9594L17.4281 25.9219ZM17.8125 26.2594L17.2781 26.7562L17.3531 26.8313L17.8031 26.4094L17.5594 27.0656L17.6531 27.15L18.2906 26.9625L17.85 27.3656L17.925 27.4406L18.4594 26.9437L18.3469 26.8313L17.6906 27.0188L17.9344 26.3906L17.8125 26.2594ZM18.5906 27.0469L18.1406 27.6562L18.7219 28.0875L18.7875 28.0031L18.2906 27.6281L18.4313 27.4406L18.8719 27.7875L18.9375 27.6937L18.4969 27.3656L18.6188 27.2063L19.0875 27.5625L19.1531 27.4688L18.5906 27.0469ZM19.3219 27.5906L18.975 28.2469L19.0687 28.3031L19.2094 28.0406L19.5281 28.2094L19.6031 28.5844L19.725 28.65L19.6406 28.2562C19.725 28.2844 19.8281 28.2656 19.875 28.2C19.9219 28.1437 19.9594 28.0781 19.9313 28.0031C19.9125 27.9094 19.8094 27.8531 19.7344 27.8063L19.3219 27.5906ZM19.3688 27.7312L19.7063 27.9187C19.7625 27.9562 19.8281 28.0031 19.8187 28.0687C19.8187 28.1344 19.7531 28.1625 19.6969 28.1531C19.5844 28.1344 19.4906 28.0687 19.3969 28.0219L19.2562 27.9469L19.3688 27.7312ZM20.175 28.0312L19.8938 28.725L19.9875 28.7719L20.2688 28.0781L20.175 28.0312ZM20.85 28.2656C20.772 28.2371 20.6892 28.2244 20.6062 28.2281C20.534 28.2293 20.4641 28.2536 20.4067 28.2975C20.3493 28.3414 20.3076 28.4025 20.2875 28.4719C20.2704 28.5364 20.2704 28.6042 20.2875 28.6687C20.2875 28.7437 20.325 28.8 20.3812 28.8562C20.4459 28.9136 20.5229 28.9553 20.6062 28.9781C20.6935 29.0091 20.7875 29.0156 20.8781 28.9969C20.9519 28.9827 21.0183 28.9428 21.0656 28.8844L20.9719 28.8281C20.8781 28.95 20.7563 28.9219 20.6344 28.875C20.4469 28.8094 20.3438 28.6875 20.4 28.5C20.4656 28.3125 20.6531 28.3125 20.8125 28.3594C20.925 28.3969 21.0281 28.4531 21.0375 28.5563L21.15 28.575C21.1448 28.5045 21.115 28.4381 21.0656 28.3875C21.005 28.3296 20.9309 28.2878 20.85 28.2656ZM21.6 28.4344L21.1125 29.1188L21.2344 29.1375L21.3844 28.9219L21.7969 28.9875L21.8812 29.2312L22.0031 29.25L21.7219 28.4531L21.6 28.4344ZM21.6469 28.5563L21.7594 28.875L21.4594 28.8281L21.6469 28.5563ZM23.3625 28.4437C23.2688 28.4531 23.2031 28.4812 23.1375 28.5281C23.0755 28.5642 23.0267 28.6191 22.998 28.6849C22.9694 28.7506 22.9624 28.8238 22.9781 28.8938C22.9875 28.9594 23.0156 29.0156 23.0719 29.0813C23.1094 29.1281 23.1656 29.1563 23.2406 29.175C23.3062 29.1938 23.4 29.1938 23.5031 29.175C23.5969 29.1563 23.6906 29.1187 23.7469 29.0625C23.8018 29.0138 23.8383 28.9475 23.85 28.875H23.7375C23.7094 29.025 23.5969 29.0625 23.475 29.0813C23.2781 29.1188 23.1281 29.0531 23.0906 28.8656C23.0531 28.6687 23.2125 28.575 23.3719 28.5375C23.4937 28.5187 23.6062 28.5094 23.6719 28.6031L23.7656 28.5656C23.7304 28.5096 23.6777 28.4667 23.6156 28.4437C23.5326 28.4223 23.4455 28.4223 23.3625 28.4437ZM23.8594 28.35L24.075 29.0719L24.7781 28.8656L24.7406 28.7625L24.15 28.9406L24.0844 28.7156L24.6188 28.5563L24.5906 28.4625L24.0563 28.6125L24 28.425L24.5625 28.2562L24.5344 28.1531L23.8594 28.35ZM24.675 28.0969L24.9844 28.7812L25.0781 28.7344L24.8156 28.1719L25.5469 28.5H25.5938L25.6875 28.4531L25.3688 27.7688L25.275 27.8156L25.5375 28.3781L24.7875 28.0406L24.675 28.0969ZM25.5 27.7125L25.5563 27.8063L25.8187 27.6188H25.8375L26.1844 28.1531L26.2781 28.0875L25.9313 27.5625V27.5531L26.2031 27.3656L26.1469 27.2812L25.5 27.7125ZM26.25 27.1875L26.7562 27.75L26.8406 27.6656L26.6438 27.45L26.9062 27.2063L27.2812 27.2625L27.3938 27.1687L26.9906 27.1125C27.0375 27.0469 27.0563 26.9438 27.0094 26.8688C26.9719 26.8031 26.9156 26.7469 26.8313 26.7562C26.7375 26.7562 26.6438 26.8312 26.5781 26.8875L26.25 27.1969V27.1875ZM26.4 27.1969L26.6813 26.9344C26.7375 26.8969 26.8125 26.85 26.8688 26.8875C26.9344 26.9156 26.9344 26.9906 26.8969 27.0375C26.8406 27.1312 26.7563 27.1969 26.6719 27.2812L26.5687 27.375L26.4 27.1875V27.1969ZM27.1219 26.3156L27.4594 27.0938L27.5344 27L27.4406 26.7562L27.6937 26.4375L27.9469 26.4938L28.0312 26.4L27.2063 26.2125L27.1219 26.3156ZM27.2531 26.3438L27.5813 26.4094L27.3938 26.6438L27.2531 26.3438ZM27.45 25.8938L28.0781 26.2969L28.4062 25.7906L28.3125 25.7344L28.0594 26.1375L28.05 26.1562H28.0406L27.5062 25.8L27.45 25.8938Z" fill="#C8A400"/>
<path d="M22.4999 16.9795L20.1374 21.067L18.9824 23.0695H26.0174L24.9149 21.1645L22.4999 16.9795Z" fill="white"/>
<path opacity="0.6" d="M22.5003 16.9795L22.3203 17.2795L22.5003 21.4045L22.6803 17.2795L22.5003 16.9795Z" fill="#17C0EB"/>
<path opacity="0.6" fill-rule="evenodd" clip-rule="evenodd" d="M22.5002 16.9727L22.684 17.279L22.5039 21.4051H22.4965L22.3164 17.279L22.5002 16.9727ZM22.324 17.2809L22.5002 21.3189L22.6764 17.2809L22.5002 16.9872L22.324 17.2809Z" fill="#17C0EB"/>
<path d="M22.5007 20.8125H22.4932L22.5007 21.0375L22.5082 20.8125H22.5007Z" fill="white"/>
<path d="M22.4999 19.9346C21.701 19.9337 20.9286 20.2213 20.3249 20.7446L19.2299 22.6496C19.1907 22.8548 19.1706 23.0632 19.1699 23.2721H19.5449C19.5831 22.5151 19.9107 21.8017 20.46 21.2794C21.0093 20.7571 21.7382 20.4659 22.4962 20.4659C23.2541 20.4659 23.9831 20.7571 24.5324 21.2794C25.0817 21.8017 25.4092 22.5151 25.4474 23.2721H25.8224C25.8242 23.0634 25.8066 22.855 25.7699 22.6496L24.6749 20.7446C24.0709 20.2219 23.2987 19.9343 22.4999 19.9346Z" fill="#FF0000"/>
<path d="M22.5005 20.002C21.6529 20.0002 20.8379 20.3283 20.228 20.917L19.328 22.4845C19.2642 22.7396 19.2315 23.0015 19.2305 23.2645H19.553C19.6062 22.5191 19.9398 21.8215 20.4867 21.3123C21.0336 20.803 21.7532 20.5199 22.5005 20.5199C23.2478 20.5199 23.9673 20.803 24.5142 21.3123C25.0611 21.8215 25.3948 22.5191 25.448 23.2645H25.7705C25.7698 22.999 25.7371 22.7346 25.673 22.477L24.773 20.917C24.1631 20.3283 23.3481 20.0002 22.5005 20.002Z" fill="#FF6600"/>
<path d="M22.5006 20.0625C22.0475 20.0613 21.5992 20.1563 21.1855 20.3412C20.7718 20.526 20.402 20.7966 20.1006 21.135L19.4481 22.26C19.3442 22.5873 19.2935 22.9292 19.2981 23.2725H19.5456C19.5838 22.5155 19.9114 21.8021 20.4607 21.2799C21.01 20.7576 21.7389 20.4663 22.4969 20.4663C23.2548 20.4663 23.9838 20.7576 24.5331 21.2799C25.0824 21.8021 25.41 22.5155 25.4481 23.2725H25.7106C25.7106 22.92 25.6506 22.5825 25.5531 22.2675L24.8931 21.135C24.5929 20.7972 24.2244 20.5269 23.812 20.342C23.3996 20.1572 22.9526 20.0619 22.5006 20.0625Z" fill="#FFFF00"/>
<path d="M22.5006 20.1227C21.9833 20.1225 21.4739 20.2496 21.0174 20.4929C20.5609 20.7362 20.1713 21.0882 19.8831 21.5177L19.6731 21.8852C19.4605 22.3169 19.3502 22.7916 19.3506 23.2727H19.5531C19.6063 22.5273 19.9399 21.8298 20.4868 21.3205C21.0338 20.8113 21.7533 20.5281 22.5006 20.5281C23.2479 20.5281 23.9674 20.8113 24.5143 21.3205C25.0612 21.8298 25.3949 22.5273 25.4481 23.2727H25.6506C25.651 22.7916 25.5406 22.3169 25.3281 21.8852L25.1181 21.5102C24.8299 21.0807 24.4403 20.7287 23.9838 20.4854C23.5273 20.2421 23.0179 20.115 22.5006 20.1152V20.1227Z" fill="#00FF00"/>
<path d="M22.5002 20.1748C22.0937 20.1748 21.6913 20.255 21.3159 20.4107C20.9406 20.5665 20.5996 20.7948 20.3126 21.0825C20.0255 21.3702 19.7981 21.7117 19.6432 22.0875C19.4884 22.4633 19.4092 22.8659 19.4102 23.2723H19.5527C19.6059 22.5269 19.9395 21.8294 20.4864 21.3201C21.0333 20.8108 21.7529 20.5277 22.5002 20.5277C23.2475 20.5277 23.967 20.8108 24.5139 21.3201C25.0608 21.8294 25.3945 22.5269 25.4477 23.2723H25.5902C25.5912 22.8659 25.512 22.4633 25.3571 22.0875C25.2023 21.7117 24.9748 21.3702 24.6878 21.0825C24.4008 20.7948 24.0598 20.5665 23.6844 20.4107C23.309 20.255 22.9066 20.1748 22.5002 20.1748Z" fill="#00CCFF"/>
<path d="M22.4997 20.2354C21.6961 20.2354 20.9254 20.5546 20.3572 21.1228C19.789 21.6911 19.4697 22.4617 19.4697 23.2654H19.5747C19.5747 22.4896 19.8829 21.7456 20.4314 21.1971C20.98 20.6485 21.724 20.3404 22.4997 20.3404C23.2755 20.3404 24.0195 20.6485 24.568 21.1971C25.1166 21.7456 25.4247 22.4896 25.4247 23.2654H25.5297C25.5258 22.4643 25.2048 21.6975 24.637 21.1325C24.0692 20.5675 23.3007 20.2503 22.4997 20.2504V20.2354Z" fill="#0000FF"/>
<path d="M22.4998 20.3024C22.1053 20.3024 21.7147 20.3809 21.3509 20.5334C20.9871 20.6859 20.6574 20.9094 20.3809 21.1908C20.1044 21.4722 19.8867 21.8058 19.7406 22.1722C19.5945 22.5386 19.5228 22.9305 19.5298 23.3249H19.5898V23.2649C19.5977 22.4931 19.9119 21.7561 20.4633 21.216C21.0147 20.6759 21.758 20.377 22.5298 20.3849C23.3015 20.3929 24.0385 20.7071 24.5787 21.2585C25.1188 21.8098 25.4177 22.5531 25.4098 23.3249H25.4698V23.2649C25.4698 22.8749 25.3929 22.4887 25.2437 22.1284C25.0944 21.768 24.8757 21.4406 24.5999 21.1648C24.3241 20.889 23.9967 20.6703 23.6363 20.521C23.276 20.3717 22.8898 20.2949 22.4998 20.2949V20.3024Z" fill="#800080"/>
<path d="M22.5298 21.6075C22.4773 21.6075 22.4398 21.57 22.3948 21.5625C22.3729 21.5818 22.3566 21.6065 22.3473 21.6342C22.3381 21.6618 22.3364 21.6915 22.3423 21.72C22.3648 21.7275 22.3648 21.75 22.4098 21.7875C22.4548 21.825 22.4473 21.84 22.4398 21.9375C22.4398 21.9675 22.4473 22.05 22.4848 22.0575C22.5223 22.065 22.5598 22.035 22.5673 21.9675C22.5748 21.915 22.5973 21.8775 22.6198 21.8475C22.6423 21.705 22.6048 21.6525 22.5298 21.6075Z" fill="#510000"/>
<path d="M22.2902 21.2621C22.2452 21.2621 22.1702 21.3371 22.1402 21.2996C22.1252 21.2771 22.1177 21.2321 22.1402 21.1946C22.174 21.12 22.2322 21.0592 22.3052 21.0221C22.4777 20.9171 22.5977 20.9471 22.6802 21.0971C22.7627 21.2321 22.8452 21.3821 22.8527 21.5021C22.8527 21.5396 22.8752 21.6071 22.8377 21.6446C22.7402 21.7496 22.4927 21.5321 22.3502 21.5696C22.3052 21.5771 22.2452 21.6146 22.2002 21.5846C22.1702 21.5621 22.2002 21.5096 22.2227 21.4871C22.2677 21.4496 22.3352 21.3071 22.3277 21.2471C22.3277 21.2171 22.3277 21.2621 22.2902 21.2621Z" fill="#FF0000"/>
<path d="M22.2752 21.1954C22.1852 21.2254 22.2002 21.2704 22.1552 21.3079C22.1702 21.3154 22.2152 21.3304 22.2602 21.2854C22.2752 21.2704 22.2977 21.2629 22.3127 21.2629L22.2602 21.3154C22.2156 21.3521 22.1798 21.3982 22.1552 21.4504C22.1327 21.5104 22.1252 21.5779 22.1327 21.5854C22.1327 21.5854 22.1627 21.6454 22.2452 21.6754C22.3952 21.7354 22.4252 21.8629 22.5827 21.8629C22.7027 21.8629 22.6877 21.7804 22.7852 21.7954C22.8602 21.8104 22.9127 21.7429 22.8302 21.7054C22.6965 21.6791 22.5589 21.6791 22.4252 21.7054C22.3952 21.4054 22.4252 21.5104 22.4177 21.3754C22.4102 21.2479 22.3652 21.2404 22.4177 21.1279C22.3802 21.2029 22.3277 21.1879 22.2677 21.1879L22.2752 21.1954Z" fill="url(#paint0_linear_200_70295)"/>
<path d="M22.5749 20.9854L22.5674 21.0304L22.5899 21.1054L22.6049 21.1804C22.6049 21.2029 22.6349 21.2104 22.6574 21.2254C22.6874 21.2479 22.6574 21.3004 22.6799 21.3079C22.6949 21.3079 22.7174 21.2329 22.7174 21.2179V21.1654C22.7056 21.1424 22.6931 21.1199 22.6799 21.0979C22.6753 21.0901 22.6703 21.0826 22.6649 21.0754C22.6482 21.0501 22.628 21.0274 22.6049 21.0079C22.5976 21.0025 22.5901 20.9975 22.5824 20.9929L22.5674 20.9854H22.5749Z" fill="#FF2A2A"/>
<path d="M22.5978 21.5552L22.4478 21.5027C22.3503 21.4727 22.2528 21.4127 22.1853 21.4427C22.1628 21.4502 22.1628 21.4727 22.1553 21.5102C22.1553 21.5477 22.1178 21.6077 22.1553 21.5852C22.2003 21.5552 22.3353 21.6452 22.3803 21.6677C22.4028 21.6827 22.4553 21.7127 22.4628 21.7427C22.4778 21.7877 22.4628 21.8777 22.4628 21.9227C22.4628 21.9602 22.4778 22.0577 22.5153 22.0727C22.5603 22.0802 22.5978 22.0427 22.6128 21.9752C22.6353 21.9077 22.6428 21.8702 22.6728 21.8327C22.7028 21.7952 22.7328 21.7727 22.7703 21.7652C22.8153 21.7652 22.8753 21.8027 22.8753 21.7502C22.8753 21.7202 22.8453 21.6902 22.8603 21.6452C22.8678 21.6077 22.8303 21.6152 22.7928 21.6002L22.5903 21.5552H22.5978Z" fill="url(#paint1_linear_200_70295)"/>
<path d="M22.38 21.6673C22.35 21.6523 22.2075 21.5548 22.155 21.5923C22.1325 21.5923 22.125 21.5923 22.125 21.5698L22.14 21.5023C22.14 21.4798 22.155 21.4423 22.1775 21.4273C22.23 21.3823 22.35 21.4648 22.41 21.4873L22.38 21.6673Z" fill="#910000"/>
<path d="M22.635 21.8548C22.7025 21.7348 22.7475 21.7498 22.83 21.7498C22.86 21.7498 22.8675 21.7273 22.86 21.6973C22.8375 21.7423 22.7325 21.6973 22.6725 21.7198C22.56 21.7723 22.5825 21.9973 22.5225 22.0198C22.5825 22.0723 22.605 21.8923 22.635 21.8548Z" fill="#FF3A3A"/>
<path d="M18.9824 23.0703L18.2324 24.3678H26.7749L26.0249 23.0778H18.9899L18.9824 23.0703Z" fill="white"/>
<path d="M18.7279 24.1047C18.61 24.1045 18.4923 24.112 18.3754 24.1272L18.3379 24.1947C18.5179 24.1722 18.6904 24.1422 18.8779 24.1422C19.1179 24.1422 19.3429 24.2022 19.6054 24.2022H19.9504C20.2129 24.2022 20.4304 24.1422 20.6779 24.1422C20.9254 24.1422 21.1504 24.2022 21.4129 24.2022H21.7579C22.0204 24.2022 22.2379 24.1422 22.4854 24.1422C22.7329 24.1422 22.9579 24.2022 23.2204 24.2022H23.5579C23.8204 24.2022 24.0454 24.1422 24.2929 24.1422C24.5404 24.1422 24.7654 24.2022 25.0279 24.2022H25.3654C25.6279 24.2022 25.8529 24.1422 26.1004 24.1422C26.2954 24.1422 26.4754 24.1797 26.6629 24.1947L26.6254 24.1197C26.5158 24.1083 26.4056 24.1033 26.2954 24.1047H25.9579C25.6954 24.1047 25.4704 24.1572 25.2229 24.1647C24.9754 24.1647 24.7504 24.1047 24.4879 24.1047H24.1504C23.8879 24.1047 23.6629 24.1572 23.4154 24.1647C23.1679 24.1647 22.9429 24.1047 22.6804 24.1047H22.3504C22.0879 24.1047 21.8629 24.1572 21.6154 24.1647C21.3679 24.1647 21.1429 24.1047 20.8804 24.1047H20.5429C20.2804 24.1047 20.0554 24.1572 19.8079 24.1647C19.5604 24.1647 19.3429 24.1047 19.0804 24.1047H18.7354H18.7279Z" fill="url(#paint2_linear_200_70295)"/>
<path d="M18.9899 23.0625V23.0775H26.0174L26.0099 23.0625H18.9899ZM18.9749 23.085L18.9674 23.1075H26.0249L26.0174 23.085H18.9674H18.9749ZM18.9599 23.115L18.9449 23.1375H26.0549L26.0399 23.115H18.9599ZM18.9374 23.1525L18.9149 23.19H26.0849L26.0624 23.1525H18.9374ZM18.9074 23.205L18.8849 23.2425H26.1149L26.0924 23.205H18.9074ZM18.8774 23.2575L18.8624 23.2875H26.1374L26.1224 23.2575H18.8774ZM18.8474 23.31L18.8324 23.34H26.1749L26.1524 23.31H18.8474ZM18.8174 23.3625L18.7949 23.4075H26.2049L26.1824 23.3625H18.8249H18.8174Z" fill="url(#paint3_linear_200_70295)"/>
<path d="M19.3047 23.4229C19.5597 23.4754 19.5822 23.4229 19.5822 23.4229H19.3047ZM25.4172 23.4229C25.4172 23.4229 25.4397 23.4754 25.6947 23.4229H25.4172Z" fill="url(#paint4_linear_200_70295)"/>
<path d="M24.795 22.2754C24.6675 22.2754 24.63 22.3429 24.63 22.3429C24.4275 23.1379 23.745 23.9404 22.935 23.9404H22.335V24.7504H26.94L26.475 23.9254C25.7475 23.8204 25.155 23.0779 24.9675 22.3429C24.9675 22.3429 24.9225 22.2754 24.795 22.2754Z" fill="url(#paint5_linear_200_70295)"/>
<path d="M24.7949 22.3128C24.7349 22.3128 24.7049 22.3203 24.6824 22.3353L24.6599 22.3578C24.5475 22.773 24.3306 23.1526 24.0299 23.4603C23.7299 23.7678 23.3549 23.9778 22.9349 23.9778H22.3574V24.7203H26.9249L26.4974 23.9703C26.1449 23.9178 25.8224 23.7303 25.5674 23.4603C25.2668 23.1526 25.0499 22.773 24.9374 22.3578L24.9149 22.3353C24.878 22.3161 24.8363 22.3082 24.7949 22.3128Z" fill="#97C924"/>
<path d="M24.7949 22.3125H24.8249V23.1225C24.8178 23.2929 24.766 23.4584 24.6749 23.6025C24.6374 23.7225 24.5999 23.6775 24.5024 23.82C24.3759 23.8636 24.2452 23.8938 24.1124 23.91C23.9249 23.94 23.5124 23.97 23.2949 23.9175C23.574 23.8321 23.8269 23.6773 24.0299 23.4675C24.0857 23.4078 24.1383 23.3453 24.1874 23.28C24.271 23.1761 24.3462 23.0658 24.4124 22.95L24.4874 22.8C24.5233 22.7291 24.5558 22.6565 24.5849 22.5825C24.6139 22.5089 24.6389 22.4338 24.6599 22.3575L24.6824 22.335L24.7274 22.32L24.8024 22.3125H24.7949Z" fill="#EDE71F"/>
<path d="M24.7496 22.418C24.7121 22.868 24.5771 23.408 24.2471 23.753C24.1271 23.8505 23.9696 23.948 23.8271 23.9255C24.3296 23.513 24.6371 22.8755 24.7421 22.418H24.7496Z" fill="#C6CB24"/>
<path d="M24.3375 23.1982C24.2625 23.4007 23.9775 23.7007 23.6775 23.9482H23.46C23.6475 23.9332 24.0825 23.5732 24.3375 23.1982Z" fill="#9ECB34"/>
<path d="M22.6647 22.3507C22.8747 23.1382 23.5497 23.9407 24.3597 23.9407H24.9672V24.7507H20.0322V23.9407H20.6322C21.4422 23.9407 22.1247 23.1382 22.3272 22.3432C22.3272 22.3432 22.3722 22.2832 22.4997 22.2832C22.6272 22.2832 22.6647 22.3432 22.6647 22.3432V22.3507Z" fill="url(#paint6_linear_200_70295)"/>
<path d="M22.5 22.3134C22.56 22.3134 22.59 22.3284 22.6125 22.3359L22.635 22.3584C22.7474 22.7737 22.9643 23.1532 23.265 23.4609C23.565 23.7684 23.94 23.9784 24.36 23.9784H24.9375V24.7209H20.0625V23.9709H20.64C21.0525 23.9709 21.435 23.7684 21.735 23.4609C22.0329 23.1524 22.2472 22.7729 22.3575 22.3584L22.38 22.3359C22.4172 22.3175 22.4587 22.3097 22.5 22.3134Z" fill="#97C924"/>
<path d="M22.4475 22.3127C22.44 22.3124 22.4325 22.3124 22.425 22.3127L22.38 22.3352L22.3575 22.3577C22.3366 22.4341 22.3116 22.5092 22.2825 22.5827C22.2561 22.6591 22.226 22.7342 22.1925 22.8077C22.169 22.856 22.144 22.9035 22.1175 22.9502C22.0513 23.066 21.9761 23.1764 21.8925 23.2802C21.8432 23.3429 21.7906 23.403 21.735 23.4602C21.5329 23.6727 21.2799 23.8302 21 23.9177C21.21 23.9702 21.3 23.9177 21.4875 23.8877C21.6375 23.8652 21.8025 23.8427 21.9375 23.7977C22.05 23.6477 22.0125 23.7002 22.05 23.5802C22.14 23.4152 22.275 23.2652 22.305 23.0777C22.425 22.8527 22.4475 22.4327 22.4475 22.3127Z" fill="#EDE71F"/>
<path d="M22.4469 22.418C22.4169 22.868 22.2744 23.408 21.9444 23.753C21.8244 23.8505 21.6744 23.948 21.5244 23.9255C22.0344 23.513 22.3419 22.8755 22.4469 22.418Z" fill="#C6CB24"/>
<path d="M22.035 23.1982C21.872 23.4931 21.6468 23.749 21.375 23.9482H21.165C21.3525 23.9332 21.78 23.5732 22.035 23.1982Z" fill="#9ECB34"/>
<path d="M22.5743 22.3203L22.6118 22.3353L22.6418 22.3578C22.6631 22.434 22.6881 22.5091 22.7168 22.5828C22.7431 22.6592 22.7732 22.7343 22.8068 22.8078L22.8818 22.9503C22.9479 23.0661 23.0232 23.1764 23.1068 23.2803C23.1561 23.343 23.2087 23.4031 23.2643 23.4603C23.465 23.6812 23.7176 23.8488 23.9993 23.9478C23.4518 23.9478 23.2193 23.9028 23.0243 23.6478C22.8825 23.4977 22.775 23.3186 22.7093 23.1228C22.6718 22.9728 22.5593 22.6353 22.5668 22.3203H22.5743Z" fill="#EDE71F"/>
<path d="M22.6123 22.418C22.6423 22.868 22.7773 23.318 23.1073 23.663C23.2273 23.768 23.3773 23.858 23.5273 23.8355C23.0561 23.4937 22.7297 22.9881 22.6123 22.418Z" fill="#C6CB24"/>
<path d="M21.3598 22.2754C21.2248 22.2754 21.1873 22.3429 21.1873 22.3429C20.9998 23.0779 20.3023 24.0154 19.5748 24.1279L19.2148 24.7504H22.8898V23.9029C22.2298 23.7229 21.6973 23.0254 21.5248 22.3429C21.5248 22.3429 21.4873 22.2829 21.3523 22.2829L21.3598 22.2754Z" fill="url(#paint7_linear_200_70295)"/>
<path d="M21.3598 22.313C21.2998 22.313 21.2623 22.328 21.2398 22.3355L21.2173 22.358C21.0912 22.7695 20.8847 23.1519 20.6098 23.483C20.3548 23.8055 19.8823 24.128 19.5598 24.158L19.2373 24.7205H22.8373V23.918C22.5665 23.8287 22.3218 23.6741 22.1248 23.468C21.823 23.1582 21.6061 22.776 21.4948 22.358L21.4723 22.3355C21.4375 22.3181 21.3986 22.3103 21.3598 22.313Z" fill="#97C924"/>
<path d="M21.2549 22.418C21.2099 23.093 20.8349 23.9555 20.4074 24.098C20.2649 24.1505 20.0249 24.1655 19.9424 24.173C20.2731 23.9892 20.5615 23.7381 20.7889 23.4357C21.0163 23.1334 21.1776 22.7866 21.2624 22.418H21.2549Z" fill="#93BC30"/>
<path d="M21.3598 22.3127H21.3223V23.1227C21.3223 23.2952 21.3898 23.4377 21.4723 23.6027L21.4873 23.6402C21.5248 23.7227 21.5473 23.7527 21.6598 23.8427C21.9818 24.0726 22.3758 24.179 22.7698 24.1427C22.6873 24.0752 22.5973 24.0152 22.5148 23.9627L22.8523 23.9252C22.5743 23.8344 22.3239 23.6744 22.1248 23.4602C22.0885 23.4239 22.0535 23.3864 22.0198 23.3477L21.9748 23.2877C21.886 23.1817 21.8058 23.0689 21.7348 22.9502C21.7081 22.9011 21.6831 22.851 21.6598 22.8002C21.6138 22.7053 21.5737 22.6076 21.5398 22.5077C21.5231 22.4582 21.5081 22.4082 21.4948 22.3577L21.4723 22.3352C21.4581 22.3281 21.4429 22.323 21.4273 22.3202C21.4027 22.3142 21.3775 22.3117 21.3523 22.3127H21.3598Z" fill="#EDE71F"/>
<path d="M21.4053 22.418C21.4428 22.868 21.5778 23.408 21.9078 23.753C22.0278 23.8505 22.1778 23.948 22.3278 23.9255C21.8703 23.5317 21.5477 23.0045 21.4053 22.418Z" fill="#CCD11E"/>
<path d="M21.7197 23.0475C21.9627 23.5227 22.3446 23.9125 22.8147 24.165H23.0022C22.6722 23.985 22.1397 23.73 21.7272 23.04L21.7197 23.0475Z" fill="#9ECB34"/>
<path d="M26.7377 24.352C26.6927 24.367 26.4077 24.337 26.2577 24.352L26.1602 24.3745H25.9127C25.6427 24.3745 25.4102 24.4495 25.1552 24.4495C24.9002 24.4495 24.6677 24.3745 24.4052 24.3745H24.1502C23.8802 24.3745 23.6477 24.4495 23.3927 24.4495C23.1377 24.4495 22.9052 24.3745 22.6427 24.3745H22.3877C22.1177 24.3745 21.8852 24.4495 21.6377 24.4495C21.3752 24.4495 21.1502 24.3745 20.8802 24.3745H20.6252C20.3552 24.3745 20.1302 24.4495 19.8752 24.4495C19.6127 24.4495 19.3877 24.3745 19.1177 24.3745H18.8627C18.6527 24.3745 18.3977 24.4195 18.1952 24.4345L17.7227 25.252H27.2777L26.7377 24.352Z" fill="white"/>
<path d="M26.1005 24.2324H26.0555C25.8155 24.2399 25.6355 24.3149 25.2155 24.3149C24.7955 24.3149 24.7505 24.2399 24.2705 24.2549C23.8205 24.2549 23.6405 24.3449 23.393 24.3449C23.153 24.3449 22.763 24.2924 22.4555 24.3224C22.1555 24.3524 21.7955 24.4199 21.5555 24.4199C21.263 24.4199 20.9705 24.3674 20.6705 24.3974C20.363 24.4274 20.2205 24.5099 19.838 24.5099C19.508 24.5099 19.163 24.4574 18.878 24.4574C18.623 24.4574 18.338 24.5324 18.128 24.5624L18.0605 24.6749C18.233 24.6524 18.7055 24.5774 18.8705 24.5774C19.0505 24.5774 19.673 24.6149 20.018 24.5999C20.3705 24.5924 20.408 24.5099 20.8205 24.5099C21.1055 24.5099 21.3155 24.5399 21.608 24.5399C21.7955 24.5399 21.9605 24.4499 22.238 24.4499L22.448 24.4424C22.6805 24.4049 23.078 24.4424 23.348 24.4574C23.5955 24.4724 23.7605 24.4124 24.023 24.4049L24.353 24.3974C24.6155 24.3824 24.833 24.4424 25.0805 24.4424C25.3205 24.4274 25.5605 24.3674 25.8155 24.3674L26.153 24.3524C26.3255 24.3524 26.5955 24.3524 26.7755 24.3899L26.7155 24.2849C26.5355 24.2774 26.318 24.2324 26.1005 24.2324Z" fill="url(#paint8_linear_200_70295)"/>
<path d="M18.7726 25.11C18.5176 25.11 18.2926 25.17 18.0526 25.1775C17.9623 25.1752 17.8721 25.1676 17.7826 25.155L17.7451 25.215H18.1951C18.4576 25.215 18.6751 25.155 18.9151 25.1475C19.1626 25.155 19.3801 25.2225 19.6426 25.2225H19.9801C20.2351 25.2225 20.4601 25.155 20.7001 25.1475C20.9476 25.155 21.1726 25.2225 21.4276 25.2225H21.7651C22.0276 25.2225 22.2451 25.155 22.4926 25.1475C22.7326 25.155 22.9501 25.2225 23.2126 25.2225H23.5501C23.8051 25.2225 24.0301 25.155 24.2776 25.1475C24.5176 25.155 24.7426 25.2225 24.9976 25.2225H25.3351C25.5976 25.2225 25.8151 25.155 26.0551 25.1475C26.3026 25.155 26.5201 25.2225 26.7826 25.2225H27.1201L27.2551 25.215L27.2176 25.155C27.1426 25.1625 27.0601 25.1775 26.9776 25.1775C26.7301 25.1775 26.5126 25.1025 26.2501 25.1025H25.9126C25.6576 25.1025 25.4326 25.1775 25.1926 25.1775C24.9451 25.17 24.7276 25.1025 24.4651 25.1025H24.1276C23.8726 25.1025 23.6476 25.1775 23.4076 25.1775C23.1601 25.17 22.9426 25.1025 22.6801 25.1025H22.3426C22.0801 25.1025 21.8626 25.1775 21.6226 25.1775C21.3751 25.17 21.1576 25.1025 20.8951 25.1025H20.5576C20.3026 25.1025 20.0776 25.1775 19.8376 25.1775C19.5901 25.17 19.3726 25.1025 19.1101 25.1025H18.7726V25.11Z" fill="url(#paint9_linear_200_70295)"/>
<path d="M18.293 24.3527L18.1055 24.6677C18.323 24.6302 18.638 24.5402 18.908 24.5402C19.178 24.5402 19.508 24.6077 19.838 24.6152C20.213 24.6152 20.363 24.5252 20.663 24.4952C20.9705 24.4652 21.263 24.5327 21.563 24.5402C21.7955 24.5402 22.1555 24.4577 22.463 24.4277C22.763 24.3902 23.0405 24.4502 23.4005 24.4502C23.768 24.4577 23.828 24.3602 24.2705 24.3527C24.7505 24.3452 24.7955 24.4202 25.2155 24.4202C25.5305 24.4352 25.808 24.3527 26.093 24.3377C26.378 24.3152 26.5055 24.3377 26.7155 24.3377L26.573 24.0977L18.9755 24.2702L18.293 24.3527Z" fill="#97C924"/>
<path d="M26.25 24.3447L26.55 24.3672C26.6224 24.3759 26.6949 24.3834 26.7675 24.3897L26.7375 24.3522C26.6925 24.3672 26.4075 24.3372 26.2575 24.3522L26.25 24.3447Z" fill="white"/>
<path d="M22.5 16.8652L20.0906 21.0371L17.625 25.3121H27.375L24.9656 21.1309L22.5 16.8746V16.8652ZM22.5 17.0902L24.8625 21.1871L27.1781 25.1996H17.8219L20.1844 21.0934L22.5 17.0902Z" fill="#C8A400"/>
</g>
<defs>
<linearGradient id="paint0_linear_200_70295" x1="22.4027" y1="21.6829" x2="22.5452" y2="21.2554" gradientUnits="userSpaceOnUse">
<stop stop-color="#510000"/>
<stop offset="0.3" stop-color="#8A0000"/>
<stop offset="1" stop-color="#AA0000"/>
</linearGradient>
<linearGradient id="paint1_linear_200_70295" x1="22.6053" y1="21.8552" x2="22.7178" y2="21.5552" gradientUnits="userSpaceOnUse">
<stop stop-color="#FF2A2A"/>
<stop offset="1" stop-color="#FF0000"/>
</linearGradient>
<linearGradient id="paint2_linear_200_70295" x1="18.3379" y1="23.8122" x2="32.5804" y2="23.8122" gradientUnits="userSpaceOnUse">
<stop stop-color="#002255"/>
<stop offset="0.5" stop-color="#0044AA"/>
<stop offset="1" stop-color="#002255"/>
</linearGradient>
<linearGradient id="paint3_linear_200_70295" x1="18.3374" y1="23.8125" x2="32.5799" y2="23.8125" gradientUnits="userSpaceOnUse">
<stop stop-color="#002255"/>
<stop offset="0.5" stop-color="#0044AA"/>
<stop offset="1" stop-color="#002255"/>
</linearGradient>
<linearGradient id="paint4_linear_200_70295" x1="18.3372" y1="23.8129" x2="32.5797" y2="23.8129" gradientUnits="userSpaceOnUse">
<stop stop-color="#002255"/>
<stop offset="0.5" stop-color="#0044AA"/>
<stop offset="1" stop-color="#002255"/>
</linearGradient>
<linearGradient id="paint5_linear_200_70295" x1="21.36" y1="23.3779" x2="21.36" y2="23.8204" gradientUnits="userSpaceOnUse">
<stop stop-color="#F5F549"/>
<stop offset="1" stop-color="#97C924"/>
</linearGradient>
<linearGradient id="paint6_linear_200_70295" x1="21.3597" y1="23.3782" x2="21.3597" y2="23.8207" gradientUnits="userSpaceOnUse">
<stop stop-color="#F5F549"/>
<stop offset="1" stop-color="#97C924"/>
</linearGradient>
<linearGradient id="paint7_linear_200_70295" x1="21.3598" y1="23.3779" x2="21.3598" y2="23.8204" gradientUnits="userSpaceOnUse">
<stop stop-color="#F5F549"/>
<stop offset="1" stop-color="#97C924"/>
</linearGradient>
<linearGradient id="paint8_linear_200_70295" x1="18.0615" y1="24.2342" x2="26.7863" y2="24.2342" gradientUnits="userSpaceOnUse">
<stop stop-color="#002255"/>
<stop offset="0.5" stop-color="#0044AA"/>
<stop offset="1" stop-color="#002255"/>
</linearGradient>
<linearGradient id="paint9_linear_200_70295" x1="17.7783" y1="25.1056" x2="27.2217" y2="25.1056" gradientUnits="userSpaceOnUse">
<stop stop-color="#002255"/>
<stop offset="0.5" stop-color="#0044AA"/>
<stop offset="1" stop-color="#002255"/>
</linearGradient>
<clipPath id="clip0_200_70295">
<rect width="60" height="45" fill="white" transform="translate(-7.5)"/>
</clipPath>
</defs>
</svg>
