<svg width="45" height="45" viewBox="0 0 45 45" fill="none" xmlns="http://www.w3.org/2000/svg">
<g clip-path="url(#clip0_200_69681)">
<path d="M-7.5 0H52.5V45H-7.5V0Z" fill="white"/>
<path fill-rule="evenodd" clip-rule="evenodd" d="M-6.92871 44.4287H26.3643L4.57617 22.333L27.1904 22.3594L-6.91992 0.571289V44.4287H-6.92871Z" fill="#CE0000"/>
<path fill-rule="evenodd" clip-rule="evenodd" d="M-7.52637 -0.536133L29.2702 22.9678L6.02754 22.9407L27.814 45.0347H-6.92871V44.4283H-7.52637V-0.536133ZM-6.31348 43.8218H24.9146L3.12481 21.7244L25.1106 21.7501L-6.31348 1.67781V43.8218Z" fill="#000063"/>
<path fill-rule="evenodd" clip-rule="evenodd" d="M8.38184 32.6777L6.00879 33.4687L7.87207 35.209L5.36719 35.0508L6.39551 37.3535L4.1543 36.2725L4.19824 38.7861L2.5459 36.9492L1.60547 39.2871L0.796875 36.9756L-0.987305 38.7861L-0.829102 36.3516L-3.19336 37.3535L-2.08594 35.1562L-4.66113 35.209L-2.77148 33.6006L-5.1709 32.6777L-2.79785 31.8867L-4.66992 30.1465L-2.17383 30.3047L-3.19336 28.002L-0.943359 29.083L-0.987305 26.5693L0.665039 28.4063L1.60547 26.0684L2.40527 28.3799L4.19824 26.5693L4.03125 29.0039L6.4043 28.002L5.28809 30.1992L7.87207 30.1465L5.98242 31.7549L8.38184 32.6777ZM5.53418 16.4443L4.54102 17.1826L5.0332 17.5869C6.1882 16.7801 7.11717 15.6908 7.73145 14.4229C7.88965 16.2949 6.17578 20.4873 1.69336 20.5313C0.874079 20.5417 0.0608401 20.3898 -0.699422 20.0843C-1.45968 19.7788 -2.15191 19.3257 -2.73616 18.7513C-3.32041 18.1769 -3.78511 17.4924 -4.10343 16.7374C-4.42176 15.9824 -4.58741 15.1719 -4.59082 14.3525C-3.71191 15.9521 -3.16699 16.7256 -1.77832 17.5605L-1.36523 17.1738L-2.29688 16.3916L-1.09277 16.0752L-1.74316 14.9854L-0.477539 15.0732L-0.635742 13.8076L0.471679 14.458L0.823242 13.2715L1.61426 14.2207L2.36133 13.3154L2.76562 14.5459L3.80274 13.8252L3.6709 15.082L4.91895 14.9326L4.33008 16.0928L5.53418 16.4443Z" fill="white"/>
</g>
<defs>
<clipPath id="clip0_200_69681">
<rect width="60" height="45" fill="white" transform="translate(-7.5)"/>
</clipPath>
</defs>
</svg>
