<svg width="45" height="45" viewBox="0 0 45 45" fill="none" xmlns="http://www.w3.org/2000/svg">
<g clip-path="url(#clip0_200_65479)">
<path fill-rule="evenodd" clip-rule="evenodd" d="M-14.9951 0H75.0049V45H-14.9951V0Z" fill="#002170"/>
<path fill-rule="evenodd" clip-rule="evenodd" d="M-14.9951 20.5752H75.0049V24.4336H-14.9951V20.5752Z" fill="#FFB20D"/>
<path fill-rule="evenodd" clip-rule="evenodd" d="M11.5303 38.4961L8.62988 35.5957L7.70703 39.5859L6.65234 35.6309L3.84863 38.6191L4.91211 34.6641L1.00098 35.8506L3.90137 32.9502L-0.0888672 32.0186L3.86621 30.9639L0.87793 28.1689L4.83301 29.2236L3.6377 25.3125L6.53809 28.2129L7.46973 24.2227L8.52441 28.1777L11.3193 25.1895L10.2646 29.1445L14.1758 27.958L11.2754 30.8584L15.2656 31.7812L11.3105 32.8359L14.2988 35.6484L10.3438 34.5762L11.5303 38.4961Z" fill="white"/>
</g>
<defs>
<clipPath id="clip0_200_65479">
<rect width="60" height="45" fill="white" transform="translate(-7.5)"/>
</clipPath>
</defs>
</svg>
