<svg width="45" height="45" viewBox="0 0 45 45" fill="none" xmlns="http://www.w3.org/2000/svg">
<g clip-path="url(#clip0_200_67364)">
<path d="M-7.5 0H52.5V45H-7.5V0Z" fill="#FEDD00"/>
<path d="M-7.5 0H22.5V22.5H-7.5V0Z" fill="#012169"/>
<path d="M-3.98438 0L7.45312 8.48438L18.8438 0H22.5V2.90625L11.25 11.2969L22.5 19.6406V22.5H18.75L7.5 14.1094L-3.70312 22.5H-7.5V19.6875L3.70312 11.3438L-7.5 3V0H-3.98438Z" fill="white"/>
<path d="M12.375 13.1719L22.5 20.625V22.5L9.79688 13.1719H12.375ZM3.75 14.1094L4.03125 15.75L-4.96875 22.5H-7.5L3.75 14.1094ZM22.5 0V0.140625L10.8281 8.95312L10.9219 6.89062L20.1562 0H22.5ZM-7.5 0L3.70312 8.25H0.890625L-7.5 1.96875V0Z" fill="#C8102E"/>
<path d="M3.79688 0V22.5H11.2969V0H3.79688ZM-7.5 7.5V15H22.5V7.5H-7.5Z" fill="white"/>
<path d="M-7.5 9.04688V13.5469H22.5V9.04688H-7.5ZM5.29688 0V22.5H9.79688V0H5.29688Z" fill="#C8102E"/>
<path d="M7.4998 15.0748C9.61229 15.0748 11.3248 13.3623 11.3248 11.2498C11.3248 9.13732 9.61229 7.4248 7.4998 7.4248C5.38732 7.4248 3.6748 9.13732 3.6748 11.2498C3.6748 13.3623 5.38732 15.0748 7.4998 15.0748Z" fill="#012169"/>
<path d="M7.49961 7.42519L9.74961 14.3439L3.86211 10.0689H11.1371L5.24961 14.3439M-1.24727 9.21582L0.0652337 13.2846L-3.38477 10.7814H0.899609L-2.56914 13.2939M16.2465 9.21582L17.5684 13.2846L14.109 10.7721H18.3934L14.9246 13.2846M7.49961 16.7158L8.82148 20.7846L5.35273 18.2721H9.63711L6.16836 20.7846M7.49961 1.71582L8.82148 5.78457L5.35273 3.27207H9.63711L6.16836 5.78457" fill="#FEDD00"/>
</g>
<defs>
<clipPath id="clip0_200_67364">
<rect width="60" height="45" fill="white" transform="translate(-7.5)"/>
</clipPath>
</defs>
</svg>
