<svg width="45" height="45" viewBox="0 0 45 45" fill="none" xmlns="http://www.w3.org/2000/svg">
<g clip-path="url(#clip0_200_68835)">
<path d="M-7.5 0H52.5V45H-7.5V0Z" fill="white"/>
<path fill-rule="evenodd" clip-rule="evenodd" d="M1.17148 0H45.909V45H1.16211L1.17148 0Z" fill="white"/>
<path fill-rule="evenodd" clip-rule="evenodd" d="M22.7812 0.337891H56.3438V21.1223H22.7812V0.337891Z" fill="#DB0000"/>
<path fill-rule="evenodd" clip-rule="evenodd" d="M-7.2002 21.1223H22.7904V45.0004H-7.2002V21.1223ZM12.6373 16.6598L8.69981 13.9035L4.79043 16.6785L6.24356 12.1785L2.34356 9.37539L7.18106 9.33789L8.68106 4.83789L10.2092 9.32852H15.0467L11.1561 12.141L12.6467 16.641L12.6373 16.6598Z" fill="#0000AB"/>
<path fill-rule="evenodd" clip-rule="evenodd" d="M40.9594 38.8029L36.9844 36.2061L33.0375 38.8311L34.5 34.5561L30.5625 31.9311L35.4375 31.8842L36.9563 27.6279L38.4938 31.8748H43.3687L39.45 34.5467L40.95 38.8029H40.9594Z" fill="#D80000"/>
</g>
<defs>
<clipPath id="clip0_200_68835">
<rect width="60" height="45" fill="white" transform="translate(-7.5)"/>
</clipPath>
</defs>
</svg>
