<svg width="45" height="45" viewBox="0 0 45 45" fill="none" xmlns="http://www.w3.org/2000/svg">
<g clip-path="url(#clip0_200_68619)">
<path d="M-7.5 0H52.5V45H-7.5V0Z" fill="white"/>
<path d="M0 0H45V45H0V0Z" fill="white"/>
<path fill-rule="evenodd" clip-rule="evenodd" d="M18.4966 31.9502C18.4966 31.9502 19.5091 31.1252 20.5029 31.1252C21.4966 31.1252 21.7591 31.8096 22.4529 31.8658C23.1373 31.9221 23.7091 31.1814 24.5623 31.1533C25.4154 31.1252 26.4841 31.7533 26.4841 31.7533L22.7529 32.8783L18.4966 31.9408V31.9502ZM16.3498 30.7314L29.0435 30.7971C29.0435 30.7971 27.9466 29.6064 26.6529 29.5783C25.3591 29.5596 25.7154 30.1408 24.731 30.2158C23.7373 30.3002 23.4935 29.6158 22.5841 29.6346C21.6841 29.6627 21.1591 30.2158 20.4748 30.2439C19.781 30.2721 18.9091 29.5596 18.3841 29.5877C17.8591 29.6158 15.9935 30.4033 15.9935 30.4033L16.3498 30.7408V30.7314ZM14.7279 29.2314L30.3841 29.2783C30.6373 28.9221 29.6154 28.0689 28.6873 27.9939C27.9185 28.0221 27.3748 28.7908 26.7373 28.8189C26.0998 28.8471 25.3873 28.0221 24.6748 28.0502C23.9623 28.0783 23.2216 28.8189 22.5091 28.8189C21.7873 28.8189 21.2716 28.0221 20.3623 28.0221C19.4529 28.0221 19.0498 28.8939 18.356 28.8471C17.6716 28.7908 17.0623 27.9658 16.406 27.9658C15.7498 27.9658 14.6529 28.9502 14.4373 28.9033C14.2123 28.8377 14.7091 29.3064 14.7279 29.2221V29.2314Z" fill="#083D9C"/>
<path fill-rule="evenodd" clip-rule="evenodd" d="M15.8126 28.0338C16.0149 27.9405 16.2214 27.8721 16.406 27.8721C16.5897 27.8721 16.7654 27.9298 16.9325 28.0114C17.0991 28.0928 17.2632 28.2012 17.4225 28.3073L17.4315 28.3134C17.7544 28.5287 18.0532 28.7279 18.363 28.7536C18.66 28.7734 18.899 28.6049 19.1951 28.3961C19.2048 28.3893 19.2145 28.3824 19.2243 28.3755C19.5255 28.1634 19.8752 27.9283 20.3623 27.9283C20.8453 27.9283 21.2214 28.1409 21.5542 28.3401C21.5709 28.3501 21.5876 28.3601 21.6041 28.37C21.923 28.5614 22.1959 28.7252 22.5091 28.7252C22.8381 28.7252 23.1802 28.5533 23.5487 28.3619C23.5591 28.3566 23.5694 28.3512 23.5798 28.3458C23.9281 28.1647 24.3005 27.9711 24.6711 27.9565C25.0593 27.9412 25.4399 28.1575 25.7808 28.3533C25.7893 28.3581 25.7977 28.363 25.8062 28.3678C25.9719 28.4631 26.1297 28.5538 26.2837 28.6208C26.4453 28.6911 26.5941 28.7314 26.7331 28.7253C26.8743 28.7191 27.0144 28.6716 27.1608 28.5983C27.2935 28.5318 27.4259 28.447 27.5663 28.3571C27.5816 28.3473 27.597 28.3374 27.6126 28.3275C27.9221 28.1296 28.2705 27.9154 28.6838 27.9003L28.6893 27.9001L28.6948 27.9005C29.1815 27.9398 29.686 28.1813 30.0366 28.457C30.2119 28.5948 30.3549 28.746 30.4378 28.8915C30.5186 29.0336 30.556 29.1983 30.4606 29.3326L30.4324 29.3722L14.7279 29.3252C14.7174 29.3265 14.7076 29.3261 14.699 29.3251L14.6341 29.3249V29.3029C14.6186 29.2948 14.6036 29.2853 14.5902 29.2762C14.5383 29.2409 14.4769 29.1881 14.4249 29.136C14.3758 29.0869 14.3228 29.0266 14.2998 28.9762C14.2937 28.9629 14.2861 28.9427 14.2852 28.919C14.2843 28.8926 14.2923 28.8554 14.3256 28.8286C14.3544 28.8054 14.3868 28.8029 14.4053 28.8033C14.4225 28.8037 14.4396 28.8069 14.4555 28.8111C14.4573 28.8109 14.4609 28.8105 14.4666 28.8092C14.4791 28.8063 14.4966 28.8004 14.5197 28.7904C14.5658 28.7705 14.6247 28.7384 14.6955 28.6961C14.7799 28.6457 14.8748 28.5847 14.9788 28.5179C15.0506 28.4717 15.1267 28.4228 15.2066 28.3727C15.3991 28.2521 15.6085 28.1279 15.8126 28.0338ZM14.7279 29.2118L14.7282 29.1402C14.7272 29.14 14.7245 29.1392 14.7203 29.1388C14.7157 29.1384 14.7066 29.138 14.6951 29.141C14.6828 29.1443 14.6684 29.1514 14.6562 29.1644C14.6442 29.1773 14.6387 29.1913 14.6364 29.2017L14.7279 29.2118ZM14.7282 29.1402L14.7282 29.1377L30.3255 29.1844C30.3364 29.1391 30.326 29.0742 30.2748 28.9843C30.2083 28.8673 30.0852 28.7337 29.9207 28.6044C29.593 28.3467 29.1251 28.1249 28.6852 28.0878C28.3321 28.1025 28.0258 28.2858 27.7135 28.4854C27.698 28.4954 27.6824 28.5054 27.6668 28.5154C27.5279 28.6044 27.3869 28.6948 27.2448 28.7659C27.0859 28.8456 26.9189 28.9048 26.7414 28.9126C26.5616 28.9205 26.3824 28.8682 26.2088 28.7927C26.045 28.7214 25.8787 28.6258 25.7158 28.5322C25.7064 28.5267 25.6969 28.5213 25.6874 28.5159C25.3346 28.3132 25.0027 28.1311 24.6785 28.1439C24.3504 28.1568 24.0105 28.3334 23.6447 28.5233L23.6352 28.5283C23.2772 28.7142 22.8926 28.9127 22.5091 28.9127C22.1419 28.9127 21.8259 28.7225 21.5206 28.5387C21.4997 28.526 21.4787 28.5134 21.4579 28.5009C21.125 28.3017 20.7886 28.1158 20.3623 28.1158C19.9399 28.1158 19.6334 28.3167 19.3323 28.5288C19.3163 28.54 19.3004 28.5513 19.2844 28.5626C19.0066 28.7592 18.7154 28.9653 18.3497 28.9406L18.349 28.9406L18.3483 28.9405C17.9891 28.911 17.6544 28.6876 17.3494 28.484C17.3391 28.4771 17.3287 28.4702 17.3185 28.4634C17.1578 28.3562 17.0037 28.2549 16.8502 28.1798C16.697 28.105 16.5505 28.0596 16.406 28.0596C16.2625 28.0596 16.0858 28.1142 15.8911 28.204C15.6982 28.293 15.4969 28.412 15.3062 28.5316C15.2308 28.5788 15.1563 28.6267 15.0847 28.6727C14.9779 28.7413 14.8778 28.8056 14.7916 28.8571C14.719 28.9005 14.6517 28.9376 14.594 28.9626C14.5753 28.9706 14.5566 28.9779 14.5382 28.9837C14.5443 28.9901 14.5507 28.9967 14.5575 29.0034C14.6038 29.0498 14.6561 29.0943 14.6956 29.1211C14.7052 29.1276 14.7133 29.1326 14.7196 29.136C14.7244 29.1386 14.7272 29.1399 14.7282 29.1402ZM25.9164 29.5703C26.093 29.5131 26.3242 29.4798 26.6542 29.4846L26.6549 29.4846C27.3284 29.4992 27.9443 29.8155 28.3866 30.1211C28.6088 30.2746 28.7896 30.4271 28.915 30.5413C28.9778 30.5984 29.0268 30.6461 29.0602 30.6797C29.077 30.6964 29.0898 30.7097 29.0986 30.7189C29.103 30.7235 29.1064 30.727 29.1087 30.7295L29.1114 30.7324L29.1123 30.7334L29.1124 30.7335C29.1124 30.7335 29.1125 30.7336 29.0435 30.7971L29.1124 30.7335L29.2584 30.8919L16.4435 30.8257V30.9588L15.8249 30.3727L15.957 30.3169L15.9935 30.4033C15.957 30.3169 15.957 30.317 15.957 30.3169L15.9571 30.3169L15.9625 30.3146L15.9784 30.308C15.9923 30.3022 16.0127 30.2937 16.0388 30.2828C16.091 30.2612 16.1662 30.2302 16.258 30.193C16.4416 30.1185 16.6919 30.0189 16.9589 29.9183C17.2257 29.8178 17.51 29.7161 17.7611 29.6375C18.009 29.56 18.2346 29.5018 18.3791 29.4941C18.5303 29.486 18.6982 29.531 18.8676 29.5945C19.0166 29.6504 19.1758 29.7242 19.3359 29.7985C19.3591 29.8092 19.3823 29.82 19.4055 29.8307C19.7807 30.0041 20.1508 30.1633 20.471 30.1503C20.769 30.138 21.0356 30.0198 21.3411 29.8843C21.3641 29.8741 21.3873 29.8638 21.4107 29.8535C21.7415 29.7075 22.1119 29.5555 22.5812 29.5409L22.5822 29.5408C23.0392 29.5314 23.3401 29.6916 23.6232 29.8422C23.6388 29.8505 23.6543 29.8588 23.6698 29.867C23.9639 30.0227 24.2535 30.1623 24.7231 30.1224L24.7239 30.1223C24.9598 30.1044 25.1094 30.0566 25.2216 29.9987C25.3134 29.9512 25.3817 29.8967 25.458 29.8357C25.4774 29.8202 25.4974 29.8043 25.5183 29.7879C25.6207 29.7082 25.738 29.628 25.9164 29.5703ZM16.1627 30.4345L16.3774 30.6378L28.813 30.7021C28.8052 30.6949 28.7971 30.6875 28.7888 30.6799C28.6681 30.57 28.4938 30.4231 28.2801 30.2754C27.8506 29.9787 27.2713 29.6856 26.6512 29.6721C26.3345 29.6675 26.1252 29.6998 25.9741 29.7487C25.8245 29.797 25.7269 29.8632 25.6335 29.9359C25.6162 29.9494 25.5986 29.9634 25.5807 29.9778C25.503 30.04 25.4176 30.1084 25.3077 30.1652C25.1694 30.2367 24.9946 30.2897 24.7385 30.3093C24.2145 30.3537 23.8855 30.1933 23.5821 30.0327C23.568 30.0252 23.554 30.0178 23.5401 30.0104C23.2561 29.8595 22.9936 29.72 22.5866 29.7283C22.1561 29.7418 21.8141 29.8804 21.4864 30.025C21.4612 30.0362 21.436 30.0474 21.4108 30.0586C21.1127 30.1911 20.8141 30.3238 20.4786 30.3376C20.105 30.3528 19.6923 30.1698 19.3268 30.0009C19.3032 29.99 19.2798 29.9792 19.2566 29.9684C19.0957 29.8938 18.9436 29.8233 18.8018 29.7701C18.6384 29.7088 18.5004 29.6754 18.3891 29.6813C18.2712 29.6876 18.0667 29.7384 17.8171 29.8165C17.5708 29.8935 17.2902 29.9939 17.025 30.0938C16.7599 30.1936 16.5111 30.2926 16.3285 30.3667C16.2643 30.3927 16.2083 30.4157 16.1627 30.4345ZM18.4831 31.8418L18.4029 31.8242V32.1475L18.5298 32.0441L22.7566 32.9751L26.7165 31.7812L26.5316 31.6725L26.4841 31.7533C26.5316 31.6725 26.5317 31.6725 26.5316 31.6725L26.5315 31.6724L26.5313 31.6723L26.5306 31.6719L26.5281 31.6704C26.5259 31.6691 26.5226 31.6673 26.5184 31.6649C26.5101 31.6601 26.4978 31.6532 26.482 31.6444C26.4503 31.6269 26.4044 31.602 26.3467 31.5723C26.2314 31.5129 26.0687 31.4341 25.8787 31.3561C25.5017 31.2012 25.0061 31.0449 24.5592 31.0596C24.1087 31.0745 23.7347 31.2772 23.4029 31.457L23.3996 31.4588C23.0581 31.6439 22.7697 31.7978 22.4606 31.7724L22.4605 31.7724C22.1814 31.7497 21.9808 31.6181 21.7427 31.4618C21.7096 31.4401 21.6759 31.418 21.6411 31.3956C21.3579 31.2132 21.0257 31.0314 20.5029 31.0314C19.9827 31.0314 19.4645 31.2464 19.0821 31.4554C18.8898 31.5606 18.7292 31.6656 18.6166 31.7445C18.5602 31.784 18.5158 31.8169 18.4853 31.8402C18.4845 31.8407 18.4838 31.8413 18.4831 31.8418ZM18.7276 31.8957L22.7492 32.7815L26.2409 31.7287C26.1307 31.6725 25.9807 31.6006 25.8075 31.5295C25.4369 31.3773 24.9715 31.2336 24.5653 31.247C24.1641 31.2602 23.8266 31.4406 23.489 31.6236L23.4721 31.6327C23.1487 31.8081 22.8141 31.9895 22.4453 31.9593C22.1152 31.9325 21.8728 31.7726 21.6376 31.6173C21.6049 31.5958 21.5723 31.5743 21.5396 31.5532C21.2697 31.3794 20.9738 31.2189 20.5029 31.2189C20.0293 31.2189 19.5444 31.4165 19.1721 31.62C18.989 31.72 18.8357 31.8201 18.7276 31.8957Z" fill="#083D9C"/>
<path fill-rule="evenodd" clip-rule="evenodd" d="M20.7469 20.522L24.3469 21.4783V16.3408C22.6969 16.4345 21.3281 13.2095 24.2344 12.9939C21.375 12.5814 21.0469 13.322 20.7188 14.1189L20.7469 20.522Z" fill="#FF0000"/>
<path fill-rule="evenodd" clip-rule="evenodd" d="M21.4762 12.9975C21.99 12.7481 22.817 12.671 24.2511 12.8779C24.3103 12.8865 24.3536 12.9382 24.3515 12.998C24.3494 13.0577 24.3027 13.1064 24.243 13.1108C23.5377 13.1631 23.1147 13.3959 22.8868 13.6924C22.6586 13.9892 22.6093 14.3714 22.6964 14.7576C22.7835 15.1444 23.0059 15.5248 23.3043 15.8018C23.6027 16.079 23.9678 16.245 24.3402 16.2238C24.3724 16.222 24.4039 16.2335 24.4274 16.2556C24.4508 16.2777 24.4641 16.3086 24.4641 16.3408V21.4783C24.4641 21.5147 24.4472 21.549 24.4183 21.5712C24.3895 21.5934 24.352 21.6009 24.3168 21.5915L20.7168 20.6353L20.7469 20.522L20.6297 20.5226L20.6016 14.1194C20.6015 14.1039 20.6045 14.0886 20.6104 14.0743C20.7742 13.6764 20.952 13.2519 21.4762 12.9975ZM20.8637 20.4318L24.2297 21.3259V16.4592C23.8238 16.4455 23.4458 16.2532 23.1448 15.9736C22.8132 15.6656 22.5657 15.2438 22.4677 14.8091C22.3696 14.3738 22.4199 13.9152 22.7009 13.5496C22.8741 13.3243 23.1285 13.1426 23.473 13.0232C22.5121 12.9421 21.9405 13.0326 21.5785 13.2083C21.1497 13.4165 20.997 13.7521 20.836 14.1419L20.8637 20.4318Z" fill="black"/>
<path fill-rule="evenodd" clip-rule="evenodd" d="M18.4688 24.2529L26.5969 24.2811L18.4688 24.2529Z" fill="#083D9C"/>
<path fill-rule="evenodd" clip-rule="evenodd" d="M18.2344 24.2521C18.2348 24.1227 18.3401 24.0181 18.4696 24.0186L26.5977 24.0467C26.7271 24.0471 26.8317 24.1524 26.8312 24.2819C26.8308 24.4113 26.7255 24.5159 26.5961 24.5154L18.4679 24.4873C18.3385 24.4869 18.2339 24.3816 18.2344 24.2521Z" fill="#083D9C"/>
<path fill-rule="evenodd" clip-rule="evenodd" d="M19.4133 22.0314C19.5168 22.035 19.5977 22.1219 19.594 22.2254L19.5876 22.4089L19.7493 22.2122C19.8151 22.1322 19.9332 22.1207 20.0132 22.1864C20.0932 22.2522 20.1047 22.3703 20.039 22.4503L19.5964 22.9886L19.969 23.4842C20.0312 23.567 20.0146 23.6845 19.9318 23.7467C19.8491 23.809 19.7315 23.7923 19.6693 23.7096L19.3513 23.2867L18.9984 23.716C18.9326 23.7959 18.8144 23.8075 18.7344 23.7417C18.6545 23.6759 18.6429 23.5578 18.7087 23.4778L19.1195 22.9782L18.7037 22.4252C18.6414 22.3424 18.6581 22.2249 18.7409 22.1626C18.8236 22.1004 18.9412 22.1171 19.0034 22.1998L19.21 22.4746L19.2193 22.2121C19.2229 22.1087 19.3098 22.0277 19.4133 22.0314ZM20.9508 22.0314C21.0543 22.035 21.1352 22.1219 21.1315 22.2254L21.1251 22.4089L21.2868 22.2122C21.3526 22.1322 21.4707 22.1207 21.5507 22.1864C21.6307 22.2522 21.6422 22.3703 21.5765 22.4503L21.1353 22.9869L21.5069 23.4847C21.5689 23.5677 21.5518 23.6852 21.4688 23.7471C21.3858 23.8091 21.2683 23.792 21.2064 23.709L20.89 23.2852L20.5359 23.716C20.4701 23.7959 20.3519 23.8075 20.2719 23.7417C20.192 23.6759 20.1804 23.5578 20.2462 23.4778L20.659 22.9757L20.2408 22.4153C20.1788 22.3323 20.1959 22.2148 20.2789 22.1529C20.3619 22.0909 20.4793 22.108 20.5413 22.191L20.7478 22.4676L20.7568 22.2121C20.7604 22.1087 20.8473 22.0277 20.9508 22.0314ZM22.5164 22.0314C22.6199 22.035 22.7008 22.1219 22.6972 22.2254L22.6907 22.4089L22.8524 22.2122C22.9182 22.1322 23.0364 22.1207 23.1164 22.1864C23.1963 22.2522 23.2079 22.3703 23.1421 22.4503L22.701 22.9869L23.0725 23.4847C23.1345 23.5677 23.1174 23.6852 23.0344 23.7471C22.9514 23.8091 22.834 23.792 22.772 23.709L22.4557 23.2852L22.1015 23.716C22.0357 23.7959 21.9176 23.8075 21.8376 23.7417C21.7576 23.6759 21.7461 23.5578 21.8118 23.4778L22.2247 22.9757L21.8064 22.4153C21.7445 22.3323 21.7615 22.2148 21.8445 22.1529C21.9275 22.0909 22.045 22.108 22.1069 22.191L22.3134 22.4676L22.3224 22.2121C22.326 22.1086 22.4129 22.0277 22.5164 22.0314ZM25.6945 22.0314C25.798 22.035 25.8789 22.1219 25.8753 22.2254L25.8684 22.4208L26.0399 22.2122C26.1057 22.1322 26.2239 22.1207 26.3039 22.1864C26.3838 22.2522 26.3954 22.3703 26.3296 22.4503L25.8835 22.9929L26.2507 23.4847C26.3126 23.5677 26.2955 23.6852 26.2126 23.7471C26.1296 23.8091 26.0121 23.792 25.9501 23.709L25.6383 23.2912L25.289 23.716C25.2232 23.7959 25.1051 23.8075 25.0251 23.7417C24.9451 23.6759 24.9336 23.5578 24.9993 23.4778L25.4073 22.9817L24.9845 22.4153C24.9226 22.3323 24.9396 22.2148 25.0226 22.1529C25.1056 22.0909 25.2231 22.108 25.285 22.191L25.4915 22.4676L25.5005 22.2121C25.5042 22.1087 25.591 22.0277 25.6945 22.0314ZM24.1267 22.0313C24.2302 22.0337 24.3122 22.1196 24.3097 22.2232L24.3051 22.4179L24.4743 22.2122C24.5401 22.1322 24.6582 22.1207 24.7382 22.1864C24.8182 22.2522 24.8297 22.3703 24.764 22.4503L24.3198 22.9906L24.6856 23.4854C24.7471 23.5687 24.7295 23.6861 24.6462 23.7477C24.563 23.8092 24.4455 23.7916 24.384 23.7083L24.0742 23.2892L23.7234 23.716C23.6576 23.7959 23.5394 23.8075 23.4594 23.7417C23.3795 23.6759 23.3679 23.5578 23.4337 23.4778L23.8444 22.9783L23.4277 22.4146C23.3662 22.3313 23.3838 22.2139 23.4671 22.1523C23.5504 22.0908 23.6678 22.1084 23.7293 22.1917L23.929 22.4619L23.9348 22.2143C23.9373 22.1108 24.0232 22.0289 24.1267 22.0313Z" fill="black"/>
<path fill-rule="evenodd" clip-rule="evenodd" d="M13.0027 24.3373L16.4621 24.3654V22.1998L12.5059 22.0029L13.0027 24.3373ZM12.834 21.3373L16.5184 21.7029L16.4902 20.1654L12.8902 18.7311L12.834 21.3467V21.3373ZM13.584 18.2717L16.4059 19.6404L16.809 19.2186C16.809 19.2186 16.5465 19.0404 16.5652 18.8717C16.5652 18.7123 16.8277 18.6842 16.8277 18.4967C16.8277 18.3373 16.5465 18.3092 16.5371 18.1498C16.5184 17.9623 16.7621 17.7748 16.7621 17.7748L14.2121 15.5529L13.5746 18.2717H13.584ZM32.1465 24.3654H28.4902L28.4621 22.2467L32.4746 21.9467L32.1465 24.3654ZM28.5184 21.7498L32.859 21.2248L31.9215 18.7217L28.4902 20.1842L28.5184 21.7498ZM31.6777 18.0373L28.5465 19.6873C28.4996 19.4998 28.4621 19.3311 28.2465 19.1904C28.2465 19.1904 28.434 19.0779 28.434 18.8904C28.434 18.7029 28.1902 18.6654 28.1902 18.5623C28.1902 18.4592 28.4152 18.3561 28.434 18.1029C28.4059 17.9342 28.1902 17.6904 28.2277 17.6436L30.6652 15.7873L31.6777 18.0373ZM24.8902 21.7029L26.4559 21.6373L26.484 21.0092L24.8902 21.7029ZM20.109 21.6561L18.4684 21.6092V20.9529L20.1184 21.6561H20.109ZM20.109 21.4686L18.4684 20.6248V19.5186C18.4684 19.5186 18.2809 19.5467 18.2996 19.3311C18.309 18.8717 19.509 20.1654 20.1184 20.5873L20.109 21.4686ZM24.8902 21.3654V20.6436C24.8902 20.6436 26.3715 19.3123 26.6809 19.0592C26.6809 19.3404 26.5121 19.5467 26.5121 19.5467V20.5967L24.8902 21.3654ZM15.2809 15.3561L16.9496 17.2029C16.9871 17.0342 17.3715 17.0061 17.7559 17.0342C18.1309 17.0623 18.4402 17.0061 18.4402 17.2779C18.4402 17.5498 18.2527 17.5123 18.2527 17.7092C18.2527 17.9061 18.534 17.8873 18.534 18.1311C18.534 18.3748 18.3277 18.3279 18.3277 18.5154C18.3277 18.6748 18.5527 18.6842 18.5527 18.6842L20.109 20.1936V18.5811L16.9027 13.5467L15.2809 15.3561ZM17.8496 13.4436L20.034 17.8967C20.034 17.8967 20.0527 13.7904 20.4184 13.5748L19.809 12.4498L17.8496 13.4436ZM27.3184 13.6217L24.8809 17.9529V16.1248C24.8809 16.1248 25.0871 15.8248 24.7684 15.8436C24.4496 15.8717 24.0652 15.8248 24.0652 15.8248L25.0402 12.3936L27.3184 13.6123V13.6217ZM29.8121 15.4686C29.784 15.5154 28.1715 17.1561 28.1715 17.1561C28.0965 16.9686 27.609 17.0623 27.1402 17.0623C26.6809 17.0623 26.6152 17.2123 26.6434 17.3342C26.6902 17.6436 26.8496 17.4092 26.8496 17.7092C26.8496 17.9998 26.6246 17.8967 26.5965 18.1029C26.6246 18.3561 26.9527 18.2904 26.7559 18.4779L24.8902 20.2779V18.5717L28.3684 13.1717L29.8121 15.4686Z" fill="#EF7D08"/>
<path fill-rule="evenodd" clip-rule="evenodd" d="M21.5437 25.1629C20.7656 26.4566 18.675 26.0723 18.1781 25.1629C18.0375 25.1254 18.1219 19.5848 18.1219 19.5848C18.1219 19.5848 17.8875 19.4816 17.8781 19.3035C17.8688 19.1348 18.1969 19.116 18.1969 18.9004C18.1969 18.6848 17.8594 18.7691 17.85 18.5441C17.85 18.3379 18.2156 18.3566 18.1969 18.1691C18.1781 17.9441 17.7938 17.9816 17.775 17.7754C17.775 17.616 18.0562 17.4754 18.1312 17.4004C18.0438 17.4024 17.9562 17.4024 17.8688 17.4004L17.2688 17.4098C16.8375 17.4098 17.2688 17.5035 17.2688 17.7473C17.2688 17.9066 17.0531 18.0191 17.0344 18.1504C17.025 18.3004 17.3344 18.3941 17.3438 18.5723C17.3438 18.7223 17.0344 18.7316 17.0437 18.8816C17.0625 19.116 17.325 19.1723 17.3156 19.3223C17.3156 19.4629 16.9781 19.5191 16.9688 19.6316C16.9875 19.8566 17.025 25.3316 17.025 25.3316C17.5594 28.1254 20.6625 28.8285 21.5437 25.1629ZM23.5969 25.1629C24.375 26.4566 26.4656 26.0723 26.9531 25.1629C27.1031 25.1254 27.0188 19.5848 27.0188 19.5848C27.0188 19.5848 27.2531 19.4816 27.2625 19.3035C27.2719 19.1348 26.9625 19.116 26.9625 18.9004C26.9625 18.6848 27.2812 18.7691 27.2812 18.5441C27.2812 18.3379 26.9531 18.3566 26.9719 18.1504C26.9906 17.9348 27.2531 17.9629 27.2625 17.7566C27.2719 17.5785 27.1031 17.4754 27.0188 17.4004H27.2719L27.8719 17.4098C28.2937 17.4098 27.8719 17.5035 27.8719 17.7473C27.8719 17.9066 28.0875 18.0191 28.1062 18.1504C28.1062 18.3004 27.8062 18.3941 27.7969 18.5723C27.7969 18.7223 28.1063 18.7316 28.0969 18.8816C28.0781 19.116 27.8156 19.1723 27.8156 19.3223C27.825 19.4629 28.1625 19.5191 28.1625 19.6316L28.1156 25.3316C27.5812 28.1254 24.4688 28.8285 23.5969 25.1629Z" fill="#FF0000"/>
<path fill-rule="evenodd" clip-rule="evenodd" d="M18.239 17.3543C18.2578 17.3983 18.248 17.4494 18.2141 17.4833C18.1871 17.5103 18.1465 17.5391 18.1128 17.563L18.1118 17.5638C18.109 17.5658 18.1061 17.5678 18.1033 17.5698C18.0681 17.5948 18.0324 17.6201 17.9987 17.6474C17.962 17.677 17.933 17.7048 17.9139 17.7304C17.8988 17.7506 17.894 17.7637 17.8927 17.7708C17.8945 17.7778 17.8997 17.786 17.9162 17.7983C17.9422 17.8177 17.9786 17.8339 18.0333 17.858L18.0343 17.8585C18.0822 17.8796 18.1466 17.9081 18.1991 17.9504C18.2567 17.9967 18.3054 18.0635 18.3136 18.1585C18.3226 18.2517 18.28 18.3201 18.228 18.3658C18.1852 18.4034 18.13 18.4309 18.0903 18.4507C18.0878 18.452 18.0853 18.4532 18.0829 18.4544C18.0355 18.4781 18.005 18.4945 17.9846 18.5125C17.9704 18.5252 17.9676 18.5327 17.9672 18.5419C17.9684 18.5605 17.9739 18.5668 17.9826 18.5739C17.9989 18.5873 18.0238 18.5984 18.0702 18.6169C18.0724 18.6177 18.0746 18.6186 18.0769 18.6195C18.1151 18.6346 18.1722 18.6572 18.2181 18.6946C18.2752 18.7412 18.3141 18.8088 18.3141 18.9004C18.3141 19.0769 18.1755 19.1672 18.101 19.2157C18.1 19.2164 18.099 19.217 18.098 19.2177C18.0944 19.22 18.0909 19.2223 18.0875 19.2245C18.0481 19.2502 18.0235 19.2662 18.006 19.2834C17.998 19.2912 17.9956 19.2956 17.9951 19.2967C17.9951 19.2967 17.9951 19.296 17.9951 19.297L17.9952 19.2974C17.9972 19.3357 18.0254 19.3782 18.0769 19.4196C18.1005 19.4386 18.1244 19.4535 18.1426 19.4637C18.1516 19.4688 18.1588 19.4725 18.1636 19.4749C18.166 19.476 18.1677 19.4768 18.1686 19.4773L18.1693 19.4776L18.1692 19.4776M18.0037 19.6539C17.9817 19.6404 17.9561 19.6232 17.9301 19.6023C17.8621 19.5476 17.7685 19.4496 17.7611 19.3098C17.7563 19.2228 17.7979 19.1592 17.8419 19.116C17.8774 19.0812 17.9231 19.0517 17.9576 19.0294C17.9619 19.0266 17.966 19.0239 17.97 19.0214C18.0581 18.9639 18.0797 18.9371 18.0797 18.9004C18.0797 18.8842 18.0764 18.8815 18.0699 18.8762C18.055 18.864 18.0312 18.8536 17.9837 18.8347C17.9822 18.8341 17.9806 18.8335 17.9791 18.8329C17.9399 18.8173 17.8815 18.7942 17.8337 18.7549C17.7769 18.7082 17.7367 18.6409 17.7329 18.549C17.7328 18.5474 17.7328 18.5458 17.7328 18.5441C17.7328 18.4513 17.7765 18.3839 17.829 18.3373C17.8754 18.2961 17.9333 18.2671 17.9748 18.2464C17.9759 18.2459 17.977 18.2453 17.9781 18.2448C18.0271 18.2203 18.0554 18.2055 18.0732 18.1898C18.0774 18.1861 18.0795 18.1836 18.0804 18.1824C18.0804 18.182 18.0803 18.1815 18.0803 18.1808L18.0801 18.1789C18.0787 18.1618 18.0725 18.1493 18.0522 18.133C18.0273 18.1129 17.9914 18.0958 17.9386 18.0724C17.9354 18.071 17.9321 18.0696 17.9288 18.0681C17.8836 18.0483 17.8245 18.0222 17.7762 17.9863C17.7196 17.9441 17.6669 17.8805 17.6583 17.786C17.658 17.7825 17.6578 17.7789 17.6578 17.7754C17.6578 17.7005 17.6907 17.6375 17.7263 17.5899C17.7454 17.5644 17.7673 17.5407 17.79 17.5188L17.3057 17.5264C17.3462 17.5799 17.3859 17.6541 17.3859 17.7473C17.3859 17.8771 17.2989 17.9768 17.247 18.0363L17.2469 18.0364C17.2407 18.0435 17.2349 18.0501 17.2293 18.0564C17.2068 18.0821 17.1888 18.1025 17.1738 18.1233C17.1615 18.1402 17.1555 18.1516 17.1527 18.1589C17.1546 18.1626 17.1585 18.169 17.1666 18.1785C17.1865 18.2019 17.2157 18.2263 17.2571 18.2608L17.2572 18.2609C17.2945 18.292 17.3421 18.3316 17.3801 18.3772C17.419 18.4239 17.4566 18.4867 17.4608 18.5661C17.4609 18.5682 17.4609 18.5702 17.4609 18.5723C17.4609 18.6569 17.4149 18.7155 17.3711 18.7524C17.3325 18.7849 17.2847 18.8099 17.2503 18.8278C17.2483 18.8288 17.2464 18.8298 17.2445 18.8308C17.2033 18.8524 17.1791 18.8659 17.164 18.8792C17.163 18.88 17.1622 18.8808 17.1615 18.8814C17.1696 18.9455 17.2077 18.9898 17.27 19.0478C17.2743 19.0517 17.2788 19.0559 17.2835 19.0602C17.3109 19.0853 17.3456 19.1172 17.3719 19.1507C17.4052 19.1931 17.4364 19.2514 17.4328 19.3261C17.4313 19.4105 17.3795 19.4689 17.3383 19.5037C17.2957 19.5396 17.2426 19.5686 17.2009 19.5909C17.1947 19.5942 17.1888 19.5973 17.183 19.6004C17.1451 19.6206 17.1165 19.6358 17.0945 19.6513C17.0917 19.6533 17.0894 19.6551 17.0874 19.6566C17.092 19.7769 17.0972 20.138 17.1026 20.6159C17.1088 21.161 17.1152 21.8666 17.1211 22.565C17.1269 23.2635 17.1322 23.955 17.136 24.4718C17.1379 24.7302 17.1395 24.945 17.1405 25.0951L17.1421 25.3201C17.4052 26.6763 18.2812 27.4908 19.1625 27.5526C19.9444 27.6074 20.8002 27.0707 21.281 25.6536C20.8538 26.0181 20.284 26.1438 19.7472 26.106C19.0514 26.0569 18.366 25.7297 18.0849 25.2363C18.0794 25.2299 18.0756 25.2244 18.0733 25.2208C18.0638 25.2061 18.0581 25.1915 18.0547 25.1815C18.0476 25.1608 18.0426 25.1367 18.0387 25.1133C18.0307 25.0652 18.0241 24.9994 18.0184 24.9208C18.0071 24.7628 17.9988 24.541 17.9929 24.2781C17.981 23.7519 17.9783 23.0546 17.9801 22.3595C17.9818 21.6641 17.988 20.97 17.9937 20.4498C17.9966 20.1897 17.9993 19.973 18.0013 19.8213C18.0023 19.7507 18.0031 19.6942 18.0037 19.6539ZM17.025 25.3316C16.9078 25.3324 16.9078 25.3324 16.9078 25.3324L16.9062 25.0968C16.9051 24.9466 16.9036 24.7319 16.9017 24.4735C16.8979 23.9567 16.8926 23.2654 16.8867 22.567C16.8809 21.8686 16.8744 21.1633 16.8683 20.6185C16.8621 20.0695 16.8562 19.6921 16.852 19.6414C16.8514 19.6349 16.8514 19.6284 16.852 19.6219C16.8591 19.5368 16.924 19.4848 16.9593 19.4599C16.9945 19.435 17.0383 19.4118 17.0745 19.3927C17.08 19.3897 17.0854 19.3869 17.0905 19.3841C17.1343 19.3607 17.1662 19.3422 17.1872 19.3245C17.1931 19.3196 17.1966 19.316 17.1986 19.3136C17.1985 19.3133 17.1984 19.3128 17.1981 19.3121C17.1971 19.3096 17.1945 19.3043 17.1876 19.2955C17.174 19.2782 17.1559 19.2615 17.1281 19.2358C17.1226 19.2307 17.1167 19.2253 17.1104 19.2194C17.0421 19.1558 16.9402 19.0563 16.9269 18.891L16.9268 18.8889C16.9214 18.8031 16.965 18.742 17.0093 18.7031C17.0482 18.669 17.0973 18.6433 17.132 18.6251C17.1334 18.6245 17.1346 18.6238 17.1359 18.6231C17.1774 18.6014 17.203 18.5875 17.22 18.5732C17.2222 18.5714 17.2238 18.5699 17.225 18.5687C17.2223 18.5591 17.2155 18.5458 17.2001 18.5274C17.1779 18.5007 17.147 18.4741 17.107 18.4408C17.1048 18.4389 17.1025 18.4371 17.1002 18.4351C17.0653 18.4061 17.0218 18.3699 16.9882 18.3305C16.9519 18.2879 16.9123 18.2246 16.9174 18.1431C16.9176 18.14 16.9179 18.1369 16.9184 18.1338C16.927 18.0732 16.9569 18.0231 16.9841 17.9856C17.0063 17.955 17.0334 17.9242 17.0564 17.8981C17.0613 17.8926 17.0659 17.8873 17.0703 17.8823C17.1309 17.8129 17.1516 17.7767 17.1516 17.7473C17.1516 17.7226 17.141 17.6961 17.1158 17.6639C17.0965 17.6392 17.077 17.6207 17.055 17.5998C17.0453 17.5906 17.0351 17.5809 17.0242 17.57L17.0238 17.5696C17.0119 17.5577 16.9858 17.5316 16.9716 17.4986C16.9631 17.4789 16.9538 17.4454 16.9651 17.4064C16.9767 17.3664 17.0036 17.342 17.0248 17.3288C17.0601 17.3068 17.1034 17.3007 17.1329 17.2977C17.1682 17.2941 17.213 17.2926 17.2678 17.2926L17.8669 17.2832C17.8684 17.2832 17.8699 17.2832 17.8714 17.2832C17.9571 17.2852 18.0429 17.2852 18.1286 17.2832C18.1764 17.2821 18.2202 17.3103 18.239 17.3543M17.2285 18.5647C17.2285 18.5647 17.2284 18.5649 17.2281 18.5654C17.2283 18.5649 17.2285 18.5647 17.2285 18.5647ZM26.9092 17.3587C26.9265 17.3133 26.9701 17.2832 27.0188 17.2832H27.2719L27.2737 17.2832L27.8728 17.2926C27.9265 17.2926 27.9705 17.2941 28.0053 17.2977C28.0343 17.3008 28.0775 17.3069 28.1128 17.3294C28.1341 17.343 28.1604 17.3675 28.1716 17.4071C28.1824 17.4453 28.1735 17.4782 28.1653 17.4978C28.1514 17.5307 28.1258 17.5568 28.1142 17.5687L28.1138 17.5691C28.1031 17.58 28.0931 17.5897 28.0836 17.5989C28.0621 17.6198 28.0432 17.6382 28.0243 17.6629C27.9997 17.695 27.9891 17.7218 27.9891 17.7473C27.9891 17.7767 28.0097 17.8129 28.0703 17.8823C28.0747 17.8873 28.0794 17.8926 28.0842 17.8981C28.1072 17.9242 28.1343 17.955 28.1566 17.9856C28.1837 18.0231 28.2136 18.0732 28.2223 18.1338C28.223 18.1393 28.2234 18.1448 28.2234 18.1504C28.2234 18.2289 28.1839 18.2896 28.1478 18.3312C28.115 18.3691 28.0733 18.4044 28.0394 18.433C28.0364 18.4355 28.0336 18.4379 28.0308 18.4402C27.9917 18.4733 27.9616 18.4998 27.9401 18.5263C27.9249 18.5449 27.9182 18.5585 27.9155 18.5686C27.9168 18.5698 27.9184 18.5713 27.9206 18.5732C27.9376 18.5875 27.9632 18.6014 28.0047 18.6231L28.0086 18.6251C28.0433 18.6433 28.0925 18.669 28.1313 18.7031C28.1756 18.742 28.2192 18.8031 28.2138 18.8889L28.2137 18.891C28.2004 19.0565 28.0984 19.156 28.0283 19.2201C28.0203 19.2274 28.0129 19.2341 28.0061 19.2403C27.9796 19.2642 27.9616 19.2805 27.9471 19.2979C27.9418 19.3044 27.9384 19.3093 27.9363 19.313C27.9389 19.3156 27.9426 19.319 27.9477 19.3232C27.9706 19.3418 28.0037 19.3606 28.0478 19.3841C28.0518 19.3863 28.0559 19.3885 28.0602 19.3907C28.0973 19.4104 28.1428 19.4346 28.1789 19.4611C28.2139 19.4867 28.2797 19.5421 28.2797 19.6316L28.2797 19.6326L28.2328 25.3326C28.2327 25.3397 28.2321 25.3467 28.2307 25.3537C27.9569 26.7851 27.0139 27.7148 25.991 27.7864C24.9552 27.859 23.9254 27.0505 23.4829 25.19L23.5969 25.1629L23.6973 25.1025C24.0565 25.6997 24.723 25.9182 25.3757 25.8722C26.0349 25.8256 26.6325 25.513 26.8498 25.1075C26.8527 25.1023 26.8558 25.0973 26.8594 25.0926C26.8604 25.0879 26.8618 25.0816 26.8632 25.0734C26.8698 25.0367 26.8762 24.9799 26.8822 24.9034C26.894 24.7514 26.9029 24.5344 26.9095 24.2725C26.9227 23.7495 26.9262 23.0546 26.925 22.36C26.9238 21.6655 26.918 20.9721 26.9124 20.4523C26.9096 20.1924 26.9069 19.976 26.9049 19.8245C26.9039 19.7487 26.9031 19.6892 26.9025 19.6487L26.9016 19.5866C26.9016 19.5866 26.9016 19.5865 27.0188 19.5848L26.9016 19.5866C26.9009 19.5396 26.9283 19.4967 26.9712 19.4777C26.9712 19.4777 26.9712 19.4777 26.9712 19.4777C26.9712 19.4776 26.9713 19.4776 26.9713 19.4776C26.9713 19.4776 26.9714 19.4776 26.9713 19.4776C26.9713 19.4776 26.9714 19.4776 26.9714 19.4776C26.9714 19.4776 26.9715 19.4775 26.9714 19.4776C26.9715 19.4775 26.9715 19.4775 26.9716 19.4775L26.972 19.4773C26.973 19.4768 26.9747 19.476 26.977 19.4749C26.9818 19.4725 26.9891 19.4688 26.998 19.4637C27.0162 19.4535 27.0401 19.4386 27.0637 19.4196C27.1152 19.3782 27.1435 19.3357 27.1455 19.2974L27.1455 19.297C27.1456 19.2948 27.1454 19.2945 27.1451 19.294C27.1445 19.2927 27.1423 19.2883 27.135 19.2808C27.1189 19.264 27.0962 19.2483 27.0588 19.2224C27.0557 19.2203 27.0526 19.2181 27.0493 19.2159L27.0476 19.2147C26.9759 19.165 26.8453 19.0747 26.8453 18.9004C26.8453 18.8114 26.8808 18.7443 26.9355 18.6969C26.9792 18.659 27.0336 18.6359 27.0691 18.6209C27.0715 18.6199 27.0737 18.6189 27.0759 18.618C27.1193 18.5995 27.14 18.5892 27.1527 18.5776C27.1582 18.5727 27.1641 18.5673 27.1641 18.5441C27.1641 18.5292 27.1602 18.5203 27.1474 18.5075C27.1296 18.4897 27.1036 18.4739 27.0601 18.4483L27.0567 18.4463C27.02 18.4247 26.9669 18.3935 26.9262 18.3494C26.8784 18.2976 26.8472 18.2283 26.8551 18.14M27.137 19.6539C27.1375 19.6942 27.1383 19.7507 27.1393 19.8214C27.1413 19.973 27.144 20.1897 27.1468 20.4498C27.1523 20.97 27.1582 21.6642 27.1594 22.3596C27.1605 23.0547 27.157 23.7521 27.1438 24.2784C27.1372 24.5413 27.1281 24.7633 27.1158 24.9215C27.1097 25.0001 27.1026 25.0662 27.0939 25.1147C27.0897 25.1382 27.0843 25.1627 27.0766 25.1839C27.0728 25.1941 27.0666 25.209 27.0564 25.2237C27.0541 25.2271 27.0508 25.2316 27.0463 25.2367C26.7693 25.7303 26.0861 26.057 25.3922 26.106C24.8555 26.1438 24.2851 26.0177 23.8578 25.652C24.3352 27.0702 25.1914 27.6075 25.9746 27.5526C26.8572 27.4908 27.7355 26.6761 27.9985 25.32L28.0451 19.6538C28.0437 19.6527 28.0421 19.6515 28.0404 19.6501C28.0187 19.6343 27.9886 19.6182 27.9471 19.5961L27.9374 19.5909C27.8959 19.5687 27.8429 19.5401 27.7998 19.505C27.758 19.471 27.7043 19.414 27.6987 19.3301C27.6985 19.3275 27.6984 19.3249 27.6984 19.3223C27.6984 19.247 27.7324 19.1896 27.7667 19.1483C27.793 19.1166 27.8271 19.0859 27.8544 19.0613C27.86 19.0563 27.8653 19.0516 27.8702 19.0471C27.933 18.9896 27.971 18.9453 27.9791 18.8814C27.9784 18.8808 27.9776 18.88 27.9766 18.8792C27.9615 18.8659 27.9373 18.8524 27.8961 18.8308C27.8942 18.8298 27.8923 18.8288 27.8904 18.8278C27.856 18.8099 27.8081 18.7849 27.7696 18.7524C27.7257 18.7155 27.6797 18.6569 27.6797 18.5723C27.6797 18.571 27.6797 18.5698 27.6797 18.5686C27.6798 18.5678 27.6798 18.5669 27.6798 18.5661C27.684 18.4877 27.7201 18.4253 27.7583 18.3783C27.7956 18.3324 27.8423 18.2927 27.8794 18.2613L27.8829 18.2583C27.922 18.2253 27.9503 18.2013 27.9706 18.1779C27.9795 18.1675 27.9842 18.1603 27.9866 18.1558C27.9834 18.1485 27.9775 18.1379 27.9669 18.1233C27.9518 18.1025 27.9338 18.0821 27.9113 18.0564C27.9057 18.0501 27.8999 18.0435 27.8937 18.0364L27.8936 18.0363C27.8417 17.9768 27.7547 17.8771 27.7547 17.7473C27.7547 17.6543 27.7938 17.58 27.8337 17.5264L27.3077 17.5182C27.3514 17.5821 27.3847 17.6631 27.3795 17.7625C27.3719 17.9251 27.2583 17.9998 27.1926 18.043C27.1901 18.0446 27.1877 18.0462 27.1853 18.0478C27.1136 18.0952 27.0926 18.1144 27.0886 18.1605L27.0886 18.161C27.0872 18.1757 27.09 18.1813 27.0984 18.1904C27.1127 18.2059 27.136 18.221 27.1789 18.2463C27.1811 18.2475 27.1833 18.2488 27.1855 18.2501C27.2215 18.2712 27.2725 18.3011 27.3131 18.3417C27.3613 18.3899 27.3984 18.4559 27.3984 18.5441C27.3984 18.6335 27.3645 18.7019 27.3102 18.7512C27.2649 18.7923 27.2085 18.8163 27.1719 18.8318L27.1678 18.8336C27.1232 18.8526 27.1023 18.8625 27.0891 18.8739L27.0887 18.8742C27.0838 18.8785 27.0797 18.8821 27.0797 18.9004C27.0797 18.9403 27.1017 18.9671 27.1827 19.0232C27.1864 19.0257 27.1902 19.0284 27.1943 19.0311C27.2268 19.0534 27.2704 19.0833 27.3041 19.1185C27.3465 19.1627 27.3842 19.2256 27.3795 19.31L27.2625 19.3035L27.3795 19.3097C27.3795 19.3098 27.3795 19.3099 27.3795 19.31C27.372 19.4496 27.2785 19.5476 27.2105 19.6023C27.1845 19.6232 27.1589 19.6404 27.137 19.6539ZM27.9891 18.1495C27.9891 18.1495 27.9891 18.1496 27.9891 18.1497L27.9891 18.1495ZM28.0545 19.6623C28.0544 19.6623 28.054 19.6618 28.0533 19.6609C28.0542 19.6618 28.0545 19.6623 28.0545 19.6623ZM27.9121 18.5647C27.9121 18.5647 27.9123 18.5649 27.9125 18.5654C27.9122 18.5649 27.9121 18.5647 27.9121 18.5647ZM18.2738 25.0952C18.2727 25.0903 18.2714 25.0836 18.2699 25.0748C18.2637 25.0377 18.2577 24.9806 18.2522 24.904C18.2413 24.7519 18.2331 24.5347 18.2272 24.2728C18.2153 23.7497 18.2127 23.0548 18.2145 22.3601C18.2162 21.6656 18.2224 20.9722 18.2281 20.4524C18.2309 20.1925 18.2337 19.976 18.2357 19.8245C18.2367 19.7487 18.2376 19.6892 18.2381 19.6487L18.239 19.5866C18.239 19.5866 18.239 19.5865 18.1219 19.5848M18.2765 25.1056C18.2764 25.1056 18.2764 25.1055 18.2764 25.1055C18.2766 25.106 18.2766 25.1061 18.2765 25.1056ZM18.2738 25.0952C18.2764 25.0989 18.2788 25.1027 18.281 25.1067C18.503 25.513 19.1035 25.8257 19.7637 25.8722C20.4176 25.9182 21.0842 25.6997 21.4433 25.1025C21.4731 25.0529 21.5346 25.0325 21.5882 25.0544C21.6417 25.0764 21.6712 25.134 21.6577 25.1903C21.2105 27.0505 20.1807 27.859 19.1461 27.7864C18.1242 27.7148 17.1837 26.7849 16.9099 25.3537C16.9086 25.3467 16.9079 25.3395 16.9078 25.3324L17.025 25.3316" fill="black"/>
<path fill-rule="evenodd" clip-rule="evenodd" d="M20.7848 27.7125H24.2816C24.3098 27.6844 23.4941 26.4938 22.5379 26.5875C21.4598 26.6156 20.7285 27.7125 20.7848 27.7125ZM31.9316 27.6188H27.1504C27.1504 27.6188 27.7691 27.2625 27.9379 26.925C28.2473 27.0938 28.1629 27.2625 28.7816 27.2906C29.4004 27.3188 29.991 26.5875 30.5816 26.6156C31.1723 26.6437 31.9316 27.6469 31.9316 27.6281V27.6188ZM13.0879 27.6188H17.8691C17.8691 27.6188 17.2504 27.2625 17.0816 26.925C16.7723 27.0938 16.8566 27.2625 16.2379 27.2906C15.6191 27.3188 15.0191 26.5875 14.4379 26.6156C13.8473 26.6437 13.0879 27.6469 13.0879 27.6281V27.6188ZM13.4441 26.1188L16.8473 26.1469C16.8473 26.1469 16.6316 25.6781 16.6035 25.1062C15.7223 24.8062 15.0098 25.7625 14.3723 25.7906C13.7441 25.8188 13.0879 25.1062 13.0879 25.1062L13.4441 26.1188ZM31.6316 26.1188L28.2191 26.1469C28.2191 26.1469 28.4348 25.6781 28.4629 25.1062C29.3441 24.8062 30.0566 25.7625 30.6941 25.7906C31.3223 25.8188 31.9785 25.1062 31.9785 25.1062L31.6223 26.1188H31.6316ZM21.6566 26.1562L23.3816 26.1094C23.3816 26.1094 23.4098 25.5844 22.5098 25.5844C21.6098 25.5844 21.6848 26.1844 21.6566 26.1562ZM20.6066 25.4156C20.9359 25.2716 21.2068 25.0205 21.3754 24.7031L20.1941 24.7312C20.1941 24.7312 19.6504 25.0594 19.3785 25.4156H20.6066ZM24.4316 25.4156C24.1024 25.2716 23.8315 25.0205 23.6629 24.7031L24.8441 24.7312C24.8441 24.7312 25.3879 25.0594 25.6598 25.4156H24.4316Z" fill="#083D9C"/>
<path fill-rule="evenodd" clip-rule="evenodd" d="M21.5329 24.6055L21.4578 24.747C21.2792 25.083 20.9924 25.3489 20.6438 25.5014L20.6258 25.5093H19.1886L19.3036 25.3586C19.4476 25.1699 19.66 24.9926 19.8318 24.8645C19.9186 24.7999 19.9966 24.7467 20.053 24.7096C20.0812 24.6911 20.1041 24.6765 20.12 24.6665C20.1279 24.6615 20.1341 24.6577 20.1384 24.655L20.1434 24.652L20.1447 24.6512L20.1451 24.651L20.1452 24.6509C20.1452 24.6509 20.1453 24.6509 20.1937 24.7311L20.1452 24.6509L20.1666 24.638L21.5329 24.6055ZM20.2214 24.8242C20.2208 24.8246 20.2202 24.825 20.2197 24.8253C20.2048 24.8347 20.183 24.8485 20.156 24.8663C20.102 24.9018 20.027 24.9529 19.9439 25.0149C19.8268 25.1021 19.6965 25.2085 19.5849 25.3218H20.5863C20.8377 25.2079 21.052 25.0273 21.2065 24.8008L20.2214 24.8242ZM23.5045 24.6055L24.8708 24.638L24.8921 24.6509L24.8437 24.7311C24.8921 24.6509 24.8921 24.6509 24.8921 24.6509L24.8927 24.6512L24.894 24.652L24.899 24.655C24.9033 24.6577 24.9095 24.6615 24.9175 24.6665C24.9334 24.6765 24.9562 24.6911 24.9844 24.7096C25.0408 24.7467 25.1188 24.7999 25.2056 24.8645C25.3774 24.9926 25.5898 25.1699 25.7339 25.3586L25.8488 25.5093H24.4116L24.3936 25.5014C24.045 25.3489 23.7582 25.083 23.5797 24.747L23.5045 24.6055ZM24.816 24.8242C24.8166 24.8246 24.8172 24.825 24.8178 24.8253C24.8326 24.8347 24.8544 24.8485 24.8814 24.8663C24.9355 24.9018 25.0104 24.9529 25.0936 25.0149C25.2106 25.1021 25.341 25.2085 25.4525 25.3218H24.4511C24.1997 25.2079 23.9854 25.0273 23.8309 24.8008L24.816 24.8242ZM15.3504 25.2434C15.7216 25.0365 16.152 24.8535 16.6333 25.0174L16.6936 25.0379L16.6967 25.1015C16.7103 25.3775 16.7692 25.6297 16.8252 25.8136C16.8531 25.9053 16.8801 25.9795 16.9 26.0305C16.91 26.0559 16.9181 26.0756 16.9237 26.0887C16.9265 26.0952 16.9287 26.1001 16.9301 26.1033L16.9316 26.1068L16.932 26.1075L16.932 26.1076L16.9937 26.2417L13.3771 26.2118L12.999 25.1372L13.1563 25.0427C13.1564 25.0426 13.1564 25.0426 13.1564 25.0426L13.1566 25.0429L13.1578 25.0441C13.1589 25.0453 13.1606 25.0471 13.1629 25.0495C13.1675 25.0543 13.1744 25.0616 13.1836 25.0708C13.202 25.0894 13.2291 25.1162 13.2637 25.1484C13.3329 25.2128 13.4315 25.2983 13.5489 25.3828C13.7876 25.5546 14.0866 25.7094 14.3676 25.6969C14.5059 25.6908 14.6551 25.6337 14.8221 25.5464C14.9199 25.4953 15.0154 25.4388 15.1154 25.3796C15.1903 25.3353 15.2677 25.2895 15.3504 25.2434ZM13.3003 25.4285L13.5103 26.0254L16.7076 26.0519C16.6892 26.0023 16.6678 25.9403 16.6458 25.8682C16.5913 25.6892 16.5334 25.4463 16.5135 25.1766C16.1365 25.0733 15.7883 25.214 15.4417 25.4072C15.3692 25.4476 15.2943 25.4918 15.2194 25.536C15.1137 25.5984 15.0079 25.6609 14.9089 25.7126C14.7354 25.8032 14.5564 25.8762 14.376 25.8842C14.0289 25.8997 13.6857 25.7123 13.4393 25.535C13.3895 25.4991 13.3429 25.4631 13.3003 25.4285ZM28.552 25.1766C28.5322 25.4463 28.4742 25.6892 28.4197 25.8682C28.3978 25.9403 28.3763 26.0023 28.358 26.0519L31.5552 26.0255L31.7653 25.4285C31.7226 25.4631 31.676 25.4991 31.6262 25.535C31.3798 25.7123 31.0366 25.8997 30.6895 25.8842C30.5091 25.8762 30.3301 25.8032 30.1566 25.7126C30.0576 25.6609 29.9519 25.5984 29.8462 25.536C29.7712 25.4918 29.6963 25.4476 29.6239 25.4072C29.2772 25.214 28.929 25.0733 28.552 25.1766ZM31.9093 25.0427L32.0665 25.1372L31.7103 26.1497L31.6316 26.1221L31.632 26.2124L31.6312 26.2124L28.0718 26.2417M31.9093 25.0427C31.9092 25.0426 31.9092 25.0426 31.9092 25.0426L31.9093 25.0427ZM31.9092 25.0426L31.9089 25.0429L31.9077 25.0441C31.9066 25.0453 31.9049 25.0471 31.9027 25.0495C31.8981 25.0543 31.8911 25.0616 31.8819 25.0708C31.8636 25.0894 31.8365 25.1162 31.8019 25.1484C31.7326 25.2128 31.634 25.2983 31.5167 25.3828C31.2779 25.5546 30.9789 25.7094 30.6979 25.6969C30.5596 25.6908 30.4104 25.6337 30.2435 25.5464C30.1456 25.4953 30.0501 25.4388 29.9502 25.3796C29.8753 25.3353 29.7979 25.2895 29.7151 25.2434C29.3439 25.0365 28.9136 24.8535 28.4322 25.0174L28.372 25.0379L28.3688 25.1015C28.3553 25.3775 28.2963 25.6297 28.2404 25.8136C28.2124 25.9053 28.1854 25.9795 28.1655 26.0305C28.1556 26.0559 28.1474 26.0756 28.1418 26.0887C28.1404 26.092 28.1391 26.0949 28.1381 26.0974C28.137 26.0998 28.1361 26.1017 28.1355 26.1033L28.1339 26.1068L28.1336 26.1075M21.6777 25.8289C21.7966 25.6499 22.0364 25.4905 22.5093 25.4905C22.9775 25.4905 23.227 25.6277 23.3559 25.788C23.419 25.8666 23.4489 25.9458 23.4629 26.006C23.4698 26.0361 23.4729 26.0616 23.4742 26.0803C23.4748 26.0896 23.475 26.0973 23.4751 26.103C23.4751 26.1047 23.475 26.1063 23.475 26.1076C23.475 26.1085 23.475 26.1094 23.475 26.1102L23.4749 26.1126L23.4749 26.1135L23.4748 26.1139L23.4748 26.1141C23.4748 26.1142 23.4748 26.1143 23.3812 26.1093L23.4748 26.1143L23.4702 26.2006L21.6757 26.2494C21.6315 26.2583 21.599 26.2315 21.5899 26.2224L21.6562 26.1561L21.6537 26.0631C21.6436 26.0636 21.6326 26.066 21.621 26.0711C21.6012 26.0797 21.5896 26.093 21.5843 26.1002C21.5787 26.1077 21.5757 26.1144 21.5743 26.1176C21.5723 26.1222 21.5713 26.126 21.5709 26.1275C21.5711 26.1268 21.5713 26.1255 21.5717 26.1235C21.5721 26.1213 21.5726 26.1181 21.5732 26.1141C21.5753 26.1013 21.5786 26.0807 21.5831 26.0594C21.5955 26.0001 21.6203 25.9153 21.6777 25.8289ZM21.7762 26.0591L23.2718 26.0184C23.2606 25.985 23.2418 25.9454 23.2097 25.9055C23.1276 25.8033 22.9412 25.678 22.5093 25.678C22.0822 25.678 21.9096 25.8186 21.8339 25.9326C21.8046 25.9767 21.7871 26.0208 21.7762 26.0591ZM24.3756 27.7131C24.3753 27.7238 24.3727 27.7535 24.3475 27.7787L24.32 27.8061H20.7843C20.7631 27.8061 20.7357 27.7989 20.714 27.7758C20.6946 27.7552 20.6896 27.7321 20.6882 27.7197C20.6857 27.6971 20.6915 27.6783 20.6935 27.6719C20.6989 27.6546 20.7082 27.6361 20.7174 27.6196C20.7368 27.5846 20.7677 27.538 20.8079 27.4843C20.8889 27.3764 21.0128 27.2338 21.173 27.0905C21.4913 26.8059 21.9629 26.5097 22.5317 26.4938C23.0489 26.4445 23.5164 26.7406 23.8414 27.0347C24.0061 27.1837 24.1391 27.3366 24.2295 27.4545C24.2746 27.5134 24.3099 27.5646 24.3335 27.6032C24.3451 27.6221 24.3551 27.64 24.3621 27.6552C24.3653 27.6623 24.3697 27.6727 24.3725 27.6843C24.3738 27.6898 24.376 27.7002 24.3756 27.7131ZM23.7156 27.1737C23.4014 26.8895 22.9843 26.6378 22.5466 26.6807L22.5433 26.681L22.5399 26.6811C22.032 26.6943 21.6002 26.96 21.298 27.2303C21.1476 27.3648 21.0319 27.4982 20.9579 27.5968C20.9523 27.6043 20.9469 27.6116 20.9418 27.6186H24.118C24.1067 27.603 24.0942 27.5863 24.0807 27.5686C23.9962 27.4583 23.8708 27.3141 23.7156 27.1737ZM29.277 27.2793C29.1182 27.3465 28.9507 27.3921 28.777 27.3842C28.4597 27.3697 28.3053 27.3187 28.1894 27.2371C28.1489 27.2086 28.1128 27.1758 28.0802 27.1461C28.0701 27.1369 28.0602 27.1279 28.0507 27.1195C28.0264 27.098 28.0003 27.0763 27.9692 27.0546C27.8609 27.2132 27.6852 27.3624 27.5365 27.4734C27.5125 27.4914 27.4888 27.5086 27.4659 27.5249H31.7165C31.6385 27.4364 31.5334 27.3223 31.4129 27.2071C31.2835 27.0834 31.1382 26.9606 30.9912 26.8674C30.8427 26.7733 30.7008 26.7151 30.5768 26.7091C30.449 26.7031 30.3164 26.7379 30.1751 26.7991C30.0355 26.8595 29.8945 26.9425 29.7464 27.0296L29.7393 27.0338C29.5908 27.1212 29.4352 27.2123 29.277 27.2793ZM31.9642 27.5249C31.9623 27.5226 31.9603 27.5203 31.9583 27.5179C31.9371 27.4931 31.9085 27.4595 31.8739 27.4199C31.7924 27.3269 31.677 27.2001 31.5425 27.0716C31.4082 26.9433 31.2529 26.8113 31.0915 26.709C30.9315 26.6077 30.7569 26.53 30.5857 26.5219C30.4181 26.5139 30.2554 26.5599 30.1005 26.627C29.9502 26.6922 29.8006 26.7802 29.6561 26.8652L29.6442 26.8722C29.4939 26.9606 29.3489 27.0453 29.2039 27.1066C29.0594 27.1677 28.9211 27.203 28.7855 27.1969C28.484 27.1832 28.3712 27.1358 28.2973 27.0838C28.2672 27.0626 28.2433 27.0408 28.2134 27.0137C28.2017 27.003 28.1891 26.9916 28.1749 26.979C28.1263 26.9361 28.0678 26.8892 27.9824 26.8426L27.8971 26.7961L27.8536 26.883C27.7801 27.03 27.6 27.192 27.4243 27.3232C27.3388 27.3871 27.2581 27.4409 27.1989 27.4786C27.1693 27.4975 27.1451 27.5123 27.1285 27.5224C27.1201 27.5274 27.1137 27.5312 27.1094 27.5338L27.1046 27.5366L27.1034 27.5372L27.1032 27.5374L26.7992 27.7124H31.8895C31.8934 27.7143 31.8989 27.7167 31.9057 27.7186C31.914 27.7209 31.9317 27.7246 31.9535 27.7193C31.9793 27.7129 32.0009 27.6961 32.0134 27.6732C32.0239 27.654 32.025 27.6363 32.025 27.628V27.5249H31.9642ZM15.8133 27.1065C15.9586 27.1677 16.0976 27.203 16.2332 27.1969C16.5347 27.1832 16.6475 27.1358 16.7214 27.0838C16.7514 27.0626 16.7754 27.0408 16.8053 27.0137C16.817 27.003 16.8296 26.9916 16.8438 26.979C16.8923 26.9361 16.9509 26.8892 17.0363 26.8426L17.1216 26.7961L17.1651 26.883C17.2386 27.03 17.4187 27.192 17.5943 27.3232C17.6799 27.3871 17.7605 27.4409 17.8198 27.4786C17.8494 27.4975 17.8735 27.5123 17.8902 27.5224C17.8985 27.5274 17.905 27.5312 17.9093 27.5338L17.9141 27.5366L17.9152 27.5372L17.9155 27.5374M14.433 26.5219C14.5984 26.5139 14.76 26.5601 14.9143 26.6271C15.0629 26.6917 15.2118 26.7789 15.3557 26.8633C15.3607 26.8662 15.3658 26.8692 15.3708 26.8721C15.5216 26.9605 15.6676 27.0452 15.8133 27.1065" fill="#083D9C"/>
<path fill-rule="evenodd" clip-rule="evenodd" d="M-11.25 33.75H56.25V45H-11.25V33.75ZM-11.25 0H56.25V11.25H-11.25V0Z" fill="#DE2010"/>
</g>
<defs>
<clipPath id="clip0_200_68619">
<rect width="60" height="45" fill="white" transform="translate(-7.5)"/>
</clipPath>
</defs>
</svg>
