<svg width="45" height="45" viewBox="0 0 45 45" fill="none" xmlns="http://www.w3.org/2000/svg">
<g clip-path="url(#clip0_200_69668)">
<path fill-rule="evenodd" clip-rule="evenodd" d="M-7.34961 0L-7.39648 45H52.6035L-7.34961 0Z" fill="black"/>
<path fill-rule="evenodd" clip-rule="evenodd" d="M52.5566 45L52.6035 0H-7.39648L52.5566 45Z" fill="#FF0000"/>
<path d="M29.6473 11.1984L28.8565 11.1569C28.6067 10.5762 27.9199 10.3689 27.4829 10.6177C26.678 10.6179 25.8732 10.604 25.0688 10.5763L26.5464 11.2191C26.9418 12.2352 28.1905 12.4426 28.1905 12.4426C28.0656 14.2674 26.3383 12.2145 24.8815 13.2513C23.8409 13.8734 23.8409 14.5992 23.279 15.802C23.0917 16.1337 22.3633 17.0047 22.3633 17.0047L23.5912 16.901L23.1957 17.4194L24.6525 17.2121L24.3404 17.5024C24.5485 17.5439 26.0053 17.1499 26.0053 17.1499L25.9012 17.6268L27.5661 17.0254C27.5661 17.0254 27.8991 17.295 28.1905 17.4194L28.3986 16.59L29.2311 16.7973L29.4392 15.9679C30.6879 17.6268 31.1041 19.2858 33.3934 19.7005L33.1852 18.871C33.7938 19.1365 34.3974 19.4131 34.9958 19.7005L35.1831 19.348C36.1821 20.053 36.9937 20.0323 37.5557 20.1152L37.1394 19.0784L37.5557 19.2858L36.9313 17.6268L37.5557 17.8342L36.7232 16.59L37.0354 16.3826L36.9313 15.7605C38.18 16.1752 39.8449 16.7973 40.053 18.2489C40.2611 20.53 37.7638 21.1521 36.0988 20.9447C37.3475 21.9816 39.6368 21.5668 40.6774 20.53C41.0936 20.1152 41.3017 19.4931 41.5098 18.871C41.7179 19.4931 42.1342 20.3226 42.1342 21.1521C41.9261 23.0184 39.4287 23.6405 37.7638 23.8479C39.6368 24.8847 42.9666 23.6405 43.1747 20.9447C43.1747 18.6637 41.7179 17.6268 41.0936 16.59L40.8855 15.4702L41.5098 15.7605C41.5098 15.7605 41.1352 15.0762 41.0936 14.931C41.0936 14.931 40.4484 13.1684 40.2195 12.7744L40.6774 12.8573L38.9708 10.7214L39.4495 10.6799C39.4495 10.6799 37.4724 9.12466 36.9313 8.91729L37.5557 8.70993C36.307 8.08782 34.8502 8.50256 33.6015 9.33203L33.8096 8.70993L33.435 8.7514V8.02561L33.8096 7.46571L33.1852 7.25834L33.6015 6.22149L32.9771 6.42886L33.1852 5.39202C33.1852 5.39202 32.7274 5.59938 32.436 5.57865C32.5556 5.34773 32.6666 5.11255 32.769 4.87359C32.5609 4.56254 32.769 3.94043 32.769 3.94043C31.3122 4.1478 31.1041 4.35517 30.2716 5.59938C29.023 7.88045 29.4392 8.91729 29.6473 11.1984Z" fill="#FFCC00"/>
<path fill-rule="evenodd" clip-rule="evenodd" d="M32.6131 4.07849C31.9932 4.17406 31.6392 4.27576 31.3509 4.47468C31.0346 4.69282 30.7866 5.03458 30.3692 5.65823C29.7538 6.78352 29.5525 7.5945 29.5271 8.40199C29.5099 8.95222 29.5735 9.49773 29.649 10.1458C29.6862 10.464 29.7261 10.8071 29.7609 11.1875L29.7728 11.3189L28.7793 11.2668L28.7513 11.2016C28.5263 10.6784 27.9123 10.5041 27.5392 10.7166L27.5129 10.7315L27.4827 10.7315C26.8746 10.7316 26.2666 10.7238 25.6588 10.708L26.6354 11.1328L26.6526 11.1772C26.836 11.6484 27.2191 11.9368 27.5672 12.109C27.7404 12.1947 27.9021 12.2501 28.0205 12.284C28.0795 12.3009 28.1275 12.3124 28.1603 12.3196C28.1767 12.3232 28.1893 12.3257 28.1976 12.3273C28.2 12.3278 28.2021 12.3282 28.2038 12.3285C28.2049 12.3287 28.2059 12.3289 28.2067 12.329L28.2087 12.3294L28.209 12.3294L28.2091 12.3294C28.2091 12.3294 28.2091 12.3294 28.2091 12.3294L28.3113 12.3464L28.3043 12.4499C28.2722 12.9188 28.1334 13.1931 27.8676 13.2987C27.7426 13.3484 27.6031 13.3541 27.4614 13.3403C27.3195 13.3264 27.1655 13.2919 27.0078 13.2529C26.9655 13.2424 26.9227 13.2317 26.8796 13.2208C26.2659 13.0661 25.5805 12.8934 24.9475 13.3439L24.9438 13.3466L24.9399 13.3489C24.4407 13.6473 24.1949 13.9666 24.0031 14.3586C23.9089 14.5514 23.8279 14.7614 23.736 14.9994L23.7265 15.0242C23.6312 15.2712 23.5246 15.5453 23.3823 15.8499L23.3804 15.8538L23.3783 15.8577C23.2793 16.0329 23.0442 16.341 22.8402 16.5983C22.7617 16.6974 22.6865 16.7904 22.6236 16.8676L23.838 16.765L23.4555 17.2666L24.9969 17.0471L24.6696 17.3516C24.8322 17.321 25.0307 17.2763 25.2241 17.2301C25.4182 17.1837 25.6061 17.1359 25.7455 17.0997C25.8152 17.0816 25.8727 17.0665 25.9127 17.0558C25.9328 17.0505 25.9484 17.0463 25.9591 17.0435L25.9752 17.0391C25.9752 17.0391 25.9752 17.0391 26.0051 17.1494L25.9752 17.0391L26.1568 16.99L26.0567 17.4486L27.5877 16.8956L27.6378 16.9362L27.6379 16.9363L27.6385 16.9367L27.641 16.9388C27.6434 16.9406 27.6469 16.9434 27.6515 16.947C27.6607 16.9543 27.6744 16.9649 27.6917 16.9781C27.7264 17.0045 27.7758 17.0411 27.8339 17.0814C27.917 17.139 28.0154 17.2024 28.1136 17.255L28.3153 16.4511L29.1478 16.6584L29.3864 15.7075L29.5302 15.8987C29.8307 16.2978 30.0832 16.6967 30.3224 17.0745C30.3344 17.0934 30.3463 17.1122 30.3582 17.131C30.609 17.527 30.8463 17.8973 31.1146 18.2283C31.6181 18.8495 32.2304 19.3317 33.2384 19.5526L33.0176 18.6729L33.2307 18.7658C33.807 19.0173 34.3789 19.2786 34.9461 19.5496L35.1429 19.1794L35.2488 19.2542C36.0652 19.8304 36.7447 19.9062 37.2819 19.9661C37.3141 19.9697 37.3458 19.9732 37.3769 19.9768L36.9212 18.8417L37.346 19.0533L36.7398 17.4424L37.2751 17.6202L36.5643 16.5578L36.9102 16.3279L36.7871 15.5918L36.9671 15.6516C37.5911 15.8589 38.3324 16.1219 38.9444 16.5196C39.5578 16.9182 40.0554 17.4614 40.1659 18.2322L40.1663 18.2351L40.1666 18.2381C40.2207 18.8307 40.0992 19.3223 39.8543 19.721C39.6101 20.1185 39.2476 20.4165 38.8304 20.6311C38.1356 20.9884 37.2782 21.1202 36.5197 21.0923C37.0734 21.396 37.7661 21.484 38.4522 21.4011C39.2913 21.2998 40.0981 20.9452 40.5965 20.4486C40.9899 20.0566 41.1908 19.4634 41.4013 18.8343L41.5096 18.5104L41.618 18.8343C41.6663 18.9788 41.7262 19.1351 41.7906 19.3032L41.8017 19.3319C41.8699 19.51 41.9423 19.7001 42.0082 19.8971C42.1398 20.2905 42.2482 20.7188 42.2482 21.1516V21.158L42.2475 21.1643C42.1371 22.154 41.4191 22.8021 40.5448 23.2245C39.8005 23.5841 38.9262 23.7892 38.1664 23.9066C39.0238 24.2258 40.1081 24.1366 41.0444 23.6924C42.1081 23.1877 42.9585 22.2354 43.0603 20.9398C43.0593 19.8291 42.7052 19.0223 42.2726 18.363C42.0571 18.0346 41.8225 17.7433 41.5996 17.4665L41.593 17.4582C41.3697 17.181 41.1564 16.9156 40.9955 16.6484L40.9848 16.6307L40.7324 15.2726L41.2469 15.5119C41.2367 15.4924 41.2263 15.4726 41.2158 15.4526C41.1662 15.3576 41.1149 15.2573 41.0732 15.1712C41.0344 15.0913 40.9994 15.0144 40.9848 14.9664L40.9788 14.9501C40.9741 14.9371 40.9671 14.9181 40.958 14.8936C40.94 14.8448 40.9139 14.7745 40.882 14.689C40.818 14.5179 40.7304 14.2857 40.6357 14.0413C40.4442 13.5474 40.2293 13.0186 40.1205 12.8313L39.9962 12.6174L40.3977 12.6901L38.7481 10.6255L39.1492 10.5908C39.1221 10.5699 39.0931 10.5475 39.0622 10.5238C38.8688 10.375 38.6054 10.1746 38.3252 9.96785C38.0449 9.76093 37.7486 9.54825 37.4893 9.37469C37.2263 9.19868 37.0116 9.07005 36.8902 9.02353L36.5917 8.90915L37.2354 8.69537C36.1019 8.27685 34.8082 8.66702 33.6645 9.42675L33.3874 9.61083L33.6443 8.84269L33.3205 8.87854V7.99045L33.631 7.5264L33.0337 7.32803L33.4034 6.40713L32.8262 6.59887L33.0316 5.57513C33.0075 5.58373 32.9819 5.59253 32.9551 5.60127C32.8028 5.65098 32.5972 5.70422 32.4277 5.69216L32.2545 5.67983L32.3343 5.52566C32.4438 5.31415 32.5461 5.09903 32.6411 4.88067C32.5974 4.79474 32.5761 4.6992 32.5673 4.60697C32.5564 4.49339 32.5638 4.37719 32.5775 4.27475C32.5872 4.2022 32.6003 4.13502 32.6131 4.07849ZM33.1379 5.28746L33.3409 5.19552L33.1277 6.25794L33.7991 6.03493L33.3363 7.18773L33.9878 7.4041L33.549 8.05984V8.62333L33.9744 8.57624L33.8114 9.06344C35.0134 8.34083 36.3962 8.00427 37.6064 8.6072L37.8542 8.73064L37.2273 8.93885C37.3434 9.00616 37.4763 9.09106 37.6164 9.18477C37.8799 9.36114 38.1794 9.57616 38.4609 9.78399C38.7427 9.99194 39.0074 10.1933 39.2016 10.3427C39.2987 10.4173 39.3782 10.479 39.4335 10.5221C39.4611 10.5436 39.4827 10.5605 39.4974 10.572L39.5198 10.5896L39.5199 10.5896C39.5199 10.5897 39.5199 10.5897 39.4493 10.6795L39.5199 10.5896L39.7471 10.7684L39.1931 10.8164L40.9566 13.0236L40.4241 12.9271C40.5462 13.1916 40.707 13.5931 40.8487 13.9587C40.9439 14.2042 41.0319 14.4373 41.096 14.609C41.1281 14.6948 41.1543 14.7654 41.1724 14.8144C41.1815 14.839 41.1885 14.8582 41.1933 14.8712L41.2006 14.8912C41.2007 14.8912 41.2007 14.8913 41.0934 14.9305L41.2007 14.8913L41.2021 14.8951L41.2032 14.8991C41.2104 14.9241 41.2368 14.9848 41.2788 15.0716C41.319 15.1546 41.3692 15.2526 41.4184 15.3468C41.4675 15.4409 41.5154 15.5305 41.551 15.5967C41.5688 15.6297 41.5836 15.6569 41.5938 15.6758L41.6057 15.6976L41.6096 15.7047L41.6098 15.7051L41.6098 15.7051L41.7769 16.0103L41.0381 15.6668L41.2019 16.5481C41.352 16.7936 41.5507 17.0414 41.771 17.3149L41.7801 17.3263C42.0015 17.6012 42.242 17.8999 42.4636 18.2376C42.9149 18.9253 43.2888 19.7763 43.2888 20.9443V20.9487L43.2884 20.9531C43.1805 22.3511 42.2627 23.3672 41.1424 23.8988C40.0252 24.4289 38.6846 24.4879 37.7082 23.9474L37.4012 23.7774L37.7494 23.734C38.5773 23.6309 39.6034 23.4255 40.4454 23.0188C41.2859 22.6127 41.9196 22.0184 42.0197 21.1453C42.0186 20.7507 41.9193 20.3517 41.7915 19.9696C41.7273 19.7778 41.6566 19.592 41.5883 19.4137L41.5766 19.3832C41.555 19.327 41.5338 19.2714 41.5131 19.2168C41.334 19.7334 41.1236 20.246 40.7578 20.6105C40.2157 21.1507 39.3575 21.5219 38.4796 21.628C37.6018 21.734 36.682 21.5772 36.0256 21.0322L35.7251 20.7826L36.1128 20.8309C36.9286 20.9325 37.9448 20.8296 38.7259 20.4279C39.115 20.2278 39.442 19.9555 39.6595 19.6014C39.876 19.249 39.9886 18.8083 39.9393 18.2618C39.8409 17.5825 39.4024 17.0897 38.8199 16.7112C38.2907 16.3674 37.6544 16.1255 37.0752 15.9289L37.1601 16.4363L36.8817 16.6212L37.8358 18.0472L37.1224 17.8103L37.7648 19.5173L37.3572 19.3142L37.7356 20.2569L37.5387 20.2278C37.4537 20.2153 37.3616 20.2051 37.2628 20.1942C36.7456 20.1372 36.0454 20.06 35.2238 19.514L35.045 19.8505L34.9461 19.803C34.4189 19.5498 33.8877 19.305 33.3526 19.0689L33.5471 19.844L33.3728 19.8125C32.1969 19.5994 31.4976 19.0638 30.9371 18.3722C30.6591 18.0293 30.4151 17.6479 30.1651 17.2533C30.1536 17.2351 30.1421 17.2169 30.1305 17.1987C29.9303 16.8824 29.7245 16.5573 29.4906 16.2309L29.3139 16.9353L28.4815 16.7279L28.2685 17.5766L28.1454 17.5241C27.989 17.4573 27.8254 17.3536 27.7037 17.2692C27.6423 17.2266 27.5901 17.188 27.5533 17.16C27.5506 17.1579 27.5479 17.1559 27.5454 17.1539L25.7453 17.8041L25.8536 17.3077C25.8375 17.3119 25.8206 17.3163 25.8029 17.3209C25.6626 17.3573 25.4733 17.4055 25.2772 17.4523C25.0815 17.4992 24.8777 17.545 24.7092 17.5766C24.625 17.5924 24.548 17.605 24.4844 17.6122C24.4258 17.6189 24.3636 17.6231 24.3178 17.614L24.0988 17.5703L24.3077 17.3761L22.9356 17.5714L23.3439 17.0361L22.0996 17.1412L22.2754 16.9309L22.2755 16.9308L22.2835 16.9213C22.2888 16.9149 22.2967 16.9054 22.3068 16.8932C22.3269 16.8689 22.356 16.8338 22.3915 16.7905C22.4624 16.704 22.5589 16.5853 22.6611 16.4563C22.8666 16.1972 23.0874 15.9065 23.1771 15.7491C23.3149 15.4539 23.4185 15.1876 23.5133 14.9419L23.5244 14.913C23.6149 14.6785 23.6991 14.4601 23.7979 14.2582C24.0062 13.8322 24.2799 13.4782 24.8187 13.1551C25.5406 12.644 26.3266 12.844 26.9256 12.9965C26.9725 13.0084 27.0182 13.0201 27.0626 13.0311C27.2197 13.0699 27.3597 13.1007 27.4836 13.1128C27.6078 13.1249 27.706 13.117 27.7832 13.0863C27.9111 13.0355 28.0265 12.9011 28.0675 12.5327C28.0366 12.5253 27.9995 12.5157 27.9575 12.5037C27.8293 12.4669 27.6542 12.407 27.4658 12.3138C27.1011 12.1334 26.676 11.8228 26.4578 11.3048L25.023 10.6806L25.0725 10.4616C25.8659 10.489 26.6597 10.5028 27.4536 10.503C27.9367 10.2508 28.6396 10.4681 28.9307 11.0459L29.5209 11.0769C29.4906 10.7628 29.4565 10.4703 29.4243 10.1932C29.3475 9.53394 29.281 8.96199 29.2987 8.39483C29.3254 7.54443 29.5398 6.69752 30.1712 5.54406L30.1736 5.53961L30.1765 5.53539C30.5899 4.91751 30.8617 4.53453 31.2211 4.28658C31.5835 4.03659 32.0241 3.93056 32.7527 3.82685L32.9358 3.80078L32.8772 3.97614L32.8771 3.97628L32.8768 3.97723L32.8754 3.98166C32.8741 3.98573 32.8722 3.99196 32.8697 4.00013C32.8648 4.01649 32.8579 4.04054 32.8502 4.07051C32.8347 4.13064 32.8162 4.21353 32.804 4.30506C32.7917 4.39702 32.7861 4.49467 32.7947 4.58523C32.8035 4.67653 32.826 4.75315 32.8638 4.80959L32.8982 4.86113L32.8738 4.91813C32.7969 5.09774 32.7151 5.27523 32.6285 5.4504C32.7121 5.43554 32.8012 5.41113 32.8842 5.38403C32.9567 5.36039 33.0205 5.33606 33.0663 5.31764C33.0891 5.30845 33.1073 5.30078 33.1196 5.29546C33.1258 5.29281 33.1305 5.29074 33.1336 5.28937L33.137 5.28786L33.1378 5.28752L33.1379 5.28746Z" fill="#FFCC00"/>
<path fill-rule="evenodd" clip-rule="evenodd" d="M37.5146 14.5986C37.6187 14.7853 38.805 15.3452 39.679 15.8428C39.4501 14.889 37.7228 14.6816 37.5146 14.5986Z" fill="#FF0000"/>
<path fill-rule="evenodd" clip-rule="evenodd" d="M37.1885 14.3125L37.5686 14.464C37.5818 14.4693 37.6188 14.4791 37.6906 14.4955C37.7122 14.5004 37.7363 14.5059 37.7624 14.5117C37.8153 14.5236 37.8765 14.5374 37.942 14.5528C38.1392 14.5994 38.3885 14.6645 38.64 14.7583C38.8906 14.8518 39.1497 14.9761 39.3634 15.1437C39.5778 15.3119 39.7534 15.5296 39.8206 15.8094L39.8989 16.1358L39.6072 15.9697C39.3115 15.8013 38.9813 15.6266 38.6674 15.4604C38.5193 15.382 38.3748 15.3056 38.2393 15.2326C38.0296 15.1197 37.8409 15.0149 37.6973 14.9258C37.6257 14.8814 37.5626 14.8393 37.5128 14.8007C37.4681 14.7661 37.4165 14.7215 37.3877 14.6699L37.1885 14.3125ZM38.3677 14.9715C38.3709 14.9731 38.374 14.9748 38.3771 14.9765C38.5088 15.0474 38.6511 15.1227 38.798 15.2005C38.9572 15.2847 39.1218 15.3719 39.2843 15.4594C39.2531 15.4295 39.2195 15.4005 39.1839 15.3725C39.0028 15.2305 38.7742 15.1188 38.5383 15.0308C38.4813 15.0096 38.4242 14.9898 38.3677 14.9715Z" fill="#FF0000"/>
<path fill-rule="evenodd" clip-rule="evenodd" d="M8.90644 37.4064L7.5752 36.5627L5.79395 37.4158L6.19707 35.8971L4.8377 34.4814L6.40332 34.3877L7.34082 32.6627L7.91269 34.1158L9.85332 34.4721L8.63457 35.4658L8.90644 37.4064ZM12.3002 30.0002L11.6814 29.7189L11.0908 30.0564L11.1846 29.3814L10.6783 28.9221L11.3439 28.8002L11.6252 28.1814L11.9533 28.7814L12.6283 28.8564L12.1596 29.3439L12.3002 30.0002ZM15.3002 25.7627L13.9408 25.1064L12.6377 25.8377L12.8533 24.3658L11.7471 23.3533L13.2189 23.0908L13.8377 21.7408L14.5502 23.0533L16.0314 23.2221L15.0002 24.3002L15.3002 25.7627ZM9.13144 19.8564L7.53769 19.0596L5.99082 19.9127L6.25332 18.1689L4.95957 16.9502L6.7127 16.6689L7.4627 15.0752L8.27832 16.6408L10.0408 16.8564L8.79395 18.1127L9.13144 19.8564ZM3.43145 25.9877L1.83769 25.0502L0.243945 26.0158L0.64707 24.2064L-0.768555 22.9877L1.07832 22.8189L1.80019 21.1033L2.54082 22.8096L4.39707 22.9596L3.0002 24.1783L3.43145 25.9877Z" fill="white"/>
</g>
<defs>
<clipPath id="clip0_200_69668">
<rect width="60" height="45" fill="white" transform="translate(-7.5)"/>
</clipPath>
</defs>
</svg>
