<svg width="45" height="45" viewBox="0 0 45 45" fill="none" xmlns="http://www.w3.org/2000/svg">
<g clip-path="url(#clip0_200_68830)">
<path d="M-7.5 0H52.5V22.5H-7.5V0Z" fill="#0038A8"/>
<path d="M-7.5 22.5H52.5V45H-7.5V22.5Z" fill="#CE1126"/>
<path d="M31.4719 22.5L-7.5 45V0" fill="white"/>
<path d="M-4.99687 3.97461L-3.65625 5.15586L-2.1 4.29336L-2.79375 5.93398L-1.48125 7.15273L-3.2625 7.00273L-4.02188 8.61523L-4.425 6.88086L-6.1875 6.65586L-4.65938 5.71836L-4.99687 3.97461ZM25.3594 20.1277L25.3969 21.909L27.0844 22.4996L25.3969 23.0809L25.3594 24.8621L24.2812 23.4465L22.575 23.9621L23.5875 22.4996L22.575 21.0371L24.2812 21.5527L25.3594 20.1277ZM-4.0125 36.384L-3.2625 37.9965L-1.48125 37.8465L-2.78438 39.0652L-2.09062 40.7059L-3.64688 39.8527L-4.99687 41.0152L-4.65938 39.2621L-6.1875 38.3434L-4.41562 38.1184L-4.0125 36.384ZM6.69375 13.0402L6.1125 13.6215L6.40313 18.0277L6.12188 18.0559L5.5875 14.034L5.10938 14.5027L5.82188 18.1027C5.24575 18.2161 4.69773 18.4423 4.20938 18.7684L2.175 15.7309H1.5L3.975 18.9465C3.89799 19.0065 3.82295 19.0691 3.75 19.134L0.834375 15.8059H0.00937462V16.6309L3.32812 19.5371L3.14062 19.7715L-0.0750003 17.3059V17.9715L2.97187 20.0059C2.65312 20.4934 2.41875 21.0371 2.30625 21.6184L-1.28437 20.9059L-1.7625 21.3746L2.25937 21.909C2.24062 22.0027 2.23125 22.1059 2.23125 22.1996L-2.175 21.9184L-2.75625 22.4996L-2.175 23.0809L2.23125 22.7902L2.25937 23.0809L-1.7625 23.6152L-1.29375 24.084L2.30625 23.3715C2.41964 23.9476 2.64586 24.4956 2.97187 24.984L-0.0750003 27.0184V27.6934L3.14062 25.2277C3.20067 25.3048 3.2632 25.3798 3.32812 25.4527L0.00937462 28.359V29.184H0.84375L3.75 25.8652L3.98438 26.0527L1.5 29.2684H2.175L4.20938 26.2215C4.6875 26.5402 5.24063 26.7746 5.82188 26.8871L5.10938 30.4871L5.57812 30.9559L6.1125 26.934C6.20625 26.9527 6.3 26.9621 6.40313 26.9621L6.12188 31.3684L6.69375 31.9496L7.28437 31.3684L6.99375 26.9621L7.275 26.934L7.80938 30.9652L8.2875 30.4871L7.575 26.8871C8.15113 26.7737 8.69914 26.5475 9.1875 26.2215L11.2219 29.2684H11.8969L9.42188 26.0527C9.49889 25.9927 9.57393 25.9302 9.64687 25.8652L12.5625 29.184H13.3875V28.359L10.0687 25.4527L10.2562 25.2277L13.4719 27.6934V27.0184L10.425 24.984C10.7437 24.5059 10.9781 23.9527 11.0906 23.3715L14.6813 24.084L15.1594 23.6152L11.1375 23.0809C11.1562 22.9871 11.1656 22.8934 11.1656 22.7902L15.5719 23.0715L16.1531 22.4996L15.5719 21.9184L11.1656 22.1996L11.1375 21.9184L15.1594 21.384L14.6906 20.9152L11.0906 21.6184C10.9772 21.0422 10.751 20.4942 10.425 20.0059L13.4719 17.9715V17.3059L10.2562 19.7715C10.1962 19.6945 10.1337 19.6194 10.0687 19.5465L13.3875 16.6402V15.8059H12.5625L9.65625 19.134C9.58023 19.0689 9.50206 19.0064 9.42188 18.9465L11.8969 15.7309H11.2219L9.1875 18.7684C8.70938 18.4496 8.15625 18.2152 7.575 18.1027L8.2875 14.5121L7.81875 14.0434L7.28437 18.0559L6.99375 18.0277L7.275 13.6215L6.69375 13.0402Z" fill="#FCD116"/>
</g>
<defs>
<clipPath id="clip0_200_68830">
<rect width="60" height="45" fill="white" transform="translate(-7.5)"/>
</clipPath>
</defs>
</svg>
