<svg width="45" height="45" viewBox="0 0 45 45" fill="none" xmlns="http://www.w3.org/2000/svg">
<g clip-path="url(#clip0_200_68823)">
<path fill-rule="evenodd" clip-rule="evenodd" d="M-11.2559 0H56.2441V45H-11.2559V0Z" fill="#0C590B"/>
<path fill-rule="evenodd" clip-rule="evenodd" d="M-11.2559 0H5.66309V45H-11.2559V0Z" fill="white"/>
<path fill-rule="evenodd" clip-rule="evenodd" d="M32.5752 19.8105L29.833 19.2305L28.3916 21.6299L28.0928 18.8525L25.3682 18.2197L27.917 17.0771L27.6797 14.291L29.5605 16.3652L32.1357 15.2754L30.7383 17.7012L32.584 19.8105H32.5752Z" fill="white"/>
<path fill-rule="evenodd" clip-rule="evenodd" d="M33.6035 26.8945C33.0186 28.1709 32.1871 29.319 31.1569 30.2729C30.1268 31.2268 28.9182 31.9676 27.6007 32.4528C26.2832 32.938 24.8828 33.1579 23.48 33.1C22.0772 33.0421 20.6997 32.7074 19.4267 32.1152C16.844 30.9194 14.842 28.7466 13.8613 26.0748C12.8806 23.4029 13.0014 20.4509 14.1972 17.8682C14.7911 16.5405 15.6562 15.3518 16.737 14.3785C17.8177 13.4052 19.0902 12.6689 20.4726 12.2168C20.1107 12.5181 19.7646 12.8379 19.4355 13.1748C17.7208 15.0738 16.8105 17.5646 16.8966 20.1218C16.9827 22.679 18.0585 25.1028 19.8972 26.8821C21.7358 28.6615 24.1936 29.6573 26.7522 29.6596C29.3109 29.662 31.7704 28.6706 33.6123 26.8945H33.6035Z" fill="white"/>
</g>
<defs>
<clipPath id="clip0_200_68823">
<rect width="60" height="45" fill="white" transform="translate(-7.5)"/>
</clipPath>
</defs>
</svg>
