<svg width="45" height="45" viewBox="0 0 45 45" fill="none" xmlns="http://www.w3.org/2000/svg">
<g clip-path="url(#clip0_200_70219)">
<path d="M16.5 0H52.5V45H16.5V0Z" fill="#FF0000"/>
<path d="M-7.5 0H16.5V45H-7.5V0Z" fill="#006600"/>
<path fill-rule="evenodd" clip-rule="evenodd" d="M24.3281 28.7061C21.3 28.6123 7.45312 19.9686 7.35938 18.5811L8.11875 17.3154C9.49688 19.3123 23.6531 27.7217 25.05 27.4217L24.3281 28.7061Z" fill="#FFFF00"/>
<path fill-rule="evenodd" clip-rule="evenodd" d="M8.11766 17.2871C8.12722 17.2868 8.13627 17.2914 8.1417 17.2993C8.31139 17.5451 8.68031 17.8927 9.2021 18.3132C9.72305 18.7331 10.3939 19.2238 11.165 19.7558C12.7071 20.8199 14.6489 22.0485 16.5915 23.2055C18.5342 24.3625 20.4771 25.4476 22.0214 26.2246C22.7937 26.6132 23.4657 26.9244 23.988 27.1291C24.2492 27.2314 24.4723 27.3069 24.6515 27.3521C24.8319 27.3976 24.9635 27.4113 25.0439 27.394C25.0547 27.3917 25.0659 27.3959 25.0724 27.4048C25.079 27.4137 25.0797 27.4256 25.0743 27.4353L24.3524 28.7196C24.3473 28.7288 24.3375 28.7343 24.3271 28.734C23.9437 28.7221 23.3925 28.5753 22.7235 28.3272C22.0537 28.0787 21.2631 27.7275 20.3999 27.3047C18.6735 26.459 16.655 25.3259 14.7285 24.1525C12.8021 22.9792 10.967 21.7652 9.60752 20.7577C8.92784 20.2539 8.36644 19.8013 7.97177 19.4309C7.77449 19.2458 7.61825 19.0806 7.50963 18.9393C7.40202 18.7994 7.33759 18.6785 7.33112 18.5828C7.33073 18.577 7.33211 18.5713 7.33506 18.5664L8.09444 17.3008C8.09936 17.2926 8.1081 17.2874 8.11766 17.2871ZM8.12059 17.3665L7.388 18.5875C7.3965 18.6646 7.45108 18.7709 7.55422 18.905C7.66022 19.0429 7.81404 19.2058 8.01027 19.3899C8.40263 19.7582 8.96205 20.2093 9.64101 20.7125C10.9988 21.7187 12.8323 22.9317 14.7578 24.1045C16.6833 25.2772 18.7002 26.4094 20.4246 27.2541C21.2869 27.6765 22.0756 28.0268 22.743 28.2744C23.4012 28.5186 23.9387 28.6618 24.3118 28.6771L24.9979 27.4565C24.9068 27.4619 24.7849 27.4438 24.6377 27.4066C24.4554 27.3606 24.2298 27.2842 23.9675 27.1815C23.4429 26.9759 22.769 26.6637 21.9961 26.2749C20.4502 25.4971 18.5061 24.4113 16.5628 23.2539C14.6194 22.0964 12.6765 20.8671 11.1331 19.8021C10.3614 19.2696 9.68925 18.7781 9.1668 18.357C8.66899 17.9558 8.30478 17.6168 8.12059 17.3665Z" fill="black"/>
<path fill-rule="evenodd" clip-rule="evenodd" d="M7.95941 17.1377C7.68753 17.8689 11.5782 20.2689 16.2469 23.1189C20.925 25.9596 24.9563 27.7127 25.2469 27.4689L25.3875 27.2064C25.3313 27.3002 25.2 27.3283 24.9844 27.2627C23.7188 26.8971 20.4282 25.3877 16.35 22.9127C12.2625 20.4377 8.71878 18.1596 8.16566 17.1939C8.12254 17.1034 8.10318 17.0034 8.10941 16.9033H8.09066L7.97816 17.1096L7.95941 17.1377ZM24.3938 28.7439C24.3469 28.8377 24.2438 28.8377 24.0657 28.8189C22.9407 28.6971 19.5094 27.0283 15.45 24.6002C10.725 21.7689 6.82503 19.2002 7.25628 18.5252L7.36878 18.3189L7.38753 18.3283C7.01253 19.4721 15.0844 24.0846 15.5625 24.3846C20.2313 27.2721 24.1688 28.9689 24.5157 28.5283L24.3938 28.7439Z" fill="#FFFF00"/>
<path fill-rule="evenodd" clip-rule="evenodd" d="M8.0658 16.8897C8.07073 16.8806 8.0802 16.875 8.09049 16.875H8.10924C8.11701 16.875 8.12442 16.8782 8.12974 16.8839C8.13505 16.8895 8.1378 16.8971 8.13731 16.9049C8.13141 16.9998 8.14969 17.0947 8.19043 17.1807C8.32616 17.417 8.64729 17.7372 9.12067 18.1249C9.59363 18.5122 10.2154 18.9643 10.9481 19.4639C12.4135 20.463 14.3208 21.651 16.3644 22.8884L16.3645 22.8885C20.4421 25.3632 23.7301 26.8709 24.9921 27.2355L24.9924 27.2356C25.0981 27.2678 25.1802 27.276 25.2412 27.2664C25.3012 27.2569 25.3401 27.2304 25.3633 27.1918C25.3711 27.1787 25.388 27.1743 25.4012 27.1818C25.4145 27.1893 25.4194 27.2061 25.4122 27.2195L25.2715 27.482C25.2698 27.4852 25.2676 27.488 25.2648 27.4903C25.2385 27.5124 25.1967 27.5195 25.1491 27.5194C25.0998 27.5192 25.0372 27.5111 24.9628 27.4959C24.8138 27.4653 24.6128 27.4053 24.3663 27.3179C23.8732 27.143 23.195 26.8575 22.3801 26.4759C20.7502 25.7125 18.572 24.5636 16.2321 23.1428L16.2321 23.1428C13.8979 21.7179 11.7573 20.4049 10.2343 19.3568C9.47294 18.8328 8.86479 18.3742 8.46375 18.0004C8.26335 17.8136 8.11342 17.6468 8.02204 17.5026C7.93148 17.3597 7.89407 17.2321 7.93288 17.1277L7.95924 17.1375L7.93584 17.1219L7.9539 17.0948L8.0658 16.8897ZM7.98453 17.1503C7.95708 17.2284 7.98226 17.3348 8.06955 17.4725C8.15714 17.6107 8.30303 17.7736 8.5021 17.9592C8.89999 18.3301 9.50532 18.7868 10.2662 19.3104C11.7877 20.3575 13.9268 21.6696 16.2613 23.0947C18.5996 24.5145 20.7761 25.6625 22.404 26.4249C23.218 26.8062 23.8945 27.0908 24.3851 27.2649C24.6306 27.3519 24.8288 27.411 24.9741 27.4408C25.0469 27.4557 25.1053 27.463 25.1493 27.4632C25.19 27.4633 25.2133 27.4571 25.2249 27.4499L25.3002 27.3095C25.2846 27.3149 25.2678 27.3191 25.25 27.3219C25.1774 27.3334 25.0861 27.3229 24.9763 27.2895C23.7068 26.9227 20.4137 25.4117 16.3353 22.9366C14.2915 21.699 12.3831 20.5104 10.9164 19.5103C10.1831 19.0103 9.55982 18.5572 9.08503 18.1684C8.61127 17.7804 8.28223 17.4541 8.14109 17.2077C8.14074 17.2071 8.14041 17.2065 8.1401 17.2058C8.10608 17.1344 8.08618 17.0574 8.08121 16.9789L8.00268 17.1228C8.00229 17.1236 8.00186 17.1243 8.00139 17.125L7.98453 17.1503ZM7.34393 18.3053C7.35118 18.292 7.36765 18.2868 7.3812 18.2936L7.39995 18.303C7.41242 18.3092 7.41844 18.3236 7.41409 18.3369C7.39349 18.3997 7.40093 18.4775 7.43824 18.5709C7.4755 18.6641 7.54145 18.7701 7.63347 18.887C7.81745 19.121 8.10214 19.3947 8.45737 19.6932C9.16754 20.2901 10.1552 20.9825 11.1704 21.6491C12.7859 22.71 14.4669 23.7029 15.2086 24.1409C15.3993 24.2536 15.5279 24.3296 15.5773 24.3605C17.9108 25.8037 20.0613 26.9492 21.6712 27.6787C22.4764 28.0435 23.1456 28.3039 23.6346 28.4456C23.8793 28.5165 24.0775 28.5573 24.2245 28.5669C24.2981 28.5718 24.3575 28.5687 24.4029 28.5585C24.4484 28.5482 24.4772 28.5313 24.4934 28.5107C24.5025 28.4992 24.5189 28.4966 24.5312 28.5048C24.5434 28.513 24.5472 28.5292 24.54 28.542L24.4184 28.757C24.3902 28.813 24.3441 28.8406 24.2836 28.8511C24.2252 28.8613 24.1511 28.856 24.0625 28.8467L24.0625 28.8467C23.7773 28.8158 23.3489 28.6875 22.8053 28.4758C22.2611 28.2639 21.5991 27.9677 20.8457 27.5995C19.339 26.8631 17.4656 25.8385 15.4354 24.6241L15.4354 24.6241C13.0728 23.2084 10.9157 21.858 9.40305 20.7768C8.64689 20.2363 8.0506 19.7624 7.67009 19.3807C7.48001 19.19 7.34228 19.0209 7.26574 18.8769C7.18994 18.7343 7.17018 18.6082 7.23188 18.5107L7.34393 18.3053ZM24.3936 28.7438L24.3691 28.7299L24.4384 28.6073C24.431 28.6095 24.4232 28.6116 24.4153 28.6134C24.3626 28.6252 24.2973 28.6281 24.2208 28.6231C24.0679 28.613 23.8651 28.571 23.6189 28.4996C23.1262 28.3568 22.4542 28.0952 21.648 27.7299C20.0354 26.9992 17.8828 25.8525 15.5476 24.4083L15.5474 24.4082C15.4992 24.378 15.3724 24.3031 15.1839 24.1917C14.4448 23.7552 12.7574 22.7586 11.1395 21.6962C10.1238 21.0292 9.13395 20.3353 8.42118 19.7363C8.06493 19.4369 7.77679 19.1602 7.58926 18.9218C7.49551 18.8026 7.42603 18.6919 7.38601 18.5918C7.36154 18.5305 7.34768 18.4722 7.34663 18.4178L7.28081 18.5385C7.2805 18.539 7.28017 18.5396 7.27982 18.5401C7.23435 18.6113 7.24224 18.7128 7.31541 18.8505C7.38807 18.9872 7.52119 19.1517 7.70992 19.341C8.08702 19.7193 8.68019 20.191 9.43575 20.731C10.9465 21.8108 13.1019 23.1603 15.4643 24.5759C17.4935 25.7896 19.3654 26.8134 20.8704 27.5489C21.6229 27.9167 22.2834 28.2123 22.8257 28.4234C23.3687 28.6348 23.7911 28.7607 24.0684 28.7908C24.158 28.8002 24.2245 28.8043 24.274 28.7957C24.321 28.7875 24.3498 28.7685 24.3685 28.7312L24.3936 28.7438Z" fill="black"/>
<path fill-rule="evenodd" clip-rule="evenodd" d="M16.5189 19.425C19.5377 19.3969 23.2689 19.0125 25.4252 18.15L24.9564 17.4C23.6908 18.1031 19.9408 18.5719 16.4908 18.6375C12.4221 18.6 9.54394 18.2156 8.10019 17.25L7.66895 18.0563C10.3127 19.1813 13.0314 19.4156 16.5189 19.425Z" fill="#FFFF00"/>
<path fill-rule="evenodd" clip-rule="evenodd" d="M8.09318 17.2225C8.10088 17.2206 8.10904 17.222 8.11564 17.2264C8.83242 17.7058 9.90807 18.0425 11.3153 18.2638C12.7219 18.485 14.4569 18.5904 16.4905 18.6092C18.2144 18.5764 20.0131 18.4429 21.5387 18.2298C22.3015 18.1232 22.9958 17.9968 23.578 17.8533C24.1607 17.7096 24.6295 17.5492 24.9426 17.3752C24.9557 17.3679 24.9722 17.3722 24.9801 17.3849L25.4489 18.1349C25.4533 18.142 25.4543 18.1506 25.4517 18.1585C25.4491 18.1665 25.4432 18.1728 25.4354 18.1759C23.2741 19.0405 19.5384 19.4248 16.519 19.4529C16.5189 19.4529 16.5188 19.4529 16.5187 19.4529C16.5033 19.4529 16.4908 19.4405 16.4906 19.4251C16.4905 19.4095 16.503 19.3968 16.5185 19.3967C16.5185 19.3967 16.5186 19.3967 16.5187 19.3967C13.0446 19.3873 10.3375 19.1545 7.70806 18.0422L8.11022 17.2903C8.83696 17.7674 9.91324 18.1003 11.3066 18.3194C12.7171 18.5412 14.4553 18.6467 16.4904 18.6654L16.4904 18.6654L16.4912 18.6654C18.2171 18.6326 20.0183 18.4989 21.5465 18.2855C22.3106 18.1787 23.0068 18.052 23.5914 17.9079C24.1616 17.7673 24.6272 17.6098 24.9465 17.4372L25.3833 18.1361C23.2275 18.9878 19.5222 19.3687 16.5187 19.3967M8.09318 17.2225C8.08547 17.2244 8.07894 17.2295 8.0752 17.2365L8.09318 17.2225ZM8.0752 17.2365L7.64395 18.0428L8.0752 17.2365ZM16.5187 19.4529C13.0303 19.4436 10.3069 19.2092 7.65774 18.0819C7.65047 18.0788 7.64484 18.0728 7.64222 18.0654C7.6396 18.058 7.64023 18.0498 7.64395 18.0428" fill="black"/>
<path fill-rule="evenodd" clip-rule="evenodd" d="M25.5467 18.1691C25.4717 18.291 24.0654 18.7691 22.0029 19.1254C20.1848 19.4009 18.3481 19.5357 16.5092 19.5285C14.7473 19.5351 12.987 19.4224 11.2404 19.191C9.0748 18.8535 7.95918 18.3848 7.5373 18.216L7.64043 18.0098C8.83105 18.4785 9.95605 18.7598 11.2686 18.966C13.0024 19.2001 14.7502 19.316 16.4998 19.3129C18.3292 19.3148 20.1561 19.1801 21.9654 18.9098C24.0748 18.5629 25.2279 18.1223 25.3967 17.9254L25.5467 18.1785V18.1691ZM25.1342 17.4098C24.9092 17.5973 23.7654 18.0004 21.7592 18.3191C20.0267 18.5698 18.2784 18.6951 16.5279 18.6941C14.4654 18.6941 12.7686 18.5441 11.4842 18.3566C9.44043 18.0941 8.35293 17.6066 7.95918 17.4754L8.08105 17.2691C8.39043 17.4285 9.43105 17.8504 11.5029 18.141C13.1685 18.3641 14.8476 18.4706 16.5279 18.4598C18.266 18.4603 20.0018 18.335 21.7217 18.0848C23.7373 17.8035 24.8248 17.2973 24.9936 17.166L25.1342 17.4098ZM6.59043 23.0629C8.44668 24.066 12.5811 24.5629 16.4904 24.6004C20.0529 24.6098 24.6842 24.0566 26.4186 23.1379L26.3717 22.1348C25.8279 22.9785 20.8592 23.7941 16.4529 23.766C12.0467 23.7285 7.9498 23.0535 6.58105 22.1723V23.0629" fill="#FFFF00"/>
<path fill-rule="evenodd" clip-rule="evenodd" d="M24.9988 17.1382C25.0067 17.1398 25.0137 17.1447 25.0177 17.1518L25.1583 17.3955L25.134 17.4096L25.152 17.4312C25.0921 17.4811 24.9748 17.5428 24.8044 17.612C24.6331 17.6816 24.4054 17.7598 24.1223 17.842C23.5561 18.0065 22.7675 18.1872 21.7634 18.3467L21.763 18.3468C20.0292 18.5976 18.2796 18.723 16.5277 18.7221L16.5277 18.6939V18.7221C16.5277 18.7221 16.5277 18.7221 16.5277 18.7221C14.464 18.7221 12.7659 18.572 11.4802 18.3843C11.4802 18.3843 11.4803 18.3843 11.4804 18.3843L11.484 18.3564L11.4799 18.3843C11.48 18.3843 11.4801 18.3843 11.4802 18.3843C9.73244 18.1598 8.68188 17.7708 8.1678 17.5804C8.07977 17.5478 8.00747 17.521 7.95009 17.5019C7.94203 17.4992 7.93561 17.493 7.93264 17.485C7.92966 17.4771 7.93045 17.4682 7.93477 17.4609L8.05665 17.2546C8.06423 17.2418 8.08049 17.2371 8.09374 17.2439C8.39951 17.4015 9.43684 17.8226 11.5066 18.113C11.5065 18.113 11.5065 18.1129 11.5065 18.1129L11.5027 18.1408L11.5066 18.113C11.5066 18.113 11.5066 18.113 11.5066 18.113C13.1708 18.3359 14.8485 18.4423 16.5276 18.4314L16.5277 18.4314C18.2644 18.432 19.9989 18.3068 21.7174 18.0567L21.7176 18.0567C22.7238 17.9163 23.498 17.7198 24.0413 17.5422C24.3129 17.4534 24.5267 17.3694 24.6829 17.2995C24.8399 17.2293 24.9368 17.1742 24.9761 17.1436C24.9825 17.1386 24.9908 17.1367 24.9988 17.1382ZM25.0974 17.4024L24.9844 17.2066C24.9312 17.2419 24.8379 17.2918 24.7059 17.3509C24.5477 17.4216 24.332 17.5064 24.0587 17.5957C23.5122 17.7743 22.7348 17.9716 21.7254 18.1124C20.0042 18.3628 18.2671 18.4882 16.5278 18.4877C14.8462 18.4986 13.1658 18.392 11.499 18.1687L11.4988 18.1687C9.47439 17.8847 8.43142 17.4753 8.09166 17.3059L8.00079 17.4597C8.05268 17.4778 8.11463 17.5007 8.18709 17.5275C8.70165 17.7181 9.74656 18.1049 11.4876 18.3285L11.488 18.3286L11.488 18.3286C12.7711 18.5159 14.4666 18.6658 16.5277 18.6658H16.5278C18.2768 18.6668 20.0237 18.5416 21.7548 18.2911C22.7569 18.1319 23.5431 17.9517 24.1066 17.788C24.3884 17.7062 24.6142 17.6286 24.7833 17.5599C24.9353 17.4981 25.0394 17.4444 25.0974 17.4024ZM25.3989 17.8972C25.408 17.898 25.4161 17.9031 25.4207 17.9109L25.5586 18.1435C25.5682 18.1481 25.5746 18.158 25.5746 18.1689V18.1783C25.5746 18.191 25.5661 18.2021 25.5539 18.2054C25.5526 18.2058 25.5512 18.2061 25.5499 18.2062C25.5446 18.2107 25.5389 18.2149 25.5329 18.219C25.5166 18.2302 25.4955 18.2424 25.4701 18.2554C25.4192 18.2815 25.3491 18.312 25.2613 18.3459C25.0857 18.4138 24.8376 18.4964 24.5278 18.5862C23.9079 18.7658 23.0397 18.9746 22.0075 19.1529L22.007 19.153C20.1874 19.4287 18.3493 19.5636 16.509 19.5564C14.7459 19.5631 12.9844 19.4502 11.2365 19.2187L11.2359 19.2186L11.2359 19.2186C9.14718 18.8931 8.03327 18.4455 7.57619 18.2618C7.55873 18.2548 7.54222 18.2482 7.52666 18.2419C7.51936 18.239 7.51362 18.2332 7.51082 18.2258C7.50802 18.2185 7.50844 18.2103 7.51195 18.2032L7.61508 17.997C7.62159 17.984 7.63698 17.9781 7.65054 17.9834C8.8388 18.4512 9.96167 18.732 11.2724 18.938C13.0049 19.1719 14.7513 19.2877 16.4996 19.2846H16.4996C18.3275 19.2865 20.153 19.1518 21.9609 18.8818C23.0145 18.7085 23.8287 18.5119 24.4002 18.3343C24.6861 18.2454 24.9108 18.1614 25.0742 18.0876C25.1559 18.0507 25.222 18.0166 25.2725 17.9858C25.3234 17.9547 25.3569 17.9281 25.3751 17.9069C25.381 17.9 25.3899 17.8964 25.3989 17.8972ZM25.5076 18.1679L25.3907 17.9706C25.3677 17.9907 25.3378 18.0118 25.3018 18.0338C25.2487 18.0662 25.1804 18.1014 25.0974 18.1389C24.9312 18.2139 24.7042 18.2987 24.4169 18.388C23.8424 18.5666 23.0255 18.7637 21.9698 18.9373L21.9694 18.9374C20.1587 19.2079 18.3304 19.3427 16.4996 19.3408C14.7488 19.344 12.9997 19.228 11.2646 18.9937L11.264 18.9936L11.264 18.9936C9.95868 18.7885 8.83793 18.5092 7.65389 18.0452L7.57592 18.2011C7.58286 18.2039 7.58995 18.2067 7.59722 18.2096C8.05232 18.3925 9.16186 18.8384 11.2442 19.163C12.9895 19.3941 14.7484 19.5068 16.5089 19.5002H16.5091C18.3464 19.5074 20.1816 19.3727 21.9982 19.0974C23.0284 18.9195 23.8945 18.7111 24.5121 18.5322C24.821 18.4427 25.0674 18.3606 25.241 18.2934C25.3279 18.2599 25.396 18.2302 25.4445 18.2054C25.4687 18.193 25.4875 18.182 25.501 18.1727C25.5035 18.171 25.5057 18.1694 25.5076 18.1679ZM26.3788 22.1074C26.3906 22.1106 26.399 22.121 26.3996 22.1333L26.4465 23.1364C26.447 23.1473 26.4411 23.1575 26.4315 23.1625C25.5595 23.6245 23.9637 23.9929 22.1437 24.2449C20.3225 24.497 18.2727 24.633 16.4902 24.6283L16.49 24.6283C14.5343 24.6096 12.5221 24.4759 10.7663 24.2214C9.01521 23.9676 7.51614 23.5931 6.58299 23.0907C6.58228 23.0908 6.58157 23.0908 6.58086 23.0908C6.56533 23.0908 6.55273 23.0782 6.55273 23.0627V22.1721C6.55273 22.1618 6.55836 22.1523 6.56739 22.1474C6.57643 22.1425 6.58743 22.1429 6.59608 22.1484C7.27506 22.5856 8.63619 22.974 10.3822 23.2576C12.1267 23.5409 14.2511 23.719 16.4529 23.7377C18.6545 23.7517 20.9966 23.555 22.856 23.2494C23.7857 23.0966 24.594 22.9167 25.2034 22.7226C25.5081 22.6255 25.7623 22.5251 25.9568 22.4232C26.1522 22.3208 26.2839 22.2185 26.3478 22.1193C26.3545 22.1091 26.367 22.1042 26.3788 22.1074ZM6.60898 23.0409C7.53294 23.5385 9.02406 23.912 10.7743 24.1657C12.5271 24.4198 14.5368 24.5533 16.4905 24.5721M6.60898 23.0409V22.223V23.0409Z" fill="black"/>
<path fill-rule="evenodd" clip-rule="evenodd" d="M26.5125 22.9223V23.1566C26.25 23.4754 24.6187 23.9441 22.575 24.2816C20.5446 24.5735 18.495 24.7114 16.4437 24.6941C14.4987 24.7107 12.5554 24.5759 10.6312 24.291C9.19552 24.1251 7.79258 23.7459 6.46875 23.166V22.8941C7.37812 23.4941 9.83437 23.9441 10.6594 24.0754C12.1406 24.3004 14.0437 24.4691 16.4437 24.4691C18.9656 24.4691 20.9812 24.291 22.5375 24.0566C24.0094 23.841 26.1 23.2879 26.5125 22.9223ZM26.5125 22.0785V22.3129C26.25 22.6223 24.6187 23.091 22.575 23.4285C20.5448 23.7235 18.4952 23.8645 16.4437 23.8504C14.4989 23.8618 12.5559 23.7271 10.6312 23.4473C9.19552 23.2814 7.79258 22.9022 6.46875 22.3223V22.041C7.37812 22.6504 9.84375 23.091 10.6594 23.2223C12.5745 23.5028 14.5082 23.6376 16.4437 23.6254C18.9656 23.6254 20.9906 23.4379 22.5375 23.2035C24.0094 22.9973 26.1 22.4441 26.5125 22.0785ZM16.4813 28.5285C12.2063 28.5098 8.54063 27.366 7.7625 27.1785L8.325 28.0598C10.9546 28.9911 13.7295 29.4451 16.5188 29.4004C19.7719 29.3066 22.6125 29.0535 24.6094 28.0785L25.1906 27.1598C23.8313 27.8066 19.1906 28.5285 16.4719 28.5285" fill="#FFFF00"/>
<path fill-rule="evenodd" clip-rule="evenodd" d="M6.45531 22.016C6.46447 22.0111 6.47558 22.0117 6.48421 22.0175C6.93419 22.319 7.7732 22.5806 8.60568 22.7834C9.43656 22.9859 10.2559 23.1287 10.6634 23.1943C12.5771 23.4746 14.5093 23.6092 16.4434 23.5971L16.4436 23.5971C18.964 23.5971 20.9876 23.4097 22.5331 23.1755L22.5334 23.1755C23.268 23.0725 24.1574 22.883 24.9146 22.6735C25.2931 22.5687 25.6382 22.4592 25.9141 22.3531C26.1912 22.2465 26.3948 22.1449 26.4936 22.0573L26.5123 22.0783H26.5404V22.3127C26.5404 22.3194 26.5381 22.3258 26.5337 22.3309C26.4979 22.3731 26.4405 22.4162 26.3658 22.4599C26.2906 22.5038 26.1962 22.5494 26.0846 22.596C25.8614 22.6893 25.5678 22.7878 25.2192 22.887C24.5219 23.0854 23.602 23.2872 22.5794 23.4561L22.5788 23.4562C20.5473 23.7513 18.4964 23.8925 16.4435 23.8783C14.4975 23.8898 12.5533 23.7549 10.6274 23.475C9.18905 23.3087 7.78354 22.9288 6.45727 22.3478C6.44704 22.3434 6.44043 22.3332 6.44043 22.3221V22.0408C6.44043 22.0304 6.44615 22.0209 6.45531 22.016ZM26.4842 22.1367C26.3676 22.2216 26.1754 22.3129 25.9343 22.4056C25.6561 22.5125 25.3092 22.6227 24.9296 22.7277C24.1704 22.9377 23.2786 23.1278 22.5414 23.2312C20.9931 23.4657 18.9668 23.6533 16.4436 23.6533C16.4436 23.6533 16.4436 23.6533 16.4436 23.6533V23.6252L16.4437 23.6533C16.4437 23.6533 16.4437 23.6533 16.4436 23.6533C14.5067 23.6655 12.5716 23.5306 10.6551 23.2499L10.6547 23.2498L10.6547 23.2498C10.2465 23.1842 9.42542 23.041 8.59237 22.8381C7.78653 22.6417 6.96483 22.3883 6.49668 22.0927V22.0408H6.46855L6.4529 22.0642C6.46712 22.0737 6.48172 22.0832 6.49668 22.0927V22.3037C6.49106 22.3012 6.48545 22.2988 6.47984 22.2963L6.46855 22.3221H6.49668V22.3037C7.81301 22.8783 9.20742 23.2542 10.6343 23.4191L10.6351 23.4192L10.6351 23.4192C12.5584 23.6989 14.4999 23.8335 16.4434 23.8221L16.4437 23.8221C18.4937 23.8362 20.5418 23.6953 22.5705 23.4005C22.5704 23.4005 22.5703 23.4006 22.5702 23.4006L22.5748 23.4283L22.5708 23.4005C22.5707 23.4005 22.5706 23.4005 22.5705 23.4005C23.5915 23.2319 24.5091 23.0306 25.2038 22.8329C25.5513 22.734 25.8425 22.6363 26.0629 22.5441C26.1731 22.498 26.2651 22.4536 26.3374 22.4113C26.4049 22.3719 26.4537 22.3352 26.4842 22.3021V22.3127H26.5123L26.4909 22.2945C26.4887 22.297 26.4865 22.2995 26.4842 22.3021V22.1367ZM6.45522 22.8692C6.46434 22.8643 6.47541 22.8648 6.48404 22.8705C6.93412 23.1674 7.77093 23.429 8.60221 23.633C9.432 23.8367 10.2514 23.9818 10.6635 24.0474C12.1432 24.2722 14.0449 24.4408 16.4436 24.4408C18.9641 24.4408 20.9783 24.2628 22.5331 24.0286L22.5332 24.0286C23.2679 23.921 24.1574 23.7291 24.9145 23.5184C25.2931 23.4131 25.6382 23.3032 25.9141 23.197C26.1912 23.0903 26.3948 22.9887 26.4936 22.901L26.5123 22.9221H26.5404V23.1564C26.5404 23.163 26.5382 23.1693 26.534 23.1743C26.4982 23.2178 26.4408 23.262 26.366 23.3066C26.2908 23.3515 26.1963 23.3978 26.0847 23.4451C25.8615 23.5398 25.5679 23.6392 25.2193 23.739C24.5219 23.9385 23.602 24.1403 22.5794 24.3092L22.5788 24.3093C20.547 24.6013 18.4961 24.7393 16.4436 24.7221C14.4973 24.7386 12.5527 24.6038 10.6274 24.3187C9.18903 24.1524 7.78353 23.7726 6.45727 23.1916C6.44704 23.1871 6.44043 23.177 6.44043 23.1658V22.8939C6.44043 22.8836 6.44611 22.8741 6.45522 22.8692ZM26.4842 22.9805C26.3676 23.0653 26.1754 23.1567 25.9343 23.2495C25.6561 23.3566 25.3092 23.467 24.9296 23.5726C24.1704 23.7838 23.2786 23.9763 22.5414 24.0843C20.9837 24.3189 18.9667 24.4971 16.4436 24.4971C14.0422 24.4971 12.1377 24.3282 10.655 24.103L10.6548 24.103C10.2418 24.0373 9.42066 23.8918 8.5888 23.6877C7.78399 23.4902 6.96456 23.2367 6.49668 22.9454V23.1474C7.81301 23.7221 9.20742 24.098 10.6343 24.2629L10.6352 24.263L10.6352 24.263C12.5578 24.5477 14.4998 24.6824 16.4433 24.6658H16.4438C18.4935 24.6831 20.5416 24.5453 22.5705 24.2536C23.5915 24.085 24.509 23.8837 25.2038 23.6849C25.5512 23.5854 25.8424 23.4868 26.0627 23.3933C26.1729 23.3466 26.2649 23.3014 26.3372 23.2583C26.4048 23.2179 26.4537 23.1803 26.4842 23.146V22.9805ZM25.2115 27.1409C25.2198 27.1503 25.2209 27.164 25.2142 27.1746L24.6329 28.0934C24.6302 28.0978 24.6262 28.1013 24.6215 28.1036C22.6184 29.0816 19.7719 29.3346 16.5194 29.4283L16.519 29.4283C13.7264 29.4731 10.9482 29.0185 8.31542 28.0861C8.30951 28.084 8.30447 28.08 8.3011 28.0747L7.7386 27.1935C7.73242 27.1838 7.73274 27.1713 7.73941 27.162C7.74607 27.1526 7.75774 27.1483 7.76889 27.151C7.8642 27.1739 8.00255 27.2112 8.17979 27.2589C9.45273 27.6014 12.7318 28.4836 16.4804 28.5002C17.837 28.4994 19.671 28.3194 21.3365 28.0587C23.0068 27.7973 24.5029 27.4556 25.1783 27.1342C25.1897 27.1288 25.2032 27.1315 25.2115 27.1409ZM16.47 28.5564C16.4705 28.5564 16.4711 28.5564 16.4717 28.5564C16.4746 28.5564 16.4776 28.5564 16.4805 28.5564M16.47 28.5564C12.7173 28.5382 9.4351 27.6549 8.16478 27.3131C8.02676 27.2759 7.9125 27.2452 7.82396 27.2226L8.34331 28.0363C10.967 28.9643 13.7353 29.4167 16.518 29.3721C19.7677 29.2784 22.5994 29.0256 24.5897 28.0565L25.1162 27.2242C24.3976 27.5378 22.9477 27.8635 21.3452 28.1143C19.6784 28.3751 17.8418 28.5556 16.4814 28.5564" fill="black"/>
<path fill-rule="evenodd" clip-rule="evenodd" d="M24.8344 27.8715C24.749 27.998 24.6615 28.123 24.5719 28.2465C23.6344 28.584 22.1344 28.9402 21.5156 29.034C19.8553 29.3434 18.1702 29.5003 16.4813 29.5027C12.6938 29.4465 9.59063 28.7059 8.1375 28.0684L8.01562 27.8715L8.03437 27.834L8.23125 27.9184C10.8994 28.8013 13.6896 29.26 16.5 29.2777C18.2625 29.2777 20.0156 29.0809 21.4313 28.8277C23.6063 28.3871 24.4875 28.059 24.7594 27.909L24.825 27.8715H24.8344ZM25.3313 27.0465C25.2695 27.1563 25.207 27.2657 25.1438 27.3746C24.6375 27.5621 23.2687 27.9559 21.2719 28.2371C19.9594 28.4152 19.1437 28.5934 16.5281 28.6402C13.5381 28.6102 10.5664 28.1686 7.69688 27.3277L7.59375 27.0934C10.5092 27.8991 13.5134 28.34 16.5375 28.4059C18.9281 28.359 19.95 28.1809 21.2531 28.0027C23.5781 27.6465 24.75 27.2527 25.0969 27.1496C25.0971 27.1434 25.0971 27.1371 25.0969 27.1309L25.3406 27.0371L25.3313 27.0465Z" fill="#FFFF00"/>
<path fill-rule="evenodd" clip-rule="evenodd" d="M25.364 27.0226C25.3713 27.0337 25.3697 27.0484 25.3603 27.0578L25.3537 27.0644C25.2925 27.1732 25.2306 27.2816 25.1679 27.3895C25.1646 27.3952 25.1595 27.3995 25.1533 27.4018C24.6448 27.5901 23.274 27.9843 21.2756 28.2657L21.2755 28.2658C21.0722 28.2933 20.8809 28.3209 20.6929 28.348C19.6669 28.496 18.7406 28.6295 16.5284 28.6691L16.5276 28.6691C13.535 28.6391 10.5608 28.1971 7.68877 27.3555C7.68081 27.3532 7.67428 27.3474 7.67094 27.3398L7.56781 27.1055C7.56344 27.0955 7.56518 27.084 7.57228 27.0757C7.57938 27.0675 7.59058 27.0641 7.60105 27.067C10.5141 27.8721 13.5158 28.3127 16.5373 28.3785C18.6661 28.3368 19.7081 28.1909 20.832 28.0336C20.969 28.0144 21.1073 27.995 21.2489 27.9757C23.3683 27.6509 24.5282 27.2951 24.9784 27.157C25.0125 27.1465 25.0426 27.1373 25.0686 27.1294C25.0695 27.1187 25.0764 27.1093 25.0866 27.1054L25.3303 27.0116C25.3427 27.0069 25.3568 27.0114 25.364 27.0226ZM25.2723 27.0942L25.1248 27.151C25.1248 27.1511 25.1248 27.1512 25.1248 27.1514C25.1244 27.1634 25.1163 27.1739 25.1047 27.1774C25.0743 27.1864 25.0376 27.1976 24.9944 27.2109C24.5434 27.3493 23.3806 27.706 21.2572 28.0313L21.2567 28.0314C21.1152 28.0507 20.9769 28.0701 20.8398 28.0893C19.715 28.2467 18.6703 28.393 16.5379 28.4348L16.5367 28.4348V28.4348C13.53 28.3693 10.543 27.9334 7.64313 27.137L7.71715 27.3052C10.5802 28.1429 13.5448 28.5829 16.5278 28.6129C18.7362 28.5733 19.6597 28.4402 20.685 28.2923C20.873 28.2652 21.0644 28.2376 21.2678 28.21C23.2508 27.9307 24.6129 27.5405 25.1243 27.3525C25.1741 27.2667 25.2234 27.1806 25.2723 27.0942ZM8.00902 27.8222C8.01568 27.8089 8.03157 27.8031 8.04526 27.8089L8.24103 27.8928C10.906 28.7746 13.6929 29.2327 16.4999 29.2504C18.2603 29.2504 20.0116 29.0537 21.4258 28.8009C23.6002 28.3604 24.4776 28.033 24.7454 27.8852C24.7455 27.8852 24.7455 27.8852 24.7456 27.8851L24.8108 27.8478C24.8151 27.8454 24.8199 27.8441 24.8248 27.8441H24.8342C24.8446 27.8441 24.8541 27.8499 24.859 27.8591C24.8639 27.8683 24.8633 27.8794 24.8575 27.888C24.772 28.0148 24.6843 28.14 24.5944 28.2638C24.5911 28.2684 24.5865 28.2718 24.5812 28.2737C23.6422 28.6118 22.1409 28.9684 21.5201 29.0625C19.8583 29.3721 18.1716 29.5292 16.4811 29.5316L16.4806 29.5316C12.6905 29.4754 9.58343 28.7343 8.12601 28.0949C8.12079 28.0926 8.11639 28.0888 8.11339 28.0839L7.99152 27.8871C7.98638 27.8788 7.98591 27.8684 7.99027 27.8597L8.00902 27.8222ZM8.04787 27.8712L8.15661 28.0469C9.6088 28.6817 12.7035 29.4193 16.4812 29.4754C18.1684 29.4729 19.8517 29.3162 21.5103 29.0071L21.5112 29.0069L21.5112 29.007C22.1264 28.9137 23.6178 28.5597 24.554 28.2237C24.6203 28.1323 24.6854 28.0401 24.7493 27.947C24.4484 28.1044 23.5533 28.4273 21.4366 28.8561L21.436 28.8562C20.0191 29.1096 18.2643 29.3066 16.4998 29.3066L16.4996 29.3066C13.6863 29.2889 10.8932 28.8297 8.22222 27.9458C8.22146 27.9456 8.22071 27.9453 8.21998 27.945L8.04787 27.8712Z" fill="black"/>
<path fill-rule="evenodd" clip-rule="evenodd" d="M25.3873 22.275C25.3967 25.0875 23.9529 27.6187 22.7998 28.725C21.0967 30.386 18.8223 31.332 16.4436 31.3687C13.6029 31.4156 10.9311 29.5688 10.2092 28.7531C8.59428 27.0406 7.67516 24.7879 7.63107 22.4344C7.79982 19.3594 9.00919 17.2219 10.7529 15.75C12.4469 14.3555 14.5777 13.6021 16.7717 13.6219C18.0524 13.684 19.3061 14.0129 20.4523 14.5876C21.5985 15.1624 22.6121 15.9702 23.4279 16.9594C24.5998 18.3844 25.1154 19.9313 25.3873 22.275ZM16.4623 12.6563C19.085 12.6562 21.6013 13.6929 23.4628 15.5403C25.3243 17.3878 26.38 19.8962 26.3998 22.5187C26.3998 23.8201 26.1435 25.1086 25.6455 26.3109C25.1475 27.5132 24.4176 28.6056 23.4974 29.5257C22.5773 30.4459 21.4849 31.1758 20.2826 31.6738C19.0803 32.1718 17.7918 32.4281 16.4904 32.4281C15.1891 32.4281 13.9006 32.1718 12.6983 31.6738C11.496 31.1758 10.4036 30.4459 9.48346 29.5257C8.56329 28.6056 7.83337 27.5132 7.33538 26.3109C6.83738 25.1086 6.58107 23.8201 6.58107 22.5187C6.57169 17.0812 11.0154 12.6563 16.4623 12.6563Z" fill="#FFFF00"/>
<path fill-rule="evenodd" clip-rule="evenodd" d="M23.4428 15.5601C21.5866 13.7179 19.0773 12.6841 16.4621 12.6842C11.0307 12.6842 6.59965 17.0967 6.609 22.5185L6.609 22.5186C6.609 23.8162 6.86458 25.1011 7.36116 26.2999C7.85774 27.4988 8.58559 28.5881 9.50315 29.5057C10.4207 30.4232 11.51 31.1511 12.7089 31.6476C13.9077 32.1442 15.1926 32.3998 16.4902 32.3998C17.7879 32.3998 19.0728 32.1442 20.2716 31.6476C21.4705 31.1511 22.5598 30.4232 23.4773 29.5057C24.3949 28.5881 25.1228 27.4988 25.6193 26.2999C26.1159 25.1011 26.3715 23.8162 26.3715 22.5186C26.3517 19.9035 25.299 17.4023 23.4428 15.5601ZM16.4621 12.6279C19.0922 12.6279 21.6157 13.6675 23.4824 15.5202C25.3492 17.3728 26.4079 19.8883 26.4277 22.5183V22.5186C26.4277 23.8236 26.1707 25.1158 25.6713 26.3215C25.1719 27.5271 24.4399 28.6226 23.5171 29.5454C22.5943 30.4682 21.4988 31.2002 20.2932 31.6996C19.0875 32.199 17.7953 32.4561 16.4902 32.4561C15.1852 32.4561 13.893 32.199 12.6873 31.6996C11.4817 31.2002 10.3862 30.4682 9.46338 29.5454C8.54059 28.6226 7.8086 27.5271 7.3092 26.3215C6.80979 25.1158 6.55275 23.8236 6.55275 22.5186C6.54336 17.0654 10.9998 12.6279 16.4621 12.6279ZM16.7707 13.6498C14.5836 13.6302 12.4594 14.3813 10.7708 15.7714C9.03338 17.238 7.82756 19.3678 7.65901 22.4347C7.70322 24.7808 8.61958 27.0264 10.2295 28.7336L10.2301 28.7343L10.2301 28.7343C10.5879 29.1387 11.4331 29.8023 12.5443 30.359C13.655 30.9156 15.0286 31.3638 16.4429 31.3404H16.4429C18.8145 31.3038 21.082 30.3607 22.78 28.7047L22.7802 28.7045C23.9281 27.6032 25.3678 25.0798 25.359 22.2765C25.0874 19.9366 24.573 18.3961 23.4061 16.9771C22.5927 15.9909 21.5822 15.1856 20.4395 14.6126C19.2969 14.0397 18.0473 13.7118 16.7707 13.6498ZM25.3871 22.2748L25.4151 22.2716C25.1428 19.9248 24.626 18.372 23.4495 16.9413L23.4494 16.9413C22.6311 15.9491 21.6144 15.1388 20.4647 14.5623C19.315 13.9858 18.0575 13.6559 16.7729 13.5936L16.7729 13.5936L16.7718 13.5936C14.5712 13.5737 12.4339 14.3294 10.7349 15.7281L10.7346 15.7283C8.98475 17.2053 7.77195 19.3501 7.60279 22.4326C7.60275 22.4333 7.60274 22.434 7.60275 22.4347C7.64697 24.795 8.56871 27.0543 10.1882 28.7719C10.5524 29.1832 11.4039 29.8506 12.5191 30.4093C13.6349 30.9684 15.0176 31.4202 16.4438 31.3967C18.8297 31.3599 21.1109 30.4111 22.8191 28.7451C22.8191 28.7451 22.8191 28.7451 22.8191 28.7451L22.7996 28.7248L22.8193 28.7449C22.8192 28.745 22.8192 28.745 22.8191 28.7451" fill="black"/>
<path fill-rule="evenodd" clip-rule="evenodd" d="M16.4902 12.6094C21.9465 12.6094 26.3902 17.0531 26.3902 22.5094C26.3902 27.9656 21.9465 32.4094 16.4996 32.4094C11.0527 32.4094 6.59961 27.9656 6.59961 22.5094C6.59961 17.0531 11.0434 12.6094 16.4996 12.6094H16.4902ZM6.80586 22.5C6.80586 27.825 11.184 32.1844 16.4902 32.1844C21.7965 32.1844 26.1746 27.825 26.1746 22.5C26.1746 17.175 21.7965 12.8156 16.4902 12.8156C11.184 12.8156 6.80586 17.175 6.80586 22.5Z" fill="#FFFF00"/>
<path fill-rule="evenodd" clip-rule="evenodd" d="M16.4947 12.6373C11.0562 12.6399 6.62754 17.07 6.62754 22.5092C6.62754 27.9499 11.0681 32.3811 16.4994 32.3811C21.9307 32.3811 26.3619 27.9499 26.3619 22.5092C26.3619 17.07 21.9333 12.6399 16.4947 12.6373ZM16.4999 12.5811C21.9672 12.5864 26.4182 17.0407 26.4182 22.5092C26.4182 27.9809 21.9618 32.4373 16.4994 32.4373C11.037 32.4373 6.57129 27.981 6.57129 22.5092C6.57129 17.0407 11.0223 12.5864 16.4895 12.5811C16.4897 12.5811 16.4899 12.5811 16.49 12.5811H16.4994C16.4996 12.5811 16.4998 12.5811 16.4999 12.5811ZM6.77754 22.4998C6.77754 17.1592 11.1683 12.7873 16.49 12.7873C21.8118 12.7873 26.2025 17.1592 26.2025 22.4998C26.2025 27.8404 21.8118 32.2123 16.49 32.2123C11.1683 32.2123 6.77754 27.8404 6.77754 22.4998ZM16.49 12.8436C11.1993 12.8436 6.83379 17.1904 6.83379 22.4998C6.83379 27.8092 11.1993 32.1561 16.49 32.1561C21.7808 32.1561 26.1463 27.8092 26.1463 22.4998C26.1463 17.1904 21.7808 12.8436 16.49 12.8436Z" fill="black"/>
<path fill-rule="evenodd" clip-rule="evenodd" d="M16.5002 13.4346C18.9023 13.442 21.2038 14.3995 22.9024 16.098C24.6009 17.7966 25.5584 20.0981 25.5658 22.5002C25.5584 24.9031 24.6012 27.2057 22.9029 28.9057C21.2047 30.6057 18.9031 31.5653 16.5002 31.5752C11.5314 31.5752 7.43457 27.4877 7.43457 22.5002C7.44444 20.0989 8.40274 17.7987 10.1007 16.1007C11.7987 14.4027 14.0989 13.4444 16.5002 13.4346ZM7.6502 22.5002C7.6502 27.3752 11.6439 31.3502 16.5002 31.3502C21.3564 31.3502 25.3502 27.3658 25.3502 22.5002C25.3502 17.6252 21.3564 13.6502 16.5002 13.6502C14.1561 13.6601 11.9108 14.5956 10.2532 16.2532C8.59564 17.9108 7.66007 20.1561 7.6502 22.5002Z" fill="#FFFF00"/>
<path fill-rule="evenodd" clip-rule="evenodd" d="M22.8823 16.1177C21.189 14.4245 18.8946 13.4699 16.5 13.4625C14.1062 13.4724 11.8132 14.4277 10.1204 16.1204C8.42769 17.8132 7.47236 20.1062 7.4625 22.5001C7.46253 27.472 11.5467 31.5468 16.4999 31.5469C18.8954 31.537 21.1898 30.5804 22.8829 28.8856C24.5758 27.1909 25.5301 24.8955 25.5375 22.5C25.5301 20.1054 24.5755 17.811 22.8823 16.1177ZM16.5 13.4344L16.5001 13.4062C18.9096 13.4137 21.2183 14.3742 22.9221 16.0779C24.6258 17.7817 25.5863 20.0904 25.5938 22.4999V22.5001C25.5863 24.9104 24.6262 27.2201 22.9226 28.9254C21.2191 30.6307 18.9105 31.5932 16.5001 31.6031H16.5C11.5157 31.6031 7.40625 27.503 7.40625 22.5L7.40625 22.4999C7.41615 20.0912 8.37741 17.7839 10.0807 16.0807C11.7839 14.3774 14.0912 13.4162 16.4999 13.4063L16.5 13.4344ZM16.5 13.6219C21.3717 13.6219 25.3781 17.6094 25.3781 22.5C25.3781 27.3812 21.3718 31.3781 16.5 31.3781C11.6283 31.3781 7.62188 27.3906 7.62188 22.5H7.65L7.62188 22.4999C7.63178 20.1483 8.57031 17.8959 10.2331 16.2331C11.8959 14.5703 14.1483 13.6318 16.4999 13.6219L16.5 13.6219ZM7.67813 22.5001C7.67816 27.3595 11.6593 31.3219 16.5 31.3219C21.3407 31.3219 25.3219 27.3501 25.3219 22.5C25.3219 17.6406 21.3408 13.6782 16.5001 13.6781C14.1634 13.688 11.9252 14.6206 10.2729 16.2729C8.62059 17.9252 7.68798 20.1634 7.67813 22.5001Z" fill="black"/>
<path fill-rule="evenodd" clip-rule="evenodd" d="M16.9029 12.5625H16.0498V32.4656H16.8936L16.9029 12.5625Z" fill="#FFFF00"/>
<path fill-rule="evenodd" clip-rule="evenodd" d="M16.0215 12.5623C16.0215 12.5468 16.0341 12.5342 16.0496 12.5342H16.9027C16.9102 12.5342 16.9174 12.5371 16.9226 12.5424C16.9279 12.5477 16.9309 12.5549 16.9309 12.5623L16.9215 32.4654C16.9215 32.481 16.9089 32.4936 16.8934 32.4936H16.0496C16.0341 32.4936 16.0215 32.481 16.0215 32.4654V12.5623ZM16.0777 12.5904V32.4373H16.8652L16.8746 12.5904H16.0777Z" fill="black"/>
<path fill-rule="evenodd" clip-rule="evenodd" d="M16.8096 12.4502H17.0252V32.5783H16.8189V12.4502H16.8096ZM15.9658 12.4502H16.1908V32.5783H15.9752V12.4502H15.9658Z" fill="#FFFF00"/>
<path fill-rule="evenodd" clip-rule="evenodd" d="M15.9375 12.45C15.9375 12.4345 15.9501 12.4219 15.9656 12.4219H16.1906C16.2062 12.4219 16.2187 12.4345 16.2187 12.45V32.5781C16.2187 32.5937 16.2062 32.6063 16.1906 32.6063H15.975C15.9595 32.6063 15.9469 32.5937 15.9469 32.5781V12.471C15.9411 12.4658 15.9375 12.4583 15.9375 12.45ZM16.0031 12.4781V32.55H16.1625V12.4781H16.0031ZM16.7812 12.45C16.7812 12.4345 16.7938 12.4219 16.8094 12.4219H17.025C17.0405 12.4219 17.0531 12.4345 17.0531 12.45V32.5781C17.0531 32.5937 17.0405 32.6063 17.025 32.6063H16.8187C16.8032 32.6063 16.7906 32.5937 16.7906 32.5781V12.471C16.7849 12.4658 16.7812 12.4583 16.7812 12.45ZM16.8469 12.4781V32.55H16.9969V12.4781H16.8469Z" fill="black"/>
<path fill-rule="evenodd" clip-rule="evenodd" d="M26.3996 22.8937V22.1625L25.7996 21.6L22.3965 20.7L17.5027 20.2031L11.5965 20.5031L7.39648 21.4969L6.55273 22.125V22.8656L8.69961 21.9L13.7996 21.1031H18.7027L22.3027 21.4969L24.7965 22.0969L26.3996 22.8937Z" fill="#FFFF00"/>
<path fill-rule="evenodd" clip-rule="evenodd" d="M17.5011 20.1748C17.5025 20.1748 17.504 20.1748 17.5054 20.1749L22.3991 20.6718C22.4006 20.672 22.4021 20.6722 22.4035 20.6726L25.8066 21.5726C25.8111 21.5738 25.8153 21.5761 25.8187 21.5793L26.4186 22.1418C26.4243 22.1471 26.4275 22.1545 26.4275 22.1623V22.8936C26.4275 22.9033 26.4225 22.9123 26.4142 22.9175C26.406 22.9226 26.3956 22.9231 26.3869 22.9187L24.7866 22.1233L22.2977 21.5244L18.701 21.1311H13.8016L8.7075 21.927L6.56408 22.8911C6.55537 22.895 6.54528 22.8942 6.53727 22.889C6.52925 22.8839 6.52441 22.875 6.52441 22.8654V22.1248C6.52441 22.1159 6.52862 22.1076 6.53574 22.1022L7.37949 21.4741C7.38257 21.4718 7.38608 21.4702 7.38981 21.4693L11.5898 20.4756C11.5915 20.4752 11.5932 20.4749 11.5949 20.4748L17.5011 20.1748ZM11.6003 20.5309L7.40842 21.5227L6.58066 22.1389V22.8219L8.68788 21.8742C8.69017 21.8731 8.69259 21.8724 8.69507 21.872L13.7951 21.0751C13.7965 21.0749 13.798 21.0748 13.7994 21.0748H18.7025C18.7029 21.0748 18.7033 21.0748 18.7038 21.0748C18.7044 21.0749 18.705 21.0749 18.7056 21.075L22.3056 21.4687C22.3068 21.4689 22.308 21.4691 22.3091 21.4693L24.8029 22.0693C24.8049 22.0698 24.8069 22.0706 24.8088 22.0715L26.3713 22.8482V22.1745L25.7854 21.6252L22.3912 20.7276L17.5018 20.2311L11.6003 20.5309Z" fill="black"/>
<path fill-rule="evenodd" clip-rule="evenodd" d="M16.5 20.9817C18.8344 20.9817 21.0937 21.1974 22.9031 21.5442C24.7594 21.9192 26.0625 22.388 26.5125 22.9036V23.1661C25.9687 22.5099 24.2156 22.0411 22.8562 21.7599C21.075 21.4224 18.825 21.1974 16.4906 21.1974C14.0437 21.1974 11.7563 21.4411 9.99375 21.7786C8.5875 22.0599 6.70312 22.6224 6.46875 23.1661V22.8942C6.59062 22.5192 7.99688 21.9567 9.96563 21.5536C11.7375 21.2067 14.025 20.9817 16.4906 20.9817H16.5ZM16.5 20.1286C18.6469 20.1243 20.7899 20.3126 22.9031 20.6911C24.7594 21.0661 26.0625 21.5349 26.5125 22.0599V22.313C25.9687 21.6661 24.2156 21.188 22.8562 20.9161C21.075 20.5692 18.825 20.3536 16.4906 20.3536C14.3148 20.3467 12.1431 20.5413 10.0031 20.9349C8.64375 21.188 6.68437 21.7692 6.46875 22.313V22.0505C6.6 21.6755 8.025 21.0849 9.96563 20.7099C11.7469 20.363 14.025 20.1286 16.5 20.1286ZM16.4437 15.7974C20.1281 15.7786 23.3438 16.313 24.8156 17.063L25.35 18.0005C24.075 17.3067 20.6062 16.5942 16.4531 16.688C13.0688 16.7161 9.45 17.063 7.64062 18.038L8.27813 16.9692C9.76875 16.1911 13.275 15.7974 16.4437 15.7974Z" fill="#FFFF00"/>
<path fill-rule="evenodd" clip-rule="evenodd" d="M21.4549 16.1695C20.0081 15.9447 18.2846 15.8159 16.4437 15.8253C16.4436 15.8253 16.4436 15.8253 16.4436 15.8253M21.4549 16.1695C22.8974 16.3936 24.0627 16.7127 24.7952 17.084L21.4549 16.1695ZM24.7952 17.084L25.2778 17.9307C24.6189 17.5964 23.4655 17.2634 21.9852 17.021C20.4378 16.7676 18.5307 16.6128 16.4525 16.6597C14.7596 16.6737 13.0076 16.7675 11.4523 16.9798C9.94725 17.1853 8.62362 17.502 7.71569 17.9665L8.298 16.9903C9.0395 16.6055 10.2812 16.3142 11.7352 16.1192C13.1927 15.9237 14.8601 15.8253 16.4434 15.8253M16.4435 15.769C14.8581 15.769 13.1881 15.8675 11.7277 16.0634C10.2683 16.2592 9.01487 16.5526 8.26491 16.9441C8.2603 16.9465 8.25644 16.9502 8.25378 16.9546L7.61628 18.0234C7.60979 18.0342 7.61137 18.0481 7.62011 18.0572C7.62886 18.0664 7.64263 18.0685 7.65377 18.0625C8.55386 17.5775 9.90676 17.2476 11.4599 17.0356C13.0122 16.8237 14.7617 16.73 16.4532 16.7159L16.4536 16.7159C18.5284 16.6691 20.4321 16.8236 21.9761 17.0765C23.5209 17.3295 24.7031 17.6804 25.3364 18.025C25.3474 18.031 25.3611 18.0289 25.3699 18.02C25.3787 18.011 25.3805 17.9973 25.3742 17.9864L24.8399 17.0489C24.8371 17.0441 24.8331 17.0402 24.8282 17.0377C24.0883 16.6607 22.913 16.3391 21.4635 16.1139C20.0134 15.8886 18.287 15.7597 16.4435 15.769ZM22.8977 20.7185C20.7862 20.3403 18.645 20.1522 16.4999 20.1565L16.4998 20.1284V20.1565C14.0265 20.1565 11.7501 20.3908 9.97081 20.7373L9.97077 20.7373C9.00173 20.9245 8.16204 21.1655 7.54875 21.4062C7.24202 21.5265 6.99268 21.6465 6.81232 21.7592C6.72213 21.8156 6.6498 21.8697 6.59631 21.9207C6.54443 21.9702 6.51178 22.0154 6.49668 22.0552V22.2064C6.52627 22.166 6.56379 22.1261 6.60787 22.0868C6.68666 22.0167 6.78796 21.9473 6.90661 21.8793C7.14391 21.7432 7.45327 21.611 7.79739 21.4882C8.48579 21.2427 9.31696 21.0338 9.99778 20.907L9.99784 20.907C12.1395 20.5131 14.313 20.3184 16.4905 20.3253C18.8264 20.3253 21.0782 20.541 22.8614 20.8883L22.8616 20.8883C23.5419 21.0244 24.3214 21.2122 24.9992 21.4471C25.3382 21.5646 25.6522 21.6941 25.916 21.835C26.15 21.96 26.3457 22.0948 26.4842 22.2394V22.0701C26.2621 21.8162 25.8322 21.5724 25.2251 21.3454C24.613 21.1164 23.8249 20.9059 22.8977 20.7185ZM16.4997 20.1003C18.6483 20.096 20.793 20.2844 22.9079 20.6632L22.9085 20.6633C23.8374 20.851 24.6288 21.0623 25.2448 21.2927C25.8596 21.5227 26.3037 21.7731 26.5337 22.0414C26.538 22.0465 26.5404 22.0529 26.5404 22.0597V22.3128C26.5404 22.3246 26.533 22.3352 26.5219 22.3392C26.5108 22.3433 26.4984 22.3399 26.4908 22.3309C26.3582 22.1731 26.1502 22.024 25.8895 21.8847C25.6292 21.7455 25.3181 21.6172 24.9808 21.5003C24.3064 21.2665 23.5296 21.0793 22.8506 20.9435C21.0713 20.597 18.8232 20.3815 16.4904 20.3815H16.4903C14.3163 20.3747 12.1462 20.5691 10.008 20.9623C9.32948 21.0887 8.5013 21.2969 7.81628 21.5412C7.47369 21.6634 7.16781 21.7943 6.9346 21.9281C6.81799 21.9949 6.72022 22.0621 6.64528 22.1288C6.57011 22.1957 6.51941 22.2608 6.4947 22.3232C6.48972 22.3357 6.47654 22.3429 6.46328 22.3404C6.45002 22.3379 6.44043 22.3263 6.44043 22.3128V22.0503C6.44043 22.0471 6.44096 22.044 6.44201 22.041C6.4605 21.9882 6.50063 21.9343 6.55748 21.88C6.61463 21.8255 6.69032 21.7691 6.78251 21.7115C6.96689 21.5963 7.2197 21.4748 7.5282 21.3538C8.14538 21.1116 8.9885 20.8698 9.96009 20.682C11.7432 20.3348 14.0231 20.1003 16.4997 20.1003ZM16.4904 21.0097C14.0264 21.0097 11.7408 21.2345 9.97098 21.581C8.9877 21.7823 8.14559 22.0233 7.53459 22.2605C7.22899 22.3791 6.98203 22.4964 6.80435 22.6069C6.71551 22.6622 6.64465 22.7153 6.59258 22.7655C6.54198 22.8143 6.51066 22.859 6.49668 22.8987V23.0628C6.58004 22.9501 6.72371 22.8403 6.90641 22.7349C7.14002 22.6001 7.44322 22.4694 7.78206 22.3473C8.45991 22.1029 9.28399 21.8916 9.98804 21.7508L9.98827 21.7508C11.7525 21.4129 14.0418 21.169 16.4904 21.169C18.8265 21.169 21.0782 21.3942 22.8613 21.732L22.8618 21.7321C23.5419 21.8728 24.3214 22.0606 24.9992 22.2956C25.3382 22.4131 25.6523 22.5425 25.9161 22.6841C26.15 22.8096 26.3457 22.9453 26.4842 23.0918V22.914C26.262 22.6646 25.8321 22.4232 25.2251 22.1973C24.613 21.9695 23.8248 21.759 22.8975 21.5716C21.0901 21.2251 18.8326 21.0097 16.4998 21.0097H16.4904ZM9.96003 21.5258C11.7339 21.1785 14.0232 20.9534 16.4904 20.9534H16.4998C18.8358 20.9534 21.0969 21.1692 22.9082 21.5164L22.9085 21.5165C23.8374 21.7041 24.6288 21.9154 25.2448 22.1446C25.8596 22.3734 26.3036 22.6215 26.5335 22.8849C26.538 22.89 26.5404 22.8966 26.5404 22.9034V23.1659C26.5404 23.1778 26.533 23.1883 26.5218 23.1924C26.5107 23.1964 26.4982 23.193 26.4906 23.1839C26.358 23.0238 26.1501 22.8735 25.8895 22.7337C25.6292 22.594 25.3181 22.4656 24.9808 22.3487C24.3064 22.115 23.5297 21.9278 22.8506 21.7872C21.0712 21.4501 18.823 21.2253 16.4904 21.2253C14.0453 21.2253 11.7597 21.4689 9.99895 21.806C9.29677 21.9465 8.47559 22.157 7.80114 22.4002C7.46382 22.5218 7.16408 22.6512 6.93451 22.7836C6.7034 22.9169 6.54906 23.0502 6.49438 23.177C6.4891 23.1893 6.47594 23.1961 6.46287 23.1935C6.4498 23.1908 6.44043 23.1793 6.44043 23.1659V22.894C6.44043 22.8911 6.44089 22.8881 6.44181 22.8853C6.45905 22.8323 6.49794 22.7787 6.55353 22.7251C6.60938 22.6712 6.68376 22.6157 6.77465 22.5592C6.95644 22.4461 7.20695 22.3273 7.51424 22.208C8.129 21.9694 8.97436 21.7276 9.95979 21.5259L9.96003 21.5258Z" fill="black"/>
<path fill-rule="evenodd" clip-rule="evenodd" d="M16.5002 16.566C18.4239 16.5336 20.3468 16.6685 22.2471 16.9692C23.7471 17.2504 25.1814 17.6629 25.3877 17.8879L25.5471 18.1692C25.0502 17.8504 23.8033 17.4848 22.2096 17.1848C20.6158 16.8848 18.5814 16.7817 16.4908 16.791C14.1189 16.7817 12.2721 16.9035 10.6971 17.1848C9.61135 17.337 8.55722 17.663 7.5752 18.1504L7.73457 17.8598C8.29707 17.5785 9.16895 17.2317 10.6502 16.9598C12.2908 16.6598 14.1564 16.5754 16.5002 16.566ZM16.5002 15.7223C18.5064 15.7035 20.4939 15.816 22.0408 16.0973C23.043 16.2461 24.0129 16.563 24.9096 17.0348L25.1439 17.4098C24.7502 16.9692 23.2689 16.5473 21.9471 16.3223C20.4096 16.0504 18.5064 15.9473 16.5002 15.9285C14.6326 15.9119 12.7669 16.0499 10.9221 16.341C9.95746 16.4755 9.02059 16.7635 8.14707 17.1942L8.35332 16.8848C8.89707 16.6035 9.77832 16.341 10.8846 16.1254C12.7415 15.8304 14.6201 15.6924 16.5002 15.7129V15.7223ZM21.4127 26.6254C19.7877 26.3441 18.1396 26.2185 16.4908 26.2504C10.3502 26.3254 8.37207 27.516 8.12832 27.8723L7.65957 27.1223C9.23457 25.9973 12.5721 25.3598 16.5283 25.416C18.5814 25.4535 20.3533 25.5942 21.8346 25.8848L21.4127 26.6348" fill="#FFFF00"/>
<path fill-rule="evenodd" clip-rule="evenodd" d="M10.8893 16.1529C9.78838 16.3675 8.91306 16.6282 8.37249 16.9063L8.22772 17.1234C9.07714 16.7165 9.98449 16.4431 10.9177 16.313C12.764 16.0216 14.6312 15.8836 16.5003 15.9002L16.5003 15.9002C18.507 15.919 20.4119 16.0221 21.9517 16.2944C22.6136 16.4071 23.3157 16.5691 23.902 16.7582C24.1951 16.8528 24.4599 16.9544 24.6764 17.0602C24.8088 17.1249 24.9242 17.1917 25.0171 17.26L24.8896 17.056C23.9976 16.5876 23.0331 16.2729 22.0365 16.1249L22.0356 16.1248L22.0356 16.1248C20.4911 15.844 18.5056 15.7315 16.5003 15.7502C16.4928 15.7503 16.4855 15.7474 16.4802 15.7421C16.4797 15.7416 16.4793 15.7411 16.4788 15.7406C14.6074 15.7214 12.7377 15.8593 10.8893 16.1529ZM16.5208 15.6938C16.5157 15.6882 16.5084 15.6847 16.5003 15.6846C14.6186 15.6641 12.7385 15.8022 10.88 16.0975L10.88 16.0974L10.879 16.0976C9.772 16.3134 8.88758 16.5765 8.3402 16.8596C8.33597 16.8618 8.33237 16.865 8.32972 16.869L8.12347 17.1784C8.11642 17.189 8.11734 17.203 8.12574 17.2125C8.13413 17.2221 8.1479 17.2248 8.15931 17.2192C9.03014 16.7898 9.96412 16.5027 10.9258 16.3687L10.9258 16.3687L10.9263 16.3686C12.7695 16.0777 14.6337 15.9398 16.4997 15.9565C18.5055 15.9752 20.4068 16.0783 21.942 16.3498L21.9422 16.3498C22.6021 16.4622 23.3015 16.6236 23.8847 16.8118C24.1763 16.9058 24.4384 17.0065 24.6517 17.1107C24.8656 17.2152 25.028 17.3223 25.1228 17.4283C25.1325 17.4392 25.149 17.4409 25.1606 17.4321C25.1723 17.4233 25.1753 17.4071 25.1676 17.3947L24.9332 17.0197C24.9306 17.0155 24.9269 17.012 24.9225 17.0097C24.0231 16.5366 23.0504 16.2186 22.0452 16.0694C20.5014 15.7887 18.5206 15.676 16.5208 15.6938ZM22.2421 16.9967C20.3435 16.6963 18.4224 16.5615 16.5005 16.594L16.5 16.5659L16.5001 16.594C14.1567 16.6034 12.2931 16.6877 10.6551 16.9873C9.18315 17.2574 8.31505 17.6015 7.75481 17.8808L7.6424 18.0858C8.60417 17.6188 9.63331 17.3053 10.6924 17.1568C12.2696 16.8752 14.1181 16.7534 16.4906 16.7627C18.5818 16.7534 20.6182 16.8565 22.2146 17.157C23.0121 17.3071 23.7232 17.4737 24.2974 17.6428C24.8063 17.7926 25.2096 17.945 25.47 18.0904L25.3647 17.9045C25.3417 17.8804 25.3009 17.8519 25.2415 17.8199C25.1809 17.7873 25.1032 17.752 25.0103 17.7149C24.8245 17.6407 24.58 17.5595 24.2945 17.4765C23.7237 17.3104 22.9912 17.1372 22.2421 16.9967ZM16.4997 16.5377C14.1557 16.5471 12.2881 16.6315 10.6449 16.9319L10.6449 16.9319C9.16124 17.2043 8.28682 17.5519 7.7218 17.8344C7.71668 17.837 7.71247 17.8411 7.70971 17.8461L7.55034 18.1367C7.54443 18.1475 7.5462 18.1608 7.55471 18.1697C7.56322 18.1786 7.5765 18.1809 7.5875 18.1754C8.56683 17.6894 9.61805 17.3642 10.7008 17.2125L10.7008 17.2125L10.7018 17.2123C12.2745 16.9315 14.1195 16.8096 16.4905 16.819H16.4908C18.5807 16.8096 20.613 16.9127 22.2042 17.2122C23.0004 17.3621 23.7096 17.5283 24.2815 17.6967C24.8542 17.8654 25.2868 18.0356 25.5317 18.1927C25.5426 18.1996 25.5568 18.1983 25.5662 18.1894C25.5756 18.1805 25.5777 18.1664 25.5713 18.1551L25.412 17.8739C25.4109 17.872 25.4097 17.8703 25.4082 17.8687C25.3792 17.837 25.3308 17.8042 25.2682 17.7704C25.205 17.7364 25.1252 17.7003 25.0311 17.6627C24.8431 17.5875 24.5966 17.5058 24.3102 17.4224C23.7373 17.2557 23.0028 17.0821 22.2521 16.9413L22.2521 16.9413L22.2513 16.9412C20.3494 16.6403 18.425 16.5053 16.4997 16.5377ZM7.69729 27.1297L8.13056 27.8229C8.21033 27.7291 8.37963 27.5992 8.66118 27.4539C8.97898 27.29 9.44293 27.1047 10.0907 26.9286C11.3861 26.5762 13.4183 26.2596 16.4902 26.2221C16.4903 26.2221 16.4903 26.2221 16.4903 26.2221L16.4906 26.2502L16.4901 26.2221C16.4901 26.2221 16.4902 26.2221 16.4902 26.2221C18.1358 26.1903 19.7806 26.3151 21.4025 26.595L21.388 26.6208C21.3827 26.6302 21.3834 26.6412 21.3887 26.6497C19.7717 26.3709 18.1318 26.2466 16.4912 26.2783L16.491 26.2784C13.4223 26.3158 11.3951 26.6321 10.1054 26.9828C9.46059 27.1582 9.00051 27.3421 8.68697 27.5039C8.37217 27.6664 8.20815 27.805 8.15134 27.888C8.14598 27.8958 8.13703 27.9004 8.12754 27.9002C8.11805 27.9 8.1093 27.8951 8.10428 27.887L7.63553 27.137C7.62765 27.1244 7.63094 27.1079 7.64303 27.0992C8.43534 26.5333 9.66809 26.0917 11.1955 25.7984C12.7235 25.505 14.5489 25.3596 16.5285 25.3877L16.5286 25.3877C18.5826 25.4252 20.3563 25.5659 21.8398 25.857C21.8486 25.8587 21.8561 25.8646 21.8599 25.8728C21.8637 25.881 21.8633 25.8905 21.8589 25.8984L21.437 26.6484C21.4294 26.6619 21.4122 26.6667 21.3987 26.6591C21.3945 26.6568 21.3912 26.6535 21.3887 26.6497M21.7908 25.9048L21.4025 26.595L21.7908 25.9048ZM21.7908 25.9048C21.8035 25.9072 21.8163 25.9097 21.829 25.9122L21.8344 25.8846L21.8099 25.8708L21.7908 25.9048ZM21.7908 25.9048C20.3196 25.6196 18.5624 25.4811 16.5277 25.444L16.5281 25.4159L16.5276 25.444C16.5276 25.444 16.5277 25.444 16.5277 25.444C14.5511 25.4159 12.7296 25.5611 11.2061 25.8536C9.69584 26.1436 8.48079 26.5779 7.69729 27.1297" fill="black"/>
<path fill-rule="evenodd" clip-rule="evenodd" d="M16.4621 26.1467C18.1684 26.1748 19.8371 26.2404 21.459 26.5404L21.3465 26.7467C19.8465 26.4654 18.234 26.3717 16.4715 26.3717C14.1934 26.3529 11.9059 26.5686 9.90898 27.1404C9.28086 27.3186 8.24023 27.7217 8.12773 28.0592L8.01523 27.8717C8.05273 27.6654 8.67149 27.2529 9.85274 26.9342C12.1402 26.2779 14.2777 26.1561 16.4621 26.1467ZM16.5371 25.2842C18.338 25.2824 20.1356 25.4392 21.909 25.7529L21.7871 25.9686C20.0554 25.6509 18.2977 25.4971 16.5371 25.5092C14.2684 25.5092 11.859 25.6779 9.66524 26.3154C8.96211 26.5217 7.73399 26.9717 7.69649 27.3186L7.58398 27.1123C7.60273 26.7936 8.66211 26.3717 9.61836 26.0998C11.8215 25.4529 14.2402 25.2936 16.5371 25.2842Z" fill="#FFFF00"/>
<path fill-rule="evenodd" clip-rule="evenodd" d="M21.8647 25.7735C20.1057 25.4647 18.323 25.3103 16.537 25.3121C14.241 25.3215 11.8254 25.4809 9.62609 26.1266L9.62586 26.1267C9.14852 26.2624 8.64614 26.4354 8.26124 26.6138C8.06866 26.7031 7.90666 26.7932 7.79209 26.8801C7.7348 26.9235 7.69025 26.9655 7.65969 27.0054C7.63144 27.0422 7.61625 27.0758 7.61256 27.1061L7.68872 27.2458C7.70146 27.2187 7.7194 27.1921 7.74127 27.1661C7.78187 27.1177 7.83769 27.0693 7.90446 27.0214C8.03803 26.9257 8.21893 26.8296 8.41942 26.7385C8.82064 26.5561 9.30481 26.3916 9.65712 26.2883L9.65719 26.2882C11.8546 25.6497 14.267 25.4809 16.5368 25.4809C18.2924 25.4688 20.0453 25.6216 21.7723 25.9371L21.8647 25.7735ZM16.5369 25.284L16.5369 25.2559C18.3395 25.254 20.1387 25.411 21.9137 25.7251C21.9227 25.7266 21.9303 25.7325 21.9342 25.7408C21.9381 25.749 21.9378 25.7586 21.9333 25.7666L21.8114 25.9822C21.8055 25.9927 21.7936 25.9982 21.7818 25.996C20.0519 25.6787 18.2959 25.5251 16.5371 25.5371L16.5369 25.5371C14.2693 25.5371 11.8629 25.7058 9.67291 26.3423C9.3221 26.4452 8.84067 26.6088 8.44269 26.7897C8.24357 26.8802 8.06646 26.9745 7.93724 27.0672C7.87261 27.1135 7.82084 27.1588 7.78435 27.2022C7.74769 27.2459 7.72811 27.2857 7.72425 27.3214C7.72293 27.3336 7.71382 27.3436 7.70176 27.346C7.6897 27.3484 7.67749 27.3426 7.6716 27.3318L7.5591 27.1256C7.55658 27.121 7.5554 27.1157 7.55571 27.1105C7.5585 27.063 7.58043 27.0163 7.61504 26.9711C7.64974 26.9259 7.6985 26.8805 7.75811 26.8353C7.87732 26.7449 8.04345 26.6528 8.23758 26.5628C8.62609 26.3827 9.13148 26.2088 9.61036 26.0726C11.8173 25.4246 14.2391 25.2653 16.5368 25.2559L16.5369 25.284ZM16.4624 26.1184V26.1184C18.1688 26.1465 19.8396 26.2121 21.4639 26.5126C21.4728 26.5142 21.4803 26.52 21.4842 26.5282C21.4881 26.5363 21.4878 26.5458 21.4835 26.5537L21.371 26.76C21.3651 26.7707 21.3531 26.7764 21.3411 26.7741C19.8435 26.4933 18.2329 26.3996 16.4713 26.3996L16.4711 26.3996C14.1946 26.3809 11.91 26.5964 9.91653 27.1673L9.91646 27.1673C9.60352 27.2561 9.18781 27.4009 8.83674 27.5653C8.66114 27.6476 8.50259 27.7343 8.38134 27.821C8.25882 27.9086 8.17932 27.9926 8.15422 28.0679C8.15075 28.0783 8.14153 28.0858 8.13061 28.087C8.11969 28.0882 8.10907 28.0829 8.10342 28.0735L7.99092 27.886C7.98741 27.8801 7.98615 27.8732 7.98737 27.8665C7.99854 27.805 8.05061 27.7352 8.13317 27.6618C8.21698 27.5873 8.33668 27.5053 8.49134 27.4203C8.80075 27.2502 9.25288 27.0667 9.845 26.9069C12.1361 26.2496 14.2766 26.1278 16.4618 26.1184L16.4624 26.1184ZM16.4617 26.1746C14.2784 26.184 12.144 26.3059 9.8603 26.961L9.85987 26.9612L9.85987 26.9612C9.27084 27.1201 8.82304 27.3022 8.51843 27.4696C8.36606 27.5533 8.25021 27.633 8.17054 27.7038C8.09576 27.7703 8.0565 27.8258 8.04499 27.8667L8.12411 27.9986C8.16719 27.9226 8.24756 27.8475 8.34864 27.7752C8.47378 27.6858 8.63573 27.5974 8.81287 27.5144C9.16726 27.3484 9.58591 27.2026 9.90108 27.1132C11.9013 26.5404 14.1916 26.3246 16.4714 26.3434C18.2269 26.3434 19.8347 26.4363 21.3314 26.7151L21.4155 26.5609C19.8082 26.2674 18.1543 26.2025 16.4617 26.1746Z" fill="black"/>
<path fill-rule="evenodd" clip-rule="evenodd" d="M25.2564 27.2346L24.5252 28.3877L22.3971 26.5033L16.9033 22.8002L10.6971 19.3971L7.48145 18.3002L8.16582 17.0252L8.4002 16.9033L10.3971 17.4002L16.9971 20.8033L20.8033 23.2033L24.0002 25.5002L25.3033 27.0002L25.2564 27.2346Z" fill="#FFFF00"/>
<path fill-rule="evenodd" clip-rule="evenodd" d="M8.38702 16.8782C8.39311 16.875 8.40014 16.8742 8.40679 16.8758L10.4037 17.3727C10.4058 17.3732 10.4078 17.374 10.4098 17.375L17.0098 20.7781C17.0105 20.7785 17.0112 20.7789 17.0119 20.7793L20.8181 23.1793C20.8186 23.1796 20.8191 23.18 20.8195 23.1803L24.0164 25.4772C24.0182 25.4784 24.0198 25.4799 24.0212 25.4816L25.3244 26.9816C25.3301 26.9881 25.3324 26.997 25.3307 27.0055L25.2838 27.2399C25.2831 27.2433 25.2819 27.2465 25.28 27.2494L24.5488 28.4026C24.5443 28.4095 24.5371 28.4142 24.5289 28.4153C24.5208 28.4165 24.5125 28.414 24.5064 28.4086L22.3796 26.5254L16.8885 22.824L10.6855 19.4227L7.47217 18.3266C7.46435 18.324 7.4581 18.318 7.45508 18.3103C7.45205 18.3026 7.45256 18.294 7.45647 18.2867L8.14084 17.0117C8.14352 17.0067 8.14763 17.0027 8.15265 17L8.38702 16.8782ZM8.40354 16.933L8.1863 17.0459L7.52171 18.2841L10.706 19.3703C10.7075 19.3708 10.709 19.3714 10.7104 19.3722L16.9166 22.7753C16.9174 22.7758 16.9181 22.7762 16.9188 22.7767L22.4126 26.4798C22.4136 26.4805 22.4146 26.4813 22.4155 26.4821L24.5189 28.3446L25.2297 27.2237L25.2728 27.008L23.9809 25.5209L20.7874 23.2265L16.9829 20.8276L10.3869 17.4265L8.40354 16.933Z" fill="black"/>
<path fill-rule="evenodd" clip-rule="evenodd" d="M7.36895 18.3283C7.93145 17.9533 12.0752 19.7908 16.4252 22.4158C20.7471 25.0408 24.8908 28.0033 24.5158 28.5564L24.3939 28.7533L24.3377 28.8001C24.3471 28.7908 24.4127 28.7064 24.3377 28.5095C24.1502 27.9001 21.2064 25.5564 16.3408 22.6126C11.5877 19.7908 7.63145 18.0845 7.24707 18.572L7.36895 18.3283ZM25.4064 27.2251C25.7627 26.5126 21.9189 23.6158 17.1471 20.7939C12.2721 18.0283 8.74707 16.397 8.10019 16.8845L7.96895 17.1564C7.96895 17.1658 7.96894 17.1376 8.00644 17.1095C8.11894 17.0158 8.31582 17.0158 8.4002 17.0158C9.50645 17.0345 12.6658 18.4876 17.1002 21.0283C19.0502 22.1533 25.3127 26.1845 25.2846 27.3095C25.2846 27.4033 25.2939 27.422 25.2564 27.4783L25.4158 27.2345L25.4064 27.2251Z" fill="#FFFF00"/>
<path fill-rule="evenodd" clip-rule="evenodd" d="M11.0492 17.5934C12.622 18.2865 14.723 19.3863 17.1608 20.7692L17.1612 20.7695C19.5478 22.1808 21.7027 23.6111 23.2168 24.7781C23.9737 25.3614 24.5713 25.8796 24.9577 26.2972C25.1508 26.5059 25.2923 26.6906 25.3743 26.8467C25.4508 26.9923 25.4791 27.1199 25.4395 27.2194C25.4452 27.2286 25.4453 27.2404 25.4392 27.2497L25.2833 27.488C25.2822 27.4899 25.2809 27.4918 25.2797 27.4937C25.2711 27.5066 25.2537 27.5101 25.2408 27.5015C25.2278 27.493 25.2242 27.4756 25.2327 27.4627L25.2328 27.4625C25.234 27.4608 25.2351 27.4591 25.2361 27.4575C25.2504 27.4351 25.2547 27.4215 25.2564 27.405C25.2574 27.3951 25.2574 27.3836 25.2571 27.3678C25.2568 27.3524 25.2563 27.3331 25.2563 27.3093L25.2563 27.3086C25.2579 27.2446 25.237 27.1676 25.1933 27.0781C25.1496 26.9889 25.0841 26.889 24.9986 26.7799C24.8277 26.5616 24.5791 26.3087 24.2728 26.0323C23.6604 25.4797 22.8203 24.8359 21.9176 24.1916C20.1125 22.9031 18.0602 21.6145 17.086 21.0524C14.8692 19.7824 12.9716 18.7844 11.4902 18.1017C10.7495 17.7603 10.1132 17.4979 9.59338 17.3198C9.073 17.1414 8.67169 17.0484 8.39976 17.0437C8.35753 17.0437 8.28935 17.0438 8.21808 17.0551C8.14617 17.0665 8.07476 17.0888 8.02426 17.1309C8.02389 17.1312 8.02351 17.1315 8.02313 17.1318C8.00816 17.143 8.0015 17.1536 7.9986 17.1594C7.99715 17.1623 7.99646 17.1643 7.99603 17.1656C7.99596 17.1658 7.99558 17.167 7.99519 17.168C7.99508 17.1683 7.99418 17.1707 7.99258 17.1732C7.992 17.1741 7.98893 17.1789 7.98297 17.1824C7.97929 17.1845 7.97323 17.1868 7.96565 17.186C7.95792 17.1851 7.95232 17.1813 7.94894 17.1779C7.94363 17.1726 7.94201 17.1666 7.94172 17.1656C7.94171 17.1655 7.9417 17.1655 7.9417 17.1655C7.94116 17.1635 7.94095 17.162 7.94087 17.1613C7.9407 17.1599 7.94066 17.1587 7.94065 17.1584C7.94063 17.1575 7.94063 17.1566 7.94063 17.1562C7.94063 17.152 7.94158 17.1478 7.94343 17.144L8.07467 16.8721C8.07662 16.8681 8.0795 16.8646 8.08308 16.8619C8.17145 16.7953 8.305 16.7674 8.47507 16.7708C8.64592 16.7742 8.85807 16.8093 9.10792 16.8733C9.60773 17.0015 10.263 17.2468 11.0492 17.5934ZM25.3128 27.3402L25.3806 27.2365C25.3772 27.2289 25.3772 27.2201 25.3811 27.2124C25.4192 27.1362 25.4039 27.0241 25.3245 26.8729C25.2458 26.7231 25.1082 26.5426 24.9164 26.3354C24.5332 25.9213 23.9384 25.4053 23.1824 24.8226C21.6708 23.6576 19.518 22.2286 17.1328 20.818C14.6957 19.4354 12.5967 18.3368 11.0266 17.6448C10.2413 17.2988 9.58934 17.0548 9.09395 16.9278C8.84618 16.8643 8.63872 16.8303 8.47395 16.827C8.31236 16.8238 8.19597 16.8502 8.12229 16.9028L8.05314 17.0461C8.10261 17.0217 8.15769 17.0077 8.20927 16.9995C8.28529 16.9874 8.3574 16.9874 8.39961 16.9874H8.40048C8.68168 16.9922 9.09005 17.0878 9.61161 17.2666C10.1339 17.4455 10.772 17.7087 11.5137 18.0506C12.9972 18.7343 14.8964 19.7331 17.114 21.0037C18.0898 21.5666 20.1437 22.8562 21.9503 24.1458C22.8536 24.7906 23.6957 25.4358 24.3105 25.9906C24.6178 26.2679 24.8691 26.5233 25.0429 26.7452C25.1298 26.8562 25.1978 26.9594 25.2438 27.0534C25.2895 27.1469 25.3143 27.2332 25.3125 27.3097C25.3125 27.3209 25.3126 27.3309 25.3128 27.3402ZM7.39042 18.3476L7.31962 18.4892C7.33021 18.4853 7.34133 18.4817 7.35292 18.4787C7.4078 18.4641 7.47534 18.4588 7.55404 18.4616C7.71143 18.4673 7.91846 18.5056 8.16889 18.5735C8.6701 18.7096 9.35068 18.966 10.1668 19.3254C11.7994 20.0443 13.9777 21.1769 16.355 22.5883L16.3552 22.5884C18.7886 24.0606 20.7418 25.383 22.1103 26.4138C22.7945 26.9292 23.3329 27.3719 23.7123 27.7242C23.9019 27.9003 24.0522 28.0542 24.1611 28.1836C24.269 28.3117 24.3387 28.4183 24.3641 28.5002C24.3936 28.5778 24.4024 28.6398 24.401 28.688L24.4923 28.5404C24.5102 28.514 24.5163 28.4784 24.5065 28.4306C24.4966 28.3824 24.471 28.3241 24.429 28.256C24.3449 28.1198 24.1988 27.9503 23.9977 27.7526C23.5958 27.3574 22.9792 26.8541 22.2149 26.2854C20.6865 25.1482 18.5709 23.7518 16.4104 22.4396C14.2362 21.1276 12.1138 20.0126 10.465 19.2725C9.64055 18.9024 8.93517 18.6264 8.4013 18.4663C8.13427 18.3863 7.9111 18.3355 7.73787 18.3163C7.65126 18.3067 7.57793 18.3051 7.51828 18.3113C7.46229 18.3172 7.42011 18.3297 7.39042 18.3476ZM7.36875 18.3281L7.35315 18.3047C7.39357 18.2777 7.44775 18.2621 7.51245 18.2554C7.57742 18.2486 7.65505 18.2505 7.74407 18.2604C7.92211 18.2802 8.14894 18.332 8.41745 18.4125C8.95468 18.5735 9.66258 18.8506 10.4881 19.2212C12.1393 19.9623 14.2637 21.0785 16.4395 22.3915C18.6009 23.7043 20.7182 25.1017 22.2484 26.2403C23.0134 26.8095 23.6325 27.3146 24.0372 27.7125C24.2393 27.9112 24.3892 28.0845 24.4768 28.2264C24.5206 28.2974 24.5499 28.362 24.5616 28.4193C24.5734 28.4767 24.5679 28.5288 24.5393 28.5715L24.4177 28.7679C24.4161 28.7704 24.4141 28.7727 24.4118 28.7747L24.3555 28.8216C24.344 28.8312 24.3269 28.83 24.3167 28.8189C24.3066 28.8078 24.307 28.7907 24.3176 28.7801C24.3178 28.7798 24.3219 28.7753 24.327 28.7655C24.332 28.7556 24.3378 28.7407 24.3414 28.7201C24.3486 28.6791 24.3472 28.6139 24.3112 28.5193C24.311 28.5188 24.3108 28.5182 24.3106 28.5176C24.289 28.4472 24.2257 28.3476 24.1181 28.2198C24.0112 28.0929 23.8627 27.9407 23.674 27.7654C23.2966 27.4149 22.7598 26.9735 22.0764 26.4587C20.7098 25.4294 18.7583 24.1081 16.3262 22.6366C13.9503 21.2261 11.7741 20.0946 10.1441 19.3769C9.32901 19.0179 8.65139 18.7628 8.15416 18.6278C7.90537 18.5603 7.70313 18.5232 7.55203 18.5178C7.47648 18.5151 7.41496 18.5204 7.36734 18.533C7.31971 18.5457 7.28799 18.5651 7.26896 18.5892C7.26003 18.6006 7.24398 18.6033 7.2318 18.5956C7.21963 18.5878 7.21527 18.5721 7.22172 18.5592L7.3436 18.3155L7.36875 18.3281Z" fill="black"/>
<path d="M10.5605 23.6029C10.562 24.3791 10.7175 25.1474 11.0179 25.8632C11.3182 26.579 11.7576 27.2281 12.3106 27.7729C12.8567 28.3275 13.5073 28.7685 14.2247 29.0706C14.9421 29.3727 15.7122 29.5298 16.4906 29.5329C18.0659 29.5328 19.5767 28.9069 20.6906 27.7929C21.2416 27.245 21.6789 26.5938 21.9775 25.8764C22.2761 25.1591 22.4301 24.3899 22.4306 23.6129V15.6929L10.5605 15.6729V23.6029Z" fill="white"/>
<path fill-rule="evenodd" clip-rule="evenodd" d="M10.5254 15.6377L22.4654 15.6578V23.6128C22.4649 24.3944 22.31 25.1682 22.0097 25.8898C21.7093 26.6114 21.2694 27.2665 20.7151 27.8176C20.7151 27.8176 20.7151 27.8176 20.7151 27.8176M12.2857 27.7976C12.835 28.3553 13.4894 28.7989 14.2109 29.1028C14.9326 29.4066 15.7073 29.5647 16.4903 29.5678H16.4904C18.075 29.5677 19.5947 28.9381 20.7151 27.8176M12.2857 27.7976C11.7295 27.2495 11.2876 26.5966 10.9854 25.8766C10.6832 25.1566 10.5269 24.3837 10.5254 23.6028L10.5254 15.6377M10.5954 23.6027C10.5969 24.3744 10.7514 25.138 11.05 25.8495C11.3486 26.5611 11.7853 27.2063 12.335 27.7479L12.3353 27.7482C12.8783 28.2995 13.525 28.738 14.2381 29.0382C14.9513 29.3385 15.7168 29.4947 16.4905 29.4978C18.0566 29.4976 19.5584 28.8754 20.6657 27.768L20.6657 27.768C21.2135 27.2234 21.6482 26.576 21.945 25.8629C22.2419 25.1498 22.3949 24.3851 22.3954 23.6128V15.7277L10.5954 15.7078V23.6027Z" fill="black"/>
<path d="M10.7803 23.6126C10.7824 24.3573 10.9319 25.0941 11.2203 25.7806C11.5086 26.4672 11.9301 27.0898 12.4603 27.6127C13.5249 28.6829 14.9707 29.2871 16.4803 29.2927C17.9872 29.2935 19.433 28.6965 20.5003 27.6327C21.0287 27.109 21.4483 26.486 21.7349 25.7995C22.0215 25.113 22.1695 24.3766 22.1703 23.6326V15.9326H10.8003V23.6126M19.9003 18.2426V23.1326L19.8903 23.6426C19.8937 24.0894 19.8068 24.5322 19.635 24.9446C19.4632 25.357 19.2099 25.7305 18.8903 26.0426C18.2544 26.6808 17.3912 27.0404 16.4903 27.0427C15.5503 27.0427 14.7203 26.6427 14.1003 26.0226C13.4621 25.3867 13.1025 24.5235 13.1003 23.6226V18.2226L19.9003 18.2426Z" fill="#FF0000"/>
<path fill-rule="evenodd" clip-rule="evenodd" d="M10.7759 15.9082H22.1959V23.6332C22.1951 24.3805 22.0465 25.1202 21.7586 25.8097C21.4707 26.4992 21.0493 27.125 20.5185 27.6509C19.4465 28.7195 17.9944 29.3191 16.4809 29.3182C14.9647 29.3127 13.5125 28.7058 12.4432 27.6309C11.9107 27.1058 11.4874 26.4804 11.1978 25.7909C10.9082 25.1013 10.758 24.3612 10.7559 23.6133L10.7809 23.6132H10.7759V15.9082ZM10.8059 23.6132C10.808 24.3545 10.9568 25.0881 11.2439 25.7716C11.531 26.455 11.9505 27.0749 12.4784 27.5954L12.4786 27.5956C13.5386 28.6612 14.978 29.2627 16.481 29.2682C17.9813 29.2691 19.4206 28.6747 20.4832 27.6155C21.0093 27.0942 21.4271 26.4739 21.7124 25.7904C21.9978 25.107 22.1451 24.3738 22.1459 23.6332V15.9582H10.8259V23.6132H10.8059ZM13.0759 18.1981L19.9259 18.2183V23.1332L19.9259 23.1337L19.9159 23.643C19.9159 23.6431 19.9159 23.6433 19.9159 23.6434C19.9192 24.0934 19.8318 24.5394 19.6587 24.9548C19.4856 25.3703 19.2304 25.7465 18.9085 26.061C18.2679 26.7038 17.3984 27.066 16.4909 27.0682C15.5435 27.0682 14.7073 26.665 14.0832 26.0409C13.4404 25.4003 13.0781 24.5308 13.0759 23.6233V18.1981ZM13.1259 18.2483V23.6232C13.1281 24.5174 13.4851 25.3743 14.1185 26.0055C14.7344 26.6214 15.5583 27.0182 16.4908 27.0182C17.3851 27.016 18.2419 26.659 18.8732 26.0256L18.8734 26.0254C19.1906 25.7155 19.442 25.3449 19.6125 24.9356C19.7831 24.5263 19.8692 24.0868 19.8659 23.6434L19.8659 23.6427L19.8759 23.1332V18.2681L13.1259 18.2483Z" fill="black"/>
<path d="M11.5205 17.9427C11.5305 17.3927 11.9205 17.2627 11.9205 17.2627C11.9305 17.2627 12.3505 17.4027 12.3505 17.9527H11.5205" fill="#FFFF00"/>
<path d="M11.1805 17.2727L11.1105 17.9027H11.5305C11.5305 17.3827 11.9305 17.3027 11.9305 17.3027C11.9405 17.3027 12.3305 17.4127 12.3405 17.9027H12.7605L12.6805 17.2627H11.1805V17.2727ZM11.0805 17.9127H12.7805C12.8105 17.9127 12.8405 17.9427 12.8405 17.9827C12.8405 18.0327 12.8105 18.0627 12.7805 18.0627H11.0805C11.0505 18.0627 11.0205 18.0327 11.0205 17.9827C11.0205 17.9427 11.0505 17.9127 11.0905 17.9127H11.0805Z" fill="#FFFF00"/>
<path fill-rule="evenodd" clip-rule="evenodd" d="M11.1551 17.2383H12.7022L12.7835 17.8884C12.8282 17.8904 12.8651 17.9333 12.8651 17.9833C12.8651 18.0422 12.8284 18.0883 12.7801 18.0883H11.0801C11.0319 18.0883 10.9951 18.0422 10.9951 17.9833C10.9951 17.9329 11.0313 17.8935 11.0801 17.8888V17.8883H11.0866L11.1551 17.2719V17.2383ZM11.2036 17.2883L11.1381 17.8783H11.5054C11.5116 17.626 11.6117 17.4761 11.7139 17.3892C11.7663 17.3447 11.8187 17.3172 11.858 17.3008C11.8706 17.2956 11.8819 17.2915 11.8914 17.2883H11.2036ZM11.9301 17.3033C11.9288 17.2966 11.9278 17.2918 11.9271 17.2883L11.9301 17.3033ZM11.9667 17.2883C11.978 17.2924 11.9919 17.2981 12.0077 17.3055C12.0475 17.3243 12.0996 17.3546 12.1517 17.4008C12.2531 17.4908 12.3532 17.6401 12.3643 17.8783H12.7318L12.6581 17.2883H11.9667ZM12.3147 17.8883C12.306 17.66 12.2117 17.5209 12.1185 17.4382C12.0706 17.3957 12.0227 17.3679 11.9863 17.3507C11.9681 17.3422 11.9529 17.3363 11.9421 17.3326C11.9371 17.3309 11.9331 17.3297 11.9303 17.3289C11.9277 17.3295 11.9243 17.3305 11.92 17.3317C11.9098 17.3347 11.895 17.3396 11.8772 17.347C11.8416 17.3618 11.7939 17.3868 11.7463 17.4273C11.6537 17.506 11.559 17.645 11.5552 17.8883H12.3147ZM11.0901 17.9383C11.0639 17.9383 11.0451 17.9571 11.0451 17.9833C11.0451 18.0244 11.0684 18.0383 11.0801 18.0383H12.7801C12.7919 18.0383 12.8151 18.0244 12.8151 17.9833C12.8151 17.9545 12.7939 17.9383 12.7801 17.9383H11.0901Z" fill="black"/>
<path d="M11.7005 17.9034C11.7005 17.5734 11.9305 17.4834 11.9305 17.4834C11.9305 17.4834 12.1606 17.5834 12.1606 17.9034H11.7005ZM11.1205 17.0034H12.7506C12.7806 17.0034 12.8106 17.0434 12.8106 17.0834C12.8106 17.1134 12.7806 17.1434 12.7506 17.1434H11.1205C11.0905 17.1434 11.0605 17.1134 11.0605 17.0734C11.0605 17.0434 11.0905 17.0134 11.1205 17.0134V17.0034ZM11.7405 18.0534H12.7006C12.7306 18.0534 12.7606 18.0834 12.7606 18.1234C12.7606 18.1634 12.7306 18.1934 12.7006 18.1934H11.1505C11.1105 18.1934 11.0905 18.1634 11.0905 18.1234C11.0905 18.0834 11.1105 18.0534 11.1505 18.0534H11.7405ZM12.2405 16.9934H12.3606V17.0734H12.4506V16.9934H12.5806V17.0834H12.6706V16.9834H12.7906V17.1834C12.7906 17.2234 12.7706 17.2434 12.7406 17.2434H12.3006C12.2706 17.2434 12.2405 17.2234 12.2405 17.1934V16.9934ZM12.7006 17.2634L12.7306 17.9034H12.3006L12.3306 17.2534H12.7006" fill="#FFFF00"/>
<path fill-rule="evenodd" clip-rule="evenodd" d="M12.6452 16.958H12.8152V17.0183C12.8272 17.0365 12.8352 17.0594 12.8352 17.083C12.8352 17.1028 12.8268 17.1211 12.8152 17.1353V17.183C12.8152 17.2069 12.8092 17.2285 12.7952 17.2445C12.7809 17.2609 12.761 17.268 12.7402 17.268H12.7254L12.7564 17.928H12.274L12.3044 17.268H12.3002C12.2799 17.268 12.2594 17.2613 12.2436 17.249C12.2274 17.2364 12.2152 17.2171 12.2152 17.193V17.168H11.1202C11.0739 17.168 11.0352 17.1243 11.0352 17.073C11.0352 17.0499 11.0465 17.0288 11.0612 17.0141C11.0704 17.0049 11.0821 16.997 11.0952 16.9924V16.978H12.2152V16.968H12.3852V16.978H12.4252V16.968H12.6052V16.978H12.6452V16.958ZM12.6452 17.028H12.6052V17.058H12.6452V17.028ZM12.5552 17.028V17.108H12.6952V17.028H12.7502C12.7532 17.028 12.7588 17.0299 12.7652 17.0359V17.1133C12.7599 17.1165 12.7546 17.118 12.7502 17.118H12.2652V17.028H12.3352V17.098H12.4752V17.028H12.5552ZM12.4252 17.028H12.3852V17.048H12.4252V17.028ZM12.2152 17.028H11.1452V17.038H11.1202C11.1133 17.038 11.1043 17.0417 11.0966 17.0494C11.0888 17.0572 11.0852 17.0661 11.0852 17.073C11.0852 17.1017 11.1064 17.118 11.1202 17.118H12.2152V17.028ZM12.2652 17.168V17.193C12.2652 17.1989 12.2679 17.2046 12.2743 17.2095C12.2809 17.2147 12.2904 17.218 12.3002 17.218H12.7402C12.7493 17.218 12.7544 17.2152 12.7576 17.2115C12.7611 17.2075 12.7652 17.1991 12.7652 17.183V17.1664C12.7603 17.1675 12.7553 17.168 12.7502 17.168H12.2652ZM12.354 17.278L12.3263 17.878H12.704L12.6758 17.278H12.354ZM11.9401 17.4601L11.9302 17.483L11.921 17.4597L11.9307 17.456L11.9401 17.4601ZM11.9297 17.5108C11.9242 17.5135 11.9166 17.5177 11.9076 17.5234C11.8876 17.536 11.8607 17.5561 11.8337 17.586C11.7831 17.6422 11.7311 17.7339 11.7256 17.878H12.1347C12.1291 17.7388 12.0773 17.6471 12.0264 17.5896C11.9994 17.559 11.9723 17.5378 11.9522 17.5244C11.943 17.5183 11.9353 17.5138 11.9297 17.5108ZM11.921 17.4597C11.9211 17.4597 11.921 17.4597 11.9302 17.483C11.9401 17.4601 11.9401 17.4601 11.9401 17.4601L11.9403 17.4601L11.9405 17.4602L11.9412 17.4606C11.9418 17.4608 11.9426 17.4612 11.9436 17.4617C11.9456 17.4626 11.9484 17.464 11.9518 17.4659C11.9588 17.4696 11.9684 17.4752 11.98 17.4828C12.003 17.4982 12.0335 17.5221 12.0639 17.5564C12.1251 17.6256 12.1852 17.7364 12.1852 17.903V17.928H11.6752V17.903C11.6752 17.7316 11.7351 17.6207 11.7966 17.5525C11.8271 17.5187 11.8577 17.4957 11.8809 17.4811C11.8925 17.4738 11.9022 17.4686 11.9092 17.4651C11.9127 17.4634 11.9155 17.4621 11.9175 17.4612C11.9185 17.4608 11.9193 17.4604 11.9199 17.4602L11.9207 17.4599L11.9209 17.4598L11.921 17.4597ZM11.1247 18.0886C11.1192 18.0954 11.1152 18.1068 11.1152 18.123C11.1152 18.1392 11.1192 18.1506 11.1247 18.1574C11.1295 18.1634 11.1371 18.168 11.1502 18.168H12.7002C12.7139 18.168 12.7352 18.1517 12.7352 18.123C12.7352 18.0943 12.7139 18.078 12.7002 18.078H11.1502C11.1371 18.078 11.1295 18.0826 11.1247 18.0886ZM11.0856 18.0574C11.1008 18.0384 11.1232 18.028 11.1502 18.028H12.7002C12.7464 18.028 12.7852 18.0717 12.7852 18.123C12.7852 18.1743 12.7464 18.218 12.7002 18.218H11.1502C11.1232 18.218 11.1008 18.2076 11.0856 18.1886C11.0711 18.1704 11.0652 18.1468 11.0652 18.123C11.0652 18.0992 11.0711 18.0756 11.0856 18.0574Z" fill="black"/>
<path d="M11.6002 16.6631V17.0031H11.2002V16.6631H11.6002Z" fill="#FFFF00"/>
<path fill-rule="evenodd" clip-rule="evenodd" d="M11.1748 16.6377H11.6248V17.0277H11.1748V16.6377ZM11.2248 16.6877V16.9777H11.5748V16.6877H11.2248Z" fill="black"/>
<path d="M11.1299 16.4033H11.2499V16.5033H11.3399V16.4033H11.4599V16.5033H11.5499V16.4033H11.6699V16.6033C11.6699 16.6433 11.6499 16.6633 11.6199 16.6633H11.1899C11.174 16.6633 11.1587 16.657 11.1475 16.6457C11.1362 16.6345 11.1299 16.6192 11.1299 16.6033V16.4033Z" fill="#FFFF00"/>
<path fill-rule="evenodd" clip-rule="evenodd" d="M11.1555 16.4279V16.6029C11.1555 16.6122 11.1592 16.6211 11.1657 16.6277C11.1723 16.6342 11.1812 16.6379 11.1905 16.6379H11.6205C11.6297 16.6379 11.6348 16.6351 11.6379 16.6315C11.6414 16.6274 11.6455 16.619 11.6455 16.6029V16.4279H11.5755V16.5279H11.4355V16.4279H11.3655V16.5279H11.2255V16.4279H11.1555ZM11.1305 16.4029V16.3779H11.2755V16.4779H11.3155V16.3779H11.4855V16.4779H11.5255V16.3779H11.6955V16.6029C11.6955 16.6268 11.6895 16.6484 11.6755 16.6644C11.6612 16.6808 11.6413 16.6879 11.6205 16.6879H11.1905C11.1679 16.6879 11.1463 16.679 11.1304 16.663C11.1144 16.6471 11.1055 16.6255 11.1055 16.6029V16.4029H11.1305Z" fill="black"/>
<path d="M11.8896 16.5626C11.8896 16.5026 11.9796 16.5026 11.9796 16.5626V16.7226H11.8896V16.5626Z" fill="black"/>
<path d="M11.3604 16.7833C11.3604 16.7233 11.4404 16.7233 11.4404 16.7833V16.9033H11.3604V16.7833Z" fill="black"/>
<path d="M15.7608 22.7431C15.759 22.9542 15.8376 23.158 15.9808 23.3131C16.0476 23.3878 16.1292 23.4477 16.2205 23.489C16.3117 23.5303 16.4106 23.5522 16.5108 23.5531C16.7208 23.5531 16.9108 23.4531 17.0408 23.3131C17.1839 23.158 17.2626 22.9542 17.2608 22.7431V21.6631H15.7608V22.7431Z" fill="#003399"/>
<path d="M16.1109 22.2229C16.1938 22.2229 16.2609 22.1557 16.2609 22.0729C16.2609 21.99 16.1938 21.9229 16.1109 21.9229C16.0281 21.9229 15.9609 21.99 15.9609 22.0729C15.9609 22.1557 16.0281 22.2229 16.1109 22.2229Z" fill="white"/>
<path d="M16.941 22.2229C17.0239 22.2229 17.091 22.1557 17.091 22.0729C17.091 21.99 17.0239 21.9229 16.941 21.9229C16.8582 21.9229 16.791 21.99 16.791 22.0729C16.791 22.1557 16.8582 22.2229 16.941 22.2229Z" fill="white"/>
<path d="M16.5211 22.6232C16.6039 22.6232 16.6711 22.5561 16.6711 22.4732C16.6711 22.3904 16.6039 22.3232 16.5211 22.3232C16.4383 22.3232 16.3711 22.3904 16.3711 22.4732C16.3711 22.5561 16.4383 22.6232 16.5211 22.6232Z" fill="white"/>
<path d="M16.1109 23.0432C16.1938 23.0432 16.2609 22.976 16.2609 22.8932C16.2609 22.8103 16.1938 22.7432 16.1109 22.7432C16.0281 22.7432 15.9609 22.8103 15.9609 22.8932C15.9609 22.976 16.0281 23.0432 16.1109 23.0432Z" fill="white"/>
<path d="M16.941 23.0432C17.0239 23.0432 17.091 22.976 17.091 22.8932C17.091 22.8103 17.0239 22.7432 16.941 22.7432C16.8582 22.7432 16.791 22.8103 16.791 22.8932C16.791 22.976 16.8582 23.0432 16.941 23.0432Z" fill="white"/>
</g>
<defs>
<clipPath id="clip0_200_70219">
<rect width="60" height="45" fill="white" transform="translate(-7.5)"/>
</clipPath>
</defs>
</svg>
