<svg width="45" height="45" viewBox="0 0 45 45" fill="none" xmlns="http://www.w3.org/2000/svg">
<g clip-path="url(#clip0_200_68699)">
<path fill-rule="evenodd" clip-rule="evenodd" d="M-17.166 0H62.1746V45H-17.166V0Z" fill="#4AADD6"/>
<path fill-rule="evenodd" clip-rule="evenodd" d="M30.5527 21.7591C30.5989 23.3881 30.3036 25.0094 29.6844 26.5273C29.0651 28.0452 28.1343 29.4289 26.9471 30.5967C25.7599 31.7645 24.3403 32.6927 22.7721 33.3265C21.204 33.9603 19.519 34.2868 17.8168 34.2868C16.1146 34.2868 14.4296 33.9603 12.8615 33.3265C11.2933 32.6927 9.87366 31.7645 8.68645 30.5967C7.49925 29.4289 6.56852 28.0452 5.94924 26.5273C5.32996 25.0094 5.03469 23.3881 5.08086 21.7591C5.03469 20.1302 5.32996 18.5089 5.94924 16.991C6.56852 15.4731 7.49925 14.0894 8.68645 12.9216C9.87366 11.7538 11.2933 10.8256 12.8615 10.1918C14.4296 9.55799 16.1146 9.23145 17.8168 9.23145C19.519 9.23145 21.204 9.55799 22.7721 10.1918C24.3403 10.8256 25.7599 11.7538 26.9471 12.9216C28.1343 14.0894 29.0651 15.4731 29.6844 16.991C30.3036 18.5089 30.5989 20.1302 30.5527 21.7591Z" fill="#FFDE00"/>
</g>
<defs>
<clipPath id="clip0_200_68699">
<rect width="60" height="45" fill="white" transform="translate(-7.5)"/>
</clipPath>
</defs>
</svg>
