<svg width="45" height="45" viewBox="0 0 45 45" fill="none" xmlns="http://www.w3.org/2000/svg">
<g clip-path="url(#clip0_200_70594)">
<path d="M-7.5 0H52.5V45H-7.5V0Z" fill="#20603D"/>
<path d="M-7.5 0H52.5V33.75H-7.5V0Z" fill="#FAD201"/>
<path d="M-7.5 0H52.5V22.5H-7.5V0Z" fill="#00A1DE"/>
<path d="M47.6625 11.7559L42.6375 12.0496L47.4125 13.6371L42.4875 12.6184L46.6938 15.3809L42.1938 13.1184L45.5313 16.8871L41.775 13.5434L44.0375 18.0434L41.2688 13.8371L42.2813 18.7559L40.7 13.9871L40.4063 19.0121L40.3438 11.6934L47.6625 11.7559Z" fill="#E5BE01"/>
<path d="M40.4065 13.8998C41.5904 13.8998 42.5502 12.94 42.5502 11.7561C42.5502 10.5721 41.5904 9.6123 40.4065 9.6123C39.2225 9.6123 38.2627 10.5721 38.2627 11.7561C38.2627 12.94 39.2225 13.8998 40.4065 13.8998Z" fill="#E5BE01"/>
<path fill-rule="evenodd" clip-rule="evenodd" d="M40.4063 9.71836C39.281 9.71836 38.3688 10.6306 38.3688 11.7559C38.3688 12.8812 39.281 13.7934 40.4063 13.7934C41.5315 13.7934 42.4438 12.8812 42.4438 11.7559C42.4438 10.6306 41.5315 9.71836 40.4063 9.71836ZM38.1562 11.7559C38.1562 10.5132 39.1636 9.50586 40.4063 9.50586C41.6489 9.50586 42.6563 10.5132 42.6563 11.7559C42.6563 12.9985 41.6489 14.0059 40.4063 14.0059C39.1636 14.0059 38.1562 12.9985 38.1562 11.7559Z" fill="#00A1DE"/>
</g>
<defs>
<clipPath id="clip0_200_70594">
<rect width="60" height="45" fill="white" transform="translate(-7.5)"/>
</clipPath>
</defs>
</svg>
