<svg width="45" height="45" viewBox="0 0 45 45" fill="none" xmlns="http://www.w3.org/2000/svg">
<g clip-path="url(#clip0_200_68647)">
<path fill-rule="evenodd" clip-rule="evenodd" d="M-11.25 0H56.25V45H-11.25V0Z" fill="#199D00"/>
<path fill-rule="evenodd" clip-rule="evenodd" d="M5.75647 12.7527C5.68616 13.8074 5.58069 15.6531 6.48596 15.8464C7.56702 15.9519 6.96936 14.0183 7.36487 13.6668C7.43518 13.491 7.56701 13.491 7.5758 13.7107V15.3543C7.5758 15.8816 7.92737 16.0398 8.19104 16.1453C8.47229 16.1277 8.66565 16.1453 8.77112 16.4089L8.91174 19.2478C8.91174 19.2478 9.56213 19.4412 9.59729 17.657C9.62366 16.6023 9.38635 15.7322 9.52698 15.53C9.52698 15.3279 9.79065 15.3191 9.96643 15.4158C10.2477 15.6091 10.3707 15.8552 10.8102 15.7673C11.4781 15.574 11.8824 15.2488 11.8912 14.739C11.878 14.2381 11.7738 13.7437 11.5836 13.28C11.6188 13.1922 11.4606 12.9548 11.4957 12.867C11.61 13.0603 11.7946 13.0427 11.8297 12.867C11.7155 12.4978 11.5397 12.1375 11.2584 11.9881C11.0211 11.7771 10.6696 11.8123 10.5553 12.2517C10.485 12.7527 10.7311 13.3416 11.0914 13.8338C11.1705 14.0183 11.276 14.3347 11.2321 14.616C11.0387 14.7302 10.8453 14.6775 10.6783 14.5105C10.6783 14.5105 10.151 14.115 10.151 14.0183C10.2916 13.1218 10.1774 13.0164 10.0983 12.7615C10.0455 12.4187 9.87854 12.3045 9.7467 12.0759C9.61487 11.9353 9.43909 11.9353 9.3512 12.0759C9.11389 12.4802 9.22815 13.3504 9.39514 13.7459C9.51819 14.1062 9.70276 14.3347 9.61487 14.3347C9.54455 14.5369 9.39514 14.4841 9.28088 14.2468C9.15226 13.7474 9.0902 13.2332 9.09631 12.7175C9.05237 12.3132 8.99963 11.4519 8.72717 11.2234C8.56897 11.0125 8.33166 11.1179 8.24377 11.3113C8.22057 11.7039 8.22938 12.0978 8.27014 12.489C8.44592 13.1394 8.50745 13.7195 8.59534 14.3787C8.6217 15.2664 8.08557 14.7654 8.11194 14.3172C8.22724 13.7536 8.21824 13.1718 8.08557 12.6121C7.99768 12.3836 7.901 12.3308 7.68127 12.366C7.51428 12.366 7.08362 12.8318 6.96057 13.6228C6.96057 13.6228 6.8551 14.0271 6.81116 14.3875C6.74963 14.7918 6.48596 15.0906 6.2926 14.3347C6.1344 13.781 6.02893 12.4363 5.76526 12.7527H5.75647Z" fill="white"/>
<path fill-rule="evenodd" clip-rule="evenodd" d="M8.70117 17.0684L5.88867 18.4219C5.91504 17.7803 7.21582 16.6289 8.11231 16.6201C8.68359 16.6289 8.54297 16.8398 8.69238 17.0684H8.70117Z" fill="white"/>
<path fill-rule="evenodd" clip-rule="evenodd" d="M8.20057 17.9472C6.724 21.7705 11.6722 22.3066 12.226 18.1054C12.2787 17.9297 12.4896 17.7627 12.5248 18.0439C12.4105 21.8496 8.69275 22.1045 8.05994 20.9092C7.91107 20.4979 7.83667 20.0633 7.84021 19.6259C7.75232 18.8789 7.35682 19.1689 7.29529 19.9072C7.23377 20.3203 7.25135 20.4345 7.25135 20.8301C7.44471 23.8359 12.2347 22.5439 13.017 20.0654C13.4301 18.6943 12.9467 17.6836 13.1664 17.6836C13.641 18.1933 14.309 17.7539 14.4584 17.5781C14.5199 17.4902 14.6781 17.4287 14.7836 17.5429C15.1527 17.8066 15.8031 17.6836 15.9437 17.2177C16.0228 16.7519 16.0844 16.2773 16.1019 15.7939C15.7943 15.8818 15.5746 15.9433 15.5482 16.0752L15.4867 16.4795C15.4603 16.6113 15.2054 16.6113 15.1879 16.4443C15.0736 15.917 14.599 15.8554 14.309 16.664C14.1244 16.8222 13.7728 16.8574 13.7377 16.6201C13.7816 16.0752 13.5619 16.0049 13.1224 16.2597L12.7006 13.0781C12.8763 13.0781 13.0521 13.2099 13.2191 12.999C13.0433 12.4277 12.6478 11.2676 12.4281 11.1797C12.3314 11.0566 12.2435 11.1357 12.1029 11.1709C11.8744 11.2412 11.6635 11.4345 11.7338 11.8213C11.9974 13.4736 12.1732 14.7304 12.4457 16.3916C12.4896 16.5761 12.3314 16.831 12.1205 16.8047C11.7689 16.5674 11.681 16.084 11.0658 16.1015C10.6263 16.1015 10.1342 16.5849 10.0726 17.042C9.99354 17.4111 9.96717 17.8066 10.0726 18.123C10.3803 18.4922 10.7494 18.457 11.0746 18.3779C11.3383 18.2636 11.558 18 11.6547 18.0615C11.7162 18.1406 11.6635 19.0195 10.3978 19.6875C9.63318 20.039 9.01795 20.1093 8.69275 19.4853C8.49061 19.0898 8.71033 17.6045 8.20057 17.9472Z" fill="white"/>
<path fill-rule="evenodd" clip-rule="evenodd" d="M14.5024 14.0625C14.7924 13.957 16.1987 12.3398 16.1987 12.3398L15.9877 12.164C15.9086 12.1025 15.9174 12.0322 15.9877 11.9707C16.3393 11.7597 16.225 11.3203 16.0493 11.1093C15.9299 11.0512 15.7987 11.0217 15.6659 11.0232C15.5331 11.0247 15.4026 11.0572 15.2846 11.1181C15.0385 11.3554 14.9858 11.7334 15.1791 11.9619C15.3637 12.0498 15.5483 12.2431 15.4252 12.3486C14.8452 12.9638 13.2719 14.0273 13.4565 14.0625C13.4917 14.1152 14.4672 14.1152 14.4936 14.0625H14.5024ZM5.977 19.7753C5.44966 20.6191 5.40571 21.8759 5.69575 22.2539C5.85396 22.4296 6.10884 22.5087 6.29341 22.4472C6.62739 22.3066 6.77681 21.6298 6.6977 21.3925C6.58345 21.2167 6.49556 21.1904 6.3813 21.331C6.15278 21.8056 6.0561 21.4804 6.02974 21.2167C6.00454 20.7702 6.02812 20.3222 6.10005 19.8808C6.16157 19.5117 6.10005 19.6171 5.977 19.7753ZM28.5737 18.4306C28.0639 17.3232 27.352 16.2333 27.1323 15.8203C26.4474 14.7375 25.7202 13.682 24.9526 12.6562C24.4077 12.0058 25.8491 12.9287 24.7768 11.6279L23.9946 10.9687C23.8188 10.8457 23.3969 10.6171 23.3266 10.9863C23.2915 11.3203 23.309 11.496 23.3618 11.7685C23.4057 11.9443 23.6694 12.2519 23.8012 12.4277C25.6031 14.8143 27.1857 17.3588 28.5297 20.0302C28.7583 19.916 28.7055 18.6152 28.5737 18.4306Z" fill="white"/>
<path fill-rule="evenodd" clip-rule="evenodd" d="M26.3323 22.105C26.2268 22.2192 26.5784 22.7026 27.0354 22.7026C27.7913 22.6147 28.4593 22.1928 29.0745 21.0678C29.3245 20.6936 29.484 20.2663 29.5403 19.8198C29.6148 17.6862 29.4437 15.5511 29.0306 13.4565C29.0042 13.2807 29.0306 13.0698 29.0481 13.0171C29.1009 12.9555 29.2679 13.0171 29.3557 12.8677C29.4876 12.7358 29.0042 11.6372 28.7405 11.2241C28.6526 11.0307 28.6087 10.9077 28.4505 11.2417C28.2596 11.6102 28.1687 12.0224 28.1868 12.437C28.5472 14.9419 28.6614 17.1303 28.8899 19.6352C28.9163 19.8813 28.8811 20.2329 28.7141 20.3735C28.051 21.1119 27.2393 21.7019 26.3323 22.105ZM36.5716 22.0962C36.0266 22.4126 36.0266 22.7729 36.4661 22.7817C37.222 22.6938 38.1184 22.6323 38.7337 21.7007C38.951 21.2619 39.0766 20.7834 39.1028 20.2944C39.2135 18.1936 39.0748 16.0872 38.6897 14.019C38.6722 13.8432 38.5931 13.4302 38.6194 13.3774C38.6722 13.2544 38.9182 13.3862 39.0061 13.2456C39.1292 13.1137 38.3645 12.1294 38.0921 11.7075C38.0042 11.5141 37.969 11.3911 37.802 11.7251C37.625 12.097 37.5697 12.5152 37.6438 12.9204C38.0481 15.645 38.347 17.6841 38.4085 20.0923C38.3733 20.3208 38.3645 20.4438 38.2591 20.7339C38.0218 21.0327 37.7581 21.4194 37.512 21.604C37.2659 21.7798 36.7386 21.9555 36.5716 22.0962Z" fill="white"/>
<path fill-rule="evenodd" clip-rule="evenodd" d="M36.9754 19.661C36.9754 19.0194 36.9842 18.4745 36.9666 17.9911C36.961 17.5817 36.8712 17.1778 36.703 16.8046C36.5448 16.4442 36.6414 16.1542 36.5623 15.7675C36.492 15.3807 36.5096 14.8007 36.4041 14.3524C36.369 14.1766 36.2811 13.6054 36.3075 13.5438C36.3514 13.4208 36.5184 13.5438 36.6063 13.4032C36.7293 13.2714 36.1668 11.8212 35.8856 11.4081C35.7889 11.2235 35.5955 11.285 35.3758 11.5839C35.1561 11.786 35.2352 12.2343 35.3231 12.6649C35.8592 15.5038 36.2723 18.079 36.1844 20.7772C36.1493 21.0057 36.9754 20.0917 36.9754 19.661ZM32.9588 16.1454C32.6161 16.1278 31.9041 15.4686 31.6932 15.0907C31.6587 14.9983 31.644 14.8997 31.65 14.8013C31.6561 14.7029 31.6828 14.6069 31.7284 14.5194C31.8602 14.4315 32.0536 14.3436 32.203 14.4315C32.203 14.4315 32.3524 14.6425 32.326 14.6688C32.5018 14.7567 32.5897 14.7128 32.6073 14.6337C32.6161 14.5018 32.5545 14.4227 32.5545 14.2821C32.6336 13.8778 33.0819 13.8163 33.2577 14.0712C33.3807 14.2294 33.4334 14.5546 33.4422 14.7743C33.4422 14.8886 33.2664 14.7567 33.1522 14.7743C33.0555 14.8095 33.0291 14.9325 33.0204 15.038C33.0028 15.328 32.9676 15.7938 32.9588 16.1366V16.1454ZM26.6483 20.3641C26.7362 19.5028 26.6131 17.9647 26.6043 17.455C26.5573 16.144 26.4488 14.8359 26.2791 13.535C26.1737 12.7968 26.578 13.6141 26.5252 13.1835C26.3934 12.454 25.9891 11.953 25.5057 11.2938C25.3563 11.0741 25.3563 11.0302 25.119 11.3466C24.8553 11.9354 25.0838 12.3485 25.1541 12.8143C25.4969 14.3261 25.6991 15.7147 25.7957 17.0946C25.8969 18.528 25.9087 19.9664 25.8309 21.4013C26.0946 21.41 26.4989 20.9882 26.6483 20.3641Z" fill="white"/>
<path fill-rule="evenodd" clip-rule="evenodd" d="M38.1447 18.9845C37.5383 17.9649 36.633 16.8751 36.3869 16.462C35.5719 15.3239 34.7159 14.2157 33.8205 13.1397C33.0735 12.3487 34.1721 13.0079 33.6799 12.3927C33.2668 11.9444 33.1526 11.795 32.7922 11.5226C32.6164 11.4083 32.511 11.1886 32.4406 11.5665C32.4126 11.8939 32.4067 12.2227 32.4231 12.5509C32.4231 12.7003 32.5813 12.9903 32.7219 13.1661C34.5412 15.4073 36.5363 17.6925 38.136 20.5665C38.3645 20.4522 38.2854 19.1602 38.136 18.9845H38.1447Z" fill="white"/>
<path fill-rule="evenodd" clip-rule="evenodd" d="M10.7751 17.1126C10.7312 17.1917 10.6345 17.2884 10.6697 17.3851C10.7312 17.473 10.7927 17.4993 10.8982 17.4993C10.9948 17.4993 11.1355 17.5257 11.1618 17.473C11.2146 17.4115 11.2497 17.2972 11.2146 17.1829C11.1091 16.9193 10.8279 17.0247 10.7751 17.1126Z" fill="#1BA400"/>
<path fill-rule="evenodd" clip-rule="evenodd" d="M31.1309 31.8602C31.9395 31.8954 32.4668 31.9042 33.1787 31.9833L34.0225 31.8954C34.9541 31.8075 34.9893 33.2225 34.9893 33.2225C34.9893 34.0575 34.6641 34.1014 34.251 34.1893C34.0137 34.2245 33.8994 34.0487 33.7676 33.8729C33.5688 33.9366 33.3571 33.9487 33.1523 33.9081C32.8096 33.8905 32.4756 33.8905 32.1416 33.8641C31.79 33.8378 31.5967 33.9081 31.2363 33.8729C31.166 33.9872 31.0605 34.1454 30.8496 34.1014C30.6738 34.0751 30.4541 33.5741 30.5156 33.1786C30.6475 32.8973 30.6035 32.994 30.6035 32.871C27.2988 32.7831 23.9678 32.6337 20.7334 32.6776C18.2021 32.6864 15.7061 32.7919 13.2012 32.8973C11.8652 32.8798 10.8457 32.6688 10.1426 31.6405C10.2129 31.6405 13.5527 31.8251 14.5283 31.7636C16.3301 31.746 17.9824 31.5966 19.8193 31.5438C23.4404 31.6054 27.0352 31.6054 30.6562 31.8602C30.3047 31.6229 30.3047 31.0692 30.832 30.9286C30.876 30.8934 30.9023 31.2011 30.9814 31.1923C31.4121 31.1659 31.2188 31.746 31.1309 31.8602ZM16.5762 11.8915C16.0312 13.4559 16.8926 15.1786 17.4902 15.0116C17.9297 15.1874 18.1934 14.3612 18.3691 13.4647C18.501 13.2098 18.5889 13.1835 18.6504 13.3153C18.6328 14.5106 18.7383 14.7831 19.0459 15.1434C19.7314 15.6708 20.3027 15.2138 20.3467 15.1698L20.874 14.6337C20.9971 14.5018 21.1553 14.5018 21.3223 14.6073C21.4893 14.7567 21.4629 15.0116 21.8145 15.1874C22.1133 15.3104 22.7373 15.2225 22.8867 14.9677C23.0801 14.6249 23.1328 14.5106 23.2207 14.3876C23.3613 14.203 23.5986 14.2821 23.5986 14.3436C23.5723 14.4491 23.4316 14.5458 23.5283 14.7391C23.7041 14.8622 23.7393 14.7831 23.8359 14.7567C24.1875 14.5809 24.4512 13.8251 24.4512 13.8251C24.46 13.5438 24.3018 13.5614 24.1963 13.6317L23.9238 13.8163C23.748 13.8427 23.4229 13.9569 23.2559 13.702C23.0889 13.4032 23.0889 12.9725 22.9658 12.6649C22.9658 12.6473 22.7373 12.1815 22.9482 12.1552C23.0537 12.1727 23.2734 12.2343 23.3086 12.0497C23.4141 11.8651 23.0801 11.3466 22.8428 11.0829C22.6406 10.8632 22.3594 10.8368 22.0869 11.0653C21.8936 11.2411 21.9199 11.4345 21.8848 11.619C21.8514 11.7513 21.85 11.8896 21.8805 12.0225C21.9111 12.1555 21.9728 12.2792 22.0605 12.3837C22.2539 12.7528 22.5967 13.2362 22.4824 13.9218C22.4824 13.9218 22.2803 14.2382 21.9287 14.1942C21.7793 14.1679 21.542 14.1063 21.4189 13.1571C21.3223 12.454 21.4365 11.452 21.1377 10.9862C21.0234 10.6962 20.9443 10.4237 20.6807 10.9071C20.6104 11.1005 20.3027 11.3905 20.5225 11.9794C20.7304 12.51 20.7911 13.087 20.6982 13.6493C20.5664 13.8427 20.54 13.9042 20.373 14.0888C20.1445 14.3524 19.8896 14.2821 19.6963 14.1854C19.5205 14.0712 19.3799 14.0096 19.292 13.6141C19.3096 12.9989 19.3447 11.9882 19.2305 11.7772C19.0635 11.4432 18.791 11.5663 18.6768 11.6718C18.1539 12.2526 17.8038 12.968 17.666 13.7372C17.5078 14.247 17.3408 14.0975 17.2266 13.8954C16.9453 13.6317 16.9189 11.5487 16.5762 11.8915Z" fill="white"/>
<path fill-rule="evenodd" clip-rule="evenodd" d="M18.2281 15.3014C18.483 15.1256 18.3688 15.0025 18.7379 15.3717C19.2144 16.2147 19.491 17.1559 19.5465 18.1226C19.5289 18.3512 19.6871 18.4918 19.7662 18.4391C19.8014 17.9117 21.0934 17.1734 22.2799 17.068C22.4557 17.024 22.3678 16.6812 22.3941 16.5055C22.3238 15.8463 22.7633 15.2486 23.3785 15.2047C24.2223 15.3277 24.5035 15.776 24.5211 16.4527C24.4244 17.7711 23.0533 17.9908 22.2887 18.0963C22.1744 18.1402 22.1217 18.193 22.2887 18.2545L25.5055 18.2721L25.6725 18.3599C25.69 18.4478 25.6197 18.3775 25.4967 18.5885C25.3197 18.8993 25.209 19.2435 25.1715 19.5992C24.2135 19.9156 23.2203 20.0387 22.2184 20.1705C21.8668 20.3463 21.691 20.5836 21.7613 20.8473C21.8844 21.1373 22.6578 21.4361 22.6578 21.4449C22.8072 21.5328 22.9742 21.7525 22.6139 22.2008C21.0494 22.1305 19.8277 21.4625 19.4059 20.5221C19.2828 20.4254 19.1422 20.5221 19.0543 20.6451C18.4391 21.4361 17.8414 22.1392 16.7955 22.526C16.1803 22.6842 15.5387 22.4293 15.2398 22.025C15.0377 21.7877 15.0465 21.5328 14.9762 21.4801C14.6334 21.6295 11.733 22.8599 12.1022 22.2799C12.8053 21.5328 14.0357 20.9703 15.108 20.232C15.1871 19.9771 15.3277 19.1334 15.7496 18.8609C15.776 18.8609 15.6881 19.3531 15.6969 19.5641C15.6969 19.7398 15.6793 19.8014 15.7145 19.7574C15.7936 19.7135 17.0943 18.6851 17.2086 18.3687C17.3316 18.193 17.235 17.7359 17.235 17.7183C16.9889 17.0855 16.6461 17.0328 16.5231 16.7164C16.4088 16.3033 16.4615 15.8287 16.6988 15.6881C16.9098 15.5035 17.1559 15.5211 17.3932 15.732C17.6568 15.9693 17.8854 16.4351 17.9557 16.7779C17.9117 16.9098 17.6041 16.69 17.5162 16.7516C17.6854 16.946 17.7979 17.1831 17.8414 17.4371C18.0172 18.1578 17.9645 18.4391 17.7887 18.9049C17.2086 20.1266 16.4703 20.4869 15.8199 20.9439C15.8023 20.9439 15.7936 21.2516 16.0309 21.4185C16.1188 21.5064 16.4615 21.5504 16.857 21.4185C17.702 20.9493 18.3852 20.2354 18.817 19.3707C18.8917 18.7127 18.8196 18.0463 18.6061 17.4195C18.3512 16.8307 18.0523 15.9957 18.0523 15.9781C18.0436 15.609 18.0699 15.4859 18.2281 15.3014ZM9.80821 11.9088C10.1773 12.0846 10.8805 12.0055 10.8453 11.4078L10.8277 11.1353C10.7574 10.9596 10.5465 11.0035 10.5025 11.1793C10.485 11.2408 10.5289 11.3375 10.4762 11.3639C10.441 11.399 10.3268 11.3814 10.3268 11.2144C10.3268 11.1617 10.2916 11.109 10.2652 11.0738C10.2477 11.0562 10.2301 11.0562 10.1861 11.0562C10.1334 11.0562 10.1334 11.065 10.107 11.109C10.0982 11.1529 10.0807 11.1969 10.0807 11.2496C10.0807 11.3111 10.0455 11.3287 10.0104 11.3375C9.95762 11.3375 9.96641 11.3375 9.92247 11.3199C9.90489 11.2935 9.87852 11.2848 9.87852 11.232L9.85215 11.0914C9.83458 11.065 9.79942 11.0474 9.76426 11.0387C9.56211 11.0387 9.54454 11.276 9.56211 11.3639C9.54454 11.3814 9.53575 11.7945 9.80821 11.9088Z" fill="white"/>
<path fill-rule="evenodd" clip-rule="evenodd" d="M20.6632 16.497C21.0324 16.6728 21.9201 16.5761 21.7003 16.0048L21.6827 15.7236C21.6036 15.5478 21.4015 15.5917 21.3576 15.7763C21.34 15.829 21.3839 15.9257 21.3224 15.9521C21.296 15.9872 21.173 15.9697 21.1818 15.8114C21.1818 15.7587 21.1466 15.6972 21.1202 15.662C21.0939 15.6532 21.0851 15.6445 21.0324 15.6445C20.9884 15.6445 20.9884 15.662 20.962 15.706C20.9445 15.7499 20.9357 15.7939 20.9357 15.8466C20.9269 15.8993 20.9005 15.9169 20.8566 15.9345C20.8126 15.9345 20.8214 15.9345 20.7863 15.9081C20.7599 15.8818 20.7335 15.873 20.7335 15.829L20.7072 15.6884C20.6896 15.662 20.6544 15.6445 20.6193 15.6357C20.4171 15.6357 20.3995 15.8642 20.4083 15.9521C20.3995 15.9697 20.3908 16.3915 20.672 16.497H20.6632ZM26.9913 14.5986C27.3605 14.7743 28.0548 14.6952 28.0285 14.1064L28.0109 13.8251C27.9318 13.6493 27.7296 13.6933 27.6857 13.8691C27.6681 13.9306 27.712 14.0273 27.6505 14.0624C27.6242 14.0888 27.5011 14.0712 27.5099 13.9042C27.5099 13.8515 27.4747 13.7988 27.4484 13.7636C27.422 13.746 27.4132 13.746 27.3605 13.746C27.3165 13.746 27.3165 13.7636 27.2902 13.8075L27.2638 13.9394C27.255 14.0009 27.2286 14.0273 27.1847 14.0273C27.1408 14.0273 27.1495 14.0273 27.1144 14.0097C27.088 13.9833 27.0617 13.9745 27.0617 13.9306C27.0617 13.8866 27.0529 13.8163 27.0353 13.7812C27.0177 13.7548 26.9826 13.746 26.9474 13.7372C26.7452 13.7372 26.7277 13.9657 26.7365 14.0536C26.7277 14.0712 26.7189 14.4843 27.0001 14.5986H26.9913ZM30.2697 19.371C29.6281 20.1005 29.9093 21.3046 30.0587 21.5683C30.2697 21.9902 30.4367 22.2626 30.8497 22.4736C31.2277 22.746 31.5265 22.579 31.6847 22.3857C32.0626 21.9902 32.0714 20.9794 32.2472 20.7861C32.3702 20.4169 32.6867 20.4784 32.8361 20.6454C32.9759 20.8439 33.1632 21.004 33.381 21.1113C33.7326 21.4189 34.1544 21.4804 34.5763 21.1991C34.8576 21.0322 35.0421 20.83 35.2091 20.4169C35.3849 19.9247 35.297 17.6396 35.2531 16.2861L34.8839 14.3964C34.8839 14.3788 34.84 13.4999 34.796 13.2978C34.796 13.2099 34.7697 13.1835 34.8576 13.1923C34.9542 13.2802 34.963 13.2802 35.0333 13.3066C35.1212 13.3241 35.2091 13.1572 35.1476 13.0165L34.2687 11.3818C34.1984 11.3114 34.1017 11.2411 33.9874 11.3993C33.92 11.4604 33.8664 11.535 33.83 11.6184C33.7936 11.7017 33.7754 11.7918 33.7765 11.8827C33.8029 12.2695 33.8644 12.665 33.8908 13.0517L34.2423 15.038C34.3566 16.4443 34.3829 17.6044 34.4972 19.0195C34.4796 19.6171 34.2951 20.1357 34.1193 20.2148C34.1193 20.2148 33.8556 20.3642 33.6798 20.1972C33.548 20.1445 33.0294 19.3271 33.0294 19.3271C32.7658 19.0898 32.59 19.1513 32.4054 19.3271C31.8781 19.8368 31.6495 20.7685 31.2892 21.4189C31.2013 21.5683 30.9376 21.6825 30.6564 21.4101C29.9357 20.4169 30.3576 19.0107 30.2697 19.371ZM27.1583 11.1357C27.4923 11.2675 27.7208 11.9443 27.6505 12.2782C27.5802 12.6738 27.4044 13.1132 27.2814 13.0605C27.1408 13.0077 27.3693 12.6562 27.2374 12.287C27.1671 12.0409 26.7101 11.6015 26.7628 11.4784C26.6749 11.206 26.9562 11.0829 27.1583 11.1269V11.1357Z" fill="white"/>
<path fill-rule="evenodd" clip-rule="evenodd" d="M31.3414 19.7755C31.4029 18.9669 31.2887 18.4747 31.2711 18.0001C31.2535 17.5255 30.735 13.9044 30.6295 13.5528C30.4977 12.8673 31.1305 13.4649 31.0602 13.0606C30.8404 12.5684 30.3043 11.839 30.1373 11.4083C30.0318 11.2325 30.0758 11.0567 29.8473 11.3643C29.6505 11.9037 29.5813 12.4813 29.6451 13.0518C30.19 15.8907 30.7438 18.2462 30.6559 20.9444C30.9195 20.9444 31.2096 20.3556 31.3414 19.7755ZM37.0016 12.2784C37.3092 12.4278 37.485 13.2716 37.4498 13.5089C37.3883 13.9483 37.2301 14.4229 37.1158 14.3614C36.984 14.3087 37.1422 13.711 37.0807 13.5265C37.0104 13.2628 36.5973 12.7882 36.6412 12.6475C36.5533 12.3487 36.817 12.2257 37.0016 12.2784ZM14.5279 18.2462C14.818 18.3604 14.9938 18.9757 14.9674 19.1515C14.8971 19.4766 14.7477 19.8282 14.6334 19.7755C14.5191 19.7403 14.6598 19.3009 14.607 19.1602C14.5807 18.835 14.1764 18.6593 14.1852 18.5186C14.1149 18.255 14.3609 18.211 14.5367 18.2462H14.5279Z" fill="white"/>
<path fill-rule="evenodd" clip-rule="evenodd" d="M21.5248 19.1777C21.8939 19.1953 22.0785 19.4941 21.7357 19.6172C21.3842 19.7314 21.059 19.8281 21.0502 20.3203C21.182 21.0234 20.8744 20.7773 20.6986 20.6895C20.4877 20.5312 19.89 20.1621 19.8021 19.3711C19.7933 19.1865 19.9428 19.0195 20.1801 19.0195C20.5316 19.1162 21.059 19.125 21.5248 19.1777Z" fill="#1B9D00"/>
<path fill-rule="evenodd" clip-rule="evenodd" d="M6.80293 10.9332C7.22481 11.0562 7.25117 11.689 7.22481 11.8736C7.16328 12.2076 7.01387 12.5679 6.9084 12.524C6.78535 12.48 6.9084 12.023 6.84688 11.8824C6.78535 11.689 6.425 11.3199 6.46016 11.2144C6.38106 10.9947 6.63594 10.8892 6.80293 10.9332ZM15.2316 13.8863C14.8977 14.0621 14.7746 14.5894 14.9768 14.9058C15.1701 15.1695 15.4689 15.0728 15.5041 15.0728C15.8293 15.108 16.0227 14.4664 16.0227 14.4664C16.0227 14.4664 16.0314 14.2906 15.6535 14.6334C15.4865 14.6597 15.4777 14.5982 15.4338 14.5103C15.3936 14.343 15.409 14.1671 15.4777 14.0093C15.5393 13.8511 15.4162 13.7808 15.2316 13.8863ZM17.6926 10.6871C17.5168 10.8013 17.1916 11.1441 17.1828 11.5308C17.174 11.7506 17.1301 11.7506 17.2707 11.8824C17.385 12.0406 17.4816 12.0318 17.6926 11.9175C17.7451 11.8845 17.7902 11.8408 17.825 11.7894C17.8598 11.7379 17.8836 11.6798 17.8947 11.6187C17.9475 11.3726 17.6311 11.7418 17.5959 11.4605C17.5256 11.1968 17.7277 11.0914 17.9211 10.8453C17.9211 10.6695 17.9211 10.5552 17.6838 10.6871H17.6926ZM19.6613 11.0386C19.5838 11.3587 19.5368 11.6853 19.5207 12.0142C19.468 12.2603 19.7844 12.3658 19.9162 12.0494C20.1272 11.4781 20.1271 11.232 20.1447 10.9947C20.0832 10.6168 19.8283 10.6256 19.6613 11.0386ZM32.1418 17.3931C32.177 17.3492 33.8996 16.1275 33.8996 16.1275C34.0754 16.066 34.0314 16.7603 33.9523 16.7515C33.4181 17.2664 32.8036 17.6909 32.133 18.0084C32.0451 18.0699 31.966 17.5425 32.133 17.3931H32.1418ZM33.6975 17.3756C34.0051 17.525 34.1281 18.4127 34.093 18.65C34.093 19.1246 33.8029 19.4937 33.6799 19.441C33.5568 19.3795 33.6975 18.8521 33.6359 18.6675C33.5656 18.4039 33.3107 17.9205 33.3547 17.7798C33.2668 17.481 33.5129 17.3228 33.7062 17.3756H33.6975ZM23.5021 21.19C23.6447 21.0236 23.8105 20.8786 23.9943 20.7593C24.1701 20.6715 24.3283 20.8297 24.3195 20.8209C24.3459 20.9966 24.2141 21.1461 24.258 21.3746C24.2932 21.4625 24.3195 21.5679 24.4865 21.5328C24.759 21.3131 25.0139 21.2955 25.2775 21.2867C25.4973 21.2955 25.5061 21.6558 25.3654 21.6558C24.8645 21.7613 24.6447 21.9019 24.2844 22.0338C24.1086 22.1392 23.968 22.0074 23.968 21.9986C23.968 21.9898 23.8713 21.9019 23.9328 21.6734C23.9504 21.4976 23.8801 21.3922 23.7219 21.4097C23.6164 21.48 23.5109 21.5152 23.4582 21.3834C23.4318 21.2955 23.423 21.2427 23.5021 21.19ZM35.508 21.6646C35.5783 21.7525 35.6311 21.8404 35.4992 21.9986L35.174 22.2799C35.1213 22.3677 35.0861 22.5259 35.2619 22.5699C35.5783 22.6578 36.3166 22.1744 36.3166 22.1656C36.4396 22.0777 36.4045 21.9019 36.3869 21.9019C36.3166 21.8228 36.1584 21.8756 36.0529 21.858C36.0002 21.858 35.8332 21.8404 35.9123 21.6822C35.9713 21.6045 36.0187 21.5187 36.0529 21.4273C36.0969 21.3218 36.0529 21.2515 35.8771 21.19C35.6926 21.1549 35.6135 21.1724 35.4113 21.19C35.3059 21.2076 35.2707 21.2603 35.2443 21.3922C35.2531 21.5943 35.3762 21.5855 35.508 21.6558V21.6646Z" fill="white"/>
<path fill-rule="evenodd" clip-rule="evenodd" d="M23.5632 16.6727C23.5192 16.7606 23.361 16.7606 23.2116 16.6727C23.0622 16.5848 22.9743 16.4442 23.0271 16.3651C23.0798 16.286 23.2292 16.286 23.3786 16.3651C23.528 16.4442 23.6071 16.5936 23.5632 16.6727ZM15.7409 11.9617C15.653 11.9881 15.53 11.909 15.4773 11.786C15.4245 11.6629 15.4509 11.5574 15.5388 11.5311C15.6267 11.5047 15.7409 11.5926 15.8024 11.7069C15.864 11.8211 15.8288 11.9442 15.7321 11.9705L15.7409 11.9617Z" fill="#259F00"/>
<path fill-rule="evenodd" clip-rule="evenodd" d="M31.2187 32.959C32.0448 32.9941 32.8183 32.959 33.6357 33.0029C33.7851 33.1348 33.6796 33.4424 33.5829 33.4248L32.8974 33.3984C32.8886 33.1348 32.2206 33.1787 32.2382 33.4072C31.8778 33.4512 31.5527 33.3984 31.1835 33.3809C31.078 33.249 31.0956 33.0117 31.2187 32.959Z" fill="#209000"/>
</g>
<defs>
<clipPath id="clip0_200_68647">
<rect width="60" height="45" fill="white" transform="translate(-7.5)"/>
</clipPath>
</defs>
</svg>
