<svg width="45" height="45" viewBox="0 0 45 45" fill="none" xmlns="http://www.w3.org/2000/svg">
<g clip-path="url(#clip0_200_70611)">
<path fill-rule="evenodd" clip-rule="evenodd" d="M-7.5 44.5781L79.2832 0H-7.5V44.5781Z" fill="#0000D6"/>
<path fill-rule="evenodd" clip-rule="evenodd" d="M82.5 0L-5.10938 45H82.5V0Z" fill="#006000"/>
<path fill-rule="evenodd" clip-rule="evenodd" d="M82.5 0H77.6748L-7.5 42.6621V45H-2.6748L82.5 2.42578V0Z" fill="#FFCC00"/>
<path fill-rule="evenodd" clip-rule="evenodd" d="M-1.22461 0.799805L-0.1875 3.83203H3.19629L0.462891 5.68652L1.50879 8.70996L-1.22461 6.85547L-3.95801 8.71875L-2.91211 5.69531L-5.64551 3.82324H-2.27051L-1.22461 0.799805ZM15.5713 0.799805L16.6172 3.83203H20.001L17.2588 5.69531L18.3135 8.71875L15.5625 6.85547L12.8379 8.72754L13.8838 5.7041L11.1416 3.83203H14.5254L15.5713 0.799805ZM15.5713 13.5L16.6172 16.5322H20.001L17.2588 18.3955L18.3135 21.4189L15.5713 19.5469L12.8467 21.4189L13.8926 18.3955L11.1504 16.5234H14.5342L15.5713 13.5ZM7.22168 7.22461L8.26758 10.248H11.6426L8.91797 12.1201L9.95508 15.1436L7.23047 13.2715L4.48828 15.1436L5.54297 12.1201L2.80078 10.248H6.18457L7.22168 7.22461ZM-1.22461 13.5L-0.1875 16.5322H3.19629L0.462891 18.3955L1.50879 21.4189L-1.22461 19.5469L-3.95801 21.4189L-2.90332 18.3955L-5.6543 16.5234H-2.2793L-1.22461 13.5Z" fill="white"/>
</g>
<defs>
<clipPath id="clip0_200_70611">
<rect width="60" height="45" fill="white" transform="translate(-7.5)"/>
</clipPath>
</defs>
</svg>
