<svg width="45" height="45" viewBox="0 0 45 45" fill="none" xmlns="http://www.w3.org/2000/svg">
<g clip-path="url(#clip0_200_68641)">
<path fill-rule="evenodd" clip-rule="evenodd" d="M-9.375 0H58.125V45H-9.375V0Z" fill="white"/>
<path fill-rule="evenodd" clip-rule="evenodd" d="M-9.375 0H58.125V22.5H-9.375V0Z" fill="#DF0000"/>
<path fill-rule="evenodd" clip-rule="evenodd" d="M6.18746 3.76864C4.41165 4.15027 2.82121 5.13124 1.68315 6.54685C0.545094 7.96246 -0.071279 9.72651 -0.0624833 11.5428C-0.0536876 13.3592 0.579741 15.1172 1.73145 16.5217C2.88317 17.9262 4.48304 18.8917 6.26245 19.2561C5.24308 19.5511 4.1755 19.6419 3.12095 19.5234C2.06639 19.4049 1.04561 19.0794 0.117141 18.5655C-0.811329 18.0516 -1.62922 17.3595 -2.28962 16.5288C-2.95003 15.6982 -3.43995 14.7453 -3.7313 13.7249C-4.30995 11.6737 -4.05292 9.47688 -3.01642 7.61469C-1.97991 5.75249 -0.248251 4.37644 1.79995 3.78739C3.29995 3.35614 4.68746 3.34677 6.19683 3.76864H6.18746Z" fill="white"/>
<path fill-rule="evenodd" clip-rule="evenodd" d="M4.96875 10.3123L5.42812 11.7186L4.20938 10.8561L3.00937 11.7373L3.45 10.3123L2.25 9.44043L3.74063 9.42168L4.20938 8.01543L4.67812 9.42168H6.15937L4.96875 10.3123ZM6.60938 15.1873L7.07812 16.6029L5.85938 15.7404L4.65 16.6123L5.1 15.1967L3.9 14.3154L5.39062 14.3061L5.85 12.8904L6.31875 14.2967H7.81875L6.60938 15.1873ZM12.0938 15.1498L12.5531 16.5748L11.3344 15.7029L10.1344 16.5748L10.575 15.1592L9.375 14.2873L10.8656 14.2686L11.3344 12.8623L11.8031 14.2686H13.2844L12.0938 15.1498ZM13.725 10.3123L14.1844 11.7279L12.9656 10.8654L11.7656 11.7373L12.2156 10.3217L11.0062 9.44043L12.5062 9.43105L12.9562 8.01543L13.425 9.42168H14.925L13.725 10.3123ZM9.38438 7.09668L9.85313 8.52168L8.63438 7.6498L7.425 8.53105L7.875 7.10605L6.675 6.2248L8.15625 6.21543L8.625 4.7998L9.09375 6.20605H10.5938L9.38438 7.09668Z" fill="white"/>
</g>
<defs>
<clipPath id="clip0_200_68641">
<rect width="60" height="45" fill="white" transform="translate(-7.5)"/>
</clipPath>
</defs>
</svg>
