<svg width="45" height="45" viewBox="0 0 45 45" fill="none" xmlns="http://www.w3.org/2000/svg">
<g clip-path="url(#clip0_200_68812)">
<path fill-rule="evenodd" clip-rule="evenodd" d="M-11.627 0H78.373V45H-11.627V0Z" fill="white"/>
<path fill-rule="evenodd" clip-rule="evenodd" d="M-11.627 29.9971H78.373V45H-11.627V29.9971Z" fill="#D50000"/>
<path fill-rule="evenodd" clip-rule="evenodd" d="M-11.627 15.0029H78.373V29.9971H-11.627V15.0029Z" fill="#0000BF"/>
<path fill-rule="evenodd" clip-rule="evenodd" d="M13.8965 8.17383C13.5449 13.5879 13.334 16.5586 12.5166 17.9297C11.6201 19.4062 10.7588 20.4873 7.26953 21.7969C3.78906 20.4873 2.92773 19.4062 2.03125 17.9297C1.20508 16.5586 1.00293 13.5879 0.651367 8.17383L1.16113 7.99805C2.19824 7.68164 2.97168 7.42676 3.54297 7.3125C4.36035 7.13672 5.06348 6.94336 7.26074 6.89941C9.45801 6.93457 10.1611 7.14551 10.9785 7.32129C11.541 7.44434 12.3496 7.67285 13.3779 7.99805L13.8965 8.17383Z" fill="#D50000"/>
<path fill-rule="evenodd" clip-rule="evenodd" d="M13.3867 7.99805C13.0527 13.4033 12.7715 15.8818 12.332 17.0684C11.4883 19.1074 10.1523 20.2236 7.26953 21.2871C4.38672 20.2236 3.05078 19.1074 2.19824 17.0684C1.75879 15.873 1.49512 13.4033 1.16113 7.98926C2.18066 7.67285 2.97168 7.42676 3.54297 7.3125C4.36035 7.13672 5.06348 6.93457 7.26074 6.89941C9.45801 6.93457 10.1611 7.13672 10.9785 7.3125C11.7921 7.4977 12.5958 7.72357 13.3867 7.98926V7.99805Z" fill="#0000BF"/>
<path fill-rule="evenodd" clip-rule="evenodd" d="M7.26953 9.65039L7.40137 9.97559L8.0166 10.0635L7.62109 10.3008L7.99902 10.5557L7.44531 10.6436L7.26953 10.9424L7.09375 10.6348L6.56641 10.5645L6.91797 10.3008L6.54883 10.0635L7.1377 9.97559L7.26953 9.65039Z" fill="#FFDF00"/>
<path fill-rule="evenodd" clip-rule="evenodd" d="M12.1299 15.7852L11.7871 15.5215L11.5498 15.1172L11.0752 14.7041L10.8203 14.291L10.3457 13.8604L10.1172 13.4473L9.85352 13.2451L9.69531 13.0781L9.25586 13.4561L9.02734 13.8691L8.7373 14.1328L8.41211 13.8779L8.17481 13.4561L7.26953 11.8477L6.36426 13.4561L6.12695 13.8779L5.80176 14.1328L5.51172 13.8691L5.27441 13.4561L4.84375 13.0781L4.67676 13.2363L4.42188 13.4473L4.19336 13.8604L3.71875 14.291L3.46387 14.7041L2.98926 15.1172L2.75195 15.5215L2.40918 15.7852C2.60241 16.9949 3.17485 18.1121 4.04395 18.9756C4.98682 19.7825 6.08009 20.3949 7.26074 20.7773C8.45039 20.4034 9.55104 19.7903 10.4951 18.9756C11.0049 18.4482 11.9541 17.2793 12.1299 15.7852Z" fill="white"/>
<path fill-rule="evenodd" clip-rule="evenodd" d="M8.71094 7.37402L8.85156 7.69922L9.4668 7.78711L9.0625 8.02441L9.44922 8.2793L8.89551 8.36719L8.71973 8.66602L8.54394 8.3584L8.0166 8.28809L8.36816 8.02441L7.99902 7.78711L8.5791 7.69922L8.71973 7.37402H8.71094ZM5.81055 7.37402L5.95117 7.69922L6.56641 7.77832L6.1709 8.01562L6.54883 8.27051L5.99512 8.3584L5.81934 8.65723L5.64355 8.3584L5.11621 8.2793L5.46777 8.01562L5.09863 7.77832L5.6875 7.69043L5.81934 7.36523L5.81055 7.37402Z" fill="#FFDF00"/>
<path fill-rule="evenodd" clip-rule="evenodd" d="M11.374 17.8418H10.7236L10.1084 17.7979L9.37891 17.4463H8.55274L7.84082 17.7979L7.26953 17.8506L6.70703 17.7979L5.99512 17.4463H5.16016L4.42187 17.7979L3.81543 17.8506L3.14746 17.8418L2.83105 17.2969L2.83984 17.2793L3.82422 17.4463L4.43066 17.4023L5.16016 17.042H5.98633L6.70703 17.3936L7.26953 17.4463L7.84082 17.3936L8.55274 17.042H9.37891L10.1172 17.3936L10.7236 17.4463L11.6729 17.2705L11.6904 17.3057L11.3652 17.8418H11.374ZM3.78027 18.6768L4.43066 18.6328L5.16016 18.2813H5.98633L6.70703 18.6328L7.26953 18.6768L7.83203 18.6328L8.55274 18.2813H9.37891L10.1084 18.6328L10.7676 18.6768L11.1895 18.1494H11.1807L10.7236 18.2725L10.1172 18.2285L9.3877 17.877H8.56152L7.84082 18.2285L7.27832 18.2813L6.70703 18.2285L5.99512 17.877H5.16016L4.42187 18.2285L3.81543 18.2813L3.37598 18.167V18.1846L3.77148 18.6768H3.78027Z" fill="#0000BF"/>
</g>
<defs>
<clipPath id="clip0_200_68812">
<rect width="60" height="45" fill="white" transform="translate(-7.5)"/>
</clipPath>
</defs>
</svg>
