<svg width="45" height="45" viewBox="0 0 45 45" fill="none" xmlns="http://www.w3.org/2000/svg">
<g clip-path="url(#clip0_200_68600)">
<path d="M-7.5 0H52.5V45H-7.5V0Z" fill="#EE1C25"/>
<path d="M-7.5 0H52.5V30H-7.5V0Z" fill="#0B4EA2"/>
<path d="M-7.5 0H52.5V15H-7.5V0Z" fill="white"/>
<path d="M14.3434 34.7623C10.3121 32.8217 4.53711 28.9592 4.53711 21.3373C4.53711 13.7061 4.91211 10.2373 4.91211 10.2373H23.784C23.784 10.2373 24.1496 13.7061 24.1496 21.3373C24.1496 28.9686 18.3746 32.8123 14.3434 34.7623Z" fill="white"/>
<path d="M14.3438 33.75C10.6406 31.9688 5.34375 28.425 5.34375 21.4313C5.34375 14.4375 5.68125 11.25 5.68125 11.25H23.0062C23.0062 11.25 23.3344 14.4375 23.3344 21.4313C23.3438 28.4344 18.0469 31.9688 14.3438 33.75Z" fill="#EE1C25"/>
<path d="M15.1312 19.5936C16.1344 19.6123 18.0938 19.6498 19.8281 19.0686C19.8281 19.0686 19.7906 19.6967 19.7906 20.4186C19.7906 21.1404 19.8375 21.7686 19.8375 21.7686C18.2438 21.2342 16.2656 21.2248 15.1312 21.2342V25.0967H13.5563V21.2342C12.4313 21.2248 10.4531 21.2342 8.85938 21.7686C8.85938 21.7686 8.90625 21.1404 8.90625 20.4186C8.90625 19.6873 8.85938 19.0686 8.85938 19.0686C10.5938 19.6498 12.5531 19.6123 13.5469 19.5936V17.1654C12.6375 17.1654 11.325 17.2029 9.83437 17.6998C9.83437 17.6998 9.88125 17.0811 9.88125 16.3498C9.88125 15.6279 9.83437 14.9998 9.83437 14.9998C11.325 15.4967 12.6375 15.5436 13.5469 15.5342C13.5 13.9967 13.05 12.0654 13.05 12.0654C13.05 12.0654 13.9781 12.1311 14.3438 12.1311C14.7188 12.1311 15.6375 12.0654 15.6375 12.0654C15.6375 12.0654 15.1875 13.9967 15.1406 15.5342C16.05 15.5436 17.3625 15.4967 18.8531 14.9998C18.8531 14.9998 18.8063 15.6279 18.8063 16.3498C18.8063 17.0811 18.8531 17.6998 18.8531 17.6998C17.6517 17.3124 16.3932 17.1317 15.1312 17.1654V19.6029V19.5936Z" fill="white"/>
<path d="M14.3441 24.6846C12.4785 24.6846 11.4848 27.2627 11.4848 27.2627C11.4848 27.2627 10.9223 26.0439 9.40352 26.0439C8.37227 26.0439 7.62227 26.9533 7.13477 27.8064C9.00977 30.7783 12.0004 32.6158 14.3441 33.7502C16.6879 32.6252 19.6879 30.7783 21.5535 27.8064C21.066 26.9627 20.316 26.0439 19.2848 26.0439C17.766 26.0439 17.2035 27.2627 17.2035 27.2627C17.2035 27.2627 16.2191 24.6846 14.3441 24.6846Z" fill="#0B4EA2"/>
</g>
<defs>
<clipPath id="clip0_200_68600">
<rect width="60" height="45" fill="white" transform="translate(-7.5)"/>
</clipPath>
</defs>
</svg>
