<svg width="45" height="45" viewBox="0 0 45 45" fill="none" xmlns="http://www.w3.org/2000/svg">
<g clip-path="url(#clip0_200_67745)">
<path fill-rule="evenodd" clip-rule="evenodd" d="M-7.5 0H60V22.5H22.4971L-7.5 0Z" fill="#ED2939"/>
<path fill-rule="evenodd" clip-rule="evenodd" d="M-7.5 45H60V22.5H22.4971L-7.5 45Z" fill="#002395"/>
<path fill-rule="evenodd" clip-rule="evenodd" d="M-7.5 0L22.4971 22.5L-7.5 45V0Z" fill="white"/>
<path d="M7.64356 16.9805L7.65234 16.6289C7.65234 16.6289 7.46777 16.3301 7.6875 16.0137C7.6875 16.0137 7.22168 15.7676 7.33594 15.3809C7.33594 15.3809 6.91406 15.2754 6.94043 14.8184C6.94043 14.8184 6.50098 14.792 6.44824 14.4053C6.44824 14.4053 6 14.4756 5.79785 14.1064C5.79785 14.1064 5.3584 14.1943 5.23535 13.8867C5.23535 13.8867 4.80469 14.0273 4.55859 13.667C4.55859 13.667 4.10156 13.8516 3.91699 13.5088C3.73242 13.8516 3.27539 13.667 3.27539 13.667C3.0293 14.0273 2.59863 13.8779 2.59863 13.8779C2.47559 14.1855 2.04492 14.0977 2.04492 14.0977C1.84277 14.4756 1.39453 14.3965 1.39453 14.3965C1.35059 14.7832 0.902344 14.8184 0.902344 14.8184C0.91503 14.9427 0.883109 15.0676 0.812275 15.1706C0.741442 15.2737 0.636305 15.3482 0.515625 15.3809C0.629883 15.7588 0.164062 16.0049 0.164062 16.0049C0.392578 16.3301 0.208008 16.6201 0.208008 16.6201L0.199219 16.9453L7.64356 16.9805Z" fill="#FFFF00"/>
<path fill-rule="evenodd" clip-rule="evenodd" d="M3.92667 13.4814L3.93967 13.506C4.02664 13.6702 4.17847 13.7094 4.31143 13.707C4.37792 13.7057 4.43905 13.694 4.48365 13.6826C4.50591 13.6769 4.52398 13.6712 4.53643 13.667C4.54266 13.6649 4.54747 13.6632 4.55071 13.662C4.55232 13.6614 4.55354 13.6609 4.55435 13.6606L4.55523 13.6603L4.55543 13.6602L4.56664 13.6557L4.5735 13.6656C4.69609 13.8421 4.86242 13.8935 4.99894 13.9009C5.06732 13.9046 5.12809 13.8972 5.17177 13.8889C5.1936 13.8847 5.2111 13.8803 5.22309 13.877C5.22908 13.8753 5.23369 13.8739 5.23677 13.873C5.23756 13.8727 5.23825 13.8725 5.23883 13.8723C5.23939 13.8721 5.23986 13.872 5.24022 13.8718L5.24105 13.8716L5.24123 13.8715M3.28711 13.6602L3.28731 13.6603L3.2882 13.6606C3.289 13.6609 3.29022 13.6614 3.29184 13.662C3.29507 13.6632 3.29989 13.6649 3.30613 13.667C3.3186 13.6712 3.3367 13.6768 3.35904 13.6826C3.40379 13.694 3.46524 13.7057 3.53237 13.707C3.66661 13.7094 3.82116 13.6702 3.91312 13.5057L3.92667 13.4814" fill="black"/>
<path d="M7.46777 16.541C6.29883 16.4268 4.9541 16.1455 3.91699 16.7344C3.21387 16.3213 2.24707 16.3477 1.4209 16.4268C0.972656 16.5146 0.445312 16.5146 -0.0292969 16.585L-0.0996099 16.5938C-0.952149 16.6553 -1.72559 16.4004 -2.47266 16.0664C-2.22656 17.4023 -1.97168 18.7646 -1.83984 20.1621C-1.55859 22.2363 -2.81543 23.9678 -2.31445 26.0156C-2.00684 27 -0.925781 27.5713 0.0585938 27.6855C1.01059 27.7457 1.95666 27.8779 2.88867 28.0811C3.05454 28.1219 3.21634 28.1778 3.37207 28.248C3.59196 28.3441 3.7895 28.4847 3.95215 28.6611C4.47949 28.1074 5.27051 27.9492 6.03516 27.8701C7.42383 27.7031 9.1377 27.791 9.99023 26.5342V26.4639C10.4561 25.7607 10.3945 24.7061 10.1924 23.915C10.1748 23.6426 10.1045 23.3965 10.0605 23.1328C9.2168 20.8916 9.94629 18.3691 10.3066 16.1016C9.85157 16.3303 9.36623 16.4931 8.86523 16.585C8.46973 16.6377 8.03027 16.6201 7.63477 16.5938L7.45898 16.5498" fill="#FF0000"/>
<path d="M9.2168 22.9834C9.2168 23.124 9.2959 23.2471 9.32226 23.3789C9.48926 24.3633 9.63867 25.6641 8.63672 26.2705C7.51172 26.9736 6.05273 26.6748 4.76074 27.0527C4.49707 27.123 4.14551 27.3604 3.96973 27.5273C3.84668 27.4482 3.73242 27.334 3.58301 27.2637C2.51953 26.7012 1.13086 26.8857 -0.0644535 26.5781C-0.670899 26.3936 -1.29492 25.9189 -1.45312 25.3037C-1.83984 23.6865 -0.908203 22.3066 -1.01367 20.6982C-1.08398 19.4678 -1.29492 18.2988 -1.57617 17.1475C-0.635742 17.5869 0.445312 17.6572 1.5 17.4463C2.3135 17.297 3.15235 17.3729 3.92578 17.666C4.33008 17.4902 4.80469 17.4111 5.24414 17.3672C6.06152 17.4551 6.94922 17.5957 7.80176 17.5957C8.37305 17.5605 8.8916 17.4023 9.38379 17.1826C9.09375 19.0811 8.52246 21.0674 9.2168 22.9834Z" fill="#80CFE1"/>
<path d="M7.5293 23.3613V21.5684H7.74023L5.01562 19.8105L5.00684 18.8877H5.27051L3.89941 17.9209L2.5459 18.8877H2.80957V19.8105L0.09375 21.5684H0.313477V23.3525H7.5293" fill="white"/>
<path fill-rule="evenodd" clip-rule="evenodd" d="M3.90572 17.8408L5.46329 18.9629H5.07512L5.08416 19.7759L7.94898 21.6323H7.59339V23.3649H7.53295V23.4152H0.258239V21.6323H-0.107422L2.75667 19.7764L2.74762 18.9528H2.35768L3.90572 17.8408ZM7.4725 23.2943V21.5114H7.5401L4.96399 19.8421L4.95288 18.842H5.08865L3.90561 17.9897L2.73319 18.8319H2.86719L2.87829 19.8417L0.301463 21.5114H0.379133V23.2943H7.4725Z" fill="black"/>
<path d="M8.37305 25.708V26.2617H-0.424805V25.6992H8.36426" fill="white"/>
<path fill-rule="evenodd" clip-rule="evenodd" d="M-0.487305 25.6416H8.43982V26.3266H-0.487305V25.6416ZM-0.366411 25.7625V26.2057H8.31893V25.7625H-0.366411Z" fill="black"/>
<path d="M0.155273 25.6729V23.7832H0.506836L0.489258 25.6904L0.506836 23.792L-0.00292969 23.7832V23.3701L7.85449 23.3877V23.7832H7.37988V25.6992L7.37109 23.7832H7.72266L7.74023 25.6816" fill="white"/>
<path fill-rule="evenodd" clip-rule="evenodd" d="M-0.0537109 23.3145L7.92629 23.3247V23.8484H7.79563L7.80538 25.6814L7.68449 25.6821L7.67473 23.8484H7.44297L7.45273 25.7012L7.45273 25.7016L7.33184 25.7025L7.33184 25.7022L7.31105 23.7275H7.8054V23.4454L0.0671826 23.4355V23.7198L0.0974258 23.721V23.7175H0.571611L0.571374 23.74L0.571593 23.74L0.550819 25.6924L0.429932 25.6912L0.449252 23.8561L0.218319 23.8469V25.6717H0.0974258V23.842L-0.0537109 23.836V23.3145Z" fill="black"/>
<path fill-rule="evenodd" clip-rule="evenodd" d="M0.72168 23.8281H1.91061V25.2082H1.84008L1.83951 25.2686L0.72168 25.258V23.8281ZM1.78971 25.1472V23.949H0.842573V25.1382L1.78971 25.1472Z" fill="black"/>
<path fill-rule="evenodd" clip-rule="evenodd" d="M5.90109 23.8379H7.0694L7.08041 25.2683H5.90109V23.8379ZM6.02199 23.9588V25.1474H6.95858L6.94944 23.9588H6.02199ZM1.07478 24.0998H1.62894V24.9862H1.02441V24.1602H1.07478V24.0998ZM1.14531 24.2207V24.8654H1.50805V24.2207H1.14531Z" fill="black"/>
<path fill-rule="evenodd" clip-rule="evenodd" d="M5.89062 21.6924H7.06948V23.1228H5.89062V21.6924ZM6.01152 21.8133V23.0019H6.94858V21.8133H6.01152ZM6.18283 24.1099H6.78735V24.9964H6.18283V24.1099ZM6.30372 24.2308V24.8755H6.66646V24.2308H6.30372Z" fill="black"/>
<path fill-rule="evenodd" clip-rule="evenodd" d="M0.72168 21.6826H1.90053V23.0626H1.84008V23.113H0.72168V21.6826ZM1.77964 22.9921V21.8035H0.842573V22.9921H1.77964ZM6.17268 21.9647H6.77721V22.8511H6.17268V21.9647ZM6.29357 22.0856V22.7302H6.65631V22.0856H6.29357Z" fill="black"/>
<path fill-rule="evenodd" clip-rule="evenodd" d="M2.63685 21.6826H3.8157V23.0626H3.75525V23.113H2.63685V21.6826ZM3.69481 22.9921V21.8035H2.75774V22.9921H3.69481ZM1.01465 21.9546H1.61918V22.841H1.01465V21.9546ZM1.13554 22.0755V22.7201H1.49829V22.0755H1.13554Z" fill="black"/>
<path fill-rule="evenodd" clip-rule="evenodd" d="M4.10789 21.6816L5.28674 21.6929V23.1233L4.10789 23.112V21.6816ZM4.22878 21.8037V22.9923L5.16585 23.0012V21.8126L4.22878 21.8037ZM2.91895 21.9542H3.52348V22.8406H2.91895V21.9542ZM3.03984 22.0751V22.7198H3.40258V22.0751H3.03984Z" fill="black"/>
<path fill-rule="evenodd" clip-rule="evenodd" d="M4.38965 21.9541H5.00425V22.8406H4.38965V21.9541ZM4.51054 22.075V22.7197H4.88336V22.075H4.51054Z" fill="black"/>
<path d="M5.48144 22.6582L5.49902 25.6992H2.43164L2.42285 22.6582H5.47266" fill="white"/>
<path fill-rule="evenodd" clip-rule="evenodd" d="M3.03984 19.0029H4.79301V19.8894H3.03984V19.0029ZM3.16073 19.1238V19.7685H4.67212V19.1238H3.16073ZM2.92945 20.0505H4.91347L6.79214 21.4205H1.05078L2.92945 20.0505ZM2.96885 20.1714L1.42175 21.2996H6.42117L4.87407 20.1714H2.96885ZM2.37464 22.599H5.54849L5.55897 25.762H2.38511L2.37464 22.599ZM2.49593 22.7199L2.4984 23.4653H5.43047L5.428 22.7199H2.49593ZM5.43087 23.5862H5.18596V25.6411H5.43767L5.43087 23.5862ZM5.06507 25.6411V23.5862H2.85846V25.6411H5.06507ZM2.73756 25.6411V23.5862H2.4988L2.50561 25.6411H2.73756Z" fill="black"/>
<path fill-rule="evenodd" clip-rule="evenodd" d="M3.19901 18.7614H4.62388L3.91144 18.2549L3.19901 18.7614ZM3.91144 18.1701L3.88146 18.1279L2.82031 18.8823H5.00257L3.94143 18.1279L3.91144 18.1701ZM3.48323 19.1946H4.34973V19.6982H3.48323V19.1946ZM3.60412 19.3155V19.5774H4.22884V19.3155H3.60412Z" fill="black"/>
<path d="M7.56445 17.7539C7.81934 17.7539 7.88086 18.8086 7.88086 19.3359C8.10938 19.4062 8.59277 19.7139 8.8125 19.9863H6.33398C6.54492 19.7139 7.02832 19.4063 7.24805 19.3447C7.24805 18.8174 7.30078 17.7451 7.56445 17.7627" fill="white"/>
<path fill-rule="evenodd" clip-rule="evenodd" d="M7.37324 18.3578C7.32718 18.6851 7.31211 19.0799 7.31211 19.3454V19.391L7.26827 19.4035C7.17195 19.431 7.00206 19.5197 6.82715 19.6384C6.69612 19.7273 6.56728 19.8296 6.46886 19.9296H8.6793C8.58085 19.8296 8.45181 19.7273 8.31994 19.6385C8.14389 19.5199 7.97165 19.4312 7.87054 19.4037L7.82599 19.3915V19.3454C7.82599 19.0799 7.81092 18.6852 7.76364 18.358C7.73992 18.1939 7.70859 18.0505 7.6687 17.9496C7.64868 17.899 7.62799 17.863 7.60797 17.8405C7.58849 17.8187 7.57406 17.8143 7.56401 17.8143C7.55615 17.8143 7.54299 17.8177 7.52411 17.8397C7.50483 17.8621 7.48481 17.8982 7.4654 17.949C7.42677 18.0501 7.39635 18.1936 7.37324 18.3578ZM7.43244 17.7609C7.46508 17.7229 7.5089 17.6934 7.56401 17.6934C7.61946 17.6934 7.66422 17.722 7.69819 17.7601C7.73163 17.7975 7.75864 17.8483 7.78112 17.9052C7.82625 18.0193 7.85916 18.1737 7.88329 18.3407C7.92913 18.6579 7.94516 19.0341 7.94675 19.301C8.06579 19.3429 8.2291 19.4316 8.38747 19.5382C8.5673 19.6594 8.74963 19.8096 8.86112 19.9529L8.93702 20.0505H6.21116L6.28706 19.9529C6.39853 19.8097 6.58084 19.6594 6.75928 19.5384C6.91596 19.4321 7.07654 19.3436 7.19135 19.3016C7.19292 19.0346 7.20888 18.6582 7.25352 18.341C7.27701 18.174 7.30893 18.0198 7.35248 17.9058C7.37417 17.8491 7.40019 17.7984 7.43244 17.7609ZM8.05773 17.6934H8.44106L8.33964 17.8817C8.34983 17.8998 8.3614 17.9247 8.36935 17.9551C8.38499 18.0147 8.38579 18.093 8.34 18.1772L8.43655 18.3381H8.01141L8.11018 18.1735C8.10968 18.1723 8.10918 18.1711 8.10867 18.1699C8.09978 18.1486 8.08896 18.1184 8.08168 18.0834C8.06947 18.0249 8.06562 17.9441 8.10776 17.871L8.05773 17.7793V17.6934ZM8.22502 18.1343C8.2636 18.0736 8.26196 18.0222 8.25241 17.9857C8.24718 17.9657 8.23928 17.9495 8.23274 17.9383C8.22949 17.9327 8.22668 17.9286 8.22486 17.9261C8.22396 17.9248 8.22332 17.924 8.22301 17.9236C8.22296 17.9236 8.22292 17.9235 8.22289 17.9235C8.22287 17.9234 8.22285 17.9234 8.22283 17.9234C8.22283 17.9234 8.22284 17.9234 8.22283 17.9234L8.21994 17.92C8.19166 17.9589 8.18964 18.0089 8.20003 18.0588C8.20534 18.0843 8.21342 18.107 8.22026 18.1234C8.22197 18.1275 8.22358 18.1312 8.22502 18.1343ZM8.22666 17.8365L8.23864 17.8143H8.21452L8.22666 17.8365ZM8.70824 17.8143L8.72037 17.8365L8.73235 17.8143H8.70824ZM8.71365 17.92C8.68537 17.9589 8.68335 18.0089 8.69374 18.0588C8.69905 18.0843 8.70713 18.107 8.71397 18.1234C8.71568 18.1275 8.71729 18.1312 8.71873 18.1343C8.75731 18.0736 8.75568 18.0222 8.74612 17.9857C8.7409 17.9657 8.733 17.9495 8.72645 17.9383C8.72321 17.9327 8.7204 17.9286 8.71858 17.9261C8.71768 17.9248 8.71703 17.924 8.71673 17.9236L8.71664 17.9235L8.71653 17.9234L8.71365 17.92ZM8.60508 18.1763C8.6042 18.1742 8.6033 18.1721 8.60239 18.1699C8.59349 18.1486 8.58267 18.1184 8.57539 18.0834C8.56318 18.0249 8.55933 17.9441 8.60147 17.871L8.55883 17.7928L8.6119 17.7639V17.6934H8.93478L8.83335 17.8817C8.84355 17.8998 8.85512 17.9247 8.86307 17.9551C8.8787 18.0147 8.87951 18.093 8.83372 18.1772L8.93026 18.3381H8.52415L8.60508 18.1763ZM9.00377 17.7034H9.43253L9.32778 17.883C9.3378 17.901 9.34902 17.9254 9.35678 17.9551C9.37242 18.0147 9.37322 18.093 9.32743 18.1772L9.42398 18.3381H9.01787L9.09879 18.1763C9.09792 18.1742 9.09702 18.1721 9.0961 18.1699C9.0872 18.1486 9.07639 18.1184 9.06911 18.0834C9.0569 18.0249 9.05305 17.9441 9.09519 17.871L9.00377 17.7034ZM9.21245 18.1343C9.25102 18.0736 9.24939 18.0222 9.23984 17.9857C9.23461 17.9657 9.22671 17.9495 9.22016 17.9383C9.21692 17.9327 9.21411 17.9286 9.21229 17.9261C9.21139 17.9248 9.21075 17.924 9.21044 17.9236C9.21037 17.9235 9.21038 17.9235 9.21035 17.9235C9.21031 17.9234 9.21023 17.9234 9.21024 17.9234L9.20737 17.92C9.17909 17.9589 9.17706 18.0089 9.18746 18.0588C9.19277 18.0843 9.20085 18.107 9.20769 18.1234C9.2094 18.1275 9.21101 18.1312 9.21245 18.1343ZM9.21449 17.8372L9.22202 17.8243H9.20745L9.21449 17.8372ZM2.47869 22.6796H2.89599L2.80624 22.859C2.81573 22.8781 2.82693 22.9051 2.83444 22.9381C2.84806 22.9981 2.84932 23.0774 2.80752 23.1619L2.90495 23.3243H2.46973L2.5685 23.1597C2.568 23.1585 2.5675 23.1573 2.56699 23.1561C2.5581 23.1348 2.54728 23.1046 2.54 23.0696C2.52771 23.0107 2.52389 22.9293 2.56685 22.8559L2.47869 22.6796ZM2.68734 23.1966L2.68328 23.2034H2.69139L2.68734 23.1966ZM2.68753 23.1293C2.72675 23.0655 2.72627 23.0077 2.71656 22.9649C2.71155 22.9429 2.70402 22.9249 2.69782 22.9125C2.69475 22.9063 2.69207 22.9017 2.69032 22.8989C2.68945 22.8974 2.68882 22.8965 2.6885 22.896C2.68842 22.8959 2.68836 22.8958 2.68832 22.8957C2.68828 22.8957 2.68825 22.8956 2.68825 22.8956L2.68753 22.8946L2.68339 22.8996C2.65025 22.9393 2.64736 22.9923 2.65835 23.045C2.66366 23.0705 2.67174 23.0932 2.67858 23.1096C2.68197 23.1177 2.68498 23.1241 2.68705 23.1283C2.68722 23.1287 2.68738 23.129 2.68753 23.1293ZM2.68734 22.8265L2.70035 22.8005H2.67432L2.68734 22.8265ZM2.9321 22.6796H3.3494L3.25965 22.859C3.26914 22.8781 3.28034 22.9051 3.28785 22.9381C3.30147 22.9981 3.30273 23.0774 3.26093 23.1619L3.35836 23.3243H2.92314L3.02191 23.1597C3.02141 23.1585 3.02091 23.1573 3.0204 23.1561C3.01151 23.1348 3.00069 23.1046 2.99341 23.0696C2.98112 23.0107 2.9773 22.9293 3.02026 22.8559L2.9321 22.6796ZM3.14075 23.1966L3.13669 23.2034H3.14481L3.14075 23.1966ZM3.14094 23.1293C3.18016 23.0655 3.17968 23.0077 3.16997 22.9649C3.16496 22.9429 3.15743 22.9249 3.15123 22.9125C3.14816 22.9063 3.14548 22.9017 3.14373 22.8989C3.14286 22.8974 3.14223 22.8965 3.14191 22.896C3.14183 22.8959 3.14178 22.8958 3.14173 22.8957L3.14166 22.8956L3.14094 22.8946L3.1368 22.8996C3.10366 22.9393 3.10077 22.9923 3.11176 23.045C3.11707 23.0705 3.12515 23.0932 3.13199 23.1096C3.13538 23.1177 3.13839 23.1241 3.14046 23.1283C3.14063 23.1287 3.14079 23.129 3.14094 23.1293ZM3.14075 22.8265L3.15376 22.8005H3.12773L3.14075 22.8265ZM3.42581 22.6796H3.84311L3.75337 22.859C3.76285 22.8781 3.77405 22.9051 3.78156 22.9381C3.79519 22.9981 3.79644 23.0774 3.75465 23.1619L3.85207 23.3243H3.43588L3.51681 23.1625C3.51593 23.1604 3.51503 23.1583 3.51412 23.1561C3.50522 23.1348 3.4944 23.1046 3.48712 23.0696C3.47484 23.0107 3.47101 22.9293 3.51398 22.8559L3.42581 22.6796ZM3.6347 23.197L3.63152 23.2034H3.63852L3.6347 23.197ZM3.63465 23.1293C3.67387 23.0655 3.67339 23.0077 3.66368 22.9649C3.65868 22.9429 3.65114 22.9249 3.64494 22.9125C3.64187 22.9063 3.63919 22.9017 3.63744 22.8989C3.63657 22.8974 3.63594 22.8965 3.63562 22.896C3.63554 22.8959 3.63548 22.8958 3.63544 22.8957C3.63541 22.8957 3.63538 22.8956 3.63538 22.8956C3.63538 22.8956 3.63538 22.8956 3.63538 22.8956L3.63465 22.8946L3.63051 22.8996C3.59738 22.9393 3.59448 22.9923 3.60547 23.045C3.61079 23.0705 3.61886 23.0932 3.62571 23.1096C3.6291 23.1177 3.6321 23.1241 3.63417 23.1283C3.63434 23.1287 3.6345 23.129 3.63465 23.1293ZM3.63446 22.8265L3.64748 22.8005H3.62144L3.63446 22.8265Z" fill="black"/>
<path d="M3.96973 29.6016C5.1123 29.6016 6.51855 29.3643 7.17773 29.0303L8.62793 28.8984L8.66308 30.665C7.43262 31.3418 4.60254 31.4912 3.97852 31.4824C3.35449 31.4824 0.489258 31.3418 -0.75 30.665L-0.732422 28.8896L0.717773 29.0215C1.75418 29.4228 2.85847 29.6198 3.96973 29.6016Z" fill="#FFFF00"/>
<path fill-rule="evenodd" clip-rule="evenodd" d="M-0.743229 28.8789L0.726903 29.0116L0.729526 29.0129C1.05993 29.1831 1.58707 29.3263 2.17481 29.427C2.76221 29.5276 3.40872 29.5854 3.97709 29.5854C4.55048 29.5854 5.18691 29.5276 5.76294 29.427C6.33928 29.3264 6.85388 29.1831 7.18434 29.0129L7.18701 29.0116L8.64693 28.8891L8.67759 30.6771L8.66964 30.6815C8.05728 31.0205 7.03952 31.2272 6.09997 31.3481C5.15995 31.469 4.29533 31.5044 3.98704 31.4993C3.67395 31.4993 2.79934 31.464 1.84793 31.3431C0.897054 31.2222 -0.133314 31.0155 -0.755768 30.6715L-0.763672 30.6671L-0.743229 28.8789ZM-0.713381 28.9119L-0.733244 30.6493C-0.11555 30.9877 0.904861 31.1927 1.85174 31.3131C2.80201 31.4339 3.67545 31.4691 3.98716 31.4691L3.98741 31.4691C4.29386 31.4741 5.15712 31.4389 6.09611 31.3181C7.0316 31.1978 8.03939 30.9928 8.64706 30.6595L8.61726 28.9219L7.19551 29.0412C6.86088 29.2129 6.34394 29.3562 5.76814 29.4568C5.19049 29.5577 4.55233 29.6157 3.97709 29.6157C3.40688 29.6157 2.75866 29.5577 2.16971 29.4568C1.58265 29.3562 1.05306 29.2129 0.718317 29.0412L-0.713381 28.9119Z" fill="black"/>
<path d="M-5.24088 23.5547L-4.01041 23.6426C-3.98405 24.6797 -3.85221 28.6523 0.893884 28.8721L0.74447 30.3223C-5.02994 30.375 -5.4694 25.4443 -5.23209 23.5547" fill="#FFFF00"/>
<path fill-rule="evenodd" clip-rule="evenodd" d="M-5.21894 23.5721C-5.33234 24.5199 -5.27844 26.2141 -4.48218 27.6662C-4.0822 28.3957 -3.49495 29.064 -2.64739 29.5462C-1.82298 30.0153 -0.751501 30.3089 0.634937 30.3107L0.729464 30.2903L0.733765 30.3103C0.735563 30.3103 0.737363 30.3103 0.739163 30.3103L0.887245 28.8891C-1.48526 28.7741 -2.7052 27.7257 -3.33486 26.5727C-3.95978 25.4283 -4.00227 24.1827 -4.01768 23.6509L-5.21894 23.5721ZM0.638131 30.3409C0.67617 30.3409 0.714444 30.3408 0.752954 30.3404L0.766429 30.3402L0.920621 28.8604L0.904636 28.8596C-1.46812 28.7491 -2.68246 27.7043 -3.30834 26.5582C-3.93492 25.4108 -3.97276 24.16 -3.98787 23.6362L-3.98827 23.6225L-5.23123 23.541L-5.23222 23.5561L-5.24722 23.5543C-5.36332 24.503 -5.313 26.2139 -4.50868 27.6808C-4.10637 28.4144 -3.51538 29.0871 -2.66234 29.5725C-1.85974 30.0292 -0.825911 30.3196 0.499667 30.3398L-0.721448 30.6026L-0.715089 30.6321L0.638131 30.3409Z" fill="black"/>
<path d="M12.3105 22.0781L11.0449 22.4824L11.4492 24.5391L12.6621 24.7324C12.6621 24.7324 12.8555 23.6514 12.3105 22.0781Z" fill="#FFFF00"/>
<path fill-rule="evenodd" clip-rule="evenodd" d="M12.3287 22.0566L12.3335 22.0706C12.6061 22.8629 12.6919 23.5317 12.7096 24.0027C12.7185 24.2382 12.7102 24.4242 12.6998 24.5514C12.6946 24.6151 12.6888 24.664 12.6843 24.6971C12.6821 24.7136 12.6802 24.7262 12.6788 24.7347C12.6781 24.7389 12.6776 24.7421 12.6772 24.7443L12.6768 24.7468L12.6767 24.7474L12.6766 24.7476C12.6766 24.7476 12.6766 24.7476 12.6618 24.7449L12.6766 24.7476L12.6739 24.7622L11.4398 24.5566L11.0322 22.4681L12.3287 22.0566ZM12.6494 24.7275C12.6506 24.7193 12.6524 24.7078 12.6544 24.693C12.6588 24.6604 12.6645 24.612 12.6697 24.549C12.68 24.4228 12.6882 24.238 12.6794 24.0038C12.6619 23.5382 12.5774 22.8775 12.3097 22.0944L11.0671 22.4888L11.4655 24.5302L12.6494 24.7275Z" fill="black"/>
<path d="M11.4492 24.5215L12.6533 24.7412L11.8799 23.6514L11.4404 24.5215" fill="#7E7E7E"/>
<path fill-rule="evenodd" clip-rule="evenodd" d="M11.8842 23.6279L12.6963 24.7561L11.4307 24.5347L11.8842 23.6279ZM11.8889 23.6862L11.4758 24.5119L12.6284 24.7136L11.8889 23.6862Z" fill="black"/>
<path d="M13.0928 23.5635L11.8623 23.6514C11.8447 24.6885 11.748 28.6611 7.00195 28.8809L7.17773 30.3223C12.9521 30.3926 13.3477 25.4531 13.1016 23.5635" fill="#FFFF00"/>
<path fill-rule="evenodd" clip-rule="evenodd" d="M13.1099 23.5498V23.575C13.2359 24.5189 13.2005 26.2267 12.4091 27.6905C12.0131 28.423 11.4277 29.0944 10.5787 29.5783C9.77266 30.0376 8.72967 30.3274 7.38679 30.3404L8.64436 30.6023L8.6382 30.6319L7.24009 30.3407C7.21683 30.3406 7.19347 30.3404 7.17003 30.3401L7.15668 30.34L6.99219 28.8702L7.00833 28.8695C9.38106 28.7639 10.5853 27.7192 11.1998 26.5719C11.8151 25.4233 11.8403 24.17 11.8504 23.6462L11.8507 23.6324L13.1099 23.5498ZM7.24329 30.3105L7.19345 30.3002L7.19137 30.3101C7.18883 30.3101 7.18629 30.3101 7.18375 30.3101L7.02582 28.8989C9.3982 28.7889 10.6081 27.7405 11.2264 26.5862C11.8401 25.4407 11.8701 24.1926 11.8804 23.6607L13.0803 23.582C13.2054 24.5228 13.169 26.2214 12.3825 27.6761C11.9888 28.4043 11.4072 29.0713 10.5638 29.552C9.73456 30.0246 8.6514 30.3175 7.24329 30.3105Z" fill="black"/>
<path d="M3.20485 30.4714C3.16969 30.4889 3.11696 30.4977 3.07301 30.4889L2.8445 30.4802L2.86207 30.1901L3.09059 30.2077C3.13453 30.2077 3.17848 30.2165 3.19606 30.2341C3.24 30.2516 3.25758 30.2956 3.25758 30.3571C3.25758 30.4098 3.23121 30.445 3.19606 30.4714M2.81813 30.9108L2.83571 30.568L3.09938 30.5856C3.18727 30.5944 3.25758 30.568 3.30153 30.5241C3.34547 30.4889 3.37184 30.4362 3.37184 30.3659C3.37624 30.3345 3.37381 30.3026 3.3647 30.2722C3.3556 30.2419 3.34005 30.2139 3.31911 30.1901C3.27166 30.1439 3.20941 30.1159 3.14332 30.111L2.75661 30.0846L2.70387 30.9108H2.81813ZM3.6443 30.2341H3.92555L4.02223 30.2516C4.06618 30.278 4.08375 30.3132 4.08375 30.3747C4.08375 30.4274 4.07496 30.4626 4.03981 30.4889C4.00207 30.5091 3.95944 30.5182 3.91676 30.5153H3.6443V30.2341ZM3.6443 30.9548V30.6032L3.90797 30.612C3.95192 30.612 3.99586 30.612 4.01344 30.6296C4.0486 30.6471 4.07496 30.6823 4.07496 30.735V30.9372L4.09254 30.9636H4.23317V30.946C4.2246 30.9415 4.21705 30.9352 4.211 30.9277C4.20495 30.9201 4.20053 30.9114 4.19801 30.902C4.1923 30.879 4.18935 30.8554 4.18922 30.8317V30.7175C4.18922 30.6647 4.17164 30.6296 4.15407 30.612C4.13645 30.5878 4.11195 30.5694 4.08375 30.5593C4.11891 30.5417 4.15407 30.5153 4.17164 30.4889C4.18922 30.4538 4.2068 30.4186 4.2068 30.3659C4.2068 30.278 4.16286 30.2077 4.08375 30.1725C4.03386 30.1505 3.98009 30.1385 3.92555 30.1374H3.53004V30.9636H3.6443M4.52321 30.7878C4.47048 30.7228 4.43971 30.6428 4.43532 30.5593C4.43532 30.445 4.45289 30.3571 4.50563 30.2956C4.53233 30.2665 4.56502 30.2436 4.60144 30.2285C4.63786 30.2133 4.67714 30.2062 4.71657 30.2077C4.75472 30.2033 4.79337 30.2074 4.82981 30.2195C4.86624 30.2317 4.89959 30.2516 4.9275 30.278C4.98903 30.3307 5.01539 30.4098 5.02418 30.5065C5.03097 30.5919 5.01264 30.6775 4.97145 30.7526C4.9275 30.8229 4.85719 30.8669 4.75172 30.8669C4.64625 30.8669 4.57594 30.8493 4.51442 30.7878M4.38258 30.2692C4.33171 30.3571 4.30729 30.4578 4.31227 30.5593C4.32106 30.6823 4.35621 30.7878 4.43532 30.8581C4.47676 30.8987 4.52647 30.93 4.58107 30.9497C4.63567 30.9694 4.69387 30.9771 4.75172 30.9723C4.81176 30.9717 4.87081 30.957 4.92421 30.9296C4.9776 30.9021 5.02386 30.8626 5.05934 30.8141C5.12156 30.7207 5.15235 30.6099 5.14723 30.4977C5.14418 30.3975 5.10696 30.3014 5.04176 30.2253C4.96266 30.1374 4.8484 30.0934 4.69899 30.1022C4.55836 30.1022 4.45289 30.1638 4.38258 30.2692ZM8.24977 29.0827C8.33766 29.0739 8.40797 29.0739 8.46949 29.0915C8.55739 29.1266 8.61891 29.1882 8.66285 29.2936L8.5486 29.3112C8.52927 29.2611 8.49155 29.2202 8.44313 29.197C8.38751 29.174 8.3264 29.1679 8.26735 29.1794C8.23179 29.1854 8.19785 29.1986 8.16761 29.2183C8.13738 29.2379 8.1115 29.2636 8.09157 29.2936C8.04762 29.3552 8.03004 29.443 8.04762 29.5573C8.05696 29.6429 8.09399 29.7232 8.15309 29.7858C8.20582 29.8386 8.28492 29.8561 8.3816 29.8473C8.45009 29.8378 8.51267 29.8034 8.55739 29.7507C8.61012 29.6979 8.61891 29.6276 8.60133 29.5309L8.33766 29.5749L8.32887 29.487L8.69801 29.4255L8.76832 29.8649H8.68922L8.64528 29.777L8.55739 29.8649C8.51344 29.9089 8.45192 29.9264 8.3816 29.944C8.28341 29.9614 8.18232 29.9393 8.10036 29.8825C8.05394 29.8464 8.01525 29.8013 7.98657 29.75C7.95788 29.6987 7.93979 29.6421 7.93336 29.5837C7.919 29.524 7.91704 29.462 7.92762 29.4015C7.93821 29.341 7.9611 29.2834 7.99489 29.2321C8.02535 29.1896 8.06472 29.1541 8.11025 29.1283C8.15579 29.1025 8.2064 29.087 8.25856 29.0827M9.08473 29.0212L9.3484 28.9245C9.38356 28.9069 9.41871 28.9069 9.44508 28.9069C9.49782 28.9069 9.53297 28.9421 9.55055 28.9948C9.56813 29.0475 9.56813 29.0915 9.55055 29.1266C9.52418 29.153 9.48903 29.1794 9.43629 29.197L9.1902 29.2848L9.08473 29.0212ZM9.3484 29.6979L9.22536 29.3727L9.47145 29.2848C9.50169 29.27 9.53451 29.261 9.56813 29.2585C9.61207 29.2673 9.64723 29.2936 9.6736 29.3464L9.72633 29.4694L9.7527 29.5309L9.77028 29.5573L9.90211 29.5046V29.487C9.87575 29.487 9.85817 29.4782 9.84938 29.4518C9.8318 29.443 9.82301 29.4167 9.81422 29.3903L9.77028 29.2848C9.7527 29.2409 9.72633 29.2145 9.70875 29.197C9.68106 29.1849 9.65108 29.1789 9.62086 29.1794L9.6736 29.0739C9.6736 29.0388 9.6736 28.9948 9.65602 28.9509C9.62086 28.863 9.56813 28.8102 9.48024 28.8102C9.42332 28.8069 9.36636 28.8159 9.31325 28.8366L8.94411 28.9684L9.24293 29.7419L9.3484 29.7067M10.3152 29.2936L9.84938 28.6081L10.3591 28.2741L10.4207 28.362L9.99879 28.6257L10.1394 28.8366L10.5349 28.5905L10.5877 28.6696L10.1922 28.9157L10.3504 29.153L10.7898 28.8718L10.8425 28.9597L10.3152 29.2936ZM10.7283 28.0807L10.8601 27.9313C10.9304 27.861 10.992 27.8346 11.0623 27.8434C11.1414 27.8434 11.2117 27.8874 11.2908 27.9577C11.3466 28.0044 11.389 28.0651 11.4138 28.1335C11.4314 28.1862 11.4226 28.2302 11.4138 28.2741C11.3979 28.3064 11.3772 28.336 11.3523 28.362L11.2205 28.5026L10.7283 28.0807ZM11.4402 28.3972C11.5369 28.2917 11.5545 28.1862 11.5017 28.0456C11.465 27.9746 11.4141 27.9118 11.3523 27.861C11.2779 27.7906 11.1819 27.7473 11.0798 27.738C10.9744 27.7292 10.8865 27.7643 10.8074 27.8522L10.5789 28.0983L11.2117 28.652L11.4402 28.4059M11.9324 27.7643L11.2029 27.3249L11.2644 27.237L11.9939 27.6677L11.9324 27.7555M12.2224 27.2634L11.4314 26.947L11.6599 26.3932L11.7566 26.4284L11.572 26.8854L11.8093 26.9733L11.9851 26.5602L12.073 26.5954L11.8972 27.0173L12.1609 27.1227L12.3631 26.6657L12.4509 26.7009L12.2224 27.2634ZM12.574 26.2966L11.7478 26.1208L11.783 25.9889L12.5476 25.7253L11.8709 25.5759L11.8972 25.4792L12.7234 25.655L12.697 25.778L11.9324 26.0417L12.6091 26.1911L12.5828 26.2966M12.5125 25.2419L12.5213 25.1364C12.574 25.1364 12.6091 25.1364 12.6443 25.1188C12.7058 25.0837 12.7322 25.0222 12.7498 24.9343C12.7547 24.8931 12.7517 24.8513 12.741 24.8112C12.7234 24.7497 12.6882 24.7057 12.6267 24.7057C12.574 24.697 12.5388 24.7057 12.5213 24.7321C12.4949 24.7585 12.4773 24.8024 12.4597 24.8639L12.4158 24.9694C12.3982 25.0397 12.3718 25.0925 12.3455 25.1188C12.3103 25.1716 12.2576 25.1891 12.1873 25.1804C12.1535 25.1786 12.1205 25.1698 12.0902 25.1547C12.06 25.1396 12.0332 25.1184 12.0115 25.0925C11.9588 25.0397 11.9412 24.9606 11.95 24.8639C11.9588 24.7761 11.9851 24.7057 12.0379 24.653C12.0818 24.6003 12.1521 24.5651 12.2488 24.5827L12.24 24.6882C12.1961 24.6882 12.1521 24.6882 12.1345 24.7145C12.0818 24.7409 12.0554 24.8024 12.0466 24.8815C12.0466 24.943 12.0466 24.987 12.0818 25.0222C12.1082 25.0573 12.1345 25.0749 12.1697 25.0749C12.2136 25.0749 12.2488 25.0749 12.2664 25.0397L12.3279 24.8903L12.3631 24.7761C12.3806 24.7233 12.407 24.6882 12.4334 24.653C12.4773 24.6091 12.5388 24.5915 12.6091 24.5915C12.7058 24.6003 12.7761 24.6442 12.8025 24.7145C12.8377 24.7848 12.8552 24.8552 12.8464 24.9518C12.8415 25.0386 12.8038 25.1203 12.741 25.1804C12.6795 25.2331 12.6091 25.2507 12.5125 25.2419ZM-4.67894 25.1891L-4.65257 25.2946C-4.70531 25.3034 -4.74047 25.321 -4.76683 25.3473C-4.81078 25.3913 -4.82836 25.4616 -4.81078 25.5583C-4.80473 25.5951 -4.79286 25.6307 -4.77562 25.6638C-4.74047 25.7253 -4.68773 25.7516 -4.62621 25.7429C-4.58226 25.7341 -4.55589 25.7165 -4.53832 25.6813L-4.51195 25.5407V25.4264C-4.51195 25.3561 -4.49437 25.2946 -4.48558 25.2682C-4.45922 25.2155 -4.40648 25.1804 -4.33617 25.1628C-4.26586 25.154 -4.19554 25.1628 -4.14281 25.2155C-4.08129 25.2507 -4.04613 25.321 -4.02855 25.4089C-4.01147 25.4858 -4.02075 25.5663 -4.05492 25.6374C-4.09007 25.7077 -4.14281 25.7429 -4.23949 25.7604L-4.25707 25.6638C-4.2246 25.6521 -4.19474 25.6342 -4.16918 25.611C-4.12523 25.5671 -4.11644 25.5055 -4.12523 25.4264C-4.14281 25.3561 -4.16039 25.3122 -4.19554 25.2946C-4.21024 25.283 -4.22725 25.2746 -4.24543 25.27C-4.26362 25.2655 -4.28257 25.2649 -4.30101 25.2682C-4.3204 25.2674 -4.33953 25.2729 -4.35543 25.284C-4.37133 25.2952 -4.3831 25.3112 -4.3889 25.3298L-4.39769 25.488L-4.40648 25.6022C-4.40683 25.6512 -4.41888 25.6994 -4.44164 25.7429C-4.45591 25.7714 -4.47702 25.796 -4.50309 25.8144C-4.52916 25.8328 -4.55938 25.8444 -4.59105 25.8483C-4.67894 25.8659 -4.76683 25.8395 -4.81078 25.778C-4.8645 25.7186 -4.90097 25.6457 -4.91625 25.5671C-4.92624 25.5238 -4.92749 25.479 -4.91995 25.4352C-4.9124 25.3914 -4.8962 25.3496 -4.8723 25.3122C-4.85047 25.2801 -4.82182 25.2532 -4.7884 25.2334C-4.75497 25.2137 -4.7176 25.2016 -4.67894 25.1979M-4.73168 26.279L-3.91429 26.0329L-3.72972 26.6042L-3.8264 26.6393L-3.98461 26.1735L-4.2307 26.2438L-4.08129 26.6833L-4.17797 26.7096L-4.31859 26.2702L-4.59984 26.3581L-4.44164 26.8327L-4.52953 26.8591L-4.73168 26.279ZM-4.37132 27.2721L-3.62425 26.8766L-3.53636 27.0173L-4.05492 27.5534L-3.30785 27.4304L-3.22875 27.5622L-3.97582 27.9577L-4.02855 27.8698L-3.5891 27.6325L-3.51 27.5973L-3.39574 27.5358L-4.14281 27.6677L-4.19554 27.571L-3.68578 27.0261L-3.71215 27.0436L-3.80004 27.0876C-3.82529 27.1042 -3.85173 27.1188 -3.87914 27.1315L-4.31859 27.36L-4.37132 27.2721ZM-2.98265 28.3708C-3.01781 28.362 -3.05297 28.3356 -3.08812 28.3005L-3.24632 28.1423L-3.03539 27.9489L-2.87718 28.1071C-2.85087 28.1319 -2.82993 28.1618 -2.81566 28.195C-2.79808 28.2389 -2.81566 28.2829 -2.85961 28.3268C-2.90355 28.362 -2.9475 28.3796 -2.98265 28.3708ZM-3.58031 28.4411L-3.31664 28.2038L-3.14086 28.3884C-3.07054 28.4499 -3.00902 28.4763 -2.9475 28.4763C-2.88222 28.4754 -2.81958 28.4503 -2.77172 28.4059C-2.72732 28.3581 -2.70227 28.2954 -2.7014 28.2302C-2.7014 28.1774 -2.72777 28.1159 -2.7805 28.0632L-3.04418 27.7995L-3.65941 28.362L-3.57152 28.4499M-2.83324 29.1091L-2.385 28.4059L-1.85765 28.7223L-1.91039 28.8102L-2.34984 28.5466L-2.48168 28.7663L-2.08617 29.0036L-2.13011 29.0915L-2.53441 28.8454L-2.68382 29.0827L-2.24437 29.3464L-2.29711 29.4343L-2.83324 29.1091ZM-1.51488 28.9684L-1.24242 29.0563L-1.15453 29.1003C-1.11937 29.1354 -1.11058 29.1794 -1.13695 29.2321C-1.15453 29.2848 -1.17211 29.32 -1.21605 29.3288L-1.34789 29.32L-1.60277 29.2321L-1.51488 28.9684ZM-1.7434 29.6628L-1.62914 29.3288L-1.38304 29.4079C-1.3391 29.4167 -1.29515 29.4343 -1.28636 29.4518C-1.26 29.4782 -1.25121 29.5222 -1.26 29.5749L-1.30394 29.7067L-1.31273 29.7682V29.7946L-1.18089 29.8386V29.821L-1.19847 29.7595L-1.18089 29.6979L-1.14574 29.5925C-1.13695 29.5397 -1.12816 29.5046 -1.14574 29.487C-1.14574 29.4606 -1.17211 29.4343 -1.19847 29.4079C-1.15453 29.4079 -1.11058 29.3903 -1.08422 29.3639C-1.05785 29.3376 -1.03148 29.3024 -1.02269 29.2585C-0.987536 29.1706 -1.00511 29.0915 -1.07543 29.0388C-1.11724 29.0043 -1.16486 28.9775 -1.21605 28.9597L-1.59398 28.8454L-1.85765 29.6276L-1.7434 29.6628Z" fill="#009FC5"/>
<path d="M-0.600279 15.4332C-0.512388 15.1959 0.392885 14.5543 3.33722 14.8356C3.33722 14.8356 3.8382 15.1432 4.12824 15.0992C4.30402 15.0816 4.04035 15.1168 3.81183 14.9322C3.5921 14.7565 3.54816 14.3785 4.04913 14.3961C4.5589 14.4049 6.44855 14.5104 6.48371 14.6861C6.51886 14.8531 5.48175 14.9234 5.10382 14.9147C4.7171 14.9059 4.75226 15.0992 5.13898 15.0904C6.34308 15.0377 7.65265 14.6158 9.03253 15.6002C9.19953 15.7145 8.61945 15.732 8.17121 15.5475C8.17121 15.5475 6.94074 15.609 6.41339 15.5211C6.41339 15.5211 6.01789 15.8551 5.48175 15.8199C5.55207 15.9957 5.28839 16.6285 3.63605 16.1451C3.3548 16.233 2.36164 16.4 2.4671 16.1012C2.20343 16.1012 1.7464 16.1891 1.67609 16.0397C1.60578 15.8902 2.48468 15.6705 2.64289 15.5123C2.64289 15.5123 0.779604 15.5299 0.428041 15.3981C0.428041 15.3981 -0.670592 15.6441 -0.600279 15.4332Z" fill="#BC715F"/>
<path d="M-0.0029825 18.0354C0.0321738 17.9827 0.0497516 17.8772 0.137642 17.886C0.313424 17.9299 0.445259 18.2727 0.664986 18.053C0.752877 18.0354 0.779244 18.1409 0.840767 18.1584C0.884713 18.343 1.04292 18.1145 1.14838 18.1321C1.39448 18.0266 1.68452 18.0002 1.97456 18.0442C1.97456 18.2375 1.83393 18.4397 1.65815 18.5452C1.65815 18.7209 1.83393 18.844 1.82514 19.0285C1.79877 19.0989 1.82514 19.2043 1.71967 19.2307C1.57905 19.2043 1.456 19.1955 1.34174 19.1164C1.32417 19.1077 1.31538 19.0813 1.28901 19.0901C1.27143 19.1516 1.3769 19.2131 1.41206 19.2746C1.34174 19.3889 1.23628 19.2834 1.1396 19.2834C1.11323 19.3537 1.1396 19.4328 1.06928 19.4768C0.955025 19.4768 0.928658 19.345 0.858345 19.2834C0.779244 19.3625 0.91108 19.4065 0.928658 19.468C0.875924 19.7141 0.884712 19.9514 0.647408 20.1096L0.480416 20.1887C0.436471 20.0657 0.462838 19.8811 0.436471 19.7493C0.34858 19.9075 0.260689 20.0481 0.128853 20.1799C-0.0469278 20.1272 -0.134819 19.9338 -0.169975 19.7668C-0.205816 19.6747 -0.214098 19.5741 -0.193812 19.4774C-0.173526 19.3806 -0.125547 19.2919 -0.0557175 19.2219C-0.0996628 19.134 -0.275444 19.1516 -0.301811 19.011C-0.565483 18.8352 -0.697319 19.301 -0.864311 19.0637C-0.890195 18.9464 -0.88775 18.8246 -0.857181 18.7085C-0.826612 18.5923 -0.768797 18.4851 -0.68853 18.3957C-0.732475 18.3078 -0.855522 18.3254 -0.925834 18.2727C-1.08404 18.1321 -1.32134 17.9914 -1.30376 17.7453C-1.08317 17.6655 -0.844337 17.6504 -0.615427 17.7018C-0.386518 17.7531 -0.17707 17.8689 -0.0117722 18.0354" fill="#008737"/>
<path d="M0.225816 18.0088C0.217026 18.2109 0.357651 18.0615 0.471909 18.1846C0.384018 18.1494 0.322495 18.334 0.234604 18.2285L0.18187 18.2813C0.217026 18.3516 0.269761 18.3604 0.217027 18.4395C0.129136 18.4746 0.102768 18.3516 0.0588232 18.3076C0.0588232 18.29 0.0764016 18.2549 0.0412453 18.2373C-0.011489 18.2813 -0.0642234 18.2988 -0.134536 18.29C-0.152114 18.2549 -0.19606 18.2021 -0.152114 18.167C-0.081802 18.0791 0.0236667 18.2021 0.0764011 18.1406C0.0851901 18.0791 0.032456 18.0088 0.102769 17.9648C0.146714 17.9736 0.208237 17.9473 0.225816 18.0088ZM0.770737 18.1758C0.779526 18.2109 0.753159 18.2637 0.805894 18.2988C0.876206 18.2637 0.946519 18.29 0.981675 18.3516C0.981675 18.3867 0.990464 18.4395 0.946518 18.457L0.84105 18.4307C0.849839 18.4131 0.814683 18.4043 0.805894 18.3779C0.761948 18.3691 0.726792 18.4043 0.700425 18.4307C0.726792 18.4658 0.788315 18.4922 0.770737 18.5361C0.709214 18.5977 0.682847 18.4834 0.612534 18.5186C0.5598 18.501 0.621323 18.4043 0.551011 18.3691C0.46312 18.3691 0.524644 18.5098 0.410386 18.457C0.375229 18.4131 0.340073 18.3516 0.375229 18.3076C0.401253 18.2922 0.431555 18.2856 0.461637 18.2887C0.49172 18.2919 0.519979 18.3047 0.542222 18.3252C0.612534 18.2461 0.612534 17.9648 0.779526 18.1758M0.0939796 18.4658C0.137925 18.5361 0.0764015 18.624 0.137925 18.6943C0.225816 18.5186 0.313706 18.7295 0.419175 18.7119C0.454331 18.7559 0.427964 18.8086 0.436753 18.8525C0.304917 18.8877 0.146714 18.9316 0.0324557 18.8262L-0.00269997 18.8613C0.0676125 18.9229 0.129135 19.002 0.0764011 19.1074C-0.0202786 19.125 -0.178481 19.1338 -0.222427 19.0283C-0.248794 18.9404 -0.160903 18.8877 -0.257583 18.8174C-0.319106 18.9053 -0.319107 19.0107 -0.450943 18.9316C-0.48868 18.9111 -0.517045 18.8768 -0.530141 18.8359C-0.543236 18.7949 -0.540054 18.7506 -0.521255 18.7119C-0.433364 18.5713 -0.275161 18.7119 -0.187271 18.6504C-0.169693 18.5273 -0.213638 18.4219 -0.0993802 18.3604C-0.0114896 18.3428 0.0324562 18.4131 0.0939796 18.4658Z" fill="#FFFF00"/>
<path d="M0.462891 18.5448C0.418945 18.7469 0.269531 18.536 0.199219 18.5272C0.287109 18.3514 0.348633 18.5799 0.462891 18.5448ZM0.9375 18.7645C0.832031 18.7909 0.84961 18.659 0.796875 18.6063L0.840821 18.5711C0.875977 18.6151 0.902344 18.703 0.9375 18.7645Z" fill="white"/>
<path d="M0.796875 18.7209C0.823243 18.7912 0.726563 18.8527 0.814453 18.8966L0.884766 18.8351C0.963868 18.8527 1.04297 18.8703 1.0957 18.9406C1.14844 19.09 0.999024 19.09 0.919922 19.1339H0.832032C0.84961 19.0812 0.788086 19.0636 0.779297 19.0461C0.762415 19.0401 0.74411 19.0394 0.726832 19.0441C0.709553 19.0488 0.694126 19.0587 0.682617 19.0724C0.700195 19.1603 0.814454 19.2482 0.700196 19.3273C0.594727 19.3273 0.436524 19.3625 0.445313 19.2218C0.410157 19.1339 0.550782 19.0197 0.401368 19.0109C0.348633 19.1252 0.295898 19.2218 0.164062 19.1252L0.181641 18.967C0.304688 18.967 0.454102 18.9933 0.506836 18.8527C0.541992 18.756 0.445313 18.6593 0.533204 18.589C0.665039 18.5539 0.735352 18.6418 0.796875 18.7209Z" fill="#FFFF00"/>
<path d="M0.70888 18.9492C0.735247 19.0283 0.656146 19.0371 0.6122 19.0722C0.559466 19.0722 0.524309 19.0546 0.489153 19.0195C0.462786 18.9316 0.533099 18.914 0.577044 18.8789C0.638567 18.8525 0.664935 18.9228 0.70888 18.9492Z" fill="black"/>
<path d="M0.629883 19.002C0.621094 19.0195 0.594727 19.0107 0.577149 19.0195L0.55957 18.9316C0.603516 18.9316 0.647461 18.9404 0.629883 19.002Z" fill="white"/>
</g>
<defs>
<clipPath id="clip0_200_67745">
<rect width="60" height="45" fill="white" transform="translate(-7.5)"/>
</clipPath>
</defs>
</svg>
