<svg width="45" height="45" viewBox="0 0 45 45" fill="none" xmlns="http://www.w3.org/2000/svg">
<g clip-path="url(#clip0_200_67713)">
<path d="M-7.5 0H52.5V45H-7.5V0Z" fill="#3E5EB9"/>
<path d="M-7.5 8.4375H52.5V36.5625H-7.5V8.4375Z" fill="#FFD900"/>
<path d="M-7.5 11.25H52.5V33.75H-7.5V11.25Z" fill="#B10C0C"/>
<path d="M43.9007 17.3584L41.167 18.3259L43.8895 19.2821L46.6232 18.3259L43.9007 17.3584Z" fill="white"/>
<path fill-rule="evenodd" clip-rule="evenodd" d="M43.901 17.2988L46.7926 18.3264L43.8897 19.3419L40.998 18.3262L43.901 17.2988ZM41.3364 18.3258L43.8897 19.2227L46.4543 18.3256L43.9009 17.4182L41.3364 18.3258Z" fill="black"/>
<path d="M42.0896 18H2.6134C2.42079 18 2.26465 18.1435 2.26465 18.3206C2.26465 18.4977 2.42079 18.6412 2.6134 18.6412H42.0896C42.2822 18.6412 42.4384 18.4977 42.4384 18.3206C42.4384 18.1435 42.2822 18 42.0896 18Z" fill="#FFD900"/>
<path fill-rule="evenodd" clip-rule="evenodd" d="M2.61301 18.0559C2.44692 18.0559 2.32051 18.1786 2.32051 18.3202C2.32051 18.4619 2.44692 18.5846 2.61301 18.5846H42.0893C42.2553 18.5846 42.3818 18.4619 42.3818 18.3202C42.3818 18.1786 42.2553 18.0559 42.0893 18.0559H2.61301ZM2.20801 18.3202C2.20801 18.1077 2.39388 17.9434 2.61301 17.9434H42.0893C42.3084 17.9434 42.4943 18.1077 42.4943 18.3202C42.4943 18.5327 42.3084 18.6971 42.0893 18.6971H2.61301C2.39388 18.6971 2.20801 18.5327 2.20801 18.3202Z" fill="black"/>
<path d="M41.4821 18.6412C41.5659 18.6386 41.6457 18.6049 41.706 18.5467C41.7663 18.4885 41.8028 18.4099 41.8083 18.3262C41.8055 18.2406 41.7702 18.1593 41.7097 18.0987C41.6491 18.0381 41.5677 18.0028 41.4821 18M41.1671 18.6412C41.2489 18.636 41.326 18.6011 41.3839 18.5431C41.4419 18.4851 41.4768 18.4081 41.4821 18.3262C41.4795 18.2425 41.4458 18.1626 41.3875 18.1023C41.3293 18.042 41.2507 18.0055 41.1671 18M40.8408 18.6412C40.9246 18.6386 41.0044 18.6049 41.0647 18.5467C41.125 18.4885 41.1615 18.4099 41.1671 18.3262C41.1643 18.2406 41.129 18.1593 41.0684 18.0987C41.0078 18.0381 40.9265 18.0028 40.8408 18" fill="#FFD900"/>
<path fill-rule="evenodd" clip-rule="evenodd" d="M40.8426 17.9434C40.9425 17.9466 41.0374 17.9878 41.1081 18.0585C41.1787 18.1292 41.2199 18.2241 41.2232 18.324L41.2233 18.3268L41.2231 18.3296C41.2166 18.4271 41.1741 18.5188 41.1037 18.5868C41.0333 18.6547 40.9402 18.694 40.8425 18.6971L40.839 18.5846C40.9088 18.5824 40.9753 18.5543 41.0256 18.5058C41.0751 18.4579 41.1054 18.3936 41.1106 18.3249C41.1076 18.2545 41.0783 18.1879 41.0285 18.138C40.978 18.0875 40.9102 18.0581 40.8389 18.0558L40.8426 17.9434ZM41.4838 17.9434C41.5837 17.9466 41.6786 17.9878 41.7493 18.0585C41.82 18.1292 41.8612 18.2241 41.8644 18.324L41.8645 18.3268L41.8643 18.3296C41.8579 18.4271 41.8153 18.5188 41.7449 18.5868C41.6746 18.6547 41.5815 18.694 41.4837 18.6971L41.4802 18.5846C41.55 18.5824 41.6165 18.5543 41.6668 18.5058C41.7164 18.4579 41.7466 18.3936 41.7519 18.3249C41.7489 18.2545 41.7196 18.1879 41.6698 18.138C41.6193 18.0875 41.5515 18.0581 41.4801 18.0558L41.4838 17.9434ZM41.1707 17.9435C41.2683 17.9499 41.36 17.9925 41.4279 18.0628C41.4958 18.1332 41.5351 18.2263 41.5382 18.3241L41.5383 18.3268L41.5381 18.3295C41.5319 18.4249 41.4912 18.5148 41.4236 18.5825C41.356 18.6501 41.266 18.6908 41.1706 18.697L41.1633 18.5847C41.2315 18.5803 41.2957 18.5512 41.344 18.5029C41.3917 18.4552 41.4206 18.3921 41.4256 18.3249C41.4228 18.256 41.3949 18.1906 41.347 18.141C41.2984 18.0907 41.2329 18.0603 41.1632 18.0557L41.1707 17.9435Z" fill="black"/>
<path d="M49.3455 22.0156H-4.35074C-4.6117 22.0156 -4.82324 22.2322 -4.82324 22.4994C-4.82324 22.7665 -4.6117 22.9831 -4.35074 22.9831H49.3455C49.6065 22.9831 49.818 22.7665 49.818 22.4994C49.818 22.2322 49.6065 22.0156 49.3455 22.0156Z" fill="#FFD900"/>
<path fill-rule="evenodd" clip-rule="evenodd" d="M-4.35039 22.0779C-4.57581 22.0779 -4.76102 22.2654 -4.76102 22.4997C-4.76102 22.7341 -4.57581 22.9216 -4.35039 22.9216H49.3459C49.5713 22.9216 49.7565 22.7341 49.7565 22.4997C49.7565 22.2654 49.5713 22.0779 49.3459 22.0779H-4.35039ZM-4.88477 22.4997C-4.88477 22.1998 -4.64688 21.9541 -4.35039 21.9541H49.3459C49.6424 21.9541 49.8802 22.1998 49.8802 22.4997C49.8802 22.7997 49.6424 23.0454 49.3459 23.0454H-4.35039C-4.64688 23.0454 -4.88477 22.7997 -4.88477 22.4997Z" fill="black"/>
<path d="M38.2684 22.5004C35.0527 25.716 30.7684 32.1473 22.1996 32.1473C14.6996 32.1473 9.34648 25.716 6.13086 22.5004C9.33711 19.2848 14.6996 12.8535 22.1996 12.8535C30.7684 12.8535 35.0527 19.2848 38.2684 22.5004Z" fill="white"/>
<path fill-rule="evenodd" clip-rule="evenodd" d="M6.21069 22.4999C6.53594 22.8261 6.88245 23.1839 7.25028 23.5638C8.69883 25.0597 10.4781 26.8972 12.5927 28.4843C15.2652 30.4901 18.4668 32.0906 22.2 32.0906C29.414 32.0906 33.5767 27.5197 36.64 24.1559C37.1879 23.5543 37.7006 22.9913 38.1893 22.5C37.7006 22.0087 37.1879 21.4457 36.64 20.8441C33.5767 17.4803 29.414 12.9094 22.2 12.9094C18.4668 12.9094 15.2628 14.5099 12.5892 16.5157C10.4626 18.1111 8.67558 19.9595 7.22527 21.4597C6.86648 21.8308 6.5283 22.1806 6.21069 22.4999ZM38.2687 22.5L38.3085 22.4602C37.8128 21.9645 37.2907 21.3909 36.7305 20.7754C33.6689 17.4117 29.4685 12.7969 22.2 12.7969C18.4332 12.7969 15.2059 14.412 12.5217 16.4257C10.3871 18.0271 8.59196 19.884 7.14141 21.3845C6.76862 21.7701 6.41859 22.1321 6.09142 22.4603L6.05176 22.5001L6.09147 22.5398C6.4262 22.8745 6.78451 23.2445 7.16634 23.6389C8.61517 25.1352 10.4026 26.9812 12.5252 28.5743C15.2082 30.588 18.4332 32.2031 22.2 32.2031C29.4685 32.2031 33.6689 27.5883 36.7305 24.2246C37.2907 23.6091 37.8128 23.0355 38.3085 22.5398L38.2687 22.5Z" fill="black"/>
<path d="M21.0746 16.2191C21.9371 17.1754 21.2152 17.5598 22.1246 17.6254C23.0809 17.691 22.5371 18.6379 23.3434 18.6754C23.9059 18.6941 23.2871 20.9441 23.8215 21.6754C24.3746 22.4535 24.834 21.9098 24.8527 22.4629C24.8527 23.0441 23.3527 22.9785 23.3246 24.7598C23.2777 25.7816 22.0496 25.8473 21.9934 26.5035C21.9184 27.1223 24.4121 27.4691 24.3746 28.0223C24.3465 28.5848 21.684 28.491 21.5621 29.1191C21.5059 29.6816 25.2184 30.1504 25.5184 31.791C24.9559 31.9785 23.3902 32.1379 22.1996 32.1473C14.6996 32.1473 9.34648 25.716 6.13086 22.491C9.34648 19.2848 14.6996 12.8535 22.1996 12.8535C22.1996 12.8535 19.9777 14.8879 21.0746 16.2098V16.2191Z" fill="black"/>
<path d="M12.5244 21.6446V19.0684V21.6446ZM14.0769 19.0684V21.6446V19.0684ZM15.6294 19.0684V21.6446V19.0684Z" fill="black"/>
<path fill-rule="evenodd" clip-rule="evenodd" d="M12.913 19.0684V21.6446H12.1367V19.0684H12.913ZM13.6892 21.6446V19.0684H14.4655V21.6446H13.6892ZM15.2417 21.6446V19.0684H16.018V21.6446H15.2417Z" fill="white"/>
<path d="M45.975 22.1246C45.4875 22.959 46.35 21.8434 48.45 23.2496C48.6635 23.426 48.8385 23.6443 48.9643 23.891C49.0901 24.1377 49.1639 24.4076 49.1812 24.684C49.0875 24.6184 49.0031 24.4684 48.9 24.384C48.75 24.534 49.05 25.2277 49.0875 25.5559C48.7594 25.3684 48.7875 25.2934 48.6844 25.0684C48.7031 25.3309 48.6187 26.0809 48.7594 26.3809C48.4969 26.3059 48.5156 26.0996 48.3844 26.0527C48.4781 26.3809 48.3 26.7277 48.3469 27.1027C48.1969 26.9527 48.0281 26.8309 47.9625 26.7746C47.9437 26.9621 47.6719 27.4121 47.6625 27.5809C47.6135 27.5494 47.5716 27.5082 47.5394 27.4598C47.5071 27.4114 47.4852 27.3569 47.475 27.2996C47.1775 27.6543 46.9255 28.0448 46.725 28.4621C46.2844 28.0871 45.1688 27.1496 45.0188 26.6434C44.8875 26.9246 44.7 27.0184 44.3438 27.2246C44.1938 26.4371 43.6406 25.5559 43.9312 24.8715C43.7343 24.9933 43.5434 25.1247 43.3594 25.2652C43.5271 24.5745 43.8509 23.9313 44.3059 23.3853C44.761 22.8392 45.3352 22.4047 45.9844 22.1152L45.975 22.1246Z" fill="#333333"/>
<path fill-rule="evenodd" clip-rule="evenodd" d="M45.8657 22.2229C45.2794 22.5078 44.7597 22.9144 44.3416 23.4161C43.9195 23.9226 43.6114 24.5135 43.4378 25.1485C43.5896 25.037 43.7459 24.9315 43.9062 24.8324L44.0317 24.7549L43.974 24.8906C43.8357 25.2165 43.8965 25.5936 44.0168 25.9968C44.0592 26.1387 44.1082 26.2817 44.1576 26.4257C44.1782 26.4859 44.1989 26.5463 44.2192 26.6069C44.2804 26.7894 44.3377 26.9726 44.3764 27.1523C44.3788 27.1509 44.3811 27.1495 44.3835 27.1481C44.7005 26.9654 44.8596 26.8736 44.9759 26.6244L45.0282 26.5123L45.0633 26.6309C45.0981 26.7482 45.191 26.8958 45.3228 27.0598C45.4538 27.2227 45.6196 27.3976 45.7953 27.5692C46.1234 27.8897 46.4832 28.196 46.709 28.3881C46.9067 27.9878 47.1517 27.6125 47.4387 27.2703L47.5032 27.1934L47.5208 27.2922C47.5298 27.3431 47.5493 27.3916 47.578 27.4347C47.5933 27.4575 47.6109 27.4786 47.6307 27.4975C47.6399 27.4649 47.6526 27.4296 47.6667 27.3937C47.6944 27.3235 47.7304 27.2444 47.766 27.1662L47.7663 27.1654C47.8021 27.0868 47.8374 27.0092 47.8651 26.9395C47.8933 26.8685 47.9115 26.8105 47.9155 26.7708L47.9244 26.6814L47.9926 26.7398C48.0087 26.7536 48.0326 26.7725 48.0618 26.7956C48.1227 26.8438 48.2068 26.9104 48.2918 26.9871C48.2899 26.8512 48.3105 26.72 48.3299 26.5962C48.3321 26.582 48.3344 26.5679 48.3365 26.5538C48.3636 26.3786 48.3826 26.2194 48.3389 26.0664L48.3139 25.9787L48.3998 26.0094C48.4442 26.0253 48.4744 26.0544 48.4982 26.0855C48.5125 26.1041 48.5269 26.127 48.5406 26.1487C48.5478 26.1601 48.5547 26.1712 48.5613 26.1811C48.5893 26.2231 48.6231 26.2652 48.6798 26.2983C48.663 26.2359 48.6517 26.1656 48.644 26.0918C48.6316 25.9728 48.6283 25.8408 48.6289 25.7112C48.6294 25.6052 48.6325 25.5 48.6352 25.4042C48.6358 25.3828 48.6365 25.3619 48.637 25.3415C48.6401 25.229 48.6417 25.1354 48.6373 25.0725L48.7266 25.0496C48.7464 25.0928 48.7617 25.1311 48.775 25.1645C48.7795 25.1756 48.7837 25.1862 48.7878 25.1962C48.8045 25.237 48.8194 25.2698 48.8402 25.301C48.8729 25.35 48.9226 25.399 49.0242 25.464C49.012 25.4054 48.9951 25.3393 48.9757 25.2686C48.9636 25.2244 48.9506 25.1783 48.9373 25.1314C48.9169 25.0597 48.8961 24.9863 48.8777 24.9158C48.8472 24.7988 48.8216 24.6845 48.8137 24.5889C48.8097 24.5412 48.8099 24.496 48.8169 24.4565C48.824 24.4172 48.8385 24.3796 48.8665 24.3517L48.8965 24.3217L48.9293 24.3485C48.9827 24.3922 49.0307 24.4513 49.0737 24.5043C49.0759 24.507 49.078 24.5096 49.0802 24.5123C49.0948 24.5303 49.1088 24.5473 49.1223 24.5632C49.0937 24.3369 49.0261 24.1169 48.9222 23.9131C48.7997 23.6728 48.6293 23.4601 48.4216 23.2881C47.3812 22.5919 46.6504 22.5215 46.2417 22.5204C46.1902 22.5202 46.1436 22.5212 46.1017 22.5222C46.096 22.5223 46.0905 22.5224 46.085 22.5226C46.0499 22.5234 46.0179 22.5242 45.9897 22.5241C45.9573 22.5241 45.9278 22.523 45.9027 22.5192C45.8782 22.5155 45.8524 22.5085 45.8318 22.4926C45.8086 22.4747 45.7969 22.4496 45.7953 22.4212C45.7938 22.3956 45.8006 22.3679 45.8108 22.3396C45.8225 22.3076 45.841 22.269 45.8657 22.2229ZM46.0121 22.1543L46.0172 22.1492L45.9649 22.0732C45.3092 22.3657 44.7292 22.8045 44.2696 23.3561C43.8099 23.9077 43.4828 24.5573 43.3135 25.255L43.2822 25.3837L43.3875 25.3033C43.5349 25.1907 43.6868 25.084 43.8427 24.9834C43.7529 25.3087 43.8203 25.6663 43.927 26.0236C43.9699 26.1674 44.0199 26.3132 44.0696 26.458C44.0901 26.5178 44.1105 26.5775 44.1303 26.6367C44.1986 26.8404 44.2605 27.0406 44.2973 27.2342L44.3097 27.2991L44.3669 27.266C44.391 27.252 44.4145 27.2385 44.4373 27.2254C44.7098 27.0685 44.8855 26.9674 45.0117 26.7569C45.0637 26.8685 45.1478 26.9917 45.2498 27.1186C45.384 27.2856 45.5527 27.4634 45.7298 27.6363C46.0636 27.9623 46.4295 28.2735 46.6547 28.465C46.6684 28.4767 46.6816 28.4879 46.6943 28.4986L46.7406 28.538L46.7669 28.4832C46.9529 28.0962 47.1836 27.7323 47.4541 27.399C47.4662 27.4297 47.4816 27.4591 47.5 27.4867C47.5358 27.5404 47.5824 27.5862 47.6368 27.6211L47.7045 27.6646L47.7089 27.5843C47.7108 27.5505 47.7268 27.497 47.754 27.428C47.7805 27.3606 47.8154 27.2838 47.8513 27.205L47.8523 27.2029C47.8876 27.1253 47.9237 27.0459 47.9522 26.9741C47.9679 26.9346 47.9819 26.896 47.9922 26.8602C47.9978 26.8647 48.0037 26.8693 48.0097 26.8741C48.0916 26.9389 48.2061 27.0295 48.3134 27.1367L48.41 27.2333L48.393 27.0977C48.3723 26.932 48.3974 26.7717 48.4228 26.6089C48.4249 26.5953 48.4271 26.5817 48.4292 26.5681C48.4484 26.4433 48.4658 26.3162 48.4555 26.1897C48.4562 26.1907 48.4568 26.1916 48.4574 26.1926C48.465 26.2047 48.4732 26.218 48.4833 26.2331C48.5317 26.3057 48.6008 26.3852 48.7461 26.4268L48.8452 26.455L48.8015 26.3618C48.7697 26.294 48.7492 26.1971 48.7372 26.0821C48.7253 25.9679 48.7221 25.8398 48.7227 25.7116C48.7232 25.6069 48.7262 25.5031 48.7289 25.4074C48.7295 25.3858 48.7302 25.3647 48.7307 25.3441C48.7311 25.3294 48.7315 25.3149 48.7319 25.3007C48.7408 25.3184 48.7507 25.3357 48.7622 25.353C48.8151 25.4324 48.8976 25.5024 49.0639 25.5974L49.1442 25.6433L49.1337 25.5514C49.1239 25.4653 49.0972 25.3573 49.0661 25.2439C49.0535 25.1978 49.0403 25.151 49.0269 25.104C49.0069 25.0333 48.9867 24.9621 48.9684 24.8921C48.9381 24.7759 48.9144 24.6681 48.9071 24.5812C48.9035 24.5377 48.9041 24.5015 48.9092 24.473C48.9101 24.4684 48.911 24.4641 48.912 24.4601C48.9425 24.4915 48.9724 24.5283 49.0035 24.5666L49.0074 24.5714C49.052 24.6263 49.1007 24.6859 49.154 24.7232L49.2338 24.779L49.2277 24.6819C49.2099 24.3991 49.1344 24.123 49.0057 23.8705C48.877 23.6181 48.6979 23.3948 48.4795 23.2143L48.4777 23.2128L48.4757 23.2115C47.4172 22.5027 46.6673 22.4278 46.242 22.4266C46.1892 22.4265 46.1416 22.4274 46.0995 22.4284C46.0937 22.4286 46.0881 22.4287 46.0826 22.4288C46.0474 22.4297 46.0167 22.4304 45.9899 22.4304C45.9586 22.4303 45.9347 22.4292 45.9167 22.4265C45.8986 22.4237 45.8914 22.42 45.8892 22.4185C45.8891 22.418 45.8889 22.4171 45.8889 22.4159C45.8885 22.4091 45.8903 22.3955 45.8989 22.3717C45.9159 22.325 45.9526 22.2563 46.0121 22.1543Z" fill="black"/>
<path d="M44.1562 26.2965C44.3625 25.8934 44.55 25.7622 44.6812 25.4997C44.9062 25.0496 44.9437 24.6746 45.15 24.7309C45.3375 24.7871 45.3375 24.9747 45.0844 25.4247C44.8313 25.8747 44.7094 25.9684 44.1562 26.2965ZM45.525 27.2528C45.5062 26.9528 45.5906 26.8215 45.5813 26.6247C45.5438 26.2684 45.4031 26.034 45.5906 26.0153C45.7781 26.0059 45.8625 26.1184 45.8625 26.4653C45.8625 26.8215 45.8062 26.9153 45.525 27.2528ZM46.5656 27.8528C46.4813 27.4309 46.5469 27.2434 46.4906 26.9622C46.3969 26.4747 46.2188 26.1559 46.3969 26.109C46.5656 26.0622 46.6781 26.2215 46.7437 26.7184C46.8 27.2059 46.7719 27.3465 46.5656 27.8622V27.8528ZM47.6438 24.8528C47.3906 24.6653 47.2406 24.6465 47.0813 24.5247C46.8 24.2997 46.65 24.0746 46.5562 24.1871C46.4625 24.2996 46.5281 24.4309 46.8375 24.6278C47.1469 24.8247 47.2313 24.8434 47.6438 24.8528ZM47.4656 26.2778C47.3344 25.9965 47.1844 25.9309 47.1094 25.7528C46.9594 25.434 46.9594 25.1622 46.7812 25.2278C46.6219 25.3028 46.6031 25.4434 46.7812 25.7528C46.9688 26.0528 47.0625 26.109 47.4563 26.2778H47.4656Z" fill="#B3B3B3"/>
<path d="M-2.45645 22.9309C-2.49395 22.6871 -2.4377 22.6496 -2.5877 22.4621C-2.3627 22.5559 -2.3627 22.809 -2.09082 22.6309C-1.99707 22.584 -1.9502 22.584 -2.07207 22.3027C-1.79082 22.3215 -0.881446 22.6309 -0.731446 22.6402C-0.347071 22.659 0.356055 22.2371 0.843554 22.7527C1.3123 23.2215 1.14355 23.7184 1.14355 24.3652C0.956054 24.2715 1.0498 24.2434 0.843554 23.9996C0.993555 24.5809 0.843554 25.6027 0.843554 26.2121C0.768555 26.0621 0.77793 26.1277 0.702929 25.9777C0.515429 26.5309 0.27168 26.634 0.27168 27.2996C0.19668 27.0371 0.271679 27.0934 0.187304 26.9621C-0.000195503 27.384 -1.3127 27.7402 -0.806445 28.1621C-1.25645 27.8996 -1.4627 27.9184 -1.6502 27.6934C-1.74395 27.7402 -1.81895 27.8527 -1.89395 27.9934C-2.69082 27.6371 -2.40957 26.8496 -3.02832 26.3152C-3.14082 26.5402 -3.09395 26.5121 -3.21582 26.8684C-3.32832 26.3715 -3.36582 26.0527 -3.50645 25.6871C-3.62832 25.8934 -3.61895 25.809 -3.84395 26.1184C-3.9377 25.5184 -4.07832 25.3684 -4.03145 24.9652C-4.25645 25.134 -4.10645 25.059 -4.34082 25.2652C-4.11582 23.7184 -3.15957 22.5652 -2.46582 22.9215L-2.45645 22.9309Z" fill="#333333"/>
<path fill-rule="evenodd" clip-rule="evenodd" d="M-2.16754 22.2354L-2.06784 22.242C-1.99143 22.2471 -1.877 22.2713 -1.75009 22.303C-1.62183 22.3351 -1.47622 22.3761 -1.33553 22.4165C-1.29267 22.4288 -1.25032 22.4411 -1.20903 22.453C-1.11427 22.4805 -1.02509 22.5063 -0.948238 22.5275C-0.893126 22.5427 -0.845059 22.5554 -0.8064 22.5646C-0.766811 22.5739 -0.740932 22.5786 -0.727845 22.5795C-0.641403 22.5836 -0.533466 22.5629 -0.405018 22.5338C-0.383801 22.529 -0.362096 22.524 -0.33997 22.5189C-0.231007 22.4938 -0.111837 22.4663 0.00935602 22.4498C0.302708 22.41 0.6243 22.4325 0.887422 22.7103C1.13392 22.9571 1.21322 23.2135 1.23033 23.4885C1.23879 23.6244 1.2321 23.7651 1.2236 23.9099C1.22253 23.9283 1.22142 23.9468 1.22031 23.9653C1.2126 24.0937 1.20467 24.2259 1.20467 24.3653V24.4639L1.11648 24.4198C1.0672 24.3952 1.03193 24.3727 1.00493 24.3472C0.980812 24.3245 0.965574 24.3014 0.952711 24.2781C0.978285 24.5277 0.974016 24.8143 0.96085 25.0982C0.953703 25.2523 0.943966 25.4054 0.934605 25.5526C0.919121 25.796 0.904666 26.0232 0.904666 26.2122L0.789224 26.2394C0.754369 26.1697 0.739906 26.1511 0.726397 26.1338L0.725315 26.1324C0.722147 26.1283 0.718992 26.1243 0.715752 26.1199C0.660472 26.2591 0.602088 26.3704 0.549213 26.4712C0.52165 26.5237 0.495585 26.5733 0.472238 26.6226C0.391536 26.793 0.332791 26.9763 0.332791 27.2997L0.213261 27.3164C0.178312 27.1941 0.174136 27.1358 0.172718 27.097C0.106847 27.1763 0.014308 27.2499 -0.0830803 27.3182C-0.155145 27.3688 -0.233088 27.4186 -0.310217 27.4675C-0.319465 27.4734 -0.328698 27.4792 -0.337909 27.485C-0.405947 27.5281 -0.4728 27.5704 -0.535467 27.6127C-0.68073 27.7107 -0.790832 27.8007 -0.837582 27.8855C-0.859569 27.9253 -0.865176 27.9599 -0.857348 27.9926C-0.849232 28.0265 -0.824441 28.0677 -0.767261 28.1154L-0.836976 28.2148C-1.02064 28.1077 -1.16191 28.0487 -1.28085 27.9991C-1.30496 27.989 -1.32815 27.9794 -1.35059 27.9697C-1.46927 27.9189 -1.56835 27.869 -1.66097 27.7726C-1.68391 27.7907 -1.70703 27.8149 -1.73071 27.8455C-1.76745 27.8931 -1.80307 27.9528 -1.84 28.0221L-1.86675 28.0723L-1.91864 28.0491C-2.34062 27.8604 -2.47704 27.5541 -2.58534 27.2411C-2.59699 27.2074 -2.60831 27.1738 -2.61959 27.1402C-2.70607 26.8832 -2.79075 26.6315 -3.00883 26.416C-3.03607 26.4764 -3.04737 26.513 -3.05952 26.5584C-3.06217 26.5683 -3.06487 26.5787 -3.06775 26.5897C-3.08381 26.6514 -3.10564 26.7351 -3.15799 26.8882L-3.22759 27.0916L-3.27508 26.8819C-3.30883 26.7328 -3.3357 26.6008 -3.36039 26.4795C-3.41019 26.2349 -3.45115 26.0337 -3.52184 25.8237C-3.54662 25.8575 -3.5673 25.8798 -3.59208 25.906L-3.59494 25.909C-3.63419 25.9505 -3.68646 26.0057 -3.79449 26.1543L-3.88122 26.2735L-3.90398 26.1278C-3.94049 25.8941 -3.9839 25.7309 -4.02106 25.5911C-4.03103 25.5537 -4.04054 25.5179 -4.04935 25.4829C-4.08132 25.3559 -4.10343 25.241 -4.10139 25.1002C-4.11864 25.1166 -4.12536 25.1261 -4.13217 25.1357L-4.13272 25.1365C-4.13335 25.1374 -4.13398 25.1382 -4.13462 25.1391C-4.15707 25.1709 -4.18334 25.208 -4.30039 25.311L-4.4248 25.4205L-4.40095 25.2565C-4.28714 24.4741 -3.98816 23.7884 -3.62629 23.3414C-3.44545 23.1181 -3.24642 22.9513 -3.04376 22.864C-2.87161 22.7898 -2.69579 22.7728 -2.52941 22.8286C-2.53063 22.813 -2.53156 22.7984 -2.53234 22.7847C-2.53279 22.7769 -2.53319 22.7696 -2.53357 22.7626C-2.53528 22.7312 -2.53658 22.7074 -2.53999 22.6844C-2.5473 22.635 -2.56445 22.5886 -2.63511 22.5002L-2.56408 22.4059C-2.49847 22.4333 -2.4501 22.472 -2.4112 22.509C-2.39509 22.5243 -2.38008 22.5399 -2.36666 22.5538C-2.36417 22.5564 -2.36173 22.5589 -2.35934 22.5613C-2.34358 22.5776 -2.33025 22.591 -2.31722 22.6021C-2.29203 22.6234 -2.273 22.6319 -2.25113 22.632C-2.22664 22.632 -2.18767 22.6216 -2.12404 22.58L-2.12107 22.578L-2.1179 22.5764C-2.10922 22.5721 -2.10201 22.5686 -2.09588 22.5656C-2.08188 22.5588 -2.07348 22.5548 -2.066 22.5495C-2.0606 22.5457 -2.06044 22.5447 -2.06025 22.5433C-2.06023 22.5432 -2.0602 22.543 -2.06017 22.5428C-2.05891 22.5365 -2.05845 22.5199 -2.06891 22.4826C-2.07907 22.4463 -2.09769 22.3965 -2.12781 22.327L-2.16754 22.2354ZM-2.5018 22.9716C-2.65389 22.8967 -2.82138 22.9009 -2.99554 22.9759C-3.17432 23.0529 -3.3585 23.2043 -3.53157 23.4181C-3.84947 23.8107 -4.12152 24.4035 -4.24982 25.0903C-4.24375 25.0825 -4.2393 25.0762 -4.23521 25.0703C-4.23418 25.0689 -4.23317 25.0674 -4.23217 25.066C-4.20674 25.0301 -4.18196 25.0021 -4.06783 24.9165L-3.95436 24.8314L-3.97074 24.9723C-3.99303 25.164 -3.97114 25.2944 -3.93116 25.4532C-3.92279 25.4864 -3.91358 25.521 -3.90382 25.5577C-3.87419 25.6691 -3.83948 25.7995 -3.80761 25.9691C-3.74899 25.8945 -3.71242 25.8559 -3.6826 25.8243L-3.68062 25.8223C-3.64239 25.7818 -3.61712 25.755 -3.55873 25.6562L-3.49463 25.5477L-3.4494 25.6653C-3.34801 25.9289 -3.2987 26.1711 -3.23888 26.4648C-3.22801 26.5183 -3.21679 26.5734 -3.20485 26.6306C-3.19718 26.6031 -3.19112 26.5798 -3.18564 26.5588C-3.18273 26.5476 -3.17998 26.5371 -3.17724 26.5269C-3.15849 26.4569 -3.14054 26.4038 -3.08265 26.2881L-3.04761 26.218L-2.98832 26.2692C-2.69892 26.5191 -2.59687 26.8239 -2.50389 27.1016C-2.49262 27.1353 -2.48149 27.1685 -2.47017 27.2012C-2.37008 27.4905 -2.25506 27.7454 -1.91961 27.9138C-1.89018 27.8617 -1.85969 27.8131 -1.82715 27.771C-1.78433 27.7156 -1.73548 27.668 -1.67727 27.6389L-1.63411 27.6173L-1.60321 27.6544C-1.51873 27.7558 -1.43095 27.8027 -1.30258 27.8577C-1.28118 27.8669 -1.2587 27.8763 -1.23506 27.8861C-1.16211 27.9165 -1.07804 27.9516 -0.979984 27.9998C-0.9891 27.9384 -0.973726 27.8799 -0.944297 27.8266C-0.881477 27.7127 -0.746657 27.6082 -0.603639 27.5117C-0.539371 27.4683 -0.470883 27.425 -0.403025 27.382C-0.393816 27.3762 -0.384619 27.3704 -0.375446 27.3645C-0.298254 27.3156 -0.222535 27.2672 -0.153096 27.2185C-0.0110493 27.1188 0.0925226 27.0258 0.131793 26.9374L0.177663 26.8342L0.238738 26.9292C0.239683 26.9307 0.240615 26.9322 0.241533 26.9336C0.268384 26.7911 0.311051 26.6782 0.362094 26.5705C0.388831 26.514 0.416902 26.4606 0.445614 26.4059C0.511623 26.2802 0.581023 26.1481 0.645391 25.9582L0.692285 25.8199L0.757607 25.9505C0.769656 25.9746 0.779268 25.9926 0.787246 26.0066C0.792822 25.8619 0.802917 25.7028 0.813356 25.5383C0.822647 25.392 0.83221 25.2413 0.839107 25.0926C0.857878 24.6878 0.857152 24.2956 0.784724 24.0149L0.890247 23.9603C0.984612 24.0718 1.02013 24.1422 1.04463 24.1907C1.04819 24.1977 1.05151 24.2043 1.05474 24.2105C1.06506 24.2302 1.07301 24.2427 1.08431 24.2544C1.08703 24.1514 1.09298 24.0524 1.09866 23.9577C1.09977 23.9393 1.10087 23.9209 1.10194 23.9028C1.11044 23.7578 1.11664 23.6238 1.10869 23.496C1.093 23.2439 1.02241 23.0177 0.800639 22.7959L0.800035 22.7953L0.799448 22.7947C0.575179 22.5575 0.301718 22.5331 0.0257564 22.5706C-0.0893598 22.5862 -0.202063 22.6122 -0.310959 22.6373C-0.333517 22.6425 -0.355912 22.6477 -0.378132 22.6527C-0.504632 22.6813 -0.628572 22.7063 -0.734241 22.7012L-0.735074 22.7011C-0.759608 22.6996 -0.794844 22.6925 -0.834415 22.6832C-0.875297 22.6735 -0.925082 22.6604 -0.980712 22.645C-1.0583 22.6235 -1.14864 22.5974 -1.24377 22.5699C-1.2849 22.558 -1.32692 22.5458 -1.3692 22.5336C-1.50976 22.4932 -1.65361 22.4528 -1.77964 22.4212C-1.85384 22.4027 -1.92034 22.3877 -1.97562 22.3775C-1.9655 22.4045 -1.95751 22.4284 -1.95155 22.4497C-1.93945 22.4929 -1.93371 22.532 -1.94066 22.5667C-1.94854 22.6061 -1.97081 22.6316 -1.99605 22.6493C-2.01228 22.6607 -2.03335 22.6709 -2.05054 22.6792C-2.054 22.6808 -2.0573 22.6824 -2.06037 22.6839C-2.13137 22.73 -2.1934 22.754 -2.25155 22.7538C-2.31318 22.7536 -2.35918 22.7263 -2.3961 22.695C-2.40368 22.6885 -2.41108 22.6817 -2.41827 22.6748C-2.4148 22.7015 -2.4133 22.7293 -2.41176 22.758C-2.41141 22.7645 -2.41105 22.7711 -2.41067 22.7777C-2.40838 22.8175 -2.40501 22.8634 -2.39604 22.9217L-2.36774 23.1057L-2.5018 22.9716Z" fill="black"/>
<path d="M-3.43164 25.4718C-3.23477 24.9655 -3.05664 24.8155 -2.91602 24.4968C-2.68164 23.9249 -2.64414 23.4655 -2.44727 23.5312C-2.25977 23.6062 -2.25977 23.8312 -2.52227 24.3937C-2.78477 24.9562 -2.89727 25.0687 -3.43164 25.4718ZM-2.66289 26.7187C-2.58789 26.2687 -2.45664 26.1187 -2.40039 25.8187C-2.30664 25.3124 -2.35352 24.9374 -2.17539 24.9562C-1.98789 24.9749 -1.95039 25.1718 -2.07227 25.6687C-2.19414 26.1843 -2.27852 26.3062 -2.67227 26.7187H-2.66289ZM-1.74414 27.5999C-1.71602 27.1687 -1.61289 26.9905 -1.59414 26.7093C-1.56602 26.2218 -1.66914 25.8655 -1.50039 25.8655C-1.31289 25.8655 -1.25664 26.0437 -1.31289 26.5312C-1.36914 27.0187 -1.42539 27.1499 -1.74414 27.5999ZM0.243359 24.7499C-0.131641 24.3749 -0.356641 24.2999 -0.600391 24.0562C-1.03164 23.6249 -1.24727 23.2312 -1.40664 23.3718C-1.55664 23.5124 -1.46289 23.7187 -1.00352 24.1218C-0.553515 24.5437 -0.394141 24.5999 0.252734 24.7499H0.243359ZM0.0183589 26.2124C-0.225391 25.8374 -0.412891 25.7343 -0.572266 25.4812C-0.853516 25.0593 -0.947266 24.6937 -1.10664 24.778C-1.26602 24.8718 -1.22852 25.0593 -0.928516 25.4812C-0.619141 25.8937 -0.506641 25.9687 0.0183589 26.2124Z" fill="#B3B3B3"/>
<path d="M17.0064 14.5684C16.5564 15.4309 17.7846 14.2871 19.7064 15.7309C20.1736 16.2307 20.4748 16.8626 20.5689 17.5402C20.1774 17.4151 19.8002 17.2485 19.4439 17.0434C19.4439 17.0434 20.2877 17.9059 20.2877 18.8809C19.9877 18.6934 19.8377 18.7215 19.7252 18.4965C19.7252 18.8059 20.0064 19.0121 20.0064 19.4996C19.8217 19.351 19.624 19.2192 19.4158 19.1059C19.6971 19.6027 18.9002 20.559 19.3033 20.8684C18.9649 20.8218 18.6397 20.7063 18.3478 20.5289C18.0559 20.3515 17.8036 20.1161 17.6064 19.8371C17.4564 19.9309 17.4377 20.0902 17.4283 20.2684C17.4564 20.2777 16.3689 19.4527 16.4721 19.1434C16.348 19.2985 16.2758 19.4887 16.2658 19.6871C15.8549 19.3447 15.5439 18.8977 15.3658 18.3934C15.1971 18.6184 15.1783 18.6184 15.0002 18.8621C14.8689 18.0465 14.8689 18.0746 15.1314 17.3809C14.9497 17.5062 14.7745 17.6407 14.6064 17.784C14.7435 17.1038 15.0299 16.4625 15.445 15.9064C15.86 15.3503 16.3933 14.8933 17.0064 14.5684Z" fill="#333333"/>
<path fill-rule="evenodd" clip-rule="evenodd" d="M16.9019 14.6795C16.3477 14.9955 15.8642 15.4227 15.482 15.9348C15.0982 16.4491 14.8256 17.0369 14.6807 17.661C14.8175 17.5492 14.9588 17.443 15.1043 17.3427L15.2279 17.2575L15.1748 17.3979C15.1693 17.4123 15.1639 17.4265 15.1587 17.4403C15.0374 17.7607 14.9794 17.9139 14.9643 18.0804C14.9501 18.2384 14.9744 18.409 15.0283 18.7453C15.0791 18.678 15.1148 18.634 15.1498 18.5914C15.1536 18.5867 15.1574 18.582 15.1613 18.5774C15.2054 18.5236 15.2508 18.4683 15.3278 18.3656L15.3804 18.2956L15.4095 18.3782C15.5749 18.8464 15.8565 19.2644 16.2274 19.5932C16.2527 19.4185 16.324 19.2531 16.435 19.1145L16.516 19.1586C16.508 19.1826 16.51 19.2172 16.528 19.2647C16.5458 19.3115 16.5772 19.3653 16.6194 19.424C16.7039 19.5412 16.8269 19.6707 16.9539 19.7919C17.0806 19.9128 17.2098 20.024 17.3059 20.1045C17.3371 20.1307 17.3646 20.1535 17.3876 20.1725C17.4015 20.0275 17.4388 19.8867 17.5811 19.7978L17.6186 19.7743L17.6442 19.8105C17.8376 20.0842 18.0852 20.3152 18.3716 20.4893C18.6222 20.6415 18.8977 20.7473 19.185 20.802C19.1422 20.7226 19.1336 20.6277 19.1432 20.5282C19.1574 20.381 19.2125 20.2117 19.2689 20.043C19.2723 20.0327 19.2757 20.0225 19.2792 20.0123C19.3331 19.8513 19.3871 19.6902 19.4135 19.5397C19.4417 19.3793 19.4369 19.2395 19.3745 19.1294L19.2938 18.9867L19.4377 19.0651C19.6185 19.1635 19.7914 19.2756 19.9549 19.4004C19.9392 19.2175 19.8818 19.0782 19.8228 18.9514C19.815 18.9346 19.8071 18.9179 19.7992 18.9012C19.738 18.7723 19.6778 18.6453 19.6778 18.4969L19.7666 18.4759C19.8172 18.5772 19.8741 18.62 19.9566 18.6612C19.9802 18.673 20.0067 18.6849 20.036 18.6981C20.093 18.7238 20.1606 18.7543 20.2382 18.7978C20.2161 18.3539 20.0222 17.9364 19.8256 17.6217C19.7214 17.4551 19.6172 17.3184 19.5391 17.2236C19.5 17.1761 19.4676 17.1392 19.4449 17.1142C19.4336 17.1017 19.4248 17.0922 19.4188 17.0858C19.4158 17.0827 19.4135 17.0803 19.4121 17.0787L19.4104 17.077L19.4099 17.0765C19.4099 17.0765 19.4099 17.0765 19.417 17.0696C19.4218 17.0649 19.4299 17.057 19.4434 17.0438H19.3966V16.9627L19.4668 17.0031C19.7983 17.194 20.1481 17.3512 20.5108 17.4725C20.407 16.8341 20.1162 16.2401 19.6745 15.7663C18.7252 15.0544 17.9497 14.9812 17.4663 14.9789C17.4054 14.9786 17.3491 14.9795 17.2973 14.9803C17.2928 14.9804 17.2884 14.9805 17.2841 14.9805C17.2375 14.9813 17.1943 14.982 17.1555 14.9818C17.0731 14.9813 16.9999 14.977 16.9486 14.954C16.9211 14.9417 16.897 14.923 16.8819 14.8946C16.8671 14.8668 16.8638 14.8352 16.8673 14.8022C16.871 14.7674 16.8828 14.7267 16.9019 14.6795ZM17.0059 14.5688L16.984 14.5273C16.3647 14.8555 15.8261 15.3171 15.4069 15.8788C14.9877 16.4404 14.6985 17.0881 14.56 17.7751L14.5332 17.908L14.6363 17.8201C14.7644 17.7109 14.8967 17.6068 15.0328 17.508C14.9375 17.761 14.8855 17.9107 14.871 18.072C14.8544 18.2552 14.8862 18.4527 14.9476 18.8338C14.9495 18.8457 14.9514 18.8577 14.9534 18.87L14.9713 18.9809L15.0375 18.8902C15.126 18.7691 15.1746 18.7089 15.2223 18.6508C15.2261 18.6462 15.2299 18.6415 15.2337 18.6368C15.2673 18.5959 15.3021 18.5536 15.3509 18.4902C15.5357 18.9694 15.8399 19.3941 16.2353 19.7235L16.3074 19.7836L16.3121 19.6899C16.3194 19.545 16.3616 19.4047 16.4342 19.2807C16.4361 19.2864 16.4382 19.2922 16.4404 19.298C16.4622 19.3554 16.4987 19.4168 16.5434 19.4788C16.6329 19.603 16.7608 19.7372 16.8892 19.8597C17.018 19.9826 17.1489 20.0952 17.2456 20.1764C17.2813 20.2063 17.3124 20.232 17.337 20.2523C17.3457 20.2596 17.3537 20.2661 17.3606 20.2719C17.3683 20.2782 17.3747 20.2835 17.3799 20.2879L17.3791 20.3019L17.413 20.3132C17.4145 20.3137 17.4175 20.3146 17.4212 20.3152C17.424 20.3156 17.4327 20.3167 17.443 20.3133C17.4566 20.3088 17.4699 20.2972 17.474 20.2792C17.4753 20.2736 17.4754 20.2685 17.475 20.2642C17.4837 20.1053 17.5012 19.9831 17.5954 19.903C17.792 20.1704 18.0391 20.3969 18.323 20.5694C18.6203 20.7501 18.9517 20.8678 19.2964 20.9152L19.4717 20.9393L19.3313 20.8316C19.2491 20.7685 19.2236 20.6709 19.2365 20.5372C19.2495 20.4026 19.3006 20.2438 19.3578 20.0727C19.3614 20.0619 19.3651 20.0511 19.3687 20.0402C19.422 19.8811 19.4782 19.7137 19.5059 19.5559C19.5267 19.437 19.5323 19.3193 19.5063 19.2116C19.6707 19.3083 19.8278 19.4169 19.9766 19.5365L20.0528 19.5979V19.5C20.0528 19.2461 19.9792 19.0653 19.9078 18.9119C19.8998 18.8946 19.8918 18.8777 19.884 18.8613C19.8528 18.795 19.8245 18.735 19.8041 18.6756C19.8376 18.7032 19.8742 18.7248 19.9147 18.7451C19.9431 18.7593 19.9725 18.7725 20.0036 18.7865C20.0764 18.8192 20.1589 18.8563 20.2623 18.921L20.3341 18.9658V18.8813C20.3341 18.381 20.118 17.9127 19.9051 17.572C19.8137 17.4259 19.7225 17.3024 19.6478 17.2089C19.9387 17.3595 20.2419 17.4855 20.5542 17.5853L20.6251 17.608L20.6149 17.5342C20.5194 16.847 20.2139 16.2061 19.7402 15.6993L19.7374 15.6963L19.7341 15.6938C18.763 14.9643 17.9648 14.8875 17.4667 14.8852C17.4048 14.8849 17.3476 14.8857 17.2957 14.8866C17.2913 14.8867 17.287 14.8867 17.2827 14.8868C17.2359 14.8876 17.1938 14.8883 17.156 14.8881C17.0709 14.8876 17.0174 14.8821 16.9868 14.8685C16.9734 14.8624 16.9677 14.8562 16.9647 14.8506C16.9614 14.8444 16.9583 14.8332 16.9605 14.8121C16.9652 14.7677 16.9913 14.6982 17.0475 14.5904L17.0059 14.5688Z" fill="black"/>
<path d="M15.9004 18.7692C15.9754 18.1786 16.1254 17.9629 16.1816 17.5692C16.2566 16.9129 16.1629 16.4067 16.4066 16.4254C16.6316 16.4442 16.7066 16.6879 16.5941 17.3629C16.4723 18.0286 16.3691 18.1879 15.9098 18.7786L15.9004 18.7692ZM17.1473 19.8567C17.1004 19.3692 17.1941 19.1442 17.1566 18.8254C17.1098 18.2629 16.9316 17.8692 17.1379 17.8411C17.3441 17.8036 17.4566 17.9911 17.4754 18.5723C17.4941 19.1348 17.4473 19.2942 17.1473 19.8567ZM19.0973 20.7567C18.8816 20.3161 18.6941 20.1942 18.5629 19.9129C18.3191 19.4161 18.2629 19.0223 18.0848 19.0879C17.8973 19.1629 17.9066 19.3692 18.1785 19.8567C18.441 20.3254 18.5629 20.4286 19.0879 20.7567H19.0973ZM19.7629 16.8661C19.2191 16.5848 18.9473 16.5848 18.6004 16.3973C17.991 16.0786 17.6348 15.7317 17.5129 15.9286C17.3816 16.1161 17.5504 16.3129 18.1785 16.6036C18.8066 16.8942 19.0035 16.9036 19.7535 16.8661H19.7629ZM19.9504 18.4879C19.5754 18.1692 19.3316 18.1129 19.0785 17.9067C18.6285 17.5317 18.4129 17.1848 18.2723 17.3254C18.1223 17.4754 18.216 17.6629 18.6848 18.0098C19.1535 18.3567 19.3129 18.3942 19.9598 18.4879H19.9504Z" fill="#B3B3B3"/>
</g>
<defs>
<clipPath id="clip0_200_67713">
<rect width="60" height="45" fill="white" transform="translate(-7.5)"/>
</clipPath>
</defs>
</svg>
