<svg width="45" height="45" viewBox="0 0 45 45" fill="none" xmlns="http://www.w3.org/2000/svg">
<g clip-path="url(#clip0_200_68865)">
<path d="M-7.5 0H52.5V45H-7.5V0Z" fill="#002395"/>
<path d="M-7.5 0H19.95V18.45H-7.5V0Z" fill="white"/>
<path d="M-7.5 0H1.5V18H-7.5V0Z" fill="#002395"/>
<path d="M10.5 0H19.5V18H10.5V0Z" fill="#ED2939"/>
<path d="M32.4375 20.5879L33.8812 22.8941H38.0062V30.9379L34.9125 26.1004L30.75 32.7379H32.775L34.9125 28.9129L39.3 36.7879L43.6875 28.9129L45.825 32.7379H47.85L43.6875 26.1004L40.5938 30.9379V26.4941H42.45L43.8281 24.3004H40.5938V22.8941H44.7188L46.1625 20.5879H32.4375ZM37.275 30.4316H32.775V32.0066H37.275V30.4316ZM45.825 30.4316H41.325V32.0066H45.825V30.4316Z" fill="white"/>
<path d="M39.2998 38.3623L40.6836 42.6373L37.0498 39.9936H41.5498L37.9161 42.6373L39.2998 38.3623Z" fill="white"/>
<path d="M34.2373 34.5371L35.6211 38.8121L31.9873 36.1684H36.4873L32.8536 38.8121L34.2373 34.5371Z" fill="white"/>
<path d="M44.3623 34.5371L45.7461 38.8121L42.1123 36.1684H46.6123L42.9786 38.8121L44.3623 34.5371Z" fill="white"/>
<path d="M29.9629 23.1748L31.3466 27.4498L27.7129 24.8061H32.2129L28.5791 27.4498L29.9629 23.1748Z" fill="white"/>
</g>
<defs>
<clipPath id="clip0_200_68865">
<rect width="60" height="45" fill="white" transform="translate(-7.5)"/>
</clipPath>
</defs>
</svg>
