<svg width="45" height="45" viewBox="0 0 45 45" fill="none" xmlns="http://www.w3.org/2000/svg">
<g clip-path="url(#clip0_200_70203)">
<path d="M-7.5 0H52.5V45H-7.5V0Z" fill="#006600"/>
<path d="M-7.5 0H52.5V32.1469H-7.5V0Z" fill="white"/>
<path d="M-7.5 0H52.5V12.8531H-7.5V0Z" fill="#CC0000"/>
<path d="M20.7002 21.8996C20.7885 21.7498 20.9229 21.6326 21.0833 21.5654C21.2437 21.4983 21.4215 21.4848 21.5902 21.527C21.7589 21.5691 21.9095 21.6647 22.0194 21.7995C22.1293 21.9342 22.1927 22.1009 22.2002 22.2746V25.4996H22.8002V22.284C22.8076 22.1102 22.8711 21.9436 22.981 21.8088C23.0909 21.6741 23.2415 21.5785 23.4102 21.5363C23.5789 21.4942 23.7567 21.5077 23.9171 21.5748C24.0775 21.642 24.2119 21.7592 24.3002 21.909C24.3932 21.6246 24.4174 21.3223 24.371 21.0268C24.3246 20.7313 24.2089 20.4509 24.0333 20.2088C23.8577 19.9666 23.6272 19.7695 23.3607 19.6336C23.0942 19.4976 22.7993 19.4268 22.5002 19.4268C22.2011 19.4268 21.9062 19.4976 21.6397 19.6336C21.3732 19.7695 21.1427 19.9666 20.9671 20.2088C20.7915 20.4509 20.6758 20.7313 20.6294 21.0268C20.583 21.3223 20.6072 21.6246 20.7002 21.909" fill="#F8C300"/>
<path d="M21.1309 21.0653C21.3941 21.0109 21.6677 21.0404 21.9133 21.1497C22.1589 21.2591 22.3639 21.4427 22.4996 21.6747C22.6353 21.4427 22.8404 21.2591 23.0859 21.1497C23.3315 21.0404 23.6051 21.0109 23.8684 21.0653C23.829 20.7299 23.6679 20.4206 23.4156 20.1961C23.1633 19.9717 22.8373 19.8477 22.4996 19.8477C22.1619 19.8477 21.8359 19.9717 21.5836 20.1961C21.3313 20.4206 21.1702 20.7299 21.1309 21.0653Z" fill="white"/>
<path d="M22.2 24.2158C22.1602 24.6727 21.9922 25.1091 21.7155 25.4749C21.4387 25.8406 21.0644 26.1208 20.6356 26.2834C20.2067 26.4459 19.7407 26.4841 19.291 26.3937C18.8414 26.3033 18.4264 26.0878 18.0938 25.7721C17.9527 26.1321 17.731 26.455 17.4457 26.7161C17.1604 26.9771 16.8191 27.1693 16.448 27.278C16.0769 27.3866 15.6858 27.4087 15.3048 27.3427C14.9238 27.2767 14.5629 27.1242 14.25 26.8971C14.4844 29.2408 18 28.7627 18.2625 26.4846C19.3594 28.4252 21.7875 27.8627 22.5 25.4908L22.2 24.2158Z" fill="#F8C300"/>
<path d="M19.8562 28.3691C19.3594 29.4285 18.3844 29.6066 17.5312 28.7535C17.5312 28.7535 17.8688 28.5098 18.2438 28.4441C18.1688 28.1535 18.3094 27.741 18.5156 27.5254C18.7886 27.7045 18.9908 27.9729 19.0875 28.2848C19.6031 28.2191 19.8562 28.3785 19.8562 28.3785V28.3691Z" fill="#F8C300"/>
<path fill-rule="evenodd" clip-rule="evenodd" d="M28.5869 31.2256C24.6148 30.0433 20.3844 30.0433 16.4124 31.2256L16.1182 30.2372C20.2822 28.9978 24.7171 28.9978 28.8811 30.2372L28.5869 31.2256Z" fill="#F8C300"/>
<path d="M23.4704 16.7671L20.9297 14.9211H24.0702L21.5295 16.7671L22.5 13.7803L23.4704 16.7671Z" fill="#F8C300"/>
</g>
<defs>
<clipPath id="clip0_200_70203">
<rect width="60" height="45" fill="white" transform="translate(-7.5)"/>
</clipPath>
</defs>
</svg>
