<svg width="45" height="45" viewBox="0 0 45 45" fill="none" xmlns="http://www.w3.org/2000/svg">
<g clip-path="url(#clip0_200_70538)">
<path d="M-7.5 0H52.5V45H-7.5V0Z" fill="#00247D"/>
<path d="M2.63437 33.2442C2.00625 33.2348 8.52188 29.7754 13.9688 25.3317C21.1125 19.5098 36.4969 10.2004 41.025 8.68169C41.4937 8.52231 40.0594 9.48794 39.8719 9.79731C35.0437 15.5161 38.8969 26.2973 44.9344 31.7254C46.7531 33.1129 46.6594 33.1879 50.025 33.3192V33.6379L2.63437 33.2442ZM2.24063 33.8723C2.24063 33.8723 1.78125 34.2004 1.78125 34.4442C1.78125 34.7161 2.29688 35.0723 2.29688 35.0723L49.0312 35.5879L49.8938 35.0161L48.6938 34.2754L2.24063 33.8723Z" fill="#FED100"/>
<path d="M2.5125 10.2277L2.1375 11.3715L3.1125 10.6684L4.07812 11.3715L3.7125 10.2277L4.67812 9.52461H3.47812L3.1125 8.38086L2.7375 9.52461H1.5375L2.5125 10.2277ZM9.83437 15.609L10.6406 15.0184H9.6375L9.32812 14.0715L9.01875 15.0184H8.025L8.83125 15.609L8.52187 16.5559L9.32812 15.9652L10.1437 16.5559L9.83437 15.609ZM-3.77812 16.8277L-4.15312 15.684L-4.51875 16.8277H-5.71875L-4.75313 17.5309L-5.11875 18.6746L-4.15312 17.9715L-3.17813 18.6746L-3.55313 17.5309L-2.57812 16.8277H-3.77812ZM3.54375 28.2934L3.1125 26.9621L2.68125 28.2934H1.275L2.40937 29.109L1.97812 30.4496L3.1125 29.6246L4.24688 30.4496L3.80625 29.109L4.94062 28.2934H3.54375Z" fill="white"/>
</g>
<defs>
<clipPath id="clip0_200_70538">
<rect width="60" height="45" fill="white" transform="translate(-7.5)"/>
</clipPath>
</defs>
</svg>
