<svg width="45" height="45" viewBox="0 0 45 45" fill="none" xmlns="http://www.w3.org/2000/svg">
<g clip-path="url(#clip0_200_67379)">
<path fill-rule="evenodd" clip-rule="evenodd" d="M-11.25 0H56.25V45H-11.25V0Z" fill="#00843D"/>
<path fill-rule="evenodd" clip-rule="evenodd" d="M11.8916 12.085C14.3438 13.2627 17.2617 12.085 18.3164 10.4502C19.4063 8.9209 19.5381 6.36328 17.666 4.0166C20.5664 6.4248 21.2168 9.1582 19.7666 11.4082C17.833 13.9834 13.5615 13.9043 11.8916 12.085Z" fill="white"/>
<path fill-rule="evenodd" clip-rule="evenodd" d="M16.2422 6.09961L16.7344 6.1084L16.3477 6.41602L16.4971 6.9082L16.084 6.61816L15.6885 6.9082L15.8203 6.4248L15.4248 6.11719L15.917 6.1084L16.084 5.625L16.2422 6.09961ZM13.8076 9.1582H14.2998L13.9131 9.47461L14.0625 9.95801L13.6494 9.66797L13.2451 9.9668L13.3857 9.47461L12.9902 9.17578L13.4824 9.1582L13.6406 8.6748L13.8076 9.1582ZM13.9658 6.75H14.4668L14.0713 7.06641L14.2207 7.5498L13.8164 7.25977L13.4121 7.55859L13.5527 7.06641L13.1572 6.75879L13.6494 6.75L13.8076 6.2666L13.9658 6.75ZM13.9658 4.33301H14.4668L14.0625 4.6582L14.2119 5.1416L13.8076 4.86035L13.4033 5.15039L13.5439 4.66699L13.1484 4.35937L13.6406 4.35059L13.7988 3.86719L13.9658 4.33301ZM11.2676 7.3916H11.7598L11.3643 7.70801L11.5137 8.19141L11.1094 7.90137L10.7051 8.2002L10.8457 7.70801L10.4502 7.40918L10.9424 7.3916L11.1006 6.9082L11.2676 7.3916Z" fill="white"/>
<path fill-rule="evenodd" clip-rule="evenodd" d="M-7.0752 0H7.3916V45H-7.0752V0Z" fill="#CA3745"/>
<path fill-rule="evenodd" clip-rule="evenodd" d="M7.3916 11.7334V11.4082L6.79395 10.6084L6.91699 10.4414L6.55664 9.9668L6.6709 9.7998L6.91699 10.125L7.04004 9.9668L6.19629 8.8418L6.07324 9L6.19629 9.1582L5.94141 9.4834L5.35254 8.6748L5.9502 7.89258L6.19629 8.19141L6.07324 8.3584L6.1875 8.5166L7.03125 7.3916L6.91699 7.2334L6.6709 7.5498L6.55664 7.3916L6.9082 6.9082L6.79395 6.75L7.3916 5.94141V5.625L6.55664 6.75L6.6709 6.9082L6.31934 7.3916L6.55664 7.7168L6.31055 8.0332L5.9502 7.5498L5.09766 8.69238L5.9502 9.7998L6.31055 9.31641L6.55664 9.6416L6.31055 9.9668L6.6709 10.4414L6.55664 10.6084L7.3916 11.7334Z" fill="#FAAE29"/>
<path fill-rule="evenodd" clip-rule="evenodd" d="M7.3916 7.7168L7.26855 8.0332V8.52539H6.91699L6.6709 8.68359L6.9082 8.85059H7.26855V9.32519L7.3916 9.65039V7.7168Z" fill="#FAAE29"/>
<path fill-rule="evenodd" clip-rule="evenodd" d="M7.43555 19.4502V19.125L6.83789 18.3252L6.95215 18.1582L6.60059 17.6748L6.71484 17.5166L6.95215 17.8418L7.0752 17.6748L6.23144 16.5498L6.1084 16.7168L6.23144 16.875L5.98535 17.2002L5.3877 16.3916L5.99414 15.6094L6.23144 15.9082L6.1084 16.0664L6.23144 16.2334L7.0752 15.1084L6.95215 14.9414L6.71484 15.2666L6.5918 15.1084L6.95215 14.625L6.83789 14.4668L7.43555 13.6582V13.3418L6.5918 14.4668L6.71484 14.625L6.35449 15.1084L6.5918 15.4248L6.35449 15.75L5.99414 15.2666L5.1416 16.4092L5.99414 17.5166L6.3457 17.0332L6.5918 17.3584L6.35449 17.6748L6.70606 18.1582L6.5918 18.3164L7.43555 19.4414V19.4502Z" fill="#FAAE29"/>
<path fill-rule="evenodd" clip-rule="evenodd" d="M7.43555 15.4248L7.3125 15.75V16.2334H6.94336L6.69727 16.3916L6.94336 16.5498H7.29492V17.0332L7.42676 17.3584V15.4248H7.43555Z" fill="#FAAE29"/>
<path fill-rule="evenodd" clip-rule="evenodd" d="M7.3916 27.1582V26.8418L6.79395 26.0332L6.91699 25.875L6.55664 25.3916L6.6709 25.2334L6.91699 25.5498L7.04004 25.3916L6.19629 24.2666L6.07324 24.4248L6.19629 24.5918L5.94141 24.917L5.35254 24.1084L5.9502 23.3174L6.19629 23.625L6.07324 23.7832L6.1875 23.9414L7.03125 22.8164L6.91699 22.6582L6.6709 22.9834L6.55664 22.8164L6.9082 22.3418L6.79395 22.1748L7.3916 21.375V21.0498L6.55664 22.1748L6.6709 22.3418L6.31934 22.8164L6.55664 23.1416L6.31055 23.4668L5.9502 22.9834L5.09766 24.126L5.9502 25.2334L6.31055 24.75L6.55664 25.0664L6.31055 25.3916L6.6709 25.875L6.55664 26.0332L7.38281 27.1582H7.3916Z" fill="#FAAE29"/>
<path fill-rule="evenodd" clip-rule="evenodd" d="M7.3916 23.1416L7.26855 23.4668V23.9502H6.91699L6.6709 24.1084L6.9082 24.2666H7.26855V24.75L7.3916 25.0752V23.1416Z" fill="#FAAE29"/>
<path fill-rule="evenodd" clip-rule="evenodd" d="M7.3916 34.3916V34.0664L6.79395 33.2666L6.91699 33.1084L6.55664 32.625L6.6709 32.4668L6.91699 32.7832L7.04004 32.625L6.19629 31.5L6.07324 31.6582L6.19629 31.8164L5.94141 32.1416L5.35254 31.3418L5.9502 30.5508L6.19629 30.8584L6.07324 31.0166L6.1875 31.1748L7.03125 30.0586L6.91699 29.9004L6.6709 30.2256L6.55664 30.0586L6.9082 29.5752L6.79395 29.417L7.3916 28.6172V28.292L6.55664 29.417L6.6709 29.5752L6.31934 30.0586L6.55664 30.3838L6.31055 30.7002L5.9502 30.2256L5.09766 31.3682L5.9502 32.4756L6.31055 31.9922L6.55664 32.3086L6.31055 32.6338L6.6709 33.1172L6.55664 33.2754L7.3916 34.4004V34.3916Z" fill="#FAAE29"/>
<path fill-rule="evenodd" clip-rule="evenodd" d="M7.3916 30.375L7.26855 30.6914V31.1748H6.91699L6.6709 31.3418L6.9082 31.5H7.26855V31.9834L7.3916 32.2998V30.3662V30.375Z" fill="#FAAE29"/>
<path fill-rule="evenodd" clip-rule="evenodd" d="M-7.0752 3.0498V2.7334L-6.47754 1.9248L-6.5918 1.7666L-6.24023 1.2832L-6.35449 1.125L-6.5918 1.4502L-6.71484 1.2832L-5.87109 0.158203L-5.74805 0.325195L-5.87109 0.483398L-5.625 0.808594L-5.02734 0H-4.78125L-5.625 1.125L-5.99414 0.641602L-6.23145 0.966797L-5.99414 1.2832L-6.3457 1.7666L-6.24023 1.93359L-7.0752 3.05859V3.0498ZM-7.0752 0H-6.3457L-6.5918 0.158203H-6.94336V0.641602L-7.08398 0.966797V0H-7.0752ZM7.3916 3.0498V2.7334L6.79395 1.9248L6.91699 1.7666L6.55664 1.2832L6.6709 1.125L6.91699 1.4502L7.03125 1.2832L6.1875 0.158203L6.07324 0.325195L6.1875 0.483398L5.94141 0.808594L5.34375 0H5.09766L5.95019 1.125L6.31055 0.641602L6.55664 0.966797L6.31055 1.2832L6.6709 1.7666L6.55664 1.9248L7.3916 3.0498ZM7.3916 0H6.6709L6.90821 0.158203H7.26855V0.641602L7.3916 0.966797V0ZM-1.0459 44.3584C-1.0459 44.3584 -0.518556 43.4443 0.782226 43.1719C2.0918 42.8906 2.32031 43.7783 3.06738 43.7783C3.81445 43.7783 5.00098 43.1631 5.00098 43.1631C5.00098 43.1631 3.81445 44.332 2.8916 44.3057C1.98633 44.2793 1.67871 43.6904 0.73828 43.7783C-0.19336 43.8662 -1.0459 44.3848 -1.0459 44.3584Z" fill="#FAAE29"/>
<path fill-rule="evenodd" clip-rule="evenodd" d="M1.47656 44.3588C1.47656 44.3588 0.958008 43.4447 -0.342773 43.1722C-1.66113 42.891 -1.88086 43.7787 -2.62793 43.7787C-3.375 43.7787 -4.56152 43.1635 -4.56152 43.1635C-4.56152 43.1635 -3.375 44.3324 -2.46094 44.306C-1.54687 44.2797 -1.23047 43.6908 -0.307617 43.7787C0.632813 43.8666 1.47656 44.3851 1.47656 44.3588Z" fill="#FAAE29"/>
<path fill-rule="evenodd" clip-rule="evenodd" d="M3.16437 42.9787C3.27862 42.7326 3.56866 41.6779 3.41925 41.5461C3.18194 41.4582 2.5755 42.5305 2.62823 43.4973C3.03253 43.717 4.39484 43.4094 4.37726 43.1281C4.28058 42.7326 3.51593 42.8644 3.16437 42.9699V42.9787Z" fill="#FAAE29"/>
<path fill-rule="evenodd" clip-rule="evenodd" d="M3.99026 42.0471C4.06936 41.7834 4.18362 40.676 4.01663 40.5881C3.77932 40.5705 3.33987 41.7834 3.55081 42.715C3.97268 42.8205 5.26468 42.1437 5.19436 41.8713C5.04495 41.5109 4.31546 41.8537 3.99026 42.0471Z" fill="#FAAE29"/>
<path fill-rule="evenodd" clip-rule="evenodd" d="M4.65831 41.0273C4.71105 40.7461 4.72862 39.6211 4.55284 39.5684C4.31554 39.5859 3.99034 40.8604 4.28038 41.748C4.71983 41.7832 5.93272 40.9131 5.84483 40.6494C5.65147 40.3154 4.96593 40.7725 4.65831 41.0273Z" fill="#FAAE29"/>
<path fill-rule="evenodd" clip-rule="evenodd" d="M5.18621 39.9287C5.20379 39.6475 5.09832 38.5312 4.91375 38.5137C4.67645 38.5752 4.50945 39.9111 4.89617 40.7285C5.33563 40.6758 6.42547 39.5596 6.31121 39.3223C6.09149 39.0234 5.45867 39.6211 5.18621 39.9287Z" fill="#FAAE29"/>
<path fill-rule="evenodd" clip-rule="evenodd" d="M5.55538 38.7776C5.54659 38.4963 5.30929 37.4153 5.1335 37.4328C4.90499 37.5383 4.87862 38.8918 5.35323 39.6301C5.77511 39.4895 6.7419 38.1799 6.60128 37.9602C6.3464 37.7141 5.7839 38.426 5.54659 38.7776H5.55538Z" fill="#FAAE29"/>
<path fill-rule="evenodd" clip-rule="evenodd" d="M5.44922 37.4766C5.48438 38.6191 5.68652 38.6279 6.06445 37.7842C6.24023 37.4678 6.25781 36.1406 6.1084 36.0967C5.88867 36.0967 5.45801 37.0371 5.44922 37.4766Z" fill="#FAAE29"/>
<path fill-rule="evenodd" clip-rule="evenodd" d="M5.14933 28.9091H4.42995V29.3917H3.73673V29.8743H0.963834L0.492967 30.3707L0.7284 30.6189H1.89249L2.11485 30.3707H0.963834L1.18619 30.1225H2.80807L2.11485 30.8533H0.506046L0.0482569 30.6189L-0.422611 30.8533H-2.04449L-2.73771 30.1225H-1.11583L-0.8804 30.3707H-2.04449L-1.80906 30.6189H-0.644966L-0.422611 30.3707L-0.8804 29.8743H-3.43094V29.3917H-4.12416V28.9091H-4.81738V26.703H-4.12416V26.2205H-3.43094V25.7241H-0.8804L-0.422611 25.2415L-0.644966 24.9933H-1.80906L-2.04449 25.2415H-0.8804L-1.11583 25.4759H-2.73771L-2.04449 24.7451H-0.409532L0.0613365 24.9933L0.519125 24.7451H2.14101L2.83423 25.4759H1.21235L0.989994 25.2415H2.14101L1.90557 24.9933H0.75456L0.506046 25.2415L0.976914 25.7241H3.74981V26.2205H4.44303V26.703H5.14933V28.9091Z" fill="#CA3745"/>
<path fill-rule="evenodd" clip-rule="evenodd" d="M-2.0475 24.7383H-0.407992L0.0611706 24.9856L0.517301 24.7383H2.14377L2.84973 25.4825H1.20934L0.974248 25.2347H2.12526L1.90257 24.9999H0.757217L0.515365 25.2414L0.979622 25.7172H3.7564V26.2136H4.44962V26.6962H5.15592V28.909H5.14921V28.9157H4.43654V29.3983H3.74332V29.8809H0.966599L0.5021 30.3706L0.731165 30.612H1.88937L2.09969 30.3773H0.948682L1.18307 30.1157H2.82357L2.11761 30.8599H0.504305L0.0480928 30.6263L-0.421154 30.8599H-2.0475L-2.75346 30.1157H-1.11307L-0.864897 30.3773H-2.02899L-1.80629 30.612H-0.648087L-0.431807 30.3706L-0.883463 29.8809H-3.43777V29.3983H-4.131V28.9157H-4.82422V26.6962H-4.131V26.2136H-3.43777V25.7172H-0.883407L-0.431864 25.2412L-0.648087 24.9999H-1.80629L-2.02899 25.2347H-0.86426L-1.11318 25.4825H-2.75346L-2.0475 24.7383ZM5.1425 28.9023V26.7096H4.43619V26.227H3.74297V25.7307H0.973963L0.496483 25.2413L0.751659 24.9865H1.90834L2.15651 25.2481H1.0055L1.21511 25.4691H2.81848L2.138 24.7517H0.520707L0.0612597 25.0008L-0.411314 24.7517H-2.04173L-2.72221 25.4691H-1.11873L-0.896782 25.2481H-2.06024L-1.81206 24.9865H-0.642088L-0.413601 25.2415L-0.877636 25.7307H-3.42434V26.227H-4.11757V26.7096H-4.81079V28.9023H-4.11757V29.3849H-3.42434V29.8675H-0.87758L-0.413659 30.3705L-0.642088 30.6255H-1.81206L-2.06024 30.3639H-0.896146L-1.11884 30.1291H-2.72221L-2.04173 30.8464H-0.424311L0.0481782 30.6112L0.507543 30.8464H2.11184L2.79232 30.1291H1.18907L0.978744 30.3639H2.12976L1.89537 30.6255H0.725393L0.48359 30.3706L0.960828 29.8675H3.72989V29.3849H4.42311V28.9023H5.1425Z" fill="black"/>
<path fill-rule="evenodd" clip-rule="evenodd" d="M-4.58496 26.9598V28.6695H-3.89175V29.1521H-3.19853V29.6347H-0.876923L0.0517225 30.3724L0.973828 29.6416H3.52433V29.159L4.21755 29.1521V28.6695H4.92384V26.9529H4.22408V26.4703H3.53087V25.9739H0.980369L0.0582628 25.2432L-0.870383 25.9739H-3.19199V26.4703H-3.88521V26.9529H-4.57842L-4.58496 26.9598Z" fill="#00843D"/>
<path fill-rule="evenodd" clip-rule="evenodd" d="M0.0584927 25.1836L0.996861 25.9273H3.578V26.4236H4.27121V26.9062H4.97097V28.7168H4.26468V29.199L3.57146 29.2059V29.6889H0.990322L0.051816 30.4327L-0.893192 29.682H-3.24541V29.1994H-3.93862V28.7168H-4.63184V26.9414L-4.59849 26.9062H-3.93208V26.4236H-3.23887V25.9273H-0.886532L0.0584927 25.1836ZM0.0582867 25.3034L-0.85398 26.0213H-3.14487V26.5176H-3.83808V27.0002H-4.53783V28.6228H-3.84462V29.1054H-3.15141V29.588H-0.8604L0.0518837 30.3127L0.957589 29.5949H3.47746V29.1128L4.17067 29.1059V28.6228H4.87696V27.0002H4.17721V26.5176H3.484V26.0213H0.964129L0.0582867 25.3034Z" fill="#FAAE29"/>
<path fill-rule="evenodd" clip-rule="evenodd" d="M-1.34396 26.2129L-2.73242 27.436V26.2129H-1.34396ZM1.43297 26.2129L2.83022 27.436V26.2129H1.43297ZM-1.34396 29.3931L-2.73242 28.1699V29.3931H-1.34396ZM1.43297 29.3931L2.83022 28.1699V29.3931H1.43297ZM1.89872 26.9468L1.43297 27.436H2.36447L1.89872 26.9468ZM-1.80971 26.9468L-2.26667 27.436H-1.34396L-1.80971 26.9468ZM-1.80971 28.6592L-2.26667 28.1699H-1.34396L-1.80971 28.6592ZM1.89872 28.6592L1.43297 28.1699H2.36447L1.89872 28.6592Z" fill="#CA3745"/>
<path fill-rule="evenodd" clip-rule="evenodd" d="M0.0438754 29.8823L-0.421875 29.3931H0.509626L0.0438754 29.8823ZM0.0438754 27.436L-0.421875 26.9468H0.509626L0.0438754 27.436ZM0.0438754 25.7236L-0.421875 26.224H0.509626L0.0438754 25.7236ZM0.0438754 28.1699L-0.421875 28.6592H0.509626L0.0438754 28.1699Z" fill="#FAAE29"/>
<path fill-rule="evenodd" clip-rule="evenodd" d="M1.4375 27.4424H2.37268V27.6837H1.44404L1.4375 27.4424Z" fill="#FAAE29"/>
<path fill-rule="evenodd" clip-rule="evenodd" d="M1.43457 27.4395H2.37656V27.6875H1.44129L1.43457 27.4395ZM1.44147 27.4462L1.44783 27.6807H2.36985V27.4462H1.44147Z" fill="black"/>
<path fill-rule="evenodd" clip-rule="evenodd" d="M-2.03516 27.6836H-1.57737V27.9318H-2.03516V27.6836ZM1.67288 27.6836H2.13066V27.9318H1.67288V27.6836Z" fill="#CC0000"/>
<path fill-rule="evenodd" clip-rule="evenodd" d="M-2.03809 27.6807H-1.57359V27.9356H-2.03809V27.6807ZM-2.03137 27.6874V27.9288H-1.5803V27.6874H-2.03137ZM1.66995 27.6807H2.13445V27.9356H1.66995V27.6807ZM1.67667 27.6874V27.9288H2.12773V27.6874H1.67667Z" fill="black"/>
<path fill-rule="evenodd" clip-rule="evenodd" d="M-0.413086 26.2217H0.509019V26.463H-0.413086V26.2217ZM-0.413086 26.7043H0.509019V26.9525H-0.413086V26.7043Z" fill="#990000"/>
<path fill-rule="evenodd" clip-rule="evenodd" d="M-0.416016 26.2188H0.512804V26.4668H-0.416016V26.2188ZM-0.409301 26.2255V26.46H0.50609V26.2255H-0.409301ZM-0.416016 26.7013H0.512804V26.9562H-0.416016V26.7013ZM-0.409301 26.7081V26.9495H0.50609V26.7081H-0.409301Z" fill="black"/>
<path fill-rule="evenodd" clip-rule="evenodd" d="M-0.648438 26.4639H0.744531V26.7121H-0.648438V26.4639ZM-0.413006 28.67H0.509099V28.9044H-0.413006V28.67ZM-0.413006 29.1526H0.509099V29.3939H-0.413006V29.1526ZM-0.648438 28.9113H0.744531V29.1526H-0.648438V28.9113Z" fill="#990000"/>
<path fill-rule="evenodd" clip-rule="evenodd" d="M-0.651367 26.46H0.748316V26.7149H-0.651367V26.46ZM-0.644653 26.4667V26.7081H0.741601V26.4667H-0.644653ZM-0.415936 28.6661H0.512884V28.9072H-0.415936V28.6661ZM-0.409221 28.6728V28.9005H0.50617V28.6728H-0.409221ZM-0.651367 28.9074H0.748316V29.1554H0.512884V29.3967H-0.415936V29.1554H-0.651367V28.9074ZM0.741601 29.1487V28.9141H-0.644653V29.1487H0.741601ZM-0.409221 29.1554V29.3899H0.50617V29.1554H-0.409221Z" fill="black"/>
<path fill-rule="evenodd" clip-rule="evenodd" d="M1.43791 27.9319H2.37309V28.1732H1.44445L1.43791 27.9319ZM-2.27013 27.4424H-1.34149V27.6837H-2.27013V27.4424ZM-2.27013 27.925H-1.34149V28.1732H-2.27013V27.925ZM-2.49902 27.6837H-2.04124V27.9319H-2.49902V27.6837ZM-1.57038 27.6837H-1.1126V27.9319H-1.57038V27.6837ZM1.20902 27.6837H1.6668V27.9319H1.20902V27.6837ZM2.13766 27.6837H2.59544V27.9319H2.13766V27.6837Z" fill="#FAAE29"/>
<path fill-rule="evenodd" clip-rule="evenodd" d="M-2.27306 27.4395H-1.3377V27.6807H-1.10881V27.9356H-1.3377V28.1769H-2.27306V27.9356H-2.50195V27.6807H-2.27306V27.4395ZM-2.26635 27.6807H-1.34442V27.4462H-2.26635V27.6807ZM-1.57331 27.6875H-2.03746V27.922H-1.57331V27.6875ZM-1.57331 27.9288H-2.03746V27.9356H-2.26635V28.1702H-1.34442V27.9356H-1.57331V27.9288ZM-1.3377 27.9289V27.922H-1.56659V27.6875H-1.11553V27.9289H-1.3377ZM-1.34442 27.9289H-1.56659V27.9288H-1.34442V27.9289ZM-2.26635 27.9289H-2.04417V27.9288H-2.26635V27.9289ZM-2.04417 27.922V27.6875H-2.49524V27.9289H-2.27306V27.922H-2.04417ZM1.20609 27.6807H1.67058V27.9289H2.13473V27.6807H2.59923V27.9356H2.37688V28.1769H1.44161L1.43507 27.9356H1.20609V27.6807ZM1.66387 27.9289V27.6875H1.2128V27.9289H1.66387ZM1.44178 27.9356L1.44814 28.1702H2.37016V27.9356H1.44178ZM2.59251 27.9289V27.6875H2.14145V27.9289H2.59251Z" fill="black"/>
<path d="M0.0510469 29.0821C0.0835531 29.0821 0.109904 29.0543 0.109904 29.0201C0.109904 28.9858 0.0835531 28.958 0.0510469 28.958C0.0185406 28.958 -0.0078125 28.9858 -0.0078125 29.0201C-0.0078125 29.0543 0.0185406 29.0821 0.0510469 29.0821Z" fill="white"/>
<path d="M0.630148 29.0821C0.662655 29.0821 0.689006 29.0543 0.689006 29.0201C0.689006 28.9858 0.662655 28.958 0.630148 28.958C0.597642 28.958 0.571289 28.9858 0.571289 29.0201C0.571289 29.0543 0.597642 29.0821 0.630148 29.0821Z" fill="white"/>
<path d="M0.39382 28.8487C0.426327 28.8487 0.452678 28.8209 0.452678 28.7867C0.452678 28.7524 0.426327 28.7246 0.39382 28.7246C0.361314 28.7246 0.334961 28.7524 0.334961 28.7867C0.334961 28.8209 0.361314 28.8487 0.39382 28.8487Z" fill="white"/>
<path d="M0.39382 29.338C0.426327 29.338 0.452678 29.3102 0.452678 29.2759C0.452678 29.2416 0.426327 29.2139 0.39382 29.2139C0.361314 29.2139 0.334961 29.2416 0.334961 29.2759C0.334961 29.3102 0.361314 29.338 0.39382 29.338Z" fill="white"/>
<path d="M1.3157 27.8585C1.3482 27.8585 1.37455 27.8307 1.37455 27.7964C1.37455 27.7622 1.3482 27.7344 1.3157 27.7344C1.28319 27.7344 1.25684 27.7622 1.25684 27.7964C1.25684 27.8307 1.28319 27.8585 1.3157 27.8585Z" fill="white"/>
<path d="M1.89577 27.8585C1.92828 27.8585 1.95463 27.8307 1.95463 27.7964C1.95463 27.7622 1.92828 27.7344 1.89577 27.7344C1.86327 27.7344 1.83691 27.7622 1.83691 27.7964C1.83691 27.8307 1.86327 27.8585 1.89577 27.8585Z" fill="white"/>
<path d="M2.47585 27.8585C2.50836 27.8585 2.53471 27.8307 2.53471 27.7964C2.53471 27.7622 2.50836 27.7344 2.47585 27.7344C2.44335 27.7344 2.41699 27.7622 2.41699 27.7964C2.41699 27.8307 2.44335 27.8585 2.47585 27.8585Z" fill="white"/>
<path d="M1.553 27.6143C1.58551 27.6143 1.61186 27.5866 1.61186 27.5523C1.61186 27.518 1.58551 27.4902 1.553 27.4902C1.52049 27.4902 1.49414 27.518 1.49414 27.5523C1.49414 27.5866 1.52049 27.6143 1.553 27.6143Z" fill="white"/>
<path d="M2.23855 27.6143C2.27105 27.6143 2.2974 27.5866 2.2974 27.5523C2.2974 27.518 2.27105 27.4902 2.23855 27.4902C2.20604 27.4902 2.17969 27.518 2.17969 27.5523C2.17969 27.5866 2.20604 27.6143 2.23855 27.6143Z" fill="white"/>
<path d="M1.54421 28.0919C1.57672 28.0919 1.60307 28.0641 1.60307 28.0298C1.60307 27.9956 1.57672 27.9678 1.54421 27.9678C1.5117 27.9678 1.48535 27.9956 1.48535 28.0298C1.48535 28.0641 1.5117 28.0919 1.54421 28.0919Z" fill="white"/>
<path d="M2.23855 28.1036C2.27105 28.1036 2.2974 28.0758 2.2974 28.0415C2.2974 28.0073 2.27105 27.9795 2.23855 27.9795C2.20604 27.9795 2.17969 28.0073 2.17969 28.0415C2.17969 28.0758 2.20604 28.1036 2.23855 28.1036Z" fill="white"/>
<path d="M0.0510469 26.6466C0.0835531 26.6466 0.109904 26.6188 0.109904 26.5845C0.109904 26.5502 0.0835531 26.5225 0.0510469 26.5225C0.0185406 26.5225 -0.0078125 26.5502 -0.0078125 26.5845C-0.0078125 26.6188 0.0185406 26.6466 0.0510469 26.6466Z" fill="white"/>
<path d="M0.630148 26.6358C0.662655 26.6358 0.689006 26.608 0.689006 26.5738C0.689006 26.5395 0.662655 26.5117 0.630148 26.5117C0.597642 26.5117 0.571289 26.5395 0.571289 26.5738C0.571289 26.608 0.597642 26.6358 0.630148 26.6358Z" fill="white"/>
<path d="M0.39382 26.4024C0.426327 26.4024 0.452678 26.3746 0.452678 26.3404C0.452678 26.3061 0.426327 26.2783 0.39382 26.2783C0.361314 26.2783 0.334961 26.3061 0.334961 26.3404C0.334961 26.3746 0.361314 26.4024 0.39382 26.4024Z" fill="white"/>
<path d="M0.39382 26.8917C0.426327 26.8917 0.452678 26.8639 0.452678 26.8296C0.452678 26.7954 0.426327 26.7676 0.39382 26.7676C0.361314 26.7676 0.334961 26.7954 0.334961 26.8296C0.334961 26.8639 0.361314 26.8917 0.39382 26.8917Z" fill="white"/>
<path fill-rule="evenodd" clip-rule="evenodd" d="M0.958007 22.4824L1.35352 22.2891L1.75781 22.4824H0.958007ZM-0.237304 22.4824L0.158204 22.2891L0.5625 22.4824H-0.237304ZM-1.43262 22.4824L-1.03711 22.2891L-0.632812 22.4824H-1.43262ZM0.958007 18.1758L1.35352 18.3691L1.75781 18.1846H0.958007V18.1758ZM-0.237304 18.1758L0.158204 18.3691L0.5625 18.1846H-0.237304V18.1758ZM-1.43262 18.1758L-1.03711 18.3691L-0.632812 18.1846H-1.43262V18.1758Z" fill="white"/>
<path fill-rule="evenodd" clip-rule="evenodd" d="M0.624024 23.0361L0.158204 23.4141L-0.307617 23.0361L-0.773438 23.4141L-1.23926 23.0361V23.2295L-0.922852 23.4053L-1.08106 23.5986V23.7832H-0.922852L-0.773438 23.6074L-0.615234 23.7832H-0.457031V23.6074L-0.615234 23.4141L-0.307617 23.2295L0.00879002 23.4053L-0.149414 23.5986V23.7832H0.00879002L0.158204 23.6074L0.316407 23.7832H0.465821V23.6074L0.316407 23.4141L0.624024 23.2295L0.931642 23.4053L0.782226 23.5986V23.7832H0.931642L1.08984 23.6074L1.24805 23.7832H1.39746V23.6074L1.24805 23.4141L1.55566 23.2295V23.0273L1.08984 23.4053L0.624024 23.0273V23.0361ZM0.624024 17.6221L0.158204 17.2441L-0.307617 17.6221L-0.773438 17.2441L-1.23926 17.6221V17.4375L-0.922852 17.2441L-1.08106 17.0684V16.875H-0.922852L-0.773438 17.0596L-0.615234 16.875H-0.457031V17.0596L-0.615234 17.2529L-0.307617 17.4287L0.00879002 17.2529L-0.149414 17.0596V16.875H0.00879002L0.158204 17.0596L0.316407 16.875H0.465821V17.0596L0.316407 17.2529L0.624024 17.4287L0.931642 17.2529L0.782226 17.0596V16.875H0.931642L1.08984 17.0596L1.24805 16.875H1.39746V17.0596L1.24805 17.2529L1.55566 17.4287V17.6221L1.08984 17.2441L0.624024 17.6221ZM4.13965 20.7334L4.64941 20.3291L4.14844 19.9248L4.64941 19.5205L4.14844 19.1162H4.39453L4.64941 19.3799L4.89551 19.248H5.1416V19.3887L4.89551 19.5205L5.1416 19.6523V19.793H4.89551L4.64941 19.6523L4.39453 19.9248L4.64941 20.1885L4.89551 20.0654H5.1416V20.1973L4.89551 20.3291L5.1416 20.4609V20.6016H4.89551L4.64941 20.4609L4.39453 20.7334L4.64941 20.9971L4.89551 20.8652H5.1416V21.0059L4.89551 21.1377L5.1416 21.2783V21.4102H4.89551L4.64941 21.2783L4.39453 21.542H4.14844L4.64941 21.1377L4.14844 20.7334H4.13965ZM-3.82324 20.7334L-4.32422 20.3291L-3.82324 19.9248L-4.32422 19.5205L-3.82324 19.1162H-4.07813L-4.32422 19.3799L-4.57031 19.248H-4.83398V19.3887L-4.57031 19.5117L-4.8252 19.6436V19.7842H-4.57031L-4.32422 19.6436L-4.07813 19.916L-4.32422 20.1797L-4.57031 20.0566H-4.83398V20.1885L-4.5791 20.3203L-4.83398 20.4521V20.5928H-4.57031L-4.32422 20.4521L-4.07813 20.7246L-4.32422 20.9971L-4.57031 20.8652H-4.83398V20.9971L-4.5791 21.1289L-4.83398 21.2695V21.4014H-4.57031L-4.32422 21.2695L-4.07813 21.5332H-3.82324L-4.32422 21.1289L-3.82324 20.7246V20.7334Z" fill="#00843D"/>
<path fill-rule="evenodd" clip-rule="evenodd" d="M4.33776 22.1111H4.54023V22.2903H4.33776V22.1111ZM4.13529 22.2903H4.33776V22.48H4.14654L4.13529 22.2903ZM3.14545 23.2286H3.34792V23.4183H3.14545V23.2286ZM3.34792 23.0388H3.53914V23.2286H3.34792V23.0388ZM-3.2323 23.0388H-3.02984V23.2286H-3.24355L-3.2323 23.0388ZM-4.2334 22.1111H-4.03093V22.2903H-4.2334V22.1111ZM-4.03093 22.2903H-3.82846V22.48H-4.03093V22.2903ZM-4.03093 18.1787H-3.82846V18.3685H-4.03093V18.1787ZM-4.2334 18.3685H-4.03093V18.5582H-4.2334V18.3685ZM-3.02984 17.251H-2.83862V17.4407H-3.01859L-3.02984 17.251ZM-3.2323 17.4407H-3.02984V17.6305H-3.24355L-3.2323 17.4407ZM3.14545 17.251H3.34792V17.4407H3.14545V17.251ZM3.34792 17.4407H3.53914V17.6305H3.34792V17.4407ZM4.13529 18.1787H4.33776V18.3685H4.14654L4.13529 18.1787ZM4.33776 18.379H4.54023V18.5582H4.33776V18.379ZM-3.01859 23.2286H-2.82737V23.4183H-3.01859V23.2286Z" fill="#00843D"/>
<path fill-rule="evenodd" clip-rule="evenodd" d="M-3.04646 17.2344H-2.82157V17.4568H-3.01279V17.6466H-3.26017L-3.24699 17.4241H-3.03521L-3.04646 17.2344ZM-3.00248 17.4241H-2.85424V17.267H-3.0118L-3.00248 17.4241ZM-3.04546 17.4568H-3.2162L-3.22551 17.6139H-3.04546V17.4568ZM3.12982 17.2344H3.36496V17.4241H3.55618V17.6466H3.33229V17.4568H3.12982V17.2344ZM3.36496 17.4568V17.6139H3.52351V17.4568H3.36496ZM3.33229 17.4241V17.267H3.16249V17.4241H3.33229ZM-4.04655 18.1621H-3.81142V18.3845H-4.01389V18.5743H-4.24902V18.3519H-4.04655V18.1621ZM-4.04655 18.3845H-4.21635V18.5416H-4.04655V18.3845ZM-4.01389 18.3519H-3.84409V18.1948H-4.01389V18.3519ZM4.11867 18.1621H4.35481V18.3624H4.55727V18.5743H4.32214V18.3845H4.13186L4.11867 18.1621ZM4.35481 18.3951V18.5416H4.5246V18.3951H4.35481ZM4.32214 18.3519V18.1948H4.15333L4.16265 18.3519H4.32214ZM-4.24902 22.0945H-4.01389V22.2737H-3.81142V22.4961H-4.04655V22.3063H-4.24902V22.0945ZM-4.01389 22.3063V22.4634H-3.84409V22.3063H-4.01389ZM-4.04655 22.2737V22.1271H-4.21635V22.2737H-4.04655ZM4.32214 22.0945H4.55727V22.3063H4.35481V22.4961H4.13186L4.11867 22.2737H4.32214V22.0945ZM4.32214 22.3063H4.15333L4.16265 22.4634H4.32214V22.3063ZM4.35481 22.2737H4.5246V22.1271H4.35481V22.2737ZM-3.24699 23.0222H-3.01279V23.212H-2.81032V23.4344H-3.03421V23.2446H-3.26017L-3.24699 23.0222ZM-3.00154 23.2446V23.4017H-2.84299V23.2446H-3.00154ZM-3.04546 23.212V23.0549H-3.2162L-3.22551 23.212H-3.04546ZM3.33229 23.0222H3.55618V23.2446H3.36496V23.4344H3.12982V23.212H3.33229V23.0222ZM3.33229 23.2446H3.16249V23.4017H3.33229V23.2446ZM3.36496 23.212H3.52351V23.0549H3.36496V23.212Z" fill="black"/>
<path fill-rule="evenodd" clip-rule="evenodd" d="M-0.448242 20.3291H-1.03711V19.96H-0.641602V19.6172H-0.254883V19.3008H0.140626V19.6963C-0.184569 19.6963 -0.448242 19.96 -0.448242 20.3291Z" fill="white"/>
<path fill-rule="evenodd" clip-rule="evenodd" d="M0.729492 20.3291H1.31836V19.96H0.922851V19.6172H0.527343V19.3008H0.140625V19.6963C0.46582 19.6963 0.729492 19.96 0.729492 20.3291Z" fill="#FAAE29"/>
<path fill-rule="evenodd" clip-rule="evenodd" d="M0.729492 20.3291H1.31836V20.6982H0.922851V21.041H0.527343V21.3574H0.140625V20.9619C0.46582 20.9619 0.729492 20.6982 0.729492 20.3291Z" fill="white"/>
<path fill-rule="evenodd" clip-rule="evenodd" d="M-0.448242 20.3291H-1.03711V20.6982H-0.641602V21.041H-0.254883V21.3574H0.140626V20.9619C-0.184569 20.9619 -0.448242 20.6982 -0.448242 20.3291Z" fill="#FAAE29"/>
<path fill-rule="evenodd" clip-rule="evenodd" d="M0.729492 20.3291H0.140625V19.6963C0.46582 19.6963 0.729492 19.9863 0.729492 20.3291Z" fill="#00843D"/>
<path fill-rule="evenodd" clip-rule="evenodd" d="M0.729492 20.3291H0.140625V20.9619C0.46582 20.9619 0.729492 20.6807 0.729492 20.3291Z" fill="#CA3745"/>
<path fill-rule="evenodd" clip-rule="evenodd" d="M-0.448242 20.3291H0.140625V20.9619C-0.18457 20.9619 -0.448242 20.6807 -0.448242 20.3291Z" fill="#00843D"/>
<path fill-rule="evenodd" clip-rule="evenodd" d="M-0.448242 20.3291H0.140625V19.6963C-0.18457 19.6963 -0.448242 19.9863 -0.448242 20.3291Z" fill="#CA3745"/>
<path fill-rule="evenodd" clip-rule="evenodd" d="M0.75586 22.667L0.158203 22.2891L-0.439453 22.667L-1.03711 22.2891L-1.63477 22.667V22.4824L-1.23926 22.2891L-1.43262 22.1045V21.9199H-1.23926L-1.03711 22.1045L-0.834961 21.9199H-0.632812V22.1045L-0.834961 22.2891L-0.439453 22.4824L-0.0351566 22.2891L-0.237304 22.1045V21.9199H-0.0351566L0.158203 22.1045L0.360352 21.9199H0.562499V22.1045L0.360352 22.2891L0.75586 22.4824L1.16016 22.2891L0.958007 22.1045V21.9199H1.16016L1.35351 22.1045L1.55566 21.9199H1.75781V22.1045L1.55566 22.2891L1.95117 22.4824V22.6582L1.35351 22.2891L0.75586 22.667ZM0.75586 18L0.158203 18.3691L-0.439453 18L-1.03711 18.3691L-1.63477 18V18.1758L-1.23926 18.3691L-1.43262 18.5537V18.7471H-1.23926L-1.03711 18.5537L-0.834961 18.7471H-0.632812V18.5449L-0.834961 18.3691L-0.439453 18.1758L-0.0351566 18.3604L-0.237304 18.5449V18.7383H-0.0351566L0.158203 18.5449L0.360352 18.7383H0.562499V18.5449L0.360352 18.3691L0.75586 18.1758L1.16016 18.3604L0.958007 18.5449V18.7383H1.16016L1.35351 18.5449L1.55566 18.7383H1.75781V18.5449L1.55566 18.3691L1.95117 18.1758V17.9912L1.35351 18.3604L0.75586 17.9912V18ZM2.95313 20.7949L2.6543 20.3291L2.95313 19.8633L2.6543 19.3975L2.95313 18.9316H2.80371L2.6543 19.2393L2.50488 19.0811H2.35547V19.2393L2.50488 19.3975L2.35547 19.5557V19.7051H2.50488L2.6543 19.5557L2.80371 19.8633L2.6543 20.1709L2.50488 20.0215H2.35547V20.1709L2.50488 20.3291L2.35547 20.4873V20.6455H2.50488L2.6543 20.4873L2.80371 20.7949L2.6543 21.1113L2.50488 20.9531H2.35547V21.1113L2.50488 21.2607L2.35547 21.4189V21.5771H2.50488L2.6543 21.4189L2.80371 21.7354H2.95313L2.6543 21.2607L2.95313 20.7949Z" fill="#00843D"/>
<path fill-rule="evenodd" clip-rule="evenodd" d="M-1.63081 18.1894L-2.41819 18.9274V21.7317L-1.63081 22.4802H1.96863L2.756 21.7422V18.9379L1.95738 18.1894H-1.63081ZM-1.83328 17.6201L-3.82422 19.4967V21.1835L-1.82203 23.039H2.15985L4.15079 21.1729V19.4861L2.15985 17.6201H-1.82203H-1.83328Z" fill="#00843D"/>
<path fill-rule="evenodd" clip-rule="evenodd" d="M-1.84261 17.5977H2.16778L4.17188 19.476V21.1817L2.16778 23.06H-1.83125L-3.84668 21.1923V19.4866L-1.84261 17.5977ZM-1.82532 17.6412L-3.80312 19.5054V21.1733L-1.81417 23.0165H2.15055L4.12832 21.1628V19.4949L2.15055 17.6412H-1.82532ZM-1.6401 18.1669H1.96531L2.7771 18.9278V21.751L1.97656 22.5013H-1.64019L-2.44065 21.7403V18.9173L-1.6401 18.1669ZM-1.62288 18.2105L-2.39709 18.9361V21.7217L-1.62279 22.4577H1.95933L2.73354 21.7321V18.9467L1.94809 18.2105H-1.62288Z" fill="black"/>
<path fill-rule="evenodd" clip-rule="evenodd" d="M0.479702 17.9951L0.794652 17.6156L1.1186 17.9951H0.470703H0.479702Z" fill="#FAAE29"/>
<path fill-rule="evenodd" clip-rule="evenodd" d="M1.14465 18.0078L0.794705 17.5978L0.474281 17.984H0.470884V17.988L0.470703 17.9883L0.470884 17.9884V18.0078H1.14465ZM0.505284 17.984H1.09292L0.794962 17.6349L0.505284 17.984Z" fill="black"/>
<path fill-rule="evenodd" clip-rule="evenodd" d="M0.479702 22.6621L0.794652 23.0416L1.1186 22.6621H0.470703H0.479702Z" fill="#FAAE29"/>
<path fill-rule="evenodd" clip-rule="evenodd" d="M1.14465 22.6504L0.794705 23.0604L0.474281 22.6742H0.470884V22.6702L0.470703 22.6699L0.470884 22.6698V22.6504H1.14465ZM0.505284 22.6742H1.09292L0.794962 23.0233L0.505284 22.6742Z" fill="black"/>
<path fill-rule="evenodd" clip-rule="evenodd" d="M-0.1619 17.9951L0.153051 17.6156L0.477 17.9951H-0.170898H-0.1619Z" fill="#CA3745"/>
<path fill-rule="evenodd" clip-rule="evenodd" d="M0.503047 18.0078L0.153104 17.5978L-0.167321 17.984H-0.170717V17.988L-0.170898 17.9883L-0.170717 17.9884V18.0078H0.503047ZM-0.136318 17.984H0.451316L0.153361 17.6349L-0.136318 17.984Z" fill="black"/>
<path fill-rule="evenodd" clip-rule="evenodd" d="M1.11251 17.9951L1.42746 17.6156L1.75141 17.9951H1.10352H1.11251Z" fill="#CA3745"/>
<path fill-rule="evenodd" clip-rule="evenodd" d="M1.77746 18.0078L1.42752 17.5978L1.10709 17.984H1.1037V17.988L1.10352 17.9883L1.1037 17.9884V18.0078H1.77746ZM1.1381 17.984H1.72573L1.42777 17.6349L1.1381 17.984Z" fill="black"/>
<path fill-rule="evenodd" clip-rule="evenodd" d="M3.14453 19.8249H3.94316L4.14562 19.9957L3.94316 20.1665H3.15578V19.8154L3.14453 19.8249Z" fill="#CA3745"/>
<path fill-rule="evenodd" clip-rule="evenodd" d="M3.14069 19.8406H3.10254L3.17169 19.7822V19.8096H3.94923L4.17007 19.9959L3.94923 20.1821H3.14069V19.8406ZM3.17169 19.8406H3.9379L4.122 19.9959L3.9379 20.1512H3.17169V19.8406Z" fill="black"/>
<path fill-rule="evenodd" clip-rule="evenodd" d="M-0.1619 22.6621L0.153051 23.0416L0.477 22.6621H-0.170898H-0.1619Z" fill="#CA3745"/>
<path fill-rule="evenodd" clip-rule="evenodd" d="M0.503047 22.6504L0.153104 23.0604L-0.167321 22.6742H-0.170717V22.6702L-0.170898 22.6699L-0.170717 22.6698V22.6504H0.503047ZM-0.136318 22.6742H0.451316L0.153361 23.0233L-0.136318 22.6742Z" fill="black"/>
<path fill-rule="evenodd" clip-rule="evenodd" d="M1.11251 22.6621L1.42746 23.0416L1.75141 22.6621H1.10352H1.11251Z" fill="#CA3745"/>
<path fill-rule="evenodd" clip-rule="evenodd" d="M1.77746 22.6504L1.42752 23.0604L1.10709 22.6742H1.1037V22.6702L1.10352 22.6699L1.1037 22.6698V22.6504H1.77746ZM1.1381 22.6742H1.72573L1.42777 23.0233L1.1381 22.6742Z" fill="black"/>
<path fill-rule="evenodd" clip-rule="evenodd" d="M2.54544 18.5576L2.95038 18.9371V21.7309L2.54544 22.1104H3.1416V18.5576H2.54544Z" fill="#CA3745"/>
<path fill-rule="evenodd" clip-rule="evenodd" d="M3.16309 18.5361H2.49006L2.92831 18.9469V21.7218L2.49006 22.1325H3.16309V18.5361ZM3.11953 18.5797V22.0889H2.60024L2.97187 21.7406V18.928L2.60024 18.5797H3.11953Z" fill="black"/>
<path fill-rule="evenodd" clip-rule="evenodd" d="M2.54883 22.1048L1.95833 22.6582H2.54883V22.1048Z" fill="#CA3745"/>
<path fill-rule="evenodd" clip-rule="evenodd" d="M2.57324 22.6826H1.89627L2.57324 22.0481V22.6826ZM2.52424 22.6336V22.1612L2.02021 22.6336H2.52424Z" fill="black"/>
<path fill-rule="evenodd" clip-rule="evenodd" d="M2.54883 18.5534L1.95833 18H2.54883V18.5534Z" fill="#CA3745"/>
<path fill-rule="evenodd" clip-rule="evenodd" d="M2.57324 17.9756H1.89627L2.57324 18.6101V17.9756ZM2.52424 18.0246V18.497L2.02021 18.0246H2.52424Z" fill="black"/>
<path fill-rule="evenodd" clip-rule="evenodd" d="M-1.63125 18.1888L-2.41863 18.9268V21.7311L-1.63125 22.4796H1.96819L2.75557 21.7416V18.9373L1.95694 18.1888H-1.63125ZM-1.63125 17.999L-2.62109 18.9268V21.7311L-1.63125 22.6693H1.96819L2.95803 21.7311V18.9268L1.95694 17.999H-1.63125Z" fill="#00843D"/>
<path fill-rule="evenodd" clip-rule="evenodd" d="M-1.63956 17.9775H1.96578L2.98011 18.9175V21.7407L1.97717 22.6914H-1.63964L-2.64258 21.7407V18.9176L-1.63956 17.9775ZM-1.62234 18.0211L-2.59902 18.9365V21.722L-1.62227 22.6479H1.9598L2.93655 21.722V18.9366L1.9487 18.0211H-1.62234ZM-1.63956 18.1673H1.96585L2.77764 18.9282V21.7513L1.9771 22.5017H-1.63965L-2.44011 21.7407V18.9176L-1.63956 18.1673ZM-1.62234 18.2109L-2.39655 18.9365V21.722L-1.62225 22.4581H1.95987L2.73408 21.7325V18.947L1.94863 18.2109H-1.62234Z" fill="black"/>
<path fill-rule="evenodd" clip-rule="evenodd" d="M3.14453 20.1599H3.94316L4.14562 20.3307L3.94316 20.5015H3.15578V20.1504L3.14453 20.1599Z" fill="#FAAE29"/>
<path fill-rule="evenodd" clip-rule="evenodd" d="M3.14069 20.1755H3.10254L3.17168 20.1172V20.1445H3.94923L4.17007 20.3308L3.94923 20.5171H3.14069V20.1755ZM3.17168 20.1755H3.9379L4.122 20.3308L3.9379 20.4861H3.17168V20.1755Z" fill="black"/>
<path fill-rule="evenodd" clip-rule="evenodd" d="M3.14453 20.4929H3.94316L4.14562 20.6637L3.94316 20.8345H3.15578V20.4834L3.14453 20.4929Z" fill="#CA3745"/>
<path fill-rule="evenodd" clip-rule="evenodd" d="M3.14069 20.5085H3.10254L3.17169 20.4502V20.4775H3.94923L4.17007 20.6638L3.94923 20.8501H3.14069V20.5085ZM3.17169 20.5085H3.9379L4.122 20.6638L3.9379 20.8191H3.17169V20.5085Z" fill="black"/>
<path fill-rule="evenodd" clip-rule="evenodd" d="M3.14453 20.8278H3.94316L4.14562 20.9987L3.94316 21.1695H3.15578V20.8184L3.14453 20.8278Z" fill="#FAAE29"/>
<path fill-rule="evenodd" clip-rule="evenodd" d="M3.14069 20.8435H3.10254L3.17168 20.7852V20.8125H3.94923L4.17007 20.9988L3.94923 21.1851H3.14069V20.8435ZM3.17168 20.8435H3.9379L4.122 20.9988L3.9379 21.1541H3.17168V20.8435Z" fill="black"/>
<path fill-rule="evenodd" clip-rule="evenodd" d="M3.14453 19.4831H3.94316L4.14562 19.6539L3.94316 19.8247H3.15578V19.4736L3.14453 19.4831Z" fill="#FAAE29"/>
<path fill-rule="evenodd" clip-rule="evenodd" d="M3.14069 19.4988H3.10254L3.17168 19.4404V19.4678H3.94923L4.17007 19.6541L3.94923 19.8404H3.14069V19.4988ZM3.17168 19.4988H3.9379L4.122 19.6541L3.9379 19.8094H3.17168V19.4988Z" fill="black"/>
<path fill-rule="evenodd" clip-rule="evenodd" d="M-4.03027 18.3789V22.2796H-3.02918V23.2179H3.34857V22.2796H4.33842V18.3789H3.34857V17.4512H-3.02918V18.3789H-4.03027ZM-3.8278 18.5581V22.1109H-2.83796V23.0387H3.14611V22.1109H4.1472V18.5581H3.14611V17.6409H-2.83796V18.5687H-3.8278V18.5581Z" fill="#970000"/>
<path fill-rule="evenodd" clip-rule="evenodd" d="M-3.04578 17.4346H3.36464V18.3623H4.35449V22.2957H3.36464V23.234H-3.04578V22.2957H-4.04688V18.3623H-3.04578V17.4346ZM-3.01311 17.4672V18.395H-4.01421V22.263H-3.01311V23.2013H3.33197V22.263H4.32182V18.395H3.33197V17.4672H-3.01311ZM-2.85456 17.6243H3.16217V18.5415H4.16327V22.127H3.16217V23.0548H-2.85456V22.127H-3.84441V18.5579H-3.82807V18.5521H-2.85456V17.6243ZM-3.81174 18.5847V22.0943H-2.82189V23.0221H3.1295V22.0943H4.1306V18.5742H3.1295V17.657H-2.82189V18.5847H-3.81174Z" fill="black"/>
<path fill-rule="evenodd" clip-rule="evenodd" d="M5.13731 3.78002L4.54115 3.06021V2.52289L3.945 1.98557H2.75269L1.75159 1.44824H-1.43166L-2.43275 1.98557H-3.62507L-4.22123 2.52289V3.06021L-4.81738 3.76989V5.21965L-4.22123 5.92932V6.47678L-3.62507 7.01411H-2.43275L-1.43166 7.55143H1.75159L2.75269 7.01411H3.945L4.5524 6.47678V5.93946L5.14856 5.21965V3.76989L5.13731 3.78002Z" fill="#CA3745"/>
<path fill-rule="evenodd" clip-rule="evenodd" d="M-1.4353 1.43164H1.75601L2.7571 1.96896H3.95154L4.55757 2.51518V3.05386L5.13939 3.75636L5.16497 3.7333V5.22484L4.56882 5.94465V6.48341L3.95146 7.02954H2.7571L1.75601 7.56686H-1.4353L-2.43639 7.02954H-3.63083L-4.23685 6.48332V5.93457L-4.83301 5.2249V3.76347L-4.23685 3.05379V2.51518L-3.63083 1.96896H-2.43639L-1.4353 1.43164ZM5.13294 3.79879L4.52553 3.0654V2.52943L3.93924 2.001H2.74905L1.74796 1.46368H-1.42724L-2.42833 2.001H-3.61852L-4.20481 2.52943V3.06547L-4.80097 3.77514V5.21323L-4.20481 5.9229V6.46907L-3.61852 6.9975H-2.42833L-1.42724 7.53483H1.74796L2.74905 6.9975H3.93932L4.53678 6.46898V5.9331L5.13294 5.21329V3.79879Z" fill="black"/>
<path fill-rule="evenodd" clip-rule="evenodd" d="M-4.62305 4.5V5.03613L-4.02539 5.75684V6.29297L-3.42773 6.83789H-2.23242L-1.23047 7.36523H0.158203V4.50879H-4.62305V4.5Z" fill="#FAAE29"/>
<path fill-rule="evenodd" clip-rule="evenodd" d="M4.93945 4.5V3.96387L4.3418 3.24316V2.70703L3.74414 2.16211H2.54883L1.55566 1.62598H0.158203V4.5H4.93945Z" fill="#FAAE29"/>
<path fill-rule="evenodd" clip-rule="evenodd" d="M0.158203 7.37402H-0.210938L-0.632812 7.01367H-1.31836L-1.6875 6.83789L-1.50293 6.66211L-1.13379 6.83789H-0.764648L-0.395508 6.29297L0.158203 6.46875V6.83789H-0.395508L0.158203 7.36523V7.37402Z" fill="#CA3745"/>
<path fill-rule="evenodd" clip-rule="evenodd" d="M-4.62305 4.5V3.96387L-4.02539 3.24316V2.70703L-3.42773 2.16211H-2.23242L-1.23047 1.62598H0.158203V4.5H-4.62305Z" fill="white"/>
<path fill-rule="evenodd" clip-rule="evenodd" d="M0.158203 1.62598H-0.210938L-0.632812 1.97754H-1.31836L-1.6875 2.16211L-1.50293 2.33789L-1.13379 2.16211H-0.764648L-0.395508 2.70703L0.158203 2.53125V2.16211H-0.395508L0.158203 1.62598Z" fill="#CA3745"/>
<path fill-rule="evenodd" clip-rule="evenodd" d="M0.158203 1.62598H0.527343L0.958007 1.97754H1.63477L2.00391 2.16211L1.82812 2.33789L1.4502 2.16211H1.08105L0.711914 2.70703L0.158203 2.53125V2.16211H0.711914L0.158203 1.62598Z" fill="#CA3745"/>
<path fill-rule="evenodd" clip-rule="evenodd" d="M4.93945 4.5V5.03613L4.3418 5.75684V6.29297L3.74414 6.83789H2.54883L1.55566 7.36523H0.158203V4.50879H4.93945V4.5Z" fill="white"/>
<path fill-rule="evenodd" clip-rule="evenodd" d="M0.158203 7.37402H0.527343L0.958007 7.01367H1.63477L2.00391 6.83789L1.82812 6.66211L1.45019 6.83789H1.08105L0.711915 6.29297L0.158203 6.46875V6.83789H0.711915L0.158203 7.36523V7.37402ZM-2.32031 3.59473L-3.0498 3.1377H-3.48047L-3.33984 2.98828L-3.62109 2.68066L-3.48047 2.52246L-3.04102 2.68066L-2.90039 2.52246L-2.83008 2.93555L-2.03027 3.41895L-2.32031 3.59473ZM1.8457 3.24316L2.56641 2.77734H3.00586L2.85645 2.62793L3.14648 2.32031L3.00586 2.16211L2.56641 2.32031L2.42578 2.16211L2.35547 2.5752L1.55566 3.06738L1.8457 3.24316Z" fill="#CA3745"/>
<path fill-rule="evenodd" clip-rule="evenodd" d="M-4.2627 4.5H-4.08691L-3.90234 4.67578L-3.71777 4.5H0.158204V7.01367H-0.0175776L0.158204 7.18945V7.38281L-0.395508 6.84668V6.6709H-0.210938V6.84668H-0.0263677V6.6709L-1.52051 5.87988H-2.78613V5.08887L-3.33984 4.69336H-3.70898L-3.89355 4.86914L-3.71777 5.04492H-3.89355L-4.2627 4.51758V4.5Z" fill="white"/>
<path fill-rule="evenodd" clip-rule="evenodd" d="M-4.2627 4.5H-4.08691L-3.90234 4.32422L-3.71777 4.5H0.158204V1.98633H-0.0175776L0.158204 1.81055V1.62598L-0.395508 2.16211V2.33789H-0.210938V2.16211H-0.0263677V2.33789L-1.52051 3.1377H-2.78613V3.91992L-3.33984 4.32422H-3.70898L-3.89355 4.14844L-3.71777 3.96387H-3.89355L-4.2627 4.5Z" fill="#FAAE29"/>
<path fill-rule="evenodd" clip-rule="evenodd" d="M-3.42773 4.5H0.158204V6.65332L-1.43262 5.75684H-2.62793V5.03613L-3.41895 4.5H-3.42773Z" fill="#00843D"/>
<path fill-rule="evenodd" clip-rule="evenodd" d="M2.63672 3.60352L3.36621 3.1377H3.80566L3.65625 2.98828L3.94629 2.68066L3.80566 2.52246L3.36621 2.68066L3.22559 2.52246L3.15527 2.93555L2.35547 3.41895L2.63672 3.59473V3.60352ZM3.04102 4.32422L3.77051 3.8584H4.20117L4.05176 3.7002L4.3418 3.39258L4.20117 3.24316L3.76172 3.40137L3.62109 3.24316L3.55078 3.65625L2.75098 4.13965L3.04102 4.31543V4.32422Z" fill="#CA3745"/>
<path fill-rule="evenodd" clip-rule="evenodd" d="M4.58789 4.5H4.40332L4.21875 4.32422L4.03418 4.5H0.158203V1.98633H0.342773L0.158203 1.81055V1.62598L0.711914 2.16211V2.33789H0.527343V2.16211H0.342773V2.33789L1.83691 3.1377H3.10254V3.91992L3.66504 4.32422H4.03418L4.20996 4.14844L4.03418 3.96387H4.20996L4.58789 4.5Z" fill="white"/>
<path fill-rule="evenodd" clip-rule="evenodd" d="M3.74414 4.5H0.158203V2.34668L1.75781 3.24316H2.95313V3.96387L3.75293 4.5H3.74414Z" fill="#00843D"/>
<path fill-rule="evenodd" clip-rule="evenodd" d="M1.8457 5.75684L2.56641 6.22266H3.00586L2.85645 6.37207L3.14648 6.67969L3.00586 6.83789L2.56641 6.67969L2.42578 6.83789L2.35547 6.4248L1.55566 5.93262L1.8457 5.75684Z" fill="#CA3745"/>
<path fill-rule="evenodd" clip-rule="evenodd" d="M2.63672 5.39648L3.36621 5.8623H3.80566L3.65625 6.01172L3.94629 6.31934L3.80566 6.47754L3.36621 6.31934L3.22559 6.47754L3.15527 6.06445L2.35547 5.58105L2.63672 5.40527V5.39648ZM3.04102 4.67578L3.77051 5.1416H4.20117L4.05176 5.29102L4.3418 5.59863L4.20117 5.75684L3.76172 5.59863L3.62109 5.75684L3.55078 5.34375L2.75098 4.86035L3.04102 4.68457V4.67578Z" fill="#CA3745"/>
<path fill-rule="evenodd" clip-rule="evenodd" d="M4.58789 4.5H4.40332L4.21875 4.67578L4.03418 4.5H0.158203V7.01367H0.342773L0.158203 7.18945V7.38281L0.711914 6.84668V6.6709H0.527343V6.84668H0.342773V6.6709L1.83691 5.87988H3.10254V5.08887L3.66504 4.69336H4.03418L4.20996 4.86914L4.03418 5.04492H4.20996L4.58789 4.51758V4.5Z" fill="#FAAE29"/>
<path fill-rule="evenodd" clip-rule="evenodd" d="M3.74414 4.5H0.158204V6.65332L1.75781 5.75684H2.95313V5.03613L3.75293 4.5H3.74414ZM-3.42773 4.5H0.158204V2.34668L-1.43262 3.24316H-2.62793V3.96387L-3.41895 4.5H-3.42773Z" fill="#CA3745"/>
<path fill-rule="evenodd" clip-rule="evenodd" d="M0.553711 4.5L1.55566 3.96387H2.15332L1.95117 3.78809L2.35547 3.41895L2.15332 3.24316L1.55566 3.41895L1.35351 3.24316L1.26562 3.72656L0.158203 4.28906L0.553711 4.5ZM-0.237304 4.5L-1.23047 5.03613H-1.82813L-1.63477 5.21191L-2.03027 5.58105L-1.82813 5.75684L-1.23047 5.58105L-1.03711 5.75684L-0.949219 5.27344L0.158203 4.71094L-0.237304 4.5Z" fill="#CA3745"/>
<path fill-rule="evenodd" clip-rule="evenodd" d="M-0.237304 4.5L-1.23047 3.96387H-1.82813L-1.62598 3.78809L-2.02148 3.41895L-1.81934 3.24316L-1.22168 3.41895L-1.02832 3.24316L-0.940429 3.72656L0.166992 4.28906L-0.228515 4.5H-0.237304ZM0.553711 4.5L1.55566 5.03613H2.15332L1.95117 5.21191L2.35547 5.58105L2.15332 5.75684L1.55566 5.58105L1.35351 5.75684L1.26562 5.27344L0.158204 4.71094L0.553711 4.5Z" fill="#00843D"/>
<path fill-rule="evenodd" clip-rule="evenodd" d="M-1.03711 4.5L0.158203 3.60352L1.35352 4.5L0.158203 5.39648L-1.03711 4.5Z" fill="white"/>
<path fill-rule="evenodd" clip-rule="evenodd" d="M-3.71777 4.13965L-3.5332 3.96387L-3.70898 3.78809H-3.90234L-4.45605 4.5H-4.27148L-3.90234 3.96387H-3.71777L-3.89356 4.13965L-3.71777 4.31543H-3.33984V4.13965H-3.70898H-3.71777ZM4.03418 4.86035L3.8584 5.03613L4.03418 5.21191H4.21875L4.77246 4.5H4.59668L4.21875 5.03613H4.04297L4.21875 4.86035L4.04297 4.68457H3.66504V4.86035H4.03418Z" fill="#CA3745"/>
<path fill-rule="evenodd" clip-rule="evenodd" d="M4.04297 4.13965L3.84961 3.96387L4.03418 3.78809H4.21875L4.77246 4.5H4.59668L4.21875 3.96387H4.04297L4.21875 4.13965L4.04297 4.31543H3.66504V4.13965H4.03418H4.04297ZM-0.0263672 3.78809H0.342773V5.2207H-0.0263672V3.78809Z" fill="#CA3745"/>
<path fill-rule="evenodd" clip-rule="evenodd" d="M-0.580078 4.13965H0.896484V4.86035H-0.580078V4.13965Z" fill="#CA3745"/>
<path fill-rule="evenodd" clip-rule="evenodd" d="M-1.52786 31.7979L-4.83984 33.6237V36.5991L-1.49661 38.4249H1.81537L5.12735 36.5991V33.6237L1.81537 31.8317H-1.49661L-1.52786 31.7979Z" fill="#00843D"/>
<path fill-rule="evenodd" clip-rule="evenodd" d="M-1.52491 31.7773L-1.48985 31.8153H1.81914L5.14325 33.6139V36.6086L1.8192 38.441H-1.50111L-4.85645 36.6086V33.6139L-1.52491 31.7773ZM-4.82394 33.6331V36.5893L-1.49281 38.4085H1.81084L5.11074 36.5894V33.6332L1.81091 31.8478H-1.50407L-1.53151 31.8181L-4.82394 33.6331Z" fill="black"/>
<path fill-rule="evenodd" clip-rule="evenodd" d="M-3.58594 34.8311H-3.39258V34.4531H-2.98828V34.8223H-2.78613V33.9609H-2.98828V34.3301H-3.38379V33.9609H-3.58594V34.8223V34.8311ZM1.50293 37.6963H1.70508V37.3271H2.10058V37.6963H2.30273V36.8262H2.10938V37.1953H1.70508V36.8262H1.51172V37.6875L1.50293 37.6963ZM-1.71387 33.3896H-1.51172V33.0293H-1.10742V33.3984H-0.914062V32.5371H-1.10742V32.9062H-1.51172V32.5371H-1.71387V33.3984V33.3896ZM1.23047 33.3896H1.43262V33.0293H1.83691V33.3984H2.03906V32.5371H1.83691V32.9062H1.43262V32.5371H1.23047V33.3984V33.3896ZM3.11133 34.8311H3.30469V34.4531H3.70898V34.8223H3.91113V33.9609H3.70898V34.3301H3.30469V33.9609H3.11133V34.8223V34.8311ZM3.11133 36.2637H3.30469V35.8945H3.70898V36.2637H3.91113V35.4023H3.70898V35.7715H3.30469V35.4023H3.11133V36.2637Z" fill="#CC0000"/>
<path fill-rule="evenodd" clip-rule="evenodd" d="M0.158204 38.2676V35.1123H4.9834V36.5449L1.75781 38.2676H0.149414H0.158204ZM0.158204 31.9658V35.1123H-4.6582V33.6797L-1.4502 31.9658H0.158204Z" fill="#FAAE29"/>
<path fill-rule="evenodd" clip-rule="evenodd" d="M0.158204 31.9658V35.1123H4.9834V33.6797L1.75781 31.9658H0.149414H0.158204ZM0.158204 38.2676V35.1123H-4.6582V36.5449L-1.4502 38.2676H0.158204Z" fill="white"/>
<path fill-rule="evenodd" clip-rule="evenodd" d="M2.73414 33.8305H4.6663L2.73414 32.9734V33.8305ZM4.9838 33.6849V35.1161H1.93587V33.976H1.29182L0.484484 33.5475V32.5448L0.974328 32.1082H0.330274V33.5475H0.166992V31.9707H1.77259L4.9838 33.6849Z" fill="#FAAE29"/>
<path fill-rule="evenodd" clip-rule="evenodd" d="M0.163086 31.9668H1.77404L4.98619 33.6815L4.98417 33.6853H4.98845V35.1208H1.93197V33.9807H1.29113L0.480578 33.5504V32.5433L0.963464 32.1128H0.334932V33.5521H0.163086V31.9668ZM4.97989 33.6879L1.7719 31.9754H0.17165V33.5436H0.326368V32.1043H0.985943L0.489142 32.5471V33.5453L1.29326 33.9721H1.94053V35.1122H4.97989V33.6879ZM2.73023 32.9672L4.66842 33.8269L4.66668 33.8351H2.73023V32.9672ZM2.7388 32.9803V33.8266H4.64647L2.7388 32.9803Z" fill="black"/>
<path fill-rule="evenodd" clip-rule="evenodd" d="M-1.4502 34.1104V36.123H-0.966797L0.158203 36.7031L1.2832 36.123H1.7666V34.1191H1.2832L0.158203 33.5479L-0.966797 34.1191H-1.4502V34.1104Z" fill="#CA3745"/>
<path fill-rule="evenodd" clip-rule="evenodd" d="M-2.40894 36.4029H-4.34111L-2.40894 37.26V36.4029ZM-4.6586 36.5485V35.1173H-1.61068V36.2574H-0.966624L-0.159289 36.6859V37.6886L-0.649132 38.1252H-0.00507861V36.6859H0.158203V38.2627H-1.4474L-4.6586 36.5485Z" fill="#FAAE29"/>
<path fill-rule="evenodd" clip-rule="evenodd" d="M0.162109 38.2666H-1.44885L-4.66099 36.5519L-4.65898 36.5481H-4.66326V35.1126H-1.60677V36.2527H-0.965934L-0.155382 36.683V37.6901L-0.638269 38.1206H-0.00973676V36.6813H0.162109V38.2666ZM-4.65469 36.5455L-1.4467 38.258H0.153545V36.6898H-0.00117236V38.1291H-0.660748L-0.163947 37.6863V36.6881L-0.968066 36.2613H-1.61534V35.1212H-4.65469V36.5455ZM-2.40504 37.2662L-4.34322 36.4065L-4.34149 36.3983H-2.40504V37.2662ZM-2.4136 37.2531V36.4068H-4.32127L-2.4136 37.2531Z" fill="black"/>
<path fill-rule="evenodd" clip-rule="evenodd" d="M-2.40894 33.8305H-4.34111L-2.40894 32.9734V33.8305ZM-4.6586 33.6849V35.1161H-1.61068V33.976H-0.966624L-0.159289 33.5475V32.5448L-0.649132 32.1082H-0.00507861V33.5475H0.158203V31.9707H-1.4474L-4.6586 33.6849Z" fill="white"/>
<path fill-rule="evenodd" clip-rule="evenodd" d="M0.162109 31.9668H-1.44885L-4.66099 33.6815L-4.65898 33.6853H-4.66326V35.1208H-1.60677V33.9807H-0.965934L-0.155382 33.5504V32.5433L-0.638269 32.1128H-0.00973676V33.5521H0.162109V31.9668ZM-4.65469 33.6879L-1.4467 31.9754H0.153545V33.5436H-0.00117236V32.1043H-0.660748L-0.163947 32.5471V33.5453L-0.968066 33.9721H-1.61534V35.1122H-4.65469V33.6879ZM-2.40504 32.9672L-4.34322 33.8269L-4.34149 33.8351H-2.40504V32.9672ZM-2.4136 32.9803V33.8266H-4.32127L-2.4136 32.9803Z" fill="black"/>
<path fill-rule="evenodd" clip-rule="evenodd" d="M2.73414 36.4029H4.6663L2.73414 37.26V36.4029ZM4.9838 36.5485V35.1173H1.93587V36.2574H1.29182L0.484484 36.6859V37.6886L0.974328 38.1252H0.330274V36.6859H0.166992V38.2627H1.77259L4.9838 36.5485Z" fill="white"/>
<path fill-rule="evenodd" clip-rule="evenodd" d="M0.163086 38.2666H1.77404L4.98619 36.5519L4.98417 36.5481H4.98845V35.1126H1.93197V36.2527H1.29113L0.480578 36.683V37.6901L0.963464 38.1206H0.334932V36.6813H0.163086V38.2666ZM4.97989 36.5455L1.7719 38.258H0.17165V36.6898H0.326368V38.1291H0.985943L0.489142 37.6863V36.6881L1.29326 36.2613H1.94053V35.1212H4.97989V36.5455ZM2.73023 37.2662L4.66842 36.4065L4.66668 36.3983H2.73023V37.2662ZM2.7388 37.2531V36.4068H4.64647L2.7388 37.2531Z" fill="black"/>
<path fill-rule="evenodd" clip-rule="evenodd" d="M-3.69141 36.2637H-3.49805V35.8242H-3.09375V36.2637H-2.8916V35.2617H-3.09375V35.6924H-3.49805V35.2529H-3.69141V36.2637ZM-1.7666 37.6963H-1.56445V37.2568H-1.16895V37.6963H-0.966797V36.6943H-1.16895V37.125H-1.56445V36.6855H-1.7666V37.7051V37.6963ZM-3.7002 33.9697H-3.49805V34.4004H-3.09375V33.9609H-2.8916V34.9805H-3.09375V34.541H-3.49805V34.9717H-3.69141V33.9697H-3.7002ZM-1.7666 32.5371H-1.56445V32.9678H-1.16895V32.5283H-0.966797V33.5391H-1.16895V33.1084H-1.56445V33.5479H-1.7666V32.5371ZM1.2832 37.6963H1.48535V37.2568H1.88965V37.6963H2.0918V36.6943H1.88965V37.125H1.48535V36.6855H1.2832V37.7051V37.6963ZM3.2168 34.9717H3.41894V34.541H3.81445V34.9805H4.0166V33.9697H3.81445V34.4004H3.42773V33.9609H3.22558V34.9805L3.2168 34.9717Z" fill="#CA3745"/>
<path fill-rule="evenodd" clip-rule="evenodd" d="M1.2832 37.6963H1.48535V37.2568H1.88965V37.6963H2.0918V36.6943H1.88965V37.125H1.48535V36.6855H1.2832V37.7051V37.6963Z" fill="#CA3745"/>
<path fill-rule="evenodd" clip-rule="evenodd" d="M1.2832 37.6963H1.48535V37.2568H1.88965V37.6963H2.0918V36.6943H1.88965V37.125H1.48535V36.6855H1.2832V37.7051V37.6963ZM3.2168 36.2637H3.41894V35.8242H3.81445V36.2637H4.0166V35.2617H3.81445V35.6836H3.42773V35.2529H3.22559V36.2637H3.2168ZM1.2832 33.5391H1.48535V33.1084H1.88965V33.5479H2.0918V32.5371H1.88965V32.9678H1.48535V32.5283H1.2832V33.5391Z" fill="#CA3745"/>
<path fill-rule="evenodd" clip-rule="evenodd" d="M0.325196 35.1123L0.966797 34.585H1.2832V34.8486H0.966797V34.9805H1.4502V34.4619H0.966797V34.0664H0.325196V34.4619H0.483399V34.1982H0.799806V34.4619L0.158204 34.9893L-0.483398 34.4619V34.1982H-0.158203V34.4619H4.76837e-07V34.0664H-0.641601V34.4619H-1.125V34.9893H-0.641601V34.8574H-0.966797V34.5938H-0.641601L4.76837e-07 35.1211L-0.641601 35.6396H-0.966797V35.376H-0.641601V35.2441H-1.125V35.7715H-0.641601V36.1582H4.76837e-07V35.7715H-0.158203V36.0352H-0.483398V35.7715L0.158204 35.2441L0.799806 35.7715V36.0352H0.483399V35.7715H0.325196V36.1582H0.966797V35.7715H1.4502V35.2441H0.966797V35.376H1.2832V35.6396H0.966797L0.325196 35.1123Z" fill="white"/>
<path fill-rule="evenodd" clip-rule="evenodd" d="M-4.34444 12.9123L-4.03602 12.5922H-2.16736L-0.770395 11.1855H1.09827L2.49523 12.6007H4.3639L4.67232 12.9123L4.3639 13.224H2.48616L1.0892 14.6391H-0.779466L-2.16736 13.224H-4.04509L-4.35352 12.9123H-4.34444Z" fill="#CA3745"/>
<path fill-rule="evenodd" clip-rule="evenodd" d="M-4.18555 12.9375L-4.01663 12.7844H-2.09103L-0.646823 11.2988H0.957849L2.4105 12.792H4.33611L4.49657 12.9452L4.33611 13.0907H2.4105L1.11832 14.4307H-0.80729L-2.09103 13.0907H-4.02508L-4.18555 12.9375Z" fill="#CA3745"/>
<path fill-rule="evenodd" clip-rule="evenodd" d="M-0.65238 11.2871H0.962482L2.41513 12.7803H4.34048L4.51382 12.9457L4.3403 13.1031H2.41516L1.12298 14.4431H-0.8129L-2.09664 13.1031H-4.03037L-4.19434 12.9466L-4.18601 12.9379L-4.19411 12.9289L-4.02175 12.7726H-2.09659L-0.65238 11.2871ZM-4.1683 12.9381L-4.02071 13.0789H-2.08634L-0.802602 14.419H1.11273L2.40491 13.0789H4.33099L4.4784 12.9453L4.33081 12.8044H2.40495L0.952294 11.3112H-0.642188L-2.08639 12.7968H-4.01244L-4.1683 12.9381Z" fill="black"/>
<path fill-rule="evenodd" clip-rule="evenodd" d="M0.944297 13.0722L1.56114 13.6955L1.25272 14.0072L1.08944 13.8555H0.944297V14.0072L1.09851 14.1672H1.416L1.72442 13.8555V13.5355L1.09851 12.9121L1.72442 12.2804V11.9687L1.416 11.6571H1.09851L0.944297 11.8087V11.9687H1.09851L1.26179 11.8087L1.57021 12.1288L0.944297 12.7521L0.327456 12.1288L0.944297 11.497V11.337H0.790088L0.173246 11.9687L-0.452666 11.337H-0.606876V11.497L0.00996447 12.1288L-0.606876 12.7521L-1.23279 12.1288L-0.915297 11.8087L-0.761087 11.9687H-0.606876V11.8087L-0.761087 11.6571H-1.07858L-1.387 11.9687V12.2804L-0.761087 12.9121L-1.387 13.5355V13.8555L-1.07858 14.1672H-0.761087L-0.606876 14.0072V13.8555H-0.779229L-0.933439 14.0072L-1.25093 13.6955L-0.625019 13.0722L-0.00817752 13.6955L-0.625019 14.3272V14.4789H-0.470808L0.155104 13.8555L0.771945 14.4789H0.926155V14.3272L0.309314 13.6955L0.926155 13.0722H0.944297ZM0.164175 12.2804L-0.461737 12.9121L0.164175 13.5355L0.781015 12.9121L0.164175 12.2804ZM-0.770158 14.6389V15.9024L-0.615947 15.7339L-0.461737 15.9024L-0.307527 15.7339L-0.153316 15.9024L0.00996447 15.7339L0.164175 15.9024L0.318385 15.7339L0.472596 15.9024L0.626806 15.7339L0.781015 15.9024L0.935226 15.7339L1.09851 15.9024V14.6389H-0.779229H-0.770158ZM1.09851 11.1854V9.92188L0.935226 10.0903L0.781015 9.92188L0.626806 10.0903L0.472596 9.92188L0.318385 10.0903L0.164175 9.92188L0.000893354 10.0903L-0.153316 9.92188L-0.307527 10.0903L-0.461737 9.92188L-0.615947 10.0903L-0.770158 9.92188V11.1854H1.09851ZM3.72915 12.6005V11.337L3.58401 11.5054L3.4298 11.337L3.27559 11.5054L3.11231 11.337L2.9581 11.5054L2.80389 11.337L2.64968 11.5054L2.49547 11.337V12.6005H3.73822H3.72915ZM-2.16712 12.6005V11.337L-2.3304 11.5054L-2.48461 11.337L-2.63882 11.5054L-2.79303 11.337L-2.94724 11.5054L-3.10145 11.337L-3.26474 11.5054L-3.41895 11.337V12.6005H-2.17619H-2.16712ZM3.73822 13.2238V14.4873L3.58401 14.3188L3.4298 14.4873L3.27559 14.3188L3.11231 14.4873L2.9581 14.3188L2.80389 14.4873L2.64968 14.3188L2.49547 14.4873V13.2238H3.73822ZM-2.17619 13.2238V14.4873L-2.3304 14.3188L-2.48461 14.4873L-2.63882 14.3188L-2.79303 14.4873L-2.94724 14.3188L-3.10145 14.4873L-3.26474 14.3188L-3.41895 14.4873V13.2238H-2.17619Z" fill="#FAAE29"/>
<path fill-rule="evenodd" clip-rule="evenodd" d="M1.08903 14.6383V15.4216L1.25231 15.2616L1.40652 15.4301L1.56073 15.2616L1.71494 15.4301L1.86915 15.2616L2.02336 15.4301L2.18664 15.2616L2.34085 15.4301L2.49506 15.2616V13.2232L1.08903 14.6383ZM-0.770568 14.6383V15.4216L-0.933849 15.2616L-1.08806 15.4301L-1.24227 15.2616L-1.39648 15.4301L-1.55069 15.2616L-1.7049 15.4301L-1.85911 15.2616L-2.01332 15.4301L-2.1766 15.2616V13.2232L-0.770568 14.6383ZM-0.770568 11.1847V10.4014L-0.933849 10.553L-1.08806 10.4014L-1.24227 10.553L-1.39648 10.4014L-1.55069 10.553L-1.7049 10.4014L-1.85911 10.553L-2.01332 10.4014L-2.1766 10.553V12.5998L-0.770568 11.1847ZM1.08903 11.1847V10.4014L1.25231 10.553L1.40652 10.4014L1.56073 10.553L1.71494 10.4014L1.86915 10.553L2.02336 10.4014L2.17757 10.553L2.34085 10.4014L2.49506 10.553V12.5998L1.08903 11.1847ZM-3.41936 14.1666L-3.57357 14.0065L-3.72778 14.175L-3.88199 14.0065L-4.0362 14.175L-4.19041 14.0065L-4.35369 14.175L-4.5079 14.0065L-4.66211 14.175V11.648L-4.5079 11.8165L-4.35369 11.648L-4.19041 11.8165L-4.0362 11.648L-3.88199 11.8165L-3.72778 11.648L-3.57357 11.8165L-3.41936 11.648V12.5998H-4.0362L-4.35369 12.9115L-4.0362 13.2232H-3.41936V14.1666ZM3.73781 14.1666L3.89202 14.0065L4.04623 14.175L4.20045 14.0065L4.36373 14.175L4.51794 14.0065L4.67215 14.175L4.82636 14.0065L4.98057 14.175V11.648L4.82636 11.8165L4.67215 11.648L4.51794 11.8165L4.36373 11.648L4.20045 11.8165L4.04623 11.648L3.89202 11.8165L3.73781 11.648V12.5998H4.36373L4.67215 12.9115L4.36373 13.2232H3.73781V14.1666Z" fill="#00843D"/>
<path fill-rule="evenodd" clip-rule="evenodd" d="M0.0822346 15.2195C0.0822346 15.2195 -0.0719754 15.388 -0.0719754 15.4722C-0.0719754 15.5564 0.091306 15.7417 0.163875 15.7417C0.254587 15.7417 0.390655 15.5649 0.390655 15.4806C0.390655 15.3964 0.236445 15.2195 0.236445 15.2195V14.8657C0.236445 14.8657 0.50858 15.4385 0.50858 15.1774C0.50858 15.0089 0.236445 14.6973 0.236445 14.6973H0.0822346C0.0822346 14.6973 -0.235257 15.0847 -0.189901 15.1774C-0.189901 15.4385 0.0822346 14.8657 0.0822346 14.8657V15.2195Z" fill="#CA3745"/>
<path d="M0.161742 13.0623C0.331431 13.0623 0.468991 12.9909 0.468991 12.9028C0.468991 12.8146 0.331431 12.7432 0.161742 12.7432C-0.00794756 12.7432 -0.145508 12.8146 -0.145508 12.9028C-0.145508 12.9909 -0.00794756 13.0623 0.161742 13.0623Z" fill="#00843D"/>
<path d="M1.86682 13.0623C2.03651 13.0623 2.17407 12.9909 2.17407 12.9028C2.17407 12.8146 2.03651 12.7432 1.86682 12.7432C1.69713 12.7432 1.55957 12.8146 1.55957 12.9028C1.55957 12.9909 1.69713 13.0623 1.86682 13.0623Z" fill="#00843D"/>
<path fill-rule="evenodd" clip-rule="evenodd" d="M0.0463838 10.6125C0.0463838 10.6125 -0.107826 10.444 -0.107826 10.3598C-0.107826 10.2755 0.0645263 10.0986 0.128025 10.0986C0.218737 10.0986 0.363875 10.2671 0.363875 10.3513C0.363875 10.4356 0.209665 10.6209 0.209665 10.6209V10.9578C0.209665 10.9578 0.481801 10.3934 0.481801 10.6546C0.481801 10.823 0.209665 11.1431 0.209665 11.1431H0.0373127C0.0373127 11.1431 -0.280179 10.7472 -0.234823 10.6546C-0.234823 10.4019 0.0373127 10.9662 0.0373127 10.9662V10.6125H0.0463838Z" fill="#CA3745"/>
<path fill-rule="evenodd" clip-rule="evenodd" d="M1.76936 14.7396C1.76936 14.7396 1.64236 14.8575 1.64236 14.9249C1.64236 14.9839 1.77843 15.1102 1.84193 15.1102C1.9145 15.1102 2.03242 14.9839 2.03242 14.9249C2.03242 14.8659 1.90543 14.7396 1.90543 14.7396V14.4869C1.90543 14.4869 2.17756 14.9165 2.17756 14.7312C2.17756 14.5964 1.90543 14.369 1.90543 14.369H1.76029C1.76029 14.369 1.48815 14.6385 1.48815 14.7312C1.48815 14.9165 1.76029 14.4869 1.76029 14.4869V14.7396H1.76936ZM1.74214 11.1007C1.74214 11.1007 1.61515 10.9744 1.61515 10.907C1.61515 10.8565 1.75122 10.7217 1.80564 10.7217C1.87821 10.7217 1.99614 10.848 1.99614 10.907C1.99614 10.9744 1.86914 11.1007 1.86914 11.1007V11.3534C1.86914 11.3534 2.15035 10.9154 2.15035 11.1007C2.15035 11.2355 1.87821 11.4713 1.87821 11.4713H1.74214C1.74214 11.4713 1.46094 11.2018 1.46094 11.1091C1.46094 10.9238 1.73307 11.345 1.73307 11.345V11.0923L1.74214 11.1007Z" fill="white"/>
<path fill-rule="evenodd" clip-rule="evenodd" d="M-2.89305 13.864C-2.89305 13.864 -3.0654 13.9819 -3.0654 14.0325C-3.0654 14.0914 -2.88398 14.2178 -2.80234 14.2094C-2.71162 14.2094 -2.54834 14.0998 -2.54834 14.0409C-2.54834 13.9819 -2.7207 13.864 -2.7207 13.864V13.6281C-2.7207 13.6281 -2.41228 14.0072 -2.41228 13.8387C-2.41228 13.7208 -2.7207 13.5102 -2.7207 13.5102H-2.89305C-2.89305 13.5102 -3.24682 13.7798 -3.1924 13.8387C-3.1924 14.0072 -2.89305 13.6281 -2.89305 13.6281V13.864ZM-2.92933 12.0867C-2.92933 12.0867 -3.10169 11.9688 -3.10169 11.9098C-3.10169 11.8508 -2.92026 11.7329 -2.83862 11.7413C-2.74791 11.7413 -2.58463 11.8508 -2.58463 11.9098C-2.58463 11.9688 -2.75698 12.0783 -2.75698 12.0783V12.3141C-2.75698 12.3141 -2.44856 11.9351 -2.44856 12.112C-2.44856 12.2215 -2.75698 12.432 -2.75698 12.432H-2.92933C-2.92933 12.432 -3.28311 12.1709 -3.22868 12.112C-3.22868 11.9435 -2.92933 12.3141 -2.92933 12.3141V12.0867ZM3.08487 13.8219C3.08487 13.8219 2.90344 13.9398 2.90344 13.9988C2.90344 14.0577 3.09394 14.1757 3.17558 14.1757C3.26629 14.1757 3.42957 14.0577 3.42957 14.0072C3.42957 13.9398 3.24815 13.8219 3.24815 13.8219V13.5945C3.24815 13.5945 3.55657 13.9735 3.55657 13.7966C3.55657 13.6871 3.25722 13.4765 3.25722 13.4765H3.0758C3.0758 13.4765 2.73109 13.7376 2.77645 13.7966C2.77645 13.9735 3.08487 13.5945 3.08487 13.5945V13.8303V13.8219ZM3.04858 12.053C3.04858 12.053 2.86716 11.9351 2.86716 11.8761C2.86716 11.8171 3.05765 11.6992 3.13929 11.6992C3.23001 11.6992 3.39329 11.8171 3.39329 11.8677C3.39329 11.9351 3.21186 12.0446 3.21186 12.0446V12.2804C3.21186 12.2804 3.52028 11.9014 3.52028 12.0698C3.52028 12.1878 3.22093 12.3983 3.22093 12.3983H3.03951C3.03951 12.3983 2.69481 12.1372 2.74016 12.0783C2.74016 11.9014 3.04858 12.2804 3.04858 12.2804V12.0446V12.053Z" fill="#CA3745"/>
<path fill-rule="evenodd" clip-rule="evenodd" d="M-4.16296 13.8473C-4.21739 13.7378 -4.19925 13.6872 -4.19925 13.6283C-4.19925 13.5693 -4.04504 13.4598 -3.99061 13.4598C-3.91804 13.4598 -3.80011 13.5777 -3.80011 13.6451C-3.80011 13.7041 -3.80011 13.7546 -3.82733 13.8641L-3.8999 13.6872C-3.99968 13.9399 -4.00875 13.9399 -4.06318 13.6788L-4.15389 13.8473H-4.16296ZM-4.16296 12.0363C-4.20832 12.1458 -4.19925 12.1963 -4.19925 12.2553C-4.19925 12.3143 -4.04504 12.4238 -3.98154 12.4238C-3.90897 12.4238 -3.79104 12.3058 -3.79104 12.2384C-3.79104 12.1795 -3.79104 12.1289 -3.81826 12.0194L-3.8999 12.1963C-3.99061 11.9436 -3.99968 11.9436 -4.06318 12.2048L-4.15389 12.0363H-4.16296ZM4.22789 13.822C4.17346 13.7125 4.18254 13.662 4.18254 13.603C4.18254 13.544 4.34582 13.4345 4.40024 13.4345C4.47281 13.4345 4.59074 13.5609 4.59074 13.6199C4.59074 13.6788 4.59074 13.7378 4.56352 13.8389L4.48188 13.662C4.39117 13.9147 4.3821 13.9231 4.3186 13.662L4.22789 13.822ZM4.22789 12.0194C4.17346 12.1205 4.19161 12.1711 4.19161 12.2384C4.19161 12.289 4.34582 12.4069 4.40024 12.4069C4.47281 12.4069 4.59981 12.2806 4.59981 12.2216C4.59981 12.1542 4.59981 12.1037 4.5726 11.9942L4.48188 12.1795C4.39117 11.9184 4.39117 11.9099 4.32767 12.1795L4.23696 12.011L4.22789 12.0194Z" fill="white"/>
<path fill-rule="evenodd" clip-rule="evenodd" d="M-0.797869 15.9352V15.4803H-2.24926V14.5875H-3.53737V14.2927H-4.6622V11.5972H-3.53737V11.3024H-2.24926V10.4096H-0.797869V9.96314H1.12522V10.4096H2.57661V11.3024H3.85565V11.6057H4.98955V14.2927H3.86473V14.5875H2.58569V15.4803H1.1343V15.9268H-0.788797L-0.797869 15.9352ZM-0.96115 16.0784V15.6319H-2.41254V14.7391H-3.69158V14.4358H-4.81641V11.454H-3.69158V11.1592H-2.41254V10.258H-0.96115V9.81152H1.28851V10.258H2.7399V11.1592H4.01893V11.454H5.14376V14.4358H4.01893V14.7391H2.73083V15.6319H1.27944V16.0784H-0.96115Z" fill="#CA3745"/>
<path fill-rule="evenodd" clip-rule="evenodd" d="M-0.965056 9.80762H1.29334V10.254H2.74473V11.1553H4.02377V11.4501H5.1486V14.4407H4.02377V14.7439H2.73566V15.6368H1.28427V16.0832H-0.960685V16.0788H-0.965056V15.6368H-2.41645V14.7439H-3.69548V14.4407H-4.82031V11.4501H-3.69548V11.1553H-2.41645V10.254H-0.965056V9.80762ZM-0.956314 16.0745H1.27553V15.628H2.72692V14.7352H4.01503V14.4319H5.13986V11.4589H4.01503V11.1641H2.73599V10.2628H1.2846V9.81636H-0.956314V10.2628H-2.40771V11.1641H-3.68674V11.4589H-4.81157V14.4319H-3.68674V14.7352H-2.40771V15.628H-0.956314V16.0745ZM-0.801775 9.95923H1.13006V10.4057H2.58145V11.2985H3.86049V11.6018H4.99439V14.2975H3.86956V14.5923H2.59052V15.4852H1.13913V15.9316H-0.786617L-0.801775 15.9457V15.4852H-2.25317V14.5923H-3.54127V14.2975H-4.6661V11.5933H-3.54127V11.2985H-2.25317V10.4057H-0.801775V9.95923ZM-0.793033 9.96798V10.4144H-2.24442V11.3073H-3.53253V11.6021H-4.65736V14.2887H-3.53253V14.5836H-2.24442V15.4764H-0.793033V15.9256L-0.790049 15.9228H1.13039V15.4764H2.58178V14.5836H3.86082V14.2887H4.98565V11.6105H3.85175V11.3073H2.57271V10.4144H1.12132V9.96798H-0.793033Z" fill="black"/>
</g>
<defs>
<clipPath id="clip0_200_67379">
<rect width="60" height="45" fill="white" transform="translate(-7.5)"/>
</clipPath>
</defs>
</svg>
