<svg width="45" height="45" viewBox="0 0 45 45" fill="none" xmlns="http://www.w3.org/2000/svg">
<g clip-path="url(#clip0_200_67373)">
<path fill-rule="evenodd" clip-rule="evenodd" d="M-11.25 0H56.25V45H-11.25V0Z" fill="#E70013"/>
<path fill-rule="evenodd" clip-rule="evenodd" d="M33.9082 22.4824C33.9082 25.4917 32.7128 28.3778 30.5848 30.5057C28.4569 32.6337 25.5709 33.8291 22.5615 33.8291C19.5522 33.8291 16.6661 32.6337 14.5382 30.5057C12.4103 28.3778 11.2148 25.4917 11.2148 22.4824C11.2148 19.4731 12.4103 16.587 14.5382 14.4591C16.6661 12.3312 19.5522 11.1357 22.5615 11.1357C25.5709 11.1357 28.4569 12.3312 30.5848 14.4591C32.7128 16.587 33.9082 19.4731 33.9082 22.4824Z" fill="white"/>
<path fill-rule="evenodd" clip-rule="evenodd" d="M22.5611 30.0059C20.6091 29.9391 18.7594 29.1168 17.4021 27.7124C16.0448 26.3079 15.2861 24.4312 15.2861 22.478C15.2861 20.5249 16.0448 18.6481 17.4021 17.2437C18.7594 15.8392 20.6091 15.0169 22.5611 14.9502C23.5982 14.9502 24.7847 15.1963 25.5845 15.7852C20.0826 15.9873 18.6851 20.6631 18.6851 22.5439C18.6851 24.4248 19.5728 28.6172 25.5845 29.2412C24.899 29.6807 23.5982 30.0059 22.5611 30.0059Z" fill="#E70013"/>
<path fill-rule="evenodd" clip-rule="evenodd" d="M29.1885 25.6465L25.7695 24.3984L23.5107 27.2461L23.6426 23.6162L20.2324 22.3418L23.7305 21.3398L23.8799 17.71L25.9189 20.7246L29.417 19.7578L27.1758 22.6143L29.1885 25.6465Z" fill="#E70013"/>
</g>
<defs>
<clipPath id="clip0_200_67373">
<rect width="60" height="45" fill="white" transform="translate(-7.5)"/>
</clipPath>
</defs>
</svg>
