<svg width="45" height="45" viewBox="0 0 45 45" fill="none" xmlns="http://www.w3.org/2000/svg">
<g clip-path="url(#clip0_200_68666)">
<path d="M-7.5 0H52.5V45H-7.5V0Z" fill="#009FCA"/>
<path fill-rule="evenodd" clip-rule="evenodd" d="M48.1217 11.5031H50.7186L48.6279 12.9281L49.4248 15.2438L47.3342 13.8094L45.2529 15.2438L46.0498 12.9281L43.9592 11.5031H46.5373L47.3342 9.1875L48.1217 11.5031ZM41.6342 29.9531H44.2217L42.1311 31.3781L42.9279 33.6937L40.8373 32.2594L38.7467 33.6937L39.5529 31.3781L37.4623 29.9531H40.0311L40.8279 27.6375L41.6342 29.9531ZM48.1217 25.7719H50.7186L48.6279 27.1969L49.4248 29.5125L47.3342 28.0781L45.2529 29.5125L46.0498 27.1969L43.9592 25.7719H46.5373L47.3342 23.4562L48.1217 25.7719ZM20.2311 39.1594H22.8186L20.7186 40.575L21.5248 42.8812L19.4342 41.4563L17.3436 42.8812L18.1498 40.575L16.0498 39.1406H18.6373L19.4342 36.8344L20.2311 39.1594ZM26.0998 31.9875H23.5123L25.6029 30.5531L24.8061 28.2469L26.8967 29.6719L28.9873 28.2469L28.1811 30.5531L30.2717 31.9875H27.6936L26.8967 34.2937L26.0998 31.9875ZM33.7217 21.4406H31.1248L33.2154 20.0156L32.4186 17.7L34.5092 19.1344L36.5998 17.7L35.7936 20.0156L37.8842 21.4406H35.3061L34.5092 23.7562L33.7217 21.4406ZM40.1248 19.2562H37.5373L39.6373 17.8219L38.8311 15.5156L40.9217 16.9406L43.0123 15.5156L42.2061 17.8219L44.306 19.2562H41.7186L40.9217 21.5625L40.1248 19.2562ZM33.7217 37.5H31.1248L33.2154 36.075L32.4373 33.75L34.5279 35.175L36.6186 33.75L35.8123 36.0656L37.9029 37.4906H35.3248L34.5279 39.8063L33.7217 37.5ZM26.0998 39.3656H23.5123L25.6029 37.9406L24.8061 35.625L26.8967 37.05L28.9873 35.625L28.1811 37.9313L30.2811 39.375H27.7029L26.9061 41.6906L26.0998 39.3656Z" fill="#FFF40D"/>
<path d="M-7.5 0H22.5V22.5H-7.5V0Z" fill="#012169"/>
<path d="M-3.98438 0L7.45312 8.48438L18.8438 0H22.5V2.90625L11.25 11.2969L22.5 19.6406V22.5H18.75L7.5 14.1094L-3.70312 22.5H-7.5V19.6875L3.70312 11.3438L-7.5 3V0H-3.98438Z" fill="white"/>
<path d="M12.375 13.1719L22.5 20.625V22.5L9.79688 13.1719H12.375ZM3.75 14.1094L4.03125 15.75L-4.96875 22.5H-7.5L3.75 14.1094ZM22.5 0V0.140625L10.8281 8.95312L10.9219 6.89062L20.1562 0H22.5ZM-7.5 0L3.70312 8.25H0.890625L-7.5 1.96875V0Z" fill="#C8102E"/>
<path d="M3.79688 0V22.5H11.2969V0H3.79688ZM-7.5 7.5V15H22.5V7.5H-7.5Z" fill="white"/>
<path d="M-7.5 9.04688V13.5469H22.5V9.04688H-7.5ZM5.29688 0V22.5H9.79688V0H5.29688Z" fill="#C8102E"/>
</g>
<defs>
<clipPath id="clip0_200_68666">
<rect width="60" height="45" fill="white" transform="translate(-7.5)"/>
</clipPath>
</defs>
</svg>
