<svg width="45" height="45" viewBox="0 0 45 45" fill="none" xmlns="http://www.w3.org/2000/svg">
<g clip-path="url(#clip0_200_67306)">
<path d="M-7.5 0H60V45H-7.5V0Z" fill="#FF0000"/>
<path d="M-7.5 0H26.25V22.5H-7.5V0Z" fill="#000095"/>
<path d="M6.9375 11.8969L6.70312 12.7969L7.58437 13.0406L7.41563 12.375L6.9375 11.8969ZM11.3344 12.375L11.1656 13.0406L12.0469 12.7969L11.8125 11.8969L11.3344 12.375ZM7.41563 10.125L6.9375 10.6031L7.11562 11.25L7.41563 10.125Z" fill="white"/>
<path d="M7.11562 11.25L6.9375 11.8969L7.41563 12.375L7.11562 11.25Z" fill="white"/>
<path d="M6.93789 10.6035L6.29102 11.2504L6.93789 11.8973L7.11601 11.2504L6.93789 10.6035ZM8.25039 13.2098L8.72852 13.6879L9.37539 13.5098L8.25039 13.2098ZM10.0223 13.6879L10.9223 13.9223L11.166 13.041L10.5004 13.2098L10.0223 13.6879Z" fill="white"/>
<path d="M10.4996 13.2094L11.1652 13.0406L11.334 12.375L10.4996 13.2094ZM7.58398 13.0406L7.82773 13.9219L8.72774 13.6875L8.24961 13.2094L7.58398 13.0406ZM9.37461 13.5094L10.0215 13.6875L10.4996 13.2094L9.37461 13.5094Z" fill="white"/>
<path d="M8.72813 13.6871L9.375 14.334L10.0219 13.6871L9.375 13.509L8.72813 13.6871ZM7.58437 9.45898L6.70312 9.70273L6.9375 10.6027L7.41563 10.1246L7.58437 9.45898ZM7.41563 12.3746L7.58437 13.0402L8.25 13.209L7.41563 12.3746ZM11.6344 11.2496L11.8125 10.6027L11.3344 10.1246L11.6344 11.2496Z" fill="white"/>
<path d="M8.25039 9.29102L7.58476 9.45977L7.41602 10.1254L8.25039 9.29102ZM11.3348 10.1254L11.166 9.45977L10.5004 9.29102L11.3348 10.1254ZM11.8129 11.8973L12.4598 11.2504L11.8129 10.6035L11.6348 11.2504L11.8129 11.8973Z" fill="white"/>
<path d="M11.334 10.1246L10.4996 9.29023L9.37461 8.99023L8.24961 9.29023L7.41524 10.1246L7.11523 11.2496L7.41524 12.3746L8.24961 13.209L9.37461 13.509L10.4996 13.209L11.334 12.3746L11.634 11.2496L11.334 10.1246Z" fill="white"/>
<path d="M11.334 12.375L11.8121 11.8969L11.634 11.25L11.334 12.375ZM11.8121 10.6031L12.0465 9.70312L11.1652 9.45938L11.334 10.125L11.8121 10.6031ZM11.1652 9.45938L10.9215 8.57812L10.0215 8.8125L10.4996 9.29062L11.1652 9.45938ZM8.72774 8.8125L7.82773 8.57812L7.58398 9.45938L8.24961 9.29062L8.72774 8.8125ZM9.37461 8.99063L8.72774 8.8125L8.24961 9.29062L9.37461 8.99063Z" fill="white"/>
<path d="M10.0223 8.81289L9.37539 8.16602L8.72852 8.81289L9.37539 8.99102L10.0223 8.81289Z" fill="white"/>
<path d="M10.5004 9.29062L10.0223 8.8125L9.37539 8.99063L10.5004 9.29062ZM8.72852 13.6875L7.82852 13.9219L8.25039 15.4781L9.37539 14.3344L8.72852 13.6875ZM8.25039 15.4781L9.37539 19.6875L10.5004 15.4781L9.37539 14.3344L8.25039 15.4781ZM7.58476 13.0406L6.70352 12.7969L6.29102 14.3344L7.82852 13.9219L7.58476 13.0406Z" fill="white"/>
<path d="M6.29063 14.3344L5.16563 18.5625L8.25 15.4781L7.82812 13.9219L6.29063 14.3344ZM5.16563 12.375L2.0625 15.4781L6.29063 14.3344L6.70312 12.7969L5.16563 12.375Z" fill="white"/>
<path d="M6.93789 11.8969L6.29102 11.25L5.16602 12.375L6.70352 12.7969L6.93789 11.8969ZM6.93789 10.6031L6.70352 9.70312L5.16602 10.125L6.29102 11.25L6.93789 10.6031Z" fill="white"/>
<path d="M5.16563 10.125L0.9375 11.25L5.16563 12.375L6.29063 11.25L5.16563 10.125ZM13.6031 12.375L12.0469 12.7969L12.4594 14.3344L16.6875 15.4781L13.6031 12.375Z" fill="white"/>
<path d="M11.1656 13.0406L10.9219 13.9219L12.4594 14.3344L12.0469 12.7969L11.1656 13.0406ZM10.0219 13.6875L9.375 14.3344L10.5 15.4781L10.9219 13.9219L10.0219 13.6875ZM11.8125 11.8969L12.0469 12.7969L13.6031 12.375L12.4594 11.25L11.8125 11.8969Z" fill="white"/>
<path d="M10.5 15.4785L13.6031 18.5629L12.4594 14.3348L10.9219 13.9223L10.5 15.4785ZM11.1656 9.45977L12.0469 9.70352L12.4594 8.16602L10.9219 8.57852L11.1656 9.45977Z" fill="white"/>
<path d="M13.6031 10.125L16.6875 7.04062L12.4594 8.16562L12.0469 9.70312L13.6031 10.125ZM12.4594 8.16562L13.6031 3.9375L10.5 7.04062L10.9219 8.57812L12.4594 8.16562ZM13.6031 12.375L17.8125 11.25L13.6031 10.125L12.4594 11.25L13.6031 12.375Z" fill="white"/>
<path d="M11.8129 10.6031L12.4598 11.25L13.6035 10.125L12.0473 9.70312L11.8129 10.6031ZM8.25039 7.04062L5.16602 3.9375L6.29102 8.16562L7.82852 8.57812L8.25039 7.04062Z" fill="white"/>
<path d="M7.58476 9.45977L7.82852 8.57852L6.29102 8.16602L6.70352 9.70352L7.58476 9.45977Z" fill="white"/>
<path d="M6.29063 8.16602L2.0625 7.04102L5.16563 10.1254L6.70312 9.70352L6.29063 8.16602ZM10.0219 8.81289L10.9219 8.57852L10.5 7.04102L9.375 8.16602L10.0219 8.81289Z" fill="white"/>
<path d="M10.5 7.04062L9.375 2.8125L8.25 7.04062L9.375 8.16562L10.5 7.04062Z" fill="white"/>
<path d="M8.72813 8.81289L9.375 8.16602L8.25 7.04102L7.82812 8.57852L8.72813 8.81289Z" fill="white"/>
<path d="M9.37461 16.0402C12.0204 16.0402 14.1652 13.8954 14.1652 11.2496C14.1652 8.60382 12.0204 6.45898 9.37461 6.45898C6.72882 6.45898 4.58398 8.60382 4.58398 11.2496C4.58398 13.8954 6.72882 16.0402 9.37461 16.0402Z" fill="#000095"/>
<path d="M9.37461 15.4777C11.7097 15.4777 13.6027 13.5847 13.6027 11.2496C13.6027 8.91448 11.7097 7.02148 9.37461 7.02148C7.03948 7.02148 5.14648 8.91448 5.14648 11.2496C5.14648 13.5847 7.03948 15.4777 9.37461 15.4777Z" fill="white"/>
</g>
<defs>
<clipPath id="clip0_200_67306">
<rect width="60" height="45" fill="white" transform="translate(-7.5)"/>
</clipPath>
</defs>
</svg>
