<svg width="45" height="45" viewBox="0 0 45 45" fill="none" xmlns="http://www.w3.org/2000/svg">
<g clip-path="url(#clip0_200_70127)">
<path fill-rule="evenodd" clip-rule="evenodd" d="M-11.25 30.0059H56.25V37.5029H-11.25V30.0059Z" fill="#FFE700"/>
<path fill-rule="evenodd" clip-rule="evenodd" d="M-11.25 22.5H56.25V29.9971H-11.25V22.5Z" fill="black"/>
<path fill-rule="evenodd" clip-rule="evenodd" d="M-11.25 15.0029H56.25V22.5H-11.25V15.0029Z" fill="#DE3908"/>
<path fill-rule="evenodd" clip-rule="evenodd" d="M-11.25 7.50586H56.25V15.0029H-11.25V7.50586Z" fill="#FFE700"/>
<path fill-rule="evenodd" clip-rule="evenodd" d="M-11.25 0H56.25V7.49707H-11.25V0Z" fill="black"/>
<path fill-rule="evenodd" clip-rule="evenodd" d="M29.5049 22.5C29.5049 24.3578 28.7669 26.1395 27.4532 27.4532C26.1395 28.7669 24.3578 29.5049 22.5 29.5049C20.6422 29.5049 18.8605 28.7669 17.5468 27.4532C16.2331 26.1395 15.4951 24.3578 15.4951 22.5C15.4951 20.6422 16.2331 18.8605 17.5468 17.5468C18.8605 16.2331 20.6422 15.4951 22.5 15.4951C24.3578 15.4951 26.1395 16.2331 27.4532 17.5468C28.7669 18.8605 29.5049 20.6422 29.5049 22.5Z" fill="#FFFDFF"/>
<path fill-rule="evenodd" clip-rule="evenodd" d="M22.5 15.5391C20.6538 15.5391 18.8833 16.2724 17.5779 17.5779C16.2724 18.8833 15.5391 20.6538 15.5391 22.5C15.5391 24.3462 16.2724 26.1167 17.5779 27.4221C18.8833 28.7276 20.6538 29.4609 22.5 29.4609C24.3462 29.4609 26.1167 28.7276 27.4221 27.4221C28.7276 26.1167 29.4609 24.3462 29.4609 22.5C29.4609 20.6538 28.7276 18.8833 27.4221 17.5779C26.1167 16.2724 24.3462 15.5391 22.5 15.5391ZM17.5157 17.5157C18.8376 16.1938 20.6305 15.4512 22.5 15.4512C24.3695 15.4512 26.1624 16.1938 27.4843 17.5157C28.8062 18.8376 29.5488 20.6305 29.5488 22.5C29.5488 24.3695 28.8062 26.1624 27.4843 27.4843C26.1624 28.8062 24.3695 29.5488 22.5 29.5488C20.6305 29.5488 18.8376 28.8062 17.5157 27.4843C16.1938 26.1624 15.4512 24.3695 15.4512 22.5C15.4512 20.6305 16.1938 18.8376 17.5157 17.5157Z" fill="black"/>
<path fill-rule="evenodd" clip-rule="evenodd" d="M21.2695 17.1299L20.8125 16.2949C20.9883 16.1191 21.2783 15.9785 21.7529 15.9785L21.7002 16.9014L21.2607 17.1299H21.2695Z" fill="#DE3108"/>
<path fill-rule="evenodd" clip-rule="evenodd" d="M20.8669 16.3033L21.2851 17.0675L21.6574 16.8739L21.706 16.0229C21.2893 16.0314 21.0292 16.1532 20.8669 16.3033ZM21.3274 17.1446L21.7423 16.9288L21.7991 15.9346H21.7526C21.2688 15.9346 20.9667 16.0782 20.7811 16.2638L20.7578 16.2871L21.2307 17.151L21.252 17.1393L21.2604 17.1738H21.3434L21.3274 17.1446Z" fill="black"/>
<path fill-rule="evenodd" clip-rule="evenodd" d="M21.709 16.9015L21.7705 15.9787C21.7705 15.9787 22.7109 15.9259 23.2207 16.5412L22.7197 17.2619L21.7002 16.9103L21.709 16.9015Z" fill="#FFE700"/>
<path fill-rule="evenodd" clip-rule="evenodd" d="M21.8114 16.0216L21.754 16.8825L22.7023 17.2095L23.165 16.5439C22.9203 16.2644 22.5805 16.1331 22.295 16.0722C22.1484 16.0409 22.0174 16.0285 21.923 16.0239C21.8759 16.0216 21.838 16.0213 21.812 16.0215C21.8118 16.0215 21.8116 16.0216 21.8114 16.0216ZM21.666 16.8821L21.729 15.937L21.7678 15.9348L21.7702 15.9787C21.7678 15.9348 21.7678 15.9348 21.7678 15.9348L21.7679 15.9348L21.7681 15.9348L21.7687 15.9347L21.771 15.9346C21.7729 15.9345 21.7758 15.9344 21.7794 15.9343C21.7868 15.9341 21.7975 15.9338 21.8112 15.9337C21.8387 15.9334 21.8783 15.9338 21.9273 15.9361C22.0252 15.9409 22.1611 15.9538 22.3133 15.9862C22.617 16.051 22.9905 16.1948 23.2543 16.5131L23.2756 16.5388L22.7366 17.3143L21.6191 16.9289L21.666 16.8821Z" fill="black"/>
<path fill-rule="evenodd" clip-rule="evenodd" d="M22.7285 17.2529L23.1943 16.5322C23.502 16.8574 23.6338 17.0859 23.6777 17.4375C23.6865 17.4463 22.9482 17.6221 22.9482 17.6133L22.7285 17.2529Z" fill="#DE3108"/>
<path fill-rule="evenodd" clip-rule="evenodd" d="M23.1882 16.4609L23.2267 16.5016C23.5375 16.8302 23.6757 17.0667 23.7215 17.4294C23.7225 17.4352 23.7224 17.4415 23.7209 17.4478C23.718 17.4596 23.7111 17.4667 23.7088 17.469C23.7037 17.4739 23.6985 17.4766 23.6971 17.4773L23.697 17.4774C23.6931 17.4794 23.689 17.481 23.6863 17.4819C23.68 17.4842 23.6714 17.4868 23.6616 17.4897C23.6416 17.4955 23.613 17.5032 23.5789 17.512C23.5105 17.5297 23.4188 17.5523 23.3269 17.5743C23.2351 17.5963 23.1428 17.6178 23.0734 17.6332C23.0388 17.6409 23.0096 17.6472 22.9889 17.6513C22.9786 17.6533 22.9699 17.6549 22.9634 17.6559C22.9604 17.6563 22.9567 17.6568 22.9531 17.657C22.9518 17.6571 22.9479 17.6573 22.9432 17.6567C22.9414 17.6564 22.9353 17.6555 22.9286 17.652C22.9241 17.6497 22.9152 17.6438 22.9096 17.6332L22.6914 17.2754L22.7289 17.2525L22.692 17.2286L23.1882 16.4609ZM22.7808 17.2532L22.9711 17.5652C22.9713 17.5652 22.9716 17.5651 22.9718 17.5651C22.9915 17.5612 23.0199 17.5551 23.0543 17.5474C23.1231 17.5321 23.2149 17.5107 23.3065 17.4888C23.3981 17.4669 23.4892 17.4444 23.5569 17.4269C23.5866 17.4192 23.6115 17.4126 23.6298 17.4074C23.5852 17.1021 23.4672 16.8914 23.2011 16.6029L22.7808 17.2532ZM22.9873 17.5919L22.9855 17.5889C22.9862 17.5898 22.9868 17.5908 22.9873 17.5919Z" fill="black"/>
<path fill-rule="evenodd" clip-rule="evenodd" d="M21.4979 29.1007C21.4979 29.1007 22.3681 28.1076 24.0556 28.3185C23.8007 27.9054 22.9745 27.9581 22.9745 27.9581C22.9745 27.9581 22.7284 26.0246 22.9218 25.9191C23.1151 25.8136 23.9765 25.9279 23.9765 25.9279C24.0819 25.9279 24.2753 25.629 24.1171 25.4357C23.9677 25.2423 23.5194 24.5128 23.704 24.3634C23.8886 24.2228 24.8817 24.4513 24.8817 24.4513L22.0692 20.8478C22.0692 20.8478 21.7792 19.4855 22.3593 18.8263C23.0536 18.255 22.9745 17.631 22.9569 17.6398C22.8603 17.007 21.9022 16.5587 21.2519 17.1388C20.8739 17.5958 21.1288 17.9474 21.1288 17.9474C21.1288 17.9474 20.1181 18.2199 20.0829 18.3956C20.039 18.5714 21.2167 18.3693 21.2167 18.3693L21.1024 19.1691C21.1024 19.1691 18.8173 21.2433 20.5751 23.0363L20.6278 22.966C20.6278 22.966 21.2431 23.7218 21.8847 23.8888C22.4999 24.504 22.4384 24.4162 22.4384 24.4162C22.4384 24.4162 22.5526 25.3917 22.4384 25.5851C22.289 25.5412 20.7421 25.4796 20.5136 25.5675C20.3026 25.6378 19.5116 25.5939 19.705 26.8947L19.995 26.2355C19.995 26.2355 19.9687 26.7013 20.162 26.8683C20.1269 26.3761 20.3466 26.0421 20.3466 26.0421C20.3466 26.0421 20.3817 26.5871 20.5048 26.6574C20.6278 26.7453 20.6278 25.7785 21.2958 25.8663C21.9462 25.9454 22.4296 25.9191 22.4296 25.9191C22.4296 25.9191 22.6493 27.7999 22.579 27.9757C22.1044 27.8615 20.9618 28.0197 20.8915 28.3097C21.5595 28.2658 21.8671 28.3449 21.8671 28.3449C21.8671 28.3449 21.331 28.8283 21.4979 29.1007Z" fill="black"/>
<path fill-rule="evenodd" clip-rule="evenodd" d="M22.9948 17.623C22.9397 17.2933 22.6652 17.0177 22.3258 16.8967C21.9812 16.7739 21.5634 16.8078 21.226 17.1088C21.2245 17.1101 21.2231 17.1116 21.2218 17.1131C21.0261 17.3497 20.992 17.5626 21.0098 17.7185C21.0185 17.7957 21.0399 17.8579 21.0593 17.901C21.0627 17.9088 21.0662 17.9159 21.0694 17.9225C21.042 17.9302 21.0043 17.941 20.9595 17.9543C20.8639 17.9827 20.7358 18.0224 20.6064 18.0678C20.4773 18.113 20.3458 18.1642 20.2438 18.2156C20.1929 18.2413 20.148 18.2677 20.114 18.2943C20.0822 18.3192 20.0524 18.35 20.0448 18.3865C20.0396 18.4083 20.0438 18.4299 20.0574 18.4477C20.0697 18.464 20.0875 18.4742 20.1047 18.4812C20.139 18.495 20.1868 18.5017 20.2398 18.5047C20.3472 18.5106 20.4929 18.5015 20.6377 18.4872C20.783 18.4729 20.9295 18.453 21.0396 18.4367C21.0932 18.4288 21.1383 18.4217 21.1704 18.4166L21.0657 19.1491C21.0617 19.1529 21.0565 19.1578 21.0503 19.1638C21.0337 19.1796 21.0097 19.2031 20.9799 19.2335C20.9202 19.2943 20.8371 19.3831 20.743 19.4953C20.5549 19.7193 20.322 20.0375 20.1443 20.4129C19.9666 20.7882 19.8433 21.2225 19.8769 21.678C19.9106 22.1344 20.1017 22.6089 20.5473 23.0635C20.5554 23.0717 20.5666 23.076 20.5782 23.0752C20.5897 23.0745 20.6003 23.0687 20.6072 23.0595L20.6302 23.0289C20.6483 23.0498 20.6737 23.0786 20.7054 23.113C20.7737 23.1871 20.8715 23.2878 20.9897 23.3937C21.2224 23.6024 21.5382 23.8356 21.8647 23.9238C22.167 24.226 22.3044 24.3569 22.3663 24.4122C22.382 24.4262 22.3933 24.4357 22.4014 24.4421C22.4016 24.4423 22.4019 24.4425 22.4021 24.4426C22.4027 24.4482 22.4034 24.4547 22.4042 24.4622C22.4071 24.4891 22.4111 24.5278 22.4155 24.5748C22.4244 24.669 22.4351 24.7964 22.4422 24.9297C22.4493 25.0632 22.4528 25.2018 22.4475 25.3186C22.4449 25.377 22.4401 25.4292 22.4327 25.4721C22.4279 25.4998 22.4222 25.5222 22.4161 25.5394C22.3925 25.5355 22.3619 25.5318 22.3265 25.5283C22.2688 25.5225 22.1947 25.5168 22.1096 25.5115C21.9395 25.5009 21.7244 25.4918 21.507 25.4868C21.2896 25.4819 21.0694 25.481 20.8889 25.487C20.7987 25.4899 20.7179 25.4946 20.6522 25.5014C20.5883 25.508 20.5348 25.5169 20.5008 25.5297C20.4774 25.5374 20.4451 25.5439 20.4032 25.5521L20.3992 25.5528C20.3588 25.5607 20.3117 25.5699 20.2616 25.5828C20.158 25.6096 20.0394 25.6532 19.9334 25.7383C19.7181 25.911 19.5685 26.2423 19.6663 26.9C19.6689 26.9174 19.6827 26.931 19.7002 26.9334C19.7176 26.9357 19.7345 26.9262 19.7416 26.9101L19.9593 26.4153C19.9612 26.4402 19.9637 26.4666 19.9672 26.4938C19.9762 26.5642 19.9916 26.6412 20.0177 26.7121C20.0437 26.7827 20.0813 26.85 20.1366 26.8977C20.1487 26.9082 20.1659 26.9103 20.1802 26.9031C20.1945 26.896 20.2031 26.8809 20.2019 26.865C20.1848 26.6254 20.2297 26.4243 20.2789 26.2832C20.2928 26.2434 20.3069 26.2085 20.3201 26.1788C20.3252 26.2236 20.3321 26.2759 20.341 26.3294C20.3532 26.4027 20.3695 26.4798 20.3911 26.5437C20.4019 26.5757 20.4144 26.6055 20.429 26.6303C20.443 26.654 20.4608 26.6764 20.484 26.6902C20.4991 26.7004 20.5185 26.7058 20.5392 26.6991C20.5578 26.6931 20.5706 26.6794 20.5791 26.6679C20.596 26.6447 20.6104 26.6092 20.624 26.5714C20.6321 26.549 20.6404 26.5245 20.6491 26.4986C20.6716 26.432 20.6975 26.3553 20.7325 26.2776C20.7808 26.1702 20.8441 26.0668 20.9329 25.9956C21.0203 25.9255 21.1347 25.8845 21.2911 25.9051L21.2915 25.9051C21.6183 25.9449 21.9032 25.9581 22.1064 25.9614C22.208 25.9631 22.2893 25.9622 22.3452 25.961C22.3651 25.9606 22.3817 25.9601 22.395 25.9596C22.3964 25.9717 22.3981 25.9867 22.4 26.0042C22.4059 26.0559 22.4142 26.13 22.424 26.2195C22.4434 26.3984 22.4687 26.6388 22.4917 26.8847C22.5148 27.1306 22.5356 27.3816 22.5463 27.5818C22.5516 27.682 22.5544 27.7689 22.5537 27.836C22.5533 27.8695 22.5521 27.8975 22.55 27.9194C22.5497 27.9225 22.5494 27.9254 22.5491 27.9281C22.3011 27.8792 21.9148 27.8929 21.5773 27.9516C21.3988 27.9827 21.2312 28.0268 21.1028 28.0823C21.0387 28.11 20.9829 28.1413 20.9401 28.1763C20.8976 28.2111 20.8651 28.2521 20.8535 28.2999C20.8506 28.3121 20.8536 28.325 20.8617 28.3347C20.8698 28.3443 20.882 28.3495 20.8946 28.3487C21.2266 28.3268 21.4684 28.3356 21.6267 28.3497C21.6948 28.3558 21.7475 28.3628 21.7852 28.3688C21.7767 28.3773 21.7676 28.3866 21.7579 28.3967C21.7095 28.4471 21.6464 28.5174 21.5884 28.5968C21.5307 28.6758 21.4766 28.7657 21.448 28.8551C21.4193 28.9445 21.4145 29.0391 21.4647 29.1209L21.4984 29.1002C21.5281 29.1263 21.5281 29.1263 21.5281 29.1263L21.5282 29.1262L21.5286 29.1258L21.5302 29.1239C21.5318 29.1222 21.5342 29.1196 21.5374 29.1162C21.5439 29.1093 21.5537 29.0991 21.5669 29.0861C21.5932 29.0601 21.633 29.0229 21.686 28.9787C21.7921 28.8905 21.9513 28.7746 22.1626 28.6651C22.5849 28.4464 23.2163 28.2529 24.0511 28.3572C24.0662 28.3591 24.0811 28.3522 24.0893 28.3394C24.0975 28.3266 24.0977 28.3102 24.0897 28.2972C23.9524 28.0747 23.666 27.9825 23.4262 27.9439C23.3047 27.9243 23.1915 27.9178 23.1088 27.9163C23.0674 27.9155 23.0335 27.916 23.0099 27.9166C23.0098 27.9166 23.0098 27.9166 23.0097 27.9166C23.0082 27.904 23.0063 27.8882 23.004 27.8696C22.9977 27.8167 22.9889 27.7409 22.9788 27.6496C22.9588 27.4669 22.9342 27.2224 22.9155 26.9747C22.8969 26.7268 22.8844 26.4767 22.8884 26.2825C22.8905 26.1852 22.8967 26.1035 22.9079 26.0437C22.9135 26.0138 22.92 25.9909 22.9271 25.9748C22.9346 25.9579 22.9404 25.9537 22.9412 25.9533C22.9596 25.9433 22.989 25.9344 23.0295 25.9277C23.0694 25.9211 23.1171 25.917 23.1701 25.915C23.2761 25.9109 23.4004 25.9152 23.5195 25.9229C23.6385 25.9305 23.7516 25.9415 23.8351 25.9505C23.8767 25.955 23.911 25.959 23.9347 25.9619C23.9466 25.9634 23.9559 25.9645 23.9622 25.9653L23.9693 25.9663L23.9711 25.9665L23.9716 25.9666L23.9717 25.9666C23.9734 25.9668 23.9752 25.9669 23.9769 25.9669C24.0197 25.9669 24.0613 25.9385 24.0938 25.9054C24.1281 25.8705 24.1599 25.8228 24.1825 25.7692C24.2274 25.6629 24.24 25.5228 24.1485 25.4106C24.0754 25.3159 23.9278 25.0879 23.8214 24.8655C23.7681 24.754 23.7264 24.6462 23.7089 24.5586C23.7002 24.5147 23.698 24.4782 23.7022 24.4497C23.7063 24.422 23.716 24.4047 23.7289 24.394C23.7443 24.3825 23.772 24.3722 23.8143 24.3654C23.856 24.3587 23.9075 24.3561 23.9658 24.3569C24.0823 24.3585 24.2218 24.3736 24.3568 24.3933C24.4916 24.4129 24.6208 24.4369 24.7164 24.4561C24.7641 24.4656 24.8034 24.474 24.8308 24.4799C24.8444 24.4829 24.8551 24.4852 24.8623 24.4869L24.8706 24.4887L24.8727 24.4892L24.8732 24.4893L24.8733 24.4893C24.8896 24.4931 24.9066 24.4862 24.9155 24.472C24.9245 24.4579 24.9237 24.4397 24.9134 24.4265L22.1066 20.8303C22.1062 20.8285 22.1058 20.8265 22.1054 20.8242C22.1035 20.8143 22.1007 20.7996 22.0973 20.7806C22.0906 20.7426 22.0816 20.6873 22.0726 20.619C22.0547 20.4822 22.0367 20.2931 22.0367 20.0837C22.0367 19.6637 22.1091 19.1725 22.3873 18.8543C22.7392 18.564 22.8968 18.2591 22.9635 18.0259C22.997 17.9093 23.0076 17.8108 23.0086 17.7412C23.0091 17.7065 23.0072 17.6785 23.0044 17.6587C23.003 17.6491 23.0012 17.64 22.9988 17.6326C22.9981 17.6304 22.9969 17.6269 22.9948 17.623ZM22.0697 20.8473C22.031 20.8555 22.031 20.8555 22.031 20.8555L22.0309 20.8552L22.0308 20.8544L22.0301 20.8513C22.0296 20.8486 22.0288 20.8446 22.0278 20.8394C22.0257 20.8291 22.0229 20.8139 22.0194 20.7943C22.0125 20.7553 22.0034 20.6989 21.9942 20.6293C21.9759 20.4901 21.9576 20.2974 21.9576 20.0837C21.9576 19.6589 22.0299 19.1407 22.33 18.7997C22.3314 18.7981 22.333 18.7966 22.3346 18.7953C22.6754 18.5149 22.8248 18.223 22.8875 18.0041C22.9189 17.8944 22.9286 17.8029 22.9295 17.7401C22.93 17.7085 22.9282 17.6848 22.9261 17.6699C22.9256 17.6663 22.9251 17.6635 22.9246 17.6615C22.9214 17.6567 22.9192 17.6511 22.9183 17.6453C22.8727 17.3467 22.622 17.0863 22.2992 16.9712C21.9788 16.857 21.5935 16.8885 21.2809 17.1658C21.1004 17.3852 21.0732 17.5758 21.0884 17.7095C21.0961 17.7773 21.1148 17.8315 21.1314 17.8686C21.1397 17.8872 21.1475 17.9014 21.1531 17.9107C21.1558 17.9154 21.158 17.9189 21.1595 17.921C21.1602 17.9221 21.1607 17.9229 21.161 17.9233L21.1613 17.9237C21.1689 17.9342 21.1709 17.9478 21.1665 17.9601C21.1622 17.9724 21.1521 17.9817 21.1396 17.9851L21.1389 17.9853L21.1367 17.9858L21.1284 17.9881C21.121 17.9902 21.1102 17.9931 21.0965 17.997C21.0689 18.0048 21.0295 18.016 20.982 18.0301C20.8871 18.0583 20.7603 18.0977 20.6326 18.1424C20.5046 18.1873 20.3768 18.2372 20.2794 18.2863C20.2306 18.3109 20.1908 18.3346 20.1628 18.3566C20.1345 18.3787 20.1246 18.3941 20.1224 18.4017C20.1227 18.4018 20.123 18.402 20.1233 18.4022C20.1256 18.4038 20.1292 18.4057 20.1343 18.4078C20.1559 18.4165 20.1929 18.4228 20.2442 18.4257C20.3452 18.4313 20.4858 18.4228 20.6299 18.4085C20.7735 18.3943 20.9186 18.3746 21.028 18.3585C21.0827 18.3504 21.1284 18.3432 21.1603 18.3381C21.1763 18.3355 21.1889 18.3334 21.1974 18.332L21.2072 18.3303L21.2104 18.3298C21.2229 18.3277 21.2357 18.3316 21.2447 18.3404C21.2538 18.3492 21.2581 18.3618 21.2563 18.3744L21.142 19.1742C21.1407 19.1833 21.1363 19.1917 21.1295 19.1979L21.1292 19.1982L21.128 19.1992L21.1234 19.2035C21.1192 19.2074 21.113 19.2132 21.105 19.2209C21.089 19.2362 21.0656 19.2591 21.0364 19.2889C20.9779 19.3485 20.8962 19.4358 20.8036 19.5461C20.6182 19.767 20.3897 20.0794 20.2158 20.4467C20.0419 20.8141 19.9235 21.2345 19.9558 21.6722C19.9872 22.098 20.1615 22.5433 20.5718 22.9749L20.5966 22.9417C20.6039 22.932 20.6153 22.9261 20.6275 22.9259C20.6397 22.9257 20.6513 22.931 20.659 22.9405L20.6593 22.9409L20.6606 22.9425C20.6612 22.9433 20.6621 22.9443 20.6631 22.9456C20.6639 22.9465 20.6647 22.9475 20.6657 22.9486C20.6702 22.954 20.677 22.9621 20.6859 22.9724C20.7038 22.9931 20.73 23.023 20.7635 23.0594C20.8306 23.1321 20.9266 23.2309 21.0425 23.3348C21.2753 23.5436 21.5837 23.769 21.8951 23.85C21.9019 23.8518 21.9081 23.8554 21.9131 23.8603C22.2208 24.168 22.3584 24.2991 22.419 24.3532C22.4314 24.3642 22.4402 24.3718 22.4464 24.3768C22.4562 24.3788 22.4652 24.3844 22.4712 24.393L22.4388 24.4156L22.401 24.4201C22.401 24.4201 22.401 24.4201 22.401 24.4201L22.4388 24.4156C22.4712 24.393 22.4712 24.3929 22.4712 24.393L22.4713 24.3931L22.4714 24.3932L22.4715 24.3934L22.472 24.3941C22.4722 24.3943 22.4724 24.3947 22.4726 24.3951C22.4728 24.3954 22.473 24.3956 22.4732 24.3959C22.4739 24.3971 22.4755 24.3999 22.477 24.4035C22.4777 24.4053 22.479 24.4088 22.4796 24.4133C22.4799 24.4153 22.4804 24.4196 22.4797 24.425C22.4805 24.4321 22.4816 24.4417 22.4828 24.4537C22.4858 24.4809 22.4898 24.52 22.4943 24.5674C22.5032 24.6622 22.514 24.7908 22.5212 24.9255C22.5283 25.0601 22.532 25.2016 22.5265 25.3222C22.5238 25.3824 22.5188 25.4382 22.5106 25.4856C22.5026 25.5321 22.4909 25.5742 22.4729 25.6047C22.4637 25.6203 22.445 25.6276 22.4277 25.6225C22.4132 25.6183 22.3765 25.6128 22.3187 25.607C22.2623 25.6013 22.1893 25.5957 22.1047 25.5904C21.9357 25.5799 21.7217 25.5708 21.5052 25.5659C21.2886 25.561 21.0699 25.5602 20.8915 25.566C20.8022 25.569 20.7234 25.5736 20.6603 25.5801C20.5958 25.5867 20.5514 25.595 20.5282 25.6039C20.5277 25.6041 20.5271 25.6043 20.5265 25.6045C20.4972 25.6143 20.4589 25.6218 20.4183 25.6297L20.4148 25.6304C20.3741 25.6383 20.3291 25.6471 20.2814 25.6594C20.1834 25.6848 20.0768 25.7247 19.9829 25.8C19.8123 25.9368 19.6719 26.2008 19.7269 26.7472L19.9593 26.2191C19.967 26.2015 19.9861 26.1921 20.0047 26.1965C20.0233 26.201 20.036 26.2181 20.035 26.2372M20.035 26.2372L20.0349 26.2374L20.0349 26.2383L20.0347 26.2419C20.0346 26.2452 20.0344 26.2501 20.0343 26.2564C20.0339 26.269 20.0337 26.2873 20.0339 26.3099C20.0345 26.3551 20.0371 26.417 20.0457 26.4837C20.0543 26.5507 20.0686 26.6214 20.0919 26.6848C20.1 26.7068 20.1091 26.7276 20.1192 26.7468C20.121 26.5486 20.161 26.381 20.2042 26.2571C20.2302 26.1827 20.2573 26.1238 20.2781 26.0834C20.2885 26.0632 20.2973 26.0476 20.3036 26.0369C20.3067 26.0315 20.3092 26.0274 20.311 26.0246C20.3119 26.0231 20.3126 26.022 20.3131 26.0213L20.3137 26.0203L20.3139 26.0199C20.314 26.0199 20.314 26.0199 20.347 26.0416L20.3139 26.0199C20.3233 26.0057 20.3407 25.999 20.3572 26.0034C20.3736 26.0077 20.3854 26.0221 20.3865 26.0391L20.3865 26.0394L20.3866 26.0405L20.3869 26.0449C20.3872 26.0488 20.3876 26.0546 20.3882 26.062C20.3894 26.0768 20.3912 26.0981 20.3938 26.1239C20.399 26.1756 20.4071 26.245 20.419 26.3164C20.4309 26.388 20.4465 26.4604 20.4661 26.5184C20.4759 26.5474 20.4863 26.5717 20.4972 26.5902C20.505 26.6034 20.512 26.612 20.5179 26.6173C20.5266 26.6038 20.5368 26.58 20.5496 26.5446C20.5568 26.5246 20.5645 26.5018 20.5729 26.4769C20.5957 26.4094 20.6236 26.3267 20.6603 26.2451C20.7109 26.1328 20.7805 26.0164 20.8834 25.9339C20.9877 25.8502 21.1237 25.8033 21.3012 25.8266C21.6247 25.8659 21.9067 25.879 22.1077 25.8823C22.2082 25.884 22.2884 25.8831 22.3435 25.8819C22.371 25.8813 22.3922 25.8806 22.4065 25.88C22.4136 25.8798 22.419 25.8795 22.4226 25.8793L22.4266 25.8791L22.4276 25.8791L22.4278 25.8791C22.4487 25.8779 22.4669 25.8932 22.4693 25.914L22.43 25.9186C22.4693 25.914 22.4693 25.914 22.4693 25.914L22.4718 25.9352C22.4734 25.9491 22.4757 25.9694 22.4786 25.9953C22.4845 26.0471 22.4928 26.1213 22.5026 26.2109C22.5221 26.3901 22.5474 26.6309 22.5705 26.8773C22.5936 27.1235 22.6145 27.3758 22.6253 27.5776C22.6306 27.6785 22.6335 27.7673 22.6328 27.8368C22.6324 27.8715 22.6311 27.902 22.6287 27.9269C22.6264 27.9509 22.6228 27.9733 22.6162 27.9899C22.6089 28.0081 22.5893 28.0183 22.5702 28.0137C22.3405 27.9584 21.9423 27.9684 21.5909 28.0296C21.4156 28.06 21.2547 28.1028 21.1343 28.1549C21.074 28.181 21.0253 28.2088 20.9902 28.2375C20.9787 28.247 20.9689 28.2563 20.9608 28.2654C21.2604 28.2489 21.483 28.2575 21.6337 28.2709C21.715 28.2781 21.7754 28.2868 21.8157 28.2937C21.8359 28.2972 21.851 28.3002 21.8613 28.3024C21.8664 28.3035 21.8703 28.3043 21.873 28.305L21.8761 28.3057L21.877 28.3059L21.8772 28.306L21.8773 28.306C21.8773 28.306 21.8774 28.3061 21.8675 28.3444L21.8773 28.306C21.8914 28.3097 21.9025 28.3208 21.9059 28.3349C21.9094 28.3491 21.9048 28.364 21.894 28.3737C21.894 28.3737 21.894 28.3737 21.894 28.3737L21.8937 28.374L21.8927 28.3749L21.8885 28.3788C21.8847 28.3823 21.8792 28.3875 21.8722 28.3942C21.8582 28.4076 21.8383 28.4272 21.8149 28.4516C21.768 28.5003 21.7075 28.5679 21.6523 28.6434C21.5968 28.7194 21.5482 28.8014 21.5233 28.8792C21.5055 28.9349 21.5006 28.9855 21.5114 29.0297C21.5392 29.0022 21.5806 28.9635 21.6354 28.9179C21.7452 28.8266 21.9091 28.7073 22.1262 28.5949C22.545 28.378 23.1614 28.1865 23.9688 28.2683C23.8378 28.1257 23.6193 28.0551 23.4136 28.022C23.2968 28.0031 23.1875 27.9969 23.1073 27.9954C23.0673 27.9947 23.0346 27.9951 23.012 27.9957C23.0008 27.996 22.992 27.9964 22.9861 27.9967C22.9843 27.9967 22.9827 27.9968 22.9814 27.9969L22.9795 27.997L22.9779 27.9971L22.9776 27.9971C22.9567 27.9984 22.9384 27.9833 22.9357 27.9626L22.975 27.9576C22.9357 27.9626 22.9357 27.9626 22.9357 27.9626L22.9357 27.9625L22.9357 27.9623L22.935 27.957L22.933 27.9408C22.9312 27.9265 22.9287 27.9056 22.9255 27.879C22.9191 27.8259 22.9103 27.7498 22.9002 27.6582C22.8801 27.475 22.8554 27.2295 22.8366 26.9806C22.8179 26.732 22.8052 26.4789 22.8094 26.2808C22.8114 26.182 22.8177 26.0953 22.8301 26.0292C22.8363 25.9962 22.8442 25.9667 22.8548 25.9429C22.8649 25.9199 22.8798 25.8966 22.9033 25.8839C22.9332 25.8675 22.973 25.8569 23.0166 25.8497C23.0609 25.8423 23.1122 25.838 23.1671 25.8359C23.277 25.8317 23.4043 25.8362 23.5246 25.844C23.6451 25.8517 23.7594 25.8627 23.8436 25.8718C23.8857 25.8764 23.9202 25.8805 23.9443 25.8834C23.951 25.8842 23.9568 25.8849 23.9618 25.8856C23.9658 25.8861 23.9693 25.8865 23.9722 25.8869L23.9788 25.8877C23.9894 25.8867 24.0106 25.8772 24.0374 25.8499C24.0641 25.8228 24.0906 25.7836 24.1097 25.7384C24.1483 25.647 24.1532 25.5413 24.0869 25.4602L24.0862 25.4594C24.0098 25.3604 23.8589 25.1273 23.7501 24.8996C23.6957 24.7859 23.6507 24.6712 23.6313 24.574C23.6217 24.5254 23.6179 24.479 23.624 24.4382C23.6301 24.3969 23.6466 24.3589 23.6796 24.3322L23.6805 24.3314C23.7114 24.3079 23.7549 24.2948 23.8018 24.2873C23.8497 24.2796 23.9061 24.2769 23.9669 24.2778C24.0885 24.2795 24.2319 24.2951 24.3682 24.315C24.5048 24.3349 24.6355 24.3592 24.7319 24.3785C24.7506 24.3823 24.768 24.3858 24.7839 24.3891L22.0385 20.8716C22.0348 20.8669 22.0322 20.8614 22.031 20.8555L22.0697 20.8473M22.9236 17.6571C22.9236 17.6571 22.9236 17.6571 22.9236 17.6571V17.6571Z" fill="black"/>
<path fill-rule="evenodd" clip-rule="evenodd" d="M21.7613 18.8789C21.7613 18.8789 20.1002 20.707 20.8209 22.1045C20.8561 21.9111 20.8385 21.7881 20.8649 21.7969C20.8209 21.7705 21.067 21.9639 21.0494 21.9287C21.0494 21.8232 20.9791 21.6035 20.9791 21.6035L21.1988 21.665L21.067 21.4189L21.3922 21.4541C21.3922 21.4541 21.2779 21.1553 21.3131 21.1553L21.5768 21.1729C21.1022 20.3291 21.5504 19.626 21.7613 18.8701V18.8789Z" fill="#9CA69C"/>
<path fill-rule="evenodd" clip-rule="evenodd" d="M21.7672 18.8304C21.7868 18.8331 21.8014 18.8499 21.8014 18.8696V18.8784C21.8014 18.8868 21.7988 18.8948 21.794 18.9015C21.7508 19.053 21.6985 19.2025 21.6469 19.3502C21.6361 19.3811 21.6253 19.4119 21.6147 19.4426C21.5504 19.6279 21.4902 19.811 21.4512 19.9962C21.3735 20.3651 21.3803 20.7415 21.6118 21.153C21.6189 21.1656 21.6185 21.1812 21.6107 21.1935C21.603 21.2057 21.5891 21.2128 21.5747 21.2118L21.3506 21.1969C21.3561 21.2224 21.3661 21.2565 21.3776 21.292C21.3895 21.3288 21.4025 21.3657 21.4126 21.3934C21.4176 21.4073 21.4219 21.4189 21.4249 21.4269L21.4284 21.4363L21.4294 21.4387L21.4296 21.4393L21.4296 21.4395C21.4346 21.4523 21.4325 21.4669 21.424 21.4778C21.4156 21.4887 21.4022 21.4944 21.3885 21.4929L21.1378 21.4658L21.2342 21.6459C21.2417 21.6598 21.2401 21.6769 21.2302 21.6893C21.2203 21.7017 21.204 21.7069 21.1887 21.7026L21.038 21.6604C21.0427 21.6772 21.0479 21.6961 21.0531 21.7162C21.07 21.7816 21.0882 21.8639 21.0894 21.9221C21.0898 21.9239 21.0901 21.9258 21.0903 21.9278C21.091 21.9377 21.0882 21.9551 21.0714 21.9657C21.0588 21.9736 21.0464 21.9721 21.0429 21.9716C21.038 21.9709 21.0338 21.9695 21.0313 21.9686C21.0219 21.9651 21.0107 21.9583 21.001 21.952C20.9798 21.9384 20.951 21.9176 20.9239 21.8972C20.9111 21.8875 20.8984 21.8776 20.8867 21.8685C20.8865 21.8711 20.8864 21.8739 20.8862 21.8768C20.8861 21.8788 20.8859 21.8808 20.8858 21.8828C20.8825 21.9366 20.8777 22.0155 20.8603 22.1111C20.8573 22.1277 20.844 22.1406 20.8273 22.1431C20.8105 22.1456 20.794 22.1372 20.7863 22.1221C20.4166 21.4054 20.6597 20.5833 20.9862 19.9491C21.1501 19.6307 21.3365 19.3566 21.4819 19.1622C21.5546 19.065 21.6171 18.9875 21.6615 18.9344C21.6837 18.9078 21.7014 18.8872 21.7136 18.8733C21.7171 18.8693 21.7201 18.8658 21.7227 18.863C21.723 18.8616 21.7234 18.8603 21.7238 18.859C21.7291 18.84 21.7476 18.8278 21.7672 18.8304ZM21.6635 19.0568C21.6291 19.0998 21.589 19.151 21.5452 19.2096C21.4017 19.4016 21.2179 19.6719 21.0565 19.9853C20.7517 20.5774 20.5326 21.3126 20.8005 21.9646C20.8036 21.9314 20.8054 21.9022 20.8069 21.8775L20.8072 21.872C20.8088 21.8462 20.8103 21.8225 20.8135 21.806C20.8149 21.799 20.8175 21.7878 20.824 21.7778C20.8347 21.7534 20.86 21.7542 20.863 21.7544C20.8691 21.7548 20.8737 21.7566 20.8749 21.7571C20.8769 21.7578 20.8786 21.7586 20.8797 21.7591C20.8818 21.7602 20.884 21.7614 20.8857 21.7625C20.8921 21.7663 20.897 21.7716 20.9002 21.7777C20.9013 21.7786 20.9023 21.7795 20.9035 21.7804C20.9195 21.7938 20.945 21.814 20.9716 21.834C20.9823 21.8421 20.993 21.85 21.0031 21.8574C20.9967 21.8192 20.9869 21.7762 20.9765 21.736C20.9678 21.7025 20.9592 21.6722 20.9527 21.6502C20.9495 21.6393 20.9468 21.6304 20.9449 21.6244L20.9427 21.6174L20.9421 21.6156L20.942 21.6151L20.9796 21.603M21.5086 21.1281C21.2992 20.7204 21.2972 20.3436 21.3738 19.9799C21.4139 19.7894 21.4756 19.6022 21.5399 19.4167C21.5507 19.3856 21.5616 19.3545 21.5724 19.3235C21.6035 19.2345 21.6345 19.1458 21.6635 19.0568" fill="#9CA69C"/>
<path fill-rule="evenodd" clip-rule="evenodd" d="M22.3417 17.3057C22.3417 17.3057 22.4296 17.9385 22.078 18.1143C22.0341 18.1582 21.8143 18.2285 21.8495 18.3604C21.8847 18.5361 21.9813 18.501 22.1132 18.4658C22.4735 18.4043 22.8954 17.6396 22.3417 17.3057Z" fill="#9CA69C"/>
<path fill-rule="evenodd" clip-rule="evenodd" d="M22.2856 17.2207L22.3645 17.2683C22.5122 17.3574 22.597 17.4769 22.6328 17.6079C22.6683 17.7379 22.6547 17.8758 22.612 18.0022C22.5692 18.1287 22.4966 18.246 22.4107 18.3361C22.3259 18.4251 22.2247 18.491 22.1228 18.509C22.1176 18.5104 22.1124 18.5118 22.1072 18.5132C22.081 18.5203 22.0544 18.5275 22.0298 18.5323C21.9997 18.5382 21.9676 18.5416 21.9368 18.5356C21.9042 18.5292 21.8751 18.5127 21.8523 18.483C21.8307 18.4549 21.8163 18.4173 21.8068 18.3705C21.7822 18.2751 21.8526 18.2084 21.9089 18.1687C21.9374 18.1486 21.9681 18.1312 21.9931 18.1171C21.9945 18.1163 21.9959 18.1155 21.9973 18.1147C22.0106 18.1072 22.0217 18.1009 22.0309 18.0951C22.0405 18.0891 22.0452 18.0853 22.0471 18.0834L22.0521 18.0784L22.0585 18.0752C22.2131 17.9979 22.2766 17.8165 22.2982 17.639C22.3088 17.552 22.3088 17.47 22.3062 17.4095C22.3048 17.3793 22.3028 17.3547 22.3012 17.3377C22.3003 17.3292 22.2996 17.3227 22.2991 17.3183C22.2988 17.3161 22.2986 17.3144 22.2985 17.3134L22.2983 17.3122L22.2983 17.312L22.2856 17.2207ZM22.3935 17.3961C22.3937 17.3992 22.3938 17.4024 22.394 17.4056C22.3968 17.4693 22.3968 17.5564 22.3854 17.6496C22.3634 17.8307 22.2961 18.0511 22.1035 18.1509C22.0954 18.1579 22.0862 18.1641 22.0777 18.1695C22.0665 18.1765 22.0536 18.1839 22.0406 18.1912C22.0395 18.1918 22.0384 18.1925 22.0373 18.1931C22.0116 18.2076 21.9844 18.223 21.9596 18.2405C21.9041 18.2797 21.8826 18.3137 21.8921 18.3493L21.8925 18.3506L21.8927 18.352C21.9008 18.3925 21.9116 18.416 21.9219 18.4294C21.9312 18.4415 21.9412 18.4469 21.9536 18.4493C21.9679 18.4521 21.9868 18.4511 22.013 18.446C22.0342 18.4419 22.057 18.4357 22.083 18.4287C22.0891 18.4271 22.0955 18.4254 22.102 18.4236L22.1039 18.4231L22.1059 18.4228C22.1834 18.4095 22.2693 18.3571 22.3471 18.2755C22.4243 18.1945 22.4901 18.0882 22.5287 17.9741C22.5673 17.8599 22.5778 17.7403 22.548 17.631C22.5247 17.5457 22.4762 17.4648 22.3935 17.3961Z" fill="#9CA69C"/>
<path fill-rule="evenodd" clip-rule="evenodd" d="M21.7266 17.8418C21.7266 17.8768 21.7127 17.9103 21.6879 17.935C21.6632 17.9597 21.6297 17.9736 21.5947 17.9736C21.5598 17.9736 21.5262 17.9597 21.5015 17.935C21.4768 17.9103 21.4629 17.8768 21.4629 17.8418C21.4629 17.8068 21.4768 17.7733 21.5015 17.7486C21.5262 17.7239 21.5598 17.71 21.5947 17.71C21.6297 17.71 21.6632 17.7239 21.6879 17.7486C21.7127 17.7733 21.7266 17.8068 21.7266 17.8418Z" fill="white"/>
<path fill-rule="evenodd" clip-rule="evenodd" d="M21.1902 18.3691C21.1024 18.4482 20.6453 18.9229 21.1024 19.0986C21.5682 18.9756 21.4363 18.8877 21.5418 18.7822C21.5418 18.5625 21.3133 18.5098 21.1902 18.3779V18.3691Z" fill="#DE3108"/>
<path fill-rule="evenodd" clip-rule="evenodd" d="M21.2342 18.36V18.2705L21.1609 18.3365C21.1153 18.3775 20.9738 18.5208 20.9019 18.6796C20.866 18.759 20.8445 18.8488 20.8687 18.9337C20.8936 19.0212 20.9635 19.0924 21.0866 19.1397L21.0999 19.1448L21.1136 19.1412C21.3468 19.0795 21.4439 19.024 21.4922 18.9605C21.513 18.9331 21.5235 18.9054 21.5317 18.8839C21.5328 18.8808 21.534 18.8777 21.5351 18.8749C21.5439 18.8522 21.5528 18.8335 21.5729 18.8133L21.5858 18.8005V18.7823C21.5858 18.6531 21.5168 18.5736 21.4394 18.5126C21.4118 18.4909 21.3815 18.4703 21.3528 18.4507C21.3423 18.4436 21.332 18.4366 21.3222 18.4298C21.2893 18.4069 21.2594 18.3846 21.2342 18.36ZM21.1855 18.4348C21.1283 18.4929 21.0337 18.6016 20.982 18.7158C20.9498 18.7869 20.9373 18.8536 20.9532 18.9096C20.9678 18.9608 21.009 19.0125 21.1051 19.0525C21.3265 18.9927 21.3942 18.9441 21.4223 18.9073C21.4349 18.8907 21.4408 18.8752 21.4491 18.8535C21.4504 18.8502 21.4518 18.8466 21.4532 18.8429C21.4623 18.8196 21.474 18.7932 21.4974 18.7657C21.4921 18.6846 21.4484 18.6316 21.385 18.5817C21.36 18.562 21.3336 18.544 21.3057 18.5251C21.2947 18.5176 21.2835 18.5099 21.272 18.5019C21.2429 18.4817 21.2129 18.4598 21.1855 18.4348Z" fill="black"/>
<path fill-rule="evenodd" clip-rule="evenodd" d="M22.2014 22.8955C22.1751 23.001 22.0696 23.3877 22.2102 23.6865C22.6145 23.5107 22.7991 23.5635 22.9309 23.6514C22.6057 23.3877 22.4739 23.2734 22.2014 22.8955Z" fill="#9CA69C"/>
<path fill-rule="evenodd" clip-rule="evenodd" d="M22.233 22.8721C22.5028 23.2462 22.6318 23.358 22.9553 23.6203C22.9718 23.6336 22.9748 23.6575 22.9623 23.6745C22.9498 23.6915 22.9261 23.6957 22.9085 23.684C22.8475 23.6433 22.7756 23.6113 22.6715 23.6093C22.566 23.6073 22.4247 23.6359 22.2255 23.7225C22.2059 23.731 22.1831 23.7224 22.1739 23.7031C22.0994 23.5447 22.091 23.3654 22.1033 23.215C22.1148 23.0746 22.1449 22.9557 22.1596 22.8976C22.1607 22.8933 22.1617 22.8893 22.1626 22.8856L22.2009 22.8952L22.233 22.8721ZM22.2192 22.9873C22.4086 23.2434 22.5339 23.3715 22.7255 23.5336C22.7088 23.5317 22.6913 23.5306 22.673 23.5302C22.5594 23.528 22.4174 23.5569 22.2304 23.6345C22.1781 23.5023 22.1713 23.3537 22.1821 23.2214C22.1896 23.1302 22.2053 23.0484 22.2192 22.9873Z" fill="#9CA69C"/>
<path fill-rule="evenodd" clip-rule="evenodd" d="M22.8867 24.7061L22.9043 25.6025C22.9043 25.6025 23.2207 25.6553 23.3613 25.6025C23.502 25.5498 23.3613 24.9873 22.8867 24.7061Z" fill="white"/>
<path fill-rule="evenodd" clip-rule="evenodd" d="M22.8673 24.6714C22.8797 24.6642 22.895 24.6642 22.9074 24.6715C23.153 24.8171 23.312 25.0351 23.3917 25.2241C23.4314 25.3184 23.4524 25.4076 23.4533 25.4788C23.4537 25.5142 23.4492 25.5474 23.4378 25.5751C23.4262 25.6031 23.4063 25.6276 23.3757 25.6391C23.3349 25.6544 23.284 25.6613 23.2331 25.6638C23.1815 25.6664 23.1271 25.6646 23.0779 25.6613C23.0285 25.6579 22.9838 25.6529 22.9513 25.6487C22.9351 25.6466 22.9219 25.6447 22.9128 25.6433C22.9082 25.6426 22.9046 25.6421 22.9022 25.6417L22.8993 25.6412L22.8986 25.6411L22.8984 25.6411C22.8984 25.6411 22.8983 25.6411 22.9048 25.602L22.8983 25.6411C22.8795 25.6379 22.8656 25.6219 22.8652 25.6028L22.8477 24.7063C22.8474 24.692 22.8549 24.6786 22.8673 24.6714ZM22.9437 25.5679C22.9491 25.5686 22.955 25.5694 22.9615 25.5702C22.9928 25.5743 23.0359 25.5791 23.0833 25.5824C23.1307 25.5856 23.1818 25.5872 23.2291 25.5848C23.2771 25.5824 23.3184 25.5761 23.3479 25.565C23.3525 25.5633 23.359 25.5587 23.3647 25.5448C23.3707 25.5304 23.3746 25.5089 23.3742 25.4798C23.3734 25.4218 23.3559 25.3429 23.3188 25.2549C23.2515 25.0953 23.1228 24.9126 22.9282 24.7787L22.9437 25.5679Z" fill="white"/>
<path fill-rule="evenodd" clip-rule="evenodd" d="M25.1368 24.82C25.1368 24.82 24.5655 23.4314 23.0978 23.0798C21.63 22.7282 21.8233 21.1638 21.9376 21.0671C22.0079 20.9353 22.0519 20.7243 22.4737 20.9265C22.8956 21.1286 24.8468 22.1042 25.128 22.1569C25.4093 22.2097 25.1632 24.8552 25.1456 24.82H25.1368Z" fill="#9CA69C"/>
<path fill-rule="evenodd" clip-rule="evenodd" d="M21.9982 21.0442C21.9912 21.0586 21.9839 21.0737 21.9764 21.0878L21.9724 21.0952L21.966 21.1007C21.9662 21.1005 21.9661 21.1006 21.9659 21.1009C21.965 21.1021 21.9613 21.1071 21.956 21.1193C21.9499 21.1333 21.9433 21.1529 21.937 21.1777C21.9245 21.2274 21.9136 21.2951 21.9081 21.3759C21.8971 21.5375 21.9079 21.7482 21.9668 21.9664C22.0843 22.401 22.3925 22.8657 23.108 23.0371C23.8538 23.2157 24.3712 23.6578 24.7014 24.0536C24.8666 24.2516 24.9854 24.4385 25.0629 24.576C25.0858 24.6166 25.1051 24.653 25.121 24.684C25.1282 24.6174 25.1369 24.528 25.146 24.4224C25.1671 24.179 25.1907 23.8506 25.205 23.5196C25.2192 23.1882 25.2241 22.8556 25.208 22.6031C25.2 22.4765 25.1868 22.3723 25.1677 22.2991C25.1581 22.2623 25.1477 22.2359 25.1373 22.2189C25.1322 22.2106 25.1278 22.2057 25.1246 22.203C25.1216 22.2005 25.1201 22.2002 25.1199 22.2002C25.08 22.1927 25.015 22.1701 24.9343 22.1381C24.8524 22.1057 24.7509 22.0622 24.6361 22.011C24.4065 21.9087 24.1226 21.7753 23.8346 21.6374C23.5466 21.4994 23.2542 21.3568 23.0076 21.2361C22.946 21.206 22.8873 21.1772 22.8322 21.1502C22.6665 21.069 22.5337 21.004 22.4547 20.9661C22.2469 20.8665 22.1491 20.8774 22.0966 20.9092C22.0692 20.9258 22.0484 20.9512 22.0296 20.9833C22.0202 20.9994 22.0117 21.0163 22.003 21.0342C22.0014 21.0375 21.9998 21.0408 21.9982 21.0442ZM25.0962 24.8368L25.0961 24.8367L25.0959 24.836L25.0947 24.8333C25.0937 24.8308 25.0921 24.8271 25.0899 24.8222C25.0855 24.8123 25.0788 24.7976 25.0698 24.7787C25.0517 24.7408 25.0241 24.6861 24.9863 24.6192C24.9109 24.4853 24.7951 24.303 24.634 24.1099C24.3116 23.7236 23.8095 23.2955 23.0875 23.1226C22.3352 22.9424 22.0062 22.4491 21.882 21.9894C21.8201 21.7604 21.8089 21.5399 21.8204 21.37C21.8262 21.285 21.8377 21.2119 21.8518 21.1562C21.8589 21.1283 21.8668 21.104 21.8754 21.0843C21.882 21.0692 21.8905 21.053 21.9019 21.0407C21.9074 21.03 21.9129 21.0187 21.9187 21.0066C21.9204 21.0031 21.9222 20.9994 21.924 20.9957C21.9328 20.9776 21.9426 20.958 21.9538 20.9389C21.9762 20.9007 22.006 20.8613 22.0511 20.834C22.1436 20.7779 22.2787 20.7843 22.4927 20.8869C22.5721 20.9249 22.7054 20.9902 22.8712 21.0715C22.9262 21.0984 22.9848 21.1271 23.0462 21.1572C23.2928 21.2779 23.5849 21.4203 23.8726 21.5581C24.1603 21.696 24.4433 21.829 24.6718 21.9307C24.7861 21.9817 24.8864 22.0246 24.9667 22.0564C25.0482 22.0887 25.1057 22.1081 25.1361 22.1138C25.1713 22.1204 25.1957 22.146 25.2122 22.173C25.2291 22.2005 25.2422 22.2364 25.2528 22.2769C25.274 22.3583 25.2876 22.4692 25.2958 22.5975C25.3121 22.8547 25.3071 23.1911 25.2928 23.5234C25.2785 23.8559 25.2548 24.1856 25.2336 24.43C25.223 24.5522 25.213 24.6533 25.2051 24.7229C25.2011 24.7575 25.1977 24.7849 25.1948 24.8032C25.1935 24.8121 25.192 24.8201 25.1906 24.8261L25.1906 24.8262C25.1901 24.8282 25.1886 24.8342 25.1856 24.84C25.1847 24.8418 25.1829 24.8451 25.1798 24.8486C25.1773 24.8516 25.1705 24.8589 25.1588 24.8624C25.1525 24.8644 25.1463 24.8648 25.1404 24.864H25.1074L25.0962 24.8368Z" fill="black"/>
<path fill-rule="evenodd" clip-rule="evenodd" d="M23.748 23.0713C23.7217 23.0889 25.708 24.249 25.1104 25.2422C25.6729 24.8643 25.4971 24.2139 25.4971 24.2139C25.4971 24.2139 25.9541 25.418 24.8291 26.0068C24.9521 26.1123 25.0312 26.0947 25.0312 26.0947L24.8379 26.2793C24.8379 26.2793 24.75 26.4287 25.5059 26.0596C25.3037 26.2266 25.2861 26.3496 25.2861 26.3496C25.2861 26.3496 25.3389 26.5078 25.8311 26.0771C25.4355 26.5078 25.3477 26.7275 25.3477 26.7187C26.4287 26.6309 28.7754 23.1152 24.6094 22.0869L24.7939 22.2803L23.7393 23.0713H23.748Z" fill="#DE3108"/>
<path fill-rule="evenodd" clip-rule="evenodd" d="M24.5747 22.0666C24.5835 22.0514 24.6013 22.0438 24.6184 22.048C25.6653 22.3065 26.3094 22.7227 26.6657 23.2082C27.0225 23.6944 27.0867 24.2449 26.9845 24.7627C26.8824 25.2797 26.6143 25.7656 26.3038 26.1278C26.1484 26.309 25.9817 26.4602 25.8187 26.5691C25.6579 26.6765 25.4981 26.7445 25.3549 26.7573C25.3475 26.7588 25.3375 26.7587 25.3271 26.7526C25.3138 26.7447 25.31 26.7323 25.309 26.7286C25.3077 26.7238 25.3076 26.7199 25.3076 26.7183C25.3076 26.7092 25.3107 26.7008 25.3158 26.6942L25.3168 26.6924C25.3199 26.6865 25.325 26.6766 25.3325 26.6632C25.3474 26.6362 25.3713 26.5952 25.4076 26.5404C25.4439 26.4857 25.4925 26.4173 25.557 26.3356C25.4804 26.3826 25.4236 26.4051 25.381 26.4132C25.3364 26.4218 25.3035 26.4153 25.2802 26.4004C25.269 26.3932 25.2613 26.3848 25.2563 26.3775C25.2538 26.3739 25.252 26.3706 25.2507 26.3679C25.2501 26.3666 25.2495 26.3653 25.2491 26.3643L25.2485 26.3628L25.2483 26.3622L25.2482 26.3619L25.2482 26.3618C25.2481 26.3617 25.2481 26.3616 25.2856 26.3491C25.2465 26.3435 25.2465 26.3435 25.2465 26.3435L25.2465 26.3434L25.2465 26.3433L25.2466 26.343L25.2467 26.3423L25.247 26.3404C25.2473 26.3388 25.2477 26.3368 25.2483 26.3344C25.2495 26.3295 25.2513 26.3228 25.2541 26.3146C25.2597 26.298 25.2693 26.2751 25.2854 26.247C25.2955 26.2295 25.3081 26.21 25.3238 26.1889C25.2318 26.231 25.157 26.2626 25.0964 26.286C24.9975 26.3243 24.934 26.3416 24.8927 26.3466C24.8722 26.3491 24.8541 26.349 24.8388 26.3447C24.8224 26.3401 24.8069 26.3299 24.7992 26.3121C24.7923 26.2962 24.7949 26.2815 24.797 26.274C24.7981 26.2698 24.7995 26.2664 24.8006 26.264C24.8012 26.2627 24.8017 26.2616 24.8022 26.2608L24.8028 26.2596L24.8031 26.2592L24.8032 26.2589L24.8033 26.2589C24.8033 26.2588 24.8033 26.2588 24.8374 26.2788L24.8033 26.2588C24.8052 26.2556 24.8075 26.2527 24.8101 26.2502L24.9446 26.1218C24.9059 26.1087 24.8578 26.0834 24.8029 26.0364C24.7929 26.0278 24.7878 26.0149 24.7893 26.0019C24.7908 25.9888 24.7986 25.9774 24.8103 25.9713C25.3582 25.6845 25.5194 25.2501 25.545 24.8863C25.5509 24.8031 25.5496 24.7236 25.5442 24.6504C25.5064 24.8564 25.3987 25.0953 25.1319 25.2745C25.1165 25.2849 25.096 25.2831 25.0826 25.2704C25.0692 25.2576 25.0664 25.2372 25.076 25.2213C25.2174 24.9863 25.2071 24.7412 25.1088 24.501C25.01 24.2594 24.8228 24.0251 24.6151 23.8184C24.4078 23.6122 24.1824 23.4359 24.01 23.3097C23.9326 23.253 23.8661 23.2066 23.8166 23.1721C23.811 23.1682 23.8056 23.1644 23.8004 23.1608C23.7752 23.1433 23.755 23.129 23.7414 23.1188C23.7369 23.1155 23.7327 23.1122 23.7289 23.1091C23.7161 23.1058 23.7056 23.0963 23.7013 23.0833C23.6959 23.0672 23.7014 23.0494 23.715 23.0392L24.7341 22.2749L24.5803 22.1137C24.5681 22.101 24.5659 22.0818 24.5747 22.0666ZM23.8072 23.0689C23.8177 23.0764 23.8306 23.0854 23.8457 23.096C23.8508 23.0996 23.8562 23.1033 23.8618 23.1072C23.9113 23.1417 23.9785 23.1886 24.0567 23.2458C24.2306 23.3732 24.4596 23.5522 24.6708 23.7624C24.8817 23.9721 25.0774 24.2152 25.182 24.471C25.2662 24.6767 25.2919 24.8921 25.2183 25.104C25.3887 24.9397 25.4542 24.7456 25.4749 24.5809C25.4876 24.4798 25.4834 24.39 25.476 24.3254C25.4723 24.2932 25.4678 24.2674 25.4643 24.2498C25.4625 24.241 25.461 24.2343 25.4599 24.2299C25.4594 24.2277 25.459 24.226 25.4587 24.225L25.4585 24.2239L25.4584 24.2237L25.4584 24.2237L25.4584 24.2237C25.4529 24.2033 25.4643 24.1823 25.4844 24.1758C25.5045 24.1693 25.5261 24.1796 25.5336 24.1993L25.4966 24.2134C25.5336 24.1993 25.5336 24.1994 25.5336 24.1994L25.5336 24.1995L25.5337 24.1997L25.534 24.2005L25.5351 24.2034C25.536 24.2059 25.5372 24.2095 25.5389 24.2142C25.5421 24.2236 25.5466 24.2373 25.5519 24.2548C25.5625 24.2899 25.5762 24.3404 25.5891 24.4027C25.6149 24.5273 25.6374 24.6999 25.6239 24.8918C25.5977 25.2649 25.4349 25.7099 24.9011 26.0119C24.9365 26.0355 24.9652 26.0464 24.9854 26.0515C24.9998 26.0551 25.0103 26.0558 25.0165 26.0558C25.0196 26.0558 25.0217 26.0556 25.0226 26.0555C25.0229 26.0555 25.023 26.0554 25.0231 26.0554C25.0402 26.0521 25.0574 26.0602 25.0657 26.0756C25.074 26.0913 25.0709 26.1106 25.0581 26.1228L24.9111 26.2632C24.9446 26.2558 24.9946 26.2406 25.0679 26.2123C25.1645 26.1749 25.2996 26.1156 25.488 26.0235C25.506 26.0148 25.5278 26.0208 25.5386 26.0377C25.5495 26.0545 25.546 26.0768 25.5306 26.0896C25.4328 26.1704 25.3811 26.2393 25.354 26.2864C25.3417 26.3079 25.3344 26.3249 25.3302 26.3366C25.3367 26.3381 25.3479 26.339 25.3661 26.3355C25.4296 26.3234 25.5589 26.2618 25.8045 26.0469C25.8203 26.0331 25.8442 26.034 25.8589 26.049C25.8735 26.0641 25.8739 26.0879 25.8597 26.1034C25.6632 26.3173 25.5437 26.4783 25.4735 26.5841C25.4517 26.617 25.4346 26.6446 25.4215 26.6668C25.5291 26.6428 25.6493 26.5871 25.7747 26.5033C25.9307 26.3991 26.0921 26.2531 26.2437 26.0763C26.547 25.7225 26.8079 25.2488 26.9069 24.7473C27.0057 24.2467 26.9431 23.7199 26.6019 23.255C26.2752 22.8098 25.6896 22.4165 24.7331 22.1593L24.8221 22.2525C24.8299 22.2607 24.8338 22.2718 24.8329 22.2831C24.8319 22.2943 24.8262 22.3046 24.8172 22.3114L23.8072 23.0689ZM25.2856 26.3491L25.2465 26.3435C25.2456 26.3496 25.2462 26.3558 25.2481 26.3616L25.2856 26.3491Z" fill="black"/>
<path fill-rule="evenodd" clip-rule="evenodd" d="M23.8363 22.7283C24.1 22.9217 24.1967 22.992 24.2319 23.0799C23.9858 23.0271 23.766 23.0447 23.766 23.0447C23.766 23.0447 23.2299 22.535 23.1332 22.491C23.0629 22.491 22.641 22.2273 22.641 22.2273C22.4389 22.1219 22.2455 21.41 23.0102 21.6121C23.3035 21.7651 23.6058 21.9001 23.9154 22.0164L24.8559 22.3152L25.4008 22.9217C25.4008 22.9217 24.434 22.4471 24.311 22.4383C24.5746 22.6492 24.724 22.948 24.724 22.948C24.4164 22.8602 24.1528 22.7723 23.8363 22.7283Z" fill="white"/>
<path fill-rule="evenodd" clip-rule="evenodd" d="M22.5416 22.0428C22.5746 22.1177 22.6198 22.1724 22.6588 22.1928C22.6597 22.1932 22.6606 22.1937 22.6615 22.1943L22.6662 22.1972L22.6796 22.2055C22.6912 22.2127 22.7079 22.2229 22.7281 22.2352C22.7686 22.2599 22.8233 22.2927 22.88 22.3254C22.9369 22.3582 22.9955 22.3907 23.0439 22.4149C23.0681 22.4271 23.0892 22.4368 23.1059 22.4434C23.1143 22.4467 23.121 22.449 23.1262 22.4504C23.131 22.4518 23.133 22.4519 23.133 22.4519C23.133 22.452 23.1329 22.452 23.1327 22.452C23.1384 22.452 23.144 22.4532 23.1491 22.4555C23.1657 22.463 23.1879 22.4784 23.2116 22.4964C23.2363 22.5151 23.2658 22.5392 23.2979 22.5664C23.3623 22.6208 23.4388 22.689 23.512 22.7556C23.5853 22.8222 23.6554 22.8875 23.7073 22.936C23.7332 22.9603 23.7546 22.9804 23.7695 22.9945L23.7803 23.0047C23.7863 23.0044 23.7937 23.0041 23.8024 23.0038C23.8275 23.0029 23.8635 23.0024 23.9072 23.0035C23.9728 23.0052 24.0563 23.0106 24.1472 23.0247C24.1331 23.0096 24.1155 22.993 24.0936 22.9742C24.0343 22.9234 23.9475 22.8597 23.8182 22.7649L23.8125 22.7607L23.8359 22.7288L23.8413 22.6896C24.1045 22.7262 24.3321 22.7929 24.5747 22.8641C24.5967 22.8705 24.6188 22.877 24.6411 22.8835C24.6255 22.8581 24.6063 22.8282 24.5834 22.7953C24.5144 22.6961 24.4136 22.5719 24.2858 22.4697C24.2722 22.4588 24.2673 22.4405 24.2736 22.4244C24.2799 22.4082 24.296 22.3981 24.3133 22.3993C24.3351 22.4009 24.3688 22.4114 24.4061 22.4249C24.4452 22.439 24.4938 22.4586 24.5481 22.4816C24.6567 22.5276 24.7896 22.588 24.9182 22.6479C25.0342 22.7019 25.1471 22.7557 25.2361 22.7985L24.8332 22.3502L23.903 22.0546C23.9023 22.0544 23.9017 22.0542 23.9011 22.0539C23.5913 21.9376 23.2888 21.8026 22.9953 21.6497C22.8105 21.6015 22.6912 21.6104 22.6176 21.6445C22.5461 21.6776 22.5114 21.7376 22.5018 21.81C22.492 21.884 22.5091 21.9692 22.5416 22.0428ZM25.4003 22.9222C25.3829 22.9577 25.3829 22.9577 25.3829 22.9577L25.372 22.9524C25.365 22.9489 25.3545 22.9438 25.3412 22.9373C25.3146 22.9243 25.2764 22.9058 25.2301 22.8835C25.1377 22.8389 25.0132 22.7794 24.8848 22.7196C24.7564 22.6598 24.6245 22.5999 24.5172 22.5544C24.5027 22.5483 24.4886 22.5424 24.4751 22.5368C24.5455 22.6107 24.6036 22.6858 24.6484 22.7502C24.6842 22.8017 24.7117 22.8466 24.7303 22.8787C24.7396 22.8948 24.7467 22.9077 24.7515 22.9166C24.7539 22.9211 24.7557 22.9246 24.7569 22.927L24.7584 22.9297L24.7588 22.9305L24.7589 22.9307L24.7589 22.9308C24.7589 22.9308 24.7589 22.9308 24.7236 22.9485L24.7589 22.9308C24.7659 22.9449 24.764 22.9617 24.754 22.9738C24.744 22.9859 24.7278 22.9909 24.7127 22.9866C24.6573 22.9707 24.6035 22.955 24.5507 22.9395C24.3608 22.8838 24.1838 22.8319 23.9924 22.7949C24.056 22.8422 24.106 22.8807 24.145 22.9141C24.2082 22.9682 24.247 23.0128 24.2681 23.0657C24.2735 23.0792 24.271 23.0947 24.2616 23.1059C24.2522 23.117 24.2374 23.1221 24.2231 23.119C24.1031 23.0933 23.9892 23.0847 23.9052 23.0826C23.8632 23.0815 23.8288 23.082 23.8051 23.0828C23.7932 23.0832 23.784 23.0837 23.7778 23.084C23.7747 23.0842 23.7723 23.0844 23.7708 23.0845L23.7691 23.0846L23.7688 23.0846C23.7688 23.0846 23.7688 23.0846 23.7688 23.0846M23.7655 23.0452L23.7383 23.0739L23.7323 23.0682L23.7152 23.052C23.7003 23.038 23.6791 23.0179 23.6532 22.9937C23.6015 22.9453 23.5317 22.8804 23.4588 22.8141C23.3858 22.7477 23.3102 22.6803 23.2469 22.6268C23.2152 22.6 23.1869 22.577 23.1638 22.5594C23.1442 22.5446 23.1302 22.5351 23.1215 22.5302C23.1254 22.5307 23.1291 22.5311 23.1327 22.5311V22.4915L23.1164 22.5275C23.1178 22.5282 23.1195 22.5291 23.1215 22.5302C23.107 22.5281 23.091 22.5225 23.0769 22.517C23.0571 22.5091 23.0337 22.4983 23.0085 22.4857C22.958 22.4604 22.8979 22.427 22.8405 22.3939C22.783 22.3608 22.7278 22.3276 22.687 22.3028C22.6666 22.2904 22.6498 22.2801 22.638 22.2728L22.6244 22.2644L22.6208 22.2622C22.5593 22.2294 22.5051 22.1561 22.4692 22.0747C22.4325 21.9916 22.4112 21.8916 22.4234 21.7997C22.4357 21.7062 22.4834 21.6195 22.5844 21.5727C22.6827 21.5272 22.8247 21.5228 23.0198 21.5744C23.0226 21.5751 23.0254 21.5762 23.028 21.5775C23.3196 21.7296 23.6201 21.8638 23.9279 21.9795L24.8674 22.278C24.8741 22.2802 24.8801 22.284 24.8848 22.2893L25.4297 22.8957C25.4424 22.9098 25.4433 22.9309 25.4319 22.946C25.4204 22.9611 25.3999 22.966 25.3829 22.9577L25.4003 22.9222M23.7688 23.0846C23.7688 23.0846 23.7688 23.0846 23.7688 23.0846C23.7576 23.0855 23.7464 23.0816 23.7383 23.0739L23.7655 23.0452" fill="black"/>
<path fill-rule="evenodd" clip-rule="evenodd" d="M20.0833 18.4869C20.0621 18.4921 20.0406 18.4792 20.0353 18.458C20.0301 18.4368 20.043 18.4154 20.0642 18.4101L20.0737 18.4485C20.0642 18.4101 20.0642 18.4101 20.0642 18.4101L20.0747 18.4075C20.0815 18.4059 20.0915 18.4034 20.1043 18.4003C20.1298 18.3941 20.1664 18.3853 20.2106 18.3749C20.2991 18.3539 20.4183 18.3264 20.5411 18.3C20.6639 18.2736 20.7907 18.2481 20.8943 18.2315C20.9461 18.2232 20.9927 18.2169 21.0303 18.2139C21.0492 18.2124 21.0663 18.2117 21.0812 18.212C21.0953 18.2123 21.11 18.2135 21.1225 18.2173C21.1434 18.2238 21.1551 18.2459 21.1487 18.2668C21.1422 18.2877 21.1201 18.2994 21.0992 18.2929C21.0974 18.2924 21.0915 18.2913 21.0796 18.2911C21.0683 18.2908 21.054 18.2914 21.0366 18.2928C21.002 18.2955 20.9577 18.3014 20.9069 18.3096C20.8053 18.3259 20.68 18.351 20.5578 18.3773C20.4356 18.4036 20.317 18.431 20.2288 18.4518C20.1848 18.4623 20.1483 18.471 20.1229 18.4772C20.1103 18.4803 20.1003 18.4827 20.0936 18.4844L20.0833 18.4869Z" fill="white"/>
<path fill-rule="evenodd" clip-rule="evenodd" d="M-11.25 37.5029H56.25V45H-11.25V37.5029Z" fill="#DE3908"/>
</g>
<defs>
<clipPath id="clip0_200_70127">
<rect width="60" height="45" fill="white" transform="translate(-7.5)"/>
</clipPath>
</defs>
</svg>
