<svg width="45" height="45" viewBox="0 0 45 45" fill="none" xmlns="http://www.w3.org/2000/svg">
<g clip-path="url(#clip0_200_67299)">
<path fill-rule="evenodd" clip-rule="evenodd" d="M-7.5 0H78V3.46289H-7.5V0ZM-7.5 6.92578H78V10.3887H-7.5V6.92578ZM-7.5 13.8428H78V17.3145H-7.5V13.8428ZM-7.5 20.7686H78V24.2314H-7.5V20.7686ZM-7.5 27.6943H78V31.1572H-7.5V27.6943ZM-7.5 34.6113H78V38.0742H-7.5V34.6113ZM-7.5 41.5371H78V45H-7.5V41.5371Z" fill="#BD3D44"/>
<path fill-rule="evenodd" clip-rule="evenodd" d="M-7.5 3.46289H78V6.92578H-7.5V3.46289ZM-7.5 10.3887H78V13.8428H-7.5V10.3887ZM-7.5 17.3057H78V20.7686H-7.5V17.3057ZM-7.5 24.2314H78V27.6943H-7.5V24.2314ZM-7.5 31.1572H78V34.6201H-7.5V31.1572ZM-7.5 38.0742H78V41.5371H-7.5V38.0742Z" fill="white"/>
<path fill-rule="evenodd" clip-rule="evenodd" d="M-7.5 0H26.6982V24.2314H-7.5V0Z" fill="#192F5D"/>
<path fill-rule="evenodd" clip-rule="evenodd" d="M-4.65234 1.03711L-4.33594 1.99512H-3.33398L-4.14258 2.58398L-3.83496 3.55078L-4.65234 2.95312L-5.46094 3.54199L-5.15332 2.58398L-5.9707 1.99512H-4.95117L-4.65234 1.03711ZM1.05176 1.03711L1.35938 1.99512H2.37012L1.55273 2.58398L1.86035 3.55078L1.05176 2.95312L0.234375 3.54199L0.541992 2.58398L-0.266601 1.99512H0.735352L1.05176 1.03711ZM6.74707 1.03711L7.06348 1.99512H8.05664L7.24805 2.58398L7.55567 3.55078L6.73828 2.95312L5.92969 3.54199L6.23731 2.58398L5.41992 1.99512H6.43067L6.74707 1.03711ZM12.4512 1.03711L12.7588 1.99512H13.7695L12.9522 2.58398L13.2686 3.55078L12.4512 2.95312L11.6338 3.54199L11.9502 2.58398L11.1328 1.99512H12.1348L12.4512 1.03711ZM18.1465 1.03711L18.4629 1.99512H19.4648L18.6563 2.58398L18.9639 3.55078L18.1465 2.95312L17.3379 3.54199L17.6455 2.58398L16.8369 1.99512H17.8389L18.1465 1.03711ZM23.8506 1.03711L24.1582 1.99512H25.1689L24.3516 2.58398L24.668 3.55078L23.8506 2.95312L23.0332 3.54199L23.3496 2.58398L22.5322 1.99512H23.543L23.8506 1.03711ZM-1.7959 3.46289L-1.48828 4.4209H-0.477539L-1.29492 5.00977L-0.996093 5.96777L-1.78711 5.37891L-2.60449 5.96777L-2.31445 5.00977L-3.10547 4.4209H-2.10352L-1.7959 3.46289ZM3.89941 3.46289L4.21582 4.4209H5.21777L4.40039 5.00977L4.7168 5.96777L3.89941 5.37891L3.08203 5.96777L3.39844 5.00977L2.58105 4.4209H3.5918L3.89941 3.46289ZM9.60352 3.46289L9.91113 4.4209H10.9219L10.1045 5.00977L10.4121 5.96777L9.60352 5.37891L8.78613 5.96777L9.09375 5.00977L8.28516 4.4209H9.28711L9.60352 3.46289ZM15.2988 3.46289L15.6152 4.4209H16.6172L15.7998 5.00977L16.1162 5.96777L15.2988 5.37891L14.4902 5.96777L14.7979 5.00977L13.9805 4.4209H15L15.2988 3.46289ZM21.0029 3.46289L21.3105 4.4209H22.3213L21.5039 5.00977L21.8115 5.96777L21.0029 5.37891L20.1856 5.96777L20.4932 5.00977L19.6846 4.4209H20.6865L21.0029 3.46289ZM-4.65234 5.87988L-4.33594 6.85547H-3.33398L-4.14258 7.44433L-3.83496 8.40234L-4.65234 7.80469L-5.46094 8.40234L-5.15332 7.43555L-5.9707 6.84668H-4.95117L-4.65234 5.87988ZM1.05176 5.87988L1.35938 6.84668H2.37012L1.55273 7.43555L1.86035 8.39355L1.05176 7.7959L0.234375 8.39355L0.541992 7.42676L-0.266601 6.83789H0.735352L1.05176 5.87988ZM6.74707 5.87988L7.06348 6.84668H8.05664L7.24805 7.43555L7.55567 8.39355L6.73828 7.7959L5.92969 8.39355L6.23731 7.42676L5.41992 6.83789H6.43067L6.74707 5.87988ZM12.4512 5.87988L12.7588 6.84668H13.7695L12.9522 7.43555L13.2686 8.39355L12.4512 7.7959L11.6338 8.39355L11.9502 7.42676L11.1328 6.83789H12.1348L12.4512 5.87988ZM18.1465 5.87988L18.4629 6.84668H19.4648L18.6563 7.43555L18.9639 8.39355L18.1465 7.7959L17.3379 8.39355L17.6455 7.42676L16.8369 6.83789H17.8389L18.1465 5.87988ZM23.8506 5.87988L24.1582 6.84668H25.1689L24.3516 7.43555L24.668 8.39355L23.8506 7.7959L23.0332 8.39355L23.3496 7.42676L22.5322 6.83789H23.543L23.8506 5.87988ZM-1.7959 8.30566L-1.48828 9.26367H-0.477539L-1.29492 9.85254L-0.987305 10.8193L-1.7959 10.2217L-2.61328 10.8105L-2.30566 9.85254L-3.11426 9.26367H-2.1123L-1.7959 8.30566ZM3.89941 8.30566L4.21582 9.26367H5.21777L4.40039 9.85254L4.7168 10.8193L3.89941 10.2217L3.08203 10.8105L3.39844 9.85254L2.58105 9.26367H3.5918L3.89941 8.30566ZM9.60352 8.30566L9.91113 9.26367H10.9219L10.1045 9.85254L10.4121 10.8193L9.60352 10.2217L8.78613 10.8105L9.09375 9.85254L8.28516 9.26367H9.28711L9.60352 8.30566ZM15.2988 8.30566L15.6152 9.26367H16.6172L15.8086 9.85254L16.1162 10.8193L15.2988 10.2217L14.4902 10.8105L14.7979 9.85254L13.9805 9.26367H15L15.2988 8.30566ZM21.0029 8.30566L21.3105 9.26367H22.3213L21.5039 9.85254L21.8115 10.8193L21.0029 10.2217L20.1856 10.8105L20.4932 9.85254L19.6846 9.26367H20.6865L21.0029 8.30566ZM-4.65234 10.7314L-4.33594 11.6895H-3.33398L-4.14258 12.2783L-3.83496 13.2451L-4.65234 12.6475L-5.46094 13.2363L-5.15332 12.2783L-5.9707 11.6895H-4.95117L-4.65234 10.7314ZM1.05176 10.7314L1.35938 11.6895H2.37012L1.55273 12.2783L1.86035 13.2363L1.05176 12.6475L0.234375 13.2363L0.541992 12.2783L-0.266601 11.6895H0.735352L1.05176 10.7314ZM6.74707 10.7314L7.06348 11.6895H8.05664L7.24805 12.2783L7.55567 13.2451L6.73828 12.6475L5.92969 13.2363L6.23731 12.2783L5.41992 11.6895H6.43067L6.74707 10.7314ZM12.4512 10.7314L12.7588 11.6895H13.7695L12.9522 12.2783L13.2686 13.2451L12.4512 12.6475L11.6338 13.2363L11.9502 12.2783L11.1328 11.6895H12.1348L12.4512 10.7314ZM18.1465 10.7314L18.4629 11.6895H19.4648L18.6563 12.2783L18.9639 13.2451L18.1465 12.6475L17.3379 13.2363L17.6455 12.2783L16.8369 11.6895H17.8389L18.1465 10.7314ZM23.8506 10.7314L24.1582 11.6895H25.1689L24.3516 12.2783L24.668 13.2451L23.8506 12.6475L23.0332 13.2363L23.3496 12.2783L22.5322 11.6895H23.543L23.8506 10.7314ZM-1.7959 13.1572L-1.48828 14.1152H-0.477539L-1.29492 14.7041L-0.987305 15.6621L-1.7959 15.0645L-2.61328 15.6621L-2.30566 14.6953L-3.11426 14.1064H-2.1123L-1.7959 13.1572ZM3.89941 13.1572L4.21582 14.1152H5.21777L4.40039 14.7041L4.7168 15.6621L3.89941 15.0645L3.08203 15.6621L3.39844 14.6953L2.58105 14.1064H3.5918L3.89941 13.1572ZM9.60352 13.1572L9.91113 14.1152H10.9219L10.1045 14.7041L10.4121 15.6621L9.60352 15.0645L8.78613 15.6621L9.09375 14.6953L8.28516 14.1064H9.28711L9.60352 13.1572ZM15.2988 13.1572L15.6152 14.1152H16.6172L15.8086 14.7041L16.1162 15.6621L15.2988 15.0645L14.4902 15.6621L14.7979 14.6953L13.9805 14.1064H15L15.2988 13.1572ZM21.0029 13.1572L21.3105 14.1152H22.3213L21.5039 14.7041L21.8115 15.6621L21.0029 15.0645L20.1856 15.6621L20.4932 14.6953L19.6846 14.1064H20.6865L21.0029 13.1572ZM-4.65234 15.5742L-4.33594 16.541H-3.33398L-4.14258 17.1299L-3.83496 18.0791L-4.65234 17.4902L-5.46094 18.0791L-5.15332 17.1211L-5.9707 16.5322H-4.95117L-4.65234 15.5742ZM1.05176 15.5742L1.35938 16.541H2.37012L1.55273 17.1299L1.86914 18.0791L1.05176 17.4902L0.234375 18.0791L0.550781 17.1211L-0.266601 16.5322H0.735352L1.05176 15.5742ZM6.74707 15.5742L7.06348 16.541H8.05664L7.24805 17.1299L7.55567 18.0791L6.73828 17.4902L5.92969 18.0791L6.23731 17.1211L5.41992 16.5322H6.43067L6.74707 15.5742ZM12.4512 15.5742L12.7588 16.541H13.7695L12.9522 17.1299L13.2686 18.0791L12.4512 17.4902L11.6338 18.0791L11.9502 17.1211L11.1328 16.5322H12.1348L12.4512 15.5742ZM18.1465 15.5742L18.4629 16.541H19.4648L18.6563 17.1299L18.9639 18.0791L18.1465 17.4902L17.3379 18.0791L17.6455 17.1211L16.8369 16.5322H17.8389L18.1465 15.5742ZM23.8506 15.5742L24.1582 16.541H25.1689L24.3516 17.1299L24.668 18.0791L23.8506 17.4902L23.0332 18.0791L23.3496 17.1211L22.5322 16.5322H23.543L23.8506 15.5742ZM-1.7959 18L-1.48828 18.958H-0.477539L-1.29492 19.5469L-0.987305 20.5137L-1.7959 19.916L-2.61328 20.5049L-2.30566 19.5469L-3.11426 18.958H-2.1123L-1.7959 18ZM3.89941 18L4.21582 18.958H5.21777L4.40039 19.5469L4.7168 20.5137L3.89941 19.916L3.08203 20.5049L3.39844 19.5469L2.58105 18.958H3.5918L3.89941 18ZM9.60352 18L9.91113 18.958H10.9219L10.1045 19.5469L10.4121 20.5137L9.60352 19.916L8.78613 20.5049L9.09375 19.5469L8.28516 18.958H9.28711L9.60352 18ZM15.2988 18L15.6152 18.958H16.6172L15.8086 19.5469L16.1162 20.5137L15.2988 19.916L14.4902 20.5049L14.7979 19.5469L13.9805 18.958H15L15.2988 18ZM21.0029 18L21.3105 18.958H22.3213L21.5039 19.5469L21.8115 20.5137L21.0029 19.916L20.1856 20.5049L20.4932 19.5469L19.6846 18.958H20.6865L21.0029 18ZM-4.65234 20.4258L-4.33594 21.3838H-3.33398L-4.14258 21.9727L-3.83496 22.9307L-4.65234 22.3418L-5.46094 22.9307L-5.15332 21.9639L-5.9707 21.375H-4.95117L-4.65234 20.4258ZM1.05176 20.4258L1.35938 21.3838H2.37012L1.55273 21.9727L1.86914 22.9307L1.05176 22.3418L0.234375 22.9307L0.550781 21.9639L-0.266601 21.375H0.735352L1.05176 20.4258ZM6.74707 20.4258L7.06348 21.3838H8.05664L7.26563 21.9727L7.57324 22.9307L6.75586 22.3418L5.94727 22.9307L6.25488 21.9639L5.4375 21.375H6.44824L6.74707 20.4258ZM12.4512 20.4258L12.7588 21.3838H13.7695L12.9522 21.9727L13.2686 22.9307L12.4512 22.3418L11.6338 22.9307L11.9502 21.9639L11.1328 21.375H12.1348L12.4512 20.4258ZM18.1465 20.4258L18.4629 21.3838H19.4648L18.6563 21.9727L18.9639 22.9307L18.1465 22.3418L17.3379 22.9307L17.6455 21.9639L16.8369 21.375H17.8389L18.1465 20.4258ZM23.8506 20.4258L24.1582 21.3838H25.1689L24.3516 21.9727L24.668 22.9307L23.8506 22.3418L23.0332 22.9307L23.3496 21.9639L22.5322 21.375H23.543L23.8506 20.4258Z" fill="white"/>
</g>
<defs>
<clipPath id="clip0_200_67299">
<rect width="60" height="45" fill="white" transform="translate(-7.5)"/>
</clipPath>
</defs>
</svg>
