<svg width="45" height="45" viewBox="0 0 45 45" fill="none" xmlns="http://www.w3.org/2000/svg">
<g clip-path="url(#clip0_200_67266)">
<path fill-rule="evenodd" clip-rule="evenodd" d="M-7.5 0H52.5V45H-7.5V0Z" fill="#4B92DB"/>
<path d="M26.0377 33.0191C25.8745 33.1962 25.6957 33.3581 25.5033 33.5029C24.3108 32.2654 22.9046 30.9041 21.5714 30.9041C20.7446 30.9041 20.1539 31.5341 19.4564 31.9729C18.4946 32.5916 17.1727 32.9404 16.0421 32.4848C15.4026 32.2658 14.8348 31.8769 14.3996 31.3598C14.8783 31.6584 15.4209 31.8395 15.983 31.8884C16.5451 31.9373 17.1108 31.8525 17.6339 31.641C18.7421 31.1798 19.8783 30.5666 21.1439 30.5666C23.0114 30.5666 24.7889 31.8323 26.0377 33.0191ZM12.2227 29.1379C13.4602 30.5441 15.4796 30.0941 17.1277 30.4429C17.3583 30.4991 17.5777 30.5723 17.8252 30.5329C17.6283 30.4091 17.3639 30.3923 17.1389 30.3079C15.8564 29.8241 15.6596 28.4516 14.9564 27.5123C15.8564 28.1085 16.5933 28.9185 17.4314 29.6891C18.0222 30.1777 18.7367 30.4931 19.4958 30.6004C19.3158 30.6679 19.0796 30.6566 18.8771 30.7016C17.5271 31.0391 16.0308 31.5679 14.5908 31.0954C13.5866 30.7606 12.7439 30.0623 12.2283 29.1379H12.2227ZM10.2427 25.8754C11.0133 27.6248 12.9539 27.7654 14.2364 28.8341C14.4664 29.0384 14.7216 29.2123 14.9958 29.3516L15.0127 29.3404C14.6956 29.0639 14.4106 28.7526 14.1633 28.4123C13.4264 27.3435 13.6683 25.881 13.1002 24.7448C13.6279 25.3314 14.0658 25.9929 14.3996 26.7079C14.8777 27.8441 15.0408 29.1435 16.1152 30.0098C14.9508 29.6273 13.6121 29.7004 12.5714 29.0198C11.4689 28.2998 10.4508 27.1635 10.2427 25.881V25.8754ZM9.41581 22.3429C9.52831 23.8841 11.1596 24.7054 11.9471 25.971C12.1158 26.241 12.2846 26.5223 12.5264 26.736C12.4871 26.5729 12.3577 26.4266 12.2789 26.2691C12.0207 25.7005 11.9178 25.0736 11.9808 24.4523C12.0539 23.6648 12.3802 22.9335 12.2564 22.1066C12.9314 23.5635 12.7121 25.3804 13.1002 26.9498C13.1902 27.2985 13.3983 27.6023 13.5277 27.9341C12.8696 27.4279 12.0033 26.9779 11.2777 26.4154C10.5543 25.8953 9.98951 25.1845 9.64643 24.3623C9.42555 23.7135 9.34689 23.0248 9.41581 22.3429ZM9.46081 19.5079C9.53956 19.1648 9.60143 18.8104 9.74768 18.4954C9.46643 19.9466 10.4339 20.9929 10.7602 22.2529C10.8839 22.7254 10.9289 23.226 11.1202 23.6704C11.1371 23.676 11.1539 23.6591 11.1652 23.6479C10.6871 22.3091 11.3902 21.0716 12.0652 20.0198C12.2306 19.7312 12.3483 19.4178 12.4139 19.0916C12.4871 19.6991 12.3577 20.3966 12.2452 21.021C12.1046 21.8254 11.8289 22.5791 11.6096 23.3554C11.4908 23.8613 11.4812 24.3867 11.5814 24.8966L11.5083 24.8404C11.0021 23.9066 10.0008 23.1754 9.70268 22.1516C9.41771 21.3012 9.3349 20.396 9.46081 19.5079ZM9.99518 17.9441C10.0136 16.9109 10.3915 15.9163 11.0639 15.1316C11.0808 15.1204 11.0977 15.1035 11.1202 15.1091C10.4114 16.1779 11.0583 17.5391 10.9627 18.7598L10.8727 20.0085C10.8839 20.0198 10.8839 20.0591 10.9177 20.0423C10.9627 19.9016 10.9739 19.7554 10.9964 19.6091C11.1652 18.5966 12.0539 17.8991 12.8021 17.1904C12.9751 17.027 13.1096 16.8272 13.1958 16.6054C13.1339 17.1116 12.9933 17.6235 12.7683 18.0791C12.1889 19.2491 11.0752 20.1941 10.8727 21.5273C10.7771 20.2504 9.99518 19.2998 9.99518 17.9441ZM11.8514 14.2373C12.1748 13.8485 12.605 13.563 13.0889 13.416C12.1608 14.0516 12.2114 15.1823 11.9302 16.1273C11.8289 16.4704 11.6771 16.7966 11.5927 17.151L11.6208 17.1735C11.7866 16.7481 12.0461 16.3654 12.3802 16.0541C13.0271 15.4466 14.0002 15.0754 14.3208 14.181C14.3039 15.4241 13.2464 16.3691 12.2789 17.1004C11.8482 17.4253 11.498 17.8449 11.2552 18.3266C11.2889 17.9891 11.3114 17.6966 11.2777 17.3648C11.1764 16.2791 11.1089 15.0585 11.8571 14.2373H11.8514ZM15.5921 12.1504C14.9114 12.7523 14.4558 13.5229 13.9271 14.2148C13.4939 14.7941 12.8921 15.1485 12.3802 15.6323C12.6614 15.0585 12.7064 14.3948 13.0608 13.8379C13.6627 12.8816 14.6639 12.5104 15.5921 12.1504Z" fill="white"/>
<path d="M30.8441 24.563L30.6473 24.4505C30.2196 25.3293 29.653 26.1334 28.9691 26.8317L27.7973 25.6505C28.3637 25.0654 28.8294 24.3907 29.1754 23.6536L28.9785 23.5411C28.6399 24.2615 28.1836 24.9205 27.6285 25.4911L26.5598 24.4223C27.0122 23.9549 27.3802 23.4125 27.6473 22.8192L27.4504 22.7067C27.1933 23.2824 26.838 23.809 26.4004 24.263L25.2285 23.0911C25.5508 22.7482 25.8052 22.3474 25.9785 21.9098L25.7816 21.7973C25.6178 22.2142 25.376 22.596 25.0691 22.9223L23.991 21.8536C24.2937 21.5169 24.4723 21.0869 24.4973 20.6348H26.016C26.0046 21.0329 25.9254 21.426 25.7816 21.7973L25.9785 21.9098C26.14 21.5035 26.2289 21.0719 26.241 20.6348H27.9098C27.8927 21.3497 27.7334 22.0541 27.441 22.7067L27.6473 22.8192C27.9544 22.1311 28.1202 21.3883 28.1348 20.6348H29.6535C29.6367 21.6404 29.4066 22.631 28.9785 23.5411L29.1754 23.6536C29.6187 22.7081 29.8552 21.679 29.8691 20.6348H31.5473C31.5316 21.9574 31.2243 23.2603 30.6473 24.4505L30.8441 24.563C31.4576 23.3075 31.7782 21.9291 31.7816 20.5317C31.7828 19.3397 31.5536 18.1587 31.1066 17.0536L30.9004 17.1473C31.3206 18.1877 31.5431 19.2973 31.5566 20.4192H29.8785C29.8685 19.5201 29.6937 18.6304 29.3629 17.7942L29.1566 17.888C29.4781 18.6939 29.6497 19.5517 29.6629 20.4192H28.1254C28.1148 19.7584 27.9879 19.1047 27.7504 18.488L27.5441 18.5817C27.7689 19.1688 27.8895 19.7906 27.9004 20.4192H26.2504C26.2396 20.0159 26.1636 19.617 26.0254 19.238L25.8191 19.3317C25.9449 19.681 26.0145 20.0481 26.0254 20.4192H24.5066C24.4816 19.9672 24.303 19.5372 24.0004 19.2005L25.0785 18.1223C25.4043 18.4679 25.6563 18.8762 25.8191 19.3223L26.0254 19.238C25.8521 18.764 25.5841 18.3302 25.2379 17.963L26.4191 16.7817C26.9165 17.2996 27.3053 17.9115 27.5629 18.5817L27.7691 18.488C27.4972 17.7925 27.0892 17.1582 26.5691 16.6223L27.6473 15.5536C28.2998 16.2278 28.8127 17.0243 29.1566 17.8973L29.3629 17.8036C29.0044 16.9054 28.4724 16.0867 27.7973 15.3942L28.9785 14.213C29.805 15.0559 30.458 16.0529 30.9004 17.1473L31.1066 17.0536C30.6389 15.9017 29.9438 14.8559 29.0629 13.9786C28.1811 13.092 27.1286 12.3935 25.9691 11.9255L25.8941 12.1411C26.9878 12.5807 27.9848 13.2305 28.8285 14.0536L27.6473 15.2348C26.9662 14.5749 26.164 14.0528 25.2848 13.6973L25.191 13.9036C26.0466 14.2501 26.8267 14.7595 27.4879 15.4036L26.4191 16.4723C25.9047 15.9751 25.3002 15.5805 24.6379 15.3098L24.5629 15.5161C25.1899 15.7755 25.7624 16.1508 26.2504 16.6223L25.0785 17.8036C24.7508 17.4939 24.3696 17.2461 23.9535 17.0723L23.8691 17.288C24.2567 17.4483 24.6123 17.677 24.9191 17.963L23.8316 19.0317C23.4949 18.7291 23.0649 18.5505 22.6129 18.5255V17.0067C23.0416 17.0203 23.4643 17.1125 23.8598 17.2786L23.9441 17.0723C23.522 16.8946 23.0707 16.7961 22.6129 16.7817V15.113C23.2785 15.1235 23.9364 15.257 24.5535 15.5067L24.6379 15.3005C23.9942 15.0391 23.3076 14.8992 22.6129 14.888V13.3692C23.4974 13.3829 24.3716 13.5609 25.191 13.8942L25.266 13.688C24.4223 13.3474 23.5227 13.1662 22.6129 13.1536V11.4755C23.7348 11.489 24.8444 11.7115 25.8848 12.1317L25.9598 11.9161C24.8593 11.4779 23.6849 11.2552 22.5004 11.2598C21.062 11.257 19.6429 11.5909 18.3566 12.2348L18.4504 12.4223C19.6747 11.8149 21.0212 11.4943 22.3879 11.4848V13.1536C21.2912 13.1669 20.2115 13.4264 19.2285 13.913L19.3316 14.1005C20.2832 13.632 21.3274 13.3821 22.3879 13.3692V14.888C21.5751 14.903 20.7753 15.095 20.0441 15.4505L20.1379 15.6473C20.8404 15.3085 21.6081 15.1262 22.3879 15.113V16.7817C21.878 16.7983 21.377 16.9196 20.916 17.138L21.0098 17.3255C21.4427 17.1267 21.9116 17.0182 22.3879 17.0067V18.5255C22.1622 18.538 21.9403 18.5887 21.7316 18.6755L21.8254 18.863C22.0404 18.779 22.2696 18.7376 22.5004 18.7411C22.7334 18.7402 22.9643 18.7853 23.1799 18.8738C23.3954 18.9623 23.5914 19.0924 23.7566 19.2567C23.9249 19.4234 24.0581 19.6221 24.1483 19.841C24.2384 20.06 24.2838 20.2949 24.2816 20.5317C24.2816 21.0041 24.094 21.4572 23.7599 21.7912C23.4259 22.1253 22.9728 22.313 22.5004 22.313C22.2667 22.3126 22.0354 22.266 21.8198 22.1759C21.6042 22.0858 21.4086 21.954 21.2441 21.788C21.0781 21.6235 20.9463 21.4279 20.8562 21.2123C20.7661 20.9967 20.7195 20.7654 20.7191 20.5317C20.7182 20.2965 20.7642 20.0634 20.8544 19.8461C20.9445 19.6288 21.077 19.4316 21.2441 19.2661C21.4107 19.1009 21.6082 18.9703 21.8254 18.8817L21.7223 18.6848C21.5162 18.7714 21.3261 18.8918 21.1598 19.0411L20.091 17.963C20.3648 17.7053 20.6782 17.4932 21.0191 17.3348L20.916 17.1473C20.5552 17.3126 20.223 17.5341 19.9316 17.8036L18.7504 16.6223C19.1595 16.2299 19.6277 15.904 20.1379 15.6567L20.0441 15.4692C19.5136 15.7264 19.0265 16.0648 18.6004 16.4723L17.5223 15.3755C18.0556 14.8592 18.666 14.429 19.3316 14.1005L19.2379 13.913C18.5487 14.2507 17.9161 14.6935 17.3629 15.2255L16.1816 14.0348C16.8531 13.3828 17.6216 12.8389 18.4598 12.4223L18.3566 12.2255C16.5469 13.1354 15.0825 14.6096 14.1848 16.4255L14.3723 16.5192C14.7961 15.662 15.353 14.8772 16.0223 14.1942L17.2129 15.3848C16.6586 15.9546 16.1996 16.6098 15.8535 17.3255L16.041 17.4286C16.3762 16.7299 16.8226 16.0903 17.3629 15.5348L18.441 16.6036C18.0043 17.0567 17.6462 17.5795 17.3816 18.1505L17.5691 18.2536C17.8264 17.7022 18.1751 17.1982 18.6004 16.763L19.7816 17.9442C19.4741 18.2666 19.2265 18.6412 19.0504 19.0505L19.2473 19.163C19.4095 18.7714 19.6414 18.4124 19.9316 18.1036L21.0098 19.1723C20.7058 19.5119 20.5272 19.9453 20.5035 20.4005H18.9848C18.9967 19.9755 19.0857 19.5562 19.2473 19.163L19.0598 19.0505C18.8763 19.4778 18.7746 19.9357 18.7598 20.4005H17.091C17.1041 19.6589 17.2701 18.9281 17.5785 18.2536L17.391 18.1598C17.0627 18.8623 16.8839 19.6253 16.866 20.4005H15.3473C15.3641 19.3707 15.604 18.3567 16.0504 17.4286L15.8535 17.3255C15.392 18.2857 15.1457 19.3352 15.1316 20.4005H13.4535C13.4699 19.0567 13.7871 17.7337 14.3816 16.5286L14.1848 16.4255C13.5558 17.6963 13.2286 19.095 13.2285 20.513C13.2284 21.3982 13.3547 22.279 13.6035 23.1286L13.8191 23.0723C13.5861 22.2772 13.4631 21.454 13.4535 20.6255H15.1316C15.1394 21.3147 15.2435 21.9995 15.441 22.6598L15.6566 22.6036C15.4614 21.962 15.3573 21.2961 15.3473 20.6255H16.8754C16.8844 21.1728 16.9728 21.716 17.1379 22.238L17.3629 22.1817C17.1999 21.6786 17.1115 21.1542 17.1004 20.6255H18.7504C18.7623 21.0156 18.8351 21.4015 18.966 21.7692L19.1816 21.713C19.0561 21.3636 18.9864 20.9966 18.9754 20.6255H20.4941C20.5192 21.0775 20.6978 21.5075 21.0004 21.8442L19.9223 22.9223C19.5956 22.5739 19.3436 22.1623 19.1816 21.713L18.966 21.7692C19.1403 22.2581 19.4149 22.7052 19.7723 23.0817L18.5816 24.263C18.0167 23.672 17.5935 22.9603 17.3441 22.1817L17.1191 22.238C17.3832 23.0572 17.8323 23.8046 18.4316 24.4223L17.3629 25.5005C16.5753 24.6869 15.9935 23.6969 15.666 22.613L15.4504 22.6692C15.7873 23.7919 16.3885 24.8174 17.2035 25.6598L16.0316 26.8411C15.0004 25.7873 14.2439 24.4964 13.8285 23.0817L13.6035 23.138C14.0408 24.6269 14.847 25.9812 15.9473 27.0755C16.6909 27.8227 17.5564 28.4377 18.5066 28.8942L18.6191 28.6973C17.7186 28.27 16.895 27.6966 16.1816 27.0005L17.3629 25.8192C17.9683 26.4026 18.6691 26.8782 19.4348 27.2255L19.5473 27.038C18.798 26.6984 18.113 26.2322 17.5223 25.6598L18.591 24.5911C19.0863 25.0671 19.6646 25.4484 20.2973 25.7161L20.4098 25.5192C19.7942 25.2623 19.2316 24.8936 18.7504 24.4317L19.9316 23.2505C20.309 23.6044 20.756 23.8758 21.2441 24.0473L21.3473 23.8505C20.8796 23.6888 20.4515 23.43 20.091 23.0911L21.1691 22.013C21.5059 22.3156 21.9358 22.4942 22.3879 22.5192V24.038C22.0367 24.0273 21.6891 23.9641 21.3566 23.8505L21.2348 24.038C21.6048 24.1734 21.994 24.2493 22.3879 24.263V25.9317C21.7084 25.9201 21.0372 25.7802 20.4098 25.5192L20.2973 25.7067C20.959 25.989 21.6686 26.1418 22.3879 26.1567V27.6755C21.4072 27.6607 20.4402 27.4437 19.5473 27.038L19.4348 27.2255C20.3616 27.6531 21.3673 27.883 22.3879 27.9005V29.5692C21.0833 29.5552 19.7973 29.2577 18.6191 28.6973L18.5066 28.8848C19.753 29.4831 21.1179 29.7939 22.5004 29.7942C23.9816 29.7942 25.4066 29.4473 26.6816 28.8005L26.5691 28.5942C25.3425 29.218 23.9889 29.5516 22.6129 29.5692V27.8911C23.7205 27.8755 24.8102 27.6095 25.8004 27.113L25.7066 26.9161C24.7455 27.3971 23.6876 27.6536 22.6129 27.6661V26.1661C23.4476 26.1473 24.2675 25.9423 25.0129 25.5661L24.9098 25.3692C24.1953 25.7247 23.4108 25.9168 22.6129 25.9317V24.263C23.1432 24.2483 23.6642 24.1204 24.141 23.888L24.0473 23.6817C23.6 23.9013 23.1109 24.0228 22.6129 24.038V22.5192C23.0649 22.4942 23.4949 22.3156 23.8316 22.013L24.9098 23.0911C24.6503 23.3304 24.3564 23.5295 24.0379 23.6817L24.141 23.888C24.4807 23.7234 24.7936 23.5085 25.0691 23.2505L26.2504 24.4223C25.8541 24.8041 25.4021 25.1234 24.9098 25.3692L25.0035 25.5661C25.5197 25.3116 25.9939 24.9796 26.4098 24.5817L27.4785 25.6505C26.9529 26.1608 26.3522 26.5877 25.6973 26.9161L25.8098 27.113C26.482 26.7744 27.0986 26.3349 27.6379 25.8098L28.8098 26.9911C28.1487 27.6363 27.3932 28.1769 26.5691 28.5942L26.6816 28.8005C27.5587 28.3548 28.3593 27.7725 29.0535 27.0755C29.7864 26.3437 30.3916 25.4945 30.8441 24.563Z" fill="white"/>
<path d="M23.0343 18.3752H22.978V18.4408H23.0343V18.3752ZM22.8937 18.2814H22.9687V18.3377H22.8937V18.2814ZM22.7624 18.2627L22.8187 18.2721L22.828 18.2158H22.7624V18.2627ZM22.7062 18.2439H22.6405V18.1783L22.7155 18.1877L22.7062 18.2439ZM22.1624 18.1689H22.2374V18.2252H22.1624V18.1689ZM22.003 18.2814L22.0687 18.2908V18.2346H22.0124L22.003 18.2814ZM22.003 18.3752L21.9374 18.3471V18.2908L22.0218 18.3189L22.003 18.3752ZM21.8718 18.4408V18.3846L21.9187 18.3752L21.928 18.4314L21.8718 18.4408ZM14.503 24.2158V24.1689H14.4562V24.2627H14.5312V24.3846H14.5874V24.2439L14.503 24.2158ZM15.2062 25.0596L15.1124 24.9658L15.028 24.8627L14.9905 24.7689L14.9249 24.6002L15.0655 24.6752L15.1124 24.8064L15.178 24.8533L15.2437 24.9939L15.2062 25.0596ZM17.1468 27.6002L17.1374 27.5158L17.053 27.4033L17.1749 27.4221L17.2874 27.5252L17.3437 27.6471L17.2687 27.6846L17.2405 27.6283L17.1468 27.6002ZM22.2093 18.9846H22.1155L22.0874 18.7783L22.1437 18.7408V18.6377H21.8155V18.5346L21.853 18.5064L21.778 18.4783L21.7218 18.5533L21.703 18.6377L21.6093 18.6564V18.7033H21.5437V18.8252L21.2812 19.0408L20.7562 19.0221C20.728 19.1158 20.6343 19.0221 20.6343 19.0221C20.6062 18.9564 20.4843 19.0221 20.4843 19.0221C20.4843 19.1158 20.2968 18.9658 20.2968 18.9658L19.978 18.7314C19.7905 18.5627 19.5093 18.7783 19.4999 18.8252C19.4999 18.9564 19.2843 18.8533 19.2843 18.8533C19.2843 18.8533 19.0968 18.7971 19.0687 18.8721C19.0405 18.9471 18.9187 18.9283 18.9187 18.9283L18.8999 18.9658L18.8062 18.9846L18.7874 19.0408L18.6749 19.0596H18.9562C19.0312 19.0408 18.928 19.2189 18.8812 19.2096H18.7499L18.703 19.2658H18.5812L18.5249 19.3408L18.3468 19.3314C18.3468 19.3314 18.253 19.4158 18.253 19.4439C18.2624 19.4721 18.2343 19.5564 18.2062 19.5564C18.178 19.5564 18.1218 19.6502 18.1405 19.6689C18.1593 19.6971 18.0843 19.7908 18.0843 19.7908L18.0655 19.8846L18.0093 19.9127V20.1658L17.8968 20.2408V20.3533L17.728 20.5408L17.7468 20.6814L17.6062 20.8408L17.6249 20.9908L17.5405 21.0189L17.5218 21.0846L17.4843 21.2814L17.578 21.2908C17.6249 21.2721 17.6155 21.4127 17.578 21.4408C17.5405 21.4596 17.4374 21.4971 17.4937 21.5346C17.5499 21.5721 17.3437 21.5627 17.3437 21.5064C17.3437 21.4408 17.2312 21.3939 17.203 21.4127C17.1749 21.4314 17.128 21.3283 17.128 21.3283C17.0343 21.2346 16.7155 21.3377 16.7155 21.3377L16.6687 21.4971C16.5655 21.5064 16.4999 21.6846 16.4999 21.6846C16.4062 21.7127 16.3499 21.8158 16.378 21.8439C16.4062 21.8721 16.3312 21.8814 16.3312 21.8814V22.0877L16.2843 22.1533V22.3877C16.3499 22.3877 16.3405 22.4814 16.3405 22.4814C16.2468 22.5002 16.2655 22.6221 16.2655 22.6221L16.0687 22.6877L16.0312 22.7439H15.7874L15.7218 22.8002L15.6562 22.7346H15.1874L15.1687 22.6877L15.0749 22.6689V22.5658H14.9249L14.8968 22.6314L14.7468 22.6408C14.7562 22.7346 14.5968 22.8752 14.578 22.8377C14.5593 22.8002 14.4562 22.6971 14.503 22.6783C14.5583 22.6618 14.6147 22.6493 14.6718 22.6408V22.5752L14.3249 22.5658L14.2874 22.6221L14.1468 22.6314V22.7814L14.0812 22.8002C14.0343 22.8283 14.0905 22.9314 14.0905 22.9314C14.1562 22.9971 14.0905 23.1096 14.0905 23.1096C14.0249 23.1658 14.128 23.2689 14.128 23.2689C14.203 23.2877 14.0812 23.3439 14.0812 23.3439C14.0999 23.4377 14.1562 23.4658 14.1562 23.4658C14.0999 23.5596 14.1937 23.6064 14.1937 23.6064L14.203 23.7658L14.2687 23.8033V23.9158L14.3062 23.9814H14.4562V23.7377C14.3155 23.5877 14.5593 23.5502 14.5687 23.6064C14.578 23.6627 14.6812 23.7002 14.6812 23.7002C14.6999 23.8408 14.8687 23.9252 14.9062 23.7752C14.953 23.6346 14.9999 23.7189 15.0187 23.7846C15.0468 23.8596 15.2249 24.0189 15.2249 24.0189H15.3655L15.3843 24.1502C15.5437 24.1408 15.5905 24.1502 15.6562 24.3752C15.6719 24.4379 15.7022 24.496 15.7445 24.5449C15.7868 24.5937 15.8401 24.6319 15.8999 24.6564L16.0312 24.6471C16.0312 24.5252 16.1624 24.6658 16.1624 24.7221C16.1624 24.7783 16.4155 24.9939 16.4155 24.9939L16.6687 25.0502L16.903 25.2377L17.0812 25.2189H17.1562C17.203 25.0596 17.428 25.2283 17.4374 25.2846C17.4562 25.3408 17.6062 25.4439 17.6249 25.3971C17.6437 25.3502 17.7468 25.3783 17.7655 25.5189C17.7843 25.6596 17.8593 25.6314 17.8593 25.6314L18.3843 25.6221L18.5718 25.4627L19.0499 25.4533C19.2937 25.4439 19.1437 25.1064 19.0968 25.1064C19.0124 25.0408 19.1249 24.7689 19.1249 24.7689L18.4405 24.1314C18.2812 24.1314 18.4218 23.9064 18.4218 23.9064C18.5437 23.8314 18.3937 23.7002 18.3937 23.7002C18.4124 23.5877 18.328 23.4564 18.328 23.4564C18.1593 23.3439 18.2062 23.1283 18.2062 23.1283V22.9689C18.0655 22.8377 18.2624 22.8189 18.2624 22.8189C18.328 22.7064 18.2155 22.6221 18.2155 22.6221V22.5002L18.0562 22.4814L18.0374 22.0314L17.6999 21.5533C17.6343 21.5346 17.6812 21.4127 17.6812 21.4127C17.7749 21.3658 17.6624 21.2533 17.6624 21.2533V21.0471L17.8499 21.0283L17.8968 20.9533H17.9905V20.7096C18.028 20.5783 18.1405 20.6439 18.1405 20.6439L18.2718 20.6533L18.3468 20.5127L18.3655 20.4002H18.2718C18.1499 20.3252 18.2062 20.0814 18.2062 20.0814C18.3937 19.8096 18.5905 19.9689 18.5905 19.9689L18.7218 19.9596C18.9187 20.0908 18.7405 20.3346 18.7405 20.3346C18.703 20.3908 18.7218 20.5689 18.7218 20.5689L18.7687 20.8783L18.6468 20.9721C18.553 21.0377 18.553 21.1689 18.6562 21.1971C18.7312 21.2064 18.703 21.3846 18.5905 21.2627C18.4218 21.2627 18.6843 21.4127 18.6093 21.3752C18.778 21.4689 18.7405 21.3002 18.7405 21.3002L18.9655 21.1221C19.0593 21.0564 19.1999 21.2627 19.1999 21.2908C19.1999 21.3189 19.5749 21.3002 19.5749 21.3002C19.6687 21.3658 19.7155 21.5439 19.7155 21.5439C19.8093 21.4033 20.0343 21.5346 19.8749 21.6096C20.0249 21.7033 20.0249 21.7877 20.0249 21.7877C20.1468 21.7502 20.1468 21.8439 20.1468 21.8721L20.1843 21.7314C20.0437 21.6283 20.3718 21.5908 20.278 21.7783L20.2218 21.8627L20.3155 21.9377V22.1533C20.5312 22.1346 20.4749 21.8814 20.4749 21.8814L20.5687 21.8627C20.5687 21.7689 20.6343 21.8252 20.6343 21.8252C20.5687 21.5064 20.7843 21.4502 20.7843 21.4502C20.9062 21.4127 20.9155 21.1596 20.9155 21.1596C20.8218 21.1221 20.878 20.9908 20.9718 21.1033C21.0655 21.2158 20.9155 20.8783 20.9155 20.8783L20.8405 20.8127L20.7374 20.8033L20.728 20.7002H20.5593L20.5312 20.8314L20.4655 20.8502L20.4468 20.8127L20.4187 20.9064H20.2499L20.2405 20.8033L20.3343 20.7752L20.3812 20.7189L20.4093 20.5596H20.5312L20.6905 20.5127C20.6905 20.3533 20.7843 20.3908 20.7843 20.3908L20.8405 20.4377L20.9249 20.5033V20.5596L20.878 20.5877L20.8687 20.6627L20.8968 20.7752H20.9624C20.9905 20.6158 21.1874 20.6158 21.2437 20.7189L21.2999 20.5783C21.1687 20.5127 21.2999 20.4096 21.3374 20.4564C21.3749 20.5033 21.4593 20.3346 21.4593 20.3346C21.4593 20.3346 21.5249 20.4283 21.4593 20.3064C21.3937 20.1939 21.5062 20.1377 21.5062 20.1377C21.4874 20.0252 21.628 20.0439 21.628 20.0439L21.6374 19.8846H21.5062C21.478 20.0158 21.3655 19.8939 21.4218 19.8658C21.478 19.8377 21.5343 19.7814 21.5343 19.7814V19.6877L21.5905 19.6689L21.5999 19.5752H21.7405L21.8624 19.5189L21.8905 19.4721L22.0218 19.4627L22.2093 19.2939L22.1905 19.2189C22.078 19.2189 22.1905 19.1252 22.1905 19.1252L22.2093 18.9846Z" fill="white"/>
<path d="M18.4407 20.8684L18.2719 20.8496L18.2813 20.9152H18.3282C18.4032 21.0465 18.3376 21.3652 18.3376 21.3652C18.3376 21.3652 18.2251 21.3746 18.2063 21.3184C18.1876 21.2621 18.1407 21.4402 18.1782 21.4777C18.2157 21.5059 18.3469 21.4777 18.3657 21.5715C18.3657 21.684 18.4407 21.5152 18.4407 21.5152V20.859V20.8684Z" fill="white"/>
<path d="M18.4402 21.6746L18.4965 21.6652L18.5059 21.5996L18.3652 21.6934L18.2715 21.6371V21.8621L18.4215 22.059L18.4777 21.9277L18.4965 21.8434L18.4309 21.8152L18.4402 21.6746ZM18.5152 22.2746V22.1809H18.4496V22.2652L18.5152 22.2746ZM18.4309 22.7246V22.659L18.3559 22.6684V22.734L18.4309 22.7246ZM18.5434 22.434C18.5545 22.434 18.5653 22.4295 18.5732 22.4216C18.5811 22.4137 18.5855 22.403 18.5855 22.3918C18.5855 22.3806 18.5811 22.3699 18.5732 22.362C18.5653 22.3541 18.5545 22.3496 18.5434 22.3496C18.5375 22.3494 18.5318 22.3506 18.5265 22.353C18.5212 22.3555 18.5165 22.3591 18.5129 22.3637C18.5092 22.3682 18.5067 22.3735 18.5055 22.3792C18.5043 22.3849 18.5044 22.3908 18.5059 22.3965C18.5059 22.4152 18.5246 22.434 18.5434 22.434Z" fill="white"/>
<path d="M18.6098 22.6316C18.6305 22.6316 18.6473 22.6149 18.6473 22.5941C18.6473 22.5734 18.6305 22.5566 18.6098 22.5566C18.5891 22.5566 18.5723 22.5734 18.5723 22.5941C18.5723 22.6149 18.5891 22.6316 18.6098 22.6316Z" fill="white"/>
<path d="M18.6098 21.5438C18.6305 21.5438 18.6473 21.527 18.6473 21.5062C18.6473 21.4855 18.6305 21.4688 18.6098 21.4688C18.5891 21.4688 18.5723 21.4855 18.5723 21.5062C18.5723 21.527 18.5891 21.5438 18.6098 21.5438Z" fill="white"/>
<path d="M21.7877 20.1098L21.6939 20.1004L21.6658 20.1473H21.6189V20.2223H21.6658L21.6752 20.2785L21.6377 20.316L21.6189 20.3629L21.5439 20.3817L21.3752 20.541V20.616L21.3189 20.6817L21.2627 20.8317H21.0752L21.0283 21.0098L21.0564 21.1504L21.2252 21.216L21.2439 21.1223L21.3002 21.0942L21.3096 21.0004L21.3471 20.9348L21.4033 20.8692L21.4221 20.7942L21.5158 20.7379L21.6283 20.7098L21.6752 20.6535L21.6939 20.541V20.4567L21.7408 20.4004L21.8533 20.3535V20.166H21.7971L21.7877 20.1098ZM22.0502 20.7567V20.616L22.0314 20.4942L21.8908 20.4285L21.7971 20.5223L21.7689 20.6535V20.7473L21.6752 20.766L21.6564 21.0192L21.5814 21.0473L21.5908 21.141L21.4971 21.1692L21.3846 21.1973L21.3658 21.3192L21.2908 21.366L21.2533 21.4879L21.2064 21.7598C21.2064 21.7598 21.3002 21.9192 21.3377 21.8442C21.3846 21.7692 21.4596 21.7504 21.4596 21.7504L21.4877 21.6942H21.7408C21.7596 21.6004 21.8814 21.6379 21.8814 21.6848C21.8814 21.7317 21.9752 21.6848 21.9752 21.6848L22.0408 21.591H22.1439L22.1533 21.4692L22.2002 21.441V21.2817C22.3502 21.2348 22.3314 21.0942 22.3314 21.0942L22.3689 21.0473L22.3502 20.9817C22.2752 20.9535 22.3127 20.8879 22.3596 20.9067C22.4064 20.9254 22.2939 20.8129 22.2939 20.8129C22.2377 20.8692 22.2002 20.766 22.2002 20.766H22.0502V20.7567ZM22.2002 21.9004C22.2002 22.0129 22.0502 22.0504 22.0502 22.0504L21.9564 22.0223L21.8908 21.9754V21.8442L21.9658 21.8348L21.9846 21.891L22.2002 21.9004ZM22.7064 21.291C22.7252 21.3848 22.7252 21.1598 22.7627 21.1692C22.8002 21.1785 22.7721 21.0379 22.7721 21.0379L22.6033 21.1598C22.6877 21.1692 22.6971 21.2535 22.7064 21.291ZM23.2033 20.8035C23.2408 20.8879 23.2314 21.0098 23.3721 21.1035C23.4189 21.1317 23.3439 21.1973 23.2971 21.1692C23.2264 21.0979 23.1635 21.0194 23.1096 20.9348V20.8129C23.1471 20.7379 23.1846 20.766 23.2033 20.8035ZM23.2314 23.7098L23.2596 23.7567L23.3252 23.6629L23.2689 23.6348L23.2033 23.6817L23.2314 23.7098ZM22.9689 23.5317V23.6442V23.5317ZM24.3189 23.4004L24.3939 23.3535L24.3658 23.2973L24.2908 23.3442L24.3189 23.4004ZM25.6783 25.5004L25.7627 25.5473V25.7067C25.8846 25.8192 26.2502 25.7254 26.2502 25.6973L26.2314 25.341L26.1846 25.2942L26.1752 25.0598C26.2127 24.9379 25.9877 24.7598 25.9783 24.7973C25.9596 24.8348 25.8377 24.7973 25.8377 24.8442C25.8377 24.8817 25.7627 25.0692 25.8002 25.1348C25.8377 25.2004 25.7721 25.2004 25.7627 25.266C25.7533 25.3317 25.6596 25.4535 25.6689 25.5098L25.6783 25.5004ZM25.4721 25.1254C25.4533 25.2004 25.3783 25.2379 25.3502 25.2192C25.3127 25.1817 25.3971 25.2567 25.4158 25.2942C25.4346 25.3317 25.4908 25.3317 25.5096 25.2942C25.5283 25.2567 25.5096 25.1723 25.5377 25.1348C25.5564 25.0973 25.4814 25.0879 25.4721 25.1348V25.1254ZM25.0314 23.3817H25.0971V23.5692H25.0314V23.3817ZM26.0064 21.5629C25.9596 21.5067 26.1939 21.4035 26.2314 21.5254C26.2689 21.6379 26.2314 21.6192 26.1939 21.6098C26.1564 21.6004 26.0627 21.6379 26.0064 21.5629ZM26.2033 20.2879V20.3442L26.2971 20.3629L26.3064 20.3067L26.2033 20.2879ZM25.7814 20.4379L25.8564 20.4848H25.8846L25.9408 20.4473V20.466L25.9971 20.4473L25.9783 20.4004V20.3723L25.9408 20.3817L25.8752 20.4285L25.8096 20.3817L25.7814 20.4379ZM27.6564 18.0004H27.5158C27.5158 18.0004 27.5627 18.0192 27.4221 17.8973C27.3002 17.7754 27.2158 17.9254 27.2158 17.9254L27.0658 17.9442V18.0942L26.9908 18.1223V18.216H27.1033C27.1033 18.216 27.1033 18.3192 27.1314 18.2723C27.1596 18.2254 27.3939 18.2817 27.3752 18.4035C27.3658 18.4504 27.6096 18.5723 27.5814 18.7223C27.7033 18.741 27.6752 18.8629 27.6752 18.8629L27.8346 18.8817L27.8814 18.7879L27.9283 18.7973V18.741L27.8252 18.7129L27.8064 18.4035L27.7408 18.3567L27.7596 18.2817L27.6846 18.2535L27.7221 18.1317L27.6564 18.0004ZM28.0596 18.966H27.9846L27.8158 18.9848L27.7221 19.1723C27.7221 19.1723 27.7689 19.2004 27.8158 19.266C27.8439 19.3317 27.8627 19.716 27.7502 19.7817C27.6377 19.8473 27.7596 19.8098 27.7596 19.8098L27.7408 20.0254C27.7689 20.1192 27.8158 20.0723 27.8439 20.0254C27.8721 19.9785 27.9002 19.9692 27.9377 19.9223C27.9752 19.8754 28.0314 19.7817 28.0408 19.716C28.0502 19.6504 28.0971 19.5473 28.0689 19.5192C28.0408 19.491 28.0971 19.3598 28.0971 19.3598C28.0971 19.3598 28.1346 19.2848 28.0971 19.2098C28.0596 19.1348 28.1064 19.041 28.1346 19.0035L28.0596 18.966ZM28.1721 19.3598L28.1814 19.2848H28.2377V19.3598H28.1721ZM28.1721 19.6223L28.1252 19.5942L28.1533 19.5379L28.2002 19.566L28.1721 19.6223ZM28.0877 18.8723L28.0502 18.7785C28.0502 18.7785 28.0502 18.7035 28.0689 18.666C28.0877 18.6285 28.0314 18.591 28.0033 18.5723C27.9752 18.5723 27.9846 18.4973 27.9752 18.4598C27.9752 18.4223 27.9002 18.3942 27.9002 18.3942L27.8814 18.216C27.8814 18.1879 27.7971 18.1504 27.8252 18.1223L27.9002 18.0379C27.9283 18.0192 27.8721 17.8879 27.9189 17.916C27.9658 17.9442 27.9658 17.991 27.9846 18.0285C28.0033 18.066 27.9846 18.1973 28.0221 18.2254C28.0689 18.2535 28.0221 18.3567 28.0877 18.3567C28.1627 18.3567 28.1158 18.5348 28.1158 18.5348C28.1158 18.5348 28.0971 18.666 28.1439 18.6754C28.1908 18.6848 28.1627 18.9098 28.1627 18.9098L28.0877 18.8629V18.8723ZM27.4877 17.3254C27.5158 17.3629 27.5721 17.391 27.5721 17.4285C27.5721 17.466 27.5533 17.4942 27.6096 17.5035C27.6658 17.5129 27.7033 17.5035 27.7221 17.541C27.7408 17.5879 27.7408 17.6723 27.7221 17.7098C27.7221 17.7473 27.7408 17.8035 27.7877 17.8035C27.8346 17.8035 27.8439 17.8035 27.8439 17.841C27.8439 17.8692 27.9002 17.7379 27.9002 17.7379C27.8533 17.7004 27.8064 17.616 27.8064 17.616L27.7689 17.4567C27.7689 17.4379 27.7033 17.4192 27.6752 17.4098C27.6471 17.4098 27.6002 17.316 27.6002 17.316L27.4877 17.3254ZM27.5814 17.241C27.5533 17.2035 27.5252 17.1754 27.4877 17.1567C27.4502 17.1379 27.4221 17.1192 27.3846 17.1192C27.3738 17.1187 27.3632 17.1155 27.3539 17.11C27.3447 17.1044 27.3369 17.0966 27.3313 17.0874C27.3257 17.0781 27.3226 17.0676 27.322 17.0568C27.3215 17.046 27.3237 17.0352 27.3283 17.0254C27.3471 16.9879 27.3002 16.9692 27.3002 16.9317C27.3002 16.8942 27.3283 16.8942 27.3752 16.9223C27.4221 16.9504 27.4127 16.9598 27.4502 17.0067C27.4877 17.0535 27.5064 17.1004 27.5439 17.091C27.5814 17.0817 27.6096 17.1754 27.6377 17.1473C27.6846 17.1192 27.6752 17.2129 27.6752 17.2129L27.5814 17.241ZM26.4846 18.3098C26.5314 18.366 26.2033 18.3473 26.2033 18.3098C26.2033 18.2723 26.2314 18.141 26.3158 18.1692C26.4002 18.1973 26.4096 18.0004 26.4096 18.0004C26.4096 18.0004 26.3346 18.0098 26.4002 17.9723C26.4658 17.9348 26.4002 17.8785 26.3721 17.8504L26.3158 17.7754H26.4471C26.5033 17.7379 26.5221 17.5598 26.5221 17.5598C26.6346 17.5973 26.6908 17.5129 26.6908 17.5129L26.7471 17.6254C26.7846 17.6723 26.6533 17.691 26.7002 17.7192C26.7471 17.7473 26.7658 17.8317 26.7471 17.8598C26.7283 17.8879 26.6252 17.8598 26.6252 17.8317C26.6252 17.8035 26.5877 17.8785 26.6252 17.9254C26.6627 17.9723 26.5783 18.0379 26.5596 18.0379C26.5408 18.0379 26.4189 18.0567 26.5221 18.1129C26.6158 18.1692 26.7377 18.141 26.7377 18.141C26.7377 18.141 26.8221 18.141 26.8502 18.1785C26.8783 18.2254 26.8408 18.2348 26.7939 18.2348L26.5127 18.216C26.5127 18.216 26.4564 18.2817 26.4846 18.3098ZM25.8846 18.4035C25.9314 18.3942 26.0439 18.3848 26.0721 18.4035C26.0814 18.441 25.9971 18.4785 25.9971 18.4785L25.8846 18.4973C25.8471 18.4504 25.8377 18.4035 25.8846 18.4035ZM27.0939 17.6067C27.1689 17.5692 27.3283 17.5692 27.3189 17.5129C27.3096 17.4473 27.4127 17.4285 27.4127 17.4285L27.4408 17.541L27.5252 17.6067V17.7004L27.4596 17.7192C27.3564 17.7473 27.4221 17.7942 27.4221 17.7942H27.1877L27.1596 17.7004L27.0846 17.6067H27.0939ZM26.7189 17.091C26.7846 17.091 26.7096 17.3067 26.8596 17.2879C27.0096 17.2692 26.8596 17.3535 26.9814 17.3629C27.0939 17.3723 27.0658 17.2785 27.1033 17.2129C27.1408 17.1473 27.1221 17.1098 27.0564 17.091C26.9908 17.0723 26.9908 17.0723 26.9627 16.9973C26.9533 16.9223 26.8689 16.9035 26.8689 16.9035L26.8502 16.791L26.7283 16.866L26.6064 17.0254C26.6064 17.1473 26.6721 17.091 26.7283 17.091H26.7189ZM26.9721 17.8879L27.0002 17.8317L27.0564 17.8598L27.0283 17.916L26.9721 17.8879ZM26.8783 17.7942H26.9346V17.8692H26.8783V17.7942ZM26.9252 16.5379V16.6223H26.8783L26.8689 16.5473L26.9252 16.5379ZM26.7658 17.4192H26.8221V17.466H26.7658V17.4192ZM26.6158 17.4192V17.3629H26.7096V17.4098L26.6158 17.4192ZM25.8471 18.3379L25.7908 18.3098L25.8189 18.2442L25.8752 18.2723L25.8471 18.3379ZM25.5471 18.1598V18.1035H25.6408V18.1504L25.5471 18.1598ZM23.9252 18.141L23.7189 18.1504V18.2067H23.9346L23.9252 18.141ZM23.5877 18.2254L23.5689 18.141L23.6252 18.1317L23.6439 18.216L23.5877 18.2254ZM23.5502 18.2817L23.5314 18.2348L23.5596 18.2254L23.5783 18.2723L23.5502 18.2817ZM24.0189 18.1223L24.0096 18.1879L24.1033 18.1973C24.1033 18.1973 24.1502 18.2348 24.1502 18.2629C24.1502 18.291 24.2158 18.3192 24.2533 18.3192C24.2908 18.3192 24.3939 18.2442 24.3939 18.2442C24.3939 18.2442 24.4408 18.1129 24.4033 18.1223C24.3658 18.1317 24.2908 18.1879 24.2814 18.1317C24.2814 18.0754 24.1596 18.1035 24.1596 18.1035L24.0096 18.1223H24.0189ZM24.4877 18.0285C24.4877 18.0473 24.4596 18.0848 24.5158 18.0942C24.5721 18.1035 24.6752 18.0567 24.6846 18.1129C24.6939 18.1692 24.6939 18.2067 24.7783 18.2348C24.8318 18.2576 24.889 18.2704 24.9471 18.2723L25.1346 18.2535C25.1346 18.2535 25.2564 18.2817 25.2846 18.3004C25.3877 18.4129 25.4533 18.441 25.4814 18.3942C25.5096 18.3473 25.4814 18.2348 25.4627 18.2067C25.4627 18.1598 25.3221 17.9817 25.2752 18.0192C25.2283 18.0567 25.2189 18.0192 25.1346 18.0473C25.0502 18.0754 24.8721 18.0567 24.8627 18.0192C24.8627 17.9817 24.7221 17.9629 24.7221 17.9254C24.7221 17.8879 24.6283 17.8317 24.6377 17.8973C24.6471 17.9535 24.5721 17.9817 24.5533 17.9629C24.5346 17.9442 24.4783 18.0192 24.4783 18.0192L24.4877 18.0285ZM26.6346 16.8098L26.7002 16.5942C26.6064 16.5754 26.6252 16.4723 26.6252 16.4723C26.6158 16.3785 26.4846 16.2848 26.4377 16.3223C26.3908 16.3504 26.4096 16.1254 26.4096 16.1254C26.4096 16.1254 26.4939 16.0692 26.5314 16.0973C26.5689 16.1254 26.2127 15.6192 26.1377 15.666C26.0627 15.7129 25.8939 15.6192 25.9033 15.5348C25.9127 15.441 25.5658 15.1598 25.5658 15.1598C25.5658 15.1598 25.4533 15.0848 25.4346 15.141C25.4158 15.1973 25.3783 15.2348 25.4346 15.2723C25.4908 15.3004 25.4814 15.2254 25.5471 15.291C25.6127 15.3567 25.7346 15.441 25.6877 15.4973C25.6408 15.5535 25.5939 15.5723 25.5939 15.5723L25.6502 15.6473H25.7533L25.7721 15.8067C25.7721 15.8067 25.8846 15.8629 25.9127 15.9285C25.9408 15.9942 25.9408 16.0317 25.9127 16.0785C25.8846 16.116 25.8283 16.1723 25.8377 16.2473C25.8471 16.3129 25.9314 16.341 25.9314 16.341H25.9971L26.0533 16.3785V16.5004C26.1283 16.4817 26.2502 16.5942 26.2408 16.6504C26.2408 16.716 26.2596 16.6785 26.3533 16.7442C26.4471 16.8098 26.4189 16.8192 26.4846 16.8754C26.5502 16.9223 26.6064 16.8942 26.6346 16.8004V16.8098Z" fill="white"/>
<path d="M25.0781 15.5248C25.0781 15.4873 25.05 15.3561 25.1062 15.3654C25.1625 15.3654 25.125 15.3654 25.2 15.3936C25.275 15.4217 25.2656 15.3467 25.2656 15.3467H25.3688L25.5 15.4404L25.4812 15.5342H25.3875C25.3406 15.4686 25.2469 15.4967 25.2656 15.5623C25.2844 15.6279 25.2188 15.7498 25.1813 15.7592C25.1438 15.7686 25.0219 15.7686 25.0312 15.7123L25.0781 15.5248ZM25.0031 15.2717V15.1873C25.0031 15.1873 25.0031 15.1123 24.9469 15.1123C24.8906 15.1123 24.8156 15.0561 24.8344 15.0186C24.8531 14.9811 24.675 14.9436 24.675 14.9436C24.675 14.9436 24.5156 14.7936 24.5813 14.8123C24.6281 14.8311 24.6 14.7467 24.6 14.7467C24.6 14.7467 24.4875 14.7654 24.4594 14.7467C24.4312 14.7467 24.4406 14.6529 24.4406 14.6529C24.4406 14.6529 24.3281 14.6342 24.3281 14.6529C24.3281 14.6717 24.3656 14.6904 24.3844 14.7467C24.4031 14.8029 24.3938 14.8967 24.4781 14.9154C24.5719 14.9342 24.5812 14.9529 24.5906 14.9904C24.6 15.0279 24.7031 15.0373 24.7031 15.0373L24.7781 15.0748L25.0031 15.2623V15.2717ZM24 14.2967L23.9719 14.2217L23.8969 14.2029V14.2967H24ZM23.9719 13.9029C23.8781 13.8279 24.1031 13.9592 24.1031 13.9592C24.1781 13.9592 24.225 14.0154 24.225 14.0436C24.225 14.0717 24.3187 14.0623 24.3187 14.0623L24.3281 13.9967L24.2531 13.9029L24.1875 13.8561C24.1875 13.8561 24.0938 13.8467 24.0938 13.8186C24.0938 13.7904 24 13.9311 23.9625 13.9029H23.9719ZM25.6875 13.9592C25.6594 14.0436 25.65 14.1561 25.6031 14.1561C25.5563 14.1561 25.575 14.2779 25.575 14.2779L25.7344 14.2873C25.7719 14.2967 25.7719 14.3904 25.7719 14.3904C25.9125 14.3904 25.9687 14.5779 25.9594 14.6248C25.9312 14.6717 26.0062 14.6717 26.0062 14.6717C26.0062 14.6717 26.0063 14.8217 25.9875 14.8592C25.9688 14.8967 26.1094 14.9248 26.1469 14.9811C26.1844 15.0373 26.1281 15.2248 26.1 15.2342C26.0719 15.2529 26.175 15.2811 26.1656 15.3279C26.1563 15.3748 26.1937 15.3279 26.2031 15.4029L26.2312 15.6373L26.3625 15.6467C26.3813 15.5248 26.625 15.5154 26.6625 15.5342C26.8219 15.5904 26.9437 15.8342 26.9437 15.8904C26.9437 15.9467 26.8406 15.9561 26.8406 15.9561L26.8594 16.2373C27.0188 16.2842 27.1406 16.5186 27.1312 16.5467C27.1125 16.5842 27.2438 16.5748 27.2438 16.5748C27.2625 16.4061 27.4219 16.4623 27.4313 16.5186C27.4313 16.5748 27.4688 16.7061 27.4688 16.7061L27.5156 16.7811L27.5813 16.8467H27.675L27.7125 16.9029L27.825 16.9217C27.825 16.9217 27.9281 17.0342 27.9375 17.0623C27.9469 17.0904 28.0875 17.0811 28.125 17.0904C28.1625 17.0904 28.2188 17.1279 28.2281 17.1748C28.2375 17.2217 28.2937 17.2967 28.2937 17.2967C28.2937 17.2967 28.4063 17.3248 28.4156 17.3623L28.4719 17.4842L28.5656 17.5592L28.575 17.6529H28.6781L28.7063 17.7748L28.875 17.7654L28.9688 17.6998C29.0556 17.6569 29.1298 17.5923 29.1844 17.5123C29.1937 17.4654 29.2125 17.3248 29.3063 17.3529C29.4 17.3811 29.3344 17.1467 29.3344 17.1467C29.3344 17.1467 29.2031 17.0529 29.2125 17.0061C29.2219 16.9592 29.0812 16.8654 29.0906 16.8186C29.1 16.7904 28.9688 16.7061 28.9781 16.6686C28.9875 16.6311 28.9125 16.5279 28.9125 16.5279L28.7812 16.4061L28.7625 16.3123H28.65L28.425 16.0311L28.4344 15.9561H28.3688V15.8436L28.3031 15.8061H28.2094L27.9938 15.5717L27.975 15.4686H27.8812L27.9 15.2717C27.9656 15.1779 27.9281 15.0186 27.9281 15.0186C27.9281 15.0186 27.7969 15.0842 27.7312 15.0561C27.6656 15.0279 27.7594 14.9623 27.7594 14.9623V14.8873L27.7031 14.8311C27.7031 14.8311 27.5438 14.8498 27.5344 14.8217L27.4969 14.6717L27.4875 14.5123L27.4219 14.4842L27.4125 14.4186L27.3094 14.4279V14.3154L27.2531 14.2967L27.1969 14.2686L27.1875 14.1561L26.9812 14.1467L26.9156 14.0529L26.8406 13.9404L26.6062 13.9217L26.55 13.8654L26.4563 13.8467L26.3906 13.8186L26.3625 13.8654H26.175V13.9311C26.0813 13.9779 25.7063 13.9311 25.7063 13.9686L25.6875 13.9592ZM26.6719 13.7061C26.6531 13.6404 26.8594 13.5654 26.9062 13.6217C26.9531 13.6779 27.0844 13.6873 27.0938 13.9779C27.1031 14.0717 26.9344 13.8748 26.9344 13.8748L26.7937 13.8279C26.7187 13.8092 26.6813 13.7623 26.6719 13.7154V13.7061ZM23.925 13.8279L23.8781 13.7998L23.9156 13.7154L23.9625 13.7436L23.925 13.8279ZM23.4469 12.8904L23.325 12.7686V12.6748L23.2875 12.6279L23.25 12.4967L23.1281 12.4592L23.0062 12.5061L22.875 12.5904L22.7344 12.6092L22.6594 12.7029L22.9594 12.7217L23.0156 12.8154L23.2312 12.8342L23.3719 12.9748C23.4937 13.0217 23.5219 12.9561 23.4469 12.8904ZM23.4281 12.4217C23.4094 12.3467 23.2875 12.5342 23.4094 12.5717C23.5313 12.6092 23.6531 12.5717 23.6531 12.5717L23.6813 12.5154L24.15 12.5248C24.1875 12.4873 24.2063 12.4311 24.2063 12.4311C24.2063 12.4311 24.3187 12.3936 24.3656 12.4123C24.4125 12.4311 24.3656 12.2811 24.3281 12.2998C24.2812 12.3186 24.1875 12.2998 24.1875 12.2998H24.0188C24.0094 12.2436 23.8594 12.2717 23.85 12.2998C23.8406 12.3467 23.7844 12.3561 23.7844 12.3561L23.5687 12.3748C23.55 12.4311 23.4375 12.4686 23.4281 12.4311V12.4217ZM22.5 14.0342C22.6406 14.0811 22.6969 14.0342 22.7063 14.0061C22.7156 13.9686 22.725 13.9592 22.7812 13.9498C22.8375 13.9404 22.7719 13.8279 22.7156 13.8373C22.6594 13.8373 22.6031 13.8186 22.5938 13.7717C22.5844 13.7154 22.4906 13.5936 22.4812 13.6873C22.4719 13.7811 22.4156 13.7811 22.425 13.8561C22.4344 13.9217 22.4625 14.0154 22.5 14.0342ZM21.4219 14.1373C21.4219 14.0998 21.6094 14.0998 21.6375 14.1279C21.6656 14.1561 21.6469 14.2029 21.7312 14.2029C21.8156 14.2029 21.7781 14.2592 21.7688 14.2967C21.7688 14.3154 21.675 14.3061 21.6562 14.2779C21.6562 14.2498 21.5062 14.2404 21.5062 14.2404C21.5062 14.2404 21.4313 14.1842 21.4219 14.1373ZM24.6094 12.1029L24.5344 12.1592L24.4875 12.1123L24.4406 12.1592L24.5062 12.2248L24.525 12.2436L24.5437 12.2248L24.6375 12.1498L24.6094 12.1029ZM24.0938 11.9342L24.0281 11.8967L24 11.9436L24.075 11.9904H24.1031L24.2063 11.9248L24.1781 11.8779L24.0938 11.9342ZM23.7844 13.8842H23.775L23.6813 13.8748V13.9311H23.7562L23.8125 14.0248L23.8594 13.9967L23.7937 13.9029L23.7844 13.8842ZM20.6906 16.5279L20.7 16.6311H20.8406C20.8969 16.6311 20.7937 16.5654 20.7937 16.5654C20.7937 16.5654 20.6812 16.5748 20.7 16.5279H20.6906ZM20.8781 16.5279L20.9062 16.4904L20.9625 16.5373L20.925 16.5748L20.8781 16.5279ZM19.1719 14.7561L19.2094 14.7186L19.2656 14.7748L19.2281 14.8123L19.1719 14.7561ZM21.8906 26.9717L21.7969 26.9248L21.7688 26.9717L21.825 26.9998L21.8063 27.0186L21.8438 27.0654L21.8906 27.0186L21.9187 26.9904L21.8906 26.9717ZM21.1594 26.2873L21.1219 26.2404L21.0656 26.2873L21.0375 26.3154L21.075 26.3342L21.1406 26.3811L21.1687 26.3342L21.1312 26.3061L21.1594 26.2873ZM28.1156 24.4873C28.1062 24.4404 28.05 24.4217 28.0406 24.4123L28.0219 24.4686L28.0406 24.4779L28.05 24.5248L28.0406 24.5436L28.0781 24.5811C28.1156 24.5529 28.125 24.5154 28.1156 24.4873ZM28.2094 24.2998H28.1156V24.2154L28.2094 24.2342V24.2998ZM30.3656 23.5686C30.4125 23.5404 30.4594 23.4936 30.4594 23.6061C30.45 23.7092 30.4031 23.6717 30.3656 23.7092C30.3375 23.7467 30.3094 23.6061 30.3656 23.5686ZM30.8438 23.1654C30.8436 23.1623 30.8436 23.1592 30.8438 23.1561C30.8426 23.133 30.8362 23.1106 30.825 23.0904L30.7781 23.1186L30.7875 23.1561C30.7875 23.1748 30.7875 23.1936 30.8063 23.2029C30.8156 23.2123 30.825 23.2123 30.8438 23.2029L30.8344 23.1561L30.8438 23.1654ZM30.7219 23.2123L30.7594 23.3248L30.8063 23.3061C30.7949 23.2691 30.7855 23.2315 30.7781 23.1936L30.7219 23.2123ZM30.5156 23.4373H30.4594C30.4594 23.4748 30.4594 23.5311 30.5062 23.5311L30.525 23.4842L30.5156 23.4373ZM30.2719 22.3123C30.2707 22.3017 30.2665 22.2917 30.2599 22.2834C30.2533 22.2752 30.2444 22.2689 30.2344 22.2654C30.1969 22.2467 30.1313 22.2748 30.0938 22.3029L30.1219 22.3498C30.1594 22.3217 30.2062 22.3123 30.2156 22.3123L30.2719 22.3029V22.3123ZM27.675 19.2748C27.6375 19.3123 27.5531 19.3311 27.5531 19.3311L27.525 19.4248L27.4875 19.4717V19.5654C27.4875 19.6311 27.3938 19.6686 27.3938 19.6686L27.3562 19.7154H27.1031C27.0094 19.6779 27.075 19.5654 27.1312 19.5748C27.1875 19.5842 27.1219 19.4154 27.1219 19.4154L27.1969 19.4061C27.1969 19.4061 27.1969 19.2373 27.2344 19.2373C27.2625 19.2373 27.225 19.1811 27.1875 19.1436C27.15 19.1154 27.0938 19.0217 27.0656 19.0311H26.8781L26.85 19.0873L26.7469 19.1061L26.7375 19.1998C26.6813 19.2748 26.4563 19.4154 26.55 19.1811L26.5875 19.1154V19.0311H26.4187C26.4187 19.0311 26.325 18.9936 26.325 18.9561V18.8717L26.1281 18.6561L25.8938 18.6279L25.875 18.5811L25.7344 18.5623C25.5656 18.4686 25.4156 18.5529 25.4531 18.6936C25.4719 18.8342 25.5188 18.8904 25.425 18.8904C25.3313 18.8904 25.3125 18.8154 25.3125 18.8154C25.3125 18.8154 25.2375 18.7873 25.2375 18.8248C25.2375 18.8623 25.2094 18.9373 25.2375 18.9748C25.2656 19.0123 25.2 19.0686 25.1719 19.0404C25.1438 19.0123 25.0781 18.9279 25.0875 18.8998C25.1063 18.8717 24.9562 18.6936 25.1062 18.6654C25.2562 18.6373 25.1062 18.5529 25.1531 18.5342L25.2281 18.4967H25.3031L25.35 18.4592L25.2281 18.4404L25.1531 18.4311L25.0125 18.4217C24.934 18.4687 24.8743 18.5417 24.8438 18.6279C24.7688 18.7686 24.5906 18.5717 24.6562 18.4967C24.7219 18.4217 24.45 18.4873 24.4031 18.5248C24.3562 18.5623 24.2156 18.5436 24.2156 18.5436C24.1875 18.6279 24.0563 18.5342 24.0938 18.4779C24.1312 18.4217 24.1312 18.3842 24.1312 18.3842L24.0844 18.3654L24.0281 18.4779C23.9062 18.4779 23.8687 18.5529 23.8875 18.5998C23.9156 18.6467 23.85 18.5904 23.8313 18.6561C23.8219 18.7217 23.85 18.7217 23.8969 18.7498C23.9531 18.7779 23.8688 18.7779 23.9062 18.8248C23.9437 18.8717 24.0563 18.8248 24 18.8904C23.925 18.9561 23.8031 18.9279 23.8031 18.9279C23.7937 19.0217 23.6156 18.9936 23.5969 18.9654L23.4375 18.7686L23.25 18.7592C23.2406 18.6279 23.3437 18.6936 23.3812 18.5904C23.4187 18.4873 23.4375 18.3092 23.4375 18.3092C23.4375 18.3092 23.2875 18.3092 23.2781 18.3467C23.2687 18.3936 23.175 18.4311 23.175 18.4311C23.175 18.4311 23.1 18.4592 23.1281 18.4967C23.1563 18.5342 23.0719 18.5529 23.0719 18.5529C23.0719 18.5529 23.0812 18.6092 23.0625 18.6373C22.9875 18.7123 22.8 18.6373 22.7719 18.6186L22.6594 18.5717L22.5469 18.4967L22.4156 18.5529L22.3781 18.5904H22.2375L22.2281 18.7029L22.4812 18.7311L22.5 18.9654L22.3969 18.9279H22.3313L22.3031 18.8717H22.2469V19.0686L22.3031 19.1154L22.35 19.1623L22.4437 19.1717L22.4625 19.2936H22.6969L22.725 19.3498H22.8656L23.1375 19.6311L23.1188 19.7248L23.0719 19.7436C23.0906 19.8092 22.95 19.7717 22.95 19.7717V19.8279L23.0156 19.8373L23.0813 19.8748L23.175 19.7154C23.2688 19.6498 23.325 19.7436 23.3344 19.8092C23.3344 19.8561 23.2875 19.8467 23.2875 19.8467V19.9873L23.3438 20.0061C23.4375 20.1186 23.3063 20.1842 23.3063 20.1842L23.2781 20.2779C23.25 20.3623 23.1469 20.3436 23.1469 20.3436L23.1094 20.3998L22.9969 20.4279L23.2219 20.4561C23.2406 20.3811 23.2969 20.3623 23.3156 20.3998C23.3531 20.4373 23.3531 20.5029 23.3531 20.5029L23.4094 20.5123L23.4 20.6154L23.4563 20.6342V20.9436L23.5219 21.0186C23.6344 20.9717 23.6344 21.0467 23.5781 21.0842C23.5219 21.1217 23.5594 21.2904 23.5594 21.2904L23.5125 21.3373V21.4123L23.4563 21.4498V21.5623C23.3625 21.5154 23.25 21.5342 23.2219 21.5623C23.1281 21.5061 22.9594 21.5248 22.9594 21.5623C23.0156 21.6467 22.8938 21.6561 22.8938 21.6561L22.8281 21.7404C22.875 21.8342 22.7812 21.8436 22.7812 21.8436V22.0311L22.6687 22.1248V22.3779C22.6687 22.4436 22.8188 22.4529 22.8469 22.4154C22.875 22.3779 22.9875 22.4904 22.9875 22.4904H23.0719L23.0906 22.3217L23.0344 22.2936V22.0123L23.1281 21.9186C23.2406 21.8717 23.2031 22.1529 23.2031 22.1811C23.2031 22.2936 23.2594 22.2748 23.2969 22.2561C23.3906 22.2186 23.325 22.3686 23.25 22.3498C23.175 22.3498 23.2219 22.4436 23.2219 22.4436L23.2688 22.4717L23.175 22.5373L23.1094 22.6217L23.0156 22.5936L22.9031 22.5842L22.8656 22.5186L22.8 22.5092L22.7906 22.6404L22.7438 22.6967L22.6312 22.8092C22.7812 22.8092 22.6125 22.9123 22.575 22.9123C22.6594 22.9404 22.5656 23.0248 22.35 22.9592V23.0248L22.275 23.0342L22.3406 23.1186H22.4156L22.3875 23.2873C22.3875 23.4092 22.0781 23.3248 22.05 23.2873V23.4748H21.9844L21.9938 23.5873V23.7467L22.0875 23.7279V23.7936L22.3406 23.8029L22.7063 23.4186L22.9219 23.3717C22.9406 23.2779 23.0344 23.3904 23.0344 23.3904C23.1281 23.3811 23.1469 23.4467 23.1469 23.4467L23.2688 23.4654C23.3625 23.4936 23.3063 23.5029 23.3156 23.5404C23.3156 23.5967 23.3719 23.5779 23.3719 23.5779L23.3906 23.4561L23.4469 23.4654L23.3906 23.3998L23.2875 23.3529L23.175 23.3061C23.1 23.2029 23.1938 23.2123 23.2688 23.2311H23.3906C23.3906 23.2311 23.5312 23.4186 23.5312 23.4654C23.5312 23.5123 23.5969 23.5217 23.5969 23.5217H23.6813L23.7094 23.5779H23.7937L23.8219 23.6342H23.9906V23.5498L23.8406 23.5217L23.8313 23.4279L23.7188 23.3998C23.6813 23.2404 23.7469 23.1936 23.7937 23.2686H23.85L23.8313 23.1373L23.8969 23.1186L23.8781 22.9123L23.8219 22.8936V22.8279L24.0563 22.8373C24.0375 22.7154 24.0563 22.6592 24.0563 22.6592H24.1312V22.7061L24.4219 22.7342L24.6281 22.4998C24.6188 22.4811 24.6469 22.4717 24.6281 22.4529C24.5906 22.4248 24.5531 22.4529 24.5062 22.4248C24.4594 22.3967 24.5062 22.2373 24.5062 22.1904C24.4875 22.1529 24.6563 22.0967 24.6281 22.1904C24.6 22.2654 24.6281 22.3123 24.6281 22.3123C24.75 22.1904 24.8531 22.3123 24.8438 22.3498C24.8438 22.3779 24.9094 22.4061 24.9563 22.3779C25.0031 22.3498 25.0594 22.4623 25.05 22.5186C25.0219 22.5748 24.8625 22.5654 24.8438 22.5092C24.8438 22.4529 24.8062 22.4717 24.7875 22.4998C24.7687 22.5279 24.6937 22.5467 24.6375 22.5186C24.633 22.5131 24.6298 22.5067 24.6281 22.4998L24.4219 22.7342H24.4313C24.5438 22.7998 24.4875 22.8842 24.45 22.9029C24.4125 22.9217 24.3562 22.9217 24.3562 22.9217L24.3281 22.9592L24.0844 22.9779L24.0656 23.0717C23.9531 23.0623 23.9062 23.1936 23.9344 23.2592C23.9625 23.3248 23.9344 23.3811 23.9344 23.3811L24.0281 23.4279L24.1687 23.3904C24.1875 23.2967 24.2625 23.2779 24.3375 23.2217C24.4125 23.1654 24.5344 23.3154 24.4969 23.3998C24.4594 23.4748 24.4594 23.5029 24.4594 23.5029L24.4688 23.5967L24.375 23.6248L24.3 23.6623V23.7092H24.0375L24 23.7561L23.8781 23.7654L23.8406 23.8311H23.7469C23.7469 23.8311 23.6156 23.9061 23.6719 23.9811C23.7281 24.0561 23.4375 24.0467 23.3719 23.9436C23.3531 24.0373 23.25 23.9436 23.25 23.9436L23.1469 23.9248L23.1375 23.7842C23.1187 23.6904 22.9406 23.6904 22.95 23.7561C22.95 23.8217 22.6125 23.7842 22.6125 23.7842L22.5 23.8311L22.3969 23.8967L22.3875 23.9436L22.2188 23.9623L22.1438 23.9998L22.1156 23.9436H22.0406L21.9656 24.0373C21.7781 24.0561 21.5906 24.1686 21.6 24.2248C21.6187 24.2623 21.525 24.3186 21.525 24.3186L21.4406 24.3373L21.3844 24.4311L21.2719 24.4592L21.2531 24.6654L21.1969 24.7029V24.7873L21.1312 24.8061V24.8529H21.0375L21.0938 25.0029L21.1687 25.0404C21.3 25.0592 21.2438 25.2279 21.2438 25.2279H21.3187L21.3562 25.3311L21.4313 25.4904C21.4594 25.6029 21.5438 25.5748 21.5813 25.5654C21.6188 25.5561 21.6562 25.6779 21.6562 25.6779L22.0312 25.6873C22.0312 25.6873 22.0125 25.7248 22.0781 25.7436C22.1437 25.7623 22.575 25.7811 22.5938 25.7529C22.575 25.6686 22.8281 25.6498 22.9313 25.7248C23.025 25.7998 23.175 25.7529 23.175 25.7529L23.3156 25.9217L23.4094 26.1373L23.5687 26.1842L23.6813 26.2123L23.7188 26.3717H23.8031L23.8313 26.4842C23.925 26.5592 23.8031 26.7186 23.8031 26.7186V26.9342L23.8781 26.9717L23.8688 27.0467L23.9906 27.1686H24.1312L24.4781 27.5529L24.7594 27.6467L24.8063 27.7967L24.8812 27.7873L24.9375 27.7404L25.1625 27.7311L25.275 27.6186L25.3969 27.5998L26.4281 26.7186L26.3344 26.6623V26.4561C26.5125 26.3342 26.5219 26.1092 26.3625 26.0904C26.2406 26.0811 26.2969 25.9498 26.4094 25.9311L26.475 25.9029V25.8186L26.6906 25.6217V25.4717L26.2219 25.0779C26.0156 25.0029 26.2219 24.5436 26.3625 24.5529C26.5031 24.5623 26.3531 23.8592 26.3531 23.8592L26.2781 23.8217L26.2969 23.5873H26.1937L26.025 23.8123L25.9781 23.9623C25.9594 24.1592 25.3781 24.1217 25.35 24.0936C25.3219 24.0654 25.125 23.9811 25.125 23.9811C25.125 23.9811 24.975 23.8592 24.9469 23.8873C24.9188 23.9342 24.7875 23.8498 24.7875 23.8779C24.7875 23.9061 24.6656 23.8029 24.6656 23.8029L24.4781 23.7373L24.6188 23.7092L24.5906 23.5967L24.8344 23.7186C24.8625 23.7561 24.9844 23.7467 24.9844 23.7467L25.0219 23.7936C25.0219 23.7936 25.0969 23.7936 25.1438 23.8404C25.1906 23.9061 25.4344 23.8592 25.4344 23.8592L25.5 23.9154L25.6031 23.9529H25.8938L25.9031 23.7748L25.9594 23.7186V23.6061L26.0156 23.5498V23.4561L26.0719 23.4373L26.0813 23.2311L26.1281 23.2217V22.7623L25.9875 22.6311C25.9781 22.6779 25.8281 22.6779 25.8281 22.6779C25.8281 22.6779 25.7906 22.7436 25.7625 22.7436C25.7344 22.7436 25.8 22.8373 25.7812 22.8842C25.7625 22.9404 25.6875 22.9404 25.6875 22.9404L25.5469 22.9779L25.5094 23.0248H25.3594L25.3406 22.9029L25.5094 22.8561L25.6031 22.8092L25.65 22.7154C25.6594 22.6217 25.7719 22.6311 25.7719 22.6311C25.7719 22.6311 25.9875 22.4436 25.9969 22.3686C26.0062 22.2748 26.0813 22.0404 26.2125 22.0404H26.4563C26.55 22.0029 26.5219 21.8811 26.5219 21.8811L26.6438 21.8623L26.6625 21.9279C26.6625 21.9279 26.8312 21.9467 26.85 21.9279C26.8687 21.8904 26.9062 21.8342 26.9437 21.8529C27 21.8811 27.15 21.7873 27.15 21.7873C27.15 21.7217 27.3938 21.7498 27.3938 21.7498L27.4219 21.6561C27.4219 21.6561 27.2625 21.4404 27.2344 21.4404C27.2063 21.4404 27.0469 21.3092 27.0375 21.3561C26.8875 21.3186 26.8969 21.1123 26.8969 21.1123L26.8406 20.9811C26.8406 20.9061 26.7 20.7467 26.6719 20.7654C26.6505 20.7531 26.6327 20.7353 26.6203 20.7139C26.6079 20.6925 26.6014 20.6683 26.6014 20.6436C26.6014 20.6188 26.6079 20.5946 26.6203 20.5732C26.6327 20.5518 26.6505 20.534 26.6719 20.5217C26.7094 20.5217 26.8031 20.3811 26.8031 20.3811L26.85 20.2498L27.0094 20.2029L27.0281 20.0811L26.9344 20.0717C26.9344 20.0717 27.0281 19.8936 27.0844 19.8936C27.1406 19.8936 27.4406 19.8936 27.4594 19.8748C27.4969 19.8561 27.5531 19.7061 27.5531 19.6873C27.5531 19.6498 27.6281 19.6404 27.6469 19.6311C27.6844 19.6311 27.7406 19.5467 27.7688 19.5092C27.7875 19.4717 27.7219 19.2279 27.675 19.2748Z" fill="white"/>
<path d="M22.5 22.6874C22.5094 22.6874 22.5281 22.7342 22.5563 22.7249C22.5844 22.7249 22.6031 22.7811 22.5656 22.7811C22.5469 22.7811 22.5469 22.8092 22.5469 22.828C22.5469 22.8374 22.5469 22.8749 22.5188 22.903C22.5 22.9217 22.4812 22.903 22.4531 22.8936C22.425 22.8749 22.4063 22.8749 22.3688 22.8749C22.3406 22.8749 22.3688 22.9311 22.3688 22.9311C22.3688 22.9311 22.2187 22.9311 22.2469 22.903C22.275 22.8842 22.3031 22.8749 22.2844 22.8655C22.2656 22.8467 22.2844 22.8374 22.2844 22.8092C22.2844 22.7811 22.35 22.7905 22.3313 22.7717C22.3125 22.753 22.3313 22.6686 22.3688 22.7155L22.3875 22.6686C22.3687 22.6405 22.3875 22.6405 22.3406 22.6217C22.2937 22.603 22.3313 22.528 22.3313 22.528V22.4624C22.35 22.3967 22.4906 22.3874 22.5 22.453V22.5561L22.5469 22.5749C22.5469 22.5749 22.5375 22.6124 22.5 22.6124C22.4625 22.6124 22.5 22.6311 22.4812 22.6592L22.5 22.6967V22.6874ZM22.0312 22.7624C22.0594 22.7249 22.1062 22.5374 22.1625 22.5936C22.2187 22.6499 22.2562 22.5936 22.2562 22.5936C22.2562 22.5936 22.2844 22.6217 22.2656 22.6874C22.2562 22.7342 22.2375 22.7905 22.2094 22.7999C22.1719 22.7999 22.1438 22.828 22.0969 22.8374C22.0594 22.8374 22.0406 22.7624 22.0406 22.7624H22.0312Z" fill="white"/>
</g>
<defs>
<clipPath id="clip0_200_67266">
<rect width="60" height="45" fill="white" transform="translate(-7.5)"/>
</clipPath>
</defs>
</svg>
