<svg width="45" height="45" viewBox="0 0 45 45" fill="none" xmlns="http://www.w3.org/2000/svg">
<g clip-path="url(#clip0_200_67334)">
<path fill-rule="evenodd" clip-rule="evenodd" d="M-7.5 0H78V3.46875H-7.5V0ZM-7.5 6.92813H78V10.3969H-7.5V6.92813ZM-7.5 13.8469H78V17.3156H-7.5V13.8469ZM-7.5 20.7656H78V24.2344H-7.5V20.7656ZM-7.5 27.7031H78V31.1531H-7.5V27.7031ZM-7.5 34.6125H78V38.0813H-7.5V34.6125ZM-7.5 41.5312H78V45H-7.5V41.5312Z" fill="#BD3D44"/>
<path fill-rule="evenodd" clip-rule="evenodd" d="M-7.5 3.46875H78V6.92813H-7.5V3.46875ZM-7.5 10.3875H78V13.8469H-7.5V10.3875ZM-7.5 17.3063H78V20.775H-7.5V17.3063ZM-7.5 24.2344H78V27.7031H-7.5V24.2344ZM-7.5 31.1531H78V34.6219H-7.5V31.1531ZM-7.5 38.0719H78V41.5406H-7.5V38.0719Z" fill="white"/>
<path fill-rule="evenodd" clip-rule="evenodd" d="M-7.5 0H26.7V24.2344H-7.5V0Z" fill="#192F5D"/>
<path fill-rule="evenodd" clip-rule="evenodd" d="M-4.6498 1.03125L-4.33105 1.99687H-3.3373L-4.14355 2.5875L-3.83418 3.55313L-4.6498 2.95313L-5.45605 3.54375L-5.15605 2.5875L-5.97168 1.99687H-4.9498L-4.6498 1.03125ZM1.05019 1.03125L1.35957 1.99687H2.37207L1.55645 2.5875L1.85645 3.55313L1.05019 2.95313L0.23457 3.54375L0.543945 2.5875L-0.262305 1.99687H0.731445L1.05019 1.03125ZM6.75019 1.03125L7.05957 1.99687H8.06269L7.25644 2.5875L7.56582 3.55313L6.75019 2.95313L5.93457 3.54375L6.24395 2.5875L5.42832 1.99687H6.44082L6.75019 1.03125ZM12.4502 1.03125L12.7596 1.99687H13.7721L12.9564 2.5875L13.2658 3.55313L12.4502 2.95313L11.6346 3.54375L11.9533 2.5875L11.1283 1.99687H12.1314L12.4502 1.03125ZM18.1502 1.03125L18.4596 1.99687H19.4627L18.6564 2.5875L18.9658 3.55313L18.1502 2.95313L17.3346 3.54375L17.6439 2.5875L16.8377 1.99687H17.8408L18.1502 1.03125ZM23.8502 1.03125L24.1596 1.99687H25.1721L24.3471 2.5875L24.6658 3.55313L23.8502 2.95313L23.0346 3.54375L23.3533 2.5875L22.5283 1.99687H23.5408L23.8502 1.03125ZM-1.7998 3.46875L-1.49043 4.425H-0.468554L-1.28418 5.00625L-0.984179 5.97188L-1.78105 5.38125L-2.59668 5.97188L-2.30605 5.00625L-3.09355 4.425H-2.09043L-1.7998 3.46875ZM3.9002 3.46875L4.21894 4.425H5.22207L4.39707 5.00625L4.71582 5.97188L3.9002 5.38125L3.08457 5.97188L3.39394 5.00625L2.57832 4.425H3.59082L3.9002 3.46875ZM9.60019 3.46875L9.90957 4.425H10.9221L10.1064 5.00625L10.4158 5.97188L9.60019 5.38125L8.78457 5.97188L9.09394 5.00625L8.28769 4.425H9.28144L9.60019 3.46875ZM15.3002 3.46875L15.6189 4.425H16.6221L15.7971 5.00625L16.1158 5.97188L15.3002 5.38125L14.4939 5.97188L14.7939 5.00625L13.9783 4.425H15.0002L15.3002 3.46875ZM21.0002 3.46875L21.3096 4.425H22.3221L21.5064 5.00625L21.8158 5.97188L21.0002 5.38125L20.1846 5.97188L20.4939 5.00625L19.6877 4.425H20.6908L21.0002 3.46875ZM-4.6498 5.86875L-4.33105 6.84375H-3.3373L-4.14355 7.43438L-3.83418 8.39063L-4.6498 7.8L-5.45605 8.39063L-5.15605 7.43438L-5.97168 6.84375H-4.9498L-4.6498 5.86875ZM1.05019 5.86875L1.35957 6.84375H2.37207L1.55645 7.43438L1.85645 8.39063L1.05019 7.8L0.23457 8.39063L0.543945 7.425L-0.262305 6.83438H0.731445L1.05019 5.86875ZM6.75019 5.86875L7.05957 6.83438H8.06269L7.25644 7.425L7.56582 8.38125L6.75019 7.79063L5.93457 8.38125L6.24395 7.41563L5.42832 6.825H6.44082L6.75019 5.86875ZM12.4502 5.86875L12.7596 6.83438H13.7721L12.9564 7.425L13.2658 8.38125L12.4502 7.79063L11.6346 8.38125L11.9533 7.41563L11.1283 6.825H12.1314L12.4502 5.86875ZM18.1502 5.86875L18.4596 6.83438H19.4627L18.6564 7.425L18.9658 8.38125L18.1502 7.79063L17.3346 8.38125L17.6439 7.41563L16.8377 6.825H17.8408L18.1502 5.86875ZM23.8502 5.86875L24.1596 6.83438H25.1721L24.3471 7.425L24.6658 8.38125L23.8502 7.79063L23.0346 8.38125L23.3533 7.41563L22.5283 6.825H23.5408L23.8502 5.86875ZM-1.7998 8.30625L-1.49043 9.2625H-0.468554L-1.28418 9.85313L-0.974805 10.8188L-1.79043 10.2188L-2.60605 10.8094L-2.29668 9.85313L-3.10293 9.2625H-2.0998L-1.7998 8.30625ZM3.9002 8.30625L4.21894 9.2625H5.22207L4.39707 9.85313L4.71582 10.8188L3.9002 10.2188L3.08457 10.8094L3.39394 9.85313L2.57832 9.2625H3.59082L3.9002 8.30625ZM9.60019 8.30625L9.90957 9.2625H10.9221L10.1064 9.85313L10.4158 10.8188L9.60019 10.2188L8.78457 10.8094L9.09394 9.85313L8.28769 9.2625H9.28144L9.60019 8.30625ZM15.3002 8.30625L15.6189 9.2625H16.6221L15.8064 9.85313L16.1158 10.8188L15.3002 10.2188L14.4939 10.8094L14.7939 9.85313L13.9783 9.2625H15.0002L15.3002 8.30625ZM21.0002 8.30625L21.3096 9.2625H22.3221L21.5064 9.85313L21.8158 10.8188L21.0002 10.2188L20.1846 10.8094L20.4939 9.85313L19.6877 9.2625H20.6908L21.0002 8.30625ZM-4.6498 10.7344L-4.33105 11.6906H-3.3373L-4.14355 12.2813L-3.83418 13.2469L-4.6498 12.6469L-5.45605 13.2375L-5.15605 12.2813L-5.97168 11.6906H-4.9498L-4.6498 10.7344ZM1.05019 10.7344L1.35957 11.6906H2.37207L1.55645 12.2813L1.85645 13.2375L1.05019 12.6469L0.23457 13.2375L0.543945 12.2813L-0.262305 11.6906H0.731445L1.05019 10.7344ZM6.75019 10.7344L7.05957 11.6906H8.06269L7.25644 12.2813L7.56582 13.2469L6.75019 12.6469L5.93457 13.2375L6.24395 12.2813L5.42832 11.6906H6.44082L6.75019 10.7344ZM12.4502 10.7344L12.7596 11.6906H13.7721L12.9564 12.2813L13.2658 13.2469L12.4502 12.6469L11.6346 13.2375L11.9533 12.2813L11.1283 11.6906H12.1314L12.4502 10.7344ZM18.1502 10.7344L18.4596 11.6906H19.4627L18.6564 12.2813L18.9658 13.2469L18.1502 12.6469L17.3346 13.2375L17.6439 12.2813L16.8377 11.6906H17.8408L18.1502 10.7344ZM23.8502 10.7344L24.1596 11.6906H25.1721L24.3471 12.2813L24.6658 13.2469L23.8502 12.6469L23.0346 13.2375L23.3439 12.2813L22.5189 11.6906H23.5314L23.8502 10.7344ZM-1.7998 13.1531L-1.49043 14.1188H-0.468554L-1.28418 14.7L-0.974805 15.6656L-1.79043 15.0656L-2.60605 15.6656L-2.29668 14.7L-3.10293 14.1094H-2.0998L-1.7998 13.1531ZM3.9002 13.1531L4.21894 14.1188H5.22207L4.39707 14.7L4.71582 15.6656L3.9002 15.0656L3.08457 15.6656L3.39394 14.7L2.57832 14.1094H3.59082L3.9002 13.1531ZM9.60019 13.1531L9.90957 14.1188H10.9221L10.1064 14.7L10.4158 15.6656L9.60019 15.0656L8.78457 15.6656L9.09394 14.7L8.28769 14.1094H9.28144L9.60019 13.1531ZM15.3002 13.1531L15.6189 14.1188H16.6221L15.8064 14.7L16.1158 15.6656L15.3002 15.0656L14.4939 15.6656L14.7939 14.7L13.9783 14.1094H15.0002L15.3002 13.1531ZM21.0002 13.1531L21.3096 14.1188H22.3221L21.5064 14.7L21.8158 15.6656L21.0002 15.0656L20.1846 15.6656L20.4939 14.7L19.6877 14.1094H20.6908L21.0002 13.1531ZM-4.6498 15.5719L-4.33105 16.5375H-3.3373L-4.14355 17.1281L-3.83418 18.075L-4.6498 17.4938L-5.45605 18.075L-5.15605 17.1188L-5.97168 16.5281H-4.9498L-4.6498 15.5719ZM1.05019 15.5719L1.35957 16.5375H2.37207L1.55645 17.1281L1.86582 18.075L1.05019 17.4938L0.23457 18.075L0.553321 17.1188L-0.262305 16.5281H0.731445L1.05019 15.5719ZM6.75019 15.5719L7.05957 16.5375H8.06269L7.25644 17.1281L7.56582 18.075L6.75019 17.4938L5.93457 18.075L6.24395 17.1188L5.42832 16.5281H6.44082L6.75019 15.5719ZM12.4502 15.5719L12.7596 16.5375H13.7721L12.9564 17.1281L13.2658 18.075L12.4502 17.4938L11.6346 18.075L11.9533 17.1188L11.1283 16.5281H12.1314L12.4502 15.5719ZM18.1502 15.5719L18.4596 16.5375H19.4627L18.6564 17.1281L18.9658 18.075L18.1502 17.4938L17.3346 18.075L17.6439 17.1188L16.8377 16.5281H17.8408L18.1502 15.5719ZM23.8502 15.5719L24.1596 16.5375H25.1721L24.3471 17.1281L24.6658 18.075L23.8502 17.4938L23.0346 18.075L23.3533 17.1188L22.5283 16.5281H23.5408L23.8502 15.5719ZM-1.7998 18L-1.49043 18.9563H-0.468554L-1.28418 19.5469L-0.974805 20.5125L-1.79043 19.9125L-2.60605 20.5031L-2.29668 19.5469L-3.10293 18.9563H-2.0998L-1.7998 18ZM3.9002 18L4.21894 18.9563H5.22207L4.39707 19.5469L4.71582 20.5125L3.9002 19.9125L3.08457 20.5031L3.39394 19.5469L2.57832 18.9563H3.59082L3.9002 18ZM9.60019 18L9.90957 18.9563H10.9221L10.1064 19.5469L10.4158 20.5125L9.60019 19.9125L8.78457 20.5031L9.09394 19.5469L8.28769 18.9563H9.28144L9.60019 18ZM15.3002 18L15.6189 18.9563H16.6221L15.8064 19.5469L16.1158 20.5125L15.3002 19.9125L14.4939 20.5031L14.7939 19.5469L13.9783 18.9563H15.0002L15.3002 18ZM21.0002 18L21.3096 18.9563H22.3221L21.5064 19.5469L21.8158 20.5125L21.0002 19.9125L20.1846 20.5031L20.4939 19.5469L19.6877 18.9563H20.6908L21.0002 18ZM-4.6498 20.4281L-4.33105 21.3844H-3.3373L-4.14355 21.975L-3.83418 22.9313L-4.6498 22.3406L-5.45605 22.9313L-5.15605 21.9656L-5.97168 21.375H-4.9498L-4.6498 20.4281ZM1.05019 20.4281L1.35957 21.3844H2.37207L1.55645 21.975L1.86582 22.9313L1.05019 22.3406L0.23457 22.9313L0.553321 21.9656L-0.262305 21.375H0.731445L1.05019 20.4281ZM6.75019 20.4281L7.05957 21.3844H8.06269L7.2752 21.975L7.58457 22.9313L6.76894 22.3406L5.95332 22.9313L6.2627 21.9656L5.44707 21.375H6.45957L6.75019 20.4281ZM12.4502 20.4281L12.7596 21.3844H13.7721L12.9564 21.975L13.2658 22.9313L12.4502 22.3406L11.6346 22.9313L11.9533 21.9656L11.1283 21.375H12.1314L12.4502 20.4281ZM18.1502 20.4281L18.4596 21.3844H19.4627L18.6564 21.975L18.9658 22.9313L18.1502 22.3406L17.3346 22.9313L17.6439 21.9656L16.8377 21.375H17.8408L18.1502 20.4281ZM23.8502 20.4281L24.1596 21.3844H25.1721L24.3471 21.975L24.6658 22.9313L23.8502 22.3406L23.0346 22.9313L23.3533 21.9656L22.5283 21.375H23.5408L23.8502 20.4281Z" fill="white"/>
</g>
<defs>
<clipPath id="clip0_200_67334">
<rect width="60" height="45" fill="white" transform="translate(-7.5)"/>
</clipPath>
</defs>
</svg>
