<svg width="45" height="45" viewBox="0 0 45 45" fill="none" xmlns="http://www.w3.org/2000/svg">
<g clip-path="url(#clip0_200_67279)">
<path d="M-7.5 0H52.5V45H-7.5V0Z" fill="white"/>
<path d="M17.4375 4.99707H52.5V10.0033H17.4375V4.99707ZM17.4375 15.0002H52.5V19.9971H17.4375V15.0002ZM-7.5 25.0033H52.5V30.0002H-7.5V25.0033ZM-7.5 34.9971H52.5V40.0033H-7.5V34.9971Z" fill="#0038A8"/>
<path d="M4.43041 14.9423L5.25799 16.1781C1.85737 18.6391 3.93349 20.0943 1.5236 20.8821C3.02247 19.4193 1.28759 19.296 2.55044 16.2472" fill="#FCD116"/>
<path fill-rule="evenodd" clip-rule="evenodd" d="M4.45326 14.8274L5.37102 16.1979L5.30657 16.2445C4.46284 16.8551 3.96275 17.4004 3.64816 17.885C3.33386 18.3692 3.20195 18.7967 3.09915 19.1786C3.08772 19.221 3.07661 19.2631 3.0656 19.3049C2.97857 19.6348 2.89786 19.9407 2.71365 20.2073C2.5027 20.5126 2.16259 20.7596 1.54945 20.9601L1.21247 21.0702L1.46619 20.8226C1.83539 20.4623 1.99647 20.193 2.05908 19.9486C2.12214 19.7025 2.0888 19.4713 2.04414 19.1711L2.04396 19.1699C1.99963 18.872 1.94685 18.5174 1.98601 18.0447C2.02519 17.5716 2.15604 16.9839 2.47444 16.2152L2.50601 16.139L2.65845 16.2021L2.62688 16.2784C2.31385 17.0341 2.18798 17.6051 2.15044 18.0583C2.11292 18.5113 2.16321 18.8502 2.20734 19.1468L2.20853 19.1548C2.2519 19.4462 2.29093 19.7085 2.21892 19.9896C2.16382 20.2046 2.04567 20.425 1.82806 20.6793C2.2099 20.5136 2.43185 20.3249 2.5779 20.1135C2.74462 19.8722 2.81776 19.596 2.90623 19.2618C2.91713 19.2207 2.92826 19.1786 2.93982 19.1357C3.0443 18.7476 3.1816 18.3007 3.50976 17.7952C3.82934 17.3029 4.32732 16.759 5.14555 16.1577L4.31617 14.9193L4.45326 14.8274Z" fill="black"/>
<path fill-rule="evenodd" clip-rule="evenodd" d="M2.53194 18.8736C2.66638 17.9675 2.84328 16.7754 3.76887 15.2498L3.90994 15.3354C3.00164 16.8324 2.82869 17.9979 2.69503 18.8986C2.69196 18.9193 2.6889 18.9399 2.68586 18.9603C2.61845 19.4134 2.55588 19.8097 2.4012 20.1422C2.24396 20.4803 1.99343 20.7495 1.5597 20.9565L1.48864 20.8076C1.88966 20.6162 2.11138 20.3741 2.25159 20.0726C2.39438 19.7657 2.45448 19.3942 2.52266 18.936C2.52574 18.9154 2.52883 18.8945 2.53194 18.8736Z" fill="black"/>
<path d="M4.99668 12.4971H6.64668L4.99668 21.5721L3.34668 12.4971H4.99668V21.5721V12.4971Z" fill="#FCD116"/>
<path fill-rule="evenodd" clip-rule="evenodd" d="M3.24805 12.415H6.74575L4.9969 22.0337L3.24805 12.415ZM3.44575 12.58L4.9144 20.6576V12.58H3.44575ZM5.0794 12.58V20.6576L6.54804 12.58H5.0794Z" fill="black"/>
<path d="M4.99668 15.5217C6.66734 15.5217 8.02167 14.1673 8.02167 12.4967C8.02167 10.826 6.66734 9.47168 4.99668 9.47168C3.32602 9.47168 1.97168 10.826 1.97168 12.4967C1.97168 14.1673 3.32602 15.5217 4.99668 15.5217Z" fill="#FCD116"/>
<path fill-rule="evenodd" clip-rule="evenodd" d="M4.99714 9.55465C3.37205 9.55465 2.05465 10.872 2.05465 12.4971C2.05465 14.1222 3.37205 15.4396 4.99714 15.4396C6.62224 15.4396 7.93964 14.1222 7.93964 12.4971C7.93964 10.872 6.62224 9.55465 4.99714 9.55465ZM1.88965 12.4971C1.88965 10.7809 3.28092 9.38965 4.99714 9.38965C6.71337 9.38965 8.10464 10.7809 8.10464 12.4971C8.10464 14.2134 6.71337 15.6046 4.99714 15.6046C3.28092 15.6046 1.88965 14.2134 1.88965 12.4971Z" fill="black"/>
<path d="M7.22474 11.2871C7.03224 11.507 6.92224 11.1221 6.23475 11.1221C5.54726 11.1221 5.43726 11.5345 5.32726 11.4521C5.21726 11.3696 5.90476 10.8746 6.12475 10.8471C6.34475 10.8196 6.97724 11.0396 7.22474 11.2871ZM6.42725 11.5345C6.61975 11.6995 6.45475 12.057 6.26225 12.057C6.06975 12.057 5.71226 11.727 5.87726 11.507" fill="black"/>
<path d="M5.51953 11.7825C5.54703 11.4525 5.82203 11.3975 6.26202 11.3975C6.70202 11.3975 6.89452 11.7275 7.05951 11.81C6.86702 11.81 6.70202 11.535 6.26202 11.535C5.82203 11.535 5.82203 11.535 5.51953 11.81M5.60203 11.865C5.71203 11.7 5.84953 12.03 6.15202 12.03C6.45452 12.03 6.61952 11.9475 6.81202 11.81C7.00451 11.6725 6.53702 12.14 6.23452 12.14C5.93203 12.14 5.51953 11.975 5.60203 11.865Z" fill="black"/>
<path d="M6.53686 12.0293C6.89435 11.8368 6.67435 11.5618 6.53686 11.5068C6.59186 11.5618 6.81185 11.8368 6.53686 12.0293ZM4.99687 13.6793C5.16187 13.6793 5.21687 13.6243 5.43687 13.6243C5.65687 13.6243 6.17936 13.9268 6.48186 13.8168C5.84936 14.0643 6.09686 13.8993 4.99687 13.8993H4.85938M6.59186 14.0643C6.48186 13.8718 6.50936 13.9268 6.28936 13.6243C6.50936 13.7893 6.56436 13.8718 6.59186 14.0643ZM4.99687 14.3393C5.68437 14.3393 5.57437 14.2018 6.48186 13.8168C5.82186 13.8993 5.68437 14.1193 4.99687 14.1193H4.85938M4.99687 13.3218C5.18937 13.3218 5.24437 13.1843 5.46437 13.1843C5.68437 13.1843 5.98686 13.2668 6.12436 13.3768C6.15186 13.4043 6.04186 13.1568 5.82186 13.1293C5.60187 13.1018 5.68437 12.7443 5.43687 12.6893C5.43687 12.7993 5.51937 12.7718 5.54687 12.9368C5.54687 13.0743 5.29937 13.0743 5.24437 12.9368C5.29937 13.1568 5.13437 13.1568 4.99687 13.1568" fill="black"/>
<path d="M4.99701 14.5869C4.85952 14.5869 4.50202 14.6694 4.99701 14.6694C5.49201 14.6694 5.13451 14.5869 4.99701 14.5869Z" fill="black"/>
</g>
<defs>
<clipPath id="clip0_200_67279">
<rect width="60" height="45" fill="white" transform="translate(-7.5)"/>
</clipPath>
</defs>
</svg>
