<svg width="45" height="45" viewBox="0 0 45 45" fill="none" xmlns="http://www.w3.org/2000/svg">
<g clip-path="url(#clip0_200_68842)">
<path d="M-7.5 30H52.5V45H-7.5V30Z" fill="#1EB53A"/>
<path d="M-7.5 0H52.5V15H-7.5V0Z" fill="#0099B5"/>
<path d="M-7.5 14.4004H52.5V30.6004H-7.5V14.4004Z" fill="#CE1126"/>
<path d="M-7.5 15.2998H52.5V29.6998H-7.5V15.2998Z" fill="white"/>
<path d="M5.10019 12.5998C8.08253 12.5998 10.5002 10.1821 10.5002 7.19981C10.5002 4.21747 8.08253 1.7998 5.10019 1.7998C2.11786 1.7998 -0.299805 4.21747 -0.299805 7.19981C-0.299805 10.1821 2.11786 12.5998 5.10019 12.5998Z" fill="white"/>
<path d="M6.9 12.5998C9.88234 12.5998 12.3 10.1821 12.3 7.19981C12.3 4.21747 9.88234 1.7998 6.9 1.7998C3.91766 1.7998 1.5 4.21747 1.5 7.19981C1.5 10.1821 3.91766 12.5998 6.9 12.5998Z" fill="#0099B5"/>
<path d="M16.9777 10.4414L16.6357 11.4674L17.1577 11.6474" fill="white"/>
</g>
<defs>
<clipPath id="clip0_200_68842">
<rect width="60" height="45" fill="white" transform="translate(-7.5)"/>
</clipPath>
</defs>
</svg>
