<svg width="45" height="45" viewBox="0 0 45 45" fill="none" xmlns="http://www.w3.org/2000/svg">
<g clip-path="url(#clip0_200_70282)">
<path d="M-7.5 0H52.5V45H-7.5V0Z" fill="#009543"/>
<path d="M-7.5 0H52.5V22.5H-7.5V0Z" fill="#D21034"/>
<path d="M-7.5 0L20.5 18.4738H52.4999V26.5264H20.5L-7.5 45.0002" fill="black"/>
<path fill-rule="evenodd" clip-rule="evenodd" d="M-9.90723 3.6484L-5.09294 -3.64844L21.8119 14.1028H56.8708V30.8974H21.8119L-5.09294 48.6486L-9.90723 41.3517L18.6655 22.5001L-9.90723 3.6484Z" fill="#FDCE12"/>
<path fill-rule="evenodd" clip-rule="evenodd" d="M-8.81348 1.98986L-6.1875 -1.99023L21.2151 16.0894H52.4994V20.8577H19.7838L-8.81348 1.98986ZM19.7838 24.1421H52.4994V28.9104H21.2151L-6.1875 46.99L-8.81348 43.0099L19.7838 24.1421Z" fill="black"/>
<path d="M0.565228 26.8108V29.3687C2.79155 29.3687 7.16841 27.6635 7.16841 22.1592C7.16841 16.655 2.49787 15.6318 1.10523 15.6318C-0.29688 15.6318 -4.60742 16.636 -4.60742 21.1266C-4.60742 25.6361 -0.372669 26.0529 0.461018 26.0529C1.29471 26.0529 4.42103 25.295 4.06103 21.9224C3.96769 22.7455 3.57384 23.5053 2.95496 24.0559C2.33609 24.6066 1.53574 24.9095 0.707335 24.9066C-1.56636 24.9066 -2.98742 23.2203 -2.98742 21.5529C-2.98742 19.8855 -1.60425 17.6497 0.792598 17.6497C3.18945 17.6497 4.94209 19.7813 4.94209 21.9224C4.94209 24.0729 3.25576 26.8013 0.565228 26.8013V26.8108Z" fill="#FDCE12"/>
<path d="M-1.39551 23.4665L-1.26288 23.5612C-1.26288 23.5612 -0.201819 21.1454 2.63082 19.4307C2.27082 19.6201 0.376078 20.5675 -1.39551 23.4665Z" fill="#FDCE12"/>
<path fill-rule="evenodd" clip-rule="evenodd" d="M2.58732 19.4101C2.59669 19.4052 2.60535 19.4007 2.61328 19.3965L2.65056 19.4624C1.23919 20.3168 0.269178 21.3458 -0.347943 22.1612C-0.656487 22.5688 -0.876739 22.923 -1.01976 23.175C-1.09127 23.301 -1.14346 23.4015 -1.17772 23.4703C-1.19485 23.5047 -1.20749 23.5312 -1.21583 23.5491C-1.21999 23.558 -1.22308 23.5647 -1.22512 23.5692L-1.22738 23.5742L-1.22792 23.5755L-1.22804 23.5757L-1.24683 23.6185L-1.41743 23.4967L-1.3954 23.4658L-1.42773 23.4461C0.309976 20.6025 2.16705 19.6302 2.58732 19.4101ZM-1.34464 23.4555L-1.27798 23.5031C-1.26981 23.4859 -1.25903 23.4636 -1.24557 23.4365C-1.21074 23.3665 -1.1579 23.2649 -1.08567 23.1376C-0.941227 22.8831 -0.719175 22.5261 -0.408375 22.1154C-0.360379 22.052 -0.310265 21.9873 -0.257992 21.9215C-0.615593 22.3581 -0.982546 22.866 -1.34464 23.4555Z" fill="#FDCE12"/>
<path d="M-1.12031 23.0495C-1.12031 23.0495 -1.44241 22.3863 -1.1582 22.0831C-0.873991 21.7895 -0.997149 22.8695 -0.997149 22.8695L-0.873991 22.6895C-0.873991 22.6895 -1.06346 21.8747 -0.855043 21.7042C-0.637147 21.5242 -0.741358 22.4905 -0.741358 22.4905L-0.608726 22.32C-0.608726 22.32 -0.750832 21.5242 -0.54241 21.3726C-0.324515 21.221 -0.457147 22.1305 -0.457147 22.1305L-0.305568 21.941C-0.305568 21.941 -0.419252 21.1831 -0.163462 21.0031C0.0923287 20.8231 -0.13504 21.7231 -0.13504 21.7231L0.0354869 21.5337C0.0354869 21.5337 -0.0403029 20.8421 0.177593 20.681C0.395488 20.5295 0.215487 21.3442 0.215487 21.3442L0.367067 21.1737C0.367067 21.1737 0.319698 20.5295 0.52812 20.3779C0.746016 20.2263 0.547067 20.9937 0.547067 20.9937L0.708121 20.8421C0.708121 20.8421 0.670226 20.1884 0.93549 20.0652C1.20075 19.9421 0.888122 20.6716 0.888122 20.6716L1.0776 20.52C1.0776 20.52 1.12496 19.7621 1.35233 19.6958C1.5797 19.62 1.2576 20.3589 1.2576 20.3589L1.41865 20.2263C1.41865 20.2263 1.50391 19.5821 1.75023 19.5063C2.00602 19.421 1.59865 20.0937 1.59865 20.0937L1.7597 19.9705C1.7597 19.9705 1.9397 19.3263 2.17655 19.2505C2.40392 19.1842 1.93023 19.8663 1.93023 19.8663L2.09128 19.7526C2.09128 19.7526 2.34707 19.1652 2.56497 19.1273C2.76392 19.0895 2.31865 19.6105 2.31865 19.6105L2.5176 19.4968C2.5176 19.4968 2.84918 18.8905 2.97234 19.0705C3.08602 19.26 2.49865 19.5347 2.49865 19.5347L2.30918 19.6484C2.30918 19.6484 3.01971 19.3073 3.10497 19.4779C3.19023 19.6484 2.12918 19.7621 2.12918 19.7621L1.95865 19.8758C1.95865 19.8758 2.66918 19.6863 2.58392 19.8663C2.48918 20.0463 1.78812 20.0084 1.78812 20.0084L1.62707 20.1221C1.62707 20.1221 2.3376 19.9516 2.24286 20.1221C2.14813 20.2737 1.45654 20.2642 1.45654 20.2642L1.28602 20.4063C1.28602 20.4063 1.9776 20.2168 1.87339 20.4347C1.77865 20.6431 0.982859 20.6337 0.982859 20.6337L0.793385 20.8231C0.793385 20.8231 1.52286 20.5674 1.45654 20.7663C1.3997 20.9558 0.566015 21.0505 0.566015 21.0505L0.376541 21.24C0.376541 21.24 1.16286 20.9842 0.926016 21.221C0.698647 21.4674 0.12075 21.5242 0.12075 21.5242L-0.0971453 21.8084C-0.0971453 21.8084 0.6797 21.3347 0.566015 21.6C0.461804 21.8653 -0.305568 22.0453 -0.305568 22.0453L-0.457147 22.2347C-0.457147 22.2347 0.243908 21.8274 0.168118 22.0453C0.101802 22.2821 -0.646621 22.5189 -0.646621 22.5189L-0.769779 22.6895C-0.769779 22.6895 0.0544343 22.1968 -0.0118817 22.4526C-0.0876715 22.6989 -0.873991 22.8789 -0.873991 22.8789L-0.968728 23.04C-0.968728 23.04 -0.21083 22.5947 -0.21083 22.8126C-0.191883 23.021 -1.10136 23.2295 -1.10136 23.2295L-1.12031 23.0495Z" fill="#FDCE12"/>
</g>
<defs>
<clipPath id="clip0_200_70282">
<rect width="60" height="45" fill="white" transform="translate(-7.5)"/>
</clipPath>
</defs>
</svg>
