<svg width="45" height="45" viewBox="0 0 45 45" fill="none" xmlns="http://www.w3.org/2000/svg">
<g clip-path="url(#clip0_200_68680)">
<path fill-rule="evenodd" clip-rule="evenodd" d="M-7.5 0H52.5V45H-7.5V0Z" fill="#CE1126"/>
<path fill-rule="evenodd" clip-rule="evenodd" d="M-7.5 0H22.5V22.5H-7.5V0Z" fill="#002B7F"/>
<path fill-rule="evenodd" clip-rule="evenodd" d="M9.37519 21.4969L7.43457 20.1844L5.56894 21.5062L6.17832 19.1719L4.39707 17.7469L6.69394 17.6062L7.45332 15.3937L8.27832 17.6437L10.5283 17.7094L8.74707 19.2375L9.37519 21.4969ZM9.03769 5.97187L7.48145 4.96875L5.98145 5.94375L6.39394 4.06875L5.0252 2.87812L6.84394 2.72812L7.51894 0.984375L8.2127 2.7375L10.0033 2.89687L8.62519 4.15312L9.03769 5.97187ZM2.19395 11.55L0.693945 10.5187L-0.87168 11.55L-0.384179 9.73125L-1.7998 8.53125L0.000195384 8.4375L0.656446 6.65625L1.29395 8.42812L3.13145 8.53125L1.7252 9.70312L2.19395 11.55ZM15.9377 10.3125L14.4939 9.375L13.0877 10.3125L13.5002 8.59687L12.1877 7.49062L13.9033 7.35L14.4939 5.7375L15.1502 7.36875L16.8096 7.4625L15.5252 8.61562L15.9377 10.3125ZM11.8971 14.3812L10.9314 13.7812L9.96582 14.4L10.2189 13.2469L9.35645 12.4687L10.4814 12.375L10.9127 11.2875L11.3721 12.375L12.4877 12.4687L11.6346 13.2469L11.8971 14.3812Z" fill="white"/>
</g>
<defs>
<clipPath id="clip0_200_68680">
<rect width="60" height="45" fill="white" transform="translate(-7.5)"/>
</clipPath>
</defs>
</svg>
