<svg width="45" height="45" viewBox="0 0 45 45" fill="none" xmlns="http://www.w3.org/2000/svg">
<g clip-path="url(#clip0_200_65893)">
<path d="M-7.5 0H52.5V45H-7.5V0Z" fill="#244AA5"/>
<path d="M16.2186 21.075C16.2186 21.075 16.3311 21 16.3686 20.9906C16.4154 20.9906 16.5561 20.9344 16.5561 20.9344C16.5561 20.9344 16.6498 20.8875 16.6967 20.8875C16.7529 20.8875 16.8467 20.9437 16.8842 20.9906C16.9123 21.0375 17.0717 21.1219 17.0717 21.1219C17.0717 21.1219 17.1842 21.1594 17.2123 21.1219C17.2311 21.0844 17.2779 21.0562 17.3342 21.0562C17.3811 21.0562 17.3904 21.0094 17.3904 20.9719C17.3904 20.9344 17.4092 20.8875 17.4467 20.8406C17.4936 20.7937 17.5686 20.7656 17.5686 20.7656C17.5686 20.7656 17.6811 20.7187 17.6904 20.6531C17.7092 20.5875 17.8123 20.5406 17.8779 20.5312C17.9436 20.5312 17.8779 20.4937 18.0467 20.5125C18.2061 20.5312 18.2342 20.475 18.2342 20.4281C18.2436 20.3812 18.2342 20.3344 18.3373 20.3344C18.4404 20.3531 18.4873 20.3531 18.4873 20.2969C18.4873 20.2406 18.5811 20.2031 18.4217 20.1656C18.2529 20.1187 18.2717 20.1562 18.2529 20.0719C18.2529 20.0062 18.2529 20.0156 18.1498 20.0062C18.0373 19.9969 18.0936 19.9406 18.0842 19.8844C18.0748 19.8281 18.0467 19.7906 18.0279 19.7625C17.9998 19.725 17.9436 19.725 17.9436 19.6687C17.9436 19.6125 17.9342 19.575 17.8779 19.575C17.8123 19.575 17.7842 19.575 17.7842 19.5281C17.7842 19.4719 17.8029 19.4344 17.8592 19.4344C17.9248 19.4344 17.9529 19.3781 17.9529 19.3219C17.9342 19.2656 17.9342 19.1437 17.9342 19.1437L18.0186 19.05C18.0186 19.05 18.2623 18.8531 18.2811 18.8156C18.2998 18.7781 18.3842 18.75 18.4217 18.825C18.4592 18.9 18.4779 18.9187 18.5154 18.9562C18.5436 18.9937 18.6373 18.9656 18.6561 18.9281C18.6748 18.8906 18.6842 18.75 18.7404 18.675C18.7967 18.6094 18.8342 18.5719 18.8436 18.5062C18.8529 18.4406 18.8904 18.3937 18.9561 18.3937C19.0123 18.3937 19.0498 18.3094 19.0498 18.2625C19.0498 18.2156 19.0873 18.1687 19.1623 18.15C19.2373 18.1406 19.2842 18.0937 19.3123 18.1687C19.3404 18.2437 19.3686 18.2344 19.4154 18.2625C19.4717 18.2906 19.5467 18.3187 19.5842 18.2906C19.6311 18.2531 19.6498 18.1969 19.7061 18.225C19.7623 18.2625 19.7998 18.225 19.8186 18.1594L19.8467 17.9812C19.8467 17.9812 19.8561 17.9344 19.9498 17.9344C20.0436 17.9344 19.9779 17.8781 20.0248 17.8406C20.0811 17.8031 20.0811 17.7656 20.1467 17.7844C20.2123 17.8125 20.3154 17.7562 20.2686 17.6906C20.2123 17.6344 20.0998 17.5406 20.1654 17.4656C20.2311 17.3906 20.2592 17.2781 20.1936 17.2594C20.1279 17.25 20.0248 17.2687 20.0154 17.2031C20.0061 17.1281 19.9779 17.0719 20.0623 17.0625C20.1373 17.0531 20.2686 17.0531 20.3154 17.0156C20.3529 16.9781 20.4842 16.95 20.4842 16.8469C20.4842 16.7344 20.5217 16.725 20.5404 16.6594C20.5498 16.6031 20.5498 16.4719 20.4936 16.4156C20.4373 16.35 20.3623 16.2656 20.3529 16.2281C20.3342 16.1906 20.2873 16.1344 20.2029 16.1062C20.1279 16.0875 20.0529 16.0687 20.0529 16.0125C20.0529 15.9469 20.1092 16.0219 20.1092 15.8625C20.1092 15.7031 20.0061 15.675 20.0061 15.675L19.8467 15.5812C19.8467 15.5812 19.5654 15.5062 19.4904 15.5062C19.4154 15.5062 19.3217 15.4312 19.4061 15.375C19.4998 15.3281 19.5186 15.2344 19.4904 15.1687C19.4529 15.1031 19.4342 15.0469 19.3123 15.0187C19.1904 14.9906 19.1623 14.9625 19.2186 14.8875C19.2654 14.8219 19.2842 14.7656 19.3498 14.8219C19.4061 14.8688 19.5186 14.8875 19.6029 14.85C19.6967 14.8125 19.7248 14.775 19.7717 14.8219C19.8092 14.8594 19.8654 14.8969 19.9311 14.8406C19.9967 14.775 20.1186 14.7656 20.1748 14.7937C20.2217 14.8312 20.3623 14.8219 20.3998 14.7937C20.4373 14.775 20.5311 14.7 20.5311 14.6719C20.5311 14.6437 20.5873 14.5594 20.6342 14.5312C20.6904 14.4937 20.7561 14.4 20.8123 14.4C20.8686 14.4 20.8873 14.3344 20.8873 14.3062C20.8873 14.2594 20.9342 14.175 20.9436 14.1469C20.9436 14.1187 21.0561 14.0719 21.1311 14.1469C21.2154 14.1937 21.3186 14.2219 21.3186 14.2219C21.3186 14.2219 21.4123 14.2406 21.4779 14.2219C21.5075 14.2036 21.5416 14.194 21.5764 14.194C21.6111 14.194 21.6452 14.2036 21.6748 14.2219C21.7592 14.2781 21.8623 14.2781 21.8623 14.2781L21.8904 14.1562C21.8904 14.1187 21.9092 14.0437 21.8623 14.0156C21.8248 13.9875 21.7686 13.95 21.8529 13.8844C21.9467 13.8281 21.9467 13.8375 22.0311 13.8375L22.2373 13.8469C22.3029 13.8469 22.4061 13.9125 22.4061 13.9687C22.4061 14.025 22.4529 14.0625 22.4998 14.1C22.5561 14.1281 22.6217 14.1562 22.5936 14.2125C22.5842 14.2594 22.5842 14.3062 22.6498 14.2875C22.7154 14.2781 22.7342 14.3156 22.7342 14.3719C22.7342 14.4187 22.7529 14.4469 22.8279 14.4656C22.8842 14.4844 22.9217 14.5312 22.9217 14.5781C22.9217 14.625 22.9029 14.6625 22.9217 14.7094L23.0154 14.8406C23.0154 14.8406 23.1373 14.9812 22.9779 14.9062C22.8279 14.8406 22.7904 14.8125 22.7436 14.8125L22.6498 14.8594L22.5279 14.8781C22.4717 14.8781 22.4154 14.9906 22.5092 15.0094C22.5936 15.0281 22.6217 15.0469 22.6217 15.1219C22.6217 15.1969 22.5936 15.1687 22.5467 15.2156C22.5092 15.2719 22.4717 15.2344 22.3967 15.2344C22.3217 15.2344 22.3029 15.3 22.3029 15.3562C22.3029 15.4125 22.3311 15.4125 22.3592 15.45C22.3967 15.5062 22.4529 15.5156 22.5092 15.4687C22.5561 15.4219 22.6029 15.3844 22.6311 15.4781C22.6686 15.5719 22.7154 15.5719 22.7717 15.5719C22.8373 15.5719 22.8654 15.5719 22.9217 15.5344C22.9686 15.5062 23.0342 15.5344 23.0436 15.6188C23.0623 15.6938 23.1092 15.7125 23.1654 15.7406C23.2217 15.7687 23.2592 15.7875 23.2592 15.8344C23.2779 15.8906 23.3061 15.9094 23.3623 15.8812C23.4186 15.8437 23.5029 15.825 23.5404 15.8719L23.6248 15.9844V16.0875L23.8404 16.1625L23.8592 16.2562C23.8592 16.2844 23.8967 16.3125 23.9529 16.2937H24.1029C24.1029 16.2937 24.1779 16.2656 24.1779 16.2C24.1779 16.1437 24.2061 16.125 24.2717 16.125C24.3186 16.125 24.4404 16.1719 24.4686 16.1062C24.5061 16.05 24.5998 16.0312 24.6748 16.0594L24.9561 16.1719C24.9561 16.1719 24.9279 16.1719 24.9936 16.275C25.0592 16.3781 25.1811 16.3781 25.1811 16.3781C25.1811 16.3781 25.1811 16.4719 25.2092 16.5094C25.2279 16.5469 25.3311 16.5656 25.3779 16.5281C25.4342 16.4906 25.5092 16.4344 25.5748 16.4344C25.6404 16.4344 25.6873 16.4344 25.6873 16.3969C25.6873 16.3594 25.6217 16.3312 25.6217 16.2656C25.6217 16.2 25.6873 16.2094 25.6967 16.1437C25.7061 16.0875 25.7717 16.1437 25.8186 16.1813C25.8654 16.2188 25.9123 16.2562 25.9123 16.2937C25.9123 16.3406 26.0061 16.4812 26.0529 16.5C26.1092 16.5187 26.2498 16.5281 26.2967 16.4812C26.3342 16.425 26.4467 16.4062 26.4373 16.5281C26.4279 16.65 26.3998 16.6594 26.4748 16.6969C26.5498 16.7344 26.5686 16.8844 26.5029 16.9219C26.4373 16.9594 26.4092 16.9687 26.4092 17.0344C26.4092 17.1 26.3904 17.1844 26.4467 17.2219C26.5029 17.2687 26.5404 17.2969 26.5404 17.3344C26.5404 17.3812 26.5967 17.5594 26.5967 17.5594C26.5967 17.5594 26.6342 17.7375 26.6154 17.775C26.6154 17.8219 26.5873 17.8875 26.6811 17.8781C26.7748 17.8687 26.8029 17.8687 26.8029 17.9437C26.8029 18.0187 26.8404 18.0562 26.7842 18.0844C26.7279 18.1219 26.6904 18.2156 26.7467 18.2344C26.8029 18.2531 26.8404 18.2906 26.8592 18.3281C26.8686 18.3656 26.9529 18.4406 27.0092 18.3937C27.0654 18.3562 27.0748 18.3375 27.1217 18.3281C27.1592 18.3187 27.1967 18.2906 27.1498 18.2344C27.1123 18.1875 27.0936 18.1406 27.1404 18.1031C27.1873 18.075 27.2061 17.9812 27.2061 17.9812C27.2061 17.9812 27.2717 17.8875 27.3467 17.9812C27.4217 18.075 27.4404 18.0375 27.4873 18.0375C27.5342 18.0375 27.5623 18.0844 27.5623 18.1312C27.5623 18.1875 27.6748 18.1781 27.6748 18.2531L27.6936 18.5344C27.6936 18.5344 27.6936 18.6375 27.7592 18.675C27.8248 18.7219 27.8154 18.7312 27.7779 18.7687C27.7498 18.825 27.7592 18.9094 27.7592 18.9562C27.7592 19.0031 27.7779 19.0031 27.7311 19.05C27.6748 19.0875 27.6467 19.1437 27.6842 19.2C27.7123 19.2562 27.7029 19.2937 27.7873 19.3687C27.8811 19.4344 27.8717 19.4625 27.8717 19.5187C27.8717 19.5656 27.9561 19.6406 27.9561 19.6875C27.9561 19.7344 28.0217 19.8 28.0779 19.8094C28.1342 19.8187 28.1904 19.9031 28.1904 19.9594L28.1998 20.1375C28.1998 20.1375 28.1998 20.1656 28.2561 20.1656C28.3217 20.1656 28.3686 20.2406 28.3873 20.1656C28.4061 20.0719 28.4811 20.0719 28.5186 20.0437C28.5561 20.0156 28.6498 19.9875 28.6967 20.0156C28.7436 20.0437 28.7904 20.0437 28.8373 20.0437L29.0811 20.0531C29.0811 20.0531 29.1373 20.0531 29.1748 20.1281C29.2029 20.2031 29.2967 20.2969 29.2498 20.3344C29.1936 20.3812 29.1936 20.4562 29.2498 20.4562C29.3061 20.4562 29.3904 20.4562 29.3904 20.5031C29.3904 20.5594 29.3904 20.5969 29.4561 20.5687C29.5029 20.5406 29.5404 20.5312 29.5592 20.5687C29.5873 20.6062 29.6248 20.6062 29.6811 20.6344C29.7373 20.6719 29.7561 20.6437 29.7936 20.6062C29.8217 20.5687 29.9529 20.5312 29.9529 20.5312C29.9529 20.5312 30.1217 20.4844 30.1873 20.5031L30.3467 20.5687C30.3467 20.5687 30.3842 20.6625 30.3654 20.7281C30.3467 20.7844 30.3186 20.775 30.3467 20.8687C30.3654 20.9625 30.3186 20.9625 30.2811 20.9625C30.2342 20.9437 30.1873 20.9437 30.1873 21.0281C30.1873 21.1031 30.1498 21.1219 30.1498 21.1969C30.1498 21.2719 30.1498 21.2531 30.1029 21.2906C30.0654 21.3187 30.0467 21.3656 30.1123 21.3844C30.1779 21.3844 30.1592 21.4594 30.1592 21.4969L30.1498 21.6281C30.1498 21.6281 30.1498 21.675 30.0842 21.675C30.0186 21.675 29.9436 21.675 29.9342 21.7219C29.9154 21.7687 29.8404 21.8438 29.9061 21.9C29.9811 21.9469 29.9623 21.975 29.9154 21.9937C29.8779 22.0219 29.8404 22.1156 29.9342 22.1437C30.0186 22.1812 30.0092 22.2094 29.9529 22.2469C29.8967 22.2844 29.7936 22.3219 29.7936 22.3781C29.7936 22.4344 29.7654 22.4344 29.6998 22.4437C29.6342 22.4531 29.6061 22.5375 29.6811 22.6312C29.7561 22.7344 29.7748 22.725 29.8311 22.725C29.8873 22.725 29.8873 22.6312 29.8873 22.6312L30.1217 22.65C30.1779 22.65 30.2529 22.65 30.2998 22.6219C30.3467 22.5844 30.4592 22.5375 30.4592 22.6219C30.4592 22.7156 30.4873 22.7156 30.5342 22.7437C30.5904 22.7906 30.5998 22.7531 30.6467 22.8187C30.6936 22.875 30.7029 22.8187 30.7404 22.7531C30.7686 22.6875 30.8342 22.6219 30.8904 22.6969C30.9373 22.7812 30.9373 22.7531 31.0029 22.7531C31.0686 22.7531 31.0967 22.7906 31.0967 22.8375C31.0967 22.8844 31.1529 22.8844 31.2373 22.875C31.3123 22.875 31.3217 22.9219 31.3498 22.9687C31.3779 23.0156 31.3967 23.0062 31.4436 23.0062C31.4811 23.0062 31.5279 23.0062 31.5561 22.9687C31.5936 22.9312 31.6311 22.875 31.6779 22.9406C31.7248 22.9969 31.8092 22.9875 31.8279 22.9219C31.8561 22.8469 31.9498 22.7906 32.0061 22.8656C32.0623 22.95 32.0998 22.95 32.1561 22.9594C32.2123 22.9594 32.2873 22.9594 32.3154 23.0156C32.3529 23.0719 32.4561 23.1469 32.3811 23.2031C32.3061 23.2687 32.2217 23.3438 32.2873 23.3719C32.3461 23.3862 32.3987 23.4191 32.4373 23.4656C32.4842 23.5031 32.6248 23.5312 32.6904 23.5406C32.7561 23.5406 32.8029 23.5594 32.8779 23.4937C32.9623 23.4375 33.0373 23.4375 33.0279 23.5219C33.0186 23.5969 33.0561 23.6906 33.0561 23.6906C33.0561 23.6906 33.1123 23.8219 33.1123 23.8687C33.1123 23.9156 33.1029 23.925 33.2061 23.9906C33.2998 24.0469 33.2811 24.0844 33.3654 24.0281C33.4404 23.9719 33.4592 23.9344 33.4592 23.8875V23.7281C33.4592 23.7281 33.5717 23.7094 33.6092 23.6812C33.6561 23.6438 33.8248 23.5594 33.8717 23.5969C33.9186 23.6344 33.9654 23.625 34.0123 23.6062C34.0592 23.5875 34.1436 23.5875 34.1904 23.5875C34.2279 23.5875 34.3029 23.5969 34.3967 23.5312C34.4811 23.4562 34.4811 23.475 34.5373 23.5312C34.5842 23.5781 34.5842 23.6344 34.5561 23.6812C34.5186 23.7188 34.5561 23.8031 34.6311 23.8031C34.7061 23.8031 34.7248 23.85 34.7248 23.8969L34.7529 24.0562C34.7529 24.0938 34.7529 24.1219 34.8842 24.15C34.9967 24.1781 34.9779 24.2438 34.9967 24.3C35.0248 24.3469 35.0248 24.3938 34.9592 24.3938C34.8936 24.3938 34.8654 24.4219 34.8654 24.4687C34.8467 24.5156 34.7529 24.5344 34.7529 24.5344L34.6592 24.5156C34.6592 24.5156 34.5842 24.5156 34.5561 24.5531C34.5186 24.6 34.4623 24.675 34.4998 24.7406C34.5467 24.8156 34.5467 24.8531 34.4998 24.8906C34.4623 24.9187 34.4342 25.0687 34.3967 25.0406C34.3498 25.0031 34.3029 25.0406 34.2561 25.0687C34.2092 25.0875 34.2186 25.2281 34.3029 25.275C34.3967 25.3313 34.4154 25.3969 34.4154 25.3969L34.5092 25.5469C34.5092 25.5469 34.4811 25.575 34.4623 25.6312C34.4342 25.6781 34.3686 25.7812 34.4342 25.8C34.4998 25.8188 34.4717 25.9313 34.4061 25.9313C34.3404 25.9313 34.2654 25.8938 34.2561 25.9781C34.2467 26.0625 34.2092 26.0344 34.1436 26.025C34.0779 26.025 33.9186 25.9781 33.8717 26.0531C33.8248 26.1375 33.8154 26.1656 33.7404 26.1562C33.6654 26.1562 33.6936 26.2781 33.7217 26.325L33.8154 26.4469C33.8154 26.4469 33.8811 26.4938 33.8811 26.5969C33.8811 26.6906 33.8342 26.6906 33.7873 26.6156C33.7498 26.55 33.6654 26.5594 33.6561 26.6344C33.6467 26.7188 33.6279 26.8406 33.5623 26.8406C33.4779 26.8406 33.4498 26.8594 33.4123 26.8969C33.3842 26.9344 33.3279 27.0094 33.3279 27.0469C33.3279 27.0844 33.3186 27.1313 33.2623 27.1406C33.2061 27.15 33.1967 27.2531 33.1967 27.2531C33.1967 27.2531 33.0654 27.2812 33.0561 27.3281C33.0467 27.375 33.0654 27.4594 32.9623 27.4688C32.9203 27.4737 32.8799 27.4881 32.8442 27.5108C32.8085 27.5335 32.7783 27.564 32.7561 27.6C32.7186 27.6469 32.7092 27.6937 32.7561 27.7406C32.8029 27.7875 32.8311 27.9469 32.8873 27.975C32.9342 28.0031 32.9811 28.0219 32.9717 28.0969C32.9623 28.1813 32.8967 28.2375 32.9811 28.2375C33.0748 28.2375 33.1217 28.2563 33.0936 28.3313C33.0561 28.3969 33.0561 28.4062 32.9998 28.4344C32.9248 28.4719 32.8967 28.4719 32.8967 28.5469C32.8967 28.6219 32.9154 28.6313 32.8592 28.6594C32.8029 28.6875 32.8029 28.725 32.8029 28.7906C32.8029 28.8563 32.7842 28.8281 32.7186 28.8938C32.6529 28.9688 32.5686 28.9687 32.5123 28.95C32.4561 28.9312 32.4467 28.9312 32.4373 28.8656C32.4279 28.8094 32.3342 28.8094 32.2779 28.8187C32.2217 28.8187 32.1467 28.8844 32.1467 28.8844C32.1467 28.8844 32.0529 28.95 32.0904 28.9969C32.1373 29.0437 32.1092 29.1281 32.0342 29.1188C31.9592 29.1094 31.7904 29.1938 31.7342 29.1094C31.6779 29.0156 31.5279 28.9594 31.4998 29.0813C31.4811 29.1938 31.5654 29.1844 31.5561 29.3063C31.5561 29.4281 31.5279 29.4281 31.4811 29.4656C31.4436 29.5031 31.4436 29.5406 31.4248 29.5875C31.4248 29.6344 31.4061 29.7469 31.4811 29.7844C31.5561 29.8313 31.5936 29.9344 31.5936 30C31.5936 30.0562 31.5936 30.1219 31.6686 30.1219C31.7436 30.1219 31.8092 30.1031 31.8186 30.0375C31.8279 29.9719 31.9779 29.925 31.9967 30.0656C31.9967 30.2063 31.9967 30.2812 32.0623 30.3375C32.1092 30.3938 32.1561 30.4781 32.2029 30.5062C32.2404 30.5344 32.3154 30.7875 32.3154 30.7875C32.2123 30.8156 32.1842 30.9562 32.1186 30.975C32.0811 30.9937 32.0342 30.975 31.9967 31.0031C31.9779 31.0313 31.9779 31.0688 31.9404 31.0781C31.8561 31.1156 31.8748 30.9938 31.7717 31.0406C31.6873 31.0781 31.6779 31.1813 31.5561 31.1344C31.4904 31.1156 31.4529 30.8531 31.4342 30.7969L31.3311 30.6281C31.2561 30.5156 31.1154 30.6281 31.0686 30.5906C30.9936 30.5437 31.0217 30.4594 30.9092 30.45C30.6842 30.4312 30.8436 30.5906 30.7498 30.6188C30.5623 30.6844 30.5623 30.45 30.4311 30.5625C30.3842 30.6 30.5248 30.6281 30.4873 30.6937C30.4592 30.75 30.3279 30.8438 30.3279 30.9094C30.3467 31.0031 30.4404 31.0313 30.4686 31.0969C30.5623 31.3125 30.4217 31.4531 30.2154 31.2844C30.1029 31.2 30.0748 31.0313 29.9061 31.05C29.8592 31.05 29.8498 31.0875 29.8123 31.0969C29.7654 31.0969 29.7373 31.0594 29.6904 31.0687C29.6248 31.0969 29.6904 31.1438 29.6717 31.1813C29.6717 31.1813 29.5779 31.2469 29.5779 31.275C29.5217 31.3313 29.5404 31.3875 29.4654 31.4437C29.4092 31.4906 29.3623 31.4625 29.2967 31.5375C29.2311 31.6031 29.2217 31.7156 29.1373 31.7812C29.0904 31.8188 29.0623 31.6781 29.0061 31.7719L28.9873 31.8094C28.9686 31.8375 28.9686 31.8469 28.9873 31.875C29.0998 32.1 28.8561 32.175 28.7811 32.3344C28.7529 32.4 28.8373 32.4562 28.8092 32.5125L28.6686 32.6719C28.6686 32.6906 28.6498 32.7469 28.6311 32.7656C28.6123 32.7844 28.5373 32.7656 28.5373 32.8031C28.5373 32.8406 28.6123 32.8687 28.6311 32.8875C28.6498 32.9156 28.6123 32.9531 28.6311 32.9625C28.7436 33.0844 28.6779 33.0469 28.7342 33.15C28.7436 33.1688 28.7811 33.1406 28.7998 33.1781C28.8092 33.2156 28.7623 33.2156 28.7811 33.2531C28.7811 33.2719 28.8748 33.3844 28.8748 33.3844C28.8748 33.4219 28.7061 33.4969 28.6686 33.4969C28.5654 33.4969 28.7623 33.2906 28.5936 33.2906C28.5186 33.2906 28.5092 33.45 28.4998 33.4781H28.4061C28.2936 33.4781 28.2186 33.6094 28.1811 33.6188C28.1529 33.6281 28.0873 33.6 28.0404 33.6188C28.0029 33.6188 27.9467 33.6656 27.9092 33.6656C27.8811 33.6656 27.8717 33.6469 27.8436 33.6281C27.7967 33.6 27.7029 33.5906 27.6561 33.5719C27.6186 33.5719 27.5623 33.6094 27.5436 33.6C27.5154 33.5812 27.5717 33.5063 27.4873 33.4688L27.4217 33.3094C27.4498 33.2156 27.4779 33.1219 27.4686 33.0188C27.4498 32.9156 27.2811 32.8313 27.2436 32.7375C27.2154 32.6813 27.1873 32.5125 27.1217 32.475C27.0502 32.4202 26.9924 32.3496 26.9529 32.2688C26.9529 32.25 26.9811 32.2125 26.9529 32.175C26.9248 32.1469 26.8779 32.1281 26.8592 32.0813C26.8498 32.0438 26.8592 31.9125 26.8123 31.8844C26.7654 31.8563 26.4373 31.8094 26.3436 31.8C26.3061 31.8 26.2779 31.8 26.2498 31.7719L26.1936 31.7063L26.0998 31.725C26.0717 31.725 26.0248 31.7062 26.0061 31.725C25.9029 31.7906 25.8748 31.8844 25.7717 31.9688C25.6686 32.0438 25.5561 32.0438 25.4529 32.1281C25.3873 32.1844 25.3404 32.325 25.2748 32.3906C25.2467 32.4188 25.2092 32.3906 25.1998 32.4C25.1436 32.4656 25.0686 32.5125 25.0123 32.5687C25.0029 32.5875 25.0123 32.6062 24.9936 32.6156L24.8717 32.6531H24.7592C24.7123 32.6719 24.7123 32.7281 24.5248 32.7656L24.4779 32.7937L24.4217 32.8406H24.3373C24.2904 32.8406 24.2623 32.8875 24.2248 32.8875C24.1311 32.9062 23.9623 32.8406 23.8873 32.8781C23.8404 32.8875 23.7186 33.0375 23.6717 33.0469C23.6436 33.0562 23.6154 33.0469 23.5779 33.0375L23.5217 33.2438L23.2967 33.4406C23.2686 33.4688 23.2592 33.5063 23.2217 33.5344C23.2029 33.5625 23.1654 33.5813 23.1279 33.5813C23.0904 33.5813 23.0248 33.5437 22.9779 33.5437C22.9029 33.525 22.6686 33.5156 22.6029 33.5344C22.5186 33.5438 22.5467 33.7594 22.3592 33.7781L22.0498 33.8156C22.0404 33.8156 21.9748 33.7781 21.9092 33.7875C21.8811 33.7969 21.8061 33.8813 21.8061 33.9V33.9469L21.8248 33.9844C21.7873 34.0312 21.6936 34.1063 21.6654 34.1719L21.6279 34.2094C21.6092 34.2281 21.4779 34.275 21.4686 34.2937C21.4404 34.3687 21.5623 34.4438 21.5436 34.4719C21.5154 34.5656 21.3842 34.6594 21.3373 34.7531C21.3279 34.7906 21.3842 34.9125 21.3842 34.95C21.3654 35.0719 21.3279 35.2219 21.3373 35.3344L21.3561 35.4938L21.4217 35.5406L21.5904 35.8781C21.6186 36.0844 21.3092 36.0094 21.4967 36.2156C21.5154 36.2531 21.5342 36.2812 21.5717 36.3094L21.8342 36.525C21.8342 36.5625 21.6467 36.5906 21.6186 36.6188C21.5248 36.7125 21.4592 36.8625 21.3748 36.9563C21.3186 37.0031 21.2811 36.9469 21.2061 37.0781C21.1873 37.125 21.2061 37.2281 21.1779 37.2656C21.1311 37.3031 21.1029 37.2469 21.0561 37.2656C21.0373 37.2656 21.0279 37.3312 21.0092 37.3406C20.9623 37.3875 20.5217 37.6219 20.4842 37.5938C20.4654 37.5844 20.4373 37.5094 20.4373 37.4906C20.4373 37.4625 20.3998 37.4062 20.3811 37.3969C20.2686 37.3031 20.0998 37.275 19.9873 37.3969C19.9592 37.425 19.9592 37.4719 19.9217 37.4906L19.7342 37.6406L19.6873 37.6875C19.6404 37.6875 19.5373 37.5656 19.4998 37.5281C19.4623 37.4719 19.3123 37.3406 19.3029 37.275C19.3029 37.05 19.1248 36.8156 19.0592 36.6H19.1623C19.2842 36.5156 19.2561 36.3188 19.4717 36.3938C19.4998 36.3563 19.4998 36.3188 19.5467 36.3C19.5654 36.2813 19.6029 36.2719 19.6123 36.2531C19.6873 36.1406 19.7717 35.7094 19.6967 35.5969C19.6311 35.5031 19.5561 35.5031 19.5092 35.3438C19.4904 35.2969 19.5092 35.25 19.5092 35.1937L19.4154 34.9031C19.3967 34.875 19.3498 34.8563 19.3498 34.8375L19.3311 34.5469C19.2654 34.3406 19.0123 34.2188 19.0029 34.1906L18.9092 34.0312C18.8717 33.9656 18.8717 33.9375 18.8529 33.8812C18.8436 33.8531 18.7967 33.825 18.7967 33.7969C18.7967 33.7406 18.9467 33.6375 18.9373 33.5437C18.9373 33.5156 18.8436 33.4219 18.8623 33.375C18.8811 33.3188 18.9748 33.2062 18.9748 33.1406C18.9748 33.0656 18.8248 32.8969 18.8061 32.8219C18.7967 32.775 18.8623 32.7469 18.8436 32.7188C18.8248 32.6812 18.6748 32.5406 18.6561 32.5031C18.6279 32.475 18.7029 32.4375 18.6561 32.3812C18.5998 32.3344 18.6467 32.3438 18.6279 32.3063C18.6092 32.2594 18.5623 32.2125 18.5342 32.1656C18.5154 32.1188 18.3842 31.65 18.3936 31.6219C18.3654 31.5937 18.3279 31.5656 18.3092 31.5281L18.2717 31.4156C18.2717 31.4156 18.1217 31.3688 18.0936 31.3219C18.0748 31.2938 18.0654 31.1719 18.0279 31.1156C18.0092 31.0875 17.9811 31.0969 17.9623 31.0781C17.9436 31.0594 17.9436 31.0312 17.9342 31.0125C17.8873 30.9562 17.8029 31.0125 17.7467 30.7875C17.6529 30.7312 17.5873 30.6938 17.5217 30.6188L17.4842 30.5813C17.4279 30.5625 17.3436 30.5531 17.2967 30.5156C17.2686 30.5156 17.1279 30.5156 17.1092 30.4969L17.0717 30.4219C16.9967 30.4125 16.8654 30.4219 16.7998 30.3656C16.7529 30.3187 16.7436 30.1031 16.6498 30.1312C16.6376 30.1276 16.6245 30.1276 16.6123 30.1312C16.5467 30.0375 16.3404 30.0375 16.2561 29.9812C16.2373 29.9719 16.1623 29.9813 16.1623 29.9625L16.1717 29.8406L16.0686 29.7094C15.9842 29.6906 16.0123 29.6812 15.9748 29.6531C15.8342 29.6531 15.8154 29.6719 15.7311 29.7469C15.7123 29.7656 15.6654 29.775 15.6373 29.7844C15.5904 29.8125 15.5811 29.8969 15.5154 29.8594L15.4592 29.8125C15.4217 29.775 15.4029 29.7938 15.3842 29.7375C15.2717 29.6719 14.9623 29.8781 14.8967 29.7375C14.8404 29.7094 14.8029 29.7375 14.7561 29.7C14.7373 29.6812 14.8217 29.4187 14.5967 29.325L14.7467 29.2219C14.7654 29.1938 14.7467 29.1469 14.7467 29.1281C14.7467 29.0813 14.7748 28.9969 14.7654 28.9688C14.7654 28.9406 14.7279 28.9125 14.7186 28.875C14.6998 28.8469 14.7186 28.8 14.6998 28.7625L14.6248 28.725C14.5686 28.6781 14.5123 28.65 14.4654 28.5938L14.4279 28.5469C14.3904 28.5188 14.2592 28.4719 14.2592 28.4156C14.2592 28.3969 14.2967 28.3875 14.2967 28.3688C14.3061 28.3406 14.2967 28.3125 14.3248 28.2937C14.3811 28.2 14.5217 28.2469 14.5029 28.0875C14.4936 28.0125 14.4373 27.9562 14.4279 27.8812C14.3998 27.8625 14.3998 27.8344 14.3811 27.8156C14.2404 27.8063 14.2592 27.6656 14.2123 27.6281C14.0717 27.5344 13.9592 27.5906 14.1186 27.4031C14.1373 27.3375 13.9779 27.2344 13.9498 27.2063C13.8936 27.15 13.9217 27.0281 13.8936 26.9719C13.8936 26.9438 13.7904 26.8875 13.7623 26.85L13.7154 26.7562V26.7469C13.7436 26.7187 13.7342 26.6719 13.7154 26.6531C13.7061 26.625 13.6592 26.6344 13.6498 26.6156C13.5186 26.5031 13.3686 26.4469 13.1904 26.3812C13.1436 26.3625 13.1623 26.325 13.1154 26.3063L12.8342 26.1937C12.8154 26.1937 12.7967 26.0906 12.7779 26.0531L12.6936 25.9594C12.6936 25.8656 12.6373 25.8656 12.5623 25.8094V25.7531L12.6186 25.5562C12.6279 25.5188 12.6748 25.4812 12.6654 25.4437L12.6279 25.2281C12.5529 25.0406 12.4686 25.0594 12.5154 24.8062C12.5154 24.75 12.5061 24.7219 12.5436 24.675L12.5623 24.6469L12.6748 24.5625C12.7123 24.5062 12.7404 24.3844 12.7873 24.3469L12.9561 24.2344C12.9748 24.2156 12.9936 24.15 12.9842 24.1219C12.9467 24.1031 12.9092 24.1125 12.8717 24.1031C12.8529 24.1031 12.8061 24.0656 12.7686 24.0656C12.7592 24.0469 12.7404 24.0375 12.7404 24.0188L12.7217 24C12.6748 24 12.6279 23.9719 12.5904 23.9531C12.5436 23.9344 12.4779 23.9344 12.4311 23.9062C12.3373 23.8594 12.2436 23.7188 12.1592 23.7C12.0467 23.6719 11.9717 23.7094 11.8592 23.7187C11.7936 23.7187 11.7936 23.6812 11.7373 23.6625C11.6623 23.6344 11.7186 23.7 11.5498 23.6437C11.5217 23.625 11.5498 23.5687 11.5498 23.55H11.4561C11.3248 23.5125 11.3717 23.3812 11.3342 23.2969C11.3248 23.2781 11.2592 23.2781 11.2404 23.2781C11.2217 23.2781 11.2217 23.2594 11.2217 23.2594L11.2404 23.25C11.2592 23.2125 11.1748 23.1187 11.1748 23.1C11.1842 23.0719 11.3623 23.0437 11.3811 23.0437C11.3904 23.0156 11.3717 22.9969 11.3623 22.9781C11.3623 22.9312 11.3904 22.8656 11.4092 22.8187V22.8C11.3529 22.7719 11.3436 22.7344 11.2967 22.7062C11.2967 22.6781 11.3248 22.6687 11.3342 22.6406C11.4186 22.4062 11.5498 22.5937 11.6623 22.3781C11.6717 22.3594 11.7092 22.3125 11.7186 22.275H11.7373C11.7561 22.275 11.7936 22.2937 11.8123 22.275C11.8311 22.2562 11.8592 22.2562 11.8873 22.2469H11.9342C12.1404 22.2094 12.0936 22.1344 12.2154 22.05C12.2529 22.0219 12.3467 22.0125 12.3842 21.9937C12.4311 22.0219 12.4967 22.0875 12.5811 22.125C12.6467 22.1437 12.8623 22.1906 12.8998 22.2187C12.9467 22.2375 12.9561 22.2937 12.9936 22.3125C13.1154 22.3875 13.0404 22.275 13.1623 22.2937C13.2842 22.3219 13.3779 22.425 13.4904 22.4719L13.5842 22.4625C13.6123 22.4531 13.7998 22.4156 13.8186 22.425L13.8936 22.4531C13.9217 22.4625 13.9404 22.4062 13.9686 22.4062C14.0436 22.425 14.0436 22.4531 14.1561 22.4437C14.1561 22.4437 14.2123 22.1344 14.2686 22.125C14.2967 22.1156 14.3811 22.1906 14.3998 22.2C14.4373 22.2094 14.3998 22.1344 14.3998 22.1344C14.3811 22.1062 14.3248 21.9187 14.3342 21.9C14.3342 21.9 14.3811 21.9187 14.4092 21.9094C14.4654 21.8906 14.5498 21.8719 14.5967 21.825L14.6904 21.6844C14.6998 21.6656 14.6717 21.6094 14.6904 21.5906L14.7748 21.5344C14.8123 21.4969 14.8123 21.4406 14.8686 21.4125C15.0561 21.3937 15.1217 21.2437 15.2998 21.225H15.3561L15.3936 21.2812C15.3936 21.2906 15.5154 21.3656 15.5342 21.3562C15.5529 21.3562 15.5623 21.3281 15.5811 21.3187C15.6092 21.3281 15.7123 21.2719 15.7217 21.2344C15.7217 21.2344 15.7029 21.2062 15.7123 21.1781C15.7591 21.1365 15.8093 21.0989 15.8623 21.0656H15.9936C16.0123 21.0844 16.0123 21.1219 16.0404 21.1219H16.1529C16.1717 21.1219 16.1811 21.075 16.2186 21.075Z" fill="#D0A650"/>
<path d="M25.4908 6.88086L27.0002 11.5309L23.0439 8.65273H27.9377L23.9814 11.5309L25.4814 6.88086H25.4908ZM31.3783 7.92148L32.8783 12.5715L28.9314 9.69336H33.8158L29.8596 12.5715L31.3783 7.92148ZM36.9939 9.96523L38.4939 14.6152L34.5471 11.7371H39.4314L35.4752 14.6246L36.9939 9.97461V9.96523Z" fill="white"/>
<path d="M19.5092 6.88086L17.9998 11.5309L21.9561 8.65273H17.0623L21.0186 11.5309L19.5186 6.88086H19.5092ZM13.6217 7.92148L12.1217 12.5715L16.0686 9.69336H11.1842L15.1404 12.5715L13.6217 7.92148ZM8.03418 9.96523L9.55293 14.6152L5.59668 11.7371H10.4811L6.52481 14.6152L8.03418 9.96523Z" fill="white"/>
</g>
<defs>
<clipPath id="clip0_200_65893">
<rect width="60" height="45" fill="white" transform="translate(-7.5)"/>
</clipPath>
</defs>
</svg>
