<svg width="45" height="45" viewBox="0 0 45 45" fill="none" xmlns="http://www.w3.org/2000/svg">
<g clip-path="url(#clip0_200_70189)">
<path d="M-7.71582 -0.00976562H84.5949V44.9801H-7.71582V-0.00976562Z" fill="#006400"/>
<path d="M-7.71582 6.41797H84.5949V38.5536H-7.71582V6.41797Z" fill="#FFD200"/>
<path d="M-7.71582 12.8447H84.5949V32.1261H-7.71582V12.8447Z" fill="#D40000"/>
<path d="M-7.71582 19.2725H84.5949V25.6996H-7.71582V19.2725Z" fill="black"/>
<path d="M-7.71582 -0.00976562V44.9801L23.0544 22.4852L-7.71582 -0.00976562Z" fill="black"/>
<path fill-rule="evenodd" clip-rule="evenodd" d="M-8.80078 -2.14648L24.8929 22.4856L-8.80078 47.1177V-2.14648ZM-6.63083 2.12786V42.8434L21.216 22.4856L-6.63083 2.12786Z" fill="black"/>
<path d="M-7.71582 -0.00976562V44.9801L23.0544 22.4852L-7.71582 -0.00976562Z" fill="white"/>
<path d="M3.98833 11.1738L10.0874 29.459L-5.86914 18.158H13.8568L-2.11077 29.459L3.98833 11.1738Z" fill="#D40000"/>
<path d="M1.3838 27.1665L2.46076 26.9736L4.44983 26.8987L5.18612 26.9629L6.83453 27.2307L6.95541 27.0701V25.9132L7.15322 24.917L7.4829 23.91L7.84555 23.1067L8.3071 22.2711L9.05438 22.4532H9.25219L9.27417 22.314L7.6917 20.9964L6.04329 19.7646L3.6586 18.0292L3.43881 17.9757L3.18605 16.1546L2.99924 15.6083L2.74648 15.3941L2.27394 15.2441L1.74645 15.2656L1.50468 15.3941L0.99917 15.5012L0.735425 15.5441L0.559595 15.7476L0.537616 16.0047L1.2739 16.0261L1.46072 16.1011L1.43874 16.1761L1.02115 16.2296L0.823339 16.2939L1.05412 16.4653L1.29588 16.551L1.60359 16.6581L1.66952 16.8723L1.6915 19.636L1.52666 20.0645L1.47171 20.8679L1.71348 21.8319L1.09807 22.5175L0.746414 23.1281L0.680478 23.503L0.493658 23.8779L0.47168 24.1136L0.592563 24.3707L1.06511 25.8917L1.30687 27.145L1.3838 27.1665Z" fill="#FFCC00"/>
<path d="M1.9549 15.2019C1.75709 15.2019 1.66918 15.2233 1.48236 15.3197C1.32756 15.4061 1.15477 15.4574 0.976847 15.4697C0.702113 15.4697 0.482325 15.6625 0.482325 15.9089V16.0696L0.877943 16.0589C2.04282 16.091 0.987837 16.1981 0.899922 16.2088C0.614198 16.2624 0.965858 16.4873 1.30653 16.6052C1.66918 16.7123 1.6472 16.648 1.6472 18.2119C1.6472 19.4867 1.6472 19.6688 1.5373 19.958C1.39444 20.3865 1.39444 21.0292 1.5373 21.4576C1.60324 21.629 1.6472 21.779 1.6472 21.8111C1.6472 21.8326 1.47137 22.0361 1.26257 22.2717C0.877943 22.7002 0.647166 23.1394 0.647166 23.4501C0.633457 23.55 0.595812 23.6454 0.537272 23.7286C0.39441 23.9107 0.39441 24.2213 0.526283 24.3391C0.669145 24.4677 1.25158 26.6743 1.26257 27.0921C1.26257 27.2421 1.28455 27.2421 2.17469 27.0707C2.89999 26.9314 4.60334 26.8993 5.4715 27.0064C5.86712 27.06 6.32867 27.1457 6.49351 27.1778C7.021 27.317 6.99902 27.3385 6.99902 26.7172C7.00306 25.7383 7.19309 24.7686 7.55948 23.8571C7.76947 23.3377 8.02309 22.8361 8.31775 22.3574C8.31775 22.3574 8.51556 22.3789 8.75732 22.4431C9.20789 22.5503 9.33976 22.5395 9.33976 22.336C9.33976 22.2289 8.86722 21.8433 6.54846 20.0865C5.61323 19.3404 4.64913 18.6293 3.65825 17.9549C3.59232 17.9549 3.52638 17.9227 3.51539 17.8799L3.35055 16.8623C3.27363 16.3374 3.16373 15.8232 3.11978 15.7161C2.96592 15.3947 2.66921 15.234 2.17469 15.2019C2.10145 15.1996 2.02815 15.1996 1.9549 15.2019ZM1.96589 15.309H2.18568C2.91098 15.3519 3.04285 15.5447 3.24066 16.8087C3.29404 17.1431 3.33801 17.4789 3.37253 17.8156C3.37253 17.9013 3.27363 18.0084 3.02087 18.1691C2.60501 18.4535 2.23467 18.7965 1.92193 19.1867L1.77907 19.3795L1.7461 18.9296V17.6656C1.77907 16.7337 1.7461 16.648 1.4384 16.5409C1.18565 16.4552 0.855965 16.3695 0.943879 16.3159C1.05377 16.2517 1.16367 16.2945 1.42741 16.2195C1.5373 16.1981 1.52632 16.2088 1.50434 16.1231C1.48236 15.9839 1.32851 15.9089 0.9219 15.9303C0.592219 15.9517 0.559251 15.941 0.58123 15.8553C0.625187 15.6839 0.801017 15.5768 1.07575 15.5447C1.24394 15.5257 1.40752 15.4786 1.55928 15.4054C1.68196 15.3336 1.82277 15.2965 1.96589 15.2983V15.309ZM3.60331 18.0727H3.64727C3.83408 18.1048 9.22987 22.2182 9.22987 22.336C9.22987 22.3789 9.18591 22.411 9.11997 22.411C9.07602 22.411 7.70234 22.0361 6.07592 21.5755C3.48242 20.8256 3.10879 20.7185 2.99889 20.5793C2.92245 20.4851 2.87994 20.3691 2.87796 20.249C2.87597 20.129 2.91461 20.0116 2.9879 19.9151C3.04066 19.8527 3.07823 19.7795 3.0978 19.7009C3.0978 19.5724 2.82306 19.8937 2.76812 20.0758C2.71317 20.2901 2.82306 20.6543 2.9879 20.7721C3.05384 20.8256 3.54836 20.9863 4.08684 21.147C5.00995 21.4041 5.07588 21.4362 5.11984 21.5862C5.22974 21.9397 4.84511 22.3574 4.29564 22.4753C4.08961 22.5234 3.89539 22.6107 3.72419 22.7324C3.15404 23.1927 2.51706 23.5681 1.83402 23.8464C1.79006 23.8785 1.73511 24.0499 1.70215 24.2106C1.63621 24.5641 1.61423 24.6176 1.50434 24.6176C1.44939 24.6176 1.4384 24.5855 1.48236 24.4677C1.55928 24.2534 1.54829 23.9964 1.47137 23.9964C1.41642 23.9964 1.39444 24.0713 1.39444 24.1892C1.39444 24.2963 1.36148 24.4248 1.31752 24.457C1.26257 24.5212 1.25158 24.4784 1.27356 24.2106C1.29554 24.0285 1.28455 23.8892 1.26257 23.8892C1.20762 23.8892 1.10872 24.157 1.07575 24.3927C1.05377 24.532 1.05377 24.532 1.00982 24.3606C0.976848 24.232 0.987837 24.1463 1.08674 23.9856C1.14919 23.8693 1.18658 23.7417 1.19663 23.6107C1.19663 23.4715 1.30653 23.3322 1.82303 22.8288C2.15271 22.4967 2.55932 22.0789 2.70218 21.8968C2.95494 21.5969 2.96592 21.5755 2.95493 21.2648C2.95493 21.0934 2.93296 20.9328 2.91098 20.9113C2.84504 20.8471 2.75713 21.1899 2.80108 21.372C2.82306 21.5433 2.80108 21.5969 2.43843 22.0147C2.17752 22.3058 1.90247 22.5846 1.61423 22.8502C1.18565 23.2358 1.03179 23.4501 1.03179 23.6429C1.03179 23.7071 0.987837 23.8571 0.9219 23.9964C0.855964 24.1356 0.833985 24.2749 0.855964 24.307C0.877943 24.3391 0.855964 24.3391 0.822996 24.307C0.768049 24.2534 0.768049 24.1678 0.812007 23.9856C0.837165 23.895 0.844621 23.8005 0.833986 23.7071C0.779039 23.6 0.702113 23.7286 0.669145 23.9964C0.647166 24.1463 0.614198 24.2642 0.58123 24.2427C0.504304 24.1999 0.526283 23.9214 0.625187 23.7714C0.680134 23.6964 0.735081 23.525 0.768049 23.3858C0.844974 22.9894 1.0208 22.6681 1.40543 22.2396C1.52861 22.1089 1.64594 21.9731 1.75709 21.8326L1.6472 21.4791C1.49981 21.0014 1.4922 20.4932 1.62522 20.0115C1.76808 19.6045 2.05381 19.1974 2.50437 18.7583C2.94395 18.3405 3.37253 18.0834 3.60331 18.0727ZM5.25171 21.5219C5.26559 21.5209 5.27965 21.5218 5.29294 21.5246C5.30624 21.5274 5.31849 21.5319 5.32887 21.538C5.33925 21.5441 5.34754 21.5515 5.35318 21.5598C5.35882 21.5681 5.36169 21.5771 5.36161 21.5862C5.35486 21.5988 5.34224 21.6097 5.3255 21.6174C5.30876 21.6252 5.28873 21.6293 5.2682 21.6293C5.24766 21.6293 5.22763 21.6252 5.2109 21.6174C5.19416 21.6097 5.18154 21.5988 5.17479 21.5862C5.17422 21.5714 5.18157 21.5568 5.19559 21.5451C5.20961 21.5334 5.22944 21.5252 5.25171 21.5219ZM5.52645 21.5541C5.54033 21.553 5.55438 21.554 5.56768 21.5567C5.58098 21.5595 5.59322 21.5641 5.6036 21.5702C5.61399 21.5762 5.62227 21.5837 5.62791 21.592C5.63356 21.6003 5.63643 21.6092 5.63634 21.6183C5.62959 21.6309 5.61697 21.6419 5.60023 21.6496C5.5835 21.6573 5.56347 21.6615 5.54293 21.6615C5.5224 21.6615 5.50237 21.6573 5.48563 21.6496C5.46889 21.6419 5.45627 21.6309 5.44952 21.6183C5.44895 21.6035 5.4563 21.589 5.47033 21.5773C5.48435 21.5655 5.50418 21.5573 5.52645 21.5541ZM5.81217 21.6076C5.82605 21.6066 5.84011 21.6075 5.8534 21.6103C5.8667 21.6131 5.87894 21.6176 5.88933 21.6237C5.89971 21.6298 5.90799 21.6372 5.91364 21.6455C5.91928 21.6538 5.92215 21.6628 5.92207 21.6719C5.91532 21.6845 5.9027 21.6954 5.88596 21.7031C5.86922 21.7109 5.84919 21.715 5.82866 21.715C5.80812 21.715 5.78809 21.7109 5.77135 21.7031C5.75462 21.6954 5.742 21.6845 5.73525 21.6719C5.73468 21.657 5.74203 21.6425 5.75605 21.6308C5.77007 21.6191 5.7899 21.6109 5.81217 21.6076ZM6.07592 21.6612C6.0898 21.6602 6.10385 21.6611 6.11715 21.6639C6.13045 21.6666 6.14269 21.6712 6.15307 21.6773C6.16345 21.6833 6.17174 21.6908 6.17738 21.6991C6.18302 21.7074 6.1859 21.7164 6.18581 21.7254C6.17906 21.738 6.16644 21.749 6.1497 21.7567C6.13296 21.7644 6.11294 21.7686 6.0924 21.7686C6.07187 21.7686 6.05184 21.7644 6.0351 21.7567C6.01836 21.749 6.00574 21.738 5.99899 21.7254C5.99842 21.7106 6.00577 21.6961 6.01979 21.6844C6.03382 21.6727 6.05365 21.6645 6.07592 21.6612ZM5.38359 21.7254C5.39747 21.7244 5.41152 21.7253 5.42482 21.7281C5.43812 21.7309 5.45036 21.7355 5.46074 21.7415C5.47112 21.7476 5.47941 21.755 5.48505 21.7634C5.49069 21.7717 5.49357 21.7806 5.49348 21.7897C5.48673 21.8023 5.47411 21.8132 5.45737 21.821C5.44063 21.8287 5.42061 21.8329 5.40007 21.8329C5.37953 21.8329 5.35951 21.8287 5.34277 21.821C5.32603 21.8132 5.31341 21.8023 5.30666 21.7897C5.30609 21.7749 5.31344 21.7604 5.32746 21.7487C5.34149 21.7369 5.36132 21.7287 5.38359 21.7254ZM5.64733 21.7683C5.66121 21.7673 5.67526 21.7682 5.68856 21.771C5.70186 21.7737 5.7141 21.7783 5.72449 21.7844C5.73487 21.7905 5.74315 21.7979 5.7488 21.8062C5.75444 21.8145 5.75731 21.8235 5.75723 21.8326C5.75048 21.8452 5.73786 21.8561 5.72112 21.8638C5.70438 21.8716 5.68435 21.8757 5.66382 21.8757C5.64328 21.8757 5.62325 21.8716 5.60651 21.8638C5.58978 21.8561 5.57716 21.8452 5.57041 21.8326C5.56984 21.8177 5.57719 21.8032 5.59121 21.7915C5.60523 21.7798 5.62506 21.7716 5.64733 21.7683ZM6.21878 21.7897C6.23266 21.7887 6.24671 21.7896 6.26001 21.7924C6.27331 21.7952 6.28555 21.7997 6.29593 21.8058C6.30632 21.8119 6.3146 21.8193 6.32024 21.8276C6.32589 21.8359 6.32876 21.8449 6.32867 21.854C6.32192 21.8666 6.3093 21.8775 6.29256 21.8852C6.27583 21.893 6.2558 21.8971 6.23526 21.8971C6.21473 21.8971 6.1947 21.893 6.17796 21.8852C6.16122 21.8775 6.1486 21.8666 6.14185 21.854C6.14128 21.8391 6.14863 21.8246 6.16266 21.8129C6.17668 21.8012 6.19651 21.793 6.21878 21.7897ZM5.92207 21.7897C5.93595 21.7887 5.95 21.7896 5.9633 21.7924C5.9766 21.7952 5.98884 21.7997 5.99922 21.8058C6.0096 21.8119 6.01789 21.8193 6.02353 21.8276C6.02917 21.8359 6.03205 21.8449 6.03196 21.854C6.02521 21.8666 6.01259 21.8775 5.99585 21.8852C5.97911 21.893 5.95909 21.8971 5.93855 21.8971C5.91801 21.8971 5.89799 21.893 5.88125 21.8852C5.86451 21.8775 5.85189 21.8666 5.84514 21.854C5.84457 21.8391 5.85192 21.8246 5.86594 21.8129C5.87997 21.8012 5.8998 21.793 5.92207 21.7897ZM6.47154 21.854C6.48252 21.854 6.87814 21.9397 7.35069 22.0682L8.21885 22.3146L8.05401 22.6038C7.96191 22.7587 7.87396 22.9158 7.79026 23.0751C7.68037 23.2894 7.65839 23.2894 7.1309 23.1715C6.55945 23.043 5.65832 22.9252 4.73521 22.8502L3.85606 22.7752L4.18574 22.6574C4.38481 22.5827 4.57928 22.4968 4.76818 22.4003C4.98797 22.2825 5.07588 22.261 5.41655 22.2932C5.91108 22.3253 6.24076 22.2289 6.37263 22.0361L6.48252 21.854H6.47154ZM5.50447 21.9183C5.51835 21.9172 5.5324 21.9182 5.5457 21.9209C5.559 21.9237 5.57124 21.9283 5.58162 21.9344C5.59201 21.9404 5.60029 21.9479 5.60593 21.9562C5.61158 21.9645 5.61445 21.9735 5.61436 21.9825C5.60761 21.9951 5.59499 22.0061 5.57826 22.0138C5.56152 22.0215 5.54149 22.0257 5.52095 22.0257C5.50042 22.0257 5.48039 22.0215 5.46365 22.0138C5.44691 22.0061 5.43429 21.9951 5.42754 21.9825C5.42697 21.9677 5.43433 21.9532 5.44835 21.9415C5.46237 21.9298 5.4822 21.9216 5.50447 21.9183ZM6.11987 21.9183C6.13376 21.9172 6.14781 21.9182 6.16111 21.9209C6.1744 21.9237 6.18665 21.9283 6.19703 21.9344C6.20741 21.9404 6.2157 21.9479 6.22134 21.9562C6.22698 21.9645 6.22985 21.9735 6.22977 21.9825C6.22145 21.993 6.20884 22.0018 6.19334 22.008C6.17783 22.0141 6.16002 22.0174 6.14185 22.0174C6.12369 22.0174 6.10588 22.0141 6.09037 22.008C6.07486 22.0018 6.06226 21.993 6.05394 21.9825C6.05337 21.9677 6.06072 21.9532 6.07474 21.9415C6.08876 21.9298 6.10859 21.9216 6.13086 21.9183H6.11987ZM5.24072 21.9183C5.25461 21.9172 5.26866 21.9182 5.28196 21.9209C5.29525 21.9237 5.3075 21.9283 5.31788 21.9344C5.32826 21.9404 5.33655 21.9479 5.34219 21.9562C5.34783 21.9645 5.35071 21.9735 5.35062 21.9825C5.34387 21.9951 5.33125 22.0061 5.31451 22.0138C5.29777 22.0215 5.27775 22.0257 5.25721 22.0257C5.23667 22.0257 5.21665 22.0215 5.19991 22.0138C5.18317 22.0061 5.17055 21.9951 5.1638 21.9825C5.1667 21.9696 5.17562 21.9575 5.18937 21.9479C5.20312 21.9384 5.22103 21.9317 5.24072 21.929V21.9183ZM5.82316 21.9397C5.84859 21.9376 5.87425 21.942 5.89475 21.952C5.91525 21.962 5.92898 21.9768 5.93305 21.9932C5.92631 22.0058 5.91369 22.0168 5.89695 22.0245C5.88021 22.0322 5.86018 22.0364 5.83965 22.0364C5.81911 22.0364 5.79908 22.0322 5.78234 22.0245C5.7656 22.0168 5.75299 22.0058 5.74624 21.9932C5.74914 21.9803 5.75806 21.9682 5.7718 21.9586C5.78555 21.9491 5.80347 21.9425 5.82316 21.9397ZM5.09786 22.0575C5.11174 22.0565 5.1258 22.0574 5.13909 22.0602C5.15239 22.063 5.16464 22.0675 5.17502 22.0736C5.1854 22.0797 5.19368 22.0871 5.19933 22.0954C5.20497 22.1037 5.20784 22.1127 5.20776 22.1218C5.20101 22.1344 5.18839 22.1453 5.17165 22.153C5.15491 22.1608 5.13488 22.1649 5.11435 22.1649C5.09381 22.1649 5.07378 22.1608 5.05704 22.153C5.04031 22.1453 5.02769 22.1344 5.02094 22.1218C5.02037 22.1069 5.02772 22.0924 5.04174 22.0807C5.05576 22.069 5.07559 22.0608 5.09786 22.0575ZM5.3726 22.0575C5.38798 22.0562 5.40361 22.0573 5.41823 22.0607C5.43284 22.0641 5.44603 22.0696 5.45673 22.0769C5.46742 22.0842 5.47533 22.0931 5.4798 22.1027C5.48428 22.1124 5.4852 22.1226 5.48249 22.1325C5.47574 22.1451 5.46312 22.156 5.44638 22.1638C5.42964 22.1715 5.40962 22.1756 5.38908 22.1756C5.36854 22.1756 5.34852 22.1715 5.33178 22.1638C5.31504 22.156 5.30242 22.1451 5.29567 22.1325C5.2951 22.1177 5.30245 22.1032 5.31647 22.0914C5.3305 22.0797 5.35033 22.0715 5.3726 22.0682V22.0575ZM5.65832 22.0789C5.68375 22.0769 5.70941 22.0813 5.72991 22.0913C5.75041 22.1013 5.76414 22.1161 5.76821 22.1325C5.76146 22.1451 5.74885 22.156 5.73211 22.1638C5.71537 22.1715 5.69534 22.1756 5.6748 22.1756C5.65427 22.1756 5.63424 22.1715 5.6175 22.1638C5.60076 22.156 5.58814 22.1451 5.5814 22.1325C5.5843 22.1195 5.59322 22.1075 5.60696 22.0979C5.62071 22.0883 5.63863 22.0817 5.65832 22.0789ZM5.96602 22.0789C5.9799 22.0779 5.99396 22.0788 6.00725 22.0816C6.02055 22.0844 6.0328 22.089 6.04318 22.095C6.05356 22.1011 6.06184 22.1085 6.06749 22.1168C6.07313 22.1251 6.076 22.1341 6.07592 22.1432C6.06917 22.1558 6.05655 22.1667 6.03981 22.1745C6.02307 22.1822 6.00304 22.1864 5.98251 22.1864C5.96197 22.1864 5.94194 22.1822 5.92521 22.1745C5.90847 22.1667 5.89585 22.1558 5.8891 22.1432C5.88853 22.1284 5.89588 22.1139 5.9099 22.1021C5.92392 22.0904 5.94375 22.0822 5.96602 22.0789ZM3.73518 22.9466C5.03243 22.9801 6.32371 23.1307 7.59245 23.3965C7.60344 23.4072 7.52652 23.6643 7.40563 23.9749L7.18584 24.6176C7.17485 24.6712 7.09793 24.6712 6.91111 24.6498C5.99899 24.5105 3.36154 24.5212 2.35052 24.6712C1.76808 24.7569 1.69116 24.7462 1.73511 24.6284L1.84501 24.2534L1.91094 23.9642L2.50437 23.6643C2.89992 23.4676 3.27527 23.2344 3.62529 22.968H3.72419L3.73518 22.9466ZM0.768049 24.4677C0.801017 24.4677 0.866954 24.4998 0.943879 24.5534C1.05377 24.6177 1.18565 24.6712 1.24059 24.6712C1.52632 24.6712 1.68017 25.0675 1.92193 26.3851L2.00985 26.8564C2.03183 26.9636 2.00985 26.985 1.75709 27.0385C1.44939 27.1028 1.37246 27.1135 1.37246 27.0707C1.37246 26.9636 1.06476 25.6031 0.932889 25.1211C0.86725 24.9088 0.80861 24.6944 0.75706 24.4784C0.75873 24.4775 0.760626 24.477 0.762555 24.477C0.764484 24.477 0.766378 24.4775 0.768049 24.4784V24.4677ZM3.91101 24.6819H4.2297L4.11981 24.789C3.93299 25.0033 3.84507 25.014 3.7132 24.8747C3.66689 24.8281 3.62965 24.7737 3.60331 24.7141C3.60331 24.6926 3.74617 24.6712 3.91101 24.6712V24.6819ZM4.58136 24.6819H5.17479L5.04292 24.8105C4.88906 24.9819 4.87808 24.9819 4.71323 24.8105L4.58136 24.6712V24.6819ZM5.48249 24.6819H5.62535C5.70228 24.6819 5.84514 24.6819 5.93305 24.7033L6.0979 24.7355L5.94404 24.8747C5.85613 24.9497 5.7792 25.014 5.76821 25.0033L5.61436 24.8319L5.48249 24.6712V24.6819ZM6.41659 24.7141L6.54846 24.7462C6.62539 24.7676 6.79023 24.7783 6.91111 24.789H7.1309L6.96606 24.9283C6.90634 24.9826 6.83989 25.0294 6.76825 25.0675C6.75726 25.0675 6.65835 24.9819 6.58143 24.8854L6.41659 24.7141ZM3.0978 24.7248H3.11978C3.13076 24.7462 3.08681 24.8319 3.00988 24.9069L2.89999 25.0568L2.73515 24.9283L2.57031 24.789L2.83405 24.7569L3.0978 24.7248ZM3.35055 24.7462L3.52638 24.8962L3.70221 25.0568L3.37253 25.0783L3.04285 25.089L3.1967 24.9283L3.35055 24.7462ZM5.32864 24.7462C5.36161 24.7462 5.38359 24.7569 5.41655 24.7783C5.47402 24.831 5.52228 24.8926 5.55942 24.9604C5.60337 25.0461 5.59238 25.0675 5.44952 25.0675L5.17479 25.014L5.04292 24.9819L5.18578 24.8426C5.25171 24.7783 5.29567 24.7355 5.33963 24.7355L5.32864 24.7462ZM4.41652 24.7462C4.47147 24.7462 4.52642 24.7783 4.59235 24.8854C4.66928 25.0033 4.66928 25.0033 4.37256 25.0033H4.07585L4.2297 24.864C4.30663 24.789 4.37256 24.7569 4.41652 24.7569V24.7462ZM6.28472 24.7676L6.41659 24.8962C6.57044 25.0354 6.59242 25.1211 6.48252 25.1104L6.17482 25.0783L5.93305 25.0568L6.10889 24.9176L6.28472 24.7676ZM2.41646 24.8426C2.43843 24.8426 2.52635 24.8962 2.59229 24.9711L2.72416 25.1104L2.44942 25.1532L2.0648 25.2068C1.98787 25.2282 2.00985 25.1747 2.17469 25.0354C2.28458 24.9283 2.39448 24.8426 2.41646 24.8426ZM2.00985 24.8426H2.05381C2.14172 24.864 2.14172 24.8854 1.98787 25.0354L1.82303 25.1961L1.76808 25.0568C1.72413 24.9497 1.73511 24.9176 1.83402 24.8747C1.89032 24.8543 1.94979 24.8435 2.00985 24.8426ZM7.06496 25.0354C7.08694 25.0354 7.08694 25.0568 7.06496 25.0997C7.04298 25.1854 6.94408 25.2068 6.94408 25.1211C6.94408 25.0997 6.97705 25.0675 7.021 25.0461H7.05397L7.06496 25.0354ZM4.71323 25.2068C5.55942 25.2068 6.41659 25.2282 6.62539 25.2497C6.96606 25.2925 6.99902 25.3032 6.99902 25.4318C6.99902 25.5817 6.95507 25.5924 6.49351 25.5174C6.36164 25.4853 5.80118 25.4425 5.2627 25.3996C4.2176 25.338 3.16884 25.3739 2.13073 25.5067C1.92193 25.5282 1.86699 25.5067 1.86699 25.4425C1.86699 25.3032 2.9879 25.2068 4.71323 25.2068ZM3.58133 25.5174H4.17475L4.04288 25.6567C3.87804 25.8281 3.86705 25.8281 3.7132 25.6567L3.58133 25.5174ZM4.35059 25.5174L4.50444 25.6674L4.65829 25.8388L4.3396 25.8495H4.0209L4.18574 25.6781L4.3396 25.5174H4.35059ZM4.58136 25.5174H5.17479L5.04292 25.6567C4.88906 25.8281 4.87808 25.8281 4.71323 25.6567L4.58136 25.5174ZM3.17472 25.5174C3.1967 25.5174 3.17472 25.571 3.0978 25.6781C3.02087 25.7745 2.94395 25.8495 2.93296 25.8495C2.91098 25.8495 2.83405 25.7852 2.76812 25.7103L2.63624 25.571H2.83405C2.93462 25.5715 3.03467 25.5571 3.13076 25.5282C3.14527 25.5253 3.16022 25.5253 3.17472 25.5282V25.5174ZM3.39451 25.571L3.53737 25.6995L3.70221 25.8388L3.41649 25.8602L3.0978 25.8817L3.25165 25.721L3.39451 25.571ZM5.30666 25.571L5.46051 25.7424C5.63634 25.9245 5.62535 25.9352 5.22974 25.8602L5.04292 25.8281L5.17479 25.6995L5.30666 25.571ZM5.52645 25.571H5.79019C6.07592 25.571 6.10889 25.6139 5.94404 25.7638C5.81217 25.8709 5.81217 25.8709 5.65832 25.7103L5.52645 25.571ZM2.1637 25.6246C2.29557 25.6246 2.28458 25.6353 2.11974 25.796C1.99886 25.9138 1.98787 25.9138 1.94391 25.8281C1.91094 25.721 2.00985 25.6353 2.1637 25.6246ZM6.42758 25.646C6.47153 25.646 6.55945 25.646 6.64736 25.6674L6.90012 25.7103L6.75726 25.8388L6.62539 25.9673L6.5045 25.8174L6.39461 25.646H6.42758ZM2.4714 25.6995C2.50437 25.6995 2.53734 25.721 2.59229 25.7745C2.70218 25.8817 2.70218 25.8817 2.61426 25.9245C2.5291 25.9518 2.44016 25.9663 2.35052 25.9673H2.17469L2.31755 25.8174C2.39448 25.7424 2.42744 25.7103 2.46041 25.6995H2.4714ZM6.21878 25.7317C6.26274 25.7317 6.2957 25.7531 6.35065 25.8388L6.44955 25.9673H6.21878C6.06493 25.9673 5.99899 25.9459 5.99899 25.9031C6.02097 25.8602 6.07592 25.796 6.14185 25.7638L6.21878 25.7317ZM6.9221 25.8709C6.94408 25.8709 6.94408 25.8924 6.94408 25.9245C6.94408 26.0316 6.84517 26.1066 6.80122 26.0316C6.79023 25.9995 6.81221 25.9459 6.85616 25.9138L6.9221 25.8709ZM4.07585 25.9995C5.03193 25.9995 6.08691 26.0638 6.7133 26.1709L6.88913 26.203V26.6743C6.88913 27.0278 6.86715 27.1457 6.8122 27.1457L6.26274 27.0385C4.99201 26.8285 3.69741 26.7925 2.41646 26.9314L2.1637 26.9636L2.09776 26.5672C2.07045 26.4331 2.05574 26.2969 2.05381 26.1602C2.05381 26.1602 2.30656 26.1066 2.60328 26.0745C2.96592 26.0209 3.5044 25.9995 4.07585 25.9995Z" fill="black"/>
<path d="M5.99894 23.3213C5.66925 23.3213 5.43848 23.5462 5.43848 23.8783C5.43848 24.3925 6.0319 24.6496 6.38356 24.2854C6.73522 23.9212 6.49346 23.3213 5.99894 23.3213ZM5.99894 23.4498C6.05666 23.4498 6.11382 23.4609 6.16715 23.4824C6.22048 23.504 6.26894 23.5355 6.30976 23.5753C6.35058 23.6151 6.38296 23.6624 6.40505 23.7143C6.42714 23.7663 6.43851 23.822 6.43851 23.8783C6.43851 24.1997 6.07586 24.4139 5.77915 24.2746C5.48243 24.114 5.50441 23.6212 5.8231 23.4927C5.87493 23.4688 5.93079 23.4542 5.98795 23.4498H5.99894Z" fill="black"/>
<path d="M1.95513 15.5551C1.90925 15.5578 1.86595 15.5779 1.83351 15.6115C1.80108 15.6451 1.78177 15.6898 1.7793 15.7372C1.7793 15.7898 1.79956 15.8403 1.83562 15.8775C1.87169 15.9148 1.92061 15.9357 1.97161 15.9357C2.02262 15.9357 2.07153 15.9148 2.1076 15.8775C2.14366 15.8403 2.16393 15.7898 2.16393 15.7372C2.16268 15.7107 2.15618 15.6849 2.14482 15.6611C2.13346 15.6374 2.11749 15.6163 2.09791 15.5993C2.07832 15.5822 2.05553 15.5694 2.03097 15.5618C2.00641 15.5542 1.98059 15.5519 1.95513 15.5551ZM1.96612 15.6193C2.00109 15.6193 2.03463 15.6318 2.05936 15.6539C2.08409 15.676 2.09799 15.7059 2.09799 15.7372C2.09799 15.7684 2.08409 15.7984 2.05936 15.8205C2.03463 15.8426 2.00109 15.855 1.96612 15.855C1.93114 15.855 1.8976 15.8426 1.87287 15.8205C1.84814 15.7984 1.83424 15.7684 1.83424 15.7372C1.83424 15.7217 1.83765 15.7064 1.84428 15.6921C1.85091 15.6778 1.86062 15.6648 1.87287 15.6539C1.88511 15.6429 1.89965 15.6342 1.91565 15.6283C1.93165 15.6224 1.9488 15.6193 1.96612 15.6193Z" fill="black"/>
</g>
<defs>
<clipPath id="clip0_200_70189">
<rect width="60" height="45" fill="white" transform="translate(-7.5)"/>
</clipPath>
</defs>
</svg>
