<svg width="91" height="47" viewBox="0 0 91 47" fill="none" xmlns="http://www.w3.org/2000/svg">
<path d="M0.793945 46.0718H3.35792V0.549084H0.793945V46.0718Z" fill="#0063CC"/>
<path d="M13.6522 15.269C16.3486 15.269 18.0933 13.9051 18.0933 11.2403V11.1454H15.6345V11.2403C15.6345 12.4933 14.8576 13.128 13.6522 13.128C13.3885 13.128 13.146 13.0941 12.9268 13.0303V15.2332C13.1601 15.2575 13.4019 15.269 13.6522 15.269Z" fill="#0063CC"/>
<path d="M18.0933 7.97314V7.87783C18.0933 5.21305 16.3486 3.84947 13.6839 3.84947C13.4223 3.84947 13.1693 3.86209 12.9268 3.88803V6.09233C13.1545 6.02544 13.4061 5.99047 13.6839 5.99047C14.8576 5.99047 15.6345 6.62521 15.6345 7.87783V7.97314H18.0933Z" fill="#0063CC"/>
<path d="M9.37549 7.87822V11.2408C9.37549 13.1744 10.294 14.4227 11.816 14.9624V4.16102C10.2891 4.70263 9.37549 5.94955 9.37549 7.87822Z" fill="#0063CC"/>
<path d="M14.9527 2.84424L16.4592 0.544624H14.4134L13.6993 1.65464L12.9859 0.544624H10.876L12.3825 2.84424H14.9527Z" fill="#0063CC"/>
<path d="M11.8602 28.3121V21.4915H11.8616V19.3502H9.40137V30.4531H11.8616V28.3121H11.8602Z" fill="#0063CC"/>
<path d="M13.8428 19.3502H12.9722V21.4915H13.8428C15.0165 21.4915 15.7934 22.1259 15.7934 23.3792V26.4245C15.7934 27.6774 15.0165 28.3121 13.8111 28.3121H12.9722V30.4531H13.8111C16.5075 30.4531 18.2515 29.0895 18.2515 26.4245V23.3792C18.2515 20.7147 16.5075 19.3502 13.8428 19.3502Z" fill="#0063CC"/>
<path d="M14.2541 39.5843L18.3633 34.6827H15.3651L12.9697 37.6415V41.947L15.6189 45.7856H18.6009L14.2541 39.5843Z" fill="#0063CC"/>
<path d="M11.8602 39.0134V34.6827H9.40137V45.7856H11.8602V42.4225V39.0129V39.0134Z" fill="#0063CC"/>
<path d="M20.873 4.01716H28.0424V5.15918H22.1892V8.98184H27.2493V10.1238H22.1892V13.9779H28.0424V15.1201H20.873V4.01716Z" fill="#0063CC"/>
<path d="M35.6503 10.3296L33.5411 9.93311C31.8125 9.59995 30.7812 8.64855 30.7812 6.98282C30.7812 4.93678 32.2087 3.85841 34.7148 3.85841C37.2209 3.85841 38.6484 4.96843 38.6484 7.20474V7.34764H37.3471V7.20474C37.3471 5.74528 36.4279 5.00015 34.7148 5.00015C33.0018 5.00015 32.1291 5.65026 32.1291 6.9038C32.1291 7.9345 32.7952 8.52159 33.8583 8.72758L35.952 9.12411C37.7278 9.45727 38.7274 10.3933 38.7274 12.0587C38.7274 14.2 37.2209 15.2783 34.6986 15.2783C32.1925 15.2783 30.686 14.1524 30.686 11.9318V11.7891H32.0022V11.9318C32.0022 13.391 32.9856 14.1364 34.6986 14.1364C36.4279 14.1364 37.3795 13.486 37.3795 12.1378C37.3795 11.1068 36.7134 10.5362 35.6503 10.3296Z" fill="#0063CC"/>
<path d="M44.4797 9.87022L43.1628 11.3297V15.1201H41.8467V4.01716H43.1628V9.50533L48.0643 4.01716H49.6667L45.3355 8.85516L49.9839 15.1201H48.3823L44.4797 9.87022Z" fill="#0063CC"/>
<path d="M54.9273 2.85399L56.3865 0.554093H57.7513L56.0051 2.85399H54.9273ZM53.6583 11.1231H57.9409L55.7993 5.41303L53.6583 11.1231ZM60.7635 15.1201H59.3522L58.3061 12.2651H53.3094L52.2618 15.1201H50.9619L55.0704 4.01716H56.672L60.7635 15.1201Z" fill="#0063CC"/>
<path d="M21.1904 30.4531H22.5075V19.3502H21.1904V30.4531Z" fill="#0063CC"/>
<path d="M33.8052 26.9315V25.9484H30.3157V24.8056H35.1214V30.4529H34.1379L33.9793 29.295C33.3139 30.1514 32.2029 30.6118 30.7281 30.6118C28.1896 30.6118 26.6831 29.2157 26.6831 26.6308V23.2043C26.6831 20.5713 28.3172 19.1916 30.9657 19.1916C33.488 19.1916 35.1214 20.3493 35.1214 22.6495V22.7604H33.8052V22.6495C33.8052 21.1743 32.7266 20.3334 30.9657 20.3334C29.1102 20.3334 27.9999 21.317 27.9999 23.2043V26.6308C27.9999 28.4392 29.1102 29.469 30.9502 29.469C32.7266 29.469 33.8052 28.5342 33.8052 26.9315Z" fill="#0063CC"/>
<path d="M38.2725 30.4531H39.5887V19.3502H38.2725V30.4531Z" fill="#0063CC"/>
<path d="M41.916 19.3502H50.5594V20.4922H46.8958V30.4531H45.5796V20.4922H41.916V19.3502Z" fill="#0063CC"/>
<path d="M55.6724 18.187L57.1316 15.8871H58.4957L56.7517 18.187H55.6724ZM54.4035 26.4567H58.686L56.5451 20.746L54.4035 26.4567ZM61.5101 30.4531H60.0981L59.0505 27.5981H54.0538L53.0077 30.4531H51.707L55.8155 19.3502H57.4171L61.5101 30.4531Z" fill="#0063CC"/>
<path d="M63.6768 19.3502H64.9929V29.3109H70.8461V30.4531H63.6768V19.3502Z" fill="#0063CC"/>
<path d="M74.6472 21.7451V30.4531H73.3311V19.3502H74.5675L80.2938 28.0428V19.3502H81.61V30.4531H80.3735L74.6472 21.7451Z" fill="#0063CC"/>
<path d="M84.9204 18.187L86.3796 15.8871H87.7437L85.999 18.187H84.9204ZM84.8887 19.3502H86.2048V30.4531H84.8887V19.3502Z" fill="#0063CC"/>
<path d="M21.9035 37.0776V45.7856H20.5874V34.6827H21.8246L27.5502 43.3753V34.6827H28.867V45.7856H27.6299L21.9035 37.0776Z" fill="#0063CC"/>
<path d="M32.1445 45.7856H33.4614V34.6827H32.1445V45.7856Z" fill="#0063CC"/>
<path d="M43.7027 40.7896H38.0554V45.7856H36.7393V34.6827H38.0554V39.6468H43.7027V34.6827H45.0182V45.7856H43.7027V40.7896Z" fill="#0063CC"/>
<path d="M55.4182 38.5057C55.4182 36.6973 54.3079 35.6666 52.4518 35.6666C50.5646 35.6666 49.4536 36.6973 49.4536 38.5057V41.9638C49.4536 43.7721 50.5646 44.802 52.42 44.802C54.3079 44.802 55.4182 43.7721 55.4182 41.9638V38.5057ZM56.7343 41.9638C56.7343 44.517 55.101 45.9448 52.42 45.9448C49.7716 45.9448 48.1382 44.517 48.1382 41.9638V38.5057C48.1382 35.9365 49.7715 34.5246 52.4518 34.5246C55.101 34.5246 56.7343 35.9365 56.7343 38.5057V41.9638Z" fill="#0063CC"/>
<path d="M58.7437 34.6827H60.1712L63.6607 44.1684L67.1657 34.6827H68.467L64.3741 45.7856H62.8521L58.7437 34.6827Z" fill="#0063CC"/>
<path d="M71.9506 37.0776V45.7856H70.6338V34.6827H71.871L77.5973 43.3753V34.6827H78.9134V45.7856H77.6762L71.9506 37.0776Z" fill="#0063CC"/>
<path d="M83.778 41.7892H88.0613L85.9196 36.078L83.778 41.7892ZM90.8839 45.7856H89.4726L88.425 42.9306H83.4283L82.3822 45.7856H81.0815L85.1893 34.6827H86.7916L90.8839 45.7856Z" fill="#0063CC"/>
</svg>
