<svg width="12" height="12" viewBox="0 0 12 12" fill="none" xmlns="http://www.w3.org/2000/svg">
<path fill-rule="evenodd" clip-rule="evenodd" d="M0.439374 0.439375C0.82724 0.051509 1.39589 -0.093712 1.92224 0.0606831L6 1.25683L10.0778 0.0606831C10.6041 -0.093712 11.1728 0.051509 11.5606 0.439375C11.9485 0.82724 12.0937 1.39589 11.9393 1.92223L10.7432 6L11.9393 10.0778C12.0937 10.6041 11.9485 11.1728 11.5606 11.5606C11.1728 11.9485 10.6041 12.0937 10.0778 11.9393L6 10.7432L1.92224 11.9393C1.39589 12.0937 0.82724 11.9485 0.439374 11.5606C0.0515086 11.1728 -0.0937119 10.6041 0.0606833 10.0778L1.25683 6L0.0606833 1.92223C-0.0937119 1.39589 0.0515086 0.82724 0.439374 0.439375ZM3.71209 3.71209L4.25936 5.57779C4.34023 5.85346 4.34023 6.14654 4.25936 6.4222L3.71209 8.28791L5.57779 7.74064C5.85346 7.65978 6.14654 7.65978 6.42221 7.74064L8.28791 8.28791L7.74064 6.4222C7.65977 6.14654 7.65977 5.85346 7.74064 5.57779L8.28791 3.71209L6.42221 4.25936C6.14654 4.34022 5.85346 4.34022 5.57779 4.25936L3.71209 3.71209Z" fill="#9FB2C6"/>
</svg>
