<svg width="41" height="41" viewBox="0 0 41 41" fill="none" xmlns="http://www.w3.org/2000/svg">
<path fill-rule="evenodd" clip-rule="evenodd" d="M29.8968 1.81895C32.322 -0.606315 36.2418 -0.606315 38.6671 1.81895C41.0924 4.24421 41.0924 8.16403 38.6671 10.5893L10.5893 38.6671C8.16403 41.0924 4.24421 41.0924 1.81895 38.6671C-0.606315 36.2418 -0.606315 32.322 1.81895 29.8968L29.8968 1.81895ZM36.3763 4.10979C35.2162 2.94973 33.3477 2.94973 32.1876 4.10979L4.10979 32.1876C2.94973 33.3477 2.94973 35.2162 4.10979 36.3763C5.26985 37.5363 7.13838 37.5363 8.29844 36.3763L36.3763 8.29844C37.5363 7.13838 37.5363 5.26985 36.3763 4.10979Z" fill="#9FB2C6"/>
<path fill-rule="evenodd" clip-rule="evenodd" d="M26.6793 5.03878C27.3119 4.40618 28.3375 4.40618 28.9701 5.03878L35.4496 11.5183C36.0822 12.1509 36.0822 13.1765 35.4496 13.8091C34.817 14.4417 33.7914 14.4417 33.1588 13.8091L26.6793 7.32963C26.0467 6.69703 26.0467 5.67138 26.6793 5.03878Z" fill="#9FB2C6"/>
</svg>
