<svg width="20" height="20" viewBox="0 0 20 20" fill="none" xmlns="http://www.w3.org/2000/svg">
<g clip-path="url(#clip0_4954_27643)">
<path fill-rule="evenodd" clip-rule="evenodd" d="M20 10C20 15.5231 15.5231 20 10 20C4.47625 20 0 15.5231 0 10C0 4.47625 4.47625 0 10 0C15.5231 0 20 4.47625 20 10Z" fill="#A6CE39"/>
<path fill-rule="evenodd" clip-rule="evenodd" d="M11.7578 6.02313H8.35156V14.7106H11.7728C14.6197 14.7106 16.3666 12.5994 16.3666 10.3669C16.3666 9.345 16.0153 8.25938 15.2603 7.42688C14.5009 6.59188 13.3453 6.02313 11.7578 6.02313ZM11.6247 13.3125H9.86656V7.42188H11.5622C12.7016 7.42188 13.5122 7.76687 14.0372 8.29688C14.5634 8.8275 14.8197 9.56 14.8197 10.3669C14.8197 10.8569 14.6703 11.5962 14.1991 12.2094C13.7334 12.815 12.9428 13.3125 11.6247 13.3125ZM5.22656 6.04688V14.7262H6.74219V6.04688H5.22656ZM6.58594 14.57H5.38219H6.58531H6.58594ZM5.98406 5.40625C6.50906 5.40625 6.92969 4.97563 6.92969 4.46063C6.92969 3.94625 6.50906 3.51562 5.98406 3.51562C5.46031 3.51562 5.03906 3.93688 5.03906 4.46125C5.03906 4.97563 5.45906 5.40625 5.98406 5.40625Z" fill="white"/>
</g>
<defs>
<clipPath id="clip0_4954_27643">
<rect width="20" height="20" fill="white"/>
</clipPath>
</defs>
</svg>
