<svg width="27" height="20" viewBox="0 0 27 20" fill="none" xmlns="http://www.w3.org/2000/svg">
<g clip-path="url(#clip0_4954_27646)">
<path d="M11.1441 0.566895L9.1471 3.71605L7.14844 0.566895H11.1441Z" fill="#53BAA1"/>
<path d="M19.5035 0.566895L17.5065 3.71605L15.5078 0.566895H19.5035Z" fill="#53BAA1"/>
<path d="M7.14844 19.4331L9.1471 16.2822L11.1441 19.4331H7.14844Z" fill="#53BAA1"/>
<path d="M15.5078 19.4331L17.5065 16.2822L19.5035 19.4331H15.5078Z" fill="#53BAA1"/>
<path d="M23.802 10.66C24.5099 10.5244 25.0483 10.2007 25.4154 9.69052C25.7842 9.18035 25.9669 8.56001 25.9669 7.83289C25.9669 7.2295 25.8648 6.7278 25.6623 6.32442C25.4598 5.92103 25.1849 5.60069 24.8408 5.3617C24.4967 5.12442 24.095 4.95323 23.6373 4.85153C23.1797 4.74984 22.6956 4.69899 22.1869 4.69899H18.3081V7.89052C18.2768 7.7973 18.2439 7.70577 18.2077 7.61425C17.9393 6.94475 17.564 6.37357 17.0816 5.90238C16.5992 5.43119 16.0296 5.06848 15.3678 4.81594C14.7076 4.5634 13.9848 4.43628 13.2012 4.43628C12.4175 4.43628 11.6964 4.5634 11.0346 4.81594C10.3744 5.06848 9.80313 5.43119 9.32075 5.90238C8.88941 6.32441 8.54368 6.82781 8.28356 7.41086C8.24569 6.99221 8.1502 6.6295 7.99709 6.32442C7.79459 5.92103 7.51965 5.60069 7.17557 5.3617C6.83148 5.12442 6.42978 4.95323 5.97209 4.85153C5.51441 4.74984 5.03039 4.69899 4.52167 4.69899H0.644531V15.0176H2.85228V10.8922H3.94215L6.03795 15.0176H8.68526L6.13837 10.66C6.8463 10.5244 7.38465 10.2007 7.75179 9.69052C7.76825 9.66679 7.78307 9.64136 7.79953 9.61764C7.79624 9.6973 7.79459 9.77696 7.79459 9.85831C7.79459 10.6837 7.92959 11.4329 8.19795 12.1024C8.4663 12.7719 8.84167 13.3431 9.32404 13.8142C9.80478 14.2854 10.3761 14.6481 11.0379 14.9007C11.6981 15.1532 12.4208 15.2803 13.2045 15.2803C13.9881 15.2803 14.7092 15.1532 15.3711 14.9007C16.0312 14.6481 16.6025 14.2854 17.0849 13.8142C17.5656 13.3431 17.941 12.7719 18.211 12.1024C18.2472 12.0126 18.2801 11.9193 18.3114 11.8261V15.0176H20.5192V10.8922H21.609L23.7048 15.0176H26.3522L23.802 10.66ZM5.8338 8.47357C5.71526 8.6295 5.56709 8.74306 5.38764 8.81594C5.20819 8.88882 5.00734 8.93289 4.78673 8.94645C4.56447 8.9617 4.35539 8.96848 4.15618 8.96848H2.85392V6.62272H4.29776C4.49532 6.62272 4.69947 6.63797 4.90691 6.66679C5.11435 6.6956 5.29874 6.75153 5.45843 6.83458C5.61813 6.91764 5.75148 7.03628 5.8552 7.19221C5.95892 7.34814 6.0116 7.55662 6.0116 7.81933C6.0116 8.09899 5.95234 8.31764 5.8338 8.47357ZM16.0987 11.1922C15.9522 11.5956 15.7431 11.9448 15.4682 12.2414C15.1949 12.538 14.8673 12.7685 14.4837 12.9346C14.1017 13.1007 13.6737 13.182 13.2028 13.182C12.7303 13.182 12.3039 13.099 11.922 12.9346C11.54 12.7702 11.2124 12.538 10.9375 12.2414C10.6642 11.9448 10.4534 11.5956 10.3069 11.1922C10.1604 10.7888 10.0879 10.3448 10.0879 9.85831C10.0879 9.38204 10.1604 8.93967 10.3069 8.5312C10.4534 8.12272 10.6625 7.77187 10.9375 7.47526C11.2108 7.17865 11.5384 6.94814 11.922 6.78204C12.3039 6.61764 12.7303 6.53458 13.2028 6.53458C13.6753 6.53458 14.1017 6.61764 14.4837 6.78204C14.8656 6.94645 15.1933 7.17865 15.4682 7.47526C15.7415 7.77187 15.9522 8.12442 16.0987 8.5312C16.2453 8.93967 16.3177 9.38204 16.3177 9.85831C16.3177 10.3448 16.2453 10.7888 16.0987 11.1922ZM23.4974 8.47357C23.3789 8.6295 23.2307 8.74306 23.0512 8.81594C22.8718 8.88882 22.6709 8.93289 22.4503 8.94645C22.2281 8.9617 22.019 8.96848 21.8198 8.96848H20.5175V6.62272H21.9614C22.1589 6.62272 22.3631 6.63797 22.5705 6.66679C22.7779 6.6956 22.9623 6.75153 23.122 6.83458C23.2817 6.91764 23.4151 7.03628 23.5188 7.19221C23.6225 7.34814 23.6752 7.55662 23.6752 7.81933C23.6752 8.09899 23.6159 8.31764 23.4974 8.47357Z" fill="#202826"/>
</g>
<defs>
<clipPath id="clip0_4954_27646">
<rect width="27" height="20" fill="white"/>
</clipPath>
</defs>
</svg>
