<svg width="16" height="16" viewBox="0 0 16 16" fill="none" xmlns="http://www.w3.org/2000/svg">
<g clip-path="url(#clip0_2621_300024)">
<path d="M2.1624 11C3.5257 11 4.40784 10.3104 4.40784 8.9631V8.91509H3.16465V8.9631C3.16465 9.5966 2.77187 9.91752 2.1624 9.91752C2.0291 9.91752 1.90649 9.90037 1.79564 9.86808V10.9819C1.91361 10.9942 2.03587 11 2.1624 11Z" fill="#3399FF"/>
<path d="M4.40784 7.31134V7.26315C4.40784 5.91585 3.5257 5.22643 2.17843 5.22643C2.0462 5.22643 1.91825 5.23281 1.79564 5.24592V6.36041C1.91076 6.32659 2.038 6.30891 2.17843 6.30891C2.77187 6.30891 3.16465 6.62983 3.16465 7.26315V7.31134H4.40784Z" fill="#3399FF"/>
<path d="M0 7.26318V8.96326C0 9.94092 0.464414 10.572 1.23392 10.8449V5.38378C0.46192 5.65762 0 6.28805 0 7.26318Z" fill="#3399FF"/>
<path d="M2.81999 4.71808L3.58166 3.5554H2.54733L2.18628 4.11662L1.82558 3.5554H0.75882L1.52049 4.71808H2.81999Z" fill="#3399FF"/>
<path d="M7.01641 9.87534V6.42684H7.01712V5.34422H5.77322V10.9578H7.01712V9.87534H7.01641Z" fill="#3399FF"/>
<path d="M8.01867 5.33684H7.57849V6.41946H8.01867C8.61211 6.41946 9.00488 6.74024 9.00488 7.37388V8.91358C9.00488 9.54704 8.61211 9.86796 8.00263 9.86796H7.57849V10.9504H8.00263C9.36594 10.9504 10.2477 10.261 10.2477 8.91358V7.37388C10.2477 6.02672 9.36593 5.33684 8.01867 5.33684Z" fill="#3399FF"/>
<path d="M13.8023 7.80322L15.8799 5.32497H14.364L13.1529 6.82097V8.99778L14.4924 10.9386H16L13.8023 7.80322Z" fill="#3399FF"/>
<path d="M12.578 7.5146V5.32497H11.3348V10.9386H12.578V9.23823V7.5146Z" fill="#3399FF"/>
<path d="M16 16L16 15L-4.37114e-08 15L0 16L16 16Z" fill="#3399FF"/>
</g>
<defs>
<clipPath id="clip0_2621_300024">
<rect width="16" height="16" fill="white"/>
</clipPath>
</defs>
</svg>
